<svg xmlns="http://www.w3.org/2000/svg" width="250" height="140.625" viewBox="0 0 250 140.625">
  <g id="Group_8850" data-name="Group 8850" transform="translate(8807 -7185)">
    <g id="Group_8844" data-name="Group 8844" transform="translate(0 175)">
      <g id="Group_8313" data-name="Group 8313" transform="translate(-18672 16593)">
        <rect id="Rectangle_4204" data-name="Rectangle 4204" width="250" height="140.625" transform="translate(9865 -9583)" fill="#fff" opacity="0"/>
      </g>
      <g id="Group_8845" data-name="Group 8845" transform="translate(-8872.155 6892.462)">
        <g id="Group_8845-2" data-name="Group 8845" transform="translate(123.48 152.609)">
          <path id="Path_87737" data-name="Path 87737" d="M161.516,277.506s62.863-15.437,109.437-4.559l.144-.5s-40.638-12-108.8,2.616l-.781,2.448" transform="translate(-161.516 -240.261)" fill="#e4003b"/>
          <path id="Path_87738" data-name="Path 87738" d="M250.669,198.131v2.562a4.635,4.635,0,0,1,1.319-1.864,5.222,5.222,0,0,1,3.32-1.134,5.684,5.684,0,0,1,1.877.327,4.455,4.455,0,0,1,2.728,2.927,5.711,5.711,0,0,1,5.2-3.22,5.5,5.5,0,0,1,3.886,1.5c1.643,1.608,1.707,3.361,1.707,7.751v10.086h-4.832v-8.954c0-3.038-.069-3.656-.561-4.46a2.136,2.136,0,0,0-2.01-1.062,2.518,2.518,0,0,0-2.071,1.1,9.14,9.14,0,0,0-.525,4.021v9.358h-4.839v-9.54c0-2.047,0-2.959-.491-3.8a2.31,2.31,0,0,0-1.974-1.135,2.541,2.541,0,0,0-1.25.333c-1.416.8-1.445,2.19-1.445,5.773v8.37h-4.838V198.131Z" transform="translate(-220.537 -191.203)" fill="#00244d"/>
          <path id="Path_87739" data-name="Path 87739" d="M346.692,199.147h4.936l-4.936,18.937h-4.507l-2.862-12.793-2.832,12.793h-4.57l-4.938-18.937h4.938l2.593,11.844,2.666-11.844h4.281l2.631,11.844Z" transform="translate(-277.295 -192.219)" fill="#00244d"/>
          <path id="Path_87740" data-name="Path 87740" d="M416.538,207.3a7.046,7.046,0,0,1-1.252,4.608,2.824,2.824,0,0,1-2.108,1.059,3.005,3.005,0,0,1-2.7-2.23,8.625,8.625,0,0,1-.527-3.253,7.288,7.288,0,0,1,1.022-4.17,3.089,3.089,0,0,1,2.4-1.386,2.618,2.618,0,0,1,1.943.95C415.945,203.57,416.538,204.85,416.538,207.3Zm.248,9.687h4.736v-18.97h-4.64v2.45a4.55,4.55,0,0,0-4.206-2.888c-3.225,0-7.44,2.778-7.44,10.234,0,5.919,3.029,9.577,7.074,9.577a4.948,4.948,0,0,0,4.476-2.484Z" transform="translate(-332.048 -191.12)" fill="#00244d"/>
          <path id="Path_87741" data-name="Path 87741" d="M470.595,199.147h4.914L470.1,217.938c-.4,1.315-1.02,3.471-1.975,4.531-.887.953-1.941,1.392-5.857,1.392-.557,0-.786-.038-1.278-.074v-4.206h1.278a3.3,3.3,0,0,0,2.043-.474,2.709,2.709,0,0,0,.725-1.9,6.405,6.405,0,0,0-.364-1.609l-5.265-16.449h5.265l3.094,12.761Z" transform="translate(-369.951 -192.219)" fill="#00244d"/>
          <path id="Path_87742" data-name="Path 87742" d="M183.825,181.754l2.6,9.965h-5.055Zm-3.067-5.678-8.123,25.865H178.6l1.518-5.5h7.614l1.552,5.5h6l-8.459-25.865Z" transform="translate(-169.297 -176.076)" fill="#00244d"/>
        </g>
        <g id="Group_8849" data-name="Group 8849" transform="translate(107.155 142.538)">
          <path id="Path_87743" data-name="Path 87743" d="M538.76,180.126s-4.086-25.74,37.793-37.588C586.767,171.546,538.76,180.126,538.76,180.126Z" transform="translate(-409.073 -142.538)" fill="#70b32f"/>
          <path id="Path_87744" data-name="Path 87744" d="M562.144,269.935s15.526-10.623,37.18-1.43C587.271,283.009,562.144,269.935,562.144,269.935Z" transform="translate(-425.511 -228.057)" fill="#28842d"/>
          <g id="Group_8848" data-name="Group 8848" transform="translate(0 0.018)">
            <g id="Group_8846" data-name="Group 8846" transform="translate(0 39.847)">
              <path id="Path_87745" data-name="Path 87745" d="M107.155,275.289h6.792v21.289h.155a12.132,12.132,0,0,1,4.862-4.371,14.988,14.988,0,0,1,6.946-1.762c5.016,0,13.043,2.82,13.043,14.592v20.3h-6.792v-19.6c0-5.5-2.238-10.151-8.644-10.151a9.683,9.683,0,0,0-9.107,6.2,6.92,6.92,0,0,0-.463,2.961v20.584h-6.792Z" transform="translate(-107.155 -275.289)" fill="#28842d"/>
              <path id="Path_87746" data-name="Path 87746" d="M267.023,343.311c0,12.618-9.57,18.116-18.6,18.116-10.11,0-17.905-6.767-17.905-17.552,0-11.42,8.181-18.117,18.523-18.117C259.768,325.758,267.023,332.878,267.023,343.311Zm-29.636.353c0,7.472,4.708,13.111,11.345,13.111,6.483,0,11.345-5.569,11.345-13.253,0-5.78-3.164-13.112-11.191-13.112S237.387,337.178,237.387,343.663Z" transform="translate(-193.472 -310.602)" fill="#28842d"/>
              <path id="Path_87747" data-name="Path 87747" d="M369.611,335.768c0-3.525-.077-6.415-.309-9.234h5.943l.309,5.5h.232a13.071,13.071,0,0,1,11.731-6.274,11.017,11.017,0,0,1,10.573,6.838h.155a14.507,14.507,0,0,1,4.168-4.441,13.568,13.568,0,0,1,8.258-2.4c4.939,0,12.271,2.961,12.271,14.8v20.09H416.3V341.337c0-6.556-2.624-10.5-8.1-10.5a8.7,8.7,0,0,0-8.027,5.639,9.416,9.416,0,0,0-.54,3.1v21.077H393V340.209c0-5.428-2.624-9.376-7.795-9.376a9.129,9.129,0,0,0-8.413,6.2,7.885,7.885,0,0,0-.54,3.031v20.584h-6.638Z" transform="translate(-290.579 -310.602)" fill="#28842d"/>
              <path id="Path_87748" data-name="Path 87748" d="M571.884,344.72c.154,8.389,6.02,11.843,12.812,11.843a26.594,26.594,0,0,0,10.342-1.762l1.157,4.441a32.451,32.451,0,0,1-12.426,2.185c-11.5,0-18.368-6.979-18.368-17.271s6.637-18.4,17.519-18.4c12.194,0,15.436,9.8,15.436,16.072a21.348,21.348,0,0,1-.232,2.89ZM591.8,340.28c.077-3.947-1.775-10.08-9.416-10.08-6.869,0-9.879,5.78-10.419,10.08Z" transform="translate(-427.79 -310.602)" fill="#28842d"/>
            </g>
            <g id="Group_8847" data-name="Group 8847" transform="translate(170.781)">
              <path id="Path_87749" data-name="Path 87749" d="M679.435,143.449H678.19v3.534H677.1v-3.534h-1.246V142.6h3.577Zm5.642,3.534h-1.022v-3.108h-.021l-1.128,3.108h-.735l-1.128-3.108h-.021v3.108H680V142.6h1.448l1.1,2.884,1.1-2.884h1.438Z" transform="translate(-675.859 -142.597)" fill="#28842d"/>
            </g>
          </g>
        </g>
      </g>
    </g>
  </g>
</svg>
