<svg xmlns="http://www.w3.org/2000/svg" width="250" height="140.625" viewBox="0 0 250 140.625">
  <g id="Group_8843" data-name="Group 8843" transform="translate(8807 -7010)">
    <g id="Group_8313" data-name="Group 8313" transform="translate(-18672 16593)">
      <rect id="Rectangle_4204" data-name="Rectangle 4204" width="250" height="140.625" transform="translate(9865 -9583)" fill="#fff" opacity="0"/>
    </g>
    <g id="Group_8842" data-name="Group 8842" transform="translate(-8793.413 7059.558)">
      <rect id="Rectangle_4308" data-name="Rectangle 4308" width="8.514" height="2.58" transform="translate(62.057 4.442)"/>
      <path id="Path_87731" data-name="Path 87731" d="M200.354,4.444V37.991h4.058V7.023H217.1V4.444Z" transform="translate(-125.653 -0.001)"/>
      <path id="Path_87732" data-name="Path 87732" d="M15.8,4.444,1.413,37.992h2.52L15.6,10.727l6.095,13.6H13.419l-.964,2.312H22.736l5.048,11.352h4.274L17.174,4.444Z" transform="translate(0 -0.001)"/>
      <path id="Path_87733" data-name="Path 87733" d="M117.576,21.458a8.75,8.75,0,0,0,3.567-7.581c0-6.523-3.236-9.434-10.488-9.434H100.087V37.99h4.1V6.776h6.78c4.624,0,5.89,1.526,5.89,7.1,0,3.108-.512,7.239-4.956,7.239h-3.861v2.333h.889L119.96,37.99h4.915L113.625,23.15a10.884,10.884,0,0,0,3.951-1.693" transform="translate(-62.324 -0.001)"/>
      <rect id="Rectangle_4309" data-name="Rectangle 4309" width="3.813" height="33.547" transform="translate(97.529 4.442)"/>
      <path id="Path_87734" data-name="Path 87734" d="M306.612,19.237l-3.983-1.015c-3.653-.9-6.678-1.947-6.678-5.642,0-3.463,3.079-5.882,7.487-5.882,4.425,0,8.028,1.968,9.637,5.265l.491,1,1.88-1.442-.332-.668c-2.008-4.013-6.372-6.409-11.675-6.409-6.326,0-11.1,3.836-11.1,8.927a7.1,7.1,0,0,0,2.632,5.883,16.528,16.528,0,0,0,6.645,2.8l4.249,1.016c3.3.777,6.67,2.117,6.67,6.17,0,4.49-4.1,6.5-8.158,6.5-5.3,0-9.7-2.572-11.215-6.556l-.373-.976-2,1.1.266.731c1.748,4.76,7.1,7.958,13.326,7.958a13.521,13.521,0,0,0,8.034-2.445,8.954,8.954,0,0,0,3.735-7.454c0-4.485-2.941-7.218-9.535-8.857" transform="translate(-182.771 -0.002)"/>
      <path id="Path_87735" data-name="Path 87735" d="M474.626,13.878c0-6.525-3.234-9.434-10.488-9.434h-2.327V6.777h2.641c4.624,0,5.89,1.526,5.89,7.1,0,3.108-.512,7.238-4.955,7.238h-7.713V4.444h-4.1V37.991h4.1V23.447h5.159l10.6,14.544h4.886L467.441,23.069c2.646-.673,7.185-2.767,7.185-9.191" transform="translate(-285.587 -0.001)"/>
      <path id="Path_87736" data-name="Path 87736" d="M546.9,4.443,536.235,21.613,525.883,4.874l-.27-.431h-4.7l12.306,19.8V37.991h4.1V24.242l12.209-19.8Z" transform="translate(-328.123 -0.001)"/>
      <rect id="Rectangle_4310" data-name="Rectangle 4310" width="4.058" height="27.041" transform="translate(146.938 10.948)"/>
      <rect id="Rectangle_4311" data-name="Rectangle 4311" width="29.394" height="2.532" transform="translate(134.291 4.444)"/>
    </g>
  </g>
</svg>
