<svg xmlns="http://www.w3.org/2000/svg" width="250" height="140.625" viewBox="0 0 250 140.625">
  <g id="Group_8317" data-name="Group 8317" transform="translate(-8969 9749)">
    <rect id="Rectangle_4181" data-name="Rectangle 4181" width="250" height="140.625" transform="translate(8969 -9749)" fill="#fff" opacity="0"/>
    <g id="Group_8276" data-name="Group 8276" transform="translate(8953.667 -9770.738)">
      <g id="Group_8276-2" data-name="Group 8276" transform="translate(50.507 83.037)">
        <path id="Path_87425" data-name="Path 87425" d="M62.057,149.468a5.736,5.736,0,1,1-5.737-5.737,5.737,5.737,0,0,1,5.737,5.737" transform="translate(-50.584 -109.955)" fill="#6ea2c6"/>
        <path id="Path_87426" data-name="Path 87426" d="M62.057,125.113a5.736,5.736,0,1,1-5.737-5.737,5.737,5.737,0,0,1,5.737,5.737" transform="translate(-50.584 -102.505)" fill="#6ea2c6"/>
        <path id="Path_87427" data-name="Path 87427" d="M62.057,100.806a5.736,5.736,0,1,1-5.737-5.737,5.737,5.737,0,0,1,5.737,5.737" transform="translate(-50.584 -95.069)" fill="#6ea2c6"/>
        <path id="Path_87428" data-name="Path 87428" d="M81.279,95.585a5.01,5.01,0,0,0-5,5v9.684a5,5,0,1,0,10.006,0v-9.684a5.01,5.01,0,0,0-5-5" transform="translate(-58.444 -95.227)" fill="#6ea2c6"/>
        <path id="Path_87429" data-name="Path 87429" d="M81.279,131.892a5.008,5.008,0,0,0-5,5v9.687a5,5,0,0,0,10.006,0v-9.687a5.008,5.008,0,0,0-5-5" transform="translate(-58.444 -106.334)" fill="#6ea2c6"/>
        <path id="Path_87430" data-name="Path 87430" d="M105.113,95.583a5.01,5.01,0,0,0-5,5v34.884a5,5,0,1,0,10.008,0V100.587a5.01,5.01,0,0,0-5-5" transform="translate(-65.734 -95.226)" fill="#6ea2c6"/>
      </g>
      <path id="Path_87431" data-name="Path 87431" d="M305.616,155.832l-.13-1.944c-.013-.253,0-.562-.006-.871h-.025c-.079.3-.182.637-.271.923l-.679,1.853h-.368l-.658-1.9c-.077-.259-.162-.575-.24-.871h-.019c-.006.3,0,.58-.019.871l-.117,1.944h-.472l.253-3.223h.639l.633,1.75c.078.246.149.509.226.808h.019c.071-.3.144-.582.226-.814l.629-1.744h.633l.246,3.223Zm-4.591,0v-2.809h-.981v-.414H302.5v.414h-.988v2.809Z" transform="translate(-76.39 -29.634)" fill="#2a607e"/>
      <path id="Path_87432" data-name="Path 87432" d="M163.763,114.614c8.932,2.025,11.2,7.326,11.2,12.33,0,7.742-5.839,13.521-17.633,13.521-12.389,0-17.928-6.195-17.928-10.842a3.923,3.923,0,0,1,4.108-4.047c5.3,0,3.933,7.742,13.819,7.742,5.063,0,7.863-2.8,7.863-5.657,0-1.73-.833-3.634-4.169-4.467L150,120.393c-8.878-2.264-10.484-7.147-10.484-11.736,0-9.53,8.816-13.105,17.094-13.105,7.625,0,16.618,4.292,16.618,10.01,0,2.439-2.084,3.87-4.467,3.87-4.526,0-3.695-6.372-12.807-6.372-4.525,0-7.028,2.084-7.028,5.061s3.574,3.931,6.671,4.647Z" transform="translate(-27.247 -12.18)" fill="#2a607e"/>
      <path id="Path_87433" data-name="Path 87433" d="M202.505,100.781a4.884,4.884,0,1,1,9.768,0v14.177L227.64,98.041c1.132-1.19,2.145-2.145,3.872-2.145,2.324,0,4.645,1.428,4.645,3.933a4.6,4.6,0,0,1-1.608,3.336l-10.006,10.542L236.4,131.755c.892,1.368,1.846,2.622,1.846,3.872,0,3.632-2.68,4.7-5.006,4.7-1.963,0-3.037-.474-4.346-2.56l-11.259-17.39-5.359,5.359v9.709a4.884,4.884,0,0,1-9.768,0Z" transform="translate(-46.552 -12.285)" fill="#2a607e"/>
      <path id="Path_87434" data-name="Path 87434" d="M271.5,122.821l-11.974-19.893a5.056,5.056,0,0,1-.836-2.563c0-3.335,3.039-4.467,4.948-4.467,2.32,0,3.393.954,4.407,2.859l8.516,15.666,8.459-15.666c1.132-2.145,2.205-2.859,4.229-2.859,1.788,0,4.825,1.132,4.825,4.467a5.017,5.017,0,0,1-.836,2.563l-11.971,19.893v12.627a4.884,4.884,0,1,1-9.768,0Z" transform="translate(-63.739 -12.286)" fill="#2a607e"/>
      <g id="Group_8277" data-name="Group 8277" transform="translate(50.333 55.738)">
        <path id="Path_87435" data-name="Path 87435" d="M159.647,69.439a3.834,3.834,0,0,0,1.6,2.832,7.569,7.569,0,0,0,4.96,1.528c4.029,0,6.381-2.191,6.381-5.524a4.144,4.144,0,0,0-1.989-3.933,15.757,15.757,0,0,0-3.939-1.358c-2.487-.67-3.826-.716-3.826-2.312,0-1.287.973-2.074,2.742-2.074a3.168,3.168,0,0,1,2.644,1.072c.656.833.948,1.547,2.016,1.547a1.433,1.433,0,0,0,1.493-1.547,3.648,3.648,0,0,0-1.567-2.619,7.075,7.075,0,0,0-4.411-1.311c-3.939,0-6.154,1.955-6.154,5.146,0,3.262,1.723,4.289,5.386,5.173,2.966.714,4.321,1,4.321,2.567,0,1.455-1.063,2.214-3.144,2.214a3.366,3.366,0,0,1-2.9-1.233c-.677-.858-.9-1.9-2.105-1.9a1.556,1.556,0,0,0-1.514,1.736m79.544-2.788c2.2,0,2.289.956,2.425,3.028.162,2.52.246,3.88,2.107,3.88a1.53,1.53,0,0,0,1.677-1.593,16.886,16.886,0,0,0-.3-1.7c-.092-.52-.047-1.286-.138-2.281A2.939,2.939,0,0,0,243,65.1c1.56-.524,2.418-1.955,2.418-4.049,0-3.313-1.694-4.86-5.226-4.86h-5.86c-1.65,0-2.041.762-2.041,2.69V71.655c0,1.266.566,1.886,1.678,1.886,1.132,0,1.675-.62,1.675-1.886v-5Zm-33.6-.929v5.933c0,1.266.566,1.886,1.671,1.886,1.136,0,1.7-.62,1.7-1.886V57.84c0-1.262-.591-1.884-1.7-1.884-1.132,0-1.671.622-1.671,1.884v4.743h-6.727V57.84c0-1.262-.564-1.884-1.669-1.884-1.13,0-1.678.622-1.678,1.884V71.655c0,1.266.566,1.886,1.678,1.886,1.131,0,1.669-.62,1.669-1.886V65.722ZM177.8,58.884V71.655c0,1.266.566,1.886,1.677,1.886,1.13,0,1.671-.62,1.671-1.886V67.223h4.126c3.21,0,4.975-2,4.975-5.524,0-3.6-1.765-5.5-5.2-5.5h-5.2c-1.656,0-2.041.762-2.041,2.69m73.256,0V70.636c0,1.927.385,2.69,2.041,2.69h8.6c1.2,0,1.813-.547,1.813-1.574,0-1.047-.61-1.573-1.813-1.573h-7.331v-4.43h6.2c1.2,0,1.788-.527,1.788-1.458,0-.974-.591-1.475-1.788-1.475h-6.2V59.17h6.9c1.2,0,1.807-.518,1.807-1.474,0-.981-.606-1.5-1.807-1.5h-8.168c-1.656,0-2.041.762-2.041,2.69m-36.137,0V70.636c0,1.927.384,2.69,2.034,2.69h8.6c1.2,0,1.807-.547,1.807-1.574,0-1.047-.609-1.573-1.807-1.573h-7.334v-4.43h6.2c1.2,0,1.787-.527,1.787-1.458,0-.974-.584-1.475-1.787-1.475h-6.2V59.17h6.9c1.2,0,1.812-.518,1.812-1.474,0-.981-.609-1.5-1.812-1.5h-8.169c-1.65,0-2.034.762-2.034,2.69m-33.744,5.238V59.17h3.416c1.539,0,2.333.861,2.333,2.477,0,1.767-.793,2.475-2.514,2.475Zm54.472-.447v-4.53h4.1a2.053,2.053,0,0,1,2.333,2.268c0,1.573-.792,2.262-2.49,2.262Z" transform="translate(-83.76 -55.739)" fill="#7d8080"/>
        <path id="Path_87436" data-name="Path 87436" d="M61.4,72.346l-.775-2.456H54.316l-.748,2.456a1.577,1.577,0,0,1-1.629,1.288,1.5,1.5,0,0,1-1.606-1.553,2.652,2.652,0,0,1,.155-.9l4.5-13.316c.476-1.429.865-1.813,2.471-1.813,1.631,0,1.969.453,2.418,1.769l4.6,13.36a2.542,2.542,0,0,1,.157.9A1.519,1.519,0,0,1,63,73.635a1.551,1.551,0,0,1-1.6-1.288m-6.2-5.34h4.524l-2.262-7.293Z" transform="translate(-50.333 -55.833)" fill="#7d8080"/>
        <path id="Path_87437" data-name="Path 87437" d="M77.891,71.866V59.456H74.5c-1.084,0-1.631-.476-1.631-1.5,0-1,.547-1.521,1.631-1.521H84.637c1.086,0,1.629.522,1.629,1.521s-.543,1.5-1.629,1.5H81.243v12.41c0,1.268-.545,1.884-1.675,1.884-1.111,0-1.677-.616-1.677-1.884" transform="translate(-57.227 -55.95)" fill="#7d8080"/>
        <path id="Path_87438" data-name="Path 87438" d="M111.879,71.535V59.6L109.07,71.274c-.407,1.662-.948,2.358-2.216,2.358-1.219,0-1.836-.712-2.241-2.358l-2.8-11.679v11.94c0,1.428-.474,2.1-1.56,2.1-1.132,0-1.587-.668-1.587-2.1V58.748c0-1.939.385-2.7,2.041-2.7h1.176c1.65,0,1.853.687,2.306,2.546l2.671,10.724,2.581-10.509c.474-1.921.794-2.761,2.216-2.761h1.334c1.627,0,2.039.76,2.039,2.7V71.535c0,1.4-.474,2.1-1.56,2.1-1.111,0-1.585-.641-1.585-2.1" transform="translate(-65.117 -55.833)" fill="#7d8080"/>
        <path id="Path_87439" data-name="Path 87439" d="M129.828,64.773c0-5.549,3.08-9.035,7.947-9.035s7.967,3.5,7.967,9.035-3.1,9.024-7.967,9.024-7.947-3.475-7.947-9.024m3.419,0c0,3.807,1.7,5.952,4.528,5.952,2.855,0,4.57-2.145,4.57-5.952s-1.715-5.961-4.57-5.961c-2.832,0-4.528,2.145-4.528,5.961" transform="translate(-74.652 -55.738)" fill="#7d8080"/>
        <path id="Path_87440" data-name="Path 87440" d="M161.251,72.271a3.837,3.837,0,0,1-1.6-2.832,1.553,1.553,0,0,1,1.514-1.736c1.2,0,1.428,1.047,2.105,1.905a3.37,3.37,0,0,0,2.9,1.232c2.08,0,3.146-.758,3.146-2.216,0-1.564-1.358-1.853-4.321-2.565-3.665-.886-5.388-1.913-5.388-5.175,0-3.189,2.216-5.146,6.155-5.146a7.072,7.072,0,0,1,4.413,1.314,3.651,3.651,0,0,1,1.566,2.619,1.434,1.434,0,0,1-1.493,1.548c-1.068,0-1.36-.717-2.018-1.548a3.169,3.169,0,0,0-2.644-1.074c-1.767,0-2.742.788-2.742,2.074,0,1.6,1.339,1.644,3.828,2.314a15.685,15.685,0,0,1,3.937,1.358,4.142,4.142,0,0,1,1.991,3.933c0,3.333-2.352,5.522-6.383,5.522a7.562,7.562,0,0,1-4.958-1.527" transform="translate(-83.759 -55.738)" fill="#7d8080"/>
        <path id="Path_87441" data-name="Path 87441" d="M185.817,71.854V59.085c0-1.93.382-2.69,2.041-2.69h5.2c3.44,0,5.2,1.905,5.2,5.5,0,3.523-1.764,5.526-4.979,5.526h-4.125v4.43c0,1.267-.539,1.884-1.671,1.884-1.111,0-1.675-.616-1.675-1.884m3.373-7.531h3.233c1.723,0,2.517-.708,2.517-2.475,0-1.619-.793-2.477-2.333-2.477H189.19Z" transform="translate(-91.779 -55.939)" fill="#7d8080"/>
        <path id="Path_87442" data-name="Path 87442" d="M221.419,71.749V65.816h-6.725v5.933c0,1.268-.541,1.884-1.671,1.884-1.109,0-1.675-.616-1.675-1.884V57.934c0-1.262.543-1.884,1.675-1.884,1.1,0,1.671.622,1.671,1.884v4.745h6.725V57.934c0-1.262.539-1.884,1.671-1.884,1.108,0,1.7.622,1.7,1.884V71.749c0,1.268-.566,1.884-1.7,1.884-1.107,0-1.671-.616-1.671-1.884" transform="translate(-99.59 -55.833)" fill="#7d8080"/>
        <path id="Path_87443" data-name="Path 87443" d="M241.327,73.525c-1.65,0-2.034-.758-2.034-2.69V59.087c0-1.932.385-2.69,2.034-2.69H249.5c1.2,0,1.813.518,1.813,1.5,0,.954-.612,1.474-1.813,1.474h-6.9V63.02h6.2c1.2,0,1.788.5,1.788,1.474,0,.927-.585,1.453-1.788,1.453h-6.2v4.432h7.337c1.195,0,1.8.529,1.8,1.575,0,1.026-.61,1.571-1.8,1.571Z" transform="translate(-108.139 -55.94)" fill="#7d8080"/>
        <path id="Path_87444" data-name="Path 87444" d="M273.654,69.881c-.136-2.074-.226-3.028-2.423-3.028h-3.548v5c0,1.265-.547,1.884-1.675,1.884s-1.677-.618-1.677-1.884V59.086c0-1.93.39-2.688,2.038-2.688h5.863c3.529,0,5.225,1.543,5.225,4.86,0,2.091-.859,3.521-2.418,4.047A2.941,2.941,0,0,1,277,68.191c.09.995.044,1.761.136,2.281a16.777,16.777,0,0,1,.3,1.7,1.528,1.528,0,0,1-1.675,1.592c-1.859,0-1.945-1.358-2.107-3.878m-5.971-6.007h3.939c1.694,0,2.488-.689,2.488-2.26a2.053,2.053,0,0,0-2.335-2.268h-4.092Z" transform="translate(-115.798 -55.94)" fill="#7d8080"/>
        <path id="Path_87445" data-name="Path 87445" d="M293.4,73.525c-1.658,0-2.041-.758-2.041-2.69V59.087c0-1.932.382-2.69,2.041-2.69h8.168c1.2,0,1.807.518,1.807,1.5,0,.954-.606,1.474-1.807,1.474h-6.9V63.02h6.2c1.2,0,1.79.5,1.79,1.474,0,.927-.591,1.453-1.79,1.453h-6.2v4.432H302c1.2,0,1.811.529,1.811,1.575,0,1.026-.61,1.571-1.811,1.571Z" transform="translate(-124.066 -55.94)" fill="#7d8080"/>
      </g>
    </g>
  </g>
</svg>
