<svg xmlns="http://www.w3.org/2000/svg" width="250" height="140.625" viewBox="0 0 250 140.625">
  <g id="Group_8851" data-name="Group 8851" transform="translate(8807 -7185)">
    <g id="Group_8844" data-name="Group 8844" transform="translate(0 175)">
      <g id="Group_8313" data-name="Group 8313" transform="translate(-18672 16593)">
        <rect id="Rectangle_4204" data-name="Rectangle 4204" width="250" height="140.625" transform="translate(9865 -9583)" fill="#fff" opacity="0"/>
      </g>
      <g id="Group_8855" data-name="Group 8855" transform="translate(-8832.333 6983.183)">
        <g id="Group_8852" data-name="Group 8852" transform="translate(50.333 65.817)">
          <path id="Path_87750" data-name="Path 87750" d="M159.65,80.364a4.071,4.071,0,0,0,1.7,3.007,8.037,8.037,0,0,0,5.266,1.623c4.278,0,6.774-2.326,6.774-5.865a4.4,4.4,0,0,0-2.111-4.175,16.758,16.758,0,0,0-4.182-1.441c-2.64-.712-4.062-.76-4.062-2.455,0-1.365,1.033-2.2,2.912-2.2a3.363,3.363,0,0,1,2.807,1.138c.7.885,1.007,1.643,2.14,1.643a1.522,1.522,0,0,0,1.585-1.643,3.872,3.872,0,0,0-1.663-2.78,7.507,7.507,0,0,0-4.683-1.393c-4.182,0-6.534,2.076-6.534,5.463,0,3.463,1.829,4.555,5.718,5.492,3.149.759,4.588,1.063,4.588,2.726,0,1.545-1.129,2.35-3.337,2.35a3.575,3.575,0,0,1-3.077-1.308c-.718-.912-.958-2.022-2.235-2.022a1.652,1.652,0,0,0-1.608,1.842M244.1,77.4c2.333,0,2.43,1.015,2.575,3.215.172,2.676.262,4.12,2.237,4.12a1.625,1.625,0,0,0,1.78-1.692,17.916,17.916,0,0,0-.319-1.8c-.1-.553-.049-1.366-.147-2.421a3.121,3.121,0,0,0-2.084-3.065c1.656-.556,2.567-2.075,2.567-4.3,0-3.517-1.8-5.16-5.548-5.16h-6.222c-1.752,0-2.167.809-2.167,2.856V82.717c0,1.343.6,2,1.781,2,1.2,0,1.778-.659,1.778-2V77.4Zm-35.674-.987v6.3c0,1.343.6,2,1.774,2,1.206,0,1.807-.659,1.807-2V68.048c0-1.339-.627-2-1.807-2-1.2,0-1.774.661-1.774,2v5.036h-7.142V68.048c0-1.339-.6-2-1.772-2-1.2,0-1.781.661-1.781,2V82.717c0,1.343.6,2,1.781,2,1.2,0,1.772-.659,1.772-2v-6.3Zm-29.509-7.259V82.717c0,1.343.6,2,1.78,2,1.2,0,1.774-.659,1.774-2V78.011h4.381c3.408,0,5.282-2.124,5.282-5.864,0-3.823-1.874-5.845-5.526-5.845h-5.525c-1.758,0-2.167.809-2.167,2.856m77.775,0V81.634c0,2.046.408,2.856,2.167,2.856h9.127c1.277,0,1.925-.581,1.925-1.672,0-1.111-.648-1.67-1.925-1.67H260.2v-4.7h6.583c1.27,0,1.9-.559,1.9-1.547,0-1.033-.628-1.565-1.9-1.565H260.2V69.461h7.329c1.275,0,1.918-.55,1.918-1.565,0-1.043-.643-1.595-1.918-1.595H258.86c-1.758,0-2.167.809-2.167,2.856m-38.366,0V81.634c0,2.046.408,2.856,2.159,2.856h9.133c1.271,0,1.918-.581,1.918-1.672,0-1.111-.647-1.67-1.918-1.67h-7.787v-4.7h6.581c1.277,0,1.9-.559,1.9-1.547,0-1.033-.62-1.565-1.9-1.565h-6.581V69.461h7.326c1.277,0,1.924-.55,1.924-1.565,0-1.043-.647-1.595-1.924-1.595h-8.673c-1.752,0-2.159.809-2.159,2.856M182.5,74.718V69.461h3.627c1.634,0,2.477.914,2.477,2.63,0,1.875-.842,2.627-2.669,2.627Zm57.832-.475V69.435h4.348a2.179,2.179,0,0,1,2.477,2.407c0,1.67-.841,2.4-2.643,2.4Z" transform="translate(-79.081 -65.818)" fill="#7d8080"/>
          <path id="Path_87751" data-name="Path 87751" d="M62.083,83.431l-.822-2.607h-6.7l-.794,2.607a1.675,1.675,0,0,1-1.73,1.368,1.59,1.59,0,0,1-1.705-1.65,2.821,2.821,0,0,1,.164-.958l4.78-14.138c.506-1.517.918-1.925,2.623-1.925,1.732,0,2.091.481,2.567,1.878l4.883,14.184a2.7,2.7,0,0,1,.167.958,1.613,1.613,0,0,1-1.732,1.65,1.648,1.648,0,0,1-1.7-1.368M55.5,77.761h4.8l-2.4-7.743Z" transform="translate(-50.333 -65.899)" fill="#7d8080"/>
          <path id="Path_87752" data-name="Path 87752" d="M78.2,82.9V69.722H74.6c-1.151,0-1.732-.506-1.732-1.6,0-1.06.581-1.615,1.732-1.615H85.363c1.153,0,1.73.555,1.73,1.615s-.577,1.6-1.73,1.6h-3.6V82.9c0,1.346-.578,2-1.778,2-1.18,0-1.78-.654-1.78-2" transform="translate(-56.262 -66)" fill="#7d8080"/>
          <path id="Path_87753" data-name="Path 87753" d="M112.695,82.57V69.894l-2.982,12.4c-.433,1.765-1.007,2.5-2.353,2.5-1.295,0-1.949-.756-2.379-2.5L102,69.894V82.57c0,1.517-.5,2.226-1.656,2.226-1.2,0-1.685-.71-1.685-2.226V68.993c0-2.057.408-2.864,2.167-2.864h1.248c1.752,0,1.967.729,2.448,2.7l2.836,11.387L110.1,69.06c.5-2.04.843-2.931,2.353-2.931h1.416c1.727,0,2.164.807,2.164,2.864V82.57c0,1.488-.5,2.226-1.656,2.226-1.18,0-1.683-.681-1.683-2.226" transform="translate(-63.048 -65.899)" fill="#7d8080"/>
          <path id="Path_87754" data-name="Path 87754" d="M129.828,75.409c0-5.892,3.27-9.592,8.437-9.592s8.459,3.718,8.459,9.592-3.29,9.581-8.459,9.581-8.437-3.69-8.437-9.581m3.63,0c0,4.042,1.8,6.32,4.807,6.32,3.031,0,4.852-2.278,4.852-6.32s-1.821-6.329-4.852-6.329c-3.007,0-4.807,2.278-4.807,6.329" transform="translate(-71.248 -65.817)" fill="#7d8080"/>
          <path id="Path_87755" data-name="Path 87755" d="M161.353,83.37a4.074,4.074,0,0,1-1.7-3.007,1.649,1.649,0,0,1,1.608-1.842c1.275,0,1.517,1.111,2.235,2.022a3.576,3.576,0,0,0,3.075,1.308c2.208,0,3.34-.8,3.34-2.352,0-1.661-1.441-1.967-4.588-2.723-3.892-.94-5.721-2.032-5.721-5.5,0-3.385,2.353-5.463,6.535-5.463a7.508,7.508,0,0,1,4.685,1.395,3.878,3.878,0,0,1,1.662,2.78,1.523,1.523,0,0,1-1.585,1.643c-1.133,0-1.444-.76-2.142-1.643a3.364,3.364,0,0,0-2.807-1.139c-1.876,0-2.912.836-2.912,2.2,0,1.7,1.421,1.746,4.064,2.457a16.682,16.682,0,0,1,4.18,1.441,4.4,4.4,0,0,1,2.113,4.175c0,3.539-2.5,5.863-6.777,5.863a8.029,8.029,0,0,1-5.264-1.621" transform="translate(-79.08 -65.817)" fill="#7d8080"/>
          <path id="Path_87756" data-name="Path 87756" d="M185.817,82.887V69.331c0-2.049.406-2.856,2.167-2.856h5.525c3.652,0,5.525,2.022,5.525,5.843,0,3.741-1.873,5.867-5.286,5.867h-4.379v4.7c0,1.346-.572,2-1.774,2-1.18,0-1.778-.654-1.778-2m3.581-8h3.433c1.83,0,2.672-.752,2.672-2.628,0-1.718-.842-2.629-2.477-2.629H189.4Z" transform="translate(-85.978 -65.99)" fill="#7d8080"/>
          <path id="Path_87757" data-name="Path 87757" d="M222.041,82.8V76.5H214.9v6.3c0,1.346-.574,2-1.774,2-1.178,0-1.778-.654-1.778-2V68.129c0-1.339.576-2,1.778-2,1.173,0,1.774.661,1.774,2v5.038h7.14V68.129c0-1.339.573-2,1.774-2,1.177,0,1.807.661,1.807,2V82.8c0,1.346-.6,2-1.807,2-1.175,0-1.774-.654-1.774-2" transform="translate(-92.695 -65.899)" fill="#7d8080"/>
          <path id="Path_87758" data-name="Path 87758" d="M241.453,84.661c-1.752,0-2.16-.8-2.16-2.856V69.333c0-2.051.408-2.856,2.16-2.856h8.672c1.275,0,1.925.55,1.925,1.592,0,1.013-.65,1.565-1.925,1.565H242.8v3.874h6.581c1.277,0,1.9.53,1.9,1.565,0,.985-.621,1.544-1.9,1.544H242.8v4.705h7.789c1.268,0,1.916.561,1.916,1.672,0,1.088-.648,1.667-1.916,1.667Z" transform="translate(-100.047 -65.991)" fill="#7d8080"/>
          <path id="Path_87759" data-name="Path 87759" d="M274.229,80.792c-.144-2.2-.24-3.215-2.573-3.215H267.89v5.312c0,1.344-.581,2-1.778,2-1.182,0-1.78-.657-1.78-2V69.331c0-2.049.414-2.854,2.164-2.854h6.225c3.747,0,5.547,1.639,5.547,5.16,0,2.22-.912,3.738-2.567,4.3A3.122,3.122,0,0,1,277.783,79c.1,1.055.046,1.869.144,2.421a17.827,17.827,0,0,1,.317,1.8,1.622,1.622,0,0,1-1.778,1.69c-1.973,0-2.065-1.441-2.237-4.118m-6.34-6.377h4.182c1.8,0,2.641-.732,2.641-2.4a2.179,2.179,0,0,0-2.479-2.407H267.89Z" transform="translate(-106.635 -65.991)" fill="#7d8080"/>
          <path id="Path_87760" data-name="Path 87760" d="M293.525,84.661c-1.76,0-2.167-.8-2.167-2.856V69.333c0-2.051.406-2.856,2.167-2.856H302.2c1.275,0,1.918.55,1.918,1.592,0,1.013-.643,1.565-1.918,1.565h-7.329v3.874h6.581c1.273,0,1.9.53,1.9,1.565,0,.985-.628,1.544-1.9,1.544h-6.581v4.705h7.785c1.275,0,1.923.561,1.923,1.672,0,1.088-.648,1.667-1.923,1.667Z" transform="translate(-113.745 -65.991)" fill="#7d8080"/>
        </g>
        <g id="Group_8853" data-name="Group 8853" transform="translate(50.333 94.546)">
          <path id="Path_87761" data-name="Path 87761" d="M74.892,132.246A13.282,13.282,0,1,1,70.867,108.8a1.715,1.715,0,1,0,.985-3.285,16.716,16.716,0,1,0,5.06,29.5,1.716,1.716,0,0,0-2.02-2.774Z" transform="translate(-50.334 -104.804)" fill="#6ea2c6"/>
          <path id="Path_87762" data-name="Path 87762" d="M102.481,116.735H69.192a7.827,7.827,0,1,0,0,15.655H83.857a1.6,1.6,0,0,0,0-3.2H69.192a4.629,4.629,0,0,1-4.335-3.026H95.643a1.6,1.6,0,1,0,0-3.2H64.857a4.629,4.629,0,0,1,4.335-3.026h33.289a1.6,1.6,0,0,0,0-3.2Z" transform="translate(-53.236 -107.943)" fill="#6ea2c6"/>
        </g>
        <g id="Group_8854" data-name="Group 8854" transform="translate(110.403 95.665)">
          <path id="Path_87763" data-name="Path 87763" d="M131.85,111.123c0-3.084,1.6-4.054,4.056-4.054h8.445c7.563,0,14.49,3.293,14.49,15.2,0,9.629-5.365,15.2-14.616,15.2h-8.319c-2.451,0-4.056-.971-4.056-4.056Zm6.927,20.779h5.83c5.533,0,7.307-4.941,7.307-9.629,0-6-2.28-9.631-7.351-9.631h-5.786Z" transform="translate(-131.85 -106.519)" fill="#2a607e"/>
          <path id="Path_87764" data-name="Path 87764" d="M175.353,111.121c0-3.082,1.6-4.052,4.056-4.052h11.528c8.237,0,10.434,4.519,10.434,8.446,0,3.293-1.943,6.548-5.237,7.307v.085c3.547.5,4.183,3.082,4.183,6.166,0,3.507.929,4.814.929,6.251,0,1.6-1.648,2.7-3.253,2.7-3.8,0-4.1-3.676-4.1-4.9,0-5.324-.971-7.477-4.771-7.477H182.28v8.911a3.463,3.463,0,1,1-6.927,0Zm6.927,9.464h6.926c2.62,0,5.238-.676,5.238-4.1,0-3.251-1.985-4.1-5.026-4.1H182.28Z" transform="translate(-143.295 -106.519)" fill="#2a607e"/>
          <path id="Path_87765" data-name="Path 87765" d="M217.823,109.787a3.464,3.464,0,1,1,6.928,0v24.581a3.464,3.464,0,1,1-6.928,0Z" transform="translate(-154.469 -106.322)" fill="#2a607e"/>
          <path id="Path_87766" data-name="Path 87766" d="M251.882,135.425c-.718,1.984-2.07,2.407-4.224,2.407s-3.508-.423-4.225-2.407l-8.53-23.994a5.916,5.916,0,0,1-.423-2.026c0-2.321,1.774-3.083,3.5-3.083,1.861,0,2.872.972,3.507,3.042l6.25,20.7h.086l6.5-20.7c.634-2.07,1.648-3.042,3.251-3.042,1.733,0,3.508.762,3.508,3.083a6.017,6.017,0,0,1-.421,2.026Z" transform="translate(-158.851 -106.322)" fill="#2a607e"/>
          <path id="Path_87767" data-name="Path 87767" d="M276.881,111.121c0-3.082,1.606-4.052,4.057-4.052H297.2c2.029,0,3.506.589,3.506,2.786s-1.478,2.788-3.506,2.788H283.809v6.589h11.743c1.816,0,3.251.506,3.251,2.659s-1.435,2.663-3.251,2.663H283.809V131.9h13.726c2.028,0,3.505.592,3.505,2.789s-1.478,2.786-3.505,2.786h-16.6c-2.451,0-4.057-.971-4.057-4.054Z" transform="translate(-170.007 -106.519)" fill="#2a607e"/>
        </g>
        <path id="Path_87768" data-name="Path 87768" d="M318.907,110.49l-.137-2.065c-.013-.268,0-.6-.007-.924h-.027c-.085.315-.193.676-.289.979l-.721,1.967h-.39l-.7-2.022c-.082-.275-.173-.609-.255-.924h-.02c-.007.321,0,.616-.02.924l-.125,2.065h-.5l.268-3.421h.679l.672,1.858c.082.262.158.541.239.858h.02c.075-.318.153-.619.24-.865l.668-1.851h.671l.262,3.421Zm-4.873,0v-2.982h-1.043v-.439H315.6v.439h-1.049v2.982Z" transform="translate(-69.104 -10.853)" fill="#2a607e"/>
      </g>
    </g>
  </g>
</svg>
