<svg xmlns="http://www.w3.org/2000/svg" width="250" height="140.625" viewBox="0 0 250 140.625">
  <g id="Group_8319" data-name="Group 8319" transform="translate(-9585 9749)">
    <rect id="Rectangle_4183" data-name="Rectangle 4183" width="250" height="140.625" transform="translate(9585 -9749)" fill="#fff" opacity="0"/>
    <g id="Group_8278" data-name="Group 8278" transform="translate(9575.134 -9725.847)">
      <path id="Path_87446" data-name="Path 87446" d="M79.458,39.431c0-2.18-4.507-4.615-10.536-4.615s-10.536,2.435-10.536,4.615,4.5,4.615,10.536,4.615,10.536-2.438,10.536-4.615m3.548,0c0,2.4-1.621,4.565-4.562,6.09a21.1,21.1,0,0,1-9.521,2.072,21.185,21.185,0,0,1-9.43-2.027,110.512,110.512,0,0,0,2.38,10.865l-.11.043h.172c0,1.2,2.979,3.027,7.47,3.027s7.477-1.824,7.477-3.027H80.43c0,3.748-4.739,6.573-11.025,6.573-5.546,0-9.886-2.2-10.827-5.3-1.015-2.54-3.252-15.174-3.562-16.977a5.148,5.148,0,0,1-.177-1.342c0-2.4,1.621-4.565,4.562-6.093a21.106,21.106,0,0,1,9.521-2.07,21.128,21.128,0,0,1,9.521,2.07c2.941,1.528,4.562,3.691,4.562,6.093M103.5,47.159A34.315,34.315,0,1,0,69.18,81.473,34.353,34.353,0,0,0,103.5,47.159" transform="translate(0 0)" fill="#5889bf"/>
      <path id="Path_87447" data-name="Path 87447" d="M178.637,28.87h-3.908V29.8h1.361v3.863h1.184V29.8h1.363Zm6.169,0h-1.573l-1.2,3.149-1.2-3.149h-1.583v4.792h1.115v-3.4h.024l1.232,3.4h.8l1.232-3.4h.024v3.4h1.12Zm-12.4-.1h-3.319V30.84h-.062a4.728,4.728,0,0,0-4.452-2.476c-4.281,0-6.814,3.5-6.814,7.539,0,4.309,1.984,7.919,6.759,7.919a5.144,5.144,0,0,0,4.507-2.65h.062v2.3c0,2.473-1.194,3.841-3.87,3.841-1.693,0-3.209-.318-3.615-2.211h-3.321c.294,3.521,3.7,4.686,6.73,4.686,4.741,0,7.394-2.244,7.394-6.754ZM165.038,41.2c-2.765,0-3.958-2.5-3.958-4.978,0-2.507,1.017-5.24,3.958-5.24,2.882,0,4.049,2.387,4.049,4.978,0,2.562-1.11,5.24-4.049,5.24m-23.263,2.619H145.1V34.944a3.667,3.667,0,0,1,3.641-3.958c1.951,0,2.882,1.017,2.939,3.376v9.461h3.318V33.49c0-3.381-2.065-5.126-5.329-5.126a5.392,5.392,0,0,0-4.686,2.679l-.055-.057V28.772h-3.149Zm-6.928-17.641h3.318V23.035h-3.318Zm0,17.641h3.318V28.772h-3.318Zm-10.333,0h3.318v-7.16c0-3.318,1.8-5.157,4.075-5.157a11.531,11.531,0,0,1,1.428.148v-3.2a7.623,7.623,0,0,0-1.249-.088,4.866,4.866,0,0,0-4.4,3.318h-.057v-2.91h-3.113Zm-17.7,5.563h3.318V41.869h.062a5.833,5.833,0,0,0,5.03,2.361c4.457,0,6.5-3.813,6.5-7.859,0-4.4-2.3-8.007-7.045-8.007a5.035,5.035,0,0,0-4.66,2.445h-.06V28.772h-3.142ZM118.4,36.312c0,2.621-1.132,5.3-4.164,5.3-2.676,0-4.221-2.27-4.221-5.3,0-3.2,1.428-5.326,4.221-5.326,2.738,0,4.164,2.59,4.164,5.326m-31.325.58c.088,5.154,3.932,7.427,8.678,7.427,4.13,0,8.268-1.867,8.268-6.525a5.5,5.5,0,0,0-4.049-5.3c-1.077-.318-5.675-1.511-5.995-1.6-1.483-.406-2.476-1.222-2.476-2.681,0-2.094,2.125-2.7,3.813-2.7,2.5,0,4.309.991,4.486,3.669h3.638c0-4.34-3.638-6.639-7.979-6.639-3.753,0-7.6,1.951-7.6,6.114,0,2.153,1.05,4.309,4.6,5.269,2.853.785,4.746,1.163,6.2,1.719a2.466,2.466,0,0,1,1.714,2.562c0,1.569-1.194,3.142-4.393,3.142-2.913,0-5.269-1.249-5.269-4.455ZM74.266,34.972a3.874,3.874,0,1,1,7.745,0Zm11.066,2.184c.549-4.512-2.361-8.793-7.1-8.793-4.481,0-7.279,3.669-7.279,7.948,0,4.629,2.65,7.919,7.368,7.919a6.593,6.593,0,0,0,6.811-5.123H81.983a3.493,3.493,0,0,1-3.667,2.5c-2.767,0-4.049-2.1-4.049-4.455Z" transform="translate(50.06 13.452)" fill="#5889bf"/>
    </g>
  </g>
</svg>
