<svg xmlns="http://www.w3.org/2000/svg" width="250" height="140.625" viewBox="0 0 250 140.625">
  <g id="Group_8313" data-name="Group 8313" transform="translate(-9865 9583)">
    <rect id="Rectangle_4204" data-name="Rectangle 4204" width="250" height="140.625" transform="translate(9865 -9583)" fill="#fff" opacity="0"/>
    <g id="Group_8312" data-name="Group 8312" transform="translate(9893.593 -9631.593)">
      <path id="Path_87508" data-name="Path 87508" d="M49.158,164.687l21.686-38.271a2.955,2.955,0,0,1-.341-1.624c.054-.789,3.99-6.153,5.371-8.011.293-.4.291-.314.319-.633a1.506,1.506,0,0,0-.169-.695L62.992,87.208a7.375,7.375,0,0,0-.793,2.471L43.407,159.7a4.99,4.99,0,0,0,4.991,4.991Z" transform="translate(0 -6.094)" fill="#231f20"/>
      <path id="Path_87509" data-name="Path 87509" d="M230.372,257.306c4.329-2.484,13.009-8.08,15.436-11.426a4.016,4.016,0,0,0,.6-1.774c.141-2.272-3.549-3.832-8.516-3.974-2.57-.073-10.809.605-16.073-.354a6.291,6.291,0,0,1-1.7-.581l6.94,19.8C228.485,258.332,229.654,257.719,230.372,257.306Z" transform="translate(-125.014 -113.615)" fill="#231f20"/>
      <path id="Path_87510" data-name="Path 87510" d="M163.978,94.1l7.663-15.511H154.586c1.387,3,6.184,13.363,7.934,16.882a10.92,10.92,0,0,0,.686,1.289c.219.05.224-.512.224-.512s-.019-.834,0-1.065A5.464,5.464,0,0,1,163.978,94.1Z" transform="translate(-78.651)" fill="#231f20"/>
      <path id="Path_87511" data-name="Path 87511" d="M177.755,78.593H137.249l-15.017,28.152a1.893,1.893,0,0,0-.32.9,4.883,4.883,0,0,0,.138.853l2.243,6.4a17.01,17.01,0,0,1,1.93-4.981c2.129-3.619,10.472-10.617,17.883-14.335a24.73,24.73,0,0,1,9.437-2.413c3.219-.382,7.768,1.817,10.574,4.045,1.254,1,1.987.355,2.89,2.494,1.529,3.622-8.993,7.511-8.993,7.511a1.433,1.433,0,0,1-1.7-.566c-.852-.994,0-1.562.058-2.319s-.129-.882-1.9-2.933-5.251.567-8.8,2.768-11.066,9.723-10.924,12.7,3.832,3.973,6.4,3.955c1.138-.008,5.906.514,10.99.939,3.743.315,7.655.182,10.432,1.775,1.944,1.115,2.745,3.3,3.264,5.251a10.836,10.836,0,0,1-1.349,8.019c-2.958,4.927-8.869,7.876-8.869,7.876-1.647,1.41-5.564,3.483-9.3,5.252-5.209,2.469-10.827,5.149-16.251,6.245-7.087,1.43-11.548.113-12.171-1.064-.632-1.194-.609-2.829,3.229-4.862,1.636-.866,3.368-.709,5.393-1.347.986-.311,2.982-1.231,4.045-1.633l.339-.13c-.963-1.748-4.711-8.541-5.794-10.39-.185-.315-.257-.408-.408-.445s-.648.283-.648.283a3.487,3.487,0,0,1-.647.2c-.089-.017-.322-.341-.322-.341l-8.986-15.038s-.282-.924-.849-.854-.841.827-.841.827L89.954,158.593h65.968c4.151-.071,6.919-3.265,8.622-7.948l18.2-67.06A4.99,4.99,0,0,0,177.755,78.593Z" transform="translate(-32.928)" fill="#231f20"/>
    </g>
  </g>
</svg>
