<svg xmlns="http://www.w3.org/2000/svg" width="11.035" height="14.619" viewBox="0 0 11.035 14.619"><defs><style>.a{fill:#38539a;fill-rule:evenodd;}</style></defs><path class="a" d="M496.69,479.976h8.416v-9.44h-1.9a.655.655,0,0,1-.655-.655v-1.9H496.69Zm9.683-10.318a.688.688,0,0,1,.036.171l.007.052v10.75a.655.655,0,0,1-.655.655h-9.725a.656.656,0,0,1-.655-.655c.028-10.079.037-11.34,0-13.309a.656.656,0,0,1,.655-.655l7.221.008a.546.546,0,0,1,.162.034.575.575,0,0,1,.056.02.656.656,0,0,1,.171.111l.06.03v.03l2.56,2.565a.647.647,0,0,1,.086.14c.006.013.011.026.016.039h0Zm-8.433,3.294a.656.656,0,0,1,.655-.655H503.2a.655.655,0,1,1,0,1.31H498.6A.655.655,0,0,1,497.94,472.952Zm5.262,1.393H498.6a.655.655,0,1,0,0,1.31H503.2a.655.655,0,1,0,0-1.31Zm-4.607,2.048H503.2a.655.655,0,0,1,0,1.31H498.6a.655.655,0,1,1,0-1.31Z" transform="translate(-495.381 -466.667)"/></svg>