<svg xmlns="http://www.w3.org/2000/svg" width="36" height="36" viewBox="0 0 36 36"><defs><style>.a{fill:#f1f2ff;}.b{fill:#38539a;}</style></defs><g transform="translate(-356 -309)"><circle class="a" cx="18" cy="18" r="18" transform="translate(356 309)"/><g transform="translate(-862.625 -647.625)"><g transform="translate(1224.625 965.625)"><path class="b" d="M16.307,15.589H11.018a2.871,2.871,0,0,1-5.635,0l-1.454,0a.312.312,0,0,1-.05-.009l-.042-.011a.222.222,0,0,1-.058-.018.61.61,0,0,1-.163-.1L3.581,15.4a.46.46,0,0,1-.1-.151l-.008-.009L3.44,15l.577-5.967H3.053a.551.551,0,0,1,0-1.1H4.124l.392-4.045H.55a.55.55,0,0,1,0-1.1H4.623L4.854.438A.555.555,0,0,1,5.393,0H9.6a.55.55,0,1,1,0,1.1H5.893L5.73,2.792H9.136a.55.55,0,0,1,0,1.1H5.623L5.23,7.937H7.264a.551.551,0,1,1,0,1.1H5.124l-.165,1.707H16.75L17.588,1.1h-6.58a.55.55,0,1,1,0-1.1l7.428.061a.53.53,0,0,1,.3.489L18.3,5.6h1.29a4.767,4.767,0,0,1,4.761,4.761c0,.2-.019.514-.059.986l0,.039c-.11,1.25-.324,3.028-.4,3.611l-.013.107-.03.122c0,.005,0,.01-.006.015l0,.012v.01l-.083.123-.139.123-.228.079a.464.464,0,0,1-.058,0H21.943a2.871,2.871,0,0,1-5.636,0Zm1.048-.551a1.77,1.77,0,1,0,1.77-1.77A1.772,1.772,0,0,0,17.354,15.038Zm-10.924,0a1.77,1.77,0,1,0,1.77-1.77A1.772,1.772,0,0,0,6.43,15.038Zm15.513-.552h.905c0-.013.177-1.433.3-2.712a3.2,3.2,0,0,1-1.631-1.187l0,0a2.323,2.323,0,0,0-1.923-1.078h-1.63l-.18,1.943-.2-.023.184.077-.175.227-.232.105-.06.007H4.851L4.6,14.487h.787a2.871,2.871,0,0,1,5.635,0h5.289a2.871,2.871,0,0,1,5.636,0ZM20.194,8.455a3.556,3.556,0,0,1,2.147,1.4l0,.005,0,0a2.65,2.65,0,0,0,.9.783c.006-.1.009-.2.009-.288a3.676,3.676,0,0,0-2.914-3.584Zm-2.136-.05h1.035L19.242,6.7H18.206Zm-.419,6.633a1.486,1.486,0,1,1,1.486,1.486A1.488,1.488,0,0,1,17.638,15.038Zm1.1,0a.385.385,0,1,0,.385-.385A.386.386,0,0,0,18.739,15.038Zm-12.025,0A1.486,1.486,0,1,1,8.2,16.524,1.488,1.488,0,0,1,6.714,15.038Zm1.1,0a.385.385,0,1,0,.385-.385A.386.386,0,0,0,7.815,15.038ZM1.805,6.7a.55.55,0,0,1,0-1.1H3.522a.55.55,0,1,1,0,1.1Z" transform="translate(0 0)"/></g></g></g></svg>