<svg xmlns="http://www.w3.org/2000/svg" width="36" height="36" viewBox="0 0 36 36"><defs><style>.a{fill:#f1f2ff;}.b{fill:#38539a;}</style></defs><g transform="translate(-689 -2094)"><circle class="a" cx="18" cy="18" r="18" transform="translate(689 2094)"/><g transform="translate(-7765 452)"><path class="b" d="M228.736,69.752a2.4,2.4,0,0,1-1.917-.96,2.395,2.395,0,0,1-3.835,0,2.395,2.395,0,0,1-3.835,0,2.395,2.395,0,0,1-3.835,0A2.4,2.4,0,0,1,211,67.356V64h20.133v3.356A2.4,2.4,0,0,1,228.736,69.752Zm-2.4-2.4h.959a1.438,1.438,0,0,0,2.876,0v-2.4H211.959v2.4a1.438,1.438,0,0,0,2.876,0h.959a1.438,1.438,0,0,0,2.876,0h.959a1.438,1.438,0,0,0,2.876,0h.959a1.438,1.438,0,0,0,2.876,0Z" transform="translate(8251 1591.711)"/><rect class="b" width="1.14" height="1.14" transform="translate(8465.42 1658.121)"/><rect class="b" width="1.14" height="1.14" transform="translate(8469.98 1658.121)"/><rect class="b" width="1.14" height="1.14" transform="translate(8473.401 1658.121)"/><rect class="b" width="1.14" height="1.14" transform="translate(8476.821 1658.121)"/><path class="b" d="M231.257,84.108H214V75h.959v8.149H230.3V75h.959Z" transform="translate(8249.438 1585.984)"/><path class="b" d="M222.149,83.587H214V74.479h.959v8.149h6.232V74h.959Z" transform="translate(8249.438 1586.505)"/><rect class="b" width="1.14" height="2.28" transform="translate(8468.841 1663.821)"/><path class="b" d="M231.133,60.794H211V59.636L214.636,56H227.5l3.636,3.636Zm-18.976-.959h17.819L227.1,56.959H215.033Z" transform="translate(8251 1595.876)"/><path class="b" d="M231.422,53.835H218V50h13.422Zm-12.463-.959h11.5V50.959h-11.5Z" transform="translate(8247.355 1599)"/><path class="b" d="M219.959,60.835H219v-.479a.478.478,0,0,1,.069-.247l1.37-2.283V57h.959v.959a.478.478,0,0,1-.069.247l-1.37,2.283Z" transform="translate(8246.835 1595.356)"/><path class="b" d="M242.4,60.835h-.959v-.347l-1.37-2.283a.478.478,0,0,1-.069-.247V57h.959v.826l1.37,2.283a.478.478,0,0,1,.069.247Z" transform="translate(8235.901 1595.356)"/><path class="b" d="M227.959,60.835H227v-.479a.444.444,0,0,1,.01-.094l.47-2.35V57h.959v.959a.443.443,0,0,1-.01.094l-.47,2.35Z" transform="translate(8242.67 1595.356)"/><path class="b" d="M235.438,60.835h-.959V60.4l-.47-2.35a.477.477,0,0,1-.01-.094V57h.959v.911l.47,2.35a.474.474,0,0,1,.01.094Z" transform="translate(8239.025 1595.356)"/></g></g></svg>