<svg xmlns="http://www.w3.org/2000/svg" width="12.434" height="12.434" viewBox="0 0 12.434 12.434"><defs><style>.a{fill:#2c2c2c;}</style></defs><path class="a" d="M12.192,9.887l-1.378-.919L9.589,8.151a.543.543,0,0,0-.729.118L8.1,9.244a.54.54,0,0,1-.689.143,8.828,8.828,0,0,1-2.465-1.9,8.891,8.891,0,0,1-1.9-2.465.54.54,0,0,1,.143-.689l.975-.758a.543.543,0,0,0,.118-.729L3.491,1.658,2.547.242A.543.543,0,0,0,1.817.077L.728.731a1.33,1.33,0,0,0-.6.782C-.174,2.6-.234,4.993,3.6,8.831s6.232,3.778,7.318,3.48a1.33,1.33,0,0,0,.782-.6l.653-1.089A.543.543,0,0,0,12.192,9.887Z" transform="translate(0)"/></svg>