<svg xmlns="http://www.w3.org/2000/svg" xmlns:xlink="http://www.w3.org/1999/xlink" width="307" height="95" viewBox="0 0 307 95">
  <defs>
    <clipPath id="clip-path">
      <rect id="Rectangle_4322" data-name="Rectangle 4322" width="307" height="95" transform="translate(-4077 641)" fill="#38539a"/>
    </clipPath>
  </defs>
  <g id="Group_12408" data-name="Group 12408" transform="translate(4077 -641)">
    <rect id="Rectangle_26" data-name="Rectangle 26" width="307" height="95" transform="translate(-4077 641)" fill="#38539a"/>
    <g id="Group_12122" data-name="Group 12122" transform="translate(-4032.436 732.417)">
      <path id="Path_88718" data-name="Path 88718" d="M1512.839,695.4l-3.756.649.328,1.476,3.8-.562Z" transform="translate(-1509.083 -695.398)" fill="#ffd769"/>
    </g>
    <g id="Group_12123" data-name="Group 12123" transform="translate(-3960.049 670.289)">
      <path id="Path_88719" data-name="Path 88719" d="M1858.752,395.4l-.048,3.812,1.511-.053.141-3.836Z" transform="translate(-1858.704 -395.326)" fill="#ffd769"/>
    </g>
    <g id="Group_12124" data-name="Group 12124" transform="translate(-4053.394 681.882)">
      <path id="Path_88720" data-name="Path 88720" d="M1407.859,452.817l3.458,1.6.57-1.4-3.442-1.7Z" transform="translate(-1407.859 -451.322)" fill="#ffd769"/>
    </g>
    <g id="Group_12127" data-name="Group 12127" transform="translate(-3969.119 727.804)">
      <path id="Path_88723" data-name="Path 88723" d="M1814.9,676.2l1.36-3.086,1.427.48-1.28,3.132Z" transform="translate(-1814.895 -673.117)" fill="#73bf98"/>
    </g>
    <g id="Group_12129" data-name="Group 12129" transform="translate(-4037.243 667.663)">
      <path id="Path_88725" data-name="Path 88725" d="M1489.243,382.647l-3.376.527.1,1.522,3.4-.436Z" transform="translate(-1485.867 -382.647)" fill="#73bf98"/>
    </g>
    <g id="Group_12131" data-name="Group 12131" transform="translate(-3924.162 654.409)">
      <path id="Path_88727" data-name="Path 88727" d="M2032.66,321.618l3.051-1.57-.575-1.42-3.1,1.491Z" transform="translate(-2032.032 -318.628)" fill="#438acc"/>
    </g>
    <g id="Group_12140" data-name="Group 12140" transform="translate(-3772.405 654.942)">
      <path id="Path_88736" data-name="Path 88736" d="M2765,321.44l.758,3.228,1.466-.207-.672-3.259Z" transform="translate(-2765.004 -321.202)" fill="#e04c4c"/>
    </g>
    <g id="Group_12143" data-name="Group 12143" transform="translate(-3857.063 731.304)">
      <path id="Path_88739" data-name="Path 88739" d="M2356.369,690.025l-.254,3.306,1.46.246.345-3.309Z" transform="translate(-2356.115 -690.025)" fill="#e04c4c"/>
    </g>
    <g id="Group_12148" data-name="Group 12148" transform="translate(-3807.323 677.459)">
      <path id="Path_88744" data-name="Path 88744" d="M2599.207,432.929l-1.475-2.97-1.38.536,1.4,3.019Z" transform="translate(-2596.351 -429.959)" fill="#73bf98"/>
    </g>
    <g id="Group_12151" data-name="Group 12151" transform="translate(-3795.597 682.605)">
      <path id="Path_88747" data-name="Path 88747" d="M2656.068,454.813l-3.082,1.225.42,1.42,3.124-1.144Z" transform="translate(-2652.987 -454.813)" fill="#438acc"/>
    </g>
    <g id="Group_12153" data-name="Group 12153" transform="translate(-3844.256 644.968)">
      <path id="Path_88749" data-name="Path 88749" d="M2418.932,273.03l2.359,2.221-.892,1.139-2.427-2.163Z" transform="translate(-2417.972 -273.03)" fill="#73bf98"/>
    </g>
    <g id="Group_12154" data-name="Group 12154" transform="translate(-3861.099 707.992)">
      <path id="Path_88750" data-name="Path 88750" d="M2340.218,578.627l-2.681,1.819-.917-1.119,2.639-1.9Z" transform="translate(-2336.62 -577.429)" fill="#ffd769"/>
    </g>
    <g id="Group_12155" data-name="Group 12155" transform="translate(-3846.3 679.671)">
      <path id="Path_88751" data-name="Path 88751" d="M2408.3,440.644l3.171.665-.168,1.437-3.2-.58Z" transform="translate(-2408.1 -440.644)" fill="#438acc"/>
    </g>
    <g id="Group_12156" data-name="Group 12156" transform="translate(-3945.982 646.638)">
      <path id="Path_88752" data-name="Path 88752" d="M1926.892,281.1l3.146.773-.217,1.43-3.177-.689Z" transform="translate(-1926.644 -281.098)" fill="#e04c4c"/>
    </g>
    <g id="Group_12157" data-name="Group 12157" transform="translate(-3879.597 642.966)">
      <path id="Path_88753" data-name="Path 88753" d="M2247.358,263.362l3.212.427-.061,1.445-3.233-.341Z" transform="translate(-2247.276 -263.362)" fill="#ffd769"/>
    </g>
    <g id="Mask_Group_148" data-name="Mask Group 148" clip-path="url(#clip-path)">
      <g id="Ellipse_1611" data-name="Ellipse 1611" transform="translate(-3848 592)" fill="none" stroke="#e3e5ff" stroke-width="16" opacity="0.1">
        <circle cx="39" cy="39" r="39" stroke="none"/>
        <circle cx="39" cy="39" r="31" fill="none"/>
      </g>
      <circle id="Ellipse_1610" data-name="Ellipse 1610" cx="44" cy="44" r="44" transform="translate(-4109 688)" fill="#e3e5ff" opacity="0.1"/>
    </g>
    <text id="คุณได้รับคูปองส่วนลด_300_บาท" data-name="คุณได้รับคูปองส่วนลด 300 บาท" transform="translate(-4031 693.75)" fill="#fff" font-size="16" font-family="SukhumvitTadmai-Bold, Sukhumvit Tadmai" font-weight="700"><tspan x="0" y="0">คุณได้รับคูปองส่วนลด </tspan><tspan y="0" font-size="20" font-family="SukhumvitTadmai-ExtraBold, Sukhumvit Tadmai" font-weight="800">300</tspan><tspan y="0" xml:space="preserve"> บาท</tspan></text>
    <text id="พร้เอม_eStarter_Kit_ชุดคู่มือดำเนินธุรกิจแบบดิจิทัล" data-name="พร้เอม eStarter Kit ชุดคู่มือดำเนินธุรกิจแบบดิจิทัล" transform="translate(-4042 716.25)" fill="#fff" font-size="12" font-family="SukhumvitTadmai-Medium, Sukhumvit Tadmai" font-weight="500"><tspan x="0" y="0">พร้เอม eStarter Kit ชุดคู่มือดำเนินธุรกิจแบบดิจิทัล</tspan></text>
    <g id="coupon" transform="translate(-3945 543.645)">
      <path id="Path_88382" data-name="Path 88382" d="M42.581,107.355H9.935v.7a.71.71,0,0,1-1.419,0v-.7h-7.1A1.408,1.408,0,0,0,0,108.752V114.9a1.017,1.017,0,0,0,.48.872,4.862,4.862,0,0,1,2.359,4.155A4.862,4.862,0,0,1,.48,124.081a1.017,1.017,0,0,0-.48.872V131.1a1.408,1.408,0,0,0,1.419,1.4h7.1v-.7a.71.71,0,0,1,1.419,0v.7H42.581A1.408,1.408,0,0,0,44,131.1V108.752A1.408,1.408,0,0,0,42.581,107.355ZM9.935,129.006a.71.71,0,0,1-1.419,0v-1.4a.71.71,0,0,1,1.419,0Zm0-4.191a.71.71,0,0,1-1.419,0v-1.4a.71.71,0,0,1,1.419,0Zm0-4.19a.71.71,0,0,1-1.419,0v-1.4a.71.71,0,0,1,1.419,0Zm0-4.19a.71.71,0,0,1-1.419,0v-1.4a.71.71,0,0,1,1.419,0Zm0-4.191a.71.71,0,0,1-1.419,0v-1.4a.71.71,0,0,1,1.419,0Z" transform="translate(0)" fill="#ffc350"/>
      <path id="Path_88383" data-name="Path 88383" d="M162.161,146.22H132.827a.7.7,0,0,1-.7-.7V124.569a.7.7,0,0,1,.7-.7h29.333a.7.7,0,0,1,.7.7v20.952A.7.7,0,0,1,162.161,146.22Z" transform="translate(-120.169 -15.119)" fill="#ffd164"/>
      <path id="Path_88384" data-name="Path 88384" d="M222.513,177.669l-3.62,2.273a1.045,1.045,0,0,1-1.569-1.14l1.043-4.145-3.28-2.741a1.045,1.045,0,0,1,.6-1.845l4.265-.289,1.593-3.966a1.045,1.045,0,0,1,1.94,0l1.593,3.966,4.265.289a1.045,1.045,0,0,1,.6,1.845l-3.28,2.741L227.7,178.8a1.045,1.045,0,0,1-1.569,1.14Z" transform="translate(-195.765 -52.916)" fill="#fff"/>
      <path id="Path_88385" data-name="Path 88385" d="M227.248,229.095a11.863,11.863,0,0,1-10.116-7.023l-1.446.1a1.045,1.045,0,0,0-.6,1.845l3.28,2.741-1.043,4.145a1.045,1.045,0,0,0,1.569,1.14l3.62-2.273,3.62,2.273a1.045,1.045,0,0,0,1.569-1.14Z" transform="translate(-196.551 -105.015)" fill="#fff6d8"/>
    </g>
  </g>
</svg>
