<svg xmlns="http://www.w3.org/2000/svg" width="157" height="46" viewBox="0 0 157 46">
  <g id="Group_4" data-name="Group 4" transform="translate(50 1)">
    <rect id="BG" width="155" height="44" rx="22" transform="translate(-49)" fill="none" stroke="#01b902" stroke-miterlimit="10" stroke-width="2"/>
    <g id="Group_8" data-name="Group 8" transform="translate(-2 12)">
      <path id="Path" d="M11.479,0C5.151,0,0,4.207,0,9.377c0,4.631,4.084,8.51,9.6,9.248.374.079.883.249,1.012.568a2.367,2.367,0,0,1,.036,1.04l-.157.981c-.043.29-.23,1.141,1,.621a37.011,37.011,0,0,0,9.026-6.714,8.323,8.323,0,0,0,2.437-5.744C22.957,4.207,17.806,0,11.479,0Z" fill="#01b902"/>
      <path id="Path-2" data-name="Path" d="M2.885,5.8H.6A.608.608,0,0,1,0,5.2V.606A.608.608,0,0,1,.6,0a.606.606,0,0,1,.6.606V4.592h1.68a.606.606,0,0,1,0,1.212Z" transform="translate(4.101 6.647)" fill="#fff"/>
      <path id="Path-3" data-name="Path" d="M1.2,5.2A.606.606,0,0,1,.6,5.8.606.606,0,0,1,0,5.2V.606A.606.606,0,0,1,.6,0a.606.606,0,0,1,.6.606Z" transform="translate(8.141 6.647)" fill="#fff"/>
      <path id="Path-4" data-name="Path" d="M4.631,5.2a.606.606,0,0,1-.413.574.618.618,0,0,1-.19.03.591.591,0,0,1-.488-.241L1.2,2.368V5.2A.6.6,0,0,1,.6,5.8.6.6,0,0,1,0,5.2V.606A.6.6,0,0,1,.411.033.556.556,0,0,1,.6,0,.618.618,0,0,1,1.07.247L3.425,3.452V.606a.6.6,0,1,1,1.205,0Z" transform="translate(10.205 6.647)" fill="#fff"/>
      <path id="Path-5" data-name="Path" d="M2.882,2.3a.607.607,0,0,1,0,1.214H1.2V4.592H2.882a.606.606,0,0,1,0,1.212H.6A.606.606,0,0,1,0,5.2V.606A.606.606,0,0,1,.6,0H2.885a.606.606,0,0,1,0,1.213H1.2V2.3Z" transform="translate(15.641 6.647)" fill="#fff"/>
      <text id="Line_Copy" data-name="Line Copy" transform="translate(46 16)" fill="#01b902" font-size="16" font-family="SukhumvitTadmai-Medium, Sukhumvit Tadmai" font-weight="500"><tspan x="-14.56" y="0">Line</tspan></text>
    </g>
  </g>
</svg>
