<svg xmlns="http://www.w3.org/2000/svg" xmlns:xlink="http://www.w3.org/1999/xlink" width="330" height="91" viewBox="0 0 330 91"><defs><style>.a,.h{fill:#f1f2ff;}.b{fill:#fff9f0;}.c,.v{fill:#fff;}.c{stroke:#707070;}.d{fill:#2c2c2c;font-size:14px;}.d,.f{font-family:SukhumvitTadmai-Medium, Sukhumvit Tadmai;font-weight:500;}.e,.f{fill:#38539a;}.e{font-size:16px;font-family:SukhumvitTadmai-Bold, Sukhumvit Tadmai;font-weight:700;}.f{font-size:13px;}.g{clip-path:url(#c);}.h,.k{mix-blend-mode:multiply;isolation:isolate;}.i{clip-path:url(#d);}.j{clip-path:url(#e);}.l{clip-path:url(#f);}.m{fill:#ffcb87;}.n{fill:#ffe0a1;}.o{fill:#faaf6e;}.p{fill:#f28057;}.q{fill:#f5e3dc;}.r{fill:#ffa880;}.s{fill:#342e38;}.t{fill:#71433d;}.u{fill:#5c2f29;}.w{fill:#df6062;}.x{fill:#cc4e50;}.y{filter:url(#a);}</style><filter id="a" x="-27" y="-11" width="388" height="125" filterUnits="userSpaceOnUse"><feOffset dy="2" input="SourceAlpha"/><feGaussianBlur stdDeviation="2" result="b"/><feFlood flood-color="#2c2c2c" flood-opacity="0.161"/><feComposite operator="in" in2="b"/><feComposite in="SourceGraphic"/></filter><clipPath id="c"><rect class="a" width="330" height="91" rx="10" transform="translate(23 185)"/></clipPath><clipPath id="d"><rect class="a" width="330" height="91" rx="10" transform="translate(23 336)"/></clipPath><clipPath id="e"><g class="y" transform="matrix(1, 0, 0, 1, 0, 0)"><path class="b" d="M10,0H366a10,10,0,0,1,10,10V113a0,0,0,0,1,0,0H0a0,0,0,0,1,0,0V10A10,10,0,0,1,10,0Z" transform="translate(0 555)"/></g></clipPath><clipPath id="f"><rect class="c" width="68" height="85" transform="translate(30 208.377)"/></clipPath></defs><g transform="translate(-23 -336)"><g transform="translate(0 185)"><rect class="a" width="330" height="91" rx="10" transform="translate(23 151)"/><text class="d" transform="translate(93 215)"><tspan x="0" y="0">พร้อมรับนิตยสารแอมนิวส์ฟรี 12 เดือน</tspan></text><g transform="translate(57 11)"><text class="e" transform="translate(36 178)"><tspan x="0" y="0">คุณได้รับแอมพลัส 300 คะแนน</tspan></text><text class="f" transform="translate(236 178)"><tspan x="0" y="0">(24 บาท)</tspan></text></g><g class="g" transform="translate(0 -34)"><circle class="h" cx="54" cy="54" r="54" transform="translate(-47 233)"/><circle class="h" cx="39" cy="39" r="39" transform="translate(289 125)"/></g></g><g class="i"><g class="j" transform="translate(2 -226)"><g class="k" transform="translate(-87.658 485.878)"><path class="a" d="M553.364,148.995l-1.878,2.056s3.9,1.7,5,3.544c0,0,2.3-2.161,2.269-2.268A13.19,13.19,0,0,0,553.364,148.995Z" transform="translate(-169.163 -27.065)"/><path class="a" d="M371.954,160.137l-1.879,2.055s3.9,1.7,5,3.544c0,0,2.3-2.162,2.268-2.268A13.168,13.168,0,0,0,371.954,160.137Z" transform="translate(-104.381 -31.044)"/><path class="a" d="M491.967,156.56l-3.09-1.043s.018,4.982-1.439,7.029c0,0,3.4,1.448,3.5,1.36A15.436,15.436,0,0,0,491.967,156.56Z" transform="translate(-146.291 -29.394)"/><path class="a" d="M457.767,90.526,455.15,93.39s5.432,2.371,6.964,4.939c0,0,3.21-3.013,3.161-3.161S461.571,91.464,457.767,90.526Z" transform="translate(-134.761 -6.186)"/><path class="a" d="M112.136,135.568l-2.331,2.551s4.838,2.111,6.2,4.4c0,0,2.859-2.683,2.815-2.815A16.359,16.359,0,0,0,112.136,135.568Z" transform="translate(-11.439 -22.271)"/><path class="a" d="M487.384,76.332l.4,2.03s2.737-1.582,4.324-1.427c0,0-.278-2.332-.357-2.358A9.8,9.8,0,0,0,487.384,76.332Z" transform="translate(-146.272 -0.491)"/><path class="a" d="M236.722,407.909l.4,2.03s2.737-1.582,4.324-1.427c0,0-.278-2.332-.357-2.357A9.789,9.789,0,0,0,236.722,407.909Z" transform="translate(-56.761 -118.897)"/><path class="a" d="M337.462,392.989l.4,2.03s2.737-1.582,4.324-1.427c0,0-.278-2.332-.357-2.358A9.79,9.79,0,0,0,337.462,392.989Z" transform="translate(-92.735 -113.569)"/><path class="a" d="M120.155,197.463l.4,2.03s2.737-1.583,4.324-1.427c0,0-.278-2.332-.357-2.358A9.785,9.785,0,0,0,120.155,197.463Z" transform="translate(-15.135 -43.746)"/><path class="a" d="M289.986,381.745l.4,2.03s2.737-1.582,4.324-1.427c0,0-.278-2.331-.357-2.357A9.79,9.79,0,0,0,289.986,381.745Z" transform="translate(-75.781 -109.554)"/><path class="a" d="M366.4,98.35l.4,2.03s2.737-1.583,4.324-1.427c0,0-.278-2.332-.357-2.358A9.792,9.792,0,0,0,366.4,98.35Z" transform="translate(-103.069 -8.353)"/><path class="a" d="M455.674,387.1l.4,2.03s2.737-1.583,4.324-1.427c0,0-.278-2.332-.357-2.358A9.793,9.793,0,0,0,455.674,387.1Z" transform="translate(-134.948 -111.466)"/><path class="a" d="M323.61,102.8l1.761,1.087s.7-3.083,1.9-4.14c0,0-1.9-1.384-1.97-1.343A9.8,9.8,0,0,0,323.61,102.8Z" transform="translate(-87.788 -8.998)"/><path class="a" d="M431.408,244.514l2.109-2.042s1.912,4.057,3.888,5.158c0,0-2.208,2.494-2.321,2.46A13.891,13.891,0,0,1,431.408,244.514Z" transform="translate(-126.283 -60.446)"/><path class="a" d="M612.428,157.665l2.109-2.042s1.912,4.056,3.888,5.158c0,0-2.208,2.494-2.321,2.46A13.9,13.9,0,0,1,612.428,157.665Z" transform="translate(-190.925 -29.432)"/><path class="a" d="M382.515,319.352l2.109-2.043s1.912,4.056,3.888,5.157c0,0-2.208,2.494-2.32,2.46A13.884,13.884,0,0,1,382.515,319.352Z" transform="translate(-108.823 -87.171)"/><path class="a" d="M151.149,219.962l2.777-.192s-1.648-3.922-1.171-6.014c0,0-3.159-.024-3.207.077A13.169,13.169,0,0,0,151.149,219.962Z" transform="translate(-25.628 -50.191)"/><path class="a" d="M185.989,380.565l2.485-.171s-1.475-3.508-1.049-5.379c0,0-2.826-.022-2.868.069A11.778,11.778,0,0,0,185.989,380.565Z" transform="translate(-38.13 -107.776)"/><path class="a" d="M295.707,78.756l2.485-.172s-1.474-3.508-1.049-5.379c0,0-2.826-.022-2.868.069A11.781,11.781,0,0,0,295.707,78.756Z" transform="translate(-77.31)"/><path class="a" d="M140.036,299.26l1.11-1.747s-3.073-.743-4.115-1.951c0,0-1.408,1.879-1.368,1.953A9.791,9.791,0,0,0,140.036,299.26Z" transform="translate(-20.672 -79.405)"/><path class="a" d="M82.147,213.15l1.11-1.746s-3.073-.743-4.115-1.951c0,0-1.408,1.879-1.369,1.952A9.793,9.793,0,0,0,82.147,213.15Z" transform="translate(0 -48.655)"/><path class="a" d="M176.925,325.953l.057-2.719s3.9,1.425,5.92.862c0,0,.172,3.08.075,3.132A12.879,12.879,0,0,1,176.925,325.953Z" transform="translate(-35.407 -89.286)"/><path class="a" d="M552.406,105.007l.058-2.719s3.9,1.424,5.92.862c0,0,.172,3.08.075,3.132A12.881,12.881,0,0,1,552.406,105.007Z" transform="translate(-169.491 -10.386)"/><path class="a" d="M269.257,176.574l-2.308,1.814s-1.483-4.232-3.335-5.532c0,0,2.454-2.253,2.563-2.207A13.886,13.886,0,0,1,269.257,176.574Z" transform="translate(-66.364 -34.798)"/><path class="a" d="M546.6,351.069l-2.309,1.814s-1.483-4.232-3.334-5.531c0,0,2.453-2.253,2.563-2.207A13.886,13.886,0,0,1,546.6,351.069Z" transform="translate(-165.403 -97.11)"/><path class="a" d="M685.6,256.985l1.839.948s.464-3.127,1.572-4.273c0,0-2-1.233-2.068-1.187A9.8,9.8,0,0,0,685.6,256.985Z" transform="translate(-217.055 -64.017)"/><path class="a" d="M624.563,226.537l1.578-2.295s-4.1-1.148-5.438-2.822c0,0-1.984,2.458-1.934,2.559A13.176,13.176,0,0,0,624.563,226.537Z" transform="translate(-193.189 -52.928)"/><path class="a" d="M621.315,365.781l-.678-1.956s-2.492,1.945-4.086,2.009c0,0,.6,2.271.678,2.286A9.8,9.8,0,0,0,621.315,365.781Z" transform="translate(-192.397 -103.781)"/><path class="a" d="M537.475,292.806l-.678-1.956s-2.493,1.944-4.086,2.009c0,0,.6,2.271.678,2.286A9.8,9.8,0,0,0,537.475,292.806Z" transform="translate(-162.458 -77.722)"/><path class="a" d="M689.718,138.979l-.016,2.936s-4.237-1.471-6.406-.829c0,0-.238-3.323-.134-3.379A13.892,13.892,0,0,1,689.718,138.979Z" transform="translate(-216.175 -23.024)"/></g><g class="k" transform="translate(-23.885 639.08)"><path class="a" d="M556.874,148.995l1.878,2.056s-3.9,1.7-5,3.544c0,0-2.3-2.161-2.269-2.268A13.19,13.19,0,0,1,556.874,148.995Z" transform="translate(-467.532 -100.268)"/><path class="a" d="M375.462,160.137l1.879,2.055s-3.9,1.7-5,3.544c0,0-2.3-2.162-2.268-2.268A13.168,13.168,0,0,1,375.462,160.137Z" transform="translate(-169.492 -104.247)"/><path class="a" d="M487.566,156.56l3.09-1.043s-.018,4.982,1.439,7.029c0,0-3.4,1.448-3.5,1.36A15.436,15.436,0,0,1,487.566,156.56Z" transform="translate(-359.698 -102.597)"/><path class="a" d="M462.658,90.526l2.617,2.864s-5.432,2.371-6.964,4.939c0,0-3.21-3.013-3.161-3.161S458.855,91.464,462.658,90.526Z" transform="translate(-312.121 -79.389)"/><path class="a" d="M116.491,135.568l2.331,2.551s-4.838,2.111-6.2,4.4c0,0-2.859-2.683-2.815-2.815A16.359,16.359,0,0,1,116.491,135.568Z" transform="translate(256.355 -95.473)"/><path class="a" d="M492.11,76.332l-.4,2.03s-2.737-1.582-4.324-1.427c0,0,.278-2.332.357-2.358A9.8,9.8,0,0,1,492.11,76.332Z" transform="translate(-359.679 -73.693)"/><path class="a" d="M241.448,407.909l-.4,2.03s-2.737-1.582-4.324-1.427c0,0,.278-2.332.357-2.357A9.789,9.789,0,0,1,241.448,407.909Z" transform="translate(52.134 -192.099)"/><path class="a" d="M342.188,392.989l-.4,2.03s-2.737-1.582-4.324-1.427c0,0,.278-2.332.357-2.358A9.79,9.79,0,0,1,342.188,392.989Z" transform="translate(-113.372 -186.771)"/><path class="a" d="M124.881,197.463l-.4,2.03s-2.737-1.583-4.324-1.427c0,0,.278-2.332.357-2.358A9.785,9.785,0,0,1,124.881,197.463Z" transform="translate(243.642 -116.949)"/><path class="a" d="M294.711,381.745l-.4,2.03s-2.737-1.582-4.324-1.427c0,0,.278-2.331.357-2.357A9.79,9.79,0,0,1,294.711,381.745Z" transform="translate(-35.373 -182.756)"/><path class="a" d="M371.126,98.35l-.4,2.03s-2.737-1.583-4.324-1.427c0,0,.278-2.332.357-2.358A9.792,9.792,0,0,1,371.126,98.35Z" transform="translate(-160.914 -81.556)"/><path class="a" d="M460.4,387.1l-.4,2.03s-2.737-1.583-4.324-1.427c0,0,.278-2.332.357-2.358A9.793,9.793,0,0,1,460.4,387.1Z" transform="translate(-307.582 -184.668)"/><path class="a" d="M327.267,102.8l-1.761,1.087s-.7-3.083-1.9-4.14c0,0,1.9-1.384,1.97-1.343A9.8,9.8,0,0,1,327.267,102.8Z" transform="translate(-89.546 -82.2)"/><path class="a" d="M437.4,244.514l-2.109-2.042s-1.912,4.057-3.888,5.158c0,0,2.208,2.494,2.321,2.46A13.891,13.891,0,0,0,437.4,244.514Z" transform="translate(-268.987 -133.648)"/><path class="a" d="M618.425,157.665l-2.109-2.042s-1.912,4.056-3.888,5.158c0,0,2.208,2.494,2.321,2.46A13.9,13.9,0,0,0,618.425,157.665Z" transform="translate(-566.385 -102.635)"/><path class="a" d="M388.511,319.352,386.4,317.31s-1.912,4.056-3.888,5.157c0,0,2.208,2.494,2.32,2.46A13.884,13.884,0,0,0,388.511,319.352Z" transform="translate(-188.66 -160.373)"/><path class="a" d="M152.317,219.962l-2.777-.192s1.648-3.922,1.171-6.014c0,0,3.159-.024,3.207.077A13.169,13.169,0,0,1,152.317,219.962Z" transform="translate(195.705 -123.393)"/><path class="a" d="M187.035,380.565l-2.485-.171s1.475-3.508,1.049-5.379c0,0,2.826-.022,2.868.069A11.778,11.778,0,0,1,187.035,380.565Z" transform="translate(138.649 -180.978)"/><path class="a" d="M296.753,78.756l-2.485-.172s1.474-3.508,1.049-5.379c0,0,2.826-.022,2.868.069A11.781,11.781,0,0,1,296.753,78.756Z" transform="translate(-41.606 -73.202)"/><path class="a" d="M136.773,299.26l-1.11-1.747s3.073-.743,4.115-1.951c0,0,1.408,1.879,1.368,1.953A9.791,9.791,0,0,1,136.773,299.26Z" transform="translate(217.407 -152.607)"/><path class="a" d="M78.883,213.15l-1.11-1.746s3.073-.743,4.115-1.951c0,0,1.408,1.879,1.369,1.952A9.793,9.793,0,0,1,78.883,213.15Z" transform="translate(312.514 -121.857)"/><path class="a" d="M183.007,325.953l-.057-2.719s-3.9,1.425-5.92.862c0,0-.172,3.08-.075,3.132A12.879,12.879,0,0,0,183.007,325.953Z" transform="translate(149.019 -162.488)"/><path class="a" d="M558.488,105.007l-.058-2.719s-3.9,1.424-5.92.862c0,0-.172,3.08-.075,3.132A12.881,12.881,0,0,0,558.488,105.007Z" transform="translate(-467.86 -83.589)"/><path class="a" d="M263.614,176.574l2.308,1.814s1.483-4.232,3.335-5.532c0,0-2.454-2.253-2.563-2.207A13.886,13.886,0,0,0,263.614,176.574Z" transform="translate(7.036 -108)"/><path class="a" d="M540.958,351.069l2.309,1.814s1.483-4.232,3.334-5.531c0,0-2.453-2.253-2.563-2.207A13.886,13.886,0,0,0,540.958,351.069Z" transform="translate(-448.612 -170.312)"/><path class="a" d="M689.012,256.985l-1.839.948s-.464-3.127-1.572-4.273c0,0,2-1.233,2.068-1.187A9.8,9.8,0,0,1,689.012,256.985Z" transform="translate(-684.016 -137.219)"/><path class="a" d="M620.345,226.537l-1.578-2.295s4.1-1.148,5.438-2.822c0,0,1.984,2.458,1.934,2.559A13.176,13.176,0,0,1,620.345,226.537Z" transform="translate(-578.176 -126.131)"/><path class="a" d="M616.551,365.781l.678-1.956s2.492,1.945,4.086,2.009c0,0-.6,2.271-.678,2.286A9.8,9.8,0,0,1,616.551,365.781Z" transform="translate(-571.925 -176.983)"/><path class="a" d="M532.711,292.806l.678-1.956s2.493,1.944,4.086,2.009c0,0-.6,2.271-.678,2.286A9.8,9.8,0,0,1,532.711,292.806Z" transform="translate(-434.184 -150.924)"/><path class="a" d="M683.136,138.979l.016,2.936s4.237-1.471,6.406-.829c0,0,.238-3.323.134-3.379A13.892,13.892,0,0,0,683.136,138.979Z" transform="translate(-683.136 -96.227)"/></g></g></g><g class="l" transform="translate(-7 133.623)"><g transform="translate(39.614 209.418)"><path class="m" d="M2813.523,720.91c.481,3.953.855,7.762.236,8.062a3.389,3.389,0,0,1-1.712-.354,12.867,12.867,0,0,1-3.833-1.629c-.028-.018-.06-.035-.089-.053-4.183-1.968-9.315-4.727-10.46-5.433a12.38,12.38,0,0,0-2.018,1.137q-1.695.917-3.405,1.8c-1.667.858-3.31,1.759-4.992,2.582-.283.138-.565.273-.851.4-.773.36-1.562.7-2.364,1.007-.625.237-1.787.869-2.462.541-1.184-.579,1.264-14.092,1.161-16.752-.2-.385-.534-.915-.946-1.54-2.5-2.805-9.2-9.249-8.451-11.11a.867.867,0,0,1,.231-.3,1.674,1.674,0,0,1,.179-.13c.012-.025.064-.053.152-.085a1.3,1.3,0,0,1,.194-.089,18.267,18.267,0,0,1,5.375-.692c4.2-.446,9.262-.873,9.754-.94s2.78-4.628,4.942-8.365c1.269-2.668,2.511-4.893,3.306-4.836a.363.363,0,0,0,.389,0c.8-.056,2.042,2.169,3.31,4.836,2.158,3.738,4.437,8.295,4.94,8.365s5.553.494,9.754.94c2.412.078,4.564.268,5.571.781a.312.312,0,0,1,.148.085.994.994,0,0,1,.41.434c.724,1.795-5.483,7.85-8.165,10.8l-.282.315c-.416.625-.748,1.155-.95,1.54a27.833,27.833,0,0,0,.269,3.338C2813.043,717.141,2813.3,719.041,2813.523,720.91Z" transform="translate(-2773.28 -684.127)"/><path class="n" d="M2814.423,710.365c1.769-2.828,3.805-8.187,2.189-8.775-1.943-.707-7.766-.839-11.246-1.119s-4.907-7.654-6.654-7.713c-2.122-.072-4.3,5.829-6.755,7.479s-17.794-.972-17.794-.972a1.879,1.879,0,0,1,.18-.13c.01-.025.064-.053.152-.085a1.25,1.25,0,0,1,.195-.089,18.249,18.249,0,0,1,5.372-.692c4.2-.446,9.264-.873,9.755-.94s2.781-4.628,4.942-8.365c1.269-2.668,2.512-4.893,3.307-4.836a.363.363,0,0,0,.389,0c.8-.056,2.042,2.169,3.31,4.836,2.159,3.738,4.437,8.295,4.94,8.365s5.553.494,9.752.94c2.414.078,4.565.268,5.571.781a.3.3,0,0,1,.148.085.983.983,0,0,1,.41.434C2823.311,701.364,2817.1,707.419,2814.423,710.365Z" transform="translate(-2773.876 -684.127)"/><path class="o" d="M2835.338,795.751c-.027-.017-.059-.035-.088-.053-4.183-1.968-9.316-4.727-10.46-5.433a12.3,12.3,0,0,0-2.018,1.137q-1.7.917-3.406,1.8c-1.668.858-3.31,1.759-4.992,2.582-.282.138-.564.273-.85.4,0,0,9.426-10.467,11.41-10.026S2835.338,795.751,2835.338,795.751Z" transform="translate(-2800.405 -752.888)"/><path class="p" d="M2779.945,863.954s-.937-.936-1.812-1.852c-.577-.608-1.117-1.209-1.351-1.512-2.267-2.948-1.93-4.384-1.93-4.384a12.439,12.439,0,0,1,2.5-.388c.157.143,1.975-1.358,1.975-1.358l4.923,4.347Z" transform="translate(-2774.328 -798.93)"/><path class="q" d="M2793.058,870.853c0,.069-.119.632-.295,1.427-.077.358-.167.76-.264,1.184-.247,1.125-.538,2.406-.763,3.4-.1.455-.2.847-.261,1.135-.076.33-.122.524-.122.524s-.052-.024-.142-.076a6.686,6.686,0,0,1-2.175-1.948c-.894-1.33-.926-1.389-2.1-1.709s-1.08-1.33-1.427-2.691-1.677-2.17-2.285-2.952,3.385-10.153,3.385-10.153l.958.781.5.414,3.49,2.854S2793.058,870.592,2793.058,870.853Z" transform="translate(-2779.938 -801.985)"/><path class="p" d="M2896.715,863.954s.936-.936,1.812-1.852c.577-.608,1.118-1.209,1.35-1.512,2.268-2.948,1.931-4.384,1.931-4.384a12.444,12.444,0,0,0-2.5-.388c-.157.143-1.975-1.358-1.975-1.358l-4.921,4.347Z" transform="translate(-2853.578 -798.93)"/><path class="q" d="M2888.751,869.089c-.08.149-.164.3-.242.444-.143.254-.285.5-.42.747v0a9.277,9.277,0,0,0-1.307,2.913c-.113,1.042-2.2.983-2.833,2.372a7.79,7.79,0,0,1-1.653,2,8,8,0,0,1-2.687,1.882c-.388,0-.3-4.493-.177-7.99.01-.32.024-.629.035-.927v0c.073-1.782.142-3.118.142-3.118l1.327-3.351,0,0,3.861-3.309.518-.448,1.524-1.306S2889.62,867.467,2888.751,869.089Z" transform="translate(-2844.754 -801.985)"/><path class="r" d="M2890.829,832.488c-1.48-3.657-5.932-11.5-5.932-11.5l1.5-.877s8.328,7.835,9.761,10.91C2898.6,836.264,2892.908,837.628,2890.829,832.488Z" transform="translate(-2848.51 -775.778)"/><path class="r" d="M2882.156,808.038a4.2,4.2,0,0,0,.35.783c.059.12.119.236.174.34.1.2.191.351.215.4-.033-.043-.162-.216-.294-.394-.079-.11-.158-.216-.217-.3-.007-.013-.019-.026-.028-.042a7.413,7.413,0,0,0-.571-.681c-.092-.1-.169-.165-.213-.164-.223,0-.052.355-.009.464l.02.043c.042.1.1.245.143.351.03.078.056.136.059.152-.013-.018-.06-.077-.126-.149-.049-.053-.114-.117-.182-.178a.923.923,0,0,0-.283-.189.11.11,0,0,0-.139.1.677.677,0,0,0,.053.282c.035.085.076.173.109.247.019.032.037.065.052.093.03.056.053.1.063.113a.478.478,0,0,0-.162-.114h-.007a.124.124,0,0,0-.038-.005.2.2,0,0,0-.042.009s0,0,0,0a.126.126,0,0,0-.083.11.7.7,0,0,0,.026.12c.083.274.324.869.461,1.269.014.049.032.1.044.141.164.526.544,1.486.739,1.916.014.031.027.059.04.083a.414.414,0,0,0,.077.134l.236-.041c.64-.113,1.612-.254,1.612-.254s0-.026-.016-.078c0,0,0-.011,0-.015-.031-.138-.09-.421-.159-.745-.146-.65-.336-1.483-.431-1.731a8.194,8.194,0,0,0-.452-.961l-.187-.339c-.026-.045-.051-.093-.076-.138a2.628,2.628,0,0,0-.587-.752A.11.11,0,0,0,2882.156,808.038Z" transform="translate(-2845.881 -767.552)"/><g transform="translate(2.813 159.526)"><path class="r" d="M2793.079,1173.681l-.125,2.871,1.238,1.307,1.147-1.385.59-3.008Z" transform="translate(-2789.353 -1173.466)"/><path class="s" d="M2781.921,1186.077l5.966-.222.008-.439v-.049a9.191,9.191,0,0,0,.105-.982,8.566,8.566,0,0,0-.108-1.692l-2.384.079s-.248.13-.613.326c-.047.022-.094.05-.146.077l-.119.067c-.05.026-.106.055-.158.085-.091.053-.184.1-.28.158-.048.026-.1.051-.145.08h0l-.116.064c-.05.031-.1.061-.157.094-.158.091-.319.183-.471.273a5.361,5.361,0,0,0-1.2.837,1.362,1.362,0,0,0-.166.536,1.915,1.915,0,0,0-.027.3A3.632,3.632,0,0,0,2781.921,1186.077Z" transform="translate(-2781.907 -1179.685)"/><path class="q" d="M2781.921,1188.769l5.966-.222.008-.438-4.272.186s-.051-.333-.124-.789a6.505,6.505,0,0,0-.2-.817,5.371,5.371,0,0,0-1.2.837,1.362,1.362,0,0,0-.166.536,1.91,1.91,0,0,0-.027.3A3.617,3.617,0,0,0,2781.921,1188.769Z" transform="translate(-2781.907 -1182.378)"/></g><g transform="translate(37.764 159.526)"><path class="r" d="M2891.971,1173.681l.127,2.871-1.238,1.307-1.146-1.385-.59-3.008Z" transform="translate(-2889.124 -1173.466)"/><path class="s" d="M2896.658,1186.077l-5.966-.222-.007-.439v-.049a8.972,8.972,0,0,1-.106-.982,8.471,8.471,0,0,1,.109-1.692l2.382.079s.249.13.613.326c.047.022.094.05.145.077s.077.042.119.067.106.055.159.085c.09.053.182.1.28.158l.144.08h0l.116.064c.05.031.1.061.158.094.157.091.318.183.47.273a5.345,5.345,0,0,1,1.2.837,1.35,1.35,0,0,1,.166.536,2.117,2.117,0,0,1,.027.3A3.624,3.624,0,0,1,2896.658,1186.077Z" transform="translate(-2890.096 -1179.685)"/><path class="q" d="M2896.9,1188.769l-5.966-.222-.006-.438,4.27.186s.053-.333.124-.789a7.01,7.01,0,0,1,.2-.817,5.31,5.31,0,0,1,1.2.837,1.327,1.327,0,0,1,.166.536,1.824,1.824,0,0,1,.027.3A3.617,3.617,0,0,1,2896.9,1188.769Z" transform="translate(-2890.341 -1182.378)"/></g><g transform="translate(19.456 50.087)"><path class="t" d="M2835.223,838.537c-.263-.281-.6-.794-1.046-.771a1.666,1.666,0,0,0-1,.7,2.008,2.008,0,0,0-.191,1.319,1.932,1.932,0,0,0,.476,1.113c.459.452,1.04.17,1.658-.19-.03.21.292.3.334.081.09-.447.61-.658.553-1.162C2835.955,839.194,2835.5,838.831,2835.223,838.537Z" transform="translate(-2832.96 -837.765)"/><path class="t" d="M2860.63,839.481a.618.618,0,0,0-.229-.452c-.009-.019-.014-.039-.024-.058a.122.122,0,0,1-.007-.014c-.426-.713-1.577.18-1.955.476a1.081,1.081,0,0,0-.2,1.65c0,.006,0,.013,0,.019a1.323,1.323,0,0,0,1.258.635,1.36,1.36,0,0,0,1.192-.975A3.344,3.344,0,0,0,2860.63,839.481Z" transform="translate(-2849.785 -838.386)"/><path class="t" d="M2843.89,847.708v0a4.289,4.289,0,0,0-.042-.452c-.021-.177-.048-.354-.086-.528a3.7,3.7,0,0,0-1.348-2.274,3.248,3.248,0,0,0-1.878-.6,11.868,11.868,0,0,0-1.423.111s-1.146-.027-1.688-.052a3.343,3.343,0,0,0-2.527,1.236,3.691,3.691,0,0,0-.708,1.136,3.362,3.362,0,0,0-.226,1.4,7.516,7.516,0,0,0,.917,3.292c.21.386.442.757.684,1.123a.161.161,0,0,1,.1.023.8.8,0,0,1,.468.676.165.165,0,0,1-.033.1c.094.141.189.281.281.423.15.226.292.455.43.688a.173.173,0,0,0,.319-.08,9.132,9.132,0,0,0,1.056.076c.487.035.959-.107,1.445-.121a.137.137,0,0,0,.152.035,6.682,6.682,0,0,0,3.063-2.386,5.162,5.162,0,0,0,.333-.486A5.8,5.8,0,0,0,2843.89,847.708Z" transform="translate(-2833.634 -841.868)"/><path class="u" d="M2843.89,852.736v0a4.288,4.288,0,0,0-.042-.452c-.021-.177-.048-.354-.086-.528a3.17,3.17,0,0,1-1.622,1.421,5.975,5.975,0,0,1-1.257-.067,5.443,5.443,0,0,0-1.657-.1,8.94,8.94,0,0,1-2.392.334,2.763,2.763,0,0,1-2.278-1.445c-.132-.216-.25-.413-.367-.587a3.362,3.362,0,0,0-.226,1.4,7.517,7.517,0,0,0,.917,3.292c.21.386.442.757.684,1.123a.161.161,0,0,1,.1.023.8.8,0,0,1,.468.676.165.165,0,0,1-.033.1c.094.141.189.281.281.423.108.007.219.014.327.017a9.745,9.745,0,0,0,3.014-.159,8.027,8.027,0,0,0,2.628-1.382,7.067,7.067,0,0,0,.831-.75A5.794,5.794,0,0,0,2843.89,852.736Z" transform="translate(-2833.634 -846.896)"/><path class="r" d="M2845.418,850.1a14.119,14.119,0,0,0-.21-2.175s-4.122-1.61-4.986-1.134c-.428.236-1,1.3-1.381,1.6-.29.235-.614.1-.753.469a2.97,2.97,0,0,0,.02,1.067c.053.608.162,1.539.217,2.144.187,2.066.2,3.858,2.426,5.4a2.446,2.446,0,0,0,3.054-.514C2845.5,855.272,2845.414,850.689,2845.418,850.1Z" transform="translate(-2836.386 -843.787)"/><path class="r" d="M2846.941,875.247q-.056-.941-.1-1.889l-.037-.914-4.618-1.964s.008.817.008,1.876c0,0,0,.022,0,.064,0,.184,0,.375,0,.57-.005.465-.009.951-.021,1.418-.006.142-.01.281-.013.417-.016.614-.039,1.171-.08,1.563-.054.593-.172,1.187.412,1.588a2.992,2.992,0,0,0,2.093.089c.757-.126,1.5-.386,2.26-.465a.153.153,0,0,0,.117-.013l.116-.04Q2847.006,876.4,2846.941,875.247Z" transform="translate(-2839.071 -859.815)"/><path class="p" d="M2845.626,878.127c-.691.306-1.053.036-1.677.2a1.474,1.474,0,0,1-.982.013,4.779,4.779,0,0,0-.507-.052c.01-.467.016-.954.021-1.418,0-.194,0-.386,0-.57,0-.042,0-.064,0-.064a4.9,4.9,0,0,0,1.241.882,3.225,3.225,0,0,0,2.031.13C2846.228,877.124,2846.318,877.821,2845.626,878.127Z" transform="translate(-2839.363 -863.694)"/><path class="v" d="M2848.587,871.787c-.039-.1-.457.044-.894.065a7.679,7.679,0,0,1-.917-.033c-.073,0-.355-.023-.374.078s.172.219.235.262a1.585,1.585,0,0,0,1.314.222,1.1,1.1,0,0,0,.512-.318C2848.57,871.94,2848.61,871.844,2848.587,871.787Z" transform="translate(-2842.019 -860.673)"/><path class="r" d="M2858.243,862.38a.564.564,0,0,1,.833-.012c.4.4.128,1.8-.4,2.188s-.888.272-.9.166S2858.243,862.38,2858.243,862.38Z" transform="translate(-2849.686 -854.225)"/><path class="r" d="M2837.9,862.648a.565.565,0,0,0-.834.011c-.388.408-.081,1.8.457,2.177s.9.25.905.143S2837.9,862.648,2837.9,862.648Z" transform="translate(-2835.61 -854.413)"/><path class="t" d="M2844.852,846.587a2.467,2.467,0,0,0-.8-1.688,4.854,4.854,0,0,0-2.18-.785,3.517,3.517,0,0,0-1.65.045,3.762,3.762,0,0,0-3.357,1.122,3.323,3.323,0,0,0-.743,1.892,3.093,3.093,0,0,0,.018.646,7.4,7.4,0,0,0,.412,1.461,4.485,4.485,0,0,0,.448.768,4.949,4.949,0,0,1,.265-1.135,2.356,2.356,0,0,1,.36-.6,5.172,5.172,0,0,1,1.493-1.1,2.784,2.784,0,0,0,1.489-1.7,3.153,3.153,0,0,0,.737,1.448,4.423,4.423,0,0,0,.885.583,5.836,5.836,0,0,1,.976.732,2.131,2.131,0,0,1,.512.705c.117.288.357.969.357.969a8.214,8.214,0,0,0,.416-.99,9.625,9.625,0,0,0,.364-1.59A3.52,3.52,0,0,0,2844.852,846.587Z" transform="translate(-2835.086 -841.993)"/><path class="u" d="M2843.592,854.753c-.129.007-.257.011-.386.011a2.125,2.125,0,0,1,.512.7c.117.289.357.969.357.969a8.229,8.229,0,0,0,.416-.99,9.61,9.61,0,0,0,.364-1.59A3.466,3.466,0,0,1,2843.592,854.753Zm-7.469-1.1a3.091,3.091,0,0,0,.018.646,7.4,7.4,0,0,0,.412,1.462,4.5,4.5,0,0,0,.448.767,4.95,4.95,0,0,1,.265-1.135,2.338,2.338,0,0,1,.36-.6A2.662,2.662,0,0,1,2836.123,853.655Z" transform="translate(-2835.086 -848.475)"/></g><path class="q" d="M2832.571,897.731a15.791,15.791,0,0,0-.289,5.1l-22.715-.083a42.637,42.637,0,0,0-.781-5.469c-.317-1.583-.549-3.3-.723-5.07-.018-.2-.038-.4-.056-.6-.139-1.58-.232-3.2-.287-4.8-.015-.473-.029-.944-.039-1.41-.01-.41-.018-.816-.02-1.219v0c-.083-6.893.4-12.771.4-12.771s2.6,1.215,4.341,2.01c.281.128.642.264,1.052.4.454.156.969.316,1.493.469,1.92.559,4,1.041,4,1.041a6.064,6.064,0,0,0,4.848,0,20.939,20.939,0,0,0,3.25-.343,10.807,10.807,0,0,0,1.511-.407c.146-.052.288-.108.423-.17.189-.084.368-.17.549-.257.2-.094.4-.195.591-.292,1.372-.7,2.425-1.386,2.5-1.438l0,0s.024.292.07.782c.006.069.014.142.02.219.219,2.441.789,8.57.993,9.226a18.068,18.068,0,0,1,.274,3.285A41.118,41.118,0,0,1,2832.571,897.731Z" transform="translate(-2796.446 -810.355)"/><g transform="translate(4.195 57.787)"><path class="v" d="M2797.64,872.567a1.655,1.655,0,0,0-.833.389,3.677,3.677,0,0,0-.348.523,1.748,1.748,0,0,0-.644.51.173.173,0,0,0,0,.176.3.3,0,0,0,.374.126,1.164,1.164,0,0,0,.272-.178,1.779,1.779,0,0,1,.353-.142.419.419,0,0,0,.277-.38c.023-.205.049-.247.253-.328a2.559,2.559,0,0,0,.448-.178C2798.089,872.894,2798.027,872.506,2797.64,872.567Z" transform="translate(-2792.647 -868.918)"/><path class="v" d="M2820.4,888.73a1.658,1.658,0,0,0-.916-.1,3.52,3.52,0,0,0-.568.266,1.751,1.751,0,0,0-.816.1.172.172,0,0,0-.091.15.3.3,0,0,0,.252.3,1.111,1.111,0,0,0,.326-.011,1.814,1.814,0,0,1,.376.063.416.416,0,0,0,.433-.181c.128-.163.172-.185.387-.148a2.635,2.635,0,0,0,.475.081C2820.612,889.242,2820.761,888.88,2820.4,888.73Z" transform="translate(-2807.623 -879.729)"/><path class="v" d="M2796.036,861.8l-.028.011a1.992,1.992,0,0,0-.354.142,1.054,1.054,0,0,1-.271.181.3.3,0,0,1-.375-.128.175.175,0,0,1,0-.174,1.512,1.512,0,0,1,.527-.445Z" transform="translate(-2792.104 -861.387)"/><path class="v" d="M2813.051,876.9a1.654,1.654,0,0,0-.834.39,3.731,3.731,0,0,0-.347.523,1.758,1.758,0,0,0-.644.51.169.169,0,0,0,0,.175.3.3,0,0,0,.372.127,1.115,1.115,0,0,0,.273-.178,1.737,1.737,0,0,1,.354-.142.416.416,0,0,0,.275-.38c.024-.206.051-.248.254-.328a2.487,2.487,0,0,0,.448-.179C2813.5,877.227,2813.438,876.839,2813.051,876.9Z" transform="translate(-2803.034 -871.839)"/><path class="v" d="M2810.843,898.952a1.65,1.65,0,0,0-.834.39,3.366,3.366,0,0,0-.346.523,1.727,1.727,0,0,0-.645.51.17.17,0,0,0,0,.175.3.3,0,0,0,.373.127,1.13,1.13,0,0,0,.273-.178,1.806,1.806,0,0,1,.353-.142.415.415,0,0,0,.276-.38c.023-.205.05-.248.253-.329a2.593,2.593,0,0,0,.449-.178C2811.292,899.278,2811.231,898.891,2810.843,898.952Z" transform="translate(-2801.546 -886.701)"/><path class="v" d="M2828.329,914.243a1.655,1.655,0,0,0-.834.391,3.618,3.618,0,0,0-.347.523,1.737,1.737,0,0,0-.644.51.172.172,0,0,0,0,.175.3.3,0,0,0,.372.126,1.118,1.118,0,0,0,.274-.179,1.75,1.75,0,0,1,.353-.142.417.417,0,0,0,.276-.38c.024-.205.051-.247.253-.328a2.586,2.586,0,0,0,.448-.178C2828.777,914.57,2828.717,914.182,2828.329,914.243Z" transform="translate(-2813.331 -897.008)"/><path class="v" d="M2810.116,931.008a2.413,2.413,0,0,1-.448.177c-.2.081-.229.125-.253.33a.416.416,0,0,1-.275.379,2.046,2.046,0,0,0-.34.135c-.018-.2-.038-.4-.056-.6l.042-.021a3.256,3.256,0,0,1,.347-.525,1.634,1.634,0,0,1,.834-.389C2810.352,930.428,2810.414,930.817,2810.116,931.008Z" transform="translate(-2801.377 -907.958)"/><path class="v" d="M2852.2,901.638a1.666,1.666,0,0,0-.834.39,3.721,3.721,0,0,0-.347.523,1.746,1.746,0,0,0-.644.51.176.176,0,0,0,0,.175.3.3,0,0,0,.371.127,1.093,1.093,0,0,0,.274-.179,1.829,1.829,0,0,1,.354-.142.416.416,0,0,0,.276-.38c.024-.2.05-.247.253-.327a2.564,2.564,0,0,0,.449-.179C2852.648,901.964,2852.586,901.576,2852.2,901.638Z" transform="translate(-2829.42 -888.511)"/><path class="v" d="M2878.828,892.742a1.67,1.67,0,0,0-.834.39,3.7,3.7,0,0,0-.347.524,1.748,1.748,0,0,0-.644.51.168.168,0,0,0,0,.174.3.3,0,0,0,.372.127,1.118,1.118,0,0,0,.274-.179,1.734,1.734,0,0,1,.353-.142.417.417,0,0,0,.276-.38c.024-.2.05-.247.253-.328a2.529,2.529,0,0,0,.448-.179C2879.277,893.068,2879.215,892.681,2878.828,892.742Z" transform="translate(-2847.367 -882.516)"/><path class="v" d="M2899.954,876.9a1.639,1.639,0,0,0-.833.39,3.5,3.5,0,0,0-.348.523,1.752,1.752,0,0,0-.646.51.178.178,0,0,0,0,.175.3.3,0,0,0,.375.127,1.147,1.147,0,0,0,.272-.178,1.742,1.742,0,0,1,.354-.142.416.416,0,0,0,.276-.38c.023-.206.051-.248.253-.328a2.533,2.533,0,0,0,.448-.179C2900.4,877.227,2900.341,876.839,2899.954,876.9Z" transform="translate(-2861.605 -871.839)"/><path class="v" d="M2882.184,926.649a1.658,1.658,0,0,0-.834.39,3.4,3.4,0,0,0-.346.524,1.736,1.736,0,0,0-.645.51.17.17,0,0,0,0,.175.3.3,0,0,0,.373.126,1.1,1.1,0,0,0,.272-.178,1.8,1.8,0,0,1,.355-.142.417.417,0,0,0,.275-.38c.023-.205.05-.248.254-.328a2.653,2.653,0,0,0,.448-.178C2882.633,926.975,2882.572,926.588,2882.184,926.649Z" transform="translate(-2849.629 -905.369)"/><path class="v" d="M2894.176,898.952a1.642,1.642,0,0,0-.834.39,3.507,3.507,0,0,0-.348.523,1.73,1.73,0,0,0-.644.51.17.17,0,0,0,0,.175.3.3,0,0,0,.373.127,1.111,1.111,0,0,0,.273-.178,1.8,1.8,0,0,1,.354-.142.415.415,0,0,0,.275-.38c.024-.205.051-.248.254-.329a2.6,2.6,0,0,0,.448-.178C2894.625,899.278,2894.563,898.891,2894.176,898.952Z" transform="translate(-2857.711 -886.701)"/><path class="v" d="M2872.737,913.126a1.663,1.663,0,0,0-.834.39,3.628,3.628,0,0,0-.346.523,1.754,1.754,0,0,0-.646.51.178.178,0,0,0,0,.175.3.3,0,0,0,.375.127,1.137,1.137,0,0,0,.272-.179,1.788,1.788,0,0,1,.353-.142.417.417,0,0,0,.277-.38c.023-.205.049-.247.253-.328a2.556,2.556,0,0,0,.448-.178C2873.188,913.453,2873.125,913.065,2872.737,913.126Z" transform="translate(-2843.262 -896.255)"/><path class="v" d="M2839.5,895.587a1.647,1.647,0,0,0-.834.39,3.342,3.342,0,0,0-.347.523,1.728,1.728,0,0,0-.645.51.175.175,0,0,0,0,.175.3.3,0,0,0,.373.126,1.1,1.1,0,0,0,.272-.178,1.8,1.8,0,0,1,.354-.142.416.416,0,0,0,.276-.38c.023-.205.05-.247.253-.328a2.553,2.553,0,0,0,.449-.178C2839.944,895.913,2839.882,895.525,2839.5,895.587Z" transform="translate(-2820.857 -884.433)"/><path class="v" d="M2861.488,885.818a1.65,1.65,0,0,0-.834.391,3.5,3.5,0,0,0-.347.523,1.729,1.729,0,0,0-.644.51.168.168,0,0,0,0,.174.3.3,0,0,0,.372.127,1.124,1.124,0,0,0,.273-.178,1.754,1.754,0,0,1,.353-.142.418.418,0,0,0,.276-.38c.024-.205.051-.248.253-.328a2.514,2.514,0,0,0,.448-.178C2861.936,886.146,2861.875,885.758,2861.488,885.818Z" transform="translate(-2835.68 -877.849)"/><path class="v" d="M2886.243,872.567a1.648,1.648,0,0,0-.834.389,3.436,3.436,0,0,0-.347.523,1.718,1.718,0,0,0-.644.51.169.169,0,0,0,0,.176.3.3,0,0,0,.372.126,1.151,1.151,0,0,0,.273-.178,1.811,1.811,0,0,1,.353-.142.416.416,0,0,0,.276-.38c.024-.205.051-.247.253-.328a2.551,2.551,0,0,0,.448-.178C2886.691,872.894,2886.63,872.506,2886.243,872.567Z" transform="translate(-2852.365 -868.918)"/><path class="v" d="M2845.489,919.858a1.652,1.652,0,0,0-.834.39,3.47,3.47,0,0,0-.347.524,1.743,1.743,0,0,0-.646.51.176.176,0,0,0,0,.175.3.3,0,0,0,.374.127,1.135,1.135,0,0,0,.273-.178,1.743,1.743,0,0,1,.353-.142.416.416,0,0,0,.277-.38c.024-.205.051-.247.253-.328a2.51,2.51,0,0,0,.448-.178C2845.937,920.184,2845.876,919.8,2845.489,919.858Z" transform="translate(-2824.897 -900.792)"/><path class="v" d="M2794.875,896.89a1.66,1.66,0,0,0-.834.39,3.576,3.576,0,0,0-.346.524,1.741,1.741,0,0,0-.645.51.173.173,0,0,0,0,.175.3.3,0,0,0,.372.126,1.091,1.091,0,0,0,.274-.178,1.753,1.753,0,0,1,.353-.142.418.418,0,0,0,.276-.38c.024-.2.051-.247.253-.328a2.533,2.533,0,0,0,.448-.178C2795.325,897.216,2795.263,896.829,2794.875,896.89Z" transform="translate(-2790.784 -885.312)"/><path class="v" d="M2787.4,885.785a1.655,1.655,0,0,0-.142-.91,3.536,3.536,0,0,0-.405-.479,1.743,1.743,0,0,0-.309-.762.171.171,0,0,0-.168-.049.3.3,0,0,0-.225.323,1.094,1.094,0,0,0,.095.312,1.856,1.856,0,0,1,.036.379.419.419,0,0,0,.288.372c.189.08.224.117.244.335a2.641,2.641,0,0,0,.045.48C2786.958,886.125,2787.346,886.174,2787.4,885.785Z" transform="translate(-2786.148 -876.344)"/><path class="v" d="M2804,887.354a1.65,1.65,0,0,0-.141-.91,3.584,3.584,0,0,0-.4-.48,1.747,1.747,0,0,0-.309-.761.173.173,0,0,0-.168-.049.3.3,0,0,0-.225.322,1.137,1.137,0,0,0,.093.313,1.739,1.739,0,0,1,.038.379.414.414,0,0,0,.288.371c.19.081.222.118.244.335a2.613,2.613,0,0,0,.045.481C2803.555,887.693,2803.945,887.743,2804,887.354Z" transform="translate(-2797.335 -877.402)"/><path class="v" d="M2842.251,909.7a1.654,1.654,0,0,0-.142-.91,3.471,3.471,0,0,0-.4-.479,1.729,1.729,0,0,0-.309-.762.17.17,0,0,0-.168-.049.3.3,0,0,0-.225.322,1.074,1.074,0,0,0,.094.313,1.78,1.78,0,0,1,.036.378.419.419,0,0,0,.288.372c.191.08.224.118.244.335a2.587,2.587,0,0,0,.046.48C2841.813,910.036,2842.2,910.086,2842.251,909.7Z" transform="translate(-2823.12 -892.461)"/><path class="v" d="M2866.66,901.151a1.666,1.666,0,0,0-.141-.91,3.554,3.554,0,0,0-.405-.479,1.73,1.73,0,0,0-.31-.762.172.172,0,0,0-.168-.049.3.3,0,0,0-.225.323,1.1,1.1,0,0,0,.095.312,1.793,1.793,0,0,1,.038.379.416.416,0,0,0,.287.372c.19.08.223.117.244.335a2.488,2.488,0,0,0,.046.481C2866.222,901.49,2866.612,901.54,2866.66,901.151Z" transform="translate(-2839.572 -886.701)"/><path class="v" d="M2889.707,886.9a1.647,1.647,0,0,0-.14-.91,3.665,3.665,0,0,0-.405-.48,1.769,1.769,0,0,0-.309-.762.173.173,0,0,0-.168-.048.3.3,0,0,0-.227.322,1.163,1.163,0,0,0,.1.312,1.729,1.729,0,0,1,.038.379.417.417,0,0,0,.287.372c.19.08.224.118.245.335a2.546,2.546,0,0,0,.045.48C2889.268,887.241,2889.658,887.29,2889.707,886.9Z" transform="translate(-2855.104 -877.097)"/><path class="v" d="M2897.226,864.565c-.048.393-.441.341-.538,0a2.423,2.423,0,0,1-.05-.483c-.02-.215-.051-.254-.243-.333a.421.421,0,0,1-.277-.309l.518-.448c.018.059.03.122.044.181a3.764,3.764,0,0,1,.4.479A1.632,1.632,0,0,1,2897.226,864.565Z" transform="translate(-2860.267 -862.471)"/><path class="v" d="M2905.219,888.667c-.143.254-.285.5-.42.747-.012-.1-.008-.208-.018-.31-.02-.215-.052-.253-.243-.333a.421.421,0,0,1-.289-.372,1.718,1.718,0,0,0-.038-.379,1.082,1.082,0,0,1-.093-.312.3.3,0,0,1,.225-.323.167.167,0,0,1,.167.048,1.738,1.738,0,0,1,.309.764A3.534,3.534,0,0,1,2905.219,888.667Z" transform="translate(-2865.658 -878.906)"/><path class="v" d="M2884.21,909.209a1.658,1.658,0,0,0-.141-.91,3.6,3.6,0,0,0-.405-.479,1.743,1.743,0,0,0-.31-.762.172.172,0,0,0-.168-.049.3.3,0,0,0-.226.322,1.113,1.113,0,0,0,.095.313,1.784,1.784,0,0,1,.037.379.418.418,0,0,0,.287.372c.191.08.224.118.244.335a2.676,2.676,0,0,0,.047.48C2883.771,909.548,2884.161,909.6,2884.21,909.209Z" transform="translate(-2851.399 -892.132)"/><path class="v" d="M2875.849,880.264c-.048.389-.437.341-.538,0a2.407,2.407,0,0,1-.046-.479c-.02-.219-.055-.257-.247-.337a.422.422,0,0,1-.245-.215c.2-.094.4-.195.59-.292a2.615,2.615,0,0,1,.346.413A1.654,1.654,0,0,1,2875.849,880.264Z" transform="translate(-2845.881 -873.219)"/><path class="v" d="M2859.983,914.209a1.651,1.651,0,0,0-.14-.91,3.748,3.748,0,0,0-.405-.48,1.758,1.758,0,0,0-.31-.762.17.17,0,0,0-.167-.049.3.3,0,0,0-.227.322,1.21,1.21,0,0,0,.1.313,1.724,1.724,0,0,1,.038.379.415.415,0,0,0,.287.371c.19.08.224.118.245.335a2.567,2.567,0,0,0,.045.48C2859.544,914.548,2859.934,914.6,2859.983,914.209Z" transform="translate(-2835.07 -895.502)"/><path class="v" d="M2833.717,886.045a1.667,1.667,0,0,0-.14-.91,3.534,3.534,0,0,0-.407-.479,1.722,1.722,0,0,0-.308-.762.172.172,0,0,0-.169-.049.3.3,0,0,0-.225.323,1.114,1.114,0,0,0,.1.313,1.769,1.769,0,0,1,.038.379.413.413,0,0,0,.287.372c.19.08.224.117.244.335a2.4,2.4,0,0,0,.046.48C2833.278,886.385,2833.668,886.435,2833.717,886.045Z" transform="translate(-2817.367 -876.52)"/><path class="v" d="M2830,903.344a1.672,1.672,0,0,0-.14-.91,3.583,3.583,0,0,0-.407-.479,1.728,1.728,0,0,0-.308-.762.174.174,0,0,0-.169-.049.3.3,0,0,0-.225.323,1.13,1.13,0,0,0,.1.312,1.811,1.811,0,0,1,.038.379.416.416,0,0,0,.287.372c.19.08.223.117.244.335a2.591,2.591,0,0,0,.046.481C2829.563,903.684,2829.953,903.733,2830,903.344Z" transform="translate(-2814.863 -888.179)"/><path class="v" d="M2849.079,889.588a1.667,1.667,0,0,0-.14-.91,3.485,3.485,0,0,0-.407-.479,1.709,1.709,0,0,0-.309-.762.17.17,0,0,0-.168-.049.3.3,0,0,0-.225.322,1.1,1.1,0,0,0,.095.313,1.76,1.76,0,0,1,.038.379.416.416,0,0,0,.287.371c.19.08.224.117.245.336a2.6,2.6,0,0,0,.046.48C2848.64,889.927,2849.03,889.977,2849.079,889.588Z" transform="translate(-2827.721 -878.908)"/><path class="v" d="M2817.23,917.3a1.673,1.673,0,0,0-.141-.91,3.7,3.7,0,0,0-.405-.48,1.756,1.756,0,0,0-.309-.761.176.176,0,0,0-.169-.05.3.3,0,0,0-.226.323,1.121,1.121,0,0,0,.095.312,1.746,1.746,0,0,1,.038.379.416.416,0,0,0,.287.371c.19.081.224.118.244.335a2.555,2.555,0,0,0,.046.481C2816.79,917.641,2817.18,917.69,2817.23,917.3Z" transform="translate(-2806.254 -897.586)"/><path class="v" d="M2807.369,912.114a1.676,1.676,0,0,0-.14-.91,3.571,3.571,0,0,0-.406-.48,1.739,1.739,0,0,0-.309-.762.172.172,0,0,0-.169-.049.3.3,0,0,0-.225.322,1.077,1.077,0,0,0,.1.313,1.725,1.725,0,0,1,.037.379.418.418,0,0,0,.288.372c.19.08.223.118.243.335a2.723,2.723,0,0,0,.047.48C2806.929,912.453,2807.319,912.5,2807.369,912.114Z" transform="translate(-2799.608 -894.09)"/></g><path class="w" d="M2825.969,1001.111a25.379,25.379,0,0,1-6.05-.618c-2.683-.7-4.767.428-4.767-2.336s-.813-3.577-1.275-7.514-1.358-4.07-2.028-8.011c-.813-4.746-2.779-11.261-3.819-16.164a50.237,50.237,0,0,0-1.937-6.775c-.112,1.011-.237,1.99-.379,2.914-.673,4.343-1.28,8.2-2.017,11.8a76.776,76.776,0,0,1-2.383,9.149c-1.805,5.421-1.423,6.254-2.692,9.251-.19.458-.422.969-.707,1.552a15.04,15.04,0,0,0-.858,2.143c-.746,2.4-.4,3.615-1.2,3.945-1.01.413-8.823.948-8.823.948s1.663-20.963,2.473-28.488c.912-8.462,1.052-16.907,2.083-25.349.514-4.2,1.208-7.788,1.707-11.99,0-.018,2.633-16.022,3.213-15.963s7.781,1.26,11.5,1.173c2.483-.063,9.2-1.3,9.723-.784.652.653.59,3.021.707,3.858.362,2.587,1.341,6.059,1.657,8.65.757,6.188,1.181,10.334,1.819,16.532.85,8.264,1.25,17.011,2.313,25.262.639,4.955,1.059,11.025,1.323,16.139.169,3.3.281,6.2.341,8.14C2825.947,1000.164,2825.969,1001.111,2825.969,1001.111Z" transform="translate(-2782.552 -842.84)"/><path class="w" d="M2822.082,879.282l-2.345,14.366-1.5-.841s1.591-8.594,1.823-10.563c.181-1.524.432-2.892.532-3.43C2821.043,878.969,2821.558,879.129,2822.082,879.282Z" transform="translate(-2803.579 -815.345)"/><path class="w" d="M2870.945,894.727l-1.5.84-2.285-14.015a10.909,10.909,0,0,0,1.511-.406c.125.673.312,1.795.454,3.018C2869.354,886.132,2870.945,894.727,2870.945,894.727Z" transform="translate(-2836.552 -816.917)"/><path class="q" d="M2786.472,1166.828c.044-.578,4.513-.057,6.393-.318s2.924-.984,3.125-.694-.2,1.852-.144,2.315-5.209.868-6.858.984-2.468.207-2.473-.217C2786.506,1168.219,2786.426,1167.408,2786.472,1166.828Z" transform="translate(-2782.162 -1008.739)"/><path class="q" d="M2884.005,1165.514c-.364-.239-3.619-.065-5.2-.413s-5.021-1.088-5.419-1.032-.2.642-.094,1.054,0,1.042.109,1.368,3.428.825,5.641,1.106,5.014.694,5.23.348-.043-.456,0-1.259S2884.368,1165.753,2884.005,1165.514Z" transform="translate(-2840.588 -1007.605)"/><path class="r" d="M2780.774,832.488c1.479-3.657,5.926-11.538,5.926-11.538l-1.493-.842s-8.328,7.835-9.76,10.91C2773,836.264,2778.694,837.628,2780.774,832.488Z" transform="translate(-2774.338 -775.778)"/><path class="r" d="M2805.5,807.484a2.588,2.588,0,0,0-.333.894c-.011.05-.02.1-.031.154-.024.126-.051.253-.076.379a8.465,8.465,0,0,0-.142,1.053c-.015.265.056,1.117.111,1.781.032.33.061.617.074.758,0,0,0,.011,0,.016l.009.078s.969-.158,1.613-.242c.085-.013.167-.024.238-.032a.412.412,0,0,0,.033-.151c0-.027.009-.056.013-.091.057-.468.13-1.5.128-2.049,0-.044,0-.1,0-.148.01-.422.059-1.063.057-1.349a1.082,1.082,0,0,0-.011-.122.129.129,0,0,0-.113-.079.005.005,0,0,1-.006,0,.187.187,0,0,0-.041,0,.168.168,0,0,0-.035.016l-.006,0a.487.487,0,0,0-.121.158c0-.019.015-.065.026-.128.007-.032.014-.068.021-.1.01-.081.022-.177.03-.269a.684.684,0,0,0-.034-.284.111.111,0,0,0-.164-.055.964.964,0,0,0-.212.266,2.433,2.433,0,0,0-.119.224c-.042.088-.07.16-.077.18,0-.015.006-.079.011-.162.01-.114.022-.269.032-.378,0-.018,0-.034,0-.047.009-.117.064-.509-.148-.44-.041.011-.095.1-.155.22a8.005,8.005,0,0,0-.338.821c-.005.019-.011.035-.015.049-.03.093-.075.219-.118.347-.072.209-.143.414-.162.465.011-.053.047-.226.086-.445.022-.116.044-.245.065-.377a4.282,4.282,0,0,0,.1-.851A.109.109,0,0,0,2805.5,807.484Z" transform="translate(-2794.606 -767.151)"/><circle class="m" cx="0.781" cy="0.781" r="0.781" transform="translate(14.452 77.722)"/><circle class="m" cx="0.781" cy="0.781" r="0.781" transform="translate(32.915 77.722)"/><path class="x" d="M2836.489,1024.958c-.112,1.011-.237,1.989-.38,2.913-.673,4.344-1.28,8.206-2.017,11.8a15.263,15.263,0,0,1-1.219-6.022c.237-2.177.633-3.726-.4-5.983s.594-3.82.4-6.955.024-4.5.633-4.243S2836.489,1024.958,2836.489,1024.958Z" transform="translate(-2812.948 -908.105)"/><path class="x" d="M2892.108,1124.461c-.507-.239-1.052-.388-1.534-.677a4.059,4.059,0,0,1-1.442-1.663,10.3,10.3,0,0,0-2.4-3.493c-.664-.493-1.018.167-.944.847.145,1.337,1.663,2.042,2.117,3.268.49,1.326.127,2.934.982,4.108a18.9,18.9,0,0,1,2.431,3.774,6.009,6.009,0,0,0,1.129,1.976C2892.39,1130.659,2892.28,1127.759,2892.108,1124.461Z" transform="translate(-2849.105 -976.863)"/><path class="x" d="M2803.755,1146.467a10.033,10.033,0,0,1-1.985,1.147,6.41,6.41,0,0,0-1.456.51c-.42.277-.93.951-.44,1.4.528.486,1.756.135,2.3-.083,1.185-.466,2.176-1.2,3.4-1.59a14.984,14.984,0,0,1,.858-2.142c.285-.584.518-1.094.708-1.552A32.128,32.128,0,0,1,2803.755,1146.467Z" transform="translate(-2791.069 -994.182)"/><path class="x" d="M2832.8,933.127s-.422,4.493,0,4.753a43.026,43.026,0,0,0,8.191,0c.346-.261.444-5.027.444-5.027a4.146,4.146,0,0,1,.924,3.219c-.118,1.445-.11,2.112-.587,2.72s-1.738.955-3.56.738a15.148,15.148,0,0,0-3.624.065c-1.454.065-2.38-.2-2.742-.716s0-1.259-.075-3.082A2.823,2.823,0,0,1,2832.8,933.127Z" transform="translate(-2812.641 -851.768)"/><g transform="translate(21.656 57.061)"><path class="v" d="M2841.137,861.919a1.381,1.381,0,1,1,1.426-1.38A1.406,1.406,0,0,1,2841.137,861.919Zm0-2.512a1.134,1.134,0,1,0,1.179,1.133A1.158,1.158,0,0,0,2841.137,859.406Z" transform="translate(-2839.71 -859.159)"/></g><g transform="translate(25.239 57.061)"><path class="v" d="M2852.127,861.919a1.381,1.381,0,1,1,1.427-1.38A1.406,1.406,0,0,1,2852.127,861.919Zm0-2.512a1.134,1.134,0,1,0,1.179,1.133A1.158,1.158,0,0,0,2852.127,859.406Z" transform="translate(-2850.7 -859.159)"/></g><g transform="translate(24.385 58.317)"><rect class="v" width="0.976" height="0.247" transform="translate(0 0)"/></g><g transform="translate(27.89 57.712)"><path class="v" d="M2858.955,861.81a.121.121,0,0,1-.093-.043.122.122,0,0,1,.014-.174l.474-.406a.126.126,0,0,1,.176.013.124.124,0,0,1-.014.174l-.475.406A.127.127,0,0,1,2858.955,861.81Z" transform="translate(-2858.832 -861.157)"/></g><g transform="translate(21.089 57.785)"><path class="v" d="M2838.662,861.961a.132.132,0,0,1-.063-.017l-.566-.334a.124.124,0,0,1,.126-.213l.566.334a.123.123,0,0,1-.063.23Z" transform="translate(-2837.972 -861.381)"/></g></g></g></g></svg>