<svg xmlns="http://www.w3.org/2000/svg" xmlns:xlink="http://www.w3.org/1999/xlink" width="330" height="64" viewBox="0 0 330 64"><defs><style>.a{fill:#f1f2ff;}.b{clip-path:url(#a);}.c{fill:#e3e5ff;}.d,.e{fill:#38539a;}.e{font-size:16px;font-family:SukhumvitTadmai-Bold, Sukhumvit Tadmai;font-weight:700;}</style><clipPath id="a"><rect class="a" width="330" height="64" rx="10"/></clipPath></defs><g transform="translate(-23 -185)"><rect class="a" width="330" height="64" rx="10" transform="translate(23 185)"/><g class="b" transform="translate(23 185)"><ellipse class="c" cx="54.329" cy="54" rx="54.329" ry="54" transform="translate(268.628 29)"/><ellipse class="c" cx="38.735" cy="39" rx="38.735" ry="39" transform="translate(59.36 -66)"/></g><rect class="c" width="44" height="44" rx="10" transform="translate(35 195)"/><path class="d" d="M64,0H39.25A1.25,1.25,0,0,0,38,1.25v27a1.25,1.25,0,0,0,1.25,1.25H45.5v1.25a1.25,1.25,0,0,0,1.844,1.1l2.531-1.367,2.531,1.367a1.25,1.25,0,0,0,1.844-1.1V29.5H64a1.25,1.25,0,0,0,1.25-1.25v-27A1.25,1.25,0,0,0,64,0ZM62.75,22H45.5V2.5H62.75ZM43,2.5V22H40.5V2.5ZM40.5,27V24.5h5V27Zm9.969.963a1.25,1.25,0,0,0-1.188,0L48,28.654V24.5h3.75v4.154ZM54.25,27V24.5h8.5V27ZM48,8.75A1.25,1.25,0,0,1,49.25,7.5H59A1.25,1.25,0,0,1,59,10H49.25A1.25,1.25,0,0,1,48,8.75Z" transform="translate(5.375 201)"/><text class="e" transform="translate(93 222)"><tspan x="0" y="0">คุณได้รับชุดส่งเสริมธุรกิจแอมเวย์ใหม่</tspan></text></g></svg>