<svg xmlns="http://www.w3.org/2000/svg" width="36" height="36" viewBox="0 0 36 36">
  <g id="Group_6223" data-name="Group 6223" transform="translate(-356 -309)">
    <circle id="Ellipse_1451" data-name="Ellipse 1451" cx="18" cy="18" r="18" transform="translate(356 309)" fill="#f1f2ff"/>
    <g id="Group_8177" data-name="Group 8177" transform="translate(363 269.904)">
      <g id="Group_7984" data-name="Group 7984" transform="translate(0 48.096)">
        <path id="Path_27390" data-name="Path 27390" d="M21.923,66.085H21.54V56.1a3.124,3.124,0,0,0,1.439-2.629.337.337,0,0,0-.044-.167l-2.671-4.674a1.059,1.059,0,0,0-.917-.532H3.632a1.059,1.059,0,0,0-.917.532L.044,53.3A.337.337,0,0,0,0,53.469,3.124,3.124,0,0,0,1.439,56.1v9.986H1.056a.337.337,0,1,0,0,.673H21.923a.337.337,0,1,0,0-.673ZM.7,53.806H1.776a.337.337,0,0,0,0-.673H.917L3.3,48.962a.384.384,0,0,1,.332-.193H19.347a.384.384,0,0,1,.332.193l2.383,4.171H21.2a.337.337,0,1,0,0,.673h1.079a2.451,2.451,0,0,1-4.856,0h2.338a.337.337,0,0,0,0-.673H3.215a.337.337,0,0,0,0,.673H5.553a2.451,2.451,0,0,1-4.856,0Zm16.009,0a2.451,2.451,0,0,1-4.856,0Zm-5.577,0a2.451,2.451,0,0,1-4.856,0Zm7.939,12.279H15.424V64.959h3.644Zm0-1.8H15.424V58.123h3.644Zm1.8,1.8H19.741v-8.3a.337.337,0,0,0-.337-.337H15.087a.337.337,0,0,0-.337.337v8.3H2.112v-9.66a3.122,3.122,0,0,0,3.8-1.545,3.124,3.124,0,0,0,5.577,0,3.124,3.124,0,0,0,5.577,0,3.122,3.122,0,0,0,3.8,1.545Z" transform="translate(0 -48.096)" fill="#38539a" stroke="#38539a" stroke-width="0.5"/>
      </g>
    </g>
  </g>
</svg>
