<svg xmlns="http://www.w3.org/2000/svg" width="36" height="36" viewBox="0 0 36 36"><defs><style>.a{fill:#f1f2ff;}.b{fill:#38539a;stroke:#38539a;stroke-width:0.3px;}</style></defs><g transform="translate(-356 -309)"><circle class="a" cx="18" cy="18" r="18" transform="translate(356 309)"/><g transform="translate(333.416 231.196)"><path class="b" d="M47.851,101.486V90.9a1.244,1.244,0,0,0-.367-.885l-2.843-2.843a1.244,1.244,0,0,0-.885-.367H34.569a1.253,1.253,0,0,0-1.252,1.252v8.027a.473.473,0,0,0,.946,0V88.056a.306.306,0,0,1,.306-.306h8.987v2.114a1.253,1.253,0,0,0,1.252,1.252h2.1v12.436a.306.306,0,0,1-.306.306H34.569a.306.306,0,0,1-.306-.306v-3.6a.473.473,0,0,0-.946,0v3.6a1.253,1.253,0,0,0,1.252,1.252H46.6a1.253,1.253,0,0,0,1.252-1.252v-2.066ZM44.5,89.864v-1.5l1.8,1.8h-1.5A.306.306,0,0,1,44.5,89.864Z"/><path class="b" d="M92.389,198.923h3.266a.473.473,0,0,0,0-.946H92.389A.473.473,0,0,0,92.389,198.923Z" transform="translate(-55.909 -105.22)"/><path class="b" d="M92.389,287.391h8.157a.473.473,0,0,0,0-.946H92.389A.473.473,0,0,0,92.389,287.391Z" transform="translate(-55.909 -190.421)"/><path class="b" d="M92.389,375.857h8.157a.473.473,0,0,0,0-.946H92.389A.473.473,0,0,0,92.389,375.857Z" transform="translate(-55.909 -275.62)"/><path class="b" d="M33.872,320.241a.473.473,0,1,0-.326-.815.478.478,0,0,0,.326.815Z" transform="translate(-0.083 -221.758)"/></g></g></svg>