<svg xmlns="http://www.w3.org/2000/svg" xmlns:xlink="http://www.w3.org/1999/xlink" width="580.001" height="138.349" viewBox="0 0 580.001 138.349"><defs><style>.a{fill:#fef4e0;}.b,.e,.v,.w{fill:none;}.c{clip-path:url(#a);}.d{fill:#fbe6cc;}.e{stroke:#fcf1e9;stroke-width:32px;mix-blend-mode:multiply;isolation:isolate;}.f{clip-path:url(#b);}.g{clip-path:url(#c);}.h{fill:#1f2033;}.i{fill:#ab614f;}.j,.u{fill:#f8a58a;}.k{fill:#fafbfb;}.l{fill:#f6ddc7;}.m{fill:#38539a;}.n{fill:#3a3a3a;}.o{fill:#e3a780;}.p{fill:#f1805b;}.q{fill:#2c2c2c;}.r{fill:#f58c77;}.s{fill:#c86959;}.t{fill:#414f39;}.u{stroke:#f8a58a;}.u,.v,.w{stroke-miterlimit:10;stroke-width:0.25px;}.v{stroke:#c86959;}.v,.w{stroke-linecap:round;}.w{stroke:#fff;}.x{fill:#fff;}.y{stroke:none;}</style><clipPath id="a"><path class="a" d="M-16227,61V4h580V61c0,44.377-129.838,80.349-290,80.349S-16227,105.378-16227,61Z" transform="translate(16657 348)"/></clipPath><clipPath id="b"><path class="b" d="M240.22,50.031h83.323l-9.529,100.392-61.3-13.509Z" transform="translate(-240.22 -50.031)"/></clipPath><clipPath id="c"><rect class="b" width="10.338" height="4.747"/></clipPath></defs><g transform="translate(-430 -331.001)"><path class="a" d="M-16227,61V3h580V61c0,44.377-129.838,80.349-290,80.349S-16227,105.378-16227,61Z" transform="translate(16657 328)"/><g class="c" transform="translate(0 -20)"><g transform="translate(532 284.374)"><circle class="d" cx="69.5" cy="69.5" r="69.5" transform="translate(-112.001 90)"/><g class="e" transform="translate(373.999 -16)"><circle class="y" cx="72" cy="72" r="72"/><circle class="b" cx="72" cy="72" r="56"/></g></g></g><g transform="translate(435.223 295.761)"><rect class="d" width="81.476" height="81.476" rx="19.244" transform="translate(253.801 54.088) rotate(12.474)"/><g transform="translate(238.511 50.031)"><path class="b" d="M240.22,50.031h83.323l-8.62,85.622-61.487,6.321Z" transform="translate(-240.22 -50.031)"/><g transform="translate(0 0)"><g class="f"><g transform="translate(13.789 4.022)"><g transform="translate(3.336 166.891)"><path class="b" d="M270.022,347.458H280.36v4.747H270.022Z" transform="translate(-270.022 -347.458)"/><g transform="translate(0 0)"><g class="g"><g transform="translate(0.001 0)"><path class="h" d="M280.3,348a6.8,6.8,0,0,0-3.419-.544,17.735,17.735,0,0,0-3.881.419.127.127,0,0,0-.165-.071l-.007,0c-1.622.755-2.263,2.458-2.8,4.045a.122.122,0,0,0,.084.15,15.886,15.886,0,0,0,6.121-.236c.873-.184,1.253-.844,1.816-1.475a16.622,16.622,0,0,1,2.275-2.1.122.122,0,0,0,0-.173A.11.11,0,0,0,280.3,348" transform="translate(-270.023 -347.458)"/></g></g></g></g><path class="i" d="M324.709,66.863c-.205-.43-.141-2-.447-3.338a11.722,11.722,0,0,0-1.284-3.046,5.7,5.7,0,0,0-1.29-1.684,4.558,4.558,0,0,0-2.148-.812,5.108,5.108,0,0,1-1.676-.6c-2.378-1.036-4.782.372-6.641,1.818a.12.12,0,0,0-.13.08c0,.01-.006.019-.009.028l-.115.089c-.08.064-.033.157.043.188a3.627,3.627,0,0,0,.472,2.027q.632,1.445,1.272,2.888a40.742,40.742,0,0,1,2.385,6.044c.433,1.662.784,3.444,1.954,4.774a5.7,5.7,0,0,0,2.1,1.371,9.184,9.184,0,0,1,2.051,1.518,2.443,2.443,0,0,0,2.12.471,6.463,6.463,0,0,1,3.735.571.123.123,0,0,0,.166-.044,3.937,3.937,0,0,0-.013-2.611,4.975,4.975,0,0,1-.19-1.694c.078-.655.507-1.186.62-1.83a5.139,5.139,0,0,0-.97-3.046c-.6-1.1-1.476-2.039-2.011-3.167" transform="translate(-284.086 -57.031)"/><path class="h" d="M329.86,85.1a1.6,1.6,0,0,0-.036-.988,2.409,2.409,0,0,1,.057-1.922,3.806,3.806,0,0,0,.444-1.04,3.084,3.084,0,0,0-.249-1.534.122.122,0,0,0-.239.032,5.84,5.84,0,0,0-1.874,1.933c-.62.883-1.176,1.821-1.75,2.735a4.028,4.028,0,0,0-.791,1.98,9.7,9.7,0,0,1,1.983,1.485,2.343,2.343,0,0,0,.582.353c.037-.245.045-.5.062-.632a2.144,2.144,0,0,1,.994-1.675c.274-.2.674-.4.818-.727" transform="translate(-290.251 -66.6)"/><path class="h" d="M332.784,346.552q-1.991.355-3.96.82c-.637.152-1.274.306-1.9.482a2.266,2.266,0,0,0-1.087.557.125.125,0,0,0-.17.048.123.123,0,0,0,0,.117c.708,1.377,2.4,2.835,4.076,2.5a2.982,2.982,0,0,0,1.757-1.419,11.913,11.913,0,0,0,1.44-2.952c.032-.1-.065-.164-.149-.149" transform="translate(-290.346 -180.181)"/><path class="j" d="M321.331,106.84a1.461,1.461,0,0,0-.211-2.055c-.025-.02-.051-.04-.076-.058a2.35,2.35,0,0,0,.368-.567c.287-.665.157-.445-.348-.676L317.548,102c-.818-.372-2.226-1.045-2.515-1.983,0-.022-.007-.043-.009-.064v-.009a2.024,2.024,0,0,0,0-.441.312.312,0,0,0-.037-.073.1.1,0,0,0-.095-.1h-.017c-.267-.145-.771-.01-1.03,0q-2.126.058-4.248.234a12.9,12.9,0,0,0-1.315.088.115.115,0,0,0-.194-.045l-.005.005a.111.111,0,0,0-.133.022,9.263,9.263,0,0,1-2,1.747c-.853.488-4,1.583-4.444,1.8-.23.112-.249.3-.253.544a2.418,2.418,0,0,0,.345.853c.01.021.022.04.033.061a3.045,3.045,0,0,0-.486,2.471c.385,1.644,1.711,3.147,2.694,4.477a60.783,60.783,0,0,1,5.588,8.177,1.271,1.271,0,0,0,.768,1.456,1.384,1.384,0,0,0,2.219-1.322l1.082-1.719a1.321,1.321,0,0,0,.2-.548,14.454,14.454,0,0,0,2.229-4.528l5.409-6.259" transform="translate(-279.887 -74.995)"/><path class="k" d="M322.365,124.273c-.179-.675-.349-1.352-.506-2.033q-.442-1.928-.75-3.885c-.21-1.334-.294-2.691-.532-4.022a7.772,7.772,0,0,0-1.312-3.059,16.2,16.2,0,0,0-2.264-2.7c-1.693-1.561-4.02-1.95-6.231-2.218-.167.307-.341.605-.513.892-.857,1.426-1.87,2.746-2.832,4.1-1.2,1.691-2.277,3.464-3.49,5.147a53.451,53.451,0,0,1-4.373,5.369.123.123,0,0,1-.172,0c-2.23-2.188-3.316-5.264-5.08-7.8-1.694-2.435-3.316-5.127-3.505-8.135-1.156.468-2.3.964-3.418,1.515a32.687,32.687,0,0,0-3.521,2,9.384,9.384,0,0,0-2.643,2.365,15.894,15.894,0,0,0-1.635,3.424l-1.654,4.249-1.653,4.249c-.147.374-.6,1.049-.419,1.452.133.3.654.479.937.592a12.875,12.875,0,0,1,2.037.853c.6.37,1.164.8,1.789,1.133a10.4,10.4,0,0,0,3.653,1.138,26.592,26.592,0,0,1,0,4.763,8.213,8.213,0,0,0,.916,4.518c.528,1.03,1.1,2.488,2.432,2.574a15.261,15.261,0,0,0,2.464-.224q1.427-.145,2.855-.262,5.477-.447,10.976-.48c1.649-.01,3.3.073,4.948.038a4.434,4.434,0,0,0,3.276-1.1,4.508,4.508,0,0,0,.923-1.954c.258-.967.484-1.944.725-2.916.464-1.873,1.027-4.27,1.5-6.21.169-.047.33-.094.476-.13q2-.5,4-1.005c.636-.161,1.279-.3,1.91-.486a1.068,1.068,0,0,0,.788-.569,1.932,1.932,0,0,0-.106-1.18" transform="translate(-269.151 -77.83)"/><path class="h" d="M328.752,158.749a9.228,9.228,0,0,0-1.118-.837,2.049,2.049,0,0,0-.517-.115,1.906,1.906,0,0,1-.8-.4,1.912,1.912,0,0,0-1.231-.369,15.223,15.223,0,0,0-3.112.9,9.888,9.888,0,0,1-2.156.349c-.693.028-1.385-.023-2.075.068a13.3,13.3,0,0,0-3.458,1.112.1.1,0,0,0-.076.033l-.066.028c-.143.061-.02.271.122.209l.041-.017a18.537,18.537,0,0,0,3.47.429c1.234.163,2.447.46,3.678.65a21.67,21.67,0,0,0,3.67.236c.632-.009,1.264-.038,1.9-.077.264-.016.547-.016.827-.028a2.8,2.8,0,0,0,.579-.475,3.621,3.621,0,0,0,.73-1.31,1.529,1.529,0,0,0-.407-.385" transform="translate(-285.427 -99.563)"/><path class="l" d="M315.189,213.071c-.3-4.4-1.031-8.763-1.219-13.173-.182-4.274.463-8.458.859-12.7.428-4.586.235-8.985-1.646-13.25-1.94-4.4-4.318-8.649-6.511-12.933a.253.253,0,0,0-.129-.454,82.536,82.536,0,0,0-24.174,1.8.207.207,0,0,0-.172.225.2.2,0,0,0-.032.138c.525,4.156.94,8.279-.034,12.406-.836,3.536-2.322,6.871-3.333,10.354a31.346,31.346,0,0,0-.885,11.145,41.5,41.5,0,0,1,.123,5.934,22.711,22.711,0,0,1-1.322,5.787c-1.158,3.3-2.751,6.484-3.353,9.953-.659,3.793.718,7.38.528,11.153-.326,6.465-5.668,11.274-6.884,17.5-.821,4.2.929,8.468-.154,12.635-.9,3.448-3.255,6.632-2.48,10.339a.242.242,0,0,0,.234.178,138.754,138.754,0,0,1,17.412-.784.246.246,0,0,0,.242-.242,35.275,35.275,0,0,1,1.064-8.526c.68-2.3,1.825-4.435,2.535-6.727,1.541-4.976-.27-10.3,1.7-15.191.9-2.224,2.232-4.239,3.156-6.451a20.689,20.689,0,0,0,1.348-6.691,33.636,33.636,0,0,1,1.214-8.14c.409-1.279.9-2.528,1.379-3.783a23.556,23.556,0,0,1,.788,5.119,59.527,59.527,0,0,1-.61,7.2c-.479,4.781.225,9.561-.009,14.348a28,28,0,0,1-1.379,7.183,17.336,17.336,0,0,0-1.155,6.158c.142,2.6,1.149,5.072,1.46,7.655a22.854,22.854,0,0,1-.585,8.442.244.244,0,0,0,.234.307,118.112,118.112,0,0,0,13.595-.792c1.159-.136,3.485,0,4.239-1.111.84-1.237.275-3.531.131-4.894a19.671,19.671,0,0,1,.353-6.709c.467-2.014,1.106-3.991,1.391-6.044.568-4.09-.517-8.132-.741-12.2-.241-4.4.932-8.644,1.871-12.9a42.88,42.88,0,0,0,.954-12.263" transform="translate(-264.216 -100.976)"/><path class="m" d="M285.2,174.52a40.785,40.785,0,0,1-1.307,6.186c-.586,2.006-1.288,3.979-1.73,6.025-.868,4.023-.133,8.007.186,12.044a23.319,23.319,0,0,1-.211,6.106,32.668,32.668,0,0,1-1.53,5.269c-1.273,3.471-2.851,6.883-3.432,10.562-.626,3.965.287,7.924.159,11.9s-1.849,7.361-3.543,10.855a31.958,31.958,0,0,0-2.011,4.906,31.3,31.3,0,0,0-.973,5.839,47.046,47.046,0,0,1-.862,6.356,46.152,46.152,0,0,1-1.727,5.384c-.612,1.654-1.264,3.333-1.77,5.043q3.161-.322,6.335-.5c.007-.043.015-.086.021-.129a51.811,51.811,0,0,0,.514-6.291c.082-2.208.13-4.425.4-6.619a30.739,30.739,0,0,1,1.414-6.071c1.257-3.74,3.008-7.3,4.137-11.085a26.065,26.065,0,0,0,1.065-5.7c.149-2.192.038-4.39-.02-6.584a34.1,34.1,0,0,1,.315-6.747,31.571,31.571,0,0,1,1.733-5.834c.729-1.906,1.529-3.787,2.169-5.726a31.922,31.922,0,0,0,1.51-12.671,43.73,43.73,0,0,1-.359-6.662,42.7,42.7,0,0,1,1.344-6.436,37.837,37.837,0,0,0,.882-6.309,75.479,75.479,0,0,0-.626-13.091c-.075-.648-.156-1.294-.234-1.941q-1,.178-2,.376a40.856,40.856,0,0,1,.152,11.539" transform="translate(-265.165 -101.938)"/><path class="n" d="M295.187,161.761a69.906,69.906,0,0,0,.575,10.8,37.808,37.808,0,0,1,.128,5.976,26.933,26.933,0,0,1-1.335,6.13,20.292,20.292,0,0,0-1.184,5.792,34.015,34.015,0,0,0,.7,5.925,24.461,24.461,0,0,1,.32,6.034,32.9,32.9,0,0,1-1.034,5.644c-.956,3.625-2.292,7.137-3.223,10.769a33.283,33.283,0,0,0-.962,5.357,58.07,58.07,0,0,0,.025,6.215,20.03,20.03,0,0,1-.783,6.236c-.556,1.854-1.322,3.636-2.02,5.44a30.12,30.12,0,0,0-1.666,5.788c-.34,1.989-.495,4-.707,6.007a40.636,40.636,0,0,1-1.062,6.083c-.506,1.922-1.139,3.806-1.749,5.7-.46,1.42-.914,2.862-1.289,4.321,1.213-.057,2.427-.091,3.642-.115.831-3.267.69-6.7.841-10.046a30.224,30.224,0,0,1,.862-6.353,41.541,41.541,0,0,1,1.967-5.524c1.5-3.563,3.19-7.068,3.936-10.889.8-4.068.694-8.233.985-12.35a38.915,38.915,0,0,1,.923-6.295c.47-1.974,1.084-3.908,1.7-5.843,1.179-3.721,2.373-7.5,2.508-11.435.148-4.3-.765-8.551-.36-12.852.394-4.192,1.575-8.3,1.556-12.531-.02-4.137-1.395-8.105-1.631-12.219a18.034,18.034,0,0,1,0-1.994q-.836.111-1.661.234" transform="translate(-270.897 -101.479)"/><path class="o" d="M305.571,197.228c-.265-3.982-.925-8-.426-11.986.287-2.3,1.173-4.451,1.609-6.72a12.411,12.411,0,0,0-.338-5.781,37.971,37.971,0,0,1-1.666-6.983,20.018,20.018,0,0,1,.194-4.823c-.248.022-.5.045-.744.07a20.94,20.94,0,0,0,.557,8.774c.583,2.06,1.437,4.1,1.494,6.264a21.192,21.192,0,0,1-1.217,6.108c-2.132,7.853,1.248,15.932-.8,23.786-.982,3.766-2.792,7.247-3.9,10.971-1.166,3.908-.9,7.834-1.191,11.847-.3,4.113-1.907,7.856-3.312,11.682a36.789,36.789,0,0,0-2.2,11.542,71.981,71.981,0,0,1-.557,7.377c-.319,2.236-.747,4.455-1.1,6.685-.185,1.176-.345,2.356-.46,3.539.23,0,.457.005.685.007.46-4.958,1.8-9.946,2.048-14.855.217-4.281.336-8.383,1.714-12.488,1.222-3.637,2.907-7.146,3.594-10.946.727-4.02.115-8.152.955-12.156.788-3.744,2.524-7.188,3.752-10.791a27.976,27.976,0,0,0,1.308-11.122" transform="translate(-275.827 -101.227)"/><path class="m" d="M318.675,170.555a48.783,48.783,0,0,1,.9,5.949,21.048,21.048,0,0,1-.491,6.1,48.858,48.858,0,0,0-1.111,5.964,29.5,29.5,0,0,0,.07,6.244c.241,2.055.617,4.08.657,6.157a38.871,38.871,0,0,1-.483,6.508c-.317,2.112-.716,4.217-1.17,6.307l.09-.23a25.334,25.334,0,0,1,.76,4.475,17,17,0,0,0,1.475-5.013,38.152,38.152,0,0,1,1.465-6.1,18.738,18.738,0,0,0,.865-3.119,12.393,12.393,0,0,0,.046-3.146,51.449,51.449,0,0,1-.6-6.926,24.385,24.385,0,0,1,1.253-6.6,17.906,17.906,0,0,0,1.246-6.219,29.021,29.021,0,0,0-1.392-6.335,57.682,57.682,0,0,1-1.558-14.232q-1.549.047-3.1.154a37.947,37.947,0,0,0,1.083,10.059" transform="translate(-286.686 -100.975)"/><path class="o" d="M327.129,188.1a59.3,59.3,0,0,0,.517-5.957c.013-3.483-1.156-6.769-2.316-10.007-1.125-3.147-2.358-6.452-2.131-9.854a10.98,10.98,0,0,1,.31-1.936c-.753-.021-1.508-.034-2.264-.034-1.081,6.771,3.132,13.147,3.324,19.872.115,4.022-.883,7.983-.833,12,.025,2.03.4,4.025.6,6.041a19.023,19.023,0,0,1-.236,5.6c-.69,3.5-2.193,6.764-3.419,10.093a34.6,34.6,0,0,0-1.522,5.118,37.237,37.237,0,0,0-.575,5.445,53.937,53.937,0,0,1-.475,5.845,18.907,18.907,0,0,1-1.777,5.427c-.245.494-.494.983-.741,1.475.014,1,.007,1.995-.041,2.993a28,28,0,0,1-1.379,7.183,17.335,17.335,0,0,0-1.155,6.157c.128,2.389.984,4.661,1.363,7.017a76.356,76.356,0,0,1,3-9.853,72.743,72.743,0,0,0,3.7-11.206c.786-3.875.956-7.815,1.453-11.723a40.781,40.781,0,0,1,1.188-6.065c.51-1.785,1.158-3.527,1.81-5.264,1.279-3.413,2.6-6.885,2.849-10.557.272-4.009-.832-7.922-1.264-11.877a27.818,27.818,0,0,1,.02-5.945" transform="translate(-284.968 -100.964)"/><path class="m" d="M332.03,191.236c.143-1.99.453-3.965.539-5.96.187-4.379-1.3-8.39-2.8-12.427-1.465-3.934-2.855-8.135-2.1-12.327-.245-.014-.491-.024-.736-.036-1.249,7.089,3.325,13.584,4.609,20.406.784,4.168-.353,8.237-.318,12.412.035,4.049,1.291,7.95,1.647,11.965.673,7.585-2.343,14.763-4.477,21.88a55.115,55.115,0,0,0-2.151,10.663c-.39,4.1-.653,8.16-2.18,12.038-1.6,4.072-3.613,7.865-4.766,12.117a81.758,81.758,0,0,0-1.691,8.075c.246,0,.492-.009.738-.014.356-2.134.758-4.259,1.269-6.362a62.6,62.6,0,0,1,4.074-11.11,33.737,33.737,0,0,0,2.914-10.675A77.677,77.677,0,0,1,328.345,230c1.839-7.011,4.947-13.8,5.32-21.121.193-3.793-.671-7.43-1.279-11.148a27.669,27.669,0,0,1-.357-6.5" transform="translate(-286.926 -101.037)"/><path class="n" d="M341.921,210.428c-.437-3.294-.955-6.58-1.19-9.9a54.459,54.459,0,0,1,.629-11.107c.56-4.27-.371-8.16-1.36-12.29l-1.149-4.809c-1.384-2.836-2.886-5.626-4.341-8.423a39.217,39.217,0,0,0,1.943,9.071c1.25,3.627,2.915,6.864,2.576,10.819-.159,1.86-.564,3.689-.754,5.545a38.077,38.077,0,0,0-.095,5.949c.209,3.841.827,7.643,1.2,11.469a43.331,43.331,0,0,1-.278,11.7c-.614,3.515-1.616,6.945-2.471,10.406a53.756,53.756,0,0,0-1.641,10.665,36.95,36.95,0,0,1-2.011,11.324c-2.339,6.471-6.12,13.343-4.737,20.342q1.756-.115,3.505-.284c1.37-5.684,4.344-10.884,5.96-16.512a39.286,39.286,0,0,0,1.207-10.672,47.515,47.515,0,0,1,.856-9.3c.377-2.559,1.016-5.088,1.575-7.622a42.845,42.845,0,0,0,.957-12.261c-.092-1.375-.23-2.746-.377-4.117" transform="translate(-291.322 -102.489)"/><path class="l" d="M321.891,166.476a10.021,10.021,0,0,0-.588-1.322,3.82,3.82,0,0,0-.728-1.105,1.239,1.239,0,0,0-.934-.172c-.636.03-1.271.067-1.906.1q-3.812.22-7.613.557-7.5.665-14.952,1.788a.1.1,0,0,0-.083.134.132.132,0,0,0-.175.064.137.137,0,0,0-.012.04q-.163,1.6-.172,3.2a.123.123,0,0,0,.121.121,30.36,30.36,0,0,0,6.7-.914q3.492-.662,7.017-1.127,3.421-.45,6.865-.712,1.782-.135,3.563-.22a7.746,7.746,0,0,0,2.838-.3.121.121,0,0,0,.057-.137" transform="translate(-277.195 -102.467)"/><path class="h" d="M300.158,292.272a15.846,15.846,0,0,0-1.964,1.909c-.987,1.169-1.5,2.608-2.391,3.833-1.5,2.064-3.906,3.473-4.715,6.006-.043.134.151.207.222.094a9.886,9.886,0,0,1,1.323-1.8,5.1,5.1,0,0,1,2.115-1.127c1.272-.45,1.695-1.484,2.4-2.532a6.05,6.05,0,0,1,1.071-1.137,12.764,12.764,0,0,1,.747-2.736c.345-.859.757-1.686,1.185-2.505" transform="translate(-275.644 -157.092)"/><path class="h" d="M317.518,245.062c1.8-1.421,2.022-3.9,3.024-5.836.693-1.341,1.619-2.543,2.292-3.9a22.88,22.88,0,0,0,1.576-4.178.122.122,0,0,0-.222-.094c-2.83,3.892-5.707,7.915-6.99,12.608q.172.7.319,1.4" transform="translate(-286.752 -131.028)"/><path class="h" d="M278.657,321.437a9.063,9.063,0,0,1-2.085,2.528c-.734.615-1.516,1.155-2.191,1.839a11.928,11.928,0,0,0-2.754,4.482c-.051.148.183.211.234.064a11.63,11.63,0,0,1,3.111-4.776c.715-.656,1.54-1.18,2.241-1.853a9.3,9.3,0,0,0,1.654-2.16.122.122,0,0,0-.209-.124h0" transform="translate(-267.365 -169.473)"/><path class="h" d="M344.183,282.923Q342,285.98,339.916,289.1c-.087.13.123.252.209.122q2.085-3.124,4.267-6.182c.091-.127-.12-.248-.209-.122" transform="translate(-296.407 -153.093)"/><path class="n" d="M294.189,152.532a.607.607,0,1,0,.58.58.607.607,0,0,0-.58-.58" transform="translate(-276.719 -97.653)"/><path class="n" d="M325.421,156.225a.607.607,0,1,0,.58.58.607.607,0,0,0-.58-.58" transform="translate(-290.003 -99.224)"/><g transform="translate(10.584 29.595)"><path class="h" d="M292.153,130.335a16.688,16.688,0,0,0-1.666,8.767c.013.155.256.156.242,0a16.452,16.452,0,0,1,1.634-8.644c.069-.14-.14-.263-.21-.122" transform="translate(-285.95 -117.78)"/><path class="h" d="M343.939,133.316c-.021-.154-.255-.088-.236.064a53.381,53.381,0,0,1,.471,5.464c.006.156.248.156.242,0a53.971,53.971,0,0,0-.478-5.529" transform="translate(-308.61 -119.037)"/><path class="n" d="M311.493,138.077a.607.607,0,1,0,.58.58.607.607,0,0,0-.58-.58" transform="translate(-294.663 -121.1)"/><path class="n" d="M284.059,133.751a.607.607,0,1,0,.58.58.607.607,0,0,0-.58-.58" transform="translate(-282.994 -119.26)"/><path class="n" d="M297.987,135.967a.607.607,0,1,0,.58.58.607.607,0,0,0-.58-.58" transform="translate(-288.918 -120.202)"/><path class="n" d="M327.109,139.87a.607.607,0,1,0,.58.58.607.607,0,0,0-.58-.58" transform="translate(-301.306 -121.862)"/><path class="n" d="M340.4,141.981a.607.607,0,1,0,.58.58.607.607,0,0,0-.58-.58" transform="translate(-306.96 -122.76)"/><path class="n" d="M321.2,130.691a.607.607,0,1,0,.58.58.607.607,0,0,0-.58-.58" transform="translate(-298.792 -117.958)"/><path class="n" d="M334.706,132.59a.607.607,0,1,0,.58.58.607.607,0,0,0-.58-.58" transform="translate(-304.537 -118.766)"/><path class="n" d="M348.844,134.384a.607.607,0,1,0,.58.58.607.607,0,0,0-.58-.58" transform="translate(-310.551 -119.529)"/><path class="n" d="M307.378,128.158a.607.607,0,1,0,.58.58.607.607,0,0,0-.58-.58" transform="translate(-292.913 -116.881)"/><path class="n" d="M294.294,125.521a.607.607,0,1,0,.58.58.607.607,0,0,0-.58-.58" transform="translate(-287.348 -115.759)"/><path class="n" d="M283.215,121.933a.607.607,0,1,0,.58.58.607.607,0,0,0-.58-.58" transform="translate(-282.635 -114.233)"/><path class="n" d="M303.474,118.24a.607.607,0,1,0,.58.58.607.607,0,0,0-.58-.58" transform="translate(-291.252 -112.662)"/><path class="n" d="M327.953,121.933a.607.607,0,1,0,.58.58.607.607,0,0,0-.58-.58" transform="translate(-301.665 -114.233)"/><path class="n" d="M343.674,125.309a.607.607,0,1,0,.58.58.607.607,0,0,0-.58-.58" transform="translate(-308.352 -115.669)"/><path class="n" d="M291.445,113.281a.607.607,0,1,0,.58.58.607.607,0,0,0-.58-.58" transform="translate(-286.136 -110.553)"/><path class="n" d="M302.946,145.252a.607.607,0,1,0,.58.58.607.607,0,0,0-.58-.58" transform="translate(-291.028 -124.152)"/><path class="n" d="M289.968,140.609a.607.607,0,1,0,.58.58.607.607,0,0,0-.58-.58" transform="translate(-285.507 -122.177)"/><path class="n" d="M318.984,147.995a.607.607,0,1,0,.58.58.607.607,0,0,0-.58-.58" transform="translate(-297.85 -125.318)"/><path class="n" d="M335.022,149.788a.607.607,0,1,0,.58.58.607.607,0,0,0-.58-.58" transform="translate(-304.672 -126.081)"/><path class="n" d="M309.7,154.748a.607.607,0,1,0,.58.58.607.607,0,0,0-.58-.58" transform="translate(-293.9 -128.191)"/><path class="n" d="M337.027,115.6a.607.607,0,1,0,.58.58.607.607,0,0,0-.58-.58" transform="translate(-305.524 -111.54)"/><path class="n" d="M347.156,114.653a.607.607,0,1,0,.58.58.607.607,0,0,0-.58-.58" transform="translate(-309.833 -111.136)"/><path class="n" d="M298.2,108.533a.607.607,0,1,0,.58.58.607.607,0,0,0-.58-.58" transform="translate(-289.008 -108.533)"/></g><path class="h" d="M299.215,160.128a8.882,8.882,0,0,0-2.738-.475.121.121,0,1,0,0,.243,8.645,8.645,0,0,1,2.672.465c.148.051.211-.184.064-.234" transform="translate(-277.887 -100.682)"/><path class="i" d="M305.852,60.376c-.074-.042.731-.686.252-.6a5.907,5.907,0,0,0-4.412,1.619c-1.241,1.227-.907,3.129-1.487,4.648-.678,1.772-2.109,3.132-2.808,4.9a4.735,4.735,0,0,0-.331,2.38c.067.509.2,1,.293,1.508a6,6,0,0,1,0,1.935,10.357,10.357,0,0,0-.221,2.894c.057.418.129,1.379.6,1.557.247.092.456-.083.655-.212a3.276,3.276,0,0,1,1.53-.536c1.025-.095,2.043.16,3.068.115a6.379,6.379,0,0,0,2.484-.615c.767-.368.919-.887,1.034-1.7a24.143,24.143,0,0,0-.392-5.973,28.364,28.364,0,0,1,.608-7.179c.237-1.614.784-3.8-.874-4.741" transform="translate(-278.175 -58.196)"/><path class="j" d="M319.82,80.642c-.063-.862-.182.773-1.327.7a9.515,9.515,0,0,0-2.518.638l-2.86.747.008-.5c.008-.467-.908-.784-.916-.315-.025,1.533-.144,6.385-.13,9.988.006,1.66.093,3.041.138,3.735.092,1.452,1.494,1.088,2.563,1.058.879-.024,1.756-.091,2.629-.195.575-.068,1.541-.014,1.97-.527.411-.492.273-1.417.292-2,.037-1.108.314-11.121.152-13.332" transform="translate(-284.573 -66.967)"/><path class="h" d="M310.971,88.2a9.5,9.5,0,0,0,.088-1.387,3.3,3.3,0,0,0-.224-.848,24.192,24.192,0,0,0-1.379-2.528,1.869,1.869,0,0,0,.118-.15c.091-.126-.119-.248-.21-.122-.625.869-2.8,1.934-1.419,3.171a1.6,1.6,0,0,1,.586,1.318,2.159,2.159,0,0,0,.045.977c.121.249.329.3.547.432a1.464,1.464,0,0,1,.649.919c.057-.025.115-.049.168-.075.766-.367.919-.887,1.034-1.7" transform="translate(-282.626 -68.126)"/><path class="p" d="M319.814,92.439c.017-.9.057-1.9.068-2.79a7.47,7.47,0,0,0-1.353.8c-1.936,1.094-4.187-.928-6.432-1.121v3.193c1.52.819,3.027,1.816,4.836,1.306a16.154,16.154,0,0,0,2.7-1.3c.049-.025.121-.063.177-.09" transform="translate(-284.583 -70.769)"/><path class="j" d="M319.072,63.579a8.965,8.965,0,0,0-6.179-.721,7.713,7.713,0,0,0-4.337,2.087c-.057-.361-.69-.419-.732-.006-.431,3.936-.465,8.364,1.143,12.05.64,1.467,3.518,3.015,4.884,3.986,1.312.931,2.169.671,3.374-.226,2.223-1.657,3.3-4.095,4.023-7.332.65-2.909.848-8.135-2.176-9.84" transform="translate(-282.657 -59.402)"/><path class="q" d="M314.36,75.062a2.328,2.328,0,0,0-.537.074,1.952,1.952,0,0,0-.488.2,1.4,1.4,0,0,0-.41.352,1.574,1.574,0,0,0-.267.562,1.183,1.183,0,0,1,.574-1.174,1.2,1.2,0,0,1,.561-.161.983.983,0,0,1,.565.147" transform="translate(-284.817 -64.637)"/><path class="q" d="M326.124,75.434a2.35,2.35,0,0,1,.537-.078,1.94,1.94,0,0,1,.524.057,1.417,1.417,0,0,1,.492.225,1.567,1.567,0,0,1,.411.467,1.183,1.183,0,0,0-.318-.644,1.171,1.171,0,0,0-.557-.326,1.2,1.2,0,0,0-.584,0,.982.982,0,0,0-.5.3" transform="translate(-290.549 -64.717)"/><path class="j" d="M331.423,78.46c-.28-.957-1.307-.67-1.7-.138-.706.522-.643,2.153-.61,2.939.015.363-.008.813.368.942s.856-.214,1.116-.481a3.642,3.642,0,0,0,.83-3.262" transform="translate(-291.811 -65.878)"/><path class="r" d="M306.609,81.57c.279.3.784.69,1.227.562.426-.122.419-.606.451-1,.069-.844.142-2.555-.625-3.144-.422-.586-1.492-.972-1.845.044a3.8,3.8,0,0,0,.791,3.534" transform="translate(-281.85 -65.698)"/><path class="h" d="M315.485,78.389c0,.5-.211.9-.48.907s-.489-.4-.492-.9.211-.907.48-.907.489.4.492.9" transform="translate(-285.61 -65.733)"/><path class="h" d="M326.78,78.194c-.01.5-.235.9-.5.894s-.479-.414-.469-.913.235-.9.5-.894.479.414.469.913" transform="translate(-290.414 -65.645)"/><path class="p" d="M331.6,79.8c-.106-.4-.371-.6-.7-.228a.725.725,0,0,0-.164.6,1.28,1.28,0,0,1-.287,1.108c-.1.115.063.291.168.172a1.44,1.44,0,0,0,.386-.782,1.562,1.562,0,0,0,0-.394.707.707,0,0,1,.029-.468c.153-.257.287-.151.342.054a.121.121,0,0,0,.235-.057" transform="translate(-292.371 -66.538)"/><path class="s" d="M307.5,80.689a.665.665,0,0,1-.324-.439c-.037-.18.08-.349.1-.522a.944.944,0,0,0-.115-.58c-.186-.321-.541-.4-.717-.018-.066.14.141.267.207.126q.287-.126.333.095a.357.357,0,0,1,.047.172.907.907,0,0,1-.057.391.743.743,0,0,0-.033.4.9.9,0,0,0,.432.586c.138.072.265-.135.126-.207" transform="translate(-282.175 -66.323)"/><path class="l" d="M308.1,83.514c-.118-.1-.291.071-.172.172a2.548,2.548,0,0,1,.792,2.58,1.307,1.307,0,0,1-2.238.669c-.1-.121-.269.051-.172.172a1.48,1.48,0,0,0,2.406-.256,2.7,2.7,0,0,0-.616-3.338" transform="translate(-282.108 -68.283)"/><path class="p" d="M320.033,82.89a3.562,3.562,0,0,1-.449-.028.133.133,0,0,1-.115-.144.1.1,0,0,1,.1-.1h.021a3.571,3.571,0,0,0,.45.028h.035a.115.115,0,0,1,.115.115v0a.115.115,0,0,1-.105.124h-.047Zm.69-.012a.1.1,0,0,1-.1-.1v-.006a.129.129,0,0,1,.115-.14l.04,0c.4-.038.7-.066.862-.509a1.359,1.359,0,0,0-.078-.751c-.012-.04-.022-.077-.032-.112-.043-.159-.093-.318-.141-.472a7.338,7.338,0,0,1-.216-.788.114.114,0,0,1,.025-.1.141.141,0,0,1,.1-.049.1.1,0,0,1,.105.088,6.684,6.684,0,0,0,.214.754,3.132,3.132,0,0,1,.233,1.633c-.107.481-.508.51-.933.54l-.183.014Z" transform="translate(-287.718 -66.736)"/><path class="t" d="M320.405,66.328c-.165-.509-.978-.606-1.423-.726a12.5,12.5,0,0,0-2.149-.375,16.178,16.178,0,0,0-4.874.359,3.94,3.94,0,0,0-3.061,1.965,12.69,12.69,0,0,0-.67,2.28c-.178.776-.256,1.767-1.046,2.176-.139.072-.016.281.122.209.977-.506,1.028-1.819,1.264-2.763a6.881,6.881,0,0,1,.794-2.25,3.372,3.372,0,0,1,1.85-1.176,15.08,15.08,0,0,1,4.218-.609,13.65,13.65,0,0,1,2.331.17c.353.057.705.132,1.052.222.312.081,1.253.26,1.358.583.048.148.282.084.234-.064" transform="translate(-282.466 -60.496)"/><path class="i" d="M327.06,65.634a5.56,5.56,0,0,0-1.7-4.356,7.147,7.147,0,0,0-4.768-1.208,1.984,1.984,0,0,0-1.589.913c-.39.583-.11,1.465-.036,2.1a.127.127,0,0,0,.1.11.108.108,0,0,0,.112.088c2.069-.02,4.545-.244,5.869,1.672A6.154,6.154,0,0,1,326,67.875c.072.727-.107,1.681.336,2.309a.123.123,0,0,0,.169.042.159.159,0,0,0,.022-.017,2.327,2.327,0,0,0,.575-1.67c.028-.964,0-1.942-.04-2.905" transform="translate(-287.435 -58.317)"/><path class="i" d="M319.679,69.146a16.9,16.9,0,0,0-.109-1.866c-.115-1.059-.3-2.113-.5-3.161a2.213,2.213,0,0,0-1.264-1.773,6.163,6.163,0,0,0-4.734.017.093.093,0,0,0-.122-.048l-.005,0c-.032.013-.063.025-.1.036l-.051-.015c-.28-.176-.581-.313-.857-.5l-.02-.015a2.06,2.06,0,0,0-.307-1.224c-.447-.632-1.389-.548-2.065-.46-1.974.256-3.248,1.548-4.495,2.985a12.513,12.513,0,0,0-1.769,2.459,15.29,15.29,0,0,0-.994,2.862,13.536,13.536,0,0,0-.691,5.873,6.032,6.032,0,0,0,1.084,2.637,9.387,9.387,0,0,0,2.574,2.118.122.122,0,0,0,.147-.019c.946-1.038.632-2.413.747-3.688a7.594,7.594,0,0,1,.817-2.272,5.948,5.948,0,0,0,.407-2.228,9.825,9.825,0,0,1,1-4.867,5.557,5.557,0,0,1,3.575-2.712l.013-.006.064,0c.309,1.71,2.9,1.533,3.754,2.826.493.747.38,1.766.929,2.452a2.568,2.568,0,0,0,.788.59,3.644,3.644,0,0,1,1.127.87c.272.326.668.472.919.028a1.835,1.835,0,0,0,.138-.9" transform="translate(-280.071 -58.329)"/><path class="l" d="M329.693,83.8c-.118-.1-.291.07-.172.172a2.548,2.548,0,0,1,.792,2.58,1.306,1.306,0,0,1-2.238.669c-.1-.121-.269.051-.172.172a1.48,1.48,0,0,0,2.406-.256,2.7,2.7,0,0,0-.616-3.338" transform="translate(-291.294 -68.403)"/><path class="h" d="M321.954,179.125a4.428,4.428,0,0,0-2.513-2.061,8.37,8.37,0,0,0-3.72-.661c.027-.1.051-.206.079-.307a.122.122,0,0,0-.234-.067h0a26.712,26.712,0,0,0-.959,7.561q.017.906.1,1.808a6.9,6.9,0,0,0,.23,1.622c.26.727,1.026.5,1.508.151a5.214,5.214,0,0,1,1.466-.845c.522-.172,1.077-.224,1.6-.4,1-.336,1.282-1.105,1.911-1.853.31-.369.8-.517,1.092-.891a1.632,1.632,0,0,0,.287-1.034,8.612,8.612,0,0,0-.845-3.021" transform="translate(-285.649 -107.611)"/><path class="m" d="M322.744,176.045a14.818,14.818,0,0,0-.733-3.318c-.345-1.136-.695-2.273-1.1-3.39a8.672,8.672,0,0,0-1.4-2.862,1.681,1.681,0,0,0-2-.407.125.125,0,0,0-.172-.04l-.016.012c-2.373,2.081-2.312,5.916-2.505,8.8q-.1,1.495-.148,2.988a10.286,10.286,0,0,0,.03,2.5c.267,1.2,1.727,1.243,2.6.6.617-.452.394-1.289.413-1.949a11.1,11.1,0,0,1,.521-3.016,17.186,17.186,0,0,0,.187,1.724c.126.762.309,1.529,1.239,1.461a4.68,4.68,0,0,0,2.256-.85,2.413,2.413,0,0,0,.821-2.251" transform="translate(-285.653 -103.339)"/><path class="h" d="M320.307,165.157c-.007-.153-.25-.155-.242,0q.2,3.85.168,7.7a.121.121,0,1,0,.242,0q.029-3.85-.168-7.7" transform="translate(-287.972 -102.974)"/><path class="h" d="M322.469,178.652c-.309-1.563-.78-3.107-1.177-4.65a.121.121,0,0,0-.234.064h0l.926,3.6a10.585,10.585,0,0,1,.354,1.752c.042.5.152,1.547-.374,1.85a.121.121,0,0,0,.122.209c.818-.472.53-2.078.382-2.826" transform="translate(-288.392 -106.748)"/><path class="h" d="M316.423,166.491q-.219.814-.387,1.638c-.03.152.2.218.234.064q.168-.824.387-1.638a.121.121,0,0,0-.234-.064h0" transform="translate(-286.257 -103.553)"/><path class="h" d="M325.672,174.151c-.3-1.419-.182-2.915-.824-4.248-.068-.14-.278-.018-.21.122.632,1.306.508,2.8.8,4.189.3,1.425,1.1,2.721,1.254,4.172.017.153.26.155.242,0-.162-1.478-.96-2.788-1.263-4.236" transform="translate(-289.912 -105.016)"/><path class="h" d="M317.247,63.079c-.328-.345-.752,0-.959.287-.281.392-.364.833-.818,1.1a2.859,2.859,0,0,0-.726.575,2.077,2.077,0,0,0-.544,1.55,5.46,5.46,0,0,1,3.155-2.082l.013-.005h.037c.057-.494.125-1.123-.16-1.422" transform="translate(-285.476 -59.542)"/><path class="h" d="M320.647,61.44a1.651,1.651,0,0,0-1.531-.485c-.153.029-.087.263.064.234a1.4,1.4,0,0,1,1.3.424c.107.115.279-.057.172-.172" transform="translate(-287.531 -58.686)"/><path class="h" d="M337,88.643h0l-.076-.027c-.051-.018-.1-.037-.157-.055a3.843,3.843,0,0,0,.248-1.593,6.034,6.034,0,0,0-.252-1.238,6.379,6.379,0,0,1-.247-1.172,2.789,2.789,0,0,1,.359-1.472,6.037,6.037,0,0,0,.291-.716,2.363,2.363,0,0,0-.691-2.429.105.105,0,0,1-.032-.12.136.136,0,0,1,.122-.085.114.114,0,0,1,.08.033,2.616,2.616,0,0,1,.866,1.88,3.169,3.169,0,0,1-.384,1.375,3.21,3.21,0,0,0-.382,1.331,5.6,5.6,0,0,0,.257,1.437,5.228,5.228,0,0,1,.257,1.565A4.127,4.127,0,0,1,337,88.644Zm-1.048-.276h0c-.076-.011-.156-.026-.237-.037a7.448,7.448,0,0,0-.018-2.567.1.1,0,0,1,.021-.081.118.118,0,0,1,.085-.034.133.133,0,0,1,.136.115,7.688,7.688,0,0,1,.013,2.6Z" transform="translate(-294.621 -66.689)"/><path class="h" d="M312.3,64.13a4.971,4.971,0,0,0-1.3,2.3.121.121,0,1,0,.234.064,4.711,4.711,0,0,1,1.238-2.2.122.122,0,0,0-.172-.172" transform="translate(-284.115 -60.035)"/><path class="h" d="M331.949,74.08a4.947,4.947,0,0,1-1.486-1.543c-.083-.133-.293-.011-.211.122a5.244,5.244,0,0,0,1.575,1.63c.13.086.252-.124.122-.21" transform="translate(-292.297 -63.602)"/><path class="h" d="M304.289,91.078h0l-.121-.011-.121-.011a3.368,3.368,0,0,1,.024-.618,3.081,3.081,0,0,1,.394-1.029,3.929,3.929,0,0,0,.345-.787,3.177,3.177,0,0,0-.039-1.42,4.748,4.748,0,0,1-.107-.962,3.719,3.719,0,0,1,.552-1.672.107.107,0,0,1,.1-.057.138.138,0,0,1,.115.066.114.114,0,0,1,0,.115,3.385,3.385,0,0,0-.442,2.365c.011.07.023.14.035.21a3.614,3.614,0,0,1,.068,1.215,2.936,2.936,0,0,1-.372.907,3.737,3.737,0,0,0-.329.706,2.858,2.858,0,0,0-.1.981Zm-1.224-.093h0c-.082,0-.166,0-.247,0a4.589,4.589,0,0,1-.074-1.387,3.836,3.836,0,0,1,.406-1.185,3.959,3.959,0,0,0,.395-1.118.1.1,0,0,1,.1-.088.148.148,0,0,1,.106.049.127.127,0,0,1,.03.1,3.775,3.775,0,0,1-.388,1.087A3.883,3.883,0,0,0,303,89.51a4.249,4.249,0,0,0,.061,1.474Z" transform="translate(-280.595 -68.72)"/><path class="p" d="M324.315,106.989c-1.1.179-2.261.047-3.168.8-.12.1.052.271.172.172.856-.712,2.028-.569,3.062-.736.152-.025.086-.259-.067-.236" transform="translate(-288.415 -78.28)"/><path class="p" d="M313.931,107.758c-.919-.609-2.042-.555-3.058-.893-.148-.05-.212.184-.064.234.995.334,2.1.273,3,.869.13.086.252-.124.122-.209" transform="translate(-283.999 -78.225)"/><path class="p" d="M321.4,89.953a1.908,1.908,0,0,1-1.308.04.121.121,0,0,0-.071.23,2.117,2.117,0,0,0,1.437-.037c.144-.057.087-.292-.057-.236" transform="translate(-287.924 -71.03)"/><path class="p" d="M321.777,88.034a7.341,7.341,0,0,1-1.954.318,8.87,8.87,0,0,0-1.311-.216c-.153.006-.155.249,0,.243.571-.023,1.045.279,1.609.218s1.149-.215,1.72-.326c.153-.03.089-.264-.064-.237" transform="translate(-287.262 -70.218)"/><g transform="translate(6.989 48.127)"><path class="u" d="M282.426,146.238s13.322.158,16.123.383c.436.035,2-1.215,2.668-1.57a6.918,6.918,0,0,1,3.181-.44c.837.144,2.287,2.194,2.287,2.628a1.336,1.336,0,0,1-.622,1.072c-.053.025.2.488.128.625s-.305.627-.652.675c-.168.023-.009.582-.513.771-.4.151-.246.355-.724.573a15.053,15.053,0,0,0-1.442.869,6.159,6.159,0,0,1-.981.217,3.793,3.793,0,0,1-1.015-.329.354.354,0,0,1,.193-.614c.464-.133,1.139-.152,1.251-.309s-.193-.595-.193-.595a8.178,8.178,0,0,1-1.983.358c-.611-.068-1.481-.429-1.845-.439-.756-.021-19.826,2.8-21.39.124-1.473-2.52.673-9.455.673-9.455a7.426,7.426,0,0,1,2.89,1.569,18.673,18.673,0,0,0,2.739,1.171C283.039,144.148,282.426,146.238,282.426,146.238Z" transform="translate(-276.379 -140.782)"/><path class="v" d="M326.022,150.78a6.886,6.886,0,0,1,1.157,1.784" transform="translate(-297.495 -145.035)"/><path class="v" d="M324.77,152.244a13.089,13.089,0,0,1,1.352,2.243" transform="translate(-296.963 -145.657)"/><path class="v" d="M323.138,153.926a9.284,9.284,0,0,1,1.529,2.161" transform="translate(-296.269 -146.373)"/></g><g transform="translate(46.499 48.038)"><path class="j" d="M352.85,208.421c.5.085,1.765-.093,1.77-.048l.226-.281c.1-.121.222-.293.347-.467a19.142,19.142,0,0,0,.251-2.347,2.057,2.057,0,0,1,.29-1.088c.157-.492.9-1.213.894-1.683,0-.255-.045-.827-.092-1.413l.293.137a3.12,3.12,0,0,0,1.642.07l.106-.04c.047,1.281.1,3.191.139,3.579.038.445.108,2.3.068,2.744a1.657,1.657,0,0,1-.4.808c-.3.431-.618.853-.943,1.267-.649.83-1.335,1.631-2.018,2.432a.106.106,0,0,1-.15.01.108.108,0,0,1-.03-.044.082.082,0,0,1-.02-.006,11.213,11.213,0,0,1-2.43-3.138,1.315,1.315,0,0,1-.065-.486c.04,0,.08,0,.122-.005" transform="translate(-348.365 -166.347)"/><path class="j" d="M345.135,142.3c1.61-.4,2.181-.547,3.762-.945l1.742-.433a5.964,5.964,0,0,0,.938-.3c.19,5.434.155,10.8.552,13.283.6,3.747,1.5,5.222,2.055,9.342.506,3.786.537,7.936,1.18,12.293.05.333-.687,1.639-.879,1.477l.065.208c.141.447-.568.608-.707.165-1.331-4.228-2.974-8.735-4.7-12.819-2.053-4.866-2.4-4.523-2.848-8.749-.26-2.439-.787-8.357-1.163-13.525" transform="translate(-345.135 -140.627)"/><path class="p" d="M351.84,165.569c.077-.135.282,0,.2.131a5.244,5.244,0,0,0-.688,2.851c.007.156-.236.145-.241-.01a5.479,5.479,0,0,1,.725-2.972" transform="translate(-347.676 -151.212)"/><path class="s" d="M355.436,212.678c.068-.14.271-.007.2.13a1.4,1.4,0,0,0-.19.7c.067.271.154.122.317.051a3.251,3.251,0,0,0,.8-.639,3.6,3.6,0,0,0,.817-1.945c.03-.152.261-.076.232.074a4.808,4.808,0,0,1-.515,1.584,4.485,4.485,0,0,1-1.415,1.293c-.726.465-.407-.926-.249-1.248" transform="translate(-349.429 -170.514)"/><path class="s" d="M355.861,217.052a4.71,4.71,0,0,0,1.4-1.695.121.121,0,0,1,.2.132,4.923,4.923,0,0,1-1.491,1.777c-.136.078-.248-.137-.113-.214" transform="translate(-349.671 -172.39)"/><path class="l" d="M361.189,202.947a4.055,4.055,0,0,0-.433-.633,1.3,1.3,0,0,1-.935.349H359.8a1.471,1.471,0,0,1-1-.445,4.52,4.52,0,0,0-.334.446.113.113,0,0,1-.1.053.137.137,0,0,1-.112-.071.111.111,0,0,1,.007-.114,4.7,4.7,0,0,1,.378-.5,2.478,2.478,0,0,1-.463-1.158.136.136,0,0,1-.07-.152.1.1,0,0,1,.1-.076h.014a4.41,4.41,0,0,1,1.466.485,2.5,2.5,0,0,1,1.352-.352c.061,0,.125.007.182.015a.115.115,0,0,1,.056.022h.01a.121.121,0,0,1,.086.038.106.106,0,0,1,.024.082,2.292,2.292,0,0,1-.474,1.2,4.422,4.422,0,0,1,.479.691.108.108,0,0,1,0,.115.137.137,0,0,1-.118.062A.116.116,0,0,1,361.189,202.947Zm-2.231-.913a1.324,1.324,0,0,0,.594.35,1.221,1.221,0,0,0,.261.041,1.076,1.076,0,0,0,.778-.294,4.088,4.088,0,0,0-.9-.716A3.8,3.8,0,0,0,358.958,202.034Zm.98-.757a4.269,4.269,0,0,1,.821.672,1.988,1.988,0,0,0,.384-.922l-.095,0A2.245,2.245,0,0,0,359.938,201.277Zm-1.141.569a4.077,4.077,0,0,1,.657-.565,4.1,4.1,0,0,0-1.021-.352A2.224,2.224,0,0,0,358.8,201.846Z" transform="translate(-350.651 -166.156)"/></g><g transform="translate(26.881 53.147)"><path class="n" d="M312.5,154.409a3.42,3.42,0,0,1,.322-3.774l-1.1-.022a4.135,4.135,0,0,0-.161,3.9Z" transform="translate(-311.064 -149.984)"/><ellipse class="n" cx="0.803" cy="1.102" rx="0.803" ry="1.102" transform="matrix(0.072, -0.997, 0.997, 0.072, 0, 1.602)"/><line class="w" x2="0.602" y2="0.065" transform="translate(1.044 0.917)"/><line class="w" x1="0.338" y2="0.277" transform="translate(1.044 0.64)"/></g><ellipse class="x" cx="0.222" cy="0.387" rx="0.222" ry="0.387" transform="translate(29.098 12.66)"/><ellipse class="x" cx="0.222" cy="0.387" rx="0.222" ry="0.387" transform="translate(35.575 12.54)"/></g></g></g></g></g></g></svg>