<svg xmlns="http://www.w3.org/2000/svg" width="36" height="36" viewBox="0 0 36 36"><defs><style>.a{fill:#f1f2ff;}.b{fill:none;}.c{fill:#38539a;}</style></defs><g transform="translate(-356 -309)"><circle class="a" cx="18" cy="18" r="18" transform="translate(356 309)"/><g transform="translate(363 316.444)"><rect class="b" width="22" height="22" transform="translate(0 -0.444)"/><path class="c" d="M1.25,16H0A8.014,8.014,0,0,1,5.383,8.436a4.625,4.625,0,1,1,5.234,0A8.014,8.014,0,0,1,16,16H14.75a6.75,6.75,0,1,0-13.5,0ZM8,1.25a3.375,3.375,0,1,0,3.375,3.375A3.379,3.379,0,0,0,8,1.25Z" transform="translate(3 3.556)"/></g></g></svg>