<svg xmlns="http://www.w3.org/2000/svg" xmlns:xlink="http://www.w3.org/1999/xlink" width="96.855" height="100.9" viewBox="0 0 96.855 100.9"><defs><style>.a,.s,.t{fill:none;}.b{fill:#fbe6cc;}.c{clip-path:url(#a);}.d{clip-path:url(#b);}.e{fill:#1f2033;}.f{fill:#ab614f;}.g,.r{fill:#f8a58a;}.h{fill:#fafbfb;}.i{fill:#f6ddc7;}.j{fill:#38539a;}.k{fill:#3a3a3a;}.l{fill:#e3a780;}.m{fill:#f1805b;}.n{fill:#2c2c2c;}.o{fill:#f58c77;}.p{fill:#c86959;}.q{fill:#414f39;}.r{stroke:#f8a58a;}.r,.s,.t{stroke-miterlimit:10;stroke-width:0.25px;}.s{stroke:#c86959;}.s,.t{stroke-linecap:round;}.t{stroke:#fff;}.u{fill:#fff;}</style><clipPath id="a"><path class="a" d="M240.22,50.031h83.069l-9.5,100.086-61.118-13.468Z" transform="translate(-240.22 -50.031)"/></clipPath><clipPath id="b"><rect class="a" width="10.307" height="4.733"/></clipPath></defs><g transform="translate(-236.202 -50.031)"><rect class="b" width="81.227" height="81.227" rx="19.244" transform="translate(253.747 54.075) rotate(12.474)"/><g transform="translate(238.504 50.031)"><path class="a" d="M240.22,50.031h83.069l-8.593,85.36-61.3,6.3Z" transform="translate(-240.22 -50.031)"/><g transform="translate(0 0)"><g class="c"><g transform="translate(13.747 4.01)"><g transform="translate(3.326 166.382)"><path class="a" d="M270.022,347.458h10.307v4.733H270.022Z" transform="translate(-270.022 -347.458)"/><g transform="translate(0 0)"><g class="d"><g transform="translate(0.001 0)"><path class="e" d="M280.269,348a6.782,6.782,0,0,0-3.409-.542,17.682,17.682,0,0,0-3.869.418.127.127,0,0,0-.165-.071l-.007,0c-1.617.753-2.257,2.45-2.792,4.033a.122.122,0,0,0,.084.15,15.838,15.838,0,0,0,6.1-.235c.871-.183,1.249-.842,1.811-1.471a16.574,16.574,0,0,1,2.268-2.1.121.121,0,0,0,0-.172.111.111,0,0,0-.022-.018" transform="translate(-270.023 -347.458)"/></g></g></g></g><path class="f" d="M324.667,66.833c-.2-.429-.141-1.992-.445-3.327a11.687,11.687,0,0,0-1.28-3.037,5.686,5.686,0,0,0-1.286-1.679,4.545,4.545,0,0,0-2.141-.809,5.093,5.093,0,0,1-1.671-.594c-2.371-1.033-4.767.371-6.62,1.812a.12.12,0,0,0-.13.08c0,.01-.006.019-.009.028l-.115.089c-.08.064-.033.157.042.188a3.616,3.616,0,0,0,.471,2.021q.63,1.44,1.268,2.879a40.614,40.614,0,0,1,2.377,6.026c.431,1.657.781,3.433,1.948,4.759a5.685,5.685,0,0,0,2.1,1.366,9.156,9.156,0,0,1,2.045,1.514,2.435,2.435,0,0,0,2.114.469,6.443,6.443,0,0,1,3.724.569.123.123,0,0,0,.166-.044,3.925,3.925,0,0,0-.013-2.6,4.961,4.961,0,0,1-.19-1.689c.078-.653.506-1.182.618-1.824a5.123,5.123,0,0,0-.967-3.036c-.6-1.092-1.471-2.033-2.005-3.157" transform="translate(-284.168 -57.031)"/><path class="e" d="M329.846,85.079a1.592,1.592,0,0,0-.035-.985,2.4,2.4,0,0,1,.057-1.916,3.8,3.8,0,0,0,.442-1.036,3.075,3.075,0,0,0-.248-1.53.122.122,0,0,0-.238.032,5.823,5.823,0,0,0-1.868,1.927c-.618.88-1.172,1.815-1.745,2.727a4.015,4.015,0,0,0-.789,1.974,9.668,9.668,0,0,1,1.977,1.48,2.336,2.336,0,0,0,.58.352c.037-.245.045-.495.062-.63a2.137,2.137,0,0,1,.991-1.67c.273-.2.672-.4.816-.725" transform="translate(-290.358 -66.639)"/><path class="e" d="M332.762,346.552q-1.985.354-3.948.818c-.635.151-1.27.305-1.9.481a2.26,2.26,0,0,0-1.084.555.125.125,0,0,0-.169.048.123.123,0,0,0,0,.117c.706,1.373,2.392,2.826,4.064,2.49a2.973,2.973,0,0,0,1.752-1.414,11.876,11.876,0,0,0,1.436-2.943c.031-.1-.065-.163-.149-.149" transform="translate(-290.454 -180.689)"/><path class="g" d="M321.269,106.816a1.456,1.456,0,0,0-.21-2.049c-.025-.02-.05-.04-.076-.058a2.344,2.344,0,0,0,.367-.565c.286-.663.157-.443-.347-.674l-3.5-1.481c-.815-.371-2.219-1.042-2.507-1.976,0-.022-.007-.042-.009-.064V99.94a2.016,2.016,0,0,0,0-.44.31.31,0,0,0-.037-.073.1.1,0,0,0-.094-.1h-.017c-.266-.144-.768-.01-1.027,0q-2.12.058-4.235.234a12.863,12.863,0,0,0-1.311.088.115.115,0,0,0-.193-.045l-.005.005a.111.111,0,0,0-.133.022,9.235,9.235,0,0,1-2,1.742c-.85.486-3.99,1.578-4.431,1.793-.229.112-.248.3-.253.542a2.411,2.411,0,0,0,.344.851c.01.021.022.04.033.061a3.036,3.036,0,0,0-.485,2.463c.384,1.639,1.705,3.137,2.686,4.463A60.6,60.6,0,0,1,309.4,119.7a1.267,1.267,0,0,0,.765,1.451,1.379,1.379,0,0,0,2.212-1.318l1.079-1.714a1.316,1.316,0,0,0,.2-.546,14.41,14.41,0,0,0,2.222-4.514l5.393-6.24" transform="translate(-279.951 -75.069)"/><path class="h" d="M322.223,124.217c-.179-.673-.348-1.348-.5-2.027q-.441-1.922-.748-3.873c-.209-1.33-.293-2.683-.53-4.01a7.749,7.749,0,0,0-1.308-3.05,16.156,16.156,0,0,0-2.257-2.7c-1.688-1.556-4.007-1.944-6.212-2.211-.166.306-.34.6-.512.889-.855,1.421-1.865,2.737-2.824,4.089-1.2,1.685-2.27,3.453-3.48,5.131a53.285,53.285,0,0,1-4.36,5.353.122.122,0,0,1-.172,0c-2.223-2.181-3.306-5.248-5.064-7.773-1.689-2.428-3.306-5.111-3.495-8.11-1.152.466-2.292.961-3.408,1.511a32.593,32.593,0,0,0-3.511,1.991,9.355,9.355,0,0,0-2.635,2.357,15.845,15.845,0,0,0-1.63,3.413l-1.649,4.236-1.648,4.236c-.147.373-.594,1.046-.418,1.447.132.3.652.477.934.591a12.837,12.837,0,0,1,2.03.85c.6.368,1.161.8,1.784,1.129a10.372,10.372,0,0,0,3.642,1.135,26.509,26.509,0,0,1,0,4.749,8.188,8.188,0,0,0,.913,4.5c.526,1.027,1.1,2.48,2.424,2.567a15.215,15.215,0,0,0,2.457-.223q1.422-.144,2.846-.261,5.46-.446,10.942-.478c1.644-.01,3.291.073,4.933.038a4.421,4.421,0,0,0,3.266-1.1,4.494,4.494,0,0,0,.92-1.948c.257-.964.482-1.938.722-2.907.462-1.868,1.024-4.257,1.5-6.191.168-.046.329-.094.474-.13q2-.5,3.992-1c.634-.16,1.275-.3,1.9-.484a1.065,1.065,0,0,0,.786-.568,1.925,1.925,0,0,0-.106-1.176" transform="translate(-269.172 -77.916)"/><path class="e" d="M328.707,158.744a9.2,9.2,0,0,0-1.115-.835,2.043,2.043,0,0,0-.516-.115,1.9,1.9,0,0,1-.795-.4,1.906,1.906,0,0,0-1.227-.368,15.176,15.176,0,0,0-3.1.9,9.859,9.859,0,0,1-2.15.348c-.691.027-1.381-.023-2.069.068a13.263,13.263,0,0,0-3.447,1.109.1.1,0,0,0-.076.033l-.066.028c-.143.061-.02.27.122.209l.041-.017a18.481,18.481,0,0,0,3.459.428c1.231.163,2.439.458,3.666.648a21.6,21.6,0,0,0,3.659.235c.63-.009,1.26-.038,1.891-.077.264-.016.545-.016.824-.028a2.8,2.8,0,0,0,.577-.473,3.61,3.61,0,0,0,.728-1.306,1.525,1.525,0,0,0-.406-.384" transform="translate(-285.515 -99.739)"/><path class="i" d="M315.034,212.91c-.294-4.387-1.028-8.737-1.215-13.132-.181-4.261.462-8.432.857-12.661.427-4.572.234-8.957-1.641-13.209-1.934-4.39-4.305-8.623-6.491-12.894a.252.252,0,0,0-.129-.453,82.284,82.284,0,0,0-24.1,1.8.206.206,0,0,0-.172.225.2.2,0,0,0-.031.137c.524,4.143.937,8.254-.034,12.368-.833,3.526-2.315,6.85-3.323,10.322a31.25,31.25,0,0,0-.882,11.111,41.371,41.371,0,0,1,.123,5.916,22.641,22.641,0,0,1-1.318,5.769c-1.154,3.289-2.742,6.464-3.343,9.923-.657,3.781.716,7.357.526,11.119-.325,6.445-5.65,11.24-6.863,17.445-.819,4.188.926,8.442-.154,12.6-.893,3.437-3.245,6.612-2.473,10.307a.242.242,0,0,0,.233.178A138.331,138.331,0,0,1,281.961,269a.246.246,0,0,0,.242-.242,35.167,35.167,0,0,1,1.061-8.5c.678-2.3,1.819-4.422,2.527-6.707,1.536-4.961-.269-10.27,1.692-15.144.893-2.218,2.225-4.226,3.147-6.431a20.627,20.627,0,0,0,1.343-6.67,33.533,33.533,0,0,1,1.211-8.116c.408-1.275.9-2.521,1.375-3.771a23.48,23.48,0,0,1,.785,5.1,59.35,59.35,0,0,1-.608,7.177c-.477,4.766.224,9.532-.009,14.3a27.915,27.915,0,0,1-1.375,7.161A17.283,17.283,0,0,0,292.2,253.3c.142,2.6,1.146,5.056,1.456,7.631a22.785,22.785,0,0,1-.583,8.416.243.243,0,0,0,.233.306,117.757,117.757,0,0,0,13.553-.789c1.156-.136,3.474,0,4.226-1.107.838-1.233.274-3.52.131-4.879a19.612,19.612,0,0,1,.352-6.689c.466-2.008,1.1-3.979,1.387-6.026.567-4.077-.516-8.107-.738-12.165-.24-4.389.929-8.618,1.865-12.863a42.75,42.75,0,0,0,.951-12.225" transform="translate(-264.216 -101.157)"/><path class="j" d="M285.142,174.484a40.657,40.657,0,0,1-1.3,6.167c-.584,2-1.284,3.967-1.724,6.006-.865,4.01-.133,7.982.185,12.007a23.246,23.246,0,0,1-.211,6.087A32.566,32.566,0,0,1,280.565,210c-1.269,3.46-2.843,6.862-3.421,10.53-.624,3.953.286,7.9.158,11.866s-1.844,7.338-3.532,10.822a31.862,31.862,0,0,0-2.005,4.891,31.2,31.2,0,0,0-.97,5.821,46.908,46.908,0,0,1-.859,6.336,46.021,46.021,0,0,1-1.722,5.368c-.61,1.649-1.26,3.323-1.765,5.028q3.151-.321,6.316-.5c.007-.042.015-.085.021-.128a51.655,51.655,0,0,0,.512-6.272c.081-2.2.13-4.411.4-6.6a30.644,30.644,0,0,1,1.409-6.053c1.253-3.729,3-7.276,4.125-11.051a25.985,25.985,0,0,0,1.062-5.679c.149-2.186.038-4.377-.02-6.564a34,34,0,0,1,.315-6.726,31.474,31.474,0,0,1,1.728-5.817c.727-1.9,1.524-3.776,2.163-5.709a31.823,31.823,0,0,0,1.506-12.632,43.593,43.593,0,0,1-.357-6.641,42.564,42.564,0,0,1,1.339-6.416,37.727,37.727,0,0,0,.879-6.29,75.252,75.252,0,0,0-.624-13.051c-.074-.646-.155-1.29-.234-1.935q-1,.177-1.995.375a40.732,40.732,0,0,1,.152,11.5" transform="translate(-265.169 -102.123)"/><path class="k" d="M295.14,161.761a69.69,69.69,0,0,0,.573,10.765,37.688,37.688,0,0,1,.128,5.958,26.852,26.852,0,0,1-1.331,6.112,20.231,20.231,0,0,0-1.181,5.774,33.909,33.909,0,0,0,.7,5.907,24.385,24.385,0,0,1,.319,6.015,32.794,32.794,0,0,1-1.031,5.626c-.953,3.614-2.285,7.115-3.213,10.737a33.184,33.184,0,0,0-.959,5.34,57.9,57.9,0,0,0,.025,6.2,19.969,19.969,0,0,1-.78,6.217c-.554,1.849-1.318,3.625-2.014,5.423a30.029,30.029,0,0,0-1.661,5.77c-.339,1.983-.493,3.99-.705,5.988a40.505,40.505,0,0,1-1.059,6.064c-.5,1.916-1.135,3.795-1.744,5.68-.458,1.416-.911,2.853-1.285,4.308,1.209-.057,2.42-.091,3.631-.115.828-3.257.687-6.678.839-10.015a30.131,30.131,0,0,1,.859-6.333,41.413,41.413,0,0,1,1.961-5.507c1.495-3.552,3.18-7.047,3.924-10.856.793-4.055.691-8.208.982-12.313a38.8,38.8,0,0,1,.921-6.275c.469-1.968,1.081-3.9,1.692-5.825,1.175-3.71,2.365-7.478,2.5-11.4.147-4.285-.763-8.525-.359-12.813.393-4.179,1.57-8.274,1.551-12.493-.019-4.125-1.39-8.081-1.626-12.181a17.984,17.984,0,0,1,0-1.988q-.834.111-1.656.234" transform="translate(-270.924 -101.662)"/><path class="l" d="M305.528,197.117c-.264-3.97-.922-7.972-.425-11.95.286-2.3,1.169-4.438,1.6-6.7a12.372,12.372,0,0,0-.337-5.764,37.855,37.855,0,0,1-1.661-6.962,19.959,19.959,0,0,1,.194-4.808c-.247.022-.494.045-.741.069a20.876,20.876,0,0,0,.556,8.747c.581,2.053,1.432,4.085,1.49,6.244a21.127,21.127,0,0,1-1.213,6.09c-2.125,7.829,1.244,15.884-.8,23.713-.979,3.754-2.784,7.225-3.892,10.938-1.163,3.9-.893,7.81-1.187,11.811-.3,4.1-1.9,7.833-3.3,11.646a36.677,36.677,0,0,0-2.194,11.506,71.76,71.76,0,0,1-.556,7.354c-.318,2.229-.745,4.441-1.1,6.665-.184,1.172-.344,2.349-.458,3.528.229,0,.455.005.683.007.458-4.943,1.794-9.916,2.042-14.809.216-4.267.335-8.358,1.709-12.45,1.218-3.626,2.9-7.124,3.583-10.912.725-4.007.115-8.127.952-12.119.785-3.733,2.517-7.166,3.74-10.758a27.891,27.891,0,0,0,1.3-11.088" transform="translate(-275.875 -101.409)"/><path class="j" d="M318.67,170.523a48.632,48.632,0,0,1,.893,5.931,20.983,20.983,0,0,1-.489,6.081,48.7,48.7,0,0,0-1.108,5.945,29.406,29.406,0,0,0,.069,6.225c.241,2.049.615,4.068.655,6.138a38.751,38.751,0,0,1-.482,6.489c-.316,2.106-.714,4.2-1.166,6.288l.089-.229a25.254,25.254,0,0,1,.758,4.461,16.944,16.944,0,0,0,1.47-5,38.038,38.038,0,0,1,1.461-6.082,18.681,18.681,0,0,0,.862-3.109,12.354,12.354,0,0,0,.046-3.136,51.3,51.3,0,0,1-.6-6.905,24.31,24.31,0,0,1,1.249-6.577,17.851,17.851,0,0,0,1.243-6.2,28.931,28.931,0,0,0-1.388-6.316,57.506,57.506,0,0,1-1.553-14.188q-1.544.047-3.09.154a37.831,37.831,0,0,0,1.08,10.028" transform="translate(-286.779 -101.156)"/><path class="l" d="M327.086,188.018a59.115,59.115,0,0,0,.516-5.939c.013-3.473-1.153-6.749-2.309-9.976-1.122-3.137-2.351-6.432-2.124-9.824a10.945,10.945,0,0,1,.309-1.93c-.751-.021-1.5-.034-2.257-.034-1.078,6.75,3.123,13.107,3.314,19.811.115,4.01-.881,7.959-.831,11.968.025,2.023.4,4.013.6,6.022a18.965,18.965,0,0,1-.235,5.587c-.687,3.489-2.186,6.743-3.409,10.062a34.492,34.492,0,0,0-1.518,5.1,37.124,37.124,0,0,0-.573,5.429,53.771,53.771,0,0,1-.474,5.827,18.849,18.849,0,0,1-1.771,5.41c-.244.492-.493.98-.739,1.47.014.995.007,1.988-.041,2.984a27.92,27.92,0,0,1-1.375,7.161,17.281,17.281,0,0,0-1.152,6.138c.128,2.382.981,4.647,1.359,7a76.123,76.123,0,0,1,2.987-9.823,72.518,72.518,0,0,0,3.689-11.171c.784-3.863.953-7.791,1.448-11.687a40.662,40.662,0,0,1,1.184-6.046c.508-1.779,1.155-3.516,1.8-5.248,1.275-3.4,2.592-6.864,2.84-10.525.271-4-.829-7.9-1.26-11.841a27.738,27.738,0,0,1,.02-5.927" transform="translate(-285.053 -101.145)"/><path class="j" d="M331.986,191.142c.142-1.984.452-3.953.537-5.941.186-4.365-1.291-8.364-2.79-12.389-1.461-3.922-2.846-8.11-2.094-12.289-.244-.014-.489-.023-.734-.036-1.245,7.067,3.315,13.543,4.6,20.343.782,4.156-.352,8.212-.317,12.374.035,4.037,1.287,7.926,1.642,11.929.671,7.562-2.336,14.718-4.463,21.813a54.946,54.946,0,0,0-2.145,10.631c-.389,4.091-.651,8.135-2.173,12-1.6,4.06-3.6,7.841-4.751,12.081a81.509,81.509,0,0,0-1.686,8.051c.245,0,.49-.009.736-.014.355-2.127.756-4.246,1.266-6.342a62.406,62.406,0,0,1,4.061-11.076,33.633,33.633,0,0,0,2.905-10.643,77.442,77.442,0,0,1,1.739-11.846c1.833-6.989,4.932-13.755,5.3-21.057.192-3.781-.669-7.407-1.275-11.114a27.582,27.582,0,0,1-.356-6.476" transform="translate(-287.02 -101.218)"/><path class="k" d="M341.878,210.286c-.436-3.284-.952-6.56-1.186-9.867a54.293,54.293,0,0,1,.627-11.073c.558-4.257-.37-8.135-1.356-12.253l-1.146-4.794c-1.379-2.828-2.878-5.609-4.328-8.4a39.1,39.1,0,0,0,1.937,9.044c1.247,3.616,2.906,6.843,2.568,10.786-.159,1.854-.563,3.678-.752,5.528a37.964,37.964,0,0,0-.095,5.931c.209,3.829.824,7.619,1.193,11.434a43.2,43.2,0,0,1-.277,11.669c-.612,3.5-1.611,6.924-2.463,10.374a53.593,53.593,0,0,0-1.636,10.632,36.836,36.836,0,0,1-2.005,11.289c-2.332,6.451-6.1,13.3-4.722,20.28q1.75-.114,3.495-.283c1.366-5.667,4.331-10.851,5.941-16.461a39.167,39.167,0,0,0,1.2-10.639,47.369,47.369,0,0,1,.853-9.276c.376-2.552,1.013-5.072,1.57-7.6a42.714,42.714,0,0,0,.954-12.223c-.092-1.371-.229-2.738-.376-4.1" transform="translate(-291.433 -102.677)"/><path class="i" d="M321.808,166.468a9.983,9.983,0,0,0-.586-1.318,3.808,3.808,0,0,0-.726-1.1,1.236,1.236,0,0,0-.932-.172c-.634.03-1.267.067-1.9.1q-3.8.219-7.59.555-7.479.663-14.906,1.782a.1.1,0,0,0-.089.108.1.1,0,0,0,.006.026.131.131,0,0,0-.174.064.136.136,0,0,0-.011.04q-.162,1.593-.172,3.193a.122.122,0,0,0,.121.121,30.268,30.268,0,0,0,6.683-.911q3.481-.66,7-1.124,3.411-.449,6.844-.71,1.776-.135,3.552-.219a7.722,7.722,0,0,0,2.829-.3.12.12,0,0,0,.057-.136" transform="translate(-277.249 -102.654)"/><path class="e" d="M300.131,292.272a15.792,15.792,0,0,0-1.958,1.9c-.984,1.166-1.492,2.6-2.383,3.822-1.5,2.057-3.894,3.462-4.7,5.987-.043.134.15.207.221.093a9.858,9.858,0,0,1,1.319-1.8,5.08,5.08,0,0,1,2.108-1.123c1.268-.449,1.689-1.48,2.4-2.524A6.03,6.03,0,0,1,298.2,297.5a12.72,12.72,0,0,1,.745-2.728c.344-.856.755-1.681,1.182-2.5" transform="translate(-275.691 -157.505)"/><path class="e" d="M317.517,245.019c1.8-1.417,2.016-3.885,3.015-5.818.691-1.337,1.614-2.536,2.285-3.889a22.817,22.817,0,0,0,1.571-4.165.121.121,0,0,0-.221-.093c-2.821,3.88-5.689,7.89-6.969,12.57q.172.7.318,1.4" transform="translate(-286.845 -131.333)"/><path class="e" d="M278.635,321.437a9.036,9.036,0,0,1-2.079,2.521c-.732.614-1.512,1.151-2.184,1.833a11.891,11.891,0,0,0-2.745,4.469c-.051.147.183.211.233.064a11.594,11.594,0,0,1,3.1-4.762c.713-.654,1.535-1.177,2.234-1.848a9.27,9.27,0,0,0,1.649-2.153.121.121,0,1,0-.209-.124h0" transform="translate(-267.378 -169.937)"/><path class="e" d="M344.17,282.923q-2.175,3.048-4.254,6.163c-.086.129.123.251.209.122q2.079-3.114,4.254-6.163c.091-.127-.119-.247-.209-.122" transform="translate(-296.54 -153.489)"/><path class="k" d="M294.188,152.532a.6.6,0,1,0,.578.578.605.605,0,0,0-.578-.578" transform="translate(-276.77 -97.821)"/><path class="k" d="M325.42,156.225a.6.6,0,1,0,.578.578.605.605,0,0,0-.578-.578" transform="translate(-290.11 -99.398)"/><g transform="translate(10.552 29.505)"><path class="e" d="M292.148,130.335a16.636,16.636,0,0,0-1.661,8.74c.013.154.255.155.242,0a16.4,16.4,0,0,1,1.629-8.618c.069-.139-.14-.262-.21-.122" transform="translate(-285.964 -117.819)"/><path class="e" d="M343.938,133.316c-.021-.154-.254-.088-.235.064a53.2,53.2,0,0,1,.47,5.448c.006.155.248.156.242,0a53.807,53.807,0,0,0-.477-5.512" transform="translate(-308.717 -119.081)"/><path class="k" d="M311.492,138.077a.6.6,0,1,0,.578.578.605.605,0,0,0-.578-.578" transform="translate(-294.713 -121.152)"/><path class="k" d="M284.058,133.751a.6.6,0,1,0,.578.578.605.605,0,0,0-.578-.578" transform="translate(-282.996 -119.304)"/><path class="k" d="M297.986,135.967a.6.6,0,1,0,.578.578.605.605,0,0,0-.578-.578" transform="translate(-288.944 -120.25)"/><path class="k" d="M327.108,139.87a.6.6,0,1,0,.578.578.605.605,0,0,0-.578-.578" transform="translate(-301.383 -121.917)"/><path class="k" d="M340.4,141.981a.6.6,0,1,0,.578.578.605.605,0,0,0-.578-.578" transform="translate(-307.061 -122.819)"/><path class="k" d="M321.2,130.691a.6.6,0,1,0,.578.578.605.605,0,0,0-.578-.578" transform="translate(-298.859 -117.997)"/><path class="k" d="M334.7,132.59a.6.6,0,1,0,.578.578.605.605,0,0,0-.578-.578" transform="translate(-304.627 -118.808)"/><path class="k" d="M348.843,134.384a.6.6,0,1,0,.578.578.605.605,0,0,0-.578-.578" transform="translate(-310.666 -119.574)"/><path class="k" d="M307.377,128.158a.6.6,0,1,0,.578.578.605.605,0,0,0-.578-.578" transform="translate(-292.955 -116.915)"/><path class="k" d="M294.293,125.521a.6.6,0,1,0,.578.578.605.605,0,0,0-.578-.578" transform="translate(-287.367 -115.789)"/><path class="k" d="M283.214,121.933a.6.6,0,1,0,.578.578.606.606,0,0,0-.578-.578" transform="translate(-282.635 -114.256)"/><path class="k" d="M303.473,118.24a.6.6,0,1,0,.578.578.605.605,0,0,0-.578-.578" transform="translate(-291.288 -112.679)"/><path class="k" d="M327.952,121.933a.6.6,0,1,0,.578.578.605.605,0,0,0-.578-.578" transform="translate(-301.743 -114.256)"/><path class="k" d="M343.673,125.309a.6.6,0,1,0,.578.578.605.605,0,0,0-.578-.578" transform="translate(-308.458 -115.698)"/><path class="k" d="M291.444,113.281a.6.6,0,1,0,.578.578.605.605,0,0,0-.578-.578" transform="translate(-286.15 -110.561)"/><path class="k" d="M302.945,145.252a.6.6,0,1,0,.578.578.605.605,0,0,0-.578-.578" transform="translate(-291.062 -124.216)"/><path class="k" d="M289.967,140.609a.6.6,0,1,0,.578.578.605.605,0,0,0-.578-.578" transform="translate(-285.519 -122.233)"/><path class="k" d="M318.983,147.995a.6.6,0,1,0,.578.578.605.605,0,0,0-.578-.578" transform="translate(-297.912 -125.388)"/><path class="k" d="M335.021,149.788a.6.6,0,1,0,.578.578.605.605,0,0,0-.578-.578" transform="translate(-304.762 -126.153)"/><path class="k" d="M309.7,154.748a.6.6,0,1,0,.578.578.605.605,0,0,0-.578-.578" transform="translate(-293.947 -128.272)"/><path class="k" d="M337.026,115.6a.6.6,0,1,0,.578.578.605.605,0,0,0-.578-.578" transform="translate(-305.619 -111.552)"/><path class="k" d="M347.155,114.653a.6.6,0,1,0,.578.578.605.605,0,0,0-.578-.578" transform="translate(-309.945 -111.147)"/><path class="k" d="M298.2,108.533a.6.6,0,1,0,.578.578.605.605,0,0,0-.578-.578" transform="translate(-289.034 -108.533)"/></g><path class="e" d="M299.207,160.126a8.855,8.855,0,0,0-2.73-.473.121.121,0,0,0,0,.242,8.618,8.618,0,0,1,2.663.464c.148.05.211-.183.064-.233" transform="translate(-277.943 -100.862)"/><path class="f" d="M305.825,60.374c-.074-.042.729-.684.251-.594a5.889,5.889,0,0,0-4.4,1.614c-1.237,1.224-.9,3.119-1.483,4.634-.676,1.767-2.1,3.122-2.8,4.882a4.72,4.72,0,0,0-.33,2.372c.066.508.2,1,.292,1.5a5.989,5.989,0,0,1,0,1.929,10.324,10.324,0,0,0-.22,2.886c.057.417.129,1.375.6,1.553.246.092.455-.082.653-.211a3.266,3.266,0,0,1,1.525-.534c1.021-.095,2.037.16,3.059.115a6.359,6.359,0,0,0,2.476-.614c.764-.367.917-.885,1.031-1.7a24.068,24.068,0,0,0-.391-5.955A28.278,28.278,0,0,1,306.7,65.1c.236-1.609.781-3.789-.871-4.727" transform="translate(-278.232 -58.201)"/><path class="g" d="M319.8,80.641c-.062-.859-.181.771-1.323.7a9.486,9.486,0,0,0-2.51.636l-2.851.745.008-.5c.008-.465-.905-.782-.913-.314-.025,1.528-.143,6.365-.13,9.958.006,1.655.093,3.032.137,3.724.092,1.448,1.49,1.084,2.555,1.055.876-.023,1.75-.091,2.621-.194.573-.068,1.536-.014,1.964-.525.41-.49.273-1.413.292-1.994.037-1.105.313-11.087.152-13.291" transform="translate(-284.657 -67.008)"/><path class="e" d="M310.96,88.188a9.469,9.469,0,0,0,.088-1.383,3.294,3.294,0,0,0-.223-.845,24.118,24.118,0,0,0-1.375-2.521,1.859,1.859,0,0,0,.118-.15c.091-.126-.119-.247-.209-.122-.623.867-2.787,1.928-1.415,3.162a1.592,1.592,0,0,1,.584,1.314,2.153,2.153,0,0,0,.045.974c.121.248.328.3.545.43a1.459,1.459,0,0,1,.647.917c.057-.025.115-.049.168-.075.764-.366.917-.885,1.031-1.7" transform="translate(-282.701 -68.172)"/><path class="m" d="M319.791,92.429c.017-.9.057-1.9.068-2.782a7.448,7.448,0,0,0-1.349.8c-1.93,1.091-4.175-.925-6.412-1.117v3.184c1.515.817,3.017,1.81,4.821,1.3a16.1,16.1,0,0,0,2.7-1.3c.049-.025.12-.063.176-.09" transform="translate(-284.667 -70.826)"/><path class="g" d="M319.036,63.576a8.938,8.938,0,0,0-6.16-.718,7.69,7.69,0,0,0-4.324,2.081c-.057-.36-.687-.418-.73-.006-.43,3.924-.464,8.338,1.139,12.013.638,1.463,3.507,3.006,4.87,3.974,1.308.929,2.162.669,3.363-.226,2.216-1.652,3.288-4.082,4.01-7.31.648-2.9.846-8.11-2.17-9.81" transform="translate(-282.733 -59.412)"/><path class="n" d="M314.354,75.061a2.321,2.321,0,0,0-.536.073,1.946,1.946,0,0,0-.486.2,1.4,1.4,0,0,0-.409.351,1.57,1.57,0,0,0-.266.56,1.18,1.18,0,0,1,.572-1.17,1.2,1.2,0,0,1,.56-.16.98.98,0,0,1,.563.147" transform="translate(-284.902 -64.669)"/><path class="n" d="M326.124,75.433a2.344,2.344,0,0,1,.535-.077,1.934,1.934,0,0,1,.522.057,1.412,1.412,0,0,1,.49.224,1.563,1.563,0,0,1,.41.465,1.179,1.179,0,0,0-.317-.642,1.167,1.167,0,0,0-.556-.325,1.191,1.191,0,0,0-.582,0,.979.979,0,0,0-.5.3" transform="translate(-290.658 -64.748)"/><path class="g" d="M331.416,78.458c-.28-.954-1.3-.668-1.7-.138-.7.521-.641,2.147-.608,2.93.015.362-.008.811.367.939s.854-.214,1.113-.48a3.631,3.631,0,0,0,.828-3.252" transform="translate(-291.925 -65.915)"/><path class="o" d="M306.606,81.557c.278.3.782.687,1.223.56.425-.122.418-.6.45-.992.069-.841.142-2.547-.623-3.135-.421-.584-1.488-.969-1.839.044a3.786,3.786,0,0,0,.789,3.523" transform="translate(-281.923 -65.734)"/><path class="e" d="M315.482,78.386c0,.5-.211.9-.479.9s-.487-.4-.491-.9.211-.9.479-.9.488.4.491.9" transform="translate(-285.698 -65.769)"/><path class="e" d="M326.777,78.192c-.01.5-.234.9-.5.891s-.477-.412-.468-.91.234-.9.5-.891.477.412.467.91" transform="translate(-290.522 -65.68)"/><path class="m" d="M331.591,79.8c-.106-.4-.37-.595-.7-.227a.722.722,0,0,0-.164.6,1.276,1.276,0,0,1-.286,1.105c-.1.115.063.29.167.172a1.435,1.435,0,0,0,.385-.779,1.558,1.558,0,0,0,0-.393.705.705,0,0,1,.029-.466c.152-.257.286-.151.341.054a.121.121,0,0,0,.234-.057" transform="translate(-292.487 -66.577)"/><path class="p" d="M307.5,80.683a.663.663,0,0,1-.323-.438c-.037-.179.08-.348.1-.52a.941.941,0,0,0-.115-.578c-.185-.32-.539-.4-.715-.018-.065.14.14.266.206.126q.286-.125.332.095a.356.356,0,0,1,.046.172.9.9,0,0,1-.057.39.741.741,0,0,0-.033.4.9.9,0,0,0,.431.584c.138.072.264-.135.126-.206" transform="translate(-282.249 -66.361)"/><path class="i" d="M308.092,83.514c-.118-.1-.29.07-.172.172a2.54,2.54,0,0,1,.79,2.572,1.3,1.3,0,0,1-2.231.667c-.1-.121-.268.051-.172.172a1.475,1.475,0,0,0,2.4-.256,2.687,2.687,0,0,0-.614-3.328" transform="translate(-282.182 -68.329)"/><path class="m" d="M320.031,82.88a3.55,3.55,0,0,1-.448-.028.132.132,0,0,1-.115-.143.1.1,0,0,1,.1-.1h.021a3.558,3.558,0,0,0,.449.028h.035a.115.115,0,0,1,.115.115v0a.115.115,0,0,1-.1.124h-.046Zm.687-.012a.1.1,0,0,1-.1-.1v-.006a.129.129,0,0,1,.115-.14l.04,0c.4-.038.695-.066.859-.507a1.355,1.355,0,0,0-.078-.749c-.011-.04-.022-.077-.032-.112-.043-.159-.093-.317-.141-.47a7.308,7.308,0,0,1-.215-.786.113.113,0,0,1,.025-.1.14.14,0,0,1,.1-.049.1.1,0,0,1,.1.088,6.652,6.652,0,0,0,.214.752,3.123,3.123,0,0,1,.233,1.628c-.107.48-.506.508-.93.539l-.183.014Z" transform="translate(-287.815 -66.776)"/><path class="q" d="M320.365,66.324c-.164-.507-.975-.6-1.419-.724a12.46,12.46,0,0,0-2.143-.374,16.129,16.129,0,0,0-4.859.357,3.928,3.928,0,0,0-3.051,1.959,12.653,12.653,0,0,0-.668,2.273c-.178.774-.255,1.762-1.043,2.169-.138.072-.016.28.122.209.974-.5,1.025-1.813,1.26-2.754a6.86,6.86,0,0,1,.791-2.243,3.361,3.361,0,0,1,1.844-1.173,15.034,15.034,0,0,1,4.206-.607,13.608,13.608,0,0,1,2.324.169c.352.057.7.132,1.048.221.311.081,1.249.259,1.354.581.048.147.281.084.233-.064" transform="translate(-282.541 -60.511)"/><path class="f" d="M327.035,65.617a5.543,5.543,0,0,0-1.693-4.343,7.126,7.126,0,0,0-4.753-1.2,1.978,1.978,0,0,0-1.584.91c-.388.581-.109,1.46-.036,2.1a.126.126,0,0,0,.1.11.108.108,0,0,0,.112.088c2.062-.02,4.531-.243,5.851,1.667a6.135,6.135,0,0,1,.944,2.909c.072.725-.107,1.676.335,2.3a.123.123,0,0,0,.168.042.157.157,0,0,0,.022-.017,2.32,2.32,0,0,0,.573-1.665c.028-.961,0-1.936-.039-2.9" transform="translate(-287.531 -58.322)"/><path class="f" d="M319.623,69.119a16.85,16.85,0,0,0-.108-1.861c-.115-1.056-.3-2.107-.5-3.151a2.206,2.206,0,0,0-1.26-1.768,6.144,6.144,0,0,0-4.72.017.093.093,0,0,0-.122-.048l-.005,0c-.032.013-.063.025-.1.036l-.05-.015c-.279-.175-.579-.312-.854-.494l-.02-.015a2.053,2.053,0,0,0-.306-1.22c-.446-.63-1.385-.547-2.058-.458-1.968.255-3.238,1.543-4.481,2.976a12.478,12.478,0,0,0-1.764,2.452,15.238,15.238,0,0,0-.99,2.854,13.493,13.493,0,0,0-.689,5.855,6.014,6.014,0,0,0,1.08,2.629,9.359,9.359,0,0,0,2.567,2.111.121.121,0,0,0,.147-.019c.943-1.035.63-2.406.745-3.677a7.571,7.571,0,0,1,.815-2.265,5.928,5.928,0,0,0,.406-2.222,9.8,9.8,0,0,1,1-4.852,5.54,5.54,0,0,1,3.564-2.7l.013-.006.064,0c.308,1.7,2.889,1.528,3.742,2.817.492.745.379,1.76.926,2.445a2.56,2.56,0,0,0,.785.588,3.632,3.632,0,0,1,1.123.867c.272.325.666.47.917.028a1.829,1.829,0,0,0,.137-.9" transform="translate(-280.137 -58.335)"/><path class="i" d="M329.687,83.8c-.118-.1-.29.07-.172.172a2.54,2.54,0,0,1,.79,2.572,1.3,1.3,0,0,1-2.231.667c-.1-.121-.268.051-.172.172a1.475,1.475,0,0,0,2.4-.256,2.687,2.687,0,0,0-.614-3.328" transform="translate(-291.405 -68.45)"/><path class="e" d="M321.931,179.116a4.415,4.415,0,0,0-2.506-2.054,8.344,8.344,0,0,0-3.709-.659c.027-.1.051-.205.079-.306a.121.121,0,0,0-.233-.066h0a26.629,26.629,0,0,0-.956,7.538q.017.9.1,1.8a6.879,6.879,0,0,0,.229,1.617c.259.725,1.023.5,1.5.15a5.2,5.2,0,0,1,1.462-.843c.521-.172,1.074-.223,1.594-.4.994-.335,1.278-1.1,1.9-1.847.309-.368.8-.516,1.088-.889a1.627,1.627,0,0,0,.286-1.031,8.585,8.585,0,0,0-.843-3.012" transform="translate(-285.737 -107.819)"/><path class="j" d="M322.719,176.014a14.774,14.774,0,0,0-.73-3.308c-.344-1.133-.693-2.266-1.1-3.38a8.646,8.646,0,0,0-1.393-2.854,1.676,1.676,0,0,0-1.989-.406.125.125,0,0,0-.171-.04l-.016.012c-2.366,2.074-2.3,5.9-2.5,8.775q-.1,1.49-.147,2.979a10.253,10.253,0,0,0,.03,2.489c.266,1.193,1.722,1.239,2.593.6.615-.451.393-1.285.412-1.943a11.064,11.064,0,0,1,.519-3.007,17.127,17.127,0,0,0,.187,1.719c.125.76.308,1.524,1.235,1.457a4.666,4.666,0,0,0,2.249-.848,2.4,2.4,0,0,0,.819-2.244" transform="translate(-285.741 -103.53)"/><path class="e" d="M320.307,165.156c-.007-.153-.249-.154-.242,0q.2,3.839.168,7.677a.121.121,0,1,0,.242,0q.029-3.838-.168-7.677" transform="translate(-288.07 -103.163)"/><path class="e" d="M322.464,178.638c-.308-1.558-.778-3.1-1.173-4.636a.121.121,0,0,0-.233.064h0l.923,3.59a10.551,10.551,0,0,1,.353,1.746c.042.5.151,1.542-.372,1.844a.121.121,0,0,0,.122.209c.816-.47.528-2.072.381-2.817" transform="translate(-288.492 -106.953)"/><path class="e" d="M316.422,166.491q-.218.811-.386,1.633c-.03.152.2.217.233.064q.168-.822.386-1.633a.121.121,0,0,0-.233-.064h0" transform="translate(-286.348 -103.745)"/><path class="e" d="M325.669,174.138c-.3-1.414-.181-2.906-.822-4.235-.068-.14-.277-.018-.209.122.63,1.3.506,2.789.8,4.176.3,1.42,1.092,2.713,1.251,4.16.017.153.259.155.242,0-.162-1.473-.957-2.78-1.259-4.223" transform="translate(-290.017 -105.214)"/><path class="e" d="M317.238,63.079c-.327-.344-.749,0-.956.286-.28.391-.363.83-.815,1.1a2.849,2.849,0,0,0-.724.573,2.071,2.071,0,0,0-.542,1.545,5.444,5.444,0,0,1,3.145-2.076l.013-.005h.037c.057-.493.124-1.12-.16-1.417" transform="translate(-285.563 -59.553)"/><path class="e" d="M320.642,61.439a1.646,1.646,0,0,0-1.527-.484c-.152.029-.087.262.064.233a1.4,1.4,0,0,1,1.292.422c.107.115.278-.057.172-.172" transform="translate(-287.627 -58.693)"/><path class="e" d="M337,88.616h0l-.076-.027c-.051-.018-.1-.037-.156-.054a3.832,3.832,0,0,0,.247-1.588,6.018,6.018,0,0,0-.251-1.235,6.356,6.356,0,0,1-.246-1.169,2.78,2.78,0,0,1,.358-1.468,6.014,6.014,0,0,0,.29-.714,2.356,2.356,0,0,0-.689-2.422.105.105,0,0,1-.031-.119.135.135,0,0,1,.121-.085.113.113,0,0,1,.08.033,2.608,2.608,0,0,1,.863,1.874,3.159,3.159,0,0,1-.383,1.371,3.2,3.2,0,0,0-.38,1.327A5.582,5.582,0,0,0,337,85.774a5.212,5.212,0,0,1,.256,1.56,4.115,4.115,0,0,1-.26,1.283Zm-1.044-.275h0c-.076-.011-.156-.026-.237-.037a7.423,7.423,0,0,0-.018-2.559.1.1,0,0,1,.021-.081.118.118,0,0,1,.085-.034.133.133,0,0,1,.136.115,7.664,7.664,0,0,1,.013,2.6Z" transform="translate(-294.746 -66.729)"/><path class="e" d="M312.3,64.13a4.955,4.955,0,0,0-1.3,2.3.121.121,0,1,0,.233.064,4.7,4.7,0,0,1,1.235-2.191.122.122,0,0,0-.172-.172" transform="translate(-284.197 -60.047)"/><path class="e" d="M331.944,74.076a4.932,4.932,0,0,1-1.482-1.538c-.083-.132-.292-.011-.21.122a5.229,5.229,0,0,0,1.57,1.625c.13.086.251-.123.122-.209" transform="translate(-292.413 -63.63)"/><path class="e" d="M304.284,91.058h0l-.12-.011-.121-.011a3.355,3.355,0,0,1,.024-.616,3.071,3.071,0,0,1,.392-1.025,3.919,3.919,0,0,0,.344-.784,3.167,3.167,0,0,0-.039-1.416,4.734,4.734,0,0,1-.107-.959,3.708,3.708,0,0,1,.551-1.667.106.106,0,0,1,.1-.057.137.137,0,0,1,.115.066.114.114,0,0,1,0,.115,3.375,3.375,0,0,0-.441,2.358c.011.07.023.14.035.21a3.6,3.6,0,0,1,.068,1.211,2.927,2.927,0,0,1-.371.9,3.725,3.725,0,0,0-.328.7,2.849,2.849,0,0,0-.1.978Zm-1.22-.093h0c-.082,0-.166,0-.246,0a4.574,4.574,0,0,1-.073-1.383,3.825,3.825,0,0,1,.4-1.181,3.947,3.947,0,0,0,.394-1.115.094.094,0,0,1,.1-.088.147.147,0,0,1,.106.049.126.126,0,0,1,.03.1,3.763,3.763,0,0,1-.387,1.083A3.871,3.871,0,0,0,303,89.5a4.237,4.237,0,0,0,.061,1.469Z" transform="translate(-280.662 -68.768)"/><path class="m" d="M324.305,106.989c-1.092.179-2.254.047-3.158.8-.12.1.052.27.172.172.854-.71,2.022-.567,3.053-.733.151-.025.086-.258-.066-.235" transform="translate(-288.515 -78.368)"/><path class="m" d="M313.921,107.755c-.916-.607-2.035-.553-3.049-.89-.148-.05-.211.184-.064.233.992.333,2.093.272,2.991.866.13.086.251-.123.122-.209" transform="translate(-284.08 -78.313)"/><path class="m" d="M321.4,89.953a1.9,1.9,0,0,1-1.3.04.121.121,0,0,0-.07.229,2.111,2.111,0,0,0,1.432-.037c.143-.057.087-.291-.057-.235" transform="translate(-288.022 -71.088)"/><path class="m" d="M321.767,88.034a7.319,7.319,0,0,1-1.948.317,8.843,8.843,0,0,0-1.307-.215c-.153.006-.154.248,0,.242.569-.023,1.042.278,1.6.218s1.146-.214,1.715-.325c.153-.03.088-.264-.064-.236" transform="translate(-287.357 -70.272)"/><g transform="translate(6.968 47.98)"><path class="r" d="M282.407,146.222s13.281.158,16.074.382c.434.035,1.99-1.212,2.659-1.566a6.9,6.9,0,0,1,3.172-.439c.835.144,2.28,2.187,2.28,2.62a1.332,1.332,0,0,1-.62,1.069c-.053.025.2.487.127.623s-.3.625-.65.673c-.167.023-.009.58-.511.768-.4.15-.245.353-.722.571a15,15,0,0,0-1.437.867,6.14,6.14,0,0,1-.978.216,3.782,3.782,0,0,1-1.012-.328.353.353,0,0,1,.192-.612c.463-.133,1.135-.152,1.247-.308s-.193-.593-.193-.593a8.153,8.153,0,0,1-1.977.357c-.609-.068-1.477-.427-1.84-.438-.753-.021-19.766,2.793-21.325.123-1.468-2.513.671-9.426.671-9.426a7.4,7.4,0,0,1,2.882,1.564,18.615,18.615,0,0,0,2.73,1.167C283.018,144.137,282.407,146.222,282.407,146.222Z" transform="translate(-276.379 -140.782)"/><path class="s" d="M326.022,150.78a6.866,6.866,0,0,1,1.153,1.778" transform="translate(-297.582 -145.052)"/><path class="s" d="M324.77,152.244a13.05,13.05,0,0,1,1.347,2.236" transform="translate(-297.048 -145.678)"/><path class="s" d="M323.138,153.926a9.257,9.257,0,0,1,1.524,2.155" transform="translate(-296.351 -146.396)"/></g><g transform="translate(46.357 47.891)"><path class="g" d="M352.85,208.4c.5.085,1.76-.092,1.765-.048l.226-.28c.1-.121.222-.292.346-.466a19.085,19.085,0,0,0,.25-2.34,2.051,2.051,0,0,1,.289-1.084c.156-.491.9-1.209.891-1.677,0-.254-.045-.825-.092-1.409l.292.136a3.11,3.11,0,0,0,1.637.069l.106-.04c.047,1.278.1,3.181.139,3.568.038.444.108,2.293.068,2.736a1.653,1.653,0,0,1-.4.805c-.3.43-.616.85-.94,1.263-.647.827-1.331,1.626-2.011,2.425a.106.106,0,0,1-.15.01.108.108,0,0,1-.03-.044.081.081,0,0,1-.02-.006,11.179,11.179,0,0,1-2.422-3.128,1.31,1.31,0,0,1-.065-.485c.04,0,.08,0,.121-.005" transform="translate(-348.378 -166.453)"/><path class="g" d="M345.135,142.3c1.6-.4,2.175-.545,3.751-.942l1.736-.431a5.948,5.948,0,0,0,.935-.3c.189,5.417.155,10.767.55,13.242.6,3.735,1.5,5.206,2.049,9.314.5,3.774.535,7.912,1.176,12.256.05.332-.685,1.634-.876,1.473l.065.207c.14.446-.566.606-.7.164-1.327-4.215-2.965-8.708-4.682-12.78-2.047-4.851-2.392-4.509-2.839-8.722-.259-2.432-.785-8.332-1.16-13.484" transform="translate(-345.135 -140.627)"/><path class="m" d="M351.838,165.569c.077-.135.281,0,.2.131a5.227,5.227,0,0,0-.686,2.843c.007.155-.235.144-.241-.01a5.462,5.462,0,0,1,.723-2.963" transform="translate(-347.687 -151.256)"/><path class="p" d="M355.436,212.672c.068-.139.27-.007.2.13a1.4,1.4,0,0,0-.189.7c.066.27.153.121.316.05a3.24,3.24,0,0,0,.8-.637,3.592,3.592,0,0,0,.815-1.939c.03-.152.26-.076.231.074a4.792,4.792,0,0,1-.514,1.579,4.471,4.471,0,0,1-1.41,1.289c-.724.463-.406-.923-.248-1.244" transform="translate(-349.446 -170.638)"/><path class="p" d="M355.86,217.046a4.7,4.7,0,0,0,1.394-1.689.121.121,0,0,1,.2.132,4.908,4.908,0,0,1-1.487,1.771c-.135.077-.247-.136-.112-.214" transform="translate(-349.689 -172.521)"/><path class="i" d="M361.18,202.94a4.043,4.043,0,0,0-.432-.631,1.3,1.3,0,0,1-.932.348H359.8a1.466,1.466,0,0,1-1-.444,4.5,4.5,0,0,0-.333.445.113.113,0,0,1-.1.053.137.137,0,0,1-.112-.071.11.11,0,0,1,.007-.114,4.686,4.686,0,0,1,.377-.5,2.471,2.471,0,0,1-.462-1.155.136.136,0,0,1-.069-.152.1.1,0,0,1,.1-.076h.014a4.4,4.4,0,0,1,1.462.484,2.493,2.493,0,0,1,1.348-.351c.061,0,.124.007.182.015a.114.114,0,0,1,.056.022h.01a.12.12,0,0,1,.085.038.105.105,0,0,1,.023.082,2.285,2.285,0,0,1-.473,1.2,4.41,4.41,0,0,1,.478.689.107.107,0,0,1,0,.115.137.137,0,0,1-.117.062A.116.116,0,0,1,361.18,202.94Zm-2.225-.91a1.32,1.32,0,0,0,.592.349,1.218,1.218,0,0,0,.261.041,1.073,1.073,0,0,0,.776-.293,4.075,4.075,0,0,0-.894-.714A3.787,3.787,0,0,0,358.955,202.029Zm.977-.754a4.256,4.256,0,0,1,.818.67,1.981,1.981,0,0,0,.383-.919l-.095,0A2.239,2.239,0,0,0,359.932,201.275Zm-1.138.567a4.067,4.067,0,0,1,.655-.563,4.091,4.091,0,0,0-1.017-.351A2.218,2.218,0,0,0,358.794,201.842Z" transform="translate(-350.674 -166.261)"/></g><g transform="translate(26.799 52.985)"><path class="k" d="M312.5,154.4a3.409,3.409,0,0,1,.321-3.762l-1.092-.022a4.122,4.122,0,0,0-.161,3.892Z" transform="translate(-311.064 -149.986)"/><ellipse class="k" cx="0.801" cy="1.099" rx="0.801" ry="1.099" transform="matrix(0.072, -0.997, 0.997, 0.072, 0, 1.598)"/><line class="t" x2="0.6" y2="0.065" transform="translate(1.041 0.914)"/><line class="t" x1="0.337" y2="0.276" transform="translate(1.041 0.638)"/></g><ellipse class="u" cx="0.222" cy="0.386" rx="0.222" ry="0.386" transform="translate(29.009 12.622)"/><ellipse class="u" cx="0.222" cy="0.386" rx="0.222" ry="0.386" transform="translate(35.466 12.501)"/></g></g></g></g></g></svg>