<svg xmlns="http://www.w3.org/2000/svg" width="180" height="180" viewBox="0 0 180 180"><defs><style>.a{fill:#fff;}.b{fill:#2c2c2c;}</style></defs><g transform="translate(-4110.25 115.75)"><rect class="a" width="180" height="180" transform="translate(4110.25 -115.75)"/><g transform="translate(4116.295 -110.114)"><rect class="b" width="16.259" height="16.259" transform="translate(16.259 16.259)"/><path class="b" d="M340.93,0V8.13H332.8v8.13h8.13V48.778h8.13v8.13h-8.13v8.13h16.259V48.778h24.389v8.13h8.13V0Zm8.13,40.648V8.13h32.519V40.648Z" transform="translate(-221.714)"/><rect class="b" width="16.259" height="16.259" transform="translate(135.475 16.259)"/><rect class="b" width="16.259" height="16.259" transform="translate(16.259 135.475)"/><rect class="b" width="8.13" height="8.13" transform="translate(117.794 117.794)"/><rect class="b" width="8.13" height="8.13" transform="translate(75.725 159.864)"/><rect class="b" width="8.13" height="8.13" transform="translate(84.139 126.208)"/><rect class="b" width="8.13" height="8.13" transform="translate(84.139 143.604)"/><rect class="b" width="8.13" height="8.13" transform="translate(159.864 100.967)"/><rect class="b" width="8.13" height="8.13" transform="translate(0 100.967)"/><rect class="b" width="8.13" height="8.13" transform="translate(0 58.897)"/><path class="b" d="M254.789,41.859V25.6h-8.13v8.13H230.4v8.13Z" transform="translate(-154.374 -17.47)"/><path class="b" d="M236.108,221.059v-8.13h-8.13v8.13H211.719v8.13h24.389v8.13H211.719v-8.13h-8.13v8.13h-8.13v-8.13h-8.13v8.13H179.2v8.13h16.259v8.13h8.13v-8.13h16.259v8.13h-8.13v8.13h8.13v16.259h8.13v8.13h8.13v-8.13H260.5V261.708h8.13v-8.13H260.5V237.319H244.237v-8.13H260.5v8.13h8.13v-8.13h8.13v-8.13h8.13V204.8h-8.13v8.13H260.5v8.13Zm16.259,24.389v24.389H227.978V245.448Z" transform="translate(-116.892 -134.363)"/><path class="b" d="M281.6,161.73v16.259h8.13v-8.13h8.13v-8.13h8.13V153.6H289.73v8.13Z" transform="translate(-188.68 -102.916)"/><rect class="b" width="16.259" height="8.13" transform="translate(92.726 159.864)"/><rect class="b" width="8.13" height="8.13" transform="translate(67.311 8.13)"/><rect class="b" width="8.13" height="8.13" transform="translate(135.333 67.311)"/><rect class="b" width="8.13" height="8.13" transform="translate(143.604 58.897)"/><rect class="b" width="8.13" height="8.13" transform="translate(33.656 100.967)"/><path class="b" d="M56.908,332.8h-8.13v8.13H24.389V332.8H8.13v8.13H0v48.778H65.037v-8.13H48.778V349.059h8.13V332.8ZM40.648,381.578H8.13V349.059H40.648Z" transform="translate(0 -221.714)"/><rect class="b" width="8.13" height="8.13" transform="translate(50.483 50.483)"/><path class="b" d="M16.259,48.778h8.13v8.13h8.13v-8.13H48.778V32.519h8.13v-8.13h-8.13V8.13H65.037V0H0V48.778H8.13v8.13h8.13ZM8.13,8.13H40.648V40.648H8.13Z"/><rect class="b" width="8.13" height="8.13" transform="translate(100.967 24.389)"/><rect class="b" width="8.13" height="8.13" transform="translate(84.139)"/><path class="b" d="M56.908,151.178v-8.13H73.167v8.13H89.426v-8.13H81.3v-8.13h-8.13V118.659H97.556v-8.13h-8.13V102.4H81.3v8.13H65.037V102.4h-8.13v16.259h8.13v16.259H40.648v-8.13h-8.13v8.13H8.13v8.13H24.389v8.13H0v8.13H24.389v8.13h8.13v-8.13h8.13v8.13h8.13v-8.13H65.037v-8.13Zm-24.389,0v-8.13H48.778v8.13Z" transform="translate(0 -68.081)"/><path class="b" d="M195.459,366.53V358.4h-8.13v8.13H179.2v8.13h8.13v8.13H179.2v8.13h16.259v-8.13h8.13v-8.13h-8.13Z" transform="translate(-120.069 -239.185)"/><path class="b" d="M358.4,443.33v8.13h16.259v8.13h8.13v-8.13h16.259v8.13h8.13V443.33H390.919V435.2h-8.13v8.13Z" transform="translate(-239.185 -291.596)"/><path class="b" d="M477.059,374.659V358.4h-8.13v8.13H460.8v8.13Z" transform="translate(-309.066 -240.385)"/></g></g></svg>