<svg xmlns="http://www.w3.org/2000/svg" width="56" height="56" viewBox="0 0 56 56">
  <g id="Group_6401" data-name="Group 6401" transform="translate(-52 -5862)">
    <path id="Path_16761" data-name="Path 16761" d="M0,0H56V56H0Z" transform="translate(52 5862)" fill="#fff" opacity="0"/>
    <g id="Group_6419" data-name="Group 6419" transform="translate(-672.362 5463.402)">
      <path id="Path_8462" data-name="Path 8462" d="M753.49,407.86a1.232,1.232,0,0,0-1.52,0c-4.72,3.87-15.47,14.26-13.33,27.08,1.81,10.93,13.97,11.06,14.09,11.06s12.28-.12,14.1-11.06C768.96,422.12,758.21,411.73,753.49,407.86Zm11.04,26.73c-1.51,9.08-11.38,9.21-11.79,9.21h-.01c-.42,0-10.29-.13-11.8-9.21-1.85-11.14,7.22-20.49,11.8-24.42C757.31,414.1,766.39,423.45,764.53,434.59Z" fill="#fff"/>
      <path id="Path_16771" data-name="Path 16771" d="M764.53,434.59c-1.51,9.08-11.38,9.21-11.79,9.21h-.01c-.42,0-10.29-.13-11.8-9.21-1.85-11.14,7.22-20.49,11.8-24.42C757.31,414.1,766.39,423.45,764.53,434.59Z" fill="#38539a"/>
    </g>
  </g>
</svg>
