<svg xmlns="http://www.w3.org/2000/svg" width="56" height="56" viewBox="0 0 56 56">
  <g id="Group_6401" data-name="Group 6401" transform="translate(-52 -5862)">
    <path id="Path_16761" data-name="Path 16761" d="M0,0H56V56H0Z" transform="translate(52 5862)" fill="#fff" opacity="0"/>
    <g id="Group_6420" data-name="Group 6420" transform="translate(-847.362 5463.402)">
      <path id="Path_8460" data-name="Path 8460" d="M928.49,407.86a1.232,1.232,0,0,0-1.52,0c-4.72,3.87-15.47,14.26-13.33,27.08,1.82,10.94,13.97,11.06,14.09,11.06s12.28-.12,14.1-11.06C943.96,422.12,933.21,411.73,928.49,407.86Zm11.04,26.73c-1.5,9.08-11.38,9.21-11.79,9.21s-10.3-.13-11.81-9.21c-1.85-11.14,7.22-20.49,11.8-24.42C932.31,414.1,941.39,423.45,939.53,434.59Z" fill="#fff"/>
      <path id="Path_16772" data-name="Path 16772" d="M927.73,410.17c-4.58,3.93-13.65,13.28-11.8,24.42,1.51,9.08,11.39,9.21,11.81,9.21s10.29-.13,11.79-9.21C941.39,423.45,932.31,414.1,927.73,410.17Zm8.04,26.55a.957.957,0,0,1-.53.83l-6.89,3.68a1.356,1.356,0,0,1-1.24,0l-6.88-3.68a.943.943,0,0,1-.54-.83V425.61a.846.846,0,0,1,.2-.55l7.01-8.9.12-.05a.72.72,0,0,1,.21-.12l.18-.07h.12a1.273,1.273,0,0,1,.39,0h.12l.49.22.17.2,6.88,8.72a.916.916,0,0,1,.19.55Z" fill="#38539a"/>
      <path id="Path_8461" data-name="Path 8461" d="M935.58,425.06l-6.88-8.72-.17-.2-.49-.22h-.12a1.273,1.273,0,0,0-.39,0h-.12l-.18.07a.72.72,0,0,0-.21.12l-.12.05-7.01,8.9a.846.846,0,0,0-.2.55v11.11a.943.943,0,0,0,.54.83l6.88,3.68a1.356,1.356,0,0,0,1.24,0l6.89-3.68a.957.957,0,0,0,.53-.83V425.61A.916.916,0,0,0,935.58,425.06Zm-2.13,11.12-5.72,3.05-5.72-3.05V425.91l5.72-7.26,5.72,7.26Z" fill="#fff"/>
      <path id="Path_16773" data-name="Path 16773" d="M933.45,425.91v10.27l-5.72,3.05-5.72-3.05V425.91l5.72-7.26Z" fill="#38539a"/>
    </g>
  </g>
</svg>
