<svg xmlns="http://www.w3.org/2000/svg" width="56" height="56" viewBox="0 0 56 56">
  <g id="Group_6401" data-name="Group 6401" transform="translate(-52 -5862)">
    <path id="Path_16761" data-name="Path 16761" d="M0,0H56V56H0Z" transform="translate(52 5862)" fill="#fff" opacity="0"/>
    <g id="Group_6410" data-name="Group 6410" transform="translate(-147.935 5463.19)">
      <path id="Path_8463" data-name="Path 8463" d="M241.79,426.15l-12.91-18.89a1.164,1.164,0,0,0-1.64-.2.76.76,0,0,0-.2.2l-12.91,18.89a1.115,1.115,0,0,0,0,1.26l12.91,18.9a1.112,1.112,0,0,0,1.55.29,1.33,1.33,0,0,0,.29-.29l12.91-18.9A1.115,1.115,0,0,0,241.79,426.15Zm-13.83,17.56L216.4,426.78l11.56-16.92,11.56,16.92Z" fill="#fff"/>
      <path id="Path_16765" data-name="Path 16765" d="M239.52,426.78l-11.56,16.93L216.4,426.78l11.56-16.92Z" fill="#992353"/>
    </g>
  </g>
</svg>
