<svg xmlns="http://www.w3.org/2000/svg" width="56" height="56" viewBox="0 0 56 56">
  <g id="Group_6401" data-name="Group 6401" transform="translate(-52 -5862)">
    <path id="Path_16761" data-name="Path 16761" d="M0,0H56V56H0Z" transform="translate(52 5862)" fill="#fff" opacity="0"/>
    <g id="Group_6412" data-name="Group 6412" transform="translate(-498.725 5463.2)">
      <path id="Path_8464" data-name="Path 8464" d="M592.58,426.17l-12.91-18.9-.03-.03c-.04-.04-.08-.09-.12-.13a1.587,1.587,0,0,0-.15-.12,1.06,1.06,0,0,0-.21-.11.465.465,0,0,0-.1-.05c-.03-.01-.06,0-.09-.01a.857.857,0,0,0-.23-.02,1.23,1.23,0,0,0-.2.02c-.04.01-.07,0-.1.01a.238.238,0,0,0-.11.06,1.107,1.107,0,0,0-.19.09.8.8,0,0,0-.17.15.656.656,0,0,0-.11.12c-.01.01-.02.01-.03.02l-12.91,18.9a1.1,1.1,0,0,0,0,1.25l12.91,18.9a1.21,1.21,0,0,0,.16.16.6.6,0,0,0,.08.08,1.058,1.058,0,0,0,.11.07,1.1,1.1,0,0,0,.11.06c.04.02.09.04.13.06.01,0,.01,0,.02.01l.31.04.31-.04.01-.01a1.967,1.967,0,0,0,.25-.13.6.6,0,0,0,.11-.06l.08-.08a1.137,1.137,0,0,0,.15-.16l12.91-18.9A1.1,1.1,0,0,0,592.58,426.17Zm-25.39.62,8.56-12.52-3.54,12.22a1.056,1.056,0,0,0,0,.61l3.53,12.22Zm11.56,14.9-4.31-14.9,4.31-14.89,4.32,14.89Zm3.01-2.37,3.54-12.22a1.09,1.09,0,0,0,0-.62l-3.54-12.21,8.56,12.52Z" fill="#fff"/>
      <path id="Path_16768" data-name="Path 16768" d="M585.3,427.1a1.09,1.09,0,0,0,0-.62l-3.54-12.21,8.56,12.52-8.56,12.53Z" fill="#992353"/>
      <path id="Path_16769" data-name="Path 16769" d="M583.07,426.79l-4.32,14.9-4.31-14.9,4.31-14.89Z" fill="#992353"/>
      <path id="Path_16770" data-name="Path 16770" d="M572.21,427.1l3.53,12.22-8.55-12.53,8.56-12.52-3.54,12.22A1.056,1.056,0,0,0,572.21,427.1Z" fill="#992353"/>
    </g>
  </g>
</svg>
