<svg xmlns="http://www.w3.org/2000/svg" width="56" height="56" viewBox="0 0 56 56">
  <g id="Group_6401" data-name="Group 6401" transform="translate(-52 -5862)">
    <path id="Path_16761" data-name="Path 16761" d="M0,0H56V56H0Z" transform="translate(52 5862)" fill="#fff" opacity="0"/>
    <g id="Group_6421" data-name="Group 6421" transform="translate(-1021.56 5462.73)">
      <path id="Path_8457" data-name="Path 8457" d="M1122.41,419.91l-6.31-6.31a1.183,1.183,0,0,0-.82-.33h-28.25a1.141,1.141,0,0,0-.82.33l-6.3,6.31a1.177,1.177,0,0,0-.35.82v12.14a1.192,1.192,0,0,0,.34.82l6.31,6.31a1.15,1.15,0,0,0,.82.34h28.25a1.193,1.193,0,0,0,.82-.34l6.3-6.31a1.2,1.2,0,0,0,.35-.82V420.73A1.212,1.212,0,0,0,1122.41,419.91Zm-1.98,12.48-5.63,5.63h-27.29l-5.62-5.63V421.21l5.62-5.62h27.29l5.63,5.62Z" fill="#fff"/>
      <path id="Path_16774" data-name="Path 16774" d="M1120.43,421.21v11.18l-5.63,5.63h-27.29l-5.62-5.63V421.21l5.62-5.62h27.29Z" fill="#73793b"/>
    </g>
  </g>
</svg>
