<svg xmlns="http://www.w3.org/2000/svg" width="56" height="56" viewBox="0 0 56 56">
  <g id="Group_6401" data-name="Group 6401" transform="translate(-48 -5858)">
    <path id="Path_16761" data-name="Path 16761" d="M0,0H56V56H0Z" transform="translate(48 5858)" fill="#fff" opacity="0"/>
    <g id="Group_6440" data-name="Group 6440" transform="translate(-2526.376 5463.815)">
      <path id="Path_8486" data-name="Path 8486" d="M2620.731,417.976a.388.388,0,0,0-.051-.154.162.162,0,0,0-.037-.088l-3.739-5.164-.037-.088a.83.83,0,0,0-.5-.389.323.323,0,0,0-.117-.015l-4.01-1.829-.191-.059h-8.6l-.154.015-4.378,1.924a.827.827,0,0,0-.441.463l-3.68,5.061-.044.081-.03.051a.84.84,0,0,0-.066.191l-.015.118a.826.826,0,0,0,.015.191l.015.1a.661.661,0,0,0,.1.191l12.267,15.69.051.059a.936.936,0,0,0,.213.169l.073.029a.726.726,0,0,0,.331.073.814.814,0,0,0,.316-.066l.073-.037a.973.973,0,0,0,.22-.169l12.267-15.66.044-.066a.5.5,0,0,0,.074-.154l.044-.162a.809.809,0,0,0,.015-.191Zm-17.078-6.119h8.087l2.52,1.139-2.931,1.66h-7.257l-2.96-1.667Zm8.308,9.556h-8.521l1.094-5.09h6.339ZM2599.517,414l3.4,1.91-1.08,5.032-5.149-3.048Zm-.661,7.118,2.9,1.711,2.211,4.819Zm8.851,10.651-4-8.69h7.985Zm3.717-4.121,2.211-4.819,2.9-1.711Zm2.145-6.706-1.08-5.032,3.4-1.91,2.828,3.893Z" transform="translate(-5.379 -0.001)" fill="#fff"/>
      <path id="Path_16797" data-name="Path 16797" d="M2616.6,413.6l-2.931,1.66h-7.257l-2.96-1.667,2.542-1.131h8.087Z" transform="translate(-7.718 -0.604)" fill="#2c2c2c"/>
      <path id="Path_16798" data-name="Path 16798" d="M2603.659,417.29l-1.08,5.032-5.149-3.048,2.828-3.893Z" transform="translate(-6.12 -1.379)" fill="#2c2c2c"/>
      <path id="Path_16799" data-name="Path 16799" d="M2615.141,423.63h-8.521l1.094-5.09h6.339Z" transform="translate(-8.559 -2.218)" fill="#2c2c2c"/>
      <path id="Path_16800" data-name="Path 16800" d="M2625.169,419.273l-5.149,3.048-1.08-5.032,3.4-1.91Z" transform="translate(-11.83 -1.379)" fill="#2c2c2c"/>
      <path id="Path_16801" data-name="Path 16801" d="M2622.6,425.07l-5.112,6.53,2.211-4.819Z" transform="translate(-11.445 -3.951)" fill="#2c2c2c"/>
      <path id="Path_16802" data-name="Path 16802" d="M2614.974,427.74l-3.989,8.69-4-8.69Z" transform="translate(-8.658 -4.66)" fill="#2c2c2c"/>
      <path id="Path_16803" data-name="Path 16803" d="M2605.492,431.6l-5.113-6.53,2.9,1.711Z" transform="translate(-6.903 -3.951)" fill="#2c2c2c"/>
      <path id="Path_8487" data-name="Path 8487" d="M2574.407,417.936a.115.115,0,0,1,.009-.054c.009-.018.009-.036.018-.045v-.009a.927.927,0,0,1,.045-.1h.009v-.018a.2.2,0,0,0,.035-.054c.009-.009.027-.027.027-.036l.026-.026,2.6-3.59,1.042-1.434.036-.045.063-.089a1.1,1.1,0,0,1,.32-.259l.232-.107,4.008-1.818a1.063,1.063,0,0,1,.33-.071h8.472a1,1,0,0,1,.32.071l.8.364-.98,1.306-.325-.146h-8.125l-2.627,1.167.018.009-.009.009-.7.321-.383.169-.187.09-.267.374-2.887,3.973-.16.223.588.757.571.731.009.009,1.069,1.354,4.5,5.764.98,1.247,1.666,2.12.909,1.158.98,1.256.98-1.256.926-1.176,1.639-2.093.989-1.256.992-1.269,1.006,1.285-5.855,7.475a.143.143,0,0,1-.053.071.448.448,0,0,1-.054.062.385.385,0,0,1-.134.107c-.009.009-.018.018-.026.018a.607.607,0,0,1-.187.081.72.72,0,0,1-.445,0,.6.6,0,0,1-.187-.081c-.009,0-.018-.009-.027-.018a.4.4,0,0,1-.134-.107.427.427,0,0,1-.053-.062.141.141,0,0,1-.054-.071l-12.16-15.537a.527.527,0,0,1-.107-.142.124.124,0,0,1-.027-.035.6.6,0,0,1-.062-.187.663.663,0,0,1-.027-.187A.717.717,0,0,1,2574.407,417.936Z" fill="#fff"/>
      <path id="Path_8488" data-name="Path 8488" d="M2594.843,426.784l.054.062a.864.864,0,0,1-.1-.142A.372.372,0,0,0,2594.843,426.784Z" transform="translate(-5.421 -4.385)" fill="#2c2c2c"/>
      <path id="Path_8489" data-name="Path 8489" d="M2643.5,417.936a.119.119,0,0,0-.009-.054c-.009-.018-.009-.036-.018-.045v-.009a.977.977,0,0,0-.045-.1h-.009v-.018a.206.206,0,0,1-.035-.054c-.009-.009-.027-.027-.027-.036l-.026-.026-2.6-3.59-1.042-1.434-.036-.045-.062-.089a1.105,1.105,0,0,0-.32-.259l-.232-.107-4.009-1.818a1.062,1.062,0,0,0-.33-.071h-8.472a1,1,0,0,0-.32.071l-.8.364.98,1.306.325-.146h8.124l2.628,1.167-.018.009.009.009.7.321.384.169.187.09.267.374,2.887,3.973.16.223-.587.757-.571.731-.009.009-1.069,1.354-4.5,5.764-.98,1.247-1.666,2.12-.909,1.158-.98,1.256-.98-1.256-.926-1.176-1.639-2.093-.989-1.256-.991-1.269-1.006,1.285,5.854,7.475a.14.14,0,0,0,.054.071.416.416,0,0,0,.053.062.383.383,0,0,0,.134.107c.009.009.018.018.026.018a.609.609,0,0,0,.188.081.72.72,0,0,0,.445,0,.6.6,0,0,0,.187-.081c.009,0,.018-.009.027-.018a.4.4,0,0,0,.134-.107.441.441,0,0,0,.053-.062.141.141,0,0,0,.054-.071l12.16-15.537a.516.516,0,0,0,.106-.142.117.117,0,0,0,.027-.035.594.594,0,0,0,.062-.187.663.663,0,0,0,.027-.187A.755.755,0,0,0,2643.5,417.936Z" transform="translate(-13.158)" fill="#fff"/>
    </g>
  </g>
</svg>
