<svg xmlns="http://www.w3.org/2000/svg" width="56" height="56" viewBox="0 0 56 56">
  <g id="Group_6401" data-name="Group 6401" transform="translate(-52 -5862)">
    <path id="Path_16761" data-name="Path 16761" d="M0,0H56V56H0Z" transform="translate(52 5862)" fill="#fff" opacity="0"/>
    <g id="Group_6422" data-name="Group 6422" transform="translate(-1197.2 5463.55)">
      <path id="Path_8458" data-name="Path 8458" d="M1299.42,418.92l-6.13-6.14a1.136,1.136,0,0,0-.8-.33h-31.02a1.135,1.135,0,0,0-.8.33l-6.14,6.14a1.135,1.135,0,0,0-.33.8v14.17a1.112,1.112,0,0,0,.33.79l6.14,6.14a1.135,1.135,0,0,0,.8.33h31.02a1.136,1.136,0,0,0,.8-.33l6.14-6.14a1.12,1.12,0,0,0,.32-.79V419.72A1.1,1.1,0,0,0,1299.42,418.92Zm-1.93,14.5-5.47,5.47h-30.09l-5.47-5.47V420.18l5.47-5.47h30.09l5.47,5.47Z" fill="#fff"/>
      <path id="Path_16775" data-name="Path 16775" d="M1292.02,414.71h-30.09l-5.47,5.47v13.24l5.47,5.47h30.09l5.47-5.47V420.18Zm3.18,16.87a1.136,1.136,0,0,1-.33.8l-4.15,4.14a1.112,1.112,0,0,1-.79.33h-25.9a1.135,1.135,0,0,1-.8-.33l-4.14-4.14a1.136,1.136,0,0,1-.33-.8v-9.56a1.136,1.136,0,0,1,.33-.8l4.14-4.14a1.136,1.136,0,0,1,.8-.33h25.9a1.112,1.112,0,0,1,.79.33l4.15,4.14a1.136,1.136,0,0,1,.33.8Z" fill="#73793b"/>
      <path id="Path_8459" data-name="Path 8459" d="M1294.87,421.22l-4.15-4.14a1.112,1.112,0,0,0-.79-.33h-25.9a1.136,1.136,0,0,0-.8.33l-4.14,4.14a1.136,1.136,0,0,0-.33.8v9.56a1.136,1.136,0,0,0,.33.8l4.14,4.14a1.135,1.135,0,0,0,.8.33h25.9a1.112,1.112,0,0,0,.79-.33l4.15-4.14a1.136,1.136,0,0,0,.33-.8v-9.56A1.136,1.136,0,0,0,1294.87,421.22Zm-1.93,9.9-3.48,3.47H1264.5l-3.48-3.47v-8.63l3.48-3.48h24.96l3.48,3.48Z" fill="#fff"/>
      <path id="Path_16776" data-name="Path 16776" d="M1292.94,422.49v8.63l-3.48,3.47H1264.5l-3.48-3.47v-8.63l3.48-3.48h24.96Z" fill="#73793b"/>
    </g>
  </g>
</svg>
