<svg xmlns="http://www.w3.org/2000/svg" width="56" height="56" viewBox="0 0 56 56">
  <g id="Group_6401" data-name="Group 6401" transform="translate(-52 -5862)">
    <path id="Path_16761" data-name="Path 16761" d="M0,0H56V56H0Z" transform="translate(52 5862)" fill="#fff" opacity="0"/>
    <g id="Group_6424" data-name="Group 6424" transform="translate(-1372.06 5462.73)">
      <path id="Path_8466" data-name="Path 8466" d="M1471.6,420.94v-.01c-.02-.02-.02-.04-.03-.05a.528.528,0,0,0-.08-.17v-.01s0-.02-.01-.02l-6.85-9.95a1.125,1.125,0,0,0-.94-.46h-24.31a1.11,1.11,0,0,0-.95.48l-5.08,8.11-1.16,1.84a.921.921,0,0,0-.09.23.851.851,0,0,0-.04.23,1.458,1.458,0,0,0,.03.19.318.318,0,0,0,.03.09,1.02,1.02,0,0,0,.07.15c0,.02.01.03.02.05l.06.06c0,.01.01.01.01.02l.11.11.09.11,18.5,21.02a1.157,1.157,0,0,0,.87.37,1.121,1.121,0,0,0,.86-.37l18.57-21.1c.01-.01.04-.02.04-.04a.219.219,0,0,0,.09-.1.076.076,0,0,0,.02-.04.17.17,0,0,0,.06-.06c.01-.01.03-.02.01-.03a.5.5,0,0,0,.1-.19c0-.02.01-.03.01-.05v-.01l.02-.16v-.02A.779.779,0,0,0,1471.6,420.94Zm-2.65.47-.6.69-16.5,18.74-16.5-18.74-.62-.7-.3-.34.09-.14.46-.7.14-.22,1.1-1.76c.01-.03.02-.03.02-.05l3.79-6.04h23.04l4.31,6.26,1.24,1.81h-.01l.49.71.12.18Z" fill="#fff"/>
      <path id="Path_16777" data-name="Path 16777" d="M1469.22,421.11l-.27.3-.6.69-16.5,18.74-16.5-18.74-.62-.7-.3-.34.09-.14.46-.7.14-.22,1.1-1.76c.01-.03.02-.03.02-.05l3.79-6.04h23.04l4.31,6.26,1.24,1.81h-.01l.49.71Z" fill="#2c2c2c"/>
    </g>
  </g>
</svg>
