<svg xmlns="http://www.w3.org/2000/svg" width="56" height="56" viewBox="0 0 56 56">
  <g id="Group_6401" data-name="Group 6401" transform="translate(-52 -5862)">
    <path id="Path_16761" data-name="Path 16761" d="M0,0H56V56H0Z" transform="translate(52 5862)" fill="#fff" opacity="0"/>
    <g id="Group_6425" data-name="Group 6425" transform="translate(-1544.856 5462.73)">
      <path id="Path_8467" data-name="Path 8467" d="M1644.39,420.98a.7.7,0,0,0-.12-.28.037.037,0,0,0-.01-.03l-6.85-9.94a1.125,1.125,0,0,0-.94-.46h-24.3a1.113,1.113,0,0,0-.96.49l-6.23,9.95a.73.73,0,0,0-.11.29c0,.02-.01.04-.01.07a.967.967,0,0,0,.02.29v.03a1.15,1.15,0,0,0,.12.25c.01.02.03.03.04.05s.01.02.02.03l18.7,21.24a1.2,1.2,0,0,0,1.69.05c.01-.02.03-.03.04-.05l18.7-21.24c.01-.01.01-.02.02-.04a.433.433,0,0,0,.06-.07.749.749,0,0,0,.1-.2c0-.01.01-.02.01-.03a.653.653,0,0,0,.02-.31v-.05C1644.4,421.01,1644.39,420.99,1644.39,420.98Zm-19.75,19.85-16.5-18.74h32.99Zm-16.88-20.62,5.06-8.07h23.03l5.56,8.07Z" fill="#fff"/>
      <path id="Path_16778" data-name="Path 16778" d="M1641.41,420.21h-33.65l5.06-8.07h23.03Z" fill="#2c2c2c"/>
      <path id="Path_16779" data-name="Path 16779" d="M1641.13,422.09l-16.49,18.74-16.5-18.74Z" fill="#2c2c2c"/>
    </g>
  </g>
</svg>
