<svg xmlns="http://www.w3.org/2000/svg" width="56" height="56" viewBox="0 0 56 56">
  <g id="Group_6401" data-name="Group 6401" transform="translate(-52 -5862)">
    <path id="Path_16761" data-name="Path 16761" d="M0,0H56V56H0Z" transform="translate(52 5862)" fill="#fff" opacity="0"/>
    <g id="Group_6432" data-name="Group 6432" transform="translate(-1832.906 5462.81)">
      <path id="Path_8468" data-name="Path 8468" d="M1930.43,420.79a1.293,1.293,0,0,0-.07-.21.336.336,0,0,0-.05-.12l-5.1-7.03-.04-.12a1.149,1.149,0,0,0-.69-.53.389.389,0,0,0-.15-.02l-5.47-2.49-.26-.08h-11.71l-.2.02-5.96,2.62a1.111,1.111,0,0,0-.61.63l-5.01,6.89-.05.11-.04.07a1.135,1.135,0,0,0-.09.26l-.02.16a1.132,1.132,0,0,0,.01.26l.03.13a1.233,1.233,0,0,0,.12.26l16.7,21.36.08.08a1.093,1.093,0,0,0,.29.23l.09.04a1.018,1.018,0,0,0,.45.1,1.036,1.036,0,0,0,.43-.09l.11-.05a1.091,1.091,0,0,0,.29-.23l16.71-21.32.05-.09a.513.513,0,0,0,.1-.21l.06-.22a1.1,1.1,0,0,0,.02-.26Zm-23.25-8.33h11l3.43,1.55-3.99,2.26h-9.87l-4.03-2.27Zm11.3,13.01h-11.6l1.49-6.93H1917Zm-16.94-10.09,4.63,2.6-1.47,6.85-7.01-4.15Zm-.9,9.69,3.95,2.33,3.01,6.56Zm12.04,14.5-5.43-11.83h10.87Zm5.07-5.61,3.02-6.56,3.95-2.33Zm2.92-9.13-1.47-6.85,4.62-2.6,3.86,5.3Z" fill="#fff"/>
      <path id="Path_16780" data-name="Path 16780" d="M1921.61,414.01l-3.99,2.26h-9.87l-4.03-2.27,3.46-1.54h11Z" fill="#2c2c2c"/>
      <path id="Path_16781" data-name="Path 16781" d="M1906.17,417.98l-1.47,6.85-7.01-4.15,3.85-5.3Z" fill="#2c2c2c"/>
      <path id="Path_16782" data-name="Path 16782" d="M1918.48,425.47h-11.6l1.49-6.93H1917Z" fill="#2c2c2c"/>
      <path id="Path_16783" data-name="Path 16783" d="M1924.72,425.07l-6.97,8.89,3.02-6.56Z" fill="#2c2c2c"/>
      <path id="Path_16784" data-name="Path 16784" d="M1927.68,420.68l-7.01,4.15-1.47-6.85,4.62-2.6Z" fill="#2c2c2c"/>
      <path id="Path_16785" data-name="Path 16785" d="M1918.12,427.74l-5.44,11.83-5.43-11.83Z" fill="#2c2c2c"/>
      <path id="Path_16786" data-name="Path 16786" d="M1907.6,433.96l-6.96-8.89,3.95,2.33Z" fill="#2c2c2c"/>
    </g>
  </g>
</svg>
