<svg xmlns="http://www.w3.org/2000/svg" width="56" height="56" viewBox="0 0 56 56">
  <g id="Group_6401" data-name="Group 6401" transform="translate(-52 -5862)">
    <path id="Path_16761" data-name="Path 16761" d="M0,0H56V56H0Z" transform="translate(52 5862)" fill="#fff" opacity="0"/>
    <g id="Group_6443" data-name="Group 6443" transform="translate(-2652.874 5464.61)">
      <path id="Path_8492" data-name="Path 8492" d="M2756.62,418.91a1.087,1.087,0,0,0-1.13-.19c-1.47.4-2.96.87-4.57,1.43a6.021,6.021,0,0,0-1.52.91,3.3,3.3,0,0,0-1.56,2.68,5.022,5.022,0,0,1-.48,1.7l-.04.1a6.218,6.218,0,0,1-2.1,2.42l-.3.25a3.038,3.038,0,0,1-2.47.69,2.51,2.51,0,0,1-1.75-1.23c-1.68-2.92-1.63-4.39.18-6.04a1.639,1.639,0,0,0,.21-.25l.08-.09a3.63,3.63,0,0,0,.75-3.58,12.815,12.815,0,0,0-1.63-3.19,26.393,26.393,0,0,0-6.6-5.82,1.366,1.366,0,0,0-1.78.04c-.49.38-.98.75-1.47,1.12-.93.7-1.89,1.43-2.8,2.19a13.512,13.512,0,0,0-3.28,3.94c-1.29,2.39-1.09,4.06.71,5.95a3.3,3.3,0,0,1,.89,3.28,7.664,7.664,0,0,1-.62,1.8,3.454,3.454,0,0,1-1.94,1.83,2.92,2.92,0,0,1-2.25-.37,7.41,7.41,0,0,1-1.61-1.34l-.44-.44a5.131,5.131,0,0,1-1.35-3.23,3.41,3.41,0,0,0-.75-1.7,4.443,4.443,0,0,0-1.65-1.27c-1.68-.68-3.42-1.25-4.9-1.73-.35-.11-1.11-.13-1.38.23a1.672,1.672,0,0,0-.08,1.4c.99,3.14,1.9,5.92,2.78,8.49a29.341,29.341,0,0,1,1.42,11.43,1.606,1.606,0,0,0,.24,1.24c.25.26.64.32,1.29.32h36.19c1.31,0,1.56-.26,1.57-1.59,0-.56-.01-1.13-.02-1.71a22.913,22.913,0,0,1,.18-4.38,58.048,58.048,0,0,1,1.71-6.66l.34-1.16c.41-1.38.88-2.76,1.34-4.1.25-.73.5-1.45.74-2.18A1.145,1.145,0,0,0,2756.62,418.91Zm-2.69,3.37c-.42,1.21-.82,2.36-1.16,3.55l-.24.84c-.69,2.4-1.39,4.88-1.87,7.37a18.242,18.242,0,0,0-.19,3.62c.01.53.02,1.07,0,1.6v.6h-35.31v-.55a27.956,27.956,0,0,0-1.55-10.99c-.55-1.62-1.07-3.29-1.58-4.91-.22-.72-.45-1.44-.68-2.15a1.833,1.833,0,0,1-.07-.32l.63.25c.83.34,1.65.67,2.47,1.02a3.85,3.85,0,0,1,.81.52,1.412,1.412,0,0,1,.63,1.17,6.518,6.518,0,0,0,1.95,4.37,11.272,11.272,0,0,0,2.33,1.86,4.682,4.682,0,0,0,6.48-1.37,3.424,3.424,0,0,0,.19-.32,7.17,7.17,0,0,0,1.19-5.15,5.487,5.487,0,0,0-.82-1.81l-.2-.33a5.031,5.031,0,0,0-.61-.77q-.18-.18-.33-.36a1.752,1.752,0,0,1-.37-1.86,13.261,13.261,0,0,1,1.51-2.73,22.927,22.927,0,0,1,5.48-4.77.526.526,0,0,1,.37-.02,23.437,23.437,0,0,1,5.75,5.08,10.97,10.97,0,0,1,1.25,2.34,1.883,1.883,0,0,1-.4,2.03c-.05.06-.09.12-.14.18a2.887,2.887,0,0,1-.28.32c-1.61,1.54-2,3.47-1.2,5.91a10.513,10.513,0,0,0,1.02,2.14,4.682,4.682,0,0,0,6.07,1.75,8.25,8.25,0,0,0,4.68-5.72l.03-.1a1.518,1.518,0,0,0,.06-.67,1.113,1.113,0,0,1,.5-1.07,10.746,10.746,0,0,1,4.04-1.8C2754.22,421.45,2754.08,421.87,2753.93,422.28Z" fill="#fff"/>
      <path id="Path_16804" data-name="Path 16804" d="M2754.37,421.03c-.15.42-.29.84-.44,1.25-.42,1.21-.82,2.36-1.16,3.55l-.24.84c-.69,2.4-1.39,4.88-1.87,7.37a18.242,18.242,0,0,0-.19,3.62c.01.53.02,1.07,0,1.6v.6h-35.31v-.55a27.956,27.956,0,0,0-1.55-10.99c-.55-1.62-1.07-3.29-1.58-4.91-.22-.72-.45-1.44-.68-2.15a1.833,1.833,0,0,1-.07-.32l.63.25c.83.34,1.65.67,2.47,1.02a3.85,3.85,0,0,1,.81.52,1.412,1.412,0,0,1,.63,1.17,6.518,6.518,0,0,0,1.95,4.37,11.272,11.272,0,0,0,2.33,1.86,4.682,4.682,0,0,0,6.48-1.37,3.424,3.424,0,0,0,.19-.32,7.17,7.17,0,0,0,1.19-5.15,5.487,5.487,0,0,0-.82-1.81l-.2-.33a5.031,5.031,0,0,0-.61-.77q-.18-.18-.33-.36a1.752,1.752,0,0,1-.37-1.86,13.261,13.261,0,0,1,1.51-2.73,22.927,22.927,0,0,1,5.48-4.77.526.526,0,0,1,.37-.02,23.437,23.437,0,0,1,5.75,5.08,10.97,10.97,0,0,1,1.25,2.34,1.883,1.883,0,0,1-.4,2.03c-.05.06-.09.12-.14.18a2.887,2.887,0,0,1-.28.32c-1.61,1.54-2,3.47-1.2,5.91a10.513,10.513,0,0,0,1.02,2.14,4.682,4.682,0,0,0,6.07,1.75,8.25,8.25,0,0,0,4.68-5.72l.03-.1a1.518,1.518,0,0,0,.06-.67,1.113,1.113,0,0,1,.5-1.07A10.746,10.746,0,0,1,2754.37,421.03Z" fill="#2c2c2c"/>
    </g>
  </g>
</svg>
