<svg xmlns="http://www.w3.org/2000/svg" width="56" height="56" viewBox="0 0 56 56">
  <g id="Group_6401" data-name="Group 6401" transform="translate(-48 -5858)">
    <path id="Path_16761" data-name="Path 16761" d="M0,0H56V56H0Z" transform="translate(48 5858)" fill="#fff" opacity="0"/>
    <g id="Group_6434" data-name="Group 6434" transform="translate(-2011.123 5458.815)">
      <path id="Path_8473" data-name="Path 8473" d="M2059.35,426.813l.072.085a1.1,1.1,0,0,1-.133-.194A.459.459,0,0,0,2059.35,426.813Z" fill="#2c2c2c"/>
      <path id="Path_8474" data-name="Path 8474" d="M2115.062,420.737a.153.153,0,0,0-.012-.073c-.012-.024-.012-.049-.025-.061v-.012a1.289,1.289,0,0,0-.06-.133h-.012v-.024a.252.252,0,0,1-.049-.073c-.012-.012-.036-.037-.036-.049l-.037-.036-3.541-4.888-1.419-1.952-.048-.061-.085-.121a1.517,1.517,0,0,0-.437-.352l-.315-.145-5.458-2.475a1.439,1.439,0,0,0-.449-.1h-11.531a1.358,1.358,0,0,0-.436.1l-1.092.495,1.334,1.778.443-.2h11.06l3.578,1.589-.024.012.012.012.958.437.522.23.254.122.364.509,3.93,5.409.218.3-.8,1.031-.777.995-.012.012-1.455,1.843-6.125,7.847-1.334,1.7-2.268,2.886-1.237,1.577-1.334,1.71-1.334-1.71-1.261-1.6-2.232-2.85-1.346-1.71-1.351-1.727-1.369,1.75,7.971,10.177a.2.2,0,0,0,.073.1.58.58,0,0,0,.073.085.527.527,0,0,0,.182.145c.012.012.024.024.036.024a.815.815,0,0,0,.255.11.98.98,0,0,0,.606,0,.816.816,0,0,0,.255-.11c.012,0,.024-.012.036-.024a.525.525,0,0,0,.182-.145.6.6,0,0,0,.073-.085.2.2,0,0,0,.073-.1l16.554-21.152a.733.733,0,0,0,.146-.194.154.154,0,0,0,.036-.048.773.773,0,0,0,.085-.255.953.953,0,0,0,.037-.254A1,1,0,0,0,2115.062,420.737Z" fill="#fff"/>
      <path id="Path_8475" data-name="Path 8475" d="M2094.4,426.9l.073-.085a.5.5,0,0,0,.061-.109A1.108,1.108,0,0,1,2094.4,426.9Z" fill="#2c2c2c"/>
      <path id="Path_8476" data-name="Path 8476" d="M2094.381,422.538l-6.816,8.72,6.828-8.72a1.122,1.122,0,0,0,.134-.194A.755.755,0,0,1,2094.381,422.538Z" fill="#2c2c2c"/>
      <path id="Path_8477" data-name="Path 8477" d="M2094.65,420.74c-.01-.05-.03-.09-.04-.14v-.01c-.02-.05-.05-.08-.07-.13v-.03a.179.179,0,0,1-.05-.07c-.01-.01-.04-.04-.04-.05l-.03-.03-3.54-4.89-1.42-1.95-.05-.06-.09-.13a1.612,1.612,0,0,0-.43-.35l-.32-.14-.14-.08-2.64-1.18-2.68-1.22a1.329,1.329,0,0,0-.44-.09h-11.54a1.224,1.224,0,0,0-.43.09l-5.46,2.48-.32.14a1.615,1.615,0,0,0-.43.35l-.09.13-.05.06-1.42,1.95-3.57,4.92-.04.05c-.01.03-.04.05-.05.07v.03h-.01c-.02.04-.04.09-.06.13v.01c-.01.02-.01.04-.03.06a.22.22,0,0,0-.01.08v.02a.855.855,0,0,0,0,.5v.02a.917.917,0,0,0,.09.23c.01.02.01.04.03.05a.958.958,0,0,0,.15.2l16.55,21.15a.176.176,0,0,0,.08.09.561.561,0,0,0,.07.09.489.489,0,0,0,.18.14c.01.02.02.03.04.03a.7.7,0,0,0,.25.11,1.056,1.056,0,0,0,.61,0,.8.8,0,0,0,.25-.11.054.054,0,0,0,.04-.03.488.488,0,0,0,.18-.14.55.55,0,0,0,.07-.09.176.176,0,0,0,.08-.09l7.96-10.18,1.37-1.75.41-.5,6.81-8.72a.951.951,0,0,0,.15-.2.219.219,0,0,0,.03-.05.75.75,0,0,0,.09-.25,1.141,1.141,0,0,0,0-.52Zm-3.19,1.27-.79.99-.01.02-1.45,1.84-3.42,4.37-1.37,1.75-1.34,1.73-1.34,1.69-2.26,2.89-1.24,1.58-1.34,1.71-1.33-1.71-1.26-1.6-2.23-2.85-1.35-1.71-6.12-7.85-1.46-1.84-.01-.02-.78-.99-.8-1.03.22-.3,3.93-5.41.36-.51.26-.12.52-.23.96-.44.01-.01-.02-.01,3.57-1.59h11.07l3.55,1.6.01.01.96.44.52.23.26.12.36.51,3.94,5.41.22.3Z" fill="#fff"/>
      <path id="Path_16788" data-name="Path 16788" d="M2092.26,420.98l-.8,1.03-.79.99-.01.02-1.45,1.84-3.42,4.37-1.37,1.75-1.34,1.73-1.34,1.69-2.26,2.89-1.24,1.58-1.34,1.71-1.33-1.71-1.26-1.6-2.23-2.85-1.35-1.71-6.12-7.85-1.46-1.84-.01-.02-.78-.99-.8-1.03.22-.3,3.93-5.41.36-.51.26-.12.52-.23.96-.44.01-.01-.02-.01,3.57-1.59h11.07l3.55,1.6.01.01.96.44.52.23.26.12.36.51,3.94,5.41Z" fill="#2c2c2c"/>
    </g>
  </g>
</svg>
