<svg xmlns="http://www.w3.org/2000/svg" width="56" height="56" viewBox="0 0 56 56">
  <g id="Group_6401" data-name="Group 6401" transform="translate(-48 -5858)">
    <path id="Path_16761" data-name="Path 16761" d="M0,0H56V56H0Z" transform="translate(48 5858)" fill="#fff" opacity="0"/>
    <g id="Group_6436" data-name="Group 6436" transform="translate(-2185.716 5458.815)">
      <path id="Path_8478" data-name="Path 8478" d="M2269.24,420.79a.742.742,0,0,0-.07-.21.338.338,0,0,0-.05-.12l-5.09-7.03-.05-.12a1.149,1.149,0,0,0-.69-.53.39.39,0,0,0-.15-.02l-5.47-2.49-.25-.08H2245.7l-.2.02-5.96,2.62a1.1,1.1,0,0,0-.6.63l-5.01,6.89-.06.11-.04.07a1.141,1.141,0,0,0-.09.26l-.02.16a.763.763,0,0,0,.02.26l.02.13a1.239,1.239,0,0,0,.12.26l16.71,21.36.07.08a1.1,1.1,0,0,0,.29.23l.1.04a.976.976,0,0,0,.44.1,1.117,1.117,0,0,0,.44-.09l.1-.05a1.336,1.336,0,0,0,.3-.23l16.7-21.32.06-.09a.686.686,0,0,0,.1-.21l.06-.22a1.11,1.11,0,0,0,.01-.26Zm-23.25-8.33H2257l3.43,1.55-4,2.26h-9.86l-4.04-2.27Zm11.31,13.01h-11.61l1.49-6.93h8.63Zm-16.94-10.09,4.62,2.6-1.47,6.85-7.01-4.15Zm-.9,9.69,3.94,2.33,3.02,6.56Zm12.04,14.5-5.43-11.83h10.87Zm5.07-5.61,3.01-6.56,3.95-2.33Zm2.92-9.13-1.47-6.85,4.62-2.6,3.86,5.3Z" fill="#fff"/>
      <path id="Path_16789" data-name="Path 16789" d="M2260.43,414.01l-4,2.26h-9.86l-4.04-2.27,3.46-1.54H2257Z" fill="#2c2c2c"/>
      <path id="Path_16790" data-name="Path 16790" d="M2244.98,417.98l-1.47,6.85-7.01-4.15,3.86-5.3Z" fill="#2c2c2c"/>
      <path id="Path_16791" data-name="Path 16791" d="M2257.3,425.47h-11.61l1.49-6.93h8.63Z" fill="#2c2c2c"/>
      <path id="Path_16792" data-name="Path 16792" d="M2266.5,420.68l-7.01,4.15-1.47-6.85,4.62-2.6Z" fill="#2c2c2c"/>
      <path id="Path_16793" data-name="Path 16793" d="M2263.53,425.07l-6.96,8.89,3.01-6.56Z" fill="#2c2c2c"/>
      <path id="Path_16794" data-name="Path 16794" d="M2256.94,427.74l-5.44,11.83-5.43-11.83Z" fill="#2c2c2c"/>
      <path id="Path_16795" data-name="Path 16795" d="M2246.42,433.96l-6.96-8.89,3.94,2.33Z" fill="#2c2c2c"/>
      <path id="Path_8479" data-name="Path 8479" d="M2233.939,426.813l.073.085a1.122,1.122,0,0,1-.134-.194A.516.516,0,0,0,2233.939,426.813Z" fill="#2c2c2c"/>
      <path id="Path_8480" data-name="Path 8480" d="M2289.65,420.737a.15.15,0,0,0-.012-.073c-.012-.024-.012-.049-.024-.061v-.012a1.353,1.353,0,0,0-.061-.133h-.012v-.024a.274.274,0,0,1-.049-.073c-.012-.012-.036-.037-.036-.049l-.036-.036-3.542-4.888-1.419-1.952-.048-.061-.085-.121a1.488,1.488,0,0,0-.437-.352l-.315-.145-5.458-2.475a1.432,1.432,0,0,0-.448-.1h-11.534a1.364,1.364,0,0,0-.437.1l-1.091.495,1.334,1.778.441-.2h11.061l3.578,1.589-.024.012.012.012.958.437.521.23.255.122.364.509,3.929,5.409.219.3-.8,1.031-.776.995-.012.012-1.456,1.843-6.124,7.847-1.334,1.7-2.268,2.886-1.237,1.577-1.334,1.71-1.334-1.71-1.262-1.6-2.231-2.85-1.346-1.71-1.35-1.727-1.369,1.75,7.97,10.177a.2.2,0,0,0,.073.1.916.916,0,0,0,.255.23c.012.012.024.024.036.024a.815.815,0,0,0,.255.11.981.981,0,0,0,.606,0,.815.815,0,0,0,.255-.11c.012,0,.024-.012.036-.024a.527.527,0,0,0,.182-.145.58.58,0,0,0,.073-.085.2.2,0,0,0,.073-.1l16.554-21.152a.728.728,0,0,0,.146-.194.154.154,0,0,0,.036-.048.774.774,0,0,0,.085-.255.953.953,0,0,0,.037-.254A.992.992,0,0,0,2289.65,420.737Z" fill="#fff"/>
    </g>
  </g>
</svg>
