<svg xmlns="http://www.w3.org/2000/svg" width="56" height="56" viewBox="0 0 56 56">
  <g id="Group_6401" data-name="Group 6401" transform="translate(-52 -5862)">
    <path id="Path_16761" data-name="Path 16761" d="M0,0H56V56H0Z" transform="translate(52 5862)" fill="#fff" opacity="0"/>
    <g id="Group_6433" data-name="Group 6433" transform="translate(-1658.311 5462.815)">
      <path id="Path_8469" data-name="Path 8469" d="M1755.585,426.9l.073-.085a.464.464,0,0,0,.06-.109A1.11,1.11,0,0,1,1755.585,426.9Z" fill="#2c2c2c"/>
      <path id="Path_8470" data-name="Path 8470" d="M1755.846,420.737c-.012-.049-.024-.085-.037-.134v-.012c-.024-.048-.048-.085-.072-.133v-.024a.25.25,0,0,1-.049-.073c-.012-.012-.036-.037-.036-.049l-.037-.036-3.541-4.888-1.419-1.952-.048-.061-.085-.121a1.515,1.515,0,0,0-.437-.352l-.315-.145-5.458-2.475a1.438,1.438,0,0,0-.449-.1h-11.545a1.366,1.366,0,0,0-.437.1l-5.458,2.475-.315.145a1.515,1.515,0,0,0-.437.352l-.084.121-.049.061-1.419,1.952-3.578,4.924-.036.049c-.012.024-.036.048-.049.073v.024h-.012c-.022.043-.042.088-.06.133v.012c-.012.012-.012.037-.025.061a.164.164,0,0,0-.012.073v.024a.874.874,0,0,0,0,.5v.024a.9.9,0,0,0,.085.231c.012.012.012.036.037.048a.709.709,0,0,0,.145.194l16.555,21.152a.19.19,0,0,0,.073.1.58.58,0,0,0,.072.085.545.545,0,0,0,.182.145c.012.012.024.024.037.024a.82.82,0,0,0,.254.11.984.984,0,0,0,.607,0,.82.82,0,0,0,.254-.11c.013,0,.025-.012.037-.024a.543.543,0,0,0,.182-.145.573.573,0,0,0,.072-.085.189.189,0,0,0,.073-.1l16.567-21.152a1.039,1.039,0,0,0,.133-.194.159.159,0,0,0,.037-.048.817.817,0,0,0,.085-.255.91.91,0,0,0,.036-.254A.994.994,0,0,0,1755.846,420.737ZM1738.1,440.578l-1.334-1.71-1.262-1.6-2.231-2.85-1.347-1.71-6.124-7.847-1.456-1.843-.012-.012-.776-.995-.8-1.031.218-.3,3.929-5.409.364-.509.255-.122.522-.23.958-.437.012-.012-.025-.012,3.578-1.589h11.061l3.553,1.6.013.012.958.437.521.23.255.122.364.509,3.941,5.409.219.3-.8,1.031-.788.995-.012.012-1.444,1.843-6.136,7.847-1.334,1.7-2.268,2.886-1.237,1.577Z" fill="#2c2c2c"/>
      <path id="Path_8471" data-name="Path 8471" d="M1720.475,426.7a.464.464,0,0,0,.06.109l.073.085A1.11,1.11,0,0,1,1720.475,426.7Z" fill="#2c2c2c"/>
      <path id="Path_8472" data-name="Path 8472" d="M1755.85,420.74a.235.235,0,0,0-.02-.08c-.01-.02-.01-.04-.02-.06v-.01c-.02-.04-.04-.09-.06-.13h-.01v-.03a.179.179,0,0,1-.05-.07c-.01-.01-.04-.04-.04-.05l-.03-.03-3.55-4.89-1.41-1.95-.05-.06-.09-.13a1.612,1.612,0,0,0-.43-.35l-.32-.14-5.46-2.48a1.336,1.336,0,0,0-.45-.09h-11.54a1.329,1.329,0,0,0-.44.09l-5.46,2.48-.31.14a1.512,1.512,0,0,0-.44.35l-.08.13-.05.06-1.42,1.95-3.58,4.92-.04.05a.433.433,0,0,1-.04.07v.03c-.03.05-.05.08-.08.13v.01c-.01.05-.02.09-.03.14v.02a.853.853,0,0,0,0,.5v.02a.631.631,0,0,0,.08.23c.01.02.01.04.04.05a1.382,1.382,0,0,0,.13.2l16.57,21.15a.159.159,0,0,0,.07.09c.02.03.05.06.07.09a.522.522,0,0,0,.19.14q.015.03.03.03a.847.847,0,0,0,.26.11,1.022,1.022,0,0,0,.6,0,.85.85,0,0,0,.26-.11q.015,0,.03-.03a.451.451,0,0,0,.19-.14c.02-.03.05-.06.07-.09a.16.16,0,0,0,.07-.09l16.56-21.15a.9.9,0,0,0,.14-.2.1.1,0,0,0,.04-.05.732.732,0,0,0,.08-.25.745.745,0,0,0,.04-.26A1.1,1.1,0,0,0,1755.85,420.74Zm-3.21,1.27-.77.99-.01.02-1.46,1.84-6.12,7.85-1.34,1.69-2.27,2.89-1.23,1.58-1.34,1.71-1.33-1.71-1.26-1.6-2.23-2.85-1.35-1.71-6.14-7.85-1.44-1.84-.01-.02-.79-.99-.8-1.03.22-.3,3.94-5.41.36-.51.26-.12.52-.23.96-.44.01-.01,3.55-1.6h11.06l3.58,1.58-.02.02.01.01.96.44.52.23.25.12.37.51,3.93,5.41.21.3Z" fill="#fff"/>
      <path id="Path_16787" data-name="Path 16787" d="M1753.44,420.98l-.8,1.03-.77.99-.01.02-1.46,1.84-6.12,7.85-1.34,1.69-2.27,2.89-1.23,1.58-1.34,1.71-1.33-1.71-1.26-1.6-2.23-2.85-1.35-1.71-6.14-7.85-1.44-1.84-.01-.02-.79-.99-.8-1.03.22-.3,3.94-5.41.36-.51.26-.12.52-.23.96-.44.01-.01,3.55-1.6h11.06l3.58,1.58-.02.02.01.01.96.44.52.23.25.12.37.51,3.93,5.41Z" fill="#2c2c2c"/>
    </g>
  </g>
</svg>
