<svg xmlns="http://www.w3.org/2000/svg" width="56.385" height="56" viewBox="0 0 56.385 56">
  <g id="Group_6401" data-name="Group 6401" transform="translate(-47.615 -5858)">
    <path id="Path_16761" data-name="Path 16761" d="M0,0H56V56H0Z" transform="translate(48 5858)" fill="#fff" opacity="0"/>
    <g id="Group_6438" data-name="Group 6438" transform="translate(-2349.767 5463.815)">
      <path id="Path_8481" data-name="Path 8481" d="M2467.215,417.841a.112.112,0,0,0-.009-.053c-.009-.017-.009-.036-.018-.044v-.009a1.006,1.006,0,0,0-.044-.1h-.009v-.017a.182.182,0,0,1-.035-.053c-.009-.009-.026-.027-.026-.036l-.027-.026-2.569-3.546-1.028-1.416-.035-.044-.062-.088a1.083,1.083,0,0,0-.316-.255l-.229-.105-3.959-1.8a1.046,1.046,0,0,0-.326-.07h-8.368a.984.984,0,0,0-.316.07l-.792.359.968,1.29.321-.144h8.024l2.6,1.153-.017.009.009.009.7.317.378.167.185.089.264.369,2.851,3.924.159.22-.581.748-.563.722-.009.009-1.056,1.337-4.444,5.693-.968,1.232-1.646,2.094-.9,1.144-.968,1.241-.968-1.241-.915-1.162-1.619-2.068-.977-1.241-.98-1.253-.993,1.27,5.782,7.384a.144.144,0,0,0,.053.07.438.438,0,0,0,.053.062.38.38,0,0,0,.132.105c.009.009.017.017.026.017a.593.593,0,0,0,.185.08.711.711,0,0,0,.44,0,.593.593,0,0,0,.185-.08c.009,0,.017-.009.026-.017a.384.384,0,0,0,.132-.105.421.421,0,0,0,.053-.062.141.141,0,0,0,.053-.07l12.011-15.347a.521.521,0,0,0,.105-.141.128.128,0,0,0,.027-.035.579.579,0,0,0,.061-.185.665.665,0,0,0,.027-.184A.75.75,0,0,0,2467.215,417.841Z" transform="translate(-13.864)" fill="#fff"/>
      <path id="Path_8482" data-name="Path 8482" d="M2397.8,417.841a.107.107,0,0,1,.009-.053c.009-.017.009-.036.018-.044v-.009a1.01,1.01,0,0,1,.044-.1h.009v-.017a.2.2,0,0,0,.035-.053c.009-.009.027-.027.027-.036l.026-.026,2.569-3.546,1.029-1.416.036-.044.062-.088a1.087,1.087,0,0,1,.316-.255l.229-.105,3.959-1.8a1.047,1.047,0,0,1,.326-.07h8.368a.984.984,0,0,1,.316.07l.792.359L2415,411.9l-.321-.144h-8.024l-2.6,1.153.017.009-.009.009-.695.317-.379.167-.184.089-.264.369-2.851,3.924-.158.22.581.748.563.722.009.009,1.056,1.337,4.444,5.693.968,1.232,1.646,2.094.9,1.144.968,1.241.968-1.241.915-1.162,1.62-2.068.976-1.241.98-1.253.993,1.27-5.783,7.384a.142.142,0,0,1-.053.07.425.425,0,0,1-.053.062.383.383,0,0,1-.132.105c-.009.009-.018.017-.026.017a.59.59,0,0,1-.185.08.711.711,0,0,1-.44,0,.593.593,0,0,1-.185-.08c-.009,0-.017-.009-.027-.017a.386.386,0,0,1-.131-.105.381.381,0,0,1-.053-.062.141.141,0,0,1-.053-.07l-12.011-15.347a.51.51,0,0,1-.1-.141.107.107,0,0,1-.027-.035.587.587,0,0,1-.062-.185.683.683,0,0,1-.026-.184A.728.728,0,0,1,2397.8,417.841Z" transform="translate(-0.106)" fill="#fff"/>
      <path id="Path_8483" data-name="Path 8483" d="M2453.66,426.845l.053-.062a.365.365,0,0,0,.044-.079A.806.806,0,0,1,2453.66,426.845Z" transform="translate(-15.446 -4.534)" fill="#2c2c2c"/>
      <path id="Path_8484" data-name="Path 8484" d="M2451.771,422.485l-4.945,6.327,4.954-6.327a.8.8,0,0,0,.1-.141A.545.545,0,0,1,2451.771,422.485Z" transform="translate(-13.57 -3.337)" fill="#2c2c2c"/>
      <path id="Path_8485" data-name="Path 8485" d="M2444.159,417.844c-.007-.036-.022-.065-.029-.1v-.007c-.014-.036-.036-.058-.051-.094v-.022a.132.132,0,0,1-.036-.051c-.007-.007-.029-.029-.029-.036l-.022-.022-2.568-3.548-1.03-1.415-.036-.044-.065-.094a1.169,1.169,0,0,0-.312-.254l-.232-.1-.1-.058-1.915-.856-1.945-.885a.963.963,0,0,0-.319-.065h-8.373a.888.888,0,0,0-.312.065l-3.961,1.8-.232.1a1.169,1.169,0,0,0-.312.254l-.065.094-.036.044-1.03,1.415-2.59,3.57-.029.036c-.007.022-.029.036-.036.051v.022h-.007c-.015.029-.029.065-.044.094v.007c-.007.014-.007.029-.022.044a.158.158,0,0,0-.007.058v.015a.621.621,0,0,0,0,.363v.014a.67.67,0,0,0,.065.167c.007.015.007.029.022.036a.693.693,0,0,0,.109.145l12.008,15.345a.128.128,0,0,0,.058.065.41.41,0,0,0,.051.065.352.352,0,0,0,.131.1c.007.015.014.022.029.022a.512.512,0,0,0,.181.08.765.765,0,0,0,.442,0,.577.577,0,0,0,.181-.08.039.039,0,0,0,.029-.022.354.354,0,0,0,.131-.1.41.41,0,0,0,.051-.065.128.128,0,0,0,.058-.065l5.775-7.386,1-1.27.291-.363,4.94-6.327a.687.687,0,0,0,.109-.145.168.168,0,0,0,.022-.036.54.54,0,0,0,.065-.181.83.83,0,0,0,0-.377Zm-2.314.921-.573.718-.007.014-1.045,1.335L2437.738,424l-.994,1.27-.979,1.255-.972,1.233-1.64,2.09-.9,1.146-.965,1.241-.972-1.241-.914-1.161-1.618-2.068-.979-1.241-4.44-5.7L2421.3,419.5l-.007-.014-.566-.718-.58-.747.159-.218,2.852-3.925.269-.37.181-.087.377-.167.7-.319.007-.007-.014-.007,2.6-1.154h8.024l2.576,1.161.007.007.7.319.377.167.188.087.261.37,2.859,3.925.16.218Z" transform="translate(-5.764 -0.001)" fill="#fff"/>
      <path id="Path_8485-2" data-name="Path 8485" d="M2444.159,417.844c-.007-.036-.022-.065-.029-.1v-.007c-.014-.036-.036-.058-.051-.094v-.022a.132.132,0,0,1-.036-.051c-.007-.007-.029-.029-.029-.036l-.022-.022-2.568-3.548-1.03-1.415-.036-.044-.065-.094a1.169,1.169,0,0,0-.312-.254l-.232-.1-.1-.058-1.915-.856-1.945-.885a.963.963,0,0,0-.319-.065h-8.373a.888.888,0,0,0-.312.065l-3.961,1.8-.232.1a1.169,1.169,0,0,0-.312.254l-.065.094-.036.044-1.03,1.415-2.59,3.57-.029.036c-.007.022-.029.036-.036.051v.022h-.007c-.015.029-.029.065-.044.094v.007c-.007.014-.007.029-.022.044a.158.158,0,0,0-.007.058v.015a.621.621,0,0,0,0,.363v.014a.67.67,0,0,0,.065.167c.007.015.007.029.022.036a.693.693,0,0,0,.109.145l12.008,15.345a.128.128,0,0,0,.058.065.41.41,0,0,0,.051.065.352.352,0,0,0,.131.1c.007.015.014.022.029.022a.512.512,0,0,0,.181.08.765.765,0,0,0,.442,0,.577.577,0,0,0,.181-.08.039.039,0,0,0,.029-.022.354.354,0,0,0,.131-.1.41.41,0,0,0,.051-.065.128.128,0,0,0,.058-.065l5.775-7.386,1-1.27.291-.363,4.94-6.327a.687.687,0,0,0,.109-.145.168.168,0,0,0,.022-.036.54.54,0,0,0,.065-.181.83.83,0,0,0,0-.377Zm-2.314.921-.573.718-.007.014-1.045,1.335L2437.738,424l-.994,1.27-.979,1.255-.972,1.233-1.64,2.09-.9,1.146-.965,1.241-.972-1.241-.914-1.161-1.618-2.068-.979-1.241-4.44-5.7L2421.3,419.5l-.007-.014-.566-.718-.58-.747.159-.218,2.852-3.925.269-.37.181-.087.377-.167.7-.319.007-.007-.014-.007,2.6-1.154h8.024l2.576,1.161.007.007.7.319.377.167.188.087.261.37,2.859,3.925.16.218Z" transform="translate(-21 -0.001)" fill="#fff"/>
      <path id="Path_16796" data-name="Path 16796" d="M2443.094,418.614l-.58.747-.573.718-.007.014-1.045,1.335-2.481,3.171-.994,1.27-.979,1.255-.972,1.233-1.64,2.09-.9,1.146-.965,1.241-.972-1.241-.914-1.161-1.618-2.068-.979-1.241-4.44-5.7-1.059-1.335-.007-.014-.566-.718-.581-.747.16-.218,2.851-3.925.269-.37.181-.087.377-.167.7-.319.007-.007-.015-.007,2.6-1.154h8.024l2.576,1.161.007.007.7.319.377.167.189.087.261.37,2.859,3.925Z" transform="translate(-6.433 -0.597)" fill="#2c2c2c"/>
    </g>
  </g>
</svg>
