<svg xmlns="http://www.w3.org/2000/svg" width="56" height="56" viewBox="0 0 56 56">
  <g id="Group_6401" data-name="Group 6401" transform="translate(-52 -5862)">
    <path id="Path_16761" data-name="Path 16761" d="M0,0H56V56H0Z" transform="translate(52 5862)" fill="#fff" opacity="0"/>
    <g id="Group_6447" data-name="Group 6447" transform="translate(-2916.241 5469.13)">
      <path id="Path_16808" data-name="Path 16808" d="M3012.94,433.33v.03h-33.4a.414.414,0,0,1,.16-.03Z" fill="#2c2c2c"/>
      <path id="Path_8498" data-name="Path 8498" d="M3019.99,410.4a1.071,1.071,0,0,0-1.12-.21c-1.48.41-2.97.88-4.58,1.44a6.542,6.542,0,0,0-1.53.9,3.373,3.373,0,0,0-1.55,2.68,5.013,5.013,0,0,1-.48,1.71l-.04.1a6.277,6.277,0,0,1-2.09,2.42l-.31.25a3.029,3.029,0,0,1-2.47.69,2.481,2.481,0,0,1-1.75-1.23c-1.68-2.92-1.63-4.38.18-6.03.08-.09.15-.17.22-.26l.07-.09a3.586,3.586,0,0,0,.74-3.57,12.082,12.082,0,0,0-1.63-3.2,26.169,26.169,0,0,0-6.59-5.82,1.366,1.366,0,0,0-1.78.04q-.735.57-1.47,1.11c-.93.71-1.9,1.44-2.8,2.2a13.7,13.7,0,0,0-3.29,3.94c-1.29,2.4-1.09,4.06.71,5.95a3.337,3.337,0,0,1,.91,3.28,8.456,8.456,0,0,1-.63,1.81,3.449,3.449,0,0,1-1.94,1.81,2.874,2.874,0,0,1-2.25-.36,7.174,7.174,0,0,1-1.61-1.35c-.15-.14-.3-.28-.44-.43a5.137,5.137,0,0,1-1.36-3.22,3.357,3.357,0,0,0-.75-1.71,4.434,4.434,0,0,0-1.64-1.27c-1.68-.68-3.42-1.26-4.91-1.73-.34-.11-1.11-.13-1.38.22a1.775,1.775,0,0,0-.08,1.41c1,3.15,1.91,5.92,2.78,8.49a29.15,29.15,0,0,1,1.42,11.43,1.556,1.556,0,0,0,.24,1.24.962.962,0,0,0,.59.28v7.03a1.622,1.622,0,0,0,1.61,1.61h34.49a1.622,1.622,0,0,0,1.61-1.61v-7.06c.6-.13.74-.53.75-1.51,0-.57-.01-1.14-.02-1.71a24.891,24.891,0,0,1,.18-4.4,58.963,58.963,0,0,1,1.71-6.65l.35-1.16c.41-1.37.87-2.76,1.34-4.1.25-.72.5-1.45.74-2.17A1.163,1.163,0,0,0,3019.99,410.4Zm-6.89,29.08a.491.491,0,0,1-.49.49h-32.75a.491.491,0,0,1-.49-.49v-5.66a.5.5,0,0,1,.33-.46.454.454,0,0,1,.16-.03h33.24Zm4.2-25.72c-.42,1.22-.83,2.36-1.17,3.55l-.24.84c-.68,2.4-1.39,4.88-1.86,7.38a18.142,18.142,0,0,0-.19,3.61c.01.54.01,1.07,0,1.61v.59h-35.31v-.02a3.144,3.144,0,0,1,.01-.53,27.888,27.888,0,0,0-1.56-10.98c-.55-1.63-1.08-3.29-1.57-4.91-.23-.72-.46-1.45-.69-2.16a1.142,1.142,0,0,1-.07-.32l.63.26c.82.33,1.65.67,2.47,1.01a4.3,4.3,0,0,1,.81.52,1.4,1.4,0,0,1,.62,1.17,6.579,6.579,0,0,0,1.96,4.38,11.343,11.343,0,0,0,2.34,1.86,4.67,4.67,0,0,0,6.47-1.38c.07-.1.13-.21.19-.31a7.144,7.144,0,0,0,1.19-5.15,5.5,5.5,0,0,0-.82-1.81l-.21-.34a4.43,4.43,0,0,0-.61-.76c-.11-.13-.23-.25-.32-.36a1.736,1.736,0,0,1-.37-1.86,12.943,12.943,0,0,1,1.5-2.73,23.436,23.436,0,0,1,5.49-4.78.58.58,0,0,1,.37-.02,23.625,23.625,0,0,1,5.75,5.08,10.969,10.969,0,0,1,1.25,2.34,1.9,1.9,0,0,1-.4,2.04l-.15.17a2.942,2.942,0,0,1-.28.32c-1.61,1.54-2,3.48-1.19,5.92a9.886,9.886,0,0,0,1.01,2.13,4.685,4.685,0,0,0,6.07,1.76,8.288,8.288,0,0,0,4.69-5.72l.03-.11a1.885,1.885,0,0,0,.06-.67,1.08,1.08,0,0,1,.5-1.06,10.569,10.569,0,0,1,4.03-1.81C3017.59,412.94,3017.44,413.36,3017.3,413.76Z" fill="#fff"/>
      <path id="Path_16809" data-name="Path 16809" d="M3017.73,412.51c-.14.43-.29.85-.43,1.25-.42,1.22-.83,2.36-1.17,3.55l-.24.84c-.68,2.4-1.39,4.88-1.86,7.38a18.142,18.142,0,0,0-.19,3.61c.01.54.01,1.07,0,1.61v.59h-35.31v-.02a3.144,3.144,0,0,1,.01-.53,27.888,27.888,0,0,0-1.56-10.98c-.55-1.63-1.08-3.29-1.57-4.91-.23-.72-.46-1.45-.69-2.16a1.142,1.142,0,0,1-.07-.32l.63.26c.82.33,1.65.67,2.47,1.01a4.3,4.3,0,0,1,.81.52,1.4,1.4,0,0,1,.62,1.17,6.579,6.579,0,0,0,1.96,4.38,11.343,11.343,0,0,0,2.34,1.86,4.67,4.67,0,0,0,6.47-1.38c.07-.1.13-.21.19-.31a7.144,7.144,0,0,0,1.19-5.15,5.5,5.5,0,0,0-.82-1.81l-.21-.34a4.43,4.43,0,0,0-.61-.76c-.11-.13-.23-.25-.32-.36a1.736,1.736,0,0,1-.37-1.86,12.943,12.943,0,0,1,1.5-2.73,23.436,23.436,0,0,1,5.49-4.78.58.58,0,0,1,.37-.02,23.625,23.625,0,0,1,5.75,5.08,10.969,10.969,0,0,1,1.25,2.34,1.9,1.9,0,0,1-.4,2.04l-.15.17a2.942,2.942,0,0,1-.28.32c-1.61,1.54-2,3.48-1.19,5.92a9.886,9.886,0,0,0,1.01,2.13,4.685,4.685,0,0,0,6.07,1.76,8.288,8.288,0,0,0,4.69-5.72l.03-.11a1.885,1.885,0,0,0,.06-.67,1.08,1.08,0,0,1,.5-1.06A10.569,10.569,0,0,1,3017.73,412.51Z" fill="#2c2c2c"/>
      <path id="Path_16810" data-name="Path 16810" d="M3013.1,433.33v6.15a.491.491,0,0,1-.49.49h-32.75a.491.491,0,0,1-.49-.49v-5.66a.5.5,0,0,1,.33-.46h33.24v-.03Z" fill="#2c2c2c"/>
    </g>
  </g>
</svg>
