<svg xmlns="http://www.w3.org/2000/svg" width="56" height="56" viewBox="0 0 56 56">
  <g id="Group_6401" data-name="Group 6401" transform="translate(-52 -5862)">
    <path id="Path_16761" data-name="Path 16761" d="M0,0H56V56H0Z" transform="translate(52 5862)" fill="#fff" opacity="0"/>
    <g id="Group_3733" data-name="Group 3733" transform="translate(-3061.208 5469.13)">
      <g id="Group_3684" data-name="Group 3684">
        <path id="Path_8495" data-name="Path 8495" d="M3146.26,410.45l.08-.22-.01-.22-.02-.07-1.47-2.11a1.1,1.1,0,0,0-.3-.23l-1.51-.69a1.144,1.144,0,0,0-.32-.07h-3.01a1.146,1.146,0,0,0-.32.07l-1.51.69a.972.972,0,0,0-.34.3l-1.3,1.78-.06.03-.09.33a.492.492,0,0,0,.01.27.478.478,0,0,0,.07.21l4.37,5.6.3.35.38.04a.644.644,0,0,0,.2-.03l.18-.02.1-.12c.02-.02.04-.03.06-.05l2.62-3.35h.01l1.77-2.27.03-.04h.01v-.01l.02-.02.01-.03.03-.04h-.01l.04-.08Zm-5.06,4.01-3.38-4.32.88-1.19,1.17-.55h2.67l1.09.49.96,1.25Z" fill="#fff"/>
        <path id="Path_8499" data-name="Path 8499" d="M3164.96,410.4a1.089,1.089,0,0,0-1.13-.21c-1.47.41-2.96.88-4.57,1.45a6,6,0,0,0-1.53.89,3.322,3.322,0,0,0-1.55,2.68,5.007,5.007,0,0,1-.48,1.71l-.04.1a6.219,6.219,0,0,1-2.1,2.42l-.31.25a3.007,3.007,0,0,1-2.46.69,2.481,2.481,0,0,1-1.75-1.23c-1.68-2.92-1.63-4.38.18-6.03.08-.09.15-.17.22-.26l.07-.09a3.609,3.609,0,0,0,.74-3.57,12.081,12.081,0,0,0-1.63-3.2,26.174,26.174,0,0,0-6.59-5.82,1.366,1.366,0,0,0-1.78.04q-.735.57-1.47,1.11c-.94.71-1.9,1.44-2.81,2.2a13.832,13.832,0,0,0-3.28,3.94c-1.29,2.4-1.09,4.06.71,5.95a3.31,3.31,0,0,1,.9,3.28,7.913,7.913,0,0,1-.62,1.81,3.448,3.448,0,0,1-1.94,1.81,2.874,2.874,0,0,1-2.25-.36,7.18,7.18,0,0,1-1.61-1.35c-.15-.14-.3-.28-.45-.43a5.183,5.183,0,0,1-1.35-3.22,3.443,3.443,0,0,0-.75-1.71,4.434,4.434,0,0,0-1.64-1.27c-1.68-.68-3.42-1.26-4.91-1.73-.34-.11-1.11-.13-1.38.22a1.735,1.735,0,0,0-.08,1.41c1,3.15,1.91,5.92,2.78,8.49a29.341,29.341,0,0,1,1.42,11.43,1.556,1.556,0,0,0,.24,1.24.962.962,0,0,0,.59.28v7.03a1.622,1.622,0,0,0,1.61,1.61h34.48a1.624,1.624,0,0,0,1.62-1.61v-7.06c.6-.13.74-.53.75-1.51,0-.57-.01-1.14-.02-1.71a24.891,24.891,0,0,1,.18-4.4,58.963,58.963,0,0,1,1.71-6.65l.35-1.16c.41-1.37.87-2.75,1.34-4.1.25-.72.5-1.45.74-2.17A1.163,1.163,0,0,0,3164.96,410.4Zm-6.89,29.08a.491.491,0,0,1-.49.49h-32.75a.491.491,0,0,1-.49-.49v-5.66a.483.483,0,0,1,.33-.46.416.416,0,0,1,.16-.03h12.3l3.2,4.11.38.41.45.05a1,1,0,0,0,.25-.03l.21-.03.13-.15a.18.18,0,0,0,.07-.05l3.2-4.09h.01l.17-.22h12.87Zm-21.04-9.34,1.06-1.45,1.43-.67h3.28l1.32.6,1.17,1.52-.94,1.2-1.56,1.99-1.64,2.08-1.63-2.08-1.55-1.99Zm25.23-16.38c-.41,1.22-.82,2.36-1.16,3.55l-.24.84c-.68,2.4-1.39,4.88-1.86,7.38a17.422,17.422,0,0,0-.19,3.61c.01.54.01,1.07,0,1.6v.6h-12.06l.44-.56.04-.05h.01l.03-.02.01-.04.04-.05h-.02l.05-.1h-.02l.1-.27-.02-.26-.02-.09-1.8-2.59a1.215,1.215,0,0,0-.36-.27l-1.85-.84a1.235,1.235,0,0,0-.39-.09h-3.66a1.237,1.237,0,0,0-.39.09l-1.85.84a1.094,1.094,0,0,0-.41.36l-1.59,2.17-.07.04-.11.41a.532.532,0,0,0,.01.33.785.785,0,0,0,.08.26l.58.73H3123.5v-.02a3.144,3.144,0,0,1,.01-.53,28.072,28.072,0,0,0-1.56-10.98c-.55-1.63-1.08-3.29-1.58-4.91-.22-.72-.45-1.45-.68-2.16a1.133,1.133,0,0,1-.07-.32l.63.26c.82.33,1.65.67,2.47,1.01a4.861,4.861,0,0,1,.81.52,1.4,1.4,0,0,1,.62,1.17,6.579,6.579,0,0,0,1.96,4.38,11.076,11.076,0,0,0,2.34,1.86,4.672,4.672,0,0,0,6.47-1.38c.07-.1.13-.21.19-.31a7.194,7.194,0,0,0,1.19-5.15,5.492,5.492,0,0,0-.82-1.81l-.21-.34a4.953,4.953,0,0,0-.61-.76c-.11-.13-.23-.24-.33-.36a1.753,1.753,0,0,1-.36-1.86,12.529,12.529,0,0,1,1.5-2.73,23.237,23.237,0,0,1,5.49-4.78.554.554,0,0,1,.36-.02,23.487,23.487,0,0,1,5.76,5.08,10.5,10.5,0,0,1,1.24,2.34,1.9,1.9,0,0,1-.39,2.04l-.15.17a2.916,2.916,0,0,1-.28.32c-1.61,1.54-2,3.48-1.19,5.92a9.886,9.886,0,0,0,1.01,2.13,4.673,4.673,0,0,0,6.06,1.76,8.277,8.277,0,0,0,4.7-5.72l.03-.11a1.891,1.891,0,0,0,.06-.67,1.091,1.091,0,0,1,.49-1.06,10.614,10.614,0,0,1,4.04-1.81C3162.56,412.94,3162.41,413.36,3162.26,413.76Z" fill="#fff"/>
        <path id="Path_16811" data-name="Path 16811" d="M3145.29,430.14l-.94,1.2-1.56,1.99-1.64,2.08-1.63-2.08-1.55-1.99-.94-1.2,1.06-1.45,1.43-.67h3.28l1.32.6Z" fill="#2c2c2c"/>
        <path id="Path_16812" data-name="Path 16812" d="M3158.66,414.32a1.091,1.091,0,0,0-.49,1.06,1.891,1.891,0,0,1-.06.67l-.03.11a8.277,8.277,0,0,1-4.7,5.72,4.673,4.673,0,0,1-6.06-1.76,9.886,9.886,0,0,1-1.01-2.13c-.81-2.44-.42-4.38,1.19-5.92a2.916,2.916,0,0,0,.28-.32l.15-.17a1.9,1.9,0,0,0,.39-2.04,10.5,10.5,0,0,0-1.24-2.34,23.487,23.487,0,0,0-5.76-5.08.554.554,0,0,0-.36.02,23.237,23.237,0,0,0-5.49,4.78,12.529,12.529,0,0,0-1.5,2.73,1.753,1.753,0,0,0,.36,1.86c.1.12.22.23.33.36a4.953,4.953,0,0,1,.61.76l.21.34a5.492,5.492,0,0,1,.82,1.81,7.194,7.194,0,0,1-1.19,5.15c-.06.1-.12.21-.19.31a4.672,4.672,0,0,1-6.47,1.38,11.076,11.076,0,0,1-2.34-1.86,6.579,6.579,0,0,1-1.96-4.38,1.4,1.4,0,0,0-.62-1.17,4.861,4.861,0,0,0-.81-.52c-.82-.34-1.65-.68-2.47-1.01l-.63-.26a1.133,1.133,0,0,0,.07.32c.23.71.46,1.44.68,2.16.5,1.62,1.03,3.28,1.58,4.91a28.072,28.072,0,0,1,1.56,10.98,3.144,3.144,0,0,0-.01.53v.02h12.08l-.58-.73a.785.785,0,0,1-.08-.26.532.532,0,0,1-.01-.33l.11-.41.07-.04,1.59-2.17a1.094,1.094,0,0,1,.41-.36l1.85-.84a1.237,1.237,0,0,1,.39-.09h3.66a1.235,1.235,0,0,1,.39.09l1.85.84a1.215,1.215,0,0,1,.36.27l1.8,2.59.02.09.02.26-.1.27h.02l-.05.1h.02l-.04.05-.01.04-.03.02h-.01l-.04.05-.44.56h12.06v-.6c.01-.53.01-1.06,0-1.6a17.422,17.422,0,0,1,.19-3.61c.47-2.5,1.18-4.98,1.86-7.38l.24-.84c.34-1.19.75-2.33,1.16-3.55.15-.4.3-.82.44-1.25A10.614,10.614,0,0,0,3158.66,414.32Zm-14.28-1.38h-.01l-2.62,3.35c-.02.02-.04.03-.06.05l-.1.12-.18.02a.644.644,0,0,1-.2.03l-.38-.04-.3-.35-4.37-5.6a.478.478,0,0,1-.07-.21.492.492,0,0,1-.01-.27l.09-.33.06-.03,1.3-1.78a.972.972,0,0,1,.34-.3l1.51-.69a1.146,1.146,0,0,1,.32-.07h3.01a1.144,1.144,0,0,1,.32.07l1.51.69a1.1,1.1,0,0,1,.3.23l1.47,2.11.02.07.01.22-.08.22h.02l-.04.08h.01l-.03.04-.01.03-.02.02v.01h-.01l-.03.04Z" fill="#2c2c2c"/>
        <path id="Path_16813" data-name="Path 16813" d="M3144.59,410.14l-3.39,4.32-3.38-4.32.88-1.19,1.17-.55h2.67l1.09.49Z" fill="#2c2c2c"/>
        <path id="Path_16814" data-name="Path 16814" d="M3158.07,433.33v6.15a.491.491,0,0,1-.49.49h-32.75a.491.491,0,0,1-.49-.49v-5.66a.483.483,0,0,1,.33-.46.416.416,0,0,1,.16-.03h12.3l3.2,4.11.38.41.45.05a1,1,0,0,0,.25-.03l.21-.03.13-.15a.18.18,0,0,0,.07-.05l3.2-4.09h.01l.17-.22Z" fill="#2c2c2c"/>
      </g>
    </g>
  </g>
</svg>
