<svg xmlns="http://www.w3.org/2000/svg" width="56" height="56" viewBox="0 0 56 56">
  <g id="Group_6401" data-name="Group 6401" transform="translate(-52 -5862)">
    <path id="Path_16761" data-name="Path 16761" d="M0,0H56V56H0Z" transform="translate(52 5862)" fill="#fff" opacity="0"/>
    <g id="Group_6444" data-name="Group 6444" transform="translate(-2773.243 5464.61)">
      <path id="Path_8493" data-name="Path 8493" d="M2876.99,418.91a1.086,1.086,0,0,0-1.13-.19c-1.47.4-2.96.87-4.56,1.43a5.9,5.9,0,0,0-1.53.91,3.328,3.328,0,0,0-1.56,2.68,5.247,5.247,0,0,1-.47,1.7l-.05.1a6.219,6.219,0,0,1-2.1,2.42l-.3.25a3.029,3.029,0,0,1-2.47.69,2.509,2.509,0,0,1-1.75-1.23c-1.67-2.92-1.63-4.39.18-6.04a2.623,2.623,0,0,0,.22-.25l.07-.09a3.608,3.608,0,0,0,.75-3.58,12.816,12.816,0,0,0-1.63-3.19,26.387,26.387,0,0,0-6.6-5.82,1.366,1.366,0,0,0-1.78.04c-.49.38-.98.75-1.47,1.12-.93.7-1.89,1.43-2.8,2.19a13.671,13.671,0,0,0-3.28,3.94c-1.29,2.39-1.09,4.06.71,5.95a3.3,3.3,0,0,1,.89,3.28,7.675,7.675,0,0,1-.62,1.8,3.467,3.467,0,0,1-1.93,1.83,2.944,2.944,0,0,1-2.26-.37,7.65,7.65,0,0,1-1.61-1.34c-.14-.15-.29-.3-.44-.44a5.13,5.13,0,0,1-1.35-3.23,3.409,3.409,0,0,0-.76-1.71,4.409,4.409,0,0,0-1.64-1.26c-1.68-.68-3.42-1.26-4.9-1.73-.35-.11-1.11-.13-1.38.22a1.7,1.7,0,0,0-.08,1.41c.99,3.14,1.9,5.92,2.78,8.49a29.337,29.337,0,0,1,1.42,11.43,1.6,1.6,0,0,0,.24,1.24c.25.26.64.31,1.29.32h36.19c1.31,0,1.56-.26,1.57-1.59,0-.56-.01-1.14-.02-1.71a22.913,22.913,0,0,1,.18-4.38,58.748,58.748,0,0,1,1.71-6.67l.34-1.15c.41-1.38.88-2.76,1.34-4.1.25-.73.5-1.45.74-2.18A1.144,1.144,0,0,0,2876.99,418.91Zm-2.69,3.37c-.43,1.21-.83,2.36-1.17,3.55l-.24.84c-.68,2.4-1.39,4.88-1.86,7.37a18.282,18.282,0,0,0-.19,3.62c.01.53.02,1.07,0,1.6v.6h-35.31v-.55a27.957,27.957,0,0,0-1.55-10.99c-.55-1.62-1.07-3.29-1.58-4.91-.22-.72-.45-1.44-.67-2.15a.922.922,0,0,1-.07-.32l.62.25c.83.34,1.65.67,2.47,1.02a3.85,3.85,0,0,1,.81.52,1.412,1.412,0,0,1,.63,1.17,6.519,6.519,0,0,0,1.95,4.37,11.084,11.084,0,0,0,2.34,1.86,4.674,4.674,0,0,0,6.47-1.38,3.159,3.159,0,0,0,.19-.31,7.219,7.219,0,0,0,1.19-5.15,5.5,5.5,0,0,0-.82-1.81l-.21-.33a4.5,4.5,0,0,0-.61-.77l-.33-.36a1.772,1.772,0,0,1-.37-1.86,13.238,13.238,0,0,1,1.51-2.73,23.168,23.168,0,0,1,5.49-4.77.5.5,0,0,1,.36-.02,23.487,23.487,0,0,1,5.76,5.08,10.97,10.97,0,0,1,1.25,2.34,1.9,1.9,0,0,1-.4,2.03l-.15.18a2.153,2.153,0,0,1-.28.32c-1.61,1.54-2,3.47-1.19,5.91a9.543,9.543,0,0,0,1.02,2.14,4.669,4.669,0,0,0,6.06,1.75,8.264,8.264,0,0,0,4.69-5.72l.03-.1a1.885,1.885,0,0,0,.06-.67,1.114,1.114,0,0,1,.5-1.07,10.7,10.7,0,0,1,4.03-1.8C2874.59,421.45,2874.44,421.87,2874.3,422.28Z" fill="#fff"/>
      <path id="Path_16805" data-name="Path 16805" d="M2870.7,422.83a1.114,1.114,0,0,0-.5,1.07,1.885,1.885,0,0,1-.06.67l-.03.1a8.264,8.264,0,0,1-4.69,5.72,4.669,4.669,0,0,1-6.06-1.75,9.543,9.543,0,0,1-1.02-2.14c-.81-2.44-.42-4.37,1.19-5.91a2.153,2.153,0,0,0,.28-.32l.15-.18a1.9,1.9,0,0,0,.4-2.03,10.97,10.97,0,0,0-1.25-2.34,23.487,23.487,0,0,0-5.76-5.08.5.5,0,0,0-.36.02,23.168,23.168,0,0,0-5.49,4.77,13.238,13.238,0,0,0-1.51,2.73,1.772,1.772,0,0,0,.37,1.86l.33.36a4.5,4.5,0,0,1,.61.77l.21.33a5.5,5.5,0,0,1,.82,1.81,7.219,7.219,0,0,1-1.19,5.15,3.159,3.159,0,0,1-.19.31,4.674,4.674,0,0,1-6.47,1.38,11.084,11.084,0,0,1-2.34-1.86,6.519,6.519,0,0,1-1.95-4.37,1.412,1.412,0,0,0-.63-1.17,3.85,3.85,0,0,0-.81-.52c-.82-.35-1.64-.68-2.47-1.02l-.62-.25a.922.922,0,0,0,.07.32c.22.71.45,1.43.67,2.15.51,1.62,1.03,3.29,1.58,4.91a27.957,27.957,0,0,1,1.55,10.99v.55h35.31v-.6c.02-.53.01-1.07,0-1.6a18.282,18.282,0,0,1,.19-3.62c.47-2.49,1.18-4.97,1.86-7.37l.24-.84c.34-1.19.74-2.34,1.17-3.55.14-.41.29-.83.43-1.25A10.7,10.7,0,0,0,2870.7,422.83Zm-22.5-4.18a.522.522,0,0,1-.07-.21.418.418,0,0,1-.01-.27l.09-.34.06-.03,1.3-1.77a.891.891,0,0,1,.34-.3l1.51-.69a.876.876,0,0,1,.32-.07h3.01a.876.876,0,0,1,.32.07l1.51.69a1.091,1.091,0,0,1,.3.23l1.47,2.11.02.07.01.22-.08.22h.02l-.04.08h.01l-.03.04-.01.03-.02.02v.01h-.01l-.03.04-1.77,2.27h-.01l-2.63,3.35a.382.382,0,0,1-.06.05l-.09.11-.18.02a.747.747,0,0,1-.2.03l-.38-.04-.31-.34Zm10.12,13.09-.04.08h.01l-.03.04-.01.03-.02.02v.01h-.01l-.03.04-1.77,2.26h-.01l-2.63,3.35a.1.1,0,0,1-.06.05l-.09.12-.18.02a.747.747,0,0,1-.2.03l-.38-.04-.31-.35-4.36-5.59a.578.578,0,0,1-.07-.21.418.418,0,0,1-.01-.27l.09-.34.06-.03,1.3-1.78a.956.956,0,0,1,.34-.29l1.51-.69a.876.876,0,0,1,.32-.07h3.01a.876.876,0,0,1,.32.07l1.51.69a.926.926,0,0,1,.3.23l1.47,2.11.02.07.01.22-.08.22Z" fill="#2c2c2c"/>
      <path id="Path_8494" data-name="Path 8494" d="M2858.3,418.58l.08-.22-.01-.22-.02-.07-1.47-2.11a1.091,1.091,0,0,0-.3-.23l-1.51-.69a.876.876,0,0,0-.32-.07h-3.01a.876.876,0,0,0-.32.07l-1.51.69a.891.891,0,0,0-.34.3l-1.3,1.77-.06.03-.09.34a.418.418,0,0,0,.01.27.522.522,0,0,0,.07.21l4.36,5.6.31.34.38.04a.747.747,0,0,0,.2-.03l.18-.02.09-.11a.382.382,0,0,0,.06-.05l2.63-3.35h.01l1.77-2.27.03-.04h.01v-.01l.02-.02.01-.03.03-.04h-.01l.04-.08Zm-5.06,4.01-3.38-4.32.87-1.19,1.18-.55h2.67l1.08.49.97,1.25Z" fill="#fff"/>
      <path id="Path_16806" data-name="Path 16806" d="M2856.63,418.27l-3.39,4.32-3.38-4.32.87-1.19,1.18-.55h2.67l1.08.49Z" fill="#2c2c2c"/>
      <path id="Path_8496" data-name="Path 8496" d="M2858.3,431.74l.08-.22-.01-.22-.02-.07-1.47-2.11a.926.926,0,0,0-.3-.23l-1.51-.69a.876.876,0,0,0-.32-.07h-3.01a.876.876,0,0,0-.32.07l-1.51.69a.956.956,0,0,0-.34.29l-1.3,1.78-.06.03-.09.34a.418.418,0,0,0,.01.27.578.578,0,0,0,.07.21l4.36,5.59.31.35.38.04a.747.747,0,0,0,.2-.03l.18-.02.09-.12a.1.1,0,0,0,.06-.05l2.63-3.35h.01l1.77-2.26.03-.04h.01v-.01l.02-.02.01-.03.03-.04h-.01l.04-.08Zm-5.06,4.01-3.38-4.32.87-1.19,1.18-.55h2.67l1.08.49.97,1.25Z" fill="#fff"/>
      <path id="Path_16807" data-name="Path 16807" d="M2856.63,431.43l-3.39,4.32-3.38-4.32.87-1.19,1.18-.55h2.67l1.08.49Z" fill="#2c2c2c"/>
    </g>
  </g>
</svg>
