<svg xmlns="http://www.w3.org/2000/svg" width="24" height="24" viewBox="0 0 24 24">
  <g id="Group_6023" data-name="Group 6023" transform="translate(7388 13886)">
    <circle id="Ellipse_1441" data-name="Ellipse 1441" cx="12" cy="12" r="12" transform="translate(-7388 -13886)" fill="#38539a"/>
    <g id="shop_1_" data-name="shop (1)" transform="translate(-7382 -13880)">
      <g id="Group_6022" data-name="Group 6022" transform="translate(0 0)">
        <path id="Path_16644" data-name="Path 16644" d="M11.978,2.865,11.121.293A.429.429,0,0,0,10.714,0H1.286A.429.429,0,0,0,.879.293L.022,2.865A.437.437,0,0,0,0,2.988v.44a2.134,2.134,0,0,0,.857,1.7v5.581A1.286,1.286,0,0,0,2.143,12H9.857a1.286,1.286,0,0,0,1.286-1.286V5.133A2.134,2.134,0,0,0,12,3.429v-.44A.436.436,0,0,0,11.978,2.865ZM9,.857h1.405l.572,1.714H9Zm-2.571,0H8.143V2.571H6.429Zm-2.571,0H5.571V2.571H3.857Zm-2.262,0H3V2.571H1.023ZM6.857,11.143H5.143V7.714H6.857v3.429Zm3.429-.429a.429.429,0,0,1-.429.429H7.714V7.286a.429.429,0,0,0-.429-.429H4.714a.429.429,0,0,0-.429.429v3.857H2.143a.429.429,0,0,1-.429-.429V5.529a2.119,2.119,0,0,0,1.714-.393A2.172,2.172,0,0,0,6,5.135a2.172,2.172,0,0,0,2.571,0,2.118,2.118,0,0,0,1.714.393v5.186Zm-.429-6a1.266,1.266,0,0,1-.963-.445.429.429,0,0,0-.645,0,1.293,1.293,0,0,1-1.926,0A.443.443,0,0,0,5.7,4.25l-.019.019a1.293,1.293,0,0,1-1.926,0,.443.443,0,0,0-.626-.019l-.019.019a1.266,1.266,0,0,1-.963.445A1.286,1.286,0,0,1,.857,3.429H11.143A1.286,1.286,0,0,1,9.857,4.714Z" transform="translate(0 0)" fill="#f1f2ff"/>
      </g>
    </g>
  </g>
</svg>
