<svg xmlns="http://www.w3.org/2000/svg" width="16" height="16" viewBox="0 0 16 16">
  <g id="Group_4285" data-name="Group 4285" transform="translate(8985 -5928)">
    <g id="Group_4274" data-name="Group 4274" transform="translate(-8985 5928)">
      <circle id="Ellipse_262" data-name="Ellipse 262" cx="8" cy="8" r="8" transform="translate(0 0)" fill="#9ea0a3"/>
    </g>
    <g id="Group_4275" data-name="Group 4275" transform="translate(-8981.923 5931.077)">
      <g id="Ellipse_296" data-name="Ellipse 296" transform="translate(8.234 1.28)">
        <g id="Group_4276" data-name="Group 4276">
          <path id="Path_9745" data-name="Path 9745" d="M979.77,563.005a5.214,5.214,0,0,0,.634-.7A4.863,4.863,0,0,1,979.77,563.005Z" transform="translate(-979.77 -555.719)" fill="#ededed"/>
          <path id="Path_9746" data-name="Path 9746" d="M980.4,552.3a5.218,5.218,0,0,0-.634-.7A4.86,4.86,0,0,1,980.4,552.3Z" transform="translate(-979.77 -551.6)" fill="#ededed"/>
          <path id="Path_9747" data-name="Path 9747" d="M980.8,561.8a5.642,5.642,0,0,0,.492-.806A4.349,4.349,0,0,1,980.8,561.8Z" transform="translate(-980.166 -555.212)" fill="#ededed"/>
          <path id="Path_9748" data-name="Path 9748" d="M980.8,552.74a4.351,4.351,0,0,1,.492.806A5.645,5.645,0,0,0,980.8,552.74Z" transform="translate(-980.166 -552.038)" fill="#ededed"/>
        </g>
      </g>
      <g id="Line_22" data-name="Line 22" transform="translate(0 0)">
        <path id="Path_9749" data-name="Path 9749" d="M976.015,552.979c-.049-.154-.1-.3-.166-.449-.031-.074-.068-.148-.1-.221a5.642,5.642,0,0,0-.492-.806c-.006,0,0-.006,0-.006a5.221,5.221,0,0,0-.634-.7,4.914,4.914,0,0,0-6.615,0c-.062.055-.117.111-.172.166a4.9,4.9,0,0,0,0,6.954c.055.055.111.111.172.166a4.914,4.914,0,0,0,6.615,0,5.218,5.218,0,0,0,.634-.7s-.006-.006,0-.006a5.642,5.642,0,0,0,.492-.806c.031-.074.068-.148.1-.222.062-.148.117-.3.166-.449a4.952,4.952,0,0,0,0-2.929Zm-8.394,1.465a3.7,3.7,0,0,1,3.692-3.692,3.625,3.625,0,0,1,2.135.689l-5.169,5.108A3.651,3.651,0,0,1,967.621,554.443Zm3.692,3.692a3.6,3.6,0,0,1-2.166-.714l5.175-5.114a3.689,3.689,0,0,1-3.009,5.828Z" transform="translate(-966.39 -549.52)" fill="#ededed"/>
      </g>
    </g>
  </g>
</svg>
