<svg xmlns="http://www.w3.org/2000/svg" width="16" height="16" viewBox="0 0 16 16">
  <g id="Group_4282" data-name="Group 4282" transform="translate(-999 -1241)">
    <circle id="Ellipse_262" data-name="Ellipse 262" cx="8" cy="8" r="8" transform="translate(999 1241)" fill="#f0fae5"/>
    <g id="tag" transform="translate(1003.308 1245.308)">
      <g id="Group_4115" data-name="Group 4115">
        <path id="Path_9683" data-name="Path 9683" d="M.312,0H3.7a.308.308,0,0,1,.218.09L8.529,4.705a.308.308,0,0,1,0,.435h0L5.145,8.525a.308.308,0,0,1-.435,0L.094,3.91A.308.308,0,0,1,0,3.692V.308A.308.308,0,0,1,.312,0ZM2.158,2.769a.615.615,0,1,0-.615-.615A.615.615,0,0,0,2.158,2.769Z" transform="translate(-0.004)" fill="#73793b"/>
      </g>
    </g>
  </g>
</svg>
