<svg xmlns="http://www.w3.org/2000/svg" width="16" height="16" viewBox="0 0 16 16">
  <g id="Group_4278" data-name="Group 4278" transform="translate(-999 -1241)">
    <circle id="Ellipse_262" data-name="Ellipse 262" cx="8" cy="8" r="8" transform="translate(999 1241)" fill="#f8f8e7"/>
    <path id="Path_9684" data-name="Path 9684" d="M8.524,29.961,6.063,27.5a.308.308,0,0,0-.524.216v1.231H4.462q-3.428,0-4.207,1.938A4.378,4.378,0,0,0,0,32.485a5.773,5.773,0,0,0,.611,2.168l.05.115q.036.082.065.144a.546.546,0,0,0,.063.106.164.164,0,0,0,.135.082.14.14,0,0,0,.113-.048.179.179,0,0,0,.041-.12.979.979,0,0,0-.012-.127,1,1,0,0,1-.012-.113q-.024-.327-.024-.591a4.092,4.092,0,0,1,.084-.87,2.613,2.613,0,0,1,.233-.666,1.672,1.672,0,0,1,.385-.486,2.257,2.257,0,0,1,.507-.334,2.75,2.75,0,0,1,.639-.2,6.1,6.1,0,0,1,.74-.1q.373-.029.844-.029H5.538v1.231a.306.306,0,0,0,.524.216l2.462-2.462a.3.3,0,0,0,0-.433Z" transform="translate(1002.692 1217.9)" fill="#62625a"/>
  </g>
</svg>
