<svg id="right-icon-1" xmlns="http://www.w3.org/2000/svg" width="24" height="24" viewBox="0 0 24 24">
  <path id="Icon_Header_Cart_Inactive_background" data-name="Icon/Header/Cart/Inactive background" d="M0,0H24V24H0Z" fill="none"/>
  <path id="icon" d="M14.25,18.9a1.843,1.843,0,0,1-1.763-2.4H8.813a1.849,1.849,0,1,1-3.613.55,1.832,1.832,0,0,1,.086-.55H3.85a1.85,1.85,0,1,1,0-3.7H5.042L2.527,1.3H.65A.65.65,0,1,1,.65,0h2.4a.645.645,0,0,1,.635.511L4.273,3.2H19.85a.672.672,0,0,1,.247.048.652.652,0,0,1,.354.355.636.636,0,0,1,0,.5l-4,9.6a.643.643,0,0,1-.6.4h-12a.55.55,0,1,0,0,1.1h14.8a.65.65,0,1,1,0,1.3H16.013a1.841,1.841,0,0,1-1.763,2.4Zm0-2.4a.55.55,0,1,0,.551.55A.55.55,0,0,0,14.249,16.5Zm-7.2,0a.55.55,0,1,0,.551.55A.55.55,0,0,0,7.049,16.5ZM4.558,4.5l1.815,8.3h9.043l3.459-8.3Z" transform="translate(1.75 3)" fill="#9ea0a3"/>
</svg>
