<svg xmlns="http://www.w3.org/2000/svg" width="9.815" height="12.434" viewBox="0 0 9.815 12.434"><defs><style>.a{fill:#38539a;}</style></defs><g transform="translate(-70.573)"><g transform="translate(70.573)"><path class="a" d="M75.48,0a4.724,4.724,0,0,0-4.907,4.5c0,3.081,4.392,7.605,4.579,7.8a.469.469,0,0,0,.658,0c.187-.191,4.579-4.715,4.579-7.8A4.724,4.724,0,0,0,75.48,0Zm0,6.769A2.377,2.377,0,0,1,73.011,4.5a2.478,2.478,0,0,1,4.938,0A2.377,2.377,0,0,1,75.48,6.769Z" transform="translate(-70.573)"/></g></g></svg>