<svg xmlns="http://www.w3.org/2000/svg" width="19.971" height="23.493" viewBox="0 0 19.971 23.493"><defs><style>.a{fill:#2c2c2c;stroke:#2c2c2c;stroke-linecap:round;stroke-width:0.4px;}</style></defs><g transform="translate(-15.158 0.2)"><g transform="translate(22.38)"><path class="a" d="M82.65,2.854a3.327,3.327,0,0,0-5.981-1.487.391.391,0,1,0,.632.462,2.545,2.545,0,0,1,4.574,1.136.392.392,0,0,0,.387.336.419.419,0,0,0,.056,0A.392.392,0,0,0,82.65,2.854Z" transform="translate(-76.593)"/></g><g transform="translate(16.141 5.088)"><g transform="translate(0)"><path class="a" d="M40.134,46.519,38.96,44.562a.391.391,0,0,0-.336-.19H37.5a.391.391,0,1,0,0,.783h.9l.7,1.174H23.268l.7-1.174h.415a.391.391,0,0,0,0-.783h-.636a.391.391,0,0,0-.336.19l-1.174,1.957a.392.392,0,0,0,.336.593H39.8a.392.392,0,0,0,.336-.593Z" transform="translate(-22.185 -44.372)"/></g></g><g transform="translate(25.677 2.193)"><path class="a" d="M111.805,20.559a.391.391,0,0,0-.243-.175l-5.336-1.248a.391.391,0,0,0-.47.292l-.4,1.72a.391.391,0,0,0,.762.178l.313-1.339L111,21.057l-.719,3.073a.391.391,0,0,0,.292.47.4.4,0,0,0,.09.01.391.391,0,0,0,.38-.3l.808-3.454A.39.39,0,0,0,111.805,20.559Z" transform="translate(-105.343 -19.126)"/></g><g transform="translate(17.667 1.19)"><path class="a" d="M43.177,13.735l-.357-3.016a.392.392,0,0,0-.435-.343l-6.546.774a.391.391,0,0,0-.343.435l.595,5.031a.392.392,0,0,0,.388.346l.047,0a.392.392,0,0,0,.343-.435l-.549-4.642,5.769-.682.311,2.628a.391.391,0,0,0,.777-.092Z" transform="translate(-35.494 -10.374)"/></g><g transform="translate(20.592 3.758)"><path class="a" d="M68.851,36.3l-.777-3.231a.391.391,0,0,0-.472-.289L61.3,34.3a.391.391,0,0,0-.289.472l.388,1.615a.391.391,0,1,0,.761-.183l-.3-1.234L67.4,33.633l.685,2.85a.392.392,0,0,0,.761-.183Z" transform="translate(-60.997 -32.769)"/></g><g transform="translate(15.359 7.045)"><path class="a" d="M34.146,61.812a.392.392,0,0,0-.391-.371H16.533a.391.391,0,0,0-.391.371l-.783,15.265a.391.391,0,0,0,.391.411H34.537a.391.391,0,0,0,.391-.411ZM16.162,76.706,16.9,62.224H33.383l.743,14.482Z" transform="translate(-15.359 -61.441)"/></g><g transform="translate(26.905 8.611)"><path class="a" d="M117.226,75.093a1.174,1.174,0,1,0,1.174,1.174A1.175,1.175,0,0,0,117.226,75.093Zm0,1.566a.391.391,0,1,1,.391-.391A.392.392,0,0,1,117.226,76.659Z" transform="translate(-116.052 -75.093)"/></g><g transform="translate(21.034 8.611)"><g transform="translate(0)"><path class="a" d="M66.026,75.093A1.174,1.174,0,1,0,67.2,76.267,1.175,1.175,0,0,0,66.026,75.093Zm0,1.566a.391.391,0,1,1,.391-.391A.392.392,0,0,1,66.026,76.659Z" transform="translate(-64.852 -75.093)"/></g></g><g transform="translate(21.817 9.785)"><g transform="translate(0)"><path class="a" d="M77.941,85.333h-.03a.391.391,0,0,0-.391.391.387.387,0,0,0,.03.151v2a2.544,2.544,0,0,1-5.088,0V85.724a.391.391,0,1,0-.783,0v2.153a3.327,3.327,0,1,0,6.654,0V85.724A.392.392,0,0,0,77.941,85.333Z" transform="translate(-71.679 -85.333)"/></g></g></g></svg>