<svg xmlns="http://www.w3.org/2000/svg" width="40" height="40" viewBox="0 0 40 40"><defs><style>.a,.b{fill:none;}.a,.c{stroke:#2c2c2c;}.a{stroke-width:2px;}.c{fill:#2c2c2c;stroke-width:0.4px;}.d{stroke:none;}</style></defs><g transform="translate(-0.101 -0.319)"><g class="a" transform="translate(0.101 0.319)"><rect class="d" width="40" height="40" rx="20"/><rect class="b" x="1" y="1" width="38" height="38" rx="19"/></g><g transform="translate(10.925 9.968)"><g transform="translate(0 0)"><rect class="b" width="18.748" height="18.748" rx="9.374"/><g transform="translate(3.906 3.125)"><g transform="translate(0 4.268)"><path class="c" d="M2.058,0A2.058,2.058,0,1,0,4.115,2.058,2.06,2.06,0,0,0,2.058,0Zm0,3.2A1.143,1.143,0,1,1,3.2,2.058,1.144,1.144,0,0,1,2.058,3.2Z"/></g><g transform="translate(6.249)"><path class="c" d="M2.058,0A2.058,2.058,0,1,0,4.115,2.058,2.06,2.06,0,0,0,2.058,0Zm0,3.2A1.143,1.143,0,1,1,3.2,2.058,1.144,1.144,0,0,1,2.058,3.2Z"/></g><g transform="translate(6.249 8.383)"><path class="c" d="M2.058,0A2.058,2.058,0,1,0,4.115,2.058,2.06,2.06,0,0,0,2.058,0Zm0,3.2A1.143,1.143,0,1,1,3.2,2.058,1.144,1.144,0,0,1,2.058,3.2Z"/></g><g transform="translate(3.09 2.65)"><g transform="translate(0 0)"><rect class="c" width="4.574" height="0.915" transform="matrix(0.84, -0.543, 0.543, 0.84, 0, 2.484)"/></g></g><g transform="translate(3.089 6.796)"><g transform="translate(0 0)"><rect class="c" width="0.915" height="4.452" transform="translate(0 0.767) rotate(-57.016)"/></g></g></g></g></g></g></svg>