<svg id="right-icon-1" xmlns="http://www.w3.org/2000/svg" width="23.887" height="23.887" viewBox="0 0 23.887 23.887">
  <rect id="Icon_Header_Cart_Inactive_background" data-name="Icon/Header/Cart/Inactive background" width="23.887" height="23.887" fill="none"/>
  <path id="icon" d="M14.182,18.812a1.835,1.835,0,0,1-1.755-2.39H8.771a1.84,1.84,0,1,1-3.6.547,1.823,1.823,0,0,1,.086-.547H3.832a1.841,1.841,0,1,1,0-3.682H5.018L2.515,1.293H.647A.647.647,0,1,1,.647,0H3.036a.642.642,0,0,1,.632.509l.586,2.676h15.5A.669.669,0,0,1,20,3.233a.649.649,0,0,1,.352.353.633.633,0,0,1,0,.5l-3.981,9.553a.64.64,0,0,1-.6.4H3.832a.547.547,0,1,0,0,1.095H18.561a.647.647,0,1,1,0,1.293H15.937a1.832,1.832,0,0,1-1.755,2.39Zm0-2.39a.548.548,0,1,0,.548.547A.547.547,0,0,0,14.181,16.422Zm-7.166,0a.548.548,0,1,0,.548.547A.547.547,0,0,0,7.016,16.422ZM4.536,4.479l1.807,8.261h9l3.442-8.261Z" transform="translate(1.742 2.986)" fill="#fff"/>
</svg>
