<svg xmlns="http://www.w3.org/2000/svg" width="24" height="24" viewBox="0 0 24 24">
  <g id="filter" transform="translate(0 0)">
    <path id="Path_16586" data-name="Path 16586" d="M19.706,0H4.294A4.3,4.3,0,0,0,0,4.294V19.706A4.3,4.3,0,0,0,4.294,24H19.706A4.3,4.3,0,0,0,24,19.706V4.294A4.3,4.3,0,0,0,19.706,0Zm2.887,19.706a2.891,2.891,0,0,1-2.887,2.887H4.294a2.891,2.891,0,0,1-2.887-2.887V4.294A2.891,2.891,0,0,1,4.294,1.406H19.706a2.891,2.891,0,0,1,2.887,2.887Z" fill="none"/>
    <path id="Path_16587" data-name="Path 16587" d="M81.539,81.84H70.83a2.209,2.209,0,0,0-4.188,0H64.97a.7.7,0,0,0,0,1.406h1.672a2.209,2.209,0,0,0,4.188,0H81.539a.7.7,0,1,0,0-1.406Zm-12.8,1.506a.8.8,0,1,1,.8-.8A.8.8,0,0,1,68.736,83.346Z" transform="translate(-61.255 -76.568)" fill="#2c2c2c"/>
    <path id="Path_16588" data-name="Path 16588" d="M81.539,210.373H79.867a2.209,2.209,0,0,0-4.188,0H64.97a.7.7,0,0,0,0,1.406H75.679a2.209,2.209,0,0,0,4.188,0h1.672a.7.7,0,1,0,0-1.406Zm-3.766,1.506a.8.8,0,1,1,.8-.8A.8.8,0,0,1,77.773,211.879Z" transform="translate(-61.255 -199.076)" fill="#2c2c2c"/>
    <path id="Path_16589" data-name="Path 16589" d="M81.539,338.906h-7.7a2.209,2.209,0,0,0-4.188,0H64.97a.7.7,0,0,0,0,1.406h4.684a2.209,2.209,0,0,0,4.188,0h7.7a.7.7,0,1,0,0-1.406Zm-9.791,1.506a.8.8,0,1,1,.8-.8A.8.8,0,0,1,71.748,340.413Z" transform="translate(-61.255 -321.584)" fill="#2c2c2c"/>
  </g>
</svg>
