<svg id="Add_to_Cart" data-name="Add to Cart" xmlns="http://www.w3.org/2000/svg" width="36" height="36" viewBox="0 0 36 36">
  <circle id="Oval" cx="18" cy="18" r="18" fill="#fff" opacity="0"/>
  <g id="Group_6387" data-name="Group 6387" transform="translate(-0.203 0.214)">
    <path id="Union_1" data-name="Union 1" d="M-2663.873-5672.185l-6.925-7.013-6.926,7.013a.628.628,0,0,1-.891,0,.637.637,0,0,1,0-.9l6.831-6.922-6.831-6.918a.637.637,0,0,1,0-.9.628.628,0,0,1,.891,0l6.926,7.014,6.925-7.014a.628.628,0,0,1,.891,0,.637.637,0,0,1,0,.9l-6.831,6.918,6.831,6.922a.637.637,0,0,1,0,.9.624.624,0,0,1-.445.186A.629.629,0,0,1-2663.873-5672.185Z" transform="translate(2689 5697.786)" fill="#fff" stroke="rgba(0,0,0,0)" stroke-miterlimit="10" stroke-width="1"/>
  </g>
</svg>
