<svg xmlns="http://www.w3.org/2000/svg" width="13.438" height="12.383" viewBox="0 0 13.438 12.383"><defs><style>.a{fill:#ffcb87;}.b{fill:#ffe0a1;}.c{fill:#faaf6e;}</style></defs><g transform="translate(-31.889 90)"><path class="a" d="M2784.369,694.262c.133,1.089.236,2.139.065,2.221a.933.933,0,0,1-.471-.1,3.54,3.54,0,0,1-1.056-.449l-.025-.015c-1.153-.542-2.567-1.3-2.882-1.5a3.419,3.419,0,0,0-.556.313q-.467.253-.938.5c-.459.236-.912.485-1.375.711-.078.038-.156.075-.235.111-.213.1-.431.193-.651.277-.172.065-.492.24-.678.149-.326-.16.348-3.883.32-4.616-.056-.106-.147-.252-.261-.424-.688-.773-2.535-2.548-2.329-3.061a.238.238,0,0,1,.064-.084.428.428,0,0,1,.049-.036q.005-.01.042-.023a.35.35,0,0,1,.053-.024,5.031,5.031,0,0,1,1.481-.191c1.158-.123,2.552-.24,2.687-.259a17.847,17.847,0,0,0,1.362-2.3c.35-.735.692-1.348.911-1.333a.147.147,0,0,1,.053.016.15.15,0,0,1,.053-.016c.22-.016.563.6.912,1.333a17.911,17.911,0,0,0,1.361,2.3c.135.018,1.53.136,2.688.259a4.532,4.532,0,0,1,1.535.215.086.086,0,0,1,.041.023.274.274,0,0,1,.113.12c.2.495-1.511,2.163-2.25,2.975l-.078.087c-.115.172-.206.318-.262.424a7.635,7.635,0,0,0,.074.92C2784.236,693.224,2784.306,693.747,2784.369,694.262Z" transform="translate(-2741.391 -774.126)"/><path class="b" d="M2785.257,691.357c.488-.779,1.048-2.256.6-2.418a20.16,20.16,0,0,0-3.1-.308c-.958-.077-1.352-2.109-1.833-2.125-.585-.02-1.185,1.606-1.861,2.061s-4.9-.268-4.9-.268a.507.507,0,0,1,.05-.036c0-.007.018-.015.042-.023a.34.34,0,0,1,.053-.024,5.027,5.027,0,0,1,1.48-.191c1.158-.123,2.552-.24,2.688-.259a17.878,17.878,0,0,0,1.362-2.3c.349-.735.692-1.348.911-1.333a.1.1,0,0,0,.107,0c.22-.016.563.6.912,1.333a17.88,17.88,0,0,0,1.361,2.3c.135.018,1.53.136,2.687.259a4.533,4.533,0,0,1,1.535.215.085.085,0,0,1,.041.023.271.271,0,0,1,.113.12C2787.706,688.876,2786,690.545,2785.257,691.357Z" transform="translate(-2742.196 -774.126)"/><path class="c" d="M2819.534,788.793l-.024-.015c-1.152-.542-2.567-1.3-2.882-1.5a3.4,3.4,0,0,0-.556.313q-.468.253-.938.5c-.459.237-.912.485-1.375.711-.078.038-.156.075-.234.111,0,0,2.6-2.884,3.144-2.762S2819.534,788.793,2819.534,788.793Z" transform="translate(-2778.02 -866.982)"/></g></svg>