<svg xmlns="http://www.w3.org/2000/svg" width="12.792" height="11.271" viewBox="0 0 12.792 11.271"><defs><style>.a{fill:#df6062;}.b{fill:#342e38;}.c{fill:#6e7ca6;}.d{fill:#576899;}.e{fill:#1e1721;}</style></defs><g transform="translate(1.027 -0.953) rotate(7)"><path class="a" d="M0,0H.809a0,0,0,0,1,0,0V.156a.4.4,0,0,1-.4.4h0a.4.4,0,0,1-.4-.4V0A0,0,0,0,1,0,0Z" transform="translate(2.805 4.191) rotate(146.593)"/><path class="b" d="M1.4,0h.048a1.4,1.4,0,0,1,1.4,1.4v0a0,0,0,0,1,0,0H0a0,0,0,0,1,0,0v0A1.4,1.4,0,0,1,1.4,0Z" transform="translate(5.507 8.743) rotate(165.265)"/><path class="b" d="M985.231,292.858h0a.43.43,0,0,0,.226-.565l-1.273-2.974-.791.339,1.273,2.974A.431.431,0,0,0,985.231,292.858Z" transform="translate(-980.092 -281.241)"/><path class="b" d="M1026.859,273.829l.481-.206-.681-1.59-.481.206a.865.865,0,0,0-.455,1.135h0A.865.865,0,0,0,1026.859,273.829Z" transform="translate(-1025.654 -265.474)"/><path class="c" d="M1001.51,251.669l.445,1.04.527,1.228a.734.734,0,0,0,.855.423l1.566-.4-.289-.677-1.459-3.408-.594.384C1002.089,250.568,1001.2,250.94,1001.51,251.669Z" transform="translate(-1001.088 -245.266)"/><path class="d" d="M1002.258,282.473a4.375,4.375,0,0,0,.871.161c.16.017.321.047.482.05a3.068,3.068,0,0,1,.493-.012l.289.677-1.566.4a.734.734,0,0,1-.855-.423l-.527-1.228c.018.041.223.114.27.14a3.834,3.834,0,0,0,.367.174C1002.14,282.432,1002.2,282.454,1002.258,282.473Z" transform="translate(-1000.579 -274.652)"/><path class="b" d="M929.8,214.324a13.367,13.367,0,0,0,.648,2.077,12.9,12.9,0,0,0,.683,1.326c.233.4.417.683.417.683l4.689-1.312.574-.161.1-.027.035-.009.262-.074.64-.178-2.459-5.748-.568.349-.226.138-.008,0-.077.048Z" transform="translate(-927.739 -209.712)"/><path class="e" d="M948.086,282.063q.2.346.417.683a8.141,8.141,0,0,1,.931-.261l.95-.266,1.818-.509c.33-.092.659-.187.989-.277-.471.058-1.767.32-2.279.385a17.452,17.452,0,0,1-1.86.213C948.729,282.032,948.407,282.049,948.086,282.063Z" transform="translate(-944.688 -274.049)"/><path class="c" d="M913.107,198.787a11.988,11.988,0,0,0,1.03,3.132c.227.528.426.954.6,1.3a5.6,5.6,0,0,0,.811,1.309.182.182,0,0,0,.02.02l.008.007a2.054,2.054,0,0,0,.877.315,1.706,1.706,0,0,0,.542-.16l.048-.025-.715-1.671-.645-1.505-.108-.251q-.41-.957-.819-1.914-.24-.558-.479-1.119a4.7,4.7,0,0,0-.256-.585,1.26,1.26,0,0,0-.623.441A1.347,1.347,0,0,0,913.107,198.787Z" transform="translate(-905.464 -197.615)"/><path class="c" d="M909.953,197.432l2.3,5.373.718,1.677.047-.02.008,0c.44-.2.244-.759.164-1.1a11.1,11.1,0,0,0-.331-1.115c-.046-.13-.093-.262-.141-.391-.152-.412-.317-.819-.489-1.223a7.887,7.887,0,0,0-1.552-2.872c-.143-.134-.449-.443-.676-.346A.4.4,0,0,0,909.953,197.432Z" transform="translate(-901.449 -197.392)"/><path class="d" d="M910.862,253.3c.2-.027.363-.077.531-.114.032-.007.062-.014.093-.024l.057-.018a.836.836,0,0,0,.471-.356.744.744,0,0,0,.076-.189,11.051,11.051,0,0,1,.331,1.115c.08.342.276.905-.164,1.1h0s-.017.01-.048.024a1.7,1.7,0,0,1-.542.16,2.054,2.054,0,0,1-.877-.315l-.008-.007c0-.007-.006-.013-.02-.02a5.6,5.6,0,0,1-.811-1.309A7.454,7.454,0,0,0,910.862,253.3Z" transform="translate(-900.682 -247.748)"/><path class="b" d="M916.141,205.3c.078.2.164.408.253.617.067.156.134.309.2.457.218.481.437.919.641,1.288.434.786.8,1.265.961,1.2s.069-.64-.188-1.467a19.415,19.415,0,0,0-.7-1.869c-.742-1.734-1.55-3.053-1.8-2.944C915.286,202.672,915.566,203.839,916.141,205.3Z" transform="translate(-906.903 -202.116)"/><path class="c" d="M929.555,233.229c.067.156.134.309.2.457a.583.583,0,0,0-.456-1.074C929.38,232.813,929.466,233.02,929.555,233.229Z" transform="translate(-919.952 -229.478)"/><g transform="translate(6.771 1.673)"><path class="c" d="M942.773,221.984l.1-.026a21.06,21.06,0,0,1-1.376-2.683,20.317,20.317,0,0,1-.939-2.841l-.008,0-.078.048a20.679,20.679,0,0,0,.937,2.825A21.116,21.116,0,0,0,942.773,221.984Z" transform="translate(-940.468 -216.434)"/></g></g></svg>