<svg xmlns="http://www.w3.org/2000/svg" width="19.892" height="19.892" viewBox="0 0 19.892 19.892"><defs><style>.a{fill:#38539a;}</style></defs><path class="a" d="M45.828,54.324a8.5,8.5,0,1,1,8.5-8.5A8.5,8.5,0,0,1,45.828,54.324Zm0-15.333a6.838,6.838,0,1,0,6.838,6.838A6.846,6.846,0,0,0,45.828,38.991Z" transform="translate(-35.883 -35.883)"/><path class="a" d="M235.5,4.558a.829.829,0,0,1-.829-.829V.829a.829.829,0,0,1,1.658,0v2.9A.829.829,0,0,1,235.5,4.558Z" transform="translate(-225.55)"/><path class="a" d="M398.4,236.325h-2.9a.829.829,0,0,1,0-1.658h2.9a.829.829,0,0,1,0,1.658Z" transform="translate(-379.334 -225.55)"/><path class="a" d="M235.5,399.225a.829.829,0,0,1-.829-.829v-2.9a.829.829,0,0,1,1.658,0v2.9A.829.829,0,0,1,235.5,399.225Z" transform="translate(-225.55 -379.334)"/><path class="a" d="M3.73,236.325H.829a.829.829,0,0,1,0-1.658h2.9a.829.829,0,0,1,0,1.658Z" transform="translate(0 -225.55)"/><path class="a" d="M194.486,196.973a2.486,2.486,0,1,1,2.486-2.486A2.49,2.49,0,0,1,194.486,196.973Z" transform="translate(-184.541 -184.541)"/></svg>