<svg xmlns="http://www.w3.org/2000/svg" width="32" height="32" viewBox="0 0 32 32">
  <g id="Group_3372" data-name="Group 3372" transform="translate(-1254 -1344)">
    <g id="Group_3371" data-name="Group 3371" transform="translate(7461 -18772)">
      <g id="Path_16572" data-name="Path 16572" transform="translate(-6207 20116)" fill="#38539a">
        <path d="M 16 30.5 C 12.12691020965576 30.5 8.485639572143555 28.99173927307129 5.746950149536133 26.25304985046387 C 3.008260011672974 23.51436042785645 1.5 19.87309074401855 1.5 16 C 1.5 12.12691020965576 3.008260011672974 8.485639572143555 5.746950149536133 5.746950149536133 C 8.485639572143555 3.008260011672974 12.12691020965576 1.5 16 1.5 C 19.87309074401855 1.5 23.51436042785645 3.008260011672974 26.25304985046387 5.746950149536133 C 28.99173927307129 8.485639572143555 30.5 12.12691020965576 30.5 16 C 30.5 19.87309074401855 28.99173927307129 23.51436042785645 26.25304985046387 26.25304985046387 C 23.51436042785645 28.99173927307129 19.87309074401855 30.5 16 30.5 Z" stroke="none"/>
        <path d="M 16 3 C 12.5275707244873 3 9.262990951538086 4.352239608764648 6.807609558105469 6.807609558105469 C 4.352239608764648 9.262990951538086 3 12.5275707244873 3 16 C 3 19.47243118286133 4.352239608764648 22.73701095581055 6.807609558105469 25.19239044189453 C 9.262990951538086 27.64776039123535 12.5275707244873 29 16 29 C 19.47243118286133 29 22.73701095581055 27.64776039123535 25.19239044189453 25.19239044189453 C 27.64776039123535 22.73701095581055 29 19.47243118286133 29 16 C 29 12.5275707244873 27.64776039123535 9.262990951538086 25.19239044189453 6.807609558105469 C 22.73701095581055 4.352239608764648 19.47243118286133 3 16 3 M 16 0 C 24.8365592956543 0 32 7.163440704345703 32 16 C 32 24.8365592956543 24.8365592956543 32 16 32 C 7.163440704345703 32 0 24.8365592956543 0 16 C 0 7.163440704345703 7.163440704345703 0 16 0 Z" stroke="none" fill="#f1f2ff"/>
      </g>
    </g>
    <g id="gift_1_" data-name="gift (1)" transform="translate(1262 1335.441)">
      <g id="Group_3300" data-name="Group 3300" transform="translate(0.966 24.017)">
        <g id="Group_3299" data-name="Group 3299">
          <path id="Path_9488" data-name="Path 9488" d="M32,271.692v5.8a.967.967,0,0,0,.966.966H37.8v-6.762Z" transform="translate(-32 -271.692)" fill="#fafafa"/>
        </g>
      </g>
      <g id="Group_3302" data-name="Group 3302" transform="translate(0 16.308)">
        <g id="Group_3301" data-name="Group 3301">
          <path id="Path_9489" data-name="Path 9489" d="M14.49,20.153H11.434a3.754,3.754,0,0,0,.539-.432,2.019,2.019,0,0,0,0-2.842,2.041,2.041,0,0,0-2.833,0,5.311,5.311,0,0,0-1.377,3.274h-.07A5.322,5.322,0,0,0,6.317,16.88a2.043,2.043,0,0,0-2.833,0,2.022,2.022,0,0,0,0,2.842,3.823,3.823,0,0,0,.54.432H.966A.968.968,0,0,0,0,21.119v1.449a.483.483,0,0,0,.483.483H6.762V21.119H8.694v1.932h6.279a.483.483,0,0,0,.483-.483V21.119A.967.967,0,0,0,14.49,20.153Zm-7.785-.032a.319.319,0,0,1-.179.032,4.75,4.75,0,0,1-2.358-1.113,1.054,1.054,0,0,1,0-1.48,1.03,1.03,0,0,1,1.463,0C6.283,18.216,6.93,19.889,6.705,20.122Zm2.224.032c-.137,0-.178-.031-.178-.032-.225-.233.422-1.906,1.073-2.561a1.041,1.041,0,1,1,1.463,1.48A4.749,4.749,0,0,1,8.929,20.153Z" transform="translate(0 -16.308)" fill="#fafafa"/>
        </g>
      </g>
      <g id="Group_3304" data-name="Group 3304" transform="translate(8.694 24.017)">
        <g id="Group_3303" data-name="Group 3303">
          <path id="Path_9490" data-name="Path 9490" d="M288,271.692v6.762h4.83a.966.966,0,0,0,.966-.966v-5.8Z" transform="translate(-288 -271.692)" fill="#fafafa"/>
        </g>
      </g>
    </g>
  </g>
</svg>
