<svg xmlns="http://www.w3.org/2000/svg" width="32" height="32" viewBox="0 0 32 32">
  <g id="Group_4986" data-name="Group 4986" transform="translate(-869 -1344)">
    <g id="Path_16570" data-name="Path 16570" transform="translate(869 1344)" fill="#38539a">
      <path d="M 16 30.5 C 12.12691020965576 30.5 8.485639572143555 28.99173927307129 5.746950149536133 26.25304985046387 C 3.008260011672974 23.51436042785645 1.5 19.87309074401855 1.5 16 C 1.5 12.12691020965576 3.008260011672974 8.485639572143555 5.746950149536133 5.746950149536133 C 8.485639572143555 3.008260011672974 12.12691020965576 1.5 16 1.5 C 19.87309074401855 1.5 23.51436042785645 3.008260011672974 26.25304985046387 5.746950149536133 C 28.99173927307129 8.485639572143555 30.5 12.12691020965576 30.5 16 C 30.5 19.87309074401855 28.99173927307129 23.51436042785645 26.25304985046387 26.25304985046387 C 23.51436042785645 28.99173927307129 19.87309074401855 30.5 16 30.5 Z" stroke="none"/>
      <path d="M 16 3 C 12.5275707244873 3 9.262990951538086 4.352239608764648 6.807609558105469 6.807609558105469 C 4.352239608764648 9.262990951538086 3 12.5275707244873 3 16 C 3 19.47243118286133 4.352239608764648 22.73701095581055 6.807609558105469 25.19239044189453 C 9.262990951538086 27.64776039123535 12.5275707244873 29 16 29 C 19.47243118286133 29 22.73701095581055 27.64776039123535 25.19239044189453 25.19239044189453 C 27.64776039123535 22.73701095581055 29 19.47243118286133 29 16 C 29 12.5275707244873 27.64776039123535 9.262990951538086 25.19239044189453 6.807609558105469 C 22.73701095581055 4.352239608764648 19.47243118286133 3 16 3 M 16 0 C 24.8365592956543 0 32 7.163440704345703 32 16 C 32 24.8365592956543 24.8365592956543 32 16 32 C 7.163440704345703 32 0 24.8365592956543 0 16 C 0 7.163440704345703 7.163440704345703 0 16 0 Z" stroke="none" fill="#f1f2ff"/>
    </g>
    <g id="Group_3369" data-name="Group 3369" transform="translate(-528 599)">
      <path id="Path_9486" data-name="Path 9486" d="M958.681,550.458a1,1,0,0,1-.706-.292l-4.092-4.083a1,1,0,1,1,1.413-1.416l3.385,3.378,6.81-6.8a1,1,0,0,1,1.414,1.414l-7.517,7.511A1,1,0,0,1,958.681,550.458Z" transform="translate(450.411 215.053)" fill="#f1f2ff"/>
      <g id="Path_9487" data-name="Path 9487" transform="translate(454.661 215.053)" fill="#f1f2ff">
        <path d="M 958.6810302734375 550.9580078125 C 958.281982421875 550.9580078125 957.906005859375 550.8026123046875 957.6223754882813 550.5205078125 L 953.5298461914063 546.4369506835938 C 952.9448852539063 545.8519897460938 952.9437866210938 544.9006958007813 953.5269775390625 544.31591796875 C 953.8092041015625 544.031494140625 954.1864624023438 543.8743896484375 954.5882568359375 543.8743896484375 C 954.988037109375 543.8743896484375 955.3646240234375 544.0299682617188 955.648681640625 544.3125 L 958.6807861328125 547.33837890625 L 965.1376342773438 540.8862915039063 C 965.42138671875 540.6032104492188 965.7980346679688 540.447509765625 966.1983642578125 540.447509765625 C 966.5989990234375 540.4474487304688 966.9755249023438 540.6033935546875 967.2586059570313 540.8864135742188 C 967.5426635742188 541.1704711914063 967.6987915039063 541.548095703125 967.6983032226563 541.94970703125 C 967.69775390625 542.3502807617188 967.541259765625 542.726318359375 967.2576904296875 543.0084838867188 L 959.7413940429688 550.5186767578125 C 959.4581298828125 550.8019409179688 959.0814819335938 550.9580078125 958.6810302734375 550.9580078125 Z" stroke="none"/>
        <path d="M 958.6810302734375 550.4580078125 C 958.93701171875 550.4580078125 959.1929931640625 550.3599853515625 959.3880004882813 550.1649780273438 L 966.905029296875 542.6539916992188 C 967.2960205078125 542.2650146484375 967.2960205078125 541.6309814453125 966.905029296875 541.239990234375 C 966.7100219726563 541.0449829101563 966.4542846679688 540.9474487304688 966.1983642578125 540.9474487304688 C 965.9425048828125 540.9474487304688 965.6865234375 541.0449829101563 965.4910278320313 541.239990234375 L 958.6810302734375 548.0449829101563 L 955.2960205078125 544.6669921875 C 955.1001586914063 544.4721069335938 954.8441162109375 544.3743896484375 954.5882568359375 544.3743896484375 C 954.3320922851563 544.3743896484375 954.0761108398438 544.472412109375 953.8809814453125 544.6690063476563 C 953.4910278320313 545.0599975585938 953.4920043945313 545.6920166015625 953.8829956054688 546.0830078125 L 957.9749755859375 550.166015625 C 958.1699829101563 550.3599853515625 958.426025390625 550.4580078125 958.6810302734375 550.4580078125 M 958.6810302734375 551.4580078125 C 958.14892578125 551.4580078125 957.647705078125 551.2509765625 957.269775390625 550.875 L 953.1766357421875 546.7908935546875 C 952.3966064453125 546.0108642578125 952.3953247070313 544.7425537109375 953.1729125976563 543.9628295898438 C 953.5488891601563 543.583984375 954.0521850585938 543.3743896484375 954.5882568359375 543.3743896484375 C 955.1211547851563 543.3743896484375 955.6229248046875 543.5816650390625 956.0012817382813 543.9580688476563 L 958.6805419921875 546.6317749023438 L 964.7841796875 540.5325927734375 C 965.1626586914063 540.1550903320313 965.6647338867188 539.947509765625 966.1983642578125 539.947509765625 C 966.7326049804688 539.947509765625 967.2346801757813 540.1553955078125 967.6121215820313 540.5328979492188 C 967.9907836914063 540.9115600585938 968.198974609375 541.4149169921875 968.1983032226563 541.9503173828125 C 968.1975708007813 542.4847412109375 967.98876953125 542.9863891601563 967.6102905273438 543.3629150390625 L 960.0948486328125 550.8723754882813 C 959.7172241210938 551.2499389648438 959.2150268554688 551.4580078125 958.6810302734375 551.4580078125 Z" stroke="none" fill="#38539a"/>
      </g>
    </g>
  </g>
</svg>
