<svg xmlns="http://www.w3.org/2000/svg" width="32" height="32" viewBox="0 0 32 32">
  <g id="Group_4117" data-name="Group 4117" transform="translate(6207 -20116)">
    <g id="Path_16571" data-name="Path 16571" transform="translate(-6207 20116)" fill="#38539a">
      <path d="M 16 30.5 C 12.12691020965576 30.5 8.485639572143555 28.99173927307129 5.746950149536133 26.25304985046387 C 3.008260011672974 23.51436042785645 1.5 19.87309074401855 1.5 16 C 1.5 12.12691020965576 3.008260011672974 8.485639572143555 5.746950149536133 5.746950149536133 C 8.485639572143555 3.008260011672974 12.12691020965576 1.5 16 1.5 C 19.87309074401855 1.5 23.51436042785645 3.008260011672974 26.25304985046387 5.746950149536133 C 28.99173927307129 8.485639572143555 30.5 12.12691020965576 30.5 16 C 30.5 19.87309074401855 28.99173927307129 23.51436042785645 26.25304985046387 26.25304985046387 C 23.51436042785645 28.99173927307129 19.87309074401855 30.5 16 30.5 Z" stroke="none"/>
      <path d="M 16 3 C 12.5275707244873 3 9.262990951538086 4.352239608764648 6.807609558105469 6.807609558105469 C 4.352239608764648 9.262990951538086 3 12.5275707244873 3 16 C 3 19.47243118286133 4.352239608764648 22.73701095581055 6.807609558105469 25.19239044189453 C 9.262990951538086 27.64776039123535 12.5275707244873 29 16 29 C 19.47243118286133 29 22.73701095581055 27.64776039123535 25.19239044189453 25.19239044189453 C 27.64776039123535 22.73701095581055 29 19.47243118286133 29 16 C 29 12.5275707244873 27.64776039123535 9.262990951538086 25.19239044189453 6.807609558105469 C 22.73701095581055 4.352239608764648 19.47243118286133 3 16 3 M 16 0 C 24.8365592956543 0 32 7.163440704345703 32 16 C 32 24.8365592956543 24.8365592956543 32 16 32 C 7.163440704345703 32 0 24.8365592956543 0 16 C 0 7.163440704345703 7.163440704345703 0 16 0 Z" stroke="none" fill="#f1f2ff"/>
    </g>
    <g id="tag" transform="translate(-6198 20125)">
      <g id="Group_4115" data-name="Group 4115">
        <path id="Path_9683" data-name="Path 9683" d="M.576,0H6.861a.571.571,0,0,1,.4.167l8.571,8.571a.571.571,0,0,1,0,.808h0L9.551,15.833a.571.571,0,0,1-.808,0L.172,7.262A.571.571,0,0,1,0,6.857V.571A.571.571,0,0,1,.576,0ZM4,5.143A1.143,1.143,0,1,0,2.861,4,1.143,1.143,0,0,0,4,5.143Z" transform="translate(-0.004)" fill="#f1f2ff"/>
      </g>
    </g>
  </g>
</svg>
