<svg xmlns="http://www.w3.org/2000/svg" xmlns:xlink="http://www.w3.org/1999/xlink" width="87" height="88" viewBox="0 0 87 88">
  <defs>
    <clipPath id="clip-path">
      <rect id="Rectangle_4097" data-name="Rectangle 4097" width="87" height="88" rx="8" transform="translate(0.276)" fill="#ffe2e2"/>
    </clipPath>
    <clipPath id="clip-path-2">
      <rect id="Rectangle_4095" data-name="Rectangle 4095" width="82.762" height="73.998" fill="#e5fdff"/>
    </clipPath>
    <clipPath id="clip-path-3">
      <rect id="Rectangle_4096" data-name="Rectangle 4096" width="51.099" height="48.915" fill="#e5fdff"/>
    </clipPath>
  </defs>
  <g id="Group_7714" data-name="Group 7714" transform="translate(-0.276)">
    <rect id="Rectangle_4094" data-name="Rectangle 4094" width="87" height="88" rx="8" transform="translate(0.276)" fill="#e5fdff"/>
    <g id="Mask_Group_104" data-name="Mask Group 104" transform="translate(0)" clip-path="url(#clip-path)">
      <g id="Group_7713" data-name="Group 7713" transform="translate(-36.439 -49.775)">
        <g id="Group_7710" data-name="Group 7710">
          <g id="Group_7709" data-name="Group 7709" clip-path="url(#clip-path-2)">
            <path id="Path_87084" data-name="Path 87084" d="M4.3,59c4.278,8.295,13.838,12.68,23.26,14.645a48.955,48.955,0,0,0,37.1-7.432c11-7.55,18.651-20.338,18.718-32.894.08-14.949-10.84-27.88-25.187-31.484s-34.567,2.577-43,12.279C11.575,18.272-6.769,37.529,4.3,59" transform="translate(-0.708 -0.708)" fill="#e5fdff"/>
            <path id="Path_87085" data-name="Path 87085" d="M4.3,59c4.278,8.295,13.838,12.68,23.26,14.645a48.955,48.955,0,0,0,37.1-7.432c11-7.55,18.651-20.338,18.718-32.894.08-14.949-10.84-27.88-25.187-31.484s-34.567,2.577-43,12.279C11.575,18.272-6.769,37.529,4.3,59Z" transform="translate(-0.708 -0.708)" fill="#e5fdff" style="mix-blend-mode: soft-light;isolation: isolate"/>
          </g>
        </g>
        <g id="Group_7712" data-name="Group 7712" transform="translate(86.854 115.075)">
          <g id="Group_7711" data-name="Group 7711" clip-path="url(#clip-path-3)">
            <path id="Path_87086" data-name="Path 87086" d="M49.083,31.273c-1.746,6.612-6.666,12.2-12.476,15.81a16.187,16.187,0,0,1-5.033,2.175,18.012,18.012,0,0,1-5.809.123c-7.687-.854-15.316-4.074-20.381-9.919C2.378,35.995.316,31.441.85,26.884a16.023,16.023,0,0,1,4.585-9,36.471,36.471,0,0,1,8.25-6.079A102.8,102.8,0,0,1,30.729,3.928C35.793,2.13,43.874-.14,46.483,1.139S55.254,7.9,49.083,31.273Z" transform="translate(-0.703 -0.703)" fill="#e5fdff" style="mix-blend-mode: multiply;isolation: isolate"/>
          </g>
        </g>
      </g>
    </g>
  </g>
</svg>
