<svg xmlns="http://www.w3.org/2000/svg" xmlns:xlink="http://www.w3.org/1999/xlink" width="88" height="88" viewBox="0 0 88 88">
  <defs>
    <clipPath id="clip-path">
      <rect id="Rectangle_4107" data-name="Rectangle 4107" width="88" height="88" rx="8" transform="translate(-4941 964)" fill="#f0fae5"/>
    </clipPath>
  </defs>
  <g id="Group_7751" data-name="Group 7751" transform="translate(4941 -964)">
    <rect id="Rectangle_4078" data-name="Rectangle 4078" width="88" height="88" rx="8" transform="translate(-4941 964)" fill="#f0fae5"/>
    <g id="Mask_Group_107" data-name="Mask Group 107" clip-path="url(#clip-path)">
      <g id="Group_7750" data-name="Group 7750">
        <path id="Path_87072" data-name="Path 87072" d="M4.3,59c4.278,8.295,13.838,12.68,23.26,14.645a48.955,48.955,0,0,0,37.1-7.432c11-7.55,18.651-20.338,18.718-32.894.08-14.949-10.84-27.88-25.187-31.484s-34.567,2.577-43,12.279C11.575,18.272-6.769,37.529,4.3,59" transform="translate(-4978.104 913.517)" fill="#f6fcef"/>
        <path id="Path_87074" data-name="Path 87074" d="M49.083,31.273c-1.746,6.612-6.666,12.2-12.476,15.81a16.187,16.187,0,0,1-5.033,2.175,18.012,18.012,0,0,1-5.809.123c-7.687-.854-15.316-4.074-20.381-9.919C2.378,35.995.316,31.441.85,26.884a16.023,16.023,0,0,1,4.585-9,36.471,36.471,0,0,1,8.25-6.079A102.8,102.8,0,0,1,30.729,3.928C35.793,2.13,43.874-.14,46.483,1.139S55.254,7.9,49.083,31.273Z" transform="translate(-4891.245 1028.597)" fill="#e1f5cd"/>
      </g>
    </g>
  </g>
</svg>
