<svg xmlns="http://www.w3.org/2000/svg" width="32" height="32" viewBox="0 0 32 32">
  <g id="Group_6227" data-name="Group 6227" transform="translate(-130 -218)">
    <g id="Group_4993" data-name="Group 4993" transform="translate(130 218)">
      <circle id="Ellipse_365" data-name="Ellipse 365" cx="16" cy="16" r="16" fill="#f1f2ff"/>
    </g>
    <path id="Path_16609" data-name="Path 16609" d="M639.748,242.522v1.6h1.6a.8.8,0,0,1,.8.8h0a.8.8,0,0,1-.8.8h-1.6v1.6a.8.8,0,0,1-.8.8h0a.8.8,0,0,1-.8-.8v-1.6h-1.6a.8.8,0,0,1-.8-.8h0a.8.8,0,0,1,.8-.8h1.6v-1.6a.8.8,0,0,1,.8-.8h0A.8.8,0,0,1,639.748,242.522Zm.994-8.194a4.8,4.8,0,0,1,.768,5.787.8.8,0,0,1-1.244.138h0a.8.8,0,0,1-.123-.961,3.2,3.2,0,0,0-4.925-3.956l-1.068.958-1.069-.958a3.2,3.2,0,0,0-4.549,4.484l6.181,6.192a.8.8,0,0,1,0,1.13h0a.8.8,0,0,1-1.132,0l-6.217-6.226a4.8,4.8,0,0,1,6.783-6.771,4.8,4.8,0,0,1,6.593.182Z" transform="translate(-488.148 -6.255)" fill="#38539a"/>
  </g>
</svg>
