<svg xmlns="http://www.w3.org/2000/svg" width="20" height="20.001" viewBox="0 0 20 20.001">
  <g id="global" transform="translate(-0.016 0.002)">
    <g id="Group_7158" data-name="Group 7158" transform="translate(0.016 -0.002)">
      <path id="Path_73600" data-name="Path 73600" d="M18.168,4.226a.167.167,0,0,0,0-.019c-.025-.036-.056-.066-.081-.1q-.28-.382-.593-.735c-.057-.064-.114-.128-.173-.191q-.322-.345-.676-.658c-.044-.039-.084-.079-.128-.116a10.015,10.015,0,0,0-1.9-1.28c-.027-.014-.056-.026-.084-.041a9.937,9.937,0,0,0-.929-.414c-.071-.026-.136-.05-.2-.071q-.422-.152-.857-.267c-.086-.023-.171-.046-.259-.066C12,.2,11.714.149,11.421.108c-.089-.013-.176-.03-.265-.041a9.394,9.394,0,0,0-2.267,0C8.8.078,8.713.095,8.625.108,8.332.149,8.044.2,7.761.266,7.673.286,7.588.31,7.5.333Q7.064.447,6.645.6l-.2.071a9.931,9.931,0,0,0-.929.414c-.028.014-.056.026-.084.041a10.017,10.017,0,0,0-1.9,1.28c-.044.038-.084.078-.128.116a9.294,9.294,0,0,0-.676.658c-.059.063-.116.126-.173.191q-.314.352-.593.735c-.026.035-.056.066-.081.1a.162.162,0,0,0-.009.019,9.939,9.939,0,0,0,0,11.546.156.156,0,0,0,.009.019c.025.036.056.066.081.1q.279.382.593.735c.057.064.114.128.173.191q.323.345.676.658c.044.039.084.079.128.116a10.015,10.015,0,0,0,1.9,1.28c.027.014.056.026.084.041a9.937,9.937,0,0,0,.929.414c.071.026.136.05.2.071q.422.152.857.267c.086.023.171.046.259.066.286.066.572.117.864.159.089.013.176.03.265.041a9.394,9.394,0,0,0,2.267,0c.089-.011.176-.028.265-.041.292-.041.581-.092.864-.159.087-.02.173-.044.259-.066q.439-.114.857-.267l.2-.071a9.931,9.931,0,0,0,.929-.414c.028-.014.056-.026.084-.041a10.017,10.017,0,0,0,1.9-1.28c.044-.038.084-.078.128-.116a9.1,9.1,0,0,0,.676-.658c.059-.063.116-.126.173-.191q.314-.353.593-.735c.026-.035.056-.066.081-.1a.162.162,0,0,0,.009-.019A9.939,9.939,0,0,0,18.168,4.226Zm-.815,1.352a8.5,8.5,0,0,1,1.205,3.706h-4.28a13.334,13.334,0,0,0-.4-2.522A12.84,12.84,0,0,0,17.353,5.578ZM11.838,1.622c.04.009.079.022.119.031a7.69,7.69,0,0,1,.757.214c.038.013.075.028.112.041q.369.129.725.286l.124.06q.341.162.666.351l.143.086q.309.189.6.4c.05.036.1.071.149.111a6.519,6.519,0,0,1,.547.459c.046.041.093.082.138.125.183.174.357.357.526.547.021.025.044.048.066.071a11.986,11.986,0,0,1-3.048.979,18.169,18.169,0,0,0-1.924-3.817C11.639,1.59,11.74,1.6,11.838,1.622ZM7.188,9.285A11.922,11.922,0,0,1,7.581,7a20.475,20.475,0,0,0,2.439.143,20.522,20.522,0,0,0,2.442-.146,11.9,11.9,0,0,1,.391,2.29Zm5.665,1.429A11.922,11.922,0,0,1,12.46,13a20.913,20.913,0,0,0-4.881,0,11.9,11.9,0,0,1-.391-2.287ZM10.02,1.89a17.258,17.258,0,0,1,1.991,3.716,18.912,18.912,0,0,1-1.991.106,19.055,19.055,0,0,1-1.989-.106A17.394,17.394,0,0,1,10.02,1.89ZM3.6,4.338c.168-.19.343-.374.526-.547.045-.043.092-.084.138-.125q.264-.241.547-.459c.049-.038.1-.071.149-.111q.292-.214.6-.4L5.7,2.6q.325-.19.666-.351l.124-.06q.356-.161.725-.286c.037-.014.071-.029.112-.041.248-.083.5-.151.757-.214.04-.009.079-.022.119-.031.1-.021.2-.031.3-.049A18.17,18.17,0,0,0,6.578,5.39a11.985,11.985,0,0,1-3.048-.979C3.552,4.386,3.575,4.363,3.6,4.338Zm-.909,1.24A12.838,12.838,0,0,0,6.162,6.763a13.333,13.333,0,0,0-.4,2.522H1.482A8.5,8.5,0,0,1,2.687,5.578Zm0,8.842a8.5,8.5,0,0,1-1.205-3.706h4.28a13.333,13.333,0,0,0,.4,2.522A12.837,12.837,0,0,0,2.687,14.42ZM8.2,18.376c-.04-.009-.079-.022-.119-.031a7.689,7.689,0,0,1-.757-.214c-.038-.013-.075-.028-.112-.041q-.369-.129-.725-.286l-.124-.06q-.341-.162-.666-.351l-.143-.086q-.309-.189-.6-.4c-.05-.036-.1-.071-.149-.111a6.52,6.52,0,0,1-.547-.459c-.046-.041-.093-.082-.138-.125-.183-.174-.357-.357-.526-.547-.021-.025-.044-.048-.066-.071a11.986,11.986,0,0,1,3.048-.979A18.169,18.169,0,0,0,8.5,18.426C8.4,18.408,8.3,18.4,8.2,18.376Zm1.818-.269a17.258,17.258,0,0,1-1.991-3.716,18.6,18.6,0,0,1,3.981,0h0A17.39,17.39,0,0,1,10.02,18.108Zm6.424-2.448c-.168.19-.343.374-.526.547-.045.043-.092.084-.138.125q-.264.242-.547.459c-.049.038-.1.075-.149.111q-.292.214-.6.4l-.143.086q-.324.189-.666.351l-.124.06q-.356.161-.725.286c-.037.014-.071.029-.112.041-.248.083-.5.151-.757.214-.04.009-.079.022-.119.031-.1.021-.2.031-.3.049a18.167,18.167,0,0,0,1.924-3.817,11.985,11.985,0,0,1,3.048.979C16.488,15.612,16.465,15.635,16.444,15.66Zm.909-1.24a12.838,12.838,0,0,0-3.474-1.185,13.333,13.333,0,0,0,.4-2.522h4.28A8.5,8.5,0,0,1,17.353,14.42Z" transform="translate(-0.016 0.002)" fill="#fff"/>
    </g>
  </g>
</svg>
