<svg xmlns="http://www.w3.org/2000/svg" width="40" height="40" viewBox="0 0 40 40">
  <g id="Group_6317" data-name="Group 6317" transform="translate(-0.423)">
    <rect id="Rectangle_3524" data-name="Rectangle 3524" width="40" height="40" rx="8" transform="translate(0.423)" fill="#ededed"/>
    <g id="refresh_1_" data-name="refresh (1)" transform="translate(6.635 6.758)">
      <path id="Path_38115" data-name="Path 38115" d="M3.247,14.762a10.694,10.694,0,0,1-.079-1.246A10.3,10.3,0,0,1,20.458,5.9l-.913.929a.81.81,0,0,0-.206.792.829.829,0,0,0,.6.538c.159.032,5.4,1.72,5.063,1.653a.8.8,0,0,0,.935-.934c-.032-.16-1.192-5.977-1.125-5.644a.785.785,0,0,0-1.33-.4l-.776.76A13.524,13.524,0,0,0,0,13.515v.032c0,.446.02.792.044,1.055a.792.792,0,0,0,.634.705l1.627.325A.793.793,0,0,0,3.247,14.762Zm0,0" fill="#2c2c2c"/>
      <path id="Path_38116" data-name="Path 38116" d="M45.723,215.77l-1.632-.332a.793.793,0,0,0-.945.872,10.782,10.782,0,0,1,.082,1.254,10.292,10.292,0,0,1-17.29,7.6l.913-.913a.81.81,0,0,0,.206-.792.828.828,0,0,0-.6-.538c-.159-.032-5.4-1.72-5.063-1.652a.776.776,0,0,0-.713.222.789.789,0,0,0-.222.713l1.125,5.591a.793.793,0,0,0,.554.6.761.761,0,0,0,.776-.206l.76-.76A13.495,13.495,0,0,0,46.4,217.564v-.048c0-.351-.013-.7-.042-1.038A.792.792,0,0,0,45.723,215.77Zm0,0" transform="translate(-19.365 -204.048)" fill="#2c2c2c"/>
    </g>
  </g>
</svg>
