<svg xmlns="http://www.w3.org/2000/svg" width="32" height="32" viewBox="0 0 32 32">
  <g id="Group_6317" data-name="Group 6317" transform="translate(-886 -307)">
    <rect id="Rectangle_3524" data-name="Rectangle 3524" width="32" height="32" rx="8" transform="translate(886 307)" fill="#f1f2ff"/>
    <g id="refresh_1_" data-name="refresh (1)" transform="translate(891.333 312.333)">
      <path id="Path_38115" data-name="Path 38115" d="M2.562,11.65a8.44,8.44,0,0,1-.062-.984A8.133,8.133,0,0,1,16.146,4.654l-.721.733a.639.639,0,0,0-.162.625.654.654,0,0,0,.475.425c.126.025,4.259,1.357,4,1.3A.632.632,0,0,0,20.471,7c-.025-.126-.94-4.717-.888-4.454a.619.619,0,0,0-1.05-.312l-.612.6A10.674,10.674,0,0,0,0,10.667v.025c0,.352.016.625.035.833a.625.625,0,0,0,.5.557l1.284.257A.626.626,0,0,0,2.562,11.65Zm0,0" fill="#38539a"/>
      <path id="Path_38116" data-name="Path 38116" d="M40.4,215.7l-1.288-.262a.626.626,0,0,0-.745.688,8.508,8.508,0,0,1,.064.99,8.123,8.123,0,0,1-13.646,6l.721-.721a.639.639,0,0,0,.162-.625.654.654,0,0,0-.475-.425c-.126-.025-4.259-1.357-4-1.3a.612.612,0,0,0-.562.175.623.623,0,0,0-.175.563l.888,4.412a.626.626,0,0,0,.437.475.6.6,0,0,0,.612-.162l.6-.6a10.65,10.65,0,0,0,17.933-7.787v-.038c0-.277-.01-.549-.033-.819A.625.625,0,0,0,40.4,215.7Zm0,0" transform="translate(-19.593 -206.446)" fill="#38539a"/>
    </g>
  </g>
</svg>
