<svg height="22" viewBox="0 0 65 22" width="65" xmlns="http://www.w3.org/2000/svg"><path d="m15.3354813 15.4h-3.5757135l-.9243104-3.272204h-4.53995088l-.90384775 3.272204h-3.55550051l4.84115032-15.4h3.61589012l4.6491263 14.1992329v-10.07312978h2.8625173v1.52392068c.1374987-.30513315.3139262-.71870822.7845658-1.11034561.5095685-.43526346 1.2547064-.67483286 1.9803799-.67483286.3723194 0 .7451378.06556374 1.1174572.19569405 1.1568852.43601133 1.4900263 1.34991501 1.6272754 1.74130311.9021009-1.67573937 2.3334843-1.9148102 3.0980866-1.9148102.9410298 0 1.7645244.34826063 2.3137704.8922153.9802082.95777904 1.0193866 2.00181303 1.0193866 4.61339377v6.00718414h-2.8822313v-5.3323513c0-1.80661754-.0389288-2.17631726-.333141-2.65470819-.3139261-.52226629-.7648518-.63170539-1.1963131-.63170539-.7840667 0-1.1761001.56614165-1.235242.65314448-.3136766.54420397-.3136766 1.48004532-.3136766 2.39369972v5.57192068h-2.8822312v-5.6806119c0-1.21878754 0-1.76249292-.2939627-2.26332012-.2156058-.36969971-.6470671-.67483286-1.1763496-.67483286-.2550338 0-.5100676.06556374-.7453874.19644193-.8432086.47839093-.862673 1.30579037-.862673 3.43823225v4.9840907h-2.8822313zm38.6645646 1.6344446v-.9196346h.7607088c.2731896 0 .917172 0 1.2099815-.2826818.2337013-.1956836.4294044-.6747968.4294044-1.1317242 0-.2395566-.1174715-.6747968-.214578-.9579771l-3.1119523-9.75964564v11.23993594h-2.8098792v-1.2404096c-.3511728.5224876-1.0142784 1.4799661-2.6536644 1.4799661-2.4000947 0-4.1956954-2.1766994-4.1956954-5.70199527 0-4.43939995 2.4979463-6.09361176 4.4105218-6.09361176 1.11213 0 1.9903104.63117304 2.4972013 1.71952276v-1.45827895h2.7515159v.02161245h3.1119523l1.8340956 7.59501587 1.6781292-7.59501587h2.915678l-3.2084876 11.18612127c-.2110843.7054099-.532293 1.8167857-1.0071292 2.4917571 4.3262006.6820459 6.6021514 1.3565787 6.6021514 1.3565787l-.0854338.2993834c-2.2309578-.5230316-4.5249268-.9438718-6.857181-1.2756148-.505633.4458124-1.226473.6534407-3.2966305.6534407-.3320495 0-.4678993-.0216872-.7607088-.0433744v-1.0965303c-25.5945008-2.5246231-54.0000459 4.4787154-54.0000459 4.4787154l.46268383-1.4570326c24.31347887-5.2337252 42.72320887-4.7366218 53.53736207-3.5085228zm-12.8742441-13.00111127h2.9419966l-2.9419966 11.36666667h-2.6871583l-1.7062431-7.6801598-1.6865251 7.6801598h-2.7255961l-2.941747-11.36666667h2.941747l1.5492468 7.10960207 1.5879343-7.10960207h2.5496305l1.5694642 7.10960207zm9.1849314 5.41238052c0-1.46374602-.3635156-2.22878926-.7468267-2.64435594-.3038723-.3497269-.748112-.56802458-1.1920947-.56802458-.5455305 0-1.1111135.32744652-1.4746292.83038234-.5049113.72098316-.6259975 1.61695494-.6259975 2.49114702 0 .69945381.0809812 1.37687761.3228965 1.94490211.4036206.984092 1.0710085 1.3335685 1.6561298 1.3335685.182272 0 .7679075-.0438097 1.2933856-.633614.6257404-.7435139.7671362-1.7266044.7671362-2.75400545zm-41.53622336-6.14571385-1.42987678 5.86666667h2.93785304z" fill="#fff" fill-rule="evenodd"/></svg>