<svg height="32" viewBox="0 0 32 32" width="32" xmlns="http://www.w3.org/2000/svg"><g fill="none" fill-rule="evenodd"><path d="m0 0h32v32h-32z" fill="#0279c1"/><path d="m13.972082 13.5380424 2.0437608 6.0176025h.0238904l1.9361446-6.0176025h2.7727465v8.754477h-1.9242358v-6.1490361l-2.1094412 6.1490361h-1.4820079l-2.0854778-6.1430453h-.0298812v6.1430453h-1.918245v-8.754477zm-4.06202391.0005188v1.6187019h-2.65972389v7.1352634h-1.9235053v-7.1352634h-2.66016223v-1.6187019zm16.30773381.0000145c.4020454 0 .7713601.0341187 1.1042914.1077625.3344655.0757625.6205657.1952875.8593235.3623742.2366391.1659176.4207485.3896252.5521822.6676159.1304839.2774792.1969679.6223922.1969679 1.028748 0 .4417896-.0962922.8096432-.2911413 1.1026841-.1917076.2925294-.4813878.5361092-.8602733.7225565.5223009.1573697.9119262.4283467 1.1659534.8153418.2581185.3884563.3882371.8593235.3882371 1.4047843 0 .4436161-.0846026.8261546-.2512509 1.1492228-.1661369.3220455-.3910134.5868854-.671415.7898442-.2813514.2043468-.602374.3566024-.9651865.454648-.3582828.0989223-.7294971.1481643-1.1131315.1481643h-4.1156497v-8.7537466zm-.0958539 4.8472657h-2.0420805v2.4115415h2.004528c.1826483 0 .3571869-.0186302.5253695-.0551598.1666482-.0387214.3143741-.0989223.4403284-.1850592.1293149-.0870137.2288217-.2041277.3059723-.3503924.0743744-.1479451.1106848-.3363651.1106848-.5681823 0-.448438-.1226665-.7708487-.3681458-.9632869-.2454792-.1933879-.5724196-.2894609-.9766567-.2894609zm-.2832509-3.3533491h-1.7588296v2.0448568h1.9005647c.335123 0 .6082917-.0798538.8235244-.2432875.2160364-.1632145.3237988-.4285658.3237988-.798392 0-.2041277-.0363104-.3690956-.1077624-.5014791-.0722557-.1304839-.1668675-.2323285-.28705-.3057531-.1183561-.0754703-.2581916-.125662-.4116892-.1536437-.1567122-.0282009-.3175888-.0423014-.4825567-.0423014zm-6.4345731-5.4324923c.7677801 0 1.3863002.6196159 1.3863002 1.3863733 0 .7679993-.6185201 1.3923641-1.3863002 1.3923641-.7668304 0-1.3864464-.6243648-1.3864464-1.3923641 0-.7667574.619616-1.3863733 1.3864464-1.3863733zm-6.8601953 0c.7665382 0 1.3863733.6196159 1.3863733 1.3863733 0 .7679993-.6198351 1.3923641-1.3863733 1.3923641-.7660998 0-1.3863732-.6243648-1.3863732-1.3923641 0-.7667574.6202734-1.3863733 1.3863732-1.3863733z" fill="#fff"/></g></svg>