<svg height="32" viewBox="0 0 32 32" width="32" xmlns="http://www.w3.org/2000/svg"><g fill="none" fill-rule="evenodd"><g transform="translate(5.666667 1.333333)"><path d="m18.3333333 24.4439997-18.33319997.0001334v-19.55599973h18.33333337z" fill="#d3e1eb"/><g fill="#7d98ba"><path d="m17.1112 24.4445343h-15.88933333-1.22133334v1.8333334c.00133334 1.6866667 1.368 3.0533333 3.05466667 3.056h12.2226667c1.6866666-.0026667 3.0533333-1.3693333 3.056-3.056v-1.8333334z"/><path d="m15.2778667.00053333h-12.2226667c-1.68666667.00133334-3.05333333 1.36799996-3.05466667 3.05466658v1.83333328h1.22133334 15.88933333 1.2226667v-1.83333328c-.0026667-1.68666662-1.3693334-3.05333324-3.056-3.05466658"/></g></g><g transform="translate(12 7.333333)"><path d="m8.60648155 0c4.75390745 0 8.60648155 3.85257411 8.60648155 8.60648155 0 4.75234265-3.8525741 8.60648155-8.60648155 8.60648155-4.75390744 0-8.60648155-3.8541389-8.60648155-8.60648155 0-4.75390744 3.85257411-8.60648155 8.60648155-8.60648155" fill="#7d98ba"/><path d="m5.7373937 10.039852v.71825c0 .7917963.64313886 1.4333704 1.43493513 1.4333704h.71668516v1.4349352h1.43493513v-1.4349352h.71668518c.7917962 0 1.4349351-.6415741 1.4349351-1.4333704v-1.43493518c0-.7917963-.6431389-1.4349352-1.4349351-1.4349352h-2.86830547v-1.43337039h2.86830547v.71668519h1.4349351v-.71668519c0-.79336112-.6431389-1.43493521-1.4349351-1.43493521h-.71668518v-1.4349352h-1.43493513v1.4349352h-.71668516c-.79179627 0-1.43493513.64157409-1.43493513 1.43493521v1.43337039c0 .79336112.64313886 1.4349352 1.43493513 1.4349352h2.86830547v1.43493518h-2.86830547v-.71825z" fill="#fff"/></g></g></svg>