<svg height="60" viewBox="0 0 60 60" width="60" xmlns="http://www.w3.org/2000/svg"><g fill="none" fill-rule="evenodd" transform="translate(0 8)"><path d="m44.9853365 23.4048277h.036994.0714979.0714979.0715572.071498.0714979.0715572.0714979.0715572.071498.0714979.0715572.0714979.0714979.0715573.0714979.0714979.0715572.0714979.071498.0715572.0714979.0714979.0715572.071498.0714979.0715572.0714979.0714979.0715572.071498.0715572.0714979.0714979.0715572.071498.0714979.0715572.0714979.0714979.0715573.0714979.0714979.0715572.0714979.071498.0715572.0714979.0714979.0715572.071498.0714979.0715572.0714979.0714979.0715572.071498.0715572.0714979.0714979.0595223l.0120349.0002977c.0220541.000536.0461239.0015483.071498.002918.0229433.0012505.0469538.0028584.0714979.0047044.0235362.0017269.0475467.0037516.0715572.005955.0240698.0022033.048021.0046448.0714979.007265.0246034.0027393.0486731.0056572.0714979.0087538.0256112.0034539.0497403.0070269.0715573.0107785.0157105.0026798.0302354.005419.0432188.0082179l.0282791.0064313c.0239512.0055977.0477838.0116718.0714979.0182818.0240105.0066696.0478431.0136964.0715572.0213188.0240105.0076819.0478431.0158402.0714979.0244749.0240105.0087538.0478432.017984.071498.0276906.0240697.0098853.0479024.0203065.0715572.0311445.0240698.0110762.0479024.0225693.0714979.0346579.0240698.0122672.0479024.02513.0714979.0384691.0241291.0136369.048021.0279288.0715572.0426376.0241291.0151256.048021.0306681.071498.0468656.0241883.0166739.0480802.0338242.0714979.05157.0242476.0184009.0481395.0373972.0715572.0569891.0243069.020366.0481396.041387.0714979.062944.0244255.0225693.0483174.045615.0715572.0694349.0245441.0250704.0483174.0509745.0714979.0774742.0246034.028167.048436.0571081.071498.0868234.0248405.0319782.0486731.06479.0715572.0984952.0250183.0369208.0489103.0747944.0714979.1136803.0254926.0438286.0493253.0889672.0714979.1352969.0263226.0549048.0502739.111477.0715572.1696571.0286348.0781887.052586.1592358.071498.2429031.0327254.1450035.0503331.2977484.0503331.4572225 0 .1602482-.0175484.3136482-.0503331.4591281-.018912.0839055-.0428632.1651908-.071498.2434986-.0213426.0583587-.0452346.1149905-.0715572.1700739-.0221726.0463297-.0460053.0915279-.0714979.135416-.0225876.0389455-.0464203.0768191-.0714979.1137399-.0228841.0337051-.046776.0665766-.0715572.0985547-.023062.0297153-.0468946.0585969-.071498.0867639-.0231805.0264996-.0470131.0523442-.0714979.0774146-.0232398.0238199-.047191.0468656-.0715572.0693754-.0233583.0214974-.047191.0423398-.0714979.0626463-.0234177.0195323-.0472503.0385286-.0715572.0568699-.0234177.0176863-.0473096.034777-.0714979.0513914-.023477.016138-.0473689.0316804-.071498.046687-.0235362.0146492-.0474281.028822-.0715572.0423993-.0235362.0132796-.0473688.0260232-.0714979.0382309-.0235955.0119695-.0474281.0234626-.0714979.0344793-.0236548.0107785-.0474875.021021-.0715572.0308467-.0236548.0095875-.0474875.0188177-.071498.0274524-.0236548.0085156-.0474874.0165549-.0714979.0241177-.0237141.0075032-.0475467.0144705-.0715572.021021-.0237141.0064314-.0475467.0124459-.0714979.017984l-.0282791.0063718c-.0129834.0029775-.0275083.0058954-.0432188.0086943-.021817.0038707-.0459461.0075628-.0715573.0110762-.0228248.0030966-.0468945.0060741-.0714979.0088134-.0234769.0026202-.0474281.0050021-.0714979.0071459-.0240105.0022034-.048021.0041685-.0715572.0058359-.0245441.0017865-.0485546.0033348-.0714979.0045258-.0253741.0013101-.0494439.0022629-.071498.0027988l-.0383575.0004764h-.0331997-.0714979-.0714979-.0715572-.071498-.0715572-.0714979-.0714979-.0715572-.0714979-.071498-.0715572-.0714979-.0714979-.0715572-.071498-.0714979-.0715572-.0714979-.0714979-.0715573-.0714979-.0714979-.0715572-.0714979-.071498-.0715572-.0714979-.0714979-.0715572-.071498-.0715572-.0714979-.0714979-.0715572-.0714979-.071498-.0715572-.0714979-.0714979-.0715572-.071498-.0714979-.0715572-.0714979-.0714979-.0715573-.0714979-.0714979-.0715572-.0714979-.071498-.0715572-.0714979-.0715572-.0714979-.071498-.0715572-.0714979-.0714979-.036994zm5.7587251-4.4447289c.0287533.131843.0441674.2714274.0441674.4184556 0 .14679-.0154141.2863149-.0441674.4180388-.018497.0846201-.0425075.1659649-.0715572.243975-.0212241.0569295-.0451161.112013-.071498.1651909-.0221133.0446027-.0460053.0878953-.0714979.1297587-.0225877.0370399-.0465389.0730079-.0715572.1079041-.0228841.0317995-.0467167.0626462-.0714979.0925997-.023062.0278693-.0468353.0549048-.071498.0811662-.0231805.0246536-.0470131.048533-.0714979.0716979-.0232991.0220333-.0471317.0434117-.0715572.0640754-.0233583.0197705-.047191.038886-.0714979.0574059-.0234177.0178649-.0472503.0350748-.0714979.0517487-.023477.0160784-.0473689.0315613-.0715572.0465083-.0235363.0145301-.0473689.0285243-.071498.041923-.0235362.0131009-.0473688.0257254-.0714979.0377545-.0235955.0117908-.0474874.0230457-.0715572.0338242-.0235955.0105403-.0474281.0205446-.0714979.0300726-.0236548.0093493-.0474875.0182222-.071498.0266187-.0236547.0082774-.0474874.0160784-.0714979.0233435-.0237141.0072055-.0475467.0139941-.0715572.0202469-.0236548.0061931-.0474874.0119099-.0714979.0171503-.0236548.0052403-.0475467.0098852-.0714979.0141728l-.0173706.0031561c-.013932.0024416-.032429.0051809-.0541866.0079201-.0211056.0026798-.0453532.0054786-.071498.0080988-.0226469.0023224-.0467167.0045853-.0714979.0066696-.0234176.0019651-.0474874.003692-.0715572.0052403-.0240105.0015483-.0480803.0028584-.0714979.0038112-.0247812.0010124-.048851.0016674-.071498.0017865l-.0113234.0000596h-.0601745-.0715572-.0714979-.0714979-.0715572-.071498-.0714979-.0714979-.0715572-.071498-.0714979-.0715572-.0714979-.0714979-.0715572-.071498-.0714979-.0714979-.0715572-.071498-.0714979-.0715572-.0714979-.0714979-.0715572-.071498-.0714979-.0714979-.0715572-.071498-.0714979-.0715572-.0714979-.0714979-.071498-.0715572-.0714979-.0714979-.0715572-.071498-.0714979-.0715572-.0714979-.0714979-.071498-.0715572-.0714979-.0714979-.0715572-.071498-.0714979-.0715572-.0714979-.0714979-.0374683v-3.6240152h.0374683.0714979.0714979.0715572.0714979.071498.0715572.0714979.0714979.0715572.071498.0714979.0714979.0715572.0714979.071498.0715572.0714979.0714979.0715572.071498.0714979.0714979.0715572.0714979.071498.0715572.0714979.0714979.071498.0715572.0714979.0714979.0715572.0714979.071498.0715572.0714979.0714979.071498.0715572.0714979.0714979.0715572.0714979.071498.0715572.0714979.0714979.071498.0715572.0714979.0714979.0715572.0714979.0301169l.0413811.0013696c.0234176.0009528.0474874.002382.0714979.0039303.0240698.0015483.0481396.0033348.0715572.0052404.0247812.0020247.048851.0042875.0714979.0064909.0261448.0025606.0503924.0051213.071498.0075628.0217576.0025011.0402546.0048831.0541866.0068482l.0173706.0031561c.0239512.0043472.0478431.0091707.0714979.0144706.0240105.0052999.0478431.0110763.0714979.017329.0240105.0063718.0478431.0131009.0715572.020366.0240105.0073841.0478432.0152447.0714979.0235221.0240105.008456.0478432.0173885.071498.0267974.0240698.0095874.0479024.0197109.0714979.0302512.0240698.010838.0479617.0220929.0715572.0338838.0241291.0120885.0479617.0246535.0714979.0377545.0241291.0134582.0479617.0275119.071498.042042.0241883.014947.0480802.0304299.0715572.0465679.0242476.0166144.0480802.0340029.0714979.0518678.0243069.0185199.0481396.0376354.0714979.0574059.0244255.0207233.0482581.0421016.0715572.064135.0244848.0231648.0483174.0470442.0714979.0716978.0246627.0262019.048436.053297.071498.0811662.0247812.0299535.0486138.0608598.0714979.0926593.0250183.0348961.0489695.0708046.0715572.1079041.0254926.0418634.0493846.085156.0714979.1297587.0263819.0531779.0502739.1083804.071498.1653099.0290497.0780101.0530602.1594146.0715572.2441538zm8.8692404-18.79191548h.0293462l-.0000593 37.21968458c0 .2223585-.0102563.442335-.0292869.6597509-.0167184.1913332-.0406696.3805821-.0715572.5675085-.0207498.1255903-.0445825.2500491-.0714979.3734361-.0218763.1003412-.0457089.2000274-.0715572.2988203-.0223505.0852752-.0462425.1698953-.071498.2539199-.0228247.0759854-.0464202.1516135-.0715572.2265865-.0228248.0679462-.0468353.1353565-.0714979.2024689-.0230026.0624677-.0469539.1245184-.0715572.1862119-.0231212.0579419-.0469539.1154669-.0714979.1726941-.0232398.0541902-.0471317.1080827-.0715572.1616178-.0232991.0509746-.0471317.1017109-.071498.1520304-.0234176.0482352-.047191.0962918-.0715572.1439316-.0233583.0456746-.0472503.0911705-.0714979.1362497-.0233584.0434117-.0473688.086347-.0715572.1292228-.0234176.0415061-.0473096.0827145-.0714979.1236847-.0235362.0398983-.0473689.0795584-.0715572.1189802-.0235955.03835-.0473096.0766405-.0715572.1145736-.023477.0366826-.0474875.0730675-.0715573.1092737-.0234769.035313-.0474281.0702091-.0714979.1051052-.0235955.0342411-.0474281.068363-.0715572.1021873-.0235955.0329905-.0473688.0658619-.0714979.0984951-.0235362.0317996-.0475467.0631823-.0715572.0945649-.0236548.0309063-.0474282.0617531-.0714979.0922425-.0236548.0299535-.0474282.0596688-.0715573.0892054-.0235955.0288816-.0475467.057525-.0714979.0860493-.0237733.0282266-.0473688.0565722-.0715572.0844415-.0235955.0272142-.0475467.0540711-.0714979.080928-.0236548.0265592-.0475467.0529397-.0715572.0791415-.0237141.0258446-.0474282.0516296-.0714979.0771169-.0235955.0250108-.047606.0496049-.0715573.074318-.0237733.0245345-.0474281.049188-.0715572.0733652-.0235955.0236412-.047606.046806-.0714979.0701495-.0237733.0231648-.0474874.0463892-.0715572.0692563-.0236548.0224502-.0475467.0446623-.0714979.0668148-.0237141.0219738-.047606.0438285-.0715572.0654451-.0237141.0213783-.0474875.0426375-.071498.0637181-.023714.0208424-.047606.0414466-.0715572.0619912-.0237733.020366-.0474874.0406725-.0714979.0607407-.0236548.0197705-.047606.0392433-.0715572.058716-.0237734.0193537-.0474874.0387073-.0714979.0578228-.0236548.0188177-.0476653.0372185-.0715572.0557385-.0237734.0184008-.0474875.0368612-.071498.0550239-.0236547.0178649-.0476652.0353725-.0715572.0529992-.0238326.0175076-.0475467.0351938-.0715572.0524633-.0236548.0170312-.047606.033586-.0714979.0503194-.0238326.016674-.0475467.033467-.0715572.0498431-.0237141.0161975-.047606.0319782-.0714979.0479375-.0237734.0158402-.0475468.03174-.0715572.047342-.0237141.0154234-.047606.030549-.071498.0456746-.0237733.0150661-.047606.0301322-.0715572.0449005-.0237141.0146492-.0475467.0291198-.0714979.0435308l-.0715572.0425185c-.0237734.0139346-.0475467.0278692-.0714979.0415657-.0237141.0135773-.0476653.0268569-.0715573.040196-.0238326.0132796-.0475467.0266783-.0714979.0396601-.023714.0128627-.0476653.0253086-.0715572.0379331-.0238919.0126246-.0475467.0255469-.0715572.0379332-.0236548.0122077-.0476653.0238199-.0714979.0357894-.0238327.0119694-.0475467.0239985-.0715572.0356702-.0237141.0115527-.0476653.0228671-.071498.0341815l-.0715572.0335861-.0714979.0325736c-.0237733.0106594-.0476653.0210211-.0715572.0314423-.0238326.0103616-.0475467.021021-.0714979.0311445-.0237141.0100639-.0476653.0195323-.0715572.029358-.0238327.0097661-.0475467.01983-.071498.0293579-.0237733.0094684-.0476652.0184604-.0715572.0276906-.0237733.0091707-.0475467.0183414-.0714979.0272738l-.0715572.0264996c-.0237734.0086347-.0477246.0169717-.0715572.0253086-.0238326.0083965-.0474874.0170908-.0714979.0252491-.0237141.0080392-.0477246.0155425-.0715572.0233435l-.071498.0232839c-.0237733.0075628-.0476652.0148279-.0715572.0221525l-.0714979.0213783c-.0238326.0070269-.047606.0142324-.0715572.0210211-.0237141.0067291-.0476653.0129818-.0714979.0194727-.0238327.0064909-.047606.0131605-.0715572.0194132l-.071498.0181031-.0715572.0175672-.0714979.0170907c-.0237734.0054786-.0476653.0104212-.0715572.0156616-.0238327.0052404-.047606.0106594-.0715572.0156616l-.0714979.0143514-.0715573.013756c-.0238326.0044662-.047606.0092898-.0714979.0135178-.0237733.004228-.0477245.0079201-.0715572.0119099l-.0714979.01191-.0715572.0107785-.0714979.0100639c-.023892.0032752-.047606.0069673-.0715573.0100638-.0237733.0030371-.0477245.0054191-.0714979.0082179-.0238326.0027988-.0476653.0056572-.0715572.0082179-.0238326.0025606-.047606.0051808-.0714979.0075032-.0237734.0023225-.0477246.0042876-.0715572.0063718-.023892.0020843-.0476653.0044663-.0715572.0063719-.0237734.001846-.0476653.0033347-.071498.0050021l-.0715572.0045258c-.0238326.0014292-.047606.0031561-.0714979.0043471-.0237733.001191-.0477246.0017865-.0715572.0027393l-.0714979.0027393-.0715572.001846c-.0237734.000536-.0476653.0005955-.071498.0009528l-.0715572.0008933-.014762.0001786h-.0567359-.0715572-.0714979-.0715572-.0715572-.071498-.0715572-.0714979-.0715572-.0714979-.0715573-.0714979-.0715572-.0714979-.0715572-.0715572-.071498-.0715572-.0714979-.0715572-.0714979-.0715572-.071498-.0715572-.0714979-.0715572-.0714979-.0715572-.0715572-.071498-.0715572-.0714979-.0715572-.0714979-.0715572-.071498-.0715572-.0714979-.0715572-.0714979-.0715572-.0715573-.0714979-.0715572-.0714979-.0715572-.0714979-.0715573-.0714979-.0715572-.0714979-.0715572-.0714979-.0715573-.0715572-.0714979-.0715572-.0714979-.0715572-.071498-.0715572-.0714979-.0715572-.0714979-.0715572-.071498-.0715572-.0715572-.0714979-.0715572-.0714979-.0715572-.071498-.0715572-.0714979-.0715572-.0714979-.0715573-.0714979-.0715572-.0715572-.0714979-.0715572-.071498-.0715572-.0714979-.0715572-.0714979-.0715572-.071498-.0715572-.0714979-.0715572-.0715572-.0714979-.0715572-.071498-.0715572-.0714979-.0715572-.0714979-.0715572-.071498-.0715572-.0714979-.0715572-.0715572-.0714979-.0715573-.0714979-.0715572-.0714979-.0715572-.0714979-.0715573-.0714979-.0715572-.0714979-.0715572-.0715572-.071498-.0715572-.0714979-.0715572-.0714979-.0715572-.071498-.0715572-.0714979-.0715572-.0714979-.0715572-.0715572-.071498-.0715572-.0714979-.0715572-.0714979-.0715573-.0714979-.0715572-.0714979-.0715572-.0714979-.0715573-.0715572-.0714979-.0715572-.0714979-.0715572-.1543193v-15.1757608h.1543193.0715572.0714979.0715572.0714979.0715572.0715573.0714979.0715572.0714979.0715572.0714979.0715573.0714979.0715572.0714979.0715572.071498.0715572.0715572.0714979.0715572.0714979.0715572.071498.0715572.0714979.0715572.0714979.0715572.071498.0715572.0715572.0714979.0715572.0714979.0715573.0714979.0715572.0714979.0715572.0714979.0715573.0714979.0715572.0715572.0714979.0715572.071498.0715572.0714979.0715572.0714979.0715572.071498.0715572.0714979.0715572.0715572.0714979.0715572.071498.0715572.0714979.0715572.0714979.0715572.071498.0715572.0714979.0715572.0715572.0714979.0715573.0714979.0715572.0714979.0715572.071498.0715572.0714979.0715572.0714979.0715572.0715572.071498.0715572.0714979.0715572.0714979.0715572.071498.0715572.0714979.0715572.0714979.0715572.0715573.0714979.0715572.0714979.0715572.0714979.0715573.0714979.0715572.0714979.0715572.0714979.0715573.0715572.0714979.0715572.0714979.0715572.071498.0715572.0714979.0715572.0714979.0715572.071498.0715572.0715572.0714979.0715572.0714979.0715572.071498.0715572.0714979.0715572.0714979.0715572.071498.0715572.0715572.0714979.0715572.0714979.0715573.0714979.0715572.0714979.0715572.071498.0715572.0715572.0714979.0715572.0714979.0715572.071498.0715572.0714979.0715572.0714979.0715572.071498.0379425l.0336147-.0002977.0715572-.0005955.0714979-.0014888c.0238919-.0005955.0477839-.0009528.0715572-.0017865.0239512-.0008337.0476653-.0019651.0714979-.003037l.0715573-.0033348.0714979-.0043471.0715572-.0049426.0714979-.0055977.0715572-.00661c.0238327-.0022629.0477839-.0044662.0714979-.0069673.0239513-.0025011.0477246-.0053595.0715573-.0081583l.0714979-.0087538c.0239512-.0030966.0477838-.0060741.0715572-.0094089.0239512-.0033348.0477246-.0070269.0715572-.0105998.0238919-.0036326.0477839-.0072055.0714979-.0110763l.0715572-.0120886.071498-.0129222c.0238919-.0044663.0478431-.0088134.0715572-.0135178.0239512-.004764.0477245-.0098853.0714979-.0148874l.0715572-.0155425c.0238919-.0053595.0477839-.010719.0714979-.0163166.0240105-.0056572.0477839-.0116718.0715572-.0176267.023892-.005955.0477839-.0120291.071498-.0182818.0238919-.0063122.0478431-.0126841.0715572-.0192941.0239512-.00661.0477245-.0135178.0714979-.0204851.0239512-.0069673.0478431-.0140537.0715572-.0213188l.0715572-.0225097c.0240105-.0076819.0477246-.0156616.0714979-.0237008.0239512-.0080988.0478432-.0161975.0715572-.024594.0239513-.0084561.0478432-.0169121.071498-.0256659.0240698-.008873.0477838-.0181627.0715572-.0273334.0239512-.0092897.0477838-.0186986.0714979-.0282861.0239512-.0097066.0479024-.0193536.0715572-.0293579.0240105-.0101235.0477839-.0204851.0714979-.0309659.0240105-.0105998.0478432-.0214379.0715572-.032395.0239513-.0110763.0478432-.022212.071498-.033586.0239512-.0114931.0479024-.0231053.0715572-.0349557.0240698-.0120886.0477838-.0243558.0714979-.0368017.0240105-.012565.0478431-.0254873.0715572-.0384691.0240698-.0131605.0479024-.0264401.0715572-.0399578.0240105-.0136965.0479024-.0275715.0714979-.0416848.0240105-.0142919.0479618-.028703.0715573-.0434117.0240697-.0150661.0478431-.0303108.0714979-.0457342.0241291-.0157211.0479024-.0316804.0715572-.0478184.0240698-.0163762.0479024-.0330501.0714979-.0499026.0241291-.0172099.0479617-.0345984.0715572-.0522251.0241291-.017984.0479617-.0362062.071498-.0546666.024129-.0189368.0480209-.0379927.0715572-.0573464.024129-.01983.0479617-.0398983.0714979-.0602047.0241883-.0208424.048021-.0420421.0715572-.0634204.0241883-.0219738.048021-.044305.0714979-.0668148.0242477-.0232243.0480803-.0467465.0715572-.0705663.024307-.0246536.0480803-.0495454.0715572-.0747944.0242477-.0260828.0480803-.0525824.071498-.0793202.0243069-.0278097.0481988-.0559767.0715572-.084501.0243662-.0297153.0481988-.0597879.0714979-.0902178.0243662-.0319186.0483767-.0640159.0715572-.0967087.0246034-.0347174.0482581-.0700304.0714979-.1056411.0246034-.0377545.0484953-.0759854.0715572-.1146927.0247812-.0416252.0486139-.083846.071498-.1266026.0248997-.0465083.0489102-.0935526.0715572-.141371.0253147-.0534161.0490881-.1077254.0714979-.1627493.0257298-.0631227.049681-.127079.0715572-.1922264.0269155-.0802729.0506295-.1621538.0714979-.2454638.0305319-.1217791.0544831-.2467739.0715572-.3748057.0207499-.1553651.0316583-.3150178.0316583-.4790772 0-.1597718-.0107899-.3149583-.0316583-.4656785-.0171334-.1238038-.0410846-.244511-.0715572-.3620026-.0208091-.0800943-.044701-.1586403-.0714979-.2356976-.0219355-.0631822-.0457681-.1254712-.0715572-.1865692-.0223505-.0529397-.0462424-.1051052-.0714979-.156437-.0227062-.0462106-.0465982-.0917661-.0715572-.1366665-.0229434-.0413275-.0467168-.0821786-.071498-.1223746-.0230026-.0373377-.0469538-.0741394-.0715572-.1104647-.0231805-.0343006-.0469538-.068363-.0714979-.1017704-.0231805-.0315614-.0471317-.0625867-.0715572-.0933144-.0232991-.0294175-.0471317-.0584182-.0714979-.0871212-.0234177-.0275119-.047191-.0547857-.0715572-.0816426-.0234177-.0258445-.047191-.0513914-.071498-.0765809-.0234176-.0242962-.0473095-.0482352-.0715572-.071936-.0234769-.0229862-.0473688-.0456746-.0715572-.0680653-.0234769-.0217356-.0473688-.0431735-.0714979-.0643732-.0235362-.0206637-.0473689-.0410893-.0715572-.0612171-.0235362-.0196514-.0473689-.0390646-.0714979-.0582396-.0235955-.0186986-.0474282-.0372185-.0715572-.0554407-.0235955-.0178649-.0474282-.0354321-.071498-.0528801-.0235955-.0170313-.0474874-.0338838-.0715572-.0504982-.0235955-.016257-.0474281-.032395-.0714979-.0482948-.0236548-.015602-.0474874-.0310254-.0715572-.0462105-.0236548-.0148874-.0474282-.0296558-.0714979-.0441859-.0235955-.0142324-.0474875-.0282861-.0715573-.0421612-.0236547-.0136368-.0474874-.0270951-.0714979-.0403747-.0236548-.0131009-.0474874-.0259636-.0715572-.0386477-.0236548-.012565-.0475467-.0249513-.0715572-.0372186-.0236548-.012029-.0474874-.0239985-.0714979-.0357298-.0237141-.0115526-.0474874-.0230457-.0715572-.0343006-.0236548-.0110762-.0475467-.0218547-.071498-.0325737-.0236547-.0105998-.0475467-.021021-.0715572-.0313231-.023714-.010183-.0475467-.0201873-.0714979-.0300726-.0237733-.0097661-.0474874-.0195323-.0715572-.0290007-.0237141-.0093493-.0475467-.0185795-.0714979-.027631-.0237141-.0089325-.047606-.0175672-.0715572-.0262614-.0237141-.0085752-.0475467-.0169122-.071498-.0252491-.0237733-.0082179-.0475467-.0163762-.0715572-.0243558-.023714-.0078606-.0475467-.0155425-.0714979-.0231053-.0237141-.0075033-.0476653-.0147683-.0715572-.0219738l-.0715572-.0210806c-.0237734-.0068482-.0475467-.0136965-.0714979-.0202469-.0237141-.0064909-.0476653-.0127437-.0715572-.0189368-.0237141-.0061932-.0475468-.0121482-.071498-.0181031-.0237733-.0058955-.047606-.0117313-.0715572-.017329-.023714-.0055977-.047606-.0110167-.0714979-.0163166-.0237141-.0052999-.047606-.0103616-.0715572-.0153638-.0237734-.0050022-.0475467-.0100044-.0714979-.0147088l-.0715572-.013756-.071498-.0128032c-.0237733-.0041684-.047606-.0083369-.0715572-.0122076l-.0714979-.0113145c-.0237734-.0036325-.0476653-.0070268-.0715572-.0103616l-.0715572-.0098257-.0714979-.0090516-.0715573-.0080987-.0714979-.0075628-.0715572-.0066696-.0714979-.0060145-.0660437-.0051213-.0000593-.0861088.066103-.0103021.0714979-.0118504c.0239512-.004109.0478431-.0082179.0715572-.012565l.0714979-.0138155c.0240105-.004764.0478432-.0097066.0715573-.0147684l.0714979-.0156615c.0239512-.005419.0479024-.0108976.0715572-.0166144.0240105-.0058359.0477838-.0119099.0715572-.017984.0240105-.0061336.0477839-.012565.0714979-.0189963.0239512-.0065505.0478432-.0132201.0715572-.0200683.0239512-.0069077.0478432-.0138751.071498-.0210806.0239512-.007265.0479024-.0147683.0715572-.0223907.0240105-.0077414.0477838-.0157211.0714979-.0237603.0240698-.0081583.0478431-.0165548.0715572-.0250108.0240105-.0085752.0478431-.0172695.0714979-.0262019.0240105-.0090516.0479024-.0182222.0715572-.0275715.0240105-.0094684.0478432-.019175.071498-.0290007.0240697-.0100044.0479024-.0201278.0715572-.0304894.0240697-.0105403.0478431-.0212593.0714979-.0321569.0240698-.0110167.0479024-.0223311.0715572-.0337646.0240698-.0116122.0479024-.0234626.0715572-.0354321.0240105-.0122077.0479024-.024594.0714979-.037159.0240698-.0128032.0479617-.0258446.0715572-.0390051.0240698-.0134582.0479025-.0270951.071498-.0409106.0240698-.0141133.0479617-.0284647.0715572-.0429949.024129-.0148278.0479024-.0298344.0714979-.0450791.0241291-.0155424.0479617-.0314422.0715572-.0474611.0241291-.0163761.0479617-.0329905.0714979-.0498431.0241884-.0172694.048021-.0347174.0715572-.0524037.0241884-.0181626.048021-.0365039.071498-.055143.0241883-.019175.0480803-.0384691.0715572-.0581205.0241883-.0202469.048021-.0407915.0714979-.0615148.0243069-.0214974.0480803-.0432331.0715572-.0652069.0242477-.0226884.0481396-.0456746.0715572-.068899.0242477-.0240581.0481396-.0483543.0714979-.0729484.0243663-.0257254.0481989-.0516891.0715573-.0780101.0243662-.0273928.0481988-.0552025.0714979-.0832504.0244255-.029358.0483174-.0591328.0715572-.0892054.0244848-.03174.0483174-.0638969.0714979-.096411.0246034-.0344792.048436-.0693754.0715572-.1046288.0246627-.0376354.0485546-.0756281.071498-.1141567.0248404-.0417444.0487324-.0839651.0715572-.1266622.0250776-.0469847.0489102-.0945054.0714979-.1425619.0254333-.0540712.049266-.1089164.0715572-.1642976.0259669-.0645519.0497995-.129997.0714979-.1962758.0272712-.08331.0511631-.1679897.0715572-.2537412.0330219-.1391081.0568545-.2811341.0715572-.4256016.0116199-.1139781.017667-.2295045.017667-.3461623 0-.1232083-.0061064-.24332-.017667-.3604543-.014762-.1497079-.0387725-.2942945-.0715572-.433879-.0204534-.0871807-.0443453-.1723963-.0715572-.2555277-.0217576-.066517-.0455903-.1317239-.0714979-.1956802-.0223505-.0550835-.0461832-.1092141-.0715572-.1623325-.022647-.0474015-.0465389-.0940289-.0714979-.1398822-.0228841-.0419825-.046776-.08331-.0715572-.124042-.023062-.037814-.0468353-.0750921-.071498-.1117747-.0231212-.0343602-.0470131-.0681844-.0715572-.1015322-.0231805-.0315614-.0470131-.0627059-.0714979-.0933739-.0233584-.0292985-.0470724-.0582992-.0715572-.0868235-.0232991-.0270951-.047191-.0537138-.0714979-.0800943-.0233584-.0253682-.0472503-.050379-.0715573-.0750922-.0234176-.0238198-.0472502-.0472824-.0714979-.0704472-.0234769-.0224503-.0473095-.0446623-.0715572-.0664575-.0234769-.0211401-.0473688-.0420421-.0715572-.0626463-.0235362-.0200087-.0473096-.0397792-.0714979-.0592519-.0235362-.0189368-.0473689-.0376949-.0715572-.0560958-.0235362-.017984-.0473689-.0356703-.071498-.0531183-.0235955-.0170908-.0474281-.0338838-.0715572-.0504982-.0235955-.0161975-.0473688-.0321568-.0714979-.0479374-.0235955-.015483-.0474874-.0307277-.0715572-.0457342-.0235955-.0147088-.0474874-.0291794-.0714979-.0434713-.0236548-.0140537-.0474874-.0278692-.0715572-.0415061-.0235955-.0133987-.0474282-.0266187-.071498-.0396005-.0236547-.0128032-.0474874-.0253087-.0715572-.0377545-.0236548-.0122077-.0474874-.0242368-.0714979-.0360872-.0237141-.0116717-.0474874-.0232839-.0715572-.0345388-.0236548-.0111358-.0475467-.0221525-.0715572-.0328714-.0236548-.0105998-.0474874-.0208424-.0714979-.0311445-.0236548-.0101234-.047606-.0200682-.0715572-.0298939-.0236548-.0096471-.0475468-.019175-.071498-.0285243-.023714-.0092302-.0475467-.0184009-.0715572-.0273333-.023714-.0088134-.0474874-.0174481-.0714979-.0259637-.0237141-.0083965-.0475467-.0165548-.0715572-.0246536-.0237141-.0079796-.0475467-.0157806-.0714979-.0234625-.0237141-.0076224-.0475467-.0151257-.0715572-.0224503-.0237734-.007265-.0474875-.0145301-.071498-.0214974-.023714-.0068482-.047606-.0134582-.0715572-.0200087-.023714-.0065505-.0475467-.0128627-.0714979-.0191155l-.0715572-.0182817c-.0237734-.0058954-.0475467-.0116717-.0715572-.0172694-.0237141-.0055381-.0475467-.0108976-.0714979-.016138l-.0715573-.0153042c-.0237733-.0049427-.0474874-.0099448-.0714979-.0145897-.0237141-.0046449-.0476653-.0089325-.0715572-.0133391l-.0714979-.0126246c-.0237734-.0040494-.0475467-.0081583-.0715572-.0119695l-.0714979-.0108976-.0715573-.0101234-.0714979-.009528-.0715572-.0085156-.0714979-.0077414-.0715572-.0072055-.0715572-.0063123-.071498-.0055381-.0715572-.0051213-.0714979-.0041089-.0283976-.0016079-.0431596-.0026797-.0714979-.004228-.0715572-.0039899-.071498-.0037516-.0715572-.0034539-.0714979-.0030966-.0715572-.0026201-.0714979-.0022034-.0715572-.0016078-.0715572-.0009528-.0394247-.0001191h-.0320733-.0715572-.0714979-.0715572-.0714979-.0715573-.0714979-.0715572-.0714979-.0715572-.0715572-.071498-.0715572-.0714979-.0715572-.0714979-.0715572-.071498-.0715572-.0714979-.0715572-.0714979-.0715572-.0715572-.071498-.0715572-.0714979-.0715572-.0714979-.0715572-.071498-.0715572-.0714979-.0715572-.0714979-.0715572-.0715573-.0714979-.0715572-.0714979-.0715572-.0714979-.0715573-.0714979-.0715572-.0714979-.0715572-.0714979-.0715573-.0715572-.0714979-.0715572-.0714979-.0715572-.071498-.0715572-.0714979-.0715572-.0714979-.0715572-.071498-.0715572-.0715572-.0714979-.0715572-.0714979-.0715572-.071498-.0715572-.0714979-.0715572-.0714979-.0715573-.0714979-.0715572-.0715572-.0714979-.0715572-.071498-.0715572-.0714979-.0715572-.0714979-.0715572-.071498-.0715572-.0714979-.0715572-.0715572-.0714979-.0715572-.071498-.0715572-.0714979-.0715572-.0714979-.0715572-.071498-.0715572-.0714979-.0715572-.0715572-.0714979-.0715573-.0714979-.0715572-.0714979-.0715572-.0714979-.0715573-.0714979-.0715572-.0714979-.0715572-.0715572-.071498-.0715572-.0714979-.0715572-.0714979-.0715572-.071498-.0715572-.0714979-.0715572-.0714979-.0715572-.0715572-.071498-.0715572-.0714979-.0715572-.0714979-.0715573-.0714979-.0715572-.0714979-.0715572-.0714979-.0715573-.0715572-.0714979-.0715572-.0714979-.0715572-.1543193v-7.73020417c0-.52004739.0532973-1.02752981.1543193-1.51750462.0216983-.10492654.0455903-.20895984.0715572-.31215945.0222319-.08831218.0461831-.17596931.0714979-.2629714.0226469-.07771234.0464796-.15488874.0715572-.23152918.0228841-.07003043.0465982-.13970356.0714979-.2087812.023062-.06407546.046776-.12779362.0715572-.19103538.0231806-.05907329.0469539-.11784883.0715573-.17614797.0232397-.05502391.0470131-.10980962.0714979-.16417848.0232398-.05162958.047191-.10290186.0715572-.15387639.0232398-.04865209.047191-.09694689.0714979-.14500348.0233584-.04621056.0473096-.09206382.0715572-.13773842.0233584-.04400722.0472503-.08771669.0714979-.13118796.023477-.04216118.0473096-.08396506.0715573-.12559029.0235362-.04037468.0472502-.08057072.0714979-.12040946.0235362-.03864774.0473688-.07699774.0715572-.11516909.0234176-.03698035.0474281-.07360341.0714979-.11010737.0235955-.03572981.0473689-.07134052.0715572-.10665348.0236548-.03459837.0472503-.06919674.071498-.10337826.0235362-.03310962.0475467-.0658024.0715572-.09849517.0235362-.03215683.0474874-.06407547.0715572-.09581545.023714-.03126358.0473095-.06264627.0714979-.093493.0235362-.03001304.047606-.05954969.0715572-.08920543.0235955-.0292389.0474281-.05823959.0714979-.08706164.0237141-.02846475.0474282-.0569295.0715572-.08503695.0235363-.02739286.0475468-.05430931.071498-.08134487.0237733-.02679736.0474281-.05365427.0715572-.08009433.0235955-.02590411.0475467-.05157002.0714979-.07717639.0236548-.02524906.0475467-.05031948.0715572-.0752708.0237141-.02459402.0474281-.04918804.0714979-.07348431.0236548-.02387943.047606-.04740155.0715572-.07092368.0237734-.02340302.0473689-.04704425.071498-.07008998.0235955-.02256933.0476652-.04460271.0715572-.06687429.0237733-.02215248.0474874-.04436452.0715572-.06621925.0236548-.02149744.047606-.04257803.0714979-.06371816.0237734-.02102104.0475467-.04204208.0715572-.06276537.0237141-.02042554.0475467-.04055334.0714979-.06068113.0237734-.01994915.0475468-.03983874.0715573-.05949014.023714-.01947274.0475467-.03870729.0714979-.05782274l.0715572-.05651265.0714979-.05502391c.0237734-.01804355.047606-.03596801.0715572-.05371382.0237141-.01756715.0475467-.03507476.0714979-.05240372l.0715573-.05103408c.023714-.01673346.0475467-.03334782.0714979-.04978354l.0715572-.04865209.0715572-.047342c.0237734-.01554247.0475467-.03102538.0714979-.0462701l.0715572-.04490047c.0238327-.01482787.0475467-.02965574.071498-.04418586.023714-.01441103.0476652-.0284052.0715572-.04251848.0238326-.01411327.0474874-.02834565.0714979-.04216117.0236548-.01363688.0477246-.02679736.0715572-.04019604s.0474874-.02703556.0714979-.04013649c.0237141-.01292228.0477246-.02542771.0715572-.0381118.0238327-.01268408.0475467-.02542771.071498-.0378736.023714-.01232678.0476652-.02429627.0715572-.0363253.0237733-.01196949.047606-.02399853.0714979-.03572982l.0715572-.03471746c.0237734-.01137399.0476653-.02245023.0715572-.03358602.0238327-.01107625.0475467-.02233114.0714979-.03316918.0237141-.01071894.0477246-.02096149.0715572-.03144223.0238327-.01048075.0475468-.02114014.071498-.03138269.023714-.01012344.0477245-.01977049.0715572-.02965574.0237733-.0098257.0475467-.01977049.0714979-.02935799l.0715572-.0282861.0714979-.02733331c.023892-.00905155.047606-.0182222.0715572-.02697601.0237141-.00869425.0476653-.01685256.071498-.02530861.0238919-.00845606.047606-.01709076.0715572-.02530862.0237141-.00815831.0476653-.01584022.0714979-.02376032l.0715572-.02328393c.0238327-.00762236.047606-.01530427.0715572-.02268843.0237141-.00732461.0476653-.01423237.0714979-.02131879.0238327-.00714596.047606-.01453012.0715573-.02137833.023714-.00678867.0476652-.01310093.0714979-.0196514.0238326-.00655047.047606-.01316048.0715572-.01947275l.0714979-.0185795c.0237734-.00601452.0476653-.01173129.0715572-.01750761.0238327-.00577632.0475467-.01196948.071498-.0175076.023714-.00547857.0477245-.01048075.0715572-.01578067l.0714979-.01566157.0715572-.01482787c.0237141-.00476397.0476653-.0092302.0714979-.01375598.0238919-.00458532.047606-.0094684.0715572-.01381552.0237734-.00434713.0477246-.00803921.0715572-.01208859l.071498-.01190994c.0238326-.00381118.0476652-.00774145.0715572-.01131444.0237733-.00357298.0476653-.00672911.0714979-.01006389.0238919-.00333479.047606-.00696732.0715572-.0100639.0237734-.00309658.0476653-.00583587.0714979-.00869425l.0715572-.00821786c.0238327-.00262019.047606-.00553812.071498-.00792011.0237733-.00238199.0477245-.00422803.0715572-.00637181l.0714979-.00637182.0715572-.00541902c.0237734-.00172694.0476653-.00309659.0714979-.00458533.0238327-.00142919.047606-.00327523.0715572-.00452577.0237734-.00125055.0477246-.00196514.0715573-.00297749l.0714979-.00267973c.0238919-.00077415.0476653-.00178649.0715572-.00232244.0237733-.00053595.0476653-.0005955.0714979-.0009528.0238327-.00035729.0476653-.00077414.0715572-.00089324l.0179634-.0002382h.0535345.0715573.0714979.0715572.0714979.0715572.0714979.0715573.0715572.0714979.0715572.0714979.0715572.071498.0715572.0714979.0715572.0714979.0715572.071498.0715572.0715572.0714979.0715572.0714979.0715572.071498.0715572.0714979.0715572.0714979.0715572.071498.0715572.0715572.0714979.0715572.0714979.0715573.0714979.0715572.0714979.0715572.071498.0715572.0715572.0714979.0715572.0714979.0715572.071498.0715572.0714979.0715572.0714979.0715572.071498.0715572.0715572.0714979.0715572.0714979.0715573.0714979.0715572.0714979.0715572.0714979.0715573.0714979.0715572.0715572.0714979.0715572.071498.0715572.0714979.0715572.0714979.0715572.071498.0715572.0714979.0715572.0715572.0714979.0715572.071498.0715572.0714979.0715572.0714979.0715572.071498.0715572.0714979.0715572.0715572.0714979.0715573.0714979.0715572.0714979.0715572.071498.0715572.0714979.0715572.0714979.0715572.0715572.071498.0715572.0714979.0715572.0714979.0715572.071498.0715572.0714979.0715572.0714979.0715572.0715573.0714979.0715572.0714979.0715572.0714979.0715573.0714979.0715572.0714979.0715572.0714979.0715573.0715572.0715572.0714979.0715572.0714979.0715572.071498.0715572.0714979.0715572.0714979.0715572.071498.0715572.0714979.0715572z" fill="#54b230"/><path d="m.35735182 25.9967873v-18.38411922c0-.51855865.05288238-1.02473097.15337076-1.51339569.0215798-.10492654.04553102-.20890029.07143864-.31215945.02217266-.08843128.04606458-.17614797.07137935-.26326915.02258766-.07765279.0464203-.15471009.07137936-.23129098.02288408-.07008998.04653886-.13988221.07143864-.20907894.02306193-.06401592.04665743-.12767453.07137935-.19085674.02306193-.05907329.04689458-.11796793.07143864-.17632662.0231805-.05502391.04695386-.10969052.07137935-.16399983.02323979-.05162958.04707243-.10284231.07137936-.15381684.02323979-.04871164.047191-.09706599.07143864-.14518213.02329907-.04621056.04713171-.09206382.07137935-.13767887.02335836-.04400722.047191-.08771669.07137935-.13118796.02341765-.04210163.04719101-.08396506.07143864-.12553074.02347693-.04037468.04713172-.08063027.07137936-.12052856.02347693-.03858819.04730957-.07687864.07143864-.11499044.02335836-.0369208.04736885-.07360341.07137935-.11010737.02353622-.03572981.04725029-.07134052.07137936-.10665348.02371407-.03465792.047191-.06925629.07143863-.10349736.02341765-.03305007.04742815-.0656833.07137936-.09837608.0235955-.03215683.04736886-.06407546.07143864-.09581544.02365478-.03120403.04725028-.06264627.07137935-.093493.02347693-.0299535.04748743-.05943059.07137936-.08902678.0235955-.0292389.04736885-.05835869.07143863-.08724029.02365479-.0284052.04730958-.05675085.07137936-.08479875.02353621-.02745241.04748743-.05442841.07143864-.08152352.02365478-.02685691.04730957-.05365427.07137935-.08009433.02353622-.02590411.04748743-.05145093.07137936-.07699774.02365478-.02530862.04742814-.05037903.07143864-.07533035.02365478-.02459402.04736885-.04918804.07137935-.07348431.0235955-.02387943.04754671-.04740155.07143864-.07092368.02377336-.02340302.04730957-.0469847.07137935-.07003043.02353622-.02256933.04754672-.04460271.07137936-.06687429.02377335-.02221204.04736885-.04448362.07143864-.06633835.0235955-.02143789.04754671-.04245893.07137935-.06359907.02377336-.02102104.04742814-.04210162.07143864-.06282491.02365479-.02042555.04748743-.04049379.07137935-.06062158.02365479-.01994915.04742815-.03989829.07137936-.05954969.02365478-.0194132.04754671-.03864774.07143864-.05782274.02371407-.01899635.04742814-.03781405.07137935-.05651265.02365479-.01851996.04754671-.03680171.07143864-.05502391.02371407-.01804356.04748743-.03602756.07137935-.05377337l.07137936-.05228462c.02371407-.01720986.04748743-.03430062.07143864-.05121273.02365478-.01673346.04748742-.03328827.07137935-.04972399.02371407-.01637616.04748743-.03263322.07137936-.04871164.02371407-.01589977.04754671-.03156133.07143863-.0472229.02371408-.01554247.04742815-.03120403.07137936-.0465083.02365478-.01512562.04754671-.02989395.07143864-.04478137.02377335-.01482787.04742814-.02983439.07137935-.04436451.0235955-.01435148.04754671-.0282861.07137936-.04239938.02383264-.01411327.04742814-.02846475.07143864-.04233982.0235955-.01363688.04760599-.02667826.07137935-.04007694.02383264-.01339868.04748743-.02697601.07143864-.04013649.02365478-.01298183.04754671-.02548726.07137935-.03817135.02377336-.01268408.04748743-.02542771.07137936-.0378736.02371407-.01232678.04754671-.02441537.07143864-.03650395l.07137935-.03561071c.02377336-.01173129.04754671-.02346258.07143864-.03489612.02371407-.01137399.04754671-.02239068.07137935-.03352647s.04742815-.02250978.07137936-.03334783c.02365478-.01077849.04760599-.02090194.07143864-.03138268.02377335-.01048074.04748742-.02114014.07137935-.03138268.02371407-.01012345.047606-.0198896.07143864-.02977485l.07137935-.02929844.07137936-.02846475.07143864-.02727376c.02383264-.00905155.04742814-.01840085.07137935-.0272142.02365479-.00869426.04766528-.01679301.07143864-.02524907.02377336-.00845605.04748743-.01703121.07137935-.02524907l.07137936-.02399852.07143864-.02328393c.02377335-.00762236.04748742-.01542336.07137935-.02280753.02365479-.00732461.047606-.01429192.07137936-.02137833.02383264-.00714596.04754671-.01441103.07143863-.02131879.02371408-.00684821.04754672-.01322003.07137936-.01983004l.07143864-.01947275c.02377335-.00631227.04748743-.01274363.07137935-.0188177.02371407-.00607407.047606-.01161219.07137936-.01744806.02377335-.00583587.04754671-.01190994.07143864-.01750761.02371407-.00553812.04760599-.01071894.07137935-.01601886l.07143864-.01560202c.02377336-.00512127.04748743-.01030209.07137935-.01512562.02371407-.00476398.047606-.00917065.07137936-.01375598.02383264-.00458532.04754671-.0093493.07143864-.01369642.02377335-.00434713.04754671-.00827741.07137935-.01238634l.07143864-.01190994c.02377336-.00381118.04748743-.0079201.07137935-.01155264.02371407-.00363253.047606-.00666956.07137936-.01006389.02377335-.00333478.04754671-.00690776.07143864-.0100639l.07137935-.008992.07143864-.00815831c.02383264-.00267973.04748743-.00577632.07137935-.00821785.02371408-.00244154.047606-.00422803.07137936-.00643137l.07143864-.00631227c.02377335-.00202469.04754671-.00398983.07137935-.00571677.02377336-.00172694.047606-.00309658.07143864-.00458532s.04754671-.00321568.07137935-.00452578c.02371408-.00131009.04754672-.00220334.07137936-.00327523l.07143864-.00273929c.02377335-.00083369.04748743-.00208424.07137935-.00267973.02371407-.0005955.047606-.00053595.07137936-.00089325.02377335-.0003573.04760599-.00077414.07143864-.00089324l.07137935-.00041685h.07143864.07137935.07137936.07143864.07137935.07143864.07137935.07137936.07143864.07137935.07143864.07137935.07137936.07143864.07137935.07143864.07137935.07137936.07143864.07137935.07143864.07137935.07137936.07143864.07137935.07143864.07137936.07137935.07143864.07137935.07143866.0713793.0713794.0714386.0713794.0713793.0714387.0713793.0714387.0713793.0713794.0714386.0713794.0714386.0713794.0713793.0714387.0713793.0714387.0713793.0713794.0714386.0713794.0714386.0713793.0713794.0714386.0713794.0713793.0714387.0713793.0714387.0713793.0714387.0713793.0713794.0714386.0713794.0713793.0714387.0713793.0714387.0713793.0713794.0714386.0713794.0714386.0713794.0713793.0714386.0713794.0714386.0713794.0713794.0714386.0713793.0713794.0714386.0713794.0714386.0713794.0714386.0713794.0713793.0714387.0713793.0714387.0713793.0713794.0714386.0713794.0713793.0714387.0713793.0714387.0713793.0714386.0713794.0713794.0714386.0713793.0713794.0714386.0713794.0714386.0713794.0713793.0714387.0713793.0713794.0714386.0713794.0714386.0713794.0714386.0713794.0713793.0714387.0713793.0713794.0714386.0713794.0714386.0713794.0713793.0714386.0713794.0714386.0713794.0713794.0714386.0713793.0714387.0713793.0713794.0714386.0713794.0713793.0714387.0713793.0714387.0605894v37.21968458c0 .3237716-.0206905.6427197-.0605894.9555938-.0192084.1506607-.0433968.2997135-.0714387.4473967-.0213426.1123107-.0450567.2237878-.0713793.3342524-.0221727.0930762-.0458867.1854973-.0714387.2772038-.022469.0804516-.046361.1603078-.0713793.2395684-.0227062.0718169-.0465982.1430979-.0713794.213962-.0229433.0655642-.0467167.1307711-.0714386.1955016-.0230619.060443-.0468353.120469-.0713794.1801378-.0231212.0561554-.0469538.1120725-.0713793.1675133-.0232398.0526419-.0470724.1049265-.0714387.156973-.0232397.0496048-.0470724.0988524-.0713793.1478618-.0233584.0470443-.0471317.0937908-.0714386.1402395-.0233584.0447218-.0471318.0892055-.0713794.1333913-.0234769.0427567-.0470724.0853347-.0713794.1275554-.0234176.040732-.0472502.0812258-.0714386.1214814-.0233584.0389455-.0473096.0774741-.0713794.1159432-.0234769.0375759-.0473095.0749135-.0714386.112013-.0235955.0362658-.047191.072472-.0713793.1082613-.023477.0347175-.0473689.0691968-.0713794.1034974-.0234769.0335265-.0473689.0667552-.0714386.0999243-.0235955.0325737-.0473096.0650283-.0713794.0971851-.0235362.0314423-.0473688.0626463-.0714386.0936717-.0235362.0303108-.0474282.0603238-.0713794.0902773-.0236548.0295962-.0473096.0591924-.0713793.0883717-.0235363.0285243-.0474875.0566913-.0714387.0848583-.0235955.0277502-.0473688.0552622-.0713793.082655-.0237141.0270356-.0473096.0541902-.0713794.0808685-.0235362.0260827-.0475467.0516891-.0714386.0774741-.0237141.0255468-.0473096.0511532-.0713794.0763427-.0235955.0247131-.0474874.049069-.0714386.0734843-.0236548.0241177-.0473689.0480566-.0713794.0718765-.0236548.0235221-.0474281.0468656-.0714386.07009-.0235955.0228075-.0474874.0453173-.0713794.0678271-.023714.0223311-.0473688.0447218-.0713793.0667552-.0235955.0216165-.0475467.0428162-.0714387.064135-.0237733.0212592-.0473095.0426971-.0713793.063599-.0235362.0204851-.047606.0404343-.0713794.0606812-.0237733.0201873-.0474281.0405533-.0714386.0604429-.0235955.0195323-.0475467.0386477-.0713794.0578227-.0237733.019175-.0474281.0385287-.0714386.0574059-.0235955.0185795-.0475467.0366826-.0713794.0549644-.0237733.0182222-.0473688.0365635-.0713793.054488-.0235955.0176862-.047606.0348961-.0714386.0523441-.0237734.017329-.0473689.0348366-.0713794.0519274-.0235955.016793-.0475467.0332287-.0713794.0497239-.0238326.0165549-.0474281.0332883-.0714386.0495454-.0235955.0159593-.0475467.0315018-.0713793.0472229-.0238327.0157211-.0474282.03174-.0714387.0472229-.0235955.0151852-.047606.0297748-.0713793.0447218-.0237734.014947-.0474282.0301321-.0714387.0447814-.0236548.0144705-.047606.0285243-.0713793.0426971-.0237734.0141728-.0474282.0284647-.0713794.0423994-.0237141.0137559-.0475467.0272142-.0714386.0407319-.0237141.0134583-.0474875.0269165-.0713794.040077-.0237141.0131009-.0474874.0260827-.0713793.0388859l-.0714387.0378736c-.0237733.0124459-.0474874.0248918-.0713793.0370995-.0237141.0120886-.0475467.0238199-.0714387.0356702-.0237733.0117909-.0474281.023939-.0713793.0354917-.0236548.0114335-.047606.0223311-.0713794.0335264-.0238326.0111954-.0474874.0225694-.0714386.0335265-.0236548.010838-.047606.0211997-.0713794.0317995l-.0714386.0313827-.0713794.0304299c-.023714.0099448-.047606.0195918-.0714386.0292984-.0237734.0097066-.0474874.0195919-.0713794.0290603-.0236547.0093493-.0475467.0181031-.0713793.0272142-.0238327.0091111-.0474874.0184009-.0714386.0272738-.0237141.0088133-.0475468.0172098-.0713794.025785l-.0713794.025249-.0714386.0245941c-.0237141.0079796-.047606.015602-.0713794.0232839-.0238326.0077414-.0474874.0157806-.0714386.0232839-.0236548.0074437-.047606.0142919-.0713793.0214974l-.0713794.0213188-.0714386.0204256c-.0237141.0066695-.0475468.0129818-.0713794.0194132-.0238326.0064313-.0475467.01322-.0714386.0193536-.0236548.0061336-.0476653.0116122-.0713794.0175076-.0237733.0058954-.0475467.0118504-.0713793.0175076l-.0714387.0164953-.0713793.0156616c-.0238327.0051808-.0474875.0107189-.0714387.0156615-.023714.0048831-.047606.0090516-.0713793.0136965-.0237734.0046448-.0475467.0093493-.0713794.0137559l-.0714386.0129223c-.0237141.0041685-.0475467.0079201-.0713794.0118504-.0238326.0039303-.0475467.0082179-.0713793.0119099-.0237141.0036921-.047606.0067887-.0714387.0102426l-.0713793.0100639c-.0237734.0032157-.0475467.0064909-.0714387.0094684-.023714.0029775-.047606.0054786-.0713793.0082178-.0238327.0027393-.0475467.0057168-.0714387.0082179-.023714.0025011-.0475467.0046449-.0713793.0069078l-.0713794.0063718c-.0238326.0020247-.0475467.0045258-.0714386.0063122-.0237141.0017865-.047606.0029775-.0713794.0045258l-.0713793.0045258-.0714386.0038112c-.0237141.0011314-.047606.001846-.0713794.0027393-.0238326.0008932-.047606.0020247-.0714386.0027392-.0237141.0006551-.047606.0008933-.0713794.0013697l-.0713793.0008932c-.0220541.0001787-.0440489.0008337-.0662216.0008337h-.0765964-.0714387-.0713793-.0713794-.0714386-.0713794-.0714386-.0713794-.0713793-.0714387-.0713793-.0714387-.0713793-.0713794-.0714386-.0713794-.0713793-.07143866-.07137935-.07143864-.07137935-.07137936-.07143864-.07137935-.07143864-.07137936-.07137935-.07143864-.07137935-.07143864-.07137936-.07137935-.07143864-.07137935-.07143864-.07137936-.07137935-.07143864-.07137935-.07143864-.07137936-.07137935-.07143864-.07137935-.07143864-.07137936-.07137935-.07143864-.07137935-.07143864-.07137936-.07137935-.07143864-.07137936-.07137935-.07143864-.07137935-.07143864-.07137936-.07137935-.07143864-.07137935-.07143864-.07137936-.07137935-.07143864-.07137935-.07143864-.07137936-.07137935-.07143864-.07137935-.07143864-.07137936-.07137935-.07143864-.07137936-.07143863-.07137936-.07137935-.07143864-.07137936-.07137935-.07143864-.07137935-.07143864-.07137936-.07137935-.07143864-.07137935-.07143864-.07137936-.07137935-.07143864-.07137935-.07143864-.07137936-.07137935-.07143864-.07137935-.07143864-.07137936-.07137935-.07143864-.07137936-.07143863-.07137936-.07137935-.07143864-.07137936-.07137935-.07143864-.07137935-.07143864-.07137936-.07137935-.07143864-.07137935-.07143864-.07137936-.07137935-.07143864-.07137935-.07143864-.07137936-.07137935-.07143864-.07137936-.07143863-.07137936-.07137935-.07143864-.07137936-.07143863-.07137936-.07137935-.07143864-.07137936-.07143864-.07137935-.07137935-.07143864-.07137936-.07137935-.07143864-.07137935-.07143864-.07137936-.07137935-.07143864-.15337076v-15.6877094s.05276381.0145896.15337076.0400769l.07143864.0179245.07137935.0175076.07137936.0172098.07143864.0169717.07137935.0166739.07143864.0164357.07137935.0161975.07137936.0159593.07143864.0157212.07137935.0155424.07137935.0153043.07143864.0151256.07137936.014947.07143864.0146492.07137935.0145301.07137936.0143515.07143863.0141728.07137936.0139347.07143864.013875.07137935.0136369.07137936.0133987.07143863.0132796.07137936.0131009.07143864.0129223.07137935.0128032.07137936.012565.07143864.0124458.07137935.0122077.07143864.0120886.07137935.0119099.07137936.0117909.07143864.0116122.07137935.0114335.07143864.0113145.07137935.0111357.07137936.0110167.07143864.0107785.07137935.0106594.07143864.0104808.07137935.0103616.07137936.010183.07143864.0100639.07137935.0098257.07137936.0097662.07143863.0095279.07137936.0094089.07143864.0092897.07137935.0090516.07137936.008992.07143864.0087538.07137935.0086942.07143864.0083965.07137935.0083965.07137936.0080988.07143864.0080987.07137935.0078606.07143864.0076819.07137935.0076224.07137936.0073246.07143864.0073246.07137935.0070269.07143864.0069673.07137935.0068482.07137936.0065504.07143864.0066101.07137935.0061931.07143864.0061932.07137935.0060145.07137936.0058359.07143864.0057763.07137935.005419.07137936.0054786.07143863.0051808.07137936.0050617.07143864.0050022.07137935.0046449.07137936.0046449.07143864.0044662.07137935.004228.07143864.004228.07137935.0038708.07137936.0038112.07143864.003692.07137935.0033944.07143864.0033943.07137935.0030966.07137936.0029775.07143864.0029775.07137935.002501.07143864.0025607.07137935.002382.07137936.0020842.07143864.0021438.07137935.0017865.07143864.0016078.07137935.0016674.07137936.001191.07143864.001191.07137935.0010719.07137936.0007146.07143864.0007741.07137935.000536.07143864.0002382.07137935.0001786.07137936-.0001191.07143864-.0004764.07137935-.0004168.07143864-.0004169.07137935-.0004168.07137936-.0013101.07143864-.0013101.07137935-.0013101.07143864-.0013101.07137935-.0017865.07137936-.0022629.07143864-.0022033.07137935-.0022033.07143864-.002382.07137935-.0031562.07137936-.0031561.07143864-.0032157.07137935-.0031561.07143864-.0039898.07137935-.004109.07137936-.0041684.07143864-.0041685.07137935-.004764.07143864-.0051808.07137936-.0051213.07137935-.0051808.07143864-.0057168.07137935-.0061931.07143866-.0061932.0713793-.0062527.0713794-.0067291.0714386-.0073247.0713794-.007265.0713793-.0073246.0714387-.0079797.0713793-.0083965.0714387-.008456.0713793-.0083966.0713794-.0093493.0714386-.0095875.0713794-.0095875.0714386-.0097661c.0240698-.0034539.0474874-.0072651.0713794-.0107785l.0713793-.0107785.0714387-.010838.0713793-.011374c.0240105-.0038707.0475467-.0080988.0714387-.0120886l.0713793-.012029c.0236548-.0040494.0479024-.0079202.0713794-.0120886.0240697-.0042876.0474874-.0088729.0714386-.0132796l.0713794-.0133987.0714386-.0133987.0713793-.0140537c.0240105-.004764.0475468-.0098852.0713794-.0147683l.0714386-.0147683.0713794-.0150066c.0241291-.0051808.0474874-.0107784.0713793-.0161379l.0714387-.0161975c.0236548-.0054786.0479024-.0105999.0713793-.016138.0241291-.0057168.0475468-.0117313.0714387-.0175076l.0713793-.0176863c.0237141-.0058954.0479025-.0116122.0714387-.0176267.0240105-.0061336.047606-.012565.0713793-.0188177l.0713794-.019175c.0237733-.0064313.0479024-.0126841.0714386-.0192345.0240105-.00661.047606-.0135178.0713794-.0203065l.0713793-.0207828c.0237734-.0069673.0479025-.013756.0714387-.0208424l.0713793-.0219738.0714387-.0225098c.023714-.0075033.0479024-.0148279.0713793-.0225098l.0713794-.0238794.0714386-.0242963c.0237141-.0081583.0479617-.0160188.0713794-.0242963.024129-.0085156.0475467-.0173885.0714386-.0260232l.0713794-.0261423c.0237733-.0088729.0478431-.0175671.0713793-.0265591.0241291-.0091707.047606-.0186986.0714386-.0280479.0238327-.0093493.0478432-.0186391.0713794-.0281075l.0714386-.0291793.0713794-.0301322c.0237141-.0100639.0479617-.01983.0713794-.0300726.0241883-.0105403.0475467-.021557.0714386-.0322759l.0713793-.0322164.0713794-.0333478c.0240105-.011374.0477246-.0229862.0714386-.0345388.0237734-.0115527.0479617-.0229862.0713794-.0347175.0241883-.0121481.047606-.0246536.0714386-.0369208.0238327-.0122672.0479025-.0244154.0713794-.0368612.0241291-.0127437.0476653-.0257851.0714386-.0387669.0239512-.0130414.0477839-.0261423.0713794-.0393623.0240105-.0134583.0477838-.0270356.0713793-.0406725.0240698-.013875.0477839-.0279883.0714387-.0421016.0238919-.0142324.0478431-.0284647.0713793-.0428758.0241291-.0148278.0477246-.0298344.0714387-.0448409.0238919-.015066.0479024-.0301321.0713793-.0454364.0241291-.0157211.0476653-.0318591.0713794-.0478184.0238919-.0161379.0479617-.0320973.0714386-.0484139.0241884-.016793.0476653-.0338837.0713794-.050915.0238919-.0171503.0479617-.0343601.0713793-.0517486.0241884-.0179245.0477839-.0360871.0714387-.0542498.0240105-.0184008.0479024-.0369208.0713793-.0555599.0240698-.0191154.0478432-.038469.0714387-.0578822.0240697-.0198301.0478431-.0398983.0713793-.0599666.0240105-.0204851.048021-.0409106.0714386-.0616339.0242477-.0214379.0477246-.0432926.0713794-.0650283.0239512-.0220333.048021-.0440072.0713794-.0663383.0242476-.0231648.0479024-.0465679.0714386-.0700304.0241291-.0240581.0479024-.0483544.0713793-.0727102.0240105-.0248918.0480803-.049724.0713794-.0749135.0243069-.0263805.0478431-.0530588.0714386-.0797966.0242477-.0274524.0479617-.055143.0713794-.0829527.0241291-.0286434.0481396-.0573463.0714386-.0864066.0241884-.0301917.0480803-.0603834.0713794-.0909324.0243662-.0319781.0479617-.0642541.0713793-.0966491.0243662-.0337051.0480803-.0676484.0714387-.10183.0243662-.0356107.0481395-.0715191.0713793-.1076658.0243662-.0378736.0481989-.0760449.0713794-.114514.0244255-.0406129.0483174-.0814045.0714386-.1226128.0245441-.04365.0483174-.0875976.0713794-.1319026.0246626-.0474015.048436-.0951008.0714386-.1431574.0247812-.0516892.0484953-.1038547.0713794-.156318.0248405-.0570485.0487324-.1144544.0714386-.1723963.0250184-.0638968.0489103-.1283296.0713794-.1932983.0254926-.0737225.0491474-.1482191.0713793-.2233113.0259669-.0877762.0497403-.1764457.0714387-.2659489.0269154-.1110601.0508074-.2233708.0713793-.3369321.0305912-.1690616.0541867-.3408028.0713794-.514807.0240105-.242665.0356896-.4896771.0356896-.7405599v-8.6369077h-.107069-.0713793-.0714387-.0713793-.0713794-.0714386-.0713794-.0714386-.0713794-.0714386-.0713794-.0713793-.0714387-.0713793-.0713794-.0714386-.0713794-.0714386-.0713794-.0713793-.0714386-.0713794-.0713794-.0714386-.0713793-.0714387-.0713793-.0714387-.0713793-.0713794-.0714386-.0713794-.0713793-.0714387-.0713793-.0714387-.0713793-.0713794-.0714386-.0713794-.0714386-.0713794-.0714386-.0713794-.0713793-.0714386-.0713794-.0713794-.0714386-.0713794-.0714386-.0713793-.0713794-.0714386-.0713794-.0714386-.0713794-.0713793-.0714387-.0713793-.0714387-.0713793-.0713794-.0714386-.0713794-.0713793-.0714387-.0713793-.0714387-.0713793-.0714387-.0713793-.0713794-.0714386-.0713794-.0713793-.0714386-.0713794-.0714386-.0713794-.0713793-.0714387-.0713793-.0714387-.0713793-.0713794-.0714386-.0713794l-.0541273 8.6369077c0 .1351778-.0058693.2682118-.0173113.3986851-.0145842.1662032-.0384761.3282379-.0713794.4858064-.0203348.0973042-.0441674.1928218-.0713793.2865531-.0216984.0746753-.0454125.1481596-.0714387.2203933-.0221726.0615149-.0460646.1220173-.0713793.1816861-.0225877.0532374-.046361.1056412-.0714387.1573303-.0228248.0470442-.0464795.0935525-.0713793.1392272-.0228841.042042-.0468353.0832504-.0713794.1241015-.0230619.0384095-.0468353.0763427-.0714386.1136803-.0231212.0350153-.0469539.0695541-.0713794.1036165-.0232398.0324546-.0468945.064671-.0713793.0962918-.02323981.0300131-.04713173.0594306-.07143866.08861-.02329907.0279288-.04707243.0554407-.07137935.0826549-.02335836.0262019-.04713172.052106-.07143864.0775337-.02341765.0245345-.04713172.0488308-.07137935.0727102-.02341765.0230457-.04719101.0459128-.07137936.0683035-.02341764.0216761-.04730957.0429353-.07143864.0640159-.02341764.0204255-.04725028.0406129-.07137935.0604429-.02347693.0192941-.04736886.0382905-.07143864.0570486-.02347693.0182222-.04730957.0362062-.07137936.053952-.02353621.0172694-.04730957.0343006-.07137935.0510341-.02353621.0163762-.04730957.0324546-.07143864.0483544-.02353621.0154829-.04730957.0307276-.07137935.0457341-.02353622.0146492-.04736886.0290603-.07143864.0432331-.02353622.0138751-.04736886.0274524-.07137936.0409106-.02353621.0131605-.04736885.0259637-.07137935.0387073-.0235955.0125054-.04736886.0247131-.07143864.0367422-.0235955.0117908-.04736886.023403-.07137935.0348365-.02365479.0111954-.04736886.0223312-.07143864.0331097-.02365479.0105998-.04736886.0210805-.07137936.0312635-.02353621.0100044-.04742814.0196514-.07137935.0292389-.0235955.0094684-.04748743.0186986-.07143864.0277502-.02365479.0089324-.04736886.0176862-.07137935.0262614-.02365479.0084561-.04742815.0168526-.07143864.0248918-.0235955.0079201-.04742815.0156615-.07137936.0232243-.0235955.0074438-.04748742.0145897-.07137935.0216761-.02365479.0070269-.04748743.0139347-.07143864.0205447-.02371407.0065504-.04742814.0131605-.07137935.0193536-.02365479.0061336-.04748743.0120291-.07143864.0178054-.0235955.0057167-.04742815.0111953-.07137936.0165548-.02365478.0052999-.04742814.0105403-.07137935.0155425-.02371407.0049426-.04742814.0097661-.07143864.0143514-.02365479.0045258-.04748743.0087538-.07137935.0129819-.02371408.0041684-.04748743.0083369-.07143864.0122077l-.07137936.0109571c-.02365478.0034539-.04748743.00661-.07137935.0097661-.02371407.0031562-.04742814.0062528-.07143864.0090516l-.07137936.0079797c-.02365478.0024415-.04748742.0045853-.07137935.0067886-.02377336.0021438-.04748743.0043471-.07143864.0061932-.02365478.001846-.04748743.0034539-.07137935.0050022-.02371407.0015482-.04754672.0028583-.07143864.0041089-.02377336.0012505-.04742814.0025011-.07137936.0034539-.02365478.0009528-.04754671.0014887-.07137935.0022033l-.07143864.0016674c-.02365479.0004168-.04748743.0005359-.07137935.0007146l-.07143864.0000595-.07137936-.0004764-.07137935-.0010123-.07143864-.0014887-.07137935-.0019056-.07143864-.0023225-.07137936-.0029179-.07137935-.0033348-.07143864-.0036325-.07137935-.0042876-.07143864-.0046449-.07137936-.0050617-.07137935-.0055977-.07143864-.0060145-.07137936-.0064313-.07143863-.0068483-.07137936-.0073841-.07137935-.0077415-.07143864-.0081583-.07137936-.0086942-.07137935-.0091111-.07143864-.0094089-.07137935-.0100043-.07143864-.0104212-.07137936-.010719-.07137935-.0111953-.07143864-.0116718-.07137935-.012029-.07143864-.0124459-.07137936-.0129818-.07137935-.0132796-.07143864-.0136964-.07137935-.0141133-.07143864-.0145897-.07137936-.0149469-.07137935-.0153043-.07143864-.0157807-.07137935-.0161975-.07143864-.0164953-.07137936-.0169716-.07137935-.0173885-.07143864-.0177458-.07137936-.0180436-.07143863-.0186986-.07137936-.0189368-.07137935-.0192345-.07143864-.019711-.07137936-.0200682-.07137935-.0204851-.07143864-.0207829-.07137935-.0213187-.07143864-.0216166-.07137936-.0219143-.07137935-.0223906-.07143864-.022748-.07137935-.0230457-.07143864-.0234031-.07137936-.0238794-.07137935-.0241772-.07143864-.024594-.07137935-.0248322-.07143864-.0253682-.07137936-.0256063-.07137935-.0258446-.07143864-.0264401-.07137936-.0266782-.07143863-.0270356-.07137936-.0273333-.07137935-.0277501-.07143864-.0280479-.07137936-.0284052-.07143863-.0287625-.07137936-.0290603-.07137935-.0294175-.07143864-.0297153-.07137936-.0301322-.07143864-.0304298-.07137935-.0307277-.07137935-.0310254-.07143864-.0315018-.07137936-.0316804-.07137935-.0319782-.07143864-.0323354-.07137935-.0326928-.07143864-.0329905-.07137936-.0332883-.07137935-.0336456-.07143864-.0338838c-.05116311-.0244749-.10226693-.0490689-.15337076-.0739011z" fill="#006cb9"/><path d="m21.0133749 17.23024c-.0520524.0422802-.1032748.0849178-.1533115.1280913v-9.74560367c0-.5182609.0529417-1.02413548.1533115-1.51262154.0215798-.104867.0454717-.2087812.0713794-.3119808.0222319-.08855038.0461238-.17638617.0714386-.26362646.0225876-.07771234.0464203-.15488873.0714386-.23152917.0228248-.07003043.0465389-.13970356.0713794-.2087812.0230026-.06401591.0467167-.12773407.0714386-.19091629.0231212-.05907329.0468353-.11784882.0713794-.17620752.0231805-.05502391.0469538-.10969052.0713793-.16405938.0231805-.05162958.0471317-.10290185.0714387-.15387638.0232398-.04871165.0471317-.09694689.0713793-.14506304.0232991-.04621055.047191-.09206381.0714387-.13773842.0233583-.04400722.047191-.08771668.0713793-.13118795.0234177-.04210163.047191-.08402461.0714387-.12559029.0234769-.04037469.0471317-.08057072.0713793-.12046901.0234177-.03852865.0472503-.0768191.0713794-.11487134.0234769-.03703991.0473688-.07366296.0714386-.11022647.0235362-.03578936.0472503-.07134052.0713794-.10665349.0236547-.03465791.0472502-.06931583.0714386-.10349735.0234176-.03310962.0474281-.0656833.0713794-.09831653.0235955-.03215683.0473688-.06413501.0714386-.09587499.0236548-.03126359.0472503-.06258672.0713793-.09343346.0234177-.02995349.0475468-.05949013.0714387-.08908633.0235955-.02923889.0473688-.05835869.0713793-.08718074.0236548-.02846474.0473689-.05681039.0714387-.0848583.0235362-.02739285.0474874-.05442841.0713793-.08146397.0236548-.02679735.0473689-.05371381.0714387-.08021342.0235362-.02590411.0474281-.05151048.07132-.07705729.0235955-.02524907.0474282-.05031949.0713794-.07527081.0237141-.02459402.0474281-.04918804.0714386-.07348431.0235955-.02381987.0474875-.047342.0713794-.07086412.0237733-.02340303.0473688-.0469847.0714386-.07008998.0235362-.02256933.0475467-.04460271.0713794-.0668743.0237141-.02221203.0473688-.04448361.0714386-.06633835.0235955-.02143788.0475467-.04251847.0713794-.06365861.023714-.02108059.0474281-.04210163.0714386-.06282492.0236548-.02042554.0474874-.04049378.0713794-.06062158.023714-.01994914.0474874-.03989829.0714386-.05960923.0236548-.0194132.0474874-.03864775.0713794-.0577632.023714-.01899634.0474874-.03787359.0714386-.0565722.0236548-.0184604.0474874-.03674215.0713794-.05496436.023714-.01804355.0474874-.03602755.0713793-.05377336.0236548-.01762671.0475467-.03501522.0714386-.05234417.0237141-.01715031.0474875-.03430062.0713794-.05121273.0237141-.01673346.0475467-.03322873.0714386-.04972399.0237141-.01637616.0474875-.03269278.0713794-.04877119.0236548-.01589977.0475467-.03156133.0714386-.0472229.0237141-.01560202.0474282-.03120404.0713794-.04650831.0237141-.01512562.0475467-.02989394.0714386-.04478136.0237734-.01482787.0474282-.02983439.0713794-.04436451.0236548-.01441103.047606-.02834565.0714386-.04245893.0238327-.01411328.0474282-.0285243.0713794-.04233983.0235955-.01363687.0476653-.0267378.0714386-.04013648.0238327-.01339868.0474282-.02691646.0713794-.04001739.0236548-.01298183.0475467-.02548727.0713793-.0382309.0237734-.01268408.0474874-.02542771.0714387-.0378736l.0713793-.03650396.0714387-.03567026c.023714-.01167174.0474874-.02346257.0713793-.03489611.0237141-.01137399.047606-.02239068.0714386-.03352647.0238327-.01107625.0474282-.02250979.0713794-.03334783.0236548-.01077849.047606-.02090194.0714386-.03138268.0237734-.01048075.0474875-.02114014.0713794-.03138269.0237141-.01012344.0475467-.01994914.0713793-.02983439l.0714387-.02929844c.0237733-.0095875.0474874-.019175.0713793-.0285243.0237141-.00928975.047606-.01822221.0714387-.02727376.0238326-.00905155.0474281-.01840085.0713793-.0272142.0236548-.00869426.0476653-.01679302.0714387-.02524907.0237733-.00845606.0474874-.01703121.0713793-.02524907.0237141-.00821785.047606-.01607841.0714387-.02399852l.0713793-.02328393c.0237734-.00762236.0475467-.01542337.0714387-.02286708.0236547-.00732461.047606-.01423237.0713793-.02131878.0237734-.00714597.0475467-.01447058.0714387-.02137834.023714-.00684821.0475467-.01322003.0713793-.01983005l.0713794-.01947274c.0238326-.00631227.0475467-.01274363.0714386-.0188177.0237141-.00601452.047606-.01167174.0713794-.01750761.0237733-.00583587.0475467-.01190994.0714386-.01750761.0237141-.00553812.047606-.01071894.0713793-.01601886l.0714387-.01560202c.0238326-.00506172.0474874-.0103021.0713793-.01512562.0237141-.00482352.047606-.00917065.0714387-.01375598.0237733-.00458532.0474874-.00940885.0713793-.01375597l.0714387-.01238634.0713793-.01185039c.0238327-.00387073.0475467-.00797965.0714387-.01161218.023714-.00363254.047606-.00666957.0713793-.0100639.0237734-.00333478.0475467-.00684822.0713794-.01000435l.0714386-.008992.0713794-.00821786c.0238326-.00267973.0475467-.00577632.0714386-.00821785.0237141-.00244154.047606-.00422803.0713794-.00643137l.0714386-.00631227c.0237734-.00202469.0475467-.00398983.0713794-.00571677.0237733-.00172694.047606-.00309658.0713793-.00458532.0238326-.00148874.0475467-.00321569.0714386-.00452578.0237734-.00131009.047606-.00220334.0714387-.00327523l.0713793-.00273929c.0238327-.00083369.0475468-.00208424.0714387-.00267973.0237141-.0005955.047606-.00053595.0713793-.00089325.0238327-.0003573.047606-.00077414.0714387-.00089324l.0314804-.00041685h.0398989.0714387.0713793.0713794.0714386.0713794.0714386.0713794.0714386.0713794.0714386.0713793.0713794.0714386.0713794.0714386.0713794.0714386.0713794.0713793.0714387.0713793.0714387.0713793.0714387.0714386.0713794.0714386.0713793.0713794.0714386.0713794.0714386.0713794.0714386.0713794.0713793.0714387.0713793.0714387.0713793.0714387.0713793.0714387.0713793.0713794.0714386.0713794.0714386.0713793.0714387.0713793.0714387.0713793.0713794.0714386.0714387.0713793.0714387.0713793.0714387.0713793.0713794.0714386.0713794.0714386.0713794.0714386.0713793.0714387.0713793.0713794.0714386.0713794.0714386.0713794.0714386.0713794.0714386.0713794.0713793.0714387.0713793.0714387.0713793.0714386.0713794.0714386.0713794.0714386.0713794.0714386.0713794.0714386.0713794.0714386.0713794.0713793.0714387.0713793.0714387.0713793.0714386.0713794.0714386.0713794.0713793.0714387.0713793.0714387.0713793.0714387.0713793.0714387.0713793.0713794.0714386.0713794.0714386.0714386.0713794.0714386.0713794.0713793.0714387.0713793.0714387.0713793.0714387.0713793.0714387.0713793.0713794.0714386.0713794.0714386.0713794.0714386.0713794.0713793.0714386.0713794.0714386.0713794.0714386.0713794.0714386.0713794.0713793.0714387.0714386.0713794.0605301v37.21968453c0 .3236525-.0206312.6423625-.0605301.9551174-.0192084.1506012-.0433375.2995945-.0713794.4472181-.0213427.1123703-.045116.2239069-.0714386.3344311-.0221727.0930761-.0458275.1855568-.0714387.2772633-.022469.0804516-.0463017.1603078-.0713793.2396279-.0227062.071817-.0465982.1430384-.0713794.2139025-.0229433.0655642-.046776.1307711-.0714386.1955016-.0230619.0603834-.046776.1203499-.0713794.1800187-.0231805.0562149-.0469538.1121321-.0714386.1676324-.0231805.0526419-.0470132.104867-.0713794.1568539-.023299.0496644-.0470724.0990311-.0714386.1480405-.0232991.0469847-.0471317.0937312-.0713794.1401799-.0234176.0447814-.0471317.089265-.0714386.1335104-.0234769.0427567-.0470724.0853347-.0713793.1275554-.0233584.0406725-.0472503.0811067-.0713794.1213028-.0234176.039005-.0473096.0775336-.0714386.1160623-.023477.0375163-.0472503.0748539-.0713794.1118939-.0235955.0362657-.047191.072591-.0714386.1083804-.023477.0347174-.0473689.0691372-.0713794.1034378-.0234769.0335265-.0473688.0667552-.0714386.0999244-.0235955.0325736-.0473096.0650878-.0713794.0972446-.0235362.0313827-.0473688.0624676-.0713793.093493-.0235363.0303703-.0474875.0604429-.0714387.0903964-.0236548.0295962-.0472503.0591329-.0713793.0883717-.0235362.0285243-.0474875.0566913-.0714387.0849179-.0235955.0277502-.0473688.0552026-.0713793.0825954-.0237141.0270356-.0473689.0541307-.0714387.0808685-.0235362.0260827-.0475467.0516891-.0713793.0774741-.0237141.0255468-.0473689.0512128-.0714387.0764618-.0235955.0247131-.0474874.0490094-.0713793.0733652-.0236548.0241177-.0473689.0480566-.0713794.0718765-.0236547.0235221-.0474281.0468656-.0714386.07009-.0235955.0228075-.0474874.0453173-.0713794.0678271-.0237733.0223311-.0474281.0448409-.0714386.0668743-.0235955.0216165-.0475467.0428162-.0714386.064135-.0237734.0212592-.0473096.0426971-.0713794.063599-.0235955.0205447-.047606.0405534-.0714386.0607407-.0237734.0201874-.0473689.0405534-.0713794.0603834-.0235955.0195323-.047606.0385286-.0713793.0577632-.0237734.019175-.0474282.0385286-.0714387.0574059-.0235955.0185795-.0475467.0366826-.0713793.0549643-.0237734.0182223-.0474282.0365636-.0714387.0545476-.0235955.0176862-.0475467.0349556-.0713793.0523441-.0237734.017329-.0474282.0348961-.0714387.0519274-.0235955.016793-.0475467.0331691-.0713793.0497239-.0237734.0165549-.0474282.0332883-.0714387.0495454-.0235955.0159593-.0475467.0315018-.0713793.0472229-.0237734.0157211-.0473689.03174-.0713794.0471633-.0236547.0152448-.0476652.029894-.0714386.0448409-.0237734.014947-.0474281.0300726-.0713794.0447219-.0236547.0144705-.047606.0284647-.0714386.0426971-.0237734.0141728-.0474874.0284647-.0713793.0423994-.0237141.0137559-.0475468.0272737-.0714387.0407915l-.0713793.0400769-.0714387.038886-.0713793.037814c-.0237734.0124459-.0474875.0249513-.0713794.037159-.0237141.0120886-.0475467.0238199-.0714386.0356703-.0237734.0118504-.0474282.023939-.0713794.0354916-.0236548.0114335-.0476653.0223311-.0714386.0335265-.0237734.0111953-.0474874.0226289-.0713794.0335264-.023714.0108381-.0476653.0212593-.0714386.0318591l-.0713794.0313232-.0714386.0304299-.0713794.0293579c-.0238326.0097066-.0475467.0195919-.0714386.0290603-.0236548.0093493-.047606.0181031-.0713794.0272142-.0238326.0091111-.0474874.0184009-.0714386.0272738-.0237141.0088133-.0475467.0172098-.0713793.025785l-.0714387.0253086-.0713793.0245345c-.0237141.0079796-.047606.0155424-.0714387.0232839-.0238326.0077414-.0474874.0158402-.0713793.0232839-.0236548.0074437-.047606.0142919-.0713794.0214974l-.0714386.0213188-.0713794.0204256c-.0237733.0066695-.047606.0130414-.0714386.0194132-.0238327.0064313-.0474282.01322-.0713794.0194132-.023714.0061336-.047606.0116122-.0714386.0175076-.0237734.0058954-.0475467.0118504-.0713794.0175076l-.0714386.0165548-.0713794.015602c-.0238326.0051213-.0474874.0106594-.0713793.015602-.0237141.0048831-.0476653.0091707-.0714387.0138156l-.0713793.0136964-.0714386.0129223c-.0237141.0041684-.0475468.0079796-.0713794.0119099s-.0475467.0081583-.0714386.0118504c-.0237141.0036921-.047606.0068482-.0713794.0103021l-.0714386.0100639c-.0237734.0032157-.0475467.0064909-.0713794.0094684-.0237141.0029775-.047606.0054786-.0713793.0082178-.0238327.0027393-.0475468.0057168-.0714387.0082179-.0237141.0025011-.0475467.0046449-.0713793.0069078l-.0714387.0064313c-.0238326.0020247-.0474874.0044663-.0713793.0062527-.0237141.0017865-.047606.0029775-.0714387.0045258l-.0714386.0045853-.0713794.0038112c-.023714.0011315-.047606.0017865-.0713793.0026798-.0238327.0008932-.047606.0020247-.0714387.0027392-.023714.0006551-.0475467.0008933-.0713793.0013697l-.0714387.0009528c-.0222319.0001786-.0443453.0008337-.0666365.0008337h-.0047428-.0714386-.0713794-.0714386-.0713794-.0713793-.0714387-.0713793-.0714387-.0713793-.0714387-.0713793-.0714387-.0713793-.0713794-.0714386-.0713794-.0714386-.0713794-.0714386-.0713794-.0713793-.0714386-.0713794-.0714386-.0714387-.0713793-.0714387-.0713793-.0714387-.0713793-.0713794-.0714386-.0713794-.0714386-.0713794-.0714386-.0713794-.0713793-.0714386-.0713794-.0714386-.0713794-.0714386-.0713794-.0714386-.0713794-.0713793-.0714387-.0713793-.0714387-.0713793-.0714387-.0713793-.0714387-.0714386-.0713793-.0713794-.0714386-.0713794-.0714386-.0713794-.0714386-.0713794-.0713793-.0714387-.0713793-.0714387-.0713793-.0714387-.0713793-.0714387-.0713793-.0714386-.0713794-.0714386-.0713794-.0713793-.0714387-.0713793-.0714387-.0713793-.0714387-.0713793-.0714387-.0713793-.0714387-.0713793-.0714387-.0713793-.0713794-.0714386-.0713794-.0714386-.0713793-.0714387-.0713793-.0714387-.0713793-.0713794-.0714386-.0713794-.0714386-.0713794-.0714386-.0713794-.0714386-.0713794-.0714386-.0713794-.0714386-.0713793-.0713794-.0714386-.0713794-.0714386-.0713794-.0714386-.0713794-.0714386-.0713794-.0714386-.0713794-.0714386-.0713794-.07132-.0714387-.0713793-.0714387-.0713793-.0714387-.0713793-.0714386-.0713794-.0714386-.0713794-.0714386-.0713794-.0713793-.0714387-.0713793-.0714387-.0713793-.0714387-.0713793-.0713794-.0714386-.0713794-.0714386-.0714386-.0713794-.1533115v-17.187111c.0500367.043114.1012591.085692.1533115.1279723.0235955.019175.0474281.0382309.0713794.0571677.0236547.0186986.0474281.0373376.0714386.0558576.0237141.0182222.0473688.0364444.0714386.0545475.0235362.0176863.0474875.0351343.0713794.0526419.0235955.0172694.0474874.0344793.0714386.05157.0236548.0168526.0473689.0337052.0713794.0504386l.0713793.0491285c.0235955.0160189.0474875.0319186.0714387.0477589l.0713793.046806c.0236548.0153638.0474282.0306681.0714387.0458533.0235362.0148874.0474874.0296557.0713793.044424l.0714387.04365c.023714.0142919.0474281.0285838.0713793.0426971.0235955.0139346.0474874.027631.0713794.041387l.0714386.0407915.0713794.0397197.0714386.0388264c.0237141.0127436.0473689.0256063.0713794.0382309.0235955.0124459.0475467.0246535.0714386.0369208l.0713793.0364444.0714387.0356703.0713793.0346579c.0237734.0114335.0474282.0229861.0714387.0343006l.0713793.0331096.0714387.0328119.07132.03174.0713794.0313231.0714386.0306085.0713794.029894.0714386.0294175.0713794.0285839.0714386.0283456.0713794.0272738c.0237733.0090515.0474281.0182222.0714386.0271546l.0713794.0261424c.0237733.0086942.0474281.0175671.0714386.0261423.0235955.008456.047606.0166143.0713794.0249513l.0714386.0250108.0713794.0239986c.0237733.0079796.0473688.0161379.0713793.0239985.0235955.007801.047606.0153043.0714386.0229862l.0713794.0229862.0714386.0220333.0713794.0219739.0714386.0211401.0713794.0209615.0714386.020366.0713794.0200682.0714386.0195323.0713794.0191155.0714386.0188177.0713794.0182222.0713793.0180435.0714387.0173885.0713793.0173886.0714387.0165548.0713793.0164357.0714386.0159593.0713794.0156616.0714386.0154233.0713794.0147684.0713793.0148278.0714387.0140537.0713793.0139942.0714387.0135774.0713793.01322.0714387.0131009.0713793.0124459.0714387.0123863.0713793.0119695.0714387.0116718.0713793.0115526.0714387.0108976.0713793.0109571.0713794.0104808.0714386.010183.0713794.0101234.0714386.0094684.0713793.0094684.0714387.0091707.0713793.0087538.0714387.0088133.0713793.0082179.0714387.0080392.0713793.0080392.0714387.0073842.0713793.0073841.0713794.007146.0714386.0067291.0713794.0067291.0714386.0063123.0713794.006074.0714386.0060741.0713794.0055381.0713793.0054191.0714386.0054785.0714387.0048235.0713793.0048236.0714387.0047639.0713793.0041685.0714387.0041685.0713793.0041089.0714387.0035135.0713793.0035729.0713794.0035135.0714386.0029179.0713794.0029775.0714386.0028584.0713794.002382.0714386.002382.0713794.0023224.0714386.0017865.0713793.0017865.0713794.0017865.0714386.0012505.0713794.001191.0714386.0012505.0713794.0007146.0714386.0006551.0713794.000655.0713793.0002978.0714387.0001191.0713793.0001191.0714387-.0001787.0713793-.0004168.0714387-.0004169.0714386-.0005955.0713794-.0009528.0714386-.0009527.0713793-.0009528.0713794-.0014888.0714386-.0014292.0713794-.0014887.0714386-.0018461.0713794-.0019651.0714386-.0020247.0713794-.0021438.0713793-.0025011.0714387-.0024415.0713793-.0025011.0714387-.0029775.0713793-.0029775.0714387-.0029774.0348596-.0014888.0365197-.0017865.0714387-.0034539.0713793-.0038111.0713794-.0039303.0714386-.0043471.0713794-.0044067.0714386-.0048235.0713793-.0048831.0714387-.0052999.0713793-.0053595.0714387-.0057168.0713793-.0058359.0713794-.0061336.0714386-.0063122.0714387-.006491.0713793-.0067886.0714387-.0068482.0713793-.0072055.0714387-.0072056.0713793-.0076223.0713794-.0076819.0714386-.0079201.0713794-.0080988.0714386-.0082774.0713794-.008456.0714386-.0086348.0713793-.0088133.0714387-.008992.0713793-.0091707.0713794-.0092302.0714386-.0095875.0713794-.009647.0714386-.0098257.0713794-.0100044.0714386-.0101234.0713794-.0103616.0714386-.0104212.0713794-.010719.0713793-.0107785.0714387-.0108976.0713793-.0111358.0714387-.0112549.0713793-.0114335.0714386-.0114931.0713794-.0116717.0714386-.01191.0713794-.0119694.0714386-.0121482.0713794-.0122672.0714386-.0124459.0713794-.012565.0714386-.0127436.0713794-.0128627.0714386-.0129819.0713794-.0131009.0713793-.0132796.0714387-.0134582.0713793-.0135773.0714387-.0136965.0713793-.0138155.0714386-.0139942.0713794-.0141132.0714386-.0142324.0713794-.014411.0713793-.0145302.0714387-.0147087.0713793-.0148875.0714387-.0149469.0713793-.0150661.0714387-.0153638.0713793-.0153638.0714387-.0156021.0713793-.0157211.0713794-.0158997.0714386-.0160189.0713794-.0162571.0714386-.0164357.0714386-.0166143.0713794-.0168526.0714386-.0170312.0713794-.0172694.0710236-.0176267v-3.1488683l-.0710236.0354916-.0713794.0354321-.0714386.0350748-.0713794.034777-.0714386.0345388-.0714386.034122-.0713794.0337051-.0714386.0334669-.0713794.0330501-.0713793.0327523-.0714387.0323355-.0713793.0320377-.0714387.0315614-.0713793.031204-.0714387.0309063-.0713793.0304894-.0714387.0301322-.0713793.0297748-.0713794.0292984-.0714386.0289412-.0713794.0285838-.0714386.0282266-.0713793.0276906-.0714387.0273928-.0713793.0269165-.0714387.0265592-.0713793.0261423-.0713794.025785-.0714386.0253682-.0713794.0249513-.0714386.0244749-.0713794.0241176-.0714386.0237603-.0713794.023284-.0714386.0229266-.0713794.0225098-.0714386.0220334-.0713794.021676-.0714386.0213188-.0713793.0208424-.0714387.0204851-.0713793.0199492-.0714387.0196514-.0713793.0192345-.0713794.0188177-.0714386.0184009-.0713794.017984-.0714386.0175671-.0713794.0172694-.0714386.016793-.0713794.0163167-.0714386.0160188-.0713794.015602-.0713793.0151852-.0714387.0147088-.0713793.014411-.0714386.0140537-.0713794.0135178-.0714386.0131605-.0713794.0128032-.0714386.0124459-.0713794.0119099-.0713793.0116122-.0714387.0113144-.0713793.0107785-.0714387.0104212-.0713793.0101235-.0714387.009647-.0714386.0092302-.0713794.0089325-.0713793.0085751-.0714387.0080988-.0713793.0077414-.0714387.0074437-.0713793.0069078-.0714386.0066696-.0713794.0063122-.0714386.0058359-.0432782.0034539-.0281012.0019056-.0713793.0048235-.0714387.004764-.0713793.0038707-.0714387.0036325-.0713793.0033348-.0714387.0023225-.0713793.0023224-.0714387.0015483-.0713793.0010719-.0713794.0008932c-.0239512.0001191-.047606-.0001786-.0714386-.0002382l-.0713794-.0002382-.0714386-.0010719-.0713794-.0015483-.0714386-.001846c-.0239512-.0007741-.047606-.0019651-.0713794-.0029179-.0237733-.0009528-.0477245-.001727-.0713793-.002918l-.0714386-.0039898-.0713794-.0042876-.0714386-.0049426-.0714387-.0057168c-.0237733-.0019651-.0477245-.0036325-.0713793-.0058358-.0239512-.0022034-.047606-.0048236-.0714387-.0072056l-.0713793-.0072055-.0714387-.0083369-.0713793-.0086943-.0713794-.0094684-.0714386-.010183c-.0238327-.0035134-.0477246-.0069077-.0713794-.0106594-.0239512-.0037516-.0476652-.0078605-.0714386-.0118504-.0237734-.0039898-.0477839-.0076819-.0713794-.0119099-.0240105-.0042876-.047606-.008992-.0714386-.0134582-.0237734-.0044662-.0477839-.0086943-.0713794-.0133987-.0240104-.004764-.0475467-.0100043-.0713793-.0150065s-.0477839-.0098257-.0714386-.0150661c-.0239513-.0052999-.0476653-.0109571-.0713794-.0164952l-.0714386-.0168526c-.0239513-.0058359-.0476653-.012029-.0713794-.0181031-.0238919-.0061336-.0477838-.0122077-.0714386-.0185795-.0239512-.0064314-.0476653-.0131605-.0713794-.0198301-.0238919-.0067291-.0477838-.0134582-.0714386-.0204851-.0239512-.0070864-.0476653-.014411-.0713794-.0217356-.0238919-.0073841-.0477245-.0147683-.0713793-.0223907-.0239512-.0077414-.0477246-.0157211-.0714387-.0237007-.0238326-.0080393-.0477838-.0160785-.0713793-.0243559-.0240105-.0083965-.0476653-.0171503-.0714387-.0258445-.0238326-.0087538-.0477838-.0173885-.0713793-.0263805-.0240105-.0091707-.0476653-.0186986-.0714387-.028167-.0238326-.0094684-.0477838-.0188177-.0713793-.0285243-.0240698-.0099448-.0476653-.020366-.0714387-.0306086-.0238919-.0103021-.0478431-.0204851-.0714386-.0310849-.0240105-.0107785-.0476653-.0219738-.0713793-.0330501-.023892-.0111953-.0477839-.0223907-.0713794-.0338242-.0239512-.0116717-.0477839-.0235221-.0714386-.0354916-.0239513-.0121482-.0477246-.0244749-.0713794-.0369208-.0238919-.012565-.0479024-.0250109-.0714386-.0379332-.0240698-.0131605-.0476653-.0267378-.0713794-.0402556-.0238919-.0136368-.0478431-.0272142-.0714386-.0412083-.0240105-.0142324-.0477246-.0287625-.0713794-.0432927-.0240105-.0147683-.0477245-.0298939-.0713793-.0450195-.023892-.0153043-.0479617-.030549-.0714387-.0462106-.024129-.0160784-.0476653-.0326928-.0713793-.049188-.0240105-.0166739-.0478432-.033586-.0714387-.0506768-.0239512-.017329-.0479024-.0346579-.0713793-.0524037-.0241291-.0182222-.0477839-.0368613-.0714387-.0555003-.0240105-.0189368-.0477838-.0379927-.0713793-.0573464-.0239512-.0197109-.0479617-.0393028-.0714387-.0594901-.024129-.0207233-.0477838-.0418634-.0713793-.0630631-.0241291-.0216166-.0478431-.0435309-.0714386-.0656833-.0240105-.0225694-.0479025-.0453173-.0713794-.0683631-.0240105-.0235816-.048021-.0471633-.0714386-.0712809-.0241884-.0248918-.0478432-.0503195-.0713794-.0758068-.0241883-.0261423-.0479024-.0526419-.0713793-.0793797-.0241884-.027512-.048021-.0553217-.0714387-.0834291-.0241291-.0289412-.0479617-.0581801-.0713793-.0877763-.0241884-.0306085-.0480803-.0615743-.0714387-.0928975-.0241883-.032395-.0480803-.0650878-.0713793-.098257-.0242477-.0344792-.0481396-.0693158-.0714387-.1046288-.0243069-.0368612-.0480803-.0741393-.0713793-.1118343-.0244255-.039541-.0481989-.0796179-.0714387-.1200521-.0244847-.0425781-.0481988-.0858111-.0713793-.129461-.0246034-.0462701-.0483174-.0931953-.0714387-.1405968-.0246033-.0504982-.0484359-.1017109-.0713793-.1534596-.0246626-.0556789-.0486731-.1118938-.0714387-.1690615-.0251369-.0631823-.0486138-.127615-.0713793-.1926433-.0251962-.0721146-.0490881-.1451226-.0713794-.2194406-.025789-.0861684-.0496809-.1737659-.0714386-.2628523-.027034-.1108219-.0506295-.2240259-.0713794-.3393141-.030769-.1709076-.0547202-.3465791-.0714386-.5270147-.0192084-.2083643-.0290497-.4230409-.0290497-.6439107 0-.2209889.0098413-.4357846.0290497-.6443276.0167184-.1804951.0406696-.3562262.0714386-.5272529.0207499-.1152882.0443454-.2286708.0713794-.3395523.0217577-.0890864.0456496-.176684.0714386-.2629119.0222913-.074318.0461832-.147445.0713794-.2196192.0227655-.0650283.0462424-.129461.0713793-.1927028.0227656-.0572273.0467761-.1134422.0714387-.1691807.0229434-.0518082.046776-.1029614.0713793-.1534595.0231213-.0474611.0468353-.0944458.0714387-.1407159.0231805-.0436499.0468946-.086883.0713793-.1295206.0232398-.0404938.0470132-.0805707.0714387-.1201117.023299-.0377545.0470724-.0750326.0713793-.1118939.0232991-.0353129.047191-.0701495.0714387-.1046883.023299-.0331692.047191-.0658619.0713793-.0983165.0233584-.0313232.0472503-.0622294.0714387-.0928975.0234176-.0295962.0472502-.0588351.0713793-.0877763.0234177-.028167.0472503-.0559767.0714387-.0834886.0234769-.0267378.047191-.0533565.0713793-.0794989.0235362-.0254277.047191-.0509149.0713794-.0758067.0234176-.0241176.0474281-.0477589.0714386-.0713405.0234769-.0230458.0473689-.0457937.0713794-.0683631.0235955-.0220929.0473095-.0441263.0714386-.0657428.0235955-.0211402.0472503-.0423398.0713793-.0630631.023477-.0201278.0474875-.0397792.0714387-.0594902.0235955-.0193536.0473688-.0384691.0713793-.0574059.0236548-.0186986.0473096-.0373376.0714387-.0555598.0234769-.0177458.0474281-.0350748.0713793-.0524037.0235955-.0171504.0474282-.0339434.0714387-.0506768.023714-.0164953.0472503-.0331097.0713793-.0491881.023477-.0157211.0475467-.0309658.0714387-.0462701.0236548-.0151851.0473688-.0302512.0713793-.0450195.0236548-.0145897.0473689-.0290603.0713794-.0432927.0235955-.0139941.0475467-.0275715.0714386-.0412083.0237141-.0135178.0473096-.0270951.0713794-.0402556.0235362-.0129223.0475467-.0254277.0714386-.0379927.0236548-.0124459.0474281-.0247727.0713794-.0369208.0236547-.0119695.0474874-.0238199.0714386-.0354916.0235955-.0114931.0474874-.0226885.0713794-.0338838.023714-.0110763.0473688-.0222716.0713793-.0330501.0235955-.0105998.0475467-.0207828.0714386-.0310849.0237734-.0103021.0473689-.0206638.0714387-.0306086.0235955-.0097661.0475467-.0191154.0713793-.0285838.0237734-.0094684.0474282-.0189964.0714387-.028167.0235955-.008992.0475467-.0176267.0713793-.0263805.0237734-.0086943.0474282-.0174481.0714387-.0259041.0235955-.0082774.0475467-.0163166.0713793-.0243559.0237141-.0079796.0474875-.0159593.0714387-.0237007.0236548-.0076224.0474874-.0150066.0713793-.0223907.0237141-.0073246.0474282-.0145897.0713794-.0216761l.0714386-.0204851c.0237141-.0066696.0474282-.0134582.0713794-.0198896.0236548-.0063718.0475467-.0124459.0714386-.0185795.0237141-.0060741.0474281-.0122672.0713794-.0181031l.0714386-.0168526c.0237141-.0055381.0474281-.0111953.0713794-.0164952.0236547-.0052404.047606-.0101235.0714386-.0151256.0238326-.0050022.0473689-.0102426.0713793-.0150066.0235955-.0047044.047606-.0089324.0713794-.0133986.0238326-.0044663.0474281-.0091707.0714386-.0134583.0235955-.004228.047606-.0079201.0713794-.0119099s.0474874-.0080988.0714386-.0118504l.0713794-.0106594.0714386-.0102425.0713794-.0094684.0713793-.0086943.0714387-.0083369.0713793-.0072055c.0238327-.002382.0474875-.0050022.0714387-.0072056.0236548-.0022033.047606-.0038707.0713793-.0058358l.0714387-.0057168.0714386-.0049426.0713794-.0042876.0714386-.0039898c.0236548-.001191.047606-.0019652.0713793-.002918.0237734-.0009528.0474282-.0021438.0713794-.0029179l.0714386-.001846.0713794-.0015483.0714386-.0010719.0713794-.0002382c.0238326-.0000596.0474874-.0003573.0714386-.0002382l.0713794.0008932.0713793.0010719.0714387.0015483.0713793.0023224.0714387.0023225.0713793.0033348.0714387.0036325.0713793.0038707.0714387.004764.0713793.0048235.0281012.0019056.0432782.0034539.0714386.0057168.0713794.0061931.0714386.0065505.0713793.0068482.0714387.0073246.0713793.0076819.0714387.0079797.0713793.0083965.0713794.0088134.0714386.0091111.0714387.0095279.0713793.0100044.0714387.0102425.0713793.0106594.0714387.0111358.0713793.0114931.0713794.0117908.0714386.0123268.0713794.0126841.0714386.0130414.0713794.0133986.0714386.0138751.0713793.0142324.0714387.0146492.0713793.0150661.0713794.0154829.0714386.0158998.0713794.0161975.0714386.0166739.0713794.0171503.0714386.0175076.0713794.0178649.0714386.0183413.0713794.0187582.0713793.0191154.0714387.0195919.0713793.0200087.0714387.0203659.0713793.0208424.0714386.0212593.0713794.0216761.0714386.0220333.0713794.0224503.0714386.0229266.0713794.0233435.0714386.0237603.0713794.0241772.0714386.0245344.0713794.0249514.0714386.0254872.0713794.0258446.0713793.0262019.0714387.0266782.0713793.0270951.0714387.027512.0713793.0278692.0714386.0282861.0713794.028703.0714386.0291198.0713794.0295366.0713793.0299535.0714387.0303108.0713793.0307276.0714387.031085.0713793.0315018.0714387.0317995.0713793.0322759.0714387.0326332.0713793.0329906.0713794.0333478.0714386.0337647.0713794.0340624.0714386.0344197.0714386.034777.0713794.0351343.0714386.0354321.0713794.0357894.0710236.0358489v-3.1511312l-.0710236-.0176267-.0713794-.0172694-.0714386-.0170312-.0713794-.0168526-.0714386-.0166143-.0714386-.0163762-.0713794-.016257-.0714386-.0160785-.0713794-.0158402-.0713793-.0157806-.0714387-.0155425-.0713793-.0153638-.0714387-.0153638-.0713793-.0150661-.0714387-.014947-.0713793-.0148279-.0714387-.0147087-.0713793-.0145302-.0713794-.014411-.0714386-.0142324-.0713794-.0140537-.0714386-.0140537-.0713793-.0138155-.0714387-.0136965-.0713793-.0135177-.0714387-.0133987-.0713793-.0132796-.0713794-.0131009-.0714386-.0129819-.0713794-.0128627-.0714386-.0126841-.0713794-.012565-.0714386-.0124458-.0713794-.0122077-.0714386-.0121482-.0713794-.0119694-.0714386-.0118504-.0713794-.0116718-.0714386-.0114931-.0713793-.0114335-.0714387-.0111953-.0713793-.0111358-.0714387-.0108976-.0713793-.0107785-.0713794-.0106594-.0714386-.0104212-.0713794-.0103021-.0714386-.0101234-.0713794-.0099448-.0714386-.0098257-.0713794-.0096471-.0714386-.0095279-.0713794-.0092302-.0713793-.0091707-.0714387-.008992-.0713793-.0088134-.0714386-.0085751-.0713794-.0083965-.0714386-.0082774-.0713794-.0080392-.0714386-.0079201-.0713794-.0076224-.0713793-.0075628-.0714387-.0072055-.0713793-.007146-.0714387-.0069077-.0713793-.0067292-.0714387-.0064313-.0714386-.0063123-.0713794-.0060741-.0713793-.0058358-.0714387-.0056572-.0713793-.0053-.0714387-.0052999-.0713793-.0048235-.0714386-.0048235-.0713794-.0043472-.0714386-.0042875-.0713794-.0039303-.0713793-.0037517-.0714387-.0034538-.0365197-.001727-.0348596-.0014887-.0714387-.0029775-.0713793-.0029775-.0714387-.0029775-.0713793-.0025011-.0714387-.0024415-.0713793-.0025011-.0713794-.0021438-.0714386-.0020247-.0713794-.0019651-.0714386-.001846-.0713794-.0014888-.0714386-.0014292-.0713794-.0014887-.0713793-.0009528-.0714386-.0009528-.0713794-.0009528-.0714386-.0005955-.0714387-.0003573-.0713793-.0004168-.0714387-.0001787-.0713793.0001191-.0714387.0001191-.0713793.0002382-.0713794.0006551-.0714386.0007146-.0713794.0007145-.0714386.0012506-.0713794.001191-.0714386.0012505-.0713794.0017865-.0713793.0017865-.0714386.0017865-.0713794.0023224-.0714386.002382-.0713794.002382-.0714386.0029179-.0713794.0029775-.0714386.002918-.0713794.0035134-.0713793.003573-.0714387.0035134-.0713793.0041089-.0714387.0041685-.0713793.0041685-.0714387.004764-.0713793.0048235-.0714387.0048235-.0714386.0054786-.0713793.005419-.0713794.0055977-.0714386.006074-.0713794.0060146-.0714386.0063718-.0713794.0067291-.0714386.0067291-.0713794.007146-.0713793.0074437-.0714387.0073841-.0713793.0080393-.0714387.0080392-.0713793.0082178-.0714387.0088134-.0713793.0087538-.0714387.0092302-.0713793.0094684-.0714386.0094684-.0713794.0101234-.0714386.010183-.0713794.0104808-.0713793.0109571-.0714387.0108976-.0713793.0115526-.0714387.0117313-.0713793.0119695-.0714387.0123863-.0713793.0124459-.0714387.013101-.0713793.0132795-.0714387.0135774-.0713793.0139941-.0714387.0140538-.0713793.0148278-.0713794.0148279-.0714386.0153638-.0713794.0156616-.0714386.0159593-.0713793.0164953-.0714387.0165548-.0713793.0173885-.0714387.0173885-.0713793.0180436-.0713794.0182817-.0714386.0188177-.0713794.019175-.0714386.0195323-.0713794.0200683-.0714386.0203659-.0713794.0210211-.0714386.0211401-.0713794.0219739-.0714386.0220929-.0713794.0229862c-.0238326.0076819-.0478431.0151851-.0714386.0229861l-.0713793.0239986c-.0237734.0079796-.0477839.0158402-.0713794.0239985l-.0714386.0250109-.0713794.0250108c-.0240105.0085752-.0476653.0174481-.0714386.0261423-.0238327.0086943-.0477839.0172694-.0713794.0261423l-.0714386.0272143c-.0238327.0091111-.0477839.0180435-.0713794.0272737l-.0714386.0283457-.0713794.0285838-.0714386.0294771-.0713794.0298939-.0714386.0306086-.0713794.0313231-.07132.0317995-.0714387.0328119-.0713793.0331097c-.0240105.0113144-.0476653.022867-.0714387.0343006l-.0713793.0347174-.0714387.0356703-.0713793.0364444c-.0238919.0123268-.0478431.0245345-.0714386.0369804-.0240105.0126245-.0476653.0254872-.0713794.0382904l-.0714386.0388264-.0713794.0397196c-.0240105.0135178-.0477246.0271547-.0714386.0408511-.023892.013756-.0477839.0274524-.0713794.0413871-.0239512.0141132-.0476653.0284052-.0713793.0426971-.0240105.0144706-.0477839.0290602-.0714387.0437094-.0238919.0147684-.0478431.0295367-.0713793.0444241-.0240105.0151852-.0477839.030549-.0714387.0458533l-.0713793.0468656c-.0239512.0158997-.0478432.0316804-.0714387.0477588l-.0713793.0491881c-.0240105.0167334-.0477246.033586-.0713794.0504385-.0239512.0170908-.0478431.0343007-.0714386.0516296-.0238919.0175076-.0478432.0349557-.0713794.0526419-.0240698.0181031-.0477245.0363253-.0714386.0546071-.0240105.01852-.0477839.037159-.0714386.0558576-.0239513.0189368-.0477839.0379927-.0713794.0571677z" fill="#e10238"/></g></svg>