<svg height="32" viewBox="0 0 32 32" width="32" xmlns="http://www.w3.org/2000/svg"><g fill="none" fill-rule="evenodd"><path d="m0 0h32v32h-32z" fill="#30963d"/><g transform="translate(4.266667 4.266667)"><path d="m23.1562806 12.0796801c0 6.1188001-4.9584001 11.0760002-11.0760003 11.0760002-6.12000015 0-11.07840029-4.9572001-11.07840029-11.0760002 0-6.12000004 4.95840014-11.0772001 11.07840029-11.0772001 6.0912002 0 11.0760003 4.95720006 11.0760003 11.0772001" fill="#fff"/><g fill="#98867d"><path d="m17.6437197 17.8019994c-.5268-.264-1.0548-.5268-1.8732-.5268-.7103999 0-1.2911999.2628-1.8455999.5268-.5796.264-1.1868.5544-2.0052.5544-.7103999 0-1.2383999-.2376-1.8179999-.5016-.582-.264-1.18679998-.5532-2.00519996-.5532-.71159998 0-1.29239997.264-1.84559995.5004-.58079999.264-1.18679997.5268-2.00519995.5268h-.1308c.078.1056.1572.2112.2628.2916.81839998-.0276 1.42439996-.2916 2.00399994-.5544.55439999-.2376 1.08239998-.4752 1.74119996-.4752.73919998 0 1.29239996.264 1.87319995.528.57960001.2628 1.16040001.5268 1.95119991.5268.8712 0 1.5036-.2892 2.1096-.5796.5544-.264 1.0812-.5004 1.7411999-.5004.738 0 1.2132.2364 1.74.5004.5544.2904 1.134.5796 2.0579999.5796.078-.1056.1836-.2112.264-.3168h-.2388c-.8963999.0276-1.4507999-.2628-1.9775999-.5268"/><path d="m15.7980004 17.8546794c-.7128001 0-1.2924001.2639999-1.8468001.5267999-.5796.264-1.1856.5544-2.0040001.5544-.7128 0-1.2396-.2376-1.8204-.5016-.57960002-.2628-1.18680004-.5531999-2.00400006-.5531999-.71160002 0-1.29240004.2639999-1.84680006.5003999-.50040001.2112-1.00200003.4488-1.63440004.528l.264.264c.57960002-.1056 1.05480003-.3168 1.50360005-.528.55320001-.264 1.08120003-.474 1.74000005-.474.73800002 0 1.29240003.2628 1.87320006.5268.5796.264 1.1592.5292 1.95.5292.8712001 0 1.5036001-.2916 2.1372001-.582.5544-.264 1.0812-.5004 1.7412001-.5004.738 0 1.2132.2364 1.74.5004.4488.2376.8964.4488 1.5564001.528.1056-.0792.1848-.1848.264-.2904-.7380001-.0528-1.2132001-.2904-1.6884001-.5268-.5796-.2376-1.134-.5015999-1.9248-.5015999"/><path d="m15.7979998 18.4347595c-.7128 0-1.2924.264-1.8467999.5268-.5796.2652-1.1856.5544-2.004.5544-.7128 0-1.2396-.2364-1.8204-.5016-.57960001-.2628-1.1868-.5532-2.004-.5532-.71159999 0-1.29239999.264-1.84679998.5004-.3684.1584-.738.3444-1.15919999.4488.0792.0804.1848.1584.26279999.2388.3696-.1056.6864-.264 1.0296-.396.55319999-.2388 1.08119999-.4752 1.73999998-.4752.738 0 1.29239999.264 1.8732.528.5796.2628 1.1592.5268 1.95.5268.8712 0 1.5036-.2892 2.1372-.5796.5543999-.264 1.0811999-.5016 1.7411999-.5016.738 0 1.2132.2376 1.74.5016.3168.1572.66.3156 1.0548.4488.1056-.0804.1848-.1584.264-.2388-.4752-.1044-.8172-.2904-1.1868-.474-.5796-.2904-1.134-.5544-1.9248-.5544"/><path d="m15.798 18.9890401c-.7128 0-1.2924.264-1.8468.5268-.5796.264-1.1856.5544-2.004.5544-.7128 0-1.2396-.2376-1.8204-.5016-.57960001-.2628-1.18680002-.5544-2.00400002-.5544-.7116 0-1.29240001.2652-1.84680001.5016-.21.1056-.4476.2112-.6852.2916.0804.078.1848.1572.264.21.1848-.0792.3432-.1572.5268-.2376.5544-.2364 1.08240001-.474 1.74120001-.474.7392 0 1.29240001.2628 1.87320001.5268.57960001.264 1.16040001.528 1.95120001.528.8712 0 1.5036-.2904 2.136-.5808.5544-.264 1.0824-.5004 1.74-.5004.7392 0 1.2144.2364 1.7424.5004.1836.0804.3684.1848.5532.264.1044-.0792.1848-.1308.2904-.2112-.2376-.1056-.4752-.2112-.6864-.3168-.5796-.2364-1.134-.5268-1.9248-.5268"/><path d="m15.7980003 19.5691203c-.7128 0-1.2924.264-1.8468.5268-.5796.264-1.1856.5543999-2.0040001.5543999-.7128 0-1.2396-.2375999-1.8204-.5015999-.57960001-.2628-1.18680003-.5532-2.00400005-.5532-.71160001 0-1.29240003.264-1.84680004.5004-.0528.0276-.1308.0528-.1836.0804.1056.078.1836.1308.2892.2112l.0276-.0276c.55320002-.2364 1.08120003-.474 1.74000005-.474.73800001 0 1.29240003.2628 1.87320004.5268.5796.2639999 1.1592.5279999 1.95.5279999.8712001 0 1.5036001-.2904 2.1372001-.5807999.5544-.264 1.0812-.5004 1.7412-.5004.7380001 0 1.2132001.2364 1.7400001.5004.0276 0 .0528.0276.0804.0276.1044-.0528.1836-.1332.2892-.186-.0792-.0252-.132-.078-.2112-.1056-.606-.2628-1.1604-.5268-1.9512001-.5268"/><path d="m13.9253999 20.6766006c-.5796.264-1.1868.5544-2.0052.5544-.7116 0-1.2384-.2376-1.8192-.5016-.58080005-.264-1.18680005-.5532-2.00400006-.5532-.58080001 0-1.08240002.1836-1.53000002.3696.1056.078.2112.1308.3168.1836.36840001-.1584.76560001-.264 1.21320002-.264.738 0 1.29240001.264 1.87200002.528.58080004.2628 1.16040004.5268 1.95120004.5268.8712 0 1.5036-.2892 2.1108-.5796.5544-.264 1.0812-.5004 1.74-.5004.528 0 .924.1308 1.2672.2892.1056-.0528.2112-.1308.3156-.1836-.4488-.2112-.9228-.396-1.5828-.396-.7116 0-1.2912.2628-1.8456.5268"/></g><path d="m12 0c-6.6456 0-12 5.3796-12 12 0 6.6456 5.3796 12 12 12 6.6456 0 12-5.3796 12-12s-5.3796-12-12-12m.0000001 22.1015999c-5.56560005 0-10.10160011-4.5108-10.10160011-10.1016 0-5.56439995 4.51080006-10.10039993 10.10160011-10.10039993 5.5656001 0 10.1016002 4.50959998 10.1016002 10.10039993-.0264 5.5656-4.5360001 10.1016-10.1016002 10.1016" fill="#ec1b2e"/><g fill="#00a84f"><path d="m17.6179199 9.01992039c-.0792.36959999-.4488.76439999-.66.92279999-.474.36960002-3.5867999 2.26800002-3.9287999 2.71680002-.3432.4476-.4224 1.0812-.4224 1.5828v3.6396h.4752v-.9492c0-.318.1836-.8184.5532-1.2396.6324-.66 2.1359999-1.5036 3.1115999-2.2164.8184-.606.8712-1.3968.8712-2.1096v-2.50560001z"/><path d="m12.6070802 12.4488001c.342-.4224 3.5603999-2.4 4.0079999-2.76960001.4488-.3696 1.0031999-.94920001 1.0031999-1.66200001v-4.08720003c0 .5796-.3168 1.02840001-.7379999 1.55520001-.4764.60720001-2.6387999 1.79400001-3.6935999 2.53200002-1.0547999.7392-1.4243999 1.50360001-1.4243999 2.42640002v7.464h.4752v-3.9036c-.0264-.5004.0264-1.1328.3695999-1.5552"/><path d="m10.1800801 8.22828011c-.97559999-.73800002-2.97959992-2.34720006-3.19079991-2.66400007-.2376-.3156-.73799998-.89640002-.73799998-1.58160004v3.7968001c0 .55440001.26279999 1.53000004 1.21199996 2.21640006.94919997.68520004 2.29439992 1.68720004 2.69159993 2.10960004.3948.396.7631999 1.134.7631999 2.1624001v3.6660001h.4752v-7.3056002c-.0264-1.21320006-.2376-1.66080007-1.2131999-2.40000009"/></g></g></g></svg>