<svg xmlns="http://www.w3.org/2000/svg" xmlns:xlink="http://www.w3.org/1999/xlink" width="114" height="139.108" viewBox="0 0 114 139.108"><defs><style>.a{fill:none;}.b{clip-path:url(#a);}.c{fill:#57abff;opacity:0.1;}.d{clip-path:url(#b);}.e{fill:#e6f2ff;}</style><clipPath id="a"><path class="a" d="M0,0H114V114H0Z" transform="translate(0 0.892)"/></clipPath><clipPath id="b"><path class="a" d="M0,0H88.285V7.274H0Z" transform="translate(0.749 0.726)"/></clipPath></defs><g transform="translate(0 -26.109)"><g class="b" transform="translate(0 25.217)"><path class="c" d="M114,57A57,57,0,1,1,57,0a57,57,0,0,1,57,57" transform="translate(0 0.892)"/></g><g class="d" transform="translate(13 157.217)"><path class="e" d="M0,3.637C0,5.646,5.421,7.274,28.39,7.274s59.9-1.628,59.9-3.637S51.359,0,28.39,0,0,1.629,0,3.637" transform="translate(0.749 0.726)"/></g></g></svg>