<svg height="115" viewBox="0 0 169 115" width="169" xmlns="http://www.w3.org/2000/svg" xmlns:xlink="http://www.w3.org/1999/xlink"><mask id="a" fill="#fff"><path d="m.0004.0003h126.5426v56.0759h-126.5426z" fill="#fff" fill-rule="evenodd"/></mask><path d="m61.6514 14.9023c-1.286-1.722-1.461-2.946-1.461-3.917 0-3.642 2.963-6.603 6.603-6.603 2.963 0 5.261 1.678 6.469 4.724.822 2.069.146 4.412-1.722 5.969l-5.784 4.869zm3.723 9.111 12.685 15.585c-3.199 5.551-7.457 8.249-13.006 8.249-5.862 0-10.631-4.768-10.631-10.631 0-3.363 1.904-5.61 5.196-8.355zm21.662 22.073-5.53-6.792c1.057-2.143 1.97-4.552 2.865-7.547.225-.757-.206-1.557-.965-1.784-.128-.039-.261-.057-.395-.057-.636 0-1.208.42-1.387 1.02-.647 2.167-1.367 4.14-2.146 5.875l-11.912-14.633 5.814-4.895c2.834-2.361 3.833-5.982 2.546-9.225-1.645-4.151-4.974-6.532-9.133-6.532-5.221 0-9.468 4.247-9.468 9.469 0 1.361.231 3.234 2.057 5.669l4.181 5.137-5.788 4.873c-3.84 3.204-6.22 6.087-6.22 10.552 0 7.443 6.055 13.499 13.498 13.499 6.285 0 11.313-2.934 14.954-8.723l4.806 5.903c.274.336.679.528 1.111.528.331 0 .652-.113.905-.32.297-.242.482-.585.521-.966s-.072-.755-.314-1.051zm37.9-44.49c-.857 0-1.529.706-1.529 1.607v24.027h-29.038v-24.027c0-.856-.716-1.607-1.531-1.607-.916 0-1.607.692-1.607 1.607v51.266c0 .915.691 1.607 1.607 1.607.815 0 1.531-.751 1.531-1.607v-24.103h29.038v24.103c0 .901.672 1.607 1.529 1.607.871 0 1.607-.736 1.607-1.607v-51.266c0-.87-.736-1.607-1.607-1.607zm-121.724 26.327c0 13.751 11.46 24.94 25.548 24.94 5.452 0 10.865-1.754 15.28-4.944v-17.096h-15.737c-.825 0-1.605-.744-1.605-1.53 0-.993.846-1.683 1.605-1.683h17.419c.872 0 1.531.724 1.531 1.683v19.319c0 .075 0 .23-.077.402v.078l-.032.096c-.083.25-.195.517-.454.774l-.058.05c-5.048 3.911-11.397 6.064-17.872 6.064h-.004c-15.856-.078-28.756-12.707-28.756-28.153 0-15.397 12.901-27.923 28.76-27.923 6.579 0 12.928 2.154 17.877 6.066.37.263.622.66.685 1.1.061.425-.059.875-.337 1.263-.3.376-.771.585-1.278.585-.42 0-.8-.142-1.077-.402-4.464-3.532-10.099-5.477-15.87-5.477-14.088 0-25.548 11.121-25.548 24.788z" fill="#6c6e70" fill-rule="evenodd" mask="url(#a)" transform="translate(21 29)"/></svg>