<svg height="115" viewBox="0 0 169 115" width="169" xmlns="http://www.w3.org/2000/svg" xmlns:xlink="http://www.w3.org/1999/xlink"><mask id="a" fill="#fff"><path d="m0 55.2624h153v-55.262h-153z" fill="#fff" fill-rule="evenodd"/></mask><g fill="none" fill-rule="evenodd" transform="translate(8 30)"><g fill="#231f20"><path d="m85.2341 49.2659c0-1.738-1-1.154-1-1.585 0-.084.044-.153.152-.153.166 0 .331.034.5.034.232 0 .466-.034.939-.034.285 0 .182.061.347.233l3.596 3.99c.113.124.224.235.28.235.054 0 .071-.111.071-.333v-3.014c0-.823-1.097-.662-1.097-.958 0-.062.03-.153.148-.153.146 0 .404.034 1.024.034.562 0 .875-.034.954-.034.172 0 .172.091.172.118 0 .271-.765.051-.765 1.002v5.075c0 .2 0 .271-.108.271-.123 0-.166-.052-.233-.124l-4.307-4.705c-.065-.075-.115-.119-.158-.119-.054 0-.076.066-.076.144v3.077c0 1.737 1.151 1.119 1.151 1.548 0 .127-.227.116-.345.116-.439 0-.741-.034-1.057-.034-.288 0-.525.034-.767.034-.103 0-.28.046-.28-.107 0-.366.859-.2.859-1.123z"/><path d="m99.6862 50.6302c0 1.838-.513 3.363-2.983 3.363-1.673 0-2.576-.784-2.576-2.538v-2.952c0-.78-.928-.489-.928-.831 0-.118.115-.145.185-.145.115 0 .791.035 1.237.035.457 0 1.096-.035 1.265-.035.081 0 .1.07.1.126 0 .308-.754-.171-.754 1.309v1.965c0 1.385.361 2.531 1.964 2.531 1.784 0 2.015-1.423 2.015-2.954v-1.794c0-1.038-1.099-.76-1.099-1.083 0-.145.146-.1.266-.1.262.018.504.035.752.035.297 0 .579-.017 1.022-.035.106 0 .163.018.163.119 0 .243-.629-.084-.629.937z"/><path d="m104.3385 48.5491c0-.437-.086-.478-.452-.478h-.753c-1.01 0-.743 1.185-1.15 1.185-.186 0-.131-.199-.113-.317l.146-1.197c.008-.089.008-.214.139-.214.833 0 1.434.034 2.744.034 1.308 0 1.904-.034 2.741-.034.138 0 .138.125.144.214l.099.833c.022.108.113.464-.113.464-.365 0-.074-1.006-1.107-.968h-.758c-.374 0-.46.041-.46.478v4.089c0 1.115 1.148.848 1.148 1.104 0 .218-.178.189-.44.189-.363 0-.654-.034-1.254-.034-.602 0-.895.034-1.253.034-.164 0-.319.011-.319-.189 0-.356 1.011.081 1.011-.996z"/><path d="m120.3385 52.8079c0 1.115 1 .697 1 .988 0 .101-.075.135-.277.135-.338 0-.671-.034-1.366-.034-.388 0-.772.034-1.003.034-.084 0-.097-.061-.097-.107 0-.319.646-.081.646-.943v-4.342c0-.826-1.018-.571-1.018-.885 0-.159.226-.126.307-.126.348 0 .698.034 1.014.034.32 0 .641-.034 1.15-.034.272 0 .318.017.318.126 0 .307-.674-.019-.674.841z"/><path d="m126.3161 52.5843c0 .563-.039.885.61.885 2.225 0 2.098-1.185 2.435-1.185.035 0 .102.028.102.2 0 .708-.527 1.447-1.263 1.447-1.363 0-1.903-.035-2.349-.035-.277 0-.657.035-1.148.035-.118 0-.169-.045-.169-.097 0-.417.68.069.68-1.03v-4.283c0-.766-1.017-.524-1.017-.84 0-.084.101-.154.294-.154.355 0 .872.035 1.214.035.763 0 .868-.035 1.01-.035.192 0 .241.007.241.119 0 .338-.64.007-.64.695z"/><path d="m133.6774 52.8079c0 1.115 1.005.697 1.005.988 0 .101-.081.135-.285.135-.334 0-.666-.034-1.366-.034-.389 0-.772.034-1.003.034-.079 0-.099-.061-.099-.107 0-.319.648-.081.648-.943v-4.342c0-.826-1.012-.571-1.012-.885 0-.159.223-.126.301-.126.351 0 .698.034 1.014.034.322 0 .644-.034 1.158-.034.266 0 .309.017.309.126 0 .307-.67-.019-.67.841z"/><path d="m139.3962 48.5491c0-.437-.091-.478-.454-.478h-.758c-1.011 0-.743 1.185-1.147 1.185-.186 0-.135-.199-.113-.317l.142-1.197c.009-.089.009-.214.143-.214.828 0 1.436.034 2.743.034 1.309 0 1.908-.034 2.739-.034.135 0 .135.125.146.214l.101.833c.012.108.112.464-.119.464-.36 0-.072-1.006-1.106-.968h-.756c-.367 0-.456.041-.456.478v4.089c0 1.115 1.143.848 1.143 1.104 0 .218-.178.189-.437.189-.358 0-.655-.034-1.255-.034-.601 0-.897.034-1.253.034-.164 0-.318.011-.318-.189 0-.356 1.015.081 1.015-.996z"/><path d="m147.1315 49.8519c0 .389 0 .452.383.452h.765c.768 0 .797-.835.981-.835.059 0 .159-.015.167.231l.061 1.607c.014.115.068.444-.145.444-.296 0-.04-.959-.976-.959h-.859c-.417 0-.377.105-.377.63v1.162c0 .564.14.885.784.885 2.226 0 2.103-1.184 2.439-1.184.037 0 .099.027.099.2 0 .708-.528 1.446-1.263 1.446-1.361 0-2.08-.034-2.528-.034-.274 0-.66.034-1.15.034-.11 0-.164-.045-.164-.097 0-.417.679.07.679-1.031v-4.239c0-.809-1.013-.523-1.013-.883 0-.084.07-.153.199-.153.366 0 1.013.034 2.385.034.633 0 1.408-.034 2.198-.034.118 0 .177.091.177.169l.039.897c.007.116.054.415-.154.415-.42 0 .278-1.058-1.458-1.058-1.073 0-1.269.01-1.269.632z"/><path d="m116.1979 53.6722c-.467-.275-1.28-1.38-1.754-1.958-.389-.49-.558-.515-.539-.52 2.587-.84 2.135-3.885-1.14-3.649-.597.044-1.212.035-1.807.035-.566 0-.641-.035-1.049-.035-.109 0-.198.044-.198.136 0 .322.977-.009.977 1.004v3.979c0 1.143-.726.844-.726 1.132 0 .181.184.153.285.153.446 0 .896-.035 1.379-.035.381 0 .619.035.776.035.202 0 .277-.052.277-.134 0-.327-.888.045-.888-.924v-1.164-.531c-.004-.013 0-.021 0-.032v-1.356-1.33c0-.544.242-.448.576-.46.264-.009.849.026.864.026.737 0 1.34.63 1.34 1.374 0 .7-.533 1.276-1.207 1.345-.217.043-.445.061-.666.072-.144.01-.264.102-.254.208.009.124.068.156.187.191.409.105 1.646 2.541 2.637 2.869.507.165 1.366.027 1.396-.255.021-.184-.319-.09-.466-.176"/><path d="m152.8219 48.7015v-.98h-.009l-.357.98h-.111l-.361-.98h-.008v.98h-.178v-1.172h.277l.327.892.327-.892h.271v1.172zm-1.584-1.015v1.015h-.184v-1.015h-.342v-.157h.865v.157z"/></g><path d="m73.474 54.6074h8.14v-7.962h-8.14z" fill="#006225" mask="url(#a)"/><path d="m73.4743 54.5941v-7.948h8.123z" fill="#8cc63f" mask="url(#a)"/><path d="m78.2428 50.1322c.267.043.919.108 1.45-.202.619-.369.848-1.128.883-1.252.032-.015.057-.017 0-.004.003-.011.006-.017.006-.017s-.889-.221-1.566.179c-.407.239-.652.655-.776.946-.051.121-.08.218-.102.275-.356.288-.692.59-1.011.88.033-.069.055-.148.074-.234.186-.145.698-.622.783-1.247.113-.771-.445-1.479-.445-1.479s-.734.53-.845 1.299c-.084.589.224 1.147.366 1.373.03.039.052.065.067.084-.045.17-.11.301-.209.399l-.028.021v.003c-.43.39-.832.749-1.217 1.015.032-.059.065-.121.086-.192.143-.124.703-.666.763-1.365.062-.796-.561-1.498-.561-1.498s-.727.593-.792 1.393c-.056.682.39 1.294.518 1.454-.049.176-.146.306-.308.384l-.03.016.003.008c-.277.151-.541.247-.808.264l-.035.003.003.064.035-.002c.362-.021.717-.178 1.078-.416.102-.043.215-.074.347-.09.016.021.041.05.072.089.181.216.617.657 1.202.762.776.137 1.522-.381 1.522-.381s-.512-.74-1.293-.878c-.506-.092-1 .097-1.285.24-.065.033-.121.065-.161.088-.076.009-.141.023-.214.039.348-.253.699-.568 1.074-.908l.004.006.025-.022c.129-.1.299-.162.497-.189.011.014.025.03.034.051.171.213.597.687 1.192.811.777.16 1.542-.333 1.542-.333s-.496-.757-1.266-.92c-.657-.134-1.307.203-1.487.308-.114.013-.216.04-.305.075.309-.28.666-.606 1.046-.914.018 0 .045.011.072.014" fill="#fefefe" mask="url(#a)"/><path d="m77.2648 49.8841c.011-1.029.243-1.802.243-1.802l-.009.03c-.234.592-.263 1.221-.293 1.769-.014.27-.029.519-.065.733.013-.005.068-.085.081-.124.027-.186.04-.398.043-.606" fill="#8cc63f" mask="url(#a)"/><g fill="#006225"><path d="m77.6579 50.9105c-.038.02-.091.038-.131.06 0 .004-.003.007-.009.01.916-.089 2.242.402 2.508.507-.239-.097-.838-.355-1.468-.483-.354-.072-.638-.102-.9-.094" mask="url(#a)"/><path d="m78.6012 52.6566c-.07-.029-1.387-.565-2.384-.56-.035.01-.075.018-.108.035-.005.005-.014.01-.016.022 1.005-.055 2.539.511 2.539.511z" mask="url(#a)"/><path d="m80.4596 48.6907c-.016 0-.019.006-.019.006-.804.265-1.484.689-2.118 1.178-.012.037-.046.08-.056.113.067-.052.14-.111.211-.163.676-.503 1.387-.918 1.982-1.134" mask="url(#a)"/></g><path d="m75.9474 49.2601-.005.029c-.197.595-.205 1.196-.205 1.727-.003.248-.005.477-.03.676.017.044.027.079.032.119.006 0 .011-.006.014-.008.041-.222.056-.505.052-.787-.036-1.202.142-1.756.142-1.756" fill="#8cc63f" mask="url(#a)"/><path d="m54.5885 52.1478c.079-.21.108-.456.108-.682 0-.638-.313-1.582-1.097-1.582-.251 0-.641.16-.641.455v1.499c0 .708.633.865.87.865.415 0 .644-.243.76-.555zm-2.521-4.325c0-.622-.521-.25-.521-.543 0-.23.405-.095 1.193-.574.047-.024.087-.06.143-.06.098 0 .076.176.076.229v2.994c.316-.31.682-.563 1.131-.563.865 0 1.337.749 1.337 1.548 0 1.351-.759 2.153-1.776 2.153-.773 0-1.019-.353-1.144-.353-.127 0-.219.353-.405.353-.065 0-.094-.051-.094-.094 0-.065.06-.25.06-.679z" fill="#231f20" mask="url(#a)"/><path d="m56.4533 50.0111c-.17-.345-.448-.317-.448-.488 0-.118.133-.126.294-.126.134 0 .27.032.654.032.423 0 .575-.032.733-.032.146 0 .235-.011.235.11 0 .227-.461.167-.461.42 0 .084.076.253.151.412l.693 1.388c.056.118.083.211.148.211.043 0 .083-.116.119-.211l.412-1.059c.102-.261.134-.455.134-.539 0-.514-.563-.377-.563-.595 0-.148.119-.137.305-.137.088 0 .226.032.468.032.235 0 .364-.032.466-.032.108 0 .208 0 .208.094 0 .159-.323.192-.428.463l-1.792 4.508c-.033.091-.055.158-.135.158h-.396c-.06 0-.075-.026-.075-.067 0-.057.031-.124.075-.193l.52-.83c.145-.226.197-.374.197-.439 0-.092-.06-.21-.213-.505z" fill="#231f20" mask="url(#a)"/><path d="m64.0553 55.262c-.886-17.91 16.888-26.433 16.871-42.05-.003-1.003-.077-2.037-.237-3.103h.161c1.366 3.505 1.978 6.565 1.978 9.292 0 15.07-17.291 20.097-18.606 35.861z" fill="#8cc63f" mask="url(#a)"/><path d="m66.4269 9.5853c-2.005 1.849-3.971 6.151-3.993 10.771-.021 4.619 1.91 9.546 7.713 12.639l.116-.118c.418-5.451-5.266-8.916-5.266-16.232 0-2.018.432-4.331 1.546-7.06z" fill="#8cc63f" mask="url(#a)"/><path d="m74.7516 20.5208c0 1.599-1.062 2.891-2.371 2.891-1.31 0-2.368-1.292-2.368-2.891 0-1.6 1.058-2.893 2.368-2.893 1.309 0 2.371 1.293 2.371 2.893" fill="#006225" mask="url(#a)"/><path d="m48.7287 24.4163c3.05 0 5.283-2.545 5.283-5.501 0-2.82-2.231-5.396-5.27-5.396-3.286 0-5.503 2.588-5.503 5.456 0 3.001 2.338 5.441 5.49 5.441zm7.654-5.907c0 4.919-3.629 8.152-7.613 8.152-4.71 0-7.867-3.555-7.867-7.702 0-4.229 3.249-7.688 7.805-7.688 2.915 0 4.631 1.55 5.21 2.258h.062v-13.529h2.403zm-43.238.466c0-2.868-2.217-5.456-5.503-5.456-3.04 0-5.271 2.576-5.271 5.396 0 2.956 2.233 5.501 5.277 5.501 3.153 0 5.497-2.44 5.497-5.441zm-13.145-18.975h2.401v13.529h.062c.579-.708 2.298-2.258 5.213-2.258 4.55 0 7.799 3.459 7.799 7.688 0 4.147-3.157 7.702-7.864 7.702-3.981 0-7.611-3.233-7.611-8.152zm124.594 11.593 7.249 15.006-3.548 8.366h2.514l9.909-23.372h-2.512l-5.122 12.099-5.772-12.099zm-5.923 6.155c-.401-2.071-2.384-4.229-5.369-4.229-2.819 0-4.722 2.168-5.116 4.229zm1.401 5.166c-.748 1.347-2.831 3.747-6.805 3.747-4.149 0-7.571-3.492-7.571-7.724 0-4.123 3.363-7.666 7.673-7.666 4.485 0 7.662 3.436 7.662 7.477v.871h-12.956c.237 2.268 2.128 4.797 5.224 4.797 2.807 0 4.287-1.826 4.774-2.696zm-28.372-5.063v-17.851h-2.4v26.345h2.4v-8.036l7.905 8.036h3.414l-8.279-8.366 6.201-6.386h-3.173zm-68.821 1.143c0 2.874 2.277 5.422 5.262 5.422 3.098 0 5.508-2.354 5.508-5.422 0-3.12-2.386-5.475-5.508-5.475-3.013 0-5.262 2.546-5.262 5.475zm13.107-.028c0 4.377-3.424 7.695-7.767 7.695-4.254 0-7.673-3.478-7.673-7.66 0-4.25 3.386-7.73 7.673-7.73 4.343 0 7.767 3.323 7.767 7.695z" fill="#5f604a" mask="url(#a)"/></g></svg>