<svg height="115" viewBox="0 0 169 115" width="169" xmlns="http://www.w3.org/2000/svg" xmlns:xlink="http://www.w3.org/1999/xlink"><mask id="a" fill="#fff"><path d="m.00569064.09620461h16.44675916v15.25354909h-16.44675916z" fill="#fff" fill-rule="evenodd"/></mask><g fill="none" fill-rule="evenodd" transform="translate(9 50)"><g fill="#185725"><g transform="translate(17.970443 .087232)"><path d="m2.5060532 4.02343251c0-3.94526108-2.29909359-2.61095566-2.29909359-3.59670936 0-.18382266.09996059-.34855172.34518226-.34855172.39385222 0 .764867.08423645 1.15497537.08423645.53274877 0 1.06961576-.08423645 2.15458128-.08423645.65217734 0 .40733005.14226601.78021675.53125123l8.24244333 9.0511133c.2703054.28827586.5181478.53050244.6368276.53050244.1321576 0 .1662266-.24222658.1662266-.75887682v-6.82764532c0-1.87117242-2.5020098-1.50390148-2.5020098-2.17779311 0-.1448867.0599014-.34855172.3305812-.34855172.3294582 0 .9209853.08423645 2.3372808.08423645 1.2938719 0 2.0123153-.08423645 2.1935173-.08423645.3912315 0 .3912315.20366502.3912315.27217734 0 .61062069-1.7483744.12092611-1.7483744 2.27138916v11.50969457c0 .4578719 0 .6203547-.2433497.6203547-.2871528 0-.3859902-.1242956-.5305025-.2834089l-9.8706404-10.67144825c-.14638424-.16547783-.26244335-.27367488-.37213793-.27367488-.11942857 0-.16472907.14788178-.16472907.32870936v6.97889657c0 3.9418916 2.62967488 2.5428177 2.62967488 3.5098522 0 .2867783-.51328079.2680591-.78508374.2680591-1.00222661 0-1.69333991-.0846108-2.41852217-.0846108-.65330049 0-1.20476847.0846108-1.76035468.0846108-.228 0-.63720197.0992118-.63720197-.2478424 0-.8258916 1.96926108-.4496354 1.96926108-2.5458128z"/><path d="m33.0783448 7.11813005c0 4.16390145-1.1695763 7.63481775-6.8306404 7.63481775-3.8340689 0-5.8920591-1.7873104-5.8920591-5.77000987v-6.68537931c0-1.77046305-2.1351133-1.10855172-2.1351133-1.89176355 0-.26206896.2680591-.32646305.4327882-.32646305.2654384 0 1.8120197.0831133 2.8277241.0831133 1.049399 0 2.508-.0831133 2.8921183-.0831133.1931822 0 .2339901.16323153.2339901.29164532 0 .69186207-1.7259113-.39797044-1.7259113 2.96999015v4.45629556c0 3.13621675.8225221 5.74080785 4.4926108 5.74080785 4.0852808 0 4.6180296-3.2376748 4.6180296-6.70260095v-4.06955665c0-2.36011823-2.5218522-1.72254187-2.5218522-2.45895566 0-.33395074.3451822-.22762562.6124926-.22762562.5960197.04492611 1.1516059.0831133 1.7217931.0831133.682128 0 1.3155862-.03818719 2.3443941-.0831133.2493399 0 .3721379.04492611.3721379.2706798 0 .54809853-1.4425025-.1875665-1.4425025 2.12837439z"/><path d="m41.5420118 2.4001399c0-.98837438-.2070345-1.08571428-1.0467783-1.08571428h-1.7232906c-2.3163153 0-1.7023252 2.68246305-2.6296749 2.68246305-.4271724 0-.3021281-.45075862-.2616946-.71544828l.3339507-2.70941871c.014601-.20141872.014601-.49306404.3223449-.49306404 1.9052413 0 3.2848473.08273891 6.2817931.08273891 2.9909556 0 4.3668177-.08273891 6.2743054-.08273891.313734 0 .313734.29164532.328335.49306404l.2306207 1.88577339c.0430541.24933991.2605714 1.04939902-.2673104 1.04939902-.8273892 0-.1647291-2.27588177-2.5248473-2.19276847h-1.7461281c-.8446108 0-1.0467783.0973399-1.0467783 1.08571428v9.272c0 2.5282168 2.6311724 1.9295764 2.6311724 2.5012611 0 .4971823-.4163152.4354089-1.0142069.4354089-.8210246 0-1.4926699-.0846109-2.8651625-.0846109-1.3781084 0-2.0523744.0846109-2.8748966.0846109-.3665222 0-.7195665.0187192-.7195665-.4354089 0-.8030542 2.3178128.1886896 2.3178128-2.2601577z"/><path d="m73.5200788 12.0624729c0 2.5255961 2.2908572 1.5810246 2.2908572 2.2421872 0 .2193892-.1834483.3047488-.6446897.3047488-.7633695 0-1.5259901-.0853596-3.1216158-.0853596-.8887881 0-1.7697142.0853596-2.3050837.0853596-.186069 0-.2193892-.1415173-.2193892-.2478424 0-.718069 1.4739508-.1875665 1.4739508-2.1351133v-9.85266995c0-1.86967488-2.3241774-1.28638424-2.3241774-2.00370443 0-.35416749.5155271-.29052217.6978523-.29052217.8045517 0 1.608729.08348769 2.3208078.08348769.7382857 0 1.478069-.08348769 2.6468966-.08348769.6181084 0 .7195665.04193104.7195665.29052217 0 .69448276-1.5349754-.04604926-1.5349754 1.90599015z"/><path d="m82.1999901 11.5500532c0 1.2710345-.0730049 2.010069 1.3960789 2.010069 5.0946207 0 6.5670739-2.6873301 7.3532808-2.6873301.0816157 0 .228.0610246.228.4537537 0 1.5967488-1.2092611 3.2803547-2.9011035 3.2803547-3.1167488 0-6.1159409-.0827389-7.1410049-.0827389-.6293399 0-1.4982857.0827389-2.6255567.0827389-.2631921 0-.389734-.1022069-.389734-.2242562 0-.9453202 1.5641774.1602365 1.5641774-2.3380295v-9.70890643c0-1.73789162-2.3219311-1.18829556-2.3219311-1.91123152 0-.18195074.2257537-.34518227.6570444-.34518227.8217734 0 2.0108177.08386207 2.7854187.08386207 1.7502463 0 1.9924729-.08386207 2.3234286-.08386207.4297931 0 .5353694.02470936.5353694.26805912 0 .77797044-1.463468.01797044-1.463468 1.58065024z"/><path d="m95.5590305 12.0624729c0 2.5255961 2.3039606 1.5810246 2.3039606 2.2421872 0 .2193892-.1875665.3047488-.6611625.3047488-.7566306 0-1.5143843-.0853596-3.1216158-.0853596-.8839212 0-1.7640985.0853596-2.2960985.0853596-.1868177 0-.2250049-.1415173-.2250049-.2478424 0-.718069 1.4765714-.1875665 1.4765714-2.1351133v-9.85266995c0-1.86967488-2.3204335-1.28638424-2.3204335-2.00370443 0-.35416749.5200197-.29052217.6944827-.29052217.8041774 0 1.6042365.08348769 2.3226799.08348769.7472709 0 1.4732019-.08348769 2.650266-.08348769.612867 0 .7154482.04193104.7154482.29052217 0 .69448276-1.5390936-.04604926-1.5390936 1.90599015z"/><path d="m104.425797 2.4001399c0-.98837438-.207034-1.08571428-1.050148-1.08571428h-1.725911c-2.3166897 0-1.7026996 2.68246305-2.6221873 2.68246305-.4335369 0-.3148571-.45075862-.2661872-.71544828l.3264631-2.70941871c.0209655-.20141872.0209655-.49306404.3313301-.49306404 1.9074873 0 3.2811033.08273891 6.2769263.08273891 2.989458 0 4.370936-.08273891 6.276926-.08273891.310364 0 .310364.29164532.325714.49306404l.226503 1.88577339c.042305.24933991.265438 1.04939902-.263193 1.04939902-.821024 0-.1666-2.27588177-2.526344-2.19276847h-1.743882c-.837872 0-1.046778.0973399-1.046778 1.08571428v9.272c0 2.5282168 2.629674 1.9295764 2.629674 2.5012611 0 .4971823-.40995.4354089-1.004472.4354089-.822523 0-1.498661-.0846109-2.874148-.0846109-1.372493 0-2.051626.0846109-2.874897.0846109-.368019 0-.723685.0187192-.723685-.4354089 0-.8030542 2.328296.1886896 2.328296-2.2601577z"/><path d="m119.44321 5.35552906c0 .88204927 0 1.02394089 1.02731 1.02394089h2.053872c2.060237 0 2.135113-1.89213793 2.616572-1.89213793.168847 0 .427921-.03893596.450009.51515271l.168848 3.6551133c.025083.26169458.172965 1.00334975-.403587 1.00334975-.771605 0-.098088-2.18153694-2.591487-2.18153694h-2.311448c-1.113419 0-1.010089.25345813-1.010089 1.43988177v2.63042369c0 1.2717832.375882 2.0108177 2.109655 2.0108177 5.948217 0 5.611271-2.6873301 6.523271-2.6873301.105576 0 .266936.0610247.266936.4500099 0 1.5997438-1.416296 3.2840985-3.385557 3.2840985-3.643882 0-5.564847-.0846108-6.765872-.0846108-.742404 0-1.752492.0846108-3.070699.0846108-.315232 0-.451508-.1048276-.451508-.2223842 0-.9471921 1.821754.1591133 1.821754-2.3421478v-9.6093202c0-1.8359803-2.713537-1.18230542-2.713537-2.01006897 0-.18082758.192434-.34405911.536118-.34405911.981636 0 2.703429.08348768 6.373518.08348768 1.703822 0 3.782778-.08348768 5.896177-.08348768.305123 0 .482956.20216749.482956.39048276l.091724 2.03365517c.015724.26244335.139645.94457143-.412572.94457143-1.130266 0 .746523-2.40504434-3.892473-2.40504434-2.890995 0-3.409891.02133991-3.409891 1.43613794z"/><path d="m15.3539468 14.2124493c-1.1044335-.6214779-3.0265222-3.130601-4.1425616-4.44319216-.9333399-1.11079803-1.33767486-1.1613399-1.28001968-1.17931034 6.12455168-1.90823646 5.04333008-9.00169458-2.69444335-8.46482759-1.41741872.09584237-2.87190148.07749754-4.28183251.07749754-1.33505419 0-1.51138917-.07749754-2.48029557-.07749754-.25982266 0-.46910345.09584237-.46910345.30325123 0 .73978325 2.31294581-.02059113 2.31294581 2.28v9.03276846c0 2.5843744-1.71954679 1.9067389-1.71954679 2.5622857 0 .4069557.44514285.3466798.679133.3466798 1.06212808 0 2.12200985-.0812413 3.27024631-.0812413.88541871 0 1.46197044.0812413 1.81763546.0812413.48595074 0 .66528079-.1257931.66528079-.3092413 0-.737537-2.1066601.1055763-2.1066601-2.0913104v-2.64202955-1.20738916c-.00898522-.02059113 0-.04866995 0-.07075862v-3.07631527-3.01454187c0-1.23883744.5773005-1.01607882 1.36200986-1.04453202.63495566-.01797045 2.02130049.06027586 2.04563546.06027586 1.74537936 0 3.16055176 1.42116256 3.16055176 3.12161576 0 1.58289655-1.2538128 3.08380296-2.84457146 3.23542857-.50204926.09434483-1.04116256.14301478-1.5746601.16248276-.32983251.01647291-.62147783.23885715-.59938916.47696552.02246305.27929064.16061084.35716256.44738916.42792118.95505419.24260099 3.88461086 5.76776354 6.23087686 6.50904434 1.1976552.3762562 3.2264433.0617734 3.2979507-.5773005.0460493-.4174384-.7431527-.2055369-1.0965714-.3979704" mask="url(#a)" transform="translate(51.29064)"/></g><path d="m151.108292.00014975-.698227 2.24031527-.709084-2.24031527h-.731921v3.15980296h.476217v-2.48403941h.014601l.767488 2.48403941h.346679l.768611-2.48403941h.014976v2.48403941h.471724v-3.15980296zm-4.434956 0v.47471922h.783961v2.68508374h.508039v-2.68508374h.779094v-.47471922z"/><path d="m.00067389 14.6145005h14.64366501v-14.61408868z"/></g><path d="m0 .00082365v14.61446305l14.6444138-14.61446305z" fill="#8dc63f"/><g transform="translate(1.497537 2.333537)"><path d="m7.0866069 4.06330443c.47846305.0831133 1.65103448.20291626 2.60309359-.37026601 1.11866011-.67239409 1.52973401-2.06922167 1.59000981-2.30246305.063271-.01722168.1070739-.03144828.0014976 0 .0074877-.02021675.0074877-.0333202.0074877-.0333202s-1.59337934-.40920197-2.81499511.32721183c-.73491625.44514285-1.16695566 1.206266-1.39196059 1.738266-.09434483.22238424-.15349754.40358621-.18419704.50803941-.64431527.52638424-1.24819705 1.08047291-1.81838424 1.61471922.05278818-.1306601.0950936-.27367488.13215764-.42792119.32496551-.27217734 1.24932019-1.14187192 1.4106798-2.29684729.20216749-1.40656157-.80230542-2.71166502-.80230542-2.71166502s-1.32457143.97789162-1.52673892 2.3844532c-.14863054 1.08346798.4062069 2.1017931.67314286 2.51923153.04717242.07075862.08535961.12429556.11194089.15349753-.08161577.308867-.1995468.56120197-.38149754.73004927l-.04866995.04567487c-.76823645.71469951-1.49117241 1.37810838-2.18378325 1.86855173.05915271-.1070739.1093202-.22313301.14937931-.35716257.2613202-.22687684 1.26916256-1.22236453 1.37174384-2.49976354.11755665-1.46833498-1.0022266-2.75322168-1.0022266-2.75322168s-1.31146798 1.09207882-1.43089655 2.55517242c-.09771429 1.25268965.7030936 2.37284729.93708374 2.67497537-.09659113.3182266-.26731034.56195074-.55858128.70646305l-.0546601.0284532.00973399.01310345c-.4938128.27592118-.97676847.44963547-1.45710344.4822069l-.06401971.00187192.00673892.11980295.06065024-.0022463c.64656158-.03668966 1.28638424-.32384237 1.94193104-.76224631.17708374-.07899507.38636453-.13665024.6222266-.16922167.02807882.03893596.07525123.09584236.13402956.16660098.32384236.39609853 1.11004926 1.20439409 2.15458128 1.39345813 1.40394088.25757636 2.74723152-.69448276 2.74723152-.69448276s-.92098522-1.35789162-2.32530049-1.61359606c-.91499507-.16472906-1.80041379.17858128-2.31294581.43615764-.12242365.06589162-.22238424.12429557-.29538916.16660098-.1306601.01609853-.25682759.03893597-.37625616.06738917.61661084-.45712316 1.25306404-1.03704434 1.92583251-1.6626404l.00636453.00823646.04492611-.03893596c.23024631-.1853202.54135961-.29164532.8977734-.34667981.01722167.02508375.04342857.05765518.06514286.09247291.299133.39310345 1.07298522 1.26691626 2.13848276 1.49117241 1.39832512.2946404 2.76932016-.61249261 2.76932016-.61249261s-.88130046-1.38559606-2.27812805-1.68360591c-1.18080788-.2493399-2.34776354.36465025-2.67048275.55483744-.2115271.03182266-.39123153.07712315-.55034483.14226601.5555862-.51402956 1.20027586-1.11304434 1.88240394-1.67649261.03406896.00486699.0831133.01460098.13328079.02433497" fill="#fff"/><path d="m5.32546601 3.61250837c.01797044-1.88989162.44252217-3.31105418.44252217-3.31105418l-.02508375.05765517c-.41743842 1.08721182-.47322167 2.23395074-.527133 3.24778325-.02096552.49456158-.04530049.9524335-.10857143 1.3466601.02096552-.01647291.11905419-.16023645.14189163-.22912315.04380295-.33956651.07487684-.73004926.07637438-1.11192119" fill="#8dc63f"/><g fill="#185725"><path d="m6.03162956 5.49247882c-.06401971.03743842-.16884729.07150739-.23548769.11306404-.00149754.0071133-.00411822.01123152-.01048276.02171428 1.63718227-.16398029 4.032867.73903449 4.50983249.92585222-.4387783-.17371429-1.50577337-.65217734-2.64053199-.8835468-.63832513-.12841379-1.15310345-.1875665-1.62333005-.17708374"/><path d="m7.73062266 8.69664631c-.12766502-.05278818-2.49976355-1.0355468-4.29381281-1.02319212-.06738916.01460098-.12991133.03818719-.19580295.06327093-.00374385.01048276-.01460099.02171429-.02583252.03481774 1.80453202-.09359606 4.57123153.94831527 4.57123153.94831527z"/><path d="m11.0679212 1.41756847c-.0179705.00636453-.0299508.01048276-.0299508.01048276-1.44811818.48333005-2.67609848 1.26878818-3.81048272 2.16431527-.02433497.06401971-.07712315.14526109-.09846305.20628572.1257931-.09659114.25345813-.1973005.38262069-.29389163 1.21712315-.92922167 2.49414778-1.69184236 3.55627588-2.08719212"/></g><path d="m2.9596197 2.46318621-.02021674.05915271c-.3515468 1.08683743-.36165518 2.19127093-.36539902 3.16766502-.00561576.45225616-.00823645.87381281-.04792118 1.24070936.02508374.07487685.04230542.14451232.05353694.2160197.01048276-.00411822.01797045-.00823645.0333202-.01609852.06102463-.40470936.0950936-.92435468.08124138-1.43988177-.05952709-2.20999015.26543842-3.2275665.26543842-3.2275665" fill="#8dc63f"/></g></g></svg>