<?xml version="1.0" encoding="UTF-8"?>
<svg width="84px" height="57px" viewBox="0 0 84 57" version="1.1" xmlns="http://www.w3.org/2000/svg" xmlns:xlink="http://www.w3.org/1999/xlink">
    <!-- Generator: sketchtool 63.1 (101010) - https://sketch.com -->
    <title>731D3F3A-1A79-45D9-BFC6-FEBEBE42037B@1.00x</title>
    <desc>Created with sketchtool.</desc>
    <defs>
        <linearGradient x1="102.104412%" y1="27.967668%" x2="50%" y2="68.8673469%" id="linearGradient-1">
            <stop stop-color="#698BCA" offset="0%"></stop>
            <stop stop-color="#38539A" offset="100%"></stop>
        </linearGradient>
        <path d="M70,39.4057903 C70,41.3936493 68.3899899,43 66.3951975,43 L3.60480255,43 C1.62013598,43 0,41.3936493 0,39.4057903 L0,3.59420967 C0,1.60635069 1.61001013,0 3.60480255,0 L66.3951975,0 C68.379864,0 70,1.60635069 70,3.59420967 L70,39.4057903 Z" id="path-2"></path>
        <filter x="-17.9%" y="-19.8%" width="135.7%" height="158.1%" filterUnits="objectBoundingBox" id="filter-3">
            <feMorphology radius="0.5" operator="erode" in="SourceAlpha" result="shadowSpreadOuter1"></feMorphology>
            <feOffset dx="0" dy="4" in="shadowSpreadOuter1" result="shadowOffsetOuter1"></feOffset>
            <feGaussianBlur stdDeviation="4" in="shadowOffsetOuter1" result="shadowBlurOuter1"></feGaussianBlur>
            <feColorMatrix values="0 0 0 0 0.219607843   0 0 0 0 0.325490196   0 0 0 0 0.603921569  0 0 0 0.1 0" type="matrix" in="shadowBlurOuter1"></feColorMatrix>
        </filter>
    </defs>
    <g id="Asset-Sheet" stroke="none" stroke-width="1" fill="none" fill-rule="evenodd">
        <g id="Payment---Asset-Sheet" transform="translate(-435.000000, -778.000000)">
            <g id="Icons-20x20" transform="translate(130.000000, 292.000000)">
                <g id="Graphic-/-Credit-Card-CVV" transform="translate(312.000000, 489.000000)">
                    <g>
                        <g id="Path">
                            <use fill="black" fill-opacity="1" filter="url(#filter-3)" xlink:href="#path-2"></use>
                            <use fill="url(#linearGradient-1)" fill-rule="evenodd" xlink:href="#path-2"></use>
                        </g>
                        <rect id="Rectangle" fill="#FFFFFF" x="53" y="21" width="13" height="6"></rect>
                        <path d="M58.2915039,25.7083008 L58.2915039,22.2268555 L57.9448242,22.2268555 C57.8829753,22.4970378 57.789388,22.6683431 57.6640625,22.7407715 C57.538737,22.8131999 57.3173828,22.8648763 57,22.8958008 L57,22.8958008 L57,23.2327148 L57.8227539,23.2327148 L57.8227539,25.7083008 L58.2915039,25.7083008 Z M61.8583984,25.7083008 L61.8583984,25.2932617 L59.9492188,25.2932617 C59.9915365,25.1207357 60.0940755,24.9636719 60.2568359,24.8220703 C60.3479818,24.7423177 60.4733073,24.6584961 60.6328125,24.5706055 L60.6328125,24.5706055 L60.9672852,24.3850586 C61.2618815,24.2206706 61.4661458,24.0806966 61.5800781,23.9651367 C61.7770182,23.766569 61.8754883,23.5273112 61.8754883,23.2473633 C61.8754883,22.9820638 61.7831217,22.7411784 61.5983887,22.524707 C61.4136556,22.3082357 61.1210938,22.2 60.7207031,22.2 C60.2389323,22.2 59.902832,22.3692708 59.7124023,22.7078125 C59.6049805,22.8998698 59.5488281,23.1480794 59.5439453,23.4524414 L59.5439453,23.4524414 L59.9907227,23.4524414 C59.9972331,23.2359701 60.0314128,23.0666992 60.0932617,22.9446289 C60.2088216,22.7167643 60.4171549,22.602832 60.7182617,22.602832 C60.9217122,22.602832 61.0844727,22.6626465 61.206543,22.7822754 C61.3286133,22.9019043 61.3896484,23.063444 61.3896484,23.2668945 C61.3896484,23.4410482 61.3229167,23.5956706 61.1894531,23.7307617 C61.1048177,23.8170247 60.9575195,23.9211914 60.7475586,24.0432617 L60.7475586,24.0432617 L60.2788086,24.3142578 C59.964681,24.4965495 59.7534993,24.6991862 59.6452637,24.922168 C59.537028,25.1451497 59.4747721,25.407194 59.4584961,25.7083008 L59.4584961,25.7083008 L61.8583984,25.7083008 Z M63.3818359,25.8035156 C63.7854818,25.8035156 64.097168,25.6985352 64.3168945,25.4885742 C64.5366211,25.2786133 64.6464844,25.0068034 64.6464844,24.6731445 C64.6464844,24.4648112 64.5948079,24.288623 64.4914551,24.1445801 C64.3881022,24.0005371 64.2444661,23.9032878 64.0605469,23.852832 C64.1744792,23.8056315 64.2672526,23.7405273 64.3388672,23.6575195 C64.4544271,23.524056 64.512207,23.3499023 64.512207,23.1350586 C64.512207,22.8339518 64.4145508,22.6040527 64.2192383,22.4453613 C64.0239258,22.2866699 63.7480469,22.2073242 63.3916016,22.2073242 C62.9407552,22.2073242 62.6258138,22.3700846 62.4467773,22.6956055 C62.3426107,22.8778971 62.2905273,23.0992513 62.2905273,23.359668 L62.2905273,23.359668 L62.7250977,23.359668 C62.7332357,23.1611003 62.7682292,23.0081055 62.8300781,22.9006836 C62.9423828,22.7053711 63.1450195,22.6077148 63.4379883,22.6077148 C63.6023763,22.6077148 63.7464193,22.6549154 63.8701172,22.7493164 C63.9938151,22.8437174 64.0556641,22.9779948 64.0556641,23.1521484 C64.0556641,23.3865234 63.9628906,23.5492839 63.7773438,23.6404297 C63.6715495,23.692513 63.5364583,23.7185547 63.3720703,23.7185547 C63.336263,23.7185547 63.3028971,23.7177409 63.2719727,23.7161133 C63.2410482,23.7144857 63.2027995,23.7112305 63.1572266,23.7063477 L63.1572266,23.7063477 L63.1572266,24.0945312 L63.1572266,24.0945312 L63.2487793,24.0908691 C63.27889,24.0900553 63.3085938,24.0896484 63.3378906,24.0896484 C63.5999349,24.0896484 63.8046061,24.1376628 63.9519043,24.2336914 C64.0992025,24.3297201 64.1728516,24.4981771 64.1728516,24.7390625 C64.1728516,24.934375 64.1028646,25.0938802 63.9628906,25.2175781 C63.8229167,25.341276 63.6373698,25.403125 63.40625,25.403125 C63.1083984,25.403125 62.9025065,25.3111654 62.7885742,25.1272461 C62.7234701,25.024707 62.6811523,24.860319 62.6616211,24.634082 L62.6616211,24.634082 L62.2026367,24.634082 C62.2026367,24.9596029 62.2958171,25.2358887 62.4821777,25.4629395 C62.6685384,25.6899902 62.9684245,25.8035156 63.3818359,25.8035156 Z" id="123" fill="#2C2C2C" fill-rule="nonzero"></path>
                        <rect id="Rectangle" fill="#2C2C2C" x="-2.27373675e-13" y="4.39" width="70" height="10"></rect>
                        <rect id="Rectangle" fill="#EDEDED" x="5" y="20" width="50" height="8" rx="0.6"></rect>
                    </g>
                </g>
            </g>
        </g>
    </g>
</svg>