<svg height="72" viewBox="0 0 59 72" width="59" xmlns="http://www.w3.org/2000/svg" xmlns:xlink="http://www.w3.org/1999/xlink"><linearGradient id="a" x1="50%" x2="50%" y1="-23.678542%" y2="149.274637%"><stop offset="0" stop-color="#f3d3b7"/><stop offset="1" stop-color="#e3a780"/></linearGradient><linearGradient id="b"><stop offset="0" stop-color="#f2d1b5"/><stop offset="1" stop-color="#ac876d"/></linearGradient><linearGradient id="c" x1="50.00013%" x2="50.00013%" xlink:href="#b" y1="99.986651%" y2=".00338%"/><linearGradient id="d" x1="53.746605%" x2="50.005338%" xlink:href="#b" y1="156.543745%" y2="-.009808%"/><linearGradient id="e" x1="54.883762%" x2="50.006958%" xlink:href="#b" y1="114.801451%" y2="19.58331%"/><linearGradient id="f" x1="54.883762%" x2="50.006958%" xlink:href="#b" y1="112.914145%" y2="20.469179%"/><linearGradient id="g" x1="53.298868%" x2="50.0047%" xlink:href="#b" y1="156.543745%" y2="-.009808%"/><linearGradient id="h" x1="52.073196%" x2="50.002954%" xlink:href="#b" y1="156.543745%" y2="-.009808%"/><g fill="none" fill-rule="evenodd"><path d="m1.98001521.00069272c-1.09218332 0-1.98001521.93992861-1.98001521 2.09892911v60.16766957c0 .899541.55070977 1.6375319 1.33463416 1.9851096 3.58365435 1.5861296 14.12102974 7.7482917 28.05502604 7.7482917 13.9316872 0 24.7611581-6.2967873 28.0538715-7.7482917.7654519-.3365629 1.30808-1.0500765 1.3334796-1.9214686v-60.29862316c-.0334813-1.12718001-.9074589-2.03161652-1.9800152-2.03161652z" fill="url(#a)"/><path d="m0 30.6256977h58.7781658v1.1857h-58.7781658z" fill="#fff" fill-opacity=".5"/><path d="m0 32.8781814h58.7781658v-1.1857h-58.7781658z" fill="#e3a780"/><g transform="translate(4.9)"><g fill="#fff"><path d="m1.81092386 66.7523548c-2.41296315-1.0763747-1.1372099-66.7523548-1.1372099-66.7523548h5.77841173s-.11660731 68.5907538 1.53436747 69.1693052c2.32983714.81462-4.41375985-1.6292398-6.1755693-2.4169504z" fill-opacity=".15"/><path d="m9.92125088 12.109265.99404842 3.816869h-1.93614312zm-1.17530932-2.1762849-3.11145247 9.9081577h2.28596508l.5807275-2.1058587h2.91749183l.5945818 2.1058587h2.2975104l-3.2407596-9.9081577z" opacity=".496698"/><path d="m15.8980105 12.5883941v.9801941c.0888986-.1962697.2020424-.4629657.5045287-.7146527.3278859-.2805503.8058604-.4341025 1.2722896-.4341025.2401418 0 .4791291.0427175.7181163.1258436.7435159.2805502.9582581.8682049 1.0460022 1.1210465.579573-1.078329 1.4997317-1.2330357 1.9915605-1.2330357.6049726 0 1.1337463.2251329 1.4870318.5738003.6292177.6165178.6546173 1.288453.6546173 2.9694455v3.8642046h-1.8518626v-3.4301021c0-1.1626095-.0253996-1.4004423-.2147422-1.7087012-.2008878-.3359676-.4906743-.4063938-.7689155-.4063938-.5033741 0-.7550612.3648308-.7931606.4202482-.2008879.3498219-.2008879.9524854-.2008879 1.5401401v3.5848088h-1.8530171v-3.655235c0-.7827699 0-1.1325918-.1893426-1.4558596-.1385433-.2378327-.41563-.4341025-.7562157-.4341025-.1627884 0-.3278859.0427176-.479129.1269981-.5414736.3071044-.5541734.8393417-.5541734 2.2109208v3.2072782h-1.8518626v-7.2527437z" opacity=".496698"/><path d="m30.938968 12.5883941h1.8899621l-1.8899621 7.2527437h-1.7271736l-1.0956469-4.9009706-1.0841016 4.9009706h-1.7514187l-1.8899621-7.2527437h1.8899621l.995203 4.5361398 1.0206026-4.5361398h1.6382749l1.0090573 4.5361398z" opacity=".496698"/><path d="m36.7194579 16.1309472c0 .6569264-.0877441 1.2872986-.479129 1.762964-.3267314.3786851-.6927167.4063938-.807015.4063938-.3648308 0-.7816153-.2228239-1.0333024-.853196-.1500886-.3648308-.2008878-.7989333-.2008878-1.2457356 0-.5611005.0750443-1.1349008.3902304-1.5967119.227442-.3232678.5807275-.5322374.9201587-.5322374.2770866 0 .5541733.1396979.7435159.3636763.2389872.2666959.4664292.7573703.4664292 1.6948468zm.0958258 3.7106525h1.8137632v-7.2677527h-1.7768183v.9374766c-.3267314-.6996438-.8936045-1.1060376-1.6117208-1.1060376-1.2353448 0-2.8493747 1.0644746-2.8493747 3.9207764 0 2.2686472 1.1603005 3.6690895 2.7096768 3.6690895 1.058702 0 1.4870318-.6165179 1.7144738-.9524855z" opacity=".496698"/><path d="m42.9076116 12.5883941h1.8830349l-2.0723775 7.1961719c-.1512431.5045286-.3902304 1.3311706-.7562157 1.7364098-.3405857.3648308-.7435159.5322373-2.2432476.5322373-.2135876 0-.3013317-.0126998-.4906743-.0277086v-1.6105663h.4906743c.1766428 0 .5922728 0 .7816154-.1824154.1512431-.124689.2770867-.432948.2770867-.7285071 0-.1535522-.0750444-.4341024-.1385434-.6153633l-2.0158056-6.3002583h2.0158056l1.1857001 4.8859617z" opacity=".5"/><path d="m4.35550317 24.2013276s24.07998673-5.914646 41.92090513-1.7479551l.0554173-.1928062s-15.5664986-4.5961752-41.67729972 1.0032847z" opacity=".496698"/></g><path d="m4.06144494 22.9076792-.30017724.9386311s24.0811413-5.9158005 41.9220597-1.7479551l.0554173-.1928062s-6.0139354-1.7756637-16.8341701-1.7756637c-6.5900448 0-14.9615261.6592353-24.84312966 2.7777939" fill="url(#c)"/></g><g transform="translate(9.40767 9.186693)"><path d="m3.64542159.3919622-3.112607 9.9058487h2.28596508l.58072749-2.10470423h2.91864633l.5934273 2.10470423h2.29751036l-3.23960506-9.9058487zm1.17530932 2.17513041.99404845 3.81686897h-1.93729768z" fill="url(#d)"/><path d="m11.3010956 3.31176305c-.3024863.25284159-.4156301.51838299-.5033742.71465272v-.98134865h-1.84031731v7.25274378h1.85186261v-3.20612377c0-1.37157905.0126998-1.9049709.5541734-2.2120753.1512431-.08428053.3163406-.12584353.4802835-.12584353.3394312 0 .6165179.1951152.7550612.43294793.1893426.32326779.1893426.67308972.1893426 1.45701411v3.65408056h1.8530171v-3.58365436c0-.58880919 0-1.19031819.2008879-1.54014012.0380994-.05657186.2897865-.42024812.7943151-.42024812.2770867 0 .5657187.06927167.7689156.40639379.188188.30825893.2135876.54609166.2135876 1.70870117v3.42894764h1.8530172v-3.86420463c0-1.67983797-.0265542-2.35061864-.6557719-2.96713649-.3521309-.35097646-.8820592-.57495486-1.4870318-.57495486-.4918288 0-1.410833.1535522-1.9904059 1.23188119-.0888987-.25168707-.3036409-.83934173-1.0471568-1.11873746-.2389872-.08428053-.4779745-.12699806-.7169618-.12699806-.4675837 0-.9455582.15470673-1.2734441.43410246" fill="url(#e)"/><path d="m25.8377553 3.04506712-.9952029 4.53729434-1.0090574-4.53729434h-1.6371204l-1.0206026 4.53729434-.995203-4.53729434h-1.8911165l1.8911165 7.25274378h1.7502642l1.0841016-4.89981608 1.0956469 4.89981608h1.7271736l1.8899621-7.25274378z" fill="url(#f)"/><path d="m27.2901513 6.78458273c0 2.26749264 1.1603005 3.66908937 2.7096768 3.66908937 1.058702 0 1.4870319-.61651781 1.7144738-.95363994v.79777874h1.8137632v-7.26544358h-1.7768183v.93863112c-.3278859-.70079839-.8936045-1.10719218-1.6128753-1.10719218-1.2341903 0-2.8482202 1.06447465-2.8482202 3.92077647m2.010033 1.11873746c-.1523977-.36252174-.2020424-.7966242-.2020424-1.24573552 0-.55994599.0750443-1.13374632.3902304-1.59555744.227442-.32211327.5807275-.5310828.9201587-.5310828.2770867 0 .5541733.13854334.7435159.36252173.2389873.2655414.4664292.75621573.4664292 1.69484684 0 .65808086-.0888986 1.28729852-.479129 1.76411851-.3278859.3775306-.6927167.40639379-.807015.40639379-.3648307 0-.7804608-.22513292-1.0321478-.85550511" fill="url(#g)"/><path d="m37.8055907 3.04506712-1.0829471 4.88596174-1.1845455-4.88596174h-2.0158056l2.0158056 6.30025832c.0623445.18356992.1385433.46296565.1385433.61767238 0 .29325008-.126998.60150898-.2770867.72850708-.1893425.1801063-.6049725.1801063-.7816153.1801063h-.4918288v1.6105663c.1893425.0150089.2782412.0288632.4918288.0288632 1.4997316 0 1.9026619-.1674065 2.2432476-.5310828.3659853-.4063938.6049725-1.2330357.7550612-1.7364098l2.0735319-7.19848098z" fill="url(#h)"/></g></g></svg>