<svg height="24" viewBox="0 0 24 24" width="24" xmlns="http://www.w3.org/2000/svg"><g fill="none" fill-rule="evenodd"><circle cx="12" cy="12" fill="#f1f9fd" r="12"/><path d="m19.6922755 3.95723591c-3.3358661 3.46786151-8.519097 3.36524991-8.8409894 7.01842799-.0800592.8000421.2213462 1.5800544.7236751 2.2574551 2.4511644-2.5035177 5.0632749-3.36524992 5.203726-3.40711545.0400296 0 .0604362-.02084247.1004658-.02084247-.6632349.38959572-4.6080193 2.88926322-6.36933 7.42887432-.55394065 1.4277293-.76462909 2.9355413-.80465466 3.6538225-2.51164472.0817691-4.7423871.6974305-6.1683985 1.6009051-.36183759.2260738-.16090199.8000421.2613718.7591616 2.04930115-.2052232 4.24005814-.3078348 6.53027626-.3078348 2.2902181 0 4.4809751.1026116 6.5097813.3078348.4418887.0408846.6232093-.5539384.2409571-.7800123-1.4269357-.9026537-3.6372634-1.4982935-6.1489081-1.5800544.1805249-2.5244505 1.1851748-4.5965891 2.3711935-6.1776286 1.5674271.882624 3.576783 1.1287276 4.9433187.1643387 2.2918256-1.6009051 2.7533654-7.18281177 2.5729288-10.48649473-.039905-.57432942-.7235506-.86131353-1.1254137-.43083736z" fill="#09498b"/><path d="m10.509823 17.2340354c-.90419215-1.4157116-2.31071319-3.1809595-3.47631727-4.166236-.78331166-.7391318-1.44654661-1.1904587-1.64747819-1.3131001.02040661 0 .04002959 0 .0604362.0208425.10046579.0408846 2.10978156.5339087 3.85768536 2.4009061.34142293-.4721775.4222778-.8208927.40186315-1.3956819-.24095715-2.6880133-3.97864617-2.70792-6.32934469-5.2732099-.28098272-.30783479-.78331166-.12345406-.82414096.30783479-.18052497 2.38099951.04002959 6.44359781 1.68750376 7.63409751.9041921.6774007 2.33120816.5747892 3.4558222.0617271.96463232 1.1287275 1.88843534 2.4626783 2.31071314 3.3244105" fill="#38649a"/></g></svg>