<svg height="24" viewBox="0 0 24 24" width="24" xmlns="http://www.w3.org/2000/svg"><g fill="none" fill-rule="evenodd"><circle cx="12" cy="12" fill="#f1f9fd" r="12"/><path d="m21.0919792 12.4210202c.1636086-1.3925579-.254745-2.79126495-1.154232-3.85472442l-4.0887338-4.89522169-1.7907312 2.14443246-2.29806 2.75098382c-.8994679 1.06342056-1.3178273 2.46201083-1.154232 3.85472433.1643564 1.4115698.9039622 2.6871568 2.03796 3.5163244l2.8754438 2.1374426v-2.6780264l-2.5422863-2.586746c-.1299907-.1315031-.1299907-.3443351 0-.4758421.1292429-.1315032.3384169-.1315032.4676636 0l2.0746801 2.1101838v-2.737946l-1.8833727-1.91555029c-.0836719-.08513513-.1157961-.20903351-.0851655-.32534271.0306306-.1163014.1195312-.20675675.2338414-.23793081.1143024-.03116627.236079.00152017.3197508.08665492l1.4149441 1.43968869v-3.54979466c0-.185472.1471726-.33522811.3294663-.33522811.1822862 0 .3294664.14974638.3294664.33522811v3.54979466l1.414944-1.43968869c.0836719-.08513514.2054408-.11782119.3197509-.08665492.1143025.03116627.2032031.12162162.2338414.23793081.0306306.11630141-.0014942.24020758-.0851655.32534271l-1.8833727 1.91555029v2.737946l2.07468-2.1101838c.0836719-.0851352.2054408-.1185821.3197509-.0874158.1143025.0311663.2032031.1216216.2338414.2379308.0306306.1163014-.0022411.2402076-.0859133.3253427l-2.5422863 2.586746v2.6780108l2.8754438-2.137427c1.1340551-.8293038 1.8736571-2.1047352 2.03796-3.5163244z" fill="#38649a"/><g fill="#002f5f"><path d="m15.5195279 20.9602203v-2.0835244c-.0605134-.0235635-.1172898-.0554906-.1688374-.0942577l-3.0959551-2.3016649c-1.2834596-.9380044-2.1186675-2.3822271-2.30169376-3.9792649-.18826268-1.5780455.28538326-3.16371899 1.30587416-4.36767576l2.10681-2.52369733.4258373-.50929298-1.7877477-1.71107029c-.3264637-.28352433-.8075914-.28048866-1.1303257.00608108l-5.24675262 4.74090817-.65967863.5976-2.85536254 2.57993521c-.13671315.1223824-.14941406.3336908-.02988281.4728065.06200708.0737338.15240139.1155405.24728625.1140207.08068455.0007601.15837796-.0288856.21813976-.0836153l2.09036252-1.88892979v10.26642179c-.00074721.421881.33468751.7639394.74857164.7654573z"/><path d="m16.1785735 18.8485748v2.0835244h.9002156c.41463-.0015202.7493176-.3435762.7485729-.7654573v-2.5129947l-.6596607.4902811-.8210363.6103849c-.0515476.0387671-.1075781.0706923-.1680915.0942577z"/></g></g></svg>