<svg height="24" viewBox="0 0 24 24" width="24" xmlns="http://www.w3.org/2000/svg"><g fill="none" fill-rule="evenodd"><circle cx="12" cy="12" fill="#f1f9fd" r="12"/><path d="m14.2986957 2.52936182c.9322592 0 1.6894827.73962254 1.6894827 1.65047564 0 .16208171.1341801.29220233.2986957.29220233.1645157 0 .2986958-.13012062.2986958-.29220233 0-.90971351.7560586-1.65047564 1.6859879-1.65047564.1645157 0 .2986957-.13012062.2986957-.29220233 0-.16208172-.13418-.29220234-.2986957-.29220234-.9299293 0-1.6859879-.74193093-1.6859879-1.65275482 0-.16208171-.1341801-.29220233-.2986958-.29220233-.1645156 0-.2986957.13012062-.2986957.29220233 0 .9119927-.7584183 1.65275482-1.6894827 1.65275482-.1645156 0-.2986957.13012062-.2986957.29220234 0 .16208171.1341801.29220233.2986957.29220233z" fill="#38649a"/><path d="m22.24669 6.10650275c-.9299293 0-1.6871529-.74193094-1.6871529-1.65275482 0-.16208171-.13418-.29220233-.2986957-.29220233-.1645156 0-.2986957.13012062-.2986957.29220233 0 .91199269-.7584183 1.65275482-1.6894827 1.65275482-.1645156 0-.2986957.13012062-.2986957.29220233s.1341801.29220233.2986957.29220233c.9322592 0 1.6894827.73962254 1.6894827 1.65047565 0 .16208171.1341801.29220233.2986957.29220233.1645157 0 .2986957-.13012062.2986957-.29220233 0-.90971352.7560586-1.65047565 1.6871529-1.65047565.1645157 0 .2986957-.13012062.2986957-.29220233s-.13418-.29220233-.2986957-.29220233z" fill="#38649a"/><path d="m5.87217129.00005844c.17110661 0 .31066235.13112201.31066235.29445107v.72808916l.43079548.00115013c.17110661 0 .31066235.131122.31066235.29445107 0 .16332906-.13955574.29445106-.31066235.29445106h-.43079548v1.07197857h.6334716c.1711066 0 .31066234.131122.31066234.29445107 0 .16332906-.13955574.29445107-.31066234.29445107h-.6334716v1.07197856h.6334716c.1711066 0 .31066234.13112201.31066234.29445107 0 .16332907-.13955574.29445107-.31066234.29445107h-.6334716v1.07197857h.43079548c.17110661 0 .31066235.131122.31066235.29445106 0 .16332907-.13955574.29445107-.31066235.29445107h-.43079548v5.86605426l1.43559557-.0000313c.30945076 0 .6091809.1219146.82154658.3358509.21236567.2139187.32279682.5049277.30338042.7982274l-.47326302 7.1760671c-.06188394.9374144-.33613666 1.8345773-.81670025 2.6696111-.1990103.3450496-.57764557.5589859-.99023624.5589859h-1.18197703c-.41259067 0-.79121973-.2139187-.98902466-.5601342-.48056358-.8338855-.75481009-1.7321968-.81670024-2.6696112l-.47326302-7.176067c-.01942883-.2933027.09101474-.5842911.30338042-.7982274.21236878-.2139276.51209892-.3369993.82154658-.3369993h1.43439019v-5.86487638h-.43079547c-.17110661 0-.31066235-.13112201-.31066235-.29445107s.13955574-.29445107.31066235-.29445107h.43079547v-1.07197856h-.63347159c-.17110661 0-.31066235-.13112201-.31066235-.29445107 0-.16332907.13955574-.29445107.31066235-.29445107h.63347159v-1.07197857h-.63347159c-.17110661 0-.31066235-.131122-.31066235-.29445107 0-.16332906.13955574-.29445107.31066235-.29445107h.63347159v-1.07197856h-.43079547c-.17110661 0-.31066235-.13112201-.31066235-.29445107s.13955574-.29445107.31066235-.29445107h.43079547v-.72808916c0-.16332906.13955574-.29445107.31066235-.29445107zm9.50561551 7.3718493c.4405192 0 .799707.33929597.799707.75797594l-.0000373 1.60358053c.1953756.05290991.3762028.1506765.5181848.29215139.2111541.2139187.3215852.5037793.3021688.7959307l-.473263 9.944496c-.0606723.9408595-.3361366 1.8391708-.8167002 2.6753529-.2002219.3439012-.5800688.5566892-.9902363.5566892h-1.1807654c-.4101675 0-.7887935-.2127703-.9890247-.5555408-.4829867-.8361821-.7572363-1.7344935-.8179118-2.6707595l-.473263-9.9527406c-.0194288-.2863831.0898031-.577398.3021688-.7924856.1407922-.14377461.3228062-.24038989.5181848-.29329981v-1.60337441c0-.41753161.3579762-.75797594.799707-.75797594zm-.8777868 8.72809226c-.2209139 0-.4.1790861-.4.4v3l.0081266.080614c.0372985.1822732.1985737.319386.3918734.319386.2209139 0 .4-.1790861.4-.4v-3l-.0081266-.080614c-.0372985-.1822732-.1985737-.319386-.3918734-.319386zm0-2c-.2209139 0-.4.1790861-.4.4v.5l.0081266.080614c.0372985.1822732.1985737.319386.3918734.319386.2209139 0 .4-.1790861.4-.4v-.5l-.0081266-.080614c-.0372985-.1822732-.1985737-.319386-.3918734-.319386zm.8765938-6.13795931h-2.5010804c-.0982967 0-.1783885.07591243-.1783885.16907969v1.55738115h2.8590566l-.0011991-1.55738115c0-.09316726-.0800919-.16907969-.1783886-.16907969z" fill="#002f5f"/></g></svg>