<svg height="388" viewBox="0 0 312 388" width="312" xmlns="http://www.w3.org/2000/svg" xmlns:xlink="http://www.w3.org/1999/xlink"><mask id="a" fill="#fff"><path d="m.50646402.57236296h107.92491098v23.47518674h-107.92491098z" fill="#fff" fill-rule="evenodd"/></mask><g fill="none" fill-rule="evenodd" transform="translate(.322581)"><path d="m305.609099 129.657789c-1.755282 0-3.324661.740427-4.379559 1.903955-1.526145-3.921821-5.520926-6.724865-10.21609-6.724865-1.128396 0-2.213558.162731-3.23387.463783-1.530468-4.430355-5.944614-7.632091-11.162905-7.632091-4.578433 0-8.54295 2.469446-10.47549 6.065804-1.634229-.772973-3.484625-1.208279-5.443105-1.208279-3.0912 0-5.914351 1.090299-8.058735 2.880342-1.850397-2.925093-5.244231-4.886003-9.122281-4.886003-5.86247 0-10.613838 4.471038-10.613838 9.983556 0 1.550014.376132 3.018663 1.046252 4.32458h14.643206 4.491966 13.765565 5.961907 7.319442 6.255895 13.471577 2.031977 9.463826c-.138348-2.876273-2.654541-5.170782-5.74574-5.170782" fill="#ededed"/><g transform="translate(41.677419 46.577143)"><g transform="translate(.525672 112.302817)"><path d="m.89043511 228.199325h81.92003019v-228.199325h-81.92003019z" fill="#ededed"/><path d="m.89043511 228.199325h25.82261889v-228.199325h-25.82261889z" fill="#fafafa"/><g fill="#fff" transform="translate(0 9.882648)"><path d="m.58739035 4.41566969h82.31354105v-1.89808442h-82.31354105z"/><path d="m.58739035 19.4501798h82.31354105v-1.904091h-82.31354105z"/><path d="m.58739035 34.4726785h82.31354105v-1.904091h-82.31354105z"/><path d="m.58739035 49.5011829h82.31354105v-1.8980845h-82.31354105z"/><path d="m.58739035 64.5356915h82.31354105v-1.904091h-82.31354105z"/><path d="m.58739035 79.564195h82.31354105v-1.904091h-82.31354105z"/><path d="m.58739035 94.5927032h82.31354105v-1.904091h-82.31354105z"/><path d="m.58739035 109.621207h82.31354105v-1.904091h-82.31354105z"/><path d="m.58739035 124.64971h82.31354105v-1.904091h-82.31354105z"/><path d="m.58739035 139.678212h82.31354105v-1.898084h-82.31354105z"/><path d="m.58739035 154.712721h82.31354105v-1.904091h-82.31354105z"/><path d="m.58739035 169.741224h82.31354105v-1.904091h-82.31354105z"/><path d="m.58739035 184.769728h82.31354105v-1.904091h-82.31354105z"/><path d="m.58739035 199.798231h82.31354105v-1.904091h-82.31354105z"/></g></g><path d="m60.2396307 340.50213h150.4835283v-316.2447218h-150.4835283z" fill="#ededed"/><path d="m60.2396307 340.50213h47.1930623v-316.2447218h-47.1930623z" fill="#fafafa"/><g transform="translate(70.034415)"><g fill="#fff"><g transform="translate(0 38.801682)"><path d="m123.996188 9.35893514h6.910009v-9.06270998h-6.910009z"/><path d="m111.398388 9.35893514h6.910008v-9.06270998h-6.910008z"/><path d="m98.79463 9.35893514h6.910008v-9.06270998h-6.910008z"/><path d="m86.1968295 9.35893514h6.9100084v-9.06270998h-6.9100084z"/><path d="m73.599029 9.35893514h6.9100085v-9.06270998h-6.9100085z"/><path d="m61.0012286 9.35893514h6.9100084v-9.06270998h-6.9100084z"/><path d="m48.3974708 9.35893514h6.9159704v-9.06270998h-6.9159704z"/><path d="m25.3005135 9.35893514h6.9100084v-9.06270998h-6.9100084z"/><path d="m12.7027154 9.35893514h6.9100084v-9.06270998h-6.9100084z"/><path d="m.10491648 9.35893514h6.91000843v-9.06270998h-6.91000843z"/></g><g transform="translate(0 57.482093)"><path d="m123.996188 9.7427141h6.910009v-9.06270998h-6.910009z"/><path d="m111.398388 9.7427141h6.910008v-9.06270998h-6.910008z"/><path d="m98.79463 9.7427141h6.910008v-9.06270998h-6.910008z"/><path d="m86.1968295 9.7427141h6.9100084v-9.06270998h-6.9100084z"/><path d="m73.599029 9.7427141h6.9100085v-9.06270998h-6.9100085z"/><path d="m61.0012286 9.7427141h6.9100084v-9.06270998h-6.9100084z"/><path d="m48.3974708 9.7427141h6.9159704v-9.06270998h-6.9159704z"/><path d="m25.3005135 9.7427141h6.9100084v-9.06270998h-6.9100084z"/><path d="m12.7027154 9.7427141h6.9100084v-9.06270998h-6.9100084z"/><path d="m.10491648 9.7427141h6.91000843v-9.06270998h-6.91000843z"/></g><g transform="translate(0 76.43372)"><path d="m123.996188 9.86128898h6.910009v-9.06270998h-6.910009z"/><path d="m111.398388 9.86128898h6.910008v-9.06270998h-6.910008z"/><path d="m98.79463 9.86128898h6.910008v-9.06270998h-6.910008z"/><path d="m86.1968295 9.86128898h6.9100084v-9.06270998h-6.9100084z"/><path d="m73.599029 9.86128898h6.9100085v-9.06270998h-6.9100085z"/><path d="m61.0012286 9.86128898h6.9100084v-9.06270998h-6.9100084z"/><path d="m48.3974708 9.86128898h6.9159704v-9.06270998h-6.9159704z"/><path d="m25.3005135 9.86128898h6.9100084v-9.06270998h-6.9100084z"/><path d="m12.7027154 9.86128898h6.9100084v-9.06270998h-6.9100084z"/><path d="m.10491648 9.86128898h6.91000843v-9.06270998h-6.91000843z"/></g><g transform="translate(0 96.28377)"><path d="m123.996188 9.08144132h6.910009v-9.05669232h-6.910009z"/><path d="m111.398388 9.08144132h6.910008v-9.05669232h-6.910008z"/><path d="m98.79463 9.08144132h6.910008v-9.05669232h-6.910008z"/><path d="m86.1968295 9.08144132h6.9100084v-9.05669232h-6.9100084z"/><path d="m73.599029 9.08144132h6.9100085v-9.05669232h-6.9100085z"/><path d="m61.0012286 9.08144132h6.9100084v-9.05669232h-6.9100084z"/><path d="m48.3974708 9.08144132h6.9159704v-9.05669232h-6.9159704z"/><path d="m25.3005135 9.08144132h6.9100084v-9.05669232h-6.9100084z"/><path d="m12.7027154 9.08144132h6.9100084v-9.05669232h-6.9100084z"/><path d="m.10491648 9.08144132h6.91000843v-9.05669232h-6.91000843z"/></g><g transform="translate(0 115.235406)"><path d="m123.996188 9.20001607h6.910009v-9.06270998h-6.910009z"/><path d="m111.398388 9.20001607h6.910008v-9.06270998h-6.910008z"/><path d="m98.79463 9.20001607h6.910008v-9.06270998h-6.910008z"/><path d="m86.1968295 9.20001607h6.9100084v-9.06270998h-6.9100084z"/><path d="m73.599029 9.20001607h6.9100085v-9.06270998h-6.9100085z"/><path d="m61.0012286 9.20001607h6.9100084v-9.06270998h-6.9100084z"/><path d="m48.3974708 9.20001607h6.9159704v-9.06270998h-6.9159704z"/><path d="m25.3005135 9.20001607h6.9100084v-9.06270998h-6.9100084z"/><path d="m12.7027154 9.20001607h6.9100084v-9.06270998h-6.9100084z"/><path d="m.10491648 9.20001607h6.91000843v-9.06270998h-6.91000843z"/></g><g transform="translate(0 134.187033)"><path d="m123.996188 9.31859089h6.910009v-9.06270998h-6.910009z"/><path d="m111.398388 9.31859089h6.910008v-9.06270998h-6.910008z"/><path d="m98.79463 9.31859089h6.910008v-9.06270998h-6.910008z"/><path d="m86.1968295 9.31859089h6.9100084v-9.06270998h-6.9100084z"/><path d="m73.599029 9.31859089h6.9100085v-9.06270998h-6.9100085z"/><path d="m61.0012286 9.31859089h6.9100084v-9.06270998h-6.9100084z"/><path d="m48.3974708 9.31859089h6.9159704v-9.06270998h-6.9159704z"/><path d="m25.3005135 9.31859089h6.9100084v-9.06270998h-6.9100084z"/><path d="m12.7027154 9.31859089h6.9100084v-9.06270998h-6.9100084z"/><path d="m.10491648 9.31859089h6.91000843v-9.06270998h-6.91000843z"/></g><g transform="translate(0 153.13866)"><path d="m123.996188 9.43114796h6.910009v-9.06270998h-6.910009z"/><path d="m111.398388 9.43114796h6.910008v-9.06270998h-6.910008z"/><path d="m98.79463 9.43114796h6.910008v-9.06270998h-6.910008z"/><path d="m86.1968295 9.43114796h6.9100084v-9.06270998h-6.9100084z"/><path d="m73.599029 9.43114796h6.9100085v-9.06270998h-6.9100085z"/><path d="m61.0012286 9.43114796h6.9100084v-9.06270998h-6.9100084z"/><path d="m48.3974708 9.43114796h6.9159704v-9.06270998h-6.9159704z"/><path d="m25.3005135 9.43114796h6.9100084v-9.06270998h-6.9100084z"/><path d="m12.7027154 9.43114796h6.9100084v-9.06270998h-6.9100084z"/><path d="m.10491648 9.43114796h6.91000843v-9.06270998h-6.91000843z"/></g><g transform="translate(0 171.819067)"><path d="m123.996188 9.82094467h6.910009v-9.06270998h-6.910009z"/><path d="m111.398388 9.82094467h6.910008v-9.06270998h-6.910008z"/><path d="m98.79463 9.82094467h6.910008v-9.06270998h-6.910008z"/><path d="m86.1968295 9.82094467h6.9100084v-9.06270998h-6.9100084z"/><path d="m73.599029 9.82094467h6.9100085v-9.06270998h-6.9100085z"/><path d="m61.0012286 9.82094467h6.9100084v-9.06270998h-6.9100084z"/><path d="m48.3974708 9.82094467h6.9159704v-9.06270998h-6.9159704z"/><path d="m25.3005135 9.82094467h6.9100084v-9.06270998h-6.9100084z"/><path d="m12.7027154 9.82094467h6.9100084v-9.06270998h-6.9100084z"/><path d="m.10491648 9.82094467h6.91000843v-9.06270998h-6.91000843z"/></g><g transform="translate(0 191.585842)"><path d="m123.996188 9.11836991h6.910009v-9.06270998h-6.910009z"/><path d="m111.398388 9.11836991h6.910008v-9.06270998h-6.910008z"/><path d="m98.79463 9.11836991h6.910008v-9.06270998h-6.910008z"/><path d="m86.1968295 9.11836991h6.9100084v-9.06270998h-6.9100084z"/><path d="m73.599029 9.11836991h6.9100085v-9.06270998h-6.9100085z"/><path d="m61.0012286 9.11836991h6.9100084v-9.06270998h-6.9100084z"/><path d="m48.3974708 9.11836991h6.9159704v-9.06270998h-6.9159704z"/><path d="m25.3005135 9.11836991h6.9100084v-9.06270998h-6.9100084z"/><path d="m12.7027154 9.11836991h6.9100084v-9.06270998h-6.9100084z"/><path d="m.10491648 9.11836991h6.91000843v-9.06270998h-6.91000843z"/></g><g transform="translate(0 210.620753)"><path d="m123.996188 9.15365407h6.910009v-9.06270998h-6.910009z"/><path d="m111.398388 9.15365407h6.910008v-9.06270998h-6.910008z"/><path d="m98.79463 9.15365407h6.910008v-9.06270998h-6.910008z"/><path d="m86.1968295 9.15365407h6.9100084v-9.06270998h-6.9100084z"/><path d="m73.599029 9.15365407h6.9100085v-9.06270998h-6.9100085z"/><path d="m61.0012286 9.15365407h6.9100084v-9.06270998h-6.9100084z"/><path d="m48.3974708 9.15365407h6.9159704v-9.06270998h-6.9159704z"/><path d="m25.3005135 9.15365407h6.9100084v-9.06270998h-6.9100084z"/><path d="m12.7027154 9.15365407h6.9100084v-9.06270998h-6.9100084z"/><path d="m.10491648 9.15365407h6.91000843v-9.06270998h-6.91000843z"/></g><g transform="translate(0 229.572381)"><path d="m123.996188 9.2722289h6.910009v-9.06270998h-6.910009z"/><path d="m111.398388 9.2722289h6.910008v-9.06270998h-6.910008z"/><path d="m98.79463 9.2722289h6.910008v-9.06270998h-6.910008z"/><path d="m86.1968295 9.2722289h6.9100084v-9.06270998h-6.9100084z"/><path d="m73.599029 9.2722289h6.9100085v-9.06270998h-6.9100085z"/><path d="m61.0012286 9.2722289h6.9100084v-9.06270998h-6.9100084z"/><path d="m48.3974708 9.2722289h6.9159704v-9.06270998h-6.9159704z"/><path d="m25.3005135 9.2722289h6.9100084v-9.06270998h-6.9100084z"/><path d="m12.7027154 9.2722289h6.9100084v-9.06270998h-6.9100084z"/><path d="m.10491648 9.2722289h6.91000843v-9.06270998h-6.91000843z"/></g><g transform="translate(0 248.524008)"><path d="m123.996188 9.39080373h6.910009v-9.06270999h-6.910009z"/><path d="m111.398388 9.39080373h6.910008v-9.06270999h-6.910008z"/><path d="m98.79463 9.39080373h6.910008v-9.06270999h-6.910008z"/><path d="m86.1968295 9.39080373h6.9100084v-9.06270999h-6.9100084z"/><path d="m73.599029 9.39080373h6.9100085v-9.06270999h-6.9100085z"/><path d="m61.0012286 9.39080373h6.9100084v-9.06270999h-6.9100084z"/><path d="m48.3974708 9.39080373h6.9159704v-9.06270999h-6.9159704z"/><path d="m25.3005135 9.39080373h6.9100084v-9.06270999h-6.9100084z"/><path d="m12.7027154 9.39080373h6.9100084v-9.06270999h-6.9100084z"/><path d="m.10491648 9.39080373h6.91000843v-9.06270999h-6.91000843z"/></g><g transform="translate(0 267.475635)"><path d="m123.996188 9.50937853h6.910009v-9.06270998h-6.910009z"/><path d="m111.398388 9.50937853h6.910008v-9.06270998h-6.910008z"/><path d="m98.79463 9.50937853h6.910008v-9.06270998h-6.910008z"/><path d="m86.1968295 9.50937853h6.9100084v-9.06270998h-6.9100084z"/><path d="m73.599029 9.50937853h6.9100085v-9.06270998h-6.9100085z"/><path d="m61.0012286 9.50937853h6.9100084v-9.06270998h-6.9100084z"/><path d="m48.3974708 9.50937853h6.9159704v-9.06270998h-6.9159704z"/><path d="m25.3005135 9.50937853h6.9100084v-9.06270998h-6.9100084z"/><path d="m12.7027154 9.50937853h6.9100084v-9.06270998h-6.9100084z"/><path d="m.10491648 9.50937853h6.91000843v-9.06270998h-6.91000843z"/></g><g transform="translate(0 286.97118)"><path d="m123.996188 9.07802572h6.910009v-9.05669232h-6.910009z"/><path d="m111.398388 9.07802572h6.910008v-9.05669232h-6.910008z"/><path d="m98.79463 9.07802572h6.910008v-9.05669232h-6.910008z"/><path d="m86.1968295 9.07802572h6.9100084v-9.05669232h-6.9100084z"/><path d="m73.599029 9.07802572h6.9100085v-9.05669232h-6.9100085z"/><path d="m61.0012286 9.07802572h6.9100084v-9.05669232h-6.9100084z"/><path d="m48.3974708 9.07802572h6.9159704v-9.05669232h-6.9159704z"/><path d="m25.3005135 9.07802572h6.9100084v-9.05669232h-6.9100084z"/><path d="m12.7027154 9.07802572h6.9100084v-9.05669232h-6.9100084z"/><path d="m.10491648 9.07802572h6.91000843v-9.05669232h-6.91000843z"/></g><g transform="translate(0 306.00611)"><path d="m123.996188 9.11330982h6.910009v-9.06270999h-6.910009z"/><path d="m111.398388 9.11330982h6.910008v-9.06270999h-6.910008z"/><path d="m98.79463 9.11330982h6.910008v-9.06270999h-6.910008z"/><path d="m86.1968295 9.11330982h6.9100084v-9.06270999h-6.9100084z"/><path d="m73.599029 9.11330982h6.9100085v-9.06270999h-6.9100085z"/><path d="m61.0012286 9.11330982h6.9100084v-9.06270999h-6.9100084z"/><path d="m48.3974708 9.11330982h6.9159704v-9.06270999h-6.9159704z"/><path d="m25.3005135 9.11330982h6.9100084v-9.06270999h-6.9100084z"/><path d="m12.7027154 9.11330982h6.9100084v-9.06270999h-6.9100084z"/><path d="m.10491648 9.11330982h6.91000843v-9.06270999h-6.91000843z"/></g></g><path d="m108.431375 24.0475497h-107.92491098v-13.4135327c0-5.56038778 4.46557056-10.06165404 9.96853668-10.06165404h87.9878376c5.5089287 0 9.9685367 4.50126626 9.9685367 10.06165404z" fill="#ededed" mask="url(#a)" transform="translate(11.033653)"/><path d="m61.1777074.57296474h-40.3988079c-5.1035094 0-9.2352056 4.26055684-9.2352056 9.50802236v13.9671644h49.6340135z" fill="#fafafa"/></g></g><path d="m85.5255358 20.5476525c2.9068753 0 5.5009855 1.26771 7.2487902 3.2655851 2.5251179-6.7237904 9.143778-11.5258578 16.92151-11.5258578 1.867391 0 3.66579.2777315 5.353801.7928786 2.534317-7.59282121 9.8521-13.0802584 18.485335-13.0802584 7.584553 0 14.14802 4.22868629 17.349262 10.3970136 2.713697-1.32594397 5.772355-2.07402724 9.010393-2.07402724 5.128428 0 9.801505 1.86796844 13.356908 4.94093324 3.063258-5.01708543 8.679231-8.37674085 15.109312-8.37674085 9.704916 0 17.574637 7.66449385 17.574637 17.12080405 0 2.651888-.620931 5.1649102-1.724807 7.4091601h-24.253091-7.446568-22.799653-9.875097-12.124245-10.348844-22.3167068-3.3668239-15.6796483c.2299743-4.9364537 4.4017083-8.8694904 9.5255358-8.8694904" fill="#fafafa"/><path d="m64.9578038 90.9103222c-3.5581494 0-6.7147781 1.5251728-8.73439 3.8833662-1.4875031-2.3189128-4.2606231-3.8833662-7.44427-3.8833662-1.7036488 0-3.2879672.453082-4.6246185 1.2244726-1.6938923-6.443381-8.1062164-11.2376519-15.7643806-11.2376519-8.1384882 0-14.8742804 5.4146343-16.0278083 12.4702516-3.12585785.1909853-5.73761907 2.0459801-6.76431142 4.5938042-3.03429615.0826249-5.47569249 2.2687963-5.59802498 4.9988013h5.68508369 5.85995161 2.8954525 5.658816 21.5110058.7302424 11.8212216 1.786955 19.8051054c.1591073-.672512.246166-1.369405.246166-2.085261 0-5.5033541-4.9435837-9.9644168-11.0421962-9.9644168" fill="#ededed"/></g></svg>