<svg width="48" height="48" viewBox="0 0 48 48" fill="none" xmlns="http://www.w3.org/2000/svg">
<mask id="mask0" mask-type="alpha" maskUnits="userSpaceOnUse" x="0" y="0" width="48" height="48">
<circle cx="24" cy="24" r="24" fill="#F1F2FF"/>
</mask>
<g mask="url(#mask0)">
<rect width="62.8052" height="70.9091" transform="translate(-3.27271)" fill="#D7D9F7"/>
<mask id="mask1" mask-type="alpha" maskUnits="userSpaceOnUse" x="-4" y="0" width="64" height="71">
<rect x="-3.27271" width="62.8052" height="70.9091" fill="white"/>
</mask>
<g mask="url(#mask1)">
<path fill-rule="evenodd" clip-rule="evenodd" d="M28.4155 33.9337C28.3357 34.8773 28.1802 35.8104 28.0046 36.7401C27.2451 36.3059 26.4233 35.9678 25.652 35.5501C24.8847 35.1344 24.1315 34.6884 23.4008 34.2109C21.91 33.238 20.5034 32.131 19.2052 30.9133C18.7825 30.5167 17.9854 29.7003 17.2583 28.935C17.1019 28.77 16.9485 28.6077 16.8033 28.4523C16.4829 28.1101 16.1853 27.7854 15.9874 27.5619C16.7091 27.1696 17.9028 26.5464 18.8657 26.029C19.9679 25.4372 23.3236 24.7448 27.2754 25.4728C27.2893 25.5085 27.302 25.5441 27.3154 25.5798C27.6385 26.4659 27.8943 27.3776 28.0844 28.3016C28.4638 30.1484 28.5736 32.055 28.4155 33.9337" fill="#D4B6A1"/>
<path fill-rule="evenodd" clip-rule="evenodd" d="M32.2308 14.0302C32.1171 12.4195 23.7476 12.8756 24.389 16.134C25.0306 19.3924 25.5976 23.7401 26.3813 24.2202C26.4473 24.2606 26.5321 24.3063 26.6321 24.3562C26.7564 24.6318 26.9496 24.8714 27.2261 25.0133C27.4673 25.137 27.7262 25.1934 27.9962 25.1936C28.179 25.1937 28.3666 25.1491 28.5423 25.213C28.728 25.2806 28.8947 25.4192 29.077 25.5002C29.3255 25.6106 29.5645 25.6571 29.8356 25.6813C29.8525 25.6826 29.8687 25.6839 29.885 25.6852C30.3889 25.8784 30.6827 26.0821 31.126 26.1768C31.5489 26.2674 32.0252 26.1317 32.0621 25.762C32.237 24.0096 32.6057 19.3432 32.2308 14.0302" fill="#E3A780"/>
<path fill-rule="evenodd" clip-rule="evenodd" d="M34.8666 41.9485C31.1798 43.6463 27.2856 44.8603 23.1831 45.3073C20.862 45.5687 18.5888 45.466 16.32 45.301L16.2027 29.8622L16.0698 29.0803L15.3366 27.9404C15.3366 27.9404 17.3642 26.8353 18.8656 26.029C19.9679 25.4372 23.3236 24.7448 27.2753 25.4728C27.377 25.4914 27.4792 25.5112 27.5815 25.5319C28.9195 25.8012 30.3197 26.2354 31.72 26.8923L34.626 37.9627C34.626 37.9627 34.7319 39.6114 34.8666 41.9485" fill="#F1F2FF"/>
<path fill-rule="evenodd" clip-rule="evenodd" d="M31.7203 32.9065L33.4019 42.5398C33.4019 42.5398 35.6373 42.2063 37.285 42.1678C38.5654 42.1378 39.368 41.6199 39.368 41.6199C39.368 41.6199 35.8777 31.8189 34.8665 30.399C33.8553 28.9792 32.6443 27.191 31.387 26.7437C30.1298 26.2967 31.7203 32.9065 31.7203 32.9065" fill="#F1F2FF"/>
<path fill-rule="evenodd" clip-rule="evenodd" d="M35.2782 51.2357C35.1731 51.3669 35.0638 51.4924 34.9502 51.6122C33.3742 53.2823 31.0313 53.8988 28.0913 54.5193C24.4328 55.332 19.5607 54.5821 16.0698 54.0195L16.3199 45.3011C18.5888 45.466 20.862 45.5687 23.1831 45.3074C27.2855 44.8604 31.1798 43.6463 34.8666 41.9485C34.9183 42.8475 34.9788 43.9668 35.0406 45.1627C35.0602 45.5464 35.08 45.9376 35.0997 46.3325C35.1189 46.7178 35.138 47.1058 35.1562 47.4922C35.1902 48.1826 35.2221 48.8685 35.2519 49.526C35.2594 49.7009 35.2673 49.874 35.2747 50.0443C35.2906 50.4124 35.3057 50.7684 35.3198 51.1083C35.3217 51.1545 35.3071 51.1998 35.2782 51.2357Z" fill="#F1F2FF"/>
<path fill-rule="evenodd" clip-rule="evenodd" d="M38.069 40.4019C38.069 40.4019 38.8643 41.9982 40.4982 47.6591C41.1681 49.9796 39.9306 52.5441 39.1856 52.6571C38.4153 52.774 35.3701 51.6608 35.2519 50.5759C35.0997 49.1786 34.9631 43.7818 34.9631 43.7818C34.9631 43.7818 36.4001 41.385 37.0033 41.8463L38.069 40.4019Z" fill="#F5C0A2"/>
<path fill-rule="evenodd" clip-rule="evenodd" d="M28.4155 33.9337C28.3357 34.8773 28.1803 35.8104 28.0046 36.7401C27.2451 36.3059 26.4233 35.9678 25.652 35.5501C24.8847 35.1344 24.1315 34.6884 23.4008 34.2109C21.91 33.238 20.5034 32.131 19.2052 30.9133C18.7825 30.5167 17.9854 29.7003 17.2583 28.935C17.1019 28.77 16.9485 28.6077 16.8033 28.4523C16.4829 28.1101 16.1997 27.8019 16.0018 27.5784C16.7234 27.186 17.9028 26.5464 18.8657 26.029C19.9679 25.4372 23.3237 24.7448 27.2754 25.4728C27.2893 25.5085 27.3021 25.5441 27.3154 25.5798C27.6385 26.4659 27.8943 27.3776 28.0844 28.3016C28.4638 30.1484 28.5736 32.055 28.4155 33.9337" fill="#F1F2FF"/>
<path fill-rule="evenodd" clip-rule="evenodd" d="M31.2626 14.1268C31.4202 16.9578 31.0981 17.3436 31.1577 18.6373C31.2443 20.5162 30.0413 23.006 28.9108 25.03C28.082 26.5142 24.252 24.7405 21.5636 22.9631C20.7288 22.4111 20.1591 20.9263 19.9604 20.5302C19.1461 18.9063 17.5894 14.9989 18.6816 11.0467C19.7739 7.09459 23.0605 6.05152 25.2017 6.41866C27.3429 6.78579 31.0059 9.51263 31.2626 14.1268" fill="#F5C0A2"/>
<path fill-rule="evenodd" clip-rule="evenodd" d="M26.3887 23.763C26.3887 23.763 25.9476 25.3602 25.8679 26.2308C25.7882 27.1012 23.4347 29.0974 21.2929 27.3997C19.1512 25.7022 18.8343 19.8652 18.8343 19.8652L26.3887 23.763Z" fill="#F5C0A2"/>
<path fill-rule="evenodd" clip-rule="evenodd" d="M26.5568 25.3548C27.4309 26.9626 29.5481 34.8467 27.1169 36.4675C24.6857 38.0883 18.3331 30.0335 16.9048 27.0709C16.9048 27.0709 19.2227 25.9107 21.0678 25.4849C22.9128 25.0592 23.5481 25.213 24.1766 25.1802C24.8728 25.144 26.5231 25.2927 26.5568 25.3548Z" fill="#F5C0A2"/>
<path fill-rule="evenodd" clip-rule="evenodd" d="M36.9227 34.2256C36.9227 34.2256 37.3438 33.3932 37.7661 33.2847C38.1882 33.1761 41.1267 33.2351 41.4576 33.4431C41.9989 33.7837 41.7826 34.1163 41.6493 34.381C41.516 34.6458 38.0243 40.6692 38.0243 40.6692C38.0243 40.6692 37.7861 41.2499 37.442 41.2608C36.855 41.2797 33.709 41.2812 33.709 41.2812C33.709 41.2812 33.2035 41.0193 33.6719 40.1491C34.1404 39.2791 36.7473 34.5179 36.9227 34.2256" fill="#464646"/>
<path fill-rule="evenodd" clip-rule="evenodd" d="M37.6244 34.2117C36.4185 36.3564 35.1819 38.4779 34.1456 40.7048C34.1096 40.897 34.0751 41.0905 34.0471 41.2852C34.9425 41.2956 36.9666 41.2762 37.442 41.2608C37.7861 41.2497 38.0244 40.6692 38.0244 40.6692C38.0244 40.6692 41.5159 34.6458 41.6493 34.381C41.7222 34.2361 41.8171 34.075 41.801 33.9007C40.6093 33.7559 39.7291 33.8404 38.5407 33.7592C38.1444 33.732 37.8191 33.8654 37.6244 34.2117" fill="#2C2C2C"/>
<path fill-rule="evenodd" clip-rule="evenodd" d="M26.0072 25.3328L25.8508 25.9438C25.8508 25.9438 24.5986 26.6941 23.6966 25.9116C22.7946 25.1291 22.391 23.4835 22.391 23.4835C22.391 23.4835 23.5133 24.6697 26.0072 25.3328" fill="#DB9F7C"/>
<path fill-rule="evenodd" clip-rule="evenodd" d="M21.6319 53.8692C21.6319 53.8692 21.1956 47.003 20.8373 44.787C20.3534 41.7938 19.5223 40.1417 19.1606 39.5689C18.2163 38.0736 17.409 38.1442 17.409 38.1442C17.409 38.1442 19.0857 43.3623 19.5515 48.6864C20.0173 54.0104 16.5762 56.5205 16.5762 56.5205L21.6319 53.8692Z" fill="#D9DAF0"/>
<path fill-rule="evenodd" clip-rule="evenodd" d="M12.645 47.3831C12.645 47.3831 15.7319 56.3246 17.2221 57.6552C18.7124 58.9857 19.3511 58.2939 21.1606 57.0697C22.9703 55.8455 33.1358 44.8817 34.0938 44.3494C34.6045 44.0657 35.9375 43.2865 37.163 42.2086C38.2364 41.2647 39.156 39.7931 39.472 39.094C39.85 38.2572 37.7445 37.5167 37.7445 37.5167C37.7445 37.5167 36.2433 38.7058 35.3712 38.9207C35.1619 38.9722 34.49 38.6782 34.49 38.6782L35.1983 37.3519C35.1983 37.3519 34.0229 37.6699 33.6326 37.9804C33.0181 38.4692 32.2311 39.6273 32.0624 40.34C31.9029 41.0146 31.6637 41.7219 31.6637 41.7219L20.4688 49.2991L17.7543 41.1028C17.7543 41.1028 12.3256 43.072 12.645 47.3831" fill="#F5C0A2"/>
<path fill-rule="evenodd" clip-rule="evenodd" d="M33.568 36.8478C33.4502 36.4105 33.2889 35.9851 33.1208 35.5652C32.7794 34.7125 32.4231 33.8509 32.4318 32.9165C32.4329 32.8133 32.2745 32.8135 32.2718 32.9165C32.2482 33.8044 32.5417 34.6432 32.8482 35.4638C33.0067 35.8887 33.1753 36.3107 33.3026 36.7465C33.4277 37.1746 33.4435 37.6261 33.564 38.0508C33.581 38.1107 33.6717 38.1128 33.6875 38.0508C33.7853 37.6686 33.668 37.2191 33.568 36.8478" fill="#B7B9D5"/>
<path fill-rule="evenodd" clip-rule="evenodd" d="M29.0373 6.36428C28.0896 5.64365 26.9379 4.9081 25.0259 4.57889C24.5465 4.49629 23.5195 4.79661 23.5195 4.79661C23.5195 4.79661 22.0834 4.62862 21.4989 4.72798C20.6005 4.88061 19.7547 5.04828 18.8792 5.59231C15.2362 7.85632 15.6671 10.9843 14.4761 14.5739C13.0448 18.8873 12.33 21.5186 12.33 21.5186C12.4234 21.7458 12.5294 21.9682 12.6463 22.186C12.6939 22.6453 12.7981 23.0879 13.0894 23.4808C13.3152 23.7851 13.5851 24.024 13.9124 24.2164C14.1616 24.3629 14.4506 24.4666 14.6001 24.7283C14.7844 25.051 14.9023 25.3847 15.1542 25.6677C15.4186 25.9645 15.7697 26.1376 16.1357 26.2745C16.423 26.382 16.711 26.4623 16.9879 26.5641C17.3415 26.7998 17.6929 27.019 18.0346 27.2212C18.304 27.4754 18.5634 27.7248 18.9255 27.8585C19.053 27.9057 20.1398 28.331 20.5018 28.3768C21.1456 28.458 21.545 28.3356 21.4983 27.7895C21.2707 25.1317 20.0404 20.8953 20.0404 20.8953C20.0404 20.8953 19.2993 17.0854 22.3992 16.1268C27.9102 14.4224 28.739 11.3098 28.739 11.3098C28.739 11.3098 29.8545 12.9708 30.7055 13.6528C31.6526 14.4118 32.2542 14.3766 32.2542 14.3766C32.2542 14.3766 33.1061 9.45825 29.0373 6.36428" fill="#E3A780"/>
<path fill-rule="evenodd" clip-rule="evenodd" d="M21.2511 17.3975C21.2511 17.3975 20.1394 16.3457 19.3265 16.792C18.5135 17.2383 18.3419 19.2361 19.7272 20.2947C20.7063 21.043 21.7712 20.9631 21.7712 20.9631L21.2511 17.3975Z" fill="#F5C0A2"/>
<path fill-rule="evenodd" clip-rule="evenodd" d="M29.1133 19.7591C29.0184 19.5339 28.9286 19.3063 28.8409 19.0781C28.6725 18.6401 28.5436 18.187 28.3672 17.7521C28.3258 17.65 28.1893 17.7206 28.1994 17.8135C28.2504 18.2831 28.3902 18.742 28.5337 19.1905C28.598 19.3913 28.6686 19.5895 28.7442 19.7864C28.8007 19.9334 28.8476 20.099 28.9306 20.2367C28.8163 20.2852 28.7077 20.3486 28.5899 20.3982C28.3749 20.4889 28.1547 20.5419 27.9203 20.523C27.7437 20.5087 27.6969 20.7736 27.8639 20.8275C28.3549 20.986 29.2194 20.9473 29.325 20.3065C29.333 20.2585 29.1754 19.9066 29.1133 19.7591" fill="#DB9F7C"/>
<path fill-rule="evenodd" clip-rule="evenodd" d="M28.8978 22.2835C28.3352 22.3605 27.8007 22.5302 27.2261 22.4725C26.6628 22.4157 26.1346 22.1923 25.6561 21.8977C25.587 21.8552 25.4909 21.9467 25.5424 22.0153C25.9251 22.5257 26.495 22.8568 27.1238 22.9629C27.7596 23.0702 28.528 22.9908 28.9925 22.5016C29.0621 22.4282 29.0138 22.2676 28.8978 22.2835" fill="#DB9F7C"/>
<path fill-rule="evenodd" clip-rule="evenodd" d="M19.3052 18.4379C19.2973 17.9648 19.6582 17.567 20.0495 17.3522C20.2058 17.2663 20.3464 17.5129 20.2073 17.6175C19.976 17.7915 19.7432 18.0929 19.761 18.4006C19.7789 18.709 20.1172 18.9344 20.3172 19.1311C20.4271 19.2392 20.3674 19.4156 20.2043 19.4095C19.7625 19.3933 19.3122 18.8681 19.3052 18.4379" fill="#DB9F7C"/>
<path fill-rule="evenodd" clip-rule="evenodd" d="M17.3706 29.4321L17.2582 28.935C17.1019 28.77 16.9485 28.6077 16.8033 28.4523C16.4828 28.1101 16.0018 27.5784 16.0018 27.5784L15.9874 27.5618C15.9874 27.5618 15.9076 27.6076 15.866 27.6315C14.7079 28.2952 12.8232 29.44 11.9472 30.3283C10.7864 31.5051 10.7486 35.5974 10.7369 35.6559C10.5181 36.7172 10.5096 37.7992 10.5793 38.8754C10.6497 39.9517 10.7625 41.0288 10.7342 42.1082C10.7054 43.2237 10.391 44.3073 10.3723 45.4224C10.3612 46.0893 10.45 46.7588 10.6033 47.4076C10.6726 47.7003 10.7635 47.9994 10.8737 48.2794C10.8803 48.2962 10.889 48.3269 10.899 48.3674C14.1102 48.0959 17.1205 46.8614 19.9653 45.2999L19.2052 37.5725L17.3706 29.4321Z" fill="#F1F2FF"/>
<path fill-rule="evenodd" clip-rule="evenodd" d="M20.7457 20.1353C20.7487 20.316 20.6048 20.4647 20.4242 20.4679C20.2435 20.4709 20.0947 20.3269 20.0917 20.1463C20.0887 19.9657 20.2326 19.8168 20.4131 19.8138C20.5938 19.8108 20.7427 19.9548 20.7457 20.1353" fill="white"/>
<path fill-rule="evenodd" clip-rule="evenodd" d="M21.6824 15.6645C21.6824 15.6645 27.65 13.0632 28.1549 11.3511C28.1549 11.3511 25.7832 13.2253 24.9235 13.7982C24.1651 14.3037 21.6824 15.6645 21.6824 15.6645" fill="#F5C0A2"/>
<path fill-rule="evenodd" clip-rule="evenodd" d="M38.1168 37.085C38.5018 36.4159 38.6891 35.9906 39.1156 35.3592C39.2379 35.1779 39.552 34.9979 39.7454 35.1C39.8532 35.1569 39.6993 35.595 39.2628 36.4294C39.0818 36.7752 38.8958 37.2405 38.6769 37.667C38.6166 37.7844 38.3544 38.1718 38.2689 38.282C38.0783 38.1202 37.9496 37.6507 37.7444 37.5167C37.903 37.3402 38.0793 37.1319 38.1168 37.085" fill="#F5C0A2"/>
<path fill-rule="evenodd" clip-rule="evenodd" d="M38.304 38.177C38.3689 38.0795 38.6178 37.8088 38.6178 37.8088C38.8831 37.2672 39.2793 36.7316 39.5758 36.1287C39.6999 35.8759 39.9123 35.8117 39.9661 35.8027C40.2939 35.7469 40.1909 36.117 40.105 36.3353C39.8712 36.928 39.6382 37.5733 39.3108 38.0928C39.3108 38.0928 39.3107 38.0928 39.3107 38.0927C39.2744 38.156 39.1816 38.2859 39.0924 38.4113C38.916 38.2687 38.4933 38.2994 38.304 38.177" fill="#F5C0A2"/>
<path fill-rule="evenodd" clip-rule="evenodd" d="M38.9019 38.5695C39.1141 38.1595 39.2718 37.7541 39.5593 37.3122C39.6596 37.1579 39.8839 36.9066 40.081 36.8398C40.3067 36.7633 40.296 37.0179 40.2358 37.2485C40.0997 37.7697 39.8582 38.3399 39.6178 38.8228C39.6179 38.8228 39.5718 38.914 39.5718 38.9139C39.5436 38.9657 39.5063 39.032 39.4719 39.094C39.2579 38.9569 39.0363 38.8326 38.8088 38.7194C38.8573 38.6433 38.8978 38.5774 38.9019 38.5695" fill="#F5C0A2"/>
<path fill-rule="evenodd" clip-rule="evenodd" d="M41.3729 34.3437C41.4086 34.2367 41.4209 34.1593 41.31 34.1387C41.1722 34.113 40.7017 34.0804 40.6211 34.1187C40.5184 34.1678 40.4852 34.2743 40.3727 34.5563C40.334 34.6535 40.3672 34.7558 40.4691 34.7786C40.5816 34.8038 40.9469 34.7999 41.0883 34.7959C41.1682 34.7936 41.2724 34.6443 41.3729 34.3437" fill="#130806"/>
<path fill-rule="evenodd" clip-rule="evenodd" d="M40.7762 34.4874C40.7356 34.5735 40.6633 34.6245 40.6146 34.6016C40.566 34.5787 40.5593 34.4903 40.5999 34.4044C40.6405 34.3184 40.7128 34.2671 40.7614 34.2901C40.8101 34.3131 40.8167 34.4014 40.7762 34.4874" fill="#A49F93"/>
<path fill-rule="evenodd" clip-rule="evenodd" d="M41.1646 34.5166C41.124 34.6026 41.0518 34.6537 41.0031 34.6307C40.9544 34.6079 40.9478 34.5195 40.9884 34.4335C41.029 34.3475 41.1013 34.2964 41.1499 34.3193C41.1986 34.3422 41.2051 34.4305 41.1646 34.5166" fill="#545050"/>
<path fill-rule="evenodd" clip-rule="evenodd" d="M36.7496 34.8381C36.7496 34.8381 35.9747 36.1066 35.9793 36.2485C35.9841 36.3903 36.1268 36.4147 36.1865 36.3394C36.3113 36.1817 37.0383 34.9801 36.9465 34.8854C36.8546 34.7908 36.787 34.7767 36.7496 34.8381" fill="#3A3A3A"/>
<path fill-rule="evenodd" clip-rule="evenodd" d="M39.8366 37.0123C39.7189 37.3209 39.6087 37.6326 39.4943 37.9426C39.4033 38.1897 39.2948 38.449 39.1973 38.7033C38.9713 39.015 38.8088 39.3731 38.5921 39.7358C38.5641 39.7825 38.6483 39.8341 38.6866 39.7908C38.8167 39.6437 38.8983 39.4542 38.9936 39.2833C39.0625 39.1597 39.2148 38.9078 39.222 38.8971C39.394 38.6402 39.4733 38.3084 39.5695 38.0171C39.6778 37.6886 39.779 37.3552 39.8607 37.019C39.8646 37.0031 39.8423 36.9975 39.8366 37.0123" fill="#DD8C5D"/>
<path fill-rule="evenodd" clip-rule="evenodd" d="M38.6723 37.6589C38.5623 37.8474 38.4561 38.0111 38.3574 38.1931C38.2462 38.3985 38.064 38.7603 37.97 38.9739C37.9391 39.0441 38.0281 39.0979 38.0735 39.0344C38.2085 38.8448 38.342 38.4682 38.4448 38.2598C38.537 38.0726 38.6089 37.8828 38.7057 37.6783C38.7133 37.662 38.6831 37.6403 38.6723 37.6589" fill="#DD8C5D"/>
<path fill-rule="evenodd" clip-rule="evenodd" d="M37.9919 41.4282C37.742 41.6227 37.5321 41.8752 37.3 42.0906C37.0661 42.3077 36.8255 42.518 36.5774 42.7189C36.0644 43.1342 35.5129 43.5047 34.951 43.8507C34.8757 43.897 34.942 44.0092 35.0201 43.9688C35.6107 43.6631 36.1603 43.299 36.6838 42.8895C37.1799 42.5012 37.7666 42.0553 38.1153 41.5235C38.1684 41.4424 38.0567 41.3779 37.9919 41.4282" fill="#DD8C5D"/>
<path fill-rule="evenodd" clip-rule="evenodd" d="M25.6343 10.1544C25.3735 10.3077 25.2238 10.6068 25.0272 10.8327C24.817 11.0743 24.5889 11.3002 24.3453 11.5081C23.8365 11.9424 23.2616 12.2604 22.6559 12.5377C21.5605 13.0391 20.3204 13.5501 19.8498 14.7567C19.8027 14.8775 20.0077 14.9602 20.0618 14.842C20.6368 13.5851 22.0877 13.282 23.2217 12.7382C23.7759 12.4725 24.2884 12.1317 24.7504 11.7263C24.9807 11.5241 25.1966 11.306 25.3959 11.0733C25.5822 10.8559 25.8244 10.6174 25.8652 10.3259C25.8834 10.1965 25.7601 10.0805 25.6343 10.1544" fill="#F0B088"/>
<path fill-rule="evenodd" clip-rule="evenodd" d="M24.8458 18.9983C24.8706 19.0305 24.9928 19.1554 25.1122 19.1554C25.3346 19.1553 25.4594 19.0291 25.487 18.97C25.6162 18.6937 25.696 17.7769 25.1802 17.839C24.7288 17.8934 24.613 18.6961 24.8458 18.9983" fill="#2C2C2C"/>
<path fill-rule="evenodd" clip-rule="evenodd" d="M30.1641 18.319C30.1889 18.3513 30.3113 18.4762 30.4307 18.4761C30.6531 18.476 30.7778 18.3498 30.8055 18.2908C30.9347 18.0144 31.0145 17.0976 30.4987 17.1597C30.0472 17.214 29.9315 18.0169 30.1641 18.319" fill="#2C2C2C"/>
<path fill-rule="evenodd" clip-rule="evenodd" d="M28.4695 9.58144C28.3476 9.30604 28.2018 9.03987 28.0577 8.77543C27.7656 8.23988 27.448 7.71689 27.0836 7.2272C26.4504 6.37651 25.6896 5.57726 24.6539 5.24794C24.5639 5.21926 24.4868 5.34579 24.5597 5.40981C25.3253 6.0807 26.0775 6.78274 26.6668 7.61818C26.9849 8.06898 27.2653 8.54535 27.5243 9.03203C27.6587 9.28445 27.7812 9.54299 27.9143 9.79583C28.0435 10.0413 28.1652 10.3366 28.3886 10.5108C28.5166 10.6105 28.7154 10.5551 28.7192 10.3738C28.7254 10.091 28.5813 9.83396 28.4695 9.58144" fill="#F0B088"/>
<path fill-rule="evenodd" clip-rule="evenodd" d="M15.7889 19.5315C15.5714 20.4119 15.1977 21.2399 14.9176 22.1003C14.6531 22.912 14.4435 23.7742 14.6518 24.6213C14.6716 24.7015 14.7966 24.6843 14.7957 24.6018C14.7855 23.718 14.9267 22.8615 15.1884 22.0187C15.4415 21.2034 15.745 20.4049 15.9108 19.5651C15.9263 19.4862 15.8086 19.4518 15.7889 19.5315" fill="#F0B088"/>
<path fill-rule="evenodd" clip-rule="evenodd" d="M15.5542 21.6635C15.4079 22.214 15.301 22.7731 15.2376 23.3393C15.1755 23.8943 15.1191 24.4862 15.2099 25.0402C15.2307 25.1676 15.4136 25.1253 15.4221 25.0115C15.4631 24.472 15.4304 23.9303 15.4811 23.3897C15.534 22.8271 15.6344 22.2715 15.7723 21.7237C15.8079 21.5826 15.5917 21.5226 15.5542 21.6635" fill="#F0B088"/>
<path fill-rule="evenodd" clip-rule="evenodd" d="M18.2458 26.7116C17.7625 25.7654 17.5554 24.7096 17.4021 23.6668C17.2357 22.5348 17.1779 21.3826 17.1759 20.2392C17.1757 20.0896 16.9584 20.0939 16.9464 20.2392C16.8493 21.4175 16.9013 22.5896 17.0638 23.76C17.2128 24.8346 17.4719 25.8975 18.0303 26.8375C18.1128 26.9764 18.3185 26.854 18.2458 26.7116" fill="#F0B088"/>
<path fill-rule="evenodd" clip-rule="evenodd" d="M19.5629 27.7445C19.2976 27.0977 18.9896 26.472 18.752 25.8135C18.5134 25.1524 18.3429 24.4749 18.2282 23.7817C18.2111 23.6783 18.0546 23.7224 18.071 23.825C18.2864 25.1746 18.6541 26.6557 19.4353 27.7983C19.4766 27.8588 19.5949 27.8225 19.5629 27.7445" fill="#F0B088"/>
<path fill-rule="evenodd" clip-rule="evenodd" d="M25.7205 15.8874C25.467 15.8982 25.2312 15.9299 25.0006 15.9804C24.7718 16.0333 24.5485 16.1013 24.3424 16.1986C24.1347 16.2914 23.9445 16.4139 23.7829 16.5669C23.6223 16.7215 23.498 16.9124 23.4086 17.1418C23.372 16.9002 23.4477 16.6368 23.6029 16.4256C23.7556 16.2106 23.9784 16.0512 24.2149 15.94C24.455 15.8334 24.7122 15.7699 24.9716 15.7591C25.2285 15.7469 25.4918 15.7807 25.7205 15.8874" fill="#2C2C2C"/>
<mask id="mask2" mask-type="alpha" maskUnits="userSpaceOnUse" x="29" y="15" width="3" height="3">
<rect x="29.4155" y="15.3974" width="1.90442" height="2.02597" fill="white"/>
</mask>
<g mask="url(#mask2)">
<path fill-rule="evenodd" clip-rule="evenodd" d="M32.2537 16.8028C32.0582 16.6413 31.8617 16.507 31.6566 16.3903C31.4511 16.2765 31.2397 16.1775 31.0214 16.112C30.8049 16.042 30.5816 16.0057 30.3591 16.0113C30.1364 16.0187 29.9163 16.0774 29.6963 16.1881C29.8308 15.9841 30.0633 15.8389 30.32 15.7858C30.5773 15.7283 30.8495 15.7589 31.0997 15.8345C31.3495 15.9159 31.5831 16.0409 31.7831 16.2064C31.9822 16.3692 32.1552 16.5705 32.2537 16.8028" fill="#2C2C2C"/>
</g>
</g>
</g>
</svg>
