<svg height="57" viewBox="0 0 60 57" width="60" xmlns="http://www.w3.org/2000/svg"><path d="m26.25 29.9639062v26.25h-18.75c-2.06625 0-3.75-1.68-3.75-3.75v-22.5zm30 0v22.5c0 2.07-1.68 3.75-3.75 3.75h-18.75v-26.25zm-20.77125-27.70874995c2.93625-2.955 8.05875-2.9625 10.99875 0 3.02625 3.04125 3.02625 7.99124995 0 11.03249995-.51.5175-1.24125 1.095-2.0925 1.67625h11.865c2.07 0 3.75 1.68375 3.75 3.75v5.625c0 1.035-.84 1.875-1.875 1.875h-24.375v-7.5h-7.5v7.5h-24.375c-1.035 0-1.875-.84-1.875-1.875v-5.625c0-2.06625 1.68375-3.75 3.75-3.75h11.865c-.85125-.58125-1.5825-1.15875-2.09625-1.67625-3.01875-3.04125-3.01875-7.99124995.00375-11.03249995 2.93625-2.955 8.05875-2.955 10.99875 0 1.62375 1.63125 5.93625 8.27249995 5.34375 12.70874995h.27c-.59625-4.43625 3.71625-11.07749995 5.34375-12.70874995zm-16.455 1.45875c-1.0725 0-2.08125.42-2.8425 1.185-1.57125 1.5825-1.57125 4.1625 0 5.74499995 1.61625 1.6275 6.5625 4.32 9.15375 4.32.53625 0 .69375-.12375.69375-.12375.87375-.90375-1.63875-7.39874995-4.16625-9.94124995-.76125-.765-1.77-1.185-2.83875-1.185zm24.795 1.185c-1.52625-1.53375-4.17-1.52625-5.68125 0-2.5275 2.5425-5.04 9.03749995-4.16625 9.94124995 0 .00375.1575.12375.69.12375 2.595 0 7.54125-2.6925 9.1575-4.32 1.575-1.58249995 1.575-4.16249995 0-5.74499995z" fill="#f1f2ff" fill-rule="evenodd"/></svg>