<svg height="146" viewBox="0 0 128 146" width="128" xmlns="http://www.w3.org/2000/svg" xmlns:xlink="http://www.w3.org/1999/xlink"><mask id="a" fill="#fff"><path d="m0 .3672h113.9999v114h-113.9999z" fill="#fff" fill-rule="evenodd"/></mask><g fill="none" fill-rule="evenodd"><path d="m113.9999 57.3672c0 31.479-25.52 57-57 57s-57-25.521-57-57c0-31.48 25.52-57 57-57s57 25.52 57 57" fill="#ffdee5" mask="url(#a)" opacity=".5" transform="translate(14 16.595)"/><g transform="translate(0 .593855)"><path d="m58.3672519.20724481c-5.934-.63-16.046-.738-19.514 13.78299999-3.467 14.521-.104 14.379-3.894 18.562s-5.019 9.342-4.304 14.075c.779 5.161-8.542 11.612-2.951 19.03 5.612 7.447 54.346 13.207 49.291-15.304-1.415-7.975-8.992-9.227-7.849-14.959 3.912-19.621.372-34.00199999-10.779-35.18699999" fill="#5b300d"/><path d="m49.9004519 31.5226448s.744 4.425.372 7.325c-.372 2.902-7.141 5.741-7.141 5.741l12.953 15.209 3.384 11.06 11.645-26.269s-7.924-3.518-8.582-5.408c-.937-2.689-.25-8.708-.25-8.708l-5.909 3.601z" fill="#efc2b9"/><g fill="#fcd5c8"><path d="m64.9219519 12.7716448c1.175 3.833.042 14.181-.819 16.648-1.094 3.133-3.894 6.51-6.89 6.83-2.553.272-8.148-3.981-9.367-7.434-.664-1.879-3.797-11.741-1.629-16.141 2.168-4.39999999 16.949-5.63099999 18.705.097"/><path d="m64.3369519 18.9288448s.968-1.021 1.604.716c.635 1.736.656 4.511-.223 5.477-.878.966-2.123.845-2.123.845z"/><path d="m46.4375519 18.9376448s-1.06-.925-1.527.864c-.469 1.789-.226 4.554.74 5.432.966.879 2.193.641 2.193.641z"/></g><path d="m47.0684519 31.6163448c-.021.031-.043.061-.066.089-.208.253-.541.396-.867.374s-.636-.209-.809-.486c-.196-.317-.207-.71-.206-1.083.003-.977.051-1.953.116-2.927.04-.604-.132-1.997.605-2.262.227-.081.498-.023.67.144.15.144.221.349.276.549.131.48.196.974.259 1.467.122.962.234 1.928.26 2.898.012.426-.006.887-.238 1.237m.71-2.172c-.097-.985-.218-1.97-.364-2.949-.029-.192-.049-.406-.077-.622-.077-.575-.217-1.169-.755-1.431-.525-.254-1.025-.062-1.327.416-.537.85-.416 2.209-.49 3.166-.091 1.193-.483 2.72-.184 3.893.339 1.325 2.525 1.454 3.243.351.499-.766.034-1.994-.046-2.824" fill="#f9ba55"/><path d="m66.5918519 31.2072448c-.021.03-.042.061-.066.089-.208.252-.54.395-.867.374-.326-.023-.636-.209-.809-.486-.196-.318-.207-.711-.206-1.083.003-.977.052-1.954.116-2.927.041-.605-.131-1.998.606-2.262.226-.082.497-.023.669.144.15.144.221.349.276.549.131.48.196.974.259 1.467.123.962.235 1.927.26 2.897.012.426-.006.888-.238 1.238m.71-2.172c-.097-.986-.218-1.97-.364-2.95-.029-.191-.048-.405-.077-.622-.077-.574-.217-1.169-.755-1.43-.525-.254-1.025-.063-1.326.416-.537.85-.417 2.208-.491 3.166-.09 1.192-.483 2.72-.183 3.893.338 1.324 2.524 1.454 3.242.351.499-.766.035-1.994-.046-2.824" fill="#f9ba55"/><path d="m51.6348519 89.6330448c-.577 0-1.047.47-1.047 1.047 0 .578.47 1.048 1.047 1.048.578 0 1.048-.47 1.048-1.048 0-.577-.47-1.047-1.048-1.047m0 2.578c-.844 0-1.53-.686-1.53-1.531 0-.844.686-1.53 1.53-1.53.845 0 1.531.686 1.531 1.53 0 .845-.686 1.531-1.531 1.531" fill="#f5ebeb"/><path d="m43.6016519 42.4064448s3.982-2.854 5.11-3.659c1.128-.806 1.555-1.625 1.733-.081.178 1.545-2.461 4.499-2.943 6.87-.482 2.372-3.9 3.525-3.9 3.525z" fill="#ce7060"/><path d="m71.6660519 43.1564448s-4.128-1.479-5.881-2.798-3.419-3.409-3.547-2.409.867 2.651 1.563 3.346c.694.695 2.394 3.44 2.693 4.772.298 1.332.609 2.722.609 2.722s2.68-1.782 2.922-2.176c.242-.393 1.641-3.457 1.641-3.457" fill="#ce7060"/><path d="m28.5879519 113.692545h-.002c-.133-.001-.24-.11-.239-.244 0-.06.05-6 .09-7.298.005-.133.114-.232.249-.233.133.004.238.115.234.249-.04 1.292-.09 7.226-.09 7.287-.001.133-.109.239-.242.239" fill="#fcd5c8"/><path d="m65.2852519 11.7170448c-1.238 1.465-2.996 2.502-4.907 2.895-2.475.507-5.046-.045-7.581-.093-1.109-.021-2.258.067-3.222.59-1.519.823-2.28 2.551-3.651 3.593-.656.498-1.659.802-2.289.258-.477-.41-.513-1.113-.466-1.727.299-3.901 2.628-7.57699999 6.059-9.55999999 1.529-.884 3.233-1.437 4.94-1.93 1.044-.3 2.113-.584 3.206-.554 2.558.069 4.734 1.799 6.687 3.439.412.347.836.707 1.072 1.186" fill="#5b300d"/><path d="m51.3193519 20.5382448c.376 0 .683.307.683.682l-.001.887c0 .375-.307.683-.681.6820024-.375 0-.682-.3070024-.682-.6810024v-.889c0-.374.307-.681.681-.681" fill="#01020d"/><path d="m60.8565519 20.3371448c.375-.013.691.283.704.657l.031.888c.014.375-.282.691-.657.705-.374.013-.691-.282-.704-.657l-.031-.888c-.014-.375.282-.692.657-.705" fill="#01020d"/><path d="m54.2197519 28.1935448c.027 1.285 1.092 2.307 2.378 2.279 1.286-.027 2.307-1.092 2.279-2.378h-.004c-.005-.221-.189-.398-.41-.394l-3.846.083c-.22.004-.398.188-.393.41z" fill="#01020d"/><path d="m55.1260519 29.9874448c.406.314.919.497 1.472.485.452-.009.871-.147 1.223-.378-.189-.474-.719-.82-1.349-.83-.602-.01-1.122.289-1.346.723" fill="#c54e47"/><path d="m96.1338519 34.2277448s3.399 2.491 3.521 2.533c.125.038 2.6630001-1.801 2.6630001-1.801l.429 12.949-5.0170001-.127-3.069-.194.75-7.624.234-2.384z" fill="#fcd5c8"/><path d="m47.9092519 41.6124448s1.348 2.055 2.003 3.523c1.006 2.252 2.928 4.251 3.96 6.464 1.739 3.731 3.652 10.475 3.652 10.475s.978-4.929 2.237-7.413c1.211-2.39 2.597-3.787 3.874-6.204 1.276-2.418 2.223-6.336 2.223-6.336l7.353 3.014s.644 14.844 1.45 17.907c.806 3.061-1.934 7.896-1.289 13.376.644 5.478.724 7.171.644 9.185-.081 2.015-1.209 5.157-1.209 5.157l-13.41 4.915-18.015-3.222s-3.304-15.955-4.593-23.449-2.176-21.394-.241-23.569c1.933-2.176 11.361-3.823 11.361-3.823" fill="#e9f3ff"/><path d="m90.6162519 66.1037448s1.369-7.655 1.691-10.233c.323-2.579 1.693-11.926 1.693-11.926l12.4090001 4.513s-1.692 17.606-1.128 20.809-.806 13.658-3.465 14.544c-2.6590001.887-13.0220001-2.991-13.0220001-2.991s-2.288-7.303-2.288-7.544c0-.242 4.11-7.172 4.11-7.172" fill="#004aa3"/><path d="m32.7979519 98.9796448c-.6 2.5140002-.544 4.7410002-1.221 7.2270002-.368 1.343-.817 5.579-1.184 6.922-.295 1.069-.629 1.852-1.393 1.572-.445-.164-.411-.585-.411-.585s-.633 1.552-1.421.764c-.604-.604-.121-7.746-.188-11.7-.035-1.769-.213-3.3890002-.369-4.4820002-.12-.875-.226-1.406-.226-1.406s.686-.634 1.421-1.166c.599-.44 1.228-.817 1.533-.73 1.527.436 3.853 1.73 3.998 1.809l.005.004c.508.551-.365 1.012-.544 1.771" fill="#fcd5c8"/><path d="m30.4258519 93.8390448s4.755 1.161 4.437 6.3790002c-.083 1.342.066 3.736.206 4.966.139 1.229.232 2.06-.42 2.164-.88.139-1.489-1.421-1.707-2.045-.287-.821-.776-3.829-.698-4.705.04-.452-1.818-6.7590002-1.818-6.7590002" fill="#fcd5c8"/><path d="m33.3418519 97.2081448s-4.206.185-4.327.228c-.054.024-.614-.005-1.199-.043-.697-.044-1.431-.102-1.431-.102l-.237-.232-2.079-2.031-.605-.59-3.843-3.761 3.993-3.041 2.514-1.77 4.188 6.416 1.309 2.006 1.712 2.916z" fill="#fcd5c8"/><path d="m17.6699519 69.6691448s3.614 4.37 5.448 8.074c1.209 2.442 4.841 7.534 4.841 7.534l-9.443 7.204s-4.834-4.622-8.54100004-7.603c-3.707-2.981-10.717-10.313-9.911-13.295.805-2.981 5.841-7.226 5.841-7.226s8.03500004.215 8.38900004.619c.355.402 3.376 4.693 3.376 4.693" fill="#004aa3"/><path d="m31.6279519 94.2902448c-1.61 1.291-3.457 2.238-5.482 2.771l-2.075-2.032c2.316-.372 4.467-1.29 6.246-2.746z" fill="#cc0a3e"/><path d="m93.0664519 28.2267448c.044.497.094.993.152 1.488.193 1.644.472 3.294 1.089 4.83.616 1.536 1.597 2.963 2.971 3.886.793.533 1.784.893 2.701.628.3280001-.095.6320001-.266.9650001-.345.162-.039.339-.059.468-.165.111-.092.169-.232.221-.366 1.67-4.251 4.58-8.208 5.002-12.756.354-3.806-6.514-5.256-6.8350001-1.83-.261 2.799-2.57 4.159-3.806 6.685-.816-1.105-1.436-2.353-1.823-3.669-.095-.324-.194-.679-.466-.877-.863-.628-.761.76-.738 1.149.028.448.06.896.099 1.342" fill="#fcd5c8"/><path d="m35.0166519 44.5216448s-4.879 1.034-6.935 2.243c-2.054 1.209-25.15500004 18.493-26.00100004 21.394s9.10600004 9.226 9.95200004 9.226c.845 0 26.386-10.223 26.386-10.223z" fill="#004aa3"/><path d="m27.8154519 97.3927448c-.087.318-.246.613-.488.855-.208.208-.716.45-.716.45l-3.148-4.259.025-.025c.88-.879 2.451-.735 3.51.33.406.405.681.889.807 1.382.116.43.126.871.01 1.267" fill="#cc0a3e"/><path d="m46.8232519 93.4259448 12.574 2.25 13.41-4.915s1.128-3.143 1.209-5.157c.006-.145.011-.287.015-.43l-4.668-17.375s-1.827 6.742-8.936 16.692c-4.983 6.974-13.604 8.935-13.604 8.935" fill="#deefff"/><path d="m75.4063519 90.2921448c-.218-.706-.421-1.345-.59-1.881-.339-1.078-.556-1.755-.556-1.755s-3.622-.73-6.686-.005c-3.061.725-11.067.281-14.528.363-3.467.082-12.571-.769-12.571-.769s-.373.652-.966 2.035c-.213.513-.465 1.122-.731 1.832-.972 2.568-2.219 6.474-3.375 11.8890002-2.126 9.954-4.022 34.756-4.0061006 39.647 6.6091006 2.008 13.5841006 3.17 20.8051006 3.353 2.399-.051 4.363-.159 4.363-.159l.692-14.856 1.527 14.803s.533.006 1.39.014c7.536-.566 14.774-2.2 21.566-4.747-.47-7.894-2.107-34.597-2.931-38.093-.609-2.5970002-2.267-8.0250002-3.403-11.6710002" fill="#9fc5fc"/><path d="m79.3350519 45.7169448s1.531.665 2.82 3.072 1.047 2.73 2.982 4.744c1.933 2.015 7.171 10.825 7.171 10.825s-1.208 16.733-1.208 17.055c0 .323-13.457-4.27-13.457-4.27l-3.869-25.624z" fill="#004aa3"/><path d="m52.7119519 91.4474448c.532 2.538.942 5.222.672 7.789-.164 1.5700002-.73 3.0450002-1.016 4.5930002-.313 1.668-.434 3.398-.546 5.091-.416 6.488.702 12.923.397 19.386-.625.301-1.256.674-1.906.91-.065-.077-.064-.164-.057-.271.396-6.382-.754-12.739-.416-19.136.155-2.954.465-5.841 1.199-8.703.832-3.2240002.382-6.5020002-.314-9.7130002-3.989-.149-7.973-.536-11.947-1.281.266-.71.518-1.319.731-1.832 11.694 2.151 23.525 1.165 35.307.131.169.536.373 1.175.59 1.881-7.566.652-15.142 1.295-22.694 1.155" fill="#e9f3ff"/><path d="m48.2686519 41.6124448s-2.64 13.976-3.798 16.756c-1.157 2.779-1.027 13.644-1.339 20.051-.311 6.406-10.713 47.2920002-10.713 47.2920002s-5.715-2.161-6.13-3.619c-.608-2.135 2.652-11.583 2.652-11.583s3.277-14.7960002 3.277-15.8370002c0-1.612.419-46.296.983-48.633.564-2.336 15.068-4.427 15.068-4.427" fill="#004aa3"/><path d="m49.8135519 37.8273448c-.541-.181-.67.746-4.71 3.324-3.146 2.009-5.538 4.643-6.685 5.6-1.305 1.09-1.538 1.768.62 2.996 1.837 1.047 1.67.852 1.67.852l-4.548 1.533s-.817 2.613.72 8.821c1.538 6.208 3.98 14.947 4.149 17.466.17 2.518.415 4.471.881 5.523.236.533 2.312-16.193 2.849-22.989.395-4.982 1.468-13.506 3.15-17.009 1.68-3.503 3.15-5.703 1.904-6.117" fill="#004284"/><path d="m65.8584519 42.1212448s2.356 35.899 4.895 44.123c2.538 8.223 9.683 38.8080002 9.683 38.8080002s3.854-1.053 3.975-5.404-3.747-37.5200002-3.384-45.1350002c.362-7.615-1.37-27.426-1.692-28.796-.323-1.369-13.477-3.596-13.477-3.596" fill="#004aa3"/><path d="m62.1660519 37.5968448c.471-.253 3.504 2.605 5.655 3.685 2.677 1.341 3.132 1.252 3.96 1.989 1.721 1.528 4.734 5.389 4.734 5.389l-4.307 2.748 4.062 2.957s1.38 2.515-.33 8.355-4.226 14.976-4.22 19.544c.006 4.567.108 7.752 0 7.369-.288-1.02-2.388-8.203-2.942-12.011-.845-5.823-2.304-14.802-2.505-20.335-.294-8.169-3.669-16.727-4.079-17.88-.401-1.128-.292-1.667-.028-1.81" fill="#004284"/><path d="m57.2568519 129.986545s-.061-12.563-.165-14.884l-.105-2.32h.885z" fill="#9fc5fc"/></g><g transform="translate(60 71)"><path d="m11.8857263 0c6.9184204 7.06974054 11.0324555 10.6046108 12.3421053 10.6046108h32.7588467c5.7658693 0 10.4385217 4.6461215 10.4385217 10.3768015v23.6417862c0 5.73068-4.6726524 10.3768015-10.4385217 10.3768015h-30.1603925-10.8462296-5.114336c-5.7658692 0-10.4405202-4.6461215-10.4405202-10.3768015v-23.6417862c0-5.73068 4.674651-10.3768015 10.4405202-10.3768015z" fill="#ce183c"/><g fill="#fff"><path d="m24.8024593 42.1975407c-1.0699457-1.0715426-1.0699457-2.8233791 0-3.8933248l14.5017566-14.5017566c1.0715426-1.0699457 2.8233791-1.0699457 3.8933248 0s1.0699457 2.8217822 0 3.8933248l-14.5017566 14.5017566c-1.0699457 1.0699457-2.8217822 1.0699457-3.8933248 0"/><path d="m24.8024593 23.803657c1.0715426-1.0715427 2.8233791-1.0715427 3.8933248 0l14.5017566 14.5017566c1.0699457 1.0699457 1.0699457 2.8217822 0 3.8933248-1.0699457 1.0683488-2.8217822 1.0683488-3.8933248 0l-14.5017566-14.5017566c-1.0699457-1.0715426-1.0699457-2.8233791 0-3.8933248"/></g></g></g></svg>