<svg height="161" viewBox="0 0 147 161" width="147" xmlns="http://www.w3.org/2000/svg" xmlns:xlink="http://www.w3.org/1999/xlink"><mask id="a" fill="#fff"><path d="m.3199.7178h109.34v7.2822h-109.34z" fill="#fff" fill-rule="evenodd"/></mask><mask id="b" fill="#fff"><path d="m.5281.324h2.417v2.4166h-2.417z" fill="#fff" fill-rule="evenodd"/></mask><mask id="c" fill="#fff"><path d="m0 .0728h43.4187v29.037h-43.4187z" fill="#fff" fill-rule="evenodd"/></mask><mask id="d" fill="#fff"><path d="m.2681.2825h31.8439v26.17h-31.8439z" fill="#fff" fill-rule="evenodd"/></mask><g fill="none" fill-rule="evenodd" transform="translate(0 -1)"><path d="m127.6668 83.525c0 31.48-25.52 57-57 57s-57-25.52-57-57c0-31.479 25.52-57 57-57s57 25.521 57 57" fill="#c3ecfe" opacity=".35"/><path d="m90.0096 82.9967s1.872 1.425 3.53 2.023c1.658.599 1.926.331 1.926.331l.695-3.64z" fill="#0067bc"/><path d="m101.3094 23.6617s-5.421 1.992-1.665 7.181c3.757 5.189 1.665-7.181 1.665-7.181" fill="#2a3756"/><path d="m47.8006 81.9274s.162 1.622-.962 3.12c-.545.728-1.713 1.111-1.713 1.111l.286-1.851.028-.882z" fill="#5393d3"/><path d="m109.6599 4.3588c0 2.011-15.729 3.642-45.923 3.642-30.193 0-63.417-1.631-63.417-3.642s33.224-3.641 63.417-3.641c30.194 0 45.923 1.63 45.923 3.641" fill="#e9f3ff" mask="url(#a)" transform="translate(16 153.676)"/><path d="m131.0271 146.9967-4.747 1.786 2.439 6.485 4.747-1.788z" fill="#f4c8bd"/><path d="m96.2615 154.5524 5.064.274.374-6.918-5.064-.274z" fill="#f4c8bd"/><path d="m88.6765 158.2379c-.025.227.046.444.197.604.152.159 1.961.471 2.198.467038 2.249-.037038 6.566-.360038 9.545-.409038.464-.008.924-.196 1.274-.522s.561-.761.583-1.205c.084-1.669-.584-4.549-.584-4.549l-5.484-.252s-4.124 3.028-6.5 4.041c-.997.424-1.119.816-1.229 1.824z" fill="#2a3756"/><path d="m107.3064 93.9899c4.999 16.351 14.688 55.941 17.679 56.327 1.295.168 8.057-1.038 8.035054-3.071-.035054-3.057-4.880054-24.068-8.538054-33.881-2.432-12.511-3.308-23.023-4.238-27.977-.065-.817-.137-1.53-.218-2.032-.084-.517-.158-1.036-.224-1.554-.308-2.431-1.228-9.721-1.228-9.721-5.81 3.078-13.635 3.869-22.816.208l-1.601-.111-.225 21.638-.036.003s1.469 52.25 1.427 56.102c-.021 1.859 7.521 2.261 7.892.44.846-4.149 2.097-25.934 1.487-33.358l2.277-23.008z" fill="#a6c6f9"/><path d="m128.6902 86.3112c.329 1.142-.327 2.519-1.466 3.076-1.138.558-2.328.084-2.657-1.057s.328-2.519 1.466-3.077c1.138-.557 2.328-.084 2.657 1.058" fill="#fff"/><path d="m132.5603 150.6158 2.855 4.211c.608 1.704-.927 3.782-1.949 3.978l-4.635.892c-.997.191-1.96-.462-2.153-1.459l.212-6.532z" fill="#2a3756"/><path d="m36.8211 159.2203.812.003.548-6.122c1.569 1.297 2.243 3.118 2.672 5.082.341.646 1.01 1.053 1.741 1.055l4.677.014 2.139.007c.545-1.359-1.319-2.47-4.649-4.012l-4.517-4.005-1.613-2.701-1.401-.691c-.97.671-1.118 3.195-1.063 4.219z" fill="#2a3756"/><path d="m11.6472 155.527.774.241 2.323-5.691c1.119 1.7 1.228 3.638 1.062 5.642.136.719.657 1.303 1.355 1.52l4.466 1.387 2.042.633c.921-1.138-.535-2.748-3.265-5.199l-3.144-5.154-.749-3.057-1.135-1.071c-1.125.356-2.007 2.727-2.255 3.721z" fill="#2a3756"/><path d="m134.3631 84.1959s-.105-.061-.274-.152c-.042-2.374-.32-12.707-2.021-18.645-1.932-6.739-13.121-18.292-13.121-18.292l-3.34 6.402s7.733 9.36 9.532 13.224c1.799 3.861 3.863 17.858 3.865 17.872-.287.645-.618 1.232-.642 2.356-.041 1.874 1.564 3.078 1.564 3.078s-.223-1.582.06.227c.282 1.811 1.799 1.308 3.575 1.089 1.778-.219 2.325-.529 2.43-1.606.104-1.077-1.628-5.553-1.628-5.553" fill="#f4c8bd"/><path d="m114.7029 53.4547s8.506 10.58 9.39 15.066c3.181-.426 5.943-1.957 8.086-5.125 0 0-9.79-15.801-14.738-17.788-4.947-1.985-2.738 7.847-2.738 7.847" fill="#0041a0"/><path d="m89.0935 1.7711h-16.754c-.334 0-.604.271-.604.604v18.762c0 .334.27.605.604.605h13.23l4.128-3.971v-15.396c0-.333-.27-.604-.604-.604" fill="#f9ba55"/><path d="m85.5691 21.7418 4.129-3.971h-4.129z" fill="#f2b255"/><g fill="#fff"><path d="m2.9451 1.5316c0 .668-.541 1.209-1.208 1.209-.668 0-1.209-.541-1.209-1.209 0-.667.541-1.208 1.209-1.208.667 0 1.208.541 1.208 1.208" mask="url(#b)" transform="translate(79 .676)"/><path d="m86.9109 6.9518h-12.389c-.237 0-.429-.192-.429-.43v-.284c0-.237.192-.431.429-.431h12.389c.237 0 .431.194.431.431v.284c0 .238-.194.43-.431.43"/><path d="m86.9109 9.4205h-12.389c-.237 0-.429-.192-.429-.43v-.284c0-.238.192-.431.429-.431h12.389c.237 0 .431.193.431.431v.284c0 .238-.194.43-.431.43"/><path d="m86.9109 11.8893h-12.389c-.237 0-.429-.192-.429-.431v-.283c0-.238.192-.431.429-.431h12.389c.237 0 .431.193.431.431v.283c0 .239-.194.431-.431.431"/><path d="m86.9109 14.358h-12.389c-.237 0-.429-.192-.429-.431v-.284c0-.237.192-.43.429-.43h12.389c.237 0 .431.193.431.43v.284c0 .239-.194.431-.431.431"/><path d="m86.9109 16.8268h-12.389c-.237 0-.429-.193-.429-.431v-.284c0-.237.192-.43.429-.43h12.389c.237 0 .431.193.431.43v.284c0 .238-.194.431-.431.431"/></g><path d="m65.2303 12.7018h-16.869c-.302 0-.547.245-.547.547v18.878c0 .302.245.546.547.546h16.869c.302 0 .547-.244.547-.546v-18.878c0-.302-.245-.547-.547-.547" fill="#f9ba55"/><path d="m58.0037 12.7018c0 .668-.541 1.209-1.208 1.209-.668 0-1.209-.541-1.209-1.209 0-.667.541-1.208 1.209-1.208.667 0 1.208.541 1.208 1.208" fill="#fff"/><path d="m62.99 18.9703h-12.389c-.237 0-.43-.193-.43-.431v-.284c0-.237.193-.43.43-.43h12.389c.237 0 .43.193.43.43v.284c0 .238-.193.431-.43.431" fill="#fff"/><path d="m62.99 21.4391h-12.389c-.237 0-.43-.193-.43-.431v-.284c0-.237.193-.43.43-.43h12.389c.237 0 .43.193.43.43v.284c0 .238-.193.431-.43.431" fill="#fff"/><path d="m62.99 23.9069h-12.389c-.237 0-.43-.192-.43-.43v-.284c0-.237.193-.431.43-.431h12.389c.237 0 .43.194.43.431v.284c0 .238-.193.43-.43.43" fill="#fff"/><path d="m62.99 26.3756h-12.389c-.237 0-.43-.192-.43-.43v-.284c0-.237.193-.431.43-.431h12.389c.237 0 .43.194.43.431v.284c0 .238-.193.43-.43.43" fill="#fff"/><path d="m62.99 28.8444h-12.389c-.237 0-.43-.192-.43-.43v-.284c0-.238.193-.431.43-.431h12.389c.237 0 .43.193.43.431v.284c0 .238-.193.43-.43.43" fill="#fff"/><path d="m86.8269 77.7164c.998 4.456-1.805 8.878-6.261 9.876-4.455.998-8.877-1.805-9.875-6.261-.998-4.455 1.805-8.877 6.261-9.875 4.455-.998 8.877 1.805 9.875 6.26" fill="#f9ba55"/><path d="m73.8367 78.8444c-.02 0-.039-.001-.059-.003-.313-.032-.541-.316-.509-.63.047-.465.407-1.314 1.457-1.552 1.119-.253 1.798.422 2.001.814.143.28.034.624-.246.768-.276.143-.616.038-.762-.235-.051-.086-.25-.347-.741-.235-.488.11-.566.49-.576.565-.03.294-.276.508-.565.508" fill="#fff"/><path d="m79.781 77.5075c-.019 0-.038-.001-.058-.003-.313-.032-.541-.311-.509-.625.046-.465.406-1.314 1.457-1.552 1.118-.255 1.798.422 2 .815.144.279.035.623-.245.767-.277.144-.616.037-.763-.235-.051-.086-.249-.346-.741-.235-.525.119-.574.55-.575.555-.029.293-.277.513-.566.513" fill="#fff"/><path d="m78.0945 82.2828c-.882 0-1.513-.211-1.566-.229-.298-.103-.456-.428-.353-.725s.426-.456.723-.354c.091.031 2.169.704 3.835-.863.228-.216.59-.205.805.025.215.229.204.589-.025.805-1.148 1.079-2.439 1.341-3.419 1.341" fill="#fff"/><path d="m58.8621 50.4176c-.888 2.563-3.686 3.921-6.248 3.033-2.563-.887-3.921-3.685-3.033-6.248.887-2.562 3.685-3.921 6.248-3.032 2.562.888 3.921 3.684 3.033 6.247" fill="#f9ba55"/><path d="m53.4978 47.445h-.026c-.181-.015-.317-.171-.306-.352.001-.059-.018-.256-.306-.356-.283-.097-.444.073-.473.108-.117.14-.325.163-.465.05-.142-.113-.169-.315-.059-.46.168-.219.613-.533 1.214-.326.642.221.773.77.752 1.029-.014.175-.159.307-.331.307" fill="#fff"/><path d="m56.9168 48.6295c-.008 0-.017 0-.025-.001-.182-.014-.318-.17-.307-.351.002-.059-.018-.256-.305-.355-.306-.106-.468.101-.47.103-.112.145-.321.172-.466.061-.146-.112-.173-.321-.062-.467.168-.219.613-.534 1.214-.326.642.22.773.77.753 1.029-.014.175-.16.307-.332.307" fill="#fff"/><path d="m54.573 50.442c-1.385 0-2.225-1.007-2.264-1.055-.116-.142-.095-.352.047-.467.143-.117.352-.095.468.045.038.047.88 1.036 2.212.764.18-.036.355.08.392.26s-.08.355-.259.392c-.208.042-.408.061-.596.061" fill="#fff"/><path d="m61.9392 55.985s-3.648 2.943-7.453 7.492l-10.784-9.854s-2.246 6.411-1.46 6.945c.544.37 5.65 6.101 8.757 9.609 1.223 1.382 3.411 1.272 4.491-.224l9.866-11.292z" fill="#77b3fc"/><path d="m65.3562 58.6608c.062-.125.044-.287-.032-.47l-.66.629c.345.03.62-.013.692-.159" fill="#5393d3"/><path d="m61.9392 55.985c-.066.115-.061.326.001.578l.544-.634c-.289-.052-.495-.029-.545.056" fill="#5393d3"/><path d="m64.2234 56.8375c-.593-.542-1.273-.824-1.739-.908l-.544.634c.127.519.497 1.216 1 1.638.378.317 1.15.569 1.723.618l.661-.628c-.165-.4-.606-.902-1.101-1.354" fill="#fcd5c8"/><path d="m27.3298 95.8883h-12.504c-.977 0-1.776.799-1.776 1.776 0 .227.047.443.125.643l-4.598 7.984c-.307.532-.122 1.217.409 1.523.532.305 1.217.122 1.524-.41l4.587-7.964h12.233c.977 0 1.775-.799 1.775-1.776s-.798-1.776-1.775-1.776" fill="#2a3756"/><path d="m32.9197 29.1098h-22.42c-5.799 0-10.5-4.701-10.5-10.5v-8.037c0-5.799 4.701-10.5 10.5-10.5h22.42c5.799 0 10.499 4.701 10.499 10.5v8.037c0 5.799-4.7 10.5-10.499 10.5" fill="#cc0a3e" mask="url(#c)" transform="translate(0 102.676)"/><path d="m30.6052 118.1041v-.192c0-.407-.292-.74-.649-.74h-21.287c-.357 0-.649.333-.649.74v.192c0 .406.292.739.649.739h21.287c.357 0 .649-.333.649-.739" fill="#fff"/><path d="m30.6052 113.194v-.192c0-.407-.292-.74-.649-.74h-21.287c-.357 0-.649.333-.649.74v.192c0 .406.292.739.649.739h21.287c.357 0 .649-.333.649-.739" fill="#fff"/><path d="m30.6052 123.0143v-.191c0-.408-.292-.741-.649-.741h-21.287c-.357 0-.649.333-.649.741v.191c0 .406.292.739.649.739h21.287c.357 0 .649-.333.649-.739" fill="#fff"/><path d="m41.4773 148.6598c-.448-1.63-1.041-3.713-1.827-6.376-3.576-12.117-2.646-29.565-3.06-31.158-.413-1.594-1.259-26.831-1.259-26.831l-8.677 2.011c3.974 19.729 3.548 22.857 3.548 22.857-.56 23.155 1.457 20.5 7.277 38.374l-.249.313s3.298 9.127 7.531 7.398z" fill="#fcd5c8"/><path d="m19.1541 146.7125c4.11-15.524 8.575-25.959 8.575-25.959-8.254 15.754-7.827 6.591-11.46 23.412l-.893.612s.473 9.694 5.028 9.283l-1.206-7.262z" fill="#fcd5c8"/><path d="m47.0535 83.4166c-.308 13.354-10.657 37.85-11.729 39.875-2.768 5.23-7.799 13.969-14.301 22.169-1.494 1.884-8.29-3.713-8.157-5.098.287-2.95 15.577-20.222 18.335-24.696 0 0 .099-15.007 6.289-34.082z" fill="#0052b5"/><path d="m23.8132 29.9489s-3.67 2.31-4.278 8.995c-.61 6.685-5.513 23.597-3.178 27.332 2.335 3.736 7.59 6.555 7.59 6.555l16.113-12.066-6.629-17.006.663-10.674z" fill="#2a3756"/><path d="m23.7449 49.3239c-6.478-.338-5.608 18.239-5.268 25.814.296 6.592.646 14.202 1.568 14.821.633.425 4.336.704 4.886-.061 1.096-1.524-.853-12.33-.616-16.45.051-.875 2.284-13.347 2.284-13.347s2.341-10.506-2.854-10.777" fill="#77b3fc"/><path d="m71.1551 49.4459c-1.021-.285-4.02 1.348-4.02 1.348-.056.032-.104.071-.147.113 0 0-.66.463-1.213.934l.046-.172s.543-.612.851-1.567c.306-.954-.337-1.116-.337-1.116l-1.895 2.353-.857 3.31h-.001l-1.098 1.28c.466.084 1.147.367 1.739.909.495.452.936.954 1.101 1.353l1.456-1.388h-.001l2.73-1.728 2.721-1.884c.327-.182 1.205-3.109-1.075-3.745" fill="#fcd5c8"/><path d="m19.9187 89.8248c.057.262.634.481 1.324.621l-.108-1.432c-.759.142-1.292.463-1.216.811" fill="#5393d3"/><path d="m24.9304 89.8981c.05-.144-.071-.306-.361-.456.028.229.056.465.083.699.153-.085.254-.169.278-.243" fill="#5393d3"/><path d="m94.0613 81.4-.017 3.62c13.476 1.276 18.33-1.724 27.895 12.558-1.307-6.82-1.1-9.022-1.695-12.19-.065-.817-.137-1.53-.218-2.032-.084-.518-.158-1.036-.224-1.555-.144-1.141-.424-3.354-.679-5.38l-20.804.839z" fill="#92b1dd"/><path d="m81.1922 54.4655 2.25 9.777 9.205-4.691-2.638 23.445s14.347 3.045 30.017.36l1.165-21.286s2.063-14.971-4.904-16.952c-6.968-1.981-18.264-2.38-23.221 2.334z" fill="#004aa3"/><path d="m124.9461 66.3405c-.709.788-1.118 1.581-.854 2.181.142.319.883.454 1.803.334-.253-.86-.507-1.588-.756-2.122-.058-.125-.123-.257-.193-.393" fill="#0067bc"/><path d="m132.1785 63.3961c-.2-.342-.598-.477-1.103-.465.34.687.624 1.348.836 1.975.367-.561.512-1.091.267-1.51" fill="#0067bc"/><path d="m81.1922 54.4655c1.313-.312 2.771 2.64 3.119 4.404.545 2.766-.317 5.25-.869 5.373-1.212.272-2.539-3.335-2.902-4.516-.574-1.872-.656-4.95.652-5.261" fill="#0067bc"/><path d="m100.0349 27.777c.198-1.746 1.108-3.334 2.515-4.389 1.406-1.054 3.184-1.482 4.917-1.183 3.351.578 5.671 3.67 5.287 7.05-.221 1.944-.603 2.656-.812 4.5-.141 1.248-1.055 3.113-2.06 3.866-1.004.754-1.869 1.744-3.106 1.53-1.146-.197-2.366-.408-3.494-.603-2.461-.424-4.163-2.694-3.882-5.175.195-1.713.422-3.712.635-5.596" fill="#f4c8bd"/><path d="m109.1726 27.6832s-1.237 5.762 3.322 6.227c0 0 3.163-6.581 1.616-9.258-1.357-2.349-7.543-5.189-11.758-3.353-4.214 1.837-2.004 5.863 6.82 6.384" fill="#2a3756"/><path d="m110.8728 46.5397-.706-10.591-7.544.897-.992 9.683c2.638-1.826 5.836-1.338 9.242.011" fill="#f4c8bd"/><path d="m111.743 31.5846c-.848-.135-1.674.636-1.845 1.717-.171 1.082.378 2.069 1.226 2.203s1.674-.636 1.845-1.718c.17-1.082-.378-2.068-1.226-2.202" fill="#f4c8bd"/><path d="m102.4461 38.2701s3.928 1.035 7.213-.98c0 0-3.949 3.247-7.243 2.693z" fill="#e2aea3"/><path d="m102.3553 30.8463c-.028.103.031.209.134.237.102.03.209-.031.237-.133.069-.246.031-.498-.085-.705-.117-.208-.312-.372-.558-.44-.247-.069-.499-.031-.706.085-.208.117-.371.312-.44.559-.028.102.031.209.134.237.102.029.209-.031.237-.133.041-.145.136-.26.257-.328.121-.067.269-.09.413-.049.145.04.26.136.327.256.069.122.09.269.05.414" fill="#01020d"/><path d="m107.2029 32.2057c-.028.103.031.209.134.238.102.029.209-.031.237-.134.069-.246.031-.498-.085-.705-.117-.208-.312-.371-.558-.44-.247-.068-.499-.031-.706.085-.208.117-.371.312-.44.559-.028.102.031.209.134.237.102.029.209-.03.237-.133.041-.144.136-.26.256-.327.122-.068.27-.091.414-.05.146.041.26.136.328.257s.09.268.049.413" fill="#01020d"/><path d="m102.1541 33.9742c-.215.737.21 1.509.947 1.724.738.213 1.509-.21 1.724-.948l-.003-.001c.037-.127-.036-.26-.163-.297l-2.205-.641c-.127-.037-.261.036-.298.163z" fill="#01020d"/><path d="m102.3494 35.1578c.175.252.435.447.752.54.259.075.522.071.765.003-.024-.304-.264-.596-.621-.714-.341-.113-.691-.036-.896.171" fill="#c54e47"/><path d="m37.5535 84.0875s-.221 27.26.203 28.821c.424 1.563 3.378 32.847 3.378 32.847s-7.885 1.785-8.393.888c-.874-1.541-2.744-11.602-3.485-34.445 0 0-6.643-18.684-3.704-30.614z" fill="#005ece"/><path d="m37.7566 112.9088c-.424-1.562-.212-27.61-.212-27.61l-12.63-2.748c-2.276 11.941 10.095 29.648 10.095 29.648.656 20.213 3.846 31.379 4.571 33.682l1.554-.125s-2.954-31.285-3.378-32.847" fill="#005ece"/><path d="m27.7293 48.401s-7.405-.609-7.685 7.537l4.871 3.386v23.226s19.611 6.851 22.832-.195c.427-.936-1.527-8.599-1.204-14.265 0 0 .64-2.925.782-3.575 1.325-6.094-2.011-9.548-6.75-15.201-3.529-4.211-12.846-.913-12.846-.913" fill="#77b3fc"/><path d="m38.2966 44.7184c1.695-.403 2.646-2.25 2.58-3.991-.117-3.088-.788-7.264-1.567-9.167-.66-1.613-2.105-2.742-3.8-2.34-1.81.431-4.092.974-5.902 1.404-1.696.403-2.744 2.105-2.34 3.8.21.88.414 1.732.628 2.578-.103.042-.204.086-.299.149-.99.651-1.154 2.149-.368 3.345.548.833 1.412 1.288 2.221 1.276.265.546.669 1.007 1.171 1.389-.252 1.521-.531 3.208-.755 4.558-.749.349-1.343.331-2.393.682 4.474 4.123 11.979 10.848 11.979 10.848-.11-5.148.54-5.41-.331-8.302-.351-1.169-1.328-3.278-2.495-3.634-.201-.062-.396-.113-.591-.161.049-.825.097-1.617.139-2.31.882.04 1.644-.011 2.123-.124" fill="#fcd5c8"/><path d="m38.4675 35.984c.259-.085.539.058.623.315l.201.614c.085.258-.057.54-.316.625-.259.084-.539-.059-.624-.317l-.2-.614c-.085-.258.057-.539.316-.623" fill="#01020d"/><path d="m40.2351 40.1168c.344.711.262 1.402-.183 1.542-.445.141-1.085-.322-1.428-1.034h.001c-.06-.123-.045-.242.031-.267l1.331-.42c.076-.023.186.057.246.18z" fill="#fff"/><path d="m36.1931 44.5201s-2.834.263-4.169-.75c0 0 1.565 1.988 4.006 2.225z" fill="#f4c8bd"/><path d="m19.6619 39.693s.562-7.785 4.146-10.555c4.405-3.403 10.988-4.639 15.163 1.75l.784 1.501s-4.433 6.625-15.849 7.304z" fill="#2a3756"/><path d="m24.9148 70.0905v12.46s12.045 4.757 20.008 2.269c0 0-10.149-.137-14.295-3.235-3.823-2.857-5.713-11.494-5.713-11.494" fill="#64a4f2"/><path d="m91.5711 69.1149-1.562 13.882s6.56 1.391 15.651 1.463c0 0-9.514-1.086-11.764-4.138-2.496-3.385-2.325-11.207-2.325-11.207" fill="#0041a0"/><path d="m116.2869 45.1188c-2.919-.83-7.396.213-11.05.198-2-.008-3.193-1.448-5.05-1.092 0 0 11.124 5.055 14.716 10.241 4.319 6.236 4.166 22.322 4.166 22.322l1.343-.482.779-14.235s2.063-14.972-4.904-16.952" fill="#0041a0"/><path d="m104.9822 50.2526c0 .376-.305.681-.681.681s-.681-.305-.681-.681.305-.682.681-.682.681.306.681.682" fill="#a6c6f9"/><path d="m104.9822 53.7838c0 .377-.305.682-.681.682s-.681-.305-.681-.682c0-.376.305-.681.681-.681s.681.305.681.681" fill="#a6c6f9"/><path d="m104.9822 57.316c0 .376-.305.682-.681.682s-.681-.306-.681-.682.305-.682.681-.682.681.306.681.682" fill="#a6c6f9"/><path d="m110.4646 41.2438-5.228 4.073-3.087-3.849-4.019 3.255 3.5 4.203 3.598-3.552c.254.314 3.862 4.77 3.933 4.877.074.11 5.368-5.565 5.368-5.565z" fill="#a6c6f9"/><path d="m24.698 98.944s1.065-1.115.798-2.53c-.054-.285-.213-1.004-.222-1.127l-.472-2.879c.04-.384-.042-1.315-.15-2.267-.026-.234-.055-.469-.083-.699-.398-.207-1.119-.394-2.173-.487-.445-.039-.882-.012-1.261.059l.108 1.432.128 1.7c-.162.153-.285.332-.339.54l-.373 2.166s-.205.973-.382 2.041c-.104.462-.253 1.233-.235 1.848-.022.328-.018.594.023.747.215.804.67.97 2.044.912 1.374-.059 2.587.131 2.573-1.276-.002-.168-.003-.298-.004-.398.005-.008.009-.014.013-.022.004.121.007.24.007.24" fill="#fcd5c8"/><path d="m82.6736 55.2672c-.47-.572-.985-.919-1.481-.802-.931.221-1.158 1.847-1.003 3.441l2.126-2.709z" fill="#0067bc"/><path d="m82.8201 64.0739c.207.147.416.215.622.169.298-.066.685-.819.894-1.932-.465.471-.963 1.025-1.424 1.656-.03.039-.061.072-.092.107" fill="#0067bc"/><path d="m84.3113 58.8698c-.216-1.099-.863-2.657-1.638-3.603l-.358-.07-2.126 2.709-3.399 4.329s2.719 3.921 6.122 1.732c.666-.429 1.119-.91 1.423-1.656.179-.952.228-2.166-.024-3.441" fill="#eabeb5"/><path d="m80.8572 40.8326c-.082-1.129-.385-2.149-.385-2.149l-.625-3.952s-1.931-6.005-3.062-5.122c-.816.638-.192 2.523.219 3.527-1.828.086-2.405 1.085-1.813 3.551.488 2.039 1.054 4.132 1.269 4.918l-.017.003s-.968 19.323.348 20.626c1.316 1.305 6.285 4.174 6.745-2.592z" fill="#f4c8bd"/><path d="m108.3221 97.4039c-.355-1.223-.695-2.366-1.016-3.414l-.327.005-2.276 23.008c.609 7.424-.642 29.209-1.487 33.358-.138.675-1.259 1.044-2.615 1.147 1.991.142 4.103-.205 4.294-1.147.846-4.149 2.097-25.934 1.489-33.358z" fill="#95baef"/><path d="m126.1629 113.3649c-2.432-12.511-3.308-23.023-4.239-27.977-.064-.817-.136-1.53-.217-2.032-.084-.517-.158-1.036-.224-1.554-.049-.386-.113-.894-.186-1.476h-1.681c.073.581.138 1.09.187 1.476.065.518.139 1.037.223 1.554.081.502.154 1.215.218 2.032.931 4.954 1.807 15.466 4.238 27.977 3.659 9.813 8.503 30.824 8.538 33.881.018 1.595-4.135 2.68-6.554 2.993.069.043.135.07.199.078 1.296.167 8.059-1.038 8.036059-3.071-.035059-3.057-4.880059-24.068-8.538059-33.881" fill="#95baef"/><path d="m32.1121 16.7865-25.617 9.666-6.227-16.505 25.617-9.665z" fill="#cc0a3e" mask="url(#d)" transform="translate(114 68.676)"/><path d="m132.8416 80.7487c.64 1.693-.216 3.584-1.909 4.224-1.694.638-3.584-.216-4.223-1.91-.638-1.693.216-3.585 1.909-4.223 1.694-.639 3.584.216 4.223 1.909" fill="#fff"/><path d="m134.3631 84.1959s-.105-.061-.274-.152c-.042-2.374-.32-12.707-2.021-18.645-.047-.162-.1-.327-.156-.493-.213-.627-.496-1.288-.836-1.975-1.136.027-2.815.794-4.012 1.61-.771.525-1.543 1.161-2.118 1.8.07.135.135.267.193.392.249.534.503 1.263.756 2.122 1.575 5.346 3.107 15.737 3.109 15.75-.287.645-.618 1.232-.642 2.356-.041 1.874 1.564 3.078 1.564 3.078s-.223-1.582.06.228c.282 1.81 1.799 1.307 3.575 1.088 1.778-.219 2.325-.529 2.43-1.606.104-1.077-1.628-5.553-1.628-5.553" fill="#f4c8bd"/><path d="m26.1785 48.445c-.324.042-1.3.324-1.3.324s1.06.614 2.312 1.433c3.206 2.097 12.261 9.048 12.261 9.048l-11.722-10.849s-1.162-.007-1.551.044" fill="#0053cc"/><path d="m38.9695 48.0192c-.166-.116-.799-.355-1.362-.508-.521-.139-.982-.198-.982-.198s.513.203 1.044 1.075c.763 1.252 1.782 10.861 1.782 10.861s.032-.156.256-1.6c.225-1.444-.417-9.405-.738-9.63" fill="#0053cc"/></g></svg>