<svg height="156" viewBox="0 0 205 156" width="205" xmlns="http://www.w3.org/2000/svg" xmlns:xlink="http://www.w3.org/1999/xlink"><defs><path id="a" d="m81.4885433 108.630529c25.5151707-6.807231 35.8765507-38.9214638 27.6337197-67.1755052-2.099002-7.194954-5.400681-13.9459894-9.9263642-19.3337717-7.1161924-8.4712249-17.5786699-11.5679251-27.3620509-11.7633164-7.8106227-.1558972-15.3442027 2.6224985-22.5015002 6.1362786-11.5869458 5.6878534-24.0172669 7.3843216-35.5978464 12.7931471-11.74267448 5.484488-19.26450359 17.5148729-20.87864759 32.5380036-.82662481 7.6923787.05983397 15.6807303 2.89270739 22.6858224 4.3894601 10.8552031 13.13109691 17.3169546 22.4754399 20.8357066 19.8258601 7.466069 42.943051 8.704915 63.2645423 3.283635"/><path id="b" d="m50.3560976 117.938632c33.3836218-6.340787 44.1140717-19.4265967 44.1140717-51.9944507 0-32.5678539-13.495042-65.9441813-44.1140717-65.9441813s-50.07543269 15.6221247-50.07543269 48.1899787c0 32.5678539 16.69181089 76.0894403 50.07543269 69.7486533z"/><mask id="c" fill="#fff"><path d="m0 0h267v156h-267z" fill="#fff" fill-rule="evenodd"/></mask><mask id="d" fill="#fff"><use fill="#fff" fill-rule="evenodd" xlink:href="#a"/></mask><mask id="e" fill="#fff"><path d="m.09238812.03790579h41.76579968v20.25503361h-41.76579968z" fill="#fff" fill-rule="evenodd"/></mask><mask id="f" fill="#fff"><path d="m0 0h3.20599v3.417526h-3.20599z" fill="#fff" fill-rule="evenodd"/></mask><mask id="g" fill="#fff"><use fill="#fff" fill-rule="evenodd" xlink:href="#b"/></mask><mask id="h" fill="#fff"><path d="m.01636465.01727334h24.26216025v22.87798346h-24.26216025z" fill="#fff" fill-rule="evenodd"/></mask><mask id="i" fill="#fff"><path d="m.05063901.06251783h38.07215729v35.53103807h-38.07215729z" fill="#fff" fill-rule="evenodd"/></mask><mask id="j" fill="#fff"><path d="m.00000304.08526939h73.25026406v84.22301111h-73.25026406z" fill="#fff" fill-rule="evenodd"/></mask></defs><g fill="none" fill-rule="evenodd" transform="translate(-42)"><g fill-rule="evenodd"><path d="m191.509145 134.833733c17.142059-3.239142 24.102531-18.522172 18.563962-31.968444-1.410372-3.4241222-3.628747-6.6370037-6.669429-9.2011319-4.781173-4.0315857-11.810402-5.5054845-18.383315-5.5986355-5.247526-.0743225-10.308852 1.2477931-15.117358 2.9198855-7.784488 2.7066623-16.135687 3.5138052-23.915905 6.0876779-7.889118 2.6098778-12.94233 8.335027-14.026427 15.484526-.555181 3.660799.040571 7.46248 1.943986 10.79626 2.949291 5.166078 8.822463 8.24138 15.100489 9.916115 13.320067 3.553444 28.851248 4.1434 42.503997 1.563747" fill="#e3a780" opacity=".573335"/><g><g fill-rule="evenodd" mask="url(#c)"><g transform="translate(41.25656 25.74)"><use fill="#fcf5f3" transform="matrix(-.01745241 .9998477 -.9998477 -.01745241 114.293038 10.006229)" xlink:href="#a"/><path d="m-5.50283294 96.72c-8.97555786-20.3466667 1.79511158-35.6066667 32.31200834-45.78 45.7753452-15.26 61.9313494-23.98 61.9313494-39.24" style="stroke:#9ba9c4;stroke-width:.5;opacity:.587147;stroke-linecap:round;stroke-dasharray:.779562 1.559124;mask:url(#d)"/><g mask="url(#d)"><g fill="none" transform="translate(19.381965 16.798144)"><path d="m30.3763612 49.7226661c-.1343502 1.5917274-.3959985 3.1656985-.6916413 4.7340529-1.2785871-.7325389-2.6620505-1.3027343-3.9605279-2.0073704-1.291787-.7011935-2.5597056-1.4536629-3.7898326-2.259039-2.5096182-1.6411914-4.8776533-3.5085042-7.063059-5.5626208-.7115316-.6689423-2.0534061-2.0461443-3.277566-3.3371014-.2632758-.2783032-.5214885-.5520767-.7659589-.8142542-.5393898-.5772617-1.04026463-1.1249898-1.3735182-1.5020399 1.214938-.6616948 3.2245854-1.7129415 4.8454671-2.5857191 1.8555877-.9983401 7.5048053-2.1662713 14.1574-.9381861.023326.0601541.0448437.1203082.0672655.1804622.5439104 1.4947925.9746266 3.0327074 1.2946802 4.5912776.6386607 3.1153286.82346 6.3313971.5572911 9.5005382" fill="#d4b6a1"/><path d="m36.7992225 16.1483058c-.1913088-2.7168984-14.2810817-1.9475786-13.2012172 3.548909 1.0800454 5.4964876 2.0346008 12.8303921 3.3538726 13.6402978.1112051.0681263.2538731.1451308.4222176.2293827.2092102.4649258.5345077.8689727.9999416 1.1083207.4061245.2087273.8419037.3038505 1.2964884.3042129.3077577.0001812.6234716-.0750114.9192952.0327948.31264.1139666.5932745.3476978.9001282.4843128.4184204.1862601.8207477.2647141 1.2771405.3054812.028389.0023554.055693.0045296.0831778.0067039.8482325.3257741 1.3427786.6694858 2.0892088.8292927.7118932.1527406 1.5136547-.0760985 1.5758572-.699744.294377-2.9560653.9151363-10.8275515.2838893-19.7899645" fill="#e3a780"/><path d="m41.2365761 63.2424927c-6.2065087 2.8640223-12.7623641 4.9117973-19.668651 5.6658974-3.9073665.4408279-7.7342675.2676131-11.5537548-.01069l-.1974568-26.0430888-.22367589-1.3188598-1.23428587-1.9229372s3.41336276-1.8640515 5.94088226-3.224222c1.8555877-.9983401 7.5048053-2.1662713 14.1574-.938186.1710569.0313453.3431988.0646837.5153406.0996528 2.2524903.4542357 4.6096762 1.1867746 6.9670429 2.2947328l4.892119 18.6742151s.1782897 2.7812199.4050396 6.7234857" fill="#f1f2ff"/><path d="m35.9397972 47.9898846 2.8309375 16.2501148s3.763252-.5625855 6.53705-.6276316c2.1553893-.0505512 3.5066666-.9242347 3.5066666-.9242347s-5.8757867-16.5327665-7.5782188-18.9278769c-1.7022512-2.3951104-3.7408301-5.4115109-5.8575236-6.1659734-2.116332-.7541001.5610883 10.3956018.5610883 10.3956018" fill="#f1f2ff"/><path d="m8.1855069 92.956701c18.0989417 11.850714 33.7911344-.9367184 33.7911344-.9367184l.0276657-10.6992711c-.0365259-1.206524-.1041531-2.606918-.1582186-3.9377362-4.2731679 2.8533322-8.9202741 5.0264886-14.2751147 6.1596318-6.1587719 1.3714041-14.0508963-4.467708-19.927587-5.4167653z" fill="#f1f2ff"/><path d="m41.929447 78.9087144c-.1768432.2212293-.3609193.4330368-.5522281.6350603-2.6530095 2.817276-6.5972635 3.857108-11.546522 4.9038251-6.1589527 1.3708605-14.3608239.1059943-20.23769545-.843063l.42113265-14.7067642c3.8194874.2783031 7.6463884.4515179 11.5537548.01069 6.906287-.7541001 13.4621423-2.8020563 19.668651-5.6658974.0869751 1.5163536.1889582 3.4045029.2929305 5.4218386.0330902.6471998.0663614 1.3070827.0994516 1.9733071.0323671.6499176.0645532 1.3043649.095112 1.9562756.0573204 1.1644886.1110243 2.3215485.1611118 3.4305939.0126575.2951536.0260382.5870457.0385149.8744083.0267615.6209277.0520765 1.2213813.0760502 1.794838.0029687.0779104-.021623.1541901-.0702639.2148877z" fill="#f1f2ff"/><g transform="translate(2.89314 86.805155)"><path d="m.64609242 17.2476396c.4594668.5094977 5.33133383.2253966 8.13587146 1.0885712.10216401.030983.20523213.0617848.3104701.0936737.22765395.0683075.46163665.1353467.70321385.2003928.18389521.0521818.37213017.1023706.56343907.1514723 4.2455022 1.1070523 10.2767951 1.9309094 17.4373167 1.2818977 3.0321916-.2750418 5.4633333-.7223924 7.3617757-1.3375221.1309145-.0413106.2583935-.0840708.3838835-.1288239 3.7755477-1.315055 6.4770173-.6903224 6.3086727-3.3447113-.9124241-14.37935945-2.6213657-14.61399656-2.8267787-15.17658207-.2052321-.5627667-4.332658 5.29736312-16.8438613 5.12378601-12.51210748-.17375829-15.54014018-3.96853796-17.30549808-4.47803569 0 0-6.71913694 13.76259905-4.228505 16.52588135" fill="#62625a" mask="url(#e)"/><g fill="#464646"><path d="m36.3800065 5.10102893c.5355926 2.02929394.9068186 4.09482528 1.2854583 6.15800117.1773857.9660889.3428371 1.9356203.4679654 2.9100438.1200654.9336564.3542289 2.0847371.0772107 3.0037174-.0296547.0985657-.1730459.1009211-.2017965 0-.2580319-.9057536-.1808213-1.9635231-.3001633-2.9017092-.1323611-1.0383824-.3251166-2.0669808-.5025022-3.098297-.3448262-2.00573962-.7064687-4.00767433-1.0169388-6.01921195-.0188054-.12266357.1573145-.17901271.1907664-.05254422"/><path d="m34.8253777 14.7821562c-.0213369 1.3290063.144657 2.6342772.332892 3.9440777.1307337-.0414918.2583935-.0840708.3838835-.1288239-.0808271-1.292769-.18715-2.5779281-.4712202-3.8482299-.0318245-.1416882-.2433854-.1045448-.2455553.0329761"/><path d="m34.1960294 9.99396464c.0182629-.13444072.2124649-.10871217.2466402 0 .1412214.44553876.1404981.92876436.1940212 1.39115346.0602134.5189195.1166297 1.0383825.1858842 1.556396.0186246.1396951-.2159006.1699534-.2457361.0331572-.2010732-.9265901-.5097351-2.0294751-.3808095-2.98070666"/><path d="m33.5822316 6.15666039c.0094027-.1402387.2007116-.17104049.2455553-.0333384.2766565.8517599.328733 1.77943713.4657955 2.66163643.0269424.17357711-.2196978.25203106-.2692428.07446784-.2419388-.87060334-.5034064-1.79157665-.442108-2.70276587"/><path d="m9.7955755 18.6302592c.18407604.0521818.372311.1023706.563439.1514723.0330903-1.5409951.0023507-3.0872446.0744984-4.6249784.0160931-.3357394.0341752-.6703917.0542464-1.0061311.680792.0895063 1.4199893-.0606977 2.0611814-.2226788.8294271-.2110828 1.6217858-.5455539 2.3801502-.9398168 1.7017088-.8845547 3.2032485-2.09415884 4.7644592-3.1950508.1457419-.10327657.0032548-.33465232-.1488159-.23663017-1.4675453.93564946-2.9396111 1.90554327-4.4624877 2.74951207-.7966985.4424586-1.6302844.8173344-2.5108839 1.0572259-.6829619.1864414-1.3644772.2056472-2.0505131.278122.1157256-1.7435621.2913031-3.48259452.5274556-5.21437947.0309205-.23028863-.3167988-.31979499-.3562178-.08533906-.2999825 1.7797995-.75420547 6.31418433-.77319171 6.62655063-.09583526 1.5324793-.18823492 3.1073564-.12332009 4.6621217"/><path d="m8.78200005 18.3361746c-.20432802-1.7529838-.09999416-3.5956552.04050396-5.3316074.16581309-2.0374474.50937347-4.05152164 1.01115245-6.03153272.02784647-.10871218.18931984-.063959.16707884.04475317-.40630536 2.00755151-.68495091 4.04101275-.8337668 6.08371455-.12765981 1.7808866-.04574778 3.5519891-.07449836 5.3285273z"/></g><path d="m29.3431667 7.93774632s-6.6233017 1.90572444-15.43002.05381253c-8.80689917-1.8520931-9.9250978-3.72937118-9.9250978-3.72937118l.88692825-3.54075555s13.77478225 6.22667103 21.91535505 4.24974012c8.140392-1.97693091 12.2336427-4.89530926 12.2336427-4.89530926l1.3208993 3.03977361s-4.0617878 3.2164309-5.359542 3.62718173c-1.2977541.41093203-4.3221704 5.19499248-6.0802954 7.29060088-1.0496674 1.2510959-2.4741772 2.5853567-3.4522394 3.4575907-.578628.5160205-1.4805644.3899144-1.8948259-.2659824l-.6505949-1.0302291c-.3180646-.5035185-.2395881-1.1617708.1880541-1.575783 1.5762189-1.5252318 5.2161507-5.11164645 6.247736-6.68126908" fill="#2e2c2b"/><path d="m24.1618602 9.24993851-.0014465-4.22038783-1.6827226.06015407.1437529 4.34576921z" fill="#62625a"/><path d="m10.415919 2.53380903-1.14514102 5.06526263-1.50425201-.68977876 1.45470698-4.86070255z" fill="#62625a"/><path d="m36.9853419 3.55688119c.2283772.55098955.3894889 1.4324641.2218676 2.15503769-.0086794.03732452-.9279746.50822942-1.3556169.67890754-.5198611.20727788-.808271.25275581-1.3274088.43557345-.2757524.09693502-.3507933-.11161117-.0645532-.24895088.5135324-.24623308.828523-.40459048 1.342417-.64828694.2934729-.13933277.4533189-.15962571.7489616-.33012264.0688929-.33265926.1225968-.81352945-.1990842-1.48229051-.6871208.36382341-1.6310077.71206475-2.2779861.90466648-.1379667.04112944-.1627392-.10943692-.0215178-.18770969.4453628-.24641426.8845776-.48431274 1.3380773-.70608558.1994458-.09747858.6095484-.27866554.8106217-.37306394-.1515282-.42760123-.3372317-.72819039-.8145998-.97750365-.3488042.16705438-.7142439.28681896-1.0623248.42216562-.6679537.26000328-.6679537.26000328-1.21096.42180324-.1768431.05254421-.2242183-.08280244-.0611175-.18028103.5621732-.33592062.64734-.34806015 1.2312119-.62255839.3562178-.16741675 1.3876223-.62165246 1.513293-.57581215.5565679.20256702.9585335.75881098 1.188719 1.31451138" fill="#c2c3c4"/><path d="m7.69636733 6.60361238c.02242183-.06395899.08227367-.08388956.14158304-.05779864.21481565.09439841.2952811.41600526.42004777.60389614.12512831.18789088.294377.3598373.53848569.21833028.13398855-.07809157.23217449-.21543129.32529743-.33555824.06491483-.08370838.20215817.02464142.14610358.11306066-.19655271.31055445-.52673231.6961203-.94081298.50732348-.18841575-.08588261-.31426734-.28790607-.42420666-.4542357-.11265164-.17049693-.28009212-.38502229-.20649787-.59501798" fill="#464646"/><path d="m22.6165799 9.00752848c.1866075-.09602909.3999766.04801455.5954444.05852339.2849743.01558208.541198-.03967994.7753615-.20727788.0889641-.063959.1819062.07175003.1128325.14621787-.2173472.2348183-.52402.40332218-.8491366.41111321-.2316321.00543561-.6592743-.04131062-.6741017-.33954436-.0012657-.02663448.0159123-.0568927.0395999-.06903223" fill="#464646"/><path d="m30.2059553 9.69794139c.1602076-.08171532.2466402-.25764786.271051-.43955956.0591286-.10690031.047556-.24949445-.0354409-.34769778-.0023507-.00326136-.0048822-.00634154-.0075945-.00905935-.0227835-.02482261-.0500875-.04674623-.0826353-.06395899-.285336-.14821093-.5534939.12574375-.5811596.39679944-.02423.23644898.1343502.61766634.4357793.46347624" fill="#6d6461"/><path d="m27.4042927 12.9081757c.1676213.1886156.3799054.1074439.4844201-.0953043.045567-.0886005.0755833-.1808246.0893257-.2744983.0421314-.0989281.0569587-.2052848.0502683-.3257741-.0032547-.0643214-.0461094-.1433189-.1169913-.154009-.2274732-.034969-.46236.0469275-.5771815.2592786-.1007174.1864414-.069797.4326744.0701587.5903071" fill="#6d6461"/></g><path d="m46.6276713 60.6335092s1.3388006 2.6928006 4.0894535 12.2418969c1.1276013 3.9143631-.9556403 8.2403829-2.2098165 8.4309916-1.2966692.1971314-6.4231326-1.6806902-6.6222168-3.5106785-.2562237-2.3570612-.4860475-11.4607999-.4860475-11.4607999s2.4190267-4.0430058 3.4345189-3.2648079z" fill="#f5c0a2"/><path d="m30.3763612 49.7226661c-.1343502 1.5917274-.3959985 3.1656985-.6916413 4.7340529-1.2785871-.7325389-2.6620505-1.3027343-3.9605279-2.0073704-1.291787-.7011935-2.5597056-1.4536629-3.7898326-2.259039-2.5096182-1.6411914-4.8776533-3.5085042-7.063059-5.5626208-.7115316-.6689423-2.0534061-2.0461443-3.277566-3.3371014-.2632758-.2783032-.5214885-.5520767-.7659589-.8142542-.5393898-.5772617-1.01603458-1.097087-1.34928815-1.4741371 1.21475715-.661876 3.20035535-1.7408443 4.82123705-2.6136219 1.8555877-.9983401 7.5048053-2.1662713 14.1574-.9381861.023326.0601541.0448437.1203082.0672655.1804622.5439104 1.4947925.9746266 3.0327074 1.2946802 4.5912776.6386607 3.1153286.82346 6.3313971.5572911 9.5005382" fill="#f1f2ff"/><path d="m35.169354 16.311356c.2652648 4.7755447-.2768373 5.4263682-.1766624 7.608584.1459228 3.1695034-1.8792752 7.3694171-3.7824189 10.783523-1.3952168 2.5036414-7.8429411-.4882988-12.3687162-3.4865806-1.4053428-.9311198-2.3644187-3.4356672-2.698938-4.1038847-1.3708059-2.7393656-3.9914484-9.3305848-2.152677-15.9973589 1.8387713-6.66659302 7.37154-8.42609958 10.9762117-7.80680255 3.6046716.61929702 9.771038 5.21909035 10.2032008 13.00251975" fill="#f5c0a2"/><path d="m26.9644088 32.5662541s-.7426329 2.6942501-.8768022 4.1627704c-.1341694 1.4683391-4.0961439 4.8355176-7.7017197 1.9718577-3.6055758-2.8634787-4.1389984-12.7097216-4.1389984-12.7097216z" fill="#f5c0a2"/><path d="m27.2474483 35.251318c1.4713426 2.7121876 5.0355811 16.0115686.9428277 18.7455892-4.0927535 2.7340206-14.7870453-10.8532664-17.1916063-15.8507651 0 0 3.9021227-1.9570004 7.0082701-2.6752255 3.1059667-.7182251 4.1753436-.4587654 5.2335096-.5140274 1.1719025-.06106 3.9502211.1897028 4.0069989.2944288z" fill="#f5c0a2"/><path d="m44.6977842 50.2150779s.7090001-1.4041989 1.4198085-1.5871978c.7106275-.18318 5.6575353-.0837084 6.2144648.2672508.9113391.5745438.5471651 1.1354987.3227659 1.5821245-.2243991.4466259-6.1025364 10.6072282-6.1025364 10.6072282s-.4008808.9794967-.980232.9979777c-.9881882.0318889-6.2842619.0344256-6.2842619.0344256s-.8511256-.441915-.0625641-1.9097106c.7887423-1.4676144 5.1772741-9.4990887 5.4725552-9.9920984" fill="#464646"/><path d="m45.8791256 50.1917229c-2.0300802 3.61776-4.1118753 7.1963836-5.8564387 10.9529328-.0605752.3241435-.1186188.6504612-.1658131.9789532 1.5075068.0175751 4.9149024-.0152197 5.7152173-.0411295.5793513-.0186622.9804129-.9979777.9804129-.9979777s5.8777756-10.1606023 6.1023556-10.6072282c.1227776-.2444212.2824428-.5162016.2553196-.810268-2.006031-.2442401-3.4878611-.1016459-5.4884675-.2386233-.6672304-.0458403-1.2147572.1791939-1.5425861.7633407" fill="#2c2c2c"/><path d="m26.322186 35.2141747-.2632758 1.0307726s-2.1080141 1.2655909-3.626551-.0543561c-1.5183561-1.319947-2.1978823-4.0959124-2.1978823-4.0959124s1.8894012 2.0010288 6.0877091 3.1194959" fill="#db9f7c"/><path d="m17.9564582 83.7757055c.1851914-7.7347697.1860898-12.8609798.0026951-15.3786302-.371566-5.1008753-1.5224043-7.9991049-2.0448283-9.0146997-.9092049-1.7673393-1.8185648-2.6510089-2.7280795-2.6510089 1.3632188 6.0097998 2.0443016 12.0197194 2.0432484 18.0297588-.0010533 6.0100394-2.0482049 10.2527795-6.14145489 12.7282203z" fill="#d9daf0" transform="matrix(.9961947 -.08715574 .08715574 .9961947 -6.23311 1.459025)"/><path d="m3.82742538 72.4099549s5.196622 15.0829084 7.70533602 17.3274525c2.5088949 2.2443628 3.5840581 1.0773376 6.6303538-.9876501 3.0464764-2.0649878 20.1595806-20.5594655 21.7723254-21.4572468.8598051-.478696 3.1037968-1.7930262 5.1669673-3.6112373 1.8069468-1.592271 3.3549575-4.0747135 3.8869337-5.2538783.6364908-1.4116276-2.9081482-2.6607305-2.9081482-2.6607305s-2.5271579 2.0059209-3.9952456 2.3682948c-.3524207.0869697-1.4834576-.408939-1.4834576-.408939l1.1923353-2.2372966s-1.9787269.5363134-2.6358314 1.0601249c-1.0344783.8245819-2.3593557 2.7781397-2.643245 3.9803151-.2685196 1.1380353-.6712085 2.3311515-.6712085 2.3311515l-18.8460951 12.7816528-4.5697147-13.8260145s-9.138887 3.3217005-8.60130542 10.5940015" fill="#f5c0a2"/><g transform="translate(3.254783 .049102)"><path d="m35.7957008 54.5891485c-.198361-.7376121-.4699545-1.4551125-.7529397-2.1635535-.57465-1.4382621-1.1744341-2.8917438-1.1597876-4.4678892.0018082-.1741207-.2649031-.1737583-.2694236 0-.0397807 1.4976914.4544038 2.9127616.9702868 4.2968487.2668922.7167756.5507815 1.4286592.7650547 2.1637347.2106568.7222112.2372375 1.48374.440119 2.2001532.0285697.1011024.1811829.1047261.2077636 0 .1647281-.6446632-.0327287-1.4029306-.2010732-2.0292939" fill="#b7b9d5"/><path d="m28.168371 3.16796339c-1.5953859-1.21558331-3.5341514-2.45635161-6.7529505-3.01168964-.8070053-.13933277-2.5360181.36726597-2.5360181.36726597s-2.4175802-.28337641-3.4014286-.11577847c-1.5125698.25746667-2.9363563.54029951-4.4102304 1.45801146-6.13273359 3.81905872-5.40745955 9.09558539-7.4124056 15.15067229-2.4094432 7.2761059-3.61280864 11.7146429-3.61280864 11.7146429.15713367.3832104.33560425.7584486.53251859 1.1258957.08010381.7747555.25550043 1.5212457.74588767 2.1840276.38008627.5133027.83449008.9164437 1.38545244 1.2409495.41950531.247139.9060953.4219845 1.15779848.8635371.31010845.5442856.50865019 1.1072335.93267603 1.5844799.44518192.5008008 1.0362866.792693 1.65234461 1.0237063.48369685.1813682.96847863.3167149 1.43463582.4884801.59526357.3975242 1.18691071.7673268 1.76210311 1.1085018.45349969.4286884.89018299.8494045 1.49973149 1.0749822.2146348.0795411 2.0441843.7970415 2.6537327.8742271 1.0836618.1369774 1.756136-.0693946 1.6774788-.9907303-.3831603-4.4832901-2.4542869-11.6294849-2.4542869-11.6294849s-1.2476667-6.4267015 3.9708347-8.0437951c9.2775769-2.8750747 10.6727937-8.1255104 10.6727937-8.1255104s1.8778287 2.8018752 3.3104755 3.9522312c1.5944818 1.2804482 2.6072616 1.2210189 2.6072616 1.2210189s1.4340934-8.29655086-5.4155965-13.51564121" fill="#e3a780"/></g><path d="m18.3155475 21.8285351s-1.8715-1.7741827-3.2399552-1.0213509c-1.3686361.7528319-1.6575885 4.1227281.6744632 5.9085068 1.6483666 1.2623295 3.4410285 1.1275264 3.4410285 1.1275264z" fill="#f5c0a2"/><path d="m31.551175 25.8121841c-.159846-.3799491-.3110126-.7638842-.4585627-1.1487253-.2835277-.7388805-.5005132-1.503127-.7974217-2.236753-.069797-.1723088-.2996209-.053269-.2826237.1034577.0858901.7921494.3213194 1.5663613.5628966 2.3228168.1081311.3388196.2271115.6731096.3544097 1.0052253.0951119.2480449.17395.527254.3137248.7595357-.1923938.0818965-.3752041.1887968-.573565.2725052-.3620041.1529218-.7326877.2424281-1.1272397.2105392-.2972701-.0240978-.3761082.4227092-.0949311.5136651.8265339.2672507 2.2819642.2020234 2.4597115-.878938.0133807-.0809905-.251884-.674559-.3563987-.9233287" fill="#db9f7c"/><path d="m31.1882848 30.0705125c-.9469609.129911-1.8469083.4161864-2.8141212.3187078-.9482266-.0956667-1.8375055-.4725356-2.6430642-.9695314-.1162681-.07175-.2781031.0826213-.1913089.1983997.6442661.8610005 1.6035229 1.4194187 2.6620505 1.5984314 1.0704618.1810058 2.3640571.0471086 3.1459282-.778198.1171721-.1237507.0358026-.3946252-.1594844-.3678095" fill="#db9f7c"/><path d="m15.0395727 23.5834395c-.0132-.7979473.5943594-1.4690638 1.2530912-1.8314377.263095-.1447684.49979.2710556.2656265.4475317-.389489.2935229-.7813287.8019335-.7513123 1.3210342.0300163.5201877.5996032.9004992.9362924 1.2322525.1849802.1822741.0844435.4799642-.1900431.4696366-.7437178-.0273593-1.5019014-.9133635-1.5136547-1.6390173" fill="#db9f7c"/><path d="m11.7828553 42.1290844-.189139-.8385333c-.2632758-.2783031-.5214885-.5520766-.7659588-.8142541-.5393898-.5772617-1.34928823-1.4741371-1.34928823-1.4741371l-.02423005-.0279028s-.13435019.0771856-.20432802.1175903c-1.94961475 1.1195542-5.12230445 3.0506448-6.5970826 4.549061-1.95413528 1.9850843-2.01778436 8.8881263-2.03749388 8.9868731-.36833289 1.7903084-.38261777 3.6154046-.26526477 5.430898.11843792 1.8154933.30830023 3.6324361.26074424 5.4531839-.04846009 1.8816265-.5777239 3.7096218-.6091868 5.5905236-.01880541 1.1249898.13073377 2.2543281.3887657 3.3488786.1166297.4937344.26978531.9981589.45530791 1.4705133.0110301.0284464.02567662.0800846.042493.1483921 5.406013-.4578594 10.4737094-2.5402411 15.2627603-5.1743371l-1.279672-13.0349523z" fill="#f1f2ff"/><path d="m17.4646027 26.4468639c.0050629.3047564-.2372375.5557004-.5411981.5609548-.3041413.0050732-.5547596-.2377173-.5598226-.5424737-.005063-.3045753.2372375-.5557004.5411981-.5607737.3041413-.0050732.5547596.2377173.5598226.5422926" fill="#fff"/><path d="m19.0414906 18.9051379s10.046248-4.3879858 10.8961078-7.2761059c0 0-3.9925332 3.1615312-5.4398265 4.1279825-1.2767789.8526658-5.4562813 3.1481234-5.4562813 3.1481234" fill="#f5c0a2"/><path d="m46.7080102 55.038474c.6482442-1.1286135.9634157-1.8461139 1.6814569-2.9111308.2059554-.3058436.7346767-.609513 1.0603358-.4372042.1813637.0958479-.0777531.8349095-.8124299 2.2423698-.3048646.583422-.6178662 1.368324-.9863799 2.0876362-.1016216.1980373-.5430063.8515787-.68694 1.0374765-.3207769-.2728675-.5374007-1.0648357-.8829502-1.2909571.267073-.2976901.5638007-.6490117.6269073-.7281904" fill="#f5c0a2"/><path d="m47.0232178 56.8806019c.1092161-.1645178.5281789-.6211089.5281789-.6211089.4466285-.9137259 1.1136781-1.8171241 1.6127448-2.8341265.2090293-.4265141.566513-.5346827.6571044-.5499024.5518665-.0942172.3784589.5301531.2338019.898325-.3934671.9997896-.7858492 2.0883609-1.3369924 2.9647622 0 0-.0001808 0-.0001808-.0001812-.0611176.1067191-.2173471.3257741-.3674288.5374005-.2969085-.2406163-1.0086209-.1887968-1.327228-.3951687" fill="#f5c0a2"/><path d="m48.0297413 57.5427134c.3573028-.6915907.6227484-1.3755714 1.106626-2.1209746.1688871-.2601845.5464419-.6841619.8782489-.7968602.3800862-.1290051.3620041.3004079.2607442.6894163-.2291005.8793004-.6357675 1.8410407-1.0404455 2.6556573.0001808 0-.0773915.1538277-.0773915.1536465-.047556.0873322-.1103009.1993057-.1681637.3038506-.3603768-.2313758-.7334111-.4410091-1.1163905-.6319801.0817312-.1282804.1499009-.2395292.1567721-.2527558" fill="#f5c0a2"/><path d="m52.1895161 50.4143292c.0602135-.1804622.0808271-.311098-.1057804-.3458859-.2319937-.0433037-1.0241716-.0983845-1.1597875-.0337008-.1728652.0828024-.2287389.2625399-.4182396.7381557-.0650957.1639742-.0092219.3364642.1623775.375057.1893198.0423977.8042929.035875 1.0424345.0291711.1343502-.0039861.3099276-.255836.4789955-.7627971" fill="#130806"/><path d="m51.1849275 50.6567211c-.0683505.1451308-.1900432.2311946-.2719552.1926017-.081912-.0385928-.0931229-.1877097-.0247725-.3326592.0683504-.1451308.1900431-.231557.2719552-.1927829.081912.038774.0929421.1877096.0247725.3328404" fill="#a49f93"/><path d="m51.8389941 50.7059134c-.0683504.1451307-.1900431.2313757-.2719552.1926017-.081912-.0385928-.0931229-.1877097-.0247725-.3326593.0683505-.1451307.1900432-.2313757.2719552-.1926017.081912.0385928.0929421.1875285.0247725.3326593" fill="#545050"/><path d="m44.4064269 51.2482422s-1.3044445 2.1398179-1.2966692 2.3791659c.0079561.2391668.2482676.2802962.3488042.1532842.2101143-.2659825 1.4339125-2.292921 1.2793104-2.4527279-.1546022-.1594445-.2685196-.1833612-.3314454-.0797222" fill="#3a3a3a"/><path d="m49.6032659 54.9158648c-.1981801.5205502-.3837027 1.0463547-.5762773 1.5692603-.1531556.4169112-.3357851.8542965-.4999708 1.283166-.3804479.5258046-.6540305 1.1298819-1.0189278 1.7417503-.0470135.0788163.0947504.165786.1591227.0927677.2189746-.2482262.3563987-.5678399.5167872-.8561084.1160872-.2085462.3724918-.6334296.3846068-.6513671.2894948-.4333992.4229409-.9930857.5849567-1.4844648.1822679-.5542509.3526015-1.1166552.4902064-1.6837704.0065096-.0268157-.0309204-.0362374-.0405039-.0112336" fill="#dd8c5d"/><path d="m47.6431997 56.0065197c-.185161.3179831-.3639932.5941121-.5299871.901224-.1873308.3464294-.4940037.9566671-.6522223 1.317048-.0520765.118315.0978243.2090897.1741309.1020082.2272923-.319795.4520531-.9550364.6250991-1.3065391.1553254-.3158089.2762948-.6359663.4392148-.9809462.0128383-.0275405-.0379725-.0641402-.0562354-.0327949" fill="#dd8c5d"/><path d="m46.497697 62.3648774c-.4205902.3279484-.7739149.753919-1.1646697 1.11738-.3938287.3661789-.7988683.7209429-1.2165654 1.0597625-.8636023.70065-1.7919386 1.3255638-2.7378145 1.909167-.1267557.0780916-.015189.267432.116268.1993057.9941553-.5156581 1.9194176-1.1298819 2.8007404-1.8207478.8352134-.6549908 1.8228591-1.4070979 2.4098048-2.3041545.0895066-.1367962-.0985475-.2456895-.2077636-.1607129" fill="#dd8c5d"/><path d="m16.7289495 75.7511149c-2.0420144 1.3398776-3.3392261 3.6777329-3.8100847 6.0391426-.0446628.2244906.2958236.3216068.345007.0951231.5147981-2.3784412 1.8597466-4.3115249 3.5927375-5.9684796.0853476-.0815341-.0262191-.2322817-.1276598-.1657861" fill="#dd8c5d"/><path d="m25.6944288 9.6105368c-.439034.25855379-.6910988.7631595-1.0220017 1.1441956-.3538672.4074895-.7379315.7885257-1.1480341 1.1393036-.8565503.7325389-1.8243056 1.2690335-2.8439567 1.736677-1.8440151.8457808-3.9317773 1.7078683-4.7239552 3.7431414-.0791997.2038354.2658072.3433493.3569411.1438625.9679362-2.1200686 3.4104697-2.6313782 5.3195805-3.5487278.9328568-.4482565 1.7957358-1.0231628 2.573448-1.7069623.3876808-.3409939.7511315-.7089846 1.086555-1.1014356.3137248-.3667224.7214768-.7691386.7901888-1.26088001.0305588-.2181491-.177024-.41383102-.3887657-.28917439" fill="#f0b088"/><path d="m24.3668754 24.5288187c.0417697.0543561.2475443.2650766.4486175.2650766.3743-.0001812.5844143-.2130759.6308853-.3127287.217528-.4661941.3518782-2.0126248-.5164255-1.9078987-.7599917.0916806-.954917 1.4458719-.5630773 1.9555508" fill="#2c2c2c"/><path d="m33.3201855 23.3828656c.0417697.0545373.2477251.2652577.4487983.2650766.3743-.0001813.5842335-.213076.6308854-.3125476.2175279-.4663752.3518781-2.0128059-.5164255-1.9080799-.7601726.0916806-.9549171 1.4460531-.5632582 1.9555509" fill="#2c2c2c"/><g fill="#f0b088"><path d="m30.4672962 8.64399497c-.2052321-.46456337-.4506065-.91354465-.6932687-1.35962694-.4916529-.90339818-1.0263414-1.78559748-1.6398679-2.61162883-1.0659413-1.43500072-2.3466982-2.78321288-4.0901767-3.3387321-.1515283-.04837691-.2813579.16506132-.1585803.27304875 1.2887131 1.13169375 2.5550043 2.31593171 3.5471705 3.72520388.5354118.76044167 1.0075361 1.56400583 1.4434961 2.38496394.2262074.42578936.4325244.86190637.656562 1.28842047.2175279.4140122.4223984.91227634.7985066 1.20598036.2153581.1683227.5500583.0748303.5565678-.23101334.0103069-.47706526-.2321744-.91064565-.4204094-1.33661619"/><path d="m9.12015387 25.4282127c-.36616303 1.4851895-.99524017 2.8817786-1.466822 4.3332673-.44518193 1.3692298-.79814501 2.8236176-.44735178 4.2524579.03327111.1353467.24374705.1063568.24211966-.0327948-.01717802-1.4908063.22060192-2.9355911.6610825-4.3573652.42619569-1.375209.93701573-2.7221529 1.21620375-4.1388537.02603826-.1331839-.17214184-.1911522-.20523213-.0567115"/><path d="m8.72495094 29.0247013c-.24627854.9285832-.42619569 1.8716613-.53288023 2.8266978-.10451468.936193-.19944584 1.9347143-.04665188 2.8692767.03507932.2148877.34283709.1435.35730279-.0483769.0688929-.9101021.01392324-1.823828.09927087-2.7357419.08896406-.9490573.25803193-1.8863375.49020642-2.810391.05985183-.2380796-.30396053-.3391819-.36724797-.1014647"/><path d="m13.2562592 37.5400536c-.8136956-1.596076-1.162319-3.3771438-1.4203509-5.1361068-.2800921-1.9095293-.377374-3.8531218-.3808096-5.781857-.0003616-.2523934-.366163-.245146-.386415 0-.1634624 1.9876209-.0757641 3.964733.1976376 5.9391273.2509799 1.8125944.6871208 3.6056205 1.6272105 5.1911876.1388707.2342747.4851434.0279028.3627274-.2123511"/><path d="m15.4734352 39.2824742c-.4466285-1.0911079-.9650431-2.1465219-1.3650197-3.2573792-.4017848-1.1152057-.6887481-2.2579518-.8818652-3.4273325-.0287506-.174483-.2922072-.1000152-.2645415.0730184.3625466 2.2766141.9814978 4.7750011 2.2966107 6.702468.0696162.1020082.2687004.040767.2148157-.0907747"/></g></g><g fill="#2c2c2c"><path d="m57.7577485 38.6296644c-.4261895-.0265499-.826664-.0148412-1.2215973.029318-.3924123.0485178-.7782732.1231893-1.1404396.250166-.3641823.1192275-.7041657.2912443-1.0017936.5194372-.2961154.2310988-.5377726.5295111-.7279987.8986283-.0185754-.4116963.1545145-.8403853.4516587-1.1673862.2936151-.3337811.6946394-.5619957 1.1102731-.7069047.4206757-.136676.8625192-.1977974 1.298796-.170281.4322424.0246111.8669902.1276869 1.2311014.3470224" transform="matrix(.9945219 -.10452846 .10452846 .9945219 -16.257765 3.6987)"/><path d="m4.77604407 1.03994477c-.42650907-.02703132-.82724099-.01579983-1.2223899.02786674-.39262116.04802523-.77865594.12219418-1.14091893.24866074-.36428929.11872021-.70430163.29022255-1.00186404.51791267-.29604549.23059572-.53751722.52852347-.72744022.89716851-.01906959-.41144016.15363595-.8396369.45059882-1.16606883.29342335-.33321169.69445218-.56080237 1.11019768-.70512648.42080054-.13609082.86287161-.1966532 1.29947589-.16864413.43256379.02510104.86772645.12861673 1.2323407.34823078" mask="url(#f)" transform="matrix(.80901699 .58778525 -.58778525 .80901699 52.967169 33.974959)"/></g></g></g><g transform="translate(133.110787)"><use fill="#f1f2ff" xlink:href="#b"/><g mask="url(#g)"><g transform="translate(14.011662 6.24)"><path d="m22.1853373 7.10838904c-.4662747-.92469964-.4516481-1.96497365-.7443888-2.94034177-.2296375-.76526145-.6799274-1.41306417-1.2858861-1.92896136-1.0546815-.89810916-2.4742963-1.47817943-3.8977768-1.62107709-1.1536199-.45371315-2.4228943-.65523549-3.6673035-.58813117-3.93434331.21230509-7.3563381 2.58723276-10.24602955 5.08391133-.790985.68350096-1.50883705 1.44677336-1.90668025 2.429993-.32042675.79185193-.41758909 1.64557384-.31562088 2.48516302-.1706087.04847-.11837089.304953.04586481.3058952.01295497.072234.02705918.1442586.04293948.2160738.04367081.1972302.34832175.1232165.30454646-.0745371-.01661162-.0747464-.03071583-.1491788-.04367081-.2231925.22368232-.0822839.42730532-.204977.59791403-.38336354.12014697-.12551963.20289167-.26737042.28741246-.4181196.18272787-.32568103.40557439-.53306584.78179114-.62477159 1.06690513-.2602517 2.15648147-.46732245 3.24062509-.640684 2.09536323-.3347888 4.27629201-.45988968 6.35065562.0720246 1.7182062.44062729 3.3736226 1.30973817 4.5255709 2.68668533.6779424.8105909 1.0979344 1.77057 1.4772854 2.7475085.3912612 1.0074023.7874328 2.0118734 1.206798 3.0079695.4756775 1.1299907.968698 2.252758 1.4628678 3.3747925.4290814.974426.8726849 1.9353473 1.549687 2.7655146.1100128.1349415.2832334-.0063859.2663084-.1448867-.1316393-1.0758675-.0006269-2.165135.3994103-3.1738983.3369339-.8497438 1.0773527-1.5772133 1.2427376-2.4872567.1532658-.8437767-.3613812-1.5508322-.5372137-2.3415326-.2403984-1.0804738.5986454-1.7853309.8625508-2.7542084.5137067-1.8860397-1.2383496-3.31909907-2.0003949-4.83056896" fill="#964b3c" mask="url(#h)" transform="translate(15.044491 .087937)"/><path d="m27.8165634 27.853287c.2514728.6620401.6443012 1.3063882.9636832 1.9493753.0129549.0263811.0259099.0527622.0388649.0790386.6690619 1.3783081 1.3037514 2.7709584 1.9006207 4.1739726.3266953.7656802.6420027 1.5343963.9446686 2.3061483.1277737.322017.2515773.6441387.3740228.9664698.0988339.2578439.1596387.5966108.3429935.8234674.2915914.3614839.932445.2439205 1.3330045.1739896.5651087-.0978822 1.0897853-.3042202 1.5830148-.5555735 1.2144247-.6177576 2.231286-1.4885434 3.4519793-2.0994964.9986825-.4993566 2.0751994-.859375 3.1949692-1.0826722.1576537.5018692.313009 1.0049945.4617823 1.508748.0582974.1945083.4064102.1688601.3477994-.0278467-.1519076-.5160019-.3100837-1.0305381-.4707672-1.5438181.4080818-.0716059.8215963-.1245775 1.238872-.1600663.2232644-.0198906.1780265-.3325904-.0453424-.3126999-.43535.0369545-.8652672.0933807-1.2900651.1673944-.4900952-1.541201-1.0155031-3.074341-1.5838506-4.5966984-1.8683377-5.0083273-4.160324-9.8984632-6.8455567-14.623403-1.3618398-2.3961791-2.8248121-4.7495413-4.3840064-7.05411937-.1181619-.17503654-.3927238.00617653-.2787409.1794334-.0221489.02700923-.0325964.06375434-.0204773.11117752.0192236.06909337.0371934.13944299.0550587.20864105.4537377 1.7065016.8267157 3.4415828 1.0871734 5.1855623.2338165 1.5690477.3743362 3.144586.3971119 4.7103884.021313 1.4479249-.102804 2.9117623-.5543477 4.2909079-.4334694 1.3229287-1.2353199 2.4781489-1.9392767 3.685608-.2898154.4996707-.5210199.9619682-.3031882 1.5360713" fill="#ffa57a"/><path d="m32.2501434 16.0852513c-.0903714-1.5543915-.3136358-3.1872982-.7036433-4.8607188-1.3767799.2271707-2.0945275-1.33999266-2.7207544-2.51772061-.5140201-.26370638-1.0455921-.49140045-1.5847908-.70056493-2.5975776-1.00782107-5.4155988-.70475241-8.1177565-1.18306699-.1089681-.01926239-.1944291-.06312621-.2589951-.12290245-1.0437115.27742036-1.9840967.7520709-2.6280844 1.59825535-.4631405.6094873-.7347771 1.41829851-.8648493 2.35608403-.1685192 1.2151012-.0989384 2.6467996.1004011 4.1429852.0120147.0894026.0250741.1798522.0380291.2703017.0616406.4270179.1325796.8585375.2116676 1.2914179.0306114.1673944.0622675.3359404.0949684.5033348.4001416 2.0604481 1.088636 4.2788688 1.5182398 5.9443332.5954067 2.3143139 1.3126319 4.6801338 2.7497986 6.5943343 1.2380362 1.6474582 2.4999974 3.7572139 4.795118 3.5875164.9259675-.0679418 2.3954173-.5639485 3.1033441-1.1431813.9222064-.756049 3.0249874-2.6606183 3.6693931-3.565218 1.14265-1.6052694.9402807-6.3671637.597914-12.1951898" fill="#ffa57a"/><path d="m24.5666922 20.5559695c.0585063.7347975.4380663 1.3039803.8479242 1.271318.4097534-.032767.6946585-.6550261.6361521-1.3898237-.0584019-.7349022-.4380663-1.304085-.8479242-1.271318-.4097534.032767-.6946585.6549214-.6361521 1.3898237" fill="#2e1f44"/><path d="m18.0715572 20.5521903c.0376112.7361584.4009774 1.3159147.8115667 1.2948726.4105892-.0211468.7129417-.6350309.675226-1.3711894-.0376113-.7362632-.4009775-1.3159147-.8115667-1.2948726-.4105893.0211467-.7128372.6350309-.675226 1.3711894" fill="#2e1f44"/><path d="m36.8960493 19.9153797c-.0379246-1.1256986.3659782-.988454.1682058-2.0996011-.0632078-.3549934-.1896233-.6724041-.4686777-.9109856-.3555306-.3040109-.8295365-.4135134-1.1814104-.7255851-.0867148-.0769449-.1995485-.037478-.2504281.0351748-.8632821-2.2363222-2.8827961-4.4181025-3.779197-6.6006156-.027686-1.20546999-.1127292-2.48327865-1.2298871-3.10061747-.8907592-.49234262-2.2010925-.27752505-3.1304033.29804369-1.4983895-.51076753-3.1841038-.61283728-4.6941945-.53568302-2.1626456.10981659-4.7616858.27270945-6.0937501 2.0231796-.4632449.60938261-.7347771 1.4184032-.8648492 2.3559793.4324246.153157.9013112.1649866 1.3776156.0680465 1.0179061-.2065473 1.9924548-.6112669 3.011719-.82922513 2.1037213-.44994442 4.7891629-.67805724 6.8126469.13693053.9534446.3844104 1.8111895.9617588 2.5154597 1.7115266.6568383.699204.5211245 1.7802012.9638922 2.6286888.660286 1.2654556 1.7952047 1.4274062 2.1975404 1.7147719.1170127.0837495.3398592.1600663.6155704.229369.4567675.8766484.9204303 1.759892 1.4908672 2.5498596.7316429 1.0132647 1.7639666 1.9672767 2.7987977 2.6491027.0952818.0627075-.2554429-1.4791216-.2595175-1.59836" fill="#964b3c"/><path d="m22.5691077 25.4556004c-.5428554.1802709-1.1609332.394251-1.7331462.222041-.7736421-.2330331-.8789535-.9313996-.7751047-1.6369895.1831457-1.2444136.5124529-2.4702975.9181318-3.659227.0652973-.1914724-.2307867-.2946937-.2960839-.1034307-.2751889.8069269-.5099456 1.6259974-.692569 2.459096-.1479375.674812-.3882314 1.463628-.2639054 2.156132.2556518 1.4238469 1.8993669 1.2043184 2.9057807.8700531.1889964-.0627075.1286095-.3713246-.0631033-.3076749" fill="#dd6b4b"/><path d="m26.6675822 26.3502444c-1.4280774.561122-2.9404666 1.0433099-4.5397796.7267367-.2204436-.0436545-.2961884.2235066-.1420868.3237966.0025074.0052344 1.114546 1.7432468 2.0967214 1.6567754 1.6755801-.1477133 2.4523564-1.9085474 2.81029-2.4165931.0931922-.132429-.0230892-.3700683-.225145-.2907156" fill="#fff"/><path d="m28.6450238 16.2227576c-.1072965-.3646246-.8121936-.5339033-.8525212-.5396611-1.44051-.2057098-3.0060773-.3786526-4.3671858.2666376-.4536332.215027-.9864589.5853046-1.1217548 1.1053893-.1235947.4752786.2155332.7989706.6727186.8103815.3605454.0090031.7425083-.141118 1.0915613-.2191097.4299173-.0962073.8623419-.1799569 1.297065-.251144.8427004-.1381867 1.727609-.1417461 2.5554739-.3528996.3854106-.098301.8663119-.3380341.724643-.819594" fill="#964b3c"/><path d="m19.5445173 16.8428602c-.1784444-.5080457-.739583-.8314236-1.2099323-1.0087633-.8652671-.3241107-1.7815184-.3355216-2.6880535-.2199472.0616407.427018.1324751.8585375.2117721 1.2913133.0305069.167499.062163.3359403.0948639.5034394.1910859.0056531.3811271.0133999.5687653.0283702.4390066.0339185.8776998.0815511 1.3138856.1415367.3539634.048156.7465828.1666616 1.1052477.1269852.4550958-.0494122.7664332-.4004275.6034512-.8629343" fill="#964b3c"/><path d="m24.8356856 5.27331093c-.8299544.12646181-1.6453867.22926437-2.4645801.18958803-.0209996-.13075398-.2174138-.21188635-.304651-.06762776-.0089849.01423742-.0199548.02742797-.0288352.04177008-.2677711-.02627642-.5367958-.06940743-.806134-.13347583-.9891753-.23826745-1.9320678-.64016057-2.9299146-.84524227-.7986117-.16362567-1.6279392-.18487711-2.3947904.11997123-.861506.34201219-1.6201036.99400239-2.2433007 1.65771752-1.2072159 1.28796328-2.0222303 2.91940439-2.3047324 4.64736687-.1637133.9982945-.0416858 2.0141765-.2012201 3.0094351-.1626685 1.0202788-.7481499 1.9756517-.6382416 3.032885.1598477 1.5432947 1.4224357 2.4293649 2.8224092 2.8284315.3091434.0886698.6254956.1535757.9385046.1963927.623615.4385335 1.4196148.6156638 2.2072566.4499444.0842073-.0176921.1476241-.11369.1227589-.1963927-.2719501-.8729843-.555497-1.7695232-.5464076-2.6910822.0064775-.5885499.1769817-1.1475781.2633831-1.7192734.0395962-.2646486.0607003-.532019.0390739-.8062988-.0368799-.4697302-.1443854-.926584-.2592041-1.3827049-.0777299-.309978-.1574448-.6191185-.2214883-.9307715-.1718624-.840636-.1668476-1.6828424.066551-2.5117535.1532657-.54395327.3959626-1.05294112.7130461-1.51084175.5743026-.83006266 1.3919289-1.48917156 2.3587463-1.87944443.6853602-.27773443 1.3902572-.31165299 2.1050795-.46041312.4100668-.08437766.7807464-.23093936 1.0505025-.52312058.915102.07390897 1.8311443-.06050905 2.7356943-.19754424.2114587-.03255763.130908-.34902622-.0795059-.31751545" fill="#964b3c"/><path d="m34.0115921 14.9757164c-1.4127195-.0715011-2.358015.9554776-2.7726787 2.1304837-.06676.0420842.0938191.3991713.1265199.4692069-.014731.0453294-.0291487.0902401-.0429394.1348367-.059969.1933568.2469804.2579486.306427.0662668.0022985-.0074327.0049103-.0152842.0072088-.0228217.662271.4160259 1.0706663 1.265979 1.5619107 1.8476196.2435327.2884125.4988711.5669844.7663287.8332033.2211749.2201566.4815282.5464657.8002833.6274934.6017797.153157.8946249-.7073696 1.0474727-1.1288391.2389358-.6584808.3308743-1.3692004.2693382-2.0670434-.1022817-1.1611875-.6904795-2.82058-2.0698712-2.8904062" fill="#ffa57a"/><path d="m33.9435889 16.1953087c-.3752764.2085364-.5870485.5608079-.6464952.9854181-.081282.580489.4013954 1.5339775-.1340422 1.9630893-.1567135.1255196.0219399.3837822.1800115.2571111.9696383-.7769864-.4133056-2.2850016.7806419-2.9485074.1760414-.0978823-.0050148-.3544699-.180116-.2571111" fill="#dd6b4b"/><path d="m35.1215934 20.5207004c-.274144.3534231-.7375979.4836536-1.1515304.3055812-.1853397-.0796668-.3209491.203616-.1352959.2833875.5378405.2312534 1.1649033.0795621 1.5260755-.3860854.1236992-.1593335-.1151321-.3628449-.2392492-.2028833" fill="#dd6b4b"/><path d="m21.6879498 8.70875907c-.8183576-1.20264345-2.7624402-1.00614608-3.9587906-.57577811-.3839479.13881486-.7380159.3122811-1.0639798.51840967-1.1279189.71071956-1.916292 1.79841677-2.4364762 3.08428627-.3475904.86105-.7532693 1.8141198-.6714649 2.762374.0711479.8210596.5313631 1.8512837 1.0898898 2.4549085.0071044.0076422.0130595.0141327.0201638.020728.5217513.5308674 1.1140237-.1445726 1.3961079-.6162919.1085501-.1812131.1943246-.3695449.2636964-.5637391.2325628-.6456043.285323-1.3496239.3706796-2.0283093.0747001-.594203.2208615-1.1457984.4550958-1.6519597.2584727-.5618548.6254956-1.0669692 1.1241578-1.513459.9167737-.81969862 2.0702891-1.27686644 3.2569233-1.54004937.0859834.15430853.3148895.05024972.2896064-.10374475.0600735-.09296199-.0027163-.25156269-.1356093-.24737521" fill="#964b3c"/><path d="m22.0254061 6.62427481c-.4462155.93014336-1.1288592 1.68713455-2.0152305 2.21444261-.1729071.10280256-.0267457.38085105.1474151.27721099.930669-.55358448 1.6627297-1.34418017 2.1320342-2.32258421.0864014-.18027089-.1769817-.35091059-.2642188-.16906939" fill="#75362c"/><path d="m31.6679321 8.07256613c-.0875506-.18215526-.3642021-.03454669-.2766515.14771326.6669724 1.38741587.7616274 2.94882141.2742485 4.40847131-.064148.1921005.2347568.2870515.2986959.0954744.5141246-1.5400494.4067236-3.18918257-.2962929-4.65165897" fill="#75362c"/><path d="m33.8072796 9.87682441c-.0292532-.19974266-.3344265-.12771805-.3052778.07150118.1728027 1.18275291.0389694 2.41774461-.8008057 3.32852091-.1362363.1476086.0755358.3793854.2127124.2306253.9231466-1.0010164 1.0840391-2.3256201.8933711-3.63064739" fill="#75362c"/><path d="m31.0715852 27.3801963c-.3674408.9139169-.8667298 1.7499467-1.4995387 2.5043207-.1298632.1549367.1085502.3588668.2385178.2038255.6494206-.7743693 1.1660525-1.6331161 1.543314-2.5715298.075118-.1869708-.2068617-.3243201-.2822931-.1366164" fill="#dd6b4b"/><path d="m27.8557417 21.5969553c-.1765638.576511-.4190517 1.1680968-.9572057 1.4907419-.4165443.249783-.9248183.3430591-1.4044659.33772-.9331763-.0104687-2.0314241-.4174914-2.6350843-1.1560577-.6487937-.7939457-.7513888-2.0757324-.696957-3.0613599.6845244-.652723 1.6180141-.9454276 2.5386534-1.0751347.5049307-.0711872 1.0218761-.0980917 1.528165-.0229265.4920802.0731762 1.2763788.2147129 1.6761025.5504439.2458312.9688775.2447864 1.9768033-.049208 2.936573m-8.4909434.597553c-.5732578.6990993-1.5563734 1.0362959-2.3701341.98814-.4183204-.0248109-.855342-.149807-1.2023056-.4252384-.4483049-.3557261-.6217344-.9612353-.7387472-1.5475868-.1947425-.9762056-.1312213-1.9820377.1450122-2.9334325.3697393-.3098733 1.0623082-.4018931 1.4956731-.4438725.446111-.0433404.8948338.0160171 1.3302882.1188196.7851344.1850865 1.5705822.5307627 2.1244075 1.2096575.0008358.0262764.0068954.051506.0176564.073909-.0206862.9793462-.1962053 2.2209332-.8018505 2.9596041m8.8425039-3.6166193c.0036567-.0373732-.0097162-.0768402-.0481633-.1111775-.0010447-.0010469-.0024029-.001675-.0034476-.0027219-.0083581-.0081656-.017343-.0151796-.0270592-.0209374-.3939776-.332695-.9788322-.4540272-1.468405-.5671938-.5751384-.1329524-1.155605-.1458288-1.7411909-.0847964-1.0538456.110026-2.1537651.421993-2.942765 1.1607687-.5341839-.1654053-1.0855018-.1644632-1.6143575.0074328-.6405401-.8000175-1.5868803-1.1853701-2.5057435-1.3627098-.5063934-.0977776-1.0129957-.1213321-1.5227323-.0248108-.4337828.0821793-.9512506.1665569-1.3158705.4737084-.008776.0052343-.0170296.0116202-.0248652.0192624-.0010448.0009421-.002194.0015703-.0031343.0025124-.0358352.0318249-.0499394.0703497-.049208.1079323-.3451875 1.1811826-.3714109 2.4599334-.0227757 3.6378708.3012032 1.017871.9805038 1.5642321 1.9124264 1.6701752.917505.1043729 1.9998725-.2513533 2.6725911-1.0065648.7001956-.7861988.9120722-2.1259822.9371464-3.2138887.4646031-.1495976.9352658-.1594382 1.4069733-.0209374-.0544318 1.0913612.0861924 2.4579444.8342379 3.2989992.7129417.8016925 1.9235008 1.2343636 2.9790181 1.1962575 1.0724423-.0386295 1.8882925-.5348455 2.3069264-1.5285338.484558-1.1500906.5482881-2.4274805.2403984-3.6306474" fill="#fff"/><path d="m36.9263473 13.5818205c-.6783603-1.8505509-8.1219355 4.2311316-8.968606 4.9019654-.1584896.1255196.0551631.3554121.2127124.2306253 1.3183779-1.0443568 2.6440692-2.0818043 4.0237744-3.0440865.6334357-.4418835 1.2754385-.8761249 1.9380229-1.2730978.3128-.1873896.6329134-.3664042.9688025-.5096159.1731161-.0738043 1.404048-.550758 1.520016-.2342894.068536.1870756.3748585.1182963.3052778-.0715011" fill="#fff"/><path d="m34.2511547 9.86736072c-.5398256-1.94476909-1.1611421-3.86912422-1.8817105-5.75799048-.2573235-.67470725-.5264527-1.38301902-1.1895596-1.7780028-.7585975-.45182878-1.7752499-.5502345-2.629965-.72516636-4.1779804-.85539689-8.4332729-1.35820821-12.70058-1.50079181-2.402626-.08019019-4.8107893-.04920286-7.20975872.10364006-1.61205897.10269788-3.22223738.27668755-4.79877464.60885918.00668644-.03161545.01285051-.06333559.01964142-.09495105.04053655-.19094895-.2615025-.27270945-.302248-.08081831-.0175519.08259799-.03395458.16540535-.05140201.24800334-.5611386.12677587-1.11757581.27448913-1.66795343.44732725-.19108593.05998561-.10938598.35373713.08337155.29322808.50002037-.1569257 1.00630927-.29479839 1.51729958-.41633991-1.73022091 8.285447-2.8101855 16.69672769-3.21074506 25.14213629-.11555005 2.4361695-.17353402 4.8746422-.17813128 7.3134289 0 .1068853.09977456.1625788.19829507.1466664 5.04251629-.8155112 10.07468952.4018931 15.04428182 1.1284204 4.8418186.707893 9.7596954.8428344 14.6332746.3725808 2.7223215-.2626595 5.4222852-.712918 8.0807721-1.3385271.0610137-.0143421.1217141-.0827027.1150276-.1466664-.8448944-8.0427827-1.6980424-16.1371761-3.8711355-23.96503648" fill="#2e1f44" mask="url(#i)" transform="translate(12.4326 87.92027)"/><path d="m69.3152657 67.5875354c-.5578999-1.369305-1.0834123-2.8066565-1.7238479-4.1780553-.0480588-.1046869-.0982071-.2093739-.1483554-.3130139.3217849-.2386862.6404356-.4836536.9528177-.7349023 1.3801231-1.1107283 2.6474125-2.3533621 3.5835141-3.8263072 1.9484705-3.0662802 1.2265439-6.5984171.6404356-9.963055-.3196954-1.834115-.6905839-3.6650894-1.2934083-5.4290642-.5662579-1.6571941-1.3101244-3.2463417-2.0372747-4.8365361-.7898358-1.7283812-1.534747-3.468278-2.0738413-5.294018-.5234229-1.7744435-.913117-3.5855273-1.406242-5.3693926-.7919252-2.8705156-1.911904-5.6457661-3.326504-8.2650331-1.5138519-2.8035159-3.3599363-5.4248766-5.4818363-7.800223-1.77922-1.99428603-3.7517199-3.81479173-5.8851123-5.4248767-2.3998052-1.81213074-5.0106512-3.3677785-7.7698526-4.5643501-.1964142-.08479641-.3938731-.16854596-.5944663-.24915489-.5965559-.24077994-1.2077383-.45957562-1.8293683-.64382462-2.3120457-.68779312-4.7599097-.90763567-7.0719554-.05967155-.6028244.22193629-1.1722166.51401283-1.7029528.87308899-.0407455-.06385903-.1232812-.1057338-.209996-.06281216-1.286095.6239341-2.5774138 1.24158698-3.8687326 1.85923986-.1117889.05339034-.2225331.10678067-.334322.16017101-2.9723316 1.42164849-5.9446633 2.84539073-8.8678915 4.35916372-.7699853.3988572-1.5399707.81655805-2.2953295 1.2614775-2.6672629 1.56925704-5.1590067 3.47560604-6.88494406 6.08021684-2.31622472 3.4944497-2.93263093 7.7384578-3.94395503 11.7238892-.55894462 2.1984255-1.35818319 4.2377269-2.25771837 6.3136687-.42208154.9735884-.81804418 1.9670674-1.037443 3.0087023-.23298066 1.1044471-.248652 2.2361128-.33327726 3.3583567-.10865466 1.4247891-.46700607 2.6632355-1.04684582 3.9634471-.45551374 1.0217445-.88386383 2.0382545-1.01550312 3.1594515-.14835539 1.2667119.03029793 2.5459862.48790119 3.7184798-.01253707.0293123-.01567134.063859-.00208951.10364.37611227 1.121197.96013104 2.1492227 1.55773164 3.163639.51506486.8762296 1.11579973 1.7084907 2.14279518 1.9890517.72297135.1978583 1.48877772.2125144 2.2472708.0931713-.00313427.0209374-.00522378.0429217-.00835805.0638591-.01358184.1099212-.02716367.2208894-.0407455.3308107-.9872947 7.8515196-1.78862279 15.7271173-2.39980522 23.618418-.00626854.080609.07731197.1612179.15671344.1570304 1.94011245-.1151556 3.8708221-.3433731 5.78586039-.6794182.3270087-.0586246.6540174-.1193431.9799814-.1832021.0480588-.0104687.1002966-.0607184.1086547-.1099213.004179-.0198905.0062685-.039781.0104475-.0596715 1.2954978.1716866 2.5920404.3339513 3.8917173.4752787 1.0572933.1141087 2.1156315.2135613 3.1771039.2910296 3.1478507.2292644 6.2800301.1538898 9.4299703.039781 3.0454646-.1109681 6.1149586-.1832021 9.1332596.3119671 1.4334056.2355456 2.8490504.5967155 4.2009651 1.1337594 1.3404223.5318096 2.5418921 1.3002117 3.8060472 1.9827705 1.1492319.6218403 2.6505467 1.3609301 4.0003719 1.1306188.3667094-.0628121.6508831-.2355456.874461-.4710912 1.286095-.7212929 2.662039-1.2635712 4.1006685-1.5964756 1.6078799-.3705918 3.2178494-.3014984 4.8414007-.4962161 1.547284-.1852958 2.7278587-.9830102 4.0379831-1.7566467 1.3989286-.8270267 2.8668112-1.5368041 4.3837974-2.1199103 1.6747443-.6438246 3.4048608-1.1295719 5.1673646-1.4635232.0846253-.0167499.1285051-.1162025.1096995-.1936709-.7198371-2.9417027-1.7739962-5.7808122-2.9169596-8.5801407" fill="#2e1f44" mask="url(#j)" transform="translate(0 30.761207)"/><path d="m22.8001033 92.7254424c-.3015167-.0117249-.6029289-.0235546-.9043411-.0352795-.0247607-.1882271-.3241878-.1860287-.3114418.0119343.0501483.7833723-.1406242 1.5373276-.2213839 2.3115921-.0761627.7306101-.0899535 1.4710607-.1292363 2.2043927-.0042835.0802948.0754314.1631022.1567134.1570304.3599186-.027114.7197326-.0542279 1.0794422-.0812371.0874461-.0065953.1528479-.0667903.1567135-.1570304.0620585-1.4218579.1720713-2.8400517.3302474-4.2543721.0097163-.0867855-.0798193-.1539945-.1567134-.1570304" fill="#524470"/><path d="m40.8482684 93.1965336c-.3015167-.011725-.6029289-.0235546-.9043411-.0352795-.0247607-.1882271-.3241879-.1860287-.3114418.0119343.0501483.7833723-.1406242 1.5373276-.2213839 2.3115921-.0761627.7306101-.0899535 1.4710607-.1292363 2.2043926-.0042835.0802949.0754314.1631023.1567134.1570304.3599186-.0271139.7197326-.0542278 1.0794422-.081237.0874461-.0065953.1528479-.0667903.1567135-.1570304.0620585-1.4218579.1720713-2.8400517.3302474-4.2543721.0097163-.0867855-.0798194-.1539945-.1567134-.1570304" fill="#524470"/><path d="m31.1320348 92.6033251c-.3015167-.0117249-.6029289-.0235546-.9043411-.0352795-.0247607-.1882271-.3241878-.1860287-.3114418.0119343.0501483.7833723-.1406242 1.5373276-.2213839 2.3115921-.0761627.7306101-.0899535 1.4710607-.1292363 2.2043927-.0042835.0802948.0754314.1631022.1567134.1570304.3599186-.027114.7197326-.0542279 1.0794422-.0812371.0874461-.0065953.1528479-.0667903.1567135-.1570304.0620585-1.4218579.1720713-2.8400517.3302474-4.2543721.0097163-.0867855-.0798193-.1540992-.1567134-.1570304" fill="#524470"/><path d="m51.949316 79.9908533c-.0846253-.2344988-.1734295-.4658569-.2611891-.6993087.030298-.0764215.0616406-.1538898.0919386-.2313581.0595511-.1517961-.1264155-.2334519-.2392492-.1612179-2.2901058-6.0037954-5.264527-11.7217955-7.5253796-17.7381533-1.1899775-3.163639-2.1793617-6.4173087-2.7456196-9.754728-.5881978-3.4714186-.6383461-6.9648214-.1149232-10.4477555.4450662-2.963687 1.0249059-5.9116709 1.5963876-8.8575611-2.8156182-1.1358532-5.967648-1.7796778-8.9013236-.7034962-.6028244.2219363-1.1722166.5140129-1.7029528.873089-.0407455-.063859-.1232813-.1057338-.209996-.0628121-1.286095.6239341-2.5774138 1.241587-3.8687326 1.8592398-3.72978 6.42359-7.1659835 13.0733037-9.3568374 20.1920149-1.1941565 3.8828382-1.9944398 7.8965351-2.2180177 11.9583879-.1211917 2.2057536-.0052237 4.4104603-.0282084 6.6172608-.0135818 1.2143684-.0804462 2.4276899-.2601443 3.6294958-.1619372 1.0835097-.3970074 2.154457-.5850635 3.2337793-.2037275 1.1745873-.3479039 2.3606902-.3050689 3.5551681.0407455 1.1117752.2131303 2.2141285.4137235 3.3060132.4367082 2.3774402 1.0165479 4.7632553.7041658 7.1951326-.0104476.0795621.0794015.1633116.1567134.1570304 4.4036478-.3517481 8.8250565-.4585287 13.2391519-.3172014.1044756.0020938.209996.0062812.3144716.0104687 2.9054673.0994526 5.8067555.3067327 8.698641.6218404 2.1542875.2344987 4.3023064.5318096 6.4398778.8846045.0908938.0157031.158803-.0230311.1932799-.1099213 2.0142902-5.0919722 4.0285803-10.1849913 6.0428705-15.2769635.042835.1162025.0867147.2334518.1295497.3496543.0689539.1884365.3719333.1078276.3019346-.0827026" fill="#fafafa"/><path d="m52.9079008 100.433018c-.7171207-2.0027661-1.4453159-4.008463-2.4961317-5.8800559-.036671-.0653246-.1037444-.0750605-.1592209-.0529716-.0211041.0051297-.0419992.0157031-.0611183.0343374-.5019009.4898301-1.0108017.945637-1.6526999 1.2665024-.5788995.2894594-1.2014698.4854333-1.8155775.6944931-.5248856.1787006-1.0517562.3642058-1.5417469.6194326-.251055.1306493-.9063261.422307-.9446687.7428584-.0230891.1938802.171758.4094306.261607.5620641.1768773.3003468.3613812.5967155.5400345.8961201.3800824.63702.6999868 1.2873354.9597132 1.9771174.5342884 1.419136 1.0494577 2.844867 1.5739254 4.267249.0272681.074223.1203559.124054.1979813.076421.9568923-.586142 1.6966842-1.344704 2.3197769-2.24365.7488813-1.080369 1.8164133-1.934824 2.7834397-2.835446.0327009-.030464.0498349-.082284.0346859-.124472" fill="#ffa57a"/><path d="m57.4541265 44.8359252c-.1117889-.8458704-.2622338-1.6791784-.4534242-2.4967833-1.77922-1.994286-3.7517199-3.8147917-5.8851123-5.4248767-2.3998052-1.8121307-5.0106512-3.3677785-7.7698526-4.5643501-.0710434-.0303592-.1420868-.0607184-.2131303-.0900307-.1264155-.0544372-.252831-.1078276-.381336-.1591242-.5965559-.2407799-1.2077383-.4595756-1.8293683-.6438246-.4461109 6.3900902-.8849086 12.7822741-1.1805746 19.181786-.0637301 1.3724457-.1211917 2.7448913-.1702953 4.1173369-.1399973 3.900635-.2131303 7.7405516 1.234902 11.4339064 1.4260923 3.6357771 3.5772455 6.9742433 5.5528797 10.3263187 2.3527912 3.9906658 4.7055824 7.9813315 7.0583736 11.9719972.0720881.1224837.2423834.0868902.2862632-.0366404.8222232-2.330331 1.3905706-4.7381304 1.9693656-7.1375548.5641684-2.3376591 1.0771438-4.6889276 1.2683342-7.0914926.1974589-2.4884083.1180574-4.9862384.0835805-7.4788342-.034477-2.5124863.0501483-5.0145039.2256673-7.520709.3353668-4.7852395.8368498-9.6039789.2037275-14.3871246" fill="#2e1f44"/><path d="m24.0229905 36.010838c-1.7290716.8395891-3.4518748 1.6917407-5.1569171 2.5752984-.7699853.3988572-1.5399707.8165581-2.2953295 1.2614775-.1577582.4145603-.2998451.8238862-.4304396 1.2185559-1.0144584 3.0746551-1.491912 6.3356529-1.9307097 9.5338386-.4534242 3.3049664-.7647616 6.6277295-.9862499 9.955727-.9026695 13.5203168-.4168578 27.102399-2.0351853 40.5777006-.3573067 2.966827-.780433 5.924233-1.2098278 8.880592.3270087-.058625.6540174-.119343.9799814-.183202.0480588-.010469.1002966-.060718.1086547-.109921.004179-.019891.0062685-.039781.0104475-.059672 1.2954978.171687 2.5920404.333951 3.8917173.475279.4690955-3.682886.9935632-7.357398 1.6736995-11.0078308 1.0207269-5.4793138 2.3893577-10.8832531 3.0318828-16.4285197.6477489-5.5902821.8901324-11.2172045 1.5932534-16.803299.5944663-4.7213805 1.3153482-9.4354329 2.0999601-14.1316886.1305946-.7788707.2622339-1.5577415.3959627-2.3366122.8849086-5.1673468 1.997574-10.3367874 3.9700739-15.201589-1.2380362.592528-2.4760724 1.185056-3.7109744 1.7838653" fill="#2e1f44"/><path d="m16.9955313 57.3730538 6.0470495-.3521668c.4975129-.0289983.7940148-.3607512.66248-.7409741l-4.0740272-11.7700561c-.1317438-.380223-.6416894-.6650761-1.1392023-.6360778l-6.0470495.3521668c-.4974084.0289983-.7940148.3607512-.6623755.7409741l4.0740272 11.7700561c.1316393.380223.6416893.6650761 1.1390978.6360778" fill="#524470"/><path d="m58.8363809 78.6397324c-3.3857418-7.7005612-9.0698429-14.3347812-11.1894445-22.5933237-.5883022-2.2923297-.8582673-4.6542762-.6910018-7.0187352.0142087-.2017317-.2992182-.2007895-.3134269 0-.2495923 3.5292058.4440214 6.869661 1.6328496 10.0732904-1.4101075-1.5428759-2.192839-3.5141308-2.9382726-5.4460234-.0719837-.1865521-.375172-.1055244-.302248.0834355.8131339 2.1074525 1.6707743 4.2579314 3.2997583 5.8782757.0473275.0470045.103013.0539138.1514897.0374779 1.7277135 4.4257447 4.3601859 8.5933313 6.7010669 12.6400045 1.223932 2.1160369 2.3938501 4.2644221 3.3786374 6.5040943.0811776.184563.3512471.0249155.2705919-.158496" fill="#524470"/><path d="m70.1572975 83.0560656c-1.0841437-.6245622-2.2925088-1.0353537-3.506829-1.321149-1.1689779-.2750126-2.3750445-.3690215-3.530545.014028-.1905636.0631262-.1088636.366509.0832671.3027546 1.1673062-.3868182 2.3761937-.2631829 3.5500819.0315108 1.1252025.2824453 2.2375545.6631917 3.2458489 1.2439948.1752056.1009182.3331727-.1703257.1581761-.2711392" fill="#524470"/><path d="m16.784898 74.2644573c-.0992518.1968114-.330143.3412794-.4816326.4784193-1.4198239 1.281368-1.7635487 3.3164819-2.4405508 5.0186914-.7699854 1.9367081-2.2138386 3.4211688-3.691124 4.8470048-1.06042762 1.0227913-2.31726945 1.9576455-3.7360485 2.3093936.01358183-.1099213.02716366-.2208894.04074549-.3308107 1.85444243-.4983098 3.35784675-2.0455826 4.67528441-3.4243094.7522246-.7872457 1.4908673-1.60171 1.9975741-2.5752985.4314843-.8301673.711479-1.7273343 1.0144583-2.6098451.2737262-.7956207.5631237-1.5996163 1.0008766-2.3219561.2026827-.3349982.4377529-.6532464.7104343-.9348543.1253707-.1298118.3249192-.2449674.4283501-.3873416.008358-.0115156.0167161-.0230311.0250741-.0334998.0114923-.0062813.0229846-.0125625.0334322-.0198906.1817876-.136093.2653681-.1737803.4231263-.015703" fill="#524470"/><path d="m11.4219445 63.6180793c-1.8772181 1.8887616-3.64296073 3.8839897-5.29137722 5.9719705-.42061888-.1714772-1.16469432.2817126-1.50371774.4784193-.65631591.380851-1.22497676.897481-1.78245872 1.407097-.14929568.1365118.07281951.358134.22169728.222041.43493205-.397601.87278942-.7961441 1.36006376-1.1293626.20989154-.1436305.42761875-.2767922.6563159-.3884932.13957945-.0681512.56897428-.2955312.8248351-.3073608-1.7542503 2.2455346-3.37215991 4.5978499-4.84202755 7.0439647-.10437115.1735709.16653416.3316482.27059189.158496 2.89084068-4.8107831 6.35305858-9.2558948 10.3077746-13.2347309.1424003-.1434211-.079088-.3655668-.2216973-.222041" fill="#524470"/><path d="m17.4526644 94.4757346c-.7302846 4.7745614-1.7517428 9.4996064-3.0586285 14.1489614-.0547452.194928.2476072.278049.302248.083541 1.3068857-4.649356 2.3283439-9.3745055 3.0586285-14.1490669.0301935-.197649-.2717411-.2828641-.302248-.0834355" fill="#524470"/><path d="m31.8335678 47.2032421c-.6790916 3.7833856-1.4051973 7.552115-1.8492187 11.3721411-.4419319 3.7949012-.6843154 7.6117866-.79297 11.4297189-.2089513 7.3218038.1347735 16.2814346.4408871 23.5958057-.1044756-.0041875-.209996-.0082703-.3144716-.0104687-.1650715-3.964494-.3865598-9.5677572-.4638718-13.5364387-.1473107-7.6421458.0052238-15.3115102.9914737-22.9002657.9737129-7.488256 3.1144185-14.8781064 2.975466-22.4804712-.0041791-.2030926.3092478-.2020457.3134268 0 .077312 4.2157427-.5578998 8.3927512-1.3007215 12.5299786" fill="#b3b7c9"/><path d="m53.199649 40.1113622c-.8775953.3533184-1.7532055.7756254-2.4018947 1.4854028-.6708381.7340648-1.0386967 1.673944-1.393287 2.5882796-.073133.1884365.2298463.270197.302248.0834355.334322-.8616781.6804497-1.756856 1.3126318-2.4496741.6112869-.6696823 1.4360175-1.0714707 2.263569-1.4045845.1848174-.0744324.1041622-.3783386-.0832671-.3028593" fill="#524470"/><path d="m20.9121869 51.1221031c-.3870822-1.1779374-.7693586-2.3576544-1.1614556-3.5340214-.2816663-.8451376-.6084661-2.0000438-1.3505565-2.5659813-.3047554-.232405-.6285254-.2487362-.998578-.2335566-.6081527.0248109-1.2164098.0689887-1.8241445.1034307l-3.8510762.2185863c-.2005933.0114109-.201847.3255764 0 .3140608 1.0809048-.0613465 2.1620186-.1226931 3.243028-.1840396.5405569-.0306733 1.0810093-.0613465 1.6214618-.0920198.5410793-.0306733 1.2661401-.2038255 1.7056691.1970208.726837.663087 1.0030705 1.871907 1.2991545 2.7726333.3381876 1.0290725.6761662 2.0582497 1.0142494 3.0874269.0627898.1910537.3655602.1091885.302248-.0835401" fill="#2e1f44"/><path d="m23.2989117 52.5169726c-.1480419-.7641099-.4467377-1.5180651-.7454336-2.2343331-.63657-1.5265448-1.4870016-2.9460995-2.5094001-4.2439034-.0527602-.0669996-.1667431-.0539138-.2215928 0-.9100873.8963295-4.1984577 5.9401457-4.7383878 6.1388415-.3132179-.8853373-1.3273628-1.9746048-1.6827889-2.8439251-.051611-.1260431-.2709053-.1707444-.302248 0-.3894852 2.1141525-.2730993 3.4924606.261189 5.6181287.2589951 1.0306428 2.2885387 4.3340389 2.0895126 5.2343465-.859521 1.0566052-2.1786303 2.6982009-3.0380468 3.7547014.0246562.3286123.0659241.6575386.0973713.9762056.0739687.7501865.2025782 1.479331.4229173 2.2005192.4031715 1.3193694 1.0078764 2.5064145 1.6709833 3.7082204.1800115.3260998.3731869.6489543.5888246.9539073.0890132.0748512.1822055.1458289.278741.2136661 1.4761362-3.5309855 4.3996777-8.6573997 4.7631484-9.1580126.8522078-1.1737498 1.4039436-2.5272471 1.8146373-3.9114177.4311709-1.453264.7231803-2.9436918 1.0918748-4.4132869.1672654-.6661229.291487-1.3085866.1586984-1.9936579" fill="#ffa57a"/><path d="m20.4639342 47.1457899c.042626.9882446-.3184417 1.8820616-.7030165 2.772738-.0791926.1836209.1907725.3437919.2706963.1586007.4056789-.9396699.7906716-1.8891803.7457471-2.9313387-.0086715-.201313-.3220984-.2023598-.3134269 0" fill="#dd6b4b"/><path d="m21.7315161 49.0648583c.1055204.9254325.0119102 1.8250073-.2843827 2.7083556-.0643569.1919958.2382045.2743844.302248.0834355.3045465-.9079498.4041118-1.8397681.2955616-2.7917911-.0225667-.1984864-.3363071-.2007895-.3134269 0" fill="#dd6b4b"/><path d="m22.8189194 52.3609158c-.0301935.6273888-.2370552 1.1958388-.6059587 1.7027329-.1189977.163521.1528479.320342.2706964.158496.4003506-.5501298.6160928-1.1819154.6486891-1.8612289.0097163-.2020457-.3038151-.2015223-.3134268 0" fill="#dd6b4b"/><g fill="#524470"><path d="m43.3659326 98.2557074c-3.2075064-.840636-6.5176077-1.1396219-9.8238435-1.224209-3.4515614-.0883557-6.9105406-.008689-10.3619975.0539138-2.0062455.0363264-4.0122821.0834355-6.0181097.1401758-.2012201.0056531-.2020559.3197139 0 .3140608 3.4582478-.0977776 6.917227-.1660335 10.3767285-.202988 3.3514738-.0356982 6.7140219-.0770495 10.0548391.2397331 1.9193218.1820506 3.8230768.4931801 5.689116.9821728.1952649.0511919.278532-.2516674.0832671-.3028593"/><path d="m32.6881993 95.0469065c-.2017424 0-.2020559.3140607 0 .3140607.201638 0 .2020559-.3140607 0-.3140607"/><path d="m36.5015598 95.3086238c-.2017424 0-.2020559.3140608 0 .3140608.201638 0 .2020559-.3140608 0-.3140608"/><path d="m29.5980609 113.520067c-.5601983-1.256034-1.0384878-2.54808-1.4152269-3.871323-.3888583-1.36606-.5343928-2.710135-.5066023-4.127596.0558945-2.844868.1378033-5.6893161.2069662-8.5338693.0049104-.2021505-.3085165-.2020458-.3134269 0-.0721926 2.972376-.1850263 5.9469503-.2131303 8.9200593-.025701 2.715998.8758192 5.316211 1.9708283 7.771225.0821179.184144.3522918.024706.2705919-.158496"/><path d="m30.9131792 103.736026c-.224936 2.228994-.2579503 4.468562-.0987294 6.703209.0142087.200475.32774.202046.3134269 0-.1592209-2.234647-.1262066-4.474215.0987294-6.703209.0202683-.200894-.2932631-.199428-.3134269 0"/><path d="m48.4723879 107.09388c-.0367754-.198486-.3388144-.114422-.302248.083436.3051733 1.650389.5209155 3.313237.6472266 4.986866.0150445.200267.3285758.201837.3134269 0-.1284006-1.701476-.3481128-3.392589-.6584055-5.070302"/><path d="m35.3299283 117.323196c-1.9126354.969715-3.7988384 1.989785-5.6573554 3.059894-.1748922.100605-.0172385.372058.1581761.27114 1.8586215-1.070005 3.74472-2.09018 5.6573554-3.059895.1800115-.091182.021522-.362321-.1581761-.271139"/></g><path d="m29.6316185 96.9440011c-.585168-.0318248-1.1766046-.0421888-1.760101-.0970448-.4166488-.0391529-.7615228-.1577632-.8916995-.6122091-.0787746-.2748032-.0472229-.6106389-.0253875-.8916186.0037611-.0476326.0078356-.096312.0121191-.1455148.0057462-.0006282.0112834-.0006282.0172385-.0018844.2176227-.0463763.4647076.0226124.681599.0532856.19725.0277421.2826066-.2748031.0833716-.3028592-.2438461-.034442-.4992891-.0951605-.7466874-.0690934.068745-.4827114.2235779-.9682494.6777335-1.1890342.5575864-.2709297 1.343661-.1665569 1.9437691-.1550413.2017424.0039781.2017424-.3100827 0-.3140608-.7219266-.0138187-1.7370119-.1529476-2.3493435.3425357-.5100501.4127805-.5870486 1.1733311-.6332268 1.7816668-.0458648.6056139-.0555811 1.3737019.5830785 1.6769799.246458.11704.5263482.1316962.7935968.1501211.5373182.0370591 1.0762035.05852 1.6139396.0878323.2015335.0109921.2009066-.3031733 0-.3140608" fill="#f0ded5"/><path d="m44.3104445 83.2450883c-.9520864-2.1987395-1.7632352-4.4538007-2.4341777-6.7542959-.0565213-.1935662-.3590827-.1111776-.302248.0835401.6786737 2.3268764 1.5027775 4.6053874 2.4658338 6.8292518.0800283.1848772.3502023.0252296.2705919-.158496" fill="#b3b7c9"/><path d="m53.7719143 102.83709c-.0030298-.011515-.0073133-.02324-.0133729-.03507-.4126788-.807555-.8759237-1.586007-1.1795299-2.444649-.2753977-.7789757-.456663-1.5868447-.7013449-2.375242-.2410253-.7768817-.5504821-1.5293713-.8471929-2.285839-.1887874-.452771-.3611722-.9126607-.5308406-1.3738066-.1711311-.4650194-.3915747-.9263747-.5644819-1.3995596-.0071043.0055484-.0141042.011725-.0207906.019053-.4693046.5039629-.9810262.9603979-1.5474931 1.3526599-.3219938.2229831-.7470007.4502584-.8557598.8608406-.128923.4862708.3006808 1.0657129.4975129 1.4745154.3420532.7104055.6841064 1.4209157 1.0261596 2.1313212.6314508 1.3114131 1.2230962 2.6531851 1.9235009 3.9294241.1813697.330496.4352454 1.050638.8735207 1.087697.2377865.020205.5434822-.150959.7642392-.229264.3777839-.134.7515977-.278049 1.1234265-.428065.1289229-.05203.1282961-.215655.0524468-.284016" fill="#fafafa"/><path d="m67.4430728 93.8576839c.0501483.10364.1002966.208327.1483554.3130139-.124326.1287649-.244473.2659048-.3614857.4103728-.4523794.5590282-.9580415.9421823-1.5566868 1.3305708-1.4166896.9201981-2.4969676 2.0895511-3.6472443 3.3070601-.4962592.5255284-1.0259507 1.0290725-1.6454912 1.4069925-.6602859.404091-1.4031077.614512-2.117721.89612-1.5211652.60195-2.7612909 1.701163-3.5521714 3.135373-.0522378.095266-.2214883.108875-.2705919 0-1.7248926-3.870275-3.2293417-7.8316287-4.7264775-11.7940289-.1076099.0293123-.2496967-.096312-.1859666-.2355456 1.1857984-2.6129858 3.7642569-4.0817434 5.6939218-6.0728888 1.0666962-1.1002596 1.8042942-2.4580491 3.0674045-3.3646379.6320776-.4543413 1.2934083-.8751827 1.9630971-1.2834617-.0062685-.0157031-.0104475-.032453-.0114923-.0523435-.0198504 0-.6038691-.5014504-.6508832-.5506532-.167161-.1800616-.3249192-.3705918-.458648-.576825-.291487-.4480601-.4450662-.945323-.4220815-1.4802732.008358-.2009989.3217849-.2020458.3134268 0-.0313426.7212929.3092479 1.321149.7887911 1.8351619.1420868.1507491.5798397.4313101.7073.6637151.8577449-.5171534 1.7280269-1.0165101 2.5753243-1.5347104.1723847-.1057338.3290982.1654054.1577582.2711392-1.5493736.9495104-3.1582983 1.8403962-4.6533446 2.8736562-1.3122139.9065888-2.0633937 2.2947374-3.155164 3.4222157-1.8513082 1.9126302-4.3179778 3.3342787-5.5361637 5.7797653.0219399.0167499.0407455.0397811.0522378.0711871 1.4720617 3.8964475 2.9483023 7.7939417 4.6355837 11.6034997.7271504-1.20076 1.7854886-2.191098 3.061136-2.789907.7658064-.358029 1.6005667-.553794 2.3444331-.958932.7428218-.403045 1.3508699-.9987137 1.9223516-1.613226 1.1168445-1.200759 2.2075701-2.330331 3.592917-3.2295917.3677542-.2386862.7438664-.4669037 1.0583381-.7778239.2967108-.2931234.5255124-.6459183.8107309-.9505573.2988003-.3182483.6393908-.5799656 1.0113241-.7893395-.3123822.2512487-.6310328.4962161-.9528178.7349023" fill="#524470"/><path d="m55.4655165 98.3200061c-.4283501.1026979-.67742.5932608-.4523795.9874071.0267457.0467951.0636256.0864714.1052069.1204947.0508797.0939042.1232813.1765021.2159512.2359643.2355925.1512726.5385718.105001.7385382-.0831214.1467883-.1380821.2262942-.3468278.2259817-.5468845-.0009412-.4336133-.3884413-.8206409-.8332985-.7138602" fill="#524470"/><path d="m11.5857519 74.3117863c-.4283501.1026978-.67742.5932608-.4523795.9874071.0267457.046795.0636256.0864714.1052069.1204946.0508797.0939042.1232813.1765022.2159512.2359644.2355925.1512726.5385718.105001.7385382-.0831214.1467883-.1380821.2262942-.3467232.2259817-.5468846-.0009412-.4336132-.3884413-.8206408-.8332985-.7138601" fill="#524470"/><path d="m17.934224 67.5855464c-1.3231839-.2239254-2.0857515-1.3629191-2.5729214-2.5201285-.5097366-1.2109137-.932445-2.4639115-1.3911975-3.6950298-.0363575-.0974635-.1816831-.1709538-.2619204-.0693027-.7908805 1.0032148-1.4626588 2.0803386-2.0088574 3.2359776-.0826402.1750366.5813024 5.8385994 3.462009 8.5555393.1037443.0978823.2430103.0856339.2864721-.0374779.6526593-1.8450025 1.5170907-3.5967288 2.5800257-5.2389527.0510886-.0788293.004597-.2139801-.0936101-.2306253" fill="#f0ded5"/><path d="m43.3196185 36.6086003c-.047014-1.4509608-.2319359-2.898781-.1870114-4.348695-.1264155-.0544372-.252831-.1078275-.381336-.1591241-.5965559-.24078-1.2077383-.4595756-1.8293683-.6438246-.4461109 6.3900901-.8849086 12.782274-1.1805746 19.181786.7355084-1.1400407 1.4302714-2.3125343 1.8722033-3.5991367.6090929-1.7713028.3050688-3.6431051.797149-5.4248766.236115-.8552922.6122272-1.6519598.7678959-2.53133.1441764-.816558.1682058-1.6467254.1410421-2.474799" fill="#524470"/><path d="m24.0229905 36.010838c-.042835.1130619-.0846252.2261237-.1264155.3402325-.2831289.7778239-.5192438 1.5734445-.6362566 2.3952369-.1264155.8835577-.0167161 1.7587404-.0585063 2.6443919-.0877595 1.8466774-.9590863 3.5300432-.9319226 5.4028924.0240294 1.6571941.4555137 3.2714665.8859533 4.8595672.0261189.096312.1305946.1413274.2120855.112015.1305946-.7788707.2622339-1.5577415.3959627-2.3366122.8849086-5.1673468 2.7553358-10.6889542 4.7278357-15.5537558-1.2380362.592528-3.2338342 1.5372228-4.4687362 2.1360321" fill="#524470"/><path d="m40.8634173 29.4343737c-.4198875.0505638-1.4114657.5098253-1.8111895.6498964-.5509.1929381-1.1009642.3888073-1.6498791.5872937-.548915.1985911-1.0968897.3999041-1.6439241.6039389-.385724.1440492-.8321484.2583673-1.1704404.5039629-.4056789.2946937-.6477489.8275502-.9119678 1.2400167-.2031006.3170967-.4062013.6341934-.6093019.9512901-.3212626-.3299732-1.0706662-1.3163335-1.3710337-1.6661972-.3762167-.4384288-1.0812183-.5612266-1.6541626-.7502912-.5022144-.1657194-1.2677073 1.8446884-1.7155944 2.9748885.1450122.6309481.1683103 1.2925695.4146638 1.8944146.1964142.1536804.4041118.2888313.5879889.4095353.6858825.4498397 1.4032122.8548735 2.1063331 1.2769712.5372137.3225404.645346.3522715 1.0180106-.1382915.2728903-.3592855.5414972-.7218164.8069697-1.0865456.2534579.2251816.5267662.4296351.8169995.6147216.61066.3893307 1.4299579.9357965 2.1702722.9885587.7196282.0512966 1.142859-.5483501 1.4910762-1.0906284.572631-.8913045 1.179112-1.7551811 1.8466068-2.5783344.91949-1.1338641 1.3308106-.5434298 1.6181185-3.5008356.0405366-.4171774.1889965-1.9480144-.3395458-1.8843647" fill="#fafafa"/><path d="m34.3817493 35.9459216c-.2298464-.2732329-1.024906-1.3033523-1.2547524-1.3881487-.3583514-.1319055-1.8857851 1.8236463-1.8544424 1.9691612.1170127.5454189.3019346 1.0521036.5798398 1.5074917.0658196.1088744.1441763.2365925.2340254.3632637-.4064102.840636-.7365532 1.9429894-1.0102794 3.2002794-.1358183.6260278-.2580548 1.289743-.3687989 1.978583-.0125371.0753746-.0240294.151796-.0355218.2292643-.0062685.0345467-.0114923.0701403-.0167161.1067807-.0188056.12039-.0365664.2418268-.055372.3643105v.0010469c-.0919386.6302153-.1755191 1.2782274-.2528311 1.9346144-.0229846.1989052-.0459692.3988572-.0679091.5988093-.0365665.3255763-.0710435.6532464-.1034309.9798696-.1504449 1.4917888-.2726814 2.9846244-.3876046 4.3738199v.0010469c-.0323874.3988572-.0637301.7882926-.0961176 1.1662124-.0752224.8929795-.1483554 1.7241937-.2267121 2.4601428-.0438798.4093259-.089849.8113237-.1379078 1.2080872-.1055204.8552922-.2204436 1.6823189-.3416353 2.4821271-.1337288.8866983-.2758157 1.7409436-.4179025 2.5648297-.1567135.9024014-.3144717 1.7671154-.4649166 2.5993765-.419992 2.3083468-.7867015 4.3623043-.9287884 6.2341066-.0292531.3737323-.0480587.7401366-.0574615 1.1002596-.0083581.3192952-.0219399.6375434-.0376113.9547448-.0114923.2386862-.0250741.4773724-.038656.7150117-.0208951.3758261-.0417902.7506053-.0574616 1.1232908-.0741777 1.737803-.042835 3.4421062.6017797 5.0951128.1723848.7296679.3687989 1.4530546.5902873 2.1701601.1013413.3276701.2329806 1.1881966.7323742 1.1588843.462827-.0282655.6801363-.9076357.8274469-1.2604307.2810395-.67209.4670061-1.2960241.5913321-1.8958802.1901457-.9233388.2329807-1.7890997.244473-2.6789386.004179-.3329044.004179-.6679026.0062685-1.0112757.0031343-.5862468.0114923-1.1955247.0564169-1.849818.0198503-.3151077.0501483-.640684.0908938-.9798697.1870113-1.5326166.3687989-3.0662801.5610341-4.5978499.0731329-.592528.1483554-1.1861029.2267121-1.7786309.0940281-.712918.1911904-1.425836.2935765-2.1377071.0950729-.6658089.1953695-1.3305709.3008898-1.994286.0167161-.1109682.034477-.2208894.0522379-.3308107.2131302-1.3242897.4795431-2.6391575.7564035-3.9529785.1253708-.5998561.2538758-1.1997122.3792466-1.7995683.0459692-.2177488.0908938-.4365445.1358183-.6542933v-.0031406c.0052238-.0219842.0094028-.0450154.0135818-.0669996.0156714-.0774683.0323875-.1549367.047014-.232405.1452212-.7108242.283129-1.4237422.407455-2.1377071.0919386-.5339033.1776086-1.0688535.252831-1.6058975.1379079-.9871977.2862632-2.3952369.3802913-3.9529784.0334322-.5401846.0605959-1.0981659.0783567-1.6624285.0950729-3.010796-.0647749-6.2110755-.8765505-7.8892069.3332773-.4051384.8671477-1.3462739.998787-1.6613816.2235779-.5349502-.0501483-.7600271-.3499933-1.1180564" fill="#38539a"/><path d="m39.9268038 34.1477352c-.587571.4906676-1.1976042.9518135-1.8353234 1.3751675-.6040781.4009509-1.3573474.9896055-2.1109301.9970383-1.3129453.0129812-1.9877534-1.6109225-3.0004356-2.2210379-.0584019-.0351748-.1425048-.0251249-.1899367.0246014-.7385383.7740552-1.442704 1.6424332-2.2531215 2.3414279-.0762672.0658481-.2380999.2299972-.3474859.2431877-.1556687-.0466904-.3222029.1465617-.4669016-.1398617-.0219399-.0624981-.0437753-.1249962-.0656107-.1874943-.1218186-.2190051-.1770862-.5138035-.2568011-.7517569-.1893098-.5649953-.3703661-1.1327125-.5456762-1.7022094-.0591332-.192624-.3617991-.1104447-.302248.0834355.233712.7593989.4783939 1.5152386.7374935 2.2663673.1320572.3831541.226921.8825108.7363442.8180237.5201842-.0658481.9392359-.6041483 1.2729311-.954012.5420195-.5680313 1.0841436-1.136272 1.6261632-1.7044079 1.0626216.7172101 1.7413998 2.3498028 3.225894 2.1859677.7120014-.0785152 1.3513923-.5413361 1.9359334-.9212449.7184789-.4672178 1.4036301-.9817541 2.0613042-1.5311511.1551463-.1294977-.0675957-.3507012-.2215928-.2220409" fill="#b3b7c9"/></g></g></g><path d="m93.1449176 0c-10.5129383 4.61233634-15.7694074 13.2204039-15.7694074 25.8242026 0 22.62-6.2274052 55.38-50.5976676 39-24.72144763-9.1263222-32.2255649-23.1558876-22.51235186-42.0886962" opacity=".587147" stroke="#9ba9c4" stroke-dasharray=".779562 1.559124" stroke-linecap="round" stroke-width=".5" transform="translate(53.555685 86.58)"/></g><ellipse cx="57.603499" cy="109.98" fill="#c7caf0" mask="url(#c)" rx="2.335277" ry="2.34"/><ellipse cx="133.889213" cy="73.32" fill="#e3a780" mask="url(#c)" opacity=".727237" rx="6.227405" ry="6.24"/><g mask="url(#c)"><g transform="translate(117.542274 22.62)"><path d="m7.78268781 7.60544663-.6778441 2.52112087 2.29451206 10.5284201 23.04083923-20.26331346z" fill="#979bc7"/><g fill="none" transform="translate(0 .062245)"><path d="m9.39912136 20.5926251 8.88542274-7.8143003c.0859514-.8729969.3500567-1.8990618.3500567-1.8990618l-7.6438155 2.4150303z" fill="#73779e"/><g fill="#c7caf0"><path d="m32.440195.32938993-32.01963647 7.37271271 6.68428518 2.36218066z"/><path d="m32.440195.32938993-13.6756513 19.93447167-7.7739147-6.96949z"/></g></g></g></g></g><ellipse cx="223.797376" cy="40.17" fill="#c7caf0" opacity=".774065" rx="12.065598" ry="12.09"/></g><path d="m210.174927 120.9c20.239067-4.68 32.174927-21.84 35.80758-51.48s-7.005831-47.06-31.915452-52.26" opacity=".587147" stroke="#9ba9c4" stroke-dasharray=".779562 1.559124" stroke-linecap="round" stroke-width=".5"/></g></svg>