<svg height="165" viewBox="0 0 114 165" width="114" xmlns="http://www.w3.org/2000/svg" xmlns:xlink="http://www.w3.org/1999/xlink"><mask id="a" fill="#fff"><path d="m0 .8912h113.9998v114h-113.9998z" fill="#fff" fill-rule="evenodd"/></mask><mask id="b" fill="#fff"><path d="m.7145.783h8.921v8.9217h-8.921z" fill="#fff" fill-rule="evenodd"/></mask><g fill="none" fill-rule="evenodd" transform="translate(0 -1)"><path d="m113.9998 57.8912c0 31.48-25.52 57-57 57s-57-25.52-57-57c0-31.479 25.52-57 57-57s57 25.521 57 57" fill="#c3ecfe" mask="url(#a)" opacity=".35" transform="translate(0 25.217)"/><path d="m13.7488 161.5809c0 2.008 5.421 3.636 28.39 3.636s59.895-1.628 59.895-3.636c0-2.009-36.926-3.637-59.895-3.637s-28.39 1.628-28.39 3.637" fill="#e9f3ff"/><path d="m81.8602 4.9939h18.759c2.345 0 4.246 1.9 4.246 4.246v9.675c0 2.345-1.901 4.246-4.246 4.246h-12.267l-4.412 3.893v-3.893h-2.08c-2.345 0-4.246-1.901-4.246-4.246v-9.675c0-2.346 1.901-4.246 4.246-4.246" fill="#f9ba55"/><g fill="#fff"><path d="m97.8904 10.9813h-13.302c-.293 0-.531-.238-.531-.532s.238-.532.531-.532h13.302c.294 0 .532.238.532.532s-.238.532-.532.532"/><path d="m97.8904 14.5281h-13.302c-.293 0-.531-.238-.531-.532s.238-.532.531-.532h13.302c.294 0 .532.238.532.532s-.238.532-.532.532"/><path d="m86.5398 18.075h-1.951c-.293 0-.531-.238-.531-.532s.238-.532.531-.532h1.951c.294 0 .532.238.532.532s-.238.532-.532.532"/><path d="m90.9734 18.075h-1.95c-.294 0-.532-.238-.532-.532s.238-.532.532-.532h1.95c.294 0 .532.238.532.532s-.238.532-.532.532"/><path d="m97.8904 18.075h-4.434c-.294 0-.532-.238-.532-.532s.238-.532.532-.532h4.434c.294 0 .532.238.532.532s-.238.532-.532.532"/></g><path d="m81.8602 4.9939h18.759c2.345 0 4.246 1.9 4.246 4.246v9.675c0 2.345-1.901 4.246-4.246 4.246h-12.267l-4.412 3.893v-3.893h-2.08c-2.345 0-4.246-1.901-4.246-4.246v-9.675c0-2.346 1.901-4.246 4.246-4.246" fill="#f9ba55"/><path d="m97.8904 10.9813h-13.302c-.293 0-.531-.238-.531-.532s.238-.532.531-.532h13.302c.294 0 .532.238.532.532s-.238.532-.532.532" fill="#fff"/><path d="m97.8904 14.5281h-13.302c-.293 0-.531-.238-.531-.532s.238-.532.531-.532h13.302c.294 0 .532.238.532.532s-.238.532-.532.532" fill="#fff"/><path d="m86.5398 18.075h-1.951c-.293 0-.531-.238-.531-.532s.238-.532.531-.532h1.951c.294 0 .532.238.532.532s-.238.532-.532.532" fill="#fff"/><path d="m90.9734 18.075h-1.95c-.294 0-.532-.238-.532-.532s.238-.532.532-.532h1.95c.294 0 .532.238.532.532s-.238.532-.532.532" fill="#fff"/><path d="m97.8904 18.075h-4.434c-.294 0-.532-.238-.532-.532s.238-.532.532-.532h4.434c.294 0 .532.238.532.532s-.238.532-.532.532" fill="#fff"/><path d="m9.6355 5.2437c0 2.464-1.997 4.461-4.46 4.461-2.464 0-4.461-1.997-4.461-4.461s1.997-4.461 4.461-4.461c2.463 0 4.46 1.997 4.46 4.461" fill="#cc0a3e" mask="url(#b)" transform="translate(98 .217)"/><path d="m104.6805 6.5301v.975h-2.6v-.975h.817v-1.968h-.817v-.734c.466-.038 1.087-.361 1.478-.684h.336v3.386z" fill="#fff"/><path d="m107.4764 26.2078-5.772 5.312c-1.103 1.015-2.673 1.015-3.776 0l-5.772-5.312c.132-.141.309-.228.504-.228h14.312c.194 0 .371.087.504.228" fill="#f9ba55"/><path d="m99.8162 32.282c.668 0 1.336-.254 1.888-.762l5.772-5.312c-.066-.071-.143-.128-.229-.167-.085-.039-.178-.061-.275-.061h-14.312c-.097 0-.19.022-.276.061-.085.039-.162.096-.228.167l5.772 5.312c.551.508 1.22.762 1.888.762" fill="#f9ba55"/><path d="m99.8162 33.3348c-.949 0-1.873-.369-2.602-1.039l-5.294-4.874v8.017c0 .467.333.849.74.849h14.312c.407 0 .74-.382.74-.849v-8.017l-5.295 4.874c-.728.67-1.652 1.039-2.601 1.039" fill="#f9ba55"/><path d="m106.9725 25.9803c.097 0 .189.021.274.061-.085-.04-.177-.061-.274-.061h-14.313c-.096 0-.189.021-.275.061.086-.04.179-.061.275-.061z" fill="#fff"/><path d="m107.4764 26.2078-5.772 5.312c-.552.508-1.22.762-1.888.762s-1.337-.254-1.888-.762l-5.772-5.312c-.145.155-.237.376-.237.62v.594l5.295 4.874c.729.67 1.653 1.039 2.602 1.039s1.873-.369 2.6-1.039l5.296-4.874v-.594c0-.244-.091-.465-.236-.62" fill="#fff"/><path d="m49.5545 49.3299c1.889 1.948 2.529 6.354 1.854 8.818-1.138 4.156-10.887 21.667-12.806 25.472-1.441 2.857-4.52 9.618-4.52 9.618l2.299 1.019s3.624-6.576 4.913-9.506c1.716-3.9 10.531-21.9 11.45-26.109.62-2.837-.59-8.089-3.19-9.312" fill="#003aa0"/><path d="m49.4578 112.3172-12.846 1.187s6.487 2.553 12.846 3.728z" fill="#2a3756"/><path d="m71.6834 110.2635v5.769c1.415-.404 2.492-.845 3.066-1.293 2.552-1.995 3.019-3.999 3.019-3.999v-1.039z" fill="#2a3756"/><path d="m69.0359 66.7566s9.332 40.731 8.732 43.983c-.948 5.145-41.156 2.764-41.156 2.764l16.585-37.278z" fill="#0041a0"/><path d="m67.7186 79.6561 15.231 71.506-5.095 1.596s-8.206-28.875-12.205-38.023c-1.952-4.466-9.582-16.98-9.582-16.98l-8.412 26.116c-.13.404-.303.794-.515 1.163l-15.717 27.361-3.753-3.229 13.055-36.415 4.217-33.095z" fill="#9fc6ff"/><path d="m58.4842 42.0105 2.386-5.421s2.037.551 2.933-.314c.337-.326.677-2.062.848-4.223.02-.259.038-.522.053-.791.016-.278 1.134.475 1.144.188.02-.585-1.08-2.217-1.091-2.81-.047-2.733-.445-5.378-1.466-6.376-2.332-2.277-10.5-2.611-11.614 1.354-1.114 3.966-.081 8.471 3.213 11.525l-2.21 5.622z" fill="#fcd5c8"/><path d="m75.1834 58.6873 3.78 3.487s7.217-15.662 7.552-16.052c.336-.391.903-3.789.937-4.113s-2.415.06-2.415.06.415-1.722.184-2.174c-.126-.246-.854-.471-1.283 0-.386.423-.567 2.221-.567 2.221s-.662.453-.918 1.18c-.231.654.1 2.806.1 2.806z" fill="#fcd5c8"/><path d="m87.452 42.0096c.138-.698-.918-2.533-1.126-2.297-.207.235-.079 1.284-.079 1.284l.372.555s-.439-.058-.429.092c.012.149.018.862.018.862l.224 1.32z" fill="#fcd5c8"/><path d="m80.5809 46.1678-7.889 16.007s-5.105-15.598-9.739-18.1c-5.239-2.829 2.896 23.641 2.896 23.641s7.057 3.914 9.547 2.835c2.372-1.029 9.018-14.27 11.459-20.622-1.562-.95-4.651-2.915-6.274-3.761" fill="#003d9e"/><path d="m31.2518 97.3201c-1.745-1.393-6.005-.816-6.625-.216-.62.601-2.818 9.052-3.318 11.141l.636.155c-.067-.234 2.329-10.941 3.837-11.288 1.507-.348 4.908.456 5.336.765s.231 11.464.231 11.464l.971.145s-.132-11.42-1.068-12.166" fill="#2a3756"/><path d="m18.4812 106.9402 16.4 2.336-2.073 24.443-19.415-2.316z" fill="#cc0a3e"/><path d="m31.2439 98.1385c-1.294-1.819-5.548-2.438-6.309-2.032s-3.607 5.284-4.664 7.154l.57.325c0-.244 3.658-7.235 5.203-7.154 1.544.081 4.592 1.791 4.918 2.206s-1.341 8.444-1.341 8.444l.894.407s1.422-8.374.729-9.35" fill="#2a3756"/><path d="m43.9295 50.2127c-2.795 2.738-16.259 40.242-16.259 40.242l6.412 2.783s3.079-6.76 4.52-9.618c1.919-3.804 13.004-20.823 14.142-24.978 1.139-4.155-2.799-14.324-8.815-8.429" fill="#004aa3"/><path d="m17.9139 101.2283 15.121 6.26-10.325 23.658-16.422-7.154z" fill="#f9ba55"/><path d="m33.035 107.4881-6.341 25.04-1.759-1.382h-2.225l5.528-16.016z" fill="#f7a357"/><path d="m33.7723 162.6805-10.269-12.057 3.558-2.428 5.476 4.303 2.715 9.172z" fill="#2a3756"/><path d="m92.6629 154.9061-15.686 2.186-.136-4.306 6.571-2.308 9.194 2.637z" fill="#2a3756"/><path d="m61.4793 21.2772s-1.397 4.786-8.89 7.468c0 0 2.982 3.048 2.832 7.068l-7.873.513s-6.97-19.327 9.2-19.8c16.169-.472 8.056 11.955 8.056 11.955l-.204-1.317c-.347-2.241-1.439-4.303-3.121-5.887" fill="#2a3756"/><path d="m62.5887 26.7918c.278-.058.552.123.608.4l.136.659c.057.277-.123.55-.401.608-.278.057-.551-.123-.609-.4l-.134-.659c-.058-.277.123-.551.4-.608" fill="#01020d"/><path d="m64.075 31.5682c.367.737.241 1.493-.281 1.687-.523.194-1.242-.247-1.61-.984l.001-.001c-.062-.126-.041-.258.049-.291l1.562-.581c.09-.033.215.043.277.171z" fill="#fff"/><path d="m48.4383 80.1277-3.496-.472-4.217 33.095-13.055 36.415 3.753 3.23s12.78-20.556 16.036-27.916c2.839-6.419 8.608-26.725 8.608-26.725z" fill="#90b7fc"/><path d="m44.9422 79.6561 23.451 3.168-2.019-10.464c-.162-.838-.042-1.705.342-2.467.74-1.463 2.004-3.978 2.83-5.684.776-1.601 1.053-4.508-1.951-10.042-3.004-5.533-4.642-10.092-4.642-10.092l.712-2.047c.136-.393-.033-.825-.398-1.021l-8.99-4.827c-.412-.221-.924-.003-1.05.448l-.861 3.09s-6.483 8.206-7.589 10.26c-1.107 2.056.701 20.08.859 21.82z" fill="#0053cc"/><path d="m56.0672 97.7547-4.696-5.978.71-3.233z" fill="#80acf9"/><path d="m52.366 39.7176s6.197 1.68 7.782 4.686c1.585 3.004-12.689 66.698-13.513 68.427-1.081 2.267-10.023.673-10.023.673l7.317-34.39.491-8.169s-1.38-18.656-.491-20.732c1.097-2.56 8.437-10.495 8.437-10.495" fill="#004aa3"/><path d="m59.0838 54.5994c-1.3 7.641-2.974 16.021-5.163 26.27l14.473 1.9550037s-5.044.0279963-9.299-4.8030037c-4.494-5.105-.011-23.422-.011-23.422" fill="#0041a0"/><path d="m27.6707 90.4549v.011c.003-.007.007-.014.01-.021z" fill="#97b9fc"/><path d="m84.8875 45.2479.275-5.95.267-4.756 1.743.247-.844 10.292z" fill="#cc0a3e"/><path d="m29.2547 89.9832c-1.184.062-1.584.472-1.584.472s-.099.789.541 1.701c.194-.406.383-.794.556-1.143.001-.002.207-.436.487-1.03" fill="#9fc6ff"/><path d="m36.3816 94.2566s0-2.277-2.929-3.47c-.78 1.663-1.438 3.342-1.272 3.591.012.018.02.033.03.05 2.959.766 4.171-.171 4.171-.171" fill="#9fc6ff"/><path d="m32.2527 94.4979c-.014-.022-.028-.047-.042-.07-.01-.017-.019-.033-.03-.05-.166-.249.492-1.928 1.272-3.591-.188-.076-.388-.148-.601-.216-1.637-.511-2.796-.629-3.597-.588-.28.594-.486 1.029-.487 1.031-.173.348-.362.736-.556 1.142-.9 1.88-1.913 4.154-1.885 4.823.189 4.447 4.399 3.745 5.448 2.935 1.07-.825.406-3.983.406-3.983s.593-.531.072-1.433" fill="#fcd5c8"/><path d="m82.4695 45.4627c-1.399-.148-1.889.705-1.889.705s-.719 1.365.431 2.567l1.542-2.632s-.041-.267-.084-.64" fill="#9fc6ff"/><path d="m85.9568 47.2059c-.361.741-.868 1.808-1.446 3.036 1.557.197 2.344-.313 2.344-.313s.658-1.26-.898-2.723" fill="#9fc6ff"/><path d="m85.0379 42.0691s.414-1.722.184-2.174c-.126-.246-.855-.471-1.284 0-.385.423-.567 2.221-.567 2.221s-.661.453-.918 1.181c-.149.423-.062 1.477.017 2.166.043.373.084.639.084.639l-1.542 2.633c.314.329.766.646 1.413.919.804.34 1.499.514 2.086.588.578-1.229 1.085-2.295 1.446-3.036.307-.63.509-1.027.559-1.084.335-.391.903-3.788.936-4.113.034-.324-2.414.06-2.414.06" fill="#fcd5c8"/><path d="m60.8699 36.5897s-1.152.386-2.907-1.4c0 0 1.27 2.137 2.435 2.438z" fill="#e8c5bc"/></g></svg>