<svg height="154" viewBox="0 0 114 154" width="114" xmlns="http://www.w3.org/2000/svg" xmlns:xlink="http://www.w3.org/1999/xlink"><mask id="a" fill="#fff"><path d="m0 .1691h113.9996v114h-113.9996z" fill="#fff" fill-rule="evenodd"/></mask><mask id="b" fill="#fff"><path d="m.8244.79h21.984v17.7962h-21.984z" fill="#fff" fill-rule="evenodd"/></mask><g fill="none" fill-rule="evenodd" transform="translate(-1 -1)"><path d="m99.2399 150.466c0 2.067-5.582 3.744-29.23 3.744-23.65 0-61.668-1.677-61.668-3.744s38.018-3.744 61.668-3.744c23.648 0 29.23 1.677 29.23 3.744" fill="#e9f3ff"/><path d="m113.9996 57.1691c0 31.48-25.52 57-57 57-31.479 0-57-25.52-57-57s25.521-57 57-57c31.48 0 57 25.52 57 57" fill="#c3ecfe" mask="url(#a)" opacity=".35" transform="translate(1 21.21)"/><path d="m20.6236 68.8507.999 1.06.478-1.987s-.832-.504-.96-.481c-.129.022-.517 1.408-.517 1.408" fill="#edc2b7"/><path d="m88.0211 61.6037c-.017.035-.35 1.079-1.092 1.626-.544.4-.902.415-.902.415v-1.72l1.304-.859z" fill="#edc2b7"/><path d="m59.8063 136.6027c-.156-.755 1.489-1.127 2.879-1.1 1.8.037 2.816.214 2.724.928-.086.659-.96 1.322-2.651 1.318018-2.156-.006018-2.846-.638018-2.952-1.146018" fill="#004aa3"/><path d="m43.0748 136.3322c.141.771 2.188 1.128 2.92 1.130008.644.001992 2.694-.359008 2.6930004-.988008-.0010004-.677-1.9180004-1.368-2.6500004-1.405-1.274-.065-3.135.313-2.963 1.263" fill="#004aa3"/><path d="m43.027 18.2648-.046.241c.016-.062.027-.128.042-.191.001-.017.002-.033.004-.05" fill="#302620"/><path d="m68.0787 31.8625c1.007-2.482.038-4.619-1.876-5.054.81-1.177.876-2.822.165-4.06-.687-1.198-2.004-1.996-2.47-3.295-.398-1.111-.086-2.332-.02-3.511.18-3.248-1.713-6.46-4.523-8.1-1.669-.975-2.961-2.206-5.429-2.178-3.1.035-5.309 1.064-7.286 3.009-2.825 2.777-2.181 6.96-3.815 10.288-.612 1.248-1.823 2.074-2.713 3.111-.654.763-.899 2.035-.167 2.724-1.557.628-2.599 2.071-2.352 3.732.197 1.323 1.351 2.286 2.167 1.965-1.405 1.854-1.137 4.093-.575 5.438.333 1.215 2.384 2.513 3.314 3.358 1.98 1.802 4.709 2.508 7.351 2.936 3.195.518 6.44.72 9.673.603 1.874-.068 3.774-.249 5.52-.932 1.747-.682 3.342-1.924 4.101-3.638.724-1.634.967-5.087-1.065-6.396" fill="#302620"/><path d="m43.4557 139.6007 4.392.001.282-3.513h-4.614z" fill="#fcd5c8"/><path d="m41.0309 77.4171s1.721 11.813 2.316 27.118c.523 13.419-.436 30.825-.272 31.797.044.255 1.467-.178 2.798-.088 1.404.095 2.72.693 2.815.23.09-.438-.114-11.95 4.925-62.276 0 0-9.761-3.838-12.582 3.219" fill="#9fc6ff"/><path d="m65.1129 104.5353c.598-15.305 2.317-27.118 2.317-27.118-2.821-7.057-12.581-3.219-12.581-3.219 5.038 50.326 4.708 61.804 4.957 62.404.221.531 1.634-.343 2.995-.272 1.174.061 2.275.638 2.608.101.186-.301-.817-18.477-.296-31.896" fill="#9fc6ff"/><path d="m43.3473 144.506 4.307 1.266.193-6.17-4.392-.001z" fill="#004aa3"/><path d="m65.0055 139.6007-4.393.001.195 6.17 4.305-1.266z" fill="#004aa3"/><path d="m43.3473 143.2043-1.798 5.363v1.899h7.521v-1.899l-1.223-5.363z" fill="#2a3756"/><path d="m65.1129 143.2043h-4.5l-1.222 5.363v1.899h7.521v-1.899z" fill="#2a3756"/><path d="m44.9625 28.3791s-13.074 3.334-16.072 29.209c-1.988 17.145.486 25.041.486 25.041l4.922.236s10.438-23.727 11.671-34.37c.259-2.235 1.365-6.515 1.096-10.516-.336-5.001-2.103-9.6-2.103-9.6" fill="#004aa3"/><path d="m62.9459 28.3205s13.435 6.386 15.558 32.348c1.405 17.201-1.295 22.398-1.295 22.398l-4.927.069s-9.631-24.066-10.503-34.744c-.412-5.048 1.167-20.071 1.167-20.071" fill="#004aa3"/><path d="m93.5973 110.6369c-.366 0-.663-.297-.663-.663v-15.924c0-1.449-1.985-2.674-4.335-2.674-2.351 0-4.335 1.225-4.335 2.674v15.924c0 .366-.297.663-.664.663-.366 0-.663-.297-.663-.663v-15.924c0-2.206 2.54-4.001 5.662-4.001 3.121 0 5.661 1.795 5.661 4.001v15.924c0 .366-.297.663-.663.663" fill="#2a3756"/><path d="m91.0738 92.7658h-4.95c-.743 0-1.351-.607-1.351-1.351v-.192c0-.742.608-1.351 1.351-1.351h4.95c.743 0 1.351.609 1.351 1.351v.192c0 .744-.608 1.351-1.351 1.351" fill="#2a3756"/><path d="m82.6695 148.1349c0 1.634-1.324 2.959-2.959 2.959-1.634 0-2.959-1.325-2.959-2.959 0-1.635 1.325-2.96 2.959-2.96 1.635 0 2.959 1.325 2.959 2.96" fill="#2a3756"/><path d="m100.4459 148.1349c0 1.634-1.324 2.959-2.959 2.959s-2.959-1.325-2.959-2.959c0-1.635 1.324-2.96 2.959-2.96s2.959 1.325 2.959 2.96" fill="#2a3756"/><path d="m97.0953 145.7795h-16.993c-2.806 0-5.079-2.274-5.079-5.08v-26.289c0-2.806 2.273-5.079 5.079-5.079h16.993c2.806 0 5.08 2.273 5.08 5.079v26.289c0 2.806-2.274 5.08-5.08 5.08" fill="#f9ba55"/><path d="m88.7018 115.6818h-.206c-.436 0-.792.313-.792.695v22.805c0 .383.356.695.792.695h.206c.436 0 .792-.312.792-.695v-22.805c0-.382-.356-.695-.792-.695" fill="#fff"/><path d="m93.9625 115.6818h-.206c-.436 0-.792.313-.792.695v22.805c0 .383.356.695.792.695h.206c.436 0 .792-.312.792-.695v-22.805c0-.382-.356-.695-.792-.695" fill="#fff"/><path d="m19.3834.7892h-15.134c-1.891 0-3.425 1.534-3.425 3.426v7.804c0 1.892 1.534 3.426 3.425 3.426h9.897l3.558 3.141v-3.141h1.679c1.892 0 3.425-1.534 3.425-3.426v-7.804c0-1.892-1.533-3.426-3.425-3.426" fill="#f9ba55" mask="url(#b)" transform="translate(13 .21)"/><path d="m27.567 6.3117c-.706-.691-1.837-.679-2.528.027l-.455.465-.469-.462c-.703-.693-1.835-.683-2.528.02s-.685 1.835.019 2.528l1.739 1.713c.004.004.006.008.01.012.277.271.621.434.978.489.55.085 1.131-.088 1.55-.516l1.711-1.747c.691-.706.679-1.838-.027-2.529" fill="#fff"/><path d="m48.6441 27.3615c3.64-.529 5.697-.838 9.068-.225 1.899 1.115 4.025 4.111 4.775 6.748l-5.754 3.672-13.151-6.906z" fill="#00468c"/><path d="m63.6705 30.9113c-3.647-.178-4.773-1.865-9.621-2.101-3.432-.167-6.704.994-9.5801495 1.441-.0328505.006 5.4031495 10.894 11.0261495 20.971 5.295 9.487 11.471 8.684 10.793.233-.187-2.34-.389-4.726-.598-7.005-.184-2.001-3.993-3.64-4.183-5.372-.505-4.59 2.601-8.146 2.163-8.167" fill="#e9f3ff"/><path d="m65.4781 35.1281-1.543-6.209s-1.523-1.464-6.223-1.782c0 0 .939 1.601 1.816 4.029.496 1.375.63 3.331.604 5.918-.083 8.363.534 13.691.534 13.691l4.4-9.396c.141-.303.059-.662-.198-.874l-2.172-1.786c-.287-.237-.28-.679.015-.904l2.493-1.906c.239-.182.346-.489.274-.781" fill="#9fc6ff"/><path d="m56.5983 27.1789s-.188 2.805-2.833 2.693c-2.873-.121-2.833015-2.693-2.833015-2.693l.498015-6.103h4.669z" fill="#efc2b9"/><path d="m59.9859 15.3478c-.318-.424-.692-.424-.935-.361-.022-.369-.038-.618-.038-.618 0-2.909-2.349-4.813-5.248-4.813s-5.25 1.904-5.25 4.813c0 0-.016.263-.04.648-.204-.086-.591-.156-.916.339-.425.649-.197 2.934.739 3.301.119 2.699 1.468 5.959 5.467 5.875 4.646-.097 5.414-3.83 5.472-5.986.982-.443 1.213-2.58.749-3.198" fill="#fcd5c8"/><path d="m51.0748 15.1623c.291 0 .53.238.53.53l-.001.691c0 .292-.238.53-.529.53-.292 0-.53-.238-.53-.529v-.693c0-.291.238-.529.53-.529" fill="#01020d"/><path d="m56.0455 15.1447c.292-.011.539.22.548.511l.025.69c.01.292-.219.538-.511.549-.291.01-.539-.22-.548-.512l-.025-.69c-.01-.291.22-.538.511-.548" fill="#01020d"/><path d="m52.2106 20.1427c.018.822.699 1.475 1.521 1.458.824-.018 1.476-.698 1.458-1.521h-.002c-.003-.142-.122-.255-.262-.252l-2.46.052c-.142.003-.255.121-.252.263z" fill="#01020d"/><path d="m52.7906 21.2902c.26.201.588.317.941.311.289-.006.558-.095.783-.243-.121-.302-.46-.524-.864-.531-.384-.006-.716.186-.86.463" fill="#c54e47"/><path d="m48.6441 27.3615c-4.113.558-4.525 1.039-5.248 1.624-.98.793-1.058 4.565-1.052 5.98.002.332.181.636.469.8l3.113 1.775c.329.186.403.629.152.913l-1.465 1.653c-.258.292-.285.721-.068 1.043l6.704 9.915c.699-5.057-.925-12.041-2.141-14.532-3.17-6.493-.464-9.171-.464-9.171" fill="#9fc6ff"/><path d="m48.3531 11.0011c.659.796 1.59 1.362 2.6 1.581 1.307.283 2.662-.006 4-.023.584-.007 1.19.044 1.701.33.804.45 1.212 1.386 1.939 1.955.348.271.877.438 1.208.147.25-.22.267-.6.24-.932-.171-2.109-1.413-4.103-3.23-5.187-.81-.483-1.711-.788-2.613-1.06-.552-.166-1.117-.324-1.694-.311-1.349.028-2.491.955-3.515 1.835-.217.186-.44.38-.562.638" fill="#302620"/><path d="m20.3199 51.5509.24 4.659 1.404 27.203.024.466c.093 1.799 1.626 3.181 3.425 3.088l7.608-.392 10.864-.56 10.866-.561 10.441-.539c-5.106-3.798-24.161 1.247-35.815-2.286-11.503-3.486-2.759-26.4-9.057-31.078" fill="#bc063f"/><path d="m83.441 115.6818h-.205c-.437 0-.793.313-.793.695v22.805c0 .383.356.695.793.695h.205c.436 0 .792-.312.792-.695v-22.805c0-.382-.356-.695-.792-.695" fill="#fff"/><path d="m53.444 75.8839c-4.102.136-8.201.28-11.899.425-.189.277-.362.578-.514.908 0 0 .592 4.557 1.278 11.53 2.873-.17 6.495-.327 9.908-.534.414-3.648.702-7.763 1.227-12.329" fill="#92b3f4"/><path d="m55.4557 80.6183c.302 2.616.508 5.054.769 7.327l10.057-.576c.286-2.74.308-5.04.541-6.757-3.259-.002-7.394.001-11.367.006" fill="#92b3f4"/><path d="m87.1783 80.5167-.024-.466-1.404-27.203-.513-9.96c-.093-1.799-1.626-3.182-3.425-3.088l-7.608.392-10.865.56-10.865.561-10.865.56-10.866.561-7.607.392c-1.799.092-3.183 1.626-3.09 3.424l.514 9.96 1.403 27.203.025.466c.092 1.799 1.626 3.181 3.424 3.088l7.609-.391 10.864-.561 10.865-.561 10.866-.56 10.865-.561 7.607-.391c1.799-.093 3.183-1.626 3.09-3.425" fill="#cc0a3e"/><path d="m87.6178 59.215s-1.709-1.305-2.124-1.48-1.391-.004-1.806.142c-.415.147-1.367.659-1.22.951.146.293.683.43.683.43s-1.263.527-1.05.808c.332.436 1.294.227 1.294.227s-1.806.903-1.464 1.294c.341.391 2.051-.15 2.544-.008-.265.263-2.094.694-1.76 1.204.265.406 2.8-.535 2.8-.535s1.294.558 1.639.389c.775-.381 1.757-2.278.464-3.422" fill="#fcd5c8"/><g fill="#fff"><path d="m38.1592 59.1241-.005.004.034-.035.035-.034-.005.004.035-.034.036-.031-.004.003.036-.031.037-.031-.005.003.005-.004v.001l.033-.027.039-.029-.005.004.039-.029.04-.028-.005.004.041-.027.041-.027-.004.003.042-.024.044-.025-.006.002.044-.022.045-.024-.005.003.045-.022.046-.021-.004.002.046-.019.048-.02-.005.002.049-.017.049-.017.001-.001.046-.015.052-.014.178-.282-.283-.175-.058.01-.06.012-.061.013-.058.015-.058.015-.057.018-.057.017-.057.02-.054.02-.055.022-.054.022-.053.025-.053.025-.052.026-.051.027-.05.028-.05.029-.049.03-.049.031-.048.032-.046.033-.047.035-.045.034-.045.037-.044.036-.044.037-.043.038-.042.039-.041.04-.041.041-.04.041-.04.042-.039.043-.038.043-.039.044-.037.045-.037.045-.035.046-.036.047-.035.047-.034.047-.034.048-.033.048-.033.049-.032.051-.031.049-.032.051-.031.05-.03.052-.03.051-.029.053-.029.052-.027.05-.001.003-.026.054-.025.054-.025.055-.024.055-.024.055-.023.056-.022.056-.023.055-.022.056-.022.057-.021.056-.041.113-.04.114-.04.114-.038.114-.037.115-.035.114-.035.114-.033.115-.032.114-.033.113-.031.113-.031.113-.059.222-.057.218-.057.213-.055.208-.028.101-.026.099-.028.097-.027.095-.027.092-.027.09-.027.088-.028.085-.028.081-.028.079-.026.073-.001.003-.014.037-.015.035-.015.041.002-.006-.018.041-.017.039-.016.039-.019.039-.018.04-.02.041-.02.04-.021.041-.021.04-.023.041-.023.041-.024.041-.023.04-.025.041-.026.04-.027.043.004-.007-.029.043-.029.043.004-.006-.029.042-.027.036-.03.04-.031.041.005-.006-.032.04-.033.039.006-.007-.033.039-.034.038.007-.007-.035.038-.035.036.007-.007-.035.036-.035.035.007-.008-.037.035-.036.033.008-.008-.036.032-.037.031.009-.007-.038.03-.039.029.011-.008-.039.028-.031.021.004-.002-.012.008.008-.006-.035.024-.039.024.011-.008-.045.027.012-.008-.046.026.013-.008-.047.025.011-.006-.019.009.002-.001-.007.004.005-.003-.022.01.008-.004-.024.011.007-.003-.022.009-.018.008.007-.003-.008.003h.001l-.018.006.009-.003-.025.01.009-.004-.018.007h.001-.002l-.023.007.008-.003-.025.008.009-.003-.019.006.002-.001-.005.002-.019.006.008-.003-.025.007.009-.003-.022.006-.002.001-.018.004.009-.003-.026.006.009-.002-.025.005.009-.002-.026.004.01-.001-.026.003.009-.001-.026.004.01-.002-.027.003.01-.001-.027.003.011-.002-.022.002h.005l-.011.001.006-.001-.022.002.01-.001-.027.001h.01l-.027.001.01-.001h-.027.011-.021.003-.01.007-.024.009l-.022-.001h.006-.011.005l-.022-.002.01.001-.017-.002h-.002l-.027-.003.011.001-.028-.003.01.001-.028-.003.01.001-.028-.004.009.001-.028-.005.01.002-.028-.005.01.001-.029-.006.01.002-.03-.007.015.003-.018-.005.002.001-.018-.005.016.004-.032-.009.02.006-.015-.005-.005-.002-.026-.009.018.006-.03-.012.018.007-.014-.006.003.002-.019-.009.016.007-.026-.013.017.009-.012-.007.003.001-.019-.01.016.009-.026-.015.018.01-.01-.006h.001l-.004-.002-.022-.015.016.01-.009-.007-.024-.018.016.012-.013-.011.004.004-.015-.013.011.009-.006-.005-.007-.006-.006-.006.013.012.001.001-.007-.007-.009-.009-.009-.007-.008-.009-.008-.01-.009-.01-.008-.011-.008-.01-.008-.012-.009-.012-.008-.013-.008-.014-.007-.014-.008-.015-.008-.015-.008-.017-.008-.016-.006-.018-.007-.018-.007-.019-.007-.019-.006-.02-.007-.019-.005-.022-.005-.021-.006-.022-.005-.022-.005-.023-.004-.019-.004-.027-.004-.02-.004-.027-.003-.021-.003-.026-.002-.022-.003-.025-.004-.049-.003-.052-.002-.047-.001-.052.001-.045.001-.051.002-.045.004-.063.005-.063.005-.065.007-.062.007-.064.009-.063.009-.064.009-.063.011-.063.012-.065.013-.063.012-.064.014-.063.015-.064.014-.063.017-.065.016-.063.018-.064.018-.063.018-.065.02-.063.003-.01.011-.056.015-.066.016-.065.015-.067.017-.066.016-.067.018-.066.019-.066.018-.067.02-.067.019-.067.021-.067.02-.065.044-.135.044-.135.047-.134.048-.135.013-.035.037-.098.05-.134.052-.135.053-.134.053-.133.108-.269.108-.268.055-.134.054-.135.01-.024.011-.028.012-.038.011-.057-.001-.035-.004-.047-.012-.045-.017-.043-.025-.041h-.001l-.035-.041-.041-.035-.047-.026-.05-.019-.053-.009-.054-.001h-.001l-.043.007-.042.012-.039.019-.037.023-.026.02-.032.034-.017.022-.001.003-.025.033-.028.04-.03.045-.034.051-.072.111-.074.113-.067.103-.029.043-.024.036-.092.135-.093.136-.091.137-.09.136-.091.138-.089.139-.089.138-.088.139-.056.091-.059.096-.063.101-.065.106-.068.11-.072.113-.022.034-.054.082-.039.057-.039.059-.041.059-.041.059-.042.059-.042.059-.044.059-.044.058-.045.059-.045.057-.046.058-.045.057-.047.056-.048.055-.049.055-.048.053-.05.053-.049.052-.051.05-.05.048-.042.039-.01.008-.053.045-.025.023.002-.001-.003.002.001-.001-.026.021-.028.022.003-.002-.027.021-.028.022.003-.002-.028.02-.028.021.003-.002-.028.019-.029.02.004-.002-.028.019-.029.018.003-.002-.028.018-.028.017.004-.003-.03.018-.028.016.004-.001-.029.015-.029.015.004-.002-.028.014-.029.014.004-.002-.032.015.005-.003-.031.015.005-.002-.03.011-.029.012.005-.002-.026.011v-.001l-.003.002-.03.01.006-.002-.032.011.006-.002-.03.009-.002.001.006-.003-.035.007.007-.002-.034.005.006-.002-.033.005.007-.002-.035.004.007-.002-.034.003.008-.001-.034.002.007-.001-.034.001.007-.001h-.034l.009-.001h-.035l.008-.001-.034-.001.008-.001-.034-.002h.008l-.034-.003h.008l-.034-.005h.01l-.035-.004h.008l-.034-.005.009.001-.034-.007.01.001-.034-.008.008.001-.034-.009.009.002-.034-.01.009.001-.034-.01.009.002-.034-.011.01.002-.034-.012.009.002-.034-.014.01.003-.034-.014.008.002-.034-.014.01.003-.034-.017.01.003-.035-.017.01.003-.034-.018.009.004-.034-.02.012.005-.025-.015.016.007-.024-.015.017.007-.023-.015.016.008-.021-.016.016.01-.019-.017.016.011-.018-.018.016.012-.017-.018.016.013-.016-.017.015.013-.014-.018.015.014-.013-.018.015.015-.014-.019.015.017-.012-.019.015.017-.012-.02.014.018-.006-.012-.004-.008.012.019-.009-.021.011.019-.008-.021.011.02-.007-.022.009.02-.006-.022.008.02-.005-.022.008.019-.005-.022.007.02-.004-.023.006.019-.003-.022.005.018-.002-.022.003.017-.001-.022.003.017-.001-.022.003.016v-.023l.002.017.002-.024.001.016.002-.023.001.015.002-.023.001.014.003-.023v.013l.004-.023-.001.014.005-.024-.001.013.006-.023-.002.011.006-.023-.001.011.006-.024-.001.012.006-.025-.002.011.007-.023-.001.01.008-.024-.002.01.008-.024-.001.009.008-.023-.003.012.017-.046-.002.015.018-.046-.003.014.02-.046-.003.013.019-.04.021-.039-.004.009.021-.039.023-.039-.003.008.022-.039.022-.035.021-.034.044-.072.029-.043.028-.044.03-.042.008-.011.015-.036.02-.049.021-.049.021-.049.023-.049.022-.049.024-.049.047-.101.05-.101.053-.103.053-.104.054-.104.082-.154.03-.059.054-.109.056-.111.055-.111.055-.113.055-.115.053-.115.027-.059.026-.059.027-.059.025-.061.026-.06.024-.06.024-.061.025-.061.022-.062.023-.063.022-.063.022-.063.02-.064.021-.064.018-.065.019-.065.017-.066.017-.066v-.001l.016-.066.013-.068.013-.067.012-.069.011-.07.009-.068.009-.07.007-.071.006-.07.004-.071.002-.043.002-.043v-.043l-.001-.042-.001-.042-.002-.041-.003-.041-.003-.041-.005-.04-.005-.04-.006-.04-.006-.039-.008-.039-.007-.038-.009-.039-.01-.038-.012-.037-.01-.037-.012-.036-.014-.036-.012-.035-.015-.035-.015-.036-.016-.033-.017-.034-.017-.032-.018-.032-.019-.033-.019-.031-.02-.03-.02-.03-.023-.029-.021-.029-.024-.028-.022-.027-.024-.026-.025-.027-.025-.025-.026-.024-.026-.024-.026-.022-.028-.023-.027-.021-.028-.02-.029-.02-.028-.02-.029-.017-.03-.018-.03-.017-.03-.015-.03-.016-.032-.013-.03-.014-.031-.013-.031-.012-.033-.011-.032-.01-.032-.01-.032-.008-.033-.008-.032-.007-.032-.006-.033-.006-.032-.005-.034-.004-.032-.004-.033-.002-.033-.002h-.033l-.033-.001-.033.001h-.033l-.032.002-.034.003-.032.003-.033.005-.032.004-.032.006-.034.006-.031.008-.032.006-.032.009-.033.009-.031.01-.032.011-.031.01-.032.012-.03.013-.031.012-.03.014-.031.015-.03.015-.03.015-.029.017-.03.016-.029.019-.022.013-.006.005-.028.021-.026.021-.027.022-.027.022-.025.024-.026.023-.024.025-.025.024-.024.025-.024.027-.023.026-.023.026-.022.028-.022.028-.022.028-.02.03-.021.029-.019.029-.02.031-.018.031-.019.032-.008.015-.002.022-.001.042v.042.042.041.041.04l.001.041.001.039.002.038.101.275.274-.101.03-.02-.001.004.03-.021-.002.005.031-.019-.003.004.033-.017-.003.004.032-.017-.002.005.032-.016-.003.006.033-.014-.003.005.035-.013-.005.006.035-.013-.004.007.019-.006.008-.011-.004.007.019-.022-.005.006.021-.02-.006.006.02-.02-.005.006.02-.02-.005.006.021-.018-.005.006.019-.019-.005.007.021-.019-.006.006.021-.016-.005.005.02-.016-.006.005.022-.016-.006.006.021-.016-.006.006.021-.015-.007.005.022-.014-.006.006.021-.014-.007.006.022-.015-.007.006.023-.013-.008.006.022-.012-.008.004.023-.011-.007.005.022-.011-.008.005.022-.011-.008.005.023-.01-.008.005.006-.003.016-.009-.008.005.021-.011-.008.005.022-.01-.009.004.022-.01-.009.005.022-.01-.009.004.022-.009-.009.004.015-.005.021-.008-.01.004.022-.008-.009.004.023-.007-.01.003.022-.006-.009.002.022-.005-.01.002.023-.004-.01.001.022-.004-.009.003.022-.005-.011.003.023-.004-.01.002.023-.004-.011.002.022-.003-.01.002.022-.003-.01.002.022-.002-.01.001.021-.001-.01.001.022-.001-.011.001.023-.001-.011.001.022-.001-.011.001h.022l-.01.001h.021-.011l.022.002-.011-.001.022.002h-.012l.022.002-.011-.001.021.003-.012-.001.022.002h-.011l.021.003-.012-.002.021.004-.011-.002.021.005-.012-.002.021.005-.012-.002.021.005-.011-.002.02.006-.012-.003.02.007-.011-.004.02.007-.012-.003.021.007-.012-.004.02.008-.012-.004.019.009-.011-.005.019.009-.011-.004.018.008-.011-.005.019.01-.012-.006.019.011-.011-.006.019.011-.012-.007.017.012-.01-.007.017.012-.01-.007.017.013-.012-.008.018.013-.011-.007.017.012-.01-.007.017.013-.011-.008.016.014-.01-.008.015.014-.009-.008.015.015-.011-.009.016.016-.01-.01.016.016-.01-.009.015.016-.01-.009.015.016-.009-.01.014.017-.009-.011.014.018-.009-.01.012.018-.007-.01.012.018-.008-.011.013.019-.008-.011.012.019-.007-.011.011.02-.007-.012.011.021-.007-.012.011.021-.006-.011.01.02-.006-.012.01.022-.006-.012.01.023-.006-.013.008.022-.004-.011.007.023-.005-.013.009.024-.005-.012.008.024-.005-.012.008.023-.005-.011.007.024-.004-.012.007.025-.004-.012.006.025-.003-.012.005.026-.003-.012.004.027-.002-.013.004.027-.002-.011.003.026-.002-.012.004.028-.002-.012.002.028-.001-.011.001.027-.001-.011.002.028-.001-.01v.029-.012.03l-.001-.011v.03l-.001-.011-.001.03.001-.011-.002.031v-.011l-.003.032.001-.011-.003.031.001-.01-.004.033v-.011l-.004.032.001-.011-.008.053-.009.054.001-.012-.01.053-.012.053.002-.011-.012.053-.013.051.002-.009-.014.051-.016.052.002-.011-.015.053-.017.051.002-.009-.018.051-.017.052.002-.009-.019.051-.018.047-.02.047-.019.047-.021.047-.021.048-.023.047-.022.048-.024.048-.024.046-.026.048-.024.048-.026.048-.027.049-.026.049-.027.047-.057.099-.059.098-.059.098-.062.101-.062.101-.063.102-.035.057-.091.152-.062.107-.063.108-.061.109-.063.112-.059.111-.032.059-.03.057-.029.058-.029.058-.03.059-.027.06-.022.045-.003.016-.017.066-.016.065-.015.066-.021.095-.012.053-.01.054-.011.055-.011.058-.01.059-.01.061-.009.062-.008.065-.007.065-.005.064-.002.036-.001.034-.001.034v.035.036.035l.001.036.003.036.002.036.004.037.005.037.005.037.007.039.008.038.008.038.011.038.011.038.014.039.013.038.017.039.016.038.02.037.022.038.022.037.024.037.027.035.01.013.018.022.03.033.032.031.032.032.035.028.035.027.038.026.037.024.039.023.04.02.041.019.042.017.042.015.042.013.049.013.048.011.047.01.047.009.047.007.047.007.046.006.046.004.046.003.045.002.045.001h.046l.044-.001.044-.003.043-.003.044-.005.043-.005.042-.007.042-.006.042-.009.041-.009.04-.011.04-.011.04-.011.039-.013.039-.014.038-.013.037-.016.038-.016.002-.001.036-.011.038-.014.038-.015.037-.014.037-.016.036-.016.036-.017.036-.019.035-.017v-.001l.036-.019.035-.019.035-.02.033-.02.034-.022.033-.021.035-.023.033-.022.032-.024.032-.022.033-.024.032-.025.031-.024.032-.027.031-.025.031-.026.03-.026.031-.027.059-.054.011-.01.048-.046.059-.056.058-.057.056-.058.056-.059.054-.061.053-.06.017-.019-.012.055-.016.076-.014.076-.015.078-.012.077-.011.078-.012.077-.01.078-.008.079-.008.079-.007.078-.006.081-.003.068-.003.07-.001.072v.074l.003.074.003.075.005.075.005.04.004.038.004.039.005.04.005.039.006.04.007.039.008.04.009.04.008.04.009.04.011.04.011.04.011.04.013.04.014.041.014.04.016.04.016.04.017.04.018.04.019.04.021.039.021.04.023.039.024.039.025.039.026.038.028.038.03.037.03.036.031.037.033.035.035.034.024.022.013.012.037.032.039.031.041.03.042.029.043.027.044.026.046.025.046.023.048.022.048.02.05.018.051.017.052.015.051.014.051.01.041.009.039.007.039.006.039.006.038.004.04.005.038.003.039.001.038.002.038.001.038.001.038-.001.037-.001.038-.001.037-.002.037-.003.038-.004.037-.005.036-.005.036-.006.036-.006.036-.007.035-.007.036-.008.035-.009.035-.009.034-.01.034-.01.033-.011.035-.012.033-.012.032-.012.033-.013.032-.014.033-.013.031-.015.031-.015.031-.015.031-.016.032-.016.058-.032.059-.035.057-.037.056-.037.055-.038.054-.04.052-.041.051-.042.05-.043.05-.044.048-.045.046-.046.046-.047.044-.047.043-.048.043-.048.041-.049.041-.05.039-.05.04-.051.038-.05.036-.052.036-.052.034-.051.035-.052.033-.053.032-.052.031-.053.031-.052.029-.053.029-.053.028-.053.027-.052.026-.052.026-.053.025-.052.023-.052.023-.052.022-.051.02-.051.021-.051.02-.05.018-.05.018-.05.016-.045.014-.044.001-.002.029-.09.029-.094.027-.096.026-.097.026-.097.025-.099.024-.101.025-.102.023-.103.024-.105.023-.105.046-.213.047-.216.047-.219.049-.221.024-.109.025-.11.026-.111.027-.11.027-.109.028-.11.028-.108.029-.11.031-.106.032-.107.032-.107.033-.104.018-.052.017-.052.017-.051.019-.051.017-.051.019-.05.019-.05.02-.05.018-.048.021-.049.021-.049v-.002l.017-.047.019-.049.018-.048.02-.047.019-.047.02-.047.02-.047.021-.046.021-.045.022-.045.022-.045.023-.043.024-.046-.002.005.025-.045.025-.045-.003.005.025-.044.027-.043-.003.004.027-.042.028-.042-.004.005.028-.042.029-.04-.004.004.03-.04.029-.039-.004.004.031-.039.031-.037-.004.004.031-.037.033-.038-.005.004.032-.035z"/><path d="m40.3902 67.2345-.008-.004.001.001.005.002z"/><path d="m50.3307 66.6339-.003-.005.003.007z"/><path d="m52.5543 67.5167-.005.002h.001z"/><path d="m50.3316 66.6378-.001-.002z"/><path d="m42.4029 62.2951-.004-.002.011.007z"/><path d="m55.3883 63.1701-.013-.006-.035-.04-.013-.032.001.003-.002-.021.005.004-.002-.013.005.005v-.012l.012.015v-.008l.012.019v-.005l.011.024.001-.003.011.028v-.002l.01.031v-.001l.001.004zm-10.036 2.398-.048.053-.049.053-.048.052-.049.051-.05.051-.025.026-.008-.038-.013-.057-.011-.057-.011-.057-.009-.058-.009-.06-.009-.059-.009-.061-.007-.06-.006-.062-.007-.062-.005-.063-.005-.062-.004-.064-.004-.064-.003-.065-.002-.065-.002-.066-.001-.064-.001-.066v-.067l.001-.066.001-.067.002-.066.002-.067.003-.067.003-.067.004-.068.004-.066.005-.067.006-.068.004-.067.001-.007.005-.06.006-.067.007-.067.007-.067.007-.066.008-.066.007-.067.009-.065.009-.066.01-.065.008-.066.01-.064.01-.065.011-.062.022-.128.023-.123.024-.122.024-.12.027-.117.026-.114.027-.111.027-.107.028-.105.028-.1.029-.096.028-.093.028-.087.028-.083.027-.078.029-.076-.003.007.01-.027.011-.027-.002.006.012-.029.005-.012.007-.021-.002.006.01-.033.013-.035-.003.004.014-.035.013-.036.013-.036.015-.037.015-.038.016-.039.018-.039.017-.041.02-.041.018-.041.021-.042.021-.042.022-.042.021-.042.024-.043.023-.042.025-.043.025-.043.025-.042.029-.043-.003.004.028-.044.028-.043-.003.004.03-.042.03-.042-.004.004.031-.041.032-.041-.005.005.032-.04.032-.039-.005.004.034-.039.033-.036-.005.004.033-.036.034-.035-.005.005.035-.033.035-.033-.007.004.039-.033-.007.005.039-.032-.007.005.039-.032-.007.005.04-.029-.006.004.02-.014-.004.002.021-.014-.005.002.02-.012-.003.002.02-.013-.004.002.021-.012-.005.002.02-.012-.005.002.022-.01-.005.002.021-.011-.005.002.021-.011-.005.002.021-.01-.005.002.02-.01-.004.002.021-.008-.005.001.022-.008-.006.002.021-.009-.006.002.022-.008-.006.002.022-.008-.005.002.021-.007-.006.001.022-.005h-.006l.022-.003h-.007l.023-.004h-.006l.022-.004h-.006l.022-.003h-.007l.023-.002h-.007l.022-.002-.006-.001.019-.001.02-.002h-.007.022l-.007-.001.024.001-.007-.001.023.001-.006-.001.022.002-.006-.001.023.002-.006-.002.022.004-.006-.002.023.004-.006-.002.022.004-.005-.001.023.005-.006-.002.024.006-.006-.002.023.006-.006-.002.024.007-.006-.003.023.008-.005-.002.024.009-.007-.003.022.008-.007-.003.02.009-.007-.004.02.011-.006-.004.02.011-.006-.005.018.011-.006-.004.02.013-.006-.005.019.013-.005-.004.017.014-.005-.005.018.014-.005-.004.018.014-.005-.004.005.004.01.013-.004-.005.015.019-.005-.005.015.018-.004-.005.011.016v-.001l.001.002.012.018-.003-.005.01.017.002.003.007.013.012.02-.003-.004.01.019.001.003v-.001l.008.019-.002-.004.011.022-.002-.004.01.024-.002-.004.01.023-.002-.004.01.025-.002-.003.009.023-.002-.003.007.024.001.002v-.001l.006.02.007.025-.001-.003.008.026-.001-.004.007.027-.001-.002.006.026-.001-.003.005.028v-.003l.005.028-.001-.003.006.028.004.025.004.028v-.005l.007.056v-.001l.001.003.006.054.005.06-.001-.005.004.06.002.062v-.004l.001.063v.063-.004.064l-.001.063-.003.064-.004.064-.004.065-.006.066-.006.065-.007.067-.008.065-.008.067-.009.065-.01.066-.011.066-.01.065-.012.065-.012.064-.012.064-.012.063-.013.062-.014.061-.013.061-.014.058-.014.058-.013.057-.015.055-.014.054-.013.053-.029.099-.027.093-.026.084-.025.075-.024.069.002-.004-.012.031.001-.003-.011.027-.021.055-.023.056-.022.055-.025.057-.024.057-.024.056-.026.058-.026.057-.027.057-.027.058-.028.058-.028.058-.029.059-.03.058-.03.059-.031.058-.031.06-.032.059-.032.058-.034.059-.033.059-.034.06-.035.059-.034.059-.036.059-.037.059-.036.059-.038.059-.037.059-.038.06-.039.058-.039.058-.04.058-.04.059-.041.058-.041.057-.041.058-.043.057-.042.058-.044.057-.043.056-.03.039-.014.018-.045.056-.045.055-.046.056-.046.055-.046.054-.046.054-.047.055zm-5.747-1.207.021-.056.023-.058.024-.056.025-.057.024-.057.027-.054.027-.056.028-.056.029-.054.031-.053.03-.055.031-.053.033-.052.034-.052.033-.052.035-.05.036-.05.036-.049.037-.049.038-.048.042-.051-.007.008.043-.051.043-.049-.006.008.044-.049.043-.044.04-.042.044-.044.041-.039.046-.042-.005.005.007-.006-.002.001.042-.038.05-.041-.009.007.05-.04.045-.036.005-.004.042-.031.046-.032-.003.002.009-.007-.006.005.049-.035.049-.031.047-.03.05-.03.004-.002-.002.001.046-.027.056-.03-.009.005.028-.015.029-.013-.006.002.028-.014.028-.013-.006.002.028-.013.029-.012-.006.002.029-.012.028-.013-.005.003.028-.011.03-.012-.007.002.027-.01.002-.001.024-.009-.001.001.003-.002.027-.009.029-.01-.007.002.031-.01.029-.01-.007.002.03-.009.031-.008-.007.001.03-.008.03-.008-.007.002.031-.008.03-.007-.007.001.031-.007.031-.006-.007.001.031-.006.031-.005-.007.001.031-.006.032-.005-.008.001.032-.005.032-.004-.008.001.027-.003.023-.003h.004l.022-.002h-.009l.031-.002-.009.001.027-.002h.002-.001l.022-.001h-.009l.028-.001-.01.001h.029l-.01-.001h.019l.027.001h-.01l.027.001-.01-.001.026.001-.01-.001.02.002h-.004l.01.001-.006-.001.021.002-.011-.001.026.003-.011-.002.025.004-.011-.002.024.004-.011-.002.024.005-.011-.003.024.005-.011-.003.015.003.007.002-.004-.001.015.004-.012-.003.016.004.007.002h-.001l.01.002-.011-.003.012.004-.001-.001.008.003.004.002-.002-.001-.003-.001.013.004-.008-.002.016.005-.012-.004.02.007-.011-.005.02.008-.013-.005.018.008h.001-.001l.007.003-.011-.006.012.006h-.001l.008.004-.012-.007.018.01-.012-.007.018.01-.012-.007.012.007-.006-.004.009.006.007.004-.006-.004.01.007-.005-.004.012.01-.008-.007.011.009-.007-.006.01.008-.006-.005.009.008-.004-.005.005.005.001.001-.001-.001h-.001l-.003-.003.007.006v-.001l.002.002-.002-.001.006.005-.01-.01.013.013.003.003-.009-.01.01.011-.001-.001.004.004-.009-.011.012.015-.008-.011.006.009-.003-.005.008.01-.005-.007.004.006-.001-.002.002.004h.001v.001h.001v.002l-.001-.002v-.001l.005.008-.002-.003.005.007-.008-.012.008.011-.004-.007.004.007.001.001-.001-.001.001.002.001.001v.001h.001-.001l.003.003.003.006-.006-.011.009.016h.001l.002.005-.006-.012.009.017-.005-.011.004.008.003.006.004.009-.005-.012.004.009-.002-.003.005.011-.003-.008.006.014-.004-.011.004.015-.002-.008.003.01-.001-.002.004.009-.004-.012.004.013.004.013-.003-.011.004.015-.002-.008.003.012-.001-.004.003.01-.003-.015.008.036.003.017.003.018.002.02.002.021v.022.022.024l-.002.024-.002.019.002-.009-.002.015v-.006l-.003.028.002-.011-.003.016.001-.005-.005.031.003-.016-.008.042.003-.013-.01.042.004-.015-.009.04-.001.003.001-.001-.006.023.002-.007-.004.013.002-.006-.012.036.005-.013-.015.042.005-.013-.016.042.005-.012-.016.043.006-.013-.017.038.004-.008-.006.013.002-.005-.013.028.003-.006-.006.012.003-.006-.015.032.004-.007-.006.011.002-.004-.014.027.003-.004-.006.011.003-.007-.019.035.005-.01-.006.012.001-.002-.018.032.007-.012-.023.038.004-.007-.007.01.003-.003-.022.033.008-.011-.028.039.008-.01-.022.031-.029.037.008-.01-.031.04-.031.036.005-.006-.006.008.001-.002-.028.031-.034.037.008-.007-.034.037-.035.035.006-.007-.035.034-.037.034.008-.006-.038.034-.038.031.009-.006-.039.031-.041.032.009-.005-.04.03-.041.029.008-.005-.042.029-.041.027.008-.004-.043.027-.036.023-.043.024-.044.027.008-.005-.045.024-.045.025.007-.004-.046.022-.046.023.007-.003-.046.021-.048.021.008-.003-.048.02-.046.019-.044.017-.044.016.002-.001-.007.003.005-.002-.047.017-.05.016.007-.002-.05.016-.05.016.006-.002-.05.014-.052.014.007-.001-.052.013-.048.012-.049.01-.048.011-.05.01-.05.01-.05.008-.05.008-.05.007-.051.008-.051.006-.051.005-.051.004-.05.005-.051.003-.052.004-.051.002-.051.002-.051.001-.052.001h-.052-.038l-.013.013-.053.046-.055.043-.037.025zm18.96-1.484-.024.021-.024.02.003-.002-.025.021-.024.019.002-.002-.024.02-.026.019.003-.002-.025.02-.026.017.003-.002-.025.019-.027.018.003-.002-.026.017-.026.018.003-.002-.027.016-.027.017.003-.002-.027.017-.027.015.003-.002-.027.016-.025.013-.027.014-.024.013-.028.013-.028.013.005-.003-.049.023.006-.003-.045.02-.045.017.007-.003-.044.016-.043.015.007-.003-.046.015.007-.003-.046.014.008-.002-.046.012.007-.002-.043.01.007-.002-.044.009.008-.002-.044.008.009-.002-.036.006h.001l-.008.001.007-.001-.041.005.009-.001-.042.004.008-.001-.041.003.009-.001-.04.002.009-.001-.04.001.009-.001h-.039.008l-.038-.002.01.001-.038-.003h.009l-.037-.004.009.001-.038-.005.011.001-.037-.006.01.001-.036-.007.009.002-.035-.008.011.002-.035-.009.01.003-.035-.01.01.002-.033-.011.01.003-.033-.012.009.003-.032-.012.01.003-.031-.013.009.004-.031-.015.01.005-.03-.016.008.004-.029-.015.009.004-.028-.016.008.004-.028-.017.009.005-.027-.018.007.005-.027-.019.009.006-.027-.02.008.006-.025-.021.009.006-.026-.02.008.006-.024-.022.007.007-.023-.022.007.006-.024-.023.008.007-.015-.017-.022-.023.007.007-.022-.025.007.008-.02-.025.007.006-.02-.025.006.008-.02-.026.007.008-.007-.01-.012-.016-.014-.018-.013-.017-.013-.019-.012-.018-.012-.02-.011-.019-.011-.02-.01-.019-.011-.021-.009-.021-.008-.02-.009-.021-.007-.021-.008-.021-.007-.021-.005-.021-.006-.021-.005-.021-.005-.022-.004-.021-.003-.021-.003-.021-.003-.021-.001-.021-.001-.021-.001-.021v-.02-.02l.002-.02.001-.021.002-.019.003-.019.003-.019.004-.019.004-.018.005-.019.005-.017.006-.018.005-.017.007-.016.007-.017.008-.016.008-.016.008-.016.009-.014.01-.016.011-.014.01-.014.011-.014.012-.014.013-.013.012-.013.014-.013.014-.012.015-.012.016-.012.017-.011.017-.012.018-.011.019-.011.02-.009.021-.011.023-.01.022-.009.025-.009.025-.008.026-.008.029-.007.028-.007.03-.006.031-.005.033-.004.034-.004.034-.003.037-.003.038-.001.038-.001.036.001.033.001.034.002.033.004.033.004.033.005.032.006.031.008.031.008.032.01.03.008.031.012.029.011.031.013.029.013.029.015.029.015.028.016.028.017.028.017.028.019.027.019.028.02.026.021.027.021.026.022.026.023-.006-.005.026.023.005.005-.005-.005.03.03.024.025-.005-.006.028.029.025.029-.004-.005.027.029.02.025.024.03.025.031-.004-.005.023.032.024.032-.003-.005.022.032.022.032.018.03.019.029.019.033.02.035-.003-.004.02.035.018.034-.002-.005.018.035.016.033.016.034.016.035-.001-.004.008.02-.015.013zm.762-1.255-.025.074-.025.073-.028.071-.028.072.001-.003-.015.035-.014.037.001-.002-.016.035-.016.035.001-.002-.016.034-.017.034.001-.002-.016.035-.017.034.001-.002-.019.034-.016.031-.019.032-.012.024-.006-.01-.025-.042-.023-.041-.026-.041-.026-.041-.026-.04-.028-.04-.028-.039-.029-.039-.031-.039-.03-.038-.031-.037-.032-.038-.033-.036-.035-.036-.034-.034-.035-.035-.037-.033-.037-.034-.037-.032-.039-.031-.04-.03-.04-.031-.041-.028-.043-.027-.043-.027-.044-.026-.044-.024-.046-.024-.046-.022-.048-.021-.048-.019-.048-.019-.049-.017-.051-.017-.051-.014-.052-.012-.053-.012-.053-.01-.053-.009-.055-.007-.054-.003-.056-.004-.056-.002-.056-.001-.055.002-.054.002-.053.004-.052.004-.052.006-.051.009-.051.009-.047.01-.049.011-.047.013-.047.015-.046.015-.044.017-.044.018-.043.019-.041.021-.041.021-.039.023-.039.024-.037.025-.036.027-.035.027-.034.028-.034.03-.031.03-.03.031-.029.032-.028.034-.026.034-.026.034-.023.035-.022.036-.022.036-.019.037-.019.038-.018.038-.015.038-.015.038-.014.039-.011.039-.012.039-.01.04-.009.04-.006.04-.007.04-.005.04-.004.04-.003.04-.002.041v.04.04l.001.04.003.04.004.041.004.04.006.04.007.04.006.04.009.039.01.039.011.04.01.038.013.039.014.038.014.038.015.038.017.037.016.037.019.038.018.036.021.036.02.035.023.035.022.035.024.034.024.034.018.021.009.011.028.031.028.03.03.031.031.029.031.027.032.028.033.027.035.026.035.026.035.023.036.024.037.021.038.022.038.02.04.019.04.018.04.018.042.015.041.015.043.014.043.011.044.011.045.011.045.009.045.006.046.006.046.004.047.004.047.001h.047.048l.048-.003.049-.004.048-.004.05-.007.049-.008.049-.01.05-.012.05-.012.05-.014.05-.016.05-.016.051-.019.051-.02.051-.022.05-.022.051-.026.052-.025.052-.028.051-.029.032-.019.031-.02.031-.019.031-.02.032-.02.03-.022.03-.021.03-.022.03-.022.029-.023.028-.022.029-.024.028-.023.028-.024.028-.025.005-.004.006.038.01.069.008.065.008.071-.001-.005.006.072.005.072v-.006l.004.074.002.072v.071.072l-.002.073-.003.073-.005.073-.005.073-.008.074-.009.074-.01.073-.011.074-.013.074-.014.074-.003.017-.016.055-.022.075.002-.005-.011.038-.012.036-.012.035-.012.037.001-.003-.013.037-.013.036.001-.003-.013.036-.014.036.001-.002-.014.036-.015.036.001-.003-.014.035-.016.035.001-.003-.016.035-.015.036.001-.003-.017.034-.015.035.001-.004-.018.034-.017.034.001-.003-.017.034-.018.033.001-.002-.002.003.001-.001-.017.031-.019.032.002-.003-.02.033-.019.033.002-.004-.02.032-.02.032.002-.003-.021.031-.021.031.003-.004-.022.031-.022.032.003-.004-.023.03-.021.029.002-.004-.023.031-.022.029.002-.004-.024.028-.023.029.003-.004-.025.028-.024.028.003-.004-.025.027-.025.027.003-.004-.025.027-.026.026.004-.005-.026.027-.027.025.004-.004-.027.024-.023.022-.028.023-.027.024.004-.005-.029.023-.029.024.005-.005-.028.022-.03.022.005-.004-.03.021-.029.021.005-.004-.031.021-.031.019.006-.004-.031.02-.028.016.002-.001-.006.003.004-.002-.03.017-.029.016-.03.016-.033.017.007-.004-.033.016-.034.016.007-.004-.035.016-.034.014.006-.003-.034.014-.035.014.007-.003-.036.013-.03.01-.034.012-.037.011.007-.003-.036.012-.039.008.008-.002-.038.01-.038.009.008-.002-.038.009-.039.007.007-.002-.038.007-.041.006.008-.001-.04.006-.041.005.009-.002-.049.006-.049.004.011-.001-.047.002-.046.002.012-.001-.051.001.012-.001h-.05.013l-.049-.002h.013l-.048-.003h.014l-.047-.004.012.001-.046-.006.014.001-.044-.007.014.002-.044-.008.014.002-.043-.008.014.002-.042-.01.015.003-.042-.012.016.004-.041-.012.015.004-.04-.014.015.004-.038-.013.014.005-.037-.016.015.006-.037-.017.015.006-.036-.017.015.005-.035-.017.014.007-.034-.02.015.008-.033-.022.013.009-.032-.021.014.009-.032-.023.013.009-.03-.024.014.01-.031-.025.013.01-.029-.025.012.01-.028-.025.012.009-.027-.027.01.011-.026-.028.012.01-.027-.028.011.011-.025-.029.009.011-.024-.03.01.01-.024-.03.01.011-.023-.031.008.01-.022-.032.009.012-.022-.033.008.01-.02-.033.006.011-.019-.034.008.011-.02-.035.006.011-.018-.035.006.01-.017-.035.006.01-.018-.037.006.011-.017-.037.006.01-.016-.038.004.01-.011-.033-.013-.034.005.01-.012-.035-.012-.035.004.01-.01-.036-.01-.036.004.01-.01-.038-.007-.028-.003-.009.002.01-.012-.037-.012-.037.002.009-.012-.037-.012-.04.002.009-.011-.039-.009-.039.001.008-.01-.039-.009-.041.001.008-.009-.041-.008-.041v.007l-.007-.041-.008-.042.001.007-.007-.043-.007-.042.001.007-.006-.043-.006-.043.001.007-.005-.044-.004-.04-.004-.041-.004-.041-.003-.041-.003-.041-.002-.042-.002-.042-.001-.042-.001-.042-.001-.042v-.042-.043l.001-.042.002-.042.001-.042.002-.043.003-.042.002-.042.003-.042.004-.042.004-.042.004-.041.004-.041.005-.041.006-.041.006-.04.006-.041.007-.04.006-.039.006-.04.008-.039.008-.038.008-.038.008-.037.009-.039.009-.036.01-.039-.002.005.01-.038.011-.037-.001.005.01-.037.011-.036-.002.004.012-.036.01-.032.001-.003v.002l.01-.031.012-.034-.002.006.012-.035.012-.032-.002.006.013-.031.012-.031-.002.004.013-.03.007-.016-.011-.022-.003.006-.027-.051-.022-.048-.002.004-.018-.048-.002.004-.014-.048-.002.004-.012-.045-.004.006-.005-.032-.005.009-.001-.014-.006.008v-.011l-.008.008v-.009l-.012.012.001-.008-.019.015.002-.005-.03.013v-.002l.002-.003.023-.026.02-.024.019-.023.016-.024.012-.024.004-.019v-.022l-.002-.015-.006-.017-.008-.015v-.004l-.01-.016-.014-.013-.015-.012-.001-.003-.02-.013-.023-.009-.023-.004-.003-.002-.02-.001-.02.002-.02.003-.003-.001-.018.007-.018.008-.015.006-.023.013-.018.01-.017.009-.018.011-.036.014-.048.014-.051.014-.054.014-.057.013-.06.014-.025.006-.013.022-.02.036-.019.038-.021.039-.018.038-.019.04-.018.04-.019.04-.018.041-.017.042-.017.042-.016.043-.017.042-.016.044-.016.044-.016.044-.014.044-.015.046-.014.046-.014.045-.014.047-.014.047-.012.048-.013.047-.012.048-.012.048-.011.049-.011.049-.011.049-.01.05-.009.049-.01.05-.009.051-.009.05-.007.051-.008.05-.006.051-.008.052-.006.052-.006.051-.005.052-.004.052-.004.052-.004.052-.003.051-.003.053-.002.052-.002.052-.001.053v.053.045l-.025.045-.036.064-.037.065-.039.065-.039.067-.041.066-.043.067-.043.068-.044.067-.046.068-.046.068-.048.068-.049.068-.049.067-.051.066-.051.067-.054.066-.053.066-.055.063-.055.064-.056.062-.057.062-.057.059-.061.061.003-.003-.03.03-.029.028-.03.028-.03.028-.03.026-.031.028-.03.026-.03.026-.031.027.002-.003-.032.026-.032.027.003-.003-.032.025-.033.026.004-.004-.033.024-.033.024.004-.003-.033.024-.029.019-.004.003.004-.003-.034.023-.033.021.004-.003-.033.022-.034.02.005-.002-.034.019-.032.019-.002.001.001-.001-.029.016-.034.019.005-.004-.034.017-.035.018.007-.004-.034.017-.035.015.006-.003-.035.015-.034.015.007-.003-.034.013-.035.013.007-.003-.035.012-.035.012.008-.003-.034.01-.035.011.008-.003-.035.01-.035.008.009-.002-.039.009.009-.002-.039.008.008-.002-.039.007.01-.002-.04.006.01-.002-.04.006.01-.002-.041.006.01-.003-.04.005.011-.002-.041.004.011-.001-.041.002.01-.001-.04.001h.011-.041l.012-.001h-.041.011l-.041-.002h.011l-.041-.002h.011l-.04-.003h.011l-.041-.004.011.001-.042-.006.012.001-.041-.005.012.001-.042-.007.012.002-.042-.009.011.002-.042-.009.013.001-.043-.01.013.002-.043-.011.011.002-.042-.011.012.002-.042-.013.012.003-.043-.015.012.003-.042-.015.01.003-.042-.016.011.004-.037-.017-.037-.016.011.003-.037-.017-.038-.02.01.005-.037-.02-.039-.022.011.005-.038-.022-.036-.024.01.006-.036-.023-.034-.024.01.007-.033-.024-.034-.026.01.007-.031-.025-.031-.026.01.008-.03-.026-.029-.027.01.008-.034-.031.01.009-.033-.032.011.008-.033-.032.01.009-.031-.032.01.008-.03-.033.009.01-.029-.034.009.01-.029-.035.01.01-.027-.034.009.009-.027-.035.008.01-.025-.036.008.011-.025-.036.009.01-.026-.037.009.011-.019-.032-.019-.032.007.01-.018-.032-.017-.032.007.011-.017-.033-.016-.034.006.011-.015-.034-.015-.034.006.01-.014-.034-.013-.035.004.012-.012-.036-.013-.035.005.01-.012-.036-.007-.025v.001-.001h-.001l-.003-.01v.001l-.01-.025-.014-.037.004.011-.014-.036-.012-.036.003.011-.012-.037-.012-.038.003.01-.011-.037-.01-.038.002.01-.01-.038-.009-.039.001.009-.009-.039-.008-.037.002.007-.002-.009v.002l-.006-.032-.007-.04.002.009-.007-.04-.006-.036v.004l-.001-.008.001.004-.006-.037-.005-.042.001.009-.005-.042-.004-.041v.008l-.003-.042-.003-.042v.009l-.002-.043-.002-.043-.001-.035-.002-.043v.008-.043l-.001-.04.001-.04.001-.04.001-.041.002-.04.002-.041.001-.04.003-.041.004-.041.004-.041.004-.042.004-.04.006-.042.005-.041.006-.042.006-.041.006-.042.008-.041.007-.041.008-.042.007-.034.001-.007.003-.042.005-.043.005-.042.005-.042.006-.042.007-.042.006-.043.008-.041.006-.042.008-.042.008-.042.009-.041.009-.042.009-.041.01-.041.01-.04.01-.041.01-.041.011-.04.012-.04.012-.039.011-.039.012-.04.013-.038.013-.038.012-.038.015-.038.012-.037.015-.038.014-.037.014-.036.015-.036.015-.035.015-.034.016-.035.015-.035.017-.035-.002.003.017-.034.017-.034-.003.004.019-.034.018-.035-.003.004.018-.032.018-.032-.004.005.025-.044.028-.043-.006.007.027-.042.029-.042-.006.006.03-.041.03-.04-.007.007.018-.02.014-.019.034-.037-.007.007.038-.04-.008.006.039-.038-.008.006.041-.038-.006.004.02-.017-.004.003.021-.019-.004.003.02-.018-.004.003.022-.017-.004.003.021-.018-.003.003.021-.016-.005.002.023-.016-.005.003.022-.017-.004.003.023-.017-.005.003.022-.014-.004.002.023-.016-.005.003.023-.015-.004.002.024-.014-.005.003.023-.015-.004.003.024-.014-.005.002.025-.013-.005.001.024-.012-.005.002.025-.013-.005.003.025-.013-.005.002.026-.012-.005.001.025-.01-.005.002.026-.012-.005.002.025-.011-.005.001.027-.01-.005.002.026-.009-.005.001.027-.01-.005.002.026-.009-.005.001.028-.009-.005.001.026-.008-.005.001.027-.008-.004.001.028-.006-.005.001.025-.007h.002l.024-.006-.005.001.027-.006h-.004l.029-.005h-.005l.028-.004h-.005l.03-.005h-.005l.029-.003h-.006l.029-.004h-.004l.03-.002h-.005l.03-.002-.005-.001.029-.001h.002-.001l.007-.001h-.009.016l-.008-.001h.017-.008.018-.007l.016.001.015.001-.008-.001.039.004-.008-.001.041.005-.006-.001.039.007.041.008-.004-.001.042.01.044.01-.003-.001.044.01.089.024.088.023.086.025.081.021.04.011.037.01.036.008.034.006.035.007.034.004.021.002.021.001.026-.001.031-.005.04-.011.023-.011.024-.015.023-.017.002-.003.025-.027.019-.029.001-.004.014-.032.009-.034v-.004l.002-.029-.001-.027-.004-.025-.013-.038-.014-.028-.014-.022-.014-.019-.014-.016-.014-.015-.018-.017-.005-.006-.021-.023-.022-.022-.022-.024-.022-.022-.024-.024-.023-.022-.025-.023-.025-.022-.026-.023-.025-.021-.026-.022-.027-.021-.028-.021-.027-.02-.029-.021-.029-.019-.028-.02-.031-.018-.03-.018-.031-.017-.03-.018-.033-.016-.031-.016-.033-.015-.032-.013-.034-.014-.034-.012-.034-.013-.034-.01-.035-.009-.035-.009-.029-.006-.027-.006-.027-.003-.029-.005-.026-.004-.028-.003-.027-.003-.027-.002-.027-.002h-.027l-.027-.001h-.026-.028l-.026.002-.027.001-.025.002-.026.002-.027.003-.025.004-.026.004-.026.003-.025.005-.026.006-.026.005-.049.013-.049.014-.048.016-.048.018-.047.019-.046.02-.046.021-.045.024-.044.024-.044.025-.042.027-.042.027-.042.028-.04.03-.04.03-.039.031-.039.033-.037.033-.019.016-.018.017-.037.033-.036.035-.036.035-.035.036-.034.036-.033.037-.033.037-.033.037-.032.038-.03.038-.031.038-.03.039-.029.039-.028.039-.029.039-.028.039-.026.04-.027.039-.026.039-.018.027-.012.017-.029.035-.027.035-.028.036-.028.037-.026.038-.027.037-.027.039-.027.039-.026.039-.027.04-.026.04-.025.041-.026.04-.025.042-.026.042-.025.042-.024.043-.025.043-.024.043-.024.044-.024.045-.024.045-.022.043-.023.046-.023.046-.022.046-.022.047-.022.046-.022.048-.02.047-.022.047-.019.048-.021.049-.019.048-.02.05-.018.049-.02.049-.019.05-.017.05-.018.051-.003.008-.009.044-.013.051-.012.052-.012.053-.01.052-.01.052-.01.052-.01.054-.008.053-.009.052-.008.053-.007.054-.007.053-.005.054-.006.053-.006.054-.002.028-.037.095-.039.093v.002l-.04.095-.04.094-.042.093-.042.091-.022.044-.021.045-.022.045-.022.044-.023.042-.022.043-.023.043-.023.042-.023.041-.024.041-.023.04-.024.04-.024.039-.026.038-.024.038-.026.039.002-.004-.027.039-.026.038.003-.005-.028.038-.027.037.004-.006-.028.036-.029.036.004-.005-.029.035-.028.034.003-.006-.029.033-.029.033.005-.005-.031.031-.03.032.006-.007-.031.032-.031.029.005-.006-.031.028-.032.03.007-.008-.032.028-.033.026.007-.006-.032.026-.034.024.009-.006-.035.024-.034.023.009-.006-.035.022-.034.022.009-.007-.041.024.01-.006-.041.023.011-.006-.042.021.011-.006-.042.022.01-.006-.043.021.011-.006-.043.019.012-.007-.045.019.013-.005-.045.018.011-.005-.045.015.012-.004-.046.014.013-.004-.047.014.012-.004-.047.013.013-.004-.049.012.014-.004-.049.01.012-.003-.049.01.013-.004-.044.008-.044.006.013-.002-.045.005-.046.004.014-.002-.048.003-.047.002.013-.001-.048.001h-.05l.014-.001-.05-.001-.051-.004.013.001-.052-.004-.052-.005h.012l-.053-.006-.054-.008.012.001-.057-.008-.031-.005.008.001-.032-.007-.031-.006.008.001-.03-.007-.031-.007.009.002-.03-.008-.03-.007.008.002-.029-.008-.027-.009.007.002-.028-.008-.027-.01.009.003-.028-.009-.027-.009.009.002-.027-.01-.026-.01.009.003-.026-.011-.025-.01.009.003-.025-.011-.024-.012.008.004-.024-.012-.024-.011.009.002-.028-.013.009.005-.027-.015.009.003-.028-.014.009.004-.026-.014.007.003-.025-.015.008.005-.026-.016.009.005-.025-.017.008.005-.026-.016.009.005-.024-.017.007.006-.024-.018.009.006-.025-.018.008.006-.023-.018.008.006-.024-.019.009.006-.023-.019.007.007-.022-.019.008.007-.023-.02.008.006-.022-.02.007.007-.021-.019.008.006-.022-.02.008.006-.021-.021.007.007-.021-.02.007.006-.02-.02.007.007-.019-.022.006.007-.02-.021.008.007-.021-.022.007.007-.019-.022.006.007-.018-.022.007.007-.019-.023.007.008-.019-.023.006.006-.014-.018-.015-.021.006.008-.015-.02-.014-.02.006.007-.014-.021-.014-.02.006.007-.014-.021-.013-.021.007.01-.03-.049.01.014-.025-.044-.014-.026.047-.051.052-.057.052-.058.052-.06.051-.058.05-.06.051-.059.049-.061.05-.06.048-.062.048-.06.047-.063.047-.062.046-.062.046-.063.045-.062.045-.063.044-.063.044-.064.013-.02.03-.044.043-.063.042-.065.042-.063.04-.066.041-.063.04-.066.039-.064.039-.065.038-.065.038-.064.037-.066.037-.064.036-.067.036-.064.035-.065.034-.065.033-.066.034-.065.033-.064.032-.066.032-.064.03-.065.031-.064.03-.065.029-.065.029-.065.029-.063.027-.063.027-.065.027-.063.025-.063.026-.063.024-.063.024-.062.024-.063.022-.062.023-.062.022-.061.021-.061.02-.061.021-.061.01-.032.011-.036.022-.077.022-.085.024-.093.024-.102.023-.108.012-.057.012-.058.012-.06.011-.061.011-.061.012-.064.011-.064.009-.065.011-.067.01-.067.009-.069.008-.068.009-.069.008-.07.007-.07.007-.07.006-.072.005-.071.005-.071.003-.071.003-.072.003-.071.001-.07v-.071l-.001-.07-.001-.07-.003-.07-.004-.068-.005-.068-.006-.068-.007-.066-.01-.066-.01-.065-.012-.062-.006-.033-.006-.031-.008-.031-.008-.03-.008-.031-.008-.03-.009-.029-.009-.031-.01-.028-.011-.029-.01-.029-.012-.028-.012-.027-.012-.028-.013-.026-.013-.026-.014-.027-.015-.025-.016-.024-.015-.026-.017-.024-.017-.024-.018-.022-.019-.023-.018-.022-.015-.015-.005-.007-.019-.021-.02-.022-.02-.021-.022-.021-.023-.019-.023-.019-.024-.018-.025-.017-.026-.016-.025-.015-.028-.015-.027-.014-.027-.012-.028-.013-.027-.011-.028-.01-.028-.01-.028-.009-.027-.009-.03-.006-.028-.006-.028-.006-.029-.004-.029-.004-.028-.003-.03-.003-.028-.001-.029-.001h-.028l-.029.001-.029.001-.028.003-.029.002-.028.005-.028.004-.029.005-.028.005-.027.006-.029.006-.027.008-.027.007-.028.009-.028.009-.026.009-.028.01-.026.01-.027.012-.027.01-.026.012-.028.013-.051.025-.051.027-.051.029-.051.029-.049.031-.05.033-.049.034-.048.035-.048.035-.047.037-.046.037-.045.038-.045.04-.045.039-.044.042-.044.041-.043.041-.042.042-.041.042-.041.042-.04.043-.039.043-.039.042-.038.044-.038.043-.036.043-.035.043-.034.042-.034.043-.033.042-.033.042-.031.041-.03.041-.028.04-.03.04-.027.039-.026.039-.026.038-.024.038-.024.036-.013.022-.007.014-.019.036-.017.035-.016.035-.04.086-.039.091-.04.095-.04.098-.04.102-.04.106-.039.111-.04.113-.04.117-.038.12-.04.123-.038.126-.037.129-.037.133-.035.134-.034.136-.018.07-.016.069-.017.071-.016.07-.015.071-.016.072-.015.072-.014.072-.015.073-.013.074-.014.074-.013.073-.012.074-.011.067-.002.008-.011.075-.011.075-.009.076-.01.075-.009.076-.008.077-.009.076-.006.076-.007.077-.007.076-.005.077-.005.077-.004.077-.004.077-.002.076-.003.077-.001.077-.001.077v.078l.001.076.002.078.003.076.003.077.005.076.005.077.006.076.008.076.008.076.008.076.01.076.011.076.013.075.012.074.015.075.015.074.017.075.018.074.019.073.021.073.021.073.024.072.005.017-.034.022-.056.035-.057.034-.058.034-.057.033-.058.032-.058.03-.058.03-.059.03-.058.027-.059.028-.058.026-.06.025-.059.025-.059.024-.06.023-.059.021-.06.021-.059.018-.06.02-.061.016-.022.006-.037.012-.061.015-.059.015-.061.015-.06.012-.061.012-.065.012.009-.002-.065.011-.066.009.009-.002-.065.009-.066.007.009-.001-.066.006-.066.005.01-.001-.066.004-.068.003.011-.001-.067.001h-.068.011l-.066-.002-.069-.002h.011l-.067-.004-.069-.005h.011l-.068-.006-.069-.008.012.001-.068-.009-.07-.01.011.002-.068-.013-.069-.013.01.002-.069-.014-.065-.015-.069-.018.009.002-.036-.009-.036-.01.007.002-.035-.011-.035-.011.008.002-.034-.011-.034-.011.006.003-.033-.012-.032-.012.007.002-.032-.011-.032-.013.008.003-.031-.013-.031-.014.007.003-.03-.012-.03-.015.009.004-.031-.014-.027-.013-.022-.011-.027-.013-.022-.011-.026-.012-.022-.012-.023-.013-.022-.012-.023-.014-.021-.013-.022-.013-.02-.013-.022-.015-.019-.013-.021-.014-.019-.014-.019-.015-.018-.014-.021-.016-.016-.013-.019-.017-.016-.014-.018-.016-.016-.015-.018-.017-.016-.015-.016-.017-.014-.015-.017-.018-.013-.016-.017-.018-.013-.016-.015-.018-.013-.017-.015-.019-.012-.016-.014-.02-.012-.016-.013-.02-.012-.017-.013-.021-.011-.017-.012-.021-.011-.018-.012-.021-.009-.019-.012-.021-.01-.019-.011-.021-.008-.02-.01-.022-.009-.02-.01-.022-.007-.021-.01-.022-.008-.021-.008-.023-.008-.021-.008-.024-.006-.02-.008-.025-.006-.021-.007-.023-.012-.048-.011-.048-.011-.047-.009-.051-.008-.048-.007-.052-.006-.05-.005-.052-.004-.051-.003-.054-.002-.052-.001-.055.001-.053.001-.056.002-.053.001-.021.003-.041-.001.011.005-.061.004-.051v.001l.001-.002.006-.061.007-.059.001-.003-.001.002.008-.053.011-.063-.002.01.009-.047.04.03.057.043.057.046.059.048.059.051.017.013.045.002.062.002.063.001h.061.063l.062-.001.063-.002.062-.003.063-.004.062-.004.063-.005.062-.006.063-.007.062-.007.063-.008.062-.008.062-.01.062-.011.062-.011.062-.013.062-.013.061-.013.062-.015.061-.016.061-.016.061-.018.061-.018.061-.019.059-.021.06-.021.059-.022.06-.023.059-.024.058-.025.059-.026.057-.026.058-.029.056-.029.057-.03.056-.031.055-.032.055-.033.055-.035.054-.035.053-.037.054-.038.052-.038.05-.04.052-.041.05-.042.05-.043.049-.044.047-.046.047-.045.046-.048.045-.049.045-.051.044-.051.039-.048.037-.048.036-.049.035-.05.033-.051.031-.051.031-.051.03-.053.027-.053.026-.053.025-.054.022-.055.023-.055.02-.054.019-.056.017-.057.015-.055.015-.057.011-.057.011-.057.009-.058.007-.058.005-.058.003-.058.002-.058-.001-.059-.002-.059-.004-.059-.007-.059-.01-.058-.011-.056-.008-.032-.006-.029-.009-.03-.008-.029-.01-.028-.01-.03-.01-.028-.012-.029-.012-.028-.012-.028-.015-.028-.014-.028-.014-.028-.016-.027-.017-.027-.017-.027-.018-.026-.018-.027-.02-.025-.019-.025-.021-.025-.021-.024-.023-.025-.022-.023-.024-.023-.024-.023-.025-.021-.025-.021-.026-.02-.027-.021-.027-.019-.027-.019-.029-.018-.029-.017-.029-.017-.03-.016-.03-.015-.03-.016-.031-.013-.032-.014-.032-.012-.032-.011-.032-.012-.034-.011-.033-.01-.033-.008-.034-.009-.034-.008-.034-.007-.036-.007-.035-.006-.035-.004-.035-.005-.036-.004-.036-.003-.037-.003-.037-.002-.037-.001-.037-.001h-.038-.037l-.038.001-.039.002-.039.002-.038.003-.039.004-.043.004-.042.004-.043.005-.042.006-.041.007-.042.007-.042.008-.041.008-.041.007-.041.01-.041.009-.04.011-.041.009-.04.011-.041.012-.04.012-.039.012-.04.013-.039.013-.003.001-.036.012-.039.015-.039.015-.038.015-.038.016-.038.016-.037.016-.038.018-.037.016-.038.019-.038.018-.071.037-.072.039-.071.04-.07.043-.069.043-.069.045-.067.045-.065.047-.066.049-.064.051-.063.051-.062.051-.061.054-.06.055-.059.055-.058.057-.057.058-.056.059-.054.06-.054.06-.053.062-.052.062-.05.064-.049.063-.049.066-.048.065-.046.068-.045.066-.044.068-.043.069-.042.069-.041.07-.039.071-.038.071-.037.071-.036.073-.035.072-.033.073-.033.074-.031.075-.03.074-.03.075-.027.075-.026.075-.026.076-.023.077-.023.077-.021.076-.02.078-.018.076-.018.078-.015.079-.015.077-.013.078-.011.079-.011.078-.009.078-.008.078-.004.054-.002.025-.003.079-.002.079-.001.078.001.079.002.078.003.078.006.078.008.078.009.077.011.079.012.077.014.077.016.076.017.076.02.074.01.041.011.037.012.038.013.037.011.037.013.037.014.037.013.037.015.036.015.038.014.036.017.036.017.036.016.036.017.035.018.036.019.035.018.036.02.035.019.034.021.034.021.034.022.035.021.033.024.033.022.033.024.033.024.033.025.032.024.032.026.032.027.03.026.032.027.031.029.029.027.031.029.029.03.03.029.028.031.029.031.028.031.028.032.027.032.027.033.026.034.027.033.025.035.026.034.025.035.023.036.025.037.023.037.024.037.022.037.022.038.022.039.021.039.02.039.021.04.019.04.02.039.017.002.001.042.018.042.016.043.016.043.016.043.014.044.015.044.015.045.012.045.014.045.012.046.011.046.012.046.01.047.011.047.009.048.01.087.015.087.015.086.011.087.01.085.01.087.007.085.005.085.003.084.002.085.001.083-.001.083-.003.084-.002.082-.006.082-.007.082-.009.081-.01.081-.011.08-.013.079-.014.08-.015.078-.017.078-.019.079-.019.077-.021.077-.021.076-.024.075-.024.076-.025.046-.017.028-.011.075-.028.072-.029.073-.032.072-.032.072-.032.071-.034.07-.034.07-.038.069-.036.069-.038.068-.038.068-.04.066-.04.067-.042.066-.042.066-.044.064-.043.065-.045.063-.046.021-.015.019.024.025.029.024.03.025.029.026.028.026.029.001-.001.025.029.028.028.027.028.028.026.028.027.029.027.028.025.03.027.03.024.03.025.031.024.031.024.031.024.032.022.033.023.033.022.032.021.034.022.034.02.034.021.035.02.035.018.035.02.036.017.036.018.036.017.037.017.038.017.037.014.038.016.038.013h.001l.038.015.038.014.039.013.04.011.039.012.04.012.04.01.041.01.041.01.041.009.041.008.042.008.042.007.042.007.042.006.043.006.043.006.044.003.043.004.045.004.073.004.073.003.072.002h.071l.071-.002.07-.003.069-.005.068-.006.068-.007.067-.009.066-.011.065-.012.065-.012.063-.015.063-.018.062-.016.061-.02.06-.02.059-.022.057-.023.058-.024.057-.025.055-.027.054-.029.053-.029.052-.03.051-.031.051-.033.049-.033.048-.034.048-.036.045-.036.045-.037.045-.038.043-.039.042-.04.041-.04.041-.041.039-.042.038-.042.038-.043.038-.044.035-.043.035-.044.034-.046.033-.045.033-.047.032-.046.031-.047.03-.048.031-.048.029-.047.027-.049.029-.049.013-.025.002.006.004.01.02.041.024.05.025.05.027.049.027.048.028.049.03.048.03.047.031.047.032.046.034.046.034.046.035.043.035.044.037.043.039.042.038.042.04.041.042.04.041.039.043.04.044.037.045.037.046.035.047.035.047.034.049.033.05.033.049.031.052.03.052.029.054.029.052.026.056.027.055.024.055.024.058.023.056.021.055.02.057.018.056.017.054.017.056.014.056.013.054.012.056.01.055.009.054.008.055.007.054.006.053.004.054.003.054.001h.054.052l.053-.002.052-.004.052-.004.051-.006.051-.007.05-.008.051-.009.049-.01.049-.011.049-.012.049-.012.048-.015.048-.015.047-.015.045-.017.046-.018v-.002l.046-.017.045-.019.045-.02.043-.021.044-.021.043-.023.043-.022.042-.024.042-.025.041-.024.041-.027.04-.026.039-.026.04-.028.038-.028.039-.028.038-.029.038-.029.038-.031.036-.031.036-.031.036-.031.036-.031.035-.032.034-.034.035-.032.034-.034.033-.034.034-.033.033-.036.033-.034.032-.035.031-.035.031-.036.032-.036.03-.037.031-.036.03-.037.059-.074.058-.075.056-.075.055-.077.055-.077.051-.077.052-.077.05-.078.049-.078.048-.079.045-.077.045-.08.044-.078.043-.077.006-.012.002.006.019.049.018.05.02.049.021.048.022.047.022.047.002-.001.022.049.024.046.025.046.027.046.027.045.028.044.03.044.031.043.031.042.033.042.034.041.035.04.036.039.037.038.039.037.039.037.041.034.042.035.043.033.044.032.045.03.047.029.047.028.049.026.049.025.05.024.052.021.053.02.051.019.055.017.055.016.055.013.056.012.057.011.056.008.059.006.059.006.058.003.06.002h.059l.061-.001.061-.003.062-.005.061-.006.063-.008.062-.01.064-.012.063-.012.051-.012.051-.012.05-.013.05-.013.048-.015.048-.015.048-.016.047-.017.047-.017.047-.019.046-.018.045-.02.045-.019.042-.022.044-.02.043-.023.042-.023.042-.024.041-.023.041-.025.04-.025.04-.025.04-.027.038-.027.037-.027.037-.028.037-.029.036-.028.035-.03.035-.03.035-.03.034-.032.033-.031.032-.031.032-.032.033-.033.031-.034.03-.033.03-.033.029-.034.029-.035.028-.035.029-.036.026-.035.027-.035.026-.037.025-.036.026-.037.025-.037.023-.038.024-.038.023-.037.023-.039.022-.038.022-.039.02-.038.021-.04.02-.039.02-.039.018-.04.02-.04.017-.04.018-.04.018-.041.016-.04.017-.041.015-.041.016-.041.016-.042.013-.041.015-.042.014-.042.012-.041.013-.042.013-.042.011-.041.012-.042.011-.043.011-.042.01-.042.009-.043.01-.042.018-.085.011-.065.005-.02.018-.084.017-.085.015-.084.014-.085.01-.085.011-.084.009-.085.007-.084.006-.084.003-.084.002-.084.001-.083v-.083l-.003-.082-.003-.082-.005-.082-.007-.08-.009-.08-.009-.079-.011-.08-.013-.077-.008-.044-.01-.043-.008-.044-.011-.043-.011-.043-.012-.043-.012-.044-.014-.044-.014-.043-.003-.009.015-.023.022-.038.023-.037.02-.038.021-.038.019-.038.02-.038.019-.038.017-.039.019-.038.016-.038.017-.039.015-.04.016-.039.015-.039.014-.039.014-.039.014-.039.012-.039.013-.04.025-.079.022-.079.022-.079.02-.078-.122-.232z"/><path d="m42.4557 62.34-.005-.005.006.006z"/><path d="m42.4664 62.3556v-.001z"/><path d="m42.4049 62.297-.003-.002h.001z"/><path d="m42.4986 62.423-.002-.006-.002-.005z"/><path d="m42.4137 62.3029h.001l-.001-.001-.005-.003.01.008z"/><path d="m42.4234 62.3097-.003-.002.007.005z"/><path d="m42.4557 62.341-.001-.002.002.002z"/><path d="m42.4566 62.3419v-.001z"/><path d="m58.5397 62.7833-.001-.002-.001-.002z"/><path d="m69.4957 63.1027-.006-.005.003.002z"/><path d="m69.4977 63.1046-.002-.002z"/><path d="m69.4928 63.0998v.001z"/><path d="m73.7984 58.3761v.041-.003l-.001.007.001-.004-.002.043-.002.045v-.007l-.003.046-.003.046v-.007l-.004.047-.005.045.001-.006-.005.046-.006.047.001-.006-.007.046-.008.046.001-.005-.001.006v-.001l-.007.042-.009.047.001-.006-.009.047-.009.044-.01.044-.011.045-.011.045-.011.044-.013.045-.013.045-.013.045-.015.046-.014.045-.015.045-.016.046-.016.045-.011.032-.006.013-.017.045-.017.046-.019.046-.018.045-.02.046-.02.045-.021.046-.02.046-.022.046-.021.045-.023.045-.022.045-.024.045-.003.005-.008-.003.007.002-.029-.01.008.002-.028-.009.007.002-.028-.011.008.003-.028-.011.007.002-.028-.012.008.003-.028-.013.008.004-.028-.012.009.003-.028-.013.008.003-.028-.014.009.004-.028-.014.009.004-.027-.014.008.004-.027-.016.009.005-.027-.016.009.005-.027-.017.008.004-.026-.015.008.005-.026-.018.009.005-.026-.018.008.005-.025-.017.008.005-.026-.018.009.005-.025-.019.008.006-.025-.019.008.005-.024-.02.007.006-.023-.021.008.006-.025-.02.008.006-.023-.022.007.006-.023-.022.008.007-.024-.022.008.007-.023-.024.008.007-.024-.023.008.006-.022-.024.007.007-.022-.025.007.008-.022-.025.007.008-.021-.027.006.007-.021-.025.007.007-.021-.027.007.008-.02-.027.005.008-.02-.029.007.008-.017-.023-.016-.026.005.008-.016-.025-.016-.026.005.007-.016-.026-.015-.027.006.008-.016-.027-.015-.029.005.008-.014-.028-.015-.029.005.008-.015-.03-.013-.03.003.009-.012-.032-.014-.031.004.008-.013-.032-.012-.032.004.007-.013-.033-.013-.033.004.008-.012-.034-.01-.035.003.008-.012-.036-.011-.035.003.008-.011-.037-.01-.037.003.007-.009-.038-.01-.038-.015-.058-.016-.066-.002-.004-.031-.074-.033-.081-.035-.089-.037-.098-.019-.049-.019-.052-.019-.054-.019-.055-.019-.057-.019-.058-.019-.059-.017-.06-.019-.061-.017-.063-.016-.063-.017-.065-.014-.063-.015-.066-.014-.066-.012-.067-.012-.066-.011-.066-.008-.059-.002-.009-.008-.068-.003-.034v.005l-.003-.037-.003-.036v.005l-.003-.036-.002-.036v.006l-.002-.036-.001-.036v.005l-.001-.036-.001-.036-.001.006v-.035l.001-.036v.006-.036l.002-.036-.001.007.002-.036.002-.035-.001.007.003-.036.003-.036-.001.007.004-.035.004-.035-.001.007.004-.034.005-.036-.001.008.006-.034.006-.035-.002.008.007-.035.008-.034-.003.007.009-.033.008-.033-.003.007.01-.034.01-.033-.003.008.012-.036-.003.008.013-.037-.004.007.013-.036-.003.008.014-.036-.004.008.016-.036-.004.007.016-.035-.004.008.015-.035-.004.008.018-.035-.005.007.019-.035-.005.008.018-.034-.005.008.021-.035-.006.007.021-.033-.005.007.021-.033-.006.008.005-.007.015-.02.019-.023.021-.024.02-.023.022-.024.022-.021.023-.023.023-.021.025-.021.025-.022.025-.02.028-.021.027-.02.028-.02.03-.02.03-.018.033-.021.03-.016.036-.02.031-.016.038-.019.032-.015.023-.009.019-.008.02-.006.017-.006.017-.005.015-.004.015-.003.014-.002.013-.001.013-.001h.011.012.01l.01.001.01.001.01.002.008.002.01.003.01.003.01.003.01.004.009.005.011.005.011.006.011.007.011.006.012.009.012.009.012.01.013.01.013.012.012.013.014.014.014.014.013.015.014.016.014.018.014.018.015.018.014.021.014.02.014.022.015.022.015.026.012.021.016.028.015.029-.003-.006.016.028.015.03.011.026.015.028-.002-.003.002.005v-.002l.013.028.013.032-.002-.004.014.032.005.011.009.021-.002-.004.013.033.025.064.023.065.023.068.021.068.022.069.02.072.02.071.018.071.018.074.017.073.016.073.016.073.014.073.014.072.013.072.013.071.01.071.011.069.011.068.009.067.008.066.008.064.007.061.007.06.006.058.006.054.007.104.008.091.004.081v-.007l.003.066.001.052-.001-.011zm4.296-1.582-.001-.038-.002-.037-.002-.038-.002-.036-.207-.196-.193.208v.033.035l-.001-.003-.001.033-.002.034v-.003l-.002.033-.002.034-.003.031-.004.032.001-.001-.001.002v-.001l-.004.032-.004.033v-.001l-.005.033-.005.033.001-.003-.006.033-.006.034.001-.003-.007.034-.007.034v-.003l-.007.033-.008.033v-.003l-.007.034-.009.033.001-.003-.009.033-.01.033.001-.002-.01.033-.01.033.001-.003-.011.033-.01.031v-.001l-.001.003.001-.002-.012.032-.011.033.002-.003-.026.065-.025.065.001-.005-.027.064-.03.066.002-.005-.03.063-.031.065.002-.005-.034.063-.035.063.003-.004-.036.062-.036.06-.037.06-.039.059-.039.058-.041.058-.041.059-.044.057-.044.056-.045.056-.046.056-.047.054-.049.055-.049.053-.049.053-.051.052-.052.052-.052.051-.053.049-.054.049-.055.049-.055.048-.056.046-.057.047-.057.045-.058.044-.058.043-.059.043-.06.041-.059.04-.06.039-.06.039-.061.037-.062.036-.027.016-.034.019-.062.035-.061.033-.062.033-.062.031-.062.029-.062.03-.062.027-.062.027-.063.025-.061.024-.063.023-.061.021-.062.021-.064.02.007-.003-.065.019-.065.017.009-.002-.065.016-.064.016.007-.003-.063.013-.005.001.016-.036.02-.055.022-.054.02-.055.02-.055.019-.055.006-.017.013-.038.017-.056.018-.055.018-.055.015-.056.016-.055.014-.056.015-.056.014-.055.012-.056.013-.056.012-.055.011-.056.009-.056.01-.056.009-.056.008-.056.008-.055.006-.056.006-.056.005-.056.004-.056.004-.056.003-.055.002-.056.001-.056v-.055-.056l-.002-.057-.002-.066-.006-.08-.008-.092-.01-.103-.013-.115-.008-.061-.008-.064-.009-.065-.009-.068-.011-.07-.012-.071-.012-.074-.012-.074-.014-.077-.016-.077-.014-.078-.017-.08-.017-.08-.019-.08-.019-.082-.021-.082-.021-.082-.023-.083-.023-.082-.025-.082-.026-.082-.026-.082-.029-.081-.03-.08-.031-.081-.032-.078-.017-.04-.012-.025-.005-.014-.017-.038-.018-.038-.018-.038-.019-.038-.019-.037-.019-.038-.021-.036-.02-.037-.021-.036-.021-.036-.022-.035-.022-.034-.024-.034-.024-.035-.024-.033-.025-.033-.026-.032-.026-.031-.028-.032-.027-.03-.029-.03-.03-.03-.03-.028-.031-.028-.033-.027-.034-.026-.034-.024-.035-.025-.036-.022-.038-.023-.038-.02-.039-.02-.041-.017-.041-.017-.042-.015-.043-.012-.044-.012-.045-.009-.045-.008-.046-.005-.046-.004-.046-.002h-.047l-.047.003-.046.004-.046.005-.047.008-.047.01-.046.012-.046.012-.046.016-.046.017-.045.018-.045.02-.052.025-.05.026-.05.026-.049.027-.048.028v.001l-.046.028-.045.029-.045.03-.043.032-.043.032-.041.032-.04.033-.039.035-.038.034-.038.035-.036.036-.035.036-.034.037-.033.037-.032.038-.031.039-.023.031-.007.008-.031.037-.031.039-.029.039-.028.039-.028.04-.026.04-.025.04-.025.041-.023.042-.024.041-.021.042-.022.043-.02.042-.02.043-.017.043-.019.044-.016.043-.017.044-.015.044-.014.044-.015.044-.013.045-.012.043-.012.045-.012.045-.009.044-.01.045-.01.045-.008.044-.009.045-.006.045-.007.045-.007.045-.005.044-.006.045-.004.045-.005.043-.004.045-.002.044-.003.044-.002.045-.002.045-.003.086v.012.076.086l.002.086.004.084.005.084.005.083.007.082.008.08.009.079.009.078.01.076.011.075.011.073.012.072.011.069.013.069.013.065.011.064.014.063.024.115.024.106.022.096.02.082.001.003.023.062.022.054.016.045.019.047.019.047.019.047.021.046.019.046.022.045.02.044.023.044.021.043.023.043.023.042.023.041.024.041.024.04.026.039.025.039.025.039.027.038.026.036.026.037.028.036.028.036.028.035.029.033.029.034.029.032.03.033.03.031.03.031.031.03.033.03.031.029.032.028.032.028.033.027.033.025.034.027.033.024.034.025.035.023.034.023.035.022.035.021.035.021.036.02.036.02.036.019.036.018.037.018.036.016.037.016.037.016.037.014.032.012-.027.035-.033.042-.032.042-.033.042-.034.041-.034.041-.033.041-.035.04-.034.04-.035.04-.036.039-.036.04-.035.039-.036.038-.036.039-.036.039-.037.037-.038.038-.037.037-.037.036-.037.036-.038.036-.038.036-.038.036-.038.034-.038.034-.039.035-.038.033-.04.033-.039.033-.039.032-.039.032-.039.031-.04.032-.039.031-.04.029-.04.03-.039.029-.04.029-.04.028-.04.028-.039.027-.04.026-.04.027-.04.026-.041.025-.04.025-.039.024-.04.024-.04.022-.041.023-.04.022-.04.022-.039.02-.04.021-.039.019-.04.019-.039.019-.039.018-.039.018-.039.016-.041.018.005-.003-.041.016-.042.017.007-.003-.042.017-.028.009-.026.009-.024.009.001-.001-.006.002.005-.001-.027.008-.022.007-.006.002.005-.002-.026.007-.027.008.007-.002-.027.007-.026.007.008-.002-.026.006-.022.005.005-.001-.008.002.003-.001-.023.005.007-.002-.024.005-.022.003h.007l-.027.003.009-.001-.022.003.004-.001-.009.002.005-.001-.023.003.01-.001-.027.003.01-.002-.02.002h.003l-.009.001.006-.001-.022.002.011-.001-.026.001h.01l-.011.001.001-.001-.005.001h-.024.011-.013-.002l-.022-.001h.011-.013.001l-.011-.001.01.001-.022-.002.012.001-.023-.002.011.001-.016-.002.006.001-.012-.002.006.001-.016-.002.012.001-.022-.003.012.002-.01-.002-.012-.002-.008-.002h.001l-.01-.001.013.002-.01-.002.002.001-.013-.003.011.002-.009-.002-.012-.004.007.002.001.001-.001-.001-.005-.001.005.001-.011-.003h.002l.002.001h-.002.002l-.004-.001-.008-.003.007.002-.015-.006.008.004-.001-.001-.012-.004.005.001-.011-.005.012.006-.009-.004.003.001-.008-.003-.011-.006.009.005-.013-.008.011.006-.009-.004-.003-.002h.001l-.012-.006.011.006-.016-.01.012.007-.012-.007v-.001l-.011-.006.005.003-.016-.011.011.008-.015-.012.009.007-.013-.011.007.007-.009-.008.002.001-.007-.006.01.008-.016-.013.01.008-.015-.014.003.003.006.006-.013-.013h-.001-.001l-.004-.004-.002-.002.002.001-.007-.008.004.006-.01-.012.008.008-.009-.01.003.003-.004-.005.001.002-.005-.005.004.003-.014-.016-.013-.017-.012-.018-.014-.02-.014-.022-.013-.023-.022-.039.008.013-.021-.04.006.013-.015-.033-.001-.003-.014-.029-.014-.032-.014-.034-.013-.033-.015-.037-.012-.036-.014-.04-.012-.039-.012-.043-.013-.042-.012-.044-.012-.045-.011-.047-.012-.047-.011-.048-.01-.05-.011-.049-.011-.05-.02-.107-.02-.107-.019-.109-.018-.114-.019-.114-.037-.235-.037-.24-.019-.122-.021-.121-.021-.122-.024-.123-.023-.121-.014-.061-.013-.061-.013-.062-.014-.06-.016-.061-.015-.06-.015-.06-.017-.06-.017-.06-.019-.059-.018-.06-.021-.059-.02-.058-.022-.058-.022-.058-.024-.058-.025-.058-.025-.056-.028-.056-.028-.056-.03-.055-.031-.055-.033-.054-.034-.053-.036-.052-.038-.052-.039-.051-.04-.048-.023-.026-.022-.024-.023-.025-.022-.023-.024-.023-.024-.023-.024-.022-.025-.023-.025-.021-.027-.022-.025-.02-.027-.021-.028-.019-.028-.02-.027-.02-.03-.018-.029-.019-.03-.016-.029-.017-.032-.016-.03-.016-.032-.015-.032-.014-.033-.015-.032-.013-.033-.012-.033-.012-.034-.012-.058-.017-.059-.016-.057-.016-.059-.011-.057-.012-.057-.01-.058-.008-.057-.006-.057-.004-.058-.003-.056-.001-.057.001-.056.003-.055.004-.056.006-.055.009-.053.01-.054.012-.053.012-.052.016-.051.017-.051.018-.05.02-.049.021-.002.001-.045.023-.046.024-.046.026-.044.028-.044.028-.042.029-.042.031-.04.031-.039.032-.038.034-.038.034-.036.036-.034.036-.034.036-.033.037-.031.038-.032.039-.03.039-.029.039-.029.041-.027.04-.026.041-.027.042-.025.042-.024.042-.024.043-.023.043-.023.044-.021.044-.022.045-.019.044-.021.045-.019.045-.019.046-.017.046-.018.045-.018.046-.016.047-.016.046-.015.048-.016.047-.015.047-.013.048-.014.046-.014.049-.012.047-.013.049-.012.049-.022.096-.022.096-.019.097-.018.097-.018.096-.014.097-.015.097-.013.096-.011.096-.011.095-.009.093-.009.094-.006.093-.007.092-.005.09-.003.065-.031-.035-.035-.038-.037-.039-.036-.037-.037-.038-.037-.038-.038-.036-.038-.036-.04-.036-.039-.035-.04-.035-.042-.034-.041-.033-.042-.033-.043-.032-.043-.031-.044-.031-.045-.029-.045-.029-.046-.028-.046-.027-.048-.025-.046-.026-.049-.023-.049-.023-.05-.021-.051-.02-.051-.018-.051-.018-.052-.014-.054-.015-.053-.013-.054-.009-.056-.009-.043-.005-.012-.002-.056-.005-.054-.003-.03-.001h-.028l-.029.001-.029.001-.028.001-.029.002-.028.003-.029.003-.029.004-.029.005-.028.005-.03.005-.028.006-.03.008-.047.013-.049.014-.048.017-.047.018-.045.019-.044.022-.044.022-.043.023-.041.026-.041.026-.039.029-.04.028-.037.03-.036.031-.035.033-.033.033-.032.033-.033.035-.03.036-.03.036-.028.039-.028.038-.026.038-.026.039-.024.04-.024.04-.023.042-.022.041-.021.042-.018.038-.024-.119-.04-.221-.04-.221-.021-.12-.233-.071-.409.057-.204.133.012.122.025.227.025.226.026.226.026.225.027.224.053.45.052.447.025.224.025.222.023.223.023.222.021.223.011.121.02.102.027.131.027.132.029.13.028.129.029.128.029.127.059.254.021.089.026.11.056.232.021.092.011.045.005.032.007.038.009.033.008.022.031.066.041.058.05.053h.001l.058.043.063.033.069.023.072.01.071-.001.071-.012.068-.024.063-.035.057-.044.049-.052.04-.061.029-.065v-.001l.015-.052.009-.054.001-.055v-.024l-.005-.045-.008-.076-.012-.103-.026-.237-.013-.11-.009-.087-.027-.257-.013-.129-.012-.127-.011-.126-.011-.126-.009-.124-.009-.126-.006-.104-.021-.121-.04-.226-.04-.225-.042-.224-.025-.137.004-.041.007-.095.011-.093.012-.093.006-.045.007-.046.006-.045.007-.044.008-.045.008-.044.008-.043.008-.043.01-.043.009-.042.01-.041.01-.041.01-.042-.001.004.012-.042.012-.041-.002.004.011-.04.013-.04-.001.004.013-.039.013-.038.012-.034.014-.038-.002.004.015-.037.012-.031-.001.001.001-.002.015-.033.016-.035-.003.006.016-.035.013-.027.018-.032.016-.032-.003.007.02-.035-.005.007.02-.034-.004.007.02-.032-.004.006.021-.032-.004.007.02-.03-.005.008.006-.008h-.001l.018-.024-.005.008.022-.03-.005.008.017-.023-.001.001.006-.007-.005.006.024-.026-.007.008.024-.028-.008.008.026-.026-.008.008.025-.026-.008.009.019-.019-.001.002.003-.003.023-.021-.008.009.026-.024-.009.009.021-.016-.003.001.004-.001.024-.019-.01.008.029-.02-.011.007.029-.018-.011.007.031-.018-.012.007.03-.017-.011.007.031-.016-.012.006.031-.015-.012.006.033-.013-.014.005.033-.012-.012.006.021-.008.033-.01-.012.004.034-.009-.013.004.026-.006.007-.002.013-.002-.008.001.021-.003-.008.002.02-.004-.007.002.02-.003-.008.001.021-.003-.008.002.021-.002-.008.001.02-.001h-.008.014-.001.008-.007.02-.008.02-.007.016-.004.008-.004.017-.008l.02.001h-.007l.02.001h-.012l.032.003-.006-.001.015.002-.009-.001.022.003-.002-.001.015.003-.013-.002.007.001.031.006-.014-.002.03.006-.004-.001.015.003-.011-.002.036.009-.013-.003.039.012-.012-.004.039.012-.012-.004.029.01.027.011h-.001l.002.001.037.016-.011-.005.038.017-.01-.005.032.016-.003-.001.009.005-.006-.004.034.019-.009-.005.028.016.003.001.034.021-.008-.005.038.023-.009-.005.037.024-.008-.005.032.022.034.024-.008-.005.033.024.027.022-.002-.002.004.004.029.022.026.023-.001-.001.006.006-.005-.005.031.027.031.028-.005-.004.031.029.031.029-.005-.005.03.031.031.031-.005-.004.03.031.029.031-.003-.003.029.032.029.033-.004-.004.029.033.027.033-.003-.003.027.034.025.03.026.035.025.033.025.033.023.034.025.033.022.034.023.033.022.034.022.034.021.033.021.034.02.033.02.034.018.033.02.032.017.033.018.031.016.033.018.033-.003-.004.017.032.02.042.02.042.019.043.02.044.019.045.019.045.018.046.019.046.018.046.017.045.035.096.035.095.033.098-.004-.011.003.012-.004-.014.003.013-.004-.015.008.03-.004-.013.008.034-.003-.009.006.034.015.075.016.078.009.044.01.045.014.048.014.036.018.043.034.064.062.081.09.075.053.028.077.032.08.019h.001l.064.006.065-.001.063-.01.002-.001.085-.026.079-.04.001-.001.055-.038.049-.046.002-.001.04-.049.035-.053.025-.045.026-.076.013-.048.012-.056.01-.052.003-.023.003-.029.006-.052.004-.05.002-.051.003-.05v-.049-.05l-.002-.047-.001-.048-.003-.048-.003-.047-.003-.048-.007-.09-.01-.088-.01-.086-.019-.163-.009-.076-.008-.072-.006-.068-.003-.033v.006l-.002-.033-.003-.053-.003-.055-.002-.059-.001-.061-.002-.065v-.066l.001-.069.001-.071.002-.072.002-.074.004-.077.004-.076.005-.079.006-.08.007-.08.008-.081.007-.082.01-.082.01-.083.012-.083.012-.083.014-.083.014-.082.015-.082.017-.081.018-.081.019-.079.02-.081.01-.038.01-.038.012-.038.01-.038.012-.037.012-.037.012-.036.011-.036.014-.038-.002.004.014-.037.011-.033.002-.005.012-.031.016-.036-.003.006.014-.035.016-.037-.003.007.016-.034.013-.031.015-.03.017-.034-.004.007.016-.032.018-.032-.004.008.018-.032.017-.03.013-.022.013-.021.018-.028.013-.02.016-.023.016-.022.016-.02.016-.021.016-.018.016-.019.015-.017.016-.017.015-.016.016-.014.016-.014.015-.014.016-.012.015-.012.015-.011.015-.01.016-.009.013-.009.016-.008.014-.008.016-.008.017-.006.015-.006.015-.006.016-.005.015-.004.016-.005.016-.003.017-.003.018-.003.017-.002.019-.001.019-.001h.021.02l.023.001.023.002.024.003.024.003.026.004.028.006.027.007.029.007.031.008.031.01.012.004.01.004.011.005.012.004.01.004.01.006.01.004.011.005.009.005.009.006.01.005.009.006.01.006.009.007.009.005.009.007.009.007.009.008.009.007.009.008.009.007.009.008.009.009.008.009.009.009.009.009.009.01.008.009.018.022.018.024.017.023.018.026.016.027.018.028.017.031.017.032.016.031.016.035.016.034.017.038.015.038.016.041.014.039.014.043.015.042.014.045.013.045.014.046.013.048.012.048.013.05.012.05.011.05.012.051.011.053.011.053.02.108.021.11.019.113.019.114.018.115.036.237.037.237.018.119.02.12.019.119.022.119.022.118.012.06.012.059.013.059.013.059.014.057.014.059.015.058.015.057.017.057.017.057.017.056.019.057.019.056.021.055.021.055.024.056.023.054.026.054.004.01.022.043.028.052.031.052.031.052.033.051.035.05.037.049.039.048.038.045.024.025.022.023.022.022.022.023.025.021.023.022.025.02.025.021.025.019.027.02.026.019.027.019.028.018.028.017.029.017.03.015.029.016.03.015.031.014.031.013.032.013.031.011.032.011.034.011.032.01.033.008.033.008.033.008.035.006.034.007.034.005.034.004.035.003.035.003.035.002.034.001.035.001h.035l.036-.001.035-.002.036-.002.035-.003.036-.003.036-.004.035-.005.036-.005.036-.006.037-.007.036-.008.036-.007.036-.009.037-.009.037-.01.037-.01.036-.011.038-.012.038-.012.037-.013.038-.013.038-.014.038-.014.038-.016.051-.02.05-.021.05-.022.05-.022.05-.023.05-.025.05-.024.049-.025.049-.025.049-.026.05-.027.049-.028.049-.027.047-.029.049-.029.049-.03.048-.03.048-.031.048-.031.048-.031.046-.034.048-.032.047-.034.047-.033.047-.034.046-.035.047-.036.046-.036.045-.036.046-.036.045-.038.046-.037.045-.038.045-.039.045-.038.044-.04.044-.04.044-.04.044-.041.043-.041.043-.042.044-.041.042-.042.043-.043.042-.043.042-.043.041-.044.041-.043.041-.044.041-.045.04-.045.04-.046.04-.045.039-.047.039-.046.039-.047.038-.047.038-.046.038-.048.037-.048.037-.048.037-.049.037-.049.035-.048.036-.049.035-.05.034-.05.035-.05.035-.051.033-.049.033-.051.033-.051.032-.051.027-.043h.003l.039-.004.038-.002.038-.004.039-.005.038-.006.04-.005.075-.013.077-.013.076-.016.076-.018.075-.019.075-.021.076-.022.075-.024.075-.025.074-.027.074-.028.074-.03.073-.03.073-.033.072-.034.073-.035.071-.036.071-.037.071-.039.071-.04.07-.041.069-.043.07-.043.068-.044.068-.046.068-.047.037-.026.029-.022.067-.048.065-.051.065-.051.064-.052.062-.052.064-.055.061-.055.062-.055.061-.057.059-.058.059-.057.057-.059.058-.061.057-.059.054-.062.055-.062.053-.063.052-.063.052-.065.051-.064.049-.065.049-.066.046-.066.047-.068.045-.067.044-.068.042-.07.042-.069.04-.069.038-.071.038-.07.037-.071.035-.073.033-.071.032-.072.03-.073.03-.073.027-.074.026-.073.025-.074.023-.075.022-.073.01-.038.009-.037.01-.038.009-.037.008-.038.007-.037.008-.037.007-.039.007-.037.007-.038.005-.038.006-.037.004-.038.004-.038.004-.037.003-.038.004-.038.002-.038.002-.038.002-.038.001-.038v-.038-.037z"/><path d="m69.5875 63.1701-.007-.003.004.001z"/><path d="m70.1998 63.1095.003-.001.004-.002z"/><path d="m69.5445 63.1457v-.001z"/><path d="m69.5455 63.1457h-.001l.006.003.006.004-.012-.008v.001z"/></g><path d="m62.8014 136.3302c-.892-.047-1.804.311-2.391.414l.203 2.857h4.392l-.021-2.949c-.509.04-1.326-.277-2.183-.322" fill="#fcd5c8"/><path d="m60.3649 136.089.046.655c.587-.103 1.499-.461 2.391-.414.857.045 1.673.363 2.182.322l-.004-.563z" fill="#9fc6ff"/></g></svg>