<svg xmlns="http://www.w3.org/2000/svg" xmlns:xlink="http://www.w3.org/1999/xlink" width="193" height="179" viewBox="0 0 193 179"><defs><style>.a,.g{fill:#fff;}.a{stroke:#707070;opacity:0.5;}.b{fill:none;}.c{clip-path:url(#a);}.d{fill:#ffd2c5;}.e{fill:#ffd7b3;}.f{fill:#eaaba0;}.h{fill:#fabd8b;}.i{clip-path:url(#b);}.j{fill:#002b4d;}.k{fill:#0062ad;}.l{fill:#d42e00;}</style><clipPath id="a"><rect class="a" width="193" height="179" transform="translate(91 259)"/></clipPath><clipPath id="b"><path class="b" d="M326.478,344.991s9.039,20.789,12.616,21.1c2.923.258,10.689-21.1,10.689-21.1s19.06,6.949,24.874,13.357c6.839,7.537,18.9,43.206,19.886,50.08s-2.665,15.712-4.91,20.482-2.1,5.752-5.752,5.471-9.68.561-12.205,4.209-14.59,8.838-21.885,9.118-25.112-2.364-29.741-1.883-8.226,0-9.118-4.149c-.452-2.1-8.869-2.405-13.2-6.253s-4.665-25.922-2.044-39.576,2.044-28.243,9.355-36.1C308.834,355.668,326.478,344.991,326.478,344.991Z" transform="translate(-294.022 -344.991)"/></clipPath></defs><g class="c" transform="translate(-91 -259)"><g transform="translate(8 24)"><g transform="translate(162.918 235)"><path class="d" d="M315.194,605.626a37.129,37.129,0,0,1-.638-5.2A7.681,7.681,0,0,1,315.865,599c.08-.071.145-.125.2-.169,1.317.059.6-6,.75-6.9l4.426-26.856-15.952-5.209s4.345,28.766,4.344,28.769c-.072,2.294.009,4.584-.021,6.877-.035,2.676-1.039,5.541-.136,8.164a17.111,17.111,0,0,0,2.619,4.89c.542.7,4.049,4.913,4.263,2.412-.062.725,1.271.069,1.422-.3.285-.7-.491-1.835-.87-2.4A19.56,19.56,0,0,1,315.194,605.626Z" transform="translate(-300.548 -415.148)"/><path class="e" d="M333.724,571.139a189.871,189.871,0,0,0-2.525,27.777c.012,8.282,2.325,41.806,2.325,41.806h27.092s.6-7.436.465-10.241.561-22.727,1.824-23.077,3.349,8.652,3.833,12.275c.937,7.014.992,21.043.992,21.043h27.792s1.052-16.131,1.333-26.3-.428-30.805-.7-33.32c-.7-6.453-3.648-15.712-3.648-15.712Z" transform="translate(-315.552 -418.347)"/><path class="d" d="M485.494,556.85s-8.487,13.917-8.978,15.179-3.507,6.8-3.507,6.8-2.315-4.63-3.717-6.944a19.893,19.893,0,0,0-1.75-2.657s3.012-9.969,6.309-11.371,11.644-1.473,11.644-1.473Z" transform="translate(-394.513 -413.134)"/><path class="d" d="M368.06,249.429s.889,16,2.163,19.132c1.8,4.436,8.854,8.539,11,8.629,3.3.141,9.782-4.879,11.155-8.178,1.187-2.852,2.546-17.573,2.546-17.573l-12.273-11.155-12.88,1.142Z" transform="translate(-336.9 -230.069)"/><path class="d" d="M391.17,331.13s-10.858,19.886-11.94,21.111-5.665,1.919-7.033,1.94-6.3-4.28-6.734-5.135-13.678-17.441-13.678-17.441,7.23-5.867,10.16-9.768a7.361,7.361,0,0,0,1.1-2.222,19.594,19.594,0,0,0,.408-7.668c-.152-1.246-.328-2.071-.328-2.071l17.222-.829s-.231,6.94,1.04,11.755S391.17,331.13,391.17,331.13Z" transform="translate(-327.474 -269.892)"/><path class="d" d="M365.856,273.059a3.88,3.88,0,0,0-2.848,0c-1.277.622-.815,4.038,0,5.4a5.269,5.269,0,0,0,3.9,2.718Z" transform="translate(-333.514 -248.885)"/><path class="d" d="M426.609,273.059a3.881,3.881,0,0,1,2.849,0c1.277.622.815,4.038,0,5.4a5.27,5.27,0,0,1-3.9,2.718Z" transform="translate(-370.201 -248.885)"/><path d="M382.76,277.02c-.238-.754-1.128-.586-1.2.171-.044.441-.061,1.256.4,1.508a.593.593,0,0,0,.824-.414A2.443,2.443,0,0,0,382.76,277.02Z" transform="translate(-344.704 -251.061)"/><path d="M416.027,277.02c-.238-.754-1.128-.586-1.2.171-.044.441-.061,1.256.4,1.508a.593.593,0,0,0,.824-.414A2.443,2.443,0,0,0,416.027,277.02Z" transform="translate(-363.97 -251.061)"/><path d="M379.636,264.966c.025-1.144-2.618-1.086-3.144-1.028a6.58,6.58,0,0,0-2.375.7c-.4.213-2.117,1.424-.879,1.671a7.449,7.449,0,0,0,3.129-.481c.67-.154,2.89.372,3.215-.58A.92.92,0,0,0,379.636,264.966Z" transform="translate(-339.643 -243.753)"/><path d="M409.783,264.157c-.053-1.143,2.591-1.149,3.118-1.1a6.576,6.576,0,0,1,2.391.64c.4.2,2.151,1.372.919,1.649a7.445,7.445,0,0,1-3.14-.4c-.673-.138-2.88.442-3.228-.5A.93.93,0,0,1,409.783,264.157Z" transform="translate(-361.062 -243.247)"/><path class="f" d="M393.307,321.8c-1.061,1.157-3.8,3.4-6.566,3.577-2.256.143-6.65-1.178-8.207-1.675a19.262,19.262,0,0,0,.416-7.6s5.562,5.381,8.929,4.607c2.543-.584,4.017-1.646,4.754-1.575A1.609,1.609,0,0,1,393.307,321.8Z" transform="translate(-342.966 -273.977)"/><path class="f" d="M399.921,278.357c-.194-.5-1.009-.282-.812.223.965,2.481,2.352,4.611,1.042,7.252-.24.484.486.91.727.425C402.32,283.35,401.008,281.152,399.921,278.357Z" transform="translate(-354.864 -251.954)"/><path class="g" d="M399.319,303.375a.734.734,0,0,0-.538-.136c-1.826.049-3.67-.087-5.5-.139-.64-.018-1.7.227-1.115,1.048a4.65,4.65,0,0,0,4.677,1.8C397.813,305.8,400.117,304.1,399.319,303.375Z" transform="translate(-350.764 -266.447)"/><path d="M393,228.839a11.055,11.055,0,0,0-1.5-1.208c-.012-3.952-3.731-7.593-7.5-9.013a27.021,27.021,0,0,0-4.793-1.336,16.917,16.917,0,0,0-8.319-1.18,13.54,13.54,0,0,0-7.592,3.021c-1.34,1.191-2.682,3.5-1.968,5.239,0,.043,0,.086.008.129-3.319-.106-3.5,5.877-3.357,7.852.158,2.145.388,5.239,1.946,6.965a2.765,2.765,0,0,0,2.7.8,2.373,2.373,0,0,0,1.051-2.316c-.066-1.231-.444-2.269-.053-3.516a20.785,20.785,0,0,1,1.293-2.541,5.362,5.362,0,0,0,.535-1.636l.025.019a17.516,17.516,0,0,0,4.681,1.978,46.006,46.006,0,0,0,5.727,1.635c1.457.257,3.144.176,4.324,1.139.924.754,1.205,1.819,1.932,2.741a9.331,9.331,0,0,0,5.491,3.545c6.325,1.1,9.213-6.423,6.624-10.765A7.356,7.356,0,0,0,393,228.839Z" transform="translate(-331.035 -216.012)"/><path d="M395.349,272.41c-.14-.277-.463-.353-.8-.461a8.346,8.346,0,0,0-1.4-.3,18.278,18.278,0,0,0-5.172.008,33.549,33.549,0,0,1-5.167.55c-1.666-.026-3.282-.524-4.935-.684a13.617,13.617,0,0,0-5.236.351c-1.23.392-.653,1.868-.41,2.747a5.671,5.671,0,0,0,.875,1.873,4.275,4.275,0,0,0,4.852,1.638c2.494-1.016,2.888-2.673,3.417-4.391.753-.052,1.508-.048,2.261-.085a16.18,16.18,0,0,1,2.274.081c.263.025.377.875.439,1.068a5.265,5.265,0,0,0,2.982,3.327,4.3,4.3,0,0,0,4.852-1.638,6.548,6.548,0,0,0,1.088-2.489,4.622,4.622,0,0,0,.15-1.344A.7.7,0,0,0,395.349,272.41Zm-17.517,4.5a2.94,2.94,0,0,1-1.385.34,3.317,3.317,0,0,1-2.984-2.441c-.041-.125-.487-1.535-.326-1.611a8.049,8.049,0,0,1,3.714-.776,7.7,7.7,0,0,1,1.89.309c.229.067,1.314.321,1.3.667A4.5,4.5,0,0,1,377.832,276.911Zm15.988-2.1a3.317,3.317,0,0,1-2.984,2.441,2.938,2.938,0,0,1-1.385-.34,4.5,4.5,0,0,1-2.211-3.513c-.008-.225,1.626-.857,3.547-.857a6.546,6.546,0,0,1,3.366.763C394.313,273.38,393.861,274.684,393.82,274.81Z" transform="translate(-339.112 -248.105)"/><path class="h" d="M387.27,632.3c-2.8-1.937-3.96-5.349-5.636-8.163-1.758-2.952-4.825-5.1-5.955-8.419-.174-.51-.987-.291-.812.223,1.212,3.557,4.481,5.85,6.288,9.064,1.6,2.852,2.906,6.1,5.69,8.023C387.291,633.341,387.713,632.611,387.27,632.3Z" transform="translate(-340.828 -447.329)"/><g transform="translate(0 54.283)"><g class="i"><path class="j" d="M326.478,344.991s9.039,20.789,12.616,21.1c2.923.258,10.689-21.1,10.689-21.1s19.06,6.949,24.874,13.357c6.839,7.537,18.9,43.206,19.886,50.08s-2.665,15.712-4.91,20.482-2.1,5.752-5.752,5.471-9.68.561-12.205,4.209-14.59,8.838-21.885,9.118-25.112-2.364-29.741-1.883-8.226,0-9.118-4.149c-.452-2.1-8.869-2.405-13.2-6.253s-4.665-25.922-2.044-39.576,2.044-28.243,9.355-36.1C308.834,355.668,326.478,344.991,326.478,344.991Z" transform="translate(-294.022 -344.991)"/><path class="g" d="M313.1,345.611c-.763,15-.316,30.011-.006,45.015a216.834,216.834,0,0,1-.507,22.158c-.586,7.21-1.235,14.4-1.2,21.639a150.08,150.08,0,0,0,2,23.667c.22,1.332,2.232.71,2.014-.609-2.353-14.258-2.076-28.452-.872-42.8,1.231-14.67.457-29.293.287-43.99-.1-8.381-.037-16.764.388-25.135C315.268,344.2,313.163,344.267,313.1,345.611Z" transform="translate(-304.076 -344.749)"/><path class="g" d="M350.617,334.527c-.825,2.956-.294,6.04-.293,9.058,0,4.2.357,8.363.569,12.553.418,8.279.521,16.511,1.36,24.766a337.819,337.819,0,0,1,1.567,48.749c-.4,9.232-.481,18.474-.439,27.714a1.053,1.053,0,0,0,2.1-.052c-.075-16.1,1.11-32.2.726-48.293-.192-8.065-.718-16.121-1.464-24.154-.754-8.124-1.317-16.16-1.574-24.318-.145-4.594-.568-9.172-.717-13.764-.062-1.91,0-3.818-.1-5.727a18.775,18.775,0,0,1,.305-6.042C353.029,333.709,350.981,333.225,350.617,334.527Z" transform="translate(-326.53 -338.487)"/><path class="g" d="M401.836,303.019c-1.21,8.148,1,16.168,1.742,24.246.871,9.484.682,19.116.994,28.631.325,9.9.551,19.812.5,29.717-.053,9.6-.871,19.175-.835,28.783.02,5.331-.066,10.677.144,16.006.2,5.187,1.186,10.328.727,15.53-.119,1.349,1.987,1.282,2.1-.052.394-4.466-.269-8.887-.6-13.333-.349-4.71-.248-9.467-.262-14.187-.029-9.624.478-19.185.753-28.8.274-9.6-.009-19.233-.277-28.827-.272-9.738-.477-19.486-.89-29.219-.394-9.274-3.432-18.72-2.053-28C404.081,302.178,402.035,301.679,401.836,303.019Z" transform="translate(-356.255 -320.226)"/><path class="g" d="M454.53,319.539c.216,17.42,1.934,34.786,1.945,52.21.01,17.2-.84,34.34.137,51.53a118.476,118.476,0,0,1,.235,14.176c-.3,4.707-.914,9.389-.764,14.114a1.053,1.053,0,0,0,2.1-.052,111.153,111.153,0,0,1,.627-12.2,98.922,98.922,0,0,0,.095-12.494c-.417-8.711-.831-17.377-.757-26.1.146-17.253.6-34.4-.295-51.645-.512-9.859-1.1-19.716-1.223-29.59A1.053,1.053,0,0,0,454.53,319.539Z" transform="translate(-386.977 -329.647)"/><path class="g" d="M502.136,368.791c2.172,7.607,1.99,15.412,1.95,23.241-.04,7.806.21,15.613.47,23.414.266,7.988.866,15.991.872,23.984.005,7.7-.8,15.366-.989,23.057-.034,1.357,2.071,1.3,2.1-.052.2-7.955,1.059-15.889.986-23.851-.074-8.008-.638-16.018-.9-24.022-.25-7.794-.5-15.593-.438-23.392.061-7.746.1-15.471-2.046-22.988A1.053,1.053,0,0,0,502.136,368.791Z" transform="translate(-414.521 -358.002)"/></g></g></g><g transform="translate(96 253.518)"><path class="g" d="M297.2,623.284s-.335,2.428-1.843,3.13a7.339,7.339,0,0,1-2,.737l-.246-3.4Z" transform="translate(-211.337 -488.754)"/><path class="k" d="M276.819,465.828s-.909,12.861.032,19.174,5.676,27.146,5.571,33.88.22,11.889-2.994,14.1-6.16-.737-6.16-.737l-9.154-41.876,3.367-23.253Z" transform="translate(-194.542 -397.566)"/><path class="j" d="M232.124,331.957c1.37-1.832,2.335-3.645,1.428-5.941a11.075,11.075,0,0,0-2.138-3.087,12.55,12.55,0,0,1-2.731-4.748c-.828-2.758-.992-5.7-2.186-8.345-2.907-6.454-10.723-7.349-16.694-5.065a.193.193,0,0,0-.126.231c-3.4,1.342-5.815,5.465-6.9,8.64a33.549,33.549,0,0,0-1.507,8.494c-.22,3.025-.593,6.262.459,9.174a.4.4,0,0,0,.51.239,14.029,14.029,0,0,0,1.008,2.166,9.5,9.5,0,0,0,1.785,2.452c1.981,2.554,4.359,1.872,7.2.694,1.7-.706,3.394-1.444,5.128-2.064.432-.153.867-.282,1.307-.4-.157,4.01.694,8.141,4.065,10.382,3.547,2.354,9.6.439,8.785-4.528-.255-1.569-1.4-3.013-1.3-4.642C230.3,334.19,231.316,333.044,232.124,331.957Z" transform="translate(-158.002 -303.633)"/><path class="d" d="M223.581,337.366c-1.6,3.414-5.3,6.14-6.18,6.266-3.088.444-10.268-2.8-12.359-4.512s-2.943-5.689-2.943-5.689l-2.354-10.005s3.531-5.689,6.572-6.768,11.575-5.1,11.575-5.1,5.1,4.708,6.474,10.2c.027.118.059.235.078.353.1.408.173.832.236,1.263C225.5,328.762,224.339,335.758,223.581,337.366Z" transform="translate(-157.264 -308.222)"/><path class="d" d="M220.024,387.054s-7.045,15.833-7.416,15.732S198.615,385,198.615,385s2.79-1.839,3.051-2.837.408-14.246.408-14.246,6.906,2.252,7.247,2.252,7.546,4.731,7.546,4.731-.008.539-.021,1.359c-.017,1.359-.042,3.493-.029,5.21a19.323,19.323,0,0,0,.105,2.744A23.836,23.836,0,0,0,220.024,387.054Z" transform="translate(-156.609 -340.862)"/><path class="f" d="M230.158,390.645a26.464,26.464,0,0,1-6.153-2.517c-1.894-1.263-2.9-3.893-2.054-4.209s.791-.21,3.948.787,4.289.728,4.289.728C230.171,386.794,230.145,388.927,230.158,390.645Z" transform="translate(-169.95 -350.038)"/><path d="M222.427,344.575c-.237-.754-1.128-.586-1.2.171-.044.44-.061,1.256.4,1.508a.593.593,0,0,0,.824-.414A2.443,2.443,0,0,0,222.427,344.575Z" transform="translate(-169.69 -327.061)"/><path d="M252.1,344.779c-.215-.683-1.022-.531-1.09.155-.04.4-.055,1.138.362,1.366a.538.538,0,0,0,.747-.375A2.212,2.212,0,0,0,252.1,344.779Z" transform="translate(-186.943 -327.206)"/><path class="g" d="M235.8,366.431a2.245,2.245,0,0,0-.457-.059c-.926-.029-1.866-.109-2.789-.088a9.263,9.263,0,0,0-2.191-.047c-.879.185-.768.658-.212,1.313a4.448,4.448,0,0,0,1.437,1.086c1.521.744,4.094.383,4.7-1.509C236.416,366.7,236.122,366.512,235.8,366.431Z" transform="translate(-174.619 -339.854)"/><path class="j" d="M220.877,337.056c-.227-.635-1.245-.667-1.781-.673-1.017-.011-2.7.157-3.269,1.154-.311.541.627.377.873.361.672-.044,1.344-.1,2.017-.128a4.514,4.514,0,0,0,1.8-.2C220.856,337.407,220.938,337.226,220.877,337.056Z" transform="translate(-166.541 -322.6)"/><path class="j" d="M253.241,337.612c-.593-.039-1.889-.128-2.482-.151a4.486,4.486,0,0,1-1.8-.2c-.338-.161-.42-.341-.361-.514.228-.635,1.248-.667,1.782-.671a12.119,12.119,0,0,1,2.627.273C253.1,336.757,253.178,337.18,253.241,337.612Z" transform="translate(-185.545 -322.421)"/><path class="j" d="M206.523,306.43a.134.134,0,0,0-.223-.013,1.527,1.527,0,0,0-.644-.418c-.753-.267-1.657.207-2.419.232a4.588,4.588,0,0,1-1.042-.1,14.908,14.908,0,0,0-18.919,4.59,13.635,13.635,0,0,0-1.923,12.912c1.816,4.524,6.352,6.117,9.369,9.617a.476.476,0,0,0,.777-.13,7.959,7.959,0,0,0,.322-1.314c-.332-2.464-1.248-5.183.463-8.149,1.412-2.46,4.206-3.523,6.529-4.908a20.78,20.78,0,0,0,5.9-5.126C206.195,311.68,207.636,308.888,206.523,306.43Z" transform="translate(-146.114 -304.135)"/><path class="j" d="M156.726,359.3c-.212-.412-.8-.117-.714.3.161.742.306,1.467.435,2.185-.149.028-.294.059-.42.083a4.431,4.431,0,0,0-.691.165c-4.786.459-7.129,5.454-11.406,7.051-1.816.675-3.759.867-5.371,2.021a7.753,7.753,0,0,0-3.013,4.528c-.467,2.044.31,4.457-.91,6.289-1.334,1.993-4.183,2.4-6.132,3.559a12.056,12.056,0,0,0-5.65,8.8,11.542,11.542,0,0,0,3.755,9.813,12.288,12.288,0,0,0,10.978,2.77c7.843-1.554,14.313-7.992,16.561-15.565a30.379,30.379,0,0,0,.993-7.161,35.685,35.685,0,0,1,1.832-9.726C158.539,369.619,159.108,363.934,156.726,359.3Z" transform="translate(-112.688 -335.757)"/><path class="d" d="M208.026,344.229c-1.066-2.09-3.929-.544-4.539,1.1-.761,2.043.729,5.38,3.078,5.594a.423.423,0,0,0,.363-.632c-.552-.925-1.462-1.4-1.971-2.277a.6.6,0,0,0,.3-.339,9.152,9.152,0,0,1,.687-1.612,9.5,9.5,0,0,1,1.262-1.229.67.67,0,0,0,.218-.245l.276.069A.292.292,0,0,0,208.026,344.229Z" transform="translate(-159.314 -326.559)"/><path class="j" d="M203.12,355.427c-.176-.287-.436-.548-.617-.807-.364-.521-.729-1.043-1.088-1.569a.14.14,0,0,0-.1-.058c-.074-.123-.149-.246-.216-.372-.079-.146-.342-.044-.274.116a14,14,0,0,0,1.086,2.252c.053.082.109.176.167.273a4.647,4.647,0,0,0,.388.772,3.656,3.656,0,0,1,.279,2.494,3.563,3.563,0,0,1-1.208,1.8c-.438.36-.882.541-1.153,1.045a.287.287,0,0,0,.169.414c1.623.632,3.058-1.856,3.258-3.152A4.928,4.928,0,0,0,203.12,355.427Z" transform="translate(-157.61 -331.963)"/><path class="k" d="M177.77,406.2s4.314,4.776,7.752,8.7,4.393,6.172,4.9,5.822,5.411-13.206,5.411-13.206,9.333,3.386,12.594,6.437,8.1,7.681,8.312,15.888-5.787,13.573-6.208,17.361,0,9.785-1.157,12.521a19.108,19.108,0,0,1-3.577,5.156,63.308,63.308,0,0,1-17.782,1.789c-10.522-.316-18.161-.736-20.265-5.787s-.842-10.837-.947-15.256-8.459-28.093-6.039-31.565S177.77,406.2,177.77,406.2Z" transform="translate(-134.431 -363.035)"/><path d="M205.749,625.23H135.2s1.62-10.086,2.129-15.151c.874-8.693,2.675-23.919,4.464-32.547s3.472-22.809,6-28.07,6-10.825,6-10.825,9.259,3.683,17.466,4.524,20.77-2.433,20.77-2.433,5.97,7.632,7.744,14.638c1.894,7.481,4.552,17.571,4.868,27.462S205.749,625.23,205.749,625.23Z" transform="translate(-119.883 -439.732)"/><path class="d" d="M166.158,546.706c-.122-.145-.229-.262-.308-.343-2.705-2.775-5.428-5.021-9.433-5.391a10.479,10.479,0,0,1-4.647-1.02c-2.456-1.422-4.578-3.308-7.029-4.758a.314.314,0,0,0-.141-.044.034.034,0,0,0-.02,0,.4.4,0,0,0-.4.515c.2.553-1.029,1.543-1.346,1.9a6.044,6.044,0,0,0-1.507,2.5,1.76,1.76,0,0,0,.3,1.51c-.182-.214-1.115,0-1.257.2-.362.512.3,1.12.671,1.4,2.477,1.884,7.842,3.058,8.318,3.961.887,1.678,2.124,1.03,3.163,1.485a6.039,6.039,0,0,1,2.771,2.174c.784,1.214,1.383,2.612,2.055,3.892.269.512.674,1.2,1.313,1.258.753.066,1-.721.92-1.351a11.483,11.483,0,0,0-1.13-2.946l-1.436-3.287a4.591,4.591,0,0,1,1.258,1.24,19.769,19.769,0,0,1,2.119,3.5c.4.856.87,2.654,2.146,2.506,1.69-.2-2.291-7.51-2.828-8.41a25.9,25.9,0,0,0,1.967,2.19,11.9,11.9,0,0,1,1.422,2.133,7.075,7.075,0,0,0,1.139,1.906c.808.77,1.909.857,1.842-.531a7.181,7.181,0,0,0-1.719-3.682c-.046-.064-.093-.131-.14-.2-.723-1.027-1.4-2.053-2.181-3.047.623.8,1.442,1.4,2.114,2.154.737.826,1.58,2.96,2.974,2.585C168.8,550.256,167.05,547.758,166.158,546.706Z" transform="translate(-122.813 -437.71)"/><path class="g" d="M155.406,539.553a4.291,4.291,0,0,1,.807,3.016c-.351,1.438-2.42,5.752-4,6.313a7.354,7.354,0,0,1-3.683,0Z" transform="translate(-127.604 -440.262)"/><path class="k" d="M127.908,419.677a45.043,45.043,0,0,0-15.61,15.24c-6,10.1-13.994,21.464-13.468,27.567s4.366,7.786,7.234,11.153,10.969,7.47,14.125,6.1,7.26-8.943,7.155-12.1-5.892-8.943-5.366-11.258,9.764-13.678,10.142-13.678S127.908,419.677,127.908,419.677Z" transform="translate(-98.806 -370.838)"/><path class="g" d="M195.553,406.2s-4.3,1.681-4.515,3.365,2.7,1.657,4.781,3.867,2.659,3.374,5.12,5.419c2.976,2.473,7.262,1.876,7.262,1.876s-5-6.909-7.492-10A43.069,43.069,0,0,0,195.553,406.2Z" transform="translate(-152.215 -363.035)"/><path class="g" d="M237.245,409.342s4.318,1.282,4.844,2.579-2.806,3.753-3.683,5.121-.667,2.49-2,3.963-4.573,1.543-4.573,1.543,1.942-6.032,2.679-7.821S237.245,409.342,237.245,409.342Z" transform="translate(-175.847 -364.853)"/><path class="k" d="M237.261,620.022c-1.267,2.26-3.413,4.028-5.366,5.686-1.2,1.376-2.769,2.26-3.712,3.855-.93,1.57-1,3.14-1.372,4.928-.438,2.1-.917,4.188-1.41,6.279-.989,4.175-2.041,8.333-3,12.517-.922,4.007-1.991,7.988-2.782,12.024-.434,2.218-.715,4.465-1.107,6.688h-.842c.434-2.424.732-4.882,1.216-7.3.783-3.906,1.81-7.757,2.7-11.641.964-4.175,2.016-8.333,3.005-12.5.492-2.087.972-4.175,1.41-6.275.295-1.4.2-2.883.614-4.263.48-1.587,1.881-2.487,3.072-3.552.8-.724,1.662-1.38,2.466-2.1a20.067,20.067,0,0,0,4.385-4.764A.419.419,0,0,1,237.261,620.022Z" transform="translate(-167.641 -486.5)"/><path d="M275.893,442.4a13.553,13.553,0,0,0-.62-5.23c-.673-1.871-1.827-3.494-2.236-5.466-.11-.53-.922-.306-.812.223a19.974,19.974,0,0,0,1.749,4.345,12.7,12.7,0,0,1,1.077,6.127c-.2,4.01-1.495,7.876-1.754,11.891-.485,7.518,2.912,16-1.731,22.766-.307.448.422.869.727.425,4.633-6.749,1.447-14.92,1.8-22.408C274.3,450.783,275.681,446.675,275.893,442.4Z" transform="translate(-198.815 -377.628)"/><path class="l" d="M201.166,368c-.511-.486-1.92-.711-2.275-.947-.338-.224-.863-.724-1.263-.352-1.316,1.224,2.67,4.077,3.673,1.892A.481.481,0,0,0,201.166,368Z" transform="translate(-155.884 -340.08)"/><path class="f" d="M240.694,345.458a.421.421,0,0,0-.812.223c.444,1.8,2.117,4.278.739,6.009-.334.42.258,1.019.6.6C242.911,350.157,241.244,347.7,240.694,345.458Z" transform="translate(-180.5 -327.682)"/></g></g></g></svg>