<svg xmlns="http://www.w3.org/2000/svg" xmlns:xlink="http://www.w3.org/1999/xlink" width="161.999" height="179" viewBox="0 0 161.999 179"><defs><style>.a,.f{fill:#fff;}.a{stroke:#707070;}.b{clip-path:url(#a);}.c{fill:#ffd2c5;}.d{fill:#002b4d;}.e{fill:#eaaba0;}.g{fill:#0062ad;}.h{fill:#001526;}.i{fill:#fff3f1;}.j{fill:#d3cbe4;}</style><clipPath id="a"><rect class="a" width="149" height="179" transform="translate(113 249)"/></clipPath></defs><g transform="translate(-107 -249)"><g transform="translate(-6)"><g class="b"><g transform="translate(-886.154 -31.791)"><path class="c" d="M1044.784,596.168c-1.331-2.979-1.194-3.6-.806-5.249a3.253,3.253,0,0,1,.979-1.523,13.539,13.539,0,0,1,1.78-1.183c.477-.292-.21-.833-.162-1.334a20.04,20.04,0,0,0,.061-2.2,28.952,28.952,0,0,1-.072-3.547c0-.019,0-.038.007-.056l4.877-29.594-17.578-5.74q1.139,7.543,2.278,15.085c.853,5.645,1.915,11.271,2.331,16.973a57.088,57.088,0,0,1,.06,8.42c-.193,2.574-.926,5.27-.056,7.8a18.866,18.866,0,0,0,2.886,5.388c.6.774,4.462,5.414,4.7,2.657-.068.8,1.4.077,1.567-.335.314-.776-.541-2.022-.96-2.642A21.607,21.607,0,0,1,1044.784,596.168Z" transform="translate(-3.602 -142.074)"/><path class="c" d="M1188.072,596.168c1.331-2.979.784-3.512.7-5.73a8.456,8.456,0,0,0-1.442-1.569c-.088-.078-.16-.137-.222-.186-1.452.065-.662-6.606-.827-7.608l-4.877-29.594,17.578-5.74q-1.139,7.543-2.278,15.085c-.852,5.645-1.914,11.271-2.331,16.973a57.088,57.088,0,0,0-.059,8.42c.193,2.574.926,5.27.056,7.8a18.856,18.856,0,0,1-2.885,5.388c-.6.774-4.462,5.414-4.7,2.657.068.8-1.4.077-1.567-.335-.314-.776.541-2.022.959-2.642A21.6,21.6,0,0,0,1188.072,596.168Z" transform="translate(-82.715 -142.074)"/><path class="d" d="M1058.752,569.634s-.244,17.075,0,33.539,2.679,44.29,2.679,44.29h26.8s.8-14.145.425-20.174.148-24.714,1.435-24.83,2.16,13.932,2.373,21.816.028,23.188.028,23.188h28.866s1.7-28.725,1.824-40.105c.35-30.8-2.393-41.925-2.393-41.925l-52.761-1.8Z" transform="translate(-16.885 -151.671)"/><path class="d" d="M1116.593,310.271a47.578,47.578,0,0,0-2.267-5.149c-2.278-5.588-.425-11.941-4.156-17.04-5.478-7.488-16.8-8.768-25.069-5.832a11.709,11.709,0,0,0-7.093,6.44c-1.359,3.2-1.257,6.69-1.514,10.09-.268,3.552-1.674,6.321-3.151,9.523-1.157,2.507-2.076,5.309-1.449,8,.335,1.436,1.057,2.74,1.026,4.248-.044,2.141-1.231,4.238-.518,6.38,1.22,3.622,5.422,5.792,9.173,5.445.21-.019,1.345,1.21,1.545,1.371q1.1.886,2.256,1.7c3.232,2.293,6.793,4.4,10.719,5.193a21.6,21.6,0,0,0,10.041-.858,11.221,11.221,0,0,0,6.159-3.674,13.048,13.048,0,0,0,2.252-8.516c-.053-1.572-.336-3.146-.354-4.715a13.339,13.339,0,0,1,1.2-4.823c.833-2.156,1.736-4.464,1.4-6.82A7.766,7.766,0,0,0,1116.593,310.271Z" transform="translate(-23.882)"/><path class="c" d="M1092.993,304.017s.8,14.409,2.962,18.66c1.812,3.558,7.741,7.193,9.755,7.252,3.105.09,7.879-3.581,9.53-6.75,2.084-4,3.013-17.616,3.013-17.616l-3.419-7.736-20.338-1.349Z" transform="translate(-35.305 -8.412)"/><path class="c" d="M1117.4,372.5s-9.723,23.961-10.7,25.1-5.178,1.833-6.434,1.869-5.843-3.852-6.247-4.631-12.777-21.409-12.777-21.409,6.566-5.478,9.208-9.1a6.765,6.765,0,0,0,.981-2.054,18,18,0,0,0,.279-7.047c-.154-1.142-.328-1.9-.328-1.9l15.8-.976a45.881,45.881,0,0,0,1.1,10.781C1109.511,367.547,1117.4,372.5,1117.4,372.5Z" transform="translate(-29.002 -38.378)"/><path class="c" d="M1091.441,323.448a3.645,3.645,0,0,0-2.676-.037c-1.208.568-.817,3.783-.069,5.075a4.949,4.949,0,0,0,3.626,2.6Z" transform="translate(-32.624 -22.72)"/><path d="M1102.879,327.978c-.248-.752-1.139-.572-1.2.188-.038.442-.044,1.26.42,1.505a.6.6,0,0,0,.821-.426A2.447,2.447,0,0,0,1102.879,327.978Z" transform="translate(-39.952 -25.045)"/><path d="M1137.033,328.1c-.233-.705-1.067-.536-1.129.176-.036.414-.041,1.181.394,1.411a.557.557,0,0,0,.769-.4A2.3,2.3,0,0,0,1137.033,328.1Z" transform="translate(-58.307 -25.126)"/><path class="e" d="M1116.749,363.746c-.959,1.076-3.443,3.17-5.984,3.367-2.069.16-6.121-1-7.557-1.436a17.689,17.689,0,0,0,.287-6.982s5.174,4.871,8.256,4.12c2.328-.568,3.668-1.562,4.345-1.506A1.478,1.478,0,0,1,1116.749,363.746Z" transform="translate(-40.783 -41.774)"/><path class="e" d="M1118.758,335.04c-1.119-1.7-.5-4.06-.108-5.9.123-.582-.771-.831-.895-.246-.448,2.118-1.079,4.671.2,6.618C1118.284,336,1119.088,335.541,1118.758,335.04Z" transform="translate(-48.285 -25.613)"/><path class="f" d="M1118.965,347.376c-1.288-.039-1.634.013-3.432.041-.658.011-2.8-.167-3.04.423-.356.87,1.618,2.089,2.275,2.219,1.855.367,4.428.019,4.854-2.127C1119.672,347.689,1119.43,347.39,1118.965,347.376Z" transform="translate(-45.739 -35.698)"/><path class="d" d="M1102.337,319.257a.381.381,0,0,0,.032-.219c-.049-.39-.981-.689-1.294-.778a6.8,6.8,0,0,0-4.6.806c-.983.961,1,.885,1.527.856.94-.053,1.878-.131,2.813-.244C1101.145,319.637,1102.136,319.67,1102.337,319.257Z" transform="translate(-37.026 -20.022)"/><path class="d" d="M1129.988,319.254a.387.387,0,0,1-.032-.22c.05-.39.982-.688,1.3-.777a6.8,6.8,0,0,1,4.6.81c.982.961-1,.884-1.527.855-.94-.053-1.879-.132-2.813-.246C1131.179,319.635,1130.189,319.667,1129.988,319.254Z" transform="translate(-55.124 -20.021)"/><path class="d" d="M1116.783,296.943c-.524-2.017-1.229-4.035-3.172-5.074-2.161-1.155-5.157-1.428-7.536-1.827-4.763-.8-10.087-3.692-14.326.014a9.691,9.691,0,0,0-3.087,6.608,16.157,16.157,0,0,0,.156,3.78,7.966,7.966,0,0,0,.578,2.727,2.928,2.928,0,0,0,1.257,1.167c.9.327,1.029-.314,1.46-1.032a66.208,66.208,0,0,0,3.437-5.975c.607-1.3.73-2.062,2.142-2.632a9.086,9.086,0,0,1,3.81-.511,12.717,12.717,0,0,1,6.588,1.977,17.515,17.515,0,0,1,4.96,6.12c2.11,3.784,1.326,7.689,2.3,11.692a.375.375,0,0,0,.719,0c.364-1.555.074-3.219.478-4.736a26.572,26.572,0,0,0,1.265-4.98A22.326,22.326,0,0,0,1116.783,296.943Z" transform="translate(-32.956 -3.979)"/><path class="f" d="M1095.733,395.068c11.1,0,11.814-6.993,11.814-6.993l7.123,4.976s-5.333,49.893-5.333,55.343,5.333,22.821,5.333,22.821a80.045,80.045,0,0,1-16.55,1.875h-26.429s6.11-70.524,5.414-73.407-2.2-7.52-2.2-7.52l6.225-4.087S1083.581,395.068,1095.733,395.068Z" transform="translate(-23.882 -57.529)"/><path class="g" d="M1147.028,387.984s1.891,27.043,1.222,34.463-3.841,26.218-2.679,34.115c.684,4.645.149,9.355.31,14.024.1,2.788.435,6.041,3.228,7.425,3.73,1.848,8.434,1.651,12.493,1.772,2.932.087,7.979.119,8.857-3.539.927-3.865-1.7-10.793-.773-10.667s10.65-1.521,12.814-4.625c2.457-3.524-.689-8.409-1.209-11.067-1.882-9.607-3.36-19.625-6.812-28.83-2.783-7.42-1.391-15.505-6.184-22.691s-10.968-8.094-14.527-9.474A14.6,14.6,0,0,0,1147.028,387.984Z" transform="translate(-63.363 -57.438)"/><path class="g" d="M1057.245,388.075s4.249,28.72,3.167,38.626,1.991,39.122,2.619,44.842-.336,8.363-5.342,8.355-10.572.456-14.591.766-4.329-3.865-4.638-6.647-1.314-9.005-5.643-9.159-6.164-3.843-5.546-9.429,6.324-35.721,6.4-42.135c.111-9.9,4.483-16.88,9.739-20.242C1047.2,390.626,1057.245,388.075,1057.245,388.075Z" transform="translate(0 -57.529)"/><path class="h" d="M1186.38,469.9c-1.809-4.142-1.142-9.324-1.93-13.753-1.033-5.807-2.091-11.62-2.671-17.494a75.413,75.413,0,0,1,.078-16.075c.619-5.4,1.524-10.759,1.572-16.211a.464.464,0,0,0-.927,0c-.051,5.738-1.058,11.37-1.666,17.061a76.943,76.943,0,0,0,.206,17c.629,5.5,1.624,10.952,2.592,16.4.786,4.429.119,9.358,1.946,13.542C1185.818,470.916,1186.617,470.445,1186.38,469.9Z" transform="translate(-82.206 -67.099)"/><path class="h" d="M1057.4,420.913a44.294,44.294,0,0,0-.808-7.718c-.611-2.937-1.58-5.784-1.347-8.824.045-.6-.882-.593-.928,0a23.191,23.191,0,0,0,.948,7.216,45.009,45.009,0,0,1,1.195,8.909c.218,5.982-.275,12.024-.653,17.991-.41,6.461-1.015,12.9-1.937,19.307-.729,5.064-1.047,10.314-3.015,15.092-.227.551.67.792.894.246,1.966-4.774,2.289-10.032,3.015-15.092.888-6.191,1.5-12.4,1.912-18.645C1057.083,433.264,1057.586,427.059,1057.4,420.913Z" transform="translate(-12.691 -66.029)"/></g></g><g transform="translate(-181.532 -583.778)"><rect class="i" width="63.999" height="43" rx="4" transform="translate(392.532 867.778)"/><rect class="j" width="16.282" height="15.175" transform="translate(397.606 873.61)"/><g transform="translate(418.884 873.61)"><path class="j" d="M.787,0H29.618a.787.787,0,0,1,.787.787v0a.787.787,0,0,1-.787.787H.787A.787.787,0,0,1,0,.787v0A.787.787,0,0,1,.787,0Z"/><path class="j" d="M.787,0H29.618a.787.787,0,0,1,.787.787v0a.787.787,0,0,1-.787.787H.787A.787.787,0,0,1,0,.787v0A.787.787,0,0,1,.787,0Z" transform="translate(0 3.401)"/><path class="j" d="M.787,0H29.618a.787.787,0,0,1,.787.787v0a.787.787,0,0,1-.787.787H.787A.787.787,0,0,1,0,.787v0A.787.787,0,0,1,.787,0Z" transform="translate(0 6.801)"/><path class="j" d="M.787,0H29.618a.787.787,0,0,1,.787.787v0a.787.787,0,0,1-.787.787H.787A.787.787,0,0,1,0,.787v0A.787.787,0,0,1,.787,0Z" transform="translate(0 10.202)"/><path class="j" d="M.787,0H29.618a.787.787,0,0,1,.787.787v0a.787.787,0,0,1-.787.787H.787A.787.787,0,0,1,0,.787v0A.787.787,0,0,1,.787,0Z" transform="translate(0 13.603)"/></g><g transform="translate(397.606 893.169)"><path class="j" d="M486.891,1087.786h-49.1c-.71,0-1.291.342-1.291.76v.056c0,.418.581.76,1.291.76h49.1c.71,0,1.291-.342,1.291-.76v-.056C488.182,1088.128,487.6,1087.786,486.891,1087.786Z" transform="translate(-436.498 -1087.786)"/><path class="j" d="M486.891,1117.251h-49.1c-.71,0-1.291.342-1.291.759v.056c0,.418.581.76,1.291.76h49.1c.71,0,1.291-.342,1.291-.76v-.056C488.182,1117.593,487.6,1117.251,486.891,1117.251Z" transform="translate(-436.498 -1113.85)"/><path class="j" d="M486.891,1146.716h-49.1c-.71,0-1.291.342-1.291.759v.056c0,.417.581.759,1.291.759h49.1c.71,0,1.291-.342,1.291-.759v-.056C488.182,1147.058,487.6,1146.716,486.891,1146.716Z" transform="translate(-436.498 -1139.915)"/></g></g></g></g></svg>