<svg height="113" viewBox="0 0 100 113" width="100" xmlns="http://www.w3.org/2000/svg" xmlns:xlink="http://www.w3.org/1999/xlink"><mask id="a" fill="#fff"><path d="m.00014807.44244553h89.87673853v89.22230247h-89.87673853z" fill="#fff" fill-rule="evenodd"/></mask><g fill="#ce183d" fill-rule="evenodd" transform="translate(5.16129 11.622857)"><path d="m44.9378551 88.6372698c-24.2079334 0-43.90269906-19.5513877-43.90269906-43.5838225s19.69476566-43.58382255 43.90269906-43.58382255c24.2086738 0 43.9041798 19.55138775 43.9041798 43.58382255s-19.695506 43.5838225-43.9041798 43.5838225m-.0000043-88.19511824c-24.7787402 0-44.93770273 20.01220884-44.93770273 44.61129904 0 24.5990903 20.15896253 44.6112991 44.93770273 44.6112991 24.7794806 0 44.9391835-20.0122088 44.9391835-44.6112991 0-24.5990902-20.1597029-44.61129904-44.9391835-44.61129904" fill-opacity=".5" mask="url(#a)" transform="translate(0 .292514)"/><path d="m44.9378519 81.6824261c-20.1826541 0-36.60211418-16.3006634-36.60211418-36.3363901s16.41946008-36.33639007 36.60211418-36.33639007c20.1833945 0 36.603595 16.30066337 36.603595 36.33639007s-16.4202005 36.3363901-36.603595 36.3363901m.0000022-75.24219807c-21.6093078 0-39.19037648 17.45307957-39.19037648 38.90580797s17.58106868 38.905808 39.19037648 38.905808c21.6100482 0 39.1918572-17.4530796 39.1918572-38.905808s-17.581809-38.90580797-39.1918572-38.90580797" fill-opacity=".7"/><path d="m44.9378539 13.6359209c17.6143845 0 31.9438403 14.2251382 31.9438403 31.7098211 0 17.4854178-14.3294558 31.711291-31.9438403 31.711291-17.6136442 0-31.9431-14.2258732-31.9431-31.711291 0-17.4846829 14.3294558-31.7098211 31.9431-31.7098211zm-.0000004 4.625834c-15.0438925 0-27.2833429 12.1496131-27.2833429 27.0839871 0 14.9351089 12.2394504 27.0854569 27.2833429 27.0854569 15.0446328 0 27.2848235-12.150348 27.2848235-27.0854569 0-14.934374-12.2401907-27.0839871-27.2848235-27.0839871zm-13.0949238 14.4960448c1.0113168-1.0039545 2.6497093-1.0039545 3.6602857 0l9.3276577 9.2582827 9.3269173-9.2582827c1.0113168-1.0039545 2.6497092-1.0039545 3.661026 0 1.0105765 1.0032195 1.0105765 2.6304194 0 3.6343739l-9.3269173 9.2582827 9.3269173 9.2582827c1.0105765 1.0039545 1.0105765 2.6311544 0 3.6343739-.5056584.5019772-1.1682708.7525984-1.8308832.7525984s-1.3244844-.2506212-1.8301428-.7525984l-9.3269173-9.2582827-9.3276577 9.2582827c-.504918.5019772-1.1675304.7525984-1.8301428.7525984s-1.3244845-.2506212-1.8301429-.7525984c-1.0113168-1.0032195-1.0113168-2.6304194 0-3.6343739l9.3269173-9.2582827-9.3269173-9.2582827c-1.0113168-1.0039545-1.0113168-2.6311544 0-3.6343739z"/></g></svg>