<svg height="22" viewBox="0 0 32 22" width="32" xmlns="http://www.w3.org/2000/svg"><g fill="none" fill-rule="evenodd"><path d="m0 0h32v22.068966h-32z"/><g fill-rule="nonzero"><path d="m3.62932072 3.21845422v-1.36955499c0-.52499608-.31956284-.86738482-.86738483-.86738482-.273911 0-.57064791.09130366-.77608116.38804058-.15978141-.25108508-.38804058-.38804058-.73042933-.38804058-.22825916 0-.45651832.06847775-.63912566.31956283v-.273911h-.47934424v2.19128798h.47934424v-1.20977357c0-.38804058.20543325-.57064791.52499608-.57064791s.47934425.20543324.47934425.57064791v1.20977357h.47934424v-1.20977357c0-.38804058.22825917-.57064791.52499608-.57064791.31956283 0 .47934425.20543324.47934425.57064791v1.20977357zm7.09885998-2.19128798h-.77608113v-.66195158h-.47934424v.66195158h-.43369242v.43369241h.43369242v1.00434033c0 .50217016.20543324.79890707.75325527.79890707.2054332 0 .4336924-.06847775.5934738-.15978141l-.1369555-.4108665c-.1369555.09130367-.2967369.11412958-.4108665.11412958-.2282592 0-.31956283-.1369555-.31956283-.36521466v-.98151441h.77608113zm4.0630132-.04565183c-.273911 0-.4565184.1369555-.570648.31956283v-.273911h-.4793442v2.19128798h.4793442v-1.23259949c0-.36521466.1597815-.57064791.4565184-.57064791.0913036 0 .2054332.02282592.2967369.04565183l.1369555-.45651833c-.0913037-.02282591-.2282592-.02282591-.3195628-.02282591zm-6.14017157.22825916c-.22825916-.15978141-.54782199-.22825916-.89021074-.22825916-.54782199 0-.91303666.27391099-.91303666.70760341 0 .36521466.273911.57064791.75325525.63912566l.22825916.02282591c.25108508.04565184.38804058.11412959.38804058.22825917 0 .15978141-.18260733.273911-.50217016.273911s-.57064791-.11412959-.73042933-.22825917l-.22825916.36521466c.25108508.18260734.59347383.273911.93586257.273911.63912566 0 1.00434033-.29673691 1.00434033-.70760341 0-.38804058-.29673692-.59347383-.75325525-.66195157l-.22825916-.02282592c-.20543325-.02282592-.36521466-.06847775-.36521466-.20543325 0-.15978141.15978141-.25108508.41086649-.25108508.273911 0 .547822.11412958.6847775.18260733zm12.73686137-.22825916c-.273911 0-.4565183.1369555-.5706479.31956283v-.273911h-.4793442v2.19128798h.4793442v-1.23259949c0-.36521466.1597814-.57064791.4565183-.57064791.0913037 0 .2054333.02282592.2967369.04565183l.1369555-.45651833c-.0913036-.02282591-.2282591-.02282591-.3195628-.02282591zm-6.1173456 1.14129582c0 .66195158.4565183 1.14129582 1.1641217 1.14129582.3195629 0 .547822-.06847775.7760812-.25108508l-.2282592-.38804058c-.1826073.1369555-.3652146.20543325-.5706479.20543325-.3880406 0-.6619516-.273911-.6619516-.70760341 0-.4108665.273911-.68477749.6619516-.70760341.2054333 0 .3880406.06847775.5706479.20543325l.2282592-.38804058c-.2282592-.18260733-.4565183-.25108508-.7760812-.25108508-.7076034 0-1.1641217.47934424-1.1641217 1.14129582zm4.4282278 0v-1.09564399h-.4793443v.273911c-.1597814-.20543325-.3880405-.31956283-.6847774-.31956283-.6162998 0-1.095644.47934424-1.095644 1.14129582s.4793442 1.14129582 1.095644 1.14129582c.3195628 0 .5478219-.11412958.6847774-.31956283v.273911h.4793443zm-1.7575956 0c0-.38804058.2510851-.70760341.6619516-.70760341.3880406 0 .6619516.29673691.6619516.70760341 0 .38804058-.273911.70760341-.6619516.70760341-.4108665-.02282592-.6619516-.31956283-.6619516-.70760341zm-5.729305-1.14129582c-.6391257 0-1.095644.45651833-1.095644 1.14129582s.4565183 1.14129582 1.1184699 1.14129582c.3195628 0 .6391257-.09130366.8902108-.29673691l-.2282592-.34238875c-.1826073.1369555-.4108665.22825917-.6391257.22825917-.2967369 0-.5934738-.1369555-.6619515-.52499608h1.62064c0-.06847775 0-.11412958 0-.18260733.0228259-.70760341-.3880406-1.16412174-1.0043403-1.16412174zm0 .41086649c.2967369 0 .5021702.18260733.547822.52499608h-1.1412958c.0456518-.29673691.2510851-.52499608.5934738-.52499608zm11.8923025.73042933v-1.96302881h-.4793443v1.14129582c-.1597814-.20543325-.3880406-.31956283-.6847775-.31956283-.6162997 0-1.095644.47934424-1.095644 1.14129582s.4793443 1.14129582 1.095644 1.14129582c.3195629 0 .547822-.11412958.6847775-.31956283v.273911h.4793443zm-1.7575956 0c0-.38804058.2510851-.70760341.6619516-.70760341.3880406 0 .6619516.29673691.6619516.70760341 0 .38804058-.273911.70760341-.6619516.70760341-.4108665-.02282592-.6619516-.31956283-.6619516-.70760341zm-16.02379334 0v-1.09564399h-.47934425v.273911c-.15978141-.20543325-.38804058-.31956283-.68477749-.31956283-.61629975 0-1.09564399.47934424-1.09564399 1.14129582s.47934424 1.14129582 1.09564399 1.14129582c.31956283 0 .54782199-.11412958.68477749-.31956283v.273911h.47934425zm-1.78042149 0c0-.38804058.25108508-.70760341.66195158-.70760341.38804058 0 .66195158.29673691.66195158.70760341 0 .38804058-.273911.70760341-.66195158.70760341-.4108665-.02282592-.66195158-.31956283-.66195158-.70760341z" fill="#000" transform="translate(3.602815 18.686704)"/><g transform="translate(2.23326 1.110749)"><path d="m9.860798 1.963031h7.190164v12.919468h-7.190164z" fill="#ff5f00"/><path d="m10.3173142 8.42276317c0-2.62498039 1.2325995-4.95322387 3.1271506-6.45973436-1.3923809-1.09564398-3.1499765-1.75759556-5.06735346-1.75759556-4.54235738 0-8.21732992 3.67497255-8.21732992 8.21732992 0 4.54235733 3.67497254 8.21732993 8.21732992 8.21732993 1.91737696 0 3.67497256-.6619516 5.06735346-1.7575956-1.8945511-1.4836845-3.1271506-3.8347539-3.1271506-6.45973433z" fill="#eb001b"/><path d="m26.7519741 8.42276317c0 4.54235733-3.6749726 8.21732993-8.2173299 8.21732993-1.917377 0-3.6749726-.6619516-5.0673535-1.7575956 1.917377-1.5065105 3.1271506-3.8347539 3.1271506-6.45973433 0-2.62498039-1.2325995-4.95322387-3.1271506-6.45973436 1.3923809-1.09564398 3.1499765-1.75759556 5.0673535-1.75759556 4.5423573 0 8.2173299 3.69779846 8.2173299 8.21732992z" fill="#f79e1b"/></g></g></g></svg>