<svg height="40" viewBox="0 0 40 40" width="40" xmlns="http://www.w3.org/2000/svg"><g fill="none" fill-rule="evenodd"><path d="m15.0761668 5.63549995-.0011668.648.0011664.00016669-.0016663 26.13183376.0016667 1.0316667h-9.81283345c-.79175927 0-1.43782923-.6214095-1.50717108-1.407917l-.00616227-.1404164v-24.71500039c0-.80907408.60208334-1.47097224 1.37521121-1.54201934l.13812214-.00631402zm-4.7461667 1.0316667h-2.02v25.74833395h2.02z" fill="#d3e1eb"/><g transform="translate(15.075666 3.333167)"><path d="m19.0804996 0c1.0611363 0 1.9385226.84585748 2.0160926 1.91135904l.005574.15364107v24.18666789l-.0011662-.000668.0006671 5.6163414c0 1.1642101-.8325898 2.1154557-1.8778686 2.195972l-.1437981.0055206h-17.06000036c-1.11500002 0-2.02000004-.9843639-2.02000004-2.2014926l.0005-4.5840067h-.00166667v-22.15333444h.00166667v-3.06500015c0-1.08500006.82459709-1.98017573 1.86932142-2.0593136l.15067853-.00568651z" fill="#7d98ba"/><path d="m8.39099964 3.44549997h4.31999996v-1.03166666h-4.31999996z" fill="#002f5f"/><path d="m10.641 10.0001669c.0916667 0 .185.0016667.2783333.0066667.0366667.0016666.0733334.0033333.11.005.0516667.0033333.1033334.0083333.155.0116666 3.2216667.2766667 5.7533334 2.9783334 5.7533334 6.2733335s-2.5316667 5.9983335-5.755 6.2733335c-.05.005-.1016667.0083333-.1533334.0116666-.0366666.0016667-.0733333.005-.11.0066667-.0933333.0033333-.1866666.0066667-.2783333.0066667-2.17500003 0-4.09166672-1.1016667-5.2233334-2.7766668-.115-.1683333-.21833334-.34-.31666667-.52-.095-.1783333-.185-.3616667-.265-.55-.03833334-.0933333-.07666667-.19-.11166667-.2866667-.24833334-.6733333-.38333334-1.4033333-.38333334-2.165 0-3.4783334 2.8216667-6.2966668 6.30000008-6.2966668zm.6206664 1.7583332h-1.1616666v1.1016667c-.96999998.24-1.56999997.9616667-1.56999997 1.8883334 0 1.1483333.90333332 1.66 1.87833327 2.0433334.72.2933333 1.0133333.5833333 1.0133333 1.0016666 0 .4550001-.3933333.7633334-.9799999.7633334-.61666669-.04-1.16000002-.2366667-1.62833334-.5883333l-.42833333 1.1933333c.46833333.3583333 1.01499998.5616667 1.64333327.6066667v1.0666667h1.1716667v-1.1316667c1-.25 1.6433333-1.0266667 1.6433333-1.9833334 0-.9966667-.53-1.6383333-1.7716666-2.1466667-.8766667-.3633333-1.1316667-.5766667-1.1316667-.9483333 0-.3083334.2216667-.6383334.845-.6383334.53.0366667 1.0133333.1933333 1.445.47l.445-1.175c-.425-.27-.895-.4333333-1.4133334-.495z" fill="#fff"/></g><circle cx="25.625" cy="32.291667" fill="#fff" r="1.875"/></g></svg>