<svg height="22" viewBox="0 0 32 22" width="32" xmlns="http://www.w3.org/2000/svg"><g fill="none" fill-rule="evenodd"><rect fill="#224dba" height="22" rx="3" width="32"/><path d="m10.5002321 14.4454828h-1.90396222l-1.42773956-5.43040094c-.06776657-.24979845-.2116545-.47063475-.423309-.57471743-.52820794-.26156432-1.11025782-.46972968-1.74522132-.57471744v-.20907043h3.06713363c.423309 0 .74079075.31405819.79370438.67880011l.74079075 3.91712923 1.90303384-4.59592934h1.8510486zm3.9137516 0h-1.7981349l1.4806532-6.78890624h1.7981349zm3.8069961-4.90817739c.0529136-.365647.3703954-.57471743.7407907-.57471743.5820499-.05249388 1.2160851.05249388 1.7452214.31315312l.3174817-1.46168291c-.5291362-.20907044-1.1111861-.31405819-1.6393941-.31405819-1.7452213 0-3.0151483.94036443-3.0151483 2.24547078 0 .99285832.8995316 1.51417682 1.5344951 1.82823502.6869489.3131531.951517.5222235.8986034.8353766 0 .4697297-.5291363.6788001-1.0573442.6788001-.6349635 0-1.269927-.1565765-1.8510486-.4181408l-.3174817 1.462588c.6349635.2606592 1.3219123.3656469 1.9568758.3656469 1.9568758.0515889 3.1729609-.8878705 3.1729609-2.2979646 0-1.7757411-2.4860121-1.8798238-2.4860121-2.66270659zm8.7790202 4.90817739-1.4277396-6.78890624h-1.5335668c-.3174817 0-.6349635.20907043-.7407907.52222355l-2.6438247 6.26668269h1.8510486l.3694671-.9919533h2.2743575l.2116545.9919533zm-2.6967383-4.96067127.528208 2.55862387h-1.4806532z" fill="#fff"/></g></svg>