<svg height="24" viewBox="0 0 24 24" width="24" xmlns="http://www.w3.org/2000/svg"><g fill="none" fill-rule="evenodd" transform="translate(2 2)"><path d="m17.7988 3.1264v11.2176c0 .646-.523 1.17-1.17 1.17h-15.258c-.646 0-1.17-.524-1.17-1.17v-11.2176c.365.215.789.339 1.244.339.618 0 1.186-.231 1.62-.614.433-.384.731-.922.806-1.535l.083-.685c-.011.103-.018.206-.018.307 0 1.376 1.118 2.527 2.532 2.527 1.398 0 2.532-1.133 2.532-2.531 0 1.398 1.133 2.531 2.531 2.531 1.415 0 2.534-1.151 2.534-2.528 0-.1-.006-.201-.019-.304l.083.683c.075.613.372 1.151.806 1.535.433.383 1.003.614 1.621.614.453 0 .879 1.3896 1.243 1.1746" fill="#c3c4c5" transform="translate(1 4.486)"/><path d="m18.7988 8.5236v1.172c-.364.216-.79.34-1.243.34-.618 0-1.188-.231-1.621-.615-.433-.383-.731-.921-.806-1.534l-.083-.683c.013.102.019.203.019.303 0 1.377-1.118 2.529-2.534 2.529-1.398 0-2.531-1.134-2.531-2.532 0 1.398-1.134 2.532-2.532 2.532-1.414 0-2.532-1.152-2.532-2.528 0-.101.007-.204.018-.307l-.083.686c-.075.613-.372 1.151-.805 1.534-.435.384-1.003.615-1.621.615-.455 0-.879-.124-1.244-.34v-1.172c.365.216.789.339 1.244.339.618 0 1.186-.231 1.621-.614.433-.384.73-.921.805-1.535l.083-.685c-.011.103-.018.206-.018.307 0 1.376 1.118 2.527 2.532 2.527 1.398 0 2.532-1.133 2.532-2.531 0 1.398 1.133 2.531 2.531 2.531 1.416 0 2.534-1.151 2.534-2.528 0-.1-.006-.201-.019-.303l.083.682c.075.614.373 1.151.806 1.535.433.383 1.003.614 1.621.614.453 0 .879-.123 1.243-.339" fill="#fff"/><path d="m15.0459 6.1066c.013.103.019.204.019.304 0 1.376-1.118 2.528-2.534 2.528-1.398 0-2.531-1.134-2.531-2.532l-1.206-2.944 1.206-3.462h4.302l1.293 3.467-.55 2.633c.001.002.001.004.001.006" fill="#9ea0a3"/><path d="m6.43506135 15.1853933h-.74264816l-.19197214-.6768349h-.94291283l-.18772222.6768349h-.73845007l1.00546963-3.1853933h.75099253l.96558773 2.9370221v-2.0835636h.59452279v.3152134c.02855741-.0631148.06520004-.1486603.16294827-.229668.10583346-.0900315.26059285-.1395849.41130964-.1395849.07732787 0 .1547594.0135614.23208727.0404781.24027615.0901862.30946697.2792214.33797255.3601776.18735942-.3466162.48464673-.3960665.64344874-.3960665.19544464 0 .36647813.0720355.48055229.1845491.20358168.1981106.21171873.4140625.21171873.9542516v1.2425483h-.59861723v-1.1029634c0-.3736875-.00808522-.4501576-.06919082-.5491097-.06520004-.1080275-.15885384-.1306643-.24846502-.1306643-.16284462 0-.24426693.1171028-.25655024.1350988-.06514822.1125652-.06514822.3061381-.06514822.4951218v1.1525168h-.59861722v-1.1749989c0-.2520986 0-.3645606-.06105378-.4681536-.04477968-.07647-.13439086-.1395849-.24431875-.1395849-.05296856 0-.10593711.0135614-.15481123.0406328-.17512793.0989521-.17917054.2700945-.17917054.7111767v1.0309279h-.59861723zm8.03033275.3380746v-.1902207h.1579934c.0567394 0 .1904896 0 .2513039-.0584709.0485379-.040476.089184-.1395775.089184-.2340901 0-.0495508-.024398-.1395774-.0445662-.1981515l-.6463286-2.0187214v2.3249101h-.5835903v-.2565709c-.0729359.1080733-.2106578.3061217-.5511457.3061217-.4984812 0-.8714136-.4502366-.8714136-1.1794219 0-.918262.5188042-1.2604253.9160314-1.2604253.2309809 0 .4133722.1305541.5186495.3556724v-.3016358h.5714687v.0044704h.6463286l.3809275 1.5709813.3485345-1.5709813h.6055639l-.6663782 2.3137789c-.0438406.1459096-.1105531.3757907-.209173.5154043.8985186.1410769 1.3712161.2805998 1.3712161.2805998l-.017744.0619256c-.4633527-.1081858-.9397924-.195234-1.4241837-.2638529-.1050161.0922135-.254729.1351601-.6846848.1351601-.0689641 0-.0971791-.0044859-.1579934-.0089717v-.2268104c-5.31578088-.5222025-11.2153941.9263941-11.2153941.9263941l.09609587-.301378c5.04972255-1.0825632 8.87328183-.9797405 11.11929823-.7257159zm-2.6738818-2.6891982h.6110301l-.6110301 2.3511236h-.558102l-.3543736-1.5885929-.3502783 1.5885929h-.5660853l-.61097818-2.3511236h.61097818l.3217666 1.4705765.3298018-1.4705765h.5295386l.3259656 1.4705765zm1.9076402 1.1195169c0-.3027667-.0754994-.4610111-.1551101-.5469684-.0631119-.0723389-.1553771-.1174924-.2475889-.1174924-.1133025 0-.2307697.0677303-.3062691.1717594-.1048662.1491309-.1300149.334457-.1300149.5152781 0 .1446776.0168192.2847985.0670631.4022908.0838289.2035533.2224402.2758403.3439654.2758403.0378565 0 .1594885-.0090618.2686263-.1310591.1299614-.1537912.1593282-.3571373.1593282-.5696487zm-8.62675435-1.2712023-.29697442 1.2134831h.61016949z" fill="#fff"/><g fill="#9ea0a3"><path d="m5.6982.0001 1.119 3.805-1.862 2.295-.084.69c-.075.612-.372 1.15-.807 1.534-.433.384-1.002.614-1.62.614-.454 0-.879-.124-1.243-.339-.719-.426-1.201-1.209-1.201-2.105v-.182l1.665-5.701c.105-.362.437-.611.814-.611z"/><path d="m18.7988 8.5993c-.364.215-.79.339-1.243.339-.618 0-1.188-.231-1.621-.614-.433-.384-.731-.922-.806-1.535l-.083-.683c0-.002 0-.004-.001-.006l-.743-6.1h3.219c.377 0 .709.248.814.611l1.665 5.701v.182c0 .896-.482 1.679-1.201 2.105"/><path d="m10 .0001v6.406c0 1.399-1.134 2.532-2.532 2.532-1.414 0-2.532-1.152-2.532-2.527 0-.101.006-.204.018-.307 0-.001.001-.002.001-.004l.743-6.1z"/></g></g></svg>