<svg height="24" viewBox="0 0 24 24" width="24" xmlns="http://www.w3.org/2000/svg"><g fill="none" fill-rule="evenodd" transform="translate(2 2)"><path d="m16.6055 4.2315h1.086v-1.244h-15.363v1.244h1.086v1.743l.0001.0006v1.244h-1.513c-1.049 0-1.901-.854-1.901-1.903v-3.414c0-1.048.852-1.902 1.901-1.902h16.216c1.049 0 1.902.854 1.902 1.902v3.414c0 1.049-.853 1.903-1.902 1.903h-1.512z" fill="#c3c4c5"/><path d="m2.329 2.9874v1.244h1.085v1.743 1.244 10.408c0 .895.662 1.623 1.475 1.623h10.242c.813 0 1.475-.728 1.475-1.623v-10.408-1.244-1.743h1.086v-1.244z" fill="#9ea0a3"/><path d="m8.108 15.4404h1.243v-11.209h-1.243z" fill="#03274c"/><path d="m10.5 13.268h1.243v-4.268h-1.243z" fill="#fff"/><path d="m5.548 15.4404h1.243v-11.209h-1.243z" fill="#03274c"/><g fill="#fff"><path d="m8.1078 4.2315v1.311 9.898h1.243v-9.898-1.311z"/><path d="m5.5483 4.2315v1.311 9.898h1.243v-9.898-1.311z"/></g></g></svg>