<svg height="19" viewBox="0 0 25 19" width="25" xmlns="http://www.w3.org/2000/svg"><g fill="none" fill-rule="evenodd"><path d="m-2-1h29v20h-29z"/><g fill-rule="nonzero"><path d="m3.2890719 2.91672414v-1.24115921c0-.4757777-.28960382-.7860675-.7860675-.7860675-.24823184 0-.51714967.08274395-.70332355.35166178-.14480191-.22754586-.35166178-.35166178-.66195158-.35166178-.20685986 0-.41371973.06205796-.57920763.28960382v-.24823184h-.43440572v1.98585473h.43440572v-1.0963573c0-.35166178.18617388-.51714967.4757777-.51714967.28960381 0 .43440572.18617388.43440572.51714967v1.0963573h.43440572v-1.0963573c0-.35166178.20685987-.51714967.4757777-.51714967.28960381 0 .43440572.18617388.43440572.51714967v1.0963573zm6.43334189-1.98585473h-.70332355v-.59989362h-.43440573v.59989362h-.39303374v.39303374h.39303374v.91018342c0 .45509171.18617388.72400954.68263757.72400954.18617388 0 .39303375-.06205796.53783565-.14480191l-.12411592-.37234776c-.12411592.08274395-.26891782.10342993-.37234776.10342993-.20685987 0-.28960381-.12411592-.28960381-.33097578v-.88949744h.70332355zm3.68210561-.04137198c-.2482318 0-.4137197.12411592-.5171496.28960382v-.24823184h-.4344058v1.98585473h.4344058v-1.11704329c0-.33097579.1448019-.51714967.4137197-.51714967.0827439 0 .1861739.02068599.2689178.04137197l.1241159-.41371973c-.0827439-.02068599-.2068598-.02068599-.2896038-.02068599zm-5.56453041.20685987c-.20685987-.14480191-.49646368-.20685987-.80675348-.20685987-.49646369 0-.82743948.24823184-.82743948.64126559 0 .33097579.24823185.51714967.68263757.57920763l.20685987.02068599c.22754585.04137197.35166177.10342993.35166177.20685987 0 .1448019-.16548789.24823184-.45509171.24823184-.28960381 0-.51714967-.10342994-.66195158-.20685987l-.20685986.33097579c.22754585.16548789.53783565.24823184.84812545.24823184.57920763 0 .91018342-.26891783.91018342-.64126559 0-.35166178-.26891782-.53783566-.68263756-.59989362l-.20685987-.02068598c-.18617388-.02068599-.33097579-.06205796-.33097579-.18617389 0-.1448019.14480191-.22754585.37234777-.22754585.24823184 0 .49646368.10342993.6205796.16548789zm11.54278061-.20685987c-.2482318 0-.4137197.12411592-.5171497.28960382v-.24823184h-.4344057v1.98585473h.4344057v-1.11704329c0-.33097579.144802-.51714967.4137198-.51714967.0827439 0 .1861739.02068599.2689178.04137197l.1241159-.41371973c-.0827439-.02068599-.2068598-.02068599-.2896038-.02068599zm-5.5438444 1.03429934c0 .59989362.4137197 1.03429934 1.0549853 1.03429934.2896038 0 .4964637-.06205796.7033235-.22754585l-.2068598-.35166178c-.1654879.12411592-.3309758.18617388-.5171497.18617388-.3516618 0-.5998936-.24823184-.5998936-.64126559 0-.37234776.2482318-.6205796.5998936-.64126559.1861739 0 .3516618.06205796.5171497.18617388l.2068598-.35166177c-.2068598-.1654879-.4137197-.22754586-.7033235-.22754586-.6412656 0-1.0549853.43440572-1.0549853 1.03429934zm4.0130814 0v-.99292736h-.4344057v.24823184c-.1448019-.18617388-.3516618-.28960382-.6205796-.28960382-.5585217 0-.9929274.43440572-.9929274 1.03429934s.4344057 1.03429934.9929274 1.03429934c.2896038 0 .4964636-.10342993.6205796-.28960382v.24823185h.4344057zm-1.592821 0c0-.35166177.2275459-.64126559.5998936-.64126559.3516618 0 .5998936.26891783.5998936.64126559 0 .35166178-.2482318.64126559-.5998936.64126559-.3723477-.02068599-.5998936-.28960381-.5998936-.64126559zm-5.1921827-1.03429934c-.5792076 0-.9929273.41371974-.9929273 1.03429934s.4137197 1.03429934 1.0136133 1.03429934c.2896038 0 .5792076-.08274395.8067535-.26891783l-.2068599-.3102898c-.1654879.12411592-.3723477.20685987-.5792076.20685987-.2689178 0-.5378357-.12411592-.5998936-.4757777h1.468705c0-.06205796 0-.10342993 0-.16548789.020686-.64126559-.3516617-1.05498533-.9101834-1.05498533zm0 .37234776c.2689179 0 .4550917.1654879.4964637.4757777h-1.0342993c.0413719-.26891783.2275458-.4757777.5378356-.4757777zm10.7773991.66195158v-1.77899486h-.4344057v1.03429934c-.1448019-.18617388-.3516618-.28960382-.6205796-.28960382-.5585216 0-.9929274.43440572-.9929274 1.03429934s.4344058 1.03429934.9929274 1.03429934c.2896038 0 .4964637-.10342993.6205796-.28960382v.24823185h.4344057zm-1.5928209 0c0-.35166177.2275458-.64126559.5998936-.64126559.3516617 0 .5998936.26891783.5998936.64126559 0 .35166178-.2482319.64126559-.5998936.64126559-.3723478-.02068599-.5998936-.28960381-.5998936-.64126559zm-14.52156276 0v-.99292736h-.43440572v.24823184c-.14480191-.18617388-.35166178-.28960382-.62057961-.28960382-.55852164 0-.99292736.43440572-.99292736 1.03429934s.43440572 1.03429934.99292736 1.03429934c.28960382 0 .49646369-.10342993.62057961-.28960382v.24823185h.43440572zm-1.61350697 0c0-.35166177.22754585-.64126559.59989362-.64126559.35166177 0 .59989361.26891783.59989361.64126559 0 .35166178-.24823184.64126559-.59989361.64126559-.37234777-.02068599-.59989362-.28960381-.59989362-.64126559z" fill="#000" transform="translate(1.26505 15.934826)"/><g transform="translate(.023891 .006616)"><path d="m8.936348 1.778997h6.516086v11.708268h-6.516086z" fill="#ff5f00"/><path d="m9.35006602 7.63312912c0-2.37888848 1.11704328-4.48885913 2.83398018-5.85413426-1.2618452-.99292736-2.85466616-1.59282098-4.59228905-1.59282098-4.11651137 0-7.44695524 3.33044387-7.44695524 7.44695524 0 4.11651138 3.33044387 7.44695528 7.44695524 7.44695528 1.73762289 0 3.33044385-.5998937 4.59228905-1.592821-1.7169369-1.3445892-2.83398018-3.4752458-2.83398018-5.85413428z" fill="#eb001b"/><path d="m24.2439765 7.63312912c0 4.11651138-3.3304439 7.44695528-7.4469552 7.44695528-1.7376229 0-3.3304439-.5998937-4.5922891-1.592821 1.7376229-1.3652751 2.8339802-3.4752458 2.8339802-5.85413428s-1.1170433-4.48885913-2.8339802-5.85413426c1.2618452-.99292736 2.8546662-1.59282098 4.5922891-1.59282098 4.1165113 0 7.4469552 3.35112986 7.4469552 7.44695524z" fill="#f79e1b"/></g></g></g></svg>