<svg height="24" viewBox="0 0 24 24" width="24" xmlns="http://www.w3.org/2000/svg"><g fill="none" fill-rule="evenodd"><rect fill="#c3c4c5" height="17" rx="1" width="20" x="2" y="4"/><g transform="translate(5.75 2)"><path d="m12.661 19.1204045c0 .7302772-.546 1.3208955-1.213 1.3208955h-10.236c-.669 0-1.212-.5906183-1.212-1.3208955l.0003-17.8814045c0-.639375.47724609-1.16888672 1.08814087-1.23257812l.12385913-.00642188h10.236c.6253125 0 1.1442773.48955078 1.2067053 1.11269531l.0062947.12630469z" fill="#9ea0a3"/><path d="m5.0346 2.0673h2.592v-.619h-2.592z" fill="#d3e1eb"/><path d="m6.467725 6.000975.083875.003125c.022.001.044.002.066.003.031.002.062.005.093.007 1.933.166 3.452 1.787 3.452 3.764s-1.519 3.599-3.453 3.764c-.03.003-.061.005-.092.007l-.066.004c-.056.002-.112.004-.167.004-1.305 0-2.455-.661-3.134-1.666-.069-.101-.131-.204-.19-.312-.057-.107-.111-.217-.159-.33-.023-.056-.046-.114-.067-.172-.149-.404-.23-.842-.23-1.299 0-2.087 1.693-3.778 3.78-3.778.055 0 .111.001.167.004zm.289275 1.054125h-.697v.661c-.582.144-.942.577-.942 1.133 0 .689.542.996 1.127 1.226.432.176.608.35.608.601 0 .273-.236.458-.588.458-.37-.024-.696-.142-.977-.353l-.257.716c.281.215.609.337.986.364v.64h.703v-.679c.6-.15.986-.616.986-1.19 0-.598-.318-.983-1.063-1.288-.526-.218-.679-.346-.679-.569 0-.185.133-.383.507-.383.318.022.608.116.867.282l.267-.705c-.255-.162-.537-.26-.848-.297z" fill="#fff"/></g><circle cx="12.225" cy="19.375" fill="#c3c4c5" r="1.125"/><path d="m20 6h1v13h-1z" fill="#fff"/></g></svg>