<svg height="40" viewBox="0 0 40 40" width="40" xmlns="http://www.w3.org/2000/svg"><g fill="none" fill-rule="evenodd" transform="translate(3.333333 3.333333)"><path d="m2.61612334 9.80819117c.16246913.09549383.35154319.15030864.55320985.15030864h2.52166655v2.07333329h-2.52166655c-1.74833325 0-3.16833319-1.4233333-3.16833319-3.1716666v-5.68999989c0-1.74666664 1.41999994-3.16999994 3.16833319-3.16999994h27.02666541c1.7483333 0 3.1699999 1.4233333 3.1699999 3.16999994v5.68999989c0 1.7483333-1.4216666 3.1716666-3.1699999 3.1716666h-2.5199998v-2.07333329h2.5199998c.2016667 0 .390926-.05481481.553642-.15030864l.0941676-.06247777c-.18184.13312001-.4059733.21178667-.6479733.21178667h-2.5200002v-2.90500001h1.8100001v-2.07333334h-25.60500135v2.07333334h1.8100001v2.90500001h-2.5216668c-.24200001 0-.46586669-.07866666-.6473867-.21178667z" fill="#d3e1eb"/><path d="m3.88166666 4.97900009v2.07333322h1.80833332v2.90499985 2.07333324 17.3466657c0 1.4916666 1.10333333 2.7049999 2.45833332 2.7049999h17.0699999c1.355 0 2.4583333-1.2133333 2.4583333-2.7049999v-17.3466657-2.07333324-2.90499985h1.81v-2.07333322z" fill="#7d98ba"/><path d="m13.513333 25.7339994h2.0716667v-18.68166605h-2.0716667z" fill="#03274c"/><path d="m17.5 22.1133335h2.0716667v-7.1133335h-2.0716667z" fill="#fff"/><path d="m9.24666643 25.7339994h2.07166667v-18.68166605h-2.07166667z" fill="#03274c"/><g fill="#fff"><path d="m13.5129992 7.05250025v2.18499993 16.49666612h2.0716667v-16.49666612-2.18499993z"/><path d="m9.24716632 7.05250025v2.18499993 16.49666612h2.07166668v-16.49666612-2.18499993z"/></g></g></svg>