<svg height="40" viewBox="0 0 40 40" width="40" xmlns="http://www.w3.org/2000/svg"><g fill="none" fill-rule="evenodd"><path d="m31.3332 40h-22.66666667c-4.78633333 0-8.66666666-3.8803333-8.66666666-8.6666667v-22.66666663c0-4.78633334 3.88033333-8.66666667 8.66666666-8.66666667h22.66666667c4.7863333 0 8.6666667 3.88033333 8.6666667 8.66666667v22.66666663c0 4.7863334-3.8803334 8.6666667-8.6666667 8.6666667" fill="#00b900"/><path d="m34.4985667 18.2410333c0-6.5166666-6.533-11.81866663-14.5636667-11.81866663-8.0296667 0-14.56333333 5.30200003-14.56333333 11.81866663 0 5.8423334 5.18100003 10.7353334 12.17966663 11.6603334.4743334.1023333 1.12.3123333 1.283.718.147.3683333.096.945.047 1.3166666 0 0-.1706666 1.0276667-.2076666 1.247-.0636667.368-.2926667 1.44 1.2613333.785 1.5546667-.655 8.3873333-4.9383333 11.443-8.4553333h-.0006667c2.1103334-2.3146667 3.1213334-4.6633333 3.1213334-7.2716667" fill="#fff"/><g fill="#00b900"><path d="m16.9759333 15.0919667h-1.0216666c-.1563334 0-.2836667.127-.2836667.2833333v6.3456667c0 .1563333.1273333.283.2836667.283h1.0216666c.1566667 0 .2836667-.1266667.2836667-.283v-6.3456667c0-.1563333-.127-.2833333-.2836667-.2833333"/><path d="m24.0073333 15.0919667h-1.0213333c-.157 0-.2836667.127-.2836667.2833333v3.77l-2.9083333-3.9273333c-.0066667-.01-.0143333-.0196667-.022-.0286667-.0006667-.0006667-.0013333-.0013333-.0016667-.002-.0056666-.006-.0116666-.012-.0173333-.0173333-.0016667-.0016667-.0033333-.0033334-.005-.005-.005-.004-.01-.0086667-.0153333-.0123334-.0023334-.0023333-.0046667-.004-.0073334-.006-.0046666-.0033333-.0096666-.0066666-.0146666-.01-.0026667-.002-.0056667-.0033333-.0086667-.005-.005-.003-.01-.006-.015-.0086666-.003-.0013334-.006-.003-.009-.0043334-.0053333-.0023333-.0106667-.005-.0163333-.0066666-.0033334-.0013334-.006-.0023334-.0093334-.0033334-.0053333-.0023333-.011-.004-.0166666-.0056666-.0033334-.001-.0063334-.0016667-.01-.0026667-.0053334-.0013333-.0106667-.0023333-.0163334-.0033333-.004-.0006667-.008-.0013334-.012-.0016667-.0046666-.001-.0096666-.0013333-.0146666-.002-.005-.0003333-.0096667-.0006667-.0146667-.001-.0036667 0-.0066667-.0003333-.01-.0003333h-1.0216667c-.1563333 0-.2836666.127-.2836666.2833333v6.3456667c0 .1563333.1273333.283.2836666.283h1.0216667c.1566667 0 .2836667-.1266667.2836667-.283v-3.7686667l2.9116666 3.932c.0203334.0283333.045.0516667.072.07.001.0006667.002.0013333.003.0023333.0056667.0036667.0116667.0073334.0176667.0106667.0023333.0013333.005.0026667.008.0043333.0043333.0023334.0086667.0046667.0133333.0066667.0046667.002.009.0036667.014.0056667.003.001.0056667.0023333.0083334.0033333.0066666.0023333.013.0043333.0193333.0063333.0013333 0 .003.0006667.0043333.0006667.0226667.0063333.047.0096667.0726667.0096667h1.0213333c.1566667 0 .2836667-.1266667.2836667-.283v-6.3456667c0-.1563333-.127-.2833333-.2836667-.2833333"/><path d="m14.5135333 20.4150333h-2.7756666v-5.0396666c0-.1566667-.127-.2833334-.2836667-.2833334h-1.0216667c-.1563333 0-.2836666.1266667-.2836666.2833334v6.345.0006666c0 .076.0306666.145.0796666.1956667.001.0013333.002.003.0036667.0046667.0013333.001.003.002.004.0036666.0513333.049.12.0793334.196.0793334h.0003333 4.081c.1566667 0 .2833334-.1273334.2833334-.284v-1.0213334c0-.1566666-.1266667-.284-.2833334-.284"/><path d="m29.6486 16.681c.1566667 0 .2833333-.127.2833333-.2836667v-1.0216666c0-.1566667-.1266666-.2836667-.2833333-.2836667h-4.0806667-.0006666c-.0766667 0-.1456667.0306667-.1966667.08-.001.0013333-.0023333.002-.0033333.003-.0016667.0016667-.0033334.0033333-.0043334.005-.0486666.0506667-.079.1193333-.079.1953333v.0003334 6.3446666.0006667c0 .076.0303334.145.0796667.1956667.0006667.0016666.0023333.0033333.0036667.0046666.001.001.0026666.0026667.0043333.0033334.0506667.049.1193333.0796666.1956667.0796666h.0006666 4.0806667c.1566667 0 .2833333-.1273333.2833333-.284v-1.0213333c0-.1566667-.1266666-.284-.2833333-.284h-2.7753333v-1.0726667h2.7753333c.1566667 0 .2833333-.1266666.2833333-.2836666v-1.0213334c0-.1566666-.1266666-.284-.2833333-.284h-2.7753333v-1.0723333z"/></g></g></svg>