<svg height="40" viewBox="0 0 40 40" width="40" xmlns="http://www.w3.org/2000/svg"><g fill="none" fill-rule="evenodd"><path d="m31.3332 40h-22.66666667c-4.78633333 0-8.66666666-3.8803333-8.66666666-8.6666667v-22.66666663c0-4.78633334 3.88033333-8.66666667 8.66666666-8.66666667h22.66666667c4.7863333 0 8.6666667 3.88033333 8.6666667 8.66666667v22.66666663c0 4.7863334-3.8803334 8.6666667-8.6666667 8.6666667" fill="#1695ef"/><path d="m19.5588235 6.27719534c-7.2059896-.14714496-13.16880205 5.77080096-13.3333333 13.23295986.01880208 3.7985839 1.64291666 7.3980797 4.4444271 9.8499204v3.9584044c0 .3177532.24875.5753648.5555729.5753648.1041146 0 .2061458-.0303136.2944271-.0874887l3.0966666-2.0033398c1.5777084.6249346 3.253073.9436048 4.9422396.9400988 7.2059896.1471989 13.1688021-5.770747 13.3333334-13.2329599-.1645313-7.4621589-6.1273438-13.38010482-13.3333334-13.23295986" fill="#fafafa"/><path d="m28.0725987 15.9114743c-.1677416-.2234085-.4752681-.2902105-.7215429-.1568691l-5.8626621 3.176246-3.6472984-3.1078685c-.2236028-.1905853-.5571836-.1778761-.7655131.0290946l-6.7646304 6.7222137c-.2194805.2194698-.2183707.5741191.0024311.7922234.1765674.17441.4473112.2130627.6661575.0951088l5.8626621-3.176246 3.6506279 3.1090239c.2236556.1905853.5572364.1778761.7655659-.0290946l6.7646304-6.7222137c.1971255-.1977802.218265-.5093653.049572-.7316185" fill="#1695ef"/></g></svg>