<svg xmlns="http://www.w3.org/2000/svg" width="176.278" height="172.768" viewBox="0 0 176.278 172.768"><defs><style>.a{fill:#0049a8;}.b{fill:#0659b5;}.c{fill:#f3f3f3;}.d{fill:#ffd2c5;}.e{fill:#643c3c;}.f{fill:#eaaba0;}.g{fill:#e16568;}.h{fill:#693043;}.i{fill:#273759;}.j{fill:#9b9b9b;}.k{fill:#fabc9b;}.l{fill:#d6d6d5;}.m{fill:#fff;}</style></defs><g transform="translate(-803.617 -295.5)"><path class="a" d="M1396.173,1064.765s14.373,15.057,25.437,16.54,21.787-5.589,22.814-9.7,1.583-11.749-7.307-15.969-15.507-8.555-24.632-20.419-13.46-18.821-17.225-19.62-7.186,4.221-7.757,9.81S1396.173,1064.765,1396.173,1064.765Z" transform="translate(-521.547 -643.171)"/><path class="b" d="M948.4,931.433s7.015,18.137,8.726,26.008-.171,28.4.684,34.563,1.369,8.384,1.369,8.384-22.928.342-40.552-1.711-30.93-74.21-28.9-78.341,15.893-8.238,15.893-8.238Z" transform="translate(-76.742 -550.79)"/><path class="a" d="M1044.239,894.463l-3.878,1.882s3.251,10.951,14.886,13.859,19.466,0,19.466,0l-.645-7.224Z" transform="translate(-211.477 -535.037)"/><path class="c" d="M1914.586,1746.2l45.47-17.627a2.79,2.79,0,0,0,1.127-2.252c.014-1.531-46.384,18.454-46.384,18.454l-2.31-.011A1.54,1.54,0,0,0,1914.586,1746.2Z" transform="translate(-990.525 -1278.034)"/><path class="d" d="M1076.582,456.007s2.053,7.529,7.643,10.951,15.31,5.019,21.514,1.141,18.182-50.647,13.391-58.746-24.3-6.616-31.483-1.711S1076.294,455.111,1076.582,456.007Z" transform="translate(-243.82 -96.581)"/><path class="e" d="M1309.945,610.353a.744.744,0,0,0-.01-.248.731.731,0,0,0-.75-.525.347.347,0,0,0-.349-.008,3.115,3.115,0,0,0-1.23,1.371,1.892,1.892,0,0,0-.144,1.619.735.735,0,0,0,.3.264.6.6,0,0,0,.477.125.763.763,0,0,0,.208-.062,1.38,1.38,0,0,0,.353-.128,2.452,2.452,0,0,0,1.049-1.547A1.88,1.88,0,0,0,1309.945,610.353Z" transform="translate(-449.95 -280.513)"/><path class="e" d="M1407.655,649.974a.741.741,0,0,0-.01-.248.731.731,0,0,0-.75-.525.347.347,0,0,0-.349-.008,3.116,3.116,0,0,0-1.23,1.371,1.891,1.891,0,0,0-.143,1.619.735.735,0,0,0,.3.264.594.594,0,0,0,.477.125.76.76,0,0,0,.208-.062,1.378,1.378,0,0,0,.353-.128,2.453,2.453,0,0,0,1.049-1.547A1.883,1.883,0,0,0,1407.655,649.974Z" transform="translate(-537.231 -315.905)"/><path class="f" d="M1351.854,674.27c-.214,1-.283,2.838-1.638,2.978-.434.045-.438.73,0,.684,1.789-.185,2-2.066,2.3-3.48C1352.606,674.022,1351.946,673.838,1351.854,674.27Z" transform="translate(-487.969 -338.124)"/><path class="g" d="M1322.474,720.2a1.638,1.638,0,0,1-1.917-1.095c-.186-.558-1.035-.218-.849.339a2.541,2.541,0,0,0,2.876,1.663C1323.154,720.992,1323.051,720.082,1322.474,720.2Z" transform="translate(-460.986 -378.142)"/><path class="h" d="M1310.288,551.84c-2.066-.03-3.29.656-3.15,1.935s3.149.3,6.021.719C1314.438,554.679,1314.873,551.906,1310.288,551.84Z" transform="translate(-449.772 -228.98)"/><path class="h" d="M1430.208,588.435c1.466,1.456,1.831,2.811.819,3.6s-2.419-2.039-4.724-3.8C1425.276,587.453,1426.955,585.2,1430.208,588.435Z" transform="translate(-555.96 -260.159)"/><path class="i" d="M1021.577,314.369s-2.224-3.422-8.9,1.2-11.863,7.529-14.886,7.586-3.935-.915-3.935-.915a3.184,3.184,0,0,0-3.878-.8c-2.453,1.084-2.624,14.088,2.567,13.688a17.763,17.763,0,0,0,1.654,6.1c1.426,2.738-1.6,12.434-5.875,14.715s-6.787,3.479-6.787,3.479-9.639.57-10.894-10.551a55.253,55.253,0,0,1,2.909-26.638c2.852-8.382,10.09-17.934,21.844-24.18,7.072-3.758,20.533-3.631,27.662,2.11,8.976,7.228,12.034,16.027,10.038,26.179s-8.1,16.939-6.388,22.985,4.791,8.213,5.247,16.027-2.681,13.517-7.528,16.084-15.97,3.65-16.654-2.453,1.882-10.722,1.369-14.373-3.339-6.274-.9-12.091c0,0,4.969-1.414,9.512-9.7,3.848-7.015,3.248-10.737,4.182-15.925C1023.516,318.133,1021.577,314.369,1021.577,314.369Z" transform="translate(-148.776 0)"/><path class="j" d="M1555.426,1680.148l-42.662-10.38,53.5-15.4Z" transform="translate(-633.461 -1213.839)"/><path class="k" d="M1842.822,1518.8c-3.563-1.839-11-2.174-13.55-3.128s-12.552-9.717-17.006-8.729c-5.568,1.235-6.5,7.05-2.378,8.239,3.9,1.127,9.127,2.542,10.983,4.606.038.1,1.868,4.836,2.963,6.905a19.793,19.793,0,0,1,2.293,6.385c.148,1.72,1.7.557,1.726-.383s-.58-3.143-.636-4.182a23.133,23.133,0,0,0-.343-2.485c2.136,1.3,7.788,1.9,9.19,1.808,1.5-.1,5.432-.27,8.042-.616s6.933-1.157,7.33-2.247S1846.385,1520.642,1842.822,1518.8Z" transform="translate(-896.596 -1082.082)"/><path class="k" d="M1306.382,1665.591s18.222,4.278,22.158,4.535,8.3-.343,10.865,0,7.423,1.027,9.582,1.2a48.412,48.412,0,0,1,7.386,3.109c2.091,1.1,5.1,3.736,5.276,4.335s-.684.855-2.31,0-4.28-2.448-5.761-3.023a16.85,16.85,0,0,0-3.65-.58,44.951,44.951,0,0,1,5.133,2.919,21.854,21.854,0,0,1,5.047,4.192c.4.512-.856,1.2-2.224.427s-3.336-2.053-4.962-2.908-5.033-2.082-5.033-2.082,3.294,2.253,4.834,3.108,3.45,2.481,3.194,2.995-1.711.171-3.422-.685-6.587-3.08-6.587-3.08a31.778,31.778,0,0,0,2.823,2.31c.941.6,2.795,1.691,2.624,2.376s-2.966-.493-4.506-1.263-7.186-3.85-8.726-4.021a78.113,78.113,0,0,1-7.528-2.139s-26.607-1.2-27.12-1.283S1302.019,1666.1,1306.382,1665.591Z" transform="translate(-446.101 -1223.863)"/><path class="f" d="M1203.135,735.285s-10.08-2.025-14.044-11.293c0,0,.554,4.423-.746,7.377,0,0,6.1,10.941,14.233,11.135A10.88,10.88,0,0,1,1203.135,735.285Z" transform="translate(-343.667 -382.76)"/><path class="a" d="M814.853,970.569c-8.354,5.529-13,29.981-10.608,46.921s-.513,40.381,12.491,45,26.35-1.369,31.483-4.106a27.662,27.662,0,0,1,9.947-3.08s-1.026-7.529,3.753-11.122c0,0-3.73-1.54-3.753-4.449s-1.221-8.555-8.236-15.057S838.979,1006.881,836.413,992,818.789,967.965,814.853,970.569Z" transform="translate(0 -602.626)"/><path class="l" d="M1920.237,1384.1c-1.557,8.789-7.748,41.294-7.748,41.294l2.31.428,42.828-16.721a2.671,2.671,0,0,0,1.659-1.8l11.008-36.2c.239-.866-1.433-2.417-3.649-1.766l-43.881,12.022A3.466,3.466,0,0,0,1920.237,1384.1Z" transform="translate(-990.525 -959.084)"/><path class="c" d="M1941.88,1389.068c-1.557,8.789-7.748,41.294-7.748,41.294l45.086-17.4a2.67,2.67,0,0,0,1.659-1.8l8.832-35.434a1.163,1.163,0,0,0-1.421-1.433l-43.881,12.022A3.466,3.466,0,0,0,1941.88,1389.068Z" transform="translate(-1009.857 -963.625)"/><ellipse class="m" cx="3.978" cy="3.118" rx="3.978" ry="3.118" transform="translate(951.201 427.059) rotate(-60.001)"/></g></svg>