<svg xmlns="http://www.w3.org/2000/svg" xmlns:xlink="http://www.w3.org/1999/xlink" width="114" height="164.217" viewBox="0 0 114 164.217"><defs><style>.a{fill:none;}.b{clip-path:url(#a);}.c{fill:#57abff;opacity:0.1;}.d{clip-path:url(#b);}.e{fill:#e6f2ff;}.f{fill:#ffb73a;}.g{fill:#fff;}.h{clip-path:url(#c);}.i{fill:#de0039;}.j{fill:#0038a5;}.k{fill:#273759;}.l{fill:#0040a5;}.m{fill:#95c5ff;}.n{fill:#ffd2c5;}.o{fill:#ff9e44;}.p{fill:#01020e;}.q{fill:#86b6ff;}.r{fill:#0051d3;}.s{fill:#75abff;}.t{fill:#0049a8;}.u{fill:#8eb8ff;}.v{fill:#eec2b9;}</style><clipPath id="a"><path class="a" d="M0,0H114V114H0Z" transform="translate(0 0.892)"/></clipPath><clipPath id="b"><path class="a" d="M0,0H88.285V7.274H0Z" transform="translate(0.749 0.726)"/></clipPath><clipPath id="c"><path class="a" d="M0,0H8.921V8.921H0Z" transform="translate(0.715 0.783)"/></clipPath></defs><g transform="translate(-131 -202)"><g transform="translate(131 202)"><g transform="translate(0 -1)"><g transform="translate(0 25.217)"><path class="a" d="M0,0H114V114H0Z" transform="translate(0 0.892)"/></g><g transform="translate(13 157.217)"><path class="a" d="M0,0H88.285V7.274H0Z" transform="translate(0.749 0.726)"/></g><g class="b" transform="translate(0 25.217)"><path class="c" d="M114,57A57,57,0,1,1,57,0a57,57,0,0,1,57,57" transform="translate(0 0.892)"/></g><g class="d" transform="translate(13 157.217)"><path class="e" d="M0,3.637C0,5.646,5.421,7.274,28.39,7.274s59.9-1.628,59.9-3.637S51.359,0,28.39,0,0,1.629,0,3.637" transform="translate(0.749 0.726)"/></g><path class="f" d="M4.246,0H23a4.246,4.246,0,0,1,4.246,4.246v9.675A4.245,4.245,0,0,1,23,18.167H10.738L6.326,22.06V18.167H4.246A4.245,4.245,0,0,1,0,13.921V4.246A4.246,4.246,0,0,1,4.246,0" transform="translate(77.614 4.994)"/><path class="g" d="M13.833,1.064H.531A.532.532,0,0,1,.531,0h13.3a.532.532,0,0,1,0,1.064" transform="translate(84.058 9.918)"/><path class="g" d="M13.833,1.064H.531A.532.532,0,0,1,.531,0h13.3a.532.532,0,0,1,0,1.064" transform="translate(84.058 13.465)"/><path class="g" d="M2.482,1.065H.531A.533.533,0,0,1,.531,0H2.482a.533.533,0,0,1,0,1.065" transform="translate(84.058 17.011)"/><path class="g" d="M2.482,1.065H.532A.533.533,0,0,1,.532,0h1.95a.533.533,0,0,1,0,1.065" transform="translate(88.492 17.011)"/><path class="g" d="M4.966,1.065H.531A.533.533,0,0,1,.531,0H4.966a.533.533,0,0,1,0,1.065" transform="translate(92.924 17.011)"/><path class="f" d="M4.246,0H23a4.246,4.246,0,0,1,4.246,4.246v9.675A4.245,4.245,0,0,1,23,18.167H10.738L6.326,22.06V18.167H4.246A4.245,4.245,0,0,1,0,13.921V4.246A4.246,4.246,0,0,1,4.246,0" transform="translate(77.614 4.994)"/><path class="g" d="M9.4,8.158a.532.532,0,0,1,0-1.065h4.435a.532.532,0,0,1,0,1.065Zm-4.432,0a.532.532,0,0,1,0-1.065H6.916a.532.532,0,1,1,0,1.065Zm-4.435,0a.532.532,0,0,1,0-1.065H2.482a.532.532,0,0,1,0,1.065Zm0-3.547a.532.532,0,0,1,0-1.064h13.3a.532.532,0,0,1,0,1.064Zm0-3.547A.532.532,0,0,1,.531,0h13.3a.532.532,0,0,1,0,1.064Z" transform="translate(84.058 9.918)"/><g transform="translate(98 0.217)"><path class="a" d="M0,0H8.921V8.921H0Z" transform="translate(0.715 0.783)"/><g class="h"><path class="i" d="M8.921,4.461A4.46,4.46,0,1,1,4.46,0,4.46,4.46,0,0,1,8.921,4.461" transform="translate(0.715 0.783)"/></g></g><path class="g" d="M2.6,3.385v.974H0V3.385H.817V1.417H0V.683A3.107,3.107,0,0,0,1.478,0h.336V3.385Z" transform="translate(102.081 3.145)"/><path class="f" d="M15.32.228,9.548,5.541a2.722,2.722,0,0,1-3.776,0L0,.228A.689.689,0,0,1,.5,0H14.815a.7.7,0,0,1,.505.228" transform="translate(92.157 25.979)"/><path class="f" d="M.74,10.309A.8.8,0,0,1,0,9.46V1.442L5.294,6.316a3.777,3.777,0,0,0,5.2,0l5.3-4.874V9.46a.8.8,0,0,1-.742.849ZM6.008,5.541.236.228A.735.735,0,0,1,.464.061.649.649,0,0,1,.74,0H15.051a.65.65,0,0,1,.276.061.735.735,0,0,1,.229.167L9.784,5.541a2.723,2.723,0,0,1-3.776,0Z" transform="translate(91.92 25.98)"/><path class="g" d="M14.587.47a.654.654,0,0,1,.275.061A.64.64,0,0,0,14.587.47H.275A.646.646,0,0,0,0,.53.661.661,0,0,1,.275.47Z" transform="translate(92.385 25.51)"/><path class="g" d="M15.557,0h0L9.785,5.313a2.723,2.723,0,0,1-3.776,0L.237,0A.9.9,0,0,0,0,.621v.593L5.3,6.088a3.775,3.775,0,0,0,5.2,0l5.3-4.874V.621A.908.908,0,0,0,15.557,0" transform="translate(91.92 26.207)"/><path class="j" d="M15.472,0C17.361,1.948,18,6.354,17.326,8.818,16.188,12.973,6.439,30.486,4.52,34.29,3.079,37.147,0,43.909,0,43.909l2.3,1.017s3.624-6.576,4.913-9.5c1.716-3.9,10.531-21.9,11.45-26.109.62-2.837-.59-8.089-3.19-9.312" transform="translate(34.083 49.33)"/><path class="k" d="M0,3.8,12.846,2.615V7.529A80.582,80.582,0,0,1,0,3.8ZM35.071.562,41.157,0V1.038a8.069,8.069,0,0,1-3.02,4A9.845,9.845,0,0,1,35.071,6.33Z" transform="translate(36.612 109.702)"/><path class="l" d="M0,69.641,16.585,32.362,30.08,24.3c-.525-.267-.842-.444-.842-.444S21.1-2.617,26.341.212c4.634,2.5,9.739,18.1,9.739,18.1L43.969,2.3c1.624.846,4.712,2.81,6.275,3.759-2.442,6.353-9.087,19.595-11.46,20.623-1.249.542-3.649-.174-5.73-1.022,2.085,9.225,8.607,38.476,8.1,41.212-.492,2.672-11.579,3.314-22.119,3.314C9.285,70.191,0,69.641,0,69.641Z" transform="translate(36.612 43.863)"/><path class="m" d="M40.049,0,55.28,71.507l-5.1,1.595s-8.2-28.875-12.2-38.022C36.028,30.613,28.4,18.1,28.4,18.1L19.986,44.215a6.011,6.011,0,0,1-.515,1.163L3.754,72.739,0,69.511,13.056,33.1,17.273,0Z" transform="translate(27.67 79.656)"/><path class="n" d="M7.238,21.426l2.387-5.42s2.037.55,2.933-.315c.337-.325.677-2.061.848-4.223.019-.258.038-.522.053-.791s1.134.475,1.144.189c.02-.585-1.08-2.218-1.091-2.811-.047-2.732-.445-5.378-1.466-6.376C9.714-.6,1.546-.932.432,3.034A11.459,11.459,0,0,0,3.645,14.558L1.435,20.18Z" transform="translate(51.246 20.584)"/><path class="k" d="M11.078,13.354s.088-5,.018-8.4c-.212,2.776-.852,6.546-.852,6.546l-.895-.407s1.668-8.029,1.342-8.444A10.392,10.392,0,0,0,8.217,1.2a8.076,8.076,0,0,0-2.706-.075C4,1.473,1.607,12.179,1.673,12.414l-.635-.156C1.461,10.492,3.1,4.182,3.967,1.908A32.422,32.422,0,0,0,.569,7.6L0,7.273C1.057,5.4,3.9.526,4.664.12A6.878,6.878,0,0,1,8.3.5a4.956,4.956,0,0,1,2.682.837c.936.747,1.068,12.166,1.068,12.166ZM10.922,2.082a.366.366,0,0,0-.076-.191.928.928,0,0,0-.17-.089A2.812,2.812,0,0,1,10.922,2.082ZM4.982.816A7.814,7.814,0,0,1,6.389.54a3.584,3.584,0,0,0-.617-.1H5.745A1.323,1.323,0,0,0,4.982.816Z" transform="translate(20.271 95.987)"/><path class="i" d="M5.088,0l16.4,2.336L19.415,26.779,0,24.462Z" transform="translate(13.393 106.941)"/><path class="f" d="M11.625,0,26.747,6.26,16.422,29.918,0,22.764Z" transform="translate(6.288 101.228)"/><path class="o" d="M10.325,0,3.983,25.04,2.225,23.658H0L5.528,7.643Z" transform="translate(22.71 107.488)"/><path class="k" d="M0,2.428,3.559,0,9.035,4.3l2.715,9.172-1.481,1.01ZM53.339,4.589l6.571-2.308L69.1,4.919,69.16,6.71,53.474,8.9Z" transform="translate(23.502 148.196)"/><path class="k" d="M15.425,4.764s-1.4,4.786-8.89,7.468A10.671,10.671,0,0,1,9.367,19.3l-7.873.511S-5.476.485,10.693.013,18.75,11.968,18.75,11.968l-.2-1.318a10.227,10.227,0,0,0-3.121-5.886" transform="translate(46.054 16.513)"/><path class="p" d="M.411.011h0a.515.515,0,0,1,.608.4l.136.659a.515.515,0,0,1-1.01.207L.011.619a.516.516,0,0,1,.4-.608" transform="translate(62.178 26.781)"/><path class="g" d="M1.926.177c.367.737.24,1.493-.281,1.687S.4,1.618.035.88h0C-.026.753-.005.622.085.589L1.646.008c.091-.034.215.043.278.17Z" transform="translate(62.15 31.391)"/><path class="q" d="M20.769.473,17.273,0,13.056,33.1,0,69.511,3.754,72.74S16.534,52.184,19.79,44.824C22.629,38.4,28.4,18.1,28.4,18.1Z" transform="translate(27.669 79.655)"/><path class="r" d="M.522,43.563l23.451,3.168L21.954,36.268A3.854,3.854,0,0,1,22.3,33.8c.739-1.463,2-3.979,2.83-5.685.776-1.6,1.053-4.508-1.951-10.042A80.829,80.829,0,0,1,18.533,7.982l.712-2.047a.844.844,0,0,0-.4-1.021L9.857.088a.731.731,0,0,0-1.05.447l-.861,3.09S1.463,11.831.356,13.886s.7,20.08.86,21.819Z" transform="translate(44.42 36.093)"/><path class="s" d="M4.7,9.21,0,3.232.71,0Z" transform="translate(51.371 88.544)"/><path class="t" d="M8.942,73.787,16.259,39.4l.3-4.973c-2.535,4.179-4.842,7.928-5.625,9.48-1.441,2.857-4.52,9.618-4.52,9.618L0,50.738S13.459,13.247,16.258,10.5v0C17.357,7.935,24.7,0,24.7,0s6.2,1.68,7.781,4.686-12.689,66.7-13.513,68.427c-.449.943-2.258,1.218-4.216,1.218A38.685,38.685,0,0,1,8.942,73.787Z" transform="translate(27.67 39.717)"/><path class="l" d="M5.163,0C3.863,7.641,2.189,16.021,0,26.269l14.473,1.956a13.352,13.352,0,0,1-9.3-4.8C.68,18.317,5.163,0,5.163,0" transform="translate(53.921 54.599)"/><path class="u" d="M.495.5A.063.063,0,0,1,.5.51.124.124,0,0,1,.506.49L.495.5" transform="translate(27.175 89.955)"/><path class="i" d="M0,10.707.275,4.756.542,0,2.285.248,1.441,10.54Z" transform="translate(84.888 34.541)"/><path class="m" d="M4.546,4.444c-.01-.017-.018-.032-.03-.049-.166-.25.492-1.93,1.272-3.591C8.717,2,8.717,4.272,8.717,4.272a3.479,3.479,0,0,1-2.025.472A8.6,8.6,0,0,1,4.546,4.444ZM.005.471A2.476,2.476,0,0,1,1.589,0L1.1,1.03c-.173.349-.362.737-.556,1.142A2.646,2.646,0,0,1,.005.471Z" transform="translate(27.664 89.984)"/><path class="n" d="M5.927,4.523l-.042-.07c-.01-.017-.019-.034-.03-.05-.166-.25.492-1.929,1.272-3.591Q6.845.7,6.526.6a10.455,10.455,0,0,0-3.6-.588L2.442,1.039c-.173.348-.362.736-.556,1.141C.986,4.06-.027,6.335,0,7c.188,4.446,4.4,3.745,5.448,2.934,1.07-.825.406-3.983.406-3.983a1.114,1.114,0,0,0,.072-1.432" transform="translate(26.326 89.976)"/><path class="m" d="M4.153,4.8C4.73,3.569,5.237,2.5,5.6,1.76c1.556,1.463.9,2.722.9,2.722a3.216,3.216,0,0,1-1.649.359A5.529,5.529,0,0,1,4.153,4.8ZM.222.723A1.862,1.862,0,0,1,2.111.017c.042.373.084.639.084.639L.653,3.289A2.27,2.27,0,0,1,.222.723Z" transform="translate(80.359 45.446)"/><path class="v" d="M2.907,1.4S1.755,1.785,0,0C0,0,1.27,2.137,2.435,2.438Z" transform="translate(57.963 35.19)"/><path class="n" d="M5.314.091c-.208.236-.079,1.285-.079,1.285l.372.554s-.439-.057-.429.092c0,.048.007.157.01.28-.588.056-1.162.146-1.162.146A5.858,5.858,0,0,0,4.21.274a.886.886,0,0,0-1.284,0,6.4,6.4,0,0,0-.567,2.22,2.713,2.713,0,0,0-.918,1.181,6.883,6.883,0,0,0,.017,2.167c.043.373.084.639.084.639L0,9.114a4.137,4.137,0,0,0,1.413.918,7.873,7.873,0,0,0,2.086.589c.578-1.229,1.085-2.3,1.446-3.036.307-.63.509-1.026.558-1.084A21.184,21.184,0,0,0,6.44,2.388c.138-.7-.918-2.533-1.126-2.3" transform="translate(81.012 39.621)"/></g></g></g></svg>