<svg xmlns="http://www.w3.org/2000/svg" width="24" height="24" viewBox="0 0 24 24">
  <g id="Group_8822" data-name="Group 8822" transform="translate(-947 -280)">
    <g id="Group_5261" data-name="Group 5261" transform="translate(947 280)">
      <circle id="Ellipse_1" data-name="Ellipse 1" cx="12" cy="12" r="12" transform="translate(0 0)" fill="none"/>
      <g id="Group_5331" data-name="Group 5331" transform="translate(6.001 4.8)">
        <path id="Path_16587" data-name="Path 16587" d="M1058.8,557.434a1.289,1.289,0,0,0-.918-.385h-1.841v-.281a1.3,1.3,0,0,0-1.294-1.294H1051.6a1.3,1.3,0,0,0-1.288,1.3v.275h-1.843a1.3,1.3,0,0,0-.475,2.508l.688,8.4a1.3,1.3,0,0,0,1.293,1.191h6.4a1.3,1.3,0,0,0,1.286-1.191l.7-8.4a1.3,1.3,0,0,0,.44-2.122Zm-1.473,2.213-.679,8.227a.276.276,0,0,1-.272.253h-6.4a.275.275,0,0,1-.275-.253l-.678-8.227Zm-5.992-2.6v-.275a.276.276,0,0,1,.275-.276h3.135a.275.275,0,0,1,.274.276v.275Zm6.822,1.3a.275.275,0,0,1-.276.275h-9.409a.276.276,0,0,1,0-.552h9.409A.276.276,0,0,1,1058.16,558.349Z" transform="translate(-1047.179 -555.474)" fill="#a36a00"/>
        <g id="Group_5328" data-name="Group 5328" transform="translate(3.105 4.65)">
          <path id="Path_16588" data-name="Path 16588" d="M1057.612,561.4a.474.474,0,0,0-.366.148.5.5,0,0,0-.154.357l-.395,6.409,0,.025a.514.514,0,0,0,.482.547h.037a.516.516,0,0,0,.513-.485l.392-6.427c0-.018,0-.036,0-.053A.519.519,0,0,0,1057.612,561.4Z" transform="translate(-1052.331 -561.398)" fill="#a36a00"/>
          <path id="Path_16589" data-name="Path 16589" d="M1055.194,561.9a.511.511,0,0,0-.168-.357.494.494,0,0,0-.37-.133.514.514,0,0,0-.491.532v6.429a.281.281,0,0,0,0,.046.512.512,0,0,0,.513.491h.026a.514.514,0,0,0,.49-.532v-6.424A.286.286,0,0,0,1055.194,561.9Z" transform="translate(-1051.787 -561.4)" fill="#a36a00"/>
          <path id="Path_16590" data-name="Path 16590" d="M1051.983,561.542a.506.506,0,0,0-.376-.12.513.513,0,0,0-.469.553l.4,6.431.008.112h.007a.519.519,0,0,0,.5.392c.019,0,.039,0,.059,0a.516.516,0,0,0,.454-.564l-.4-6.45A.508.508,0,0,0,1051.983,561.542Z" transform="translate(-1051.136 -561.403)" fill="#a36a00"/>
        </g>
      </g>
    </g>
  </g>
</svg>
