<svg xmlns="http://www.w3.org/2000/svg" width="24" height="24" viewBox="0 0 24 24">
  <g id="Group_12605" data-name="Group 12605" transform="translate(-24 -200)">
    <rect id="Rectangle_4358" data-name="Rectangle 4358" width="24" height="24" transform="translate(24 200)" fill="#e3a780" opacity="0"/>
    <g id="Group_12618" data-name="Group 12618" transform="translate(21 197.05)">
      <path id="Path_16657" data-name="Path 16657" d="M968.847,536.791l-1.576-.682-1.352-2.632a2.274,2.274,0,0,0-2.038-1.251h-2.256v-.54a2.313,2.313,0,0,0-2.3-2.327H948.016a2.3,2.3,0,0,0-2.288,2.324v10.235a1.46,1.46,0,0,0,1.44,1.48h.172a2.871,2.871,0,0,0,2.86,2.862h.011a2.872,2.872,0,0,0,2.871-2.868h8.883a2.873,2.873,0,0,0,2.86,2.862h.011a2.874,2.874,0,0,0,2.872-2.861l.559-.007a1.463,1.463,0,0,0,1.461-1.461V538.14A1.454,1.454,0,0,0,968.847,536.791Zm-18.626,8.161h0a1.561,1.561,0,1,1,1.561-1.561A1.564,1.564,0,0,1,950.217,544.952Zm10.089-5.631v2.771h-7.529a2.872,2.872,0,0,0-5.129,0h-.465a.144.144,0,0,1-.1-.043.158.158,0,0,1-.044-.122v-3.912h0v-6.329a.992.992,0,0,1,.979-1.007h11.3a1,1,0,0,1,.989,1v6.332m1.314-4.473h2.256a.991.991,0,0,1,.881.532l.966,1.87h-4.1Zm3.218,11.411a1.561,1.561,0,1,1,1.563-1.561A1.562,1.562,0,0,1,964.842,544.952Zm3.433-2.86H967.4a2.873,2.873,0,0,0-5.13,0h-.648v-4.84h5.042l1.654.728a.189.189,0,0,1,.1.176l.007,3.77v.007A.152.152,0,0,1,968.275,542.093Z" transform="translate(-942.728 -522.859)" fill="#2c2c2c"/>
    </g>
  </g>
</svg>
