<svg xmlns="http://www.w3.org/2000/svg" width="20" height="20" viewBox="0 0 20 20">
  <g id="Group_8607" data-name="Group 8607" transform="translate(-24 -290)">
    <g id="Ellipse_1608" data-name="Ellipse 1608" transform="translate(24 290)" fill="#fff" stroke="#2c2c2c" stroke-width="2">
      <circle cx="10" cy="10" r="10" stroke="none"/>
      <circle cx="10" cy="10" r="9" fill="none"/>
    </g>
    <path id="Path_87722" data-name="Path 87722" d="M959.231,542.805a1.856,1.856,0,0,0-.49-1.338.759.759,0,1,1-.061-1.2,2.081,2.081,0,0,0-.29-2.839,3.139,3.139,0,0,0-1.633-.568v-.492a.9.9,0,1,0-1.8,0v.479h-1.151a.908.908,0,0,0-.909.907v6.413a.908.908,0,0,0,.909.907h1.16v.493a.9.9,0,1,0,1.8,0v-.5a2.984,2.984,0,0,0,1.74-.6A2.061,2.061,0,0,0,959.231,542.805Zm-4.374-4.552h1.093a1.35,1.35,0,0,1,.883.261.971.971,0,0,1,0,1.44,1.358,1.358,0,0,1-.883.26h-1.09Zm2.086,5.056a1.249,1.249,0,0,1-.859.283l-1.227,0v-2.047h1.227a1.284,1.284,0,0,1,.844.275.89.89,0,0,1,.327.721A.978.978,0,0,1,956.943,543.31Z" transform="translate(-921.898 -240.97)" fill="#2c2c2c"/>
  </g>
</svg>
