<svg id="Group_5261" data-name="Group 5261" xmlns="http://www.w3.org/2000/svg" width="24" height="24" viewBox="0 0 24 24">
  <circle id="Ellipse_1" data-name="Ellipse 1" cx="12" cy="12" r="12" fill="none"/>
  <g id="writing" transform="translate(6.058 5.049)">
    <g id="Group_5758" data-name="Group 5758">
      <g id="Group_5757" data-name="Group 5757">
        <path id="Path_16604" data-name="Path 16604" d="M112.955,200.528a.528.528,0,0,0-.528-.528h-5.44a.528.528,0,1,0,0,1.056h5.44A.528.528,0,0,0,112.955,200.528Z" transform="translate(-104.349 -194.719)" fill="#396e75"/>
        <path id="Path_16605" data-name="Path 16605" d="M106.987,280a.528.528,0,0,0,0,1.056h3.3a.528.528,0,0,0,0-1.056Z" transform="translate(-104.349 -272.606)" fill="#396e75"/>
        <path id="Path_16606" data-name="Path 16606" d="M30.449,12.463H28.682a1.057,1.057,0,0,1-1.056-1.056v-9.3a1.057,1.057,0,0,1,1.056-1.056h6.493a1.057,1.057,0,0,1,1.056,1.056V5.36a.528.528,0,0,0,1.056,0V2.112A2.115,2.115,0,0,0,35.175,0H28.682A2.115,2.115,0,0,0,26.57,2.112v9.295a2.115,2.115,0,0,0,2.112,2.112h1.766a.528.528,0,0,0,0-1.056Z" transform="translate(-26.57)" fill="#396e75"/>
        <path id="Path_16607" data-name="Path 16607" d="M249.383,272.487a1.586,1.586,0,0,0-2.24,0l-2.9,2.893a.528.528,0,0,0-.132.22l-.631,2.079a.528.528,0,0,0,.646.662l2.132-.59a.528.528,0,0,0,.232-.135l2.893-2.888a1.586,1.586,0,0,0,0-2.241Zm-3.541,4.283-1.072.3.314-1.033,1.956-1.952.747.747Zm2.795-2.789-.1.1-.747-.747.1-.1a.528.528,0,0,1,.747.746Z" transform="translate(-237.73 -264.841)" fill="#396e75"/>
        <path id="Path_16608" data-name="Path 16608" d="M112.427,120h-5.44a.528.528,0,1,0,0,1.056h5.44a.528.528,0,0,0,0-1.056Z" transform="translate(-104.349 -116.831)" fill="#396e75"/>
      </g>
    </g>
  </g>
</svg>
