<svg xmlns="http://www.w3.org/2000/svg" width="24" height="24" viewBox="0 0 24 24">
  <g id="Group_12605" data-name="Group 12605" transform="translate(-24 -200)">
    <rect id="Rectangle_4358" data-name="Rectangle 4358" width="24" height="24" transform="translate(24 200)" fill="#e3a780" opacity="0"/>
    <g id="donation" transform="translate(24 200)">
      <path id="Path_89143" data-name="Path 89143" d="M113.171,341.176h1.791a2.966,2.966,0,0,1,2.879-2.259h4.922a2.213,2.213,0,0,1,2.023,1.322l.949-.949a3.715,3.715,0,0,1,5.254,0l.016.016.013.014a.7.7,0,0,1-.028.964l-5.1,5.1a3.253,3.253,0,0,1-2.315.959h-10.4a.7.7,0,0,1-.7-.7v-3.766a.7.7,0,0,1,.7-.7Zm.7,3.766h9.7a1.856,1.856,0,0,0,1.321-.547l4.531-4.531a2.312,2.312,0,0,0-2.692.42l-2.4,2.405a2.194,2.194,0,0,1-1.562.647h-2.572a.7.7,0,1,1,0-1.406h2.571a.8.8,0,1,0,0-1.606h-4.922a1.555,1.555,0,0,0-1.556,1.556.7.7,0,0,1-.7.7h-1.708Z" transform="translate(-112.468 -322.348)" fill="#2c2c2c"/>
      <path id="Path_89144" data-name="Path 89144" d="M12.754,11.2H7.364A3.715,3.715,0,1,1,3.013,6.846V2.209A2.212,2.212,0,0,1,5.222,0h5.33a3.7,3.7,0,0,1,2.9,1.394l1.9,2.371h1.218v-.8a.7.7,0,0,1,.7-.7h3.766a.7.7,0,0,1,.7.7V9.741a.7.7,0,0,1-.7.7H17.272a.7.7,0,0,1-.7-.7v-.8h-.936A2.965,2.965,0,0,1,12.754,11.2Zm5.221-2.159h2.359V3.666H17.975ZM1.406,10.494a2.31,2.31,0,0,0,4.549.564A2.213,2.213,0,0,1,4.608,8.363a2.311,2.311,0,0,0-3.2,2.131ZM16.569,5.172H15.013a.7.7,0,0,1-.549-.264L12.355,2.273a2.3,2.3,0,0,0-1.8-.867H5.222a.8.8,0,0,0-.8.8V6.846A3.756,3.756,0,0,1,5.431,7.2a2.187,2.187,0,0,1,.594-.307V3.716a.7.7,0,0,1,.7-.7H8.676a3.253,3.253,0,0,1,2.315.959A2.468,2.468,0,0,1,9.246,8.184H6.726a.8.8,0,0,0,0,1.606h6.026a1.555,1.555,0,0,0,1.556-1.556.7.7,0,0,1,.7-.7h1.556ZM7.431,4.419V6.778H9.246A1.061,1.061,0,0,0,10,4.966a1.856,1.856,0,0,0-1.321-.547H7.431Z" transform="translate(2.259 0)" fill="#2c2c2c"/>
    </g>
  </g>
</svg>
