<svg xmlns="http://www.w3.org/2000/svg" width="32" height="32" viewBox="0 0 32 32">
  <g id="Group_8484" data-name="Group 8484" transform="translate(-32 -726)">
    <g id="Group_8029" data-name="Group 8029" transform="translate(-12 264)">
      <rect id="Rectangle_4145" data-name="Rectangle 4145" width="32" height="32" transform="translate(44 462)" fill="none"/>
      <g id="coupon" transform="translate(48 450.03)">
        <path id="Path_87267" data-name="Path 87267" d="M184.79,97.865a.7.7,0,1,0,.485-.81A.7.7,0,0,0,184.79,97.865Z" transform="translate(-176.114 -76.303)" fill="#38539a"/>
        <path id="Path_87268" data-name="Path 87268" d="M23.824,31.384C20,20.247,20.261,21.01,20.245,20.972a3.592,3.592,0,0,0-2.121-1.966c-.136-.047-7.837-1.848-8.06-1.925a2.367,2.367,0,0,0-2.3.508l-6.6,6.073A3.63,3.63,0,0,0,0,26.327V37.081a2.3,2.3,0,0,0,2.286,2.3H16.405a2.3,2.3,0,0,0,2.286-2.3V36.041l3.935-1.684a2.284,2.284,0,0,0,1.2-2.973Zm-7.418,6.589H2.286a.887.887,0,0,1-.88-.892V26.327A2.22,2.22,0,0,1,2.12,24.7c5.654-5.2,2.159-1.958,6.622-6.073a.892.892,0,0,1,.873-.2c.285.085-.218-.324,6.957,6.278a2.22,2.22,0,0,1,.713,1.63V37.081a.887.887,0,0,1-.88.892Zm5.666-4.908-3.38,1.446V26.327a3.63,3.63,0,0,0-1.167-2.665l-4.915-4.522L17.7,20.346a2.183,2.183,0,0,1,1.248,1.161c3.819,11.116,3.561,10.37,3.578,10.408a.876.876,0,0,1-.45,1.15Z" fill="#38539a"/>
        <path id="Path_87269" data-name="Path 87269" d="M152.515,201.18a.7.7,0,0,0-.92.376l-3.423,8.158a.7.7,0,1,0,1.3.544l3.423-8.158A.7.7,0,0,0,152.515,201.18Z" transform="translate(-141.173 -175.522)" fill="#38539a"/>
        <path id="Path_87270" data-name="Path 87270" d="M81.559,195.478a2.228,2.228,0,1,0-2.216,2.461A2.351,2.351,0,0,0,81.559,195.478Zm-2.216,1.055a1.092,1.092,0,1,1,.809-1.055A.97.97,0,0,1,79.344,196.533Z" transform="translate(-73.513 -167.795)" fill="#38539a"/>
        <path id="Path_87271" data-name="Path 87271" d="M230.7,312.011a2.475,2.475,0,1,0,2.216,2.461A2.351,2.351,0,0,0,230.7,312.011Zm0,3.516a1.092,1.092,0,1,1,.809-1.055A.97.97,0,0,1,230.7,315.527Z" transform="translate(-217.774 -281.211)" fill="#38539a"/>
      </g>
    </g>
  </g>
</svg>
