<svg xmlns="http://www.w3.org/2000/svg" width="14" height="12" viewBox="0 0 14 12">
  <g id="Group_9451" data-name="Group 9451" transform="translate(-34 -542.951)">
    <g id="Group_9450" data-name="Group 9450" transform="translate(-6.443 -3)">
      <path id="SOP_ของฉันเดือนมิถุน" data-name="SOP ของฉันเดือนมิถุน" d="M.945-1.94h.94l.235-3.15V-6.74H.71v1.65ZM1.415.13A.792.792,0,0,0,2.28-.65a.792.792,0,0,0-.865-.78A.792.792,0,0,0,.55-.65.792.792,0,0,0,1.415.13Z" transform="translate(46.029 555.74)" fill="#62625a"/>
      <g id="Path_89145" data-name="Path 89145" transform="translate(39 543.92)" fill="none">
        <path d="M6.589,3.041a2.206,2.206,0,0,1,3.708,0l4.862,7.99a2.009,2.009,0,0,1-1.854,3H3.582a2.009,2.009,0,0,1-1.854-3Z" stroke="none"/>
        <path d="M 8.443404197692871 3.031128883361816 C 8.019454002380371 3.031128883361816 7.645753860473633 3.229318618774414 7.443763732910156 3.561288833618164 L 2.582174301147461 11.55088806152344 C 2.340313911437988 11.9483585357666 2.467204093933105 12.29768848419189 2.564364433288574 12.47054862976074 C 2.761664390563965 12.82156848907471 3.142024040222168 13.03112888336182 3.581813812255859 13.03112888336182 L 13.30499458312988 13.03112888336182 C 13.74478435516357 13.03112888336182 14.12514400482178 12.82156848907471 14.32244396209717 12.47054862976074 C 14.41960430145264 12.29768848419189 14.54649448394775 11.9483585357666 14.30463409423828 11.55088806152344 L 9.44305419921875 3.561288833618164 C 9.241044044494629 3.229318618774414 8.867343902587891 3.031128883361816 8.443404197692871 3.031128883361816 M 8.443404197692871 2.031128883361816 C 9.165436744689941 2.031128883361816 9.887469291687012 2.367908477783203 10.29732418060303 3.041468620300293 L 15.15891456604004 11.03106880187988 C 15.97233390808105 12.36784839630127 14.94449424743652 14.03112888336182 13.30499458312988 14.03112888336182 L 3.581813812255859 14.03112888336182 C 1.942314147949219 14.03112888336182 0.9144744873046875 12.36784839630127 1.727893829345703 11.03106880187988 L 6.589484214782715 3.041468620300293 C 6.99933910369873 2.367908477783203 7.721371650695801 2.031128883361816 8.443404197692871 2.031128883361816 Z" stroke="none" fill="#62625a"/>
      </g>
    </g>
  </g>
</svg>
