<svg id="Group_8381" data-name="Group 8381" xmlns="http://www.w3.org/2000/svg" width="32" height="32" viewBox="0 0 32 32">
  <g id="Group_6854" data-name="Group 6854">
    <g id="Group_5258" data-name="Group 5258">
      <rect id="Rectangle_3407" data-name="Rectangle 3407" width="32" height="32" rx="16" fill="none"/>
    </g>
    <path id="icon" d="M12.063,16a1.56,1.56,0,0,1-1.493-2.032H7.46a1.565,1.565,0,1,1-3.059.465,1.542,1.542,0,0,1,.074-.465H3.259a1.566,1.566,0,0,1,0-3.133H4.268L2.139,1.1H.55A.55.55,0,1,1,.55,0H2.581a.547.547,0,0,1,.538.432l.5,2.276H16.8a.584.584,0,0,1,.209.041.551.551,0,0,1,.3.3.542.542,0,0,1,0,.421L13.925,11.6a.544.544,0,0,1-.507.339H3.259a.465.465,0,1,0,0,.931H15.786a.551.551,0,1,1,0,1.1H13.556A1.56,1.56,0,0,1,12.063,16Zm0-2.032a.465.465,0,1,0,.466.465A.466.466,0,0,0,12.062,13.968Zm-6.095,0a.465.465,0,1,0,.466.465A.466.466,0,0,0,5.967,13.968ZM3.858,3.809l1.537,7.026H13.05l2.929-7.026ZM9.6,9.686a.491.491,0,0,1-.491-.491l0-1.587-1.587,0a.491.491,0,1,1,0-.982l1.587,0,0-1.587A.491.491,0,0,1,9.6,4.554a.5.5,0,0,1,.348.144.484.484,0,0,1,.143.347l0,1.587,1.587,0a.488.488,0,0,1,.491.491.484.484,0,0,1-.143.347.492.492,0,0,1-.345.143l-1.59,0,0,1.587a.487.487,0,0,1-.143.347A.5.5,0,0,1,9.6,9.686Z" transform="translate(7 8)" fill="#fff"/>
  </g>
</svg>
