<svg id="Group_11533" data-name="Group 11533" xmlns="http://www.w3.org/2000/svg" width="24" height="24" viewBox="0 0 24 24">
  <rect id="Icon_Header_User_background" data-name="Icon Header User background" width="24" height="24" fill="none"/>
  <g id="Group_6129" data-name="Group 6129" transform="translate(3 6.001)">
    <path id="Path_16657" data-name="Path 16657" d="M963.067,534.933l-1.182-.511-1.014-1.974a1.706,1.706,0,0,0-1.529-.938H957.65V531.1a1.735,1.735,0,0,0-1.727-1.745h-8.48a1.725,1.725,0,0,0-1.716,1.743v7.676a1.1,1.1,0,0,0,1.08,1.11h.129a2.154,2.154,0,0,0,2.145,2.147h.008a2.154,2.154,0,0,0,2.153-2.151h6.662a2.155,2.155,0,0,0,2.145,2.147h.008a2.156,2.156,0,0,0,2.154-2.146l.42-.006a1.1,1.1,0,0,0,1.1-1.1v-2.838A1.091,1.091,0,0,0,963.067,534.933ZM949.1,541.054h0a1.171,1.171,0,1,1,1.171-1.171A1.173,1.173,0,0,1,949.095,541.054Zm7.567-4.223v2.078h-5.646a2.154,2.154,0,0,0-3.847,0h-.349a.108.108,0,0,1-.079-.032.119.119,0,0,1-.033-.092v-2.934h0V531.1a.744.744,0,0,1,.734-.755h8.478a.75.75,0,0,1,.742.753v4.749m.986-3.355h1.692a.743.743,0,0,1,.661.4l.725,1.4H957.65Zm2.414,8.558a1.171,1.171,0,1,1,1.172-1.171A1.172,1.172,0,0,1,960.064,541.054Zm2.575-2.145h-.655a2.155,2.155,0,0,0-3.848,0h-.486v-3.63h3.781l1.24.546a.142.142,0,0,1,.075.132l.005,2.828v.006A.114.114,0,0,1,962.639,538.909Z" transform="translate(-945.728 -529.359)" fill="#9ea0a3"/>
  </g>
</svg>
