<svg xmlns="http://www.w3.org/2000/svg" width="24" height="23.995" viewBox="0 0 24 23.995">
  <g id="Group_9374" data-name="Group 9374" transform="translate(-148 -801)">
    <g id="Group_8637" data-name="Group 8637" transform="translate(148 801)">
      <path id="Path_87704" data-name="Path 87704" d="M969.628,543.406a4.338,4.338,0,0,0-5.172,1.117l-2.8-1.676a7.1,7.1,0,0,0,0-6.257l2.8-1.676a4.364,4.364,0,0,0,3.3,1.529h.014a4.36,4.36,0,1,0-4.024-2.689l-2.8,1.677a7.122,7.122,0,1,0,0,8.576l2.8,1.677a4.364,4.364,0,1,0,5.889-2.278Zm1.145,3.949a3,3,0,1,1-3-3,3,3,0,0,1,3,3Zm-9.751-7.646a5.769,5.769,0,0,1-5.746,5.769h-.021a5.766,5.766,0,1,1,0-11.532h.006a5.767,5.767,0,0,1,5.765,5.763Zm3.752-7.628a3,3,0,1,1,3,3h0a3.007,3.007,0,0,1-2.994-3Z" transform="translate(-948.145 -527.723)" fill="#9ea0a3"/>
      <path id="Path_87721" data-name="Path 87721" d="M957.824,541.175a1.443,1.443,0,0,0-.381-1.04.59.59,0,1,1-.047-.932,1.619,1.619,0,0,0-.226-2.208,2.441,2.441,0,0,0-1.27-.442v-.383a.7.7,0,1,0-1.4,0v.373h-.895a.706.706,0,0,0-.707.706v4.988a.706.706,0,0,0,.707.706h.9v.384a.7.7,0,1,0,1.4,0v-.39a2.321,2.321,0,0,0,1.353-.465A1.6,1.6,0,0,0,957.824,541.175Zm-3.4-3.54h.85a1.05,1.05,0,0,1,.687.2.756.756,0,0,1,0,1.12,1.056,1.056,0,0,1-.687.2h-.848Zm1.622,3.933a.972.972,0,0,1-.668.22l-.954,0v-1.592h.954a1,1,0,0,1,.657.214.692.692,0,0,1,.254.56A.761.761,0,0,1,956.045,541.568Z" transform="translate(-948.233 -527.867)" fill="#9ea0a3"/>
    </g>
  </g>
</svg>
