<svg xmlns="http://www.w3.org/2000/svg" width="24" height="24" viewBox="0 0 24 24">
  <g id="Group_12605" data-name="Group 12605" transform="translate(-24 -200)">
    <rect id="Rectangle_4358" data-name="Rectangle 4358" width="24" height="24" transform="translate(24 200)" fill="#e3a780" opacity="0"/>
    <g id="clipboard" transform="translate(-23.037 200)">
      <g id="Group_8004" data-name="Group 8004" transform="translate(47.037 0)">
        <g id="Group_8003" data-name="Group 8003" transform="translate(0 0)">
          <path id="Path_87275" data-name="Path 87275" d="M67.982,3.919H65.219V2.708c0-.392-.436-.57-.836-.57H62.237A3.253,3.253,0,0,0,59,0a3.309,3.309,0,0,0-3.236,2.136H53.655c-.4,0-.8.178-.8.57v1.21H50.092A3.062,3.062,0,0,0,47.037,6.8V21.294A2.9,2.9,0,0,0,50.091,24H67.982a2.9,2.9,0,0,0,3.055-2.706V6.8A3.062,3.062,0,0,0,67.982,3.919ZM54.31,3.563h2A.793.793,0,0,0,57,2.922a2.1,2.1,0,0,1,2-1.6,2.061,2.061,0,0,1,1.964,1.6.794.794,0,0,0,.727.641h2.073V6.411H54.31ZM69.582,21.295a1.467,1.467,0,0,1-1.6,1.282H50.091a1.467,1.467,0,0,1-1.6-1.282V6.8a1.622,1.622,0,0,1,1.6-1.46h2.764V7.158a.759.759,0,0,0,.8.676H64.382a.8.8,0,0,0,.836-.676V5.343h2.764a1.623,1.623,0,0,1,1.6,1.46V21.295Z" transform="translate(-47.037 0)" fill="#2c2c2c"/>
          <path id="Path_87276" data-name="Path 87276" d="M104.938,230.533a.738.738,0,0,0-1.018-.036l-2.327,2.172-.982-1a.713.713,0,1,0-1.018,1l1.491,1.5a.661.661,0,0,0,.509.214.735.735,0,0,0,.509-.214l2.836-2.634a.666.666,0,0,0,.042-.956C104.966,230.56,104.952,230.547,104.938,230.533Z" transform="translate(-95.737 -214.617)" fill="#2c2c2c"/>
          <path id="Path_87277" data-name="Path 87277" d="M207.639,256.034h-8.364a.712.712,0,1,0,0,1.424h8.364a.712.712,0,1,0,0-1.424Z" transform="translate(-188.002 -238.587)" fill="#2c2c2c"/>
          <path id="Path_87278" data-name="Path 87278" d="M104.938,146.941a.738.738,0,0,0-1.018-.036l-2.327,2.172-.982-1a.713.713,0,1,0-1.018,1l1.491,1.5a.661.661,0,0,0,.509.214.735.735,0,0,0,.509-.214l2.836-2.634a.666.666,0,0,0,.042-.956C104.966,146.968,104.952,146.954,104.938,146.941Z" transform="translate(-95.737 -136.722)" fill="#2c2c2c"/>
          <path id="Path_87279" data-name="Path 87279" d="M207.639,172.442h-8.364a.712.712,0,1,0,0,1.424h8.364a.712.712,0,1,0,0-1.424Z" transform="translate(-188.002 -160.691)" fill="#2c2c2c"/>
        </g>
      </g>
    </g>
  </g>
</svg>
