<svg xmlns="http://www.w3.org/2000/svg" width="24" height="24" viewBox="0 0 24 24">
  <g id="Group_7143" data-name="Group 7143" transform="translate(-1193.969 -8)">
    <g id="Group_6016" data-name="Group 6016" transform="translate(1193.969 8)">
      <rect id="Icon_Header_User_background" data-name="Icon Header User background" width="24" height="24" fill="none"/>
      <g id="shop" transform="translate(5 5)">
        <path id="Path_16668" data-name="Path 16668" d="M13.453,0H.547A.547.547,0,0,0,0,.547V13.453A.547.547,0,0,0,.547,14H13.453A.547.547,0,0,0,14,13.453V.547A.547.547,0,0,0,13.453,0ZM9.105,12.906H4.895V8.7H9.105Zm3.8,0H10.2V8.148A.547.547,0,0,0,9.652,7.6h-5.3a.547.547,0,0,0-.547.547v4.758H1.094v-7.2a2.155,2.155,0,0,0,2.68-.442A2.157,2.157,0,0,0,7,5.263a2.157,2.157,0,0,0,3.227,0,2.155,2.155,0,0,0,2.68.442Zm0-9.078a1.066,1.066,0,0,1-2.133,0,.547.547,0,0,0-1.094,0,1.066,1.066,0,0,1-2.133,0,.547.547,0,0,0-1.094,0,1.066,1.066,0,0,1-2.133,0,.547.547,0,0,0-1.094,0,1.066,1.066,0,0,1-2.133,0V1.094H12.906Z" fill="#38539a"/>
      </g>
    </g>
  </g>
</svg>
