<svg height="10" viewBox="0 0 31 10" width="31" xmlns="http://www.w3.org/2000/svg"><g fill="#0398cb" fill-rule="evenodd"><path d="m22.4908425.21978022h4.8595849c1.074481 0 1.9047619.24420024 2.4420024.70818071.5372405.46398046.8302808 1.14774115.8302808 2.02686202 0 .43956044-.0732601.83028084-.1953602 1.1965812-.1465201.36630037-.3418803.68376069-.6105006.92796093-.2686203.26862027-.6105006.46398046-1.001221.61050061s-.8547008.21978022-1.3675214.21978022h-3.1990232v3.54090354h-1.7338217v-9.23076923zm4.7863248 4.17582418c.3174603 0 .5616605-.04884005.7570207-.12210013.1953602-.07326007.3663004-.17094017.4884005-.31746031.1221001-.12210013.2197802-.2930403.2686203-.46398047.04884-.17094017.0732601-.36630036.0732601-.56166056 0-.19536019-.0244201-.36630037-.0976801-.51282051-.0488401-.14652015-.1465202-.2930403-.2686203-.39072039-.1221001-.12210013-.2686203-.1953602-.4395604-.26862027-.1709402-.07326008-.3663004-.0976801-.6105007-.0976801h-3.1990232v2.73504274z"/><path d="m14.6764347 6.83760684c-.1953602.24420024-.3907204.46398046-.6349207.61050061-.2442002.17094017-.5128205.29304029-.8058608.36630036-.2930403.07326008-.6105006.12210013-.9279609.12210013-.3663004 0-.7081807-.04884005-1.025641-.12210013-.2930403-.07326007-.5616606-.19536019-.8058608-.34188034-.2197802-.14652014-.4395605-.31746031-.58608061-.51282051-.17094017-.1953602-.26862027-.31746032-.36630037-.56166056-.09768009-.21978022-.19536019-.46398047-.24420024-.73260073-.04884005-.24420025-.07326007-.51282052-.07326007-.75702076 0-.56166056.07326007-1.02564103.21978022-1.44078144.14652014-.41514042.36630036-.75702076.63492067-1.02564103.2686202-.26862027.6105006-.48840049 1.001221-.61050061.3907204-.14652015.8302808-.19536019 1.3186813-.19536019.3663003 0 .7081807.04884004 1.025641.12210012.3174603.0976801.5860806.21978022.8058608.36630036.2197802.14652015.4151404.34188035.5860806.56166057.1465201.21978022.2686203.46398046.3418803.73260073h1.6605617c-.0732601-.41514042-.1953602-.78144078-.3663004-1.0989011-.1709401-.31746032-.3663003-.61050061-.6105006-.83028083-.2442002-.24420024-.5128205-.43956044-.8058608-.58608059-.2930403-.17094017-.5860806-.29304029-.9035409-.39072039-.3174603-.09768009-.6105006-.17094017-.9279609-.21978022s-.6105006-.07326007-.8791209-.07326007c-.5128205 0-.976801.04884005-1.4163614.17094017-.4395604.0976801-.8302808.26862027-1.17216118.46398047-.34188034.19536019-.65934066.43956043-.92796093.7081807s-.48840049.58608059-.68376068.92796093c-.17094017.34188034-.31746032.70818071-.41514042 1.0989011s-.14652014.80586081-.14652014 1.22100122c0 .56166056.07326007 1.07448108.19536019 1.53846154s.31746032.85470085.53724054 1.1965812c.21978022.34188034.48840049.63492063.8058608.87912087.31746032.24420025.63492064.43956044.97680102.58608059.3418803.14652015.7081807.26862027 1.0989011.34188034.3907204.07326008.7570207.0976801 1.1233211.0976801.6105006 0 1.1477411-.0976801 1.6605616-.26862027.5128206-.17094017.952381-.41514041 1.3431014-.73260073s.7081807-.65934066.976801-1.07448108c.1709401-.26862026.3174603-.63492063.4151404-.97680097h-1.7582418c-.04884.14652014-.1465201.31746032-.2442002.43956044z"/><path d="m2.36874237 8.00976801c.12210012-.14652015.26862027-.29304029.43956044-.41514042.17094017-.12210012.34188034-.24420024.56166056-.36630036.1953602-.12210012.41514042-.21978022.61050061-.34188034.21978022-.0976801.43956044-.21978022.65934066-.31746032.24420024-.12210012.51282051-.24420025.75702076-.36630037.24420024-.12210012.48840049-.24420024.73260073-.39072039.24420024-.14652014.43956044-.29304029.65934066-.46398046.19536019-.17094017.36630037-.36630037.53724054-.56166056.14652014-.21978022.26862026-.43956044.34188034-.70818071.07326007-.24420025.12210012-.53724054.12210012-.85470086 0-.41514041-.07326007-.8058608-.21978022-1.17216117s-.36630037-.65934066-.65934066-.92796093c-.29304029-.26862026-.68376068-.46398046-1.12332112-.61050061-.43956044-.14652014-.97680098-.21978022-1.61172161-.21978022-.65934066 0-1.22100123.07326008-1.68498169.24420025-.48840049.17094017-.87912088.41514041-1.1965812.70818071-.31746031.31746031-.53724053.68376068-.7081807 1.09890109-.12210013.34188035-.1953602.73260074-.21978022 1.14774115h1.68498168c.02442003-.19536019.07326007-.39072039.12210012-.58608058.0976801-.24420025.21978022-.46398047.41514042-.65934066.17094017-.1953602.41514041-.31746032.68376068-.43956044.26862027-.0976801.61050061-.14652015.97680098-.14652015.24420024 0 .46398046.02442002.68376068.07326007s.41514042.14652015.58608059.26862027.29304029.2930403.39072039.48840049c.0976801.1953602.14652015.43956044.14652015.70818071 0 .24420024-.07326008.46398046-.1953602.65934066-.12210012.19536019-.29304029.36630036-.51282051.53724054-.21978022.17094017-.43956044.31746031-.73260073.46398046-.26862027.14652015-.56166057.29304029-.83028083.41514041-.24420025.12210013-.51282052.24420025-.78144079.3907204-.26862026.14652014-.53724053.31746031-.8058608.48840048s-.51282052.39072039-.75702076.61050061-.43956044.46398047-.63492063.73260074c-.1953602.26862027-.34188035.56166056-.46398047.87912088-.12210012.31746031-.19536019.68376068-.19536019 1.07448107h15.09157505v-1.51404151h-12.86935283z"/><path d="m17.6068376 7.57020757c.1709402-.12210012.3418803-.24420024.5616606-.36630037.1953602-.12210012.4151404-.21978022.6105006-.34188034.2197802-.0976801.4395604-.21978022.6593406-.31746032.2442003-.12210012.5128206-.24420024.7570208-.36630036s.4884005-.24420025.7326007-.39072039c.2442003-.14652015.4395605-.2930403.6593407-.46398047.1953602-.17094017.3663004-.36630036.5372405-.56166056.1465202-.21978022.2686203-.43956044.3418804-.70818071.07326-.24420024.1221001-.53724053.1221001-.85470085 0-.41514042-.0732601-.80586081-.2197802-1.17216117-.1465202-.36630037-.3663004-.65934066-.6593407-.92796093s-.6837607-.46398047-1.1233211-.61050061c-.4639805-.14652015-.976801-.21978022-1.6117216-.21978022-.6593407 0-1.1721612.0976801-1.6605617.26862027s-.8791209.41514041-1.1965812.70818071c-.3174603.31746031-.5372405.68376068-.7081807 1.09890109-.1221001.34188035-.1953602.73260074-.2197802 1.12332113h1.6605616c.0244201-.1953602.0732601-.39072039.1221002-.56166056.0976801-.24420025.2197802-.46398047.4151404-.65934066.1709402-.1953602.4151404-.31746032.6837607-.43956044.2686202-.0976801.6105006-.14652015.9768009-.14652015.2442003 0 .4639805.02442002.6837607.07326007.2197803.04884005.4151404.14652015.5860806.26862027s.2930403.2930403.3907204.48840049c.0976801.1953602.1465202.43956044.1465202.70818071 0 .24420024-.0732601.46398046-.1953602.65934066-.1221002.19536019-.2930403.36630036-.5128206.53724054-.2197802.17094017-.4395604.31746031-.7326007.46398046-.2686203.14652015-.5616605.29304029-.8302808.41514041-.2442003.12210013-.5128205.24420025-.7814408.3907204-.2686203.14652014-.5372405.31746031-.8058608.48840048s-.5128205.39072039-.7570208.61050061c-.2442002.21978022-.4395604.46398047-.6349206.73260074s-.3418803.56166056-.4639805.87912088c-.1221001.31746031-.1953602.68376068-.1953602 1.07448107h7.5946276v-1.51404151h-5.3479853c.1221001-.0976801.2442002-.24420025.4151404-.36630037z"/></g></svg>