<?xml version="1.0" encoding="UTF-8"?>
<svg width="25px" height="19px" viewBox="0 0 25 19" version="1.1" xmlns="http://www.w3.org/2000/svg" xmlns:xlink="http://www.w3.org/1999/xlink">
    <!-- Generator: sketchtool 63.1 (101010) - https://sketch.com -->
    <title>2ADE2D8F-6150-44C4-AE09-83BA1187F6E7@1.00x</title>
    <desc>Created with sketchtool.</desc>
    <g id="Asset-Sheet" stroke="none" stroke-width="1" fill="none" fill-rule="evenodd">
        <g id="Payment---Asset-Sheet" transform="translate(-417.000000, -556.000000)">
            <g id="Icons-24x24" transform="translate(130.000000, 453.000000)">
                <g id="Icon/Payment/Amway-Card" transform="translate(288.000000, 101.000000)">
                    <g id="card" stroke-width="1" transform="translate(-1.000000, 5.000000)">
                        <path d="M18.74572,2.79064 L4.50892,2.79064 C3.38692,2.79064 2.47372,3.70264 2.47372,4.82464 L2.47372,13.36624 C2.47372,14.48824 3.38692,15.40024 4.50892,15.40024 L18.74572,15.40024 C19.86772,15.40024 20.77852,14.48824 20.77852,13.36624 L20.77852,4.82464 C20.77852,3.70264 19.86772,2.79064 18.74572,2.79064" fill="#38539A"></path>
                        <polygon id="Fill-25" fill="#FFFFFF" points="0.4396 1.57 4.102 1.57 4.102 0.7564 0.4396 0.7564"></polygon>
                        <line x1="4" y1="13" x2="6.4408" y2="13" id="Stroke-14" stroke="#FFFFFF" stroke-width="0.678"></line>
                        <line x1="8" y1="13" x2="10.4408" y2="13" id="Stroke-14" stroke="#FFFFFF" stroke-width="0.678"></line>
                        <line x1="12" y1="13" x2="14.4408" y2="13" id="Stroke-14" stroke="#FFFFFF" stroke-width="0.678"></line>
                        <line x1="16" y1="13" x2="18.4408" y2="13" id="Stroke-14" stroke="#FFFFFF" stroke-width="0.678"></line>
                    </g>
                    <path d="M5.46540114,10.9049788 L5.45334774,10.9039107 C5.32720661,11.4147308 5.20106548,11.9255509 5.07419962,12.4394988 L5.86487985,12.4394988 C5.73065226,11.9239107 5.59806484,11.4144257 5.46540114,10.9049788 M7.2427438,14.0335229 C7.22241322,14.0347817 7.20822378,14.03646 7.19407247,14.03646 C6.91730197,14.0366126 6.64060776,14.0357353 6.36383725,14.0374929 C6.3237864,14.0377187 6.30814749,14.0249406 6.29754355,13.9864536 C6.22880865,13.7356208 6.15625938,13.4858561 6.0873719,13.2350614 C6.07615766,13.1942477 6.06162492,13.1771593 6.01528036,13.1774263 C5.6553185,13.1797531 5.29535664,13.1796386 4.93539479,13.1775407 C4.88992753,13.1772737 4.87394533,13.1923023 4.86261666,13.2345274 C4.79483535,13.4874962 4.72339224,13.7394733 4.65480992,13.9922133 C4.64645645,14.022919 4.63596694,14.0374517 4.60110362,14.037261 C4.31895486,14.0359641 4.03676796,14.0365744 3.75458106,14.0363837 C3.74420598,14.0363837 3.7338309,14.0342095 3.71712397,14.0323786 C3.72376097,14.0088821 3.72902479,13.9885515 3.7353185,13.968488 C4.14276923,12.6708402 4.55075397,11.3733831 4.95618309,10.075125 C4.97475906,10.0156971 4.99966688,9.99921906 5.06039161,10.0000281 C5.33166942,10.0038344 5.60298538,10.0024231 5.87433948,10.0008974 C5.9127883,10.0006685 5.9308684,10.0113869 5.94334139,10.0496069 C6.3711227,11.3615967 6.80020089,12.6732051 7.22897394,13.9848898 C7.23343675,13.9983926 7.23675524,14.0122388 7.2427438,14.0335229" id="Fill-1" fill="#FFFFFF"></path>
                    <path d="M7.95852511,14.7357327 C7.91988557,14.8714098 7.91992371,14.8716768 7.79107438,14.8865528 C6.91460903,14.987748 6.03810553,15.0887143 5.16164018,15.1900239 C4.45758423,15.2714225 3.75360458,15.3532025 3.04954863,15.4346011 C3.03600763,15.436165 3.02212333,15.4347918 3,15.4347918 C3.06324221,15.3181103 3.12236491,15.2068834 3.18450095,15.0973348 C3.19087095,15.0861587 3.21490146,15.0812 3.23118881,15.0799412 C3.66404323,15.0474428 4.09689765,15.0156692 4.52979021,14.984048 C5.15565162,14.9382756 5.78155118,14.8922744 6.40745073,14.8472267 C6.88905277,14.8125541 7.37076923,14.7792547 7.85244755,14.7451542 C7.88647171,14.7427512 7.92041958,14.7391275 7.95852511,14.7357327" id="Fill-3" fill="#FFFFFF"></path>
                    <g id="sale" stroke-width="1" transform="translate(9.000000, 2.000000)">
                        <path d="M13.6829825,7.67932749 C13.6227485,7.55608187 13.6227485,7.41473684 13.6829825,7.29152047 L14.241345,6.14926901 C14.5522222,5.51327485 14.3059064,4.75523392 13.6805848,4.42345029 L12.5574854,3.82754386 C12.4363158,3.76327485 12.3532456,3.64888889 12.3295322,3.51383041 L12.109883,2.26152047 C11.9875731,1.56426901 11.3426023,1.09573099 10.6418129,1.19488304 L9.38295322,1.37295322 C9.24707602,1.3921345 9.1127193,1.34845029 9.01415205,1.25309942 L8.10038012,0.369122807 C7.59157895,-0.123099415 6.79450292,-0.123128655 6.28573099,0.369122807 L5.37192982,1.25318713 C5.27333333,1.34856725 5.13897661,1.39216374 5.00312865,1.37304094 L3.74426901,1.19497076 C3.04324561,1.09576023 2.39850877,1.56435673 2.27619883,2.26160819 L2.05654971,3.51385965 C2.03283626,3.64894737 1.94976608,3.76330409 1.82862573,3.82760234 L0.705526316,4.42350877 C0.0802046784,4.75526316 -0.166111111,5.51336257 0.144766082,6.14935673 L0.703099415,7.29157895 C0.763333333,7.41482456 0.763333333,7.55616959 0.703099415,7.67938596 L0.144736842,8.82160819 C-0.166140351,9.45760234 0.0801754386,10.2156433 0.705497076,10.5474269 L1.82859649,11.1433333 C1.94976608,11.2076023 2.03283626,11.3219883 2.05654971,11.4570468 L2.27619883,12.7093567 C2.38754386,13.3440936 2.93181287,13.7892398 3.55733918,13.7891813 C3.61894737,13.7891813 3.68146199,13.7848538 3.74429825,13.7759649 L5.00315789,13.5978947 C5.13891813,13.5786257 5.27336257,13.6223977 5.37195906,13.7177485 L6.28573099,14.6017251 C6.54017544,14.8478655 6.86654971,14.9708772 7.19304094,14.9708772 C7.51944444,14.9708772 7.84602339,14.847807 8.10035088,14.6017251 L9.01415205,13.7177485 C9.11274854,13.6223977 9.2471345,13.5788304 9.38295322,13.5978947 L10.6418129,13.7759649 C11.342924,13.8751462 11.9875731,13.4065789 12.109883,12.7093275 L12.3295614,11.457076 C12.3532749,11.3219883 12.436345,11.2076316 12.5574854,11.1433333 L13.6805848,10.5474269 C14.3059064,10.2156725 14.5522222,9.4575731 14.241345,8.82157895 L13.6829825,7.67932749 Z" id="Shape" fill="#C7CAF0"></path>
                        <path d="M8.91991228,8.20497076 C9.79277778,8.20497076 10.502924,8.91511696 10.502924,9.78798246 C10.502924,10.660848 9.79277778,11.3709942 8.91991228,11.3709942 C8.04704678,11.3709942 7.33690058,10.660848 7.33690058,9.78798246 C7.33690058,8.91511696 8.04704678,8.20497076 8.91991228,8.20497076 Z M10.3475731,4.33087719 C10.5161696,4.49947368 10.5161696,4.77283626 10.3475731,4.94143275 L4.64903509,10.6399415 C4.56473684,10.7242398 4.45423977,10.7664035 4.34377193,10.7664035 C4.23330409,10.7664035 4.12277778,10.724269 4.03850877,10.6399415 C3.86991228,10.471345 3.86991228,10.1979825 4.03850877,10.029386 L9.73701754,4.33087719 C9.9055848,4.1622807 10.1789766,4.1622807 10.3475731,4.33087719 Z M5.46611111,3.59988304 C6.33897661,3.59988304 7.04912281,4.31002924 7.04912281,5.18289474 C7.04912281,6.05576023 6.33897661,6.76590643 5.46611111,6.76590643 C4.59324561,6.76590643 3.88309942,6.05576023 3.88309942,5.18289474 C3.88309942,4.31002924 4.59324561,3.59988304 5.46611111,3.59988304 Z" id="Combined-Shape" fill="#FFFFFF"></path>
                        <path d="M8.91991228,9.06845029 C8.52315789,9.06845029 8.20035088,9.39122807 8.20035088,9.78798246 C8.20035088,10.1847368 8.52312865,10.5075146 8.91991228,10.5075146 C9.31666667,10.5075146 9.63944444,10.1847368 9.63944444,9.78798246 C9.63944444,9.39122807 9.31666667,9.06845029 8.91991228,9.06845029 Z" id="Path" fill="#C7CAF0"></path>
                        <path d="M5.46611111,4.46333333 C5.06935673,4.46333333 4.74657895,4.78611111 4.74657895,5.1828655 C4.74657895,5.57961988 5.06935673,5.9024269 5.46611111,5.9024269 C5.8628655,5.9024269 6.18567251,5.57964912 6.18567251,5.1828655 C6.18564327,4.78614035 5.8628655,4.46333333 5.46611111,4.46333333 Z" id="Path" fill="#C7CAF0"></path>
                    </g>
                </g>
            </g>
        </g>
    </g>
</svg>