<svg height="32" viewBox="0 0 32 32" width="32" xmlns="http://www.w3.org/2000/svg"><g fill="none" fill-rule="evenodd"><path d="m16 2c-7.71909091 0-14 6.27963636-14 14 0 7.7190909 6.28090909 14 14 14 7.7190909 0 14-6.2809091 14-14 0-7.72036364-6.2809091-14-14-14" fill="#d3e1eb"/><path d="m23.6072378 17.9824905c.4721752 0 .8786044.3024312 1.0136823.7530895.1362734.4410953-.0394475.9300057-.4267506 1.1882078l-4.5639612 3.0422424c-.1757209.1183426-.3777401.1781116-.5833455.1781116-.0717228 0-.1422502-.0071722-.2115823-.0203214-.2785235-.0561829-.5175995-.2163638-.6741943-.4530491-.3203619-.4865197-.1888701-1.1451741.2940635-1.4679268l1.6520152-1.100945h-11.71472481c-.58454086 0-1.05910676-.4757613-1.05910676-1.0603022s.4745659-1.0591068 1.05910676-1.0591068zm-11.2371703-8.95028906c.2330991-.15659479.512818-.21516841.7949277-.15659479.2785236.05498748.5175996.21516842.6741944.45185367.1565948.23668526.2127777.52118572.1565948.79851388-.0561828.2761328-.2163638.5140135-.4518537.6694129l-1.6520153 1.1021404h11.7159206c.5833455 0 1.0579114.4745659 1.0579114 1.0591068 0 .5845408-.4745659 1.0591067-1.0579114 1.0591067h-15.21479819c-.47097977 0-.87860439-.3024311-1.01487772-.751894-.02988451-.1039981-.04422907-.2056054-.04422907-.3072127 0-.3562233.17691626-.6849528.47217515-.8821905z" fill="#7d98ba"/></g></svg>