<svg height="32" viewBox="0 0 32 32" width="32" xmlns="http://www.w3.org/2000/svg"><g fill="none" fill-rule="evenodd"><path d="m0 0h32v32h-32z" fill="#042b7a"/><g transform="translate(2.666667 12.266667)"><path d="m1.55986992 0c.15371274 0 .37333333.02168022.37355013.19772358l-.00042005 3.11927642h.659l.00028185-3.11927642c0-.15403794.18507792-.1898916.31965364-.19644817l.05389651-.00127541h.08780488c.13181572 0 .37333335.02168022.37355015.19772358l-.00018703 3.11927642h.637l.00017338-3.11927642c0-.15403794.18507791-.1898916.32023458-.19644817l.05418276-.00127541h.06504065c.13181571 0 .37333333.02168022.37355013.19772358l-.0001815 3.11927642h.659l.00004329-3.11927642c0-.15403794.18507791-.1898916.32023458-.19644817l.05418275-.00127541h.06504065c.15371273 0 .39523034.02168022.37355012.19772358l-.00005139 3.11927642.92254471.0002465c.15403794 0 .1898916.18507792.19644817.31965364l.00127541.05389651v.08780488c0 .13181572-.02189702.37376695-.19772358.37376695l-.92254471-.00036848.00005139 3.11954471c0 .03912075 0 .14778949-.23144597.18668184l-.09809331.01104174h-.10991869c-.13181572 0-.37355013-.02189702-.37355013-.19772358l-.00004329-3.11954471h-.659l.0001815 3.11954471c0 .03912075 0 .14778949-.23144598.18668184l-.09809331.01104174h-.1099187c-.13181572 0-.37355013-.02189702-.37355013-.19772358l-.00017338-3.11954471h-.637l.00018703 3.11954471c0 .03912075 0 .14778949-.23144599.18668184l-.09809332.01104174h-.13181572c-.13181572 0-.37355015-.02189702-.37355015-.19772358l-.00028185-3.11954471h-.659l.00042005 3.11954471c0 .03912075 0 .14778949-.23144597.18668184l-.09809332.01104174h-.10991869c-.13181572 0-.37355013-.02189702-.37355013-.19772358l-.00041194-3.11954471-.92227642.00036848c-.03912075 0-.14778949 0-.18668184-.23159825l-.01104174-.09815786v-.13181572c0-.13181572.02168022-.37355015.19772358-.37355015l.92227642-.0002465.00041194-3.11927642c0-.15403794.16814701-.1898916.31388549-.19644817l.06053184-.00127541z" fill="#e1091d"/><path d="m17.7722497.54920324c1.9772357 0 2.8559349.96650405 2.8557181 3.16336038 0 2.1528455-.9224932 3.20737122-2.8336043 3.20737122h-.0880217c-1.8892141-.02189701-2.8117073-1.05452572-2.8117073-3.20737122 0-2.17474251.9005962-3.16336038 2.8776152-3.16336038zm-4.3861064.03679653.1242745.00706255c.3295393 0 .5272628.04357723.6161517.13181572.0466125.04617886.0704607.1105691.0650407.17582655v3.58070463c0 .98991871-.1105691 1.51609757-.681626 1.95533877-.417561.30764228-.9667209.43924119-1.84542.43924119h-.0433605c-.8786992 0-1.427859-.13159891-1.82330619-.43924119-.59230351-.4392412-.6809756-.96650407-.72411923-1.95533877v-3.58048782c-.00542005-.06547426.01842818-.1298645.06482385-.17582656.17647696-.11165312.38634146-.15826559.59338752-.13203252.20747967-.02666667.41799455.0199458.59447155.13203252.0468293.04596206.0706775.1103523.0652574.17582656v3.75566398c0 .61506775 0 .74666667.2855285.96628726.2777236.18710028.6111653.27295394.9448238.24281843.3323577.0195122.6623306-.06504065.9446071-.24151761.2855284-.24173442.2855284-.37376694.2855284-.9888347v-3.73463417c-.00542-.06525745.0184282-.12964769.0650407-.17582655.1762601-.11143632.3861246-.15804879.5931707-.13181572zm10.7131094.05118179c.7687805 0 1.1642276.08780488 1.4937669.3295393.4392412.30872629.5053658.90189702.5272628 1.25333334 0 .68097561-.1760433 1.03241192-.7033062 1.27414634l-.1097019.04336044.1097019.04336043c.1784282.05810298.3484011.13940379.5055827.24173442.3781029.3204336.5816802.80130081.5491598 1.29604336 0 .439458-.0882384 1.03241193-.5714904 1.40596207-.4390244.3297561-.9441735.35143632-1.6691599.35143632h-2.6803251c-.1211924-.00021681-.219187-.09842819-.2194038-.2196206v-5.79967482c.0002168-.12119241.0982114-.2194038.2194038-.2196206zm-6.3051059.83473171h-.0435772c-1.1653117 0-1.5824391.59273712-1.5824391 2.21875334 0 1.64747964.4401084 2.2844444 1.6041193 2.2844444l.1392302-.00334347c1.0396647-.05147398 1.444329-.7020585 1.4651059-2.28110093 0-1.62558262-.4403252-2.21875334-1.5824391-2.21875334zm6.3267863 2.61437387h-1.493767v1.86731707h1.4061789c.8127913 0 1.0978862-.13181571 1.0764227-.92271002 0-.59317073-.1537127-.94460705-.9888346-.94460705zm-.0659079-2.5923034h-1.4278591v1.69149055h1.3181572c.6369648 0 .900813-.24151762.900813-.83468836 0-.48325205-.0440108-.85680219-.7911111-.85680219z" fill="#fff"/></g></g></svg>