<svg height="32" viewBox="0 0 32 32" width="32" xmlns="http://www.w3.org/2000/svg"><g fill="none" fill-rule="evenodd" transform="translate(2.666667 1.333333)"><path d="m7.56400013 14.6668089c0-3.0479999 2.48000007-5.52799985 5.52800007-5.52799985 3.0464 0 5.5264001 2.47999995 5.5264001 5.52799985 0 3.048-2.4800001 5.5279999-5.5264001 5.5279999-3.048 0-5.52800007-2.4799999-5.52800007-5.5279999m5.52799977-7.27199981c-4.01119992 0-7.27359983 3.26239991-7.27359983 7.27199981 0 4.0111999 3.26239991 7.2735998 7.27359983 7.2735998 4.0095999 0 7.2719998-3.2623999 7.2719998-7.2735998 0-4.0095999-3.2623999-7.27199981-7.2719998-7.27199981" fill="#7d98ba"/><path d="m13.0913601 19.6120888c-2.7263999 0-4.94559988-2.2175999-4.94559988-4.9455999 0-2.7263999 2.21919998-4.94559985 4.94559988-4.94559985 2.7279999 0 4.9455999 2.21919995 4.9455999 4.94559985 0 2.728-2.2176 4.9455999-4.9455999 4.9455999m0-10.47199976c-3.0479999 0-5.52799989 2.47840006-5.52799989 5.52640006s2.47999999 5.5280001 5.52799989 5.5280001 5.5279999-2.4800001 5.5279999-5.5280001-2.48-5.52640006-5.5279999-5.52640006" fill="#f1f9fd"/><path d="m10.6666667 15.8885333v.6119998c0 .6746666.548 1.2213333 1.2226667 1.2213333h.6106666v1.2226666h1.2226667v-1.2226666h.6106667c.6746667 0 1.2226667-.5466667 1.2226667-1.2213333v-1.2226666c0-.6746667-.548-1.2226667-1.2226667-1.2226667h-2.444v-1.2213333h2.444v.6106667h1.2226667v-.6106667c0-.6759999-.548-1.2226666-1.2226667-1.2226666h-.6106667v-1.2226666h-1.2226667v1.2226666h-.6106666c-.6746667 0-1.2226667.5466667-1.2226667 1.2226666v1.2213333c0 .676.548 1.2226667 1.2226667 1.2226667h2.444v1.2226666h-2.444v-.6119998z" fill="#7d98ba"/><path d="m25.3100812 11.5888354h-1.7456001c-.4816 0-.8736001.392-.8736001.872v4.3631998c0 3.8511999-3.1312001 6.9823998-6.9808003 6.9823998h-8.43680044v-1.7455999c0-.1168-.07040001-.2224-.17920001-.2688-.11040001-.0448-.23360001-.0192-.31680002.064l-3.49120017 3.4895999c-.11360001.1136-.11360001.2992 0 .4128l3.49120017 3.4911999c.05600001.0544.12960001.0832.20480001.0832.03680001 0 .07520001-.0064.11200001-.0208.1088-.0464.17920001-.152.17920001-.2688v-1.7456h8.43680044c5.7744003 0 10.4720005-4.6991998 10.4720005-10.4735997v-4.3631998c0-.48-.392-.872-.872-.872" fill="#7d98ba"/><path d="m22.8976008 3.57582225-3.4912001-3.49120003c-.0832-.0832-.208-.1072-.3168-.0624s-.1792.152-.1792.26880001v1.74560001h-8.4368003c-5.77440024 0-10.4736004 4.69760004-10.4736004 10.47200006v4.3648001c0 .48.39200001.872.87360003.872h1.74560006c.48000002 0 .87200003-.392.87200003-.872v-4.3648001c0-3.84960001 3.13280011-6.98240003 6.98240028-6.98240003h8.4368003v1.74720001c0 .1168.0704.2224.1792.2688.1088.0448.2336.0192.3168-.064l3.4912001-3.49120003c.1136-.112.1136-.2976 0-.4112" fill="#d3e1eb"/></g></svg>