<svg height="115" viewBox="0 0 169 115" width="169" xmlns="http://www.w3.org/2000/svg"><g fill="#231f20" fill-rule="evenodd" transform="translate(8 49)"><path d="m98.8093532 2.3724766c.7584894.02929787 1.5007018.06076595 2.2570208.06076595.75849 0 1.498532-.03146808 2.254852-.06076595v.64889361c-1.067745 0-1.127426.24523405-1.127426.95706383v5.65231915c0 1.76329791 1.004809 2.67478721 2.905915 2.67478721 2.021553 0 2.810425-1.0677447 2.810425-2.9970638v-5.33004256c0-.71182978-.064021-.95706383-1.127425-.95706383v-.64889361c.540383.02929787 1.082936.06076595 1.623319.06076595.538213 0 1.080766-.03146808 1.621149-.06076595v.64889361c-1.06666 0-1.127426.24523405-1.127426.95706383v5.20634043c0 2.85925533-1.498531 4.23408513-4.279659 4.23408513-2.366617 0-4.6811491-.7270213-4.6811491-3.49295747v-5.94746809c0-.71182978-.061851-.95706383-1.1295957-.95706383z"/><path d="m114.18314 3.9789766c0-.71182979-.061851-.95814894-1.127425-.95814894v-.64780851c1.341191.02929787 2.701915.05968085 4.047447.05968085 1.344447 0 2.703-.03038298 4.017064-.05968085l.122617 2.5326383h-.646724c-.387383-1.60704256-.649979-1.66889362-1.514808-1.66889362h-2.64332v3.83259574h1.267405c1.53 0 1.776319-.04665957 1.807787-1.23702127h.648894c-.017362.58704255-.061851 1.1903617-.061851 1.77740425 0 .60114894.044489 1.18710639.061851 1.79042554h-.648894c-.108511-1.49744681-.233298-1.52782979-1.745936-1.52782979h-1.329256v4.5097021h2.176724c1.792596 0 1.947766-.0455744 2.55-1.9152127h.709659l-.508914 2.7811276c-1.390022-.030383-2.763766-.0629362-4.153788-.0629362-1.392191 0-2.768106.0325532-4.155957.0629362v-.6488936c1.065574 0 1.127425-.2474043 1.127425-.9570638z"/><path d="m125.939074 3.9789766c0-.71182979-.061851-.95814894-1.127425-.95814894v-.64780851c1.343362.02929787 2.704085.05968085 4.047447.05968085 1.344447 0 2.703-.03038298 4.014893-.05968085l.124788 2.5326383h-.648894c-.385213-1.60704256-.647809-1.66889362-1.514809-1.66889362h-2.641148v3.83259574h1.267404c1.52783 0 1.778489-.04665957 1.805617-1.23702127h.651064c-.015192.58704255-.061851 1.1903617-.061851 1.77740425 0 .60114894.046659 1.18710639.061851 1.79042554h-.651064c-.106341-1.49744681-.231128-1.52782979-1.743766-1.52782979h-1.329255v4.5097021h2.178893c1.792596 0 1.947766-.0455744 2.55-1.9152127h.70966l-.508915 2.7811276c-1.390021-.030383-2.763766-.0629362-4.155958-.0629362-1.392191 0-2.765936.0325532-4.155957.0629362v-.6488936c1.065574 0 1.127425-.2474043 1.127425-.9570638z"/><path d="m138.716636 4.6889617h-.031468v6.9522766c0 .7107447.060766.9581489 1.220745.9581489v.6488937c-.542553-.0314681-1.082936-.0629362-1.623319-.0629362s-1.080766.0314681-1.622234.0629362v-.6488937c1.066659 0 1.12851-.2474042 1.12851-.9581489v-7.66193617c0-.7129149-.061851-.95814894-1.12851-.95814894v-.64889362c.526276.03038298 1.066659.06076596 1.591851.06076596.524106 0 1.066659-.03038298 1.58968-.06076596l5.978937 8.04823403h.033638v-6.44119147c0-.7129149-.062936-.95814894-1.129596-.95814894v-.64889362c.524107.03038298 1.06666.06076596 1.57666.06076596.508915 0 1.049298-.03038298 1.574489-.06076596v.64889362c-1.065574 0-1.127425.24523404-1.127425.95814894v9.20604257h-1.697107z"/><path d="m7.99419574 7.97292766-1.90978723-4.95134043-2.02155319 4.95134043zm-7.99397872 4.59976594c.87242553-.0173617 1.07642553-.1117659 1.52131915-1.1686596l4.71153192-11.31331911h1.4453617l4.74842551 11.53468081c.3526596.8539788.5013192.9472979 1.3737447.9472979v.7801915c-.9093191-.0379787-1.8370851-.0770425-2.7464043-.0770425-.9093191 0-1.83599996.0390638-2.744234.0770425v-.7801915c1.02 0 1.2229149-.1302127 1.2229149-.4459787 0-.1844681-.07378724-.4253617-.16602128-.6673404l-.98310638-2.52178727h-4.692l-.94512766 2.33514897c-.11176596.2799574-.1866383.5382127-.1866383.7064042 0 .4817873.27778723.5935532 1.48442553.5935532v.7801915c-.66842553-.0379787-1.35421277-.0770425-2.02155319-.0770425-.66734043 0-1.35421277.0390638-2.0226383.0770425z"/><path d="m17.4486191 4.06904043c0-.70965958-.0629361-.95814894-1.1285106-.95814894v-.64780851c.6174255.03038298 1.2207447.06076596 1.8392553.06076596.6163405 0 1.2196596-.03038298 1.8381702-.06076596l2.8733617 7.49157447 2.7344681-7.49157447c.6337022.03038298 1.2511277.06076596 1.8848298.06076596.632617 0 1.2500426-.03038298 1.8848298-.06076596v.64780851c-1.0655745 0-1.1285106.24848936-1.1285106.95814894v7.66302127c0 .7107447.0629361.9570638 1.1285106.9570638v.6488936c-.7574043-.0292978-1.499617-.0629361-2.2559362-.0629361-.7574042 0-1.4985319.0336383-2.254851.0629361v-.6488936c1.0644893 0 1.1274255-.2463191 1.1274255-.9570638v-7.80082979h-.0314681l-3.4289362 9.34385109h-.7118297l-3.4452128-9.00421279h-.030383v7.46119149c0 .7107447.0618511.9570638 1.1285107.9570638v.6488936c-.5262766-.0292978-1.0514681-.0629361-1.5766596-.0629361s-1.0514681.0336383-1.5755745.0629361v-.6488936c1.0655745 0 1.1285106-.2463191 1.1285106-.9570638z"/><path d="m40.3831021 4.57242128-2.9601702 8.70363832h-1.2055532l-2.917851-9.23751066c-.2181064-.6955532-.3092554-.8496383-1.0818511-.92776596v-.64780851c.7259362.03038298 1.4355957.06076596 2.1615319.06076596s1.437766-.03038298 2.1637021-.06076596v.64780851c-.8344468 0-.9885319.09331915-.9885319.46442553 0 .10851064.0455745.32444681.0770426.44706383l1.9152127 6.19595746h.030383l2.3731277-6.91429789-.009766-.03906382-.2723617-.80080852 2.3015107.00325532 2.6411489 7.88872341h.0292979l1.9152127-6.33376596c.0466596-.153.0629362-.30817021.0629362-.44706383 0-.35591489-.1388936-.43187234-1.050383-.46442553v-.64780851c.479617.03038298.9570639.06076596 1.4366809.06076596s.9581489-.03038298 1.4377659-.06076596v.64780851c-.5273617.0173617-.6966383.18555319-.8203404.55665957l-3.0730213 9.60861705h-1.2055532l-2.9504042-8.68085109z"/><path d="m55.7844511 8.85880851-1.5918511-4.12557447-1.6840851 4.12557447zm-6.6582128 3.83042549c.7248511-.0141063.8941277-.0911489 1.265234-.9722553l3.9237447-9.42414891h1.2066383l3.9541277 9.60970211c.2940638.7096596.4177659.7867021 1.1437021.7867021v.6488937c-.7563191-.0292979-1.5289149-.0629362-2.2863191-.0629362-.7574043 0-1.53.0336383-2.2863192.0629362v-.6488937c.8485532 0 1.02-.1074255 1.02-.3711063 0-.153-.0629362-.3559149-.1399787-.5544894l-.8181702-2.10185107h-3.9096383l-.7867022 1.94668087c-.0933191.2322128-.1551702.4481489-.1551702.5870425 0 .4025745.2322128.4937234 1.2359362.4937234v.6488937c-.5566596-.0292979-1.1274255-.0629362-1.6840851-.0629362-.5555745 0-1.1274255.0336383-1.683.0629362z"/><path d="m65.4772723 8.98175106-3.4604042-5.39189361c-.2311277-.3559149-.4492341-.47853192-1.0829362-.47853192v-.64889362c.8203404.03146809 1.6385107.06185107 2.457766.06185107.8181702 0 1.6374255-.03038298 2.4555957-.06185107v.64889362c-.7715106 0-1.1111489.09331915-1.1111489.3396383 0 .09331915.0455744.1703617.0911489.24740426l2.488149 4.14076595 2.1485106-3.73927659c.0911489-.16819149.2159362-.40148936.2159362-.61742554 0-.23221276-.3407234-.37110638-.9114894-.37110638h-.2332979v-.64889362c.5273617.03146809 1.0666596.06185107 1.5918511.06185107.5262766 0 1.0666596-.03038298 1.5918511-.06185107v.64889362c-.3548298 0-.6499788.07704256-.8496383.40148936l-3.1370426 5.26819149v2.95040422c0 .7107447.0629362.958149 1.2825957.958149v.6488936c-.8029787-.030383-1.6070425-.0629362-2.4100212-.0629362-.8029788 0-1.6059575.0325532-2.4100213.0629362v-.6488936c1.2196596 0 1.2825957-.2474043 1.2825957-.958149z"/><path d="m151.191128 3.47461915.502404-1.30429787h.516511v1.84034042h-.340724v-1.44753191h-.008681l-.549064 1.44753191h-.249574l-.549064-1.44753191h-.00651v1.44753191h-.340724v-1.84034042h.523021zm-1.187107-1.02759575h-.556659v1.5636383h-.366766v-1.5636383h-.562085v-.27670212h1.48551z"/><path d="m94.3862426 15.2147106.112851.7704256c-.6977234.0683617-1.1089787.0705319-1.6341702.0379787-.8507234-.051-2.0768936-.3331277-4.7473404-1.9108723l-1.4095532-.8333617c-2.9862128-.6488937-4.8601915-2.9113405-4.8601915-6.54644686 0-4.35887234 2.672617-6.732 6.752617-6.732s6.7504468 2.37312766 6.7504468 6.732c0 3.46908506-1.6895106 5.68053196-4.4402553 6.42817026 0 0 1.5169787 1.9640425 3.4755958 2.0541063m-5.7857873-2.7160212c2.7257873 0 3.8933617-2.0942554 3.8933617-5.76625536 0-3.672-1.1675744-5.76842553-3.8933617-5.76842553-2.7279574 0-3.8955319 2.09642553-3.8955319 5.76842553 0 3.67199996 1.1675745 5.76625536 3.8955319 5.76625536"/></g></svg>