<svg height="115" viewBox="0 0 169 115" width="169" xmlns="http://www.w3.org/2000/svg" xmlns:xlink="http://www.w3.org/1999/xlink"><mask id="a" fill="#fff"><path d="m0 .02748814h16.2247424v17.70173696h-16.2247424z" fill="#fff" fill-rule="evenodd"/></mask><mask id="b" fill="#fff"><path d="m.49224509.02748814h15.35860681v18.12495046h-15.35860681z" fill="#fff" fill-rule="evenodd"/></mask><mask id="c" fill="#fff"><path d="m.19698102.02748814h13.03196948v17.70163326h-13.03196948z" fill="#fff" fill-rule="evenodd"/></mask><mask id="d" fill="#fff"><path d="m.09989085.02748814h7.13187457v17.70168506h-7.13187457z" fill="#fff" fill-rule="evenodd"/></mask><mask id="e" fill="#fff"><path d="m.2493122.02748814h11.3028102v17.70168506h-11.3028102z" fill="#fff" fill-rule="evenodd"/></mask><mask id="f" fill="#fff"><path d="m.33369559.02748814h14.57078641v17.70152946h-14.57078641z" fill="#fff" fill-rule="evenodd"/></mask><mask id="g" fill="#fff"><path d="m.47964203.02748814h16.22474237v17.70173696h-16.22474237z" fill="#fff" fill-rule="evenodd"/></mask><mask id="h" fill="#fff"><path d="m.01364034.02748814h13.03093216v17.70163326h-13.03093216z" fill="#fff" fill-rule="evenodd"/></mask><g fill="#385e2d" fill-rule="evenodd" transform="translate(8 48)"><path d="m6.61271186 9.25354373c-.15351864-.58503051-.31066779-1.27482712-.47144745-2.06835254-.15974238-.79300678-.31637288-1.72656611-.46989153-2.80067797-.06483051.91540678-.15403729 1.96773559-.26969491 3.15802373-.11513899 1.18976949-.2624339 2.52268475-.44240339 3.99926445l-1.13427458 6.1874237h-3.825l3.26797627-17.70184069h3.90175932l2.15392882 7.54212203c.20434576.6955017.40298644 1.53518644.59592203 2.51749826.19189826.9823119.39002036 2.1331831.59488476 3.4510577.0637932-.8049356.1638915-1.8515593.298739-3.1403899.1343288-1.28675589.3101491-2.82816606.5279796-4.62267453l1.0575153-5.74761356h3.8260373l-3.2679763 17.70184069h-3.94117627z" mask="url(#a)" transform="translate(0 .491312)"/><path d="m12.7369129 14.9373641c-.3843153.7390678-.8816949 1.3458813-1.4895458 1.8214779-.6088881.4771526-1.34276947.8262-2.20164405 1.0538848-.85835593.2256101-1.85830169.3397118-2.99828136.3397118-3.70415593 0-5.5551966-1.3557355-5.5551966-4.0656508 0-.2551729.01607796-.534722.04823389-.8324237.03163729-.2997763.07987119-.619261.14366441-.9605288l2.24935932-12.26645089h3.825l-2.28722034 12.30223729c-.07675932.3915763-.11513898.7385491-.11513898 1.0419559 0 1.4060441.7297322 2.1067322 2.19127119 2.1067322 1.74264406 0 2.80690169-1.0497356 3.19121695-3.1486881l2.28722037-12.30223729h3.825l-2.2493594 12.26645089c-.1918983 1.024322-.4802644 1.9049796-.8645796 2.6435288" mask="url(#b)" transform="translate(16.59661 .491312)"/><path d="m5.57895051 17.7291214h-3.80684746l2.78719322-15.10187801h-4.36231525l.46107457-2.59996271h12.57089491l-.4802644 2.59996271h-4.36438983z" mask="url(#c)" transform="translate(33.711864 .491312)"/><path d="m56.9751254 5.58963458c.0508271-.18308136.0767593-.38431526.0767593-.60422034 0-1.24474577-.9548237-1.86711865-2.8639525-1.86711865h-2.0185627l-.9418576 5.0889356h1.9993728c2.1523729 0 3.4023051-.87235933 3.7482407-2.61759661zm-3.6522915 5.19940682h-2.5761051l-1.3650712 7.4316508h-3.825l3.2684949-17.70184067h6.8046102c.8459085 0 1.5886068.08557627 2.2296509.25621017.641044.17063389 1.1851017.41439661 1.6332101.73180677 1.025878.65867797 1.5382983 1.62957967 1.5382983 2.9116678 0 .32933898-.0383796.68305424-.1151389 1.06114576-.4356611 2.2820339-1.7364204 3.85715594-3.9017594 4.72381017l1.614539 8.0172h-3.825z"/><path d="m3.36786712.02733254h3.8638983l-3.26797627 17.70184066h-3.8638983z" mask="url(#d)" transform="translate(61.2 .491312)"/><path d="m79.5032085 5.58963458c.0259322-.13381017.045122-.26554577.0575695-.39313221.0129661-.12914237.0191898-.24791186.0191898-.3578644 0-1.14724068-.8262-1.72034238-2.4791186-1.72034238h-2.0185628l-.9413389 5.0889356h1.9983356c1.8717864 0 2.9925762-.87235933 3.3639254-2.61759661m3.9214678-.10995255c-.6540102 3.53922712-2.9095932 5.30935937-6.7662305 5.30935937h-2.9988l-1.3650712 7.4316508h-3.825l3.2674576-17.70184067h6.8056475c3.3317695 0 4.9971356 1.25096949 4.9971356 3.75238983 0 .39053898-.0383797.79404406-.115139 1.20844067"/><path d="m3.51676983.02733254h3.825l-2.80690169 15.12158646h7.01725426l-.4813017 2.5802542h-10.8215085z" mask="url(#e)" transform="translate(82.983051 .491312)"/><path d="m10.4068007 3.99999051c0-.2448.0088169-.52538644.029044-.84279661.0186712-.31637288.0534204-.68253559.1058034-1.09848814l-.59644064 1.94128475-2.59477627 6.64538639h3.13312881zm.2116068 9.22667799h-4.34520004l-1.80591865 4.5023491h-4.13359322l7.95859322-17.70184065h5.19007119l1.422122 17.70184065h-4.1320373z" mask="url(#f)" transform="translate(94.39322 .491312)"/><path d="m7.0923539 9.25354373c-.15196271-.58503051-.31014915-1.27482712-.4719661-2.06835254-.15922373-.79300678-.31637288-1.72656611-.46885424-2.80067797-.0658678.91540678-.15403729 1.96773559-.26969492 3.15802373-.11669491 1.18976949-.26450847 2.52268475-.44344067 3.99926445l-1.13375594 6.1874237h-3.825l3.26901356-17.70184069h3.90175933l2.15289152 7.54212203c.20330846.6955017.40298646 1.53518644.59436606 2.51749826.192417.9823119.392095 2.1331831.5954034 3.4510577.0643119-.8049356.1644102-1.8515593.3002949-3.1403899.1353661-1.28675589.3106678-2.82816606.5264238-4.62267453l1.0585525-5.74761356h3.8260373l-3.266939 17.70184069h-3.94117625z" mask="url(#g)" transform="translate(110.471186 .491312)"/><path d="m5.39560983 17.7291214h-3.80892203l2.78771186-15.10187801h-4.36075932l.459-2.59996271h12.57193216l-.4792271 2.59996271h-4.36490845z" mask="url(#h)" transform="translate(128.623729 .491312)"/><path d="m146.253063 5.48175661h-.988536v-4.11855254h-1.137905v-.70898644h3.264865v.70898644h-1.138424z"/><path d="m151.489138 2.27186847c0-.27954915.020227-.67216271.059644-1.17835932l-1.061664 4.38824746h-.623929l-1.063739-4.38824746c.021264.25257966.039935.4766339.04979.67216271.010373.19345424.01504.3635695.01504.50619661v3.20988814h-.993722v-4.82753898h1.593794l.622891 2.72080678c.016078.07675932.034231.1706339.051346.28162373.020746.11202711.036824.24272542.052902.39261355l.071054-.67423728.623929-2.72080678h1.597423v4.82753898h-.994759z"/></g></svg>