<svg height="115" viewBox="0 0 169 115" width="169" xmlns="http://www.w3.org/2000/svg" xmlns:xlink="http://www.w3.org/1999/xlink"><mask id="a" fill="#fff"><path d="m0 31h152.498v-30.079h-152.498z" fill="#fff" fill-rule="evenodd"/></mask><g fill="none" fill-rule="evenodd" transform="translate(8 42)"><path d="m151.083 8.7145-1.367 3.563-1.379-3.563h-1.428v5.027h.928v-3.952h.023l1.502 3.952h.683l1.502-3.952h.023v3.952h.928v-5.027zm-8.666 0v.756h1.525v4.271h1.001v-4.271h1.526v-.756z" fill="#8aaad9"/><g transform="translate(0 .0786)"><g fill="#8aaad9"><path d="m41.8535 17.0251c.032 2.876 1.532 6.346 5.313 6.346 2.877 0 4.44-1.688 5.066-4.125h1.97c-.845 3.656-2.97 5.781-7.036 5.781-5.126 0-7.283-3.937-7.283-8.533 0-4.251 2.157-8.534 7.283-8.534 5.191 0 7.254 4.532 7.098 9.065zm10.441-1.656c-.092-2.97-1.937-5.753-5.128-5.753-3.218 0-5 2.814-5.313 5.753z"/><path d="m58.2949 17.2126c-.094 4.596 3.221 6.002 7.283 6.002 2.345 0 5.909-1.281 5.909-4.532 0-2.532-2.532-3.533-4.594-4.033l-4.972-1.219c-2.626-.657-5.033-1.906-5.033-5.377 0-2.19 1.407-6.285 7.69-6.285 4.409 0 8.286 2.377 8.254 6.942h-2.126c-.125-3.409-2.939-5.128-6.096-5.128-2.908 0-5.596 1.126-5.596 4.439 0 2.095 1.562 2.97 3.376 3.407l5.44 1.345c3.157.844 5.783 2.22 5.783 5.876 0 1.533-.626 6.379-8.535 6.379-5.283 0-9.16-2.377-8.909-7.816z"/><path d="m76.6152 8.4284h1.813v3.063h.063c.907-2.188 3.158-3.532 5.752-3.532 4.907 0 7.253 3.969 7.253 8.534s-2.346 8.535-7.253 8.535c-2.407 0-4.751-1.219-5.596-3.532h-.062v9.035h-1.97zm7.628 1.188c-4.345 0-5.658 3.219-5.658 6.877 0 3.345 1.469 6.877 5.658 6.877 3.751 0 5.283-3.532 5.283-6.877 0-3.346-1.532-6.877-5.283-6.877z"/><path d="m94.5635 8.4284h1.813v3.782h.063c1-2.594 3.188-4.126 6.096-4.001v1.97c-3.564-.188-6.002 2.437-6.002 5.784v8.596h-1.97z"/><path d="m104.443 24.56h1.97v-16.131h-1.97zm0-19.166h1.97v-3.156h-1.97z" mask="url(#a)"/><path d="m110.1592 8.4284h1.97v2.782h.062c.719-1.938 2.875-3.251 5.158-3.251 4.534 0 5.908 2.376 5.908 6.22v10.38h-1.968v-10.066c0-2.783-.907-4.877-4.096-4.877-3.127 0-5.002 2.375-5.064 5.533v9.41h-1.97z" mask="url(#a)"/><path d="m140.6084 23.2468c-.03 4.814-1.877 7.753-7.158 7.753-3.221 0-6.409-1.439-6.692-4.878h1.97c.438 2.376 2.533 3.22 4.722 3.22 3.625 0 5.188-2.156 5.188-6.095v-2.188h-.062c-.906 1.969-2.813 3.313-5.126 3.313-5.16 0-7.284-3.688-7.284-8.284 0-4.439 2.626-8.128 7.284-8.128 2.344 0 4.344 1.468 5.126 3.25h.062v-2.782h1.97zm-1.97-6.941c0-3.157-1.469-6.689-5.188-6.689-3.752 0-5.315 3.344-5.315 6.689 0 3.252 1.689 6.409 5.315 6.409 3.407 0 5.188-3.126 5.188-6.409z" mask="url(#a)"/><path d="m14.7431 30.5007c7.867 0 14.245-6.51 14.245-14.541 0-8.03-6.378-14.541-14.245-14.541s-14.245 6.511-14.245 14.541c0 8.031 6.378 14.541 14.245 14.541" mask="url(#a)"/></g><g stroke-width=".996"><path d="m14.7431 30.5007c7.867 0 14.245-6.51 14.245-14.541 0-8.03-6.378-14.541-14.245-14.541s-14.245 6.511-14.245 14.541c0 8.031 6.378 14.541 14.245 14.541z" mask="url(#a)" stroke="#8aaad9"/><path d="m14.5976 15.7536c3.804 0 6.887-1.634 6.887-3.648 0-2.015-3.083-3.649-6.887-3.649s-6.887 1.634-6.887 3.649c0 2.014 3.083 3.648 6.887 3.648zm-4.902 6.086c0 1.514 2.317 2.741 5.174 2.741 2.858 0 5.174-1.227 5.174-2.741zm-1.909-9.185s1.389 8.119 1.945 9.536z" mask="url(#a)" stroke="#fff"/></g></g></g></svg>