<svg height="115" viewBox="0 0 169 115" width="169" xmlns="http://www.w3.org/2000/svg" xmlns:xlink="http://www.w3.org/1999/xlink"><mask id="a" fill="#fff"><path d="m0 .10542656h23.7856922v37.44140624h-23.7856922z" fill="#fff" fill-rule="evenodd"/></mask><g fill="none" fill-rule="evenodd" transform="translate(17 23)"><g transform="translate(0 .346359)"><path d="m97.0172016 28.1959734s-3.05775-19.25479684 28.2727964-28.11965621c7.641 21.70378121-28.2727964 28.11965621-28.2727964 28.11965621" fill="#85c446"/><g fill="#519136"><path d="m102.213562 31.4049234s11.613376-7.94475 27.813376-1.0694531c-9.013782 10.850625-27.813376 1.0694531-27.813376 1.0694531"/><path d="m-.00004219.10542656h5.08148438v15.92535934h.11728125c.806625-1.3179375 2.07689062-2.4780937 3.63445312-3.2691093 1.50145314-.7893282 3.29400004-1.3183594 5.19496874-1.3183594 3.7534219 0 9.7575469 2.109375 9.7575469 10.9160156v15.1875h-5.0785313v-14.6605781c0-4.1132813-1.6769531-7.5933281-6.4660781-7.5933281-3.29146874 0-5.88937499 2.109375-6.81370311 4.6389375-.29025.6349218-.3459375 1.3200468-.3459375 2.2177968v15.3971719h-5.08148438z" mask="url(#a)" transform="translate(0 30.375)"/><path d="m31.3056141 54.6352594c0 5.5868906 3.5226562 9.8064843 8.48475 9.8064843 4.85325 0 8.4885468-4.168125 8.4885468-9.9161718 0-4.323375-2.3654531-9.8085938-8.3708437-9.8085938-6.0028594 0-8.6024531 5.0625-8.6024531 9.9182813m22.1699531-.266625c0 9.4390312-7.1596406 13.5527343-13.9134375 13.5527343-7.5629531 0-13.3945313-5.0625-13.3945313-13.1317031 0-8.5412812 6.1205625-13.5527344 13.8564844-13.5527344 8.0244844 0 13.4514844 5.3282813 13.4514844 13.1317032"/><path d="m55.7982844 49.3068094c0-2.6375625-.0569531-4.7975625-.2295-6.9082032h4.4461406l.2282344 4.11075h.1742344c1.5584062-2.4224062 4.1575781-4.6904062 8.7728906-4.6904062 3.8150156 0 6.7010625 2.109375 7.9131094 5.1169219h.1134843c.8686407-1.4259375 1.9659375-2.5320938 3.1210313-3.3256407 1.674-1.1588906 3.5209687-1.7912812 6.1758281-1.7912812 3.6960469 0 9.1812656 2.2152656 9.1812656 11.0746406v15.0280313h-4.9663125v-14.448375c0-4.9042969-1.96425-7.8578438-6.0631875-7.8578438-2.8860468 0-5.1371718 1.9503281-6.0020156 4.2183281-.2324531.6349219-.405 1.4769844-.405 2.322v15.7658907h-4.9650469v-15.292125c0-4.0605469-1.9655156-7.0140938-5.8324218-7.0140938-3.1741875 0-5.4852188 2.3198906-6.291 4.6418906-.29025.6842813-.4041563 1.4774063-.4041563 2.2667344v15.3975938h-4.9675781z"/><path d="m118.084542 52.1029547c.058219-2.9518594-1.32764-7.5410156-7.041515-7.5410156-5.139704 0-7.391672 4.3275937-7.795829 7.5410156zm-14.896828 3.3226875c.116438 6.2737031 4.506047 8.8610625 9.587109 8.8610625 3.635719 0 5.829891-.5796563 7.736344-1.3200469l.86611 3.3214219c-1.791282.7382812-4.850297 1.6330781-9.296438 1.6330781-8.601187 0-13.7421562-5.2185937-13.7421562-12.9152812 0-7.70175 4.9654692-13.7653594 13.1072342-13.7653594 9.122203 0 11.548828 7.3296562 11.548828 12.0238594 0 .9471093-.11939 1.6875-.175922 2.1612656z"/></g></g><path d="m133.621144.421875-.819703 2.15873437-.817172-2.15873437h-1.083797v3.28092187h.765703v-2.325375h.013078l.846281 2.325375h.548016l.842062-2.325375h.019829v2.325375h.761906v-3.28092187zm-5.819344 0v.637875h.931078v2.64304687h.812531v-2.64304687h.932766v-.637875z" fill="#519136"/><g transform="translate(11.8125 12.580734)"><path d="m.31138594 23.1540609s47.02724996-11.5475625 81.86779686-3.40875l.108-.3788437s-30.3994687-8.9770781-81.39234374 1.9566562z" fill="#ed174c"/><path d="m22.8528844.47663438v1.91278124c.16875-.381375.3957187-.9028125.9863437-1.39260937.6399844-.54801562 1.5731719-.8505 2.4831563-.8505.4687031 0 .9344531.0860625 1.4018906.24553125 1.4550469.54801563 1.8743906 1.70057812 2.04525 2.190375 1.1310469-2.10557812 2.9265469-2.41059375 3.8863125-2.41059375 1.1829375 0 2.2177969.44339063 2.905875 1.12345312 1.2301875 1.2065625 1.279125 2.5160625 1.279125 5.79951563v7.5460781h-3.6171562v-6.69853123c0-2.27179687-.0489375-2.73417187-.4185-3.3361875-.3965625-.65728125-.9597657-.7948125-1.5014532-.7948125-.982125 0-1.4769843.71296875-1.5508125.82265625-.3906562.68259375-.3906562 1.85878125-.3906562 3.007125v6.99974998h-3.59775l-.023625-7.13685935c0-1.53140625 0-2.21273438-.3682969-2.84639063-.273375-.4606875-.813375-.84628125-1.4774062-.84628125-.3168282 0-.6404063.08226563-.934875.24975-1.0584844.59653125-1.0821094 1.63814063-1.0821094 4.31957813v6.2602031h-3.6175781v-14.16403122z" fill="#004b85"/></g><g fill="#004b85"><path d="m64.0388531 13.0573687h3.6952031l-3.6952031 14.1640313h-3.3728906l-2.1384844-9.5710781-2.1207656 9.5710781h-3.418875l-3.6926719-14.1640313h3.6926719l1.9402031 8.8585313 1.998-8.8585313h3.1986563l1.9697343 8.8585313z"/><g transform="translate(66.65625 12.580734)"><path d="m8.8576875 14.6405391h3.5433281v-14.19187504h-3.4707656v1.832625c-.6361875-1.36940625-1.74403125-2.16126562-3.1471875-2.16126562-2.40932812 0-5.56326562 2.07773437-5.56326562 7.65829687 0 4.42504689 2.26420312 7.16174999 5.288625 7.16174999 2.07435937 0 2.90714062-1.2027656 3.34926562-1.8587812zm-.18604687-7.24907816c0 1.285875-.1704375 2.52028125-.9331875 3.45093746-.63914063.7340625-1.35590625.7893282-1.57823438.7893282-.71128125 0-1.5271875-.4357969-2.01571875-1.66598441-.297-.71296875-.39445312-1.5575625-.39445312-2.43421875 0-1.09434375.1434375-2.21526563.76275-3.12103125.44128124-.62310938 1.1289375-1.03485938 1.7971875-1.03485938.53831249 0 1.07999999.27464063 1.45040625.71001563.47039062.52017187.91125 1.47867187.91125 3.3058125z"/><path d="m20.7583172.47663438h3.6779062l-4.0504218 14.05434372c-.2957344.9825469-.7614844 2.5983281-1.4744532 3.3889219-.6627656.7142344-1.4533593 1.0441406-4.3832812 1.0441406-.4155469 0-.58725-.030375-.9555469-.0552656v-3.1484531h.9555469c.347625 0 1.1580469 0 1.528875-.3526875.2944687-.2480625.5429531-.8475469.5429531-1.4229844 0-.2995313-.1506094-.8488125-.2721094-1.2040313l-3.9382031-12.30398432h3.9382031l2.3127188 9.54492182z"/></g><path d="m20.6965547 7.87168125-6.075 19.34971875h4.4604844l1.1377968-4.11075h5.6953125l1.1618438 4.11075h4.4874844l-6.3264375-19.34971875zm2.2958437 4.24828125 1.940625 7.4562187h-3.7808437z"/></g></g></svg>