<svg height="115" viewBox="0 0 169 115" width="169" xmlns="http://www.w3.org/2000/svg" xmlns:xlink="http://www.w3.org/1999/xlink"><mask id="a" fill="#fff"><path d="m.00036388.31461453h23.53176192v40.43973857h-23.53176192z" fill="#fff" fill-rule="evenodd"/></mask><g fill="#aed296" fill-rule="evenodd" transform="translate(17 30)"><path d="m133.404708 36.844593-1.358734 3.5256469-1.369649-3.5256469h-1.417682v4.9713477h.92535v-3.915h.020378l1.489366 3.915h.675728l1.494097-3.915h.027655v3.915h.910067v-4.9713477zm-8.611982 0v.7572372h1.518114v4.2141105h1.005404v-4.2141105h1.507561v-.7572372z"/><path d="m21.9412844 34.6758962c1.4202291-2.5329784 1.5996226-6.5469542 1.5905256-9.5242318v-19.9188679c-3.9834097-3.47215634-8.8637871-4.94332884-12.8348248-4.91818197-7.36277631-.02514687-10.65808628 8.2083976-10.69702159 14.01412537.09897574 6.1739757 3.27274933 13.6491914 10.69702159 13.7132345 2.9758221-.0174663 5.2737331-.7223046 7.6466037-2.1640027-.097884.2099596-.097884.4468464-.1524663.7113881.0545823 1.911469 0 4.9127628-.7183018 6.3504583-1.7426281 3.193787-6.6794071 3.5376549-9.81970355 4.0540027l.87040431 3.7610781c4.84871964-.0924259 11.20536384-1.733531 13.41776284-6.231469zm-3.8960782-28.29578164v15.16039084c-1.847062 1.1622372-3.7290566 2.3190162-6.0506199 2.3153859-4.43789762.0036303-6.02150948-5.3996447-6.07500005-9.5271514.05349057-4.34146901 1.63710243-9.97471699 6.35846365-9.96928813 2.1534501-.00542886 3.8545957.75035281 5.7671563 2.02066279z" mask="url(#a)" transform="translate(0 14.555256)"/><path d="m28.8769003 1.72578032 5.1922237-1.7255256v35.22663068c.0400269 2.9543531 1.334717 3.6031537 4.6314825 3.7527089v3.3145957c-6.2256469.6429785-9.8146092-2.0599326-9.8237062-6.9283019z"/><path d="m42.1617736 7.0816779c0-1.99407008 1.5945283-3.57513477 3.6060647-3.6177089 1.9726011.04257413 3.5616711 1.62363882 3.4677897 3.6177089.0378437 2.01808625-1.5632345 3.5856873-3.6057008 3.5976954-1.9434905-.0120081-3.5267385-1.57960915-3.4681536-3.5976954zm.8613073 9.0883019 5.4862399-1.7255256v27.5720215h-5.4862399z"/><path d="m52.8561024 39.4122129 2.0140836-3.4696091c2.2094879 1.6345552 4.6158356 2.4718463 6.7823854 2.4678436 2.7189219.0040027 5.3566981-1.2386523 5.341779-3.7636253-.094973-2.1640027-2.2145822-2.8168059-3.8971698-3.4601482-.7277628-.2499866-1.5475876-.6433424-2.3099191-.991213-3.6460917-1.3627358-7.2812669-2.7094609-7.2237736-7.5243396-.0574933-5.292655 4.6878841-8.1211051 9.3903234-8.0890836 2.6483289-.0320215 5.1787601.9202561 8.0865364 2.5973855l-2.0180862 3.6071563c-2.4813073-1.4176819-4.1809973-1.942035-5.9250809-1.8710782-2.3168329-.0709568-4.4338949 1.1072912-4.476469 3.3247844.0425741 1.0152291.634973 1.6680324 1.868531 2.3033693 1.2262803.5294474 2.9394339 1.1727897 4.4801078 1.739717 1.6240027.6888275 3.2782076 1.3096091 4.623841 2.2964555 1.5916172 1.2561186 2.7724124 2.9707278 2.7363881 5.6401617-.1499191 5.9050674-5.7362264 8.4649731-10.6770081 8.5239219-3.0416846-.0589488-6.0950134-1.2801348-8.796469-3.3316982"/><path d="m76.9572049 19.1913598h-2.7433019v-3.8986253h2.7433019v-6.90938005l5.4902425-1.87653639v8.78591644h4.6089219v3.8986253h-4.6089219v16.04062c-.0494878 2.8899461 1.3056065 3.5347439 4.6089219 3.7472507v3.3142318c-6.302062.5833019-10.0565903-2.1130593-10.0991644-6.927938z"/><path d="m107.130942 41.7246429c1.706604-.43593 3.108275-1.1971699 4.91531-2.3124664l-1.450067-3.1672237c-2.866294 1.3321698-4.750472 2.2258626-7.512332 2.3044609-4.000512.104434-7.1717384-3.6097035-6.9188409-9.6657816h15.4383959c-.117533-8.5599461-2.765862-13.9137332-10.39318-13.8750088-7.8820353-.0387244-10.579852 7.4135667-10.6854715 14.1584724-.0148252 4.3814959 1.7496357 8.526469 4.626482 10.9739353 3.2236254 2.7967925 8.2200805 2.6778032 11.9797035 1.5836119m-5.630701-22.9590971c2.93434.0269272 4.465917 2.9678167 4.615472 6.3570081h-9.6646901c.3478706-3.3891914 1.7539084-6.3300809 5.0492181-6.3570081"/><path d="m127.342007 19.1913598c-2.399434.0789623-4.110041.8813208-5.48624 2.0304583v20.7950943h-5.337776v-21.9482345c1.717156-1.9955256 3.833126-3.4052022 6.348638-4.3210916 2.536254-.9027898 5.067777-1.5410378 9.531146-.7383154-.881321 1.8361455-1.586523 3.1322911-2.162911 4.632938-1.368194-.2729111-2.300458-.4668598-2.892857-.4508491"/></g></svg>