<svg height="115" viewBox="0 0 169 115" width="169" xmlns="http://www.w3.org/2000/svg" xmlns:xlink="http://www.w3.org/1999/xlink"><mask id="a" fill="#fff"><path d="m.15481032.4291h15.01108968v20.5709h-15.01108968z" fill="#fff" fill-rule="evenodd"/></mask><mask id="b" fill="#fff"><path d="m.8433.7326h2.1567v2.318h-2.1567z" fill="#fff" fill-rule="evenodd"/></mask><g fill="#4d4d4f" fill-rule="evenodd" transform="translate(9 47)"><path d="m16.4093 12.2533-2.635-6.183-1.947-4.755h-3.332l-5.607 13.194c-1.145 2.758-1.719 4.062-2.888 6.585h2.608c.699-2.121 1.058-3.104 2.023-5.528l.426-1.007.711-.019h9.144l.292.662c1.044 2.567 1.385 3.568 2.17 5.892h2.862c-1.366-2.974-2.065-4.563-3.827-8.841m-6.727.81c-1.354 0-2.709 0-4.056-.031l4.272-10.641 4.34 10.641c-1.6 0-3.022.031-4.556.031"/><path d="m54.4591 1.4203h-8.435l-3.901-.093-.259 1.843 7.883-.278c.007 3.097.007 6.214-.03 9.337-.026 2.837-.1 6.015-.161 8.865h2.628c-.167-7.654-.204-10.14-.124-18.233 3.845 0 4.989.228 7.568.309l.16-1.83z"/><path d="m101.171 1.4203h-8.44l-3.902-.093-.265 1.843 7.889-.278c0 3.097.006 6.214-.031 9.337-.031 2.837-.1 6.015-.161 8.865h2.622c-.161-7.654-.204-10.14-.124-18.233 3.852 0 4.99.228 7.568.309l.167-1.83z"/><path d="m66.3976 1.3583-2.652-.03c.179 4.705.186 11.53.135 15.129-.017 1.713-.073 3.116-.129 4.637h2.64c-.104-5.107-.18-8.353-.117-13.045.024-2.115.093-4.558.123-6.691"/><path d="m9.7189 9.8581-2.528-.834c-2.493-.78-4.762-1.466-4.762-3.581 0-1.057.644-3.605 5.695-3.536 2.474.031 4.668 1.033 5.923 1.638l.26-1.911c-.989-.414-3.116-1.205-6.114-1.205-1.676 0-3.735.198-5.411 1.089-1.669.921-2.62708968 2.447-2.62708968 4.037-.01891032 3.209 2.98508968 4.26 5.22408968 5.088l2.85.927c2.665.91 4.625 1.67 4.625 3.847 0 2.306-2.344 4.012-6.01 3.95-2.782-.054-4.735-.996-6.387-2.126l-.179 2.262c1.954 1.07 5.163 1.497 6.572 1.497 5.627 0 8.316-2.857 8.316-5.67 0-3.369-3.313-4.699-5.447-5.472" mask="url(#a)" transform="translate(72 .571)"/><path d="m141.6378 7.4369 4.26-6.078-2.665.024c-1.922 3.241-2.72 4.471-4.193 6.721l-2.237 3.37-3.809-6.189c-1.063-1.706-1.614-2.621-2.343-3.932h-2.95l4.082 6.115 3.666 5.645c.031.976.074 1.812.074 2.955 0 1.564-.056 3.438-.124 5.027h2.591l-.161-8.087z"/><path d="m37.7404 16.9828c-.816-.803-1.596-1.607-2.417-2.442l-2.598-2.678c1.565-.167 3.525-.42 5.194-1.78 1.039-.81 1.892-2.115 1.892-3.622 0-.471-.111-3.649-4.131-4.769-1.496-.382-3.171-.419-6.158-.382l-5.347.006c.235 4.884.328 10.375.328 15.253 0 1.509-.013 2.757-.075 4.525h2.609c-.197-3.708-.259-8.977-.259-8.977l-.031-1.453v-7.802c1.564-.02 2.844-.075 4.198-.075 1.991 0 6.517 0 6.517 3.697 0 2.369-1.96 3.234-3.098 3.599-1.342.414-2.728.52-5.707.562 0 0 8.44 8.731 10.017 10.449.494-.018 1.18.025 1.557 0h1.633c-.884-.864-3.624-3.597-4.124-4.111"/><path d="m123.2931 16.9828c-.822-.803-1.602-1.607-2.424-2.442l-2.597-2.678c1.571-.167 3.525-.42 5.201-1.78 1.025-.81 1.884-2.115 1.884-3.622 0-.471-.11-3.649-4.129-4.769-1.491-.382-3.166-.419-6.159-.382l-5.341.006c.235 4.884.321 10.375.321 15.253 0 1.509-.012 2.757-.068 4.525h2.61c-.204-3.708-.26-8.977-.26-8.977l-.038-1.453v-7.802c1.564-.02 2.851-.075 4.199-.075 1.997 0 6.517 0 6.517 3.697 0 2.369-1.961 3.234-3.098 3.599-1.342.414-2.726.52-5.707.562 0 0 8.446 8.731 10.017 10.449.494-.018 1.186.025 1.564 0h1.625c-.884-.864-3.629-3.597-4.117-4.111"/><path d="m147.8634 1.2973v.376h.612v1.949h.446v-1.949h.606v-.376z"/><path d="m2.3693.7326-.45 1.62-.452-1.62h-.624v2.318h.388v-1.823h.007l.513 1.823h.334l.525-1.823h.007v1.823h.383v-2.318z" mask="url(#b)" transform="translate(149 .571)"/></g></svg>