<svg height="83" viewBox="0 0 93 83" width="93" xmlns="http://www.w3.org/2000/svg" xmlns:xlink="http://www.w3.org/1999/xlink"><mask id="a" fill="#fff"><path d="m0 0h96v96h-96z" fill="#fff" fill-rule="evenodd"/></mask><mask id="b" fill="#fff"><path d="m.02797078.25627119h27.75568912v53.79348921h-27.75568912z" fill="#fff" fill-rule="evenodd"/></mask><mask id="c" fill="#fff"><path d="m.00006609.39634607h26.95878301v57.73924713h-26.95878301z" fill="#fff" fill-rule="evenodd"/></mask><g fill="none" fill-rule="evenodd" mask="url(#a)" transform="translate(-2 -13)"><g transform="matrix(.98768834 .15643447 -.15643447 .98768834 14.079102 13.749126)"><path d="m27.0162963 22.8060597 12.0672016-1.8017902c-2.6645576 0-4.7353395-2.3200102-4.4336419-4.9676028l1.2060905-10.58407411c.3310802-2.90591564-1.9418827-5.45259259-4.8666872-5.45259259h-.4057614c-2.4905349 0-6.3863683 1.86895062-6.6684773 4.34356996l-1.3323663 11.69309674c-.3016975 2.6475926 1.7690844 6.769393 4.433642 6.769393z" fill="#c3c4c5"/><path d="m77.8936934 4.34356996c-.2819341-2.47461934-2.3759774-4.34356996-4.8665123-4.34356996h-.4057613c-5.9928498 0-6.9995577 2.54667695-6.6684774 5.45276749l1.2568107 11.02936211c.2936522 2.5764095 4.275535 6.324105 6.8685597 6.324105 5.1003498 0 5.4116666-4.4532305 5.0669444-7.4787758z" fill="#c3c4c5"/><path d="m85.9104527 74.6952366-6.7650206-59.3679526c.3447222 3.0255452-2.0216358 5.6769855-5.0669444 5.6769855-2.5926749 0-4.7725926-1.9453806-5.0667696-4.5210905l-1.2569856-11.03041151c-.3310802-2.90609054 1.9418827-5.45276749 4.8666873-5.45276749h-16.610854c-2.9248045 0-5.1977674 2.54667695-4.8666872 5.45259259l1.2059156 10.58407411c.3016976 2.6474177-1.7690843 4.967428-4.4336419 4.967428h-19.0980659c-2.6645576 0-4.7353395-2.3200103-4.433642-4.9676029l1.3323663-11.69309674c.2819342-2.47444444 2.3761523-4.34339506 4.8666872-4.34339506h-16.6105041c-2.490535 0-4.58475306 1.86895062-4.86668722 4.34356996l-8.01675925 70.35166664c-.90194445 7.9154939 5.28906378 14.8520885 13.25580247 14.8520885h58.3093004c7.9667387 0 14.1577469-6.9365946 13.2558025-14.8520885z" fill="#fafafa"/><path d="m85.8531738 74.7995917-6.7650206-59.3679526c.3447222 3.0255452-2.0216358 5.6769856-5.0669445 5.6769856-2.5926749 0-4.7725926-1.9453807-5.0667695-4.5210906l-1.2569856-11.03041149c-.3310803-2.90609054 1.9418827-5.45276749 4.8666872-5.45276749h-16.6108539c-2.9248045 0-5.1977675 2.54667695-4.8666872 5.45259259l1.2059156 10.58407409c.3016975 2.6474177-1.7690843 4.967428-4.433642 4.967428h-19.0980658c-2.6645576 0-4.7353395-2.3200103-4.433642-4.9676029l1.3323663-11.69309672c.2819341-2.47444444 2.3761522-4.34339506 4.8666872-4.34339506h-16.6105041c-2.490535 0-4.58475308 1.86895062-4.86668724 4.34356996l-8.01675926 70.35166662c-.90194444 7.9154939 5.28906379 14.8520885 13.2558025 14.8520885h58.3093004c7.9667387 0 14.1577469-6.9365946 13.2558025-14.8520885z" fill="#fafafa"/><path d="m85.9104527 74.6952366-6.7650206-59.3679526c.3447222 3.0255452-2.0216358 5.6769855-5.0669444 5.6769855-.3755042 0-.7424383-.0409259-1.0960803-.1185802l5.7210597 50.2059671c.9019444 7.9154938-5.2890638 14.8520885-13.2558025 14.8520885h-58.3093004c-.70920782 0-1.40424897-.0550926-2.08162552-.1607305 2.39031893 2.3210597 5.65477362 3.7643107 9.28861112 3.7643107h58.3093004c7.9667387 0 14.1577469-6.9365946 13.2558025-14.8520885z" fill="#ededed"/></g><path d="m22.1133559.38037288c3.3232204 1.19949153 7.4081356 15.22559322 4.8869492 28.51728812-2.52 13.2905085-12.2476271 20.2133898-17.80372883 24.2532204-5.55491525 4.038644-7.67864407-6.4233899-8.78440678-13.6666102-1.10694915-7.2420339.0581356-18.1157627 5.06966102-25.3744068 5.01271189-7.25864406 13.30949149-14.9277966 16.63152539-13.72949152" fill="#e0eed2" mask="url(#b)" transform="translate(67.063316 12.930525)"/><path d="m.02171186 57.6440508c1.86627119-4.9344067 5.91084746-11.3494915 7.06525424-13.819661 1.33711865-2.8652542 2.52593221-5.7542373 3.7111864-8.6764406.8364407-2.0501695 1.6171187-4.121695 2.3776272-6.1955933-2.081017-2.6706779-2.4061017-6.6440678-1.9445763-9.7074576.0320339-.2076271.3832203-.1945763.4342373-.0011864.4211864 1.5779661.9266101 3.1061017 1.5969491 4.6116949.3583051.8091525.589661 1.6242373.891017 2.4025424 1.0191525-2.9008475 1.978983-5.8218645 2.8972881-8.7547458.0130509-.0415254.0249153-.080678.0379661-.1222034-.6394915-1.1235593-.9277966-2.3361017-1.3062712-3.6566102-.3523729-1.2291525-.8672881-2.4155932-1.0962712-3.669661-.1803389-.97762711.2372882-2.09406778.2622034-3.06932202.010678-.42355932.7272882-.56.8257627-.10559322.4140678 1.89355932 1.5257628 3.77644064 2.051356 5.68186444.1067796.3784745.1933898.7747457.2788135 1.1745762.4389831-1.6871186.8720339-3.3754237 1.4237289-5.03762708.8411864-2.52949153 2.0442372-5.16813559 2.4725423-7.79135593.1328814-.81152543 1.4569492-.5861017 1.4937288.1838983.1186441 2.46067797-.6216949 4.88101695-1.3003389 7.22186441-.8827119 3.0515254-1.4664407 6.149322-2.2233899 9.2269492 1.6538983-2.5520339 3.78-4.9094916 5.6676271-7.2752543.5244068-.65610168 1.6455933-.1127119 1.230339.6584746-1.7583051 3.2745763-3.8310169 7.1530508-7.3915254 8.9766102-.0438983.0225423-.088983.0367796-.1328814.0438983-.7735593 2.8379661-1.6550847 5.6355932-2.6184745 8.4094915.7605084-.42 1.4783051-.9016949 2.1320339-1.4877966.6276271-.5611865 1.009661-1.3288136 1.650339-1.8876271.5944067-.5196611 1.1306779-1.0974577 1.758305-1.5815255.4069492-.3144067 1.0084746-.029661.9052543.4828814-.3761017 1.8449152-1.4949153 3.6281356-2.910339 4.9320339-1.2386441 1.138983-2.829661 1.7179661-4.469322 2.1628813-.7272882 1.9849153-1.4901695 3.9591526-2.2827119 5.9298306-2.1628814 5.3781355-5.81830509 12.8835593-7.41169492 15.1781355-1.54593221 2.2186441-2.93525424 4.6294916-5.44694916 6.0057628-.29542372.1613559-.75576271-.1067797-.62881356-.4437289" fill="#d5e4c5" mask="url(#c)" transform="translate(63.503994 23.608492)"/></g></svg>