<svg height="78" viewBox="0 0 99 78" width="99" xmlns="http://www.w3.org/2000/svg" xmlns:xlink="http://www.w3.org/1999/xlink"><mask id="a" fill="#fff"><path d="m0 0h100v80h-100z" fill="#fff" fill-rule="evenodd"/></mask><mask id="b" fill="#fff"><path d="m.35136189.31221275h11.80013721v21.83622835h-11.80013721z" fill="#fff" fill-rule="evenodd"/></mask><g fill="none" fill-rule="evenodd" mask="url(#a)" transform="matrix(-1 0 0 1 100 -2)"><g transform="translate(1 2)"><path d="m43.2952899 63.1711682s-4.9533442 8.2764293-6.2952899 14.8288318h31s-2.125793-12.0656677-4.8104974-14.7499656z" fill="#f5f5c9"/><path d="m42.5453289 65.401538c.8980182-.053255 1.7960364-.0760205 2.6940545-.1154536l2.6940546-.0658574c1.7960363-.0434984 3.5920727-.0491898 5.3881091-.0552877 1.7960363.0052849 3.5920727.0113828 5.388109.0544746l2.6940546.0662639c.8980182.0394331 1.7960363.0621987 2.6940545.1158602-.8980182.0536616-1.7960363.0764271-2.6940545.1162668l-2.6940546.0658573c-1.7960363.0430919-3.5920727.0491898-5.388109.0544747-1.7960364-.006098-3.5920728-.0117893-5.3881091-.0552877l-2.6940546-.0658574c-.8980181-.0394331-1.7960363-.0621986-2.6940545-.1154537" fill="#fff"/><path d="m45.6836362 65.5793936c-.1109819.5943425-.3199368 1.1659195-.5809271 1.7126983-.2589578.548405-.5914969 1.0659139-.9874542 1.5387048-.40734.459782-.8866354.8850093-1.4700017 1.1350234-.57239.2646491-1.2455987.3101801-1.8167692.1130145.6053187-.0020326 1.166326-.150415 1.6500932-.4427079.4857997-.285382.9037095-.6801197 1.2777144-1.1146971.7496358-.8760657 1.3378804-1.8964485 1.9273446-2.942036" fill="#fff"/><path d="m54.9201739 65.3423883c.0691096 1.519598.1223646 3.0396026.1496019 4.5592005l.0487833 2.279397.0170741 2.2798035.0008131.0878099-.0638248.0646378c-.8252498.8325673-1.6411495 1.6744848-2.4741234 2.4989215l-.4044944.4004292.0065045-.5650726c.0203263-1.9244989.0113827-3.8485913.0565072-5.7730902.0361809-1.9244989.0833381-3.8485912.1764327-5.7726836.0930947 1.9240924.1402519 3.8481847.1760262 5.7726836.0455311 1.9244989.0361809 3.8485913.0573203 5.7730902l-.3979899-.16505c.8244368-.8329738 1.6663542-1.6488735 2.4989216-2.4741234l-.0630117.1524476.0174806-2.2798035.0487833-2.279397c.0272373-1.5195979.0800858-3.0396025.1491954-4.5592005" fill="#fff"/><path d="m61.9069911 65.401538c.0650444.549218.1569195 1.0809554.2918864 1.5927729.1402519.5081588.3244086.9996499.6089775 1.414714.2805036.4187228.6817458.7276834 1.1504715.9167184.4691321.2126137 1.0069674.2296878 1.5606572.2796906-.5256395.1443171-1.1094122.2418836-1.6761109.0715488-.5675117-.1382192-1.0911185-.5101914-1.4244707-.9992434-.3268477-.4935238-.5065326-1.052905-.5809271-1.6114731-.0735814-.5585682-.0613856-1.1244538.0695161-1.6647282" fill="#fff"/><path d="m78.8096121 32.0313613-3.807532.1146406s-1.2321834 5.6031619-2.9192705 13.0771611c-.5573486-.8854158-1.0793293-1.723268-1.5606573-2.5058325-1.6984698 3.3306758-3.7815143 6.4296313-6.0239173 9.4180114 1.27121 2.1574389 2.7326746 4.514076 4.3904918 6.9662469.0227655.0341483.0459375.0678901.068703.1020383 2.9428491 4.3433347 9.7318503 2.7473096 10.4241658-2.452984.0081306-.0593529.0158546-.1182994.0235786-.1776523 1.0281068-7.7898707 1.2045395-16.3314099-.5955621-24.5416295" fill="#f7bb8b"/><path d="m76.5582248 26.3955553c-.0869967-.9919259-.2158658-2.0273502-.3768505-1.994015-.2670883.0552877-.4252273.7488228-.5423071 1.6248885.3109932.0975665.6211733.2203376.9191576.3691265" fill="#f28766"/><path d="m78.1672588 27.614364c-.0158546-1.0655074-.0922817-3.1513975-.4451471-3.3424652-.2760319-.1491954-.5817402 1.1821806-.7902885 2.3269607.4817345.2845689.9126531.6305234 1.2354356 1.0155045" fill="#f28766"/><path d="m80.8224087 26.2034306c-.2528598.1813111-.6797132.6967873-1.2260855 2.1415844 0 0 .3707526-3.257501.0024392-3.7205353-.292293-.3666874-1.0171306 2.1123144-1.3053583 3.1574953.1837502.2496076.3260347.5122241.4020552.7850037.1150472.4175033.1430975.7955734.1020383 1.136243.4492124 1.2224268-.3012365 2.6582802-1.6065948 3.1078991-.5065326.1744001-1.0289199.2000113-1.5464287.1296821-.4032748.1374061-.8321608.1772458-1.2212072.1146406.2943256.5150697.646378 1.0407092 1.0740444 1.5610638l2.6521822-.5061262s2.9026029-5.4787646 2.9375851-7.77239c.0020118-.1459432-.1447445-.2207442-.2646699-.1345605" fill="#f7bb8b"/><path d="m71.5187127 51.1321958c-.0333353-.993552.0126023-1.9789735.0808988-2.9623624.0313026-.4918977.0813054-.9821692.1292756-1.4724408.052442-.4894585.1081362-.9789171.1768393-1.4675626l.3821354.12643c-.4784823.7317486-.9679408 1.4561797-1.5191915 2.1440234.3435153-.8118344.7484163-1.5866749 1.1651064-2.3554175l.4394558-.8102083-.0573204.9366382c-.030083.4918977-.0731748.9829823-.1191124 1.4732539-.0512224.4898651-.1000056.9801367-.1670826 1.4683756-.1292756.9772909-.2809101 1.9521427-.5110044 2.9192705" fill="#eba871"/><path d="m72.8661465 24.8309954 4.5709897 8.5578003c.1971656.3683134.6227994.5479984 1.0256677.4362035.8427305-.2345661 2.1785783-.7683361 2.5082717-1.8448197.4914912-1.603749-3.633945-9.5968832-3.633945-9.5968832z" fill="#dfdfdf"/><path d="m67.9552594 13.7221569-1.5443961.4622212c-.4654734.1390322-.7565468.5996273-.684185 1.0805488.209768 1.4004856.8301282 4.4551296 2.5846988 8.5179606.195946.4536841.7016656.6898763 1.1752696.5484049l1.36837-.4093727z" fill="#396e75"/><path d="m75.5621523 9.5894032-7.275614 2.1765456c-1.0695726.3203433-1.0285133 3.6164644.0922816 7.3630174 1.120795 3.746553 2.896505 6.5243521 3.9664841 6.2044153l7.2752075-2.1769522z" fill="#c2dfe1"/><path d="m79.5281893 15.7936966c1.1207949 3.746553 1.1622607 7.042674.0926881 7.3626108-1.0695726.3199367-2.8452826-2.4574558-3.9660776-6.2036023-1.1207949-3.746553-1.1626672-7.04308057-.0926881-7.36342386 1.0695726-.31993676 2.8452826 2.45786236 3.9660776 6.20441536" fill="#e5fdff"/><path d="m89.2864231.83358365-13.4775902 10.39692845.0451245.925662c.1735871 3.520524 1.3041387 7.0276326 3.21197 9.9631642l16.7981029.0995991z" fill="#dfdfdf"/><path d="m11.1844119 9.75514426c1.7870928 5.97350804 1.0272938 11.47666424-1.69684372 12.29175084-2.10987522.6313365-4.7803512-1.7346507-6.70769578-5.6096663-.56019423-1.1281124-1.05818983-2.3838744-1.46146463-3.7306984-.36343515-1.2155158-.62198634-2.4135509-.77971882-3.55426571-.61629496-4.46651233.30814748-8.08988764 2.47737564-8.73870475 2.72373102-.81468015 6.38125459 3.36807633 8.16834731 9.34158432" fill="#c4c4c4" mask="url(#b)" transform="translate(86.996782 .094314)"/><path d="m92.616042 11.5148778c1.1098188 3.709559 1.2374682 7.237807.5215742 9.5749308-1.8814071-1.5602507-3.7124047-4.5787138-4.821817-8.2886794-1.1106318-3.71077857-1.2382813-7.23983961-.5219807-9.57574385 1.8810005 1.55903111 3.7124048 4.5787138 4.8222235 8.28949245" fill="#919191"/><path d="m92.6779561 8.83907628 1.4590254 4.87710462-4.3604087 2.8151996c-.5601943-1.1281125-1.0581899-2.3834679-1.4610581-3.7306984-.3638417-1.2155158-.6223929-2.4131444-.7801254-3.55426575z" fill="#ebebeb"/><path d="m94.5196454 10.9447643c.4028683 1.346824.2317204 2.5875444-.3825419 2.7708881-.6142623.1841568-1.4386991-.7589859-1.8415674-2.1054034-.4028683-1.3472305-.2317204-2.58795099.3825419-2.7717012.6138558-.18375022 1.4386991.75939246 1.8415674 2.1062165" fill="#396e75"/><path d="m77.163259 10.4354266c.1796849 1.0342047.4004291 2.054994.6293038 3.070092.240664 1.0118457.4935238 2.0200328.812241 3.0058608.3158715.9862345.6744283 1.9578341 1.1077861 2.8969115.4508385.9297273.9594038 1.8326238 1.595212 2.6721021-.7719948-.714268-1.4082096-1.5793575-1.9240923-2.5042064-.5130371-.9289143-.9004574-1.918401-1.2301508-2.9221162-.316278-1.0085936-.5536898-2.038733-.7223985-3.0778161-.1699283-1.0386765-.2703405-2.0895489-.2679013-3.1408277" fill="#121b46"/><path d="m71.2817074 23.9353758c.9598103-.4817346 1.9606798-.8244368 2.972119-1.1350235 1.0146915-.2959516 2.0399526-.5581616 3.1066795-.6809327-.9589972.4825475-1.9602733.8252498-2.971306 1.1346169-1.0155045.2951386-2.0407656.5573485-3.1074925.6813393" fill="#121b46"/><path d="m93.8999356 10.9880594c-.0577268-.2365987-.150415-.4650669-.2752188-.6711761-.0630116-.1024448-.1390322-.1975721-.2211507-.2760319-.0772401-.07805314-.1991982-.12764944-.2235898-.09594033-.0219525.01585456-.0573203.10732313-.0626052.20895493-.0101632.1020382-.000813.2134266.0085371.324002.0219525.2223703.0703292.4463667.1219581.6683304.0556942.2211507.1142341.4427079.1963525.6504432.0414658.1028514.0849642.2057027.1410649.2918864.0512224.0886229.1248038.1540738.1524477.158139.0369939.0162611.1227711-.0837445.1552933-.189035.0369939-.1077297.0613856-.2268421.0699226-.3467676.0162611-.2402574-.0056914-.4862063-.0630117-.722805m0 0c.0548812.2370052.1061036.4756366.1288691.7223985.0093501.1231777.0182937.2492011.0020326.3788832-.0093501.0650443-.0191067.1325278-.0504093.2016374-.0284569.0658574-.0813054.1491954-.187409.1845633-.1061035.0333352-.2065157-.0016262-.2764383-.0382136-.0743945-.0382135-.1313083-.0857772-.1833437-.1353735-.1008187-.1008187-.1825307-.2081418-.2520468-.3219694-.1349669-.2280616-.23294-.4707583-.2935125-.7223985-.0613856-.2512337-.0865902-.5118175-.0703292-.7764666.0081306-.1329343.0329287-.2662752.0756141-.4020552.0235785-.0682966.052442-.13578004.1012252-.2044831.045531-.0646378.1187059-.14228446.2296878-.16139123.1101688-.01707413.195946.03292869.2516402.07886624.0593529.04715714.0991926.10285134.1374061.15610638.0735814.10854271.1231777.22440291.1711479.33823051.0926881.2300943.1561064.4658799.2158658.7016656" fill="#121b46"/><path d="m90.4262029.96184292c1.0691661.23253346 2.0777596.73174863 2.9595167 1.4008921.4353904.34351533.8280955.74191181 1.1724239 1.18055446.3483937.44026876.6252386.90940094.9191576 1.37568743 1.1264864 1.88628536 2.0147479 3.90713116 2.700559 5.99830609.3195302 1.0541246.5630399 2.1330473.7122353 3.2282311.1524477 1.0927446.1760262 2.2176049-.0073175 3.3152278-.1874089 1.0898989-.5040935 2.1749196-1.1289255 3.1115578-.3305065.4504319-.7593925.8496415-1.2862515 1.0533115-.5211676.210581-1.1183558.1894416-1.6204167-.0195133.2593643.0849642.53377.113421.8012648.0947208.2687143-.0101632.5305177-.0808989.7707752-.1910677.4837672-.2248094.8581785-.6232059 1.1423409-1.0671334.5516572-.9081814.8244368-1.9781605.9606234-3.0343177.2699339-2.1285754-.1613913-4.296584-.7959799-6.3503585-.6362148-2.06597031-1.518785-4.05917227-2.5635594-5.95724692-.2683078-.46750607-.5297047-.95046016-.843137-1.37934617-.3109932-.43173169-.6756479-.827689-1.0805488-1.18055445-.8081758-.70898312-1.7753035-1.24478573-2.8127605-1.57895094" fill="#121b46"/><path d="m74.7947513 33.902036s-1.5789509-3.4733668-1.4208119-4.2628423c.158139-.789882 1.9541753-2.7241375 2.8021907-2.4078595.8488284.315465-.4536842 2.7631641-.4536842 2.7631641s2.1119079 2.565592 1.8753092 3.8681046c-.2370053 1.3025126-2.8030038.0394331-2.8030038.0394331" fill="#f7bb8b"/><path d="m59.3832714 31.1043984s6.8853481 3.6465473 8.0699678 5.0673593c1.1838067 1.4212184 4.3417086 8.1317599 4.3417086 8.1317599l-6.868274 9.2362938s-7.3353735-10.9351702-5.5434024-22.435413" fill="#396e75"/><path d="m60.7501372 33.4986799c-.2914799-.4886455-.3862007-.9687539-.338637-1.4098357-.3894529-.2809101-.7358139-.5943425-1.0472136-.971193-.1215516-.4390492-.4032748-1.5110609-.6154819-2.7196658-.187409-1.0813618-.3199368-2.2680142-.226029-3.2014002v-.0040653c.0426853-.4601886.1402518-.8585851.3158715-1.151691l-10.4631924-5.883259c.007724.0349613.0117893.0662639.0191068.1012252.1662695.971193 1.4273163 8.5939811.1337474 12.6377054-.7870363.3614025-1.7545706.6187341-2.9550449.6610129-1.2927559.0451245-2.5594941.5061261-3.5018238 1.391542-1.0179436.9565581-1.9208401 2.565592-1.9366947 5.2474507.9577777.1199255 1.9143358.307741 2.8692677.4797019 2.8538197.5134436 5.7043871 1.0594094 8.5655243 1.5334199 3.6892327.6114166 7.4739992.744351 11.2046976 1.158602-.1622043-2.7790187-.70817-5.6621083-2.024098-7.86955" fill="#f7bb8b"/><path d="m58.7488454 28.3980261c-5.6885326.7187398-8.5695896-6.0747332-8.6752866-6.3284061 1.0500593 1.6667608 2.5729095 2.5098978 4.0603919 2.9123596 1.8309976.4996217 3.6075207.331726 4.3530913.2227768.0121958-.0040653.0235785-.0040653.0353678-.0081306-.0935012.9333861.0390266 2.1200384.2264356 3.2014003" fill="#eba771"/><path d="m48.2692699 30.8034464s6.710135 7.4211507 8.6838237 6.2369375c1.9736886-1.1842132 2.4708712-5.7100784 2.4708712-5.7100784s6.7658291 5.8678109 7.7130371 7.7626334c.9476144 1.8948224.8687482 5.6051945-1.4996782 11.4469877-2.3688329 5.8421998-1.4805714 13.7365479-1.4805714 13.7365479h-21.6508159s1.8159562-3.7892383 1.263486-8.2102196c-.5528768-4.4209813-5.7633335-18.552267-5.7633335-18.552267s-1.0264807-6.4735362 10.263181-6.7105415" fill="#396e75"/><path d="m48.0715759 31.5930845c.5325503.5788945 1.0663203 1.1529106 1.6269211 1.7005025.5504376.556129 1.1134775 1.0992491 1.7021286 1.6106601.5914968.5077522 1.1862458 1.0102196 1.8236802 1.4480492.6305234.444334 1.2951951.843137 2.0013325 1.1045339.7028852.2666817 1.4529276.3492067 2.1257298.0626052.6752414-.2638361 1.1764892-.8593981 1.527322-1.5252894.3516458-.6728022.5630399-1.4269098.7041048-2.1895545.1536672-.7630512.2248094-1.5443961.2520467-2.3302129.1264299 1.5618768.0239851 3.1871718-.6288973 4.6803456-.3252216.7358139-.887855 1.4350404-1.6805827 1.7781492-.3898594.1695217-.820778.2459488-1.2468183.2264355-.4236012-.0203263-.8325674-.1170798-1.2167354-.2577381-.7646773-.2939191-1.4557732-.7146745-2.0980859-1.1854328-.6410931-.474417-1.2447857-.9907063-1.8086387-1.5452092-1.1329908-1.1029078-2.1712608-2.2956581-3.0835074-3.5778443" fill="#464646"/><path d="m63.6918887 40.329838c.3691265 1.0484331.8720004 2.0147479 1.3838179 2.995291.5053131.9760714.9821693 2.0358873 1.0935577 3.1839196.1187059 1.1374626-.0374005 2.2769578-.3345717 3.3518153-.2955452 1.0797357-.7268703 2.1041838-1.1927503 3.1083055.293919-1.068353.6049122-2.1281689.8333804-3.1948958.2178985-1.0667269.3422957-2.1517475.2235898-3.2140026-.0935012-1.0659138-.5183219-2.0684094-.9561515-3.0774095-.2211507-.5045-.4414883-1.015911-.6268647-1.541957-.1744001-.5297047-.3305064-1.0638812-.4240076-1.6110665" fill="#464646"/><path d="m53.5576986 52.7439941c.7606121-.2727796 1.5736661-.3252216 2.3692395-.2642425.7943538.0739879 1.5870814.2642425 2.2899666.662639-.8045169-.0361809-1.5618768-.1321213-2.3302128-.1910677-.7671165-.0735814-1.5301677-.1077297-2.3289933-.2073288" fill="#464646"/><path d="m35.7622223 50.8161617c-.4418948-.4130314-.8890745-.8203715-1.3281237-1.2362487-2.0354808-1.9293772-4.1368189-3.7689119-6.1527864-5.6917847-.5618204.6097905-1.1313647 1.2386878-1.707007 1.8887245-1.3000734 1.4687821-2.6269776 3.0371633-3.950223 4.6970132-1.6895263 2.1188188-1.7545706 5.0978488-.1666761 7.2935012 1.0512789 1.4529275 2.1602846 2.8952854 3.3282367 4.3099994 3.4005985 4.122997 7.3012252 8.0114279 11.736435 11.2364068l2.7643837-2.6160014s-3.8770481-6.922342-8.5273107-15.3984303c1.3675569-1.5403309 2.7119417-3.0473266 4.0030715-4.48318" fill="#f7bb8b"/><path d="m37.3355226 72.5300299s1.467969 6.0239174 2.965208 7.7622269c.0955339.1105753.2548925.0691096.2874146-.0752075.0687031-.3036757.045531-.9724126-.5057196-2.415177 0 0 1.8858788 2.6814522 2.4688386 2.7826774.5833663.1012252-1.3301564-3.6469539-1.3301564-3.6469539s2.4411947 2.7879623 2.9672407 2.6643781c.526859-.1235842-1.8013212-3.5965445-1.8013212-3.5965445s2.6810456 2.7277963 2.867235 2.4765626c.46588-.6252386-3.1953023-4.5583875-2.7416182-4.8990571.4020552-.301643 1.6102535.2451358 2.1781718.631743.1191124.0808989.2719666.044718.3357913-.0861837.1260234-.2581447.2048896-.7028853-.3650613-1.1480323-.880131-.6870307-2.7977189-2.1362995-5.6791824-2.5899837z" fill="#f7bb8b"/><path d="m29.9537237 53.4609858c.4345774.1707414.7671165.443521 1.0752639.7402857.2975778.307741.570764.6402801.7402857 1.0756705-.4349839-.1699283-.767523-.4431144-1.0752639-.7402857-.2967647-.308554-.5699509-.6410931-.7402857-1.0756705" fill="#eba871"/><path d="m26.4009621 45.4876495 7.8947547 7.2626051 9.9473096-10.2627745s.6447518-10.6501948-1.4891085-10.8441082c-3.1688781-.2874146-13.3527864 9.501756-16.3529558 13.8442776" fill="#396e75"/><path d="m40.8874711 45.9215764 4.0262435-3.7892383-2.9208966 7.3024448z" fill="#464646"/><path d="m64.1023996 15.6555587c-.1170797-3.0843205-.4923042-6.25848344-1.5541527-8.9874993-1.3667439-3.51401954-7.8081645-4.88035684-12.2982554-.97607137-2.0867031 1.81351702-2.5261589 5.10150757-2.4021681 8.10330307-.1085427-.0528486-.2057027-.0939078-.2691209-.1097623-.9142793-.2276552-1.8322173.4610016-2.1062165 1.3203997-.2178985.6845915-.0703291 1.4578059.3203433 2.0606855.3252216.5008413.8524872.9679408 1.4159336 1.1825871.1414714.0540681.7724013.158952 1.2175484.1207385.4309187 1.9740952 1.4354469 3.7985884 2.9908193 5.0901248 1.963932 1.6322059 4.4746429 2.2838687 6.9772232 1.7647337 1.9440122-.4020552 4.8177517-1.647654 5.5320196-3.6660606.187409-.526859.202857-1.0931511.2109876-1.6513127.0040652-.1288691.0040652-.2577382.0040652-.3866072.0113828-1.2455988.0113828-2.5497375-.0390266-3.8652589" fill="#f7bb8b"/><path d="m64.1413043 19.5207363c-.1638304.0426853-.3357913.0662639-.511411.0662639-1.1012817 0-1.9952346-.8939529-1.9952346-1.9948281s.8939529-1.9948281 1.9952346-1.9948281c.1642369 0 .3199367.0191068.4723844.0581334.0504093 1.3159279.0504093 2.6200666.0390266 3.8652589" fill="#eba771"/><path d="m51.6989351 17.5917249c0 1.1029078.8935464 1.9964542 1.9960477 1.9964542 1.1025012 0 1.9964542-.8935464 1.9964542-1.9964542 0-1.1020947-.893953-1.9960476-1.9964542-1.9960476-1.1025013 0-1.9960477.8939529-1.9960477 1.9960476" fill="#eba771"/><g fill="#121b46"><path d="m60.5825668 13.7186201c0 .6520693.2585511 1.1801479.5768618 1.1801479s.5764553-.5280786.5764553-1.1801479c0-.6520694-.2581446-1.180148-.5764553-1.180148s-.5768618.5280786-.5768618 1.180148"/><path d="m62.3361211 12.1651584c-.0975665.1910677-.2256225.3573372-.390266.5032804-.1626108.1459432-.3703461.2589577-.6032861.3126193l-.0097566.0020326c-.1146406.0264243-.2292813-.045531-.2557055-.1601716-.0264243-.1150472.045531-.2292812.1601716-.2557055.0187003-.0040653.0382136-.0056914.0565073-.0052849.3223759.0126024.6801197-.1837502.9244424-.4683191l.0040653-.0044718c.0247981-.0292699.0682965-.0325221.0971599-.007724.0247982.0211394.0304896.0561007.0166677.0837446"/><path d="m54.0861024 13.5590176c.2443228.2845689.60166.4813279.9244425.4683191.1174863-.0044718.2170854.0869968.2215572.2044831.0048783.1178928-.0869968.2170854-.2048896.2219637-.0187003.0008131-.036994-.0012196-.0548812-.0052848l-.0109762-.0020327c-.23294-.0536615-.4402688-.1670826-.6028796-.3122127-.1646434-.1459432-.2926994-.3126193-.3902659-.503687-.0174807-.0337417-.0040653-.075614.030083-.0926881.0284569-.0150415.0630117-.006911.083338.016261z"/><path d="m54.85391 14.0572571c.2008243-.2142398.4105923-.3561177.6597933-.4654735.2455424-.1036644.5175089-.1577324.7837841-.1369996.2650557.0231721.5187285.1000057.743538.2195246.114234.0552877.2142397.1325278.3207498.1979787l.2866015.2353791c.0544746.044718.0621986.1256169.0174807.179685-.0426854.0520354-.1174863.0617921-.171961.0239851l-.0121958-.0085371-.278471-.1955395c-.1000056-.0500028-.1935068-.112608-.2959516-.1524476-.2016374-.0890295-.4142511-.1317148-.6219864-.134967-.2077353-.0004065-.4097792.0577268-.5931229.1516346-.1800915.091062-.3561177.241477-.4687256.3817288l-.0113828.014635c-.0817119.1024448-.2313139.1191124-.3333522.0365874-.1024448-.0817119-.1187058-.2309073-.0369939-.3329456.0036587-.0048783.007724-.0097566.0121958-.0142284"/><path d="m60.8271334 17.2892282c-.2000113.3890463-.5040935.7248376-.8691547.9882671-.3638417.2626165-.819965.4317317-1.2903168.428073-.4670995-.0117893-.925662-.1707414-1.2846254-.4431145-.1886285-.1231776-.3353848-.2959516-.497589-.4427079-.1357801-.1748066-.2679013-.3500197-.3870138-.5305177.1780589.1300886.3402632.2691208.503687.4032748.1813111.1105753.3435153.2463553.5272656.3382304.3581503.2052962.7492292.3174976 1.1394952.3244086.3927051.0097567.7833775-.1146406 1.1447801-.3093671.3601829-.1991982.6992264-.4569363 1.0134718-.7565467"/><path d="m59.2697284 19.3817853c-.1642369.1455367-.3894529.1983852-.6065383.2057027-.218305-.0073175-.4402688-.0662639-.6073514-.2057027.2130202.0337418.4069336.0756141.6077579.06789.2000113.0081306.3959573-.0268307.6061318-.06789"/><path d="m57.2219705 9.62513692c-.2687143-.23863136-.5732031-.31627802-.8931398-.33050646-.3174976-.00731749-.6427192.02967647-.9512732.13496697-.3113997.09512732-.5984078.26993393-.8378522.47970188-.2500141.20204389-.4256338.46953869-.5719835.73296819-.073988.1333409-.0256112.3012365.1073231.3752245.1065101.0593529.2353791.0402461.3207498-.0378071l.023172-.0215459c.187409-.172774.367907-.3345717.5695444-.452058.1931003-.1304952.4114053-.2016374.6284908-.2581447.219118-.0508159.4475862-.0780532.6813392-.0662639.2296878.0081305.4748236.0199198.7276834-.0418723l.0727683-.0178872c.1548868-.037807.2500142-.19431988.2122071-.34920667-.0146349-.05935295-.0467506-.1097623-.0890294-.14756931"/><path d="m60.1033934 9.62513692c.2691209-.23863136.5736096-.31627802.8931398-.33050646.3174976-.00731749.6427192.02967647.9516798.13496697.3113997.09512732.5980012.26993393.8378522.47970188.2496075.20204389.4256337.46953869.5715769.73296819.073988.1333409.0256112.3012365-.1073231.3752245-.1065101.0593529-.2353791.0402461-.3207498-.0378071l-.0227655-.0215459c-.1878155-.172774-.3683135-.3345717-.5699509-.452058-.1931003-.1304952-.4109988-.2016374-.6284908-.2581447-.219118-.0508159-.4475862-.0780532-.6809327-.0662639-.2300943.0081305-.4752301.0199198-.7280899-.0418723l-.0723618-.0178872c-.1552933-.037807-.2504207-.19431988-.2126136-.34920667.0146349-.05935295.0467506-.1097623.0890294-.14756931"/><path d="m58.7964903 11.9154288c.1020383.4447406.1772458.8866355.2593643 1.3240585.0853706.435797.1654564.8711874.2898537 1.2846254.0284569.1040709.0605725.2061092.0975665.3048953.0296765.0804923.1024448.2357856.1000056.3809158.0150415.2943255-.173587.5829597-.4138445.699633-.2455423.1378126-.5284851.1162667-.7520749.0402461-.2272486-.0817119-.4248208-.2048896-.5959686-.3565241.4138445.1556998.8972051.2772514 1.1882784.0573203.1463498-.111795.225216-.2597708.2048896-.421162-.007724-.0829315-.0337417-.1357801-.0865902-.2618034-.044718-.1105754-.0837446-.2219638-.1166733-.3337587-.1264299-.4496189-.1918807-.903303-.2170854-1.3578002-.0264242-.4540907-.0170741-.9085879.0422788-1.360646"/><path d="m46.1957382 15.644054c-.0069109-.2711535.0682966-.5711705.3073345-.7813449.2540794-.2081419.6158884-.1890351.8902941-.0857772.2914799.1012252.5309243.3008299.7191463.5244198.1922873.2264356.3325391.4715713.4463667.7541076.0410592.1004122-.007724.2150528-.1081362.256112-.0764271.0304896-.1601716.0105697-.2138332-.0443114l-.0134154-.0134154c-.1914742-.1947264-.4329513-.4028683-.6610129-.4670995-.1138276-.030083-.1983852-.0264243-.2772515.0304895-.0817119.0573203-.1447236.1796849-.1983851.3061148-.1008187.2585512-.1609847.5614138.0597594.6809328.2313139.1321213.570764.1004122.8732201.060166-.2857885.1252103-.6012535.2305008-.9598103.1284625-.1817176-.0585399-.3268477-.2658686-.338637-.4524645-.0174807-.186596.0089436-.3561177.0561007-.5223873.0491898-.1638304.1178928-.338637.2788775-.4825475.164237-.1467563.4207555-.1809046.6040992-.1243973.3731918.112608.6256451.3280673.8602112.579301l-.3353848.1983852c-.1813111-.4520581-.4776693-.9224098-.9065553-1.1342104-.2142397-.1024448-.4679126-.1544803-.6707696-.0406527-.2122071.1105753-.3402631.3703461-.4122184.6301169"/></g><path d="m63.1356784 5.5636068c-.2577381-1.11063181-.7171137-2.13792558-1.5008978-2.9928519-1.6724521-1.828152-4.3437411-2.32574107-6.8162385-2.38265485-1.6675738-.04268534-3.3818982.08089888-4.8840155.81020835-2.3680199 1.14112133-3.7941167 3.56158319-5.5324262 5.53242617-2.595675 2.94610129-6.1292078 5.04947213-9.9562532 5.93041613-3.1310711.7199593-6.3853198.6301169-9.592005.9191576-3.2022133.2841624-6.5129693 1.022822-8.9712382 3.0977359-1.9139292 1.6102535-3.2261984 3.9644514-5.4572186 5.0966292-1.23624871.6345886-2.64771051.8240302-4.03071542 1.0085935l-2.26435549.293919c-3.32986279.4406753-5.2153351 4.1636497-3.4623906 7.034137.00935012.0187002.02357857.037807.03292869.0613856 1.15128451 1.8476653 3.0034216 3.2827056 3.70427418 5.3478629.639467 1.8903506.19919824 3.9599797.35083281 5.9495229.24594885 3.1257862 2.02206539 6.0251369 4.48074079 7.9715883 2.45826884 1.9468579 5.54665464 2.9940715 8.66349724 3.3351476 1.1415279.1276495 2.2924059.1609847 3.4432839.1040709-.1512281-1.5159392.2796905-3.0790356 1.2793405-4.334391 1.3260911-1.6578172 2.6521822-3.2253854 3.9506295-4.6986393.0182937-.0235786.0422788-.0475636.0662639-.0711422l-.2370052-.2178985c2.9985433-4.3388628 13.182045-14.1296595 16.3509231-13.8406188.7626447-.1756197 1.4781323-.1707414 2.1269494-.0239851.2272486-.037807.459782-.0565073.691909-.0662639 1.1980351-.0422788 2.1692281-.2939191 2.9554514-.6532889 1.2553554-3.9221727.1089492-11.202665-.1187059-12.5336345-.4447406.037807-1.060629-.0662639-1.2029134-.1182994-.5589747-.2134266-1.0890859-.6821523-1.4114618-1.1842132-.3931117-.6016599-.5398679-1.3736548-.3219694-2.0606854.2536728-.7919146 1.0573767-1.4326012 1.8992942-1.3480436.3955508.6732087.8720004 1.2984473 1.4277229 1.8472588.1723674.1699283.3801027.3435153.6215798.330913.3142454-.0166676.5154762-.330913.6630455-.6089775.1898482-.3573373.5187285-.7248377.7081701-1.0821749 2.2472813.128056 4.5307436-.8707809 5.9621252-2.60827737.4382362-.5325504.797606-1.12445373 1.1549433-1.71391791.4784823-.78906894.9569646-1.57813788 1.4354469-2.36720682 1.0626616 1.1842132 2.738366 3.32417142 4.31813 3.51401954 0 0 .0504093-1.55415279-.5276721-3.27782734" fill="#3a3a3a" transform="translate(0 2.126949)"/></g></g></svg>