<svg height="24" viewBox="0 0 24 24" width="24" xmlns="http://www.w3.org/2000/svg"><g fill="none" fill-rule="evenodd"><circle cx="12" cy="12" fill="#f1f9fd" r="12"/><path d="m13.8418521 19.01451-.1300011.1408677c-.4587546.5305044-.6956104 1.1860003-.7110442 1.8455486l-8.0008068-.0009263c-.55228475 0-1-.4477153-1-1v-14c0-.55228475.44771525-1 1-1h13c.5522847 0 1 .44771525 1 1l.0004181 8.2013381c-.364814.1426959-.7068186.3612423-1.0017652.6556392l-1.8254709 1.8258141.0732627-.0699832c-.1459421.139538-.3221153.3133915-.5144272.5098681l-.0646587.0659838z" fill="#002f5f"/><path d="m22.2276742 15.7712796c-1.0302928-1.0283728-2.6985938-1.0283728-3.7288866 0l-1.6429238 1.6432326 3.7288544 3.72919 1.642956-1.6432327c.4945092-.4945041.7723258-1.1652254.7723258-1.864595 0-.6993695-.2778166-1.3700908-.7723258-1.8645949z" fill="#38649a"/><path d="m14.7576669 19.513059c-1.0159029 1.0321309-1.0093671 2.6904911.0146396 3.7145811 1.0240066 1.02409 2.6822177 1.0306121 3.7142469.0146088l1.6429239-1.6432326-3.7288544-3.7292222z" fill="#002f5f"/><path d="m18.2247795 0h-13.48564751c-.40672742 0-.73913199.29989991-.73913199.66680599v2.66638802c0 .36692808.33242895.66680599.73913199.66680599h13.52173601c.4067274 0 .739132-.29989991.739132-.66680599v-2.66638802c-.0361958-.36692808-.369566-.66680599-.7753424-.66680599zm-11.52711355 2.76603935h-.73913199v-1.53300262h.73913199zm2.58593783 0h-.73913199v-1.53300262h.73913199zm2.54984932 0h-.739132v-1.53300262h.739132zm2.5859378 0h-.739132v-1.53300262h.739132zm2.548874 0h-.739132v-1.53300262h.739132z" fill="#002f5f"/><path d="m14.8313215 10.7782447-2.9440304-3.60417523c-.1746917-.2138631-.4896776-.2456178-.7035407-.0709261-.0259613.02120619-.0497242.04496941-.0709301.07093098l-2.94408316 3.60433245c-.73283551.8859434-1.07369104 2.0511191-.9404029 3.2113989.13390832 1.175989.73649728 2.2386898 1.66041446 2.9294753l2.2312867 1.6557859c.1093291.0811306.2418601.1249331.3780035.1249331.1361524 0 .2687012-.0437514.3781005-.1248023l2.2350709-1.6559037c.9239639-.690899 1.5265497-1.7534701 1.6604144-2.9294753.1333988-1.1603252-.2074521-2.3255982-.9403032-3.211574z" fill="#f1f9fd"/><path d="m14.2115408 11.3305909-2.7114979-3.3305909-1.187547 1.45902017-1.52398892 1.87170313c-.59649402.7235257-.87393458 1.6750928-.76544422 2.6226616.10899513.960398.59947452 1.8282767 1.35150013 2.3924223l1.90688861 1.4542645v-1.8220647l-1.68595081-1.7599596c-.08620506-.0894716-.08620506-.2342773 0-.3237515.08570916-.0894716.22442563-.0894716.31013732 0l1.37585149 1.4357182v-1.8628325l-1.2489835-1.3032943c-.05548808-.0579238-.07679171-.1422213-.05647862-.2213553.02031309-.0791287.07926872-.1406723.15507502-.1618824.0758012-.0212048.1565589.0010343.212047.0589579l.9383388.9795295v-2.4151947c0-.1261907.0975995-.2280812.21849-.2280812.1208855 0 .21849.1018839.21849.2280812v2.4151947l.9383388-.9795295c.0554881-.0579239.1362408-.0801627.2120471-.0589579.0758012.0212048.1347568.0827484.155075.1618824.020313.0791287-.000991.1634315-.0564787.2213553l-1.2489835 1.3032943v1.8628325l1.3758515-1.4357182c.0554881-.0579239.1362408-.0806804.212047-.0594756.0758012.0212048.1347569.0827484.155075.1618824.0203131.0791286-.0014861.1634314-.0569745.2213553l-1.6859508 1.7599596v1.8220541l1.9068886-1.4542539c.7520637-.5642383 1.2425405-1.4320111 1.3515001-2.3924223.1085804-.9476058-.1688563-1.8992524-.765363-2.6228046z" fill="#38649a"/></g></svg>