<svg height="24" viewBox="0 0 24 24" width="24" xmlns="http://www.w3.org/2000/svg"><g fill="none" fill-rule="evenodd"><circle cx="12" cy="12" fill="#f1f9fd" r="12"/><path d="m12.4871111 5.04051469v-2.26666816c0-.27225511-.2194441-.4923077-.4898133-.4923077h-4.73149632c-.27036444 0-.48981333.22097873-.48981333.4923077v2.25268065h5.45185185c.0879621 0 .1740729.00652687.2592711.01398751z" fill="#38649a"/><path d="m7.44177778.74592075h1.26945185v.78881417h1.84073477v-.78881417h3.1388445c.2046293 0 .3703704-.16690007.3703704-.37296038s-.1657411-.37296037-.3703704-.37296037h-6.24900742c-.20462933 0-.37037037.16690006-.37037037.37296037s.16574104.37296038.37037037.37296038z" fill="#002f5f"/><path d="m14.3981037 15.3762312h4.5463704v-1.8732039h-4.5463704z" fill="#002f5f"/><path d="m19.0193778 16.79909h-.7898074v-.6759832l-3.2805926-.0009324v.6759832l-.6268445.0009324c-.3268503 0-.5925926.2666696-.5925926.5967366v.6107241l5.8823112-.0009324v-.6097932c0-.1585075-.0620374-.3104939-.1731485-.4223701s-.2620444-.1743593-.419437-.1743593z" fill="#38649a"/><path d="m13.7296593 22.8998862c0 .3291361.2657422.5967366.5925926.5967366h4.6971259c.3277748 0 .5925926-.2676005.5925926-.5967366v-4.1482741h-5.8823111z" fill="#38649a"/><path d="m13.6575068 12.7560802h.7435141v-4.7953753c0-1.20839161-.9731555-2.18835245-2.1731555-2.18835245h-5.40823707c-1.07870815.15850756-1.87778371 1.0899752-1.87593802 2.18835245v14.6723207c0 .2293713.0898189.4484834.25185505.6107241.16111171.1622384.37963852.2526822.60740741.2526822h7.33155553c-.094445-.184616-.1435188-.3888097-.14537-.5967366v-5.5047758c.0018519-.5799563.2553061-1.1487657.6677506-1.2727198z" fill="#002f5f"/></g></svg>