<svg height="24" viewBox="0 0 24 24" width="24" xmlns="http://www.w3.org/2000/svg"><g fill="none" fill-rule="evenodd"><circle cx="12" cy="12" fill="#f1f9fd" r="12"/><path d="m13.2594827 13.6439911c.0245806-.0094681.0524386-.0497075.0732866-.0577189.0860321-.0329562.1731567.0393289.2245939.053349.1227209-.0007283.2459881-.002276.3688911-.0033685.0372351.0139291.0673691.060268.1172586.0737419.1147095.030316.1649632-.0793863.2743014-.0405125.0121992.0111068.023215.0234881.034959.0355053.0374172.0221225.1140722.0400573.1538564.0512551.0790221.0101054.1584083.0202107.2369752.0294057.0233971.0244896.0468853.048615.0697361.0731956.087944.0327741.189999-.0047341.2613738.041787.0645468.0416049.1296399.1277281.1865394.1821696-.0528938.3622452-.3363901.5740026-.5895703.7326841-.0323189.0390558-.0643648.0784758-.0969568.1166213-.0605411.0345949-.115802.0286773-.1569517.0795683-.0312265.0389648-.0573548.1117962-.0985956.1399274-.0357784.0113799-.072012.0217583-.1079725.0330472-.0285864.0150215-.0541684.0573548-.0846666.069554-.0365067.0029133-.071921.006919-.1073353.0084667-.0839382.027858-.1100664.1023281-.1706076.1512162-.0398752.0100143-.0799324.020939-.1197166.0331383-.0245806.0221225-.0481598.0451555-.0732866.0685526-.095045.0598128-.1871768.0731045-.2647422.1481209-.0322279-.0010015-.0543505-.0011835-.0713748-.0132918-.0607232-.0888543-.004552-.1981014-.0401483-.3091693-.0101964-.0313176-.0579921-.0596308-.069554-.0848486.0006372-.0234882.0009103-.0477046.0014566-.0713748-.0065548-.0258552-.0384186-.0615426-.0455197-.0841203.0002732-.0319548.0012746-.0634544.0026402-.0947719-.0233061-.0752895-.0969568-.1607754-.1260894-.2284175-.0466121-.1097024-.0535311-.1957345-.1118873-.2870469-.0229419-.0247627-.0466121-.0482508-.0700092-.0728314-.002458-.0405125-.0060086-.0793862-.0091949-.1198077-.0170244-.0514372-.0746522-.104422-.0916766-.155313-.0015477-.0751074-.0039147-.1515804-.0065548-.2264147-.0249448-.0759267-.0960465-.1271818-.101873-.227325.2227731.0054623.4390825.0152035.6084155-.0449734zm-1.4944097-2.2534952c.0118351.0005463.023215.0005463.0356874.0008194.0642737-.0912214.1717001-.1187152.2302383-.1960986.1174407-.1515804.2605544-.2678375.4138646-.3818187.0252179-.0340487.0494343-.0701913.074197-.1038758.0477956-.0345039.1034206-.0359605.1563144-.0677332.0748343-.0468853.1293668-.1486672.2067502-.1974642.0491612-.0314086.1091561-.0355053.1564055-.0673691.0287684-.0304981.0572637-.0619977.0854859-.0924049.0360515-.011653.0716479-.0223956.1073353-.0336845.025491-.0233971.0211211-.0731045.0492522-.0922228.053258-.0390558.1478478-.0338666.1931854-.0798414.0276759-.027767.0157497-.08320991.0492522-.10560557.0501626-.03168167.1328263-.01292758.1801667-.04251534.0327742-.03122647.0654573-.06254398.097412-.09258694.0320459-.0034595.0636365-.0076473.0955002-.01028744.0591756-.02093903.1192615-.08239054.1696972-.11480053.1144364-.07010024.2330606-.07274038.3722596-.12135535.0619978-.02166734.1382887-.07856689.2042011-.10141775.1516715-.05362213.4052158-.01056055.5953969-.00992328.0914944 0 .171609-.02749386.2611006-.00600859.0795683-.0020939.1600471-.00364157.2389781-.00646379.2478089.07929521.3861886.20656811.5629869.34594924.0612694.0479777.1439331.09495396.2103917.11161415.0479777-.05972176.1612306.09258699.224776.11170519.0406035.0664587.1178048.1514893.1375603.2291459.0303161.1172585-.0352322.2224089-.0660034.28295-.1026013.2057488-.3972954.322188-.604865.4246072-.1881781.0925869-.3213686.2510863-.6009502.2465343-.0733777-.0713748-.1493044-.1208091-.1488492-.2648332.0318637-.0270387.0633633-.0543505.0738328-.1036937.0223957-.0387828.1339188-.0799325-.016387-.1117052-.0120172-.0213943-.1454808-.173794-.1426586-.2011058-.1351933-.0349591-.1493044-.157589-.2817665-.1845366-.1114321-.0244896-.1584084.0891275-.2169466.12527-.043881.0147484-.0877619.0302251-.132189.0442451-.0998701.0603591-.1827159.1086099-.324373.134283-.0396931.1619588-.1056055.1138901-.2416182.1727925 0 0-.1378335.1070622-.1458449.1146184-.044063.0417871-.0498895.1424765-.099506.1757969-.0425153.0290415-.0920407.0229419-.1432958.043972-.0601769.0246716-.1169854.0838471-.169333.1147094-.0284043.0066459-.0559892.0142932-.0843934.0218495-.0552609.037235-.0599039.13228-.0998701.1875409-.0515282.0726493-.1516714.1024192-.2060219.1727015-.0479777.062726-.0729224.1393811-.1236313.1989208-.0264924.0320458-.0936794.0263103-.1203539.0571726-.0257642.027676-.0180258.0872157-.0385096.1171676-.0203928.018572-.0395111.0386006-.0606322.0572637-.0289505.0447913-.0169333.0839382-.0389648.1420213-.0155677.0399662-.0618157.0836651-.0745612.1284564-.0203928.0726493.0197555.1752506.0304071.2378856.1005984.0311354.0738329.1125245.1379245.1698793.1120694.0887633.3056189.0745612.4506444.1050593.0442451-.0031864.0875798-.0058265.1308235-.0084666.0386917.0122903.0538042.0600859.0820264.0726493.0796593.0352322.1720642-.0703734.2867737-.0286774.0176616.0067369.0388737.0423333.0575368.048615.0358695.0016387.0711927.0016387.1073353.0026401.083483.023033.2499938.0778386.3548711.055534.0404214-.0081025.0806608-.020848.143751-.0203018.1085188.0029133.1872678.0524387.2856812.0308623.0559892-.0128365.444909-.0445182.5241131-.0118351.0130187.0064638.0404215.0427885.0570817.0490702.0629991.0256731.1558592.0368709.2141243.0520745.0511641.0020939.1035117.0029132.1542206.0041878.0252178.0065548.0599948.0422422.0819353.0498895.0558071.0010925.1116142.0018208.1666019.0032774.0103785.0037326.0363247.0318638.0468852.0365068.0994149.0435167.1897259.0450644.2716612.1014177.030225.0361426.0618157.0727404.092678.1091561.0349591.0167512.0708285.0329562.1059697.0498895.0359605.0436078.0335024.0968658.0559891.1554951.0406036.1072443.1662378.4207835.1168034.5840169-.0333203.111068-.08585.2252312-.0919496.3773578.0406945.0144753.0443361.0348681.0703733.0606322 0 .0737418.0029133.1703345-.0294967.2123946-.0248537.0638185-.2882303.3054368-.3537786.3718955-.0281311.0193003-.0562623.0381454-.0842113.0570816-.0264014.0518013.0006372.1017819-.0271297.1411108-.0684616.09723-.2315129.1466643-.326831.217857-.0210301.0310444-.0410587.0629082-.0622709.0935884-.0689167.0523476-.1558592.0752895-.2288727.1259984-.0597218.0415139-.0984135.1216284-.1578621.1622319-.0360516.0226688-.0824816.0203018-.1201719.0442451-.0426064.0263104-.0708285.083483-.1212643.1036938-.0578099.0241254-.1189883.0130186-.1676033.0434257-.0285863.0273118-.0573547.0538952-.0853948.0809339-.0279491.0039147-.0563533.0073742-.0840293.0101964-.0157498.0192093-.0320458.0391469-.0485239.0576279-.0630902.0397841-.1632334.0257641-.2282355.0664586-.062726.039329-.1269998.111068-.1928212.1493955-.0568085.0148394-.1123424.0292236-.1678764.0435168-.0711016.0447002-.0793862.1659646-.159956.1982835-.0656393.0503447-.1840814-.0060996-.2742103.0289505-.0380544.0145663-.0592665.0651841-.0970478.0807518-.0666408.0257641-.1184421.0060997-.1910915.0311355-.0616336.0205748-.1578621.0687346-.2285996.0893095-.0356874.0030043-.0712837.0062817-.106607.009286-.0792041.0285863-.1746133.1488492-.2790353.1837172-.0437899.0020029-.0866694.0056445-.1306414.0084667-.0489791.0154767-.1009626.0621798-.1562234.0784759-.1681495.0514371-.3490446.06045-.514554.095227-.0514372-.0012745-.1035116-.0025491-.1545847-.0037326-.0351411.0100143-.0889453.0465211-.1327352.0568996-.0952271.020939-.2795816-.0012746-.3566009-.0203018-.1184421-.006919-.2374304-.0142021-.3555083-.0207569-.1331905-.0336846-.2854992-.0631813-.4039413-.092678-.0203017-.0368709-.0500716-.0891275-.0796593-.1208091.0003641-.1276371.0402393-.1720643.0660034-.2706598.0751985-.0430616.138926-.1061518.2051115-.1502148.0321369-.0097412.0642737-.0222136.0957733-.0327741.025491-.0204839.0343218-.0644558.0623619-.081025.0399663-.0110157.0793863-.0219405.1200808-.0333204.0489792-.0305892.0802967-.0940435.1453898-.1151647.1436599-.0437898.3483162.0027312.4882436-.0477956.0364157-.0122903.0652751-.062544.0981403-.0805697.0498895-.0297699.1004163-.0279491.1555861-.0561713.0426975-.020939.0738329-.0740149.1207181-.0915855.0281311-.0032774.0563533-.0065548.0842113-.0101053.0424243-.0218495.1294579-.0962285.1808951-.1255432.0971389-.0567175.2282354-.0605411.3247371-.1107037.0497074-.0272208.0832099-.0986866.1216284-.1397453.0377813-.0406035.0760178-.0308623.0861232-.1050594-.0083756-.0005462-.016114-.0005462-.0238523-.0008193-.0654572-.0548056-.1406557.034686-.2140333-.0166602-.0037326-.0015477-.2206792-.1818965-.2220448-.1828979-.0318638-.0508909-.0261283-.1178048-.0557161-.1675123-.0156587-.0274028-.0568995-.0539862-.0687346-.0844844-.0237613-.060177-.0137469-.1063339-.0437899-.1557682-.0473404-.0482508-.0933153-.0966837-.1402005-.1451166-.0025491-.0358695-.0058265-.0712838-.0096501-.1072443-.0126545-.0447913-.0457928-.0839382-.0674601-.1198987-.0083757-.0003641-.0167513 0-.0243075-.0012745.0003641.0790221-.0163871.1348291-.0634544.1651452-.159865.1083367-.2394333-.1514893-.2922361-.2321501-.0424243-.0408767-.0849396-.0812981-.1283653-.1220837-.0295878-.0457017-.0102875-.0824816-.0316817-.1426586-.0118351-.0317727-.0560802-.0537131-.0697361-.0850306-.0335025-.0802056-.0272207-.1418392-.0666407-.2143975-.0477957-.0896737-.1386529-.183171-.1837173-.2772146-.0201197-.0424243-.0102874-.0826637-.0329562-.1198987-.0505268-.0863963-.1328263-.1524908-.1731567-.2530892-.0396931-.101873-.0365068-.2041101-.0882171-.298973-.0415139-.078749-.1354664-.1419302-.1965538-.206295-.0446092-.0457927-.0659124-.1158019-.1396542-.1340098-.0117441.0213942-.0423333.0495254-.0493433.0708286-.0230329.0642737.0040057.1187152-.027767.164781-.0400573.0582652-.1330084.0898558-.1702434.1514894 0 .0113799-.0006373.0227598-.0010015.0344128-.020939.0352322-.0693719.0639096-.0864873.1049683-.0035505.0358695-.0084666.0709196-.0129275.106607-.0174796.011653-.0328652.023215-.0493433.0341397-.0336846.046248-.0411498.1054235-.0748343.1527639-.0368709.0517104-.1031475.1074264-.134465.1632335-.0048251.0264924-.00919498.0541683-.0136559.0823905-.02312398.0443361-.07874898.0467032-.10961129.0808429-.0280401.0293146-.02676555.0961375-.05079991.1287295-.0653662.0902199-.15840834.176252-.22022401.2678376-.06809737.1012356-.0797504.2293279-.15048792.3285607-.02895049.0224867-.05708162.0457017-.0848486.0686436-.01702434.0263104-.00846665.0477046-.02512684.0706465-.02840425.0228508-.05699058.0462479-.08557692.069554-.02576411.0480687-.01046951.1003253-.03869169.1412019-.02767594.0266745-.05735474.0548967-.08493964.0808429-.02822218.0675511-.0152946.1238134-.05189239.1767072-.04151391.034686-.08102495.0689167-.12199262.1045131-.03759922.0490702-.03914689.1203539-.07474325.1759789-.07538052.1164392-.1998312.2478089-.25946193.3735341 0 .0192093-.00045519.0397842-.00081935.0582652-.02011968.0565354-.06418269.1330084-.09996112.187814-.05016264.0772013-.14520764.1732477-.18453661.2563666-.0050982.0362336-.00928601.0713748-.01347381.1065159-.02439853.0406036-.09468085.0570817-.12144639.092496-.05089096.0653661-.04278846.1687868-.08940057.2353365-.02822218.0263103-.05644435.0541683-.08475756.0803877-.04215119.0943166-.08466653.1889064-.12645356.2811292-.02785801.0282222-.05644434.0543505-.08512172.0816623-.00473404.0428795-.00937704.0869425-.0148394.129913-.03596051.0349591-.0725583.0698271-.1094292.10424-.03805442.0639095-.02685659.1407467-.06390957.2014699-.05462357.0843023-.11807794.1926391-.17342982.2796726-.02895049.0457017-.03149959.0977762-.0623619.1402916-.02476269.0197555-.04852394.0393289-.0734687.058174-.08175326.1328263-.11097687.2839515-.19946705.4104961-.03841857.0538953-.11279766.1086099-.1467553.1623231-.00427885.0193003-.00946809.0390558-.01329174.0587203-.02430748.0196645-.04934328.0386917-.07292246.0584472-.01793473.0312265-.00300429.0597218-.02567307.0816622-.01811682.0175706-.0500716.0061907-.07246726.0216674-.0250358.0191182-.02867737.0816622-.04961641.1073353-.04433612.0501626-.1349202.0777475-.16987928.1373782-.060268.1036938-.06809738.1975553-.11416325.3180002-.02112111.0522566-.07246726.1031475-.09923281.1513983-.03386661.0595397-.02958776.1397453-.09914177.1629603-.04843289.0328652-.15403845.0218495-.21457957.0076473-.00728314-.0127455-.01502148-.0237612-.02239566-.0370529-.07692818-.1009626.07419701-.4184165.09613747-.530668-.05207446-.0091949-.08958264-.016296-.10642491-.0619977-.07383285-.0846665.0802056-.3653406.11807794-.4363513.01684227-.0334114.01793474-.0980493.03841858-.1410198.02385229-.0508909.07738338-.0932242.09859553-.1515804.02285086-.0619067.00864873-.1259983.04014832-.1776176.07037336-.1188973.16833162-.2617379.2350634-.3857334.00883081-.0352322.01766162-.0708286.02649243-.1068801.02021072-.0357784.0674601-.0755626.08612315-.1155289.01675123-.055807.03386661-.1101575.05152823-.1649631.04934329-.081025.12290302-.1767072.16059328-.2691121.02194047-.0528938.01119783-.0987776.03905585-.141475.06700491-.1053325.17179111-.2325143.22231791-.3508654.05116407-.1184421.08266366-.2245939.1502148-.3276503.07984144-.1221748.19436885-.2558204.25927985-.3855514.0581741-.1152557.08940057-.2489924.16277822-.3525951.04297054-.0591755.1052414-.1216284.14693739-.1857201.02995192-.062635.05890241-.1253611.08767082-.1879961.02121215-.0145663.04078559-.0304071.06145151-.0452465.02512684-.04643.01283654-.0908572.03878273-.1307324.1548578-.238796.29432997-.516921.45792755-.7480697.02048383-.0584472.0424243-.1173496.06345437-.1757969.0454286-.0711927.11434533-.1540384.15977392-.2223179.01675123-.0501626.03459493-.1015998.05152823-.1529459.03605156-.0338667.07274038-.0689168.10988441-.1038759.04934328-.069554.05070887-.1635065.10041632-.2351544.03923792-.0559892.12536107-.1315518.15931872-.1973731.02931465-.0568086.02121215-.1006895.05070888-.152855.07392389-.1317338.20447421-.2636497.23670211-.4344394-.05972176-.0363247-.10369373-.1698793-.04142287-.2498118.03641571-.0963195.16632875-.2302383.22168063-.3146317.09795826-.1492134.14739259-.3215507.24799098-.4684881.05280278-.0756536.24271067-.0923138.26547057-.1355575.0065548-.0076473.0360515-.0518924.037144-.057992-.0000911-.0132007.0005462-.0249448.0009104-.0358695-.0122903-.0123813-.0237613-.0248537-.0355053-.0375992.0060085-.0585382.0110157-.1177138.0168422-.1774355-.0345039-.0558071-.0688257-.1109769-.1035116-.1678765-.0064638-.0477956-.013929-.0955002-.0206659-.1427495-.02567312-.0561713-.10332962-.1576801-.13792455-.2166735-.03878273-.0685526-.03040712-.139017-.06582139-.21549-.01147095-.0077383-.0233971-.016205-.03486804-.0238523-.02785802-.0462479-.02731179-.0995059-.0560802-.1440241-.04297053-.0365978-.08585003-.0727404-.12891161-.1096113-.0076473-.0365067-.01411109-.0722852-.02121215-.1075174-.02239566-.0471583-.08084287-.0899468-.10405789-.1450255-.04433613-.1086099-.05462356-.22395663-.11115895-.32246112-.03413973-.06017696-.10323854-.10851882-.13883489-.16997033-.03905585-.06591243-.02485373-.17188215-.06545724-.23815874-.02722074-.02867737-.05453253-.05644435-.08129807-.08566795-.02403437-.03687091-.01556772-.07501637-.03277414-.11862418-.02448957-.05762786-.07920417-.10997544-.10323854-.16860473-.04215118-.10150879-.06773322-.20447421-.12426861-.29979233-.04105871-.06809738-.10587867-.15121623-.13774242-.2283265-.02412541-.0577189-.02640139-.10423997-.05553395-.15558612-.00928601-.01620499-.04014832-.03996624-.04633899-.05990384-.01729747-.05444149.01037847-.10606075-.02103008-.14311374-.01137991-.00373261-.02285085-.00864873-.03468596-.01356485-.02348813-.02348813-.05353109-.07938625-.06909881-.10724426-.01156199-.03586948-.02175839-.07173895-.03359349-.10851882-.0152946-.02585515-.0454286-.04907017-.05680851-.08493964-.00345949-.02649243-.00691898-.0547146-.01010536-.08184431-.03395765-.06782426-.10961128-.14074671-.13737826-.21712866-.00755626-.03978417-.01365589-.07920417-.02112111-.11898834-.01638707-.02958776-.05608019-.06591243-.06946297-.09622851 0-.01638707.00072832-.0317727.00072832-.04743146-.02212255-.03623363-.08921849-.02339709-.1052414-.07383285-.02712971-.08621419.05234758-.19364054.10032528-.21157527.08193534-.06117839.24189135-.03532324.3576933-.03914689.01647811-.17042552.07456117-.09358837.18162335-.13828866.01310966-.01411108.02485372-.03004296.03677987-.04561067.06682283-.0407856.15731586-.06454685.25199671-.06545724.06709594-.00127455.14384205-.04615691.20192511-.00701002.05635331.02212254.08985576.08056975.14074671.10961128.04260638.02476268.11234247-.00455196.16651084.01620499.05252966.01948241.0665497.09586436.10351165.13273526.02813114.02749386.07410597.02512684.10596971.0500716-.00009104.00400573-.00036415.00773834 0 .01183511.02740283.02494476.0136559.03723506.03423077.07155687.05070888.04433612.1005984.08958264.15085208.13391877.0428795.07064648.04770458.24917449.08876329.31053496.02430749.03668883.10169089.04597483.12909369.08621419.0215763.0326831.0112889.08220847.032501.11998977.0319548.05999488.0922228.10933816.127364.16860473.0422422.07319558.0489791.16332446.0890364.23979745.0382365.07173895.1072442.15849937.1500327.22814442.0108337.04406301.0211211.08757978.0319548.13218902.0206659.03878273.0775654.07201207.0924959.12017184-.0007283.02357918-.0014566.04697627-.0024581.07064648.0123814.03423077.0553519.07410597.0693719.10860985.0032775.02421645.0071011.04743147.0104696.07182999.0435167.11006648.125361.21913153.1829889.31308406.0470673.07701923.0522565.17415813.0889454.2631035.0246716.05790098.081298.10032528.0914034.17980257-.0088308.05070887-.018572.10241918-.027858.15376533.0732866.04124079.0564443.11552884.1641438.12190159.0322279-.03887377.0613605-.04260638.0740149-.10460413-.1671481-.08967368.0223957-.35086536.0812981-.4378989.2717522-.3908316.4963461-.80924811.7084676-1.26417136.0483419-.10369373.145936-.21913153.2099366-.31454069.0361426-.05507876.0304071-.11744066.0635454-.17679827.0233061-.04251534.0759268-.07984144.0977762-.12872953.0203928-.04324365.0058265-.08075183.0268566-.13018616.0136559-.03122647.0558981-.03295622.0729224-.05680851.0201197-.02840425.0098323-.06217982.0264014-.09404357.0152946-.03149958.0589024-.06081423.0732866-.09349733.0204839-.04743146.006828-.08120703.0264014-.12963993.0367799-.08821705.1252701-.1752506.1607754-.25700387.013929-.05507876.0266745-.11070375.0400573-.16550939.0203928-.01902721.0406945-.03796338.0609052-.0577189.0477046-.10041632.0572637-.18908858.113617-.28240383.0862142-.13947217.1868126-.24498669.2940569-.35978721.0546236-.05908449.0375082-.18653947.0775655-.25937089.0425153-.07820274.1261804-.14293166.1718821-.22195375.0050072-.03860065.0098323-.07893105.0143842-.11725858.0121993-.03250102.0599039-.06126944.0739239-.09395253.0336845-.07683715.0297699-.1409288.0751074-.19937601.0213942-.01210823.0408766-.02330606.0611784-.03450389.0124724-.04333469.0258552-.08657835.0391469-.129822.1146184-.18826922.2174018-.42315055.4043054-.53558405.0618157-.03641571.1611395.01456628.2388871-.01857201.0422422-.0178437.0713747-.08375613.1219015-.10387581.050982-.02011968.0942257.00045519.1549489-.02021072.0508909-.01638707.0869425-.07538052.1444793-.09049304.1494865-.03960208.4737684.00391469.607232.03714402.0188451.02858634.0377813.05680851.0565354.08466653.0008193.28213071-.1001432.3738983-.1791653.5533367-.0417871.0938615-.0425154.20365486-.1024192.28304111-.0210301.02731178-.0707375.02057487-.0960464.04415404-.0440631.0428795-.0477957.13064136-.0757447.18836026-.0217584.04697627-.069372.06718698-.097321.10433101-.0375992.04897913-.0813891.15503988-.0998701.21157527-.0059175.05061784-.0111068.10214607-.0157498.15303702-.0365978.02676555-.0723762.05425941-.1092471.08038768-.0484329.07528948-.046248.17188215-.0896737.24708059-.0210301.03905584-.0774744.06409164-.0975031.10460412-.0234881.04961641-.0105605.11179623-.0384185.15331014-.0206659.01611395-.0408767.03068023-.0609053.04570171-.0619067.07893105-.1434779.18990793-.1857201.28076512-.0041878.05107304-.0096502.10232815-.0154767.15422053-.0159319.04233327-.0807518.0611784-.0972299.10405789-.0047341.04715835-.0103785.09468085-.0150215.14183919-.0365068.03541428-.0726494.06982712-.1097934.10414893-.0174795.0470673-.0339576.09422565-.0506178.14056464-.0220315.0280401-.0782938.03714402-.097412.06964504-.0035506.02740282-.0092861.05498772-.013838.08266366-.0238523.04424509-.1110679.1634155-.1476657.20984553-.0325921.02667451-.06482.05435045-.097412.08111599-.0036416.01893617-.0085577.03942001-.0132918.05953969-.0233971.02285085-.048615.04524652-.0721031.06846153-.0008193.01957344-.0013656.03914689-.002276.05953969-.0136559.02640139-.0558981.03632467-.0721941.05708162-.0222136.02986088-.0768372.15713379-.0876708.18817818-.004643.04315261-.0094681.08748874-.0149305.13009512-.0287684.02749386-.0564443.05407733-.0854858.08111599-.0129276.03550532-.0258552.07119272-.0384186.10596972-.0228509.03632467-.0665497.07437908-.0858501.11643923-.0041878.02348813-.0088308.04724938-.0134738.07091959-.0388737.06900777-.1288205.12709083-.1712448.19782834-.0344129.0577189-.0147484.15849938-.0527118.21203047-.0330472.02712971-.0643647.05362214-.0963195.0802056-.0129276.03177271-.025491.06336334-.0384186.09486293-.0292236.0398752-.0914034.06372749-.1213554.10369373-.0484329.06527516-.0530759.15613235-.0887633.23524548-.0396931.08566796-.1215374.15094312-.1605932.23351574-.0396932.08457548-.0747433.17288358-.1010536.25891569-.0159319.0524386-.0003642.0908572-.0267656.1295489-.0486149.0341397-.0965926.0689167-.1448435.1029654-.0061906.0468852-.0100143.0946809-.0156587.1417482-.0276759.0615425-.1068801.0870335-.1341009.13929-.0367798.0699182-.0213031.1432048-.0527117.2125767-.0264014.05781-.0890364.1013268-.1225389.1513984-.0341397.0980493-.0687346.1954613-.102146.2942389-.0172064.0735597.0317727.1050593.0314085.1897258z" fill="#002f5f"/></g></svg>