<svg height="24" viewBox="0 0 24 24" width="24" xmlns="http://www.w3.org/2000/svg"><g fill="none" fill-rule="evenodd"><path d="m8.12309098 6.58298844h4.28446402l-1.3717217 1.32728036c-.5293182.51216924-.5293182 1.32728036 0 1.81671964.2651405.2565504.6017168.37299486.9382931.37299486.3365762 0 .6741153-.11644446.938293-.37299486l3.6591599-3.53967822c.5293182-.51216924.5293182-1.32728035 0-1.81671964l-3.6581972-3.53967822c-.5058271-.48943929-1.3482306-.48943929-1.8775488 0-.5293182.51216924-.5293182 1.32728035 0 1.81671964l1.3961754 1.35094187-4.30877331-.00090967c-2.16618032 0-3.94678055 1.7002752-3.94678055 3.818912v5.7758773c0 .7223282.60171676 1.2808889 1.32377686 1.2808889.72206011 0 1.32377687-.5822222 1.32377687-1.2808889v-5.77494574c.02444414-.69866667.60171675-1.23449742 1.29932309-1.23449742z" fill="#38649a"/><path d="m18.4726192 8.16686578c-.7465139 0-1.3237769.58222222-1.3237769 1.28088889v5.77587733c0 .6750052-.577263 1.2344974-1.2758321 1.2344974l-4.3078106-.0009096 1.3961755-1.3509419c.5293182-.5121693.5293182-1.3272804 0-1.8167197-.2651405-.2565504-.6017168-.3729948-.9382931-.3729948s-.6741153.1164444-.938293.3729948l-3.65915995 3.5634329c-.5293182.5121693-.5293182 1.3272804 0 1.8167197l3.65819715 3.5396782c.5293182.5121692 1.3717217.5121692 1.8775489 0 .5293182-.5121692.5293182-1.3272804 0-1.8167196l-1.3961755-1.3509419h4.284464c2.1661804 0 3.9467806-1.7002752 3.9467806-3.818912v-5.75212268c0-.72141991-.6017168-1.30364213-1.3237769-1.30364213z" fill="#002f5f"/></g></svg>