<?xml version="1.0" encoding="UTF-8"?>
<svg width="177px" height="186px" viewBox="0 0 177 186" version="1.1" xmlns="http://www.w3.org/2000/svg" xmlns:xlink="http://www.w3.org/1999/xlink">
    <!-- Generator: Sketch 63.1 (92452) - https://sketch.com -->
    <title>Illustration / Empty cart</title>
    <desc>Created with Sketch.</desc>
    <defs>
        <polygon id="path-1" points="0.0542675709 0.0265774424 17.0637711 0.0265774424 17.0637711 8.62653733 0.0542675709 8.62653733"></polygon>
    </defs>
    <g id="1Mobile" stroke="none" stroke-width="1" fill="none" fill-rule="evenodd">
        <g id="1M-1Screen" transform="translate(-97.000000, -220.000000)">
            <g id="Illustration-/-Empty-cart" transform="translate(0.000000, 172.000000)">
                <g id="Group" transform="translate(68.000000, 20.000000)">
                    <path d="M165.264586,191.868671 C204.73544,181.564089 220.762438,132.944666 208.009477,90.1684629 C204.76199,79.2754086 199.65402,69.0543693 192.652626,60.8971887 C181.643621,48.0716312 165.458305,43.382763 150.323689,43.0864248 C138.240875,42.8499848 126.586798,47.05599 115.51486,52.375365 C97.5905031,60.985985 78.3612516,63.5537236 60.4467284,71.7419042 C42.2814529,80.0446268 30.6460595,98.2578641 28.149846,121.002343 C26.8715015,132.648327 28.2432635,144.742497 32.6260185,155.348145 C39.4169778,171.782828 52.9403877,181.566191 67.3960058,186.893973 C98.0664406,198.198433 133.828128,200.075241 165.264586,191.868671" id="Mask" fill="#FAFAFA" transform="translate(120.000000, 120.000000) rotate(134.000000) translate(-120.000000, -120.000000) "></path>
                    <g id="Group-176" transform="translate(34.285714, 67.714286)">
                        <path d="M56.8010339,86.059588 C56.8560871,86.3631576 52.9114079,88.0428865 52.8185594,87.7393169 C52.4126494,86.4071657 51.9235554,84.6045593 51.4517195,82.7943593 C51.4265227,82.6982318 51.4013259,82.6024495 51.3761291,82.5080478 C50.9184449,80.7480689 50.4797445,79.002069 50.1527039,77.6904549 C49.468421,74.9534961 48.8062285,72.2089437 48.1393763,69.4673252 C43.7037047,51.1987851 38.3404114,28.9836674 33.9489205,10.2163689 C25.8944022,8.86523383 18.9140268,7.88532008 11.3705202,6.5138205 C11.1849958,6.48085757 12.4715857,3.14625144 12.8631715,2.56292836 C12.8742167,2.53445252 12.893028,2.51253476 12.9183974,2.4951041 C12.932549,2.48267829 12.9434216,2.47473957 12.9529135,2.4762928 C12.9750039,2.46922333 13.0000281,2.46680085 13.0267781,2.47146053 C18.5978587,3.37906294 28.6767498,5.04791922 34.2429981,5.98054584 C34.8611825,6.05768946 35.4714282,6.1929928 36.0802933,6.32191065 C36.3162112,6.37075102 36.5536824,6.40371395 36.7911536,6.44306237 C37.4500671,6.55161569 37.5964156,7.00136124 37.7458705,7.59434886 C37.8181819,7.87893459 37.8811739,8.14315578 37.9517594,8.42480764 C38.1091531,9.05403722 38.2696532,9.6958652 38.4253211,10.3169835 C38.5573454,10.8423194 38.6895423,11.3692086 38.8215666,11.8945445 C38.9459974,12.3946837 39.0183087,12.9640277 39.2084928,13.4406959 C39.6285544,15.1221506 40.0484435,16.8018794 40.4669519,18.4817809 C40.8742426,20.1111162 41.2799801,21.7390708 41.6841643,23.3685787 C42.0286355,24.7573363 42.37466,26.1462666 42.7177507,27.5351968 C45.1021269,37.1734891 47.4676919,46.8183394 49.8299778,56.4631897 C51.0223385,61.3373891 52.2050347,66.2133143 53.3879035,71.0890669 C54.3081043,74.8891234 55.320981,78.6953929 56.1483333,82.5268591 C56.1671446,82.6103882 56.1845753,82.6920189 56.2016608,82.775548 C56.4156609,83.7678876 56.6137837,84.7603998 56.7963742,85.7560184 C56.8072468,85.820391 56.7963742,85.8769975 56.7727306,85.9242846 C56.7806693,85.9684653 56.7930951,86.0138541 56.8010339,86.059588" id="Fill-1" fill="#667EC1"></path>
                        <g id="Group-5" transform="translate(6.558070, 0.146003)">
                            <mask id="mask-2" fill="white">
                                <use xlink:href="#path-1"></use>
                            </mask>
                            <g id="Clip-4"></g>
                            <path d="M16.7725752,2.58672725 C16.6372719,2.43105937 16.4060136,2.37289964 16.1606037,2.34770285 C16.105723,2.34304316 16.0520504,2.33683026 15.9971697,2.33044477 C15.8320099,2.31301411 15.6668501,2.29437538 15.5016902,2.27228504 C15.270432,2.24398179 15.0408995,2.2123995 14.8111945,2.17633012 C14.6477605,2.15113332 14.4839813,2.1243833 14.3203747,2.09608005 C12.4482182,1.77197331 10.5831376,1.40851816 8.72047306,1.03384525 C6.91596827,0.67073526 5.11905703,0.220989708 3.28055382,0.0639411846 C2.89362768,0.0308056719 2.4611402,-0.0178621123 2.08525923,0.109502514 C0.50062237,0.642259429 0.104376865,3.17626324 0.0576074694,4.60160803 C0.0482881065,4.89102602 0.0482881065,5.23066503 0.199296302,5.48867332 C0.384993238,5.80794779 0.905669496,5.77964454 1.22011171,5.84263653 C5.30561687,6.65963401 9.18989282,8.27757897 13.3868852,8.55698727 C13.41329,8.55871308 13.4398675,8.56043889 13.4664449,8.56199212 C13.5843176,8.56993083 13.7039161,8.57614374 13.8217888,8.58080342 C13.8657969,8.58252923 13.9099776,8.58563568 13.9572647,8.58736149 C14.2071617,8.60289376 14.4967523,8.62653733 14.7859977,8.62653733 C15.0188092,8.62653733 15.2531739,8.60910667 15.4671741,8.55888566 C15.6652968,8.5117711 15.8477147,8.43462749 15.9956165,8.31192254 C16.517846,7.87839959 16.6081057,7.13681991 16.716659,6.50983388 C16.8388462,5.80363327 16.9375625,5.09294555 17.0033157,4.37932397 C17.0559529,3.8101525 17.1826272,3.05959863 16.7725752,2.58672725" id="Fill-3" fill="#BECCE9" mask="url(#mask-2)"></path>
                        </g>
                        <path d="M22.3900456,6.40376572 C22.3035826,7.15414702 22.2091809,7.94525739 22.0252098,8.70495805 C21.8112096,8.75517906 21.5768449,8.77260972 21.3440334,8.77260972 C21.4950416,7.91850736 21.6995498,7.06768404 21.814316,6.21824137 C21.9874146,4.95840157 22.063005,3.68906982 22.0597259,2.41818484 C22.2248858,2.44027518 22.3900456,2.45908649 22.5552054,2.47634457 C22.5914474,3.78813119 22.5410538,5.09836459 22.3900456,6.40376572" id="Fill-6" fill="#38539A"></path>
                        <path d="M20.5152486,8.73327855 C20.4681341,8.73155275 20.4239534,8.72861887 20.3799453,8.72689307 C20.2619,8.72223338 20.1424741,8.71584789 20.0244288,8.70808176 C20.2415355,7.2924015 20.5906664,5.90675029 20.7339085,4.47709099 C20.8093263,3.73464841 20.8579941,2.98927195 20.8783586,2.24216969 C21.0421378,2.27047294 21.2057444,2.29705038 21.3691784,2.32241976 C21.4352768,4.48968938 21.2497525,6.75929942 20.5152486,8.73327855" id="Fill-8" fill="#38539A"></path>
                        <path d="M61.1424246,17.6636444 C61.3310554,17.6731363 61.518133,17.6857347 61.7069363,17.6981605 C61.747838,17.9484027 61.7871864,18.1984723 61.8249816,18.4500951 C62.2747272,21.3000943 62.7213663,24.1516468 63.1666247,27.0031993 C65.2788411,40.517311 67.4699268,54.0186518 69.7065739,67.5122264 C70.412602,71.7668607 71.1189752,76.0199418 71.8331145,80.2728504 C71.8738436,80.5103216 71.9133646,80.7477927 71.9540936,80.9869897 C71.7133434,80.9869897 71.4744916,80.9852639 71.2352946,80.9852639 L71.1125897,80.2776826 C69.0664718,68.454345 67.1190701,56.615475 65.2412185,44.7640066 C63.8491818,35.9905168 62.4997725,27.2061543 61.2492521,18.4091934 C61.2131827,18.1606771 61.178494,17.9121607 61.1424246,17.6636444 Z M68.8869877,14.2189317 C69.0756186,14.2284237 69.2628687,14.241022 69.4516721,14.2536204 C69.4924012,14.50369 69.5319222,14.7537596 69.5697174,15.0053824 C70.0194629,17.8553816 70.466102,20.7071067 70.9111879,23.5586592 C73.0235768,37.0725983 75.2146626,50.5739391 77.4513097,64.0676863 L78.1405589,68.2190782 L78.0708271,67.6944351 C76.8000416,58.2153093 75.5034766,48.7385251 74.154447,39.2699143 C73.1981768,32.5570391 72.2168824,25.8472704 71.2210912,19.1390549 C71.1819154,18.8668949 71.1408412,18.5949076 71.0999395,18.3225751 C71.2904687,18.3353461 71.4806527,18.3494977 71.6710094,18.3636493 C71.7134642,18.6356367 71.7576449,18.9093498 71.8000998,19.183063 C72.0405048,20.7181691 72.2797018,22.2548285 72.517173,23.7914879 C74.3290988,35.5297433 76.0058938,47.2916422 77.591221,59.0628605 C78.3809507,64.9264656 79.1468642,70.7931771 79.8767084,76.664721 C80.0228844,77.839651 80.1738926,79.0161343 80.3249007,80.1926176 C80.3594169,80.4552855 80.3925524,80.7179535 80.4270686,80.9790683 L79.801118,80.9823473 L79.801118,80.9823473 L79.7049905,80.2003837 L79.7049905,80.2003837 L79.3735589,77.5410782 L79.3387827,77.5415004 C79.2190548,77.5411121 79.0995426,77.5407238 78.9800304,77.5407238 L78.8573254,76.83297 C76.811035,65.0098049 74.8638058,53.1707623 72.9859542,41.319294 C71.5939175,32.5458041 70.2443357,23.7614416 68.9939878,14.9644807 C68.9577459,14.7159644 68.9232297,14.4676206 68.8869877,14.2189317 Z M49.8397286,16.872534 C50.0174868,16.8849598 50.1952451,16.8991115 50.3743839,16.9132631 L50.5019211,17.6337879 L50.5019211,17.6337879 C50.6748471,18.6137017 50.8510521,19.5920622 51.0303635,20.5702501 C53.2765026,32.8070914 55.9282065,44.9638552 58.3788538,57.1597948 C59.9232793,64.8493047 61.3940129,72.5579711 62.576709,80.3106456 C62.6098446,80.5182603 62.6412543,80.7274282 62.672664,80.9365961 C62.4760944,80.9333171 62.2795249,80.9319364 62.0829554,80.9303832 C62.0498199,80.7227685 62.0151311,80.5165345 61.9821682,80.3106456 C61.5715985,77.8128837 61.1423901,75.3182283 60.6955784,72.8285778 C58.5013861,60.5822446 55.8779855,48.4177146 53.4368301,36.2186686 C52.1975274,30.0280229 51.0036135,23.8214997 49.9608803,17.5928863 C49.9198061,17.352136 49.879077,17.1132842 49.8397286,16.872534 Z M81.1585005,19.0682104 C81.3643894,19.0823621 81.5690702,19.0980669 81.7735785,19.1154976 C81.8080946,19.4033623 81.8410575,19.6910545 81.8741931,19.9789193 C81.9513367,20.6300666 82.0265819,21.2827672 82.1021723,21.9340871 C83.5287251,34.2178704 84.9868603,46.4973391 86.4872777,58.7735288 C87.3539785,65.8702237 88.2520889,72.9653653 89.1218961,80.0620602 C89.1564123,80.3466459 89.191101,80.63313 89.2271704,80.9177158 C89.0274944,80.919269 88.8278185,80.9209948 88.6279699,80.9223755 C88.5903473,80.639343 88.5541053,80.3561379 88.5180359,80.0715521 C88.3024825,78.4090813 88.0884823,76.746438 87.876208,75.0839672 C86.3002001,62.7653226 84.8042698,50.4373587 83.3494137,38.1028366 C82.6338937,32.0473217 81.9292463,25.9904261 81.2544554,19.9285257 L81.1585005,19.0682104 L81.1585005,19.0682104 Z M40.1855589,16.175601 L40.7595627,16.2133962 L40.7595627,16.2133962 C40.8035708,16.4273964 40.8493047,16.6413966 40.894866,16.8536709 C41.1904969,18.2424286 41.4845746,19.629633 41.7772716,21.0185633 C44.3047174,32.9832446 46.7286146,44.9715696 49.080028,56.9724929 C50.2501258,62.9477577 51.4046913,68.9261291 52.5418261,74.907952 C52.8831909,76.7057262 53.2340477,78.5017745 53.5831786,80.3012744 C53.6161416,80.4757536 53.6508303,80.6486796 53.6837932,80.8233313 C53.443043,80.8200523 53.2024654,80.8153926 52.963441,80.8124588 C52.9320313,80.6424667 52.900449,80.4710939 52.8690393,80.2995486 C52.417568,77.8426884 51.9693756,75.3860008 51.5008188,72.9355261 C49.1996265,60.9235576 46.8354421,48.9241875 44.4181029,36.9341368 C43.0654147,30.2229874 41.6985748,23.5130461 40.3144768,16.8065564 C40.2720219,16.5956626 40.2280138,16.3864947 40.1855589,16.175601 Z M88.9032363,15.623515 C89.1091252,15.6376666 89.3136334,15.6535441 89.5183142,15.6708022 C89.5528304,15.9586669 89.5857933,16.2465317 89.6189288,16.5342239 C89.6958999,17.1853712 89.7713177,17.8380718 89.8469081,18.4893917 C91.2734609,30.7733475 92.731596,43.0526437 94.2320135,55.3288334 C94.7046372,59.1987576 95.1866011,63.06822 95.6682223,66.9377242 C94.8441157,58.6892948 94.0281998,50.4397438 93.2191195,42.1908615 C92.5177512,35.0484327 91.8224232,27.9046233 91.1334806,20.7606413 C91.1036241,20.4648378 91.0753209,20.1676536 91.0485709,19.8702969 C91.2420339,19.8861744 91.4339438,19.9018792 91.6258536,19.9191373 C91.6557101,20.2180472 91.6871198,20.5152314 91.7171489,20.8124155 C91.8759232,22.3665056 92.0333169,23.9188698 92.1889848,25.4729599 C93.4583165,38.128137 94.722816,50.7833141 95.9748897,63.4384912 C96.5173111,68.9229363 97.0600777,74.4060008 97.5962862,79.8906184 C97.6263153,80.1926348 97.6561718,80.4962044 97.684475,80.7982208 C97.4785861,80.8013273 97.2709714,80.805987 97.0631842,80.8090934 L97.0127906,80.313614 L97.0127906,80.313614 C96.9986389,80.1767574 96.9844873,80.0416266 96.9720615,79.9047701 L96.7275589,77.4740782 L96.6723706,77.4754796 C96.5725111,77.4762563 96.4726299,77.4769897 96.3727057,77.47768 C96.335083,77.1948201 96.2988411,76.911615 96.2625991,76.6270293 C96.0472183,74.9643859 95.8330455,73.3019151 95.6209437,71.6392718 C94.0447633,59.3206272 92.5490056,46.9926632 91.0941495,34.6583138 C90.3784569,28.6027989 89.6738095,22.5457307 88.9991912,16.4838303 C88.9676089,16.1975187 88.934646,15.9113798 88.9032363,15.623515 Z M98.7933066,16.4257741 C98.9867697,16.441479 99.1786795,16.4571838 99.3705894,16.4744419 C99.4004459,16.7733518 99.4318556,17.070536 99.4617121,17.3678927 C99.620659,18.9218101 99.7778801,20.474347 99.9335479,22.0282645 C101.111733,33.7731195 102.285608,45.5179745 103.44924,57.2629675 L102.565025,46.4391621 L102.565025,46.4391621 C101.893514,38.1627049 101.229768,29.8879735 100.581727,21.6099631 L100.510969,20.6992543 L101.061502,20.7494753 L101.061502,20.7494753 C101.088252,21.0530449 101.114829,21.3567871 101.140198,21.6619099 C101.338149,23.9770813 101.533337,26.2938059 101.728354,28.6107031 C102.807329,41.4325933 103.865939,54.2562092 104.885029,67.0827591 C105.218455,71.2823402 105.553607,75.480368 105.887033,79.6797765 C105.912057,79.9943913 105.937254,80.3090061 105.962451,80.6236208 C105.772094,80.6298338 105.580184,80.6344934 105.39,80.6377725 C105.363078,80.3231577 105.338054,80.0100961 105.311304,79.6956539 L105.116127,77.3591473 C105.013488,77.3610693 104.910639,77.3629452 104.807747,77.364398 C104.790662,77.1994108 104.774957,77.034251 104.757526,76.8690911 C104.743375,76.7322346 104.729223,76.5969312 104.716625,76.4600746 C103.445912,63.8913605 102.196945,51.3181593 100.963855,38.7461661 C100.262487,31.6037373 99.5671589,24.4599279 98.8782164,17.3159458 C98.8483599,17.0201424 98.8200567,16.7231308 98.7933066,16.4257741 Z M108.255532,17.2545589 C108.438122,17.2719895 108.622094,17.2876944 108.806237,17.3049525 C108.832815,17.6085221 108.859565,17.9120917 108.884762,18.2172145 C109.082884,20.5325585 109.278073,22.8492831 109.473089,25.1660077 C110.552065,37.9880704 111.610503,50.8115138 112.629765,63.6382363 L112.635436,63.6884252 C112.526376,56.4542837 112.405434,49.2204926 112.263428,41.9861807 C112.137444,35.5534041 111.994374,29.120455 111.838706,22.6888865 L111.815063,21.7641986 L111.815063,21.7641986 C112.005247,21.7812841 112.19405,21.800268 112.384579,21.8190793 C112.393899,22.1290344 112.401665,22.4372637 112.411157,22.7470462 C112.431521,23.4627388 112.452058,24.1799846 112.471042,24.8956771 C112.827939,37.9094771 113.109591,50.9234497 113.313927,63.9401836 C113.367412,67.3195776 113.417578,70.6981601 113.460805,74.0765098 C113.517381,74.7958861 113.574598,75.5155445 113.631769,76.2352536 C113.656793,76.5496959 113.68199,76.8644832 113.707187,77.1789254 L113.498524,77.1854759 C113.507126,77.9377933 113.51533,78.6901079 113.523095,79.4424261 C113.526374,79.7679135 113.52948,80.0918476 113.532587,80.4175076 C113.312546,80.4238931 113.092161,80.4316592 112.870394,80.4380447 L112.857968,79.4658971 L112.857968,79.4658971 L112.765559,72.7690782 L112.131799,65.1664839 C111.517654,57.7765104 110.908444,50.3858721 110.309589,42.9944667 C109.638249,34.7181821 108.974331,26.4432781 108.32629,18.1652677 L108.255532,17.2545589 Z M119.559798,18.3194859 C119.749982,18.336744 119.938786,18.3557279 120.129142,18.3745392 C120.138462,18.6843217 120.146401,18.992551 120.155892,19.3025061 L120.215605,21.4509644 L120.215605,21.4509644 C120.572675,34.4647645 120.854327,47.4787371 121.058663,60.4956435 C121.112929,63.9242719 121.163778,67.3521407 121.20743,70.7798547 C121.387022,61.3590843 121.617815,51.9400382 121.890795,42.5210948 C122.07166,36.2736701 122.276168,30.0279711 122.516746,23.7836528 C122.529344,23.4705912 122.541943,23.156149 122.554541,22.8430874 C122.740238,22.8618987 122.927316,22.8808826 123.113013,22.9012472 C123.103348,23.2141361 123.094029,23.5289235 123.084537,23.8433657 C123.060893,24.6267099 123.038975,25.4083284 123.015504,26.1916726 C122.645836,38.6471737 122.310857,51.1042281 122.052676,63.5626631 C121.945849,68.7516499 121.873365,73.9437431 121.79484,79.1356637 C121.788455,79.4706431 121.783968,79.805795 121.779136,80.1390485 C121.533898,80.1502662 121.286763,80.1595856 121.041525,80.1673517 C121.043079,80.0777823 121.044632,79.9864871 121.046185,79.8969176 C121.049291,79.6532336 121.053951,79.4078237 121.058783,79.163967 L121.096559,76.9780782 L120.946809,76.9831498 C120.836508,76.9866877 120.726013,76.9902256 120.61513,76.993332 C120.61047,76.6693979 120.607191,76.3452912 120.602532,76.0211844 C120.435818,63.5265074 120.253401,51.0349369 120.008163,38.5416406 C119.882179,32.1086914 119.73911,25.6757423 119.583442,19.2441738 C119.575503,18.9359445 119.567737,18.6277152 119.559798,18.3194859 Z M130.299277,19.398392 C130.484801,19.4172033 130.672051,19.4361872 130.857576,19.4565517 C130.848084,19.7696133 130.838764,20.0842281 130.829273,20.3988429 C130.805629,21.1820145 130.783711,21.963633 130.76024,22.7469772 C130.432143,33.8017968 130.131372,44.85784 129.887367,55.9151067 C130.346937,51.588195 130.801357,47.2603057 131.252475,42.93163 C131.878426,36.9342748 132.490397,30.9338132 133.114795,24.936458 C133.146204,24.6187367 133.179167,24.301188 133.21213,23.9834668 C133.402659,24.0038313 133.592843,24.0243685 133.7832,24.0462862 C133.753343,24.3640075 133.723314,24.6832819 133.692077,25.0010032 L133.574032,26.2342655 L133.574032,26.2342655 C132.365466,38.7810263 131.067708,51.3203268 129.728041,63.8536294 L129.797412,60.1181403 C129.690412,65.3071271 129.618101,70.4990477 129.539404,75.6911409 C129.533191,76.0259477 129.528531,76.3610996 129.523699,76.6945257 C129.278462,76.7055708 129.031498,76.7148902 128.786088,76.7228289 C128.787814,76.6332595 128.789368,76.5419642 128.790748,76.4523948 C128.794027,76.2085381 128.798687,75.9631282 128.803519,75.7194442 L128.870948,71.8272834 C128.616416,74.1813752 128.360334,76.5352531 128.102013,78.8886661 C128.064218,79.2269245 128.028148,79.563457 127.990526,79.9015428 C127.771693,79.9094815 127.551653,79.9174202 127.331267,79.9269122 C127.367509,79.5886538 127.403751,79.2521213 127.43982,78.9138629 C127.968059,73.9898692 128.494465,69.0661083 129.018035,64.1420665 C129.184448,55.7861062 129.393393,47.4313391 129.635531,39.076572 C129.816396,32.8289746 130.020732,26.5832757 130.261482,20.3389573 L130.299277,19.398392 L130.299277,19.398392 Z M140.956849,20.5387541 C141.147205,20.5592912 141.337389,20.5796558 141.527918,20.6015735 C141.497889,20.9194674 141.468033,21.2385693 141.436623,21.5562905 C141.397275,21.9668602 141.358099,22.3789832 141.318751,22.7895529 C140.085661,35.5909059 138.759722,48.3844928 137.391157,61.1720394 C137.127538,63.6339113 136.862995,66.0958755 136.596738,68.5576214 C137.947214,60.7989081 139.125226,53.0073406 140.323218,45.2263506 C141.303132,38.8531144 142.25457,32.4752185 143.199967,26.0973227 C143.248635,25.7747692 143.295922,25.4523882 143.343037,25.1300073 C143.533394,25.1505444 143.720471,25.1724622 143.904615,25.1929993 C143.858881,25.5169335 143.81332,25.8393144 143.767758,26.1634211 C143.597939,27.3651012 143.427947,28.5650555 143.256401,29.7667355 C141.593931,41.4483844 139.838611,53.1238203 137.903981,64.7628417 C137.134961,69.3886974 136.320207,74.0097207 135.407945,78.6088264 C135.342019,78.9374202 135.275748,79.2661866 135.211375,79.5933998 C134.984776,79.6042724 134.75835,79.6154901 134.531752,79.6248095 C134.599576,79.2944899 134.665675,78.9641702 134.7316,78.6338506 L135.150055,76.4790634 C135.125367,76.4800905 135.100676,76.4811353 135.075985,76.4821995 C135.112227,76.1439411 135.148297,75.8074086 135.184539,75.4693228 C136.471129,63.4763382 137.746846,51.4847342 138.997194,39.4870899 C139.623144,33.4897347 140.234943,27.4891005 140.85934,21.4919179 C140.890923,21.174024 140.923886,20.8564754 140.956849,20.5387541 Z M151.0876,21.6854845 C151.278129,21.705849 151.465207,21.7279394 151.649178,21.7483039 C151.603617,22.072238 151.558055,22.394619 151.512321,22.7187257 C151.342502,23.9204058 151.172682,25.1205326 151.001137,26.3222127 C149.661105,35.7380467 148.260749,45.1499563 146.754786,54.5420344 C147.597642,51.0229638 148.434665,47.502599 149.271205,43.9821984 C150.578159,38.4898146 151.875621,32.9958775 153.18758,27.5034937 C153.204839,27.4294566 153.222097,27.355592 153.241081,27.2817274 C153.318052,26.9607271 153.395195,26.6383462 153.472166,26.3175185 C153.66097,26.3427153 153.849773,26.3679121 154.043236,26.3944895 C153.969199,26.7123834 153.893781,27.0301046 153.818191,27.3476533 C153.58072,28.3591493 153.343248,29.368747 153.105777,30.380243 C150.537508,41.3164291 148.000776,52.2589916 145.336797,63.1702151 L145.648716,61.3181463 C144.879524,65.944002 144.064942,70.5650253 143.15268,75.1641309 C143.086582,75.4928974 143.020483,75.8214912 142.956111,76.1487044 L142.276488,76.1801141 L142.276488,76.1801141 C142.344139,75.8497944 142.410238,75.5194748 142.476336,75.1893277 L142.892686,73.0547546 C142.442488,74.8388783 141.98595,76.6212986 141.520256,78.4011944 C141.446219,78.6875059 141.370628,78.9720917 141.29521,79.25685 C141.067231,79.2723823 140.840633,79.2867065 140.614207,79.3008581 C140.689624,79.0081611 140.765215,78.7140834 140.839079,78.4215589 C140.983702,77.8601536 141.126772,77.2985757 141.271567,76.7369978 C142.443461,72.1780723 143.581121,67.6106108 144.698541,63.0381628 C145.902052,55.9655648 146.976663,48.8692734 148.067781,41.7818277 C149.047695,35.408419 149.999133,29.0305231 150.944531,22.6526273 C150.993198,22.3302463 151.040486,22.0078654 151.0876,21.6854845 Z M78.8446753,14.878035 C79.0350319,14.8906334 79.2253885,14.904785 79.4157451,14.9189367 C79.4582,15.1910966 79.5022081,15.4648097 79.544663,15.7383503 C79.7852406,17.2734565 80.0244376,18.8102884 80.2619088,20.3469478 C82.0738345,32.0850306 83.750457,43.8469295 85.3357841,55.6183204 C86.1255139,61.4817529 86.8914274,67.3484645 87.6214442,73.2200083 C87.7674475,74.3951109 87.9184557,75.5714216 88.0694639,76.7479049 C88.1041527,77.0107455 88.1372882,77.2732408 88.1718043,77.5343556 C87.9626364,77.5360814 87.7550217,77.5360814 87.5458538,77.5376346 L87.4497263,76.7558436 L87.4497263,76.7558436 C87.22796,74.954963 87.0032598,73.1556356 86.7640628,71.3594147 C85.1896082,59.5094996 83.5852971,47.6611377 81.8991828,35.8253742 C80.9429126,29.112499 79.9614456,22.4025577 78.965827,15.6943422 C78.9264786,15.4223548 78.8855769,15.1501949 78.8446753,14.878035 Z M57.5844471,13.4278213 C57.7622053,13.4404197 57.939791,13.4545714 58.1191024,13.468723 C58.1615573,13.7094732 58.2026315,13.9484976 58.2466396,14.1890752 C58.4195656,15.168989 58.5957706,16.1473495 58.775082,17.12571 C61.0212211,29.3623787 63.672925,41.5191425 66.1233997,53.7150821 C67.6679978,61.4047646 69.1385588,69.1132584 70.3214275,76.8659329 C70.3545631,77.0735476 70.3858002,77.2827155 70.4173825,77.4918834 L69.8275013,77.4856705 L69.8275013,77.4856705 L69.7268867,76.8659329 L69.7268867,76.8659329 C69.316317,74.3681711 68.886936,71.8736882 68.4402969,69.3838651 C66.2461046,57.1377045 63.622704,44.973002 61.1815486,32.7741285 C59.9422459,26.5833102 58.748332,20.3767871 57.7055988,14.1481736 C57.6645246,13.9074234 57.623623,13.6685716 57.5844471,13.4278213 Z M47.9301221,12.7310782 C48.122032,12.7436766 48.3139418,12.756275 48.5042984,12.7688734 C48.5483065,12.982701 48.5940404,13.1967011 48.6396018,13.4089755 C48.9352327,14.7979058 49.2293103,16.1851102 49.5220074,17.5738678 C52.0494531,29.5387218 54.4731778,41.5270467 56.8245911,53.52797 C57.9948615,59.5032349 59.149427,65.4816062 60.2865619,71.4632566 C60.6277541,73.2610307 60.9787835,75.0572517 61.3277418,76.856579 L61.428529,77.3786359 L61.428529,77.3786359 C61.1877788,77.3755295 60.9472012,77.3708698 60.7081768,77.3677633 C60.6767671,77.1977713 60.6451848,77.0263985 60.6136025,76.8550258 C60.1623037,74.397993 59.7139388,71.9413054 59.245382,69.4908307 C56.9443622,57.4788622 54.5801779,45.4794921 52.1628387,33.4896139 C50.8101504,26.778292 49.4433105,20.0685232 48.0592126,13.361861 C48.0165851,13.1511398 47.972577,12.9417993 47.9301221,12.7310782 Z M161.216902,22.8729784 C161.405705,22.8980026 161.594509,22.9231994 161.787799,22.9499495 C161.713935,23.2676707 161.638517,23.5853919 161.562926,23.9029406 C161.325455,24.9144366 161.087812,25.9242069 160.85034,26.9355303 C158.28044,37.8795689 155.741776,48.8298203 153.075921,59.7486621 C151.836445,64.8258165 150.587651,69.9014177 149.264819,74.9564817 C149.190954,75.2427933 149.115364,75.527379 149.039946,75.8121373 C148.811794,75.8278422 148.585368,75.8421664 148.35877,75.856318 C148.43436,75.563621 148.509778,75.2695433 148.583643,74.9770188 L149.016303,73.2924577 L149.016303,73.2924577 C151.814355,62.4067515 154.417391,51.4722049 157.01594,40.5376583 C158.322895,35.0452745 159.620357,29.5511649 160.932316,24.0587811 C160.949574,23.9849165 160.966832,23.9108793 160.985816,23.8370147 C161.062787,23.516187 161.139931,23.1936335 161.216902,22.8729784 Z" id="Combined-Shape" fill="#BECCE9"></path>
                        <path d="M168.861248,24.2523995 C165.441386,37.8849016 161.916079,50.1481478 157.723056,63.5623352 C156.529832,67.3798224 155.262053,71.1748741 154.146664,75.0161774 C154.027065,75.4284729 154.633514,75.5789634 154.779345,75.190484 C157.26796,68.5711476 159.26006,61.7429885 161.251125,54.9605632 C163.216475,48.2656364 165.064643,41.5391274 166.784238,34.7767215 C167.770537,30.8981407 168.38665,28.2697352 169.302191,24.3738963 C169.369153,24.0881025 168.933041,23.9664331 168.861248,24.2523995" id="Fill-36" fill="#86ABBD"></path>
                        <path d="M150.03377,61.4297371 C149.805618,61.43595 149.579192,61.4423355 149.352766,61.4501016 C147.529623,61.5084339 145.720976,61.5712533 143.921649,61.6373518 C143.696603,61.6451179 143.470177,61.6546099 143.245304,61.6625486 C141.026088,61.7441793 138.819297,61.8308148 136.615613,61.9172778 C136.393847,61.9252165 136.173634,61.9347085 135.953421,61.9424746 C134.073843,62.0163392 132.194438,62.0919296 130.308475,62.1642409 C130.063066,62.1751135 129.817656,62.1846055 129.572246,62.1925442 C127.079316,62.2900523 124.572235,62.384454 122.036851,62.470917 C121.815084,62.4788557 121.593318,62.4866219 121.371552,62.4945606 C119.581544,62.5544461 117.776003,62.6126058 115.949926,62.6643801 C115.434082,62.6785317 114.916512,62.6942366 114.400496,62.7083882 C114.208758,62.7132204 114.016848,62.7196059 113.824939,62.7242656 C111.253312,62.7948512 108.681686,62.8593964 106.110059,62.9192819 C105.902445,62.9222158 105.69483,62.9270481 105.485662,62.9334335 C102.870027,62.9915933 100.25284,63.0435401 97.6354793,63.0906546 C97.4342501,63.0939337 97.2328483,63.0968676 97.0316191,63.1001466 C94.3010458,63.1472611 91.5689192,63.1881628 88.8385185,63.2212983 C88.632457,63.2242322 88.4248423,63.225958 88.2187808,63.2290644 C85.5952076,63.2590935 82.9700811,63.2841177 80.3466804,63.3015484 C80.1074835,63.302929 79.8669058,63.3044823 79.6261556,63.3062081 C78.2360173,63.3157 76.8470871,63.3219129 75.4566036,63.3265726 C73.9907023,63.3314049 72.5373995,63.3360645 71.0903095,63.339171 L70.4957687,63.339171 C67.6820114,63.3422774 64.8932783,63.339171 62.0967791,63.3298516 C61.8593079,63.3298516 61.620111,63.3298516 61.3826398,63.3281258 C58.589247,63.3186339 51.6456313,63.2133596 48.7971853,63.189716 C48.5471157,63.1881628 48.5300302,63.5750889 48.781653,63.5814744 C51.6456313,63.6489535 58.6348084,63.7937488 61.4770415,63.8410359 C61.7160659,63.8439698 61.9566435,63.8488021 62.1973937,63.8519085 C65.0018316,63.8976424 67.8000566,63.9321586 70.5965558,63.9589086 C70.7931254,63.9604619 70.9896949,63.9620151 71.1862644,63.9651215 C74.0393701,63.9903183 76.8910952,64.0060232 79.7488606,64.0139619 C79.9880576,64.0139619 80.2272545,64.0155151 80.4676596,64.0155151 C83.0770812,64.0219006 85.6913351,64.0186216 88.3147358,64.0106829 C88.5239037,64.0091296 88.7315184,64.0091296 88.9406863,64.007749 C90.3216778,64.0029167 91.7057758,63.994978 93.0929802,63.9856587 C94.442562,63.9761667 95.7921439,63.9651215 97.1415531,63.9509699 C97.3414017,63.9495893 97.5410776,63.9478635 97.7409262,63.9463102 C100.353454,63.918007 102.964429,63.881765 105.576785,63.8377569 C105.784572,63.8346505 105.992187,63.8298182 106.198075,63.8268843 C108.766595,63.7811504 111.335115,63.7276504 113.903463,63.6663842 C114.093992,63.6631051 114.285729,63.6584455 114.476086,63.6522326 C116.778831,63.5971793 119.081404,63.5357405 121.383977,63.4665356 C121.605744,63.4603227 121.826129,63.452384 122.04617,63.4461711 C124.550317,63.3705807 127.052739,63.2873968 129.55516,63.1959289 C129.80057,63.1881628 130.047361,63.1788434 130.292771,63.1676257 C131.384344,63.1300031 132.477471,63.0873756 133.569044,63.0449207 C134.338237,63.0152368 135.096212,62.9853804 135.844867,62.9553513 C136.065253,62.9458594 136.285294,62.9380932 136.504126,62.9301545 C138.742154,62.8405851 140.900104,62.7541221 143.045456,62.6535075 C143.271882,62.6440155 143.49848,62.6329704 143.724906,62.6219252 C145.518021,62.5370155 147.306303,62.4426138 149.127721,62.3294008 C149.354147,62.3152491 149.580745,62.3010975 149.808725,62.2853927 C150.112985,62.2662362 150.522519,62.23707 150.999014,62.201691 C151.115852,61.9271149 151.228202,61.6504679 151.33175,61.3700241 C150.806759,61.3978096 150.358567,61.4190371 150.03377,61.4297371" id="Fill-38" fill="#667EC1"></path>
                        <path d="M149.277038,43.6099243 C149.048886,43.6107872 148.822287,43.6118227 148.595689,43.6140663 C146.771855,43.6290808 144.962173,43.6492728 143.161637,43.6725712 C142.936764,43.6751599 142.709993,43.6791292 142.485121,43.6817179 C140.264351,43.7108841 138.05618,43.7448825 135.851115,43.7792261 C135.629348,43.7818148 135.408963,43.7861293 135.188577,43.788718 C133.307792,43.8180568 131.426834,43.8489487 129.540008,43.8765617 C129.294425,43.8817391 129.048843,43.8853633 128.80326,43.8872617 C126.308777,43.9257472 123.800143,43.9606085 121.263378,43.987186 C121.041439,43.9896021 120.8195,43.9921908 120.597561,43.9947795 C118.80669,44.0122102 117.000287,44.0275699 115.173519,44.0361989 C114.65733,44.0379247 114.139588,44.0415489 113.623571,44.0434473 C113.431661,44.0436199 113.239752,44.0451731 113.047669,44.0453457 C110.47518,44.0551828 107.902863,44.058807 105.330374,44.0575989 C105.122759,44.0557005 104.914972,44.0555279 104.705804,44.0569086 C102.089479,44.0529392 99.4717735,44.0429296 96.854068,44.0280876 C96.6528388,44.0263618 96.451437,44.024636 96.2500352,44.0232553 C93.5192893,44.0054795 90.7869902,43.9816634 88.0565894,43.9499085 C87.8503554,43.9481827 87.6429132,43.9447311 87.4368518,43.9431779 C84.8134511,43.9107327 82.1883246,43.8736278 79.5652691,43.8287568 C79.3262447,43.8246148 79.0854945,43.8206455 78.8449169,43.816331 C77.454606,43.7930326 76.0660209,43.76611 74.6758826,43.7379793 C73.2103265,43.7079502 71.7571962,43.6782663 70.310624,43.6470292 L69.7162557,43.6328776 C66.9030162,43.5693679 64.1153186,43.4999904 61.3196823,43.4244 C61.0823837,43.4188774 60.8433593,43.4130096 60.6058881,43.4057613 C57.8135309,43.3301709 46.8643149,42.8645479 44.0172495,42.7734252 C43.7673525,42.7658317 43.7407751,43.1524126 43.9922253,43.1646659 C46.8539601,43.3001418 57.8478744,43.8061487 60.6882092,43.9207423 C60.9268884,43.929544 61.167466,43.9398988 61.4080437,43.948873 C64.2105832,44.060878 67.0070824,44.1618377 69.8020284,44.2548588 C69.9987705,44.2610717 70.19534,44.2674572 70.3915644,44.2750507 C73.243462,44.3680718 76.0938064,44.4512557 78.9507089,44.5268461 C79.1897333,44.5325413 79.4285851,44.5397897 79.6693353,44.5454848 C82.2777215,44.6136542 84.891285,44.6725043 87.514168,44.7268672 C87.7233359,44.7301463 87.9309506,44.7353237 88.1401185,44.7386027 C89.5207649,44.7665608 90.9048628,44.791585 92.2918947,44.8148834 C93.6411313,44.8374915 94.9905406,44.8585464 96.3401224,44.8764948 C96.5397984,44.8794287 96.7394744,44.8827077 96.9391503,44.8859867 C99.5516784,44.91964 102.162653,44.9451819 104.775699,44.9631304 C104.983314,44.9650287 105.190928,44.9652013 105.396817,44.9669271 C107.965855,44.9821142 110.534893,44.9897078 113.103931,44.9891901 C113.29446,44.9905707 113.486197,44.9903981 113.676726,44.9886723 C115.979989,44.9881546 118.283425,44.9814239 120.587206,44.9669271 C120.808973,44.9657191 121.029358,44.9633029 121.249744,44.9620949 C123.754754,44.9460449 126.258384,44.9220561 128.762359,44.8901287 C129.007769,44.8880577 129.254732,44.8846061 129.500314,44.8792561 C130.592578,44.8675206 131.686395,44.8509528 132.778659,44.8343851 C133.548197,44.8226496 134.306862,44.8109141 135.056035,44.7988334 C135.276421,44.7945189 135.496634,44.7919302 135.715466,44.7891689 C137.955047,44.7525818 140.114551,44.7173753 142.261801,44.6674994 C142.4884,44.6633575 142.715171,44.6578349 142.941769,44.6523123 C144.736264,44.6098575 146.526445,44.5579106 148.349934,44.4878428 C148.576705,44.4790412 148.803476,44.4702396 149.0318,44.4600573 C149.77804,44.430546 152.206597,44.3970653 154.904725,44.3597879 C155.070402,44.1009167 155.241085,43.8446342 155.414874,43.5909404 C152.613542,43.596463 150.035876,43.6030211 149.277038,43.6099243" id="Fill-40" fill="#667EC1"></path>
                        <path d="M168.972648,24.7241318 C166.003223,24.4046847 163.654916,24.1437426 161.562892,23.9029924 C161.368048,23.8810746 161.175966,23.8589843 160.985782,23.8368939 C157.75041,23.4658452 155.071783,23.1401853 151.512304,22.718743 C151.32678,22.6983784 151.136423,22.6747349 150.944513,22.6526445 C149.437883,22.4748863 147.767474,22.27987 145.834396,22.0565505 C144.368495,21.8881116 142.902421,21.7200179 141.43652,21.5564113 C141.244782,21.5344935 141.051319,21.5124032 140.859409,21.4918661 C137.517037,21.1159851 134.174665,20.75253 130.829186,20.3989119 C130.640555,20.3782022 130.451752,20.3578377 130.261395,20.3390264 C126.893999,19.9817841 123.524877,19.6374854 120.155927,19.3025061 C119.96557,19.2821416 119.773661,19.2631577 119.583304,19.2441738 C116.017612,18.8903832 112.452093,18.549191 108.884675,18.2171455 C108.699151,18.1998874 108.512073,18.1826293 108.326376,18.1651987 C105.372656,17.8916581 102.41721,17.6257111 99.4617638,17.3678754 C99.2667475,17.3504448 99.0717312,17.3333593 98.8782682,17.3159286 C96.4324531,17.1036542 93.9866381,16.8944863 91.5392698,16.6915313 C90.8989951,16.6380312 90.2588929,16.586257 89.6187908,16.5343102 C89.4127293,16.5168795 89.2068404,16.4996214 88.9992257,16.4839166 C85.8487633,16.2260809 82.6967476,15.9773919 79.5445594,15.7383675 C79.3528222,15.7226627 79.1593591,15.7085111 78.965896,15.6943594 C75.8342449,15.4568883 72.7027664,15.2271832 69.5697346,15.0054169 C69.3776522,14.9912653 69.1857424,14.9769411 68.9940051,14.9645153 C67.4916893,14.8575152 65.9912718,14.7522409 64.4893012,14.6499005 C62.3895107,14.5052778 60.3118105,14.3511631 58.2465361,14.1891097 C58.0656714,14.1749581 57.8848067,14.1608065 57.7054953,14.1482081 C54.6699717,13.9074579 51.6594723,13.6558351 48.639481,13.4090446 C48.4460179,13.3933397 48.2525548,13.375909 48.0592643,13.3617574 C44.5800355,13.0738926 41.086655,12.7939666 37.528902,12.5423438 C37.3369921,12.5297454 37.3275002,12.2356677 37.5242423,12.2402726 C41.033155,12.3300694 44.4902935,12.5093809 47.9301739,12.7311472 C48.1220837,12.743573 48.313821,12.7561714 48.5043502,12.7689424 C51.5350415,12.9670651 54.5534797,13.1981508 57.5843436,13.4278559 C57.7622744,13.4404543 57.93986,13.4546059 58.1191715,13.4687575 C61.3025968,13.7095077 64.501727,13.9485321 67.7450379,14.1466549 C68.1255785,14.1702984 68.5062918,14.1937694 68.8868324,14.2189662 C69.0756358,14.2284582 69.262886,14.2410566 69.4516894,14.253655 C72.5831679,14.4486713 75.714819,14.6578392 78.8447443,14.8780523 C79.0349283,14.8906507 79.2254575,14.9048023 79.4156416,14.9189539 C82.5787024,15.1407203 85.7417632,15.3766382 88.9032708,15.6236013 C89.1091597,15.6377529 89.3136679,15.6534578 89.5181762,15.6707159 C92.6118595,15.9128467 95.7026089,16.1646421 98.7933584,16.4257569 C98.9868215,16.4414617 99.1787313,16.4571666 99.3704686,16.4744246 C102.333853,16.7260474 105.293959,16.9856089 108.255618,17.2546624 C108.438036,17.2719205 108.62218,17.2876253 108.806151,17.305056 C112.392207,17.6320966 115.97671,17.9701824 119.559833,18.3194859 C119.750017,18.336744 119.93882,18.3557279 120.129004,18.3745392 C120.840037,18.4435715 121.552451,18.512949 122.263484,18.5837071 C124.94211,18.8479283 127.622117,19.1199156 130.299191,19.398461 C130.484715,19.4172724 130.671965,19.4360837 130.857489,19.4566208 C134.225059,19.8057517 137.590902,20.1676536 140.956918,20.5387024 C141.147274,20.5592395 141.337458,20.579604 141.527987,20.6015218 C144.094782,20.8847269 146.661748,21.1756981 149.226989,21.471329 C149.882969,21.5469194 150.501153,21.6176775 151.087583,21.6855017 C151.278112,21.7058663 151.46519,21.7279566 151.649161,21.7483212 C155.752787,22.2137716 158.239504,22.4779928 161.21704,22.8728576 C161.405671,22.8980544 161.594474,22.9230786 161.787765,22.9500012 C163.758637,23.2173289 165.992005,23.5492017 169.056005,24.033636 C169.444484,24.0964554 169.361128,24.7650334 168.972648,24.7241318" id="Fill-42" fill="#667EC1"></path>
                        <path d="M166.895104,23.696068 C161.861439,39.609398 154.688291,65.01657 152.062302,74.6417461 C144.45425,74.5915251 122.654362,74.4538056 118.53365,74.454496 C113.516209,74.4551863 108.498767,74.4572573 103.481326,74.470546 C93.5515447,74.4969508 83.6217635,74.5252541 73.6921548,74.5747848 C68.0484177,74.603088 57.8321523,74.6731558 52.1887603,74.7275188 C52.1608022,74.7276914 52.1373313,74.734422 52.1155861,74.7446043 C52.1067845,74.7446043 52.0966022,74.754614 52.085557,74.7689382 C52.0638118,74.7898205 52.0494876,74.8157076 52.0431021,74.8452189 C51.756618,75.4860114 51.0550771,78.9911273 51.2445708,78.9928531 C71.2119962,79.1688856 95.7541933,79.1864888 115.722309,79.1730275 C118.544695,79.1711291 121.366737,79.1730275 124.189123,79.1514549 C127.504573,79.1264307 130.820367,79.1274662 134.135817,79.1152129 C140.50215,79.1152129 146.869518,79.0482516 153.235851,78.9968225 C153.796566,78.9921628 154.376956,78.9833612 154.885724,78.7476158 C155.863221,78.2945912 156.052715,77.214408 156.325393,76.281954 C157.087682,73.6746034 157.719673,71.0263511 158.469709,68.4195181 C159.734036,64.0238853 160.99819,59.6282524 162.262345,55.232447 C163.614515,50.531001 164.966513,45.829555 166.318511,41.1279364 C167.422856,37.2873234 168.5272,33.4467103 169.631199,29.6060973 C170.152393,27.7931361 170.675486,25.9806926 171.194091,24.167041 C171.200477,24.1444329 171.216861,24.1131958 171.216861,24.0892071 C171.278656,23.8450052 167.013321,23.3229483 166.895104,23.696068" id="Fill-44" fill="#667EC1"></path>
                        <path d="M144.684766,114.532382 C140.330898,112.145589 135.843797,109.991436 131.381721,107.816055 C126.912223,105.636877 122.441,103.461151 117.968569,101.287669 C109.117763,96.9866101 100.266784,92.6853789 91.4158055,88.3841477 C87.1773938,86.3245685 82.9767772,84.1250263 78.6149702,82.3350183 C74.5161763,80.6530459 70.056516,79.3750851 65.5851202,79.8809194 C58.3249913,80.7018862 53.0029448,86.0077102 49.0499816,91.7565491 C46.4750762,95.5018975 44.3371453,99.5299332 42.1194821,103.49049 C39.41307,108.323615 36.7196016,113.163989 34.0494315,118.017306 C33.9281072,118.237864 38.0583108,118.526764 38.1849851,118.308795 C38.2419368,118.312591 38.2997513,118.289121 38.3375465,118.22423 C40.5113742,114.489754 42.6729487,110.748203 44.8188183,106.997849 C46.6840715,103.737798 48.4880586,100.431668 50.4939652,97.2549732 C53.8021664,92.0155928 58.1147879,86.5366703 64.4215805,84.9639416 C68.3509,83.9840278 72.3994729,84.8032688 76.1268729,86.1801184 C80.0750038,87.6384261 83.8225957,89.6483021 87.5995264,91.491465 C95.3796412,95.288415 103.159583,99.0853651 110.939698,102.882315 C115.252665,104.987111 119.565804,107.091906 123.881532,109.191179 C128.283896,111.332734 132.677803,113.521576 137.177502,115.451892 C137.194587,115.459141 137.211155,115.463628 137.227895,115.468115 C137.395989,115.550091 137.571504,115.631204 137.757373,115.711109 C138.155345,115.881618 145.086707,114.752595 144.684766,114.532382" id="Fill-46" fill="#667EC1"></path>
                        <path d="M150.822516,118.369094 C150.822516,122.719856 147.295482,126.246717 142.944893,126.246717 C138.594131,126.246717 135.06727,122.719856 135.06727,118.369094 C135.06727,114.018505 138.594131,110.491471 142.944893,110.491471 C147.295482,110.491471 150.822516,114.018505 150.822516,118.369094" id="Fill-48" fill="#EDEDED"></path>
                        <path d="M150.517635,117.572099 C150.292935,119.327764 149.432102,121.335396 148.408007,122.770578 C146.665459,125.212423 143.322741,126.228579 140.460144,125.519617 C139.002872,125.158578 137.77237,124.273239 136.920339,123.043601 C136.480603,122.409021 136.144071,121.708688 135.881403,120.984194 C135.658773,120.369979 135.450641,119.731603 135.366594,119.081663 C135.259076,118.252413 135.489989,117.522914 135.74282,116.7463 C135.987022,115.995919 136.31924,115.273323 136.742063,114.606471 C137.560614,113.316084 138.723118,112.260407 140.118434,111.626863 C142.826917,110.397053 146.227104,111.032322 148.434239,112.984902 C149.733428,114.134117 150.746822,115.781573 150.517635,117.572099 M150.179549,113.281223 C148.040237,110.550649 144.212395,109.289774 140.866399,110.207214 C139.343373,110.625032 137.96359,111.514341 136.886858,112.66183 C135.80167,113.817776 134.999515,115.26642 134.710269,116.832936 C134.521639,117.854959 134.585148,118.906839 134.826244,119.914538 C135.057329,120.8803 135.349336,121.825353 135.798219,122.715007 C135.861383,122.839955 135.927137,122.963868 135.995651,123.086055 C136.742236,124.418552 137.866082,125.485791 139.281417,126.079297 C139.311446,126.091895 139.34182,126.104321 139.372367,126.116747 C142.473817,127.366404 146.563809,126.605668 148.859306,124.149153 C150.237881,122.673933 150.947361,121.047013 151.454403,119.116007 C151.961791,117.183102 151.401076,114.84049 150.179549,113.281223" id="Fill-50" fill="#9EA0A3"></path>
                        <path d="M146.66558,115.772306 C145.586605,114.395284 143.656288,113.759323 141.968793,114.222185 C141.200636,114.432561 140.50479,114.881271 139.961679,115.459762 C139.414425,116.042912 139.009896,116.773447 138.864065,117.563522 C138.768973,118.078848 138.801073,118.609361 138.92257,119.117612 C139.039062,119.604807 139.186273,120.081303 139.412872,120.529841 C139.444627,120.593178 139.477762,120.655479 139.512278,120.717091 C139.888677,121.38912 140.455778,121.9274 141.169227,122.226655 C141.184586,122.233213 141.199946,122.239426 141.215306,122.245639 C142.779233,122.875731 144.81793,122.495708 145.975602,121.256751 C146.670757,120.512928 147.01333,119.766516 147.26875,118.792642 C147.524859,117.818078 147.281521,116.558756 146.66558,115.772306" id="Fill-52" fill="#2C2C2C"></path>
                        <path d="M44.0430331,118.369094 C44.0430331,122.719856 40.5159994,126.246717 36.1654101,126.246717 C31.8148209,126.246717 28.2877872,122.719856 28.2877872,118.369094 C28.2877872,114.018505 31.8148209,110.491471 36.1654101,110.491471 C40.5159994,110.491471 44.0430331,114.018505 44.0430331,118.369094" id="Fill-54" fill="#EDEDED"></path>
                        <path d="M43.7381519,117.572099 C43.5134517,119.327764 42.6526187,121.335396 41.6285242,122.770578 C39.8859759,125.212423 36.5432585,126.228579 33.6806609,125.519617 C32.2233886,125.158578 30.9928876,124.273239 30.1408562,123.043601 C29.7011203,122.409021 29.3645878,121.708688 29.1019198,120.984194 C28.8792906,120.369979 28.6711581,119.731603 28.5871113,119.081663 C28.4795935,118.252413 28.7105066,117.522914 28.9633374,116.7463 C29.2075392,115.995919 29.5397573,115.273323 29.9625802,114.606471 C30.7811309,113.316084 31.9436352,112.260407 33.3389509,111.626863 C36.0474339,110.397053 39.4476207,111.032322 41.6547565,112.984902 C42.9539447,114.134117 43.9673392,115.781573 43.7381519,117.572099 M43.4000661,113.281223 C41.2607546,110.550649 37.4329125,109.289774 34.0869161,110.207214 C32.5640631,110.625032 31.1841071,111.514341 30.1073755,112.66183 C29.0221875,113.817776 28.2200319,115.26642 27.9307865,116.832936 C27.7421557,117.854959 27.8056654,118.906839 28.0467608,119.914538 C28.2778465,120.8803 28.5698532,121.825353 29.0187359,122.715007 C29.0819004,122.839955 29.1476537,122.963868 29.2161683,123.086055 C29.9627528,124.418552 31.0865989,125.485791 32.501934,126.079297 C32.5319631,126.091895 32.5623373,126.104321 32.5928841,126.116747 C35.6943336,127.366404 39.7843259,126.605668 42.079823,124.149153 C43.4583984,122.673933 44.1680506,121.047013 44.6749204,119.116007 C45.182308,117.183102 44.621593,114.84049 43.4000661,113.281223" id="Fill-56" fill="#9EA0A3"></path>
                        <path d="M39.8860967,115.772306 C38.8071216,114.395284 36.8768054,113.759323 35.1893104,114.222185 C34.4211533,114.432561 33.7253075,114.881271 33.1821958,115.459762 C32.6349421,116.042912 32.2304127,116.773447 32.0845819,117.563522 C31.9894899,118.078848 32.0215899,118.609361 32.1430868,119.117612 C32.2595788,119.604807 32.4067902,120.081303 32.6333888,120.529841 C32.6651437,120.593178 32.6982792,120.655479 32.7327954,120.717091 C33.1091941,121.38912 33.6762946,121.9274 34.3897436,122.226655 C34.4051033,122.233213 34.420463,122.239426 34.4358227,122.245639 C35.9997498,122.875731 38.0384468,122.495708 39.1961187,121.256751 C39.8914468,120.512928 40.233847,119.766516 40.4894392,118.792642 C40.7453765,117.818078 40.5022102,116.558756 39.8860967,115.772306" id="Fill-58" fill="#2C2C2C"></path>
                        <path d="M42.1439713,117.731029 C41.9677663,119.108223 41.2922851,120.683196 40.4889215,121.809113 C39.121909,123.72476 36.4995438,124.522083 34.2539225,123.965683 C33.1107473,123.682477 32.1455029,122.988012 31.4770975,122.023286 C31.1321085,121.525563 30.8680599,120.976238 30.662171,120.407757 C30.4875192,119.926084 30.3242578,119.425082 30.2581594,118.915278 C30.1739399,118.264821 30.3549772,117.692371 30.5532725,117.083333 C30.7448372,116.49466 31.0056068,115.927732 31.3373071,115.404812 C31.9794802,114.392281 32.8915697,113.564065 33.9859045,113.067205 C36.1107193,112.102479 38.778128,112.600719 40.5096312,114.132374 C41.5288933,115.034109 42.3238005,116.326394 42.1439713,117.731029 M41.8787146,114.365013 C40.2003664,112.22294 37.1976331,111.23388 34.5728518,111.953541 C33.378075,112.281272 32.2956482,112.979017 31.4508652,113.879025 C30.5995242,114.785937 29.9702946,115.922382 29.7433508,117.15133 C29.5954491,117.952968 29.6451524,118.778076 29.8343009,119.568669 C30.0156833,120.326299 30.244698,121.067533 30.5969355,121.765623 C30.6464661,121.863648 30.6980678,121.960811 30.7517404,122.056594 C31.3373071,123.101916 32.2191949,123.93945 33.3294072,124.404728 C33.3530507,124.414738 33.3766943,124.424402 33.400683,124.434067 C35.8337271,125.414498 39.0421767,124.817714 40.8428847,122.890504 C41.9244485,121.733177 42.4811942,120.457115 42.8788203,118.942373 C43.2767916,117.425906 42.8370558,115.588093 41.8787146,114.365013" id="Fill-60" fill="#9EA0A3"></path>
                        <path d="M148.870351,117.736241 C148.695699,119.10101 148.026604,120.661485 147.230488,121.777047 C145.875902,123.675264 143.277698,124.465166 141.052441,123.913943 C139.919966,123.633499 138.963523,122.945247 138.301158,121.989494 C137.959275,121.496258 137.697643,120.951766 137.49348,120.388635 C137.320381,119.911276 137.158846,119.414934 137.093438,118.90979 C137.009736,118.265028 137.18922,117.6981 137.38579,117.094413 C137.575628,116.511262 137.833809,115.949339 138.162403,115.431424 C138.798708,114.428212 139.702514,113.60759 140.787012,113.115217 C142.892325,112.159292 145.535227,112.653046 147.250853,114.170721 C148.260796,115.064 149.048454,116.344722 148.870351,117.736241 M148.607511,114.401117 C146.944522,112.278718 143.969402,111.298459 141.368437,112.011736 C140.184705,112.33636 139.112115,113.027891 138.274926,113.919616 C137.431696,114.818072 136.807989,115.944162 136.583289,117.161892 C136.436595,117.956109 136.485953,118.773969 136.673376,119.557141 C136.85286,120.307867 137.079976,121.042371 137.428935,121.733902 C137.477948,121.831238 137.529032,121.927365 137.582359,122.022457 C138.162576,123.058115 139.036352,123.887883 140.136382,124.349019 C140.159853,124.358856 140.183324,124.368693 140.20714,124.378013 C142.617921,125.34947 145.79686,124.758208 147.581173,122.848774 C148.652727,121.701975 149.204468,120.437303 149.598469,118.93654 C149.992989,117.434052 149.55705,115.612979 148.607511,114.401117" id="Fill-62" fill="#9EA0A3"></path>
                        <path d="M39.3418977,109.119333 C35.9874448,108.096447 32.3404675,108.942611 29.6368167,111.135767 C28.1110299,112.373344 26.9640579,113.976447 26.277359,115.815986 C26.1413653,116.180304 26.9628499,116.227073 27.1732259,116.277985 C27.784507,116.426404 28.3964785,116.60537 29.0182871,116.701153 C29.4138423,116.761901 29.8107782,116.812122 30.2082317,116.859409 C30.5611595,116.901347 30.9822566,117.017321 31.3355295,116.991089 C32.829734,117.172298 34.3296337,117.307084 35.8333302,117.373528 C37.3501428,117.440662 38.8693715,117.452742 40.387047,117.409942 C41.8931596,117.367487 44.8349719,117.217515 46.2901731,116.788651 C46.3845748,116.760866 46.4216797,116.688727 46.4192636,116.615898 C46.4285829,116.499406 46.3557538,116.052594 46.3257248,115.926265 C45.5420354,112.624794 42.4970198,110.081299 39.3418977,109.119333" id="Fill-64" fill="#667EC1"></path>
                        <path d="M144.879593,109.194682 C141.439712,108.512298 137.895593,109.71881 135.424754,112.171356 C134.030474,113.555281 133.049524,115.264866 132.550248,117.163945 C132.474485,117.451465 132.828621,117.449049 133.010866,117.468896 C133.391407,117.510488 133.759177,117.616107 134.137474,117.663222 C134.532684,117.714823 134.930137,117.747096 135.327936,117.768669 C136.118184,117.811641 136.909639,117.811296 137.700577,117.827346 C139.205136,117.858411 140.711249,117.842533 142.21391,117.758314 C143.72986,117.673404 145.242703,117.533614 146.74847,117.339288 C148.242675,117.146342 151.154803,116.703155 152.559956,116.130877 C152.650906,116.093945 152.680762,116.018354 152.670925,115.94587 C152.668509,115.829033 152.551499,115.391886 152.509045,115.269181 C152.228946,114.460295 151.805605,113.705081 151.281823,113.029082 C150.776161,112.376554 150.179204,111.797373 149.52495,111.295681 C148.865001,110.789501 148.145857,110.360811 147.390298,110.013405 C146.647165,109.671695 145.867445,109.407302 145.067878,109.233858 C145.005232,109.220051 144.942412,109.207108 144.879593,109.194682" id="Fill-66" fill="#667EC1"></path>
                        <path d="M44.7048804,80.3345825 C44.1717784,78.6831569 43.6481682,76.8032343 43.1680485,74.8380568 C42.6523771,72.7279114 42.1420556,70.6162128 41.6370842,68.5034787 C40.6269688,64.2781831 39.6341115,60.0484004 38.663172,55.8137854 C36.7100751,47.2945071 34.8427509,38.7552093 33.0618897,30.1981358 C32.0612662,25.3898622 31.1200106,20.5686451 30.06675,15.7715893 C30.0047935,15.4902827 29.5931883,15.6131602 29.6401303,15.8892894 C31.121909,24.6077261 33.0025219,33.2681755 34.8522429,41.9148185 C36.7026541,50.5643954 38.6365945,59.1967142 40.6695963,67.8050442 C41.240321,70.2213479 41.8177763,72.636271 42.4023075,75.0491231 C42.6685996,76.1482902 43.7083989,79.6395997 44.2266591,80.4918036 C44.3971689,80.7725926 44.7984192,80.6243457 44.7048804,80.3345825" id="Fill-92" fill="#86ABBD"></path>
                        <path d="M161.116684,27.6971121 C157.696651,41.3296143 154.171515,53.5928604 149.978492,67.0070479 C148.785096,70.8245351 147.517318,74.6195868 146.401928,78.4608901 C146.282329,78.873013 146.888778,79.0236761 147.034782,78.6351967 C149.523224,72.0156877 151.515324,65.1877011 153.506389,58.4052759 C155.471912,51.7101765 157.319907,44.98384 159.039502,38.2212616 C160.025801,34.3428534 160.641915,31.7144479 161.557456,27.818609 C161.62459,27.5328152 161.188305,27.4109732 161.116684,27.6971121" id="Fill-94" fill="#86ABBD"></path>
                        <path d="M146.727761,78.8603974 C144.860954,79.0146846 143.061454,79.1449831 141.29509,79.2568155 C141.06711,79.2725203 140.840684,79.2866719 140.614086,79.3008236 C138.792668,79.4140366 137.004386,79.5084383 135.211444,79.593348 C134.984845,79.6043932 134.758419,79.6154384 134.531821,79.6249303 C132.386469,79.7255449 130.228519,79.8120079 127.990491,79.9015773 C127.771659,79.909516 127.551618,79.9174547 127.331232,79.9269467 C126.582577,79.9568032 125.824602,79.9864871 125.055409,80.0163435 C123.963836,80.0587984 122.870709,80.1012533 121.779136,80.1390485 C121.533898,80.1502662 121.286763,80.1595856 121.041525,80.1673517 C118.539104,80.2588196 116.036682,80.3420035 113.532535,80.4174213 C113.312494,80.4239794 113.092281,80.4315729 112.870342,80.438131 C110.567942,80.5071633 108.265196,80.5684295 105.962451,80.6236554 C105.772267,80.6298683 105.580184,80.634528 105.39,80.637807 C102.82148,80.6990732 100.25296,80.7525732 97.6844405,80.7983071 C97.4785516,80.801241 97.2709369,80.8059007 97.0633222,80.8091797 C94.4506216,80.8531878 91.8398193,80.8894298 89.2271186,80.917733 C89.0274427,80.9192863 88.8277667,80.9208395 88.6280907,80.9223927 C87.2785089,80.9365443 85.9289271,80.9475895 84.5795178,80.9569089 C83.1923134,80.9664008 81.8080428,80.9743395 80.4270513,80.9789992 C80.2178834,80.9805524 80.0102687,80.9805524 79.8011008,80.9822783 C77.1775275,80.9900444 74.5636188,80.9931508 71.9540246,80.9869379 C71.713447,80.9869379 71.4744226,80.9853847 71.2352256,80.9853847 C68.3774602,80.9776186 65.5257352,80.9617411 62.6726294,80.9365443 C62.4760599,80.9334379 62.2794904,80.9318847 62.0829209,80.9303314 C59.2862491,80.9035814 56.4881967,80.8690653 53.6837587,80.8233313 C53.4431811,80.8200523 53.2024309,80.8153926 52.9634065,80.8124588 C50.121346,80.7651716 47.2711741,80.7085651 44.4070233,80.6409134 C44.1554005,80.634528 44.1726585,80.2476018 44.4227281,80.2493276 C47.2711741,80.2729712 50.0756121,80.2900567 52.8690048,80.2995486 C53.106476,80.3012744 53.345673,80.3012744 53.5831441,80.3012744 C56.3796433,80.3105938 59.1682038,80.3137003 61.9821337,80.3105938 L62.5766745,80.3105938 C64.0237645,80.3074873 65.4770674,80.3026551 66.9429686,80.2979954 C68.3334521,80.2933357 69.7222098,80.2871228 71.1125206,80.2776309 C71.3532709,80.2759051 71.5940211,80.2743518 71.8330455,80.2729712 C74.4564461,80.2555405 77.0815726,80.2303437 79.7051459,80.2004873 C79.9112073,80.1973808 80.118822,80.195655 80.3248835,80.1927211 C83.0554568,80.1595856 85.7874108,80.118684 88.5179842,80.0715694 C88.7192134,80.0682904 88.9206152,80.0651839 89.1218444,80.0620775 C91.7392047,80.0147903 94.3563925,79.9630161 96.972027,79.9048564 C97.1811949,79.8986434 97.3888096,79.8938112 97.5962517,79.8907047 C100.168051,79.8308192 102.739677,79.7664466 105.311304,79.6956884 C105.503213,79.6908562 105.695123,79.6844707 105.887033,79.679811 C106.402877,79.6656594 106.920447,79.6499545 107.436118,79.6358029 C109.262368,79.5838561 111.067909,79.5256963 112.857917,79.4659834 C113.079683,79.4582173 113.301277,79.4502785 113.523216,79.4423398 C116.0586,79.3558768 118.565681,79.2614751 121.058783,79.163967 C121.304193,79.1562009 121.549431,79.1467089 121.79484,79.1356637 C123.680631,79.0633524 125.560381,78.987762 127.439786,78.9138974 C127.660171,78.9061313 127.880212,78.8966393 128.101978,78.8887006 C130.305662,78.8022377 132.51228,78.7156021 134.731497,78.6339714 C134.956542,78.6262052 135.182968,78.6167133 135.407841,78.6087746 C137.207341,78.5426761 139.015988,78.4798567 140.839131,78.4215244 C141.065385,78.4137583 141.291983,78.4073728 141.520135,78.4011599 C143.247151,78.3445534 144.989872,78.2941598 146.751404,78.2485985 C147.152482,78.2391065 147.110027,78.8289877 146.727761,78.8603974" id="Fill-96" fill="#86ABBD"></path>
                        <path d="M150.962893,65.0276497 C149.095914,65.1819369 143.830474,65.6183938 142.06411,65.729881 C141.835958,65.7457584 141.609532,65.75991 141.382933,65.7740617 C139.561688,65.8872747 137.773233,65.9816764 135.980292,66.0667587 C135.753866,66.0776313 135.52744,66.0885039 135.300841,66.0979958 C133.155316,66.198783 130.997366,66.285246 128.759338,66.374988 C128.540679,66.3827541 128.320466,66.3905203 128.100252,66.4000122 C127.351597,66.4298687 126.593449,66.4598977 125.824429,66.4897542 C124.732856,66.5322091 123.639729,66.574664 122.548156,66.6124592 C122.302746,66.6233317 122.055783,66.6328237 121.810373,66.6407624 C119.307951,66.7318851 116.80553,66.8152416 114.301555,66.890832 C114.081342,66.8970449 113.861301,66.9049836 113.639362,66.9111965 C111.336789,66.9804014 109.034044,67.0418402 106.731471,67.0967209 C106.541114,67.1031064 106.349204,67.1079386 106.158848,67.1108725 C103.5905,67.1723113 101.021981,67.2258113 98.4534605,67.2713726 C98.2473991,67.2746517 98.0397844,67.2793114 97.8321697,67.2824178 C95.2196416,67.3264259 92.6086667,67.3626679 89.9961387,67.3909711 C89.7964627,67.3925244 89.5966141,67.3940776 89.3969381,67.3958034 C88.0473563,67.409955 86.6979471,67.4208276 85.3485379,67.4303195 C83.9611608,67.4398115 82.5770629,67.447405 81.1960713,67.4522373 C80.9869034,67.4539631 80.7792887,67.4539631 80.5699482,67.4553438 C77.9465476,67.4632825 75.3324663,67.4663889 72.7230446,67.460176 C72.482467,67.460176 72.24327,67.4586228 72.0042456,67.4586228 C69.1464802,67.4506841 66.2947552,67.4349792 63.4416495,67.409955 C63.2450799,67.406676 63.0485104,67.4049502 62.8517683,67.4035695 C60.0552691,67.3766469 57.2570441,67.3421308 54.4526062,67.2965694 C54.2122011,67.293463 53.9714509,67.2888033 53.7322539,67.2855243 C50.890366,67.2384097 43.9010164,67.093787 41.0368655,67.0259627 C40.7852427,67.0197498 40.8025008,66.6328237 41.0525703,66.6345495 C43.9010164,66.6580205 50.8446321,66.7634674 53.6380248,66.7727867 C53.875496,66.7743399 54.1145204,66.7743399 54.3519916,66.7743399 C57.1484908,66.7838319 59.9373964,66.7869383 62.7511537,66.7838319 L63.3456945,66.7838319 C64.7926119,66.7807254 66.2459148,66.7758932 67.7118161,66.7714061 C69.1022995,66.7665738 70.4912298,66.7601883 71.8815407,66.7506964 C72.1222909,66.7493157 72.3630411,66.7475899 72.6018929,66.7460367 C75.2254662,66.7287786 77.8504201,66.7035818 80.4741659,66.6737253 C80.6802273,66.6706189 80.887842,66.6690657 81.0937309,66.6657866 C83.8243043,66.6328237 86.5564308,66.591922 89.2868316,66.5448075 C89.4882334,66.5415285 89.6894626,66.538422 89.8908644,66.5353155 C92.5080521,66.488201 95.1252399,66.4362542 97.7408744,66.3779219 C97.9500424,66.3717089 98.157657,66.3670493 98.3652717,66.3637702 C100.937071,66.3040573 103.508525,66.2395121 106.080324,66.1687539 C106.272061,66.1640943 106.463971,66.1578813 106.656053,66.1530491 C107.171897,66.1388975 107.689294,66.1233652 108.205138,66.1092136 C110.031216,66.0572667 111.836929,65.9989344 113.626764,65.9392215 C113.84853,65.9312828 114.070297,65.923344 114.292236,65.9157505 C116.82762,65.8291149 119.334701,65.7347132 121.827803,65.6372051 C122.073213,65.6292664 122.318278,65.619947 122.563688,65.6089018 C124.449651,65.5365905 126.329228,65.4611727 128.208806,65.3871355 C128.429019,65.3791968 128.649232,65.3697049 128.870998,65.3619387 C131.07451,65.2754757 133.2813,65.1890128 135.500517,65.1072095 C135.725562,65.0992707 135.951988,65.0897788 136.176861,65.0818401 C137.976188,65.0159142 139.785008,64.9529222 141.607979,64.8947625 C141.834405,64.8869964 142.061003,64.8806109 142.288982,64.874398 C144.015998,64.8177915 149.224832,64.4614121 150.986537,64.4158508 C151.387442,64.4063589 151.344987,64.9960674 150.962893,65.0276497" id="Fill-98" fill="#667EC1"></path>
                        <path d="M156.138816,47.631868 C154.268558,47.741802 143.055638,47.8349956 141.287203,47.9045456 C141.058878,47.9150731 140.832107,47.9237021 140.605336,47.9325037 C138.781847,48.002399 136.991667,48.0545184 135.196999,48.0968007 C134.9704,48.1026684 134.743629,48.108191 134.517031,48.1121603 C132.369953,48.1618636 130.210622,48.1972427 127.970869,48.2338298 C127.752209,48.2365911 127.53165,48.2391798 127.311437,48.2433217 C126.562264,48.2554024 125.803772,48.2674831 125.034061,48.279046 C123.941797,48.2956137 122.84798,48.3121815 121.755716,48.3240896 C121.510307,48.329267 121.263171,48.3328912 121.017588,48.3347896 C118.513614,48.366717 116.010157,48.3907057 113.504974,48.4067558 C113.284761,48.4077912 113.064375,48.4105525 112.842436,48.411588 C110.538828,48.4262574 108.235392,48.432988 105.932128,48.4333332 C105.741599,48.435059 105.549689,48.4352316 105.359333,48.4338509 C102.790123,48.4341961 100.221085,48.4267751 97.6522197,48.411588 C97.4461582,48.4098622 97.2385435,48.4096896 97.0309288,48.4077912 C94.4180556,48.3900154 91.8069081,48.3641283 89.1945526,48.3304751 C88.9947041,48.3273686 88.7950281,48.3242621 88.5953521,48.3209831 C87.2459429,48.3032073 85.8963611,48.282325 84.5471244,48.2597169 C83.1600926,48.2362459 81.7759946,48.2112217 80.3953482,48.1830911 C80.1861803,48.179812 79.9787382,48.1748072 79.7693977,48.1715281 C77.1465148,48.1171652 74.5331238,48.0583151 71.9245651,47.9901457 C71.68416,47.9844506 71.4451356,47.9772022 71.2061112,47.971507 C68.3492087,47.8959166 65.4988643,47.8125601 62.6469667,47.7198842 C62.4505697,47.7119455 62.2540002,47.7057326 62.0574307,47.6995197 C59.2623121,47.6064986 56.4658129,47.5055389 53.6632734,47.3933613 C53.4228683,47.3845597 53.1824633,47.3742049 52.9434389,47.3654032 C50.1032768,47.2508096 39.1093624,46.7446301 36.2476276,46.6091542 C35.9961774,46.5970735 36.0225823,46.2106651 36.2724793,46.2180861 C39.1195446,46.3092088 50.0689332,46.7748318 52.8611179,46.8505947 C53.098589,46.8576705 53.3376134,46.8633657 53.5750846,46.8690609 C56.3705483,46.9448238 59.1584185,47.0140287 61.9714854,47.0775385 L62.5660263,47.0916901 C64.0125985,47.1229272 65.4655562,47.1526111 66.9312849,47.1824676 C68.3212506,47.2109434 69.7100083,47.2375209 71.1001466,47.2611644 C71.3407242,47.2651338 71.5814744,47.2692757 71.8204988,47.2734177 C74.4437269,47.3184613 77.0686808,47.3553936 79.6920815,47.3876662 C79.898143,47.3895646 80.1059302,47.3928436 80.3118191,47.3945694 C83.0423925,47.4263243 85.774519,47.4501404 88.5054375,47.4677437 C88.7066667,47.4694695 88.9080685,47.4710227 89.1094703,47.4725759 C91.7270032,47.4875904 94.3447087,47.4977727 96.9612062,47.5015695 C97.1703741,47.5001888 97.3781614,47.5003614 97.5857761,47.5022598 C100.158093,47.5034679 102.73041,47.4998437 105.303071,47.4901792 C105.494981,47.4900066 105.687064,47.4882808 105.878801,47.4881082 C106.395163,47.4860372 106.912733,47.4827582 107.428749,47.4806872 C109.255689,47.4720582 111.062265,47.4566985 112.853136,47.439613 C113.074902,47.4368517 113.296841,47.434263 113.518608,47.4316743 C116.055373,47.405442 118.564007,47.3704081 121.058663,47.3320952 C121.304072,47.3300242 121.549655,47.3262274 121.795237,47.3212226 C123.682408,47.2936096 125.563194,47.2625451 127.443807,47.2332064 C127.664365,47.2307902 127.884578,47.2264757 128.106517,47.223887 C130.311582,47.1895434 132.519753,47.1553724 134.74035,47.1262063 C134.965223,47.1237901 135.191994,47.1196482 135.41704,47.1172321 C137.217402,47.0939337 139.027257,47.0739143 140.851091,47.0588998 C141.077517,47.056311 141.304116,47.0554481 141.532267,47.0545852 C143.260146,47.0388804 154.414734,47.0245562 156.176956,47.0207594 C156.578034,47.020932 156.5216,47.6096051 156.138816,47.631868" id="Fill-100" fill="#667EC1"></path>
                        <path d="M161.227913,28.1688445 C158.258487,27.8493974 155.910181,27.5884553 153.818156,27.347705 C153.623312,27.3256147 153.431403,27.3036969 153.241046,27.2816066 C150.005674,26.9105579 147.327047,26.5848979 143.767741,26.1634556 C143.582044,26.1429185 143.391687,26.1192749 143.19995,26.0973572 C141.693147,25.919599 140.022738,25.7245827 138.08966,25.5012631 C136.623759,25.3328243 135.157858,25.164558 133.691956,25.001124 C133.500047,24.9790336 133.306584,24.9571159 133.114846,24.9365788 C129.772301,24.5606978 126.430102,24.1972426 123.08445,23.843452 C122.89582,23.8229149 122.707189,23.8025504 122.51666,23.783739 C119.149436,23.4264968 115.780141,23.0820255 112.411191,22.7470462 C112.220835,22.7266817 112.029097,22.7076978 111.838568,22.6888865 C108.272876,22.3349233 104.707357,21.993731 101.140112,21.6618582 C100.954415,21.6444275 100.767338,21.627342 100.581813,21.6099114 C97.6279203,21.3361982 94.6724742,21.0704238 91.7172006,20.8124155 C91.5220118,20.7951574 91.3269955,20.7778993 91.1335324,20.7606413 C88.6877174,20.5483669 86.2419023,20.3390264 83.7945341,20.1362439 C83.1544319,20.0827439 82.5141572,20.0307971 81.874055,19.9788503 C81.6681661,19.9615922 81.4621046,19.9443341 81.2544899,19.9286292 C78.1040275,19.670621 74.9520119,19.4221046 71.7999962,19.1830802 C71.6080864,19.1673754 71.4146233,19.1532237 71.2211603,19.1390721 C68.0895092,18.9016009 64.9580306,18.6718959 61.8249989,18.4501296 C61.6329164,18.435978 61.4411792,18.4216537 61.2492693,18.4092279 C59.7471261,18.3022278 58.2465361,18.1969536 56.7445654,18.0946131 C54.6447749,17.9498179 52.5670747,17.7958758 50.5018003,17.6338224 C50.3209357,17.6196708 50.140071,17.6055192 49.9607595,17.5929208 C46.9252359,17.3521706 43.9147365,17.1005478 40.8947452,16.8537572 C40.7014547,16.8378798 40.5079916,16.8206217 40.3145286,16.8064701 C36.8352997,16.5186053 33.3419193,16.2386793 29.7841662,15.9868839 C29.5922564,15.9744581 29.5827644,15.6803804 29.7795065,15.6849853 C33.2885918,15.7747821 36.7455577,15.9540935 40.1856107,16.1756873 C40.377348,16.1882857 40.5692578,16.2008841 40.7596144,16.2134825 C43.7904784,16.4116052 46.8089165,16.6428635 49.8396078,16.8725685 C50.0175386,16.8849943 50.1952968,16.899146 50.3744357,16.9132976 C53.557861,17.1540478 56.7571638,17.3932448 60.0003021,17.5913675 C60.3810154,17.6150111 60.761556,17.6384821 61.1422692,17.6636789 C61.3310726,17.6731708 61.5181502,17.6857692 61.7069536,17.6981951 C64.8384321,17.8932114 67.9700832,18.1025519 71.1000085,18.3225924 C71.2903652,18.3353633 71.4807218,18.349515 71.6709058,18.3636666 C74.8339666,18.5854329 77.9972,18.8213509 81.158535,19.068314 C81.3644239,19.0824656 81.5691047,19.0979979 81.7734404,19.1154285 C84.8672963,19.3575594 87.9578732,19.6091822 91.0486226,19.8702969 C91.2420857,19.8861744 91.4339956,19.9018792 91.6257328,19.9191373 C94.5891177,20.1707601 97.5492235,20.4303216 100.511055,20.6993751 C100.6933,20.7164606 100.877444,20.732338 101.061415,20.7495961 C104.647472,21.0766367 108.232147,21.4148951 111.815097,21.7641986 C112.005281,21.7812841 112.194085,21.800268 112.384441,21.8190793 C113.095474,21.8882842 113.807715,21.9576617 114.51892,22.0284198 C117.197374,22.2924684 119.877554,22.5646283 122.554455,22.8431737 C122.740152,22.861985 122.927229,22.8807963 123.112926,22.9013334 C126.480323,23.2504644 129.846339,23.6121937 133.212182,23.983415 C133.402711,24.0037796 133.592895,24.0243167 133.783252,24.0462344 C136.350218,24.3294395 138.917013,24.6204107 141.482254,24.9160416 C142.138233,24.991632 142.756418,25.0623902 143.34302,25.1300418 C143.533376,25.1505789 143.720454,25.1724967 143.904598,25.1930338 C148.008051,25.6584842 150.49494,25.9227054 153.472304,26.3173977 C153.660935,26.3427671 153.849738,26.3677913 154.043202,26.3945413 C156.013902,26.6620415 158.24727,26.9937418 161.311269,27.4783487 C161.699749,27.5411681 161.616565,28.2095735 161.227913,28.1688445" id="Fill-102" fill="#667EC1"></path>
                        <path d="M138.217506,118.095226 C133.86381,115.708434 129.376537,113.55428 124.914461,111.378899 C120.444963,109.199721 115.97374,107.023995 111.501309,104.850513 C102.650502,100.549454 93.7995238,96.2482231 84.9487177,91.946992 C80.710306,89.8874128 76.5096894,87.6878705 72.1477098,85.8978625 C68.048916,84.2157175 63.5894282,82.9379293 59.1178598,83.4437636 C51.8577309,84.2647305 46.5356844,89.5705544 42.5827212,95.3193933 C40.0078158,99.0647417 37.8698849,103.092777 35.6522217,107.053334 C32.9459822,111.886459 30.2525138,116.726833 27.5823437,121.58015 C27.4608468,121.800708 31.5910504,122.089608 31.7178973,121.871639 C31.7746764,121.875436 31.8324909,121.851965 31.8702861,121.787074 C34.0441138,118.052599 36.2056883,114.311047 38.3517305,110.560694 C40.2168111,107.300642 42.0207982,103.994512 44.0267048,100.817817 C47.334906,95.5784371 51.6475275,90.0995146 57.9543201,88.5267858 C61.8838122,87.546872 65.9322125,88.3661131 69.6597851,89.7431352 C73.6077434,91.2012704 77.3555079,93.2111463 81.132266,95.0543092 C88.9123809,98.8512593 96.6924957,102.648209 104.472438,106.445159 C108.785405,108.549955 113.098544,110.65475 117.414272,112.754023 C121.816635,114.895578 126.210542,117.08442 130.710241,119.014736 C130.727327,119.021985 130.743895,119.026472 130.760635,119.030959 C130.928901,119.112935 131.104416,119.194048 131.290285,119.273953 C131.688084,119.444463 138.619447,118.315439 138.217506,118.095226" id="Fill-104" fill="#667EC1"></path>
                        <path d="M143.927206,121.931956 C143.927206,126.282718 140.400172,129.809579 136.049583,129.809579 C131.698993,129.809579 128.17196,126.282718 128.17196,121.931956 C128.17196,117.581367 131.698993,114.054333 136.049583,114.054333 C140.400172,114.054333 143.927206,117.581367 143.927206,121.931956" id="Fill-106" fill="#EDEDED"></path>
                        <g id="Group-110" transform="translate(127.537208, 113.359005)" fill="#9EA0A3">
                            <path d="M16.0852722,7.77593837 C15.860572,9.5316028 14.999739,11.5392352 13.975472,12.9744171 C12.2329237,15.4162627 8.89020627,16.4324185 6.02760862,15.7234566 C4.57033639,15.3625901 3.33983532,14.4770781 2.48780394,13.2474399 C2.04806807,12.6130329 1.71153552,11.9125274 1.44886755,11.1880333 C1.22623832,10.5738182 1.01827847,9.93544186 0.934059037,9.28550258 C0.826541202,8.45625186 1.05745431,7.72675284 1.31028517,6.95013926 C1.554487,6.19975797 1.88670503,5.47716218 2.30952797,4.81030999 C3.12807869,3.51992338 4.29058292,2.46424666 5.68589865,1.83070256 C8.39455423,0.600891812 11.7945685,1.23616172 14.0018768,3.18874083 C15.3010651,4.33795635 16.3142869,5.98541262 16.0852722,7.77593837 M15.7470138,3.48506206 C13.6077023,0.75448872 9.78003285,-0.506386569 6.4340364,0.411225519 C4.91101088,0.828871043 3.53122742,1.71835246 2.45432326,2.86566959 C1.36913522,4.02161575 0.566979686,5.47025895 0.277734274,7.03677482 C0.0891034645,8.05879829 0.152785778,9.11067824 0.393708568,10.1183775 C0.624794252,11.0841396 0.916800958,12.0291921 1.36568361,12.9188461 C1.42884818,13.0437946 1.49460146,13.1677076 1.56328862,13.2898948 C2.30970055,14.6223911 3.43354669,15.6896307 4.84888179,16.2831361 C4.87908343,16.2957345 4.90945765,16.3081603 4.93983187,16.3205861 C8.04128134,17.5702437 12.1312736,16.8095075 14.4267708,14.3529925 C15.8053461,12.8777718 16.5149984,11.2508527 17.0218682,9.31984616 C17.5292557,7.38694126 16.9685407,5.04432954 15.7470138,3.48506206" id="Fill-108"></path>
                        </g>
                        <path d="M139.770269,119.33515 C138.691294,117.957955 136.760978,117.322168 135.073483,117.785029 C134.305498,117.995578 133.609653,118.444115 133.066368,119.022606 C132.519115,119.605757 132.114758,120.336291 131.968927,121.126366 C131.873662,121.641692 131.905762,122.172206 132.027259,122.680456 C132.143924,123.167652 132.291135,123.644147 132.517561,124.092685 C132.549316,124.156022 132.582624,124.218324 132.617141,124.279935 C132.993367,124.951965 133.560467,125.490244 134.274089,125.789499 C134.289276,125.796057 134.304636,125.80227 134.319995,125.808483 C135.883922,126.438575 137.922619,126.058553 139.080291,124.819595 C139.775619,124.075772 140.11802,123.329532 140.373612,122.355486 C140.629549,121.380923 140.386383,120.121601 139.770269,119.33515" id="Fill-111" fill="#2C2C2C"></path>
                        <path d="M37.1477228,121.931956 C37.1477228,126.282718 33.620689,129.809579 29.2700998,129.809579 C24.9195105,129.809579 21.3924768,126.282718 21.3924768,121.931956 C21.3924768,117.581367 24.9195105,114.054333 29.2700998,114.054333 C33.620689,114.054333 37.1477228,117.581367 37.1477228,121.931956" id="Fill-113" fill="#EDEDED"></path>
                        <g id="Group-117" transform="translate(20.882276, 113.359005)" fill="#9EA0A3">
                            <path d="M15.9607379,7.77593837 C15.7360377,9.5316028 14.8752047,11.5392352 13.8509377,12.9744171 C12.1083894,15.4162627 8.76567197,16.4324185 5.90307432,15.7234566 C4.44580209,15.3625901 3.21530102,14.4770781 2.36326963,13.2474399 C1.92353377,12.6130329 1.58700122,11.9125274 1.32433325,11.1880333 C1.10170402,10.5738182 0.893744164,9.93544186 0.809524736,9.28550258 C0.7020069,8.45625186 0.932920004,7.72675284 1.18575087,6.95013926 C1.42995269,6.19975797 1.76217072,5.47716218 2.18499367,4.81030999 C3.00354438,3.51992338 4.1662212,2.46424666 5.56136435,1.83070256 C8.27001993,0.600891812 11.6700342,1.23616172 13.8773425,3.18874083 C15.1765308,4.33795635 16.1897526,5.98541262 15.9607379,7.77593837 M15.6224795,3.48506206 C13.483168,0.75448872 9.65549855,-0.506386569 6.30950209,0.411225519 C4.78647658,0.828871043 3.40669312,1.71835246 2.32978896,2.86566959 C1.24460092,4.02161575 0.442445384,5.47025895 0.153199972,7.03677482 C-0.0352582564,8.05879829 0.0282514762,9.11067824 0.269174266,10.1183775 C0.500259951,11.0841396 0.792266656,12.0291921 1.2411493,12.9188461 C1.30431388,13.0437946 1.37006716,13.1677076 1.43875431,13.2898948 C2.18516625,14.6223911 3.30901239,15.6896307 4.72434749,16.2831361 C4.75454913,16.2957345 4.78492335,16.3081603 4.81529757,16.3205861 C7.91674704,17.5702437 12.0067393,16.8095075 14.3022365,14.3529925 C15.6808118,12.8777718 16.3904641,11.2508527 16.8975065,9.31984616 C17.4047214,7.38694126 16.8440064,5.04432954 15.6224795,3.48506206" id="Fill-115"></path>
                        </g>
                        <path d="M32.9907864,119.33515 C31.9118113,117.957955 29.9814951,117.322168 28.2940001,117.785029 C27.5260155,117.995578 26.8301698,118.444115 26.2868854,119.022606 C25.7396317,119.605757 25.3352749,120.336291 25.1894441,121.126366 C25.0941795,121.641692 25.1262796,122.172206 25.2477764,122.680456 C25.3644411,123.167652 25.5116525,123.644147 25.7380785,124.092685 C25.7698334,124.156022 25.8031414,124.218324 25.8376576,124.279935 C26.2140563,124.951965 26.7809842,125.490244 27.4946058,125.789499 C27.5097929,125.796057 27.5251526,125.80227 27.5405123,125.808483 C29.1044395,126.438575 31.1431364,126.058553 32.300981,124.819595 C32.9961364,124.075772 33.3385367,123.329532 33.5941289,122.355486 C33.8500662,121.380923 33.6068998,120.121601 32.9907864,119.33515" id="Fill-118" fill="#2C2C2C"></path>
                        <path d="M159.15054,27.1406081 C154.116876,43.053938 146.943728,68.4612827 144.317566,78.0862862 C136.709514,78.0362378 114.909626,77.8985183 110.789087,77.8992086 C105.771646,77.899899 100.754204,77.9019699 95.7365901,77.9152587 C85.8068089,77.9414909 75.8770277,77.9697942 65.9474191,78.0194975 C60.3036819,78.0478007 50.0874166,78.1178685 44.4440246,78.1720589 C44.4160665,78.172404 44.3925955,78.1789621 44.3708503,78.1891444 C44.3620487,78.189317 44.3518664,78.1991541 44.3409938,78.2134783 C44.3190761,78.2343605 44.3049245,78.2604202 44.2983664,78.2899316 C44.0118823,78.9307241 43.3103413,82.43584 43.5000076,82.4375658 C63.4672605,82.6135982 88.0094576,82.6312015 107.977573,82.6177402 C110.79996,82.6158418 113.622001,82.6175676 116.444387,82.5961676 C119.759837,82.5709708 123.075632,82.5721788 126.391254,82.5599256 C132.757587,82.5599256 139.124955,82.4929642 145.491116,82.4415352 C146.051831,82.4368755 146.632392,82.4280739 147.140988,82.1923285 C148.118658,81.7391313 148.307979,80.6591207 148.580657,79.7264941 C149.342946,77.119316 149.97511,74.4710637 150.724973,71.8640582 C151.9893,67.468598 153.253455,63.0727925 154.517609,58.6771597 C155.869779,53.9757137 157.221777,49.2740951 158.573775,44.572649 C159.678292,40.732036 160.782464,36.891423 161.886636,33.0506374 C162.40783,31.2376762 162.930923,29.4254052 163.449355,27.6115811 C163.455741,27.5891456 163.472125,27.5579085 163.472125,27.5339197 C163.53392,27.2897179 159.268586,26.7674884 159.15054,27.1406081" id="Fill-120" fill="#667EC1"></path>
                        <path d="M49.1043273,90.4917389 C49.1288338,90.4453147 49.1397064,90.3892259 49.1279709,90.3243356 C48.228825,85.3987071 46.8980545,80.5222641 45.7195002,75.6572115 C44.5380121,70.7807686 43.3551433,65.9046708 42.1615745,61.0313343 C39.799116,51.386484 37.4351043,41.742324 35.0500377,32.1033414 C34.7064293,30.7142386 34.3616129,29.3256535 34.0164513,27.9370685 C33.6115768,26.3079058 33.2060119,24.6789156 32.7995841,23.0500981 C32.3807305,21.3696789 31.9611866,19.6894323 31.5407798,18.0095308 C31.3497329,17.5316546 31.2788022,16.9624831 31.1536811,16.4626891 C31.0220019,15.9366629 30.8899776,15.410464 30.7579533,14.8844378 C30.6017677,14.2634921 30.4412676,13.6216641 30.2837013,12.9926071 C30.2134609,12.7118181 30.1502964,12.4470792 30.0785027,12.1630112 C29.9281849,11.568643 29.7821815,11.11907 29.1239584,11.0106892 C28.8864872,10.9715134 28.6479805,10.9394134 28.4125803,10.8895375 C27.8044056,10.7606197 27.193297,10.6263518 26.5751126,10.5490356 C21.0088642,9.616409 10.9298006,7.94668981 5.35923772,7.03977773 C5.33162479,7.03529063 5.30746348,7.03752552 5.28433766,7.04426483 C5.27570862,7.0427116 5.26397312,7.0508229 5.25085698,7.06290356 C5.22566018,7.07981647 5.20719404,7.1029423 5.19563113,7.13107297 C4.80439046,7.71370573 3.51659257,11.0484844 3.70315241,11.0823103 C11.2468315,12.4536373 18.2265166,13.433551 26.2808623,14.7838232 C30.6720081,33.5512943 36.0351289,55.7662394 40.4716634,74.0352972 C41.1378253,76.7777786 41.8001903,79.521123 42.4851635,82.2591173 C43.1691012,84.9927971 44.3295345,89.6108866 45.1505013,92.3074615 C45.242832,92.6106859 49.1885468,90.9319925 49.1328032,90.6270423 C49.1246919,90.5819987 49.1134741,90.5367825 49.1043273,90.4917389" id="Fill-122" fill="#667EC1"></path>
                        <path d="M16.7181432,7.79890887 C16.5830125,7.64324099 16.3517542,7.58508127 16.1063443,7.55988447 C16.051291,7.55522479 15.997791,7.54901188 15.9427377,7.54262639 C15.7775779,7.52519573 15.6124181,7.50655701 15.4474308,7.48446666 C15.216,7.45616341 14.9864675,7.42458113 14.7567625,7.38851174 C14.5931559,7.36331495 14.4295493,7.33656492 14.2661153,7.30826167 C12.7441253,7.04490338 11.2267949,6.75479506 9.71153553,6.4543319 C10.3963361,5.70964577 11.0126221,4.83983856 11.2759804,3.89047161 C11.5426178,2.92867883 11.3591644,1.74529232 10.5069604,1.12520953 C9.48562727,0.382076622 9.13856729,-0.0440253608 8.22095521,0.460600884 C6.72795875,1.28174031 2.002524,5.166534 1.55605748,5.56364241 C0.365077414,6.39341088 0.044940039,8.54324984 0.00334806742,9.81378965 C-0.00597129551,10.1032076 -0.00597129551,10.4428467 0.1450369,10.7008549 C0.330561255,11.0201294 0.851237514,10.9918262 1.1658523,11.0548182 C5.25118488,11.8718156 9.13546084,13.4897606 13.3326258,13.7691689 C13.3590306,13.7708947 13.3854355,13.7726205 13.4120129,13.7741737 C13.5298856,13.7821125 13.6494841,13.7883254 13.7673568,13.7931576 C13.8115375,13.7947109 13.8555456,13.7978173 13.9028327,13.7995431 C14.1529023,13.8150754 14.4421477,13.838719 14.7315657,13.838719 C14.9645498,13.838719 15.1987419,13.8212883 15.4127421,13.7710673 C15.6108649,13.7239527 15.7934553,13.6468091 15.9411845,13.5241042 C16.4635866,13.0907538 16.5536737,12.3490015 16.6622271,11.7220155 C16.7844143,11.0158149 16.8831305,10.3051272 16.9490563,9.59150559 C17.0015209,9.02233413 17.1281952,8.27178025 16.7181432,7.79890887" id="Fill-124" fill="#BECCE9"></path>
                        <path d="M35.2486609,121.293873 C35.072456,122.671068 34.3971473,124.24604 33.5937837,125.371957 C32.2265986,127.287604 29.604406,128.084927 27.3586122,127.528527 C26.2156095,127.245322 25.2501926,126.550857 24.5817872,125.58613 C24.2367982,125.088407 23.9729221,124.539082 23.7668606,123.970601 C23.5922089,123.488928 23.42912,122.987926 23.3630216,122.478122 C23.2786296,121.827665 23.4596668,121.255215 23.6581347,120.646177 C23.8496994,120.057504 24.1102964,119.490576 24.4419967,118.967484 C25.0841699,117.955125 25.9962594,117.12691 27.0905942,116.63005 C29.2155815,115.665323 31.8828177,116.163564 33.6143208,117.695218 C34.633583,118.596953 35.4284901,119.889238 35.2486609,121.293873 M34.9834043,117.927857 C33.305056,115.785784 30.3024954,114.796724 27.6775415,115.516386 C26.4827646,115.844117 25.4003379,116.541861 24.5555549,117.44187 C23.7042138,118.348782 23.0749842,119.485226 22.8480405,120.714174 C22.7001388,121.515812 22.7500146,122.340921 22.9391632,123.131513 C23.120373,123.889143 23.3495603,124.630377 23.7016251,125.328467 C23.7511558,125.426493 23.8027575,125.523656 23.8564301,125.619438 C24.4421693,126.664932 25.3238846,127.502294 26.4340968,127.967572 C26.4577404,127.977755 26.4815566,127.987419 26.5053727,127.997084 C28.9384168,128.977343 32.1468663,128.380558 33.9477469,126.453521 C35.0293108,125.296022 35.5858838,124.019959 35.9836826,122.505218 C36.3814813,120.98875 35.9417454,119.150937 34.9834043,117.927857" id="Fill-126" fill="#9EA0A3"></path>
                        <path d="M141.975041,121.299102 C141.800389,122.663871 141.131293,124.224347 140.335178,125.340081 C138.980591,127.238125 136.382388,128.028027 134.157131,127.476804 C133.024656,127.19636 132.068213,126.508108 131.405848,125.552356 C131.063965,125.05912 130.802505,124.514628 130.598342,123.951496 C130.425244,123.474138 130.263535,122.977968 130.198127,122.472652 C130.114426,121.828062 130.29391,121.260962 130.490479,120.657274 C130.680318,120.074124 130.938671,119.512201 131.267265,118.994286 C131.903571,117.991073 132.807204,117.170452 133.891701,116.678079 C135.997015,115.722154 138.640089,116.215907 140.355715,117.733583 C141.365658,118.626861 142.153144,119.907583 141.975041,121.299102 M141.712373,117.963978 C140.049384,115.84158 137.074091,114.861321 134.473126,115.574597 C133.289395,115.899222 132.216805,116.590753 131.379615,117.482478 C130.536386,118.380933 129.912679,119.507023 129.687978,120.724753 C129.541285,121.51897 129.590643,122.33683 129.778066,123.120002 C129.95755,123.870729 130.184839,124.605232 130.533624,125.296764 C130.582637,125.394099 130.633721,125.490227 130.687049,125.585319 C131.267265,126.620976 132.141042,127.450745 133.241072,127.91188 C133.264543,127.921718 133.288186,127.931555 133.31183,127.940874 C135.722611,128.912331 138.901549,128.32107 140.685862,126.411636 C141.757589,125.264836 142.30933,124.000164 142.703332,122.499402 C143.097679,120.996913 142.66174,119.175841 141.712373,117.963978" id="Fill-128" fill="#9EA0A3"></path>
                        <path d="M16.3985926,7.5019491 C15.2141706,7.08085196 13.8209259,6.96073572 12.5807603,6.76002426 C11.3896076,6.56725151 10.1974195,6.40847718 8.99919104,6.26868674 C8.91652484,6.25902221 8.89926676,6.39553362 8.97968941,6.41330944 C10.2428083,6.69427098 11.5060997,6.96919218 12.7768121,7.2152924 C13.2614189,7.30917635 13.7579339,7.42635871 14.2577279,7.53508461 C14.2342569,8.20625132 14.1892133,8.87603739 14.121389,9.54323474 C13.9783196,10.972894 13.629016,12.3587178 13.4119094,13.7742255 C13.5299547,13.7821642 13.6493806,13.7883771 13.7674258,13.7932094 C13.8116065,13.7947626 13.8556146,13.7976965 13.9027292,13.7994223 C14.6089298,11.9015513 14.80688,9.73065749 14.7626993,7.63984115 C14.9905059,7.68488474 15.2184852,7.72682187 15.4457741,7.76047513 C15.4381805,8.93902938 15.3624175,10.1158578 15.2019174,11.2844024 C15.0869786,12.1338451 14.8826429,12.984841 14.7316347,13.8387707 C14.9644462,13.8387707 15.1988109,13.8213401 15.4126386,13.7711191 C15.5967823,13.0114184 15.6910114,12.220308 15.7774744,11.4699267 C15.9179551,10.2570289 15.9704197,9.03981656 15.9481568,7.82122357 C16.0831149,7.83382197 16.217728,7.84417681 16.3516507,7.84952682 C16.560646,7.8578107 16.5784218,7.56580399 16.3985926,7.5019491" id="Fill-130" fill="#38539A"></path>
                        <path d="M115.470082,109.1704 C110.054152,106.093457 104.392121,103.415693 98.7411355,100.80213 C98.3947658,100.641802 98.0910236,101.156611 98.4398094,101.317801 C104.107708,103.935334 109.647724,106.797932 115.254184,109.539723 C115.498903,109.659321 115.711868,109.307947 115.470082,109.1704" id="Fill-132" fill="#F1F2FF"></path>
                        <path d="M32.4465874,112.682195 C29.0921345,111.659308 25.4451571,112.505472 22.7415064,114.698629 C21.2157196,115.936206 20.0689202,117.539309 19.3820486,119.37902 C19.2462275,119.743165 20.0677121,119.789935 20.2779155,119.840846 C20.8893693,119.989266 21.5011682,120.168232 22.1231494,120.264014 C22.518532,120.324763 22.9154678,120.374984 23.3129214,120.422271 C23.6658491,120.464208 24.0871188,120.580182 24.4403917,120.55395 C25.9344237,120.735332 27.4343233,120.869945 28.9380198,120.936389 C30.4548324,121.003523 31.9742337,121.015604 33.4917367,120.972804 C34.9978493,120.930349 37.9396615,120.780376 39.3948628,120.351513 C39.4892645,120.323727 39.5263693,120.251588 39.5241258,120.178759 C39.5332726,120.062267 39.4604435,119.615456 39.4304144,119.489127 C38.646725,116.187656 35.6017095,113.64416 32.4465874,112.682195" id="Fill-134" fill="#667EC1"></path>
                        <path d="M137.984282,112.757526 C134.544402,112.075142 131.000283,113.281654 128.529444,115.7342 C127.135163,117.118298 126.154214,118.827711 125.654938,120.72679 C125.579175,121.014309 125.933311,121.011893 126.115556,121.03174 C126.496097,121.073332 126.863866,121.178951 127.242163,121.226239 C127.637373,121.277668 128.035,121.30994 128.432798,121.331513 C129.222873,121.374485 130.014329,121.37414 130.805267,121.39019 C132.309998,121.421255 133.815939,121.405377 135.318772,121.321158 C136.834549,121.236248 138.347392,121.096458 139.85316,120.902132 C141.347537,120.709186 144.259493,120.265999 145.664646,119.693721 C145.755596,119.656789 145.785625,119.581198 145.775788,119.508714 C145.773371,119.39205 145.656189,118.95473 145.613734,118.832025 C145.333808,118.023139 144.910295,117.267925 144.386512,116.591926 C143.881023,115.939571 143.283894,115.360217 142.62964,114.858525 C141.969691,114.352345 141.250547,113.923655 140.49516,113.57625 C139.751855,113.23454 138.972135,112.970146 138.172568,112.796702 C138.110094,112.782896 138.047102,112.769952 137.984282,112.757526" id="Fill-136" fill="#667EC1"></path>
                        <path d="M36.1240425,118.933019 C34.1077811,118.201104 31.7025225,118.237001 29.5811594,118.085648 C27.3717801,117.928081 25.1599846,117.811589 22.9466359,117.728578 C22.6487614,117.717533 22.6268437,118.236656 22.9267891,118.254777 C25.1605023,118.389563 27.3916269,118.56059 29.6194723,118.772519 C30.7338265,118.878656 31.8480082,118.988936 32.9613269,119.1056 C33.9854213,119.212945 35.04524,119.354979 36.0733038,119.235381 C36.2212055,119.218123 36.2797104,118.989626 36.1240425,118.933019" id="Fill-138" fill="#F1F2FF"></path>
                        <path d="M35.3590436,114.197333 C34.8533819,113.086431 33.3434725,112.639792 32.2341232,112.531066 C31.9837084,112.506559 31.9253761,112.926794 32.1744102,112.9727 C32.749622,113.07901 33.286866,113.269712 33.8025374,113.547912 C34.2726475,113.801606 34.6766592,114.167822 35.1572967,114.39908 C35.2950161,114.465351 35.4208275,114.332982 35.3590436,114.197333" id="Fill-140" fill="#F1F2FF"></path>
                        <path d="M30.4128608,114.665856 C28.5821237,113.791389 25.998244,114.665683 24.3801265,115.634034 C24.1012359,115.801092 24.3601071,116.210454 24.6433122,116.060999 C25.511221,115.603142 26.4464364,115.281279 27.4158227,115.120779 C28.3881429,114.959588 29.3632244,115.11819 30.3288139,115.004977 C30.491385,114.985821 30.5914819,114.751111 30.4128608,114.665856" id="Fill-142" fill="#F1F2FF"></path>
                        <path d="M142.35729,118.67955 C140.254393,118.2569 137.881407,118.651592 135.761252,118.81865 C133.553081,118.992612 131.348879,119.207647 129.147956,119.456164 C128.851635,119.489472 128.907551,120.006351 129.206979,119.979256 C131.435687,119.779062 133.667329,119.614938 135.901733,119.49206 C137.019366,119.430622 138.137517,119.373497 139.25584,119.322586 C140.284595,119.275644 141.353905,119.258041 142.352458,118.986054 C142.496218,118.94705 142.519688,118.712168 142.35729,118.67955" id="Fill-144" fill="#F1F2FF"></path>
                        <path d="M136.073261,114.846858 C134.132245,114.255424 131.70783,115.505772 130.252456,116.705036 C130.001696,116.911788 130.318727,117.277832 130.576562,117.087648 C131.366465,116.50536 132.243003,116.047676 133.177528,115.744106 C134.114814,115.439674 135.102839,115.450891 136.040643,115.194781 C136.198727,115.151636 136.262755,114.904673 136.073261,114.846858" id="Fill-146" fill="#F1F2FF"></path>
                        <path d="M28.4185322,15.2728136 C28.1853755,14.0611238 27.0706762,13.1554198 26.0224204,12.6193839 C25.8041057,12.5077241 25.612541,12.8285518 25.8289573,12.9503938 C26.8899841,13.5480411 27.5000572,14.4606484 28.2768433,15.3554798 C28.3367289,15.4246847 28.433029,15.3487491 28.4185322,15.2728136" id="Fill-148" fill="#F1F2FF"></path>
                        <path d="M28.9018965,12.9020194 C28.8214738,12.7209822 28.5034074,12.851971 28.5784801,13.0383583 C29.1535193,14.4661192 29.4493227,15.9584253 29.9225393,17.4158701 C29.9541216,17.5125154 30.1039217,17.4985363 30.1035771,17.3913637 C30.0997798,15.8301978 29.5280196,14.3113142 28.9018965,12.9020194" id="Fill-150" fill="#F1F2FF"></path>
                        <path d="M58.8517769,85.8625698 C56.2754908,86.0513731 53.8314016,87.4392679 51.7759643,88.9189756 C49.5734882,90.5044754 47.6417914,92.4394513 45.7779188,94.4018675 C45.4807347,94.7147565 45.9479109,95.184694 46.2523434,94.8764647 C48.0811821,93.0227744 49.9719773,91.2293147 52.0814323,89.6948989 C54.1991713,88.1544427 56.468091,87.1734935 58.9066576,86.2681346 C59.1090949,86.1928894 59.100811,85.8444488 58.8517769,85.8625698" id="Fill-152" fill="#F1F2FF"></path>
                        <path d="M145.098529,117.109289 C143.773281,115.186394 141.745802,113.991445 139.581466,113.214658 C138.370639,112.779755 137.10683,112.471698 135.811956,112.452024 C134.488089,112.431832 133.339564,112.835326 132.372594,113.242962 C132.261797,113.289558 132.307358,113.448678 132.421606,113.42072 C133.61552,113.128368 134.438041,112.814961 135.663364,112.818931 C136.895418,112.8229 138.085018,113.126987 139.231472,113.552226 C141.335059,114.332464 143.358051,115.482197 144.640154,117.377307 C144.830856,117.659304 145.292682,117.391114 145.098529,117.109289" id="Fill-154" fill="#3F5BA5"></path>
                        <path d="M78.5005319,82.4776908 C77.4481342,82.2025971 76.2714784,82.3644778 75.1966452,82.4050343 C73.9942748,82.4505957 72.7917318,82.4932231 71.5886711,82.5305006 C69.1822045,82.6052281 66.7759104,82.6913459 64.3692712,82.7577895 C64.2408711,82.7612411 64.2413889,82.9509074 64.3692712,82.9567751 C66.7753927,83.0663639 69.1801335,83.1191737 71.5886711,83.0767188 C72.7390946,83.0565268 73.8905537,83.02063 75.0399418,82.9700639 C76.1637879,82.9205332 77.4360536,82.9728251 78.5005319,82.5631183 C78.5390174,82.5482764 78.5460932,82.4895989 78.5005319,82.4776908" id="Fill-156" fill="#3F5BA5"></path>
                        <path d="M67.4654743,84.3233216 C66.0993247,83.4152015 64.4565281,82.9626947 62.5431248,82.7745816 C61.4707078,82.6693073 60.2862858,82.758359 59.2143864,82.8581107 C58.2862469,82.9444011 54.6613599,84.0792924 52.1970787,85.3638113 C52.1230416,85.4024694 52.1723997,85.5324227 52.2362546,85.5080888 C56.9156103,83.7298163 58.3214534,83.1678932 62.0274534,83.1678932 C63.3806594,83.1678932 64.0813374,83.4764677 64.9810011,83.6576775 C65.8461487,83.8319841 66.5482073,84.2282296 67.350708,84.5205815 C67.458571,84.5595848 67.565226,84.3895927 67.4654743,84.3233216" id="Fill-158" fill="#3F5BA5"></path>
                        <path d="M56.2017125,82.7754963 C55.4043893,82.9185657 54.6006805,82.9530819 53.8378734,82.946869 C53.0370985,82.9406561 52.2444349,82.8856028 51.4517713,82.7943076 C51.4265745,82.6983526 51.4013777,82.6023977 51.3761809,82.507996 C52.252201,82.507996 53.0041356,82.5237009 53.8786025,82.5128283 C54.654008,82.5033364 55.3336311,82.4971234 56.1482125,82.5269799 C56.1671964,82.6103364 56.1844545,82.6921397 56.2017125,82.7754963" id="Fill-160" fill="#3F5BA5"></path>
                        <path d="M56.2477226,89.0959227 C55.0903958,89.3936246 53.986569,90.135722 52.9831843,90.7682306 C51.9414866,91.4249006 50.9382744,92.1419738 49.9764816,92.9108212 C48.0176896,94.4766468 46.1717654,96.2642386 44.7864594,98.3654098 C44.7219142,98.4630905 44.8686078,98.5757858 44.9485128,98.4905309 C46.6035626,96.7229584 48.2458414,94.9590101 50.131114,93.4297716 C51.1208649,92.6270984 52.160319,91.8846558 53.2392942,91.2064133 C54.250445,90.5711434 55.4089799,90.0749736 56.3557582,89.35186 C56.4750115,89.26091 56.413055,89.0534678 56.2477226,89.0959227" id="Fill-162" fill="#3F5BA5"></path>
                        <path d="M33.6814375,109.129964 C33.1959677,109.443716 32.8993013,110.036013 32.5891736,110.511128 C32.2243378,111.070118 31.8831456,111.62531 31.6011486,112.226754 C30.7625785,111.768207 29.5921355,111.926636 28.7047251,112.067462 C28.5820202,112.086964 28.5642443,112.293543 28.6802186,112.296649 C29.244903,112.311836 29.7850809,112.28198 30.3440701,112.364991 C30.7485995,112.425222 31.1564079,112.550861 31.5652518,112.553104 C31.5952808,112.571916 31.6323857,112.574504 31.6684551,112.551551 C31.6751857,112.551206 31.6819164,112.551551 31.688647,112.551206 C31.7726939,112.546201 31.8177375,112.475788 31.8087633,112.408482 C32.2265814,111.966157 32.5795091,111.494149 32.9203562,110.984345 C33.2665533,110.466948 33.7527134,109.877239 33.838486,109.250771 C33.8498763,109.166897 33.7684182,109.073703 33.6814375,109.129964" id="Fill-164" fill="#3F5BA5"></path>
                        <path d="M39.0980238,109.194164 C39.1554932,109.103905 38.9729027,108.987413 38.8895462,109.048679 C38.3127812,109.471329 37.6329854,110.741869 37.2395012,111.39457 C36.7535137,112.201557 36.4062811,113.026666 36.1206599,113.921325 C36.1166906,113.934096 36.1173809,113.945314 36.119797,113.956014 C36.1149648,113.988977 36.1230761,114.024873 36.1537954,114.057491 C37.1326737,115.087799 37.7620759,116.34039 38.6651912,117.415913 C38.7230057,117.484773 38.8244832,117.409701 38.80688,117.33342 C38.4919201,115.965199 36.3809118,113.922878 36.3748714,113.919081 C36.8178863,113.17336 37.2134415,112.383285 37.6763032,111.649817 C38.0889439,110.995563 38.725767,109.779558 39.0980238,109.194164" id="Fill-166" fill="#3F5BA5"></path>
                        <path d="M157.916691,60.433014 C156.65478,61.1071145 153.453407,62.9828952 151.480981,64.1062236 C151.514116,64.4034077 151.537587,64.700937 151.556399,64.9988115 C153.527444,63.8200846 156.845482,61.7972651 158.169867,60.9904499 C158.497253,60.7911191 158.271,60.2447283 157.916691,60.433014" id="Fill-168" fill="#667EC1"></path>
                        <path d="M163.422088,43.41156 C162.512932,43.7991764 158.886147,45.3425665 155.595721,46.744958 C155.5348,47.0464567 155.477676,47.3489908 155.426247,47.6518701 C158.80883,46.1624978 162.655139,44.4693077 163.62556,43.9890153 C163.969169,43.8190232 163.791583,43.2550292 163.422088,43.41156" id="Fill-170" fill="#667EC1"></path>
                        <path d="M169.451301,24.9037884 C168.542318,25.2914049 164.91536,26.8346223 161.624935,28.2371865 C161.564014,28.5386851 161.506889,28.8410467 161.45546,29.1440985 C164.838217,27.6547263 168.684352,25.9615361 169.654774,25.4812437 C169.998555,25.3110791 169.820797,24.7472576 169.451301,24.9037884" id="Fill-172" fill="#667EC1"></path>
                        <path d="M151.601649,74.9540656 C150.148864,75.6279936 148.124664,76.5675235 145.801036,77.646326 C145.749952,79.286879 146.15172,80.7075641 146.38643,82.3139462 C149.303218,81.8250248 151.718659,80.2409057 154.583155,78.8604319 C155.088299,78.6169204 155.548054,77.8922536 155.90754,77.4618371 C155.95569,77.4041951 155.998145,77.3449999 156.037148,77.2851144 C154.604555,76.3542136 153.78238,75.5641387 152.26574,74.7036509 C152.28041,74.78718 151.97615,74.8191074 151.601649,74.9540656" id="Fill-174" fill="#667EC1"></path>
                    </g>
                    <ellipse id="Oval" fill="#C3C4C5" cx="116.847662" cy="198.914027" rx="83.2579186" ry="1"></ellipse>
                </g>
            </g>
        </g>
    </g>
</svg>