<svg height="18" viewBox="0 0 24 18" width="24" xmlns="http://www.w3.org/2000/svg"><g fill="none" transform="translate(0 .6)"><path d="m23.5875 16.785h-23.175c-.2296875 0-.4125-.2-.4125-.44v-15.89c0-.245.1875-.44.4125-.44h23.1703125c.2296875 0 .412586.2.412586.44v15.89c.0046015.245-.1828985.44-.4078985.44z" fill="#f5f5f5"/><g fill="#ff4b55"><path d="m23.5875 16.785h-23.175c-.2296875 0-.4125-.2-.4125-.44v-2.205h24v2.205c0 .245-.1875.44-.4125.44z"/><path d="m.4125.015h23.1703125c.2296875 0 .4125.2.4125.44v2.205h-23.9953125v-2.205c0-.245.1875-.44.4125-.44z"/></g><path d="m0 5.31h24v6.18h-24z" fill="#41479b"/></g></svg>