<svg height="18" viewBox="0 0 24 18" width="24" xmlns="http://www.w3.org/2000/svg"><g fill="none" transform="translate(0 .6)"><path d="m23.5402105 16.78625h-23.12720465c-.22807018 0-.41300585-.19765-.41300585-.4414v-15.88965c0-.24375.18493567-.4414.41300585-.4414h23.12725145c.2280702 0 .4130059.19765.4130059.4414v15.88965c0 .2438-.1849825.4414-.4130527.4414z" fill="#f5f5f5"/><g fill="#ff4b55"><path d="m23.9532632 1.30405h-23.9532632v-.84885c0-.24375.18493567-.4414.41300585-.4414h23.12725145c.2280702 0 .4130059.19765.4130059.4414z"/><path d="m0 5.17455h23.953216v1.2902h-23.953216z"/><path d="m0 2.59405h23.953216v1.2902h-23.953216z"/><path d="m23.9532164 9.04515h-23.54021055c-.22807018 0-.41300585-.19765-.41300585-.4414v-.84885h23.9532164z"/><path d="m0 12.91605h23.953216v1.2902h-23.953216z"/><path d="m23.5402105 16.78625h-23.12720465c-.22807018 0-.41300585-.19765-.41300585-.4414v-.8488h23.9532164v.84885c0 .24375-.1849357.44135-.4130059.44135z"/><path d="m0 10.33555h23.953216v1.2902h-23.953216z"/></g><path d="m10.7376374.01385h-10.32463155c-.22807018 0-.41300585.1976-.41300585.44135v8.1485c0 .24375.18493567.4414.41300585.4414h10.32467835c.2280702 0 .4130059-.19765.4130059-.4414v-8.1485c0-.24375-.1849825-.44135-.4130527-.44135z" fill="#41479b"/><g fill="#f5f5f5" transform="translate(.654971 .95)"><path d="m.50474854.0769.0914152.293.28898246.00235c.0374269.00035.05291228.05135.02283041.0751l-.23246784.1835.08720468.29445c.01132164.0381-.02933333.0697-.05978947.0464l-.23508772-.17955-.23508772.1796c-.03045614.02325-.07101755-.0083-.05978948-.0464l.08720468-.29445-.23246783-.1835c-.03008187-.0238-.01459649-.07475.02283041-.0751l.28898245-.00235.09141521-.293c.01178947-.038.06194152-.038.07382456-.00005z"/><path d="m.50474854 1.6096.0914152.293.28898246.00235c.0374269.00035.05291228.05135.02283041.0751l-.23246784.1835.08720468.29445c.01132164.0381-.02933333.0697-.05978947.0464l-.23508772-.17955-.23508772.1796c-.03045614.02325-.07101755-.0083-.05978948-.0464l.08720468-.29445-.23246783-.1835c-.03008187-.0238-.01459649-.07475.02283041-.0751l.28898245-.00235.09141521-.293c.01178947-.03795.06194152-.03795.07382456-.00005z"/><path d="m.50474854 3.1423.0914152.293.28898246.00235c.0374269.00035.05291228.05135.02283041.0751l-.23246784.1835.08720468.29445c.01132164.0381-.02933333.0697-.05978947.0464l-.23508772-.17955-.23508772.1796c-.03045614.02325-.07101755-.0083-.05978948-.0464l.08720468-.29445-.23246783-.1835c-.03008187-.0238-.01459649-.07475.02283041-.0751l.28898245-.00235.09141521-.293c.01178947-.03795.06194152-.03795.07382456-.00005z"/><path d="m.50474854 4.67505.0914152.293.28898246.00235c.0374269.00035.05291228.05135.02283041.0751l-.23246784.1835.08720468.29445c.01132164.0381-.02933333.0697-.05978947.0464l-.23508772-.17955-.23508772.1796c-.03045614.02325-.07101755-.0083-.05978948-.0464l.08720468-.29445-.23246783-.1835c-.03008187-.0238-.01459649-.07475.02283041-.0751l.28898245-.00235.09141521-.293c.01178947-.038.06194152-.038.07382456-.00005z"/><path d="m.50474854 6.20775.0914152.293.28898246.00235c.0374269.00035.05291228.05135.02283041.0751l-.23246784.1835.08720468.29445c.01132164.0381-.02933333.0697-.05978947.0464l-.23508772-.17955-.23508772.1796c-.03045614.02325-.07101755-.0083-.05978948-.0464l.08720468-.29445-.23246783-.1835c-.03008187-.0238-.01459649-.07475.02283041-.0751l.28898245-.00235.09141521-.293c.01178947-.03805.06194152-.03805.07382456-.00005z"/><path d="m1.61787135.82835.0914152.293.28898246.00235c.0374269.00035.05291228.05135.02283041.0751l-.23246784.1835.08720468.29445c.01132163.0381-.02933334.0697-.05978948.0464l-.23508772-.1796-.23508771.1796c-.03045615.02325-.07101755-.0083-.05978948-.0464l.08720468-.29445-.23246784-.1835c-.03008187-.0238-.01459649-.07475.02283041-.0751l.28898246-.00235.0914152-.293c.01174269-.0379.06198831-.0379.07382457 0z"/><path d="m1.61787135 2.3611.0914152.293.28898246.00235c.0374269.00035.05291228.05135.02283041.0751l-.23246784.1835.08720468.29445c.01132163.0381-.02933334.0697-.05978948.0464l-.23508772-.1796-.23508771.1796c-.03045615.02325-.07101755-.00825-.05978948-.0464l.08720468-.29445-.23246784-.1835c-.03008187-.0238-.01459649-.07475.02283041-.0751l.28898246-.00235.0914152-.293c.01174269-.03795.06198831-.03795.07382457 0z"/><path d="m1.61787135 3.8938.0914152.293.28898246.00235c.0374269.00035.05291228.05135.02283041.0751l-.23246784.1835.08720468.29445c.01132163.0381-.02933334.0697-.05978948.0464l-.23508772-.1796-.23508771.1796c-.03045615.02325-.07101755-.0083-.05978948-.0464l.08720468-.29445-.23246784-.1835c-.03008187-.0238-.01459649-.07475.02283041-.0751l.28898246-.00235.0914152-.293c.01174269-.03795.06198831-.03795.07382457 0z"/><path d="m1.61787135 5.4265.0914152.293.28898246.00235c.0374269.00035.05291228.05135.02283041.0751l-.23246784.1835.08720468.29445c.01132163.0381-.02933334.0697-.05978948.0464l-.23508772-.1796-.23508771.1796c-.03045615.02325-.07101755-.0083-.05978948-.0464l.08720468-.29445-.23246784-.1835c-.03008187-.0238-.01459649-.07475.02283041-.0751l.28898246-.00235.0914152-.293c.01174269-.0379.06198831-.0379.07382457 0z"/><path d="m2.73099415.0769.09141521.293.28898245.00235c.0374269.00035.05291228.05135.02283041.0751l-.23246783.1835.08720467.29445c.01132164.0381-.02933333.0697-.05978947.0464l-.23508772-.1796-.23508772.1796c-.03045614.02325-.07101754-.0083-.05978947-.0464l.08720468-.29445-.23246784-.1835c-.03008187-.0238-.01459649-.07475.02283041-.0751l.28898246-.00235.0914152-.293c.01178947-.03795.0619883-.03795.07382456 0z"/><path d="m2.73099415 1.6096.09141521.293.28898245.00235c.0374269.00035.05291228.05135.02283041.0751l-.23246783.1835.08720467.29445c.01132164.0381-.02933333.0697-.05978947.0464l-.23508772-.1796-.23508772.1796c-.03045614.02325-.07101754-.0083-.05978947-.0464l.08720468-.29445-.23246784-.1835c-.03008187-.0238-.01459649-.07475.02283041-.0751l.28898246-.00235.0914152-.293c.01178947-.0379.0619883-.0379.07382456 0z"/><path d="m2.73099415 3.1423.09141521.293.28898245.00235c.0374269.00035.05291228.05135.02283041.0751l-.23246783.1835.08720467.29445c.01132164.0381-.02933333.0697-.05978947.0464l-.23508772-.1796-.23508772.1796c-.03045614.02325-.07101754-.0083-.05978947-.0464l.08720468-.29445-.23246784-.1835c-.03008187-.0238-.01459649-.07475.02283041-.0751l.28898246-.00235.0914152-.293c.01178947-.0379.0619883-.0379.07382456 0z"/><path d="m2.73099415 4.67505.09141521.293.28898245.00235c.0374269.00035.05291228.05135.02283041.0751l-.23246783.1835.08720467.29445c.01132164.0381-.02933333.0697-.05978947.0464l-.23508772-.1796-.23508772.1796c-.03045614.02325-.07101754-.0083-.05978947-.0464l.08720468-.29445-.23246784-.1835c-.03008187-.0238-.01459649-.07475.02283041-.0751l.28898246-.00235.0914152-.293c.01178947-.03795.0619883-.03795.07382456 0z"/><path d="m2.73099415 6.20775.09141521.293.28898245.00235c.0374269.00035.05291228.05135.02283041.0751l-.23246783.1835.08720467.29445c.01132164.0381-.02933333.0697-.05978947.0464l-.23508772-.1796-.23508772.1796c-.03045614.02325-.07101754-.0083-.05978947-.0464l.08720468-.29445-.23246784-.1835c-.03008187-.0238-.01459649-.07475.02283041-.0751l.28898246-.00235.0914152-.293c.01178947-.038.0619883-.038.07382456 0z"/><path d="m3.84416374.82835.09141521.293.28898245.00235c.0374269.00035.05291228.05135.02283041.0751l-.23246783.1835.08720467.29445c.01132164.0381-.02933333.0697-.05978947.0464l-.23508772-.1796-.23508772.1796c-.03045614.02325-.07101754-.0083-.05978947-.0464l.08720468-.29445-.23246784-.1835c-.03008187-.0238-.01459649-.07475.02283041-.0751l.28898246-.00235.0914152-.293c.01174269-.0379.06198831-.0379.07382456 0z"/><path d="m3.84416374 2.3611.09141521.293.28898245.00235c.0374269.00035.05291228.05135.02283041.0751l-.23246783.1835.08720467.29445c.01132164.0381-.02933333.0697-.05978947.0464l-.23508772-.1796-.23508772.1796c-.03045614.02325-.07101754-.00825-.05978947-.0464l.08720468-.29445-.23246784-.1835c-.03008187-.0238-.01459649-.07475.02283041-.0751l.28898246-.00235.0914152-.293c.01174269-.03795.06198831-.03795.07382456 0z"/><path d="m3.84416374 3.8938.09141521.293.28898245.00235c.0374269.00035.05291228.05135.02283041.0751l-.23246783.1835.08720467.29445c.01132164.0381-.02933333.0697-.05978947.0464l-.23508772-.1796-.23508772.1796c-.03045614.02325-.07101754-.0083-.05978947-.0464l.08720468-.29445-.23246784-.1835c-.03008187-.0238-.01459649-.07475.02283041-.0751l.28898246-.00235.0914152-.293c.01174269-.03795.06198831-.03795.07382456 0z"/><path d="m3.84416374 5.4265.09141521.293.28898245.00235c.0374269.00035.05291228.05135.02283041.0751l-.23246783.1835.08720467.29445c.01132164.0381-.02933333.0697-.05978947.0464l-.23508772-.1796-.23508772.1796c-.03045614.02325-.07101754-.0083-.05978947-.0464l.08720468-.29445-.23246784-.1835c-.03008187-.0238-.01459649-.07475.02283041-.0751l.28898246-.00235.0914152-.293c.01174269-.0379.06198831-.0379.07382456 0z"/><path d="m4.95728655.0769.0914152.293.28898246.00235c.0374269.00035.05291228.05135.02283041.0751l-.23246784.1835.08720468.29445c.01132164.0381-.02933333.0697-.05978947.0464l-.2351345-.1796-.23508772.1796c-.03045614.02325-.07101755-.0083-.05978948-.0464l.08720468-.29445-.23246784-.1835c-.03008187-.0238-.01459649-.07475.02283041-.0751l.28898246-.00235.0914152-.293c.01183626-.03795.06203509-.03795.07387135 0z"/><path d="m4.95728655 1.6096.0914152.293.28898246.00235c.0374269.00035.05291228.05135.02283041.0751l-.23246784.1835.08720468.29445c.01132164.0381-.02933333.0697-.05978947.0464l-.2351345-.1796-.23508772.1796c-.03045614.02325-.07101755-.0083-.05978948-.0464l.08720468-.29445-.23246784-.1835c-.03008187-.0238-.01459649-.07475.02283041-.0751l.28898246-.00235.0914152-.293c.01183626-.0379.06203509-.0379.07387135 0z"/><path d="m4.95728655 3.1423.0914152.293.28898246.00235c.0374269.00035.05291228.05135.02283041.0751l-.23246784.1835.08720468.29445c.01132164.0381-.02933333.0697-.05978947.0464l-.2351345-.1796-.23508772.1796c-.03045614.02325-.07101755-.0083-.05978948-.0464l.08720468-.29445-.23246784-.1835c-.03008187-.0238-.01459649-.07475.02283041-.0751l.28898246-.00235.0914152-.293c.01183626-.0379.06203509-.0379.07387135 0z"/><path d="m4.95728655 4.67505.0914152.293.28898246.00235c.0374269.00035.05291228.05135.02283041.0751l-.23246784.1835.08720468.29445c.01132164.0381-.02933333.0697-.05978947.0464l-.2351345-.1796-.23508772.1796c-.03045614.02325-.07101755-.0083-.05978948-.0464l.08720468-.29445-.23246784-.1835c-.03008187-.0238-.01459649-.07475.02283041-.0751l.28898246-.00235.0914152-.293c.01183626-.03795.06203509-.03795.07387135 0z"/><path d="m4.95728655 6.20775.0914152.293.28898246.00235c.0374269.00035.05291228.05135.02283041.0751l-.23246784.1835.08720468.29445c.01132164.0381-.02933333.0697-.05978947.0464l-.2351345-.1796-.23508772.1796c-.03045614.02325-.07101755-.0083-.05978948-.0464l.08720468-.29445-.23246784-.1835c-.03008187-.0238-.01459649-.07475.02283041-.0751l.28898246-.00235.0914152-.293c.01183626-.038.06203509-.038.07387135 0z"/><path d="m6.07040936.82835.0914152.293.28898246.00235c.0374269.00035.05291228.05135.02283041.0751l-.23246784.1835.08720468.29445c.01132164.0381-.02933333.0697-.05978947.0464l-.23508772-.1796-.23508772.1796c-.03045614.02325-.07101755-.0083-.05978948-.0464l.08720468-.29445-.23246783-.1835c-.03008188-.0238-.0145965-.07475.0228304-.0751l.28898246-.00235.09141521-.293c.01183625-.0379.0619883-.0379.07382456 0z"/><path d="m6.07040936 2.3611.0914152.293.28898246.00235c.0374269.00035.05291228.05135.02283041.0751l-.23246784.1835.08720468.29445c.01132164.0381-.02933333.0697-.05978947.0464l-.23508772-.1796-.23508772.1796c-.03045614.02325-.07101755-.00825-.05978948-.0464l.08720468-.29445-.23246783-.1835c-.03008188-.0238-.0145965-.07475.0228304-.0751l.28898246-.00235.09141521-.293c.01183625-.03795.0619883-.03795.07382456 0z"/><path d="m6.07040936 3.8938.0914152.293.28898246.00235c.0374269.00035.05291228.05135.02283041.0751l-.23246784.1835.08720468.29445c.01132164.0381-.02933333.0697-.05978947.0464l-.23508772-.1796-.23508772.1796c-.03045614.02325-.07101755-.0083-.05978948-.0464l.08720468-.29445-.23246783-.1835c-.03008188-.0238-.0145965-.07475.0228304-.0751l.28898246-.00235.09141521-.293c.01183625-.03795.0619883-.03795.07382456 0z"/><path d="m6.07040936 5.4265.0914152.293.28898246.00235c.0374269.00035.05291228.05135.02283041.0751l-.23246784.1835.08720468.29445c.01132164.0381-.02933333.0697-.05978947.0464l-.23508772-.1796-.23508772.1796c-.03045614.02325-.07101755-.0083-.05978948-.0464l.08720468-.29445-.23246783-.1835c-.03008188-.0238-.0145965-.07475.0228304-.0751l.28898246-.00235.09141521-.293c.01183625-.0379.0619883-.0379.07382456 0z"/><path d="m7.18357895.0769.0914152.293.28898246.00235c.0374269.00035.05291228.05135.02283041.0751l-.23246784.1835.08720468.29445c.01132164.0381-.02933333.0697-.05978947.0464l-.23508772-.1796-.23508772.1796c-.03045614.02325-.07101755-.0083-.05978948-.0464l.08720468-.29445-.23246783-.1835c-.03008188-.0238-.0145965-.07475.02283041-.0751l.28898245-.00235.09141521-.293c.01174269-.03795.0619883-.03795.07382456 0z"/><path d="m7.18357895 1.6096.0914152.293.28898246.00235c.0374269.00035.05291228.05135.02283041.0751l-.23246784.1835.08720468.29445c.01132164.0381-.02933333.0697-.05978947.0464l-.23508772-.1796-.23508772.1796c-.03045614.02325-.07101755-.0083-.05978948-.0464l.08720468-.29445-.23246783-.1835c-.03008188-.0238-.0145965-.07475.02283041-.0751l.28898245-.00235.09141521-.293c.01174269-.0379.0619883-.0379.07382456 0z"/><path d="m7.18357895 3.1423.0914152.293.28898246.00235c.0374269.00035.05291228.05135.02283041.0751l-.23246784.1835.08720468.29445c.01132164.0381-.02933333.0697-.05978947.0464l-.23508772-.1796-.23508772.1796c-.03045614.02325-.07101755-.0083-.05978948-.0464l.08720468-.29445-.23246783-.1835c-.03008188-.0238-.0145965-.07475.02283041-.0751l.28898245-.00235.09141521-.293c.01174269-.0379.0619883-.0379.07382456 0z"/><path d="m7.18357895 4.67505.0914152.293.28898246.00235c.0374269.00035.05291228.05135.02283041.0751l-.23246784.1835.08720468.29445c.01132164.0381-.02933333.0697-.05978947.0464l-.23508772-.1796-.23508772.1796c-.03045614.02325-.07101755-.0083-.05978948-.0464l.08720468-.29445-.23246783-.1835c-.03008188-.0238-.0145965-.07475.02283041-.0751l.28898245-.00235.09141521-.293c.01174269-.03795.0619883-.03795.07382456 0z"/><path d="m7.18357895 6.20775.0914152.293.28898246.00235c.0374269.00035.05291228.05135.02283041.0751l-.23246784.1835.08720468.29445c.01132164.0381-.02933333.0697-.05978947.0464l-.23508772-.1796-.23508772.1796c-.03045614.02325-.07101755-.0083-.05978948-.0464l.08720468-.29445-.23246783-.1835c-.03008188-.0238-.0145965-.07475.02283041-.0751l.28898245-.00235.09141521-.293c.01174269-.038.0619883-.038.07382456 0z"/><path d="m8.29670175.82835.09141521.293.28898246.00235c.0374269.00035.05291228.05135.0228304.0751l-.23246783.1835.08720468.29445c.01132163.0381-.02933334.0697-.05978948.0464l-.23508772-.1796-.23508772.1796c-.03045614.02325-.07101754-.0083-.05978947-.0464l.08720468-.29445-.23246784-.1835c-.03008187-.0238-.01459649-.07475.02283041-.0751l.28898246-.00235.0914152-.293c.01178948-.0379.06203509-.0379.07382456 0z"/><path d="m8.29670175 2.3611.09141521.293.28898246.00235c.0374269.00035.05291228.05135.0228304.0751l-.23246783.1835.08720468.29445c.01132163.0381-.02933334.0697-.05978948.0464l-.23508772-.1796-.23508772.1796c-.03045614.02325-.07101754-.00825-.05978947-.0464l.08720468-.29445-.23246784-.1835c-.03008187-.0238-.01459649-.07475.02283041-.0751l.28898246-.00235.0914152-.293c.01178948-.03795.06203509-.03795.07382456 0z"/><path d="m8.29670175 3.8938.09141521.293.28898246.00235c.0374269.00035.05291228.05135.0228304.0751l-.23246783.1835.08720468.29445c.01132163.0381-.02933334.0697-.05978948.0464l-.23508772-.1796-.23508772.1796c-.03045614.02325-.07101754-.0083-.05978947-.0464l.08720468-.29445-.23246784-.1835c-.03008187-.0238-.01459649-.07475.02283041-.0751l.28898246-.00235.0914152-.293c.01178948-.03795.06203509-.03795.07382456 0z"/><path d="m8.29670175 5.4265.09141521.293.28898246.00235c.0374269.00035.05291228.05135.0228304.0751l-.23246783.1835.08720468.29445c.01132163.0381-.02933334.0697-.05978948.0464l-.23508772-.1796-.23508772.1796c-.03045614.02325-.07101754-.0083-.05978947-.0464l.08720468-.29445-.23246784-.1835c-.03008187-.0238-.01459649-.07475.02283041-.0751l.28898246-.00235.0914152-.293c.01178948-.0379.06203509-.0379.07382456 0z"/><path d="m9.40987135.0769.0914152.293.28898246.00235c.0374269.00035.05291228.05135.02283041.0751l-.23246784.1835.08720468.29445c.01132163.0381-.02933334.0697-.05978948.0464l-.23508772-.1796-.23508771.1796c-.03045615.02325-.07101755-.0083-.05978948-.0464l.08720468-.29445-.23246784-.1835c-.03008187-.0238-.01459649-.07475.02283041-.0751l.28898246-.00235.0914152-.293c.01178948-.03795.06194152-.03795.07382457 0z"/><path d="m9.40987135 1.6096.0914152.293.28898246.00235c.0374269.00035.05291228.05135.02283041.0751l-.23246784.1835.08720468.29445c.01132163.0381-.02933334.0697-.05978948.0464l-.23508772-.1796-.23508771.1796c-.03045615.02325-.07101755-.0083-.05978948-.0464l.08720468-.29445-.23246784-.1835c-.03008187-.0238-.01459649-.07475.02283041-.0751l.28898246-.00235.0914152-.293c.01178948-.0379.06194152-.0379.07382457 0z"/><path d="m9.40987135 3.1423.0914152.293.28898246.00235c.0374269.00035.05291228.05135.02283041.0751l-.23246784.1835.08720468.29445c.01132163.0381-.02933334.0697-.05978948.0464l-.23508772-.1796-.23508771.1796c-.03045615.02325-.07101755-.0083-.05978948-.0464l.08720468-.29445-.23246784-.1835c-.03008187-.0238-.01459649-.07475.02283041-.0751l.28898246-.00235.0914152-.293c.01178948-.0379.06194152-.0379.07382457 0z"/><path d="m9.40987135 4.67505.0914152.293.28898246.00235c.0374269.00035.05291228.05135.02283041.0751l-.23246784.1835.08720468.29445c.01132163.0381-.02933334.0697-.05978948.0464l-.23508772-.1796-.23508771.1796c-.03045615.02325-.07101755-.0083-.05978948-.0464l.08720468-.29445-.23246784-.1835c-.03008187-.0238-.01459649-.07475.02283041-.0751l.28898246-.00235.0914152-.293c.01178948-.03795.06194152-.03795.07382457 0z"/><path d="m9.40987135 6.20775.0914152.293.28898246.00235c.0374269.00035.05291228.05135.02283041.0751l-.23246784.1835.08720468.29445c.01132163.0381-.02933334.0697-.05978948.0464l-.23508772-.1796-.23508771.1796c-.03045615.02325-.07101755-.0083-.05978948-.0464l.08720468-.29445-.23246784-.1835c-.03008187-.0238-.01459649-.07475.02283041-.0751l.28898246-.00235.0914152-.293c.01178948-.038.06194152-.038.07382457 0z"/></g></g></svg>