<svg height="18" viewBox="0 0 22 18" width="22" xmlns="http://www.w3.org/2000/svg"><path d="m3.22357724 4.33333333c-.5841809 0-1.05691057.51685114-1.05691057 1.15555562s.47272967 1.15555561 1.05691057 1.15555561h19.55284556c.5841809 0 1.0569105-.51685113 1.0569105-1.15555561s-.4727296-1.15555562-1.0569105-1.15555562zm0 7.51111117c-.5841809 0-1.05691057.5168512-1.05691057 1.1555556 0 .6387045.47272967 1.1555556 1.05691057 1.1555556h19.55284556c.5841809 0 1.0569105-.5168511 1.0569105-1.1555556 0-.6387044-.4727296-1.1555556-1.0569105-1.1555556zm0 7.5111112c-.5841809 0-1.05691057.5168511-1.05691057 1.1555556s.47272967 1.1555556 1.05691057 1.1555556h19.55284556c.5841809 0 1.0569105-.5168511 1.0569105-1.1555556s-.4727296-1.1555556-1.0569105-1.1555556z" fill="#fff" fill-rule="evenodd" transform="translate(-2 -4)"/></svg>