<svg height="160" viewBox="0 0 115 160" width="115" xmlns="http://www.w3.org/2000/svg" xmlns:xlink="http://www.w3.org/1999/xlink"><mask id="a" fill="#fff"><path d="m.5079.227h20.237v16.3834h-20.237z" fill="#fff" fill-rule="evenodd"/></mask><mask id="b" fill="#fff"><path d="m.5079.227h20.237v16.3834h-20.237z" fill="#fff" fill-rule="evenodd"/></mask><mask id="c" fill="#fff"><path d="m0 .3101h109.1458v6.443h-109.1458z" fill="#fff" fill-rule="evenodd"/></mask><mask id="d" fill="#fff"><path d="m.652 2.174c.463.184.93.356 1.399.521l.054-2.098z" fill="#fff" fill-rule="evenodd"/></mask><mask id="e" fill="#fff"><path d="m.6238.47100627h7.5012v10.52869943h-7.5012z" fill="#fff" fill-rule="evenodd"/></mask><g fill="none" fill-rule="evenodd"><g transform="translate(0 -.227)"><path d="m114.0623 79.8895c0 31.48-25.52 57-57 57s-57-25.52-57-57c0-31.479 25.52-57 57-57s57 25.521 57 57" fill="#c3ecfe" opacity=".35"/><path d="m3.6609.2264h13.931c1.742 0 3.153 1.412 3.153 3.153v7.186c0 1.742-1.411 3.153-3.153 3.153h-9.11l-3.276 2.892v-2.892h-1.545c-1.742 0-3.153-1.411-3.153-3.153v-7.186c0-1.741 1.411-3.153 3.153-3.153" fill="#f9ba55" mask="url(#a)" transform="translate(33)"/><g fill="#fff"><path d="m48.5652 4.6737h-9.878c-.219 0-.395-.177-.395-.396 0-.217.176-.394.395-.394h9.878c.219 0 .396.177.396.394 0 .219-.177.396-.396.396"/><path d="m48.5652 7.3074h-9.878c-.219 0-.395-.177-.395-.395s.176-.395.395-.395h9.878c.219 0 .396.177.396.395s-.177.395-.396.395"/><path d="m40.1355 9.9422h-1.448c-.219 0-.396-.178-.396-.396s.177-.395.396-.395h1.448c.219 0 .396.177.396.395s-.177.396-.396.396"/><path d="m43.4285 9.9422h-1.448c-.219 0-.396-.178-.396-.396s.177-.395.396-.395h1.448c.219 0 .396.177.396.395s-.177.396-.396.396"/><path d="m48.5652 9.9422h-3.293c-.218 0-.395-.178-.395-.396s.177-.395.395-.395h3.293c.219 0 .396.177.396.395s-.177.396-.396.396"/></g><path d="m3.6609.2264h13.931c1.742 0 3.153 1.412 3.153 3.153v7.186c0 1.742-1.411 3.153-3.153 3.153h-9.11l-3.276 2.892v-2.892h-1.545c-1.742 0-3.153-1.411-3.153-3.153v-7.186c0-1.741 1.411-3.153 3.153-3.153" fill="#f9ba55" mask="url(#b)" transform="translate(33)"/><path d="m48.5652 4.6737h-9.878c-.219 0-.395-.177-.395-.396 0-.217.176-.394.395-.394h9.878c.219 0 .396.177.396.394 0 .219-.177.396-.396.396" fill="#fff"/><path d="m48.5652 7.3074h-9.878c-.219 0-.395-.177-.395-.395s.176-.395.395-.395h9.878c.219 0 .396.177.396.395s-.177.395-.396.395" fill="#fff"/><path d="m40.1355 9.9422h-1.448c-.219 0-.396-.178-.396-.396s.177-.395.396-.395h1.448c.219 0 .396.177.396.395s-.177.396-.396.396" fill="#fff"/><path d="m43.4285 9.9422h-1.448c-.219 0-.396-.178-.396-.396s.177-.395.396-.395h1.448c.219 0 .396.177.396.395s-.177.396-.396.396" fill="#fff"/><path d="m48.5652 9.9422h-3.293c-.218 0-.395-.178-.395-.396s.177-.395.395-.395h3.293c.219 0 .396.177.396.395s-.177.396-.396.396" fill="#fff"/><path d="m70.3152 9.5428h-11.384c-1.423 0-2.576 1.153-2.576 2.576v5.871c0 1.423 1.153 2.576 2.576 2.576h7.444l2.677 2.363v-2.363h1.263c1.423 0 2.576-1.153 2.576-2.576v-5.871c0-1.423-1.153-2.576-2.576-2.576" fill="#f9ba55"/><path d="m60.5877 13.1756h8.071c.178 0 .323-.145.323-.322 0-.179-.145-.324-.323-.324h-8.071c-.179 0-.323.145-.323.324 0 .177.144.322.323.322" fill="#fff"/><path d="m60.5877 15.328h8.071c.178 0 .323-.145.323-.322 0-.179-.145-.324-.323-.324h-8.071c-.179 0-.323.145-.323.324 0 .177.144.322.323.322" fill="#fff"/><path d="m67.4754 17.4803h1.184c.177 0 .322-.145.322-.323s-.145-.323-.322-.323h-1.184c-.179 0-.323.145-.323.323s.144.323.323.323" fill="#fff"/><path d="m64.785 17.4803h1.184c.177 0 .322-.145.322-.323s-.145-.323-.322-.323h-1.184c-.179 0-.323.145-.323.323s.144.323.323.323" fill="#fff"/><path d="m60.5877 17.4803h2.69c.178 0 .323-.145.323-.323s-.145-.323-.323-.323h-2.69c-.179 0-.323.145-.323.323s.144.323.323.323" fill="#fff"/><path d="m52.1941 44.2293s.22-.224 1.088-.146c.993.089 3.825.796 4.623 1.88.295.402.2930002.752.2930002.752z" fill="#003c6d"/><path d="m-.0002 3.5311c0 1.78 6.702 3.222 35.099 3.222 28.396 0 74.047-1.442 74.047-3.222 0-1.778-45.651-3.221-74.047-3.221-28.397 0-35.099 1.443-35.099 3.221" fill="#e9f3ff" mask="url(#c)" transform="translate(0 153)"/><path d="m108.8563 144.6903-4.626 1.872 2.558 6.319 4.626-1.873z" fill="#fcd5c8"/><path d="m73.1463 145.8436 4.983.27-.368 6.806-4.983-.269z" fill="#fcd5c8"/><path d="m110.8299 145.2713c-.393-3.274-2.209-19.584-7.424-31.746l-7.279-32.093-.126.033c-.019-.134-.041-.268-.058-.402-.302-2.392-1.209-9.565-1.209-9.565-5.424 2.874-15.001 3.244-23.683.197-.753 12.266-.127 29.481 1.145 49.021l.11 27.693c.035.553.496.984 1.051.982007l5.369-.024007c.473-.002.864-.369.895-.841 1.426-10.89 3.695-22.527 2.233-29.582l1.471-25.883.882-.012c2.029 6.094 4.994 14.976 7.981 23.854 4.822 14.325 9.702 28.639 10.806 31.2.306.711 1.873 1.052 2.578.734l4.257-1.746c.523-.236 1.069-1.25 1.001-1.82" fill="#193e7e"/></g><path d="m.652 2.174c.463.184.93.356 1.399.521l.054-2.098z" mask="url(#d)" transform="translate(69 68.773)"/><g transform="translate(6 19.773)"><path d="m81.1561 26.366-.694-10.422-7.424.883-.9760053 9.063c-.0079947 6.088 9.0860053 6.564 9.0940053.476" fill="#f8d1ac"/><path d="m65.5906 24.2381-19.359 14.021s-.346 6.776 1.213 7.858c1.594 1.106 18.146-9.751 18.146-9.751z" fill="#fcd5c8"/><path d="m81.826 30.6463 10.801 21.324s7.92.447 7.524-1.409c-.478-2.239-7.935-23.984-7.935-23.984z" fill="#fcd5c8"/><g fill="#f8d1ac"><path d="m50.1785 41.0809-7.695-17.146-3.922 2.026s4.346 18.533 5.945 19.409c1.6.875 7.079 2.234 5.672-4.289"/><path d="m38.5613 25.9608s-1.94-1.919-3.726-3.815c-1.951-2.073-1.672-3.257.541-4.32.62-.297 2.48.373 2.48.373l2.466 3.069s3.515 2.35 1.791 4.687c-1.284 1.74-3.552.006-3.552.006"/><path d="m34.7811 18.3582s-3.007-2.01-2.473-3.316c.534-1.308 5.548 3.157 5.548 3.157l-1.779 1.827z"/></g><path d="m98.0125 42.6346c.271-.146.393-.466.288-.754-.647-1.783-2.859-7.935-3.989-11.89-1.332-4.664-4.453-5.543-5.008-5.752-.556-.208-8.399-2.129-8.399-2.129s-2.021 6.946-5.908 6.502c-3.886-.445-2.467-6.502-2.467-6.502-.559.014-1.919.296-3.242.601-2.029.468-3.954 1.309-5.683 2.47l-8.281 5.558 4.841 10.457c.139.298.515.399.784.209l3.462-2.448.091 22.136c6.274 5.996 26.069 1.78 27.384.241.469-.549-1.79-14.426-1.79-14.426z" fill="#a6c6f9"/><path d="m76.8299 55.5477-18.718.046-5.678-12.572 18.718-.046z" fill="#fff"/><path d="m64.5867 49.3641c.225.784-.382 1.422-1.354 1.4250047-.972.0019953-1.942-.6320047-2.167-1.4160047-.224-.785.382-1.423 1.354-1.4250106.972-.0029894 1.942.6310106 2.167 1.4160106" fill="#fff"/><path d="m73.3885 4.0604s-5.574 1.111-2.711 6.728c2.862 5.616 2.711-6.728 2.711-6.728" fill="#232c3f"/><path d="m70.492 7.9032c.194-1.718 1.09-3.28 2.474-4.318 1.383-1.037 3.133-1.459 4.838-1.165 3.298.569 5.581 3.611 5.203 6.937-.217 1.913-.455 4.008-.661 5.822-.139 1.228-.778 2.343-1.766 3.084-.988.742-2.238 1.042-3.455.832-1.129-.194-2.328-.401-3.439-.592-2.422-.418-4.096-2.652-3.819-5.093.191-1.686.415-3.653.625-5.507" fill="#f8d1ac"/><path d="m80.7576 7.3543s-2.492 6.126 1.994 6.584c0 0 1.876-1.784 2.077-4.446.667-8.81-7.909-9.77-12.056-7.963s-3.654 5.619 5.03 6.132z" fill="#232c3f"/><path d="m82.0125 11.6492c-.834-.132-1.647.626-1.815 1.69-.169 1.065.372 2.037 1.206 2.168.834.132 1.647-.626 1.815-1.69s-.372-2.036-1.206-2.168" fill="#f8d1ac"/><path d="m72.8865 18.3006s2.078 1.39 7.688-.184c0 0-5.11 2.924-7.916 2.407z" fill="#f6c7a0"/><path d="m59.742 136.3231c-.022.209.043.41.183.558.139.146 1.808.434 2.027.430041 2.075-.034041 6.058-.332041 8.806-.377041.428-.007.852-.181 1.175-.482.323-.3.517-.701.538-1.111.077-1.54-.341-3.73-.341-3.73l-5.352-.209s-3.71 2.303-5.901 3.237c-.919.392-1.032.753-1.135 1.684" fill="#2a3756"/><path d="m.6238 3.5067s1.324 4.085 2.123 6.549c.136.421.467.749.889.882.422.131.881.052 1.233-.214.758-.572 1.622-1.227 2.158-1.632.333-.252.575-.606.687-1.01.067-.241.149-.534.234-.841.392-1.402.126-2.906-.721-4.088-.876-1.224-1.859-2.595-1.859-2.595-2.465-.421-3.952.712-4.743 2.949z" fill="#2a3756" mask="url(#e)" transform="translate(100 129)"/><path d="m64.5779 132.7117s1.447-2.964 2.835-2.825c1.389.138-.499 3.803-.499 3.803z" fill="#2a3756"/><path d="m72.2108 10.1004c.281.042.478.307.436.589l-.101.667c-.042.281-.307.477-.588.435s-.477-.307-.435-.588l.1-.667c.041-.282.307-.478.588-.436" fill="#01020d"/><path d="m77.1365 10.7772c.282.042.478.307.435.588l-.099.668c-.042.281-.308.476-.589.434s-.477-.306-.435-.587l.1-.668c.042-.282.307-.477.588-.435" fill="#01020d"/><path d="m75.4295 14.1903c-.105.824-.861 1.407-1.686 1.301-.824-.107-1.406-.862-1.299-1.686h.002c.018-.141.149-.242.291-.224l2.464.318c.143.018.244.148.225.291z" fill="#fff"/><path d="m.6404 60.3621s.37 1.511 3.031 2.441c2.378.832 17.943 1.756 20.82 1.252 2.878-.504 5.468-1.562 6.116-2.378.932-1.175.548-2.732.548-2.732" fill="#003c6d"/><path d="m5.3709 127.158 4.855.833-1.137 6.632-4.856-.833z" fill="#fcd5c8"/><path d="m16.3865 137.9246c-.101-.919-.213-1.275-1.119-1.662-1.535-.654-4.16-2.193-5.557-3.032-.244-.148-.433-.369-.542-.633-.165-.402-.553-.669-.987-.679l-3.948-.088-1.167 5.094c-.221.965.311 1.944 1.056 1.944 0 0 8.882.012 10.083.032024.215.002976 1.864-.281024 2.001-.426024.138-.145.202-.343.18-.55" fill="#2a3756"/><path d="m29.5809 127.5799-4.919.266.363 6.719 4.92-.266z" fill="#fcd5c8"/><path d="m29.8191 75.3035-1.573-24.249-3.126.68c-8.918 3.557-14.556 4.187-20.199 1.197 0 0-.895 7.082-1.194 9.442-.063.504-.136 1.008-.217 1.511-.397 2.467.863 10.168.864 10.169.014 7.708 1.284 8.971.556 26.317-.172 4.09-.697 26.787-.968 28.924-.228 1.796 7.771 2.311 7.398.539-.476-2.254 4.268-33.016 6.211-51.025l3.556 22.357 2.479 28.914c.03.466 6.966.182 7.001-.365l-.662-27.844z" fill="#8fbff9"/><path d="m51.6551 21.8504-7.273-.48c-.432-.025-.776-.421-.7700773-.886l.1610773-12.179c.007-.465.361-.822.792-.799l7.193.403c.43.023.775.42.7690771.885l-.1610771 12.12c-.004.307-.123.412-.363.621z" fill="#cc0a3e"/><path d="m47.1209 12.1532s-3.515 8.796-3.509 8.331l-.011-12.5.48-.324c.134-.106.302-.163.484-.153l7.193.402c.211.012.4.112.539.265z" fill="#cc0a3e"/><path d="m51.077 22.0994-7.176-.409c-.43-.025-.757-.428-.7510813-.894l.1610813-12.177c.007-.466.352-.82.783-.795l7.171.41c.431.024.753.429.7480574.895l-.1620574 12.178c-.006.465-.343.815-.774.792" fill="#cc0a3e"/><path d="m51.0721 20.1092-7.062-.395.112-10.725 7.018.391-.275 10.538c-.001.09.304.197.207.191" fill="#fff"/><path d="m49.7107 15.4178c.209.453-.07 1.74.004 2.479.2 1.978.779 3.784.779 3.784s-1.24 1.798-2.643.608c-1.405-1.19-.1-4.294-.1-4.294l.72-3.619s.473-.625 1.24 1.042" fill="#fcd5c8"/><path d="m55.1971 16.0877c-.091-.64-.193-1.35-.193-1.35-.2-1.119-.885-2.102-1.887-2.719-.242-.149-.424-.317-.626-.498l-.027 2.063c-.002.011.002 1.187-.169 2.163-1.191 1.28-2.738 1.985-2.674 2.849l-.726.591c-.102.083-.151.212-.129.338l.654 3.691c.053.305.457.409.669.174.228-.254.539-.631.895-1.076l.662 1.117s2.393-3.856 3.178-5.557c.008-.016.018-.037.029-.058.295-.54.427-1.139.344-1.728" fill="#fcd5c8"/><path d="m47.7986 21.3953-1.025 4.313 4.971 1.063.55-4.94z" fill="#fcd5c8"/><path d="m46.8416 24.5213.447-1.463 4.724 1.996-.233 1.488z" fill="#9fc6ff"/><path d="m23.5369 11.0799 1.556.194c.708.088 1.277-.432 1.264-1.158l-.003-.176c-.012-.725-.603-1.391-1.311-1.48l-1.556-.193c-.708-.089-1.277.432-1.264 1.158l.002.176c.014.725.604 1.391 1.312 1.479z" stroke="#193e7e" stroke-linecap="round" stroke-linejoin="round" stroke-width=".652"/><path d="m11.8631 22.3358 3.326-9.263 5.907-.193-1.966 9.551z" fill="#efcabf"/><path d="m12.451 5.8123s-2.223 12.703 9.041 11.974c0 0 4.865.797 3.257-9.765-1.629-10.693-7.825-5.395-12.298-2.209" fill="#fcd5c8"/><path d="m12.699 16.5155 1.988.293c1.058.155 2.127-.342 2.651-1.233.415-.707.834-1.464.92-1.78.321-1.17.51-1.046.755-2.788.097-.689 1.617-.568 1.802-1.815.342-2.298 3.061-4.809 3.061-4.809s1.382-.631.925-1.718c-.667-1.588-1.63-1.226-2.948-1.919-1.989-1.043-10.103.096-11.608 2.623-.377.632-.9 1.239-1.287 1.986-2.455 4.738 3.741 11.16 3.741 11.16" fill="#492717"/><path d="m18.6932 10.0008c-1.734-.256-3.271-1.137-4.265-2.461-.998-1.331-2.202-3.179-2.967-5.193-.544.335-.968.71-1.214 1.123-.377.632-.901 1.238-1.287 1.985-2.455 4.738 3.74 11.161 3.74 11.161l1.989.293c1.058.155 2.127-.342 2.65-1.234.416-.706.834-1.463.92-1.778.322-1.17.511-1.047.756-2.789.085-.608 1.274-.586 1.682-1.426-.606.298-1.307.422-2.004.319" fill="#492717"/><path d="m20.7293 11.7547c.081 1.063-.59 1.999-1.5 2.088-.909.089-1.712-.701-1.793-1.765-.082-1.064.59-1.999 1.499-2.089.91-.088 1.713.702 1.794 1.766" fill="#fcd5c8"/><path d="m25.826 3.534c-.02 1.045-1.179 1.998-2.781 2.139-1.604.141-2.957-.589-3.025-1.629-.066-1.041-1.231-3.829.355-3.644 2.006.236 5.521-.619 5.451 3.134" fill="#492717"/><path d="m45.0975 42.493-.544.626c-1.401 1.612-3.818 1.914-5.372.669l-13.438-10.768c-1.553-1.244-1.678-3.583-.278-5.195l.544-.626c1.401-1.613.868-3.466 2.422-2.221l16.388 12.319c1.553 1.245 1.678 3.583.278 5.196" fill="#004aa3"/><path d="m12.6473 17.7391 7.519 1.659 3.567 2.605c-1.101-.342-2.009.103-3.585.103-4.742-.313-8.515-.949-10.092-2.311.149-.808 1.031-2.119 2.591-2.056" fill="#9fc6ff"/><path d="m20.4598 11.036c-.505.044-.942-.303-.973-.771l-.173-2.69c-.03-.468.359-.888.864-.932s1.802-1.108 1.832-.64l-.687 4.101c.031.468-.358.887-.863.932" fill="#492717"/><path d="m26.1424 9.2157-4.819.889" stroke="#193e7e" stroke-linecap="round" stroke-linejoin="round" stroke-width=".652"/><path d="m37.0047 137.9246c-.101-.919-.212-1.275-1.119-1.662-1.535-.654-4.16-2.193-5.557-3.032-.244-.148-.432-.369-.542-.633-.165-.402-.553-.669-.987-.679l-3.948-.088-1.167 5.094c-.221.965.311 1.944 1.056 1.944 0 0 8.882.012 10.083.032024.215.002976 1.864-.281024 2.001-.426024.138-.145.202-.343.18-.55" fill="#2a3756"/><path d="m60.5818 41.4998c.454-.246.675-1.175.644-2.351-.872.543-1.822 1.13-2.805 1.724.758.67 1.519.976 2.161.627" fill="#5c96ea"/><path d="m55.2908 30.7391c-.459.284-.729.794-.787 1.528l2.145-1.552c-.488-.209-.954-.226-1.358.024" fill="#5c96ea"/><path d="m60.5506 35.7791c-.81-2.121-2.453-4.444-3.901-5.064l-2.146 1.552-8.272 5.992s-.346 6.776 1.213 7.858c.877.609 6.29-2.408 10.976-5.244.984-.594 1.934-1.181 2.805-1.724-.028-1.031-.248-2.252-.675-3.37" fill="#f8d1ac"/><path d="m45.6102 41.8504c2.661-6.12 6.612-15.003 6.5881088-15.135-.0471088-.254-5.7481088-2.597-6.0041088-2.486-.408.178-4.885 8.691-8.247 14.422-.969 1.637-.545 3.676 1.012 4.862 2.242 1.709 5.646.858 6.651-1.663" fill="#004aa3"/><path d="m90.0633 46.908-.058-.113c.015.041.033.08.058.113" fill="#5c96ea"/><path d="m98.2967 42.1854c-.25-.271-.584-.429-.969-.503.238.713.469 1.41.692 2.083.413-.674.558-1.274.277-1.58" fill="#5c96ea"/><path d="m100.1512 50.5614c-.153-.717-1.022-3.435-2.132-6.796-.222-.673-.454-1.37-.691-2.083-1.211-.233-2.938.381-4.212 1.082-1.655.91-3.398 3.211-3.111 4.03l.058.114 2.564 5.062s7.92.446 7.524-1.409" fill="#f8d1ac"/><path d="m82.2322 22.4432s5.737 2.226 8.385 5.092c3.581 3.876 6.85 12.112 6.85 12.112-.949-2.674-2.359-6.756-3.188-9.656-1.332-4.664-4.453-5.544-5.008-5.753-.409-.152-4.768-1.234-7.039-1.795" fill="#a2bff4"/><path d="m64.3953 43.0018.074 18.091c4.013 3.835 13.456 3.53 19.74 2.261 0 0-7.6-2.096-12.147-4.626-4.059-2.259-7.667-15.726-7.667-15.726" fill="#a2bff4"/><path d="m75.6736 57.2166s.309.469-1.243 1.064c-1.151.442-4.151.69-5.309.372-1.271-.35-2.899-1.77-2.899-1.77s-.392-1.587.955-2.207c.48-.222 2.321.759 2.321.759 1.246-.821 2.881-1.207 4.832-1.239z" fill="#f8d1ac"/><path d="m96.7938 56.1258c-8.445 2.661-16.309 3.883-22.921 2.005l-.25-3.297c8.479.064 16.489-4.846 24.846-7.038l1.27 1.952c1.668 2.562.087 5.986-2.945 6.378" fill="#f8d1ac"/><path d="m82.7371 55.533-10.061.025-.002-1.036 10.06-.024z" fill="#cc0a3e"/><path d="m76.1043 55.5496-18.718.046-5.678-12.572 18.717-.046z" fill="#cc0a3e"/><path d="m4.9207 52.9315s-.895 7.082-1.193 9.442c-.064.504-.136 1.008-.217 1.511-.398 2.467.862 10.168.863 10.169.009 4.631.537 9.51.951 14.92 0 0 1.321-9.765 3.373-16.227 1.9-5.978 7.94-11.174 7.94-11.174s.715-6.023.383-5.979c-.079.011-1.371-.309-3.289-.802-3.205.216-6.007-.375-8.811-1.86" fill="#90b7fc"/><path d="m31.2762 31.4071c2.189-6.221-11.272-11.046-11.272-11.046l-7.519-1.353-5.638 1.872c-4.735 2.165-4.575 6.897-4.343 9.626.003.046.031 9.399 0 14.541-.011 1.813-2.112 14.554-1.864 15.315.204.628 5.074 1.702 7.934 2.186.783-1.111 1.785-2.655 1.785-2.655l.631 2.993c7.326.842 19.17.411 20.165-3.941 0 0-4.005-14.095-2.092-20.167.98-3.11 1.638-5.735 2.213-7.371" fill="#004aa3"/><path d="m2.5174 36.4979c.003 2.854.001 6.156-.014 8.549-.01 1.813-2.111 14.555-1.863 15.315.204.628 5.073 1.702 7.934 2.186.783-1.111 1.785-2.654 1.785-2.654l.631 2.993c1.409.162 2.985.276 4.62.325-1.606-3.337-3.607-4.416-8.628-7.618-4.78-3.048-2.818-15.896-4.465-19.096" fill="#0041a0"/><path d="m78.6248 74.2069c-.143-.431-.282-.85-.418-1.256l-.882.013-1.726 25.847c1.462 7.055-.552 18.727-1.978 29.617-.031.471-.401.964-.933.939 0 0 1.066-.085 1.421-.097.473-.018.865-.371.896-.842 1.426-10.89 3.439-22.562 1.977-29.617z" fill="#092a60"/><path d="m90.1268 62.1727 6.951 31.223c5.215 12.162 6.908 28.452 7.301 31.726.068.571-.376 1.878-.9 2.114l.35-.144c.524-.235 1.668-.973 1.794-1.933.427-3.269-1.947-19.601-7.161-31.763l-6.898-31.819" fill="#092a60"/></g></g></svg>