<svg height="155" viewBox="0 0 144 155" width="144" xmlns="http://www.w3.org/2000/svg" xmlns:xlink="http://www.w3.org/1999/xlink"><mask id="a" fill="#fff"><path d="m0 154.412h143.298v-154.412h-143.298z" fill="#fff" fill-rule="evenodd"/></mask><g fill="none" fill-rule="evenodd"><path d="m128.6493 77.2059c0 31.48-25.52 57-57 57s-57-25.52-57-57c0-31.479 25.52-57 57-57s57 25.521 57 57" fill="#c3ecfe" opacity=".35"/><path d="m105.9598 7.7957h18.76c2.344 0 4.245 1.9 4.245 4.246v9.675c0 2.345-1.901 4.246-4.245 4.246h-12.268l-4.411 3.893v-3.893h-2.081c-2.345 0-4.245-1.901-4.245-4.246v-9.675c0-2.346 1.9-4.246 4.245-4.246" fill="#f9ba55"/><g fill="#fff"><path d="m121.9901 13.783h-13.301c-.294 0-.532-.238-.532-.532s.238-.532.532-.532h13.301c.294 0 .532.238.532.532s-.238.532-.532.532"/><path d="m121.9901 17.3299h-13.301c-.294 0-.532-.238-.532-.532s.238-.532.532-.532h13.301c.294 0 .532.238.532.532s-.238.532-.532.532"/><path d="m110.6395 20.8768h-1.95c-.294 0-.532-.238-.532-.532s.238-.532.532-.532h1.95c.294 0 .532.238.532.532s-.238.532-.532.532"/><path d="m115.0741 20.8768h-1.951c-.294 0-.532-.238-.532-.532s.238-.532.532-.532h1.951c.294 0 .531.238.531.532s-.237.532-.531.532"/><path d="m121.9901 20.8768h-4.434c-.294 0-.532-.238-.532-.532s.238-.532.532-.532h4.434c.294 0 .532.238.532.532s-.238.532-.532.532"/></g><path d="m131.95 7.5858c0 2.464-1.997 4.461-4.461 4.461-2.463 0-4.46-1.997-4.46-4.461 0-2.463 1.997-4.46 4.46-4.46 2.464 0 4.461 1.997 4.461 4.46" fill="#cc0a3e"/><path d="m128.995 8.6551v.975h-2.6v-.975h.817v-1.968h-.817v-.734c.466-.037 1.087-.361 1.478-.683h.336v3.385z" fill="#fff"/><path d="m129.828 63.9422v2.102 1.795 56.534h2.438v-1.713-56.616-2.102z" fill="#004aa3"/><path d="m128.029 125.281h6.035v-.9h-6.035z" fill="#004aa3" mask="url(#a)"/><path d="m123.4491 59.8055v-6.24h15.202c2.556 0 4.647 2.091 4.647 4.646v2.656 4.581 1.592c0 .584-.478 1.063-1.062 1.063h-22.371c-.585 0-1.062-.479-1.062-1.063v-6.173c0-.584.477-1.062 1.062-1.062z" fill="#9fc6ff" mask="url(#a)"/><path d="m130.9051 65.7547h11.135 1.258v1.286c0 .584-.478 1.063-1.062 1.063h-.952-9.408-1.718-1.378-7.169c-.584 0-1.062-.479-1.062-1.063v-7.235h2.9v-5.898c.54-.22 1.13-.342 1.747-.342 2.556 0 4.647 2.09 4.647 4.646v6.481c0 .584.478 1.062 1.062 1.062" fill="#0053cc" mask="url(#a)"/><path d="m118.8026 58.2117c0-2.556 2.091-4.646 4.646-4.646 2.557 0 4.648 2.09 4.648 4.646v8.829c0 .584-.479 1.063-1.063 1.063h-7.169c-.584 0-1.062-.479-1.062-1.063z" fill="#0053cc" mask="url(#a)"/><path d="m127.7567 56.4735c.219.538.34 1.125.34 1.738v8.829c0 .584-.479 1.063-1.063 1.063h-6.076c-.539 0-.98-.442-.98-.982v-8.154c0-2.361 1.93-4.292 4.292-4.292 1.432 0 2.707.711 3.487 1.798" fill="#004aa3" mask="url(#a)"/><path d="m102.4754 82.1492s.065-.179.178 1.442c.028.409.006 1.579-1.329 2.867-.715.69-3.344 1.752-3.344 1.752l.485-5.793s2.598-.415 2.747-.446c.15-.03 1.263.178 1.263.178" fill="#004ab5" mask="url(#a)"/><path d="m66.5477 82.4842s-.624.813 2.169 3.854c3.016 3.285 6.16.209 6.16.209z" fill="#0065dd" mask="url(#a)"/><path d="m70.5008 73.1219s20.688 31.648 22.101 34.477c1.413 2.83.441 6.717 4.229 17.729 1.785 5.19 5.644 13.631 8.143 17.384l8-2.717c-3.065-8.937-5.425-27.488-6.713-31.108-1.828-5.137-9.43-37.226-9.43-37.226s-26.056-6.717-26.33 1.461" fill="#004aa3" mask="url(#a)"/><path d="m90.0467 80.2156-12.521 3.692c6.141 9.456 14.212 21.961 15.076 23.691 1.413 2.83.441 6.718 4.229 17.729.022.062.044.126.066.189l1.803-17.389s-5.825-26.718-8.653-27.912" fill="#00399e" mask="url(#a)"/><path d="m124.9315 150.6678c0 2.068-5.582 3.744-29.23 3.744-23.65 0-61.668-1.676-61.668-3.744 0-2.067 38.018-3.744 61.668-3.744 23.648 0 29.23 1.677 29.23 3.744" fill="#e9f3ff" mask="url(#a)"/><path d="m124.7508 144.9862-16.46 6.732-1.344-4.646 6.509-4.335 10.736.316z" fill="#2a3756" mask="url(#a)"/><path d="m111.8348 141.2899-.572-1.82c-.754-.123-1.695-.146-2.699.149-1.245.365-2.146 1.146-2.734 1.831l.581 1.556 1.321 3.542 4.759-3.167z" fill="#fcd5c8" mask="url(#a)"/><path d="m112.9735 139.9949s-.681-.356-1.711-.525l.572 1.82c.802-.675 1.139-1.295 1.139-1.295" fill="#0061c1" mask="url(#a)"/><path d="m104.9735 142.7117s.527.228 1.437.294l-.581-1.556c-.58.678-.856 1.262-.856 1.262" fill="#0061c1" mask="url(#a)"/><path d="m33.0926 90.0906c3.276-1.779 7.638-5.166 9.945-11.228-1.379-.424-6.562-2.094-7.839-3.535-.564.357-2.21 1.339-4.402 2.127-2.391.86-5.877 1.621-9.132.502.079 1.901.661 10.344 4.83 14.562.623-.115 3.41-.697 6.598-2.428" fill="#f9ba55" mask="url(#a)"/><path d="m21.6649 101.8592c-1.466-1.984-6.583-8.82-8.81-10.634-1.632-1.33-6.189-1.803-9.596-1.803-1.598 0-2.727.098-3.259.207l3.313 13.444c1.489-.239 8.808-1.363 14.895-1.363 1.28 0 2.44.05 3.457.149" fill="#f9ba55" mask="url(#a)"/><path d="m84.3846.8055c3.314-.838 8.087 1.51 8.838 5.388.75 3.878 1.456 10.647-1.002 11.508-1.088.381-5.253 0-5.253 0l.876 4.628h-7.632l1.252-6.629s-8.006-12.134 2.921-14.895" fill="#fcd5c8" mask="url(#a)"/><path d="m87.5897 5.6903c-.917 2.681.012 6.613-1.805 3.212-.889-1.664-2.232-1.226-2.937.121-.868 1.657 1.093 3.071.907 3.63-.186.557-1.856 2.984-2.291 3.047-.434.061-4.697-6.902-2.828-11.563 2.045-5.101 10.716-5.426 12.648-1.297-.736-.011-2.787.198-3.694 2.85" fill="#2a3756" mask="url(#a)"/><path d="m80.617 3.4207c.576-1.437 1.679-2.495 3.008-3.182-2.166.499-4.145 1.789-4.989 3.899-1.87 4.661 2.394 11.624 2.828 11.562.23-.033.809-.733 1.33-1.466-1.256-1.913-3.668-7.094-2.177-10.813" fill="#202a3f" mask="url(#a)"/><path d="m91.0194 2.8465c.101-.006.189-.007.265-.006-.021-.046-.047-.088-.071-.132-.064.042-.13.089-.194.138" fill="#2a3756" mask="url(#a)"/><path d="m78.4715 108.0614c.91-1.502 1.661-2.836 1.745-3.242 2.16-7.093 10.786-28.667 10.786-28.667s-12.845-20.953-17.568-14.271c0 0-2.905 29.505-5.106 39.051-2.694.149-5.875.535-9.603 1.433-5.336 1.285-14.307 3.226-18.605 4.59l.395 8.438c9.436-.468 34.917-2.313 37.956-7.332" fill="#0252a3" mask="url(#a)"/><path d="m32.4579 125.328-1.911-17.68 4.838-.006 2.362 7.456-3.277 10.229z" fill="#2a3756" mask="url(#a)"/><path d="m77.7284 27.9178c4.349-1.653 9.026 5.357 13.27 25.874 0 0 15.184-10.027 17.872-9.499 2.37.466 5.298 5.15 3.341 6.117-7.82 3.865-19.363 16.956-25.53 11.764s-16.973-31.203-8.953-34.256" fill="#0053cc" mask="url(#a)"/><path d="m82.9168 20.3758c-3.389.211-8.04 3.648-8.699 10.146-1.175 11.6-3.052 39.221-7.67 51.962-1.56 4.301 36.735 3.782 36.032.2-6.425-32.73-6.729-55.201-12.786-59.875-2.404-1.971-3.996-2.612-6.877-2.433" fill="#0053cc" mask="url(#a)"/><path d="m70.3133 64.0311c-.29-.209-.354-.613-.145-.903l14.574-20.109c.21-.29.615-.354.904-.144l12.786 9.266c.29.21.355.616.145.904 0 0-7.156 9.873-9.287 12.815-.293.403.144 3.548-.147 3.95-1.22 1.683-3.358 4.635-3.358 4.635-.21.29-.615.354-.905.145z" fill="#f2b255" mask="url(#a)"/><path d="m88.4823 51.9998c-.288-.21-.692-.146-.903.145l-10.412 14.366c-.209.289-.145.693.145.903l7.616 5.52c.29.21.695.145.905-.144l10.412-14.367c.208-.289.144-.694-.146-.903z" fill="#cc0a3e" mask="url(#a)"/><path d="m85.6463 42.8748c-.289-.21-.694-.146-.904.145l-14.574 20.108c-.21.29-.145.694.145.903l12.786 9.268c.29.21.694.145.904-.145 0 0 7.156-9.873 9.288-12.814.292-.403 3.417-.966 3.709-1.369 1.218-1.683 3.358-4.634 3.358-4.634.209-.29.145-.694-.145-.904z" fill="#f9ba55" mask="url(#a)"/><path d="m83.5555 70.5946c.298.201.703.124.905-.174l15.907-23.526c.202-.298.124-.702-.173-.904l-15.308-10.35c-.297-.202-.702-.124-.904.174l-15.908 23.525c-.202.298-.123.702.174.904z" fill="#cc0a3e" mask="url(#a)"/><path d="m81.9852 51.6053.981 1.723-.862 1.782 1.941-.4 1.429 1.372.219-1.969 1.746-.937-1.806-.817-.35-1.949-1.335 1.464z" fill="#fff" mask="url(#a)"/><path d="m86.1971 23.659c3.227 3.351-2.344 14.82-19.55 26.773 0 0 2.534 3.142 5.763 6.412 2.224 2.252 8.913 5.711 8.789 6.473-.188 1.158-3.413 6.576-5.356 5.628-1.78-.869-20.956-11.482-18.6-19.193 2.355-7.709 23-32.272 28.954-26.093" fill="#005bc9" mask="url(#a)"/><path d="m86.1971 23.659c3.227 3.351-2.344 14.82-19.55 26.773 0 0 2.534 3.142 5.763 6.412 2.224 2.252 8.913 5.711 8.789 6.473-.188 1.158-3.413 6.576-5.356 5.628-1.78-.869-20.956-11.482-18.6-19.193 2.355-7.709 23-32.272 28.954-26.093" fill="#005bc9" mask="url(#a)"/><path d="m80.5497 20.1453c.141-.464 1.844-.703 3.363-.647 1.52.056 3.04.168 3.434.563.394.394.563.957.507 1.294-.057.338-2.365-.394-3.434-.45s-3.377.282-3.771.338-.213-.721-.099-1.098" fill="#004aa3" mask="url(#a)"/><path d="m90.4452 7.6453c.303-.1.631.067.729.37l.236.717c.098.302-.068.63-.37.729-.303.099-.631-.067-.73-.37l-.234-.717c-.1-.302.067-.63.369-.729" fill="#01020d" mask="url(#a)"/><path d="m92.9774 12.4051c.402.832.307 1.64-.213 1.803-.52.164-1.268-.377-1.671-1.209h.001c-.068-.144-.052-.283.037-.312l1.556-.49c.09-.028.219.065.288.209z" fill="#fff" mask="url(#a)"/><path d="m76.3846 68.9969c.113.131.386.381 1.102-.09.33-.217.814-.6 1.305-1.044l-1.947-1.188c-.465 1.063-.645 2.106-.46 2.322" fill="#004aa3" mask="url(#a)"/><path d="m81.2225 63.6864c.026-.165.013-.448-.069-.529-.456-.451-1.086-.257-1.917.457l1.541 1.685c.311-.758.403-1.349.445-1.613" fill="#004aa3" mask="url(#a)"/><path d="m81.8163 66.4364-1.039-1.137c-.08.195-.173.399-.285.612-.302.577-1.008 1.325-1.7 1.952l1.191.727z" fill="#fcd5c8" mask="url(#a)"/><path d="m80.492 65.911c.112-.213.205-.417.285-.611l-1.541-1.686c-.426.366-.904.866-1.441 1.491-.388.452-.707 1.013-.95 1.57l1.947 1.188c.692-.627 1.398-1.375 1.7-1.952" fill="#fcd5c8" mask="url(#a)"/><path d="m84.9735 68.6805c-1.518-2.416-3.964-3.611-5.465-2.668-.436.273-.746.699-.926 1.225-.085.249.19.784.575 1.353.425.631.986 1.305 1.338 1.682.294.312.573.677.822 1.084.049.08.097.162.144.246.611 1.088 2.565 2.013 3.317 1.54 1.502-.943 1.712-2.048.195-4.462" fill="#fcd5c8" mask="url(#a)"/><path d="m108.3602 44.2928c-.487.202-.399 1.068-.074 2.024l1.899-1.455c-.962-.685-1.455-.723-1.825-.569" fill="#004aa3" mask="url(#a)"/><path d="m110.3651 49.6903c.562.521 1.244.935 1.847.72 1.029-.366.822-1.861.218-3.106z" fill="#004aa3" mask="url(#a)"/><path d="m116.3104 41.7899c-1.88.071-3.502.759-4.369 1.727l-1.756 1.345-1.899 1.455c.263.778.684 1.615 1.082 2.205.196.292.559.763.997 1.168l2.065-2.385.433-.501c.842-.009 1.981-.197 2.592-.34.499-.117 1.052-.179 1.634-.173 1.247.016 2.592-1.109 2.559-1.996-.067-1.774-.488-2.613-3.338-2.505" fill="#fcd5c8" mask="url(#a)"/><path d="m40.1209 106.9549c-.55-.022-1.062.462-1.442 1.173l2.787-.386c-.346-.495-.8-.766-1.345-.787" fill="#0061c1" mask="url(#a)"/><path d="m38.7479 113.8553c.45.946 1.074 1.574 1.768 1.538.56-.029 1.077-.838 1.392-1.859z" fill="#0061c1" mask="url(#a)"/><path d="m41.4657 107.742-2.787.386-3.009.415 1.727 5.45 1.351-.138 3.16-.321c.177-.575.291-1.217.313-1.826.064-1.848-.212-3.188-.755-3.966" fill="#fcd5c8" mask="url(#a)"/><path d="m86.0125 20.9051 8.616 13.427s-.702-7.627-5.789-13.002c0 0-1.219-.315-2.827-.425" fill="#fff" mask="url(#a)"/><path d="m86.0125 20.9051 8.616 13.427-9.904-6.348 2.715-.594-6.791-6.147z" fill="#0250ad" mask="url(#a)"/></g></svg>