<svg height="291" viewBox="0 0 207 291" width="207" xmlns="http://www.w3.org/2000/svg" xmlns:xlink="http://www.w3.org/1999/xlink"><linearGradient id="a" x1="50.344828%" x2="50.344828%" y1="100%" y2="0%"><stop offset="0" stop-color="#7337dc"/><stop offset=".41" stop-color="#5729d5"/><stop offset=".86" stop-color="#3518cd"/></linearGradient><g fill="none" fill-rule="evenodd" transform="translate(-.870968 .491429)"><g fill-rule="nonzero"><ellipse cx="104.72" cy="144.696914" fill="#57abff" opacity=".1" rx="102.967742" ry="103.251429"/><path d="m67.8683871.3804h25.163871c1.5123024 0 2.9624026.60364443 4.0300659 1.67764798 1.0676633 1.07400356 1.6650576 2.53000492 1.6602854 4.04646631v13.00605711c0 3.1513368-2.547673 5.706-5.6903513 5.706h-16.4567742l-5.9251613 5.2531429v-5.2531429h-2.7819355c-3.145614.0000158-5.6984326-2.5517353-5.7083871-5.706v-13.00605711c0-3.16134103 2.555732-5.72411429 5.7083871-5.72411429z" fill="#ffb73a"/><g fill="#fff"><path d="m89.3651613 8.44125714h-17.8477419c-.3506652-.05612533-.6086882-.35943201-.6086882-.71551428s.258023-.65938896.6086882-.71551429h17.8477419c.2820238-.04513901.5641009.08052494.7197422.32064148.1556412.24011655.1556412.54962907 0 .78974561-.1556413.24011655-.4377184.3657805-.7197422.32064148z"/><path d="m89.3651613 13.2053143h-17.8477419c-.3890936 0-.7045162-.3162917-.7045162-.7064572 0-.3932011.3125179-.7147414.7045162-.7245714h17.8477419c.3990703 0 .7225807.3244017.7225807.7245714 0 .1905453-.0766378.3730361-.2126933.5060557-.1360556.1330197-.3199282.2052873-.5098874.2004015z"/><path d="m74.0645161 17.9874857h-2.5470967c-.3919983-.00983-.7046387-.3313703-.7045162-.7245714 0-.3901655.3154226-.7064572.7045162-.7064572h2.5470967c.1899593-.0048857.3738318.0673818.5098874.2004015s.2127558.3155105.2126933.5060557c0 .4001697-.3235104.7245714-.7225807.7245714z"/><path d="m80.0980645 17.9874857h-2.6193548c-.3990703 0-.7225807-.3244017-.7225807-.7245714-.0000624-.1905452.0766377-.373036.2126933-.5060557s.3199281-.2052872.5098874-.2004015h2.6193548c.3890935 0 .7045162.3162917.7045162.7064572.0001225.3932011-.3125179.7147414-.7045162.7245714z"/><path d="m89.3651613 17.9874857h-5.9432258c-.1916403 0-.3754315-.0763385-.5109417-.212222-.1355101-.1358835-.211639-.3201811-.211639-.5123494 0-.1905452.0766378-.373036.2126933-.5060557.1360556-.1330197.3199281-.2052872.5098874-.2004015h5.9432258c.1899592-.0048857.3738318.0673818.5098874.2004015.1360555.1330197.2126933.3155105.2126933.5060557 0 .4001697-.3235104.7245714-.7225807.7245714z"/></g><path d="m67.8683871.3804h25.163871c1.5123024 0 2.9624026.60364443 4.0300659 1.67764798 1.0676633 1.07400356 1.6650576 2.53000492 1.6602854 4.04646631v13.00605711c0 3.1513368-2.547673 5.706-5.6903513 5.706h-16.4567742l-5.9251613 5.2531429v-5.2531429h-2.7819355c-3.145614.0000158-5.6984326-2.5517353-5.7083871-5.706v-13.00605711c0-3.16134103 2.555732-5.72411429 5.7083871-5.72411429z" fill="#ffb73a"/><path d="m74.0645161 16.5564571c.1899593-.0048857.3738318.0673818.5098874.2004015s.2127558.3155105.2126933.5060557c0 .4001697-.3235104.7245714-.7225807.7245714h-2.5470967c-.3919983-.00983-.7046387-.3313703-.7045162-.7245714 0-.3901655.3154226-.7064572.7045162-.7064572zm6.0335484 0c.3890935 0 .7045162.3162917.7045162.7064572.0001225.3932011-.3125179.7147414-.7045162.7245714h-2.6193548c-.3990703 0-.7225807-.3244017-.7225807-.7245714-.0000624-.1905452.0766377-.373036.2126933-.5060557s.3199281-.2052872.5098874-.2004015zm9.2670968 0c.1899592-.0048857.3738318.0673818.5098874.2004015.1360555.1330197.2126933.3155105.2126933.5060557 0 .4001697-.3235104.7245714-.7225807.7245714h-5.9432258c-.1916403 0-.3754315-.0763385-.5109417-.212222-.1355101-.1358835-.211639-.3201811-.211639-.5123494 0-.1905452.0766378-.373036.2126933-.5060557.1360556-.1330197.3199281-.2052872.5098874-.2004015zm0-4.7821714c.3990703 0 .7225807.3244017.7225807.7245714 0 .1905453-.0766378.3730361-.2126933.5060557-.1360556.1330197-.3199282.2052873-.5098874.2004015h-17.8477419c-.3890936 0-.7045162-.3162917-.7045162-.7064572 0-.3932011.3125179-.7147414.7045162-.7245714zm.7197422-4.44341565c.1556412.24011655.1556412.54962907 0 .78974561-.1556413.24011655-.4377184.3657805-.7197422.32064148h-17.8477419c-.3506652-.05612533-.6086882-.35943201-.6086882-.71551428s.258023-.65938896.6086882-.71551429h17.8477419c.2820238-.04513901.5641009.08052494.7197422.32064148z" fill="#fff"/><path d="m128.655484 17.2628789h-20.557419c-2.574004 0-4.660646 2.0924262-4.660646 4.6735211v10.6693143c.00995 2.574018 2.09368 4.6553907 4.660646 4.6553714h13.44l4.913548 4.2387429v-4.2749715h2.276129c2.528828-.0295272 4.568878-2.0832511 4.588422-4.6191428v-10.6693143c.00479-1.2409623-.484691-2.4324948-1.35978-3.3099944-.875089-.8774995-2.063347-1.3683294-3.3009-1.3635267z" fill="#ffb73a"/><path d="m110.996537 30.4591576.100237.009071h4.859355c.284966.0503165.49275.2985666.49275.5887143 0 .2901476-.207784.5383977-.49275.5887142h-4.859355c-.23432.041374-.470736-.060931-.601463-.2602726-.130726-.1993415-.130726-.4575418 0-.6568833.130727-.1993416.367143-.3016466.601463-.2602726zm14.678302.009071c.284966.0503165.49275.2985666.49275.5887143 0 .2901476-.207784.5383977-.49275.5887142h-2.149678c-.284966-.0503165-.49275-.2985666-.49275-.5887142 0-.2901477.207784-.5383978.49275-.5887143zm-4.859355 0c.284966.0503165.49275.2985666.49275.5887143 0 .2901476-.207784.5383977-.49275.5887142h-2.149678c-.284966-.0503165-.49275-.2985666-.49275-.5887142 0-.2901477.207784-.5383978.49275-.5887143zm4.859355-3.8945715c.319256 0 .578064.2595214.578064.5796572s-.258808.5796571-.578064.5796571h-14.578065c-.319256 0-.578064-.2595213-.578064-.5796571s.258808-.5796572.578064-.5796572zm0-3.8945714c.319256 0 .578064.2595214.578064.5796572s-.258808.5796571-.578064.5796571h-14.578065c-.319256 0-.578064-.2595213-.578064-.5796571s.258808-.5796572.578064-.5796572z" fill="#fff"/><path d="m95.9225806 80.1013714s.3974194-.4166285 1.9690323-.2717143c1.5716129.1449143 6.9187101 1.4491429 8.3458061 3.4054858.312705.387949.501561.8613902.541936 1.3585714z" fill="#003c71"/><path d="m1.64387097 283.5248c0 3.224343 12.10322583 5.8328 63.40645163 5.8328 51.3032254 0 133.6774194-2.608457 133.6774194-5.8328s-82.392258-5.8328-133.6954839-5.8328c-51.3032258 0-63.38838713 2.608457-63.38838713 5.8328z" fill="#e6f2ff"/></g><path d="m133.767742 264.160629 9.014193.489085-.668387 12.335829-8.996129-.489086zm64.508387-2.083143 4.624516 11.448228-8.345806 3.387372-4.624516-11.448229z" fill="#ffd2c5"/><path d="m201.852903 263.128114c-.704516-5.941485-3.992258-35.485885-13.421935-57.512857l-13.205162-58.128743h-.216774l-.108387-.724571c-.541935-4.329314-2.185806-17.335372-2.185806-17.335372-9.790968 5.216915-27.096774 5.887143-42.776774.362286-1.354839 22.226229-.234839 53.400914 2.059354 88.76l.19871 50.158457c.05712 1.010828.887138 1.803499 1.896774 1.811433h9.700645c.857229.001908 1.56866-.663924 1.625807-1.521604 2.565161-19.726457 6.665806-40.811486 4.028387-53.582057l2.655484-46.879772h1.589677c3.612903 11.0316 9.032258 27.171429 14.451613 43.202572 8.707097 25.939657 17.522581 51.879314 19.509678 56.516571.56 1.286114 3.378064 1.811429 4.660645 1.322343l7.695484-3.151886c1.115881-.729727 1.804305-1.961476 1.84258-3.2968z" fill="#093e82"/><path d="m127.463226 128.901257c.830968.326057 1.68.652114 2.529032.941943l.090323-3.804z" fill="url(#a)"/><path d="m159.076129 83.9597143-1.246452-18.8750857-13.403871 1.5940571-1.806451 16.4296572c0 11.0134857 16.420645 11.8829714 16.420645.8513714z" fill="#ffcfa6"/><path d="m130.967742 80.1013714-34.9729033 25.3599996s-.6322581 12.281486 2.1858065 14.274058c2.8180648 1.992571 32.7870968-17.661429 32.7870968-17.661429z" fill="#ffd2c5"/><path d="m160.286452 91.7126286 19.509677 38.7102284s14.307097.797029 13.602581-2.554114c-.867097-4.0576-14.343226-43.4742859-14.343226-43.4742859z" fill="#ffd2c5"/><path d="m80.8504104 69.1546738.0063638.0056691 4.4619355 5.5610857s3.2001786 2.1423691 3.9313193 4.9008033l13.880294 31.0017111c2.529032 11.810514-7.3883875 9.310743-10.2606456 7.716686-2.7514251-1.526997-10.0779851-32.3922579-10.6895573-34.9864946-.0270158-.0182163-.0407653-.0284201-.0407653-.0284201l-.0179795-.01859c-.273593-.2829059-3.6212678-3.7454076-6.720085-6.9916386-3.1503091-3.2695532-3.1004269-5.3271204-.3892797-7.0733869-1.1196301-.80178-4.9835876-3.7538695-4.1629783-5.7877559.9426898-2.3364642 9.7311859 5.4598901 10.0013781 5.7003309z" fill="#ffcfa6"/><path d="m189.532903 113.431657c.483515-.262518.705486-.838161.523871-1.358571-1.174193-3.242457-5.166451-14.3827431-7.225806-21.537886-2.402581-8.4593714-8.03871-10.0534286-9.032258-10.4338286-.993549-.3804-15.174194-3.8583428-15.174194-3.8583428s-3.612903 12.5894285-10.676129 11.7924c-7.063226-.7970286-4.443871-11.7924-4.443871-11.7924-1.973673.2349766-3.929144.6041506-5.852903 1.1049714-3.670884.8466768-7.15511 2.3633287-10.27871 4.4742286l-14.957419 10.0715428 8.743226 18.9294286c.119176.260358.348075.453747.624174.527343.276099.073595.570549.019708.802922-.146943l6.250323-4.438.162581 40.105029c11.326451 10.868571 47.094193 3.224342 49.460645.434742.849032-.996285-3.233549-26.138914-3.233549-26.138914z" fill="#9ec5fd"/><path d="m151.272258 136.8172-33.816774.090571-10.260645-22.769657 33.816774-.090571z" fill="#fff"/><path d="m129.143226 125.622571c.415484 1.412915-.686452 2.572229-2.43871 2.572229-1.687521.019046-3.217392-.99173-3.865806-2.554114-.39742-1.431029.704516-2.572229 2.456774-2.590343 1.685374-.008625 3.207461 1.008896 3.847742 2.572228z" fill="#fff"/><path d="m145.058065 43.5648571s-10.08 2.0106858-4.913549 12.1728c5.166452 10.1621143 4.913549-12.1728 4.913549-12.1728z" fill="#212c41"/><path d="m139.819355 50.5207429c.347141-3.1142617 1.962019-5.9463233 4.462466-7.8259679 2.500447-1.8796445 5.664254-2.6398317 8.742695-2.1006607 5.959001 1.0187077 10.084024 6.5312401 9.393549 12.5532-.379355 3.4779428-.812904 7.2457143-1.192259 10.5606286-.249335 2.2334872-1.411193 4.2632773-3.208712 5.6056898-1.79752 1.3424125-4.069721 1.8772248-6.275159 1.4769959l-6.214193-1.0687429c-4.370835-.7582706-7.395769-4.7999808-6.900645-9.2201714.36129-3.0613143.758709-6.6298286 1.138064-9.9809714z" fill="#ffcfa6"/><path d="m158.353548 49.5244571s-4.498064 11.1040572 3.612904 11.9192c2.120384-2.1798258 3.444405-5.0138881 3.757419-8.0427428 1.192258-15.9586857-14.289032-17.6976572-21.785806-14.4914286-7.496775 3.2062286-6.593549 10.1621143 9.032258 11.1040572z" fill="#212c41"/><path d="m160.629677 57.3136c-1.422021-.5907359-3.061143-.21318-4.083536.940603s-1.203535 2.8304171-.451278 4.1769894c.752258 1.3465724 2.272715 2.0673696 3.787907 1.7957183 1.515193-.2716514 2.692377-1.4760954 2.932714-3.000625.443381-1.6819631-.523851-3.4133502-2.185807-3.9126857z" fill="#ffcfa6"/><path d="m144.136774 69.3596s3.75742 2.5178857 13.891613-.3441714c0 0-9.230968 5.3074857-14.289032 4.3655428z" fill="#ffc499"/><path d="m194.338102 276.067013c1.385449-3.95209 4.125348-5.912131 8.490285-5.16787l3.341936 4.709714c1.537845 2.141017 2.022955 4.866446 1.318709 7.408743-.16258.543429-.307097 1.086857-.433548 1.5216-.202841.726095-.641486 1.363565-1.246452 1.811429l-3.883871 2.952628c-.63857.489109-1.476434.631397-2.24.3804-.760789-.240482-1.359339-.833938-1.607742-1.594057-1.350645-4.217394-3.575057-11.079537-3.809511-11.802663l-.003166-.008325zm-60.082618-4.588213c1.071638.131425 1.064046 1.407742.703225 2.827772l7.750968.305999c.427972 2.226434.639715 4.489225.632449 6.756629-.055517.771047-.404855 1.491109-.975674 2.010686-.576452.536627-1.327346.845535-2.113549.869485-4.967742.090572-12.175484.688343-15.914838.688343-1.229042-.126638-2.440561-.387832-3.612904-.778914-.218349-.240706-.336431-.554027-.333759-.876046l.008598-.138354h-.072258c.234839-1.684629.379355-2.336743 2.04129-3.0432 2.310865-1.106934 4.58172-2.294921 6.808394-3.561666.294581-.599011 2.725947-5.349195 5.078058-5.060734zm59.992258 4.745943s.003064.00945.00904.027878l.00796.025991-.017.054817z" fill="#273759"/><path d="m151.633972 55.7120017.107963.0075412c.24683.0358348.469316.1686278.618415.3691071.1491.2004793.212571.452186.176424.6996357l-.180645 1.2136572c-.035453.2464044-.168582.4680309-.369221.6146624-.1672.122193-.369487.183686-.573927.1767134l-.122658-.0124616c-.244271-.0310597-.465308-.1607719-.61195-.3591133-.146642-.1983413-.206177-.4481176-.164825-.6915152l.180646-1.2136572c.069278-.4711603.475805-.8102997.939778-.8045697zm-8.830179-1.2185775.122659.0124615c.245727.0355511.466745.1690467.612973.3702387.146229.2011921.20529.4530491.163801.6985042l-.180645 1.1955428c-.069279.4711604-.475806.8102997-.939779.8045697l-.107963-.0075411c-.24683-.0358348-.469316-.1686278-.618415-.3691071-.149099-.2004794-.212571-.452186-.176424-.6996358l.180645-1.2136571c.035454-.2464045.168582-.468031.369222-.6146625.167199-.1221929.369486-.1836859.573926-.1767133z" fill="#01020e"/><path d="m148.743226 61.9146286c-.12585.9707416-.758601 1.8004189-1.659903 2.1765004s-1.934225.2414316-2.709678-.3532285c-.775452-.5946602-1.175624-1.5589874-1.049774-2.5297291.037304-.2537017.270172-.4308469.523871-.3985143l4.461935.5796572c.123777.0132542.236608.0771509.311842.1765962s.106198.2256197.085578.3487181z" fill="#fff"/><path d="m13.6387097 145.548286s.6683871 2.735257 5.4193548 4.419885c4.4258065 1.503486 32.4619355 3.188115 37.6645161 2.191829 5.2025807-.996286 9.8812904-2.825829 11.0374194-4.3112 1.0136443-1.433357 1.3746273-3.230081.9935484-4.9452" fill="#003c71" fill-rule="nonzero"/><path d="m22.1832258 266.5336 8.7612903 1.5216-2.0412903 12.009771-8.7793548-1.503485zm43.7341936.778914.6503225 12.154686-8.8877419.489086-.6503226-12.1728z" fill="#ffd2c5"/><path d="m57.2464516 275.065429 7.2258065.163028c.795034-.010767 1.5139849.472257 1.8064516 1.213657l.0804897.178122c.204085.406542.520391.747553.9130587.981193 3.2433375 1.988654 6.5900145 3.802652 10.0258064 5.434285 1.643871.688343 1.8425807 1.340457 2.0232258 3.006972l.0075481.138319c-.0008842.36726-.1680983.717517-.459161.948538-1.1689206.403524-2.3818813.665029-3.6129032.778914h-18.2090323c-1.3548387 0-2.312258-1.811428-1.9148387-3.622857zm-37.2309677 0 7.2258064.163028c.7905153.004247 1.5018564.482159 1.8064516 1.213657l.0759409.178988c.1943778.408479.5071827.750653.899543.980327 3.2433376 1.988654 6.5900145 3.802652 10.0258065 5.434285 1.6438709.688343 1.8425806 1.340457 2.0232258 3.006972l.0223966.138523c.0324741.323988-.0725152.649425-.2933644.893991-1.1683991.405399-2.3815884.666953-3.6129032.778914h-18.2090323c-1.3548387 0-2.312258-1.811428-1.9148387-3.622857z" fill="#273759"/><path d="m66.3509677 172.611029-2.8541935-43.9996-5.6903226 1.304228c-16.1135484 6.448686-26.3019355 7.589886-36.4903226 2.173714 0 0-1.6258064 12.824915-2.1496774 17.099886-.1264516.905714-.2529032 1.811429-.3974193 2.735257-.7225807 4.474229 1.5535483 18.422229 1.5535483 18.422229 0 13.966114 2.3303226 16.302857 1.0116129 47.6768-.3070967 7.408743-1.2645161 48.510057-1.8064516 52.386514-.4154838 3.260572 14.0361291 4.1844 13.367742.978172-.8670968-4.075715 7.7135484-59.777143 11.2180645-92.382858l6.4670968 40.4492 4.48 52.386515c0 .833257 12.6451613.326057 12.6451613-.670229l-1.1922581-50.430171z" fill="#81bffd"/><g fill-rule="nonzero"><path d="m105.785806 75.7901714-13.1329028-.8694857c-.8151581-.0853399-1.4239886-.7909919-1.3909677-1.6121714l.2890322-22.0632c-.0098587-.3841288.1367292-.7557154.4059832-1.0291289.269254-.2734134.6379466-.4250675 1.0211136-.4201363l13.0064515.7246938c.80795.0941353 1.406713.7972499 1.372903 1.6121714l-.289032 21.9545143c0 .5615428-.216774.7426857-.650322 1.1230857z" fill="#de0039"/><path d="m97.5483871 58.2193143s-6.3587097 15.9405714-6.3406836 15.0892v-22.5885143l.8671352-.5796571c.2410952-.2048528.5516467-.3086551.8670968-.2898286l13.0064515.7245714c.369965.0335784.712828.2087254.957419.4890857z" fill="#de0039"/><path d="m104.774194 76.2430286-12.9522585-.7426857c-.812605-.0947474-1.4084359-.8117145-1.3548387-1.6302858l.2890322-22.0632c-.0151425-.380817.1278259-.7508893.3948605-1.0220926s.634239-.419268 1.0141718-.4089359l12.9522577.7426857c.812605.0947474 1.408436.8117144 1.354839 1.6302857l-.289032 22.0450857c.020324.3838835-.120345.7588031-.387974 1.0340507-.267629.2752477-.637838.4257492-1.021058.4150922z" fill="#de0039"/><path d="m104.774194 72.6382857-12.7535488-.7245714.1083871-19.3822857 12.6451617.7064571-.415484 19.0381143c0 .1811429.56.3622857.415484.3622857z" fill="#fff"/><path d="m102.28129 64.1245714c.127323 1.4947262.127323 2.9976167 0 4.4923429.257976 2.3270441.729655 4.6252356 1.409033 6.8653143 0 0-2.24 3.2424571-4.7690327 1.0868571-2.5290322-2.1556-.1806451-7.7710286-.1806451-7.7710286l1.3006448-6.5573714s.849033-1.1230857 2.24 1.8838857z" fill="#ffd2c5"/><path d="m112.180645 65.3382286-.343226-2.4454286c-.383013-2.0664367-1.641994-3.8642706-3.450322-4.9270857-.403703-.2551511-.779154-.5526963-1.12-.8876v3.7315428c-.0067 1.3100088-.109342 2.6177551-.307097 3.9126858-2.149677 2.3186285-4.949677 3.6228571-4.823226 5.1625714l-1.318709 1.0687428c-.180538.1498184-.269643.3835042-.234839.6158858l1.192258 6.6841714c.05562.2588367.25091.4647554.505917.5334536.255008.0686983.526916-.0113589.704405-.2073965.39742-.4709714.975484-1.1593143 1.607742-1.9563428l1.192258 2.0288s4.335484-6.9921143 5.744517-10.0715429v-.1086857c.559852-.942392.788803-2.0456611.650322-3.1337714z" fill="#ffd2c5"/><path d="m98.8309677 74.9569143-1.8606451 7.8253714 8.9780644 1.9201143.993548-8.9484571z" fill="#ffd2c5"/></g><path d="m55.2408257 55.8404792 2.8108387.3514172c.4407742.0561543.8472258-.0634 1.1507097-.3387372.3125161-.2807714.4805161-.6937771.4714838-1.1629371l-.0054193-.3206229c-.0180645-1.0162114-.8670968-1.9798914-1.8516129-2.10488l-2.8108387-.3496057c-.4389678-.0543428-.8472258.0634-1.1525162.3369257-.3107096.2807715-.4787096.6955886-.4696774 1.1647486l.0054194.3188114c.016258 1.0162115.8652903 1.9817029 1.8516129 2.10488m3.024 1.5451486c-.1192258 0-.2384516-.0072457-.3576774-.0235486l-2.8108387-.3514171c-1.5625807-.1938229-2.8578065-1.6556457-2.8867097-3.2533257l-.0054194-.3206229c-.0126451-.8169543.2926452-1.5487714.8634839-2.0632171.56-.5053886 1.3060645-.7300057 2.0828387-.6303772l2.8108387.3514172c1.5607742.1956343 2.856 1.6538343 2.8867097 3.2533257l.0036129.3224343c.0144516.8151428-.2926452 1.54696-.8616774 2.0614057-.4750968.4274971-1.0784516.6539257-1.7251613.6539257" fill="#093e82"/><g fill-rule="nonzero"><path d="m97.0967742 80.6266857.8129032-2.6446857 8.5264516 3.6047429-.415484 2.6990285z" fill="#95c5ff"/><path d="m33.9070968 76.6596571 6.0154838-16.7738285 10.6580646-.3441715-3.5406452 17.2991429z" fill="#f5c7bc"/><path d="m34.9729032 46.7348571s-4.0103226 23.0051429 16.2580645 21.7371429c0 0 8.7793549 1.4491429 5.8890323-17.6795429-2.8903226-19.1286857-14.0722581-9.8360571-22.1470968-4.0576z" fill="#ffd2c5"/><path d="m35.4245161 66.1171429 3.6129033.5253142c1.8967379.2860596 3.7806332-.5907612 4.7870967-2.2280571.6404337-1.0277105 1.1962529-2.1060627 1.6619355-3.2243429.6453597-1.6187646 1.0941754-3.3095016 1.3367742-5.0357714.1806452-1.2498857 2.9264516-1.0144 3.2516129-3.2786857.6141936-4.1662857 5.5277419-8.7129714 5.5277419-8.7129714s2.5109678-1.1412 1.68-3.1156572c-1.2103225-2.8801714-2.9445161-2.2099428-5.4193548-3.4779428-3.6129032-1.8114286-18.2451613.1811428-20.9729032 4.7640571-.6683871 1.1412-1.6258065 2.2280572-2.3122581 3.6228572-4.3535484 8.5318285 6.8464516 20.1612 6.8464516 20.1612z" fill="#4e2513"/><path d="m46.2451613 54.3428571c-3.048279-.4170815-5.8115514-2.0171703-7.6954839-4.4561142-2.2321654-2.8733917-4.0560019-6.043418-5.4193548-9.4194286-.8862861.4971508-1.641752 1.1988135-2.203871 2.0469143-.6683871 1.1412-1.6258064 2.2280571-2.3122581 3.6228571-4.4438709 8.5861714 6.7561291 20.2155429 6.7561291 20.2155429l3.6129032.5253143c1.896738.2860595 3.7806332-.5907613 4.7870968-2.2280572.6404337-1.0277105 1.1962529-2.1060627 1.6619355-3.2243428.6529362-1.6237686 1.1078451-3.3206921 1.3548387-5.0538858.1625806-1.0868571 2.312258-1.0506285 3.0529032-2.5722285-1.1177918.5353642-2.3693296.724558-3.5948387.5434285z" fill="#4e2513"/><path d="m49.9303226 57.4947429c.253014 1.7858357-.9414457 3.4547014-2.7096774 3.7858857-.8573589.0145736-1.6846271-.3167798-2.2960321-.9196511-.611405-.6028714-.955704-1.426733-.9555808-2.2865775-.2312309-1.7687901.9599437-3.4091768 2.7096774-3.7315429.8480436-.0145354 1.6670995.3094 2.276922.9005193.6098226.5911192.960439 1.4009823.9746909 2.2513665z" fill="#ffd2c5"/><path d="m59.1251613 42.6048c0 1.902-2.1135484 3.6228571-5.0219355 3.8764571s-5.4193548-1.0687428-5.4193548-2.9526285-2.2219355-6.9377715.632258-6.5936c3.5948387.4166285 9.9354839-1.1230857 9.8090323 5.6697714z" fill="#4e2513"/><path d="m35.316129 68.3452 13.5845162 2.9888571 6.4490322 4.7459429c-1.9870968-.6158857-3.6129032.1811429-6.4670968.1811429-8.5806451-.5615429-15.3909677-1.8114286-18.2451612-4.1844.4669341-2.207021 2.429129-3.7719854 4.6787096-3.7315429z" fill="#95c5ff"/><path d="m49.4425806 56.1542857c-.4258795.0668849-.8604616-.0445784-1.202012-.3082968s-.5600829-.6565388-.6044396-1.0865032l-.3070967-4.8727428c-.0205154-.8968072.6778888-1.6454341 1.5716129-1.6846286.9032258 0 3.2516129-2.0106857 3.3058064-1.1593143l-1.2464516 7.4268571c.0217981.8769645-.6451639 1.6174212-1.5174194 1.6846286z" fill="#4e2513"/><path d="m123.073548 107.127886c.054194 2.119371-.343225 3.804-1.156129 4.256857-1.156129.615886-2.529032.072457-3.901935-1.1412zm-10.712258-15.2341146c.756426-.4358652 1.681917-.4563367 2.456775-.0543428l-3.883871 2.8077143c-.008502-1.0981734.525933-2.1292872 1.427096-2.7533715z" fill="#4a95f0"/><path d="m121.863226 101.023371c-1.463226-3.8583424-4.425807-8.0608567-7.045161-9.1839424l-3.883871 2.8077143-14.9393553 10.8685711s-.6322581 12.227143 2.1858065 14.219715c1.5896774 1.104971 11.3625808-4.365543 19.8709678-9.491886l5.058064-3.115657c-.076346-2.089911-.497535-4.15269-1.246451-6.104515z" fill="#ffcfa6"/><path d="m175.225806 121.166457-.108387-.199257z" fill="#4a95f0"/><path d="m190.03871 112.616514c-.482238-.498673-1.119267-.818065-1.806452-.905714.415484 1.286114.830968 2.554114 1.246452 3.767771.812903-1.213657 1.083871-2.300514.56-2.862057z" fill="#4a95f0"/><path d="m180.645161 113.667143c2.289395-1.431939 4.965785-2.115539 7.659355-1.956343.415484 1.286114.830968 2.554114 1.246452 3.767771 2.04129 6.0864 3.576774 11.013486 3.847742 12.317715.022412.106605.029632.209087.022605.307598.579521 1.791581.473434 3.761054-.341832 5.506927-1.075406 2.302956-3.238976 3.904632-5.750451 4.257018-15.246451 4.8184-29.463226 7.028342-41.403871 3.622857l-.451613-5.977715c11.108991.078818 21.771474-4.576954 32.552382-8.627112l-2.890446-5.773745-.108387-.199257c-.505807-1.431028 2.637419-5.597314 5.618064-7.245714z" fill="#ffcfa6"/></g><path d="m161.027097 76.8589143s10.369032 4.0394857 15.138064 9.2201714c6.485162 7.0283429 12.374194 21.9364003 12.374194 21.9364003-1.698065-4.764057-4.28129-12.2271431-5.744516-17.4440574-2.420645-8.4593715-8.056774-10.0534286-9.032258-10.4338286s-8.634839-2.2461714-12.735484-3.2786857z" fill="#9abef8"/><path d="m128.8 114.12.144516 32.768743c7.225807 6.937771 24.296774 6.394343 35.659355 4.093828 0 0-13.729032-3.804-21.948387-8.386914-7.334194-4.093828-13.855484-28.475657-13.855484-28.475657z" fill="#9abef8"/><path d="m149.176774 139.842286s.56.851371-2.24 1.938228c-3.113242.906377-6.383745 1.134893-9.592258.670229-1.918253-.756409-3.690852-1.841286-5.23871-3.206229-.36567-1.590089.373916-3.229078 1.806452-4.003257.885161-.398514 4.209032 1.376686 4.209032 1.376686 2.636678-1.564332 5.663076-2.343436 8.725162-2.246172z" fill="#ffcfa6"/><path d="m143.757607 134.958998 18.172903-.000122-.000013 1.883885-18.172903.000123z" fill="#de0039" fill-rule="nonzero" transform="matrix(.99999701 -.00244346 .00244346 .99999701 -.331612 .373874)"/><path d="m149.953548 136.835314-33.816774.072457-10.260645-22.769657 33.816774-.090571z" fill="#de0039"/><path d="m21.3703226 132.089371s-1.6258065 12.824915-2.1496774 17.099886c-.1264517.905714-.2529033 1.811429-.3974194 2.735257-.7225806 4.474229 1.5535484 18.422229 1.5535484 18.422229 0 8.386914.9754839 17.226686 1.716129 27.026514 1.3524912-9.930026 3.3926913-19.753599 6.1058065-29.399486 3.4141935-10.868571 14.3432258-20.233657 14.3432258-20.233657s1.2825806-10.868571.6864516-10.868571c-.1445161 0-2.4748387-.561543-5.9432258-1.449143-5.5145469.452271-11.0417945-.705295-15.9148387-3.333029z" fill="#86b6ff"/><path d="m17.0348387 102.309486v15.487714c0 3.2968-3.8116129 26.3744-3.36 27.751086.4516129 1.376685 9.1587097 3.079428 14.3251613 3.948914 1.4270968-2.010686 3.2335484-4.800286 3.2335484-4.800286l1.1380645 5.434286c2.5470968.289829 5.4193548.5072 8.3458065.597771-2.9083871-6.050171-6.5212904-8.006514-15.5896775-13.803085-8.6709677-5.542972-5.1303225-28.819829-8.0929032-34.6164z" fill="#0040a5" fill-rule="nonzero"/><path d="m153.747097 168.354171c.252903.724572.505806 1.485372.758709 2.264286l-2.96258 44.561143c2.60129 12.770571-1.029678 33.909943-3.612903 53.6364-.056101.853906-.754504 1.522757-1.607742 1.539714-.650323.018115-2.565162.163029-2.565162.163029.907719-.062347 1.627537-.791908 1.68-1.702743 2.601291-19.726457 6.250323-40.9564 3.612904-53.6364l3.107096-46.825429zm24.152258-20.614057 12.464516 57.639657c9.411613 22.026972 13.710968 51.625715 12.934194 57.549086-.234839 1.684629-2.294194 3.061314-3.233549 3.496057l-.632258.2536c1.071274-.975743 1.664954-2.371426 1.625807-3.822114-.722581-5.941486-3.775484-35.449657-13.187097-57.476629l-12.645162-56.5528z" fill="#002a64"/><path d="m51.1692644 55.2486855c-.2781936 0-.5274839-.1992571-.5780645-.4836514-.0614194-.3206229.1517419-.6285657.4696774-.6865314l8.7070968-1.61036c.3269677-.0706458.6268387.15216.6864516.4727828.0596129.3206229-.151742.6285657-.4714839.6865314l-8.7052903 1.61036c-.0379355.0072458-.0722581.0108686-.1083871.0108686" fill="#093e82"/><path d="m35.0270968 70.6457143 13.5845161 2.5178857s8.4974554 3.0259839 14.6282403 7.8279979c.1781956.1099922.3772675.2533217.6001468.4321164l21.9092451 16.5265046c4.9030257-8.7819192 9.6328429-17.6166125 10.1914001-17.8488475 3.7495819 1.1416001 7.3795678 2.6461282 10.8388458 4.4923429.035993.2536-7.099491 16.3390857-11.9046523 27.4250287-.7593835 1.67719-2.0681461 3.020001-3.6823203 3.82469-2.4008545 1.478234-5.5416848 1.430473-7.9331636-.328633l-16.8853063-13.569391c-.4161449 1.422735-.8764928 2.934308-1.395984 4.512248-3.4503226 11.013486 3.7754839 36.536514 3.7754839 36.536514-1.7705032 7.800918-22.7686715 8.642341-36.0189406 7.181982l-.3991239-.044953-1.1380645-5.434286s-1.8064517 2.7896-3.2335484 4.800286c-5.1664516-.869486-13.8735484-2.572229-14.3251613-3.948914-.446422-1.360862 3.2729399-23.926634 3.3585015-27.629626l.0014985-.12146v-26.3381714c-.409632-4.8755493-.7314678-13.325445 7.4827129-17.2427431l.3572871-.1650855z" fill="#0049a8" fill-rule="nonzero"/></g></svg>