<svg height="24" viewBox="0 0 25 24" width="25" xmlns="http://www.w3.org/2000/svg"><g fill="none" fill-rule="evenodd"><rect fill="#fff" height="24" rx="7" width="24.036253" x=".072508"/><g transform="translate(2.075529 2)"><path d="m19.3260487 10.0664c0 5.099-4.1382416 9.23-9.2439423 9.23-5.1077037 0-9.24594523-4.131-9.24594523-9.23 0-5.1 4.13824153-9.231 9.24594523-9.231 5.0836675 0 9.2439423 4.131 9.2439423 9.231" fill="#fff"/><g fill="#98867d"><path d="m14.7253099 14.835c-.4396631-.22-.8803278-.439-1.563358-.439-.5928942 0-1.0776253.219-1.5403232.439-.4837296.22-.990494.462-1.67352417.462-.59289425 0-1.0335589-.198-1.5172885-.418-.48573262-.22-.99049395-.461-1.67352415-.461-.59389576 0-1.07862688.22-1.54032325.417-.48473111.22-.99049394.439-1.67352415.439h-.10916465c.06509819.088.13119789.176.21933081.243.68303021-.023 1.18879304-.243 1.67252264-.462.46269788-.198.90336253-.396 1.45319183-.396.61693051 0 1.07862688.22 1.56335799.44.4837296.219.96846071.439 1.62845617.439.72709663 0 1.25489273-.241 1.76065553-.483.4626979-.22.9023611-.417 1.4531919-.417.615929 0 1.0125271.197 1.4521903.417.4626979.242.9464275.483 1.7175906.483.0650982-.088.1532311-.176.2203323-.264h-.1993006c-.7481284.023-1.2108262-.219-1.6504894-.439"/><path d="m13.184886 14.8789c-.5948972 0-1.0786268.22-1.5413247.439-.4837295.22-.9894924.462-1.67252252.462-.59489724 0-1.03456036-.198-1.51929144-.418-.48372958-.219-.9904939-.461-1.67252255-.461-.59389573 0-1.07862682.22-1.54132467.417-.41762989.176-.83626128.374-1.36405732.44.0660997.066.15423262.154.22033231.22.48372958-.088.88032774-.264 1.25489267-.44.46169635-.22.90236097-.395 1.45219024-.395.61592896 0 1.07862682.219 1.5633579.439.48372958.22.96745916.441 1.62745458.441.7270966 0 1.2548927-.243 1.7836902-.485.4626979-.22.902361-.417 1.4531918-.417.6159289 0 1.0125271.197 1.4521902.417.3745649.198.7481284.374 1.2989591.44.088133-.066.1542327-.154.2203323-.242-.6159289-.044-1.0125271-.242-1.4091252-.439-.4837296-.198-.9464275-.418-1.6064229-.418"/><path d="m13.1848865 15.3623c-.5948972 0-1.0786268.22-1.5413247.439-.4837296.221-.9894925.462-1.6725227.462-.59489729 0-1.03456043-.197-1.51929155-.418-.48372961-.219-.99049396-.461-1.67252267-.461-.59389577 0-1.07862689.22-1.54132478.417-.30746374.132-.615929.287-.96745922.374.0660997.067.15423263.132.21933082.199.30846526-.088.57286405-.22.85929608-.33.46169637-.199.90236103-.396 1.45219034-.396.615929 0 1.07862689.22 1.56335801.44.48372961.219.96745922.439 1.62745469.439.72709668 0 1.25489278-.241 1.78369038-.483.4626978-.22.902361-.418 1.4531918-.418.615929 0 1.0125272.198 1.4521903.418.2643988.131.5508309.263.8803278.374.088133-.067.1542327-.132.2203324-.199-.3965982-.087-.6820287-.242-.990494-.395-.4837296-.242-.9464275-.462-1.606423-.462"/><path d="m13.1848863 15.8242c-.5948973 0-1.0786269.22-1.5413247.439-.4837296.22-.9894925.462-1.67252266.462-.59489727 0-1.0345604-.198-1.51929151-.418-.4837296-.219-.99049394-.462-1.67252263-.462-.59389576 0-1.07862687.221-1.54132474.418-.17526435.088-.37356344.176-.57186253.243.06710121.065.15423262.131.22033232.175.15423263-.066.28643202-.131.43966313-.198.46269788-.197.90336253-.395 1.45319182-.395.6169305 0 1.07862687.219 1.56335798.439.4837296.22.96846071.44 1.62845616.44.72709666 0 1.25489276-.242 1.78268876-.484.4626979-.22.9033626-.417 1.4521903-.417.6169305 0 1.0135287.197 1.4541934.417.1532311.067.3074637.154.4616963.22.0871314-.066.1542327-.109.2423656-.176-.1982991-.088-.3965982-.176-.5728641-.264-.4837296-.197-.9464274-.439-1.6064229-.439"/><path d="m13.1848867 16.3076c-.5948973 0-1.0786269.22-1.5413248.439-.4837296.22-.9894924.462-1.67252265.462-.59489728 0-1.03456042-.198-1.51929154-.418-.48372961-.219-.99049396-.461-1.67252266-.461-.59389577 0-1.07862689.22-1.54132478.417-.04406646.023-.10916465.044-.15323111.067.08813293.065.15323111.109.24136404.176l.02303475-.023c.46169637-.197.90236103-.395 1.45219033-.395.61592901 0 1.07862689.219 1.56335801.439.48372961.22.96745922.44 1.62745469.44.72709672 0 1.25489272-.242 1.78369032-.484.4626979-.22.902361-.417 1.4531919-.417.615929 0 1.0125271.197 1.4521903.417.0230347 0 .0440665.023.0671012.023.0871314-.044.1532311-.111.241364-.155-.0660997-.021-.1101661-.065-.1762658-.088-.5057629-.219-.9684607-.439-1.6284562-.439"/><path d="m11.6220291 17.2305c-.4837296.22-.9904939.462-1.67352414.462-.59389577 0-1.03355891-.198-1.51829003-.418s-.99049396-.461-1.67252266-.461c-.48473112 0-.90336254.153-1.27692599.308.08813293.065.17626586.109.26439879.153.30746375-.132.63896375-.22 1.0125272-.22.615929 0 1.07862689.22 1.56235649.44.48473112.219.96846073.439 1.6284562.439.72709664 0 1.25489274-.241 1.76165714-.483.4626979-.22.902361-.417 1.4521903-.417.4406647 0 .7711631.109 1.0575952.241.0881329-.044.1762658-.109.2633973-.153-.374565-.176-.7701617-.33-1.3209925-.33-.5938958 0-1.0776254.219-1.5403233.439"/></g><path d="m10.0151054 0c-5.54636537 0-10.0151054 4.483-10.0151054 10 0 5.538 4.48977175 10 10.0151054 10 5.5463654 0 10.0151054-4.483 10.0151054-10s-4.4897717-10-10.0151054-10m.0000002 18.418c-4.64500596 0-8.43071591-3.759-8.43071591-8.418 0-4.637 3.76467822-8.417 8.43071591-8.417 4.6450061 0 8.430716 3.758 8.430716 8.417-.0220332 4.638-3.7857099 8.418-8.430716 8.418" fill="#ec1b2e"/><g fill="#00a84f"><path d="m14.7037772 7.5166c-.0660997.308-.3745649.637-.5508308.769-.3955966.308-2.9935151 1.89-3.2789456 2.264-.286432.373-.3525317.901-.3525317 1.319v3.033h.3965982v-.791c0-.265.1532311-.682.4616964-1.033.527796-.55 1.7826888-1.253 2.5969169-1.847.6830302-.505.7270966-1.164.7270966-1.758v-2.088z"/><path d="m10.5217695 10.374c.2854305-.352 2.9714819-2 3.3450453-2.308.374565-.308.8372628-.791.8372628-1.385v-3.406c0 .483-.2643988.857-.615929 1.296-.3975997.506-2.2023217 1.495-3.0826495 2.11-.8803278.616-1.18879302 1.253-1.18879302 2.022v6.22h.39659822v-3.253c-.0220333-.417.0220332-.944.3084652-1.296"/><path d="m8.49621458 6.8569c-.81422804-.615-2.48675058-1.956-2.66301643-2.22-.19829908-.263-.61592896-.747-.61592896-1.318v3.164c0 .462.2193308 1.275 1.01152561 1.847.79219481.571 1.91488808 1.406 2.24638806 1.758.32949696.33.63696068.945.63696068 1.802v3.055h.39659816v-6.088c-.02203323-1.011-.19829908-1.384-1.01252712-2"/></g></g></g></svg>