<svg height="22" viewBox="0 0 32 22" width="32" xmlns="http://www.w3.org/2000/svg"><g fill="none" fill-rule="evenodd"><rect fill="#353a48" height="22" rx="3" width="32"/><g transform="translate(6 4.5)"><path d="m13.8684211.5c3.3340558 0 6.0368421 2.71970309 6.0368421 6.07462687 0 3.35492377-2.7027863 6.07462683-6.0368421 6.07462683-1.4944316 0-2.8620335-.5464215-3.91625436-1.4515459-1.0535305.90522-2.42102378 1.4515459-3.91532463 1.4515459-3.33405584 0-6.03684211-2.71970306-6.03684211-6.07462683 0-3.35492378 2.70278627-6.07462687 6.03684211-6.07462687 1.49430085 0 2.86179413.54632597 3.91597763 1.45130839 1.05356786-.90488682 2.42116976-1.45130839 3.91560136-1.45130839z" fill="#ff5e00"/><path d="m6.03684211.5c1.49430085 0 2.86179413.54632597 3.91597763 1.45130839-1.29838408 1.11443287-2.12124079 2.77217998-2.12124079 4.62331848 0 1.85113849.82285671 3.50888563 2.12058779 4.62308093-1.0535305.90522-2.42102378 1.4515459-3.91532463 1.4515459-3.33405584 0-6.03684211-2.71970306-6.03684211-6.07462683 0-3.35492378 2.70278627-6.07462687 6.03684211-6.07462687z" fill="#ed0006"/><path d="m13.8684211.5c3.3340558 0 6.0368421 2.71970309 6.0368421 6.07462687 0 3.35492377-2.7027863 6.07462683-6.0368421 6.07462683-1.4946421 0-2.8624187-.5465755-3.91669979-1.4519284 1.29929449-1.1141922 2.12196289-2.77177174 2.12196289-4.62269843 0-1.8509267-.8226684-3.50850626-2.12014235-4.62269847 1.05246055-.90535289 2.42023715-1.4519284 3.91487925-1.4519284z" fill="#f9a000"/></g></g></svg>