<svg height="40" viewBox="0 0 40 40" width="40" xmlns="http://www.w3.org/2000/svg"><g fill="none" fill-rule="evenodd" transform="translate(3.333333 3.333333)"><path d="m29.664666 5.2106666v18.6959998c0 1.0766666-.8716667 1.95-1.95 1.95h-25.42999938c-1.07666664 0-1.94999995-.8733334-1.94999995-1.95v-18.6959998c.60833332.35833333 1.31499997.56499999 2.07333328.56499999 1.02999998 0 1.97666662-.38499999 2.69999994-1.02333332.72166665-.63999999 1.2183333-1.53666665 1.3433333-2.5583333l.13833333-1.14166665c-.01833334.17166666-.03.34333332-.03.51166666 0 2.2933333 1.86333329 4.21166661 4.21999988 4.21166661 2.33 0 4.2199999-1.88833331 4.2199999-4.21833328 0 2.32999997 1.8883333 4.21833328 4.2183332 4.21833328 2.3583333 0 4.2233333-1.91833331 4.2233333-4.21333328 0-.16666667-.01-.335-.0316667-.50666666l.1383333 1.13833332c.125 1.02166665.62 1.91833331 1.3433333 2.5583333.7216667.63833333 1.6716667 1.02333332 2.7016666 1.02333332.755 0 1.465 2.31599998 2.0716667 1.95766665" fill="#d3e1eb" transform="translate(1.666667 7.476667)"/><path d="m31.3313325 14.2060003v1.9533333c-.6066666.36-1.3166666.5666667-2.0716666.5666667-1.03 0-1.9799999-.385-2.7016666-1.025-.7216666-.6383333-1.2183333-1.535-1.3433333-2.5566666l-.1383333-1.1383334c.0216666.17.0316666.3383334.0316666.505 0 2.295-1.8633332 4.215-4.2233332 4.215-2.3299999 0-4.2183332-1.89-4.2183332-4.22 0 2.33-1.89 4.22-4.2199999 4.22-2.3566666 0-4.21999991-1.92-4.21999991-4.2133333 0-.1683333.01166666-.34.02999999-.5116667l-.13833333 1.1433334c-.12499999 1.0216666-.61999998 1.9183333-1.34166663 2.5566666-.72499998.64-1.67166663 1.025-2.7016666 1.025-.75833332 0-1.46499996-.2066667-2.07333328-.5666667v-1.9533333c.60833332.36 1.31499996.565 2.07333328.565 1.02999997 0 1.97666662-.385 2.7016666-1.0233333.72166665-.64 1.21666664-1.535 1.34166663-2.5583333l.13833333-1.1416667c-.01833333.1716667-.02999999.3433334-.02999999.5116667 0 2.2933333 1.86333331 4.2116666 4.21999991 4.2116666 2.3299999 0 4.2199999-1.8883333 4.2199999-4.2183333 0 2.33 1.8883333 4.2183333 4.2183332 4.2183333 2.36 0 4.2233332-1.9183333 4.2233332-4.2133333 0-.1666666-.01-.335-.0316666-.505l.1383333 1.1366667c.125 1.0233333.6216667 1.9183333 1.3433333 2.5583333.7216667.6383333 1.6716666 1.0233333 2.7016666 1.0233333.755 0 1.465-.205 2.0716666-.565" fill="#fff"/><g fill="#7d98ba"><path d="m25.0764994 10.1776664c.0216667.1716666.0316667.3399999.0316667.5066666 0 2.2933333-1.8633334 4.2133332-4.2233334 4.2133332-2.3300001 0-4.2183334-1.8899999-4.2183334-4.2199999l-2.0100001-4.90666648 2.0100001-5.76999982h7.1700001l2.155 5.77833316-.9166667 4.38833324c.0016667.0033333.0016667.0066666.0016667.01"/><path d="m10.7251024 25.3089889h-1.23774695l-.31995358-1.1280581h-1.57152144l-.31287038 1.1280581h-1.23075015l1.67578278-5.3089889h1.25165424l1.60931298 4.895037v-3.4726061h.9908713v.5253557c.0475957-.1051915.1086667-.2477671.2715805-.38278.1763891-.1500526.4343214-.2326416.6855161-.2326416.1288797 0 .2579323.0226024.3868121.0674635.4004602.1503103.5157783.465369.5632876.600296.3122657-.5776936.8077446-.6601108 1.0724146-.6601108.3257411 0 .6107969.1200592.8009205.3075819.3393028.3301843.3528646.6901041.3528646 1.5904192v2.0709139h-.9976955v-1.8382723c0-.6228125-.0134753-.7502626-.115318-.9151829-.1086667-.1800458-.2647564-.2177738-.4141084-.2177738-.2714077 0-.4071115.1951714-.4275837.2251647-.1085804.1876087-.1085804.5102302-.1085804.825203v1.9208613h-.9976954v-1.9583315c0-.4201642 0-.607601-.1017563-.7802559-.0746328-.1274501-.2239848-.2326416-.4071979-.2326416-.088281 0-.1765619.0226024-.2580187.0677213-.2918799.1649203-.2986176.4501576-.2986176 1.1852946v1.7182131h-.9976954zm13.3838878.5634574v-.3170344h.2633223c.0945656 0 .3174826 0 .4188398-.0974515.0808966-.0674599.14864-.2326292.14864-.3901501 0-.0825846-.0406633-.2326291-.074277-.3302526l-1.0772143-3.3645356v3.8748502h-.9726505v-.4276182c-.1215598.1801221-.3510964.5102028-.9185761.5102028-.830802 0-1.4523561-.7503943-1.4523561-1.9657031 0-1.5304367.8646737-2.1007089 1.5267191-2.1007089.384968 0 .6889535.2175903.8644158.5927875v-.5027264h.9524478v.0074507h1.0772143l.6348792 2.6183021.5808909-2.6183021h1.0092731l-1.1106303 3.8562981c-.0730676.2431827-.1842553.6263178-.3486216.8590071 1.497531.2351282 2.2853601.4676663 2.2853601.4676663l-.0295733.1032093c-.7722546-.1803096-1.5663208-.3253899-2.3736396-.4397548-.1750267.1536891-.4245483.2252668-1.1411413.2252668-.1149402 0-.1619651-.0074764-.2633223-.0149528v-.3780174c-8.8596348-.8703373-18.69232353 1.5439902-18.69232353 1.5439902l.16015978-.5022967c8.41620425-1.8042719 14.78880305-1.6329007 18.53216375-1.2095265zm-4.4564693-4.4819969h1.0183834l-1.0183834 3.9185393h-.9301701l-.5906227-2.6476547-.5837971 2.6476547h-.9434756l-1.018297-3.9185393h1.018297l.5362778 2.4509608.5496695-2.4509608h.8825644l.5432761 2.4509608zm3.1793999 1.8658616c0-.5046112-.1258323-.7683518-.2585169-.9116141-.1051866-.1205647-.2589619-.1958205-.4126482-.1958205-.1888375 0-.3846162.1128838-.5104486.2862656-.174777.2485514-.2166914.5574283-.2166914.8587969 0 .2411294.0280319.4746641.1117718.6704847.1397149.3392554.3707338.4597337.5732758.4597337.0630941 0 .2658141-.0151029.4477103-.2184318.2166025-.2563186.2655472-.5952288.2655472-.9494145zm-14.37792384-2.1186705-.49495735 2.0224718h1.01694912z"/><path d="m9.49699988.00016667 1.86500002 6.34166647-3.10333334 3.82499986-.14 1.15c-.125 1.02-.61999999 1.9166666-1.34499998 2.5566666-.72166666.64-1.66999998 1.0233333-2.69999997 1.0233333-.75666665 0-1.46499998-.2066667-2.07166664-.565-1.19833331-.71-2.00166664-2.0149999-2.00166664-3.5083332v-.3033334l2.77499997-9.50166633c.175-.60333332.72833332-1.0183333 1.35666665-1.0183333z"/><path d="m31.3313329 14.3321662c-.6066667.3583333-1.3166667.565-2.0716667.565-1.0299999 0-1.9799999-.385-2.7016666-1.0233333-.7216666-.64-1.2183333-1.5366666-1.3433333-2.5583332l-.1383334-1.1383333c0-.0033334 0-.0066667-.0016666-.01l-1.2383333-10.1666664h5.3649999c.6283333 0 1.1816667.41333332 1.3566667 1.0183333l2.7749999 9.5016664v.3033333c0 1.4933333-.8033333 2.7983332-2.0016666 3.5083332"/><path d="m16.6666667.00016667v10.67666633c0 2.3316666-1.8900001 4.2199999-4.2200001 4.2199999-2.3566668 0-4.22000015-1.92-4.22000015-4.2116666 0-.1683333.01-.34.03-.5116666 0-.0016667.00166667-.0033333.00166667-.0066667l1.23833336-10.16666633z"/></g></g></svg>