<svg height="40" viewBox="0 0 40 40" width="40" xmlns="http://www.w3.org/2000/svg"><g fill="none" fill-rule="evenodd"><g transform="translate(1 2)"><path d="m30.8632001 4.84413316c0-1.86999993-1.52-3.38999987-3.3880001-3.38999987h-23.73c-1.868 0-3.39 1.51999994-3.39 3.38999987v12.87999944c0 1.87 1.522 3.3899999 3.39 3.3899999h2.71200001v-1.3539999h-2.71200001c-.062 0-.112-.032-.174-.036.06.002.114.016.174.016h23.73c1.4980001 0 2.7100001-1.192 2.7100001-2.6639999v-2.7399999h.678z" fill="#d3e1eb"/><path d="m33.5761999 14.3177334h-23.72800001c-1.87 0-3.39200001 1.5200001-3.39200001 3.3900001v14.236c0 1.8700001 1.52200001 3.3900001 3.39200001 3.3900001h23.72800001c1.87 0 3.388-1.52 3.388-3.3900001v-14.236c0-1.87-1.518-3.3900001-3.388-3.3900001" fill="#7d98ba"/></g><g transform="translate(0 6.666667)"><path d="m31.5254003 13.7182665c1.682 0 3.0500001 1.368 3.0500001 3.05 0 1.684-1.3680001 3.0520001-3.0500001 3.0520001h-.6780001c-1.682 0-3.05-1.3680001-3.05-3.0520001 0-1.682 1.368-3.05 3.05-3.05z" fill="#fff"/><g stroke="#fff" stroke-width=".678"><path d="m12.203 25.243867h4.068"/><path d="m18.304601 25.243867h3.39"/><path d="m23.728399 25.243867h4.068"/><path d="m29.830001 25.243867h4.068"/></g><g fill="#fff"><path d="m1.35600001 1.91666673h30.50800009v-1.35600006h-30.50800009z"/><path d="m1.35600001 4.90466672h30.50800009v-1.35600006h-30.50800009z"/><path d="m4.06599998 7.61666673h6.10400002v-1.35600006h-6.10400002z"/><path d="m11.5240002 7.61666673h6.102v-1.35600006h-6.102z"/></g></g><g fill="#7d98ba"><path d="m34.4058331 10.6066664v1.13h-1.13v1.1283333h1.13v1.13h1.1299999v-1.13h1.13v-1.1283333h-1.13v-1.13z"/><path d="m4.46283325 25.2961667v1.13h-1.13v1.1283334h1.13v1.13h1.12999999v-1.13h1.12833333v-1.1283334h-1.12833333v-1.13z"/></g></g></svg>