<svg height="20" viewBox="0 0 30 20" width="30" xmlns="http://www.w3.org/2000/svg"><g fill="none" fill-rule="nonzero"><rect fill="#224dba" height="20" rx="2.652632" width="29.090909"/><path d="m9.54566555 13.1322571h-1.73087475l-1.29794505-4.93672814c-.06160598-.2270895-.19241319-.42784977-.38482637-.52247039-.48018903-.23778574-1.00932529-.42702698-1.58656483-.5224704v-.19006402h2.7883033c.38482636 0 .67344613.28550744.72154943.617091l.67344614 3.56102655 1.73003078-4.17811755h1.6827714zm3.55795595 0h-1.634668l1.3460483-6.17173295h1.6346681zm3.4609056-4.46197945c.0481033-.33240637.3367231-.5224704.6734461-.5224704.5291363-.0477217 1.1055319.04772171 1.5865649.28468466l.2886197-1.32880265c-.4810329-.19006403-1.0101692-.28550744-1.4903583-.28550744-1.5865648 0-2.7410439.85487675-2.7410439 2.04133707 0 .90259847.817756 1.37652441 1.3949956 1.66203181.624499.2846847.8650154.4747487.8169122.7594333 0 .427027-.481033.617091-.961222.617091-.5772396 0-1.1544791-.1423423-1.6827715-.380128l-.2886197 1.3296255c.5772395.2369629 1.2017384.3324062 1.778978.3324062 1.778978.046899 2.8845099-.807155 2.8845099-2.0890587 0-1.61431009-2.260011-1.70893073-2.260011-2.42064235zm7.9809274 4.46197945-1.297945-6.17173295h-1.3941517c-.2886197 0-.5772395.19006402-.6734461.47474868l-2.403477 5.69698427h1.6827715l.3358792-.9017757h2.0675977l.1924132.9017757zm-2.4515802-4.50970116.4801891 2.32602166h-1.3460484z" fill="#fff"/></g></svg>