<svg height="113" viewBox="0 0 100 113" width="100" xmlns="http://www.w3.org/2000/svg" xmlns:xlink="http://www.w3.org/1999/xlink"><mask id="a" fill="#fff"><path d="m.00014807.44244553h89.87673853v89.22259807h-89.87673853z" fill="#fff" fill-rule="evenodd"/></mask><g fill="#90c353" fill-rule="evenodd" transform="translate(5.16129 11.622857)"><path d="m44.9378551 1.46991872c-24.2079334 0-43.90269906 19.55138778-43.90269906 43.58382258 0 24.0324347 19.69476566 43.5838225 43.90269906 43.5838225 24.2086738 0 43.9041798-19.5513878 43.9041798-43.5838225 0-24.0324348-19.695506-43.58382258-43.9041798-43.58382258m-.0000043 88.19512488c-24.7787402 0-44.93770273-20.0122088-44.93770273-44.611299 0-24.5990903 20.15896253-44.61129907 44.93770273-44.61129907 24.7802209 0 44.9391835 20.01220877 44.9391835 44.61129907 0 24.5990902-20.1589626 44.611299-44.9391835 44.611299" fill-opacity=".5" mask="url(#a)" transform="translate(0 .292514)"/><path d="m44.937853 9.00942547c-20.1826547 0-36.60211528 16.30066333-36.60211528 36.33639003 0 20.0364617 16.41946058 36.3363901 36.60211528 36.3363901 20.183395 0 36.6028555-16.2999284 36.6028555-36.3363901 0-20.0357267-16.4194605-36.33639003-36.6028555-36.33639003m.0000011 75.24219803c-21.6093078 0-39.19037648-17.4530796-39.19037648-38.905808 0-21.4527283 17.58106868-38.90580793 39.19037648-38.90580793 21.6100482 0 39.1918572 17.45307963 39.1918572 38.90580793 0 21.4527284-17.581809 38.905808-39.1918572 38.905808" fill-opacity=".7"/><path d="m44.9378534 13.6358482c17.6129036 0 31.9423592 14.2251382 31.9423592 31.7105561 0 17.4854178-14.3294556 31.710556-31.9423592 31.710556-17.6129035 0-31.9430995-14.2251382-31.9430995-31.710556 0-17.4854179 14.330196-31.7105561 31.9430995-31.7105561zm-.0000004 4.6258341c-15.0438922 0-27.2833424 12.149613-27.2833424 27.084722 0 14.934374 12.2394502 27.0847219 27.2833424 27.0847219 15.0438923 0 27.2833425-12.1503479 27.2833425-27.0847219 0-14.935109-12.2394502-27.084722-27.2833425-27.084722zm16.4435952 14.2308707c1.1704918.8150699 1.4518244 2.4180163.6307773 3.5792521l-17.069487 24.1309207c-.4390269.6210407-1.132734 1.0171838-1.8938127 1.0833301-.0755156.0066147-.1495505.0095545-.2243258.0095545-.6840825 0-1.3422528-.2689951-1.8308831-.7525984l-10.9749339-10.8957725c-1.0105764-1.0032195-1.0105764-2.6304196 0-3.6336391 1.0105764-1.0046895 2.6504495-1.0046895 3.6610259 0l8.7968271 8.7320522 15.2985721-21.6269142c.8217874-1.1619708 2.4364886-1.4427252 3.6062401-.6261854z"/></g></svg>