<svg height="172" viewBox="0 0 282 172" width="282" xmlns="http://www.w3.org/2000/svg" xmlns:xlink="http://www.w3.org/1999/xlink"><defs><path id="a" d="m.884892.884892h266v156h-266z"/><mask id="b" fill="#fff"><use fill="#fff" fill-rule="evenodd" xlink:href="#a"/></mask><mask id="c" fill="#fff"><path d="m0 441.693731h172.767109v-441.4977796h-172.767109z" fill="#fff" fill-rule="evenodd"/></mask><mask id="d" fill="#fff"><path d="m.30103927.70919419h14.32231663v19.50493931h-14.32231663z" fill="#fff" fill-rule="evenodd"/></mask><mask id="e" fill="#fff"><path d="m.00886114.17301948h10.44736396v20.04111402h-10.44736396z" fill="#fff" fill-rule="evenodd"/></mask><mask id="f" fill="#fff"><path d="m.50125314.27103425h11.75597766v19.94309925h-11.75597766z" fill="#fff" fill-rule="evenodd"/></mask><mask id="g" fill="#fff"><path d="m.36075218.29024967h5.51005434v18.30914293h-5.51005434z" fill="#fff" fill-rule="evenodd"/></mask></defs><g fill="none" fill-rule="evenodd"><rect height="171" rx="4" stroke="#ededed" width="281" x=".5" y=".5"/><g transform="translate(7.115108 7.115108)"><use fill="#f1f9fd" xlink:href="#a"/><g mask="url(#b)"><g transform="translate(45.271045 13.027749)"><path d="m59.5397481 116.126181s-10.231347 16.341865-16.4799143 26.582734c-6.4635925 10.592619-11.7565816 15.520315-16.4325767 14.509238-3.101016-.669768-13.3403864-2.694332-6.698676-19.33173 7.0380627-17.630004 10.4527908-23.975136 13.2713857-18.873172.4525157.818338-2.3018926 6.492898-2.3018926 6.492898s4.4722027 3.16574 6.3729289 2.809172c1.8999239-.35737 4.7161118-7.078342 4.7161118-7.078342l5.7928423-13.898094z" fill="#004aa3"/><path d="m83.7977968 4.15465154s-25.2542251 13.07333136-13.4655502 40.63662626c11.7870701 27.5624919 17.9586135 7.3682546 17.9586135 7.3682546s8.9524286-37.2805571-4.4930633-48.00488086" fill="#2a3756" mask="url(#c)"/><path d="m126.490644 19.1472626s3.655428 9.6642588 14.77255 16.2398739c9.80932 5.8014464 10.740026 14.1293809 12.187434 27.0822503 2.313928 20.7242698 23.334243 16.6446259 18.633375 45.2109672-2.881176 17.511952-21.227317 28.198531-45.147262 6.730609-23.920748-21.467118-60.2600026-22.4902413-58.5325802-37.4933727 2.4350798-21.1579328 40.8724342-46.521593 40.8724342-46.521593z" fill="#2a3756" mask="url(#c)"/><path d="m85.9799011 61.3882009s13.9236823-5.5027008 25.9153469.4786353c12.155341 6.0624473 1.535665 23.8088983 1.535665 23.8088983l-37.3373558-6.7338217s2.3139276-15.0890609 9.8863439-17.5537119" fill="#004aa3" mask="url(#c)"/><path d="m67.4213032 69.106839 23.4618137-4.5807656 14.4692681-.5211986 32.687036 13.2395688-14.838342 92.4240114-55.8118691-2.825233z" fill="#e9f3ff" mask="url(#c)"/><path d="m137.710785 83.5010755c-6.412243-2.3064444-11.263949-4.736563-13.923682-7.3401467" mask="url(#c)" stroke="#fff" stroke-linecap="round" stroke-linejoin="round" stroke-width="2.613"/><path d="m133.91535 107.063348c-5.508816-1.207832-19.854525-8.7230496-23.75306-12.2300979" mask="url(#c)" stroke="#fff" stroke-linecap="round" stroke-linejoin="round" stroke-width="2.613"/><path d="m87.9097521 45.8206652s.7357391 12.2389317 1.3447096 22.3770074c.1620712 2.7007564 1.767539 5.1043734 4.1970025 6.2865064 2.4310682 1.1845423 5.3098381.9644985 7.5331018-.5750049.726914-.5035308 1.436176-.9950155 2.107728-1.4599985 3.048062-2.110493 4.604588-5.7910064 3.999629-9.4506397-1.553316-9.3799687-4.382341-26.4662884-4.382341-26.4662884z" fill="#fcd5c8" mask="url(#c)"/><path d="m88.2905392 52.1598536s8.3129694.7725625 12.2315628-2.2004379c0 0-4.5933552 9.4723229-11.7525702 10.1685928z" fill="#efc2b9" mask="url(#c)"/><g fill="#004aa3"><path d="m77.4300831 97.546374c.9299036-13.9494911 8.5496576-36.1578519 8.5496576-36.1578519l-19.6675823 7.756945c-.0016046.0008031-17.9858928 3.5584453-23.4112668 50.1474969l2.8346416 18.678023 16.9260113-24.653738c-.9660086 18.975966-1.9761455 37.902141-2.3757072 42.262863-1.2107201 13.214673-6.7460136 37.359259-6.7460136 37.359259 11.912234 8.37371 23.8878524 7.631664 23.8878524 7.631664l2.8803745-45.431814s-4.1087459-39.132458-2.8779675-57.592847" mask="url(#c)"/><path d="m153.925128 157.091106-7.850024-71.4845167c-2.272206-10.0931032-17.535784-15.4576744-24.0074-17.3007418l-10.172777-6.4390916s-11.397938 35.9924175-11.844838 62.3101361c-.4477013 26.316916-4.1055363 78.09627-4.1055363 78.09627s32.7905363 3.980062 47.0183023-5.40071l-3.4741-35.042374c.823995 4.672317 7.356589.180693 13.237688-2.589128.818379-.385479 1.297372-1.249592 1.198685-2.149844" mask="url(#c)"/><path d="m153.923523 157.120097-7.850024-71.4845165c-1.824504-8.1038753-12.021351-13.1568516-19.320172-15.7885432 4.357469 3.2870045 11.920258 7.3072205 13.029082 12.2325071 11.761395 24.9388316-1.672864 29.5260216 4.454551 45.6879966 8.413261 22.191496 3.307215 26.810006.358643 35.435883 2.405393-.92595 5.337117-2.619645 8.129235-3.933483.818379-.386281 1.297372-1.249592 1.198685-2.149844" mask="url(#c)"/></g><path d="m112.298661 18.5207c.110722-5.1164196-3.94507-9.35346708-9.056732-9.46348897-5.4566645-.11805269-12.3382723-.26581932-17.7933326-.38387201-5.1116618-.10921881-8.5560762 4.02664068-9.4554912 9.06435848-1.0606839 5.9468037-.4059804 18.3471544 1.1625801 27.2854294.8841707 5.0409301 4.5716919 7.1458015 9.8638786 9.8642256 4.8557177 2.494365 23.9624691 4.7437907 26.5090731-15.8182571.925892-7.4750641-1.391245-13.0179189-1.229976-20.5483954" fill="#fcd5c8" mask="url(#c)"/><path d="m134.750659 159.942681-6.393789-36.140988c-.430051-2.431724-2.156671-2.308853-2.239311.15901l-2.21845 78.541979c7.460892-.918723 14.260662-2.411648 19.063426-5.63039l-2.189566-24.019305z" fill="#004aa3" mask="url(#c)"/><path d="m111.895088 61.8665953s-10.449582 34.077876-11.010412 45.1788437c-.559226 11.099362-.9812531 23.25638-.9812531 23.25638l14.6826891-30.7989024-2.372498-7.7344588 14.539874-21.9208583z" fill="#9fc6ff" mask="url(#c)"/><path d="m85.9799011 61.3882009s-7.2659252 24.9396342-7.9077914 30.5483415c-.6418661 5.6095103-.2070018 33.0732236-.2070018 33.0732236l-14.0544625-30.6599697 8.446959-9.918032-2.8651302-16.1443074s13.7038431-7.1971985 16.5874269-6.899256" fill="#9fc6ff" mask="url(#c)"/><g fill="#01020d"><path d="m85.618691 32.2741594c.7967164 0 1.4482105.6521005 1.4482105 1.4495585l-.0008023 1.8872368c0 .7966549-.6514942 1.4495585-1.4466059 1.4487562-.7967164.0008023-1.4482106-.6521013-1.4482106-1.4479531l.0008023-1.8896461c-.0008023-.7958518.6522965-1.4471493 1.446606-1.4479523" mask="url(#c)"/><path d="m99.1925561 32.2255731c.7959141-.0281078 1.4698739.6007034 1.4955479 1.3965552l.067396 1.88804c.028082.7958517-.600145 1.4704385-1.3960587 1.4985463-.7943094.0273047-1.4682689-.6007035-1.4963505-1.3973583l-.0657913-1.88804c-.0280817-.7958518.6001449-1.4704385 1.3952566-1.4977432" mask="url(#c)"/><path d="m88.7214721 46.7649261c.0489423 2.2478195 1.9079472 4.0322622 4.1536765 3.9848805 2.2465317-.0489879 4.0277104-1.90892 3.9803727-4.1575426h-.007221c-.0080233-.3862813-.3297587-.69627-.7164831-.6882392l-6.715525.1437512c-.385922.0080308-.6956224.3308688-.6867968.7171501z" mask="url(#c)"/></g><path d="m90.3042339 49.9019152c.7092621.5493064 1.6046654.8673259 2.570674.848052.7894955-.0168647 1.5212229-.2577885 2.1366121-.6609344-.3297587-.8295812-1.256453-1.4343-2.3564512-1.4519678-1.0510559-.0168647-1.9592966.5067432-2.3508349 1.2648502" fill="#c54e47" mask="url(#c)"/><path d="m132.296644 37.9733737s-4.060606-21.4165244-11.876931-27.5086855c-11.286415-8.7961299-23.6503622-15.73955535-39.7194822-4.22901673 0 0-4.6270528 30.06569073 42.0197702 32.84193663z" fill="#2a3756" mask="url(#c)"/><path d="m65.55259 80.0903968c-1.0687072 3.9607881-6.5245697 5.9315453-12.1858295 4.4000726-5.6604574-1.5298664-9.3832813-5.9821392-8.3145741-9.9421243 1.0687072-3.9615912 2.8049552-7.5858891 12.1858295-4.4016788 8.5055293 2.8878739 9.3832813 5.9821393 8.3145741 9.9437305" fill="#fcd5c8" mask="url(#c)"/><path d="m99.5560931 75.5839964c1.1112309 0 2.0122509.9018583 2.0122509 2.0141234v49.1324042c0 1.112265-.90102 2.013321-2.0122509 2.013321h-97.54360191c-1.11203316 0-2.01225049-.901056-2.01225049-2.013321v-49.1324042c0-1.1122651.90021733-2.0141234 2.01225049-2.0141234" fill="#b8cbdf" mask="url(#c)"/><g fill="#004aa3"><path d="m6.04557713 119.564084h89.47694857v-1.095401h-89.47694857z" mask="url(#c)"/><path d="m6.04557713 122.647106h89.47694857v-1.095401h-89.47694857z" mask="url(#c)"/><path d="m40.9285973 85.7656794h54.5939284v-1.0962035h-54.5939284z" mask="url(#c)"/><path d="m40.9285973 89.5425623h4.6366809v-1.0962035h-4.6366809z" mask="url(#c)"/><path d="m49.0385766 89.5425623h46.4839491v-1.0962035h-46.4839491z" mask="url(#c)"/><path d="m40.9285973 93.3186422h10.5402451v-1.0962035h-10.5402451z" mask="url(#c)"/><path d="m55.2325853 93.3186422h40.2899404v-1.0962035h-40.2899404z" mask="url(#c)"/><path d="m40.9285973 100.870802h54.5939284v-1.0954005h-54.5939284z" mask="url(#c)"/><path d="m40.9285973 104.646882h12.1826202v-1.095401h-12.1826202z" mask="url(#c)"/><path d="m40.9285973 108.422962h7.3228909v-1.095401h-7.3228909z" mask="url(#c)"/><path d="m40.9285973 112.199041h11.3265312v-1.0954h-11.3265312z" mask="url(#c)"/><path d="m53.9937835 112.199041h11.3265312v-1.0954h-11.3265312z" mask="url(#c)"/><path d="m40.9285973 115.975924h11.3265312v-1.0954h-11.3265312z" mask="url(#c)"/><path d="m81.4182384 110.997153c-.1396059.368613-1.1834408.805488-1.4177219.937193-.446097.250561-.8929964.501122-1.3398957.752486-.7694371.432057-1.5396765.864917-2.3099159 1.297776 1.4514199-1.340339 3.1764353-2.362659 5.0675335-2.987455m-1.1385101 4.718895c-.9948926.297139-1.9897852.595082-2.9854801.893024.1901528-.468998.422027-.912298.7020411-1.335521.036105-.053806.0016047-.137327-.0609773-.150979-1.0534629-.24253-2.0563788.780593-3.0641087.456952.2864328-.361385.5889122-.709119.9074383-1.039185.4300504-.240923.8592984-.481847 1.2893487-.723574.9828576-.551716 1.9649129-1.103431 2.9469682-1.655147.4452946-.248955.9684156-.465786 1.3703843-.77979.1989785-.154995.3040841-.309989.2447114-.55814-.0128373-.052201-.0746169-.088339-.1267685-.072278-2.225671.70912-4.2363169 1.957908-5.8514126 3.625101-1.5573279.874554-3.1138534 1.749107-4.6711812 2.622858-.1147336.065049-.0112327.241727.1043032.176677 1.371989-.770153 2.7447803-1.541109 4.1175716-2.312065-.1973738.224862-.3899337.453739-.5736679.691451-.0353026.044972-.0473376.132508.0200583.161419 1.0703119.460165 2.0250879-.557337 3.0905857-.419208-.2896421.457756-.5295396.935588-.7188901 1.443937-.0280816.073884.055361.147767.1259662.126887.978846-.293927 1.9568896-.586248 2.9349332-.878569-.0248723.040957-.0497447.081914-.074617.123674-.0690006.113234.1091173.216832.1773156.103598l.2118158-.350946c.045733-.07549-.0304886-.175875-.1163382-.150176" mask="url(#c)"/><path d="m85.9368159 116.394409c-.8865777.160616-1.77476.216832-2.6725704.178284.108315-.176678.1941646-.35978.2639675-.558944.026477-.075489-.0545586-.144554-.1259662-.126083-.5528073.145357-1.1064169.280275-1.6632358.407161.0304887-.109219.060175-.218437.089059-.327656.0104303-.040154-.0064187-.098779-.0473377-.116447-.1676875-.072277-.1492339-.07308-.3321657-.069065-.1315826.003213-.1323849.208801 0 .205589.2439091-.004819.0746169.323641.0473376.42001-.021663.077899.0513493.142949.1259662.126084.549598-.122871 1.0951842-.256986 1.6399682-.398328-.0738147.171056-.1612689.324445-.2719908.482651-.0465353.068262.0176513.150176.0890589.154995.9788459.056215 1.9480639-.004819 2.9116655-.180693.1299779-.02329.0754192-.220847-.0537563-.197558" mask="url(#c)"/><path d="m89.6303546 115.087076c-.0593726-.009637-.1187452-.017668-.1789202-.027305-.0561633-.199966-.1123266-.39913-.1684899-.599097.081838-.410374.8617054-.807898 1.1954758-.990197.458132-.248955.9611946-.428041 1.4754899-.517986.2021879-.036139.5985402-.143752.8079491-.07549.1484315-.027305.2126181.068262.1933622.285897.1684898.168646.1725015.287502.0128373.356567-.0641866.075489-.1845366.114037-.2711885.158206-.4573296.235303-.9395316.432057-1.4072916.647283zm7.5202647 1.012683c-.4830043.199164-.9900786.304367-1.5148042.272244-.2495255-.016061-.4669576-.074686-.7148785-.060231-.2928514.017668-.5840982.025699-.8761473.017668-.5752726-.016062-1.1489405-.085929-1.7105734-.210407-.1163382-.025698-.2856304-.038548-.3867244-.105203-.1436175-.014456-.1684898-.101991-.0778262-.260198-.036105-.130099-.004814-.223256.0954776-.279472.1428152-.191936.4380736-.360582.6226102-.512364.0810356-.066656-.0064187-.198361-.0994893-.171859-.5423769.1566-1.0919748.265819-1.6552124.308382-.2527348.018471-.5078766.024093-.7614138.017668-.0040117 0-.0088256 0-.0136396-.000803.2952584-.135721.5913192-.271441.88738-.407162.388329-.178283.7774604-.35737 1.1673941-.536457.3185261-.14616.6908085-.264213.9756366-.476226.2655721-.19836.4669576-.602309.1893505-.882584-.3409914-.342915-1.2115224-.105204-1.6255261-.008031-.6627268.155797-1.2965697.446512-1.844563.849658-.342596.250561-.8970079.674587-.8135653 1.174102.0361049.21121.1660828.330869.332968.398328-.3337704.152585-.6667385.305973-1.0005089.459361-.1195476.05461-.0160466.23209.1043033.177481.407585-.187921.81517-.375038 1.2227551-.561353.1452222.015259.2928514.016062.4180153.019274.6579129.016865 1.3102094-.055412 1.9488662-.199967-.3056888.228878-.6185985.522002-.4942369.816732.1708968.403146.9908809.435269 1.3278606.48747.8071468.12528 1.6006538.04176 2.4061959.107612.6980295.056216 1.2861394.036139 1.9448545-.235302.1211523-.050594.067396-.248955-.0545586-.198361z" mask="url(#c)"/></g><path d="m6.33842858 116.476243h29.68310172v-34.8673032h-29.68310172z" fill="#e9f3ff" mask="url(#c)"/><g transform="translate(7.837863 83.469681)"><path d="m10.0141261 1.36841214s-5.11950374 2.67724035-2.73018911 8.32318177c2.38931462 5.64513409 3.64105041 1.50897529 3.64105041 1.50897529s1.814538-7.63530212-.9108613-9.83215706" fill="#2a3756"/><path d="m18.6683466 4.43859968s.7408232 1.97967229 2.9944267 3.32636617c1.9885676 1.18844927 2.1777649 2.89442295 2.4707413 5.54744225.4694009 4.2451537 4.7299329 3.4095253 3.7767616 9.2605388-.583558 3.5863395-4.3028419 5.7751207-9.1517216 1.3781813-4.8488797-4.3969393-12.21480222-4.6060483-11.86514642-7.6797075.49334996-4.3331571 8.28556512-9.52858582 8.28556512-9.52858582z" fill="#2a3756"/><path d="m10.4561453 13.0910271s2.8219937-1.1270891 5.2536183.0976918c2.4635566 1.2417357.3113373 4.8765174.3113373 4.8765174l-7.56948918-1.3789887s.46940094-3.090614 2.00453358-3.5952205" fill="#004aa3"/><path d="m.30742568 1.75393152 4.75627682-.93816444 2.93295754-.10657289 6.62669586 2.7111499-3.0079978 18.93122181-11.31431883-.5788846z" fill="#e9f3ff" mask="url(#d)" transform="translate(6.386407 12.917927)"/><path d="m20.9423866 17.6198908c-1.2996339-.4723117-2.2831406-.9696519-2.8219938-1.5025164" stroke="#fff" stroke-linecap="round" stroke-linejoin="round" stroke-width="2.613"/><path d="m20.1737026 22.4459475c-1.116823-.2470553-4.0250332-1.7867107-4.8153511-2.5052704" stroke="#fff" stroke-linecap="round" stroke-linejoin="round" stroke-width="2.613"/><path d="m10.8474724 9.9025598s.1492823 2.5060778.2730189 4.5834419c.0327304.5522414.3576388 1.0455447.8501905 1.2869485.4925517.2430185 1.0769079.1978058 1.5271496-.1170687.1476857-.1033434.2913799-.2042647.427091-.2995344.6178849-.4319432.9332138-1.1860272.8110737-1.9360743-.3145305-1.9207343-.8885089-5.41987773-.8885089-5.41987773z" fill="#fcd5c8"/><path d="m10.9246681 11.200327s1.6844149.1582446 2.4787243-.4505127c0 0-.9308188 1.9409185-2.3821299 2.0822084z" fill="#efc2b9"/><g fill="#004aa3"><path d="m8.72311386 7.57902844c.18839902-2.85728395 1.73311124-7.40600896 1.73311124-7.40600896l-3.9867147 1.58890501c-.0007983 0-5.36059061 9.70943681-6.46064926 19.25255531h3.54046453l2.18015978-10.2051623c-.19558372 3.8866813-.40074705 7.7628667-.48217374 8.6566258-.24507838 2.7063057-1.36669116 7.6522569-1.36669116 7.6522569 2.41406195 1.7148548 4.84169501 1.5630692 4.84169501 1.5630692l.58355797-9.3057516s-.83182955-8.0147663-.58275967-11.79648936" mask="url(#e)" transform="translate(0 12.917927)"/><path d="m12.2546374 19.7754891-1.5910137-14.64247012c-.4606196-2.0668683-3.55403563-3.16569945-4.86644233-3.54274144l-2.06201125-1.31924329s-2.31028283 7.3720994-2.40128913 12.76210435c-.0910063 5.3908124-.83262785 15.9964304-.83262785 15.9964304s6.64745167.8154441 9.53171286-1.1060975l-.70410141-7.1775231c.16684489.9575413 1.49122611.037139 2.68308931-.5304424.1660466-.0791223.262641-.2551291.2426835-.4400169" mask="url(#f)" transform="translate(11.974514 12.917927)"/><path d="m5.86823015 18.1662384-1.59101371-14.64166279c-.37041162-1.65914623-2.43721267-2.69500249-3.91646426-3.23432594.88292081.67334694 2.41645685 1.49686478 2.64077941 2.50607781 2.38452481 5.10823272-.33927789 6.04720453.90287833 9.35823062 1.70596904 4.5454956.67057276 5.4909263.07344368 7.2582602.48696355-.189732 1.08089943-.5369013 1.64689478-.8057557.16604658-.0791223.2634393-.2559364.24348177-.4408242" mask="url(#g)" transform="translate(18.360921 14.532668)"/></g><path d="m15.7916693 4.31087367c.0215541-1.04877418-.7998975-1.91589003-1.8360921-1.9384964-1.1064451-.02422111-2.5018751-.05490119-3.6067235-.07831493-1.03619461-.02260637-1.73470791.82432521-1.91751882 1.85614462-.21474294 1.21832198-.08142669 3.75750198.23629707 5.58942549.17961771 1.03181945.92602906 1.46295525 1.99894545 2.02004085.984305.5102581 4.8576611.9712666 5.3741617-3.23997757.1876008-1.53158171-.2818002-2.66674453-.2490698-4.20882206" fill="#fcd5c8"/><path d="m15.7097636 13.1887997s-2.1186906 6.9805247-2.2320494 9.2540798c-.1133587 2.2727478-.1995752 4.7626782-.1995752 4.7626782l2.9768641-6.3079852-.4805771-1.5840608 2.9465286-4.4905943z" fill="#9fc6ff"/><path d="m10.4561453 13.0910271s-1.47286517 5.1082327-1.60298822 6.2571208c-.13012305 1.1488882-.04230995 6.7738379-.04230995 6.7738379l-2.84833764-6.2797272 1.71235545-2.031344-.58116306-3.3069892s2.77808716-1.4734511 3.36244342-1.4128983" fill="#9fc6ff"/><g fill="#01020d"><path d="m10.3828613 7.12803132c.1612568 0 .2937747.13321612.2937747.29630494l-.0007983.38753781c.0007983.16228146-.1317196.29630495-.2929764.29630495s-.2929764-.13402349-.2929764-.29630495v-.38753781c0-.16308882.1325179-.29630494.2929764-.29630494"/><path d="m13.1347642 7.11777771c.1612568-.00565159.2977662.12272031.3033543.28580913l.0127728.38673044c.0063864.16308883-.1213417.30114917-.2825985.30760813-.1612568.0056516-.2977662-.12352767-.3033543-.2866165l-.0127728-.38673043c-.0055882-.16308883.1213417-.30114917.2825985-.30680077"/><path d="m11.0120022 10.0957635c.0103779.4602012.3863777.8251326.8422075.8162515.4550315-.0096884.8166618-.3915746.8062839-.8517758h-.0015966c-.0007983-.07912226-.0670573-.14290452-.1444925-.14128978l-1.361103.02987271c-.0790318.00161474-.1412993.06701177-.1397027.14694137z"/></g><path d="m11.3331587 10.7383497c.1436941.1130318.3249085.1776215.5204922.1735846.1604585-.0032295.3089424-.0532864.4334774-.1348308-.0670573-.1703552-.254658-.2938829-.477384-.2979197-.2131463-.0032295-.3975538.1041507-.4765856.2591659" fill="#c54e47"/><path d="m19.8455211 8.2949238s-.8230482-4.38644355-2.4084738-5.63463823c-2.2879304-1.80124343-4.793797-3.22383013-8.051663-.86630847 0 0-.93720527 6.15862164 8.518669 6.72701042z" fill="#2a3756"/></g></g></g></g></g></svg>