<svg height="172" viewBox="0 0 282 172" width="282" xmlns="http://www.w3.org/2000/svg" xmlns:xlink="http://www.w3.org/1999/xlink"><defs><path id="a" d="m8 8h266v156h-266z"/><mask id="b" fill="#fff"><use fill="#fff" fill-rule="evenodd" xlink:href="#a"/></mask><mask id="c" fill="#fff"><path d="m0 .21230149h190.384288v99.78649251h-190.384288z" fill="#fff" fill-rule="evenodd"/></mask><mask id="d" fill="#fff"><path d="m0 100h190.38489v-99.788h-190.38489z" fill="#fff" fill-rule="evenodd"/></mask><mask id="e" fill="#fff"><path d="m.56595.85423902h26.9115v36.53176098h-26.9115z" fill="#fff" fill-rule="evenodd"/></mask><mask id="f" fill="#fff"><path d="m.01695.36218537h19.6305v37.53600973h-19.6305z" fill="#fff" fill-rule="evenodd"/></mask><mask id="g" fill="#fff"><path d="m.94215.03357073h22.0893419v37.35242927h-22.0893419z" fill="#fff" fill-rule="evenodd"/></mask><mask id="h" fill="#fff"><path d="m.67815.06956098h10.353341v34.29204882h-10.353341z" fill="#fff" fill-rule="evenodd"/></mask></defs><g fill="none" fill-rule="evenodd"><rect height="171" rx="4" stroke="#ededed" width="281" x=".5" y=".5"/><use fill="#f1f9fd" xlink:href="#a"/><g mask="url(#b)"><g transform="translate(46 36)"><path d="m186.612414.21230149c2.084457 0 3.771874 1.6928806 3.771874 3.78071642v92.22656719c0 2.0878358-1.687417 3.7792089-3.771874 3.7792089h-182.84114156c-2.08295275 0-3.77187401-1.6913731-3.77187401-3.7792089v-92.22656719c0-2.08783582 1.68892126-3.78071642 3.77187401-3.78071642" fill="#b8cbdf" mask="url(#c)"/><g fill="#004aa3"><path d="m11.3321654 82.7697015h167.7205586v-2.0576866h-167.7205586z" mask="url(#d)"/><path d="m11.3321654 88.5553433h167.7205586v-2.0561791h-167.7205586z" mask="url(#d)"/><path d="m76.7173307 19.3251194h102.3353933v-2.0576866h-102.3353933z" mask="url(#d)"/><path d="m76.7188346 26.413209h8.691252v-2.0576866h-8.691252z" mask="url(#d)"/><path d="m91.919126 26.413209h87.133598v-2.0576866h-87.133598z" mask="url(#d)"/><path d="m76.7173307 33.5012985h19.7572205v-2.0576866h-19.7572205z" mask="url(#d)"/><path d="m103.531024 33.5012985h75.5217v-2.0576866h-75.5217z" mask="url(#d)"/><path d="m76.7173307 47.6789851h102.3353933v-2.0561791h-102.3353933z" mask="url(#d)"/><path d="m76.7173307 54.7670746h22.8372835v-2.0561791h-22.8372835z" mask="url(#d)"/><path d="m76.7173307 61.8551642h13.727937v-2.0561791h-13.727937z" mask="url(#d)"/><path d="m76.7173307 68.9447612h21.2325827v-2.0576866h-21.2325827z" mask="url(#d)"/><path d="m101.210449 68.9447612h21.231079v-2.0576866h-21.231079z" mask="url(#d)"/><path d="m76.7173307 76.0328507h21.2325827v-2.0576865h-21.2325827z" mask="url(#d)"/><path d="m152.615166 66.6864313c-.261685.6919254-2.219811 1.5119851-2.657457 1.759209-.836189.4703284-1.673881.9406567-2.511574 1.4124925-1.442276.811015-2.886055 1.6235373-4.329835 2.4360597 2.720622-2.5159552 5.954087-4.4349552 9.498866-5.6077612m-2.134086 8.8578508c-1.864882.5577612-3.729764 1.1170298-5.597654 1.6762985.357937-.8803582.792575-1.7124776 1.317449-2.5069105.067677-.101.001504-.2577761-.114299-.2834029-1.97467-.4552538-3.854591 1.4652537-5.743536.8577462.536906-.6783582 1.102386-1.3310895 1.700953-1.9491492.80611-.4537463 1.610716-.9059851 2.416827-1.3597314 1.842323-1.0356268 3.681637-2.0712537 5.52396-3.1068806.833181-.4673134 1.813748-.8743283 2.567221-1.4637462.372976-.2909403.569992-.5818806.460205-1.0476866-.024063-.0979851-.139867-.1658209-.237623-.1356716-4.171921 1.3310895-7.940787 3.675194-10.969716 6.8046865-2.917638 1.6416269-5.835276 3.2832538-8.754417 4.9233732-.215063.1221044-.021056.4537462.194007.3316418 2.573237-1.4456568 5.146473-2.8928209 7.719709-4.3399851-.369968.4220895-.730913.8517164-1.075315 1.2979254-.066173.0844179-.088732.2487313.037599.303 2.006252.8637761 3.795937-1.0461792 5.793165-.7853881-.544425.8577463-.992598 1.7546866-1.347528 2.7089104-.054141.1386866.103772.2773732.236119.2381791 1.834803-.5517313 3.666598-1.1004477 5.501401-1.6491641-.046622.0768806-.094748.1537612-.139866.2321492-.129339.2125523.203031.4070149.33237.1944627.132346-.2200895.264693-.4386716.397039-.6587612.085725-.1417015-.057149-.3301343-.21807-.2818955" mask="url(#d)"/><path d="m161.085039 76.8176358c-1.661851.3014926-3.326709.4070149-5.009615.3346567.203032-.3316418.363953-.6753432.494796-1.049194.04963-.1417015-.102268-.2713433-.237622-.2366716-1.034709.2728507-2.073929.5261044-3.116158.7642835.055646-.2050149.112795-.4100298.166937-.6150447.019551-.0753732-.012031-.1854179-.090236-.2185821-.312819-.1356717-.279732-.1371791-.621126-.1296418-.24815.0060298-.24815.3919403 0 .3859104.457197-.0090447.138362.6075075.088732.788403-.040606.1462239.096252.2683284.236118.2366717 1.030197-.2306418 2.052874-.4823881 3.074048-.7477015-.138363.3210895-.302292.6090149-.509835.905985-.088732.1281344.033087.283403.165433.2909403 1.836307.1055224 3.651559-.0090447 5.459291-.3391791.243638-.0437164.14137-.4145522-.100763-.3708358" mask="url(#d)"/><path d="m168.007059 74.3636373c-.109787-.0165821-.221079-.0331642-.333874-.0512537-.105276-.3753582-.210551-.749209-.317331-1.1245672.153402-.7703134 1.616733-1.5165074 2.24237-1.8587015.858748-.4673134 1.801717-.8034776 2.764237-.9723134.380496-.0678358 1.123441-.2698358 1.515968-.1417015.278228-.0512537.398543.1281343.360945.5381642.315827.3150597.32485.5381642.025567.6678059-.120315.1417015-.345906.2140598-.508331.2969702-.858748.4416866-1.76111.8110149-2.637905 1.2150149-1.036213.4763582-2.073929.9542239-3.111646 1.4305821m14.097906 1.9009105c-.905371.3738507-1.855859.5713283-2.839434.5110298-.467724-.0301492-.875291-.140194-1.340007-.1130597-.548937.0331642-1.094867.0482388-1.6423.0331642-1.079826-.0301493-2.153637-.1612985-3.206393-.3949552-.218071-.0482388-.535402-.0723582-.726402-.1974776-.267701-.0271344-.315827-.1914478-.144378-.488418-.069181-.2442089-.009023-.4190746.178969-.524597.2677-.3602836.821149-.6768507 1.167055-.9617612.151897-.1251194-.012032-.3723432-.186488-.322597-1.016662.2939552-2.046859.4989702-3.102622.5788657-.473741.0346716-.951993.0452239-1.427237.0331642-.009023 0-.016543 0-.025567-.0015075l1.661851-.7642836c.729409-.3346567 1.458819-.6708209 2.188228-1.006985.598567-.2743583 1.296394-.4959553 1.830291-.8939254.497804-.3723433.873788-1.130597.353426-1.6567015-.63767-.6436866-2.269441-.1974776-3.045473-.0150746-1.242252.2924477-2.430362.8381492-3.457551 1.5948955-.642181.4703283-1.681402 1.2662686-1.524992 2.2039104.067677.3979702.309811.6210747.62263.7477015-.624134.2864179-1.248268.5743433-1.873906.8622687-.224086.1025074-.030078.4356567.194008.3331492.765504-.3527462 1.528-.703985 2.292-1.0537164.272213.0286418.548937.0301493.785055.0361791 1.233229.0316567 2.455929-.1040149 3.653063-.3753582-.573.4296269-1.159535.9813582-.926425 1.5330896.320339.7567462 1.855858.8170447 2.489016.9150298 1.512961.2351642 3.000354.0783881 4.510307.202 1.306921.1055224 2.409307.0678358 3.645543-.4416866.225591-.0949701.126331-.4673134-.102267-.3723432" mask="url(#d)"/></g><path d="m11.8811024 76.9704925h55.6396535v-65.4495074h-55.6396535z" fill="#e9f3ff" mask="url(#d)"/><g transform="translate(14 16)"><path d="m18.81675 2.08894634s-9.6195 5.01443903-5.13 15.58921956c4.4895 10.5732682 6.8415 2.8262926 6.8415 2.8262926s3.4095-14.30082923-1.7115-18.41551216" fill="#2a3756"/><path d="m35.07795 7.83937073s1.392 3.70790247 5.6265 6.23024387c3.735 2.2259513 4.092 5.4212195 4.6425 10.3902927.882 7.951122 8.8875 6.386 7.0965 17.3448781-1.0965 6.7171707-8.085 10.8167317-17.196 2.581317-9.111-8.2354146-22.9515-8.6270731-22.2945-14.384.927-8.1159512 15.5685-17.8469268 15.5685-17.8469268z" fill="#2a3756"/><path d="m19.6473 24.0452634s5.3025-2.1110244 9.87.1829756c4.6305 2.3257561.5865 9.1336586.5865 9.1336586l-14.223-2.5828293s.882-5.7886829 3.7665-6.7338049" fill="#004aa3"/><path d="m.57795 2.81101951 8.937-1.75717073 5.511-.19960976 12.4515 5.07795122-5.6535 35.45795126-21.258-1.0842439z" fill="#e9f3ff" mask="url(#e)" transform="translate(12 24.195122)"/><path d="m39.35085 32.5277707c-2.442-.8846341-4.29-1.8161463-5.3025-2.8141951" stroke="#fff" stroke-linecap="round" stroke-linejoin="round" stroke-width="2.613"/><path d="m37.90515 41.5669171c-2.097-.4627317-7.5615-3.3464878-9.0465-4.6923415" stroke="#fff" stroke-linecap="round" stroke-linejoin="round" stroke-width="2.613"/><path d="m20.3826 18.0733024s.2805 4.6938537.5115 8.5847317c.0615 1.0343415.6735 1.9582927 1.599 2.4104391.9255.4551707 2.022.3704878 2.868-.2192683.2775-.193561.549-.3825854.8025-.5610244 1.1625-.8090244 1.755-2.2214146 1.5255-3.6262439-.5925-3.5975122-1.6695-10.1513659-1.6695-10.1513659z" fill="#fcd5c8"/><path d="m20.52765 20.5040049s3.165.2963902 4.6575-.8438049c0 0-1.749 3.6353171-4.476 3.8999512z" fill="#efc2b9"/><g fill="#004aa3"><path d="m16.39095 14.2335512c.3525-5.35165852 3.2565-13.87136583 3.2565-13.87136583l-7.491 2.976c-.0015 0-10.0725 18.18565853-12.1395 36.05980483h6.6525l4.0965-19.1141463c-.369 7.2797073-.753 14.5397561-.906 16.2137561-.4605 5.068878-2.568 14.3325854-2.568 14.3325854 4.536 3.2119024 9.0975 2.9276097 9.0975 2.9276097l1.0965-17.429561s-1.563-15.0115609-1.095-22.0946829" mask="url(#f)" transform="translate(0 23.682927)"/><path d="m23.02665 36.5651805-2.9895-27.42365855c-.8655-3.87273171-6.6795-5.93082927-9.144-6.63702439l-3.876-2.47092683s-4.3395 13.80936587-4.512 23.90326827c-.1695 10.0969269-1.563 29.961122-1.563 29.961122s12.4905 1.527317 17.91-2.0717073l-1.3245-13.4434147c.315 1.7934634 2.802.069561 5.043-.9935122.3105-.1481951.4935-.4778536.456-.8241463" mask="url(#g)" transform="translate(22.5 24.195122)"/><path d="m11.02665 33.5510732-2.9895-27.42365857c-.696-3.10756097-4.5795-5.04770731-7.359-6.05785365 1.659 1.26117073 4.5405 2.80512195 4.962 4.69385365 4.4805 9.56765857-.6375 11.32785367 1.6965 17.52785367 3.2055 8.5136585 1.26 10.284439.1365 13.5946341.9165-.3553658 2.0325-1.0056097 3.096-1.5091707.312-.1481951.495-.4793658.4575-.8256585" mask="url(#h)" transform="translate(34.5 27.219512)"/></g><path d="m29.6712 7.60014146c.042-1.96434146-1.5015-3.58843902-3.45-3.63078048-2.0775-.04536586-4.6995-.10282927-6.7755-.14668293-1.9485-.04234146-3.2595 1.54395122-3.603 3.47653658-.4035 2.28190244-.153 7.03775607.4425 10.46892687.3375 1.9325853 1.7415 2.7400975 3.7575 3.7835122 1.8495.9557073 9.1275 1.8191707 10.0965-6.0684391.354-2.8686341-.5295-4.9947805-.468-7.88307314" fill="#fcd5c8"/><path d="m29.51745 24.2283902s-3.9795 13.0744391-4.1925 17.3327805c-.2145 4.2568293-.375 8.9204391-.375 8.9204391l5.5935-11.8147805-.9045-2.9669269 5.538-8.4108292z" fill="#9fc6ff"/><path d="m19.6473 24.0452634s-2.7675 9.5676586-3.012 11.7195122c-.2445 2.1518537-.0795 12.6888293-.0795 12.6888293l-5.3535-11.7633659 3.219-3.8046829-1.092-6.1939512s5.22-2.7597561 6.318-2.6463415" fill="#9fc6ff"/><g fill="#01020d"><path d="m19.5096 12.8766439c.303 0 .5505.2495122.552.5549756l-.0015.7258537c0 .3054634-.2475.5549756-.5505.5549756s-.5505-.2510244-.5505-.5549756v-.7258537c0-.3054634.2475-.5549756.5505-.5549756"/><path d="m24.67905 12.857439c.3045-.0105853.561.2298537.57.5353171l.0255.7243415c.0105.3054634-.228.5640487-.531.5761463-.303.0105854-.5595-.2313659-.57-.5368293l-.0255-.7243414c-.0105-.3054634.2295-.5640488.531-.5746342"/><path d="m20.69175 18.4350195c.018.8619512.726 1.5454634 1.5825 1.5288293.855-.0181464 1.533-.7334147 1.515-1.5953659h-.003c-.0015-.1481951-.126-.2676585-.2715-.2646341l-2.559.0559512c-.147.0030244-.264.1270244-.261.2752195z"/></g><path d="m21.29385 19.6385756c.2715.2117073.612.3326829.9795.325122.3015-.0060488.579-.0998049.813-.2525366-.126-.3190732-.477-.550439-.897-.558-.4005-.0060488-.7455.1950731-.8955.4854146" fill="#c54e47"/><path d="m37.28835 15.0622195s-1.545-8.21575609-4.524-10.55360974c-4.299-3.37370732-9.0075-6.03819513-15.129-1.62258537 0 0-1.761 11.53502441 16.005 12.59960971z" fill="#2a3756"/></g></g></g></g></svg>