<svg xmlns="http://www.w3.org/2000/svg" width="28.571" height="28.571" viewBox="0 0 28.571 28.571">
  <g id="Primary_2" data-name="Primary 2" transform="translate(0 0)">
    <g id="Group_5233" data-name="Group 5233" transform="translate(0 0)">
      <g id="Group_5801" data-name="Group 5801" transform="translate(0)">
        <circle id="Oval" cx="14.286" cy="14.286" r="14.286" fill="none"/>
        <g id="Primary_2-2" data-name="Primary 2" transform="translate(6 6.9)">
          <g id="Group_5233-2" data-name="Group 5233">
            <path id="Path_16615" data-name="Path 16615" d="M640.428,243v1.68h1.68a.84.84,0,0,1,.84.84h0a.84.84,0,0,1-.84.84h-1.681v1.68a.84.84,0,0,1-.84.84h0a.839.839,0,0,1-.84-.839v-1.681h-1.679a.84.84,0,0,1-.84-.84h0a.84.84,0,0,1,.84-.84h1.68V243a.84.84,0,0,1,.84-.84h0A.84.84,0,0,1,640.428,243Zm1.044-8.6a5.043,5.043,0,0,1,.806,6.076.834.834,0,0,1-1.306.145h0a.837.837,0,0,1-.129-1.009,3.363,3.363,0,0,0-5.172-4.154l-1.121,1.006-1.122-1.005a3.36,3.36,0,0,0-4.776,4.708l6.49,6.5a.839.839,0,0,1,0,1.187h0a.839.839,0,0,1-1.189,0l-6.528-6.537a5.04,5.04,0,0,1,7.123-7.109,5.038,5.038,0,0,1,6.923.191Z" transform="translate(-626.148 -232.922)" fill="#2c2c2c"/>
          </g>
        </g>
      </g>
    </g>
  </g>
</svg>
