<svg id="Group_5715" data-name="Group 5715" xmlns="http://www.w3.org/2000/svg" width="24" height="24" viewBox="0 0 24 24">
  <g id="Group_5699" data-name="Group 5699">
    <g id="Icon_Check_Active" data-name="Icon/Check/Active" transform="translate(0 0)">
      <path id="Shape" d="M4,0H20a4,4,0,0,1,4,4V20a4,4,0,0,1-4,4H4a4,4,0,0,1-4-4V4A4,4,0,0,1,4,0Z" fill="none"/>
    </g>
    <rect id="Rectangle_3451" data-name="Rectangle 3451" width="24" height="24" rx="4" fill="#b94d4d"/>
    <path id="Path_16595" data-name="Path 16595" d="M310.287,398.862l1.189,1.187,1.187-1.187a.838.838,0,0,1,1.187,0h0a.838.838,0,0,1,0,1.187l-1.187,1.189,1.187,1.187a.838.838,0,0,1,0,1.187h0a.838.838,0,0,1-1.187,0l-1.187-1.187-1.189,1.187a.838.838,0,0,1-1.187,0h0a.838.838,0,0,1,0-1.187l1.187-1.188-1.187-1.187a.838.838,0,0,1,0-1.187h0A.838.838,0,0,1,310.287,398.862Zm3.072-8.748a5.041,5.041,0,0,1,.806,6.076.834.834,0,0,1-1.148.273.808.808,0,0,1-.159-.128h0a.838.838,0,0,1-.129-1.009,3.36,3.36,0,0,0-5.171-4.153l-1.121,1.006-1.122-1.006a3.36,3.36,0,0,0-4.775,4.708l6.49,6.5a.841.841,0,0,1,0,1.186h0a.841.841,0,0,1-1.189,0h0l-6.527-6.537a5.04,5.04,0,0,1,7.123-7.109,5.041,5.041,0,0,1,6.922.192Z" transform="translate(-294.436 -385.038)" fill="#fff"/>
  </g>
</svg>
