<svg id="Group_7731" data-name="Group 7731" xmlns="http://www.w3.org/2000/svg" width="20" height="20" viewBox="0 0 20 20">
  <rect id="Rectangle_4019" data-name="Rectangle 4019" width="20" height="20" rx="10" transform="translate(0 0)" fill="#38539a"/>
  <g id="Group_7737" data-name="Group 7737" transform="translate(4.167 5.3)">
    <path id="Path_87090" data-name="Path 87090" d="M-21,557.7h8a.7.7,0,0,0,.7-.7.7.7,0,0,0-.7-.7h-8a.7.7,0,0,0-.7.7A.7.7,0,0,0-21,557.7Z" transform="translate(21.7 -556.3)" fill="#f1f2ff"/>
    <path id="Path_87091" data-name="Path 87091" d="M-21,561.2h8a.7.7,0,0,0,.7-.7.7.7,0,0,0-.7-.7h-8a.7.7,0,0,0-.7.7A.7.7,0,0,0-21,561.2Z" transform="translate(21.7 -556.3)" fill="#f1f2ff"/>
    <path id="Path_87092" data-name="Path 87092" d="M-15.5,563.3H-21a.7.7,0,0,0-.7.7.7.7,0,0,0,.7.7h5.5a.7.7,0,0,0,.7-.7A.7.7,0,0,0-15.5,563.3Z" transform="translate(21.7 -556.3)" fill="#f1f2ff"/>
    <path id="Path_87093" data-name="Path 87093" d="M-9,563.3h-1.3V562a.7.7,0,0,0-.7-.7.7.7,0,0,0-.7.7v1.3H-13a.7.7,0,0,0-.7.7.7.7,0,0,0,.7.7h1.3V566a.7.7,0,0,0,.7.7.7.7,0,0,0,.7-.7v-1.3H-9a.7.7,0,0,0,.7-.7A.7.7,0,0,0-9,563.3Z" transform="translate(21.7 -556.3)" fill="#f1f2ff"/>
  </g>
</svg>
