<svg xmlns="http://www.w3.org/2000/svg" width="64" height="64" viewBox="0 0 64 64">
  <g id="Group_6092" data-name="Group 6092" transform="translate(-1443 -242)">
    <circle id="Ellipse_4" data-name="Ellipse 4" cx="32" cy="32" r="32" transform="translate(1443 242)" fill="#d52864"/>
    <path id="Path_16725" data-name="Path 16725" d="M-44.863-8.406H-38.9v-1.813h-3.842v-7.305h-2.124Zm6.859,0h2.11v-9.118H-38Zm3.6,0h2.056V-12.64a18.54,18.54,0,0,0-.271-2.814h.068a19.589,19.589,0,0,0,.731,2.489l1.2,3.166h1.88l1.2-3.166a19.589,19.589,0,0,0,.731-2.489h.068a18.54,18.54,0,0,0-.271,2.814v4.234h2.056v-9.118h-2.53l-1.515,3.774a11.419,11.419,0,0,0-.663,2.489H-29.7a10.7,10.7,0,0,0-.663-2.489l-1.515-3.774h-2.53Zm10.945,0h2.11v-9.118h-2.11Zm5.344,0h2.124v-7.332l2.557.041v-1.826h-7.238V-15.7l2.557-.041Zm5.33,0h6.2v-1.786H-10.7v-1.975h3.72v-1.772H-10.7v-1.8h4.031v-1.786h-6.115Zm7.292,0h3.017C.566-8.406,2.2-9.989,2.2-13.019c0-2.922-1.637-4.5-4.681-4.5H-5.5Zm2.124-1.813v-5.493h.893c1.583,0,2.57.69,2.57,2.692s-.988,2.8-2.57,2.8ZM-33.5,4.082h2.124V-3.25l2.557.041V-5.036h-7.238V-3.21L-33.5-3.25Zm5.357,0h2.11V-5.036h-2.11Zm3.6,0h2.056V-.152a18.54,18.54,0,0,0-.271-2.814h.068a19.589,19.589,0,0,0,.731,2.489l1.2,3.166h1.88l1.2-3.166a19.589,19.589,0,0,0,.731-2.489h.068a18.54,18.54,0,0,0-.271,2.814V4.082h2.056V-5.036h-2.53l-1.515,3.774a11.419,11.419,0,0,0-.663,2.489h-.041A10.7,10.7,0,0,0-20.5-1.262l-1.515-3.774h-2.53Zm10.917,0h6.2V2.3h-4.113V.321h3.72V-1.451h-3.72v-1.8h4.031V-5.036h-6.115Zm-22.45,12.664c2.882,0,4.343-2.07,4.343-4.735s-1.461-4.735-4.343-4.735-4.343,2.07-4.343,4.735S-38.958,16.746-36.076,16.746Zm0-1.745c-1.448,0-2.232-1-2.232-2.99,0-1.962.785-2.99,2.232-2.99s2.232,1.028,2.232,2.99C-33.844,14-34.629,15-36.076,15Zm5.411,1.569h2.083V12.944h3.653V11.158h-3.653V9.237H-24.7V7.452h-5.966Zm6.954,0h2.083V12.944h3.653V11.158h-3.653V9.237h3.883V7.452h-5.966Zm6.954,0h6.2V14.784h-4.113V12.809h3.72V11.037h-3.72v-1.8h4.031V7.452h-6.115Zm7.292,0h2.124V13.228h1.015l1.8,3.342h2.205l-2.029-3.72a2.632,2.632,0,0,0,1.732-2.5c0-1.623-1.123-2.9-3.369-2.9H-9.466Zm2.1-5.033V9.264h1.393c.852,0,1.245.46,1.245,1.109a1.1,1.1,0,0,1-1.218,1.163Z" transform="translate(1496.78 275.902)" fill="#fff"/>
  </g>
</svg>
