<svg xmlns="http://www.w3.org/2000/svg" width="64" height="64" viewBox="0 0 64 64">
  <g id="Group_6048" data-name="Group 6048" transform="translate(-825 -537)">
    <circle id="Ellipse_7" data-name="Ellipse 7" cx="32" cy="32" r="32" transform="translate(825 537)" fill="#792470"/>
    <path id="Path_16727" data-name="Path 16727" d="M-24.576,0H-22.6V-4.069a17.815,17.815,0,0,0-.26-2.7h.065a18.824,18.824,0,0,0,.7,2.392l1.157,3.042h1.807l1.157-3.042a18.824,18.824,0,0,0,.7-2.392h.065a17.815,17.815,0,0,0-.26,2.7V0h1.976V-8.762H-17.92l-1.456,3.627a10.973,10.973,0,0,0-.637,2.392h-.039a10.282,10.282,0,0,0-.637-2.392l-1.456-3.627h-2.431Zm10.491,0h5.954V-1.716h-3.952v-1.9h3.575v-1.7h-3.575V-7.046H-8.21V-8.762h-5.876Zm7.007,0H-5.1V-4.069a17.815,17.815,0,0,0-.26-2.7H-5.3a18.824,18.824,0,0,0,.7,2.392l1.157,3.042h1.807L-.474-4.381a18.824,18.824,0,0,0,.7-2.392H.293a17.815,17.815,0,0,0-.26,2.7V0H2.009V-8.762H-.422L-1.878-5.135a10.973,10.973,0,0,0-.637,2.392h-.039a10.282,10.282,0,0,0-.637-2.392L-4.647-8.762H-7.078ZM3.413,0H7.027c2.327,0,3.328-1.105,3.328-2.6A1.944,1.944,0,0,0,8.847-4.615,1.94,1.94,0,0,0,10.03-6.409c0-1.365-.91-2.353-2.951-2.353H3.413ZM5.389-5.3V-7.1H7.053c.637,0,1.027.312,1.027.871,0,.637-.416.923-1.027.923Zm0,3.64V-3.718H6.936c.936,0,1.456.351,1.456.988,0,.689-.572,1.066-1.4,1.066ZM11.369,0h5.954V-1.716H13.371v-1.9h3.575v-1.7H13.371V-7.046h3.874V-8.762H11.369Zm7.007,0h2.041V-3.211h.975L23.121,0H25.24L23.29-3.575a2.529,2.529,0,0,0,1.664-2.4c0-1.56-1.079-2.782-3.237-2.782H18.376Zm2.015-4.836V-7.02H21.73c.819,0,1.2.442,1.2,1.066a1.059,1.059,0,0,1-1.17,1.118ZM-15.769,12h2.028V9.088h1.222A2.973,2.973,0,0,0-9.334,6.124a2.868,2.868,0,0,0-3.107-2.886h-3.328Zm2-4.667V4.993h1.326a1.025,1.025,0,0,1,1.079,1.131,1.1,1.1,0,0,1-1.157,1.209ZM-8.333,12h2.041V8.789h.975L-3.588,12h2.119l-1.95-3.575A2.529,2.529,0,0,0-1.755,6.02c0-1.56-1.079-2.782-3.237-2.782H-8.333Zm2.015-4.836V4.98h1.339c.819,0,1.2.442,1.2,1.066a1.059,1.059,0,0,1-1.17,1.118ZM-.7,12H1.326V3.238H-.7Zm7.267.169a5.381,5.381,0,0,0,2.691-.663L8.775,9.959a3.856,3.856,0,0,1-1.937.507c-1.625,0-2.431-1.014-2.431-2.847S5.2,4.772,6.825,4.772a3.969,3.969,0,0,1,1.9.442l.494-1.521A5.05,5.05,0,0,0,6.63,3.069c-2.743,0-4.264,1.989-4.264,4.55C2.366,10.388,3.965,12.169,6.565,12.169Zm3.6-.169H16.12V10.284H12.168v-1.9h3.575v-1.7H12.168V4.954h3.874V3.238H10.166Z" transform="translate(856.095 567.238)" fill="#fff" opacity="0.88"/>
    <path id="Path_8813" data-name="Path 8813" d="M891.946-104s-.206,5.449,4.98,5.449,4.98-5.449,4.98-5.449" transform="translate(-40.003 687.801)" fill="none" stroke="#fff" stroke-width="2"/>
  </g>
</svg>
