<svg xmlns="http://www.w3.org/2000/svg" width="64" height="64" viewBox="0 0 64 64">
  <g id="Group_6084" data-name="Group 6084" transform="translate(-1157 -390)">
    <circle id="Ellipse_5" data-name="Ellipse 5" cx="32" cy="32" r="32" transform="translate(1157 390)" fill="#5fce51"/>
    <path id="Path_16728" data-name="Path 16728" d="M-17.187.325c4.2,0,6.825-2.275,6.825-5.65,0-3.525-2.275-5.425-6.65-5.425h-1.05l.175-2.225h6.5V-16.25h-9.75l-.65,6.425v2.25h4.75c1.8,0,2.775.8,2.775,2.3,0,1.325-.9,2.425-2.975,2.425a8.707,8.707,0,0,1-4.425-1.1l-1,3.05A10.332,10.332,0,0,0-17.187.325Zm14.625,0c4.075,0,6.625-3.15,6.625-8.45S1.513-16.6-2.562-16.6c-4.1,0-6.65,3.175-6.65,8.475S-6.662.325-2.562.325Zm0-3.15c-1.625,0-2.725-1.675-2.725-5.3s1.1-5.325,2.725-5.325S.163-11.75.163-8.125-.937-2.825-2.562-2.825Zm10.85-4.85c2.35,0,3.9-1.925,3.9-4.45,0-2.575-1.55-4.475-3.9-4.475-2.4,0-3.925,1.9-3.925,4.475C4.363-9.6,5.888-7.675,8.288-7.675ZM7.638,0h3.35l8.875-16.5H16.538Zm.65-9.875c-.675,0-.975-.95-.975-2.25,0-1.325.3-2.275.975-2.275.625,0,.95.95.95,2.275C9.238-10.825,8.913-9.875,8.288-9.875ZM19.238.325c2.35,0,3.9-1.925,3.9-4.45,0-2.575-1.55-4.475-3.9-4.475s-3.9,1.9-3.9,4.475C15.338-1.6,16.888.325,19.238.325Zm0-2.2c-.625,0-.975-.95-.975-2.25,0-1.325.35-2.275.975-2.275s.975.95.975,2.275C20.212-2.825,19.863-1.875,19.238-1.875Zm-26.5,18.07c3.195,0,4.815-2.3,4.815-5.25s-1.62-5.25-4.815-5.25-4.815,2.3-4.815,5.25S-10.455,16.195-7.26,16.195Zm0-1.935c-1.605,0-2.475-1.11-2.475-3.315,0-2.175.87-3.315,2.475-3.315s2.475,1.14,2.475,3.315C-4.785,13.15-5.655,14.26-7.26,14.26ZM-1.71,16H.6V11.98H4.65V10H.6V7.87H4.9V5.89H-1.71Zm7.26,0H7.86V11.98h4.05V10H7.86V7.87h4.3V5.89H5.55Z" transform="translate(1188.285 423.683)" fill="#fff"/>
  </g>
</svg>
