<svg xmlns="http://www.w3.org/2000/svg" width="48" height="48" viewBox="0 0 48 48">
  <g id="Group_6016" data-name="Group 6016" transform="translate(11278 14684)">
    <rect id="Rectangle_3485" data-name="Rectangle 3485" width="48" height="48" rx="24" transform="translate(-11278 -14684)" fill="#d92765"/>
    <g id="Group_5924" data-name="Group 5924" transform="translate(-11921.111 -15188.5)">
      <path id="Path_16629" data-name="Path 16629" d="M-10.725.169C-8.736.169-7.7-.871-7.7-2.119c0-1.339-.9-1.859-2.431-2.379-.884-.312-1.495-.468-1.495-.871,0-.351.4-.494.975-.494a3.756,3.756,0,0,1,2.184.637L-7.891-6.6a5.09,5.09,0,0,0-2.8-.845c-1.937,0-2.9,1.066-2.9,2.145,0,1.443,1.079,1.885,2.5,2.327.676.208,1.443.364,1.443.91,0,.364-.468.65-1.248.65a4.312,4.312,0,0,1-2.119-.637l-.533,1.5A5.238,5.238,0,0,0-10.725.169ZM-3.614,0H-1.6V-4.641A2.536,2.536,0,0,0-4.368-7.449,4.286,4.286,0,0,0-7.176-6.383l.585,1.378a2.69,2.69,0,0,1,1.807-.78c.767,0,1.17.351,1.17,1.274Zm3.6,0H2V-1.508A1,1,0,0,1,3.12-2.249H3.9V-3.913H3.25a1.294,1.294,0,0,0-1.261.78V-4.459a1.292,1.292,0,0,1,1.43-1.352,1.277,1.277,0,0,1,1.4,1.352V0H6.838V-4.472c0-1.7-1.313-2.977-3.419-2.977S-.013-6.175-.013-4.472ZM11.219,0h2.015V-4.641a2.536,2.536,0,0,0-2.769-2.808A4.286,4.286,0,0,0,7.657-6.383l.585,1.378a2.69,2.69,0,0,1,1.807-.78c.767,0,1.17.351,1.17,1.274ZM-15.756,12h2.392l.767-3.133a18.754,18.754,0,0,0,.325-2.431h.052A18.754,18.754,0,0,0-11.9,8.867L-11.128,12h2.392l1.131-7.28H-9.529l-.429,3.341c-.091.611-.143,1.482-.208,2.613H-10.2a17.444,17.444,0,0,0-.377-2.613L-11.3,5.084h-1.9l-.715,2.977a17.444,17.444,0,0,0-.377,2.613h-.039c-.065-1.131-.117-2-.208-2.613l-.429-3.341h-1.924Zm2-8.177h6.149V2.3h-6.149ZM-6.448,12h2.015V4.72H-6.448Zm3.614,0H-.806V10.492A.985.985,0,0,1,.3,9.751h.78V8.087H.429a1.294,1.294,0,0,0-1.261.78V7.541A1.292,1.292,0,0,1,.6,6.189,1.3,1.3,0,0,1,2,7.567V12H4.017V7.554A2.526,2.526,0,0,0,3.211,5.63L4.42,4.174H2.184l-.468.572A3.479,3.479,0,0,0,.6,4.551c-2.119,0-3.432,1.274-3.432,2.977Zm11.778.169c2.041,0,3.341-.962,3.341-3V8.555h.793L13.4,7.034H12.285V4.72H10.257V7.034H8.866V8.555h1.391v.611a1.213,1.213,0,0,1-1.313,1.365A1.213,1.213,0,0,1,7.631,9.166V4.72H5.616V9.166C5.616,11.207,6.9,12.169,8.944,12.169Zm5.72-2.977H16l.364-3.757v-2.2H14.313v2.2Zm.676,2.977a1.164,1.164,0,1,0-1.209-1.157A1.141,1.141,0,0,0,15.34,12.169Z" transform="translate(667.111 526)" fill="#fff"/>
    </g>
  </g>
</svg>
