<svg xmlns="http://www.w3.org/2000/svg" width="24" height="24" viewBox="0 0 24 24">
  <g id="Group_5261" data-name="Group 5261" transform="translate(0 -0.25)">
    <circle id="Ellipse_1" data-name="Ellipse 1" cx="12" cy="12" r="12" transform="translate(0 0.25)" fill="none"/>
    <g id="Group_5331" data-name="Group 5331" transform="translate(-1043.179 -552.224)">
      <path id="Path_16587" data-name="Path 16587" d="M1062.676,558.087a1.719,1.719,0,0,0-1.225-.514H1059V557.2a1.727,1.727,0,0,0-1.726-1.725h-4.191a1.729,1.729,0,0,0-1.717,1.732v.367H1048.9a1.734,1.734,0,0,0-.633,3.344l.918,11.205a1.728,1.728,0,0,0,1.725,1.589h8.532a1.731,1.731,0,0,0,1.714-1.589l.928-11.205a1.732,1.732,0,0,0,.587-2.83Zm-1.963,2.951-.905,10.97a.368.368,0,0,1-.363.337h-8.529a.366.366,0,0,1-.366-.337l-.9-10.97Zm-7.989-3.465v-.367a.368.368,0,0,1,.366-.367h4.18a.367.367,0,0,1,.365.367v.367Zm9.1,1.734a.367.367,0,0,1-.368.367h-12.546a.368.368,0,0,1,0-.736h12.546A.368.368,0,0,1,1061.82,559.307Z" fill="#fff"/>
      <g id="Group_5328" data-name="Group 5328" transform="translate(1051.319 561.674)">
        <path id="Path_16588" data-name="Path 16588" d="M1057.918,561.4a.631.631,0,0,0-.488.2.671.671,0,0,0-.206.476l-.526,8.545,0,.033a.686.686,0,0,0,.643.729h.049a.689.689,0,0,0,.684-.647l.523-8.569c0-.024,0-.048,0-.07A.691.691,0,0,0,1057.918,561.4Z" transform="translate(-1050.877 -561.398)" fill="#fff"/>
        <path id="Path_16589" data-name="Path 16589" d="M1055.537,562.061a.68.68,0,0,0-.223-.476.66.66,0,0,0-.494-.177.686.686,0,0,0-.655.71v8.572a.369.369,0,0,0,0,.061.684.684,0,0,0,.683.654h.035a.686.686,0,0,0,.654-.71v-8.566A.34.34,0,0,0,1055.537,562.061Z" transform="translate(-1050.995 -561.398)" fill="#fff"/>
        <path id="Path_16590" data-name="Path 16590" d="M1052.265,561.582a.675.675,0,0,0-.5-.16.685.685,0,0,0-.626.737l.528,8.575.01.149h.01a.691.691,0,0,0,.667.523c.025,0,.052,0,.078,0a.688.688,0,0,0,.6-.752l-.532-8.6A.676.676,0,0,0,1052.265,561.582Z" transform="translate(-1051.135 -561.397)" fill="#fff"/>
      </g>
    </g>
  </g>
</svg>
