<svg id="Group_5261" data-name="Group 5261" xmlns="http://www.w3.org/2000/svg" width="24" height="24" viewBox="0 0 24 24">
  <circle id="Ellipse_1" data-name="Ellipse 1" cx="12" cy="12" r="12" fill="none"/>
  <g id="Icon_Qty_Minus" data-name="Icon / Qty / Minus" transform="translate(5 4)">
    <path id="Combined_Shape" data-name="Combined Shape" d="M3.192,16A1.41,1.41,0,0,1,1.8,14.711L.965,4.618A1.407,1.407,0,0,1,1.4,1.875H3.733V1.406A1.4,1.4,0,0,1,5.134,0H8.867a1.4,1.4,0,0,1,1.4,1.406v.469H12.6a1.407,1.407,0,0,1,.436,2.743L12.2,14.711A1.411,1.411,0,0,1,10.808,16Zm-.465-1.367a.47.47,0,0,0,.465.429h7.616a.47.47,0,0,0,.464-.429l.821-9.946H1.907ZM.933,3.281A.469.469,0,0,0,1.4,3.75H12.6a.469.469,0,0,0,0-.938H1.4A.469.469,0,0,0,.933,3.281ZM4.667,1.406v.469H9.333V1.406A.467.467,0,0,0,8.867.938H5.134A.468.468,0,0,0,4.667,1.406ZM9.3,14.124a.467.467,0,0,1-.436-.5l.466-7.562a.467.467,0,1,1,.931.058L9.8,13.685a.467.467,0,0,1-.465.439Zm-2.771-.467V6.094a.467.467,0,1,1,.933,0v7.563a.467.467,0,1,1-.933,0ZM4.2,13.685,3.734,6.123a.467.467,0,1,1,.932-.058l.467,7.562a.467.467,0,1,1-.931.058Z" fill="#2c2c2c"/>
  </g>
</svg>
