<svg xmlns="http://www.w3.org/2000/svg" xmlns:xlink="http://www.w3.org/1999/xlink" width="14" height="13.932" viewBox="0 0 14 13.932">
  <defs>
    <clipPath id="clip-path">
      <rect id="Rectangle_3498" data-name="Rectangle 3498" width="14" height="13.932" fill="none"/>
    </clipPath>
  </defs>
  <g id="Group_6239" data-name="Group 6239" clip-path="url(#clip-path)">
    <path id="Path_26288" data-name="Path 26288" d="M12.786,9.214h0a.482.482,0,0,0-.481.48v3.025a.888.888,0,0,1-.887.885H1.844a.888.888,0,0,1-.886-.887V3.839a.888.888,0,0,1,.886-.885H4.857a.486.486,0,0,0,.534-.42A.482.482,0,0,0,4.971,2a.365.365,0,0,0-.1,0H1.844A1.848,1.848,0,0,0,0,3.839v8.879a1.848,1.848,0,0,0,1.844,1.841h9.576a1.847,1.847,0,0,0,1.844-1.841V9.691a.483.483,0,0,0-.477-.477" transform="translate(0 -0.626)" fill="#2d2d30"/>
    <path id="Path_26289" data-name="Path 26289" d="M15.041.917,14.628.5a1.727,1.727,0,0,0-2.439,0L5.9,6.8a.5.5,0,0,0-.126.216L4.942,10a.49.49,0,0,0,.6.6l2.988-.828a.479.479,0,0,0,.216-.126l6.294-6.293a1.73,1.73,0,0,0,0-2.439M7.493,9.044l-1.375.381L6.5,8.051Zm5.883-5.41L8.422,8.588,6.956,7.121l4.953-4.954Zm.975-.973h0l-.277.277L12.607,1.474l.277-.277a.744.744,0,0,1,1.052,0l.412.412a.747.747,0,0,1,0,1.054" transform="translate(-1.544 0)" fill="#2d2d30"/>
  </g>
</svg>
