<svg xmlns="http://www.w3.org/2000/svg" width="32" height="32" viewBox="0 0 32 32">
  <g id="Group_6935" data-name="Group 6935" transform="translate(-130 -218)">
    <g id="Group_4993" data-name="Group 4993" transform="translate(130 218)">
      <circle id="Ellipse_365" data-name="Ellipse 365" cx="16" cy="16" r="16" fill="none"/>
    </g>
    <g id="Group_6893" data-name="Group 6893" transform="translate(4 11)">
      <g id="Group_4993-2" data-name="Group 4993" transform="translate(130 212.281)">
        <circle id="Ellipse_365-2" data-name="Ellipse 365" cx="0.75" cy="0.75" r="0.75" fill="none"/>
      </g>
      <path id="success" d="M23.809,11.4,21.822,8.77l.064-3.293a.937.937,0,0,0-.666-.915l-3.152-.955L16.188.9A.937.937,0,0,0,15.11.553L12,1.635,8.888.553A.937.937,0,0,0,7.81.9l-1.881,2.7-3.152.955a.937.937,0,0,0-.666.915L2.176,8.77.189,11.4a.937.937,0,0,0,0,1.131l1.987,2.626-.064,3.293a.937.937,0,0,0,.666.915l3.152.955,1.881,2.7a.937.937,0,0,0,1.078.35L12,22.288,15.11,23.37a.937.937,0,0,0,1.078-.35l1.881-2.7,3.152-.955a.937.937,0,0,0,.666-.915l-.064-3.293,1.987-2.626a.937.937,0,0,0,0-1.131Zm-3.678,2.885a.939.939,0,0,0-.19.584L20,17.773l-2.785.843a.937.937,0,0,0-.5.362l-1.661,2.388-2.747-.956a.936.936,0,0,0-.616,0l-2.747.956L7.282,18.978a.937.937,0,0,0-.5-.362L4,17.773l.057-2.908a.938.938,0,0,0-.19-.584l-1.755-2.32,1.755-2.32a.936.936,0,0,0,.19-.584L4,6.15l2.785-.843a.937.937,0,0,0,.5-.362L8.943,2.557l2.748.956a.938.938,0,0,0,.616,0l2.747-.956,1.661,2.388a.938.938,0,0,0,.5.362L20,6.15l-.057,2.908a.938.938,0,0,0,.19.584l1.755,2.32ZM16.824,8.524a.938.938,0,0,1,0,1.326L11.274,15.4a.938.938,0,0,1-1.326,0L7.174,12.625A.938.938,0,0,1,8.5,11.3l2.112,2.112L15.5,8.524a.937.937,0,0,1,1.326,0Zm0,0" transform="translate(130.001 211.499)" fill="#e5fdff"/>
    </g>
  </g>
</svg>
