<svg xmlns="http://www.w3.org/2000/svg" xmlns:xlink="http://www.w3.org/1999/xlink" width="20" height="20" viewBox="0 0 20 20">
  <defs>
    <clipPath id="clip-path">
      <rect width="20" height="20" fill="none"/>
    </clipPath>
  </defs>
  <g id="Repeat_Grid_2" data-name="Repeat Grid 2" clip-path="url(#clip-path)">
    <g transform="translate(1612 -11053)">
      <g id="Icon_Essential_Edits" data-name="Icon / Essential / Edits" transform="translate(-1612 11053)">
        <path id="Combined_Shape" data-name="Combined Shape" d="M2.708,16.875A2.711,2.711,0,0,1,0,14.167V2.708A2.711,2.711,0,0,1,2.708,0h8A2.711,2.711,0,0,1,13.42,2.708V4.529a.752.752,0,0,1-.229.542.727.727,0,0,1-.553.211.767.767,0,0,1-.725-.769v-1.8a1.2,1.2,0,0,0-1.2-1.2h-8a1.2,1.2,0,0,0-1.2,1.2V14.167a1.2,1.2,0,0,0,1.2,1.2h1.04a.752.752,0,0,1,.752.779.769.769,0,0,1-.77.727Zm4.091-.2a.666.666,0,0,1-.161-.661l.93-3.06a.658.658,0,0,1,.167-.279L12,8.413a2.223,2.223,0,0,1,3.143,3.145l-4.261,4.252a.675.675,0,0,1-.293.171l-3.138.869a.709.709,0,0,1-.178.023A.679.679,0,0,1,6.8,16.673Zm4.963-6.1-2.928,2.89-.526,1.643.1.094,1.665-.462,2.96-2.956L11.8,10.561Zm1.187-1.215-.181.182v.091l1.163,1.161h.092l.182-.181a.878.878,0,0,0-.628-1.5A.889.889,0,0,0,12.949,9.359Zm-9.179.906a.727.727,0,0,1-.692-.728.8.8,0,0,1,.217-.578.639.639,0,0,1,.46-.2h3.59a.64.64,0,0,1,.459.2.8.8,0,0,1,.217.579.726.726,0,0,1-.691.728Zm-.016-2.6a.636.636,0,0,1-.458-.2.8.8,0,0,1-.217-.579.727.727,0,0,1,.691-.728H9.65a.726.726,0,0,1,.691.728.8.8,0,0,1-.217.579.636.636,0,0,1-.459.2Zm0-2.6a.639.639,0,0,1-.458-.2.8.8,0,0,1-.217-.579.727.727,0,0,1,.691-.728h5.9a.634.634,0,0,1,.459.2.793.793,0,0,1,.217.578.727.727,0,0,1-.691.728Z" transform="translate(2.5 1.667)" fill="#2c2c2c"/>
      </g>
    </g>
  </g>
</svg>
