<svg id="Group_7803" data-name="Group 7803" xmlns="http://www.w3.org/2000/svg" xmlns:xlink="http://www.w3.org/1999/xlink" width="12.059" height="12" viewBox="0 0 12.059 12">
  <defs>
    <clipPath id="clip-path">
      <rect id="Rectangle_3498" data-name="Rectangle 3498" width="12.059" height="12" fill="#f1f2ff"/>
    </clipPath>
  </defs>
  <g id="Group_6855" data-name="Group 6855" transform="translate(0 0)">
    <g id="Group_6239" data-name="Group 6239" clip-path="url(#clip-path)">
      <path id="Path_26288" data-name="Path 26288" d="M11.013,8.213h0a.415.415,0,0,0-.414.414v2.605a.765.765,0,0,1-.764.762H1.588a.764.764,0,0,1-.763-.764V3.584a.765.765,0,0,1,.763-.763h2.6a.419.419,0,0,0,.46-.362A.415.415,0,0,0,4.282,2,.315.315,0,0,0,4.2,2H1.588A1.592,1.592,0,0,0,0,3.583v7.648a1.592,1.592,0,0,0,1.588,1.585H9.836a1.591,1.591,0,0,0,1.588-1.586V8.624a.416.416,0,0,0-.411-.411" transform="translate(0 -0.816)" fill="#f1f2ff"/>
      <path id="Path_26289" data-name="Path 26289" d="M13.638.79,13.282.434a1.488,1.488,0,0,0-2.1,0l-5.42,5.42a.426.426,0,0,0-.109.186L4.939,8.613a.422.422,0,0,0,.519.52L8.032,8.42a.413.413,0,0,0,.186-.108l5.421-5.42a1.49,1.49,0,0,0,0-2.1m-6.5,7-1.184.328.328-1.184ZM12.2,3.131,7.937,7.4,6.674,6.134,10.94,1.867Zm.839-.838h0l-.239.239L11.541,1.27l.239-.239a.641.641,0,0,1,.906,0l.355.355a.644.644,0,0,1,0,.907" transform="translate(-2.013 0)" fill="#f1f2ff"/>
    </g>
  </g>
</svg>
