<svg xmlns="http://www.w3.org/2000/svg" width="80" height="80" viewBox="0 0 80 80">
  <g id="Group_7200" data-name="Group 7200" transform="translate(-567 -332)">
    <circle id="Ellipse_369" data-name="Ellipse 369" cx="40" cy="40" r="40" transform="translate(567 332)" fill="#f0fae5"/>
    <g id="Group_7153" data-name="Group 7153" transform="translate(559.071 325.038)">
      <path id="Path_16708" data-name="Path 16708" d="M47.929,6.962a40,40,0,1,0,40,40A40.044,40.044,0,0,0,47.929,6.962Zm0,77.973A37.974,37.974,0,1,1,85.9,46.962,38.017,38.017,0,0,1,47.929,84.935Z" fill="#73793b"/>
      <path id="Path_16748" data-name="Path 16748" d="M366.517,104.932a7.88,7.88,0,0,0-5.46-6.265c-3.758-1.341-7.9-.274-11.372,2.927-.281.259-.56.54-.837.834-.756-2.416-2.9-6.2-8.963-6.367l-.186,0c-3.857,0-8.072,3.314-10.542,8.313-2.24,4.533-6.033,16.825,7.081,33.014a1.081,1.081,0,0,0,.67.385c.307,2.5.676,4.879,1.1,7.095a1.09,1.09,0,0,0,1.069.884,1.092,1.092,0,0,0,1.071-1.3c-.406-2.111-.759-4.375-1.056-6.756a1.073,1.073,0,0,0,.15-.211,21.892,21.892,0,0,1,2.409-3c.505-.57.995-1.124,1.428-1.646.162.72.334,1.446.533,2.185a1.08,1.08,0,0,0,.356.545c-.8,2.756-1.48,5.412-2.005,7.9a1.091,1.091,0,0,0,.841,1.291,1.11,1.11,0,0,0,.226.023,1.09,1.09,0,0,0,1.065-.865c.537-2.544,1.238-5.272,2.072-8.107a1.08,1.08,0,0,0,.875-.232C360.231,124.658,367.875,112.626,366.517,104.932Zm-24.087,25.115a21.868,21.868,0,0,1-2.408,3c-.448.506-.885,1-1.281,1.469a117.6,117.6,0,0,1,.137-26.382,1.089,1.089,0,1,0-2.158-.3,119.216,119.216,0,0,0-.2,26.358c-10.622-14.286-7.378-24.862-5.408-28.851,2.458-4.973,6.233-7.156,8.713-7.1,6.83.19,7.237,6.021,7.251,6.278,0,.023.008.045.01.068-3.76,5.3-6.421,14.015-4.573,25.332A1.138,1.138,0,0,0,342.431,130.047Zm4.712,2.6a115.648,115.648,0,0,1,9.856-22.7,1.09,1.09,0,0,0-1.874-1.113A117.843,117.843,0,0,0,345.1,131.873c-2.813-13.318.872-23.891,6.06-28.677a9.841,9.841,0,0,1,6.6-2.923,7.555,7.555,0,0,1,2.557.447,5.737,5.737,0,0,1,4.047,4.591C365.338,110.792,360.347,121.263,347.143,132.647Z" transform="translate(-296.943 -73.578)" fill="#73793b"/>
    </g>
  </g>
</svg>
