<svg xmlns="http://www.w3.org/2000/svg" width="80" height="80" viewBox="0 0 80 80">
  <g id="Group_7154" data-name="Group 7154" transform="translate(-567 -332)">
    <circle id="Ellipse_369" data-name="Ellipse 369" cx="40" cy="40" r="40" transform="translate(567 332)" fill="#f0fae5"/>
    <g id="Group_7153" data-name="Group 7153" transform="translate(559.071 325.038)">
      <path id="Path_16708" data-name="Path 16708" d="M47.929,6.962a40,40,0,1,0,40,40A40.044,40.044,0,0,0,47.929,6.962Zm0,77.973A37.974,37.974,0,1,1,85.9,46.962,38.017,38.017,0,0,1,47.929,84.935Z" fill="#73793b"/>
      <g id="Group_7189" data-name="Group 7189" transform="translate(-513.248 -66.8)">
        <g id="Group_7189-2" data-name="Group 7189" transform="translate(555.505 112.898)">
          <path id="Path_16742" data-name="Path 16742" d="M591.062,160.92a7,7,0,0,1-6.169-4.759c-1.108-2.866-1.917-10.612,1.6-11.973s8.13,4.917,9.238,7.783c1.391,3.6.09,7.465-2.9,8.62A4.9,4.9,0,0,1,591.062,160.92Zm-3.475-14.5a.6.6,0,0,0-.215.036c-1.143.441-1.456,5.621-.215,8.833.908,2.349,3.061,3.715,4.8,3.041s2.418-3.131,1.51-5.48C592.3,149.816,588.924,146.417,587.588,146.417Z" transform="translate(-583.946 -143.999)" fill="#73793b"/>
        </g>
        <g id="Group_7190" data-name="Group 7190" transform="translate(554.092 91.762)">
          <path id="Path_16743" data-name="Path 16743" d="M587.24,108.886a5.643,5.643,0,0,1-3.145-1.01,7.784,7.784,0,0,1-3.005-4.126,17.777,17.777,0,0,1-.556-6.5c.288-2.994,1.283-4.845,2.878-5.353,3.6-1.147,7.82,5.4,8.753,8.325h0c1.171,3.675-.36,7.457-3.413,8.43A4.958,4.958,0,0,1,587.24,108.886Zm-2.918-14.7a.563.563,0,0,0-.173.025c-.315.1-.971.914-1.2,3.272a15.4,15.4,0,0,0,.452,5.531,5.352,5.352,0,0,0,2.044,2.847,2.968,2.968,0,0,0,2.568.478c1.778-.567,2.6-2.98,1.838-5.38h0C588.854,97.826,585.628,94.184,584.322,94.184Z" transform="translate(-580.454 -91.762)" fill="#73793b"/>
        </g>
        <g id="Group_7191" data-name="Group 7191" transform="translate(570.175 98.328)">
          <path id="Path_16744" data-name="Path 16744" d="M625.537,125.151a4.963,4.963,0,0,1-1.45-.216c-3.065-.933-4.646-4.695-3.523-8.385.9-2.939,5.027-9.539,8.645-8.437,1.6.488,2.62,2.326,2.947,5.316a17.776,17.776,0,0,1-.471,6.507,7.783,7.783,0,0,1-2.952,4.165A5.631,5.631,0,0,1,625.537,125.151Zm2.8-14.739c-1.3,0-4.491,3.692-5.451,6.845-.734,2.409.122,4.812,1.907,5.355a2.973,2.973,0,0,0,2.561-.511,5.354,5.354,0,0,0,2.006-2.873h0a15.4,15.4,0,0,0,.38-5.537c-.257-2.356-.924-3.16-1.24-3.257A.563.563,0,0,0,628.338,110.412Z" transform="translate(-620.203 -107.989)" fill="#73793b"/>
        </g>
        <g id="Group_7192" data-name="Group 7192" transform="translate(536.177 101.665)">
          <path id="Path_16745" data-name="Path 16745" d="M541.486,130.727a5.268,5.268,0,0,1-4.015-1.7,5.345,5.345,0,0,1-1.2-4.564,7.783,7.783,0,0,1,2.532-4.432c2.288-2.051,9.245-5.552,11.765-2.74s-1.718,9.344-4.007,11.4a7.785,7.785,0,0,1-4.682,2.034Q541.68,130.727,541.486,130.727Zm6.339-12.087a13.931,13.931,0,0,0-7.4,3.194,5.353,5.353,0,0,0-1.759,3.031,2.762,2.762,0,0,0,3.072,3.427,5.351,5.351,0,0,0,3.2-1.418c2.564-2.3,4.637-7.055,3.819-7.968A1.261,1.261,0,0,0,547.825,118.641Z" transform="translate(-536.177 -116.237)" fill="#73793b"/>
        </g>
        <g id="Group_7193" data-name="Group 7193" transform="translate(571.103 118.917)">
          <path id="Path_16746" data-name="Path 16746" d="M627.711,173.984a5.18,5.18,0,0,1-3.544-1.315,5.343,5.343,0,0,1-1.653-4.421,7.782,7.782,0,0,1,2.075-4.663,17.779,17.779,0,0,1,5.355-3.727c2.738-1.245,4.839-1.307,6.076-.179,2.788,2.544-.773,9.47-2.844,11.74h0A7.549,7.549,0,0,1,627.711,173.984Zm5.974-12.681a7,7,0,0,0-2.736.765,15.389,15.389,0,0,0-4.567,3.153,5.351,5.351,0,0,0-1.447,3.192,2.969,2.969,0,0,0,.868,2.463c1.379,1.259,3.881.768,5.579-1.093,2.32-2.543,3.906-7.484,3-8.31A1.086,1.086,0,0,0,633.685,161.3Z" transform="translate(-622.498 -158.877)" fill="#73793b"/>
        </g>
        <g id="Group_7194" data-name="Group 7194" transform="translate(536.449 120.154)">
          <path id="Path_16747" data-name="Path 16747" d="M547.691,174.54a8.1,8.1,0,0,1-3.3-.722,17.762,17.762,0,0,1-5.215-3.921c-2.04-2.211-2.756-4.186-2.071-5.714,1.544-3.445,9.236-2.229,12.04-.972h0a7.783,7.783,0,0,1,3.761,3.451,5.342,5.342,0,0,1,.245,4.714A5.775,5.775,0,0,1,547.691,174.54Zm-5.167-10.188c-1.652,0-2.968.288-3.208.824-.135.3.033,1.333,1.64,3.075a15.413,15.413,0,0,0,4.424,3.351c2.3,1.031,4.789.482,5.552-1.22a2.969,2.969,0,0,0-.186-2.6,5.353,5.353,0,0,0-2.6-2.352h0A14.71,14.71,0,0,0,542.524,164.352Z" transform="translate(-536.848 -161.933)" fill="#73793b"/>
        </g>
      </g>
    </g>
  </g>
</svg>
