<svg xmlns="http://www.w3.org/2000/svg" width="80" height="80" viewBox="0 0 80 80">
  <g id="Group_7199" data-name="Group 7199" transform="translate(-567 -332)">
    <circle id="Ellipse_369" data-name="Ellipse 369" cx="40" cy="40" r="40" transform="translate(567 332)" fill="#f0fae5"/>
    <g id="Group_7153" data-name="Group 7153" transform="translate(559.071 325.038)">
      <path id="Path_16708" data-name="Path 16708" d="M47.929,6.962a40,40,0,1,0,40,40A40.044,40.044,0,0,0,47.929,6.962Zm0,77.973A37.974,37.974,0,1,1,85.9,46.962,38.017,38.017,0,0,1,47.929,84.935Z" fill="#73793b"/>
      <path id="Path_16741" data-name="Path 16741" d="M444.39,129.19c.7-9.4-.38-22.011-.429-22.565a1.171,1.171,0,0,0-2.326-.066c-1.993,13.7-12.477,17.735-14.291,18.334a10.734,10.734,0,1,0,5.258,17.086A10.735,10.735,0,1,0,444.39,129.19Zm-2.322-15.448a134.118,134.118,0,0,1-.025,15.422,10.726,10.726,0,0,0-7.222,3.884,10.758,10.758,0,0,0-4.629-6.829A24.616,24.616,0,0,0,442.068,113.742ZM424.3,143.575a8.393,8.393,0,1,1,8.394-8.394A8.4,8.4,0,0,1,424.3,143.575Zm18.824,4.662a8.393,8.393,0,1,1,8.394-8.394A8.4,8.4,0,0,1,443.124,148.237Z" transform="translate(-387.533 -82.844)" fill="#73793b"/>
    </g>
  </g>
</svg>
