<svg xmlns="http://www.w3.org/2000/svg" width="80" height="80" viewBox="0 0 80 80">
  <g id="Group_7154" data-name="Group 7154" transform="translate(-567 -332)">
    <circle id="Ellipse_369" data-name="Ellipse 369" cx="40" cy="40" r="40" transform="translate(567 332)" fill="#f0fae5"/>
    <g id="Group_7153" data-name="Group 7153" transform="translate(559.071 325.038)">
      <path id="Path_16708" data-name="Path 16708" d="M47.929,6.962a40,40,0,1,0,40,40A40.044,40.044,0,0,0,47.929,6.962Zm0,77.973A37.974,37.974,0,1,1,85.9,46.962,38.017,38.017,0,0,1,47.929,84.935Z" fill="#73793b"/>
      <g id="pomegranate" transform="translate(-3.181 19.962)">
        <g id="Group_7203" data-name="Group 7203" transform="translate(31.11 0)">
          <g id="Group_7202" data-name="Group 7202" transform="translate(0)">
            <path id="Path_16749" data-name="Path 16749" d="M63.637,15.337a15.923,15.923,0,0,0-4.246-2.481h0a4.387,4.387,0,0,1-2.754-2.72c-.017-.08-.718-1.854,3.209-3.414a1.037,1.037,0,0,0,.62-.928,1.081,1.081,0,0,0-.531-.981A7.4,7.4,0,0,0,53.9,4.251L51.819.524a1.112,1.112,0,0,0-1.887,0h0L47.852,4.251a7.4,7.4,0,0,0-6.037.562,1.081,1.081,0,0,0-.531.981.984.984,0,0,0,.62.928c3.782,1.128,3.229,3.321,3.212,3.4a4.386,4.386,0,0,1-2.77,2.738h0a15.917,15.917,0,0,0-4.232,2.475c-3.306,2.636-7,9.634-7,15.054,0,4.666,1.4,13.05,10.766,16.783a24.863,24.863,0,0,0,9,1.324,24.866,24.866,0,0,0,9-1.324C69.241,43.441,70.64,35.057,70.64,30.391,70.64,24.971,66.943,17.973,63.637,15.337ZM59.074,45.165a22.917,22.917,0,0,1-8.2,1.171,22.922,22.922,0,0,1-8.2-1.171c-7.773-3.1-9.4-9.744-9.4-14.775,0-4.669,3.386-11.128,6.189-13.364a13.6,13.6,0,0,1,3.674-2.153l0,0,.01,0a6.545,6.545,0,0,0,4.066-4.227c.145-.509.511-2.578-2.256-4.627A3.973,3.973,0,0,1,47.69,6.6a1.081,1.081,0,0,0,1.538-.376l1.647-2.952,1.647,2.952A1.081,1.081,0,0,0,54.06,6.6a3.975,3.975,0,0,1,2.731-.583c-2.766,2.049-2.4,4.117-2.256,4.627A6.545,6.545,0,0,0,58.6,14.868l.009,0,0,0a13.6,13.6,0,0,1,3.674,2.153c2.8,2.236,6.189,8.7,6.189,13.364C68.478,35.421,66.847,42.068,59.074,45.165Z" transform="translate(-31.11 0)" fill="#73793b"/>
            <g id="Group_7201" data-name="Group 7201" transform="translate(4.954 17.495)">
              <path id="Path_16750" data-name="Path 16750" d="M66.565,132.231a1.082,1.082,0,0,1-1.054-1.324c.063-.274,1.615-6.729,7.437-9.417a1.081,1.081,0,1,1,.906,1.963c-4.871,2.249-6.224,7.884-6.237,7.941A1.082,1.082,0,0,1,66.565,132.231Z" transform="translate(-65.483 -121.39)" fill="#73793b"/>
            </g>
          </g>
        </g>
      </g>
    </g>
  </g>
</svg>
