<svg xmlns="http://www.w3.org/2000/svg" xmlns:xlink="http://www.w3.org/1999/xlink" width="139" height="76" viewBox="0 0 139 76">
  <defs>
    <clipPath id="clip-path">
      <rect id="Rectangle_3912" data-name="Rectangle 3912" width="139" height="76" transform="translate(37 120)" fill="#fff" stroke="#707070" stroke-width="1"/>
    </clipPath>
  </defs>
  <g id="Mask_Group_51" data-name="Mask Group 51" transform="translate(-37 -120)" clip-path="url(#clip-path)">
    <g id="Group_7408" data-name="Group 7408" transform="translate(49.832 110.271) rotate(7)">
      <g id="Group_7393" data-name="Group 7393" transform="translate(51.502 216.376)">
        <path id="Path_74621" data-name="Path 74621" d="M1021.968,591.852l-1.042,4.921-2.121,2.239-1.965-2.373.245-5.154Z" transform="translate(-1016.636 -591.484)" fill="#ffa880"/>
        <path id="Path_74622" data-name="Path 74622" d="M1017.935,606.669l-10.223-.381-.011-.752,0-.083a16,16,0,0,1-.181-1.683,14.664,14.664,0,0,1,.186-2.9l4.084.134s.425.221,1.05.557c.081.039.162.088.248.132.067.036.133.073.2.115.086.044.181.1.271.146.156.092.314.178.48.272.081.043.162.087.248.136h0l.2.108c.084.055.18.106.27.162.27.156.545.313.805.467a9.183,9.183,0,0,1,2.061,1.434,2.311,2.311,0,0,1,.285.918,3.246,3.246,0,0,1,.044.508A6.019,6.019,0,0,1,1017.935,606.669Z" transform="translate(-1007.497 -595.718)" fill="#342e38"/>
        <path id="Path_74623" data-name="Path 74623" d="M1017.732,608.5l-10.223-.382-.012-.751,7.317.319.212-1.352a11.971,11.971,0,0,1,.338-1.4,9.168,9.168,0,0,1,2.061,1.434,2.308,2.308,0,0,1,.285.919,3.279,3.279,0,0,1,.044.509A5.989,5.989,0,0,1,1017.732,608.5Z" transform="translate(-1007.295 -597.55)" fill="#f5e3dc"/>
      </g>
      <g id="Group_7394" data-name="Group 7394" transform="translate(24.332 216.895)">
        <path id="Path_74624" data-name="Path 74624" d="M1071.454,592.8l-1.042,4.921-2.12,2.239-1.966-2.373.245-5.154Z" transform="translate(-1066.122 -592.429)" fill="#ffa880"/>
        <path id="Path_74625" data-name="Path 74625" d="M1067.421,607.614l-10.224-.382-.011-.751,0-.083a15.9,15.9,0,0,1-.18-1.683,14.6,14.6,0,0,1,.185-2.9l4.083.135s.426.222,1.05.557c.082.039.162.087.248.132.066.036.133.073.2.114s.181.1.272.146c.156.092.313.179.479.272.082.044.163.087.248.137h.005l.2.109c.084.055.18.106.269.161.27.156.546.313.806.467a9.181,9.181,0,0,1,2.06,1.435,2.313,2.313,0,0,1,.285.918,3.411,3.411,0,0,1,.045.509A5.984,5.984,0,0,1,1067.421,607.614Z" transform="translate(-1056.984 -596.663)" fill="#342e38"/>
        <path id="Path_74626" data-name="Path 74626" d="M1067.218,609.447l-10.224-.382-.011-.752,7.317.319s.089-.57.212-1.352a11.688,11.688,0,0,1,.338-1.4,9.176,9.176,0,0,1,2.06,1.435,2.318,2.318,0,0,1,.285.918,3.407,3.407,0,0,1,.045.508A5.99,5.99,0,0,1,1067.218,609.447Z" transform="translate(-1056.781 -598.495)" fill="#f5e3dc"/>
      </g>
      <path id="Path_74627" data-name="Path 74627" d="M987.857,330.729l2.407,1.343c2.658,1.484,4.356,5.681,3.164,8.482a3.859,3.859,0,0,1-4.5,2.269,45.52,45.52,0,0,1-6.48-1.822q-1.553-.535-3.086-1.123a6.8,6.8,0,0,0-1.26-.491Z" transform="translate(-915.712 -257.52)" fill="#f28057"/>
      <path id="Path_74628" data-name="Path 74628" d="M997.865,310.946c5.355,1.089,22.014,10.609,22.312,11.1s-5.157,13.387-6.842,13.883-1.686-.892-5.653-.595-3.47,1.7-6.247.7-3.074-2.389-5.751-1.694-2.975,2.38-3.967.2-3.669-6.446-3.768-8.528S992.51,309.856,997.865,310.946Z" transform="translate(-947.49 -248.572)" fill="#576899"/>
      <path id="Path_74629" data-name="Path 74629" d="M1043.71,439.334c2.552,5.111,4.176,7.925,8.032,12.048,2.118,2.267,4.32,5.938,6.468,8.282l.256.274c2.219,2.314,4.51,3.8,3.6,7.372-.4,1.559-.874,3.124-1.178,4.712a12.755,12.755,0,0,0-.072,5.242c.893,4.016-2.379,10.412-2.231,14.131.107,2.719,1.411,5.456.452,8.145-.339.952-.934,1.8-1.321,2.731-.613,1.481-1.249,9.406,1.463,9.65,1.636.149,13.274,0,13.274,0s10.175-42.838,9.306-50.275-8.9-31.98-9.49-32.278a72.263,72.263,0,0,1-3-7.134c-.53-1.315-1.089-2.689-1.655-4.016-1.725-4.028-3.463-7.574-4.349-7.443-2.005.3-20.9,7.14-20.9,7.14l-.065.5c-.136,1.083-.44,3.844-.53,7.128C1041.64,430.148,1041.931,435.782,1043.71,439.334Z" transform="translate(-1038.653 -293.615)" fill="#71433d"/>
      <path id="Path_74630" data-name="Path 74630" d="M992.569,423.01s8.318,13.381,15.487,25.893l.053.09c1.184,2.058,2.332,4.093,3.4,6.045l.012.024a127.428,127.428,0,0,1,5.92,11.739,7.9,7.9,0,0,1,.809,3.022c-.6,4.54-.375,15.958-.97,20.271s1.761,6.247-.595,10.561a5.636,5.636,0,0,0-.845,4.046c.321,1.446,1.315,2.338,1.386,3.391.065.964-.708,2.183-1.3,3.522a5.017,5.017,0,0,0-.458,3.617c.893,2.678,13.738,1.488,13.738,1.488s12.186-44.772,12.1-51.9c-.095-7.646-24.281-42.749-24.281-42.749Z" transform="translate(-971.149 -298.71)" fill="#71433d"/>
      <path id="Path_74631" data-name="Path 74631" d="M1033.661,424.422a3.422,3.422,0,0,1,.577-.137,48.358,48.358,0,0,1,6.83-.137c2.255-.018,4.516-.024,6.771-.024q5.569.009,11.132.1c.8.011,1.606.024,2.409.041,2.047.042,7.563-.368,7.455,2.892,2.921-.137,5.848-.22,8.776-.214a.3.3,0,0,1,0,.595c-5.67-.005-11.335.3-16.987.7-2.4.173-4.808.357-7.205.535a117.217,117.217,0,0,0-11.8,1.333c-2.826.512-5.646,1.077-8.491,1.44C1033.221,428.267,1033.525,425.505,1033.661,424.422Z" transform="translate(-1030.007 -299.623)" fill="#5c2f29"/>
      <path id="Path_74632" data-name="Path 74632" d="M1070.946,305.6a26.313,26.313,0,0,1-5.04-1.323,9.625,9.625,0,0,1-2.121-1.479l-3.911.675a11.246,11.246,0,0,1-3.218,1.252c-2.317.576-3.932.778-4.22.911s.331,2.541,2.768,3.743,1.715,2.56,5.441,1.505,8.791-2.169,9.279-3.137S1070.946,305.6,1070.946,305.6Z" transform="translate(-1033.62 -244.924)" fill="#ffa880"/>
      <g id="Group_7395" data-name="Group 7395" transform="translate(25.369 41.36)">
        <path id="Path_74633" data-name="Path 74633" d="M1061.557,277.538c.648,2.372,1.645,7.233.217,9.492-1.792,2.836-6.573,1.887-9.354,1.054a12.887,12.887,0,0,1-2.306-4.285,60.331,60.331,0,0,1-.833-6.049.181.181,0,0,1,0-.232c1.759-2.357,3.87-4.587,7-4.785C1059.328,272.54,1060.83,274.882,1061.557,277.538Z" transform="translate(-1048.828 -272.722)" fill="#ffa880"/>
        <path id="Path_74634" data-name="Path 74634" d="M1066.413,296.711l-.149,1.015-.335,2.26-.612,4.162-.2.025a.284.284,0,0,1-.2-.023c-1.3-.147-2.633-.022-3.934-.09-1.073-.055-2.634-.073-3.474-.875s-.46-1.665-.174-2.544c.771-2.387,2.083-8.351,2.083-8.351Z" transform="translate(-1056.993 -281.546)" fill="#ffa880"/>
        <path id="Path_74635" data-name="Path 74635" d="M1060.347,301.18l-.335,2.26c-.058-.017-.119-.032-.181-.052-.392-.114-.183-.361-.748-.832s-.4-.335-.6-.818-.883-.626-1.13-1.219.072-.584.181-.56a12.448,12.448,0,0,0,1.335.76A9.447,9.447,0,0,0,1060.347,301.18Z" transform="translate(-1051.076 -285)" fill="#f28057"/>
      </g>
      <path id="Path_74636" data-name="Path 74636" d="M1052.819,276.44a4.293,4.293,0,0,0,.384,2.245c.679,1.46,2.722,5.177,2.722,5.177a27.266,27.266,0,0,0,1.271-2.932c-.469-1.105-.88-2.418-.438-3.393a1.332,1.332,0,0,1,1.862-.636.512.512,0,0,0-.01-.137,7.3,7.3,0,0,1-.216-1.41,2.17,2.17,0,0,1,.654-1.587,4.84,4.84,0,0,1,2.8-1.374,6.465,6.465,0,0,1,4.387.766c.087-.519.53-3.367-.4-4.248a2.758,2.758,0,0,0-2.4-.631c-2.145-1.27-5-1.974-6.795-.156a3.261,3.261,0,0,0-2.423.3,2.038,2.038,0,0,0-.2.14,2.66,2.66,0,0,0-.971,2.8,4.384,4.384,0,0,0-1.18,3.217A3.048,3.048,0,0,0,1052.819,276.44Z" transform="translate(-1028.809 -228.792)" fill="#342e38"/>
      <path id="Path_74637" data-name="Path 74637" d="M1025.762,373.888c0,.107.6.172,1.619.2,3.284.089,10.929-.2,16.7-.559,2.219-.143,4.164-.292,5.479-.44,5.777-.642,24,1.922,26.375,1.988s1.666-1.541,1.636-4.373-1.636-62-1.636-62-12.857-2.445-13.774-2.041-2.719,2.683-6.586,2.6-6.14-4.147-9.24-3.1c-2.666.9-8.181,1.582-12.245,5.253-2.891,2.606-3.641,10.936-3.82,20.229a173.55,173.55,0,0,1-2.427,23.5C1026.9,361.114,1025.762,372.02,1025.762,373.888Z" transform="translate(-1025.762 -246.364)" fill="#6e7ca6"/>
      <path id="Path_74638" data-name="Path 74638" d="M1057.523,324.513l-12.9-8.826s3.5-.074,4.469,1.041,1.79.74,4.464,1.82,2.818,1.75,3.677,3.089,5.1,1.534,5.1,1.534l-1.255,3.126Z" transform="translate(-1020.749 -250.737)" fill="#576899"/>
      <path id="Path_74639" data-name="Path 74639" d="M975.148,275.258a2.756,2.756,0,0,1,.076.862,2.286,2.286,0,0,0,.179.936,3.14,3.14,0,0,0,.209-.634c.071-.318.134-.64.2-.961.12-.619.23-1.241.356-1.857.051-.246.343-1.78.665-1.656.227.088.154,1.182.119,1.48a17.927,17.927,0,0,0-.123,2.257s.361-1.628.545-2.409c.107-.452.316-1.363.592-1.215.245.132.078,1.219.019,1.558-.128.738-.361,2.346-.361,2.346l.488-1.572c.094-.3.19-.605.307-.894.077-.19.217-.643.447-.434.138.127.106.366.091.542a5.585,5.585,0,0,1-.085.584c-.068.356-.157.7-.254,1.048-.024.085-.049.17-.075.254a3.939,3.939,0,0,1,.532-.983c.1-.085.282.005.282.219,0,.264-1.16,4.392-1.289,4.9a2.461,2.461,0,0,1-.4,1.067.121.121,0,0,1-.049.037.781.781,0,0,1-.5.161,12.455,12.455,0,0,1-2.256-.567,7.756,7.756,0,0,1-.549-2.169c-.013-.6.226-1.2.229-1.789,0-.317,0-1.332.421-1.265A.252.252,0,0,1,975.148,275.258Z" transform="translate(-899.166 -231.009)" fill="#ffa880"/>
      <path id="Path_74640" data-name="Path 74640" d="M983.362,314.824c-.338-6.752-1.6-28.021-1.6-28.021l-3.2-.354s-4.541,24.12-4.548,29.933C974.007,326.3,983.835,324.313,983.362,314.824Z" transform="translate(-903.034 -237.552)" fill="#ffa880"/>
      <path id="Path_74641" data-name="Path 74641" d="M1037.409,340.885c.042-.036,2.677.94,5.563,1.975,2.838,1.012,5.914,2.083,7,2.3a3.86,3.86,0,0,0,4.545-2.177c1.25-2.779-.368-7.009-3-8.544l-5.337-2.684a.02.02,0,0,1-.006.012Z" transform="translate(-1009.403 -257.984)" fill="#ffa880"/>
      <path id="Path_74642" data-name="Path 74642" d="M1066.08,275.735a4.381,4.381,0,0,1,1.18-3.217,2.661,2.661,0,0,1,.971-2.8,1.979,1.979,0,0,1,.205-.14,2.037,2.037,0,0,0,.225,1.791c.162.257.551.527.664.841.254.7-.2.886-.293,1.548-.2,1.447,2.552,2.022,3.426,2.644.05.032.094.07.145.1a7.266,7.266,0,0,0,.216,1.41.53.53,0,0,1,.01.137,1.333,1.333,0,0,0-1.863.636c-.443.975-.031,2.287.438,3.393a27.249,27.249,0,0,1-1.272,2.932s-2.043-3.717-2.722-5.176a4.3,4.3,0,0,1-.384-2.245A3.045,3.045,0,0,1,1066.08,275.735Z" transform="translate(-1043.017 -229.945)" fill="#1e1721"/>
      <g id="Group_7397" data-name="Group 7397" transform="translate(41.455 0)">
        <path id="Rectangle_3907" data-name="Rectangle 3907" d="M0,0H5.057a0,0,0,0,1,0,0V.974A2.529,2.529,0,0,1,2.529,3.5h0A2.529,2.529,0,0,1,0,.974V0A0,0,0,0,1,0,0Z" transform="translate(17.529 26.188) rotate(146.593)" fill="#df6062"/>
        <path id="Rectangle_3908" data-name="Rectangle 3908" d="M8.406,0h.939A8.406,8.406,0,0,1,17.75,8.406v.321a0,0,0,0,1,0,0H0a0,0,0,0,1,0,0V8.406A8.406,8.406,0,0,1,8.406,0Z" transform="translate(34.412 54.633) rotate(165.265)" fill="#342e38"/>
        <path id="Path_74643" data-name="Path 74643" d="M994.879,311.435h0a2.69,2.69,0,0,0,1.414-3.531l-7.955-18.586-4.945,2.117,7.955,18.586A2.69,2.69,0,0,0,994.879,311.435Z" transform="translate(-962.767 -238.846)" fill="#342e38"/>
        <path id="Path_74644" data-name="Path 74644" d="M1033.186,283.257l3.008-1.288-4.253-9.937-3.008,1.288a5.4,5.4,0,0,0-2.843,7.095h0A5.4,5.4,0,0,0,1033.186,283.257Z" transform="translate(-1025.654 -231.051)" fill="#342e38"/>
        <path id="Path_74645" data-name="Path 74645" d="M1001.849,261.069l2.778,6.5,3.291,7.675a4.584,4.584,0,0,0,5.343,2.641l9.788-2.481-1.809-4.23-9.115-21.294-3.709,2.4C1005.467,254.187,999.9,256.512,1001.849,261.069Z" transform="translate(-999.216 -221.061)" fill="#6e7ca6"/>
        <path id="Path_74646" data-name="Path 74646" d="M1006.524,284.455a27.336,27.336,0,0,0,5.445,1.008c1,.107,2.005.293,3.01.313a19.168,19.168,0,0,1,3.078-.075l1.809,4.23-9.788,2.481a4.584,4.584,0,0,1-5.343-2.642l-3.291-7.675c.11.256,1.392.714,1.688.874a23.955,23.955,0,0,0,2.292,1.084C1005.786,284.2,1006.153,284.336,1006.524,284.455Z" transform="translate(-996.033 -235.589)" fill="#576899"/>
        <path id="Path_74647" data-name="Path 74647" d="M929.8,232.3a83.528,83.528,0,0,0,4.052,12.976,80.714,80.714,0,0,0,4.266,8.282c1.458,2.5,2.606,4.266,2.606,4.266l29.3-8.2,3.588-1.005.6-.167.22-.059,1.636-.465,4-1.112L964.694,210.9l-3.546,2.178-1.41.863-.048.024-.482.3Z" transform="translate(-916.896 -203.483)" fill="#342e38"/>
        <path id="Path_74648" data-name="Path 74648" d="M948.086,285.365q1.252,2.163,2.6,4.268c0-.248,5.284-1.479,5.817-1.628l5.936-1.661,11.362-3.18c2.06-.576,4.116-1.171,6.182-1.73-2.942.363-11.039,2-14.24,2.4-7.295.918-9,1.332-11.624,1.332C952.107,285.17,950.094,285.277,948.086,285.365Z" transform="translate(-926.856 -235.291)" fill="#1e1721"/>
        <path id="Path_74649" data-name="Path 74649" d="M913.113,204.83s.44,5.563,6.438,19.569c1.416,3.3,2.66,5.962,3.736,8.1,2.862,5.676,4.552,7.652,5.069,8.181a1.139,1.139,0,0,0,.125.125.374.374,0,0,0,.047.042s3.51,2.16,5.48,1.969a10.663,10.663,0,0,0,3.385-1c.19-.095.3-.155.3-.155l-4.469-10.442L929.2,221.81l-.672-1.571q-2.562-5.979-5.117-11.959-1.5-3.489-2.993-6.991a29.335,29.335,0,0,0-1.6-3.653,7.873,7.873,0,0,0-3.891,2.755C914.149,201.426,913.006,203.491,913.113,204.83Z" transform="translate(-865.356 -197.502)" fill="#6e7ca6"/>
        <path id="Path_74650" data-name="Path 74650" d="M909.954,197.645l14.369,33.574,4.486,10.478.292-.125a.125.125,0,0,0,.048-.024c2.749-1.22,1.523-4.742,1.024-6.878a69.364,69.364,0,0,0-2.07-6.967c-.285-.815-.583-1.636-.881-2.445-.952-2.576-1.981-5.117-3.058-7.639-2.668-6.251-4.585-13.16-9.7-17.948-.9-.839-2.807-2.768-4.226-2.162A2.49,2.49,0,0,0,909.954,197.645Z" transform="translate(-856.812 -197.392)" fill="#6e7ca6"/>
        <path id="Path_74651" data-name="Path 74651" d="M915.63,256.978c1.268-.167,2.267-.482,3.32-.714.2-.042.387-.089.583-.149.119-.036.238-.071.357-.113a5.228,5.228,0,0,0,2.945-2.225,4.675,4.675,0,0,0,.476-1.178,69.174,69.174,0,0,1,2.071,6.968c.5,2.136,1.725,5.658-1.023,6.877v.006s-.107.06-.3.149a10.661,10.661,0,0,1-3.385,1c-1.969.191-5.48-1.969-5.48-1.969a.388.388,0,0,1-.047-.042q.009-.063-.125-.125c-.518-.529-2.207-2.5-5.069-8.181A46.588,46.588,0,0,0,915.63,256.978Z" transform="translate(-852.023 -222.288)" fill="#576899"/>
        <path id="Path_74652" data-name="Path 74652" d="M919.859,219.609c.488,1.255,1.024,2.547,1.583,3.855.416.976.839,1.933,1.261,2.856,1.363,3.005,2.731,5.741,4,8.05,2.713,4.908,5.022,7.907,6,7.485.958-.41.428-4-1.172-9.169a121.183,121.183,0,0,0-4.355-11.679c-4.635-10.834-9.686-19.075-11.269-18.4C914.516,203.2,916.265,210.493,919.859,219.609Z" transform="translate(-862.131 -199.727)" fill="#342e38"/>
        <path id="Path_74653" data-name="Path 74653" d="M930.886,236.693c.417.973.84,1.932,1.262,2.858a3.645,3.645,0,0,0-2.846-6.71C929.793,234.094,930.326,235.386,930.886,236.693Z" transform="translate(-870.881 -213.255)" fill="#6e7ca6"/>
        <g id="Group_7396" data-name="Group 7396" transform="translate(42.31 10.455)">
          <path id="Path_74654" data-name="Path 74654" d="M954.874,251.114l.6-.165a131.609,131.609,0,0,1-8.6-16.764A126.952,126.952,0,0,1,941,216.434l-.047.027-.487.3a129.245,129.245,0,0,0,5.854,17.654A131.9,131.9,0,0,0,954.874,251.114Z" transform="translate(-940.468 -216.434)" fill="#6e7ca6"/>
        </g>
      </g>
      <path id="Path_74655" data-name="Path 74655" d="M1019.1,281.639a2.758,2.758,0,0,1-.139.854,2.278,2.278,0,0,0-.058.951c.021.048.343-.531.359-.563.147-.291.288-.586.427-.882.27-.569.53-1.146.8-1.712.109-.225.773-1.639,1.054-1.439.2.141-.143,1.183-.25,1.463a17.938,17.938,0,0,0-.677,2.157s.752-1.488,1.124-2.2c.216-.412.644-1.242.875-1.029.2.188-.226,1.2-.367,1.514-.307.684-.931,2.183-.931,2.183l.862-1.4c.166-.27.334-.539.519-.791.122-.166.37-.57.541-.31.1.157.013.38-.045.548a5.623,5.623,0,0,1-.228.545c-.154.328-.326.644-.506.953-.044.076-.089.153-.135.227a3.946,3.946,0,0,1,.758-.821c.12-.057.273.075.219.282-.066.255-2.21,3.968-2.461,4.424a2.465,2.465,0,0,1-.649.936.12.12,0,0,1-.057.024.782.782,0,0,1-.529.032,12.468,12.468,0,0,1-2.046-1.107,7.743,7.743,0,0,1,0-2.237c.135-.582.515-1.1.664-1.676.08-.307.33-1.29.721-1.122A.252.252,0,0,1,1019.1,281.639Z" transform="translate(-966.841 -234.115)" fill="#ffa880"/>
      <path id="Path_74656" data-name="Path 74656" d="M1032.394,320.627c1.345-6.625,5.387-27.545,5.387-27.545l-3.008-1.133s-10.369,22.246-11.816,27.876C1020.491,329.429,1030.5,329.938,1032.394,320.627Z" transform="translate(-984.092 -240.032)" fill="#ffa880"/>
      <path id="Path_74657" data-name="Path 74657" d="M1066.833,346.208a38.878,38.878,0,0,1-3.613,3.074c-.3,0-14.082-5.4-14.627-5.7s3.793,4.174,5.182,5.117,2.727.486,5.057,1.279,1.413,2.529,5.363,2.008c1.909-.252,2.5-4.041,5.421-3.049s8.635,1.246,8.635,1.246Z" transform="translate(-1038.826 -263.309)" fill="#576899"/>
      <path id="Path_74658" data-name="Path 74658" d="M1087.767,415.035a5.288,5.288,0,0,0,1.69-1.963,6.992,6.992,0,0,1,.738-1.69,15.654,15.654,0,0,1,2.3-1.9,14.252,14.252,0,0,0,2.856-3.35c1.285-2.094,1.606-4.754,3.142-6.693.708-.892,2.392-2.052,3.189-.607.976,1.785-.869,4.052-1.594,5.539-.881,1.8-.577,3.136.047,4.926a3.212,3.212,0,0,1,.2,1.3,2.471,2.471,0,0,0,1.219,2.5,6.082,6.082,0,0,1,2.136,2c-5.771.363-13.417.648-16.7.56C1087.25,415.445,1087.511,415.243,1087.767,415.035Z" transform="translate(-1085.369 -287.921)" fill="#ebccbe"/>
      <path id="Path_74659" data-name="Path 74659" d="M1053.384,340.9c.041-.036,2.678.94,5.563,1.975.011-.19.083-.976.446-3.814a22.343,22.343,0,0,1,2.755-7.277Z" transform="translate(-1025.378 -257.994)" fill="#f28057"/>
      <path id="Path_74660" data-name="Path 74660" d="M1033.344,464.035l.053.089,3.4,6.045.012.024a127.47,127.47,0,0,1,5.92,11.739c1.059-1.083,2.19-2.874.9-4.771-2.083-3.07-.2-2.874-1.119-6.444s-3.439-3.57-3.641-6.146,2.38-8.431,1.19-8.925S1033.344,464.035,1033.344,464.035Z" transform="translate(-996.437 -313.843)" fill="#5c2f29"/>
      <path id="Path_74661" data-name="Path 74661" d="M1070.637,497.658c1.113-.63,2.117-1.469,3.2-2.159a2.416,2.416,0,0,1,2.171-.553c1.148.47.833,1.785.244,2.582a10.821,10.821,0,0,0-1.225,1.559,1.564,1.564,0,0,0,.024,1.809,3.5,3.5,0,0,1,.387.2c.3.416.589.63.655,1.2.22,2.017-2.4,3.3-3.5,4.563-.815.929-1.517,2.66-2.809,3.07.3-1.588.78-3.153,1.178-4.712.91-3.575-1.38-5.057-3.6-7.371l-.256-.274C1068.275,497.962,1069.423,498.337,1070.637,497.658Z" transform="translate(-1047.546 -331.526)" fill="#5c2f29"/>
      <path id="Path_74662" data-name="Path 74662" d="M917.783,258.437c.2-.042.386-.089.583-.149.119-.036.238-.071.357-.113a6.369,6.369,0,0,0,1.541-.755c1.6,5.17,2.131,8.758,1.173,9.169-.982.423-3.29-2.576-6-7.485A6.648,6.648,0,0,1,917.783,258.437Z" transform="translate(-809.402 -224.462)" fill="#1e1721"/>
      <path id="Path_74663" data-name="Path 74663" d="M1052.562,291.6a.564.564,0,0,1,.282-.1c.466-.032.748.541.82.924.064.337.013.883-.329,1.067-.462.248-.965-.365-1.077-.756A1.1,1.1,0,0,1,1052.562,291.6Z" transform="translate(-1016.276 -239.833)" fill="#df6062"/>
    </g>
  </g>
</svg>
