<svg xmlns="http://www.w3.org/2000/svg" width="376" height="320.637" viewBox="0 0 376 320.637">
  <path id="Subtraction_6" data-name="Subtraction 6" d="M-873.981,889h-376V568.363A31.443,31.443,0,0,0-1246.16,583a51.644,51.644,0,0,0,10.955,13.7,97.531,97.531,0,0,0,17.332,12.4,169.4,169.4,0,0,0,22.956,10.8,258.805,258.805,0,0,0,27.823,8.914c10.051,2.636,20.8,4.9,31.935,6.73a453.251,453.251,0,0,0,73.178,5.744A453.219,453.219,0,0,0-988.8,635.55c11.141-1.83,21.885-4.094,31.935-6.73a258.242,258.242,0,0,0,27.824-8.914,169.051,169.051,0,0,0,22.956-10.8,97.459,97.459,0,0,0,17.334-12.4,51.659,51.659,0,0,0,10.955-13.7,31.443,31.443,0,0,0,3.818-14.493Z" transform="translate(1249.981 -568.363)" fill="#fff"/>
</svg>
