<svg xmlns="http://www.w3.org/2000/svg" xmlns:xlink="http://www.w3.org/1999/xlink" width="320" height="320" viewBox="0 0 320 320">
  <defs>
    <clipPath id="clip-path">
      <path id="Mask" d="M0,0H268.164L240.423,275.561,42.536,295.9Z" fill="none"/>
    </clipPath>
    <clipPath id="clip-path-2">
      <path id="Clip_2" data-name="Clip 2" d="M0,0H33.272V15.278H0Z" fill="none"/>
    </clipPath>
  </defs>
  <g id="Group_8135" data-name="Group 8135" transform="translate(6911 -3308)">
    <rect id="Rectangle_4149" data-name="Rectangle 4149" width="320" height="320" transform="translate(-6911 3308)" fill="none"/>
    <g id="Illustration_Verified-No" data-name="Illustration / Verified-No" transform="translate(-6894 3320)">
      <path id="Shape" d="M3.129,214.887c-11.263,25.746,9.421,54.064,37.421,51.23,59.127-5.989,147.721-15.1,209.13-21.435,30.472-3.14,45.643-38.444,26.94-62.658L146.2,13.194C130.45-7.2,98.554-3.281,88.231,20.324Z" transform="translate(1.849 29.59)" fill="#ffe3d3"/>
      <g id="Group" transform="matrix(1, 0.017, -0.017, 1, 195.481, 5.237)">
        <path id="Fill_4" data-name="Fill 4" d="M.018,9.993,4.53,82.012a11.556,11.556,0,0,0,23.039.544l7.919-72.382A9.135,9.135,0,0,0,26.334,0L8.95.243A9.134,9.134,0,0,0,.018,9.993" transform="translate(1.223 0)" fill="#2c2c2c"/>
        <path id="Fill_6" data-name="Fill 6" d="M34.634,23.371A17.767,17.767,0,1,1,23.373.909,17.763,17.763,0,0,1,34.634,23.371" transform="translate(0 111.27)" fill="#2c2c2c"/>
      </g>
      <g id="Girl">
        <path id="Mask-2" data-name="Mask" d="M0,0H268.164L240.423,275.561,42.536,295.9Z" fill="none"/>
        <g id="Girl-2" data-name="Girl" clip-path="url(#clip-path)">
          <g id="Girl-3" data-name="Girl" transform="translate(44.386 12.946)">
            <g id="Group_3" data-name="Group 3" transform="translate(10.73 537.117)">
              <path id="Clip_2-2" data-name="Clip 2" d="M0,0H33.272V15.278H0Z" transform="translate(0 0)" fill="none"/>
              <g id="Group_3-2" data-name="Group 3" transform="translate(0 0)" clip-path="url(#clip-path-2)">
                <path id="Fill_1" data-name="Fill 1" d="M33.078,1.749c-3.01-1.9-7.583-1.728-11-1.748A57.07,57.07,0,0,0,9.584,1.348a.41.41,0,0,0-.551-.22C3.809,3.557,1.745,9.038.016,14.147a.393.393,0,0,0,.271.482c6.424,1.217,13.33.584,19.7-.756,2.812-.591,4.033-2.716,5.845-4.747a53.446,53.446,0,0,1,7.322-6.764.394.394,0,0,0-.076-.613" transform="translate(0 0)" fill="#1f2033"/>
              </g>
            </g>
            <path id="Fill_4-2" data-name="Fill 4" d="M44.345,31.642c-.66-1.386-.456-6.431-1.436-10.742a37.691,37.691,0,0,0-4.133-9.8,18.345,18.345,0,0,0-4.153-5.42c-2.012-1.693-4.449-2.1-6.913-2.614-1.99-.147-3.54-1.111-5.392-1.917C14.663-2.186,6.928,2.347.945,7a.386.386,0,0,0-.421.26c-.011.031-.018.061-.027.091l-.363.287c-.257.206-.106.507.137.607-.382,2.262.59,4.414,1.513,6.521q2.039,4.65,4.092,9.3c2.807,6.378,5.912,12.686,7.675,19.453,1.393,5.351,2.523,11.084,6.294,15.362,1.889,2.143,4.206,3.262,6.768,4.411,2.665,1.194,4.392,3.079,6.6,4.887,2.14,1.752,4.148,1.882,6.824,1.515a20.8,20.8,0,0,1,12.03,1.837.4.4,0,0,0,.534-.14c1.264-2.757.606-5.57-.041-8.4a16.057,16.057,0,0,1-.611-5.452c.252-2.106,1.633-3.818,2-5.888.584-3.331-1.581-7.007-3.122-9.806-1.94-3.525-4.75-6.562-6.479-10.191" transform="translate(86.39)" fill="#ab614f"/>
            <path id="Fill_6-2" data-name="Fill 6" d="M14.283,17.915a5.136,5.136,0,0,0-.114-3.181c-.578-2.342-.95-3.93.188-6.185A12.268,12.268,0,0,0,15.785,5.2,9.918,9.918,0,0,0,14.977.267a.4.4,0,0,0-.767.1C11.674,1.671,9.779,4.308,8.179,6.592c-1.994,2.847-3.783,5.86-5.633,8.8C1.426,17.177-.018,19.508,0,21.765c2.539,1.2,4.238,3.023,6.383,4.779a7.548,7.548,0,0,0,1.871,1.137c.12-.789.146-1.6.2-2.03a6.9,6.9,0,0,1,3.2-5.395c.88-.653,2.17-1.285,2.633-2.342" transform="translate(113.187 41.611)" fill="#1f2033"/>
            <path id="Fill_8" data-name="Fill 8" d="M22.972.007Q16.563,1.143,10.226,2.639c-2.049.488-4.1.985-6.128,1.552A7.285,7.285,0,0,0,.6,5.984a.4.4,0,0,0-.553.531c2.276,4.429,7.73,9.121,13.116,8.038,2.533-.509,4.266-2.531,5.655-4.562a38.357,38.357,0,0,0,4.635-9.5c.1-.306-.209-.528-.48-.48" transform="translate(113.601 535.44)" fill="#1f2033"/>
            <path id="Fill_10" data-name="Fill 10" d="M65.237,24.386a4.7,4.7,0,0,0-.922-6.8A7.54,7.54,0,0,0,65.5,15.759c.924-2.14.507-1.432-1.121-2.174L53.063,8.8c-2.632-1.2-7.165-3.362-8.093-6.38-.009-.07-.024-.136-.029-.206l0-.03a6.476,6.476,0,0,0,0-1.42.985.985,0,0,0-.121-.236.313.313,0,0,0-.358-.317C43.6-.25,41.975.179,41.145.2Q34.3.388,27.474.956a41.773,41.773,0,0,0-4.231.283.369.369,0,0,0-.624-.146L22.6,1.11a.357.357,0,0,0-.429.072C19.943,3.4,18.437,5.256,15.727,6.8,12.976,8.374,2.84,11.9,1.416,12.593c-.738.36-.8.956-.816,1.75a7.793,7.793,0,0,0,1.118,2.747c.034.066.071.13.1.2A9.809,9.809,0,0,0,.257,25.229C1.5,30.52,5.764,35.356,8.929,39.637c6.333,8.563,13.119,16.83,17.984,26.318a4.09,4.09,0,0,0,2.464,4.685c2.581,2.63,8.231-.213,7.143-4.246L40,60.862a4.255,4.255,0,0,0,.652-1.762c3.492-4.036,5.983-10.913,7.174-14.571L65.237,24.386" transform="translate(68.138 78.101)" fill="#fea689"/>
            <path id="Fill_12" data-name="Fill 12" d="M149.805,59.037c-.577-2.172-1.125-4.351-1.628-6.542q-1.424-6.206-2.414-12.5c-.676-4.294-.947-8.661-1.711-12.937a25.01,25.01,0,0,0-4.225-9.855,52.069,52.069,0,0,0-7.287-8.7C127.09,3.473,119.6,2.227,112.484,1.36c-.536.989-1.1,1.948-1.651,2.87-2.759,4.589-6.02,8.837-9.113,13.2C97.86,22.87,94.392,28.577,90.487,33.993a172.436,172.436,0,0,1-14.073,17.28.4.4,0,0,1-.552,0c-7.175-7.041-10.673-16.942-16.35-25.093C54.055,18.344,48.834,9.681,48.226,0c-3.719,1.505-7.4,3.1-11,4.876a105.146,105.146,0,0,0-11.335,6.429,30.175,30.175,0,0,0-8.508,7.611c-2.348,3.349-3.788,7.234-5.263,11.018L6.8,43.609,1.474,57.284c-.468,1.2-1.91,3.371-1.345,4.666.428.981,2.107,1.541,3.017,1.907A41.408,41.408,0,0,1,9.7,66.6c1.941,1.19,3.747,2.568,5.76,3.645A33.493,33.493,0,0,0,27.217,73.91a85.7,85.7,0,0,1,0,15.33,26.424,26.424,0,0,0,2.948,14.541c1.7,3.316,3.544,8.005,7.827,8.286,2.581.169,5.367-.46,7.931-.721q4.59-.466,9.189-.843,17.627-1.441,35.329-1.545c5.305-.031,10.625.235,15.926.121,3.743-.08,7.869-.65,10.546-3.544a14.51,14.51,0,0,0,2.971-6.292c.83-3.112,1.557-6.256,2.332-9.383,1.493-6.029,3.305-13.741,4.839-19.985.543-.15,1.063-.3,1.531-.419q6.446-1.607,12.888-3.235c2.046-.517,4.118-.978,6.145-1.562a3.436,3.436,0,0,0,2.538-1.833c.488-1.2-.039-2.623-.349-3.789" transform="translate(21.451 90.433)" fill="#fafafa"/>
            <path id="Fill_14" data-name="Fill 14" d="M47.212,5.557c-1.185-.807-2.3-2.087-3.6-2.694a6.536,6.536,0,0,0-1.669-.371,6.14,6.14,0,0,1-2.565-1.3A6.145,6.145,0,0,0,35.422.006C31.994.141,28.681,2.027,25.4,2.9a31.828,31.828,0,0,1-6.938,1.122c-2.231.088-4.457-.075-6.678.218A42.793,42.793,0,0,0,.66,7.823a.309.309,0,0,0-.244.1L.2,8.019c-.46.2-.063.871.394.674l.131-.056c3.59,1.19,7.453.891,11.167,1.381,3.973.525,7.874,1.473,11.832,2.091a69.85,69.85,0,0,0,11.812.758c2.039-.029,4.077-.124,6.112-.248.851-.052,1.759-.052,2.662-.089A9.015,9.015,0,0,0,46.177,11a11.67,11.67,0,0,0,2.345-4.215,4.927,4.927,0,0,0-1.31-1.229" transform="translate(92.216 184.934)" fill="#1f2033"/>
            <path id="Fill_16" data-name="Fill 16" d="M164.051,169.751c-.95-14.163-3.317-28.2-3.922-42.393-.585-13.756,1.49-27.219,2.764-40.87,1.377-14.76.757-28.916-5.3-42.642-6.252-14.174-13.907-27.839-20.964-41.634a.814.814,0,0,0-.416-1.461c-25.7-2.07-52.629.223-77.8,5.815a.664.664,0,0,0-.548.724.627.627,0,0,0-.1.443c1.69,13.376,3.025,26.647-.112,39.927-2.688,11.381-7.474,22.113-10.731,33.323-3.47,11.947-3.672,23.528-2.849,35.867a133.612,133.612,0,0,1,.4,19.1,73.124,73.124,0,0,1-4.246,18.624c-3.726,10.617-8.853,20.868-10.792,32.033-2.12,12.208,2.31,23.75,1.7,35.9-1.049,20.807-18.241,36.286-22.157,56.317-2.643,13.519,2.988,27.252-.5,40.663C5.595,330.577-2,340.826.5,352.757a.78.78,0,0,0,.753.573,446.3,446.3,0,0,1,56.038-2.522.794.794,0,0,0,.781-.781c.4-9.21.8-18.541,3.426-27.439,2.189-7.411,5.873-14.274,8.158-21.651,4.96-16.013-.87-33.152,5.464-48.888C78,244.89,82.3,238.407,85.273,231.288c2.882-6.895,3.833-14.133,4.336-21.532.606-8.928,1.16-17.612,3.907-26.2,1.317-4.117,2.9-8.141,4.444-12.175A75.791,75.791,0,0,1,100.5,187.86c.169,7.771-1.191,15.46-1.962,23.167-1.54,15.388.724,30.773-.028,46.175a90.117,90.117,0,0,1-4.437,23.118c-2.044,6.445-4.091,12.974-3.717,19.817.458,8.383,3.694,16.323,4.7,24.635a73.568,73.568,0,0,1-1.9,27.162.79.79,0,0,0,.753.988,380.361,380.361,0,0,0,43.753-2.549c3.731-.438,11.215,0,13.644-3.575,2.7-3.98.887-11.365.421-15.749a63.3,63.3,0,0,1,1.135-21.591c1.5-6.482,3.559-12.845,4.477-19.453,1.83-13.161-1.667-26.171-2.384-39.27-.776-14.17,3-27.821,6.019-41.525a137.961,137.961,0,0,0,3.08-39.46" transform="translate(0 191.013)" fill="#f6ddc7"/>
            <path id="Fill_18" data-name="Fill 18" d="M60.344,38.347A131.322,131.322,0,0,1,56.138,58.26c-1.886,6.454-4.146,12.808-5.566,19.389-2.792,12.947-.43,25.769.6,38.761a75,75,0,0,1-.679,19.649,105.134,105.134,0,0,1-4.922,16.957c-4.1,11.171-9.176,22.153-11.045,33.994-2.016,12.769.916,25.5.511,38.305-.405,12.76-5.951,23.688-11.4,34.936a102.932,102.932,0,0,0-6.468,15.791,100.651,100.651,0,0,0-3.13,18.792c-.658,6.851-1.19,13.738-2.775,20.454A148.779,148.779,0,0,1,5.7,332.616C3.727,337.94,1.632,343.34,0,348.847q10.18-1.038,20.39-1.61c.022-.137.047-.276.069-.414a166.7,166.7,0,0,0,1.653-20.247c.262-7.107.42-14.236,1.283-21.3a98.929,98.929,0,0,1,4.543-19.543c4.047-12.037,9.68-23.494,13.318-35.675a83.893,83.893,0,0,0,3.428-18.333c.48-7.056.124-14.13-.064-21.188-.193-7.244-.227-14.55,1.015-21.714a101.45,101.45,0,0,1,5.578-18.778c2.347-6.135,4.922-12.189,6.982-18.43a103.525,103.525,0,0,0,4.432-19.732,104.057,104.057,0,0,0,.423-21.045c-.568-7.128-1.679-14.273-1.153-21.44.518-7.069,2.736-13.839,4.324-20.707a121.78,121.78,0,0,0,2.839-20.3c.827-14.07-.4-28.166-2.014-42.137-.241-2.084-.5-4.165-.755-6.247q-3.233.572-6.438,1.211a131.5,131.5,0,0,1,.491,37.136" transform="translate(4.126 195.25)" fill="#38539a"/>
            <path id="Fill_20" data-name="Fill 20" d="M49.127.731c-.815,11.6.868,23.2,1.857,34.752A121.677,121.677,0,0,1,51.4,54.725c-.5,6.816-2.257,13.239-4.3,19.729-1.908,6.078-3.728,12.22-3.811,18.641s1.222,12.757,2.259,19.069a78.7,78.7,0,0,1,1.03,19.425,105.844,105.844,0,0,1-3.337,18.162c-3.077,11.665-7.377,22.97-10.371,34.659a107.093,107.093,0,0,0-3.1,17.241c-.581,6.669-.052,13.327.082,20a64.505,64.505,0,0,1-2.519,20.069c-1.789,5.969-4.26,11.7-6.5,17.507a96.887,96.887,0,0,0-5.361,18.628c-1.092,6.4-1.593,12.88-2.277,19.332a130.827,130.827,0,0,1-3.418,19.576c-1.628,6.185-3.665,12.251-5.63,18.335C2.672,339.667,1.206,344.307,0,349c3.9-.177,7.812-.292,11.721-.367,2.674-10.515,2.222-21.559,2.708-32.331A97.23,97.23,0,0,1,17.2,295.862a133.643,133.643,0,0,1,6.33-17.779c4.825-11.461,10.267-22.755,12.669-35.043,2.56-13.092,2.233-26.5,3.17-39.748a125.3,125.3,0,0,1,2.972-20.258c1.513-6.353,3.489-12.582,5.46-18.8,3.794-11.977,7.636-24.14,8.071-36.8.476-13.832-2.462-27.519-1.16-41.361,1.27-13.491,5.069-26.711,5.007-40.329-.063-13.309-4.488-26.086-5.249-39.324A58.018,58.018,0,0,1,54.459,0q-2.673.342-5.332.731" transform="translate(29.039 193.271)" fill="#3a3a3a"/>
            <path id="Fill_22" data-name="Fill 22" d="M45.238,116.806c-.848-12.815-2.978-25.737-1.372-38.581.927-7.412,3.775-14.326,5.178-21.627a39.947,39.947,0,0,0-1.088-18.607c-2.076-7.5-4.71-14.646-5.36-22.473A64.434,64.434,0,0,1,43.219,0c-.8.072-1.6.145-2.393.224A67.394,67.394,0,0,0,42.62,28.463c1.875,6.629,4.615,13.186,4.817,20.159.2,6.778-2.168,13.212-3.918,19.66-6.861,25.275,4.017,51.277-2.575,76.551-3.161,12.12-8.986,23.325-12.563,35.309-3.754,12.575-2.884,25.211-3.832,38.128-.973,13.237-6.139,25.285-10.659,37.6a118.375,118.375,0,0,0-7.082,37.146,231.44,231.44,0,0,1-1.794,23.741c-1.026,7.2-2.4,14.336-3.535,21.515C.883,342.052.365,345.854,0,349.658c.735,0,1.47.017,2.2.022C3.675,333.724,8,317.669,8.8,301.874c.7-13.775,1.08-26.981,5.517-40.191,3.932-11.707,9.355-23,11.566-35.227,2.339-12.936.363-26.236,3.075-39.123,2.536-12.051,8.125-23.134,12.076-34.731,4-11.755,5.026-23.444,4.209-35.8" transform="translate(50.483 192.159)" fill="#e3a780"/>
            <path id="Fill_24" data-name="Fill 24" d="M5.256,32.867A156.85,156.85,0,0,1,8.141,52.014a67.76,67.76,0,0,1-1.579,19.63C5.141,78.022,3.6,84.315,2.981,90.837a94.893,94.893,0,0,0,.223,20.1c.777,6.615,1.985,13.136,2.116,19.816A125.138,125.138,0,0,1,3.765,151.7C2.747,158.494,1.46,165.266,0,172l.289-.75a81.535,81.535,0,0,1,2.447,14.4c2.591-5.03,3.8-10.548,4.746-16.132A122.589,122.589,0,0,1,12.2,149.889a60.367,60.367,0,0,0,2.788-10.038,39.893,39.893,0,0,0,.148-10.123c-.723-7.469-2.212-14.744-1.937-22.291A78.5,78.5,0,0,1,17.225,86.2c2.092-6.515,4.313-13.076,4.011-20.015-.305-7-2.643-13.687-4.479-20.387C12.665,30.875,12.038,15.395,11.744,0Q6.757.152,1.769.5c-.814,10.892,1.4,21.7,3.486,32.371" transform="translate(97.688 191.063)" fill="#38539a"/>
            <path id="Fill_26" data-name="Fill 26" d="M45.473,89.432c.663-6.379,1.648-12.746,1.674-19.173.043-11.211-3.721-21.786-7.453-32.206C36.066,27.922,32.1,17.288,32.828,6.34a35.3,35.3,0,0,1,1-6.232C31.4.04,28.971,0,26.538,0c-3.479,21.792,10.08,42.31,10.7,63.954.369,12.952-2.843,25.693-2.681,38.636.081,6.533,1.285,12.956,1.933,19.44a61.261,61.261,0,0,1-.758,18.037c-2.214,11.264-7.057,21.768-11,32.482a111.29,111.29,0,0,0-4.9,16.472,119.828,119.828,0,0,0-1.85,17.526,173.453,173.453,0,0,1-1.53,18.812,60.858,60.858,0,0,1-5.727,17.464c-.787,1.589-1.59,3.165-2.386,4.745.044,3.21.022,6.42-.134,9.632a90.117,90.117,0,0,1-4.437,23.118C1.717,286.764-.33,293.293.045,300.136c.419,7.689,3.173,15.007,4.4,22.579a245.759,245.759,0,0,1,9.642-31.71C18.577,279.161,23.469,267.413,26,254.95c2.523-12.441,3.075-25.158,4.675-37.727A131.319,131.319,0,0,1,34.487,197.7c1.64-5.745,3.729-11.349,5.823-16.941,4.115-10.985,8.368-22.16,9.17-33.975.875-12.9-2.676-25.5-4.07-38.225a89.58,89.58,0,0,1,.063-19.132" transform="translate(90.21 191.014)" fill="#e3a780"/>
            <path id="Fill_28" data-name="Fill 28" d="M46.414,98.961c.459-6.4,1.46-12.762,1.734-19.181.6-14.093-4.169-26.994-9.007-40C34.433,27.125,29.969,13.6,32.386.116,31.6.069,30.808.038,30.018,0,26,22.814,40.722,43.719,44.853,65.673c2.524,13.415-1.138,26.512-1.022,39.942.113,13.032,4.154,25.587,5.3,38.508,2.166,24.407-7.54,47.513-14.409,70.418A177.291,177.291,0,0,0,27.8,248.859c-1.255,13.207-2.1,26.267-7.015,38.742C15.619,300.715,9.153,312.92,5.443,326.61A262.84,262.84,0,0,0,0,352.595c.791-.011,1.583-.029,2.374-.044,1.144-6.867,2.44-13.708,4.086-20.475,3.045-12.516,7.8-24.062,13.111-35.757a108.574,108.574,0,0,0,9.379-34.357c1.343-12.921,2.3-25.626,5.612-38.243,5.923-22.554,15.921-44.4,17.122-67.976.622-12.209-2.157-23.912-4.115-35.87a89.092,89.092,0,0,1-1.154-20.913" transform="translate(98.732 191.332)" fill="#38539a"/>
            <path id="Fill_30" data-name="Fill 30" d="M44.994,149.737c-1.407-10.6-3.075-21.178-3.83-31.851-.862-12.177.446-23.7,2.025-35.747C44.99,68.4,42,55.874,38.812,42.583q-1.853-7.738-3.706-15.476C30.66,17.978,25.823,9,21.141,0a126.218,126.218,0,0,0,6.253,29.2c4.025,11.673,9.382,22.089,8.291,34.819C35.171,70,33.869,75.888,33.256,81.863a122.511,122.511,0,0,0-.3,19.145c.673,12.361,2.662,24.6,3.85,36.91,1.218,12.63,1.294,25.137-.895,37.671-1.976,11.314-5.2,22.352-7.952,33.489A172.952,172.952,0,0,0,22.673,243.4c-.538,12.7-2.134,24.435-6.474,36.444C8.671,300.673-3.5,322.787.953,345.321q5.65-.372,11.288-.913c4.41-18.294,13.982-35.029,19.18-53.141,3.238-11.28,3.785-22.671,3.886-34.345a152.938,152.938,0,0,1,2.753-29.946c1.213-8.238,3.271-16.375,5.068-24.53a137.938,137.938,0,0,0,3.08-39.46c-.3-4.426-.737-8.839-1.213-13.249" transform="translate(117.843 197.648)" fill="#3a3a3a"/>
            <path id="Fill_32" data-name="Fill 32" d="M5.551.2A53.707,53.707,0,0,0,.184,28.414c.041.5.822.5.78,0A52.95,52.95,0,0,1,6.225.593C6.446.144,5.774-.252,5.551.2" transform="translate(48.47 135.453)" fill="#1f2033"/>
            <path id="Fill_34" data-name="Fill 34" d="M.757.283C.689-.213-.063,0,0,.49A171.489,171.489,0,0,1,1.516,18.076c.018.5.8.5.781,0A173.889,173.889,0,0,0,.757.283" transform="translate(146.997 140.919)" fill="#1f2033"/>
            <path id="Fill_38" data-name="Fill 38" d="M87.416,8.4a32.053,32.053,0,0,0-1.892-4.261A12.293,12.293,0,0,0,83.181.594C82.3-.147,81.258,0,80.173.044c-2.045.091-4.089.211-6.133.329q-12.264.7-24.5,1.79Q25.4,4.3,1.421,7.916a.319.319,0,0,0-.267.431.424.424,0,0,0-.6.334Q.03,13.822,0,18.988a.4.4,0,0,0,.39.39c7.311.261,14.443-1.588,21.573-2.941Q33.2,14.3,44.545,12.808q11.012-1.449,22.092-2.291,5.729-.437,11.468-.709c2.934-.14,6.415.3,9.132-.963a.391.391,0,0,0,.179-.441" transform="translate(56.422 197.599)" fill="#f6ddc7"/>
            <path id="Fill_40" data-name="Fill 40" d="M29.208,0a51.043,51.043,0,0,0-6.32,6.143c-3.177,3.764-4.818,8.393-7.694,12.337C10.352,25.121,2.625,29.657.02,37.809c-.138.431.484.668.713.3A31.76,31.76,0,0,1,5,32.3c1.985-1.988,4.23-2.715,6.806-3.627,4.094-1.449,5.455-4.777,7.737-8.148a19.4,19.4,0,0,1,3.448-3.658,41.115,41.115,0,0,1,2.4-8.806C26.505,5.3,27.83,2.638,29.208,0" transform="translate(49.68 435.056)" fill="#1f2033"/>
            <path id="Fill_42" data-name="Fill 42" d="M1.028,45.26c5.8-4.576,6.509-12.541,9.734-18.783,2.23-4.317,5.21-8.185,7.377-12.556A73.7,73.7,0,0,0,23.21.476a.392.392,0,0,0-.713-.3C13.39,12.7,4.129,25.645,0,40.751Q.552,43,1.028,45.26" transform="translate(97.978 321.74)" fill="#1f2033"/>
            <path id="Fill_44" data-name="Fill 44" d="M22.649.191a29.2,29.2,0,0,1-6.711,8.134c-2.364,1.978-4.882,3.715-7.052,5.922A38.373,38.373,0,0,0,.023,28.674c-.165.476.589.68.752.207A37.431,37.431,0,0,1,10.787,13.5c2.3-2.113,4.956-3.8,7.21-5.963A29.931,29.931,0,0,0,23.323.585a.391.391,0,0,0-.674-.394" transform="translate(13.684 488.89)" fill="#1f2033"/>
            <path id="Fill_46" data-name="Fill 46" d="M13.8.171Q6.778,10.011.066,20.067c-.28.419.4.81.674.394Q7.452,10.406,14.474.565c.292-.409-.385-.8-.674-.394" transform="translate(139.953 417.666)" fill="#1f2033"/>
            <path id="Fill_48" data-name="Fill 48" d="M1.885,0c-2.511,0-2.515,3.9,0,3.9S4.4,0,1.885,0" transform="translate(86.337 149.886)" fill="#3a3a3a"/>
            <path id="Fill_50" data-name="Fill 50" d="M1.885,0c-2.512,0-2.515,3.9,0,3.9S4.4,0,1.885,0" transform="translate(35.601 141.885)" fill="#3a3a3a"/>
            <path id="Fill_52" data-name="Fill 52" d="M1.885,0c-2.512,0-2.515,3.9,0,3.9S4.4,0,1.885,0" transform="translate(61.359 145.983)" fill="#3a3a3a"/>
            <path id="Fill_54" data-name="Fill 54" d="M1.885,0c-2.511,0-2.515,3.9,0,3.9S4.4,0,1.885,0" transform="translate(115.217 153.203)" fill="#3a3a3a"/>
            <path id="Fill_56" data-name="Fill 56" d="M1.885,0c-2.512,0-2.515,3.9,0,3.9S4.4,0,1.885,0" transform="translate(139.804 157.106)" fill="#3a3a3a"/>
            <path id="Fill_58" data-name="Fill 58" d="M1.885,0c-2.512,0-2.515,3.9,0,3.9S4.4,0,1.885,0" transform="translate(104.29 136.227)" fill="#3a3a3a"/>
            <path id="Fill_60" data-name="Fill 60" d="M1.885,0c-2.512,0-2.515,3.9,0,3.9S4.4,0,1.885,0" transform="translate(129.267 139.739)" fill="#3a3a3a"/>
            <path id="Fill_62" data-name="Fill 62" d="M1.885,0c-2.512,0-2.515,3.9,0,3.9S4.4,0,1.885,0" transform="translate(155.415 143.056)" fill="#3a3a3a"/>
            <path id="Fill_64" data-name="Fill 64" d="M1.885,0c-2.512,0-2.515,3.9,0,3.9S4.4,0,1.885,0" transform="translate(78.727 131.543)" fill="#3a3a3a"/>
            <path id="Fill_66" data-name="Fill 66" d="M1.885,0c-2.512,0-2.515,3.9,0,3.9S4.4,0,1.885,0" transform="translate(54.53 126.665)" fill="#3a3a3a"/>
            <path id="Fill_68" data-name="Fill 68" d="M1.885,0c-2.511,0-2.515,3.9,0,3.9S4.4,0,1.885,0" transform="translate(34.04 120.03)" fill="#3a3a3a"/>
            <path id="Fill_70" data-name="Fill 70" d="M1.885,0c-2.512,0-2.515,3.9,0,3.9S4.4,0,1.885,0" transform="translate(71.506 113.2)" fill="#3a3a3a"/>
            <path id="Fill_72" data-name="Fill 72" d="M1.885,0c-2.512,0-2.515,3.9,0,3.9S4.4,0,1.885,0" transform="translate(116.778 120.03)" fill="#3a3a3a"/>
            <path id="Fill_74" data-name="Fill 74" d="M1.885,0c-2.512,0-2.515,3.9,0,3.9S4.4,0,1.885,0" transform="translate(145.854 126.274)" fill="#3a3a3a"/>
            <path id="Fill_76" data-name="Fill 76" d="M1.885,0c-2.512,0-2.515,3.9,0,3.9S4.4,0,1.885,0" transform="translate(49.261 104.029)" fill="#3a3a3a"/>
            <path id="Fill_78" data-name="Fill 78" d="M1.885,0c-2.512,0-2.515,3.9,0,3.9S4.4,0,1.885,0" transform="translate(70.531 163.155)" fill="#3a3a3a"/>
            <path id="Fill_80" data-name="Fill 80" d="M1.885,0c-2.512,0-2.515,3.9,0,3.9S4.4,0,1.885,0" transform="translate(46.529 154.569)" fill="#3a3a3a"/>
            <path id="Fill_82" data-name="Fill 82" d="M1.885,0c-2.512,0-2.515,3.9,0,3.9S4.4,0,1.885,0" transform="translate(100.192 168.228)" fill="#3a3a3a"/>
            <path id="Fill_84" data-name="Fill 84" d="M1.885,0c-2.512,0-2.515,3.9,0,3.9S4.4,0,1.885,0" transform="translate(129.853 171.546)" fill="#3a3a3a"/>
            <path id="Fill_86" data-name="Fill 86" d="M1.885,0c-2.511,0-2.515,3.9,0,3.9S4.4,0,1.885,0" transform="translate(83.02 180.717)" fill="#3a3a3a"/>
            <path id="Fill_88" data-name="Fill 88" d="M1.885,0c-2.511,0-2.515,3.9,0,3.9S4.4,0,1.885,0" transform="translate(54.334 176.62)" fill="#3a3a3a"/>
            <path id="Fill_90" data-name="Fill 90" d="M1.885,0c-2.511,0-2.515,3.9,0,3.9S4.4,0,1.885,0" transform="translate(112.095 183.449)" fill="#3a3a3a"/>
            <path id="Fill_92" data-name="Fill 92" d="M1.885,0c-2.512,0-2.515,3.9,0,3.9S4.4,0,1.885,0" transform="translate(133.56 108.322)" fill="#3a3a3a"/>
            <path id="Fill_94" data-name="Fill 94" d="M1.885,0c-2.512,0-2.515,3.9,0,3.9S4.4,0,1.885,0" transform="translate(152.293 106.565)" fill="#3a3a3a"/>
            <path id="Fill_96" data-name="Fill 96" d="M1.885,0c-2.512,0-2.515,3.9,0,3.9S4.4,0,1.885,0" transform="translate(61.75 95.248)" fill="#3a3a3a"/>
            <path id="Fill_98" data-name="Fill 98" d="M9.182,1.527A28.562,28.562,0,0,0,.377,0a.391.391,0,0,0,0,.781,27.835,27.835,0,0,1,8.6,1.5c.477.162.681-.592.207-.753" transform="translate(59.453 189.789)" fill="#1f2033"/>
            <path id="Fill_100" data-name="Fill 100" d="M28.4,2.019c-.238-.135,2.353-2.208.813-1.919-5.171-.683-11.191,2.238-14.2,5.213-3.994,3.95-2.918,10.069-4.787,14.958C8.04,25.976,3.432,30.35,1.183,36.03A15.232,15.232,0,0,0,.117,43.688c.215,1.638.658,3.23.941,4.854a19.361,19.361,0,0,1-.005,6.228C.6,57.887-.079,60.918.343,64.085c.179,1.347.416,4.444,1.939,5.012.8.3,1.469-.266,2.109-.682a10.527,10.527,0,0,1,4.922-1.723c3.3-.305,6.575.516,9.874.378a20.541,20.541,0,0,0,8-1.989c2.466-1.183,2.951-2.856,3.325-5.475.92-6.429-.588-12.849-1.261-19.222-.831-7.881.82-15.351,1.957-23.1.763-5.2,2.523-12.231-2.812-15.26" transform="translate(60.671 4.994)" fill="#ab614f"/>
            <path id="Fill_102" data-name="Fill 102" d="M24.92.813c-.2-2.783-.585,2.488-4.27,2.263-2.447-.149-5.718,1.431-8.1,2.055l-9.2,2.406q.013-.81.027-1.62C3.394,4.414.446,3.392.421,4.9.339,9.837-.043,25.451,0,37.048c.021,5.342.3,9.787.443,12.023.3,4.673,4.8,3.5,8.24,3.407,2.827-.077,5.65-.292,8.461-.627,1.845-.22,4.959-.044,6.339-1.7,1.323-1.583.88-4.561.942-6.438.119-3.567,1.01-35.792.491-42.9" transform="translate(88.508 43.197)" fill="#fea689"/>
            <path id="Fill_104" data-name="Fill 104" d="M11.183,16.366a30.478,30.478,0,0,0,.284-4.463,10.655,10.655,0,0,0-.721-2.728,77.807,77.807,0,0,0-4.44-8.139c.13-.153.26-.306.38-.473C6.982.157,6.3-.234,6.012.17c-2.012,2.783-9,6.216-4.568,10.2A5.141,5.141,0,0,1,3.323,14.6c-.005,1.015-.327,2.168.144,3.135.391.8,1.059.966,1.76,1.389a4.708,4.708,0,0,1,2.087,2.959c.181-.08.364-.157.542-.243,2.466-1.182,2.951-2.856,3.326-5.475" transform="translate(80.034 48.249)" fill="#1f2033"/>
            <path id="Fill_106" data-name="Fill 106" d="M24.834,10.008c.056-2.9.185-6.127.221-8.98-1.51.447-3.133,1.889-4.354,2.578C14.471,7.127,7.224.619,0,0,0,1.086.008,9.171,0,10.276c4.887,2.637,9.736,5.844,15.558,4.2,3.065-.864,5.868-2.766,8.7-4.181.158-.079.388-.2.57-.291" transform="translate(88.545 59.733)" fill="#f2815c"/>
            <path id="Fill_108" data-name="Fill 108" d="M37.016,3.077C31.1-.256,23.815-.629,17.13.759,12.036,1.817,6.5,3.6,3.171,7.474,2.983,6.311.961,6.126.816,7.454c-1.387,12.668-1.5,26.918,3.679,38.79,2.059,4.722,11.322,9.7,15.724,12.828,4.222,3,6.98,2.161,10.857-.73,7.154-5.334,10.613-13.179,12.943-23.6,2.093-9.364,2.73-26.182-7-31.668" transform="translate(80.172 10.367)" fill="#fea689"/>
            <path id="Fill_4-3" data-name="Fill 4" d="M5.846.672A7.506,7.506,0,0,0,4.1.728,6.209,6.209,0,0,0,2.472,1.2a4.526,4.526,0,0,0-1.431.987A5.05,5.05,0,0,0,0,3.9,3.8,3.8,0,0,1,2.232.335,3.854,3.854,0,0,1,4.087.012a3.16,3.16,0,0,1,1.758.66" transform="matrix(0.995, -0.105, 0.105, 0.995, 89.185, 33.493)" fill="#2c2c2c"/>
            <path id="Fill_4-4" data-name="Fill 4" d="M0,.672A7.506,7.506,0,0,1,1.745.728,6.209,6.209,0,0,1,3.374,1.2,4.526,4.526,0,0,1,4.8,2.19,5.05,5.05,0,0,1,5.844,3.9,3.8,3.8,0,0,0,3.613.335,3.854,3.854,0,0,0,1.758.012,3.16,3.16,0,0,0,0,.672" transform="matrix(0.985, -0.174, 0.174, 0.985, 114.369, 33.826)" fill="#2c2c2c"/>
            <path id="Fill_110" data-name="Fill 110" d="M7.506,2.024C6.6-1.056,3.3-.133,2.021,1.578-.251,3.26-.048,8.5.057,11.038c.048,1.167-.025,2.617,1.187,3.03C2.5,14.5,4,13.378,4.835,12.52a11.723,11.723,0,0,0,2.671-10.5" transform="translate(119.973 38.466)" fill="#fea689"/>
            <path id="Fill_112" data-name="Fill 112" d="M3.047,13.4c.9.955,2.525,2.218,3.949,1.81,1.37-.393,1.349-1.951,1.451-3.2.222-2.715.458-8.222-2.011-10.12C5.078,0,1.633-1.243.5,2.024A12.223,12.223,0,0,0,3.047,13.4" transform="translate(76.63 37.681)" fill="#f88c76"/>
            <path id="Fill_114" data-name="Fill 114" d="M3.131,2.9C3.142,4.5,2.45,5.808,1.586,5.814S.011,4.524,0,2.918.68.006,1.545,0,3.119,1.29,3.131,2.9" transform="translate(93.011 37.836)" fill="#1f2033"/>
            <path id="Fill_116" data-name="Fill 116" d="M3.131,2.937C3.1,4.543,2.375,5.83,1.511,5.814S-.03,4.483,0,2.878.757-.016,1.622,0s1.54,1.331,1.51,2.937" transform="translate(113.899 37.451)" fill="#1f2033"/>
            <path id="Fill_118" data-name="Fill 118" d="M3.823,1.365C3.48.081,2.63-.563,1.558.632a2.326,2.326,0,0,0-.53,1.922A4.121,4.121,0,0,1,.107,6.121c-.337.371.2.935.541.562a4.635,4.635,0,0,0,1.24-2.522,5.055,5.055,0,0,0-.013-1.269,2.277,2.277,0,0,1,.093-1.506c.492-.828.924-.486,1.1.173a.391.391,0,0,0,.757-.193" transform="translate(122.409 41.329)" fill="#f2815c"/>
            <path id="Fill_120" data-name="Fill 120" d="M3.432,5.835A2.144,2.144,0,0,1,2.39,4.422c-.12-.579.26-1.125.327-1.68A3.033,3.033,0,0,0,2.346.876C1.752-.156.608-.4.041.819c-.211.451.453.86.666.406q.924-.406,1.07.305a1.129,1.129,0,0,1,.149.563,2.944,2.944,0,0,1-.186,1.259,2.372,2.372,0,0,0-.107,1.263A2.893,2.893,0,0,0,3.025,6.5c.445.23.853-.435.407-.666" transform="translate(78.075 40.4)" fill="#c76959"/>
            <path id="Fill_122" data-name="Fill 122" d="M5.852.1C5.47-.225,4.916.325,5.3.65A8.2,8.2,0,0,1,7.847,8.957C6.941,12.076,3,14.01.646,11.112c-.317-.39-.866.165-.551.551,2.16,2.66,6,1.885,7.744-.824C10,7.484,8.772,2.575,5.852.1" transform="translate(77.786 48.922)" fill="#f6ddc7"/>
            <path id="Fill_124" data-name="Fill 124" d="M1.815,9.79A11.713,11.713,0,0,1,.367,9.7.428.428,0,0,1,0,9.236.315.315,0,0,1,.32,8.915a.444.444,0,0,1,.054,0,11.677,11.677,0,0,0,1.448.09h.112a.363.363,0,0,1,.373.381.376.376,0,0,1-.38.4Zm2.214-.038A.324.324,0,0,1,3.7,9.419a.416.416,0,0,1,.377-.451l.129-.012c1.3-.123,2.243-.212,2.767-1.637A4.362,4.362,0,0,0,6.72,4.9c-.037-.127-.072-.248-.1-.361-.139-.513-.3-1.024-.455-1.519A23.764,23.764,0,0,1,5.467.485.379.379,0,0,1,5.544.159.449.449,0,0,1,5.884,0a.328.328,0,0,1,.338.283,21.447,21.447,0,0,0,.69,2.426c.562,1.721,1.144,3.5.752,5.256-.344,1.548-1.635,1.64-3,1.738-.195.014-.395.028-.59.047Z" transform="translate(102.178 42.198)" fill="#f2815c"/>
            <path id="Fill_130" data-name="Fill 130" d="M42.752,3.716c-.531-1.637-3.147-1.951-4.58-2.336A40.113,40.113,0,0,0,31.256.174,52.051,52.051,0,0,0,15.568,1.327c-3.975.873-8.09,2.337-9.849,6.325A40.751,40.751,0,0,0,3.563,14.99c-.573,2.5-.825,5.686-3.366,7-.446.23-.052.9.394.673,3.148-1.629,3.308-5.853,4.065-8.893.6-2.4,1.13-5.177,2.557-7.242a10.847,10.847,0,0,1,5.954-3.786A48.486,48.486,0,0,1,26.742.786a43.881,43.881,0,0,1,7.5.544c1.138.184,2.268.424,3.384.714,1,.26,4.033.837,4.37,1.878.154.476.908.272.753-.207" transform="translate(79.341 15.053)" fill="#414f39"/>
            <path id="Fill_132" data-name="Fill 132" d="M26.574,17.957c-.19-5.155-1.217-10.62-5.464-14.02C16.947.605,10.949-.223,5.764.048A6.388,6.388,0,0,0,.652,2.987C-.6,4.862.3,7.7.535,9.762a.406.406,0,0,0,.329.355.348.348,0,0,0,.36.285c6.66-.064,14.627-.784,18.887,5.382a19.787,19.787,0,0,1,3.048,9.389c.234,2.341-.344,5.409,1.083,7.433a.4.4,0,0,0,.613.079A7.494,7.494,0,0,0,26.7,27.309c.09-3.1-.014-6.251-.128-9.351" transform="translate(100.946 5.59)" fill="#ab614f"/>
            <path id="Fill_134" data-name="Fill 134" d="M58.536,29.168a54.129,54.129,0,0,0-.349-6.007c-.374-3.408-.962-6.8-1.613-10.165-.51-2.635-1.574-4.527-4.066-5.708-4.657-2.207-10.381-1.8-15.237.054a.3.3,0,0,0-.41-.147c-.1.043-.2.08-.307.116l-.162-.049c-.9-.567-1.87-1.008-2.757-1.6-.022-.015-.043-.032-.064-.048a6.626,6.626,0,0,0-.993-3.943C31.14-.359,28.107-.089,25.933.194c-6.356.826-10.454,4.986-14.468,9.6a40.314,40.314,0,0,0-5.693,7.924,49.147,49.147,0,0,0-3.2,9.212C.85,33.057-.721,39.441.35,45.832A19.407,19.407,0,0,0,3.838,54.32c2.18,2.9,5.273,4.889,8.286,6.816a.392.392,0,0,0,.473-.061c3.045-3.342,2.028-7.761,2.411-11.87.251-2.7,1.593-4.875,2.63-7.312a19.137,19.137,0,0,0,1.312-7.172c.139-5.5.4-10.758,3.212-15.665a17.884,17.884,0,0,1,11.5-8.73.278.278,0,0,0,.042-.018l.207-.01c1,5.5,9.325,4.934,12.079,9.094,1.586,2.4,1.222,5.683,2.988,7.891a8.29,8.29,0,0,0,2.535,1.9,11.716,11.716,0,0,1,3.627,2.8c.876,1.049,2.15,1.519,2.952.091a5.9,5.9,0,0,0,.443-2.9" transform="translate(68.928 5.645)" fill="#ab614f"/>
            <path id="Fill_136" data-name="Fill 136" d="M5.852.1C5.471-.225,4.916.324,5.3.65A8.2,8.2,0,0,1,7.848,8.957C6.941,12.076,3,14.01.646,11.111c-.317-.389-.866.165-.551.552,2.16,2.66,6,1.885,7.744-.824C10,7.484,8.772,2.575,5.852.1" transform="translate(117.724 49.443)" fill="#f6ddc7"/>
            <path id="Fill_138" data-name="Fill 138" d="M23.66,10.238c-1.4-3.344-4.894-5.251-8.09-6.632A26.932,26.932,0,0,0,3.6,1.473c.087-.329.164-.661.255-.989A.391.391,0,0,0,3.1.276,85.936,85.936,0,0,0,.015,24.61q.056,2.914.313,5.82a22.161,22.161,0,0,0,.744,5.22c.837,2.34,3.3,1.616,4.852.484a16.737,16.737,0,0,1,4.719-2.721c1.682-.554,3.468-.719,5.147-1.284,3.208-1.08,4.125-3.556,6.15-5.962,1-1.187,2.568-1.658,3.512-2.868a5.247,5.247,0,0,0,.927-3.337c-.054-3.292-1.467-6.733-2.72-9.724" transform="translate(93.177 219.922)" fill="#1f2033"/>
            <path id="Fill_140" data-name="Fill 140" d="M26.179,32.611A47.612,47.612,0,0,0,23.82,21.932c-1.116-3.656-2.235-7.315-3.553-10.9-1.132-3.084-2.247-6.738-4.5-9.219C13.878-.283,11.71-.324,9.351.5a.4.4,0,0,0-.6-.089C1.117,7.106,1.305,19.448.683,28.737Q.362,33.542.207,38.358c-.083,2.589-.473,5.478.1,8.036.858,3.85,5.558,4,8.373,1.936,1.984-1.455,1.27-4.148,1.33-6.27a35.734,35.734,0,0,1,1.676-9.708,55.678,55.678,0,0,0,.6,5.54c.405,2.452,1,4.919,3.987,4.7a15.07,15.07,0,0,0,7.261-2.737c2.352-1.778,2.829-4.44,2.643-7.244" transform="translate(93.187 201.382)" fill="#38539a"/>
            <path id="Fill_142" data-name="Fill 142" d="M.781.376c-.026-.5-.806-.5-.781,0Q.636,12.759.543,25.16a.391.391,0,0,0,.781,0Q1.417,12.762.781.376" transform="translate(103.279 199.756)" fill="#1f2033"/>
            <path id="Fill_144" data-name="Fill 144" d="M4.555,15.243C3.562,10.212,2.044,5.243.767.278A.391.391,0,0,0,.014.485Q1.5,6.279,2.995,12.072A34.12,34.12,0,0,1,4.134,17.71c.135,1.622.488,4.979-1.2,5.953a.391.391,0,0,0,.394.674c2.634-1.518,1.705-6.69,1.231-9.094" transform="translate(105.106 216.172)" fill="#1f2033"/>
            <path id="Fill_146" data-name="Fill 146" d="M1.244.277Q.54,2.9.009,5.555c-.1.49.655.7.753.207Q1.292,3.1,2,.484A.391.391,0,0,0,1.244.277" transform="translate(95.833 202.28)" fill="#1f2033"/>
            <path id="Fill_148" data-name="Fill 148" d="M3.369,13.869C2.412,9.3,2.785,4.488.717.2.5-.252-.175.143.043.593c2.027,4.2,1.635,9,2.574,13.483.962,4.585,3.526,8.758,4.038,13.428.054.494.836.5.781,0-.521-4.753-3.088-8.974-4.065-13.636" transform="translate(111.714 208.632)" fill="#1f2033"/>
            <path id="Fill_150" data-name="Fill 150" d="M9.82.463c-1.054-1.1-2.42-.009-3.085.92C5.831,2.647,5.563,4.063,4.1,4.922A9.182,9.182,0,0,0,1.767,6.777,6.685,6.685,0,0,0,.018,11.763a17.573,17.573,0,0,1,10.158-6.7.341.341,0,0,0,.041-.017l.118-.006c.186-1.591.4-3.615-.516-4.575" transform="translate(92.423 10.92)" fill="#1f2033"/>
            <path id="Fill_152" data-name="Fill 152" d="M5.209,1.66A5.314,5.314,0,0,0,.281.1C-.211.2,0,.951.489.856A4.505,4.505,0,0,1,4.658,2.212c.347.366.9-.188.551-.551" transform="translate(101.362 7.199)" fill="#1f2033"/>
            <path id="Fill_154" data-name="Fill 154" d="M4.195,28.662h0l-.244-.087c-.164-.06-.335-.121-.5-.175a12.35,12.35,0,0,0,.8-5.127,19.434,19.434,0,0,0-.81-3.985,20.479,20.479,0,0,1-.795-3.773,8.962,8.962,0,0,1,1.156-4.738,19.537,19.537,0,0,0,.936-2.3A7.6,7.6,0,0,0,2.505.659a.338.338,0,0,1-.1-.386A.437.437,0,0,1,2.8,0a.379.379,0,0,1,.259.107A8.415,8.415,0,0,1,5.843,6.159a10.2,10.2,0,0,1-1.235,4.425,10.326,10.326,0,0,0-1.228,4.283,18,18,0,0,0,.829,4.615,16.809,16.809,0,0,1,.827,5.035A13.274,13.274,0,0,1,4.2,28.66ZM.824,27.778h0c-.242-.041-.5-.084-.764-.118A23.947,23.947,0,0,0,0,19.4a.321.321,0,0,1,.069-.261.361.361,0,0,1,.273-.111.426.426,0,0,1,.439.371,24.737,24.737,0,0,1,.04,8.377Z" transform="translate(132.194 41.991)" fill="#1f2033"/>
            <path id="Fill_156" data-name="Fill 156" d="M4.2.116A16,16,0,0,0,.013,7.535a.391.391,0,0,0,.753.207A15.169,15.169,0,0,1,4.751.668C5.1.311,4.553-.242,4.2.116" transform="translate(86.512 13.062)" fill="#1f2033"/>
            <path id="Fill_158" data-name="Fill 158" d="M5.522,5.151A15.933,15.933,0,0,1,.734.185C.472-.243-.2.149.06.579A16.872,16.872,0,0,0,5.128,5.826c.419.278.811-.4.394-.675" transform="translate(122.084 28.57)" fill="#1f2033"/>
            <path id="Fill_160" data-name="Fill 160" d="M5.049,21.136h0L4.659,21.1l-.39-.035a10.872,10.872,0,0,1,.078-1.989,9.942,9.942,0,0,1,1.266-3.31,12.668,12.668,0,0,0,1.111-2.532A10.217,10.217,0,0,0,6.6,8.665a15.35,15.35,0,0,1-.341-3.1A11.973,11.973,0,0,1,8.034.192.345.345,0,0,1,8.342,0a.441.441,0,0,1,.367.213.364.364,0,0,1,0,.374,10.886,10.886,0,0,0-1.42,7.608c.036.225.074.451.113.677a11.632,11.632,0,0,1,.22,3.91,9.444,9.444,0,0,1-1.2,2.919,11.988,11.988,0,0,0-1.049,2.274,9.18,9.18,0,0,0-.323,3.159Zm-3.94-.3h0c-.264-.01-.534-.01-.795-.01a14.736,14.736,0,0,1-.233-4.464,12.333,12.333,0,0,1,1.3-3.813,12.75,12.75,0,0,0,1.27-3.6.3.3,0,0,1,.314-.284.467.467,0,0,1,.342.159.4.4,0,0,1,.1.331,12.149,12.149,0,0,1-1.25,3.5A12.469,12.469,0,0,0,.913,16.086a13.686,13.686,0,0,0,.2,4.748Z" transform="translate(71.2 50.821)" fill="#1f2033"/>
            <path id="Fill_164" data-name="Fill 164" d="M10.328.006C6.8.578,3.049.151.131,2.57c-.387.321.168.871.552.552C3.442.834,7.21,1.3,10.535.758c.495-.08.285-.832-.207-.753" transform="translate(105.205 92.393)" fill="#f2815c"/>
            <path id="Fill_166" data-name="Fill 166" d="M10.32,2.9C7.363.937,3.749,1.119.477.022,0-.138-.2.616.269.775c3.2,1.073,6.763.878,9.657,2.8.42.278.811-.4.394-.674" transform="translate(86.004 92.151)" fill="#f2815c"/>
            <path id="Fill_168" data-name="Fill 168" d="M4.7.028A6.14,6.14,0,0,1,.492.155.391.391,0,0,0,.264.9,6.82,6.82,0,0,0,4.891.785c.461-.179.28-.939-.188-.758" transform="translate(103.035 60.874)" fill="#f2815c"/>
            <path id="Fill_170" data-name="Fill 170" d="M10.877.009C8.92.393,6.577,1.222,4.591,1.03,3.1.887,1.937.265.376.328c-.5.019-.5.8,0,.781,1.833-.073,3.358.9,5.168.7,1.855-.2,3.709-.691,5.54-1.051.493-.1.284-.849-.207-.753" transform="translate(100.196 57.341)" fill="#f2815c"/>
            <path id="Fill_172" data-name="Fill 172" d="M14.682,12.672c-.221-.479-.421-.911-.931-1.043a1.076,1.076,0,0,0-.71.05c-.043.017-.464.226-.464.226s-.486-7.571-1.191-8.787c-.6-1.037-1.787-1.46-2.4-.894C8.734,1.377,8.662.613,7.826.195c-1.4-.7-2.252.629-2.334,1.795a.911.911,0,0,0-1.068-.13c-.582.283-.636.97-.68,1.532C3.674,4.28,1.049,33.2.466,37.862c-.1.813-.721,1.442-.347,2.255a3.509,3.509,0,0,0,1.677,1.4,13.842,13.842,0,0,0,4.383,1.333c3.955.53,7.925-3.271,9.009-6.809.7-2.292.089-4.048.039-6.414-.107-1.725-.137-4.486-.174-6.214-.035-1.658.315-9.259-.371-10.745" transform="translate(109.225 113.25)" fill="#fea689"/>
            <path id="Fill_174" data-name="Fill 174" d="M.678.191C.5,5.723.27,12.442,0,17.971c-.012.255.384.255.4,0,.269-5.529.5-12.247.678-17.78.008-.255-.388-.254-.4,0" transform="translate(113.927 115.728)" fill="#c76959"/>
            <path id="Fill_176" data-name="Fill 176" d="M.364.191C.361,5.838.24,12.672,0,18.314c-.011.254.385.254.4,0C.636,12.672.757,5.838.76.191a.2.2,0,0,0-.4,0" transform="translate(117.62 116.175)" fill="#c76959"/>
            <path id="Fill_178" data-name="Fill 178" d="M.271.191C.181,2.98.091,6.959,0,9.748c-.008.255.389.254.4,0C.487,6.959.577,2.98.667.191c.008-.255-.387-.255-.4,0" transform="translate(121.245 125.632)" fill="#c76959"/>
            <path id="Fill_180" data-name="Fill 180" d="M53.354,33.407a19.385,19.385,0,0,0,1.054-7.827A18.552,18.552,0,0,0,53.73,21.6c-6.865-2.754-16.522-6.51-19.613-8.06q-11.9-5.963-23.653-12.2C9.63.9,8.794.461,7.97,0,7.885-.047,2.575,4.461,0,6.676c-.148.128,8.6,7.45,10.538,8.852,3.985,2.879,23.347,16.043,29.071,19.7a107.991,107.991,0,0,0,9.748,5.52,26.075,26.075,0,0,0,4-7.341" transform="translate(82.049 145.919)" fill="#fea689"/>
            <path id="Fill_182" data-name="Fill 182" d="M23.664,33.741c-.109-.791-3.131-2.189-3.131-2.189a76.715,76.715,0,0,1-5.892-9.209C11.552,16.735,6.182,2.359,6.182,2.359S5.482.12,4.326.007A1.981,1.981,0,0,0,2.654.972C2.6.88,2.1.872,1.986.9c-2.547.562-.554,8-.326,9.8a1.145,1.145,0,0,0-.8-.107c-.948.31-.946,1.363-.781,2.176.2.971.314,1.96.524,2.935.562,2.6,1.513,5.109,2.217,7.676.468,1.709,2.644,9.157,4.513,11.3,1.855,2.132,5.1,4.133,7.932,3.551.555.3.838-.388,1.483-.474a16.978,16.978,0,0,0,4.9-1.478c1.07-.5,2.2-1.192,2.014-2.536" transform="translate(73.807 117.96)" fill="#fea689"/>
            <path id="Fill_184" data-name="Fill 184" d="M6.009,17.082C4.085,11.777,1.746,5.621.384.136.323-.111-.055.009.007.256,1.368,5.74,3.708,11.9,5.631,17.2c.087.239.465.121.378-.119" transform="translate(76.556 119.295)" fill="#c76959"/>
            <path id="Fill_186" data-name="Fill 186" d="M3.483,8.974C2.472,6.348,1.216,2.828.391.139.317-.1-.066,0,.01.244.834,2.933,2.09,6.454,3.1,9.079c.091.235.474.133.382-.105" transform="translate(75.661 129.15)" fill="#c76959"/>
            <path id="Fill_188" data-name="Fill 188" d="M11.347.023.105,5.461c-.239.116-.03.471.207.356L11.554.379c.239-.116.031-.471-.207-.356" transform="translate(89.658 152.589)" fill="#c76959"/>
            <path id="Fill_190" data-name="Fill 190" d="M10.959.041.086,8.418c-.207.16,0,.518.207.356L11.168.4c.207-.16,0-.518-.208-.356" transform="translate(103.173 159.212)" fill="#c76959"/>
            <path id="Fill_192" data-name="Fill 192" d="M90.557,0q-1.8.884-3.614,1.772c-.054.025-.107.054-.165.079-.09.045-.177.086-.268.131-.033.017-.07.033-.1.05L83.865,3.281c-.132.066-.268.131-.4.2Q80.5,4.931,77.53,6.388c-6.7,3.288-35.035,16.947-38.65,18.686l-16.62,8.981,2.517-16.281L3.8,8.687c-.608,5.6-1.855,11.207-2.463,16.81C.3,35.006-1.222,44.609,1.682,54,5.8,67.327,22.82,60.155,31.165,55.751A139.459,139.459,0,0,0,49.357,43.958c2.11-1.529,4.1-3.124,5.9-4.5,8.37-6.388,16.8-12.743,25.4-18.822,3.153-2.23,7.929-5.972,11.214-8.585.116-.091.231-.181.342-.272.313-.247.606-.483.882-.7.115-.087.227-.177.334-.264.288-.235.556-.446.8-.639l.33-.264.985-.8c-1.9-3.33-3.2-5.717-4.983-9.108" transform="translate(23.136 146.467)" fill="#fea689"/>
            <path id="Fill_194" data-name="Fill 194" d="M45.513,0c.553,5.093,1.279,7.027,1.832,12.12.938,8.643,2.322,17.371-.318,25.905-3.747,12.116-19.213,5.6-26.8,1.593A126.7,126.7,0,0,1,3.693,28.9L0,16.351l10.758-4.29L28.322,19.9,25.961,4.945Z" transform="translate(123.868 154.996)" fill="#fea689"/>
          </g>
        </g>
      </g>
    </g>
  </g>
</svg>
