<svg xmlns="http://www.w3.org/2000/svg" width="376" height="84.924" viewBox="0 0 376 84.924">
  <path id="Subtraction_6" data-name="Subtraction 6" d="M376,85H0V.076A31.419,31.419,0,0,0,3.821,14.712a51.636,51.636,0,0,0,10.955,13.7,97.5,97.5,0,0,0,17.332,12.4,169.368,169.368,0,0,0,22.956,10.8,258.491,258.491,0,0,0,27.823,8.914c10.051,2.636,20.8,4.9,31.935,6.73A453.254,453.254,0,0,0,188,73a453.27,453.27,0,0,0,73.178-5.737c11.141-1.83,21.885-4.094,31.935-6.73a258.611,258.611,0,0,0,27.824-8.914,169.16,169.16,0,0,0,22.956-10.8,97.557,97.557,0,0,0,17.334-12.4,51.673,51.673,0,0,0,10.955-13.7A31.446,31.446,0,0,0,376,.226V85Z" transform="translate(0 -0.076)" fill="#fff"/>
</svg>
