<svg xmlns="http://www.w3.org/2000/svg" xmlns:xlink="http://www.w3.org/1999/xlink" width="198" height="175.847" viewBox="0 0 198 175.847">
  <defs>
    <clipPath id="clip-path">
      <rect id="Rectangle_4003" data-name="Rectangle 4003" width="198" height="175.847" transform="translate(280 189)" fill="#fff" stroke="#707070" stroke-width="1"/>
    </clipPath>
  </defs>
  <g id="Mask_Group_79" data-name="Mask Group 79" transform="translate(-280 -189)" clip-path="url(#clip-path)">
    <g id="Group_7563" data-name="Group 7563" transform="translate(288.028 189)">
      <path id="Path_74667" data-name="Path 74667" d="M1407.313,300.825s-4.379,4.688-8.9,9.372v0c-2.059,2.085-4.086,4.177-5.785,5.846-1.484,1.443-2.676,2.573-3.363,3.12l-.18.2-5.281,5.669-11.9-8.165s1.625-2.69,3.941-6.429c4.012-6.588,10.09-16.389,12.7-20.25a43.56,43.56,0,0,1,12.078-11.475Z" transform="translate(-1302.415 -250.633)" fill="#c68a50"/>
      <path id="Path_74668" data-name="Path 74668" d="M1398.41,323.105v.01c-2.059,2.079-4.086,4.168-5.785,5.841-1.484,1.446-2.676,2.568-3.363,3.119l-.18.2-5.281,5.67-11.9-8.165s1.625-2.686,3.941-6.43a18.193,18.193,0,0,0,4.883,4.376,12.281,12.281,0,0,0,1.2.643,13.293,13.293,0,0,0,6.039.38c2.711-.66,4.953-2.731,4.664-4.72s.723-2.956,2.355-5.39c1.59-2.433-.8-8.924-.8-10.688s2.168-.812,2.93,2.216C1397.836,313.2,1398.41,323.105,1398.41,323.105Z" transform="translate(-1302.415 -263.539)" fill="#b87739"/>
      <g id="Group_7555" data-name="Group 7555" transform="translate(125.204 74.48)">
        <path id="Path_74669" data-name="Path 74669" d="M1508,576.275l.395,4.6,1.887,1.926,1.734-2.441.25-4.512Z" transform="translate(-1489.622 -460.447)" fill="#ffa880"/>
        <g id="Group_7554" data-name="Group 7554" transform="translate(13.47 119.918)">
          <path id="Path_74670" data-name="Path 74670" d="M1499.012,589.76l8.969-.541v-1.178l-.035-3.9v-.01l-3.652.535s-.469.254-1.082.623a4.829,4.829,0,0,0-.437.242,6.439,6.439,0,0,1-.613.365h-.039c-.105.1-.289.17-.395.252a11.591,11.591,0,0,0-2.461,1.734,1.558,1.558,0,0,0-.254.807v.043a1.644,1.644,0,0,0-.035.4A5.408,5.408,0,0,0,1499.012,589.76Z" transform="translate(-1498.977 -584.135)" fill="#342e38"/>
        </g>
        <path id="Path_74671" data-name="Path 74671" d="M1499.012,589.773l8.969-.531v-1.178l-.035-3.9a6.08,6.08,0,0,0-1.773,1.193c-.977.959-1.41,1.816-2.781,2.225-.977.264-1.953.324-2.895.568a5.449,5.449,0,0,0-1.484.6,1.65,1.65,0,0,0-.035.406A5.45,5.45,0,0,0,1499.012,589.773Z" transform="translate(-1485.52 -464.234)" fill="#1e1721"/>
        <path id="Path_74672" data-name="Path 74672" d="M1502.383,480.459s-5.32,1.022-7.922,1.221a37.409,37.409,0,0,1-6.727-.47s-1.953-7.595-1.773-13.3-.328-8.374-1.738-15.391c-1.406-7.034-5.715-44.452-6.074-46.241-.109-.435-.18-.878-.254-1.348-1.23-7.053-1.3-18.709-1.34-19.865-.031-.553-.434-2.659-.867-5.517-.254-1.845-.578-4.014-.828-6.274-.148-1.51-.289-3.057-.363-4.575-.039-.778-.074-1.493-.105-2.117,0-.188-.039-.37-.039-.533-.035-.507-.074-.932-.074-1.274-.035-.543-.035-.859-.035-.859h21.051s.254.588.648,1.664c.113.289.219.633.367,1,.215.634.43,1.375.723,2.2.574,1.873,1.266,4.214,1.84,6.892a80.479,80.479,0,0,1,2.027,12.785c.105,1.239.219,2.965.293,5.072.609,14.558.863,47.373,1.012,66.841.105,8.382.145,14.3.18,15.208.031.48.031.914.07,1.312A25.7,25.7,0,0,1,1502.383,480.459Z" transform="translate(-1474.242 -363.914)" fill="#71433d"/>
      </g>
      <g id="Group_7557" data-name="Group 7557" transform="translate(97.384 74.403)">
        <path id="Path_74673" data-name="Path 74673" d="M1433.949,574.734l-.141,4.639,1.734,2.117,1.953-2.262.723-4.447Z" transform="translate(-1428.013 -459.866)" fill="#ffa880"/>
        <g id="Group_7556" data-name="Group 7556" transform="translate(0 119.379)">
          <path id="Path_74674" data-name="Path 74674" d="M1423.148,587.625l8.969.434.074-.73.035-.436.4-3.869v-.018l-3.691.135s-.469.2-1.156.508c-.141.061-.289.117-.469.18-.18.107-.4.2-.613.309h-.035c-.148.07-.293.133-.434.2a11.093,11.093,0,0,0-2.645,1.465,1.777,1.777,0,0,0-.324.76v.063c-.035.137-.035.262-.074.4C1423.148,587.354,1423.148,587.625,1423.148,587.625Z" transform="translate(-1423.148 -583.006)" fill="#342e38"/>
        </g>
        <path id="Path_74675" data-name="Path 74675" d="M1423.148,587.645l8.969.43.074-.738.035-.426.4-3.871a5.465,5.465,0,0,0-1.879,1c-1.09.846-1.559,1.652-3.043,1.895-.977.172-1.953.123-2.93.26a6.367,6.367,0,0,0-1.516.443c-.035.137-.035.266-.074.4C1423.148,587.371,1423.148,587.645,1423.148,587.645Z" transform="translate(-1423.148 -463.64)" fill="#1e1721"/>
        <path id="Path_74676" data-name="Path 74676" d="M1463.551,365.266s-.105.813-.293,2.224c0,.146-.035.271-.035.425-.074.65-.18,1.4-.254,2.242-.937,7.732-2.711,22.724-3.5,30.581-.148,1.338-.328,2.731-.582,4.159-.141.814-.289,1.646-.469,2.479-.8,4.113-1.844,8.436-2.82,12.487a95.522,95.522,0,0,0-2.062,11.13,23.743,23.743,0,0,0-.074,2.731c.363,7.315-2.781,19.4-2.82,26.539,0,2.251-1.879,7.441-2.207,10.263-.18,1.438-.25,2.7-.43,3.844a16.648,16.648,0,0,1-1.7,4.892s-13.742-.027-13.742-.417,2.6-81.642,3.109-88.894a89.146,89.146,0,0,1,4.27-22.289q.211-.7.434-1.275a15.356,15.356,0,0,1,.617-1.646c.246-.624.395-.967.395-.967Z" transform="translate(-1427.428 -363.773)" fill="#71433d"/>
        <path id="Path_74677" data-name="Path 74677" d="M1489.875,396.609c-6.184,1.536-16.6,3.941-18.66,3.535-1.887-.38-2.207-5.913-2.535-10.489-.145-2.623-.289-4.919-.723-5.732-.285-.579-1.664-1-3.578-1.285a118.129,118.129,0,0,0-14.941-.677s6.984-2.794,14.145-5.589c2.383-.958,4.844-1.908,7.02-2.749,3.543-1.383,6.473-2.478,7.555-2.829,2.457-.8,6.73,4.4,9.441,7.965a91.552,91.552,0,0,1,1.988,12.777C1489.73,392.783,1489.77,394.5,1489.875,396.609Z" transform="translate(-1435.126 -366.935)" fill="#5c2f29"/>
      </g>
      <g id="Group_7560" data-name="Group 7560" transform="translate(100.923 0)">
        <path id="Path_74678" data-name="Path 74678" d="M1443.992,230.246a3.644,3.644,0,0,0-1.449-2.433l-.074-.035a6.153,6.153,0,0,0-2.566-.643,2.675,2.675,0,0,0-1.227.344,9.037,9.037,0,0,0-5.68.629,3.778,3.778,0,0,0-2.1,2.287,2.726,2.726,0,0,0-1.051,1.166c-.543,1.239.219,2.053.219,3.291,0,.941-.254,1.416.5,2.2a16.06,16.06,0,0,1,1.52,1.6,2.447,2.447,0,0,0,.762.746,4.879,4.879,0,0,0,2.641.234c.32.376.359.719.867.932a3.4,3.4,0,0,0,1.844.063,24.241,24.241,0,0,1,4.992.411c1.34.2,2.352.406,2.352.406S1444.316,231.521,1443.992,230.246Zm-10.2,8.771a1.532,1.532,0,0,1-.4-.167,10.392,10.392,0,0,1,1.266.257A3.122,3.122,0,0,1,1433.793,239.018Z" transform="translate(-1429.652 -227.136)" fill="#342e38"/>
        <g id="Group_7559" data-name="Group 7559" transform="translate(2.088 3.781)">
          <g id="Group_7558" data-name="Group 7558">
            <path id="Path_74679" data-name="Path 74679" d="M1444.48,235.62c-.574-.275-1.156-.533-1.773-.764h0a8.34,8.34,0,0,0-6.582-.172,4.354,4.354,0,0,0-2.6,4.336l-.039.009a10.356,10.356,0,0,0,.254,2.319c.582,2.378,1.953,7.1,4.27,8.414a4.492,4.492,0,0,0,4.191-.113l.039-.018a12.9,12.9,0,0,0,2.281-1.411,18.6,18.6,0,0,0,2.133-1.89,11.728,11.728,0,0,0,.25-2.044,11.187,11.187,0,0,0,.039-1.153c-.039-.117-1.559-5.447-2.316-7.31A.214.214,0,0,0,1444.48,235.62Z" transform="translate(-1433.484 -234.079)" fill="#ffa880"/>
            <path id="Path_74680" data-name="Path 74680" d="M1456.477,258.377c-.719-1.2-1.8-3.433-2.633-5.177-.187-.358-.336-.7-.469-1v0c-.148-.263-.258-.5-.363-.7-.223-.476-.332-.765-.332-.765l-.4.388-.832.847-4.59,4.538.32.941v.009l.078.146v.008l.5,1.356.254.606,1.484,3.9s.184-.019.184-.022a.4.4,0,0,0,.219-.059c1.188-.42,2.527-.579,3.758-.922,1.055-.286,2.531-.634,3.184-1.587S1456.918,259.168,1456.477,258.377Z" transform="translate(-1439.564 -241.663)" fill="#ffa880"/>
          </g>
        </g>
        <path id="Path_74681" data-name="Path 74681" d="M1447.176,244.1v.021c-.141-.176-2.387-2.97-2.457-3.065.141-1.054-.18-2.346-1.156-2.481a1.247,1.247,0,0,0-.687.086,1.472,1.472,0,0,0-.8,1.465c-.074-.117-.828-1.145-.941-1.279a10.432,10.432,0,0,0-.578-1.181,2.624,2.624,0,0,0-1.7-.524c-1.23.006-1.7.661-2.68.9-.395.095-.863,0-1.266.122-.937.275-1.117.754-1.516,1.568-.148.339-.363-4.458,1.484-5.488a9.184,9.184,0,0,1,2.672-1.172,8.532,8.532,0,0,1,3.113.362c.324.059.582.1.828.149,1.52.294,2.684.538,3.438,2.188A56.039,56.039,0,0,1,1447.176,244.1Z" transform="translate(-1431.322 -229.816)" fill="#342e38"/>
        <path id="Path_74682" data-name="Path 74682" d="M1438.047,250.79s1.484,1.329,2.133,1.284a.867.867,0,0,0,.648-1.284,4.451,4.451,0,0,0-.395-.781l.723-.371a3.9,3.9,0,0,0,.617,1.081c.4.393,2.352.614,2.75-.539s.285-2.093-.219-4.3c-.07-.343-1.449-4.647-1.449-4.647a7.016,7.016,0,0,1,1.449.945c.184.479.938,3.933,1.121,4.421a20.391,20.391,0,0,1,.832,5.326c-.145,1.008-.4,1.021-1.266,1.809-.906.786-.937.882-1.914.9s-1.742.289-2.609-.2-.469-.588-1.117-1.152A7.3,7.3,0,0,1,1438.047,250.79Z" transform="translate(-1433.472 -233.553)" fill="#342e38"/>
        <path id="Path_74683" data-name="Path 74683" d="M1439.758,255.827c-.039-.171.688-.293,1.336-.605a11.561,11.561,0,0,0,1.3-.76c.109-.063.5-.316.617-.186s-.074.457-.148.57a2.544,2.544,0,0,1-1.738,1.347,1.842,1.842,0,0,1-1.012-.063C1439.867,256.036,1439.758,255.927,1439.758,255.827Z" transform="translate(-1434.263 -239.48)" fill="#f28057"/>
      </g>
      <g id="Group_7561" data-name="Group 7561" transform="translate(96.438 18.517)">
        <path id="Path_74684" data-name="Path 74684" d="M1474.418,327.2l-11.934,1.533-9.371,1.208-5.2.669-12.992,1.664-4.48.578s-.18-6.759-.836-12.451c-1.48-13.306-8.535-44.258-8.172-47.021.324-2.766,15.156-8.681,15.156-8.681a8.221,8.221,0,0,0,4.52-1.106,15.106,15.106,0,0,0,2.965-2.012s11.43-1.153,15.59.257,5.605,3.694,6.73,8.291c1.191,4.662,5.426,38.837,6.613,42.635C1473.84,315.562,1474.418,327.2,1474.418,327.2Z" transform="translate(-1421.416 -261.141)" fill="#fff"/>
      </g>
      <path id="Path_74685" data-name="Path 74685" d="M1460.75,361.621a19.134,19.134,0,0,0-4.844-2.587c-.758-.252-1.516-.262-1.992-1.059-.574-1,.039-2.367-.285-3.489-.395-1.257-.9-2.062-.578-3.481a26.047,26.047,0,0,0,.938-3.265,34.762,34.762,0,0,0-.074-5.524,8.115,8.115,0,0,1,.4-2.938,16.625,16.625,0,0,0,.9-3.744c.074-.768.469-2.667-.215-3.228-.613-.47-.508.76-.543,1.03-.324,2.577-2.277,4.721-2.969,7.2a32.93,32.93,0,0,0-1.3,6.394c-.215,2.2-2.023,3.235-3.254,4.854a5.341,5.341,0,0,0-.613,1c-.434.85-.9.885-1.879.794a14.334,14.334,0,0,1-2.1-.424,1.811,1.811,0,0,0,.035-.434c.113-.371-.469-.533-.543-.164-.035.154-.035.3-.07.443-.363-.08-.687-.162-.977-.234-.363-.082-.547.488-.145.568.328.064.648.164.977.263a15.805,15.805,0,0,0,1.3,9.893c.215.4.43.786.648,1.149l12.984-1.664,5.207-.679C1461.441,362.073,1461.117,361.847,1460.75,361.621Z" transform="translate(-1333.635 -274.987)" fill="#faf1ee"/>
      <path id="Path_74686" data-name="Path 74686" d="M1435.164,347.2c-.141,3.132.109,4.462-.613,4.462s-13.707-.887-13.707-.887-1.051-18.369-1.484-29.74c-.141-3.246-.18-5.918-.18-7.428,0-6.791-3.219-29.654-2.641-34.08.434-3.191,7.668-6.516,11.684-8.121v0c1.559-.628,2.641-.994,2.641-.994a46.06,46.06,0,0,0-1.7,16.74c.723,7.186,1.879,16.15,2.75,23.529v.014h0c.18,1.709.359,3.336.574,4.829.184,1.831.582,5.632.941,10C1434.3,334.19,1435.238,345.1,1435.164,347.2Z" transform="translate(-1322.72 -246.847)" fill="#c68a50"/>
      <path id="Path_74687" data-name="Path 74687" d="M1437.563,389.541c-.18,3.147.141,4.467-.613,4.467s-13.711-.887-13.711-.887-1.012-18.372-1.48-29.738l14.1,4.484C1436.7,376.538,1437.633,387.453,1437.563,389.541Z" transform="translate(-1325.142 -289.195)" fill="#b87739"/>
      <path id="Path_74688" data-name="Path 74688" d="M1352.047,368.458c-.469,5.353-.906,10.715-1.379,16.076-.863,10.824-1.3,22.806-4.555,33.186a111.076,111.076,0,0,1-4.629,12.071c-7.3,16.05-20.219,29.025-35.7,37.2a12.677,12.677,0,0,1-6.836,1.674,13.128,13.128,0,0,1-4.922-1.42c-19.6-9.611-34.574-27.479-42.461-47.824a108.834,108.834,0,0,1-7.016-32.651,129.217,129.217,0,0,1,.074-16.819c.215-2.8.508-5.588.9-8.372a47.949,47.949,0,0,1,.832-6.864,4.544,4.544,0,0,1,1.156-1.872c2.172-2.17,6.512-3.191,8.9-3.987a109.037,109.037,0,0,0,22.75-10.507,106.865,106.865,0,0,0,10.6-7.315c1.664-1.293,3.289-2.631,4.848-4.014.9-.778,1.664-1.692,2.531-2.5a2.776,2.776,0,0,1,1.809-.759c2.5-.026,5.027,3.653,6.91,5.19a118.5,118.5,0,0,0,12.73,8.951,113.993,113.993,0,0,0,27.6,12.035c1.3.38,4.16.887,4.988,2.216,0,.026.035.045.035.063C1354,356.838,1352.441,363.339,1352.047,368.458Z" transform="translate(-1244.313 -271.149)" fill="#faaf6e"/>
      <path id="Path_74689" data-name="Path 74689" d="M1301.57,323.762v11.23l-10.344,27.85-33.418-3.535-7.633-6.465c2.168-2.18,6.473-3.192,8.895-3.988a109.654,109.654,0,0,0,33.352-17.831c1.664-1.284,3.25-2.622,4.844-4.007.867-.785,1.664-1.69,2.57-2.494A2.558,2.558,0,0,1,1301.57,323.762Z" transform="translate(-1246.973 -271.149)" fill="#ffcb87"/>
      <path id="Path_74690" data-name="Path 74690" d="M1397.457,408.179c-.871,10.833-2.422,22.959-5.68,33.339a98.617,98.617,0,0,1-4.629,12.071,80.45,80.45,0,0,1-35.664,37.191,12.761,12.761,0,0,1-6.836,1.682V481.919l11.938-16.557,31.828-82.665,8.465-6.682C1401.289,379.832,1397.891,402.817,1397.457,408.179Z" transform="translate(-1290.024 -294.945)" fill="#faaf6e"/>
      <path id="Path_74691" data-name="Path 74691" d="M1351.457,397.146c-.25,3.86-.684,7.93-1.336,12.08a97.656,97.656,0,0,1-6.508,23.32,63.944,63.944,0,0,1-6.91,12.225,67.119,67.119,0,0,1-8.1,9.2,67.834,67.834,0,0,1-8.176,6.547,61.193,61.193,0,0,1-7.086,4.214c-1.125.588-2.242,1.139-3.437,1.637-1.012.443-2.242,1.148-3.4.959a11.309,11.309,0,0,1-2.645-1.049,63.633,63.633,0,0,1-5.895-2.957,69.12,69.12,0,0,1-7.629-5.1,66.359,66.359,0,0,1-16.059-17.913,60.5,60.5,0,0,1-3.906-7.687,103.406,103.406,0,0,1-7.273-28.292,153.722,153.722,0,0,1-1.047-24.424c.109-2.415.219-4.828.508-7.243.105-1.212-.184-3.282.9-4.15a11.391,11.391,0,0,1,3.184-1.2c3.543-1.249,7.09-2.47,10.633-3.834a63.383,63.383,0,0,0,12.156-5.761c9.184-6.094,16.418-13.337,17.539-13.337s8.352,6.989,17.578,13.093c11.395,7.561,25.141,9.576,26.223,10.815C1351.824,369.53,1352.582,380.914,1351.457,397.146Z" transform="translate(-1252.336 -280.541)" fill="#f29d52"/>
      <path id="Path_74692" data-name="Path 74692" d="M1351.324,400.058c-.293,3.681-.687,7.561-1.3,11.512a92.47,92.47,0,0,1-6.223,22.244,62.407,62.407,0,0,1-33.457,32.8,4,4,0,0,1-2.895,0A62.3,62.3,0,0,1,1274,433.876c-5.176-11.944-7.238-25.1-7.746-38.03-.18-5.479-.031-10.986.223-16.458.074-1.311.18-2.622.254-3.924a7.978,7.978,0,0,1,.215-2.107c.324-.939,1.336-1.021,2.172-1.311,1.988-.66,3.973-1.32,5.926-2a98.566,98.566,0,0,0,15.051-6.311c.688-.39,1.371-.8,2.059-1.258a110.745,110.745,0,0,0,11.793-8.843c1.371-1.167,2.75-2.83,4.414-3.608.863-.416,1.3.046,1.953.544.723.551,1.445,1.146,2.137,1.754,1.625,1.364,3.176,2.739,4.844,4a18,18,0,0,0,2.059,1.528c.652.479,1.34.958,1.992,1.42,1.41,1.013,2.855,2,4.3,2.966,10.855,7.206,23.367,8.97,25,10.308S1352.371,384.587,1351.324,400.058Z" transform="translate(-1254.271 -283.032)" fill="#ffcb87"/>
      <path id="Path_74693" data-name="Path 74693" d="M1304.328,430.685a4.308,4.308,0,0,0,.469,3.092q6.949,13.834,13.891,27.67c1.117,2.252,2.387,4.666,4.7,5.75a4.624,4.624,0,0,0,3.215.336c1.953-.562,3.113-2.486,4.09-4.277,7.27-13.527,12.98-27.959,21.664-40.609,2.133-3.1,1.445-7.035-3.145-6.492a10.054,10.054,0,0,0-6.551,4.16,31.876,31.876,0,0,0-3.617,7.078q-6.34,16.034-12.727,32.055a1.238,1.238,0,0,1-.289.463c-.508.461-1.27-.244-1.559-.859a99.3,99.3,0,0,1-5.391-12.6c-1.48-4.168-2.316-8.951-4.59-12.777a9.071,9.071,0,0,0-6.293-4.719C1306.063,428.669,1304.727,429.4,1304.328,430.685Z" transform="translate(-1271.584 -313.205)" fill="#faaf6e"/>
      <path id="Path_74694" data-name="Path 74694" d="M1502.605,340.238c-.582.887-2.863,1.718-6.77,2.469-3.324.634-13.27,2.545-14.754,2.545s-.758-14.9-1.773-23.451c-.434-3.562-1.445-10.153-2.5-17.18v-.027c-1.516-9.815-3.18-20.467-3.684-24.861-.91-7.555-5.934-18.608-5.934-18.608s1.086-.136,2.781-.29c4.523-.365,13.2-.745,16.711,1.455,4.883,3.053,6.039,26.02,7.813,34.442.293,1.271.688,3.364,1.27,5.974,1.117,5.56,2.711,13.428,4.047,20.529C1501.516,332.146,1502.895,339.827,1502.605,340.238Z" transform="translate(-1345.828 -242.358)" fill="#c68a50"/>
      <path id="Path_74695" data-name="Path 74695" d="M1512.746,337.96a13.715,13.715,0,0,1-3.078,4.792,16.232,16.232,0,0,0-3.648,4.758,23.32,23.32,0,0,0-1.012,3.209,12.084,12.084,0,0,0-.543,3.038c.074,1.565,1.914,1.781,3.184,1.673,2.5-.227,5.895-1.084,7.738,1.348a13.784,13.784,0,0,0,1.414,1.719C1515.461,351.388,1513.871,343.513,1512.746,337.96Z" transform="translate(-1362.802 -277.612)" fill="#b87739"/>
      <path id="Path_74696" data-name="Path 74696" d="M1525.063,290.216c-.184.267-3.582-.466-7.848-1.511-.363-.08-.723-.176-1.086-.266-1.809-.457-3.762-.958-5.676-1.456-5.789-1.511-11.105-2.976-11.105-2.976l-4.668-22.867a47.642,47.642,0,0,1,15.156,3.991c7.594,3.509,21.992,11.042,23.363,13.343.039.019.039.032.039.045C1533.961,279.881,1525.641,289.479,1525.063,290.216Z" transform="translate(-1358.356 -242.624)" fill="#c68a50"/>
      <g id="Group_7562" data-name="Group 7562" transform="translate(143.98 35.744)">
        <path id="Path_74697" data-name="Path 74697" d="M1537.188,302.9c-1.7,2.188-4.953,6.28-8.207,10.322-1.379,1.718-2.785,3.427-4.055,4.973-1.266,1.588-2.387,3.025-3.324,4.129a11.486,11.486,0,0,1-.762.939c-.617.765-1.012,1.253-1.086,1.38,0,.009-.031.017-.031.03l-2.57-1.455s.18-.411.5-1.139a1.551,1.551,0,0,0,.18-.416c.18-.316.328-.674.547-1.077.469-1.075,1.082-2.441,1.809-3.951.105-.221.211-.443.324-.683l.723-1.592c.289-.542.5-1.085.8-1.632,3.039-6.433,6.723-13.893,8.461-16.406C1536.141,288.262,1542.977,295.464,1537.188,302.9Z" transform="translate(-1512.577 -292.779)" fill="#ffa880"/>
        <path id="Path_74698" data-name="Path 74698" d="M1531.477,329.917c-1.375,1.709-2.746,3.418-3.98,4.973l-4.773-1.573h0l.328-.669.758-1.6.758-1.637h0Z" transform="translate(-1515.091 -309.459)" fill="#fff"/>
        <path id="Path_74699" data-name="Path 74699" d="M1515.852,348.334c-.758-.85-1.773-2.16-1.773-2.16s-.035.027-.109.09v.027c-.07.037-.07.072-.141.108-.18.181-.508.452-.836.76-.828.759-1.879,1.745-2.164,2.106a13.03,13.03,0,0,0-1.051,1.483,4.639,4.639,0,0,1-.328.561c-.074.071-.074.153-.105.226a3.564,3.564,0,0,0-.617,1.51c-.035.164.18.236.289.136a5.8,5.8,0,0,0,.867-1.176c.109-.188.254-.38.328-.542a7.473,7.473,0,0,0,.395-.66,6.937,6.937,0,0,0-.285.76,3.188,3.188,0,0,0-.258.578c-.031.019-.031.055-.07.073-.109.335-.4.985-.5,1.429-.074.217-.113.389-.074.442.215.335.578-.226.723-.38,0-.008.035-.045.035-.062a5.726,5.726,0,0,1,.4-.516c.074-.108.148-.2.184-.207a2.247,2.247,0,0,1-.148.306c-.035.118-.035.263-.066.417a1.594,1.594,0,0,0-.039.578c0,.127.145.172.254.127a1.816,1.816,0,0,0,.395-.326,2.429,2.429,0,0,0,.219-.369c.035-.056.074-.109.109-.154a.472.472,0,0,0,.105-.19c0,.108-.035.226-.035.335v.018c.035.019.035.037.035.054.039.019.039.037.074.056v.008a.285.285,0,0,0,.254.027c0-.027.035-.072.145-.145.324-.353.977-1.221,1.445-1.754a1.513,1.513,0,0,0,.184-.19,32.029,32.029,0,0,0,2.168-2.721c0-.01.039-.019.039-.028.031-.045.031-.062.07-.09a1.37,1.37,0,0,0,.109-.234A1.833,1.833,0,0,0,1515.852,348.334Z" transform="translate(-1508.723 -317.098)" fill="#ffa880"/>
      </g>
      <path id="Path_74700" data-name="Path 74700" d="M1549.3,299.109c-.871,5.742-1.555,6.026-4.844,9.589-3,3.233-1.2,5.453-4.414,6.127-3.293.664-13.961-3.848-13.961-3.848l3.688-8.328.688-1.541,2.348-5.326,1.016-2.283,6.043-4.562,7.23,1.755a3.877,3.877,0,0,1,.434.452C1548.324,292.11,1549.988,294.705,1549.3,299.109Z" transform="translate(-1372.64 -255.283)" fill="#c68a50"/>
      <path id="Path_74701" data-name="Path 74701" d="M1454.051,241.967v-.014c-.031-.583-1.187-9.937-1.516-11.168a3.8,3.8,0,0,0-1.445-2.437l-.074-.031c.035.031.035.063.074.095.8,2.572-.648,1.8-1.625,1.989a1,1,0,0,0-.871.5,1.954,1.954,0,0,0-.219.543c-.145,1.106,1.41,1.957,1.484,3.042a12.577,12.577,0,0,0-.109,2.025,1.345,1.345,0,0,1,.691-.081c.977.136,1.336,1.424,1.188,2.486.074.091,2.316,2.885,2.422,3.057v-.009Z" transform="translate(-1337.252 -227.673)" fill="#1e1721"/>
      <path id="Path_74702" data-name="Path 74702" d="M1471.859,430.578v.053c-.145.8-.289,1.637-.469,2.469-.8,4.115-1.883,8.428-2.785,12.486a87.838,87.838,0,0,0-2.1,11.131c-.691-.6-1.445-1.256-2.242-1.953-3.078-2.766-1.156-5.053,0-9.34,1.191-4.268-2.641-7.08-.687-11.8,2.023-4.711-2.57-8.41-2.57-11.648s3.4-1.328,4.957,1.031C1467.484,425.369,1471.859,430.578,1471.859,430.578Z" transform="translate(-1342.995 -315.098)" fill="#5c2f29"/>
      <path id="Path_74703" data-name="Path 74703" d="M1518.141,550.414c-.074-.912-.074-6.818-.18-15.209a3.6,3.6,0,0,1-.8-.516,11.442,11.442,0,0,1-1.2-1.592c-.5-.686-1.012-1.385-1.555-2.061-.941-1.131-2.387-2.668-3.977-2.8-1.445-.09-1.742,1.492-1.559,2.639.359,2.008,2.027,3.281,3.289,4.756a5.836,5.836,0,0,1,1.41,4.506,6.513,6.513,0,0,0,.4,2.639,26,26,0,0,1,1.445,3.156c.289,1.174-.145,2.432.363,3.553a5.6,5.6,0,0,0,2.422,2.25C1518.176,551.338,1518.176,550.893,1518.141,550.414Z" transform="translate(-1364.787 -364.276)" fill="#5c2f29"/>
      <path id="Path_74704" data-name="Path 74704" d="M1538,295.705c-1.707-.095-3.3.927-4.6,1.876-.582.425-1.156.859-1.7,1.274a10.087,10.087,0,0,1-3.508,1.8,15.686,15.686,0,0,0-2.891,1.533,6.092,6.092,0,0,1-1.633.533c1.918.5,3.832,1,5.68,1.456l-.687,1.542a8.5,8.5,0,0,0,1.734-1.235l.035-.04c.8-.791,1.27-1.812,1.992-2.668a5.72,5.72,0,0,1,3.324-1.876c1.34-.339,3.727-.442,4.27-2.062C1540.457,296.541,1539.086,295.755,1538,295.705Z" transform="translate(-1371.547 -258.36)" fill="#b87739"/>
      <path id="Path_74705" data-name="Path 74705" d="M1438.684,310.676c-.18-.665-6.652-21.949-7.234-24.757s3.473-14.184,3.582-14.515v0c1.555-.628,2.6-.994,2.6-.994a46.5,46.5,0,0,0-1.664,16.74C1436.691,294.332,1437.852,303.3,1438.684,310.676Z" transform="translate(-1329.528 -246.847)" fill="#f5e3dc"/>
      <path id="Path_74706" data-name="Path 74706" d="M1476.813,304.857v-.022c-1.516-9.82-3.18-20.468-3.684-24.862-.91-7.555-5.934-18.608-5.934-18.608s1.086-.146,2.781-.289l.039.035s6.258,11.462,7.02,15.346C1477.43,278.734,1476.813,304.857,1476.813,304.857Z" transform="translate(-1345.828 -242.597)" fill="#f5e3dc"/>
      <path id="Path_74707" data-name="Path 74707" d="M1522.227,345.6c-.285.344-.539.651-.758.94-1.012-.488-2.027-1.013-3-1.61.145-.307.293-.669.473-1.075A32.065,32.065,0,0,0,1522.227,345.6Z" transform="translate(-1369.173 -280.294)" fill="#71433d"/>
      <path id="Path_74708" data-name="Path 74708" d="M1521.4,345.354a.977.977,0,1,0-.977.977A.973.973,0,0,0,1521.4,345.354Z" transform="translate(-1369.636 -280.535)" fill="#fff"/>
      <path id="Path_74709" data-name="Path 74709" d="M1313.316,358.522a2.718,2.718,0,0,0-1.23.254,5.632,5.632,0,0,0-1.734,1.329c-3.656,3.508-7.492,7.686-12.047,9.973-4.883,3.2-10.344,4.82-15.445,7.523-4.23,2.234-7.3,5.525-8.172,10.317a47.812,47.812,0,0,0-.582,8.184c-.066,2.776-.359,5.769.148,8.517.359,2.027,1.988,5.3,4.375,3.265,1.449-1.237,2.207-3.58,2.895-5.3a50.816,50.816,0,0,1,3.324-7.488c5.105-8.616,13.566-14.521,20.73-21.267a63.5,63.5,0,0,0,7.3-7.7c1.016-1.293,2.492-3.092,2.641-4.8A2.5,2.5,0,0,0,1313.316,358.522Z" transform="translate(-1257.819 -286.98)" fill="#ffe0a1"/>
    </g>
  </g>
</svg>
