<svg xmlns="http://www.w3.org/2000/svg" width="24" height="24" viewBox="0 0 24 24">
  <g id="Group_7738" data-name="Group 7738" transform="translate(-216 -206)">
    <g id="Group_7731" data-name="Group 7731" transform="translate(216 206)">
      <rect id="Rectangle_4019" data-name="Rectangle 4019" width="24" height="24" rx="4" transform="translate(0 0)" fill="#fff"/>
      <g id="Group_7737" data-name="Group 7737" transform="translate(5.16 6.36)">
        <path id="Path_87090" data-name="Path 87090" d="M-20.86,557.98h9.6a.839.839,0,0,0,.84-.84.839.839,0,0,0-.84-.84h-9.6a.839.839,0,0,0-.84.84A.839.839,0,0,0-20.86,557.98Z" transform="translate(21.7 -556.3)" fill="#2c2c2c"/>
        <path id="Path_87091" data-name="Path 87091" d="M-20.86,561.48h9.6a.839.839,0,0,0,.84-.84.839.839,0,0,0-.84-.84h-9.6a.839.839,0,0,0-.84.84A.839.839,0,0,0-20.86,561.48Z" transform="translate(21.7 -555.6)" fill="#2c2c2c"/>
        <path id="Path_87092" data-name="Path 87092" d="M-14.26,563.3h-6.6a.839.839,0,0,0-.84.84.839.839,0,0,0,.84.84h6.6a.839.839,0,0,0,.84-.84A.839.839,0,0,0-14.26,563.3Z" transform="translate(21.7 -554.9)" fill="#2c2c2c"/>
        <path id="Path_87093" data-name="Path 87093" d="M-8.06,563.7H-9.62v-1.56a.839.839,0,0,0-.84-.84.839.839,0,0,0-.84.84v1.56h-1.56a.839.839,0,0,0-.84.84.839.839,0,0,0,.84.84h1.56v1.56a.839.839,0,0,0,.84.84.839.839,0,0,0,.84-.84v-1.56h1.56a.839.839,0,0,0,.84-.84A.839.839,0,0,0-8.06,563.7Z" transform="translate(23.3 -555.3)" fill="#2c2c2c"/>
      </g>
    </g>
  </g>
</svg>
