<svg xmlns="http://www.w3.org/2000/svg" width="72" height="22" viewBox="0 0 72 22">
  <g id="Group_7046" data-name="Group 7046" transform="translate(-88 -586)">
    <g id="Icon_Payment_Networks_Visa" data-name="Icon/Payment Networks/Visa" transform="translate(88 586)">
      <g id="visa">
        <rect id="visa-bg" width="32" height="22" rx="3" fill="#224dba"/>
        <path id="visa-logo" d="M12.686,7l-.151,0a5.2,5.2,0,0,1-1.957-.366l.318-1.463a4.559,4.559,0,0,0,1.851.418c.526,0,1.057-.21,1.057-.679.049-.3-.177-.507-.9-.836-.714-.354-1.535-.881-1.535-1.828C11.37.944,12.638,0,14.385,0a4.577,4.577,0,0,1,1.64.314l-.318,1.462a3.339,3.339,0,0,0-1.45-.326c-.1,0-.2,0-.295.013a.7.7,0,0,0-.741.575c0,.312.4.521.872.762.719.371,1.614.833,1.614,1.9C15.707,6.1,14.521,7,12.686,7ZM17.5,6.946H15.654L18.3.679a.8.8,0,0,1,.741-.522h1.534L22,6.944H20.361l-.212-.992H17.875l-.37.992Zm1.8-4.961-.952,2.559h1.48ZM9.414,6.945h-1.8L9.1.157h1.8L9.414,6.945Zm-3.914,0H3.6L2.168,1.515A.874.874,0,0,0,1.745.941,6.233,6.233,0,0,0,0,.365V.157H3.067a.8.8,0,0,1,.794.679L4.6,4.753,6.5.157H8.356L5.5,6.945Z" transform="translate(5 7.5)" fill="#fff"/>
      </g>
    </g>
    <g id="Icon_Payment_Networks_MasterCard" data-name="Icon/Payment Networks/MasterCard" transform="translate(128 586)">
      <g id="mastercard">
        <rect id="mastercard-bg" width="32" height="22" rx="3" fill="#353a48"/>
        <g id="Group" transform="translate(6 4.5)">
          <path id="Combined_Shape" data-name="Combined Shape" d="M9.953,10.7a5.99,5.99,0,0,1-3.915,1.451A6.075,6.075,0,0,1,6.037,0,5.99,5.99,0,0,1,9.953,1.451,5.99,5.99,0,0,1,13.868,0a6.075,6.075,0,0,1,0,12.149A5.99,5.99,0,0,1,9.953,10.7Z" transform="translate(0 0.5)" fill="#ff5e00"/>
          <path id="Combined_Shape-2" data-name="Combined Shape" d="M6.037,12.149A6.075,6.075,0,0,1,6.037,0,6.015,6.015,0,0,1,9.953,1.451a6.1,6.1,0,0,0,0,9.247A6.015,6.015,0,0,1,6.037,12.149Z" transform="translate(0 0.5)" fill="#ed0006"/>
          <path id="Combined_Shape-3" data-name="Combined Shape" d="M3.916,12.149A6.017,6.017,0,0,1,0,10.7,6.083,6.083,0,0,0,2.121,6.075,6.085,6.085,0,0,0,0,1.451,6.029,6.029,0,0,1,9.952,6.075,6.062,6.062,0,0,1,3.916,12.149Z" transform="translate(9.953 0.5)" fill="#f9a000"/>
        </g>
      </g>
    </g>
  </g>
</svg>
