<svg xmlns="http://www.w3.org/2000/svg" width="24" height="24" viewBox="0 0 24 24">
  <g id="Group_7734" data-name="Group 7734" transform="translate(10278 86)">
    <g id="Group_7732" data-name="Group 7732" transform="translate(-10278 -86)">
      <rect id="Rectangle_3401" data-name="Rectangle 3401" width="24" height="24" rx="4" fill="none"/>
      <rect id="Rectangle_3451" data-name="Rectangle 3451" width="24" height="24" rx="4" fill="none"/>
      <path id="Path_16595" data-name="Path 16595" d="M640.428,243v1.68h1.68a.84.84,0,0,1,.84.84h0a.84.84,0,0,1-.84.84h-1.681v1.68a.84.84,0,0,1-.84.84h0a.839.839,0,0,1-.84-.839v-1.681h-1.679a.84.84,0,0,1-.84-.84h0a.84.84,0,0,1,.84-.84h1.68V243a.84.84,0,0,1,.84-.84h0A.84.84,0,0,1,640.428,243Zm1.044-8.6a5.043,5.043,0,0,1,.806,6.076.834.834,0,0,1-1.306.145h0a.837.837,0,0,1-.129-1.009,3.363,3.363,0,0,0-5.172-4.154l-1.121,1.006-1.122-1.005a3.36,3.36,0,0,0-4.776,4.708l6.49,6.5a.839.839,0,0,1,0,1.187h0a.839.839,0,0,1-1.189,0l-6.528-6.537a5.04,5.04,0,0,1,7.123-7.109,5.038,5.038,0,0,1,6.923.191Z" transform="translate(-622.549 -229.322)" fill="#fff"/>
    </g>
  </g>
</svg>
