<svg xmlns="http://www.w3.org/2000/svg" xmlns:xlink="http://www.w3.org/1999/xlink" width="152" height="115" viewBox="0 0 152 115">
  <defs>
    <clipPath id="clip-path">
      <rect id="Rectangle_4124" data-name="Rectangle 4124" width="152" height="115" rx="8" transform="translate(12181 17207)" fill="#fff"/>
    </clipPath>
    <clipPath id="clip-path-2">
      <rect id="Rectangle_3496" data-name="Rectangle 3496" width="9.923" height="10.247" transform="translate(0)" fill="#f2f2f2"/>
    </clipPath>
    <clipPath id="clip-path-3">
      <path id="Clip_145" data-name="Clip 145" d="M0,0H8.855V9.443H0Z" fill="none"/>
    </clipPath>
  </defs>
  <g id="Group_7970" data-name="Group 7970" transform="translate(-24 -397)">
    <rect id="Rectangle_3498" data-name="Rectangle 3498" width="152" height="115" rx="8" transform="translate(24 397)" fill="#fff"/>
    <g id="Group_7957" data-name="Group 7957" transform="translate(-12157 -16810)">
      <rect id="Rectangle_4123" data-name="Rectangle 4123" width="152" height="115" transform="translate(12181 17207)" fill="#fff1e8"/>
      <g id="Mask_Group_114" data-name="Mask Group 114" clip-path="url(#clip-path)">
        <g id="Group_7956" data-name="Group 7956" transform="translate(-274.783 346.111)">
          <path id="Mask" d="M106.428,117.855c30.535-8.162,42.934-46.672,33.068-80.555a63.971,63.971,0,0,0-11.88-23.185C119.1,3.956,106.578.242,94.87.008,85.522-.18,76.507,3.152,67.941,7.365c-13.867,6.82-28.743,8.854-42.6,15.34C11.286,29.281,2.285,43.708.354,61.723a57.186,57.186,0,0,0,3.463,27.2c5.254,13.018,15.716,20.767,26.9,24.987a126.8,126.8,0,0,0,75.713,3.94" transform="matrix(0.914, 0.407, -0.407, 0.914, 12490.007, 16852.889)" fill="#fcf5f3"/>
          <path id="Fill_1" data-name="Fill 1" d="M112.508,124.588c32.28-8.628,45.387-49.339,34.957-85.156a67.627,67.627,0,0,0-12.559-24.51C125.9,4.182,112.667.256,100.289.008c-9.881-.2-19.412,3.324-28.467,7.778C57.164,15,41.438,17.146,26.787,24,11.931,30.954,2.416,46.2.374,65.249A60.452,60.452,0,0,0,4.035,94.008c5.554,13.761,16.613,21.953,28.435,26.414,25.083,9.466,54.329,11.037,80.038,4.165" transform="translate(12532.157 16869.635) rotate(50)" fill="#f7ebea"/>
          <path id="Mask-2" data-name="Mask" d="M106.428,117.855c30.535-8.162,42.934-46.672,33.068-80.555a63.971,63.971,0,0,0-11.88-23.185C119.1,3.956,106.578.242,94.87.008,85.522-.18,76.507,3.152,67.941,7.365c-13.867,6.82-28.743,8.854-42.6,15.34C11.286,29.281,2.285,43.708.354,61.723a57.186,57.186,0,0,0,3.463,27.2c5.254,13.018,15.716,20.767,26.9,24.987a126.8,126.8,0,0,0,75.713,3.94" transform="matrix(0.914, 0.407, -0.407, 0.914, 12490.007, 16852.889)" fill="#fcf5f3"/>
          <path id="Fill_68" data-name="Fill 68" d="M17.878,9.509c-1.467,4-4.2,7.416-6.611,10.889L7.522,25.785A44.032,44.032,0,0,1,4.11,30.691C6.621,20.66,9.554,10.718,10.657.406c.058-.544-.8-.54-.859,0C8.125,16.042,2.208,30.827,0,46.37c-.076.535.752.766.828.226A147.578,147.578,0,0,1,3.766,32.077a.419.419,0,0,0,.25-.1C5.568,30.65,6.64,28.551,7.8,26.888l4.213-6.062c2.462-3.543,5.2-7.013,6.7-11.092.189-.515-.641-.737-.828-.226" transform="translate(12493.64 16940.014)" fill="#b9bce9"/>
          <path id="Fill_70" data-name="Fill 70" d="M22.668,6.374A33.538,33.538,0,0,0,12.8.963,16.372,16.372,0,0,0,7.485,0C5.246,0,2.676,1.461.549.781A.419.419,0,0,0,.08,1.4a.394.394,0,0,0,.228.632,24.1,24.1,0,0,1,6.881,3.1l6.856,3.92a.427.427,0,0,0,.433-.735Q10.689,6.151,6.9,3.985A29.364,29.364,0,0,0,2.358,1.743c.729-.107,1.449-.341,2.259-.529a13.459,13.459,0,0,1,6.505.127A30.589,30.589,0,0,1,22.061,6.975c.423.346,1.035-.253.607-.6" transform="translate(12515.343 17007.773)" fill="#b9bce9"/>
          <path id="Fill_76" data-name="Fill 76" d="M12.952,18.484Q9.481,14.177,6.308,9.648,4.941,7.685,3.634,5.682C2.6,4.105,1.1,2.314.863.4.8-.131-.064-.138,0,.4.412,3.648,3.3,6.8,5.112,9.422c2.285,3.313,4.706,6.528,7.232,9.664.345.428.949-.177.607-.6" transform="translate(12497.052 17034.289)" fill="#b9bce9"/>
          <path id="Fill_98" data-name="Fill 98" d="M58.643,88.917a14.764,14.764,0,0,0-.8-5.377,13.732,13.732,0,0,0-2.225-4.119c-1.315-1.663-3.324-2.9-4.114-4.923-.648-1.662.537-3.275.357-4.948-.228-2.126-2.948-3.392-4.393-4.658-2.116-1.855-.264-4.691-1-7.031a9.558,9.558,0,0,0-.92-1.994,20.689,20.689,0,0,0-1.265-1.881c-.044-.066-.092-.128-.141-.195a8.551,8.551,0,0,0-.606-1.223c1.121-.6,1.935-1.042,2.175-1.223,4.192-3.115,6.5-9.41,7.512-14.473.2-1.025.406-2.121.586-3.266,1-6.354,1.352-14.1-1.55-19.293A35.714,35.714,0,0,0,46.733,6.8C44.565,4.6,41.6,3.316,38.866,2.1,25.76-3.713,7.222,2.853,2.335,17.82A41.866,41.866,0,0,0,.013,31.266c.143,4.228,2.167,8.373,3.854,12.077a66.053,66.053,0,0,0,7.669,12.748,36.213,36.213,0,0,0,6.871,2.81,21.584,21.584,0,0,0,8.4.719c.1-.016.188-.037.285-.054-.135.7-.274,1.4-.409,2.107a20.128,20.128,0,0,0-.275,6.7,50.93,50.93,0,0,1,.7,7.013c0,2.217-.156,4.429-.272,6.642a50.678,50.678,0,0,0-.01,6.436c.147,1.885.343,4.322,1.382,5.972.787,1.249,2.289,1.377,3.644,1.286.256-.015.509-.035.761-.056,2.136-.159,4.259-.394,6.4-.468a107.073,107.073,0,0,1,15.373.754,2.579,2.579,0,0,0,3.027-1.819,13.793,13.793,0,0,0,1.23-5.218" transform="translate(12508.588 16857.564)" fill="#6b3939"/>
          <path id="Fill_100" data-name="Fill 100" d="M30.74,34.933a14.764,14.764,0,0,0-.8-5.377,27.6,27.6,0,0,0-4.586-2.428c-1.293-.555-2.606-1.061-3.893-1.629-1.049-.463-3.084-1.266-3.265-2.593-.09-.66.29-1.278.216-1.952a5.669,5.669,0,0,0-.682-1.882,27,27,0,0,1-2.1-3.836c-1.433-4.5,1.475-8.844,2.013-13.353A20.691,20.691,0,0,0,16.385,0a19.186,19.186,0,0,0-4.237,2.637c-1.627,1.445-2.31,3.215-3.106,5.18-1.959,4.83-4.368,9.48-6.493,14.238C.742,26.111-.816,30.706.474,35.145a16.145,16.145,0,0,0,4.234,6.54c2.136-.159,4.259-.394,6.4-.468a107.08,107.08,0,0,1,15.373.754,2.579,2.579,0,0,0,3.027-1.819,13.792,13.792,0,0,0,1.23-5.218" transform="translate(12536.489 16911.549)" fill="#452222"/>
          <path id="Fill_102" data-name="Fill 102" d="M.012,12.3c.058.915.378,1.106,1.206.779C5.286,11.471,6.956,6.833,6,2.777,5.809,1.948,5.683.221,4.574.017S2.513,1.528,2.049,2.252c-.159.249.2.546.361.295.025-.039.052-.083.078-.127C2.636,4.121,1.44,6.212.937,7.749A12.385,12.385,0,0,0,.012,12.3" transform="translate(12553.25 16893.762)" fill="#fea689"/>
          <path id="Fill_104" data-name="Fill 104" d="M2.146,1.339C3.677-.056,9.751,0,11.62,0c3.138-.006,6.284.216,9.415.4A103.014,103.014,0,0,1,42.088,3.454a.666.666,0,0,1,.478.766.5.5,0,0,1,.208.384c.137,8.829-.737,24.523-3.915,34.09-1.723,5.19-6.908,9.951-11.457,13.01-5.287,3.555-8.986,2.617-14.04-.282-3.306-1.9-5-3.03-7.221-6.146a30.785,30.785,0,0,1-5.052-12.73A91.676,91.676,0,0,1,.057,16c.112-2.774.33-5.543.63-8.3.2-1.8-.007-5.025,1.458-6.359" transform="translate(12514.874 16873.008)" fill="#fea689"/>
          <path id="Fill_106" data-name="Fill 106" d="M.042,3.88A7.985,7.985,0,0,1,.177,1.36,2.278,2.278,0,0,1,.769.305c.878-.793,1.8.112,1.961.975C2.946,2.4,2.748,4.808,1.668,5.3.549,5.809.166,4.986.042,3.88" transform="translate(12545.241 16892.531)" fill="#232c44"/>
          <path id="Fill_108" data-name="Fill 108" d="M.043,3.912A8.039,8.039,0,0,1,.178,1.371,2.3,2.3,0,0,1,.776.308c.885-.8,1.811.113,1.978.984.216,1.132.017,3.556-1.072,4.052C.553,5.857.168,5.026.043,3.912" transform="translate(12522.97 16892.072)" fill="#232c44"/>
          <path id="Fill_110" data-name="Fill 110" d="M51.916,26.408c-3.667-1.127-10.044-2.832-12.8-6.212a6.049,6.049,0,0,1-1.461-3.388c-.277-1.782-.056-9.711-.054-9.76.039-1.11-.21-2.79.16-3.832a.484.484,0,0,0,.015-.3c0-.045,0-.094,0-.144.026-.536-.749-.658-.869-.2C30.71,1.963,22.293.929,16.131,0a.434.434,0,0,0-.487.381C15.181.343,14.72.3,14.253.251a.458.458,0,0,0-.5.388,40.515,40.515,0,0,0-.273,5.176,55.622,55.622,0,0,1-.267,6.548,12.28,12.28,0,0,1-.72,2.937,10.868,10.868,0,0,1-6.284,6.172c-1.727.746-4.813.715-6.163,1.966-.406.377,2.127,2.966,2.292,3.638.2.825,1.535,1.235,2.185,1.588,1.287.706,15.414,25.283,19.54,25.32,1.6.017,21.646-23.462,23.747-26.437.149-.215,4.4-1.049,4.108-1.138" transform="translate(12509.637 16915.016)" fill="#fea689"/>
          <path id="Fill_112" data-name="Fill 112" d="M0,1.869,5.118,0S6.972,5.961,9.489,7.617s3.667,2.021,5.179,6.027,4.05,5.418,4.868,8.45,1.39,6.117,1.39,6.117S22.1,21.968,24.141,20.2A24.287,24.287,0,0,0,29.393,13.6c1.192-2.283,5.5-3.892,6.8-5.306S39.4,2.587,39.4,2.587L42.989,4.2l.371,3.846S22.391,32.757,21.833,32.987.037,9.711.015,8.982,0,1.869,0,1.869" transform="translate(12512.853 16935.363)" fill="#fff"/>
          <path id="Fill_114" data-name="Fill 114" d="M.312.677A6.328,6.328,0,0,0,3.69,3.261a9.008,9.008,0,0,0,8.869-1.373c.11-.1.8-1.047.8-1.047S.524-.016.131,0c-.265.011-.09.29.18.677" transform="translate(12528.565 16910.404)" fill="#fff"/>
          <path id="Fill_116" data-name="Fill 116" d="M19.128,7.052c-1.386,2.019-1.888,2.408-4.971,2.853s-2.34,3.008-6.028,2.261-2.669-1.675-6.169-2.1A8.31,8.31,0,0,1,0,9.582,12.28,12.28,0,0,0,.72,6.645,55.535,55.535,0,0,0,.987.1C1,.073.987,0,.987,0S9.07,6.439,12.653,6.2s8.38-3.623,9.14-3.6-1.279,2.432-2.665,4.452" transform="translate(12522.128 16920.732)" fill="#f2815c"/>
          <path id="Fill_118" data-name="Fill 118" d="M3.39,12.474C2.294,11.709.956,10.946.943,9.359a14.422,14.422,0,0,1,.809-2.973A30.254,30.254,0,0,0,2.6.507C2.629-.085,1.7-.2,1.67.393a30.459,30.459,0,0,1-.553,4.587,40.976,40.976,0,0,0-1.1,4.264c-.179,1.953,1.34,2.942,2.808,3.966.492.344,1.061-.392.568-.737" transform="translate(12532.865 16894.313)" fill="#f2815c"/>
          <path id="Fill_4" data-name="Fill 4" d="M6.621.754A8.583,8.583,0,0,0,4.645.816,7.084,7.084,0,0,0,2.8,1.349,5.128,5.128,0,0,0,1.18,2.456,5.656,5.656,0,0,0,0,4.371,4.265,4.265,0,0,1,2.528.376a4.4,4.4,0,0,1,2.1-.362,3.6,3.6,0,0,1,1.992.74" transform="translate(12519.234 16886.971)" fill="#2c2c2c"/>
          <path id="Fill_4-2" data-name="Fill 4" d="M0,.755A8.582,8.582,0,0,1,1.976.816a7.078,7.078,0,0,1,1.844.532A5.121,5.121,0,0,1,5.44,2.454,5.648,5.648,0,0,1,6.617,4.369a4.242,4.242,0,0,0-.729-2.488A4.277,4.277,0,0,0,4.093.375a4.4,4.4,0,0,0-2.1-.361A3.6,3.6,0,0,0,0,.755" transform="translate(12543.631 16886.803) rotate(3)" fill="#2c2c2c"/>
          <path id="Fill_124" data-name="Fill 124" d="M5.248,7.836c-.462-1.549-1.6-3.671-1.411-5.367.026.044.051.089.075.129.154.256.521-.032.369-.285C3.837,1.576,2.919-.161,1.817.012S.531,1.911.315,2.734C-.734,6.723.857,11.468,4.826,13.153c.819.348,1.144.166,1.226-.748a12.384,12.384,0,0,0-.8-4.569" transform="translate(12511.724 16891.043)" fill="#fea689"/>
          <path id="Fill_126" data-name="Fill 126" d="M53.005,25.672a6.488,6.488,0,0,1-.729-2.594,9.682,9.682,0,0,1,.665-2.928,8.413,8.413,0,0,0,.652-4.048c-.441-2.588-2.543-4.144-4.8-5.261.01-.162.017-.321.029-.484a.233.233,0,0,0-.09-.213c-3.861-2.52-7.85-5.034-12.311-6.372A26.6,26.6,0,0,0,29.733,2.8a10.524,10.524,0,0,1-3.58-.593A30.9,30.9,0,0,1,23.417.622C21.585-.351,19.731-.014,17.807.5a18.054,18.054,0,0,1-3.068.643c-1.164.1-2.338-.007-3.5.144a10.312,10.312,0,0,0-4.934,2.4C4.763,4.9,3.363,6.021,2.833,7.975,1.356,13.412,1.994,19.18.082,24.541c-.092.259-.14,2.2.04,2.014a9.291,9.291,0,0,1,3.037-1.731c.6-.195.912-1.512,1.408-1.9A6.087,6.087,0,0,0,6.472,20.14a2.671,2.671,0,0,1,1.955-1.816,3.448,3.448,0,0,0,1.211-.713,10.129,10.129,0,0,0,1.807-2.973,6.794,6.794,0,0,1,3.423-3.165,21.728,21.728,0,0,0,3.5-1.767,6.47,6.47,0,0,0,.908-.792,6.78,6.78,0,0,0,.912,1.387c2.446,2.863,6.769,3.087,9.852,4.994,1.673,1.035.835,3.082,2,4.478a6.952,6.952,0,0,0,3.5,1.913c2.078.61,4.1,1.246,4.72,3.555.417,1.543.453,3.093,1.383,4.462a7.762,7.762,0,0,0,1.761,1.8,8.777,8.777,0,0,0,.978.544A10.634,10.634,0,0,0,47.462,36.6c1.687,1.363,4.951.978,4.489-1.75a9.737,9.737,0,0,1-.432-2.891,7.518,7.518,0,0,1,1.285-2.9,3.453,3.453,0,0,0,.2-3.382" transform="translate(12511.776 16866.939)" fill="#6b3939"/>
          <path id="Fill_128" data-name="Fill 128" d="M1.968,7.813c-2.045-.406.22-2.486.234-3.257A10.909,10.909,0,0,0,1.817,2.7C1.682,1.93,1.593,1.159,1.523.383,1.471-.21.544-.075.6.518c.07.775.158,1.546.294,2.313.075.429.483,1.348.366,1.711C1.051,5.183.27,5.457.075,6.185A2.059,2.059,0,0,0,1.854,8.733c.591.117.7-.8.115-.92" transform="translate(12513.604 16892.48)" fill="#f2815c"/>
          <path id="Fill_130" data-name="Fill 130" d="M1.008.156C.6-.279-.139.288.271.726A1.847,1.847,0,0,1,.1,3.227c-.37.473.375,1.034.744.562A2.749,2.749,0,0,0,1.008.156" transform="translate(12555.247 16900.197)" fill="#f2815c"/>
          <path id="Fill_132" data-name="Fill 132" d="M2.743,11.432a5.2,5.2,0,0,1-.389-4.344,5.357,5.357,0,0,0,.575-1.755C3,3.581.658,2.055,1.012.5,1.145-.086.215-.2.084.382a2.44,2.44,0,0,0,.334,2c.925,1.61,1.89,2,1.2,4.125A6.08,6.08,0,0,0,.943,8.774a7.766,7.766,0,0,0,.94,3.024c.255.539,1.116.176.859-.366" transform="translate(12528.58 16862.393)" fill="#452222"/>
          <path id="Fill_134" data-name="Fill 134" d="M22.711,8.289c-.627-1.65-2.2-2.726-3.648-3.651C17.05,3.355,15.4,3.738,13.211,3.2,10.947,2.643,9.477.765,7.121.261A13.19,13.19,0,0,0,.286.716c-.573.182-.2,1.032.37.851A11.5,11.5,0,0,1,7.743,1.41c1.711.56,2.793,1.955,4.454,2.518,1.524.517,3.209.129,4.745.65,1.736.588,4.255,2.357,4.909,4.078.212.558,1.072.192.86-.366" transform="translate(12538.943 16869.219)" fill="#452222"/>
          <path id="Fill_136" data-name="Fill 136" d="M9.644,7.069C7.982,3.3,4.511,1.169.649.022.077-.148-.285.708.292.879c3.624,1.077,6.924,3,8.492,6.556a.467.467,0,0,0,.859-.366" transform="translate(12553.426 16875.836)" fill="#452222"/>
          <path id="Fill_140" data-name="Fill 140" d="M3.328,0a.352.352,0,0,0-.393.3.347.347,0,0,0,.3.387c.351.13.737,2.309.253,6.187-.472,3.782-1.477,5.9-1.859,5.929-.38-.047-1.272-2.246-.805-5.992A20.187,20.187,0,0,1,2.041,1.194l-.5-.526C.966,1.662.517,3.645.132,6.731c-.431,3.46.23,6.622,1.415,6.767,1.42.174,2.328-4.025,2.641-6.533C4.33,5.836,4.949.2,3.328,0" transform="translate(12512.31 16901.555)" fill="#fad3b1"/>
          <path id="Fill_142" data-name="Fill 142" d="M2.754.005A.35.35,0,0,1,3.06.393a.349.349,0,0,1-.39.3C2.3.737,1.389,2.758.905,6.636c-.471,3.782-.016,6.079.347,6.2.38.047,1.785-1.872,2.252-5.618a18.213,18.213,0,0,0-.031-5.96l.685-.65A20.179,20.179,0,0,1,4.2,7.3c-.431,3.46-1.849,6.368-3.035,6.223C-.254,13.351-.1,9.059.209,6.551.35,5.423,1.133-.193,2.754.005" transform="translate(12553.063 16904.352)" fill="#fad3b1"/>
          <path id="Clip_145-2" data-name="Clip 145" d="M0,0H138.351V147.548H0Z" transform="translate(12456.947 16937.863)" fill="none"/>
          <g id="Group_6043" data-name="Group 6043" transform="translate(12456.947 16937.863)">
            <path id="Fill_144" data-name="Fill 144" d="M110.6,121.9c-.946,6.757-2.059,14.4-2.758,18.414-.3,1.762,9.185.9,9.086.89-.255-.031-11.837,1.484-31.413,3.06-4.649.376-9.329.747-13.8,1.109-1.738.143-3.448.279-5.107.414-.508.037-1.013.078-1.508.121-.06.006-.119.008-.179.014l-.931.075-.6.048c-.413.031-.825.065-1.229.1-1.807.148-3.53.283-5.153.417-5.311.429-9.562.775-12,.972a5.4,5.4,0,0,1-3.965-1.29l-6.34-5.473a5.3,5.3,0,0,1-1.824-3.588l-.721-9.051a5.347,5.347,0,0,0-5.343-4.9A10.781,10.781,0,0,1,16.093,111l1.466-10.417a5.292,5.292,0,0,0-3.744-5.906C8.651,93.175.828,89,.02,77.511c-.778-11.125,21.2-63.871,24.991-67.335C29.54,6.043,45.5,1.848,52.538.151A5.392,5.392,0,0,1,58.023,2.03l14.853,18.7a5.4,5.4,0,0,0,8.175.3c2.606-2.819,6.047-6.415,9.208-9.323a65.266,65.266,0,0,0,6.48-7.168,5.388,5.388,0,0,1,5.734-1.81c7.88,2.306,26.258,7.934,29.064,11.053,3.587,3.989,3.534,13.34,5.975,21.5s-1.232,49.9-1.215,55.082-14.042,24.049-14.423,27.036C121.725,118.569,111.479,115.651,110.6,121.9Z" transform="translate(0 0)" fill="#c7caf0"/>
          </g>
          <path id="Fill_147" data-name="Fill 147" d="M26.551,31.247c-4.789-2.649-9.829-6.092-10.4-11.892a14.7,14.7,0,0,0-.585-3.681c-.615-1.693-1.657-3.277-2.414-4.915A62.169,62.169,0,0,1,9.442.363.451.451,0,0,0,8.55.492q.492,4.355.979,8.714c.282,2.528.9,5.288.97,7.9,1.949,7.83-.383,16.319-2.686,23.93C5.841,47.554,4.2,54.991,0,60.595a36.935,36.935,0,0,1,11.705-5.534,18.836,18.836,0,0,1,8.59-.209c2.965.681,3.514,4.845,6.335,5.877,1.68.615-2.2-1.633-.641-1.843.7-4.014,1.811-11.658,2.758-18.414-.275-.159.7-.506,1.561-2.573C32.516,33.528,25.895,31.342,26.551,31.247Z" transform="translate(12548.513 17017.367)" fill="#b9bde9"/>
          <path id="Fill_151" data-name="Fill 151" d="M19.767,0,3.533,24.143a20.728,20.728,0,0,0,5.533,28.7l1.162.8,21.14-44.6Z" transform="translate(12480.758 16963.631)" fill="#fea689"/>
          <path id="Fill_153" data-name="Fill 153" d="M27.964,22.162a9.9,9.9,0,0,0-.414-5.123c-.2-.672.246-1.583-.046-2.389A3.971,3.971,0,0,0,25.6,12.47c-2.4-1.131-6-.14-8.413.606-2.1.65-4.374,2.245-6.5.872-.739-.482-.861-3.184-.7-3.793.721-2.771,1.481-5.111.759-7.327C9.861.113,7.951-.371,7.137.229,6.682.565,6.23,5.592,5.453,8.282c-1.361,4.71-4.243,8.405-5.007,13.29-.511,3.271-.9,7.348.712,10.429,2.314,4.418,7.233,2.882,7.233,2.882s5.5-1.055,9.732-1.475a13.816,13.816,0,0,0,7-3.352A4.353,4.353,0,0,0,26.8,27.4a8.807,8.807,0,0,1,.378-3.242,16.19,16.19,0,0,0,.79-2" transform="translate(12499.313 16943.666)" fill="#fea689"/>
          <path id="Fill_155" data-name="Fill 155" d="M3.606.093A14.561,14.561,0,0,1,.267,1.953c-.539.214-.183,1.034.356.82A15.465,15.465,0,0,0,4.16.8c.464-.346-.091-1.049-.554-.7" transform="translate(12521.825 16960.887)" fill="#f2815c"/>
          <path id="Fill_157" data-name="Fill 157" d="M3.236.1A12.7,12.7,0,0,1,.264,1.857a.447.447,0,0,0,.356.82A13.6,13.6,0,0,0,3.791.8.448.448,0,0,0,3.236.1" transform="translate(12521.296 16966.682)" fill="#f2815c"/>
          <path id="Fill_159" data-name="Fill 159" d="M2.7.031.271.923c-.544.2-.187,1.019.356.82L3.059.851C3.6.651,3.246-.168,2.7.031" transform="translate(12522.008 16971.35)" fill="#f2815c"/>
          <path id="Fill_161" data-name="Fill 161" d="M23.964,49.467a10.232,10.232,0,0,1-14.116-6.54L3.136,18.38l-1.457-5.32-.254-.944L0,6.909,13.011,0l.467,1.055,0,0L14.92,4.31l2.563,5.8L29.04,36.231a10.063,10.063,0,0,1-5.076,13.236" transform="translate(12552.284 16963.832)" fill="#fea689"/>
          <path id="Fill_171" data-name="Fill 171" d="M2.5.18a13.313,13.313,0,0,0-2.5,7c-.036.57.858.683.894.109A12.412,12.412,0,0,1,3.219.721C3.554.253,2.838-.289,2.5.18" transform="translate(12557.75 17008.186)" fill="#b9bce9"/>
          <path id="Fill_173" data-name="Fill 173" d="M7.263.145c-.4-.409-1.114.136-.71.549,3.676,3.758,3,11.376,2.035,16.078a20.41,20.41,0,0,1-8.4,13.1c-.481.322.076,1.024.554.7A21.275,21.275,0,0,0,9.483,16.881c1-4.953,1.659-12.771-2.219-16.736" transform="translate(12576.45 17001.117)" fill="#b9bce9"/>
          <path id="Fill_175" data-name="Fill 175" d="M1.37,95.564a.437.437,0,0,0,.084-.43c-.053-.159-.094-.318-.139-.477-.007-.109-.012-.217-.019-.326a.377.377,0,0,0-.128-.264c-.807-3.661.34-7.334.8-11.007.515-4.144.112-8.324.442-12.478.345-4.344,2.151-8.071,3.31-12.207a28.385,28.385,0,0,0,.626-9.893c-.3-3.939-.881-7.965-.04-11.877.81-3.769,2.261-6.7,1.7-10.643-.561-3.913-2.255-7.583-2.653-11.526-.484-4.793,1.2-9.4,2.842-13.823.2-.538-.633-.88-.833-.341C5.861,4.3,4.329,8.451,4.357,12.8c.024,3.808,1.443,7.347,2.3,11.008a16.761,16.761,0,0,1,.451,6.75c-.361,2.032-1.271,3.921-1.7,5.937-.795,3.731-.327,7.578-.02,11.335a29.879,29.879,0,0,1-1.5,13.2A36.4,36.4,0,0,0,1.407,72.545c-.132,4.235.033,8.4-.676,12.6C.18,88.411-.43,91.59.424,94.808a53.323,53.323,0,0,1-.292,10.144.451.451,0,0,0,.894.11,54.517,54.517,0,0,0,.344-9.5" transform="translate(12526.147 16964.996)" fill="#b9bce9"/>
          <path id="Fill_177" data-name="Fill 177" d="M.886,0a.461.461,0,0,0-.5.388Q.2,1.115.01,1.839a.45.45,0,0,0,.392.5.462.462,0,0,0,.5-.388Q1.091,1.224,1.278.5A.45.45,0,0,0,.886,0" transform="translate(12534.712 16966.063)" fill="#b9bce9"/>
          <path id="Fill_179" data-name="Fill 179" d="M.892.369C.864-.2-.028-.071,0,.5q.041.829.083,1.66c.028.573.92.441.892-.13Q.934,1.2.892.369" transform="translate(12533.213 16981.121)" fill="#b9bce9"/>
          <path id="Fill_173-2" data-name="Fill 173" d="M4.759.113C4.5-.208,4.044.224,4.3.549,6.646,3.507,6.19,9.526,5.552,13.243,4.838,17.407,3.043,21.2.119,23.613c-.31.256.045.809.353.554,3.043-2.516,4.922-6.5,5.653-10.84C6.785,9.411,7.232,3.235,4.759.113" transform="translate(12493.689 17021.033) rotate(59)" fill="#b9bce9"/>
          <path id="Fill_181" data-name="Fill 181" d="M.92,2.444A6.9,6.9,0,0,1,1.044.48C1.159-.083.265-.19.151.37a7.738,7.738,0,0,0-.122,2.2c.047.572.939.441.891-.13" transform="translate(12533.942 17014.049)" fill="#b9bce9"/>
          <path id="Fill_183" data-name="Fill 183" d="M.262.377,0,2.443A.451.451,0,0,0,.9,2.552L1.156.486A.451.451,0,0,0,.262.377" transform="translate(12530.001 17033.801)" fill="#b9bce9"/>
          <path id="Fill_185" data-name="Fill 185" d="M1.145,2.482Q1.02,1.426.895.368C.828-.2-.064-.073,0,.5q.125,1.056.25,2.113c.067.57.959.441.891-.13" transform="translate(12528.887 17055.512)" fill="#b9bce9"/>
          <path id="Fill_187" data-name="Fill 187" d="M13.155,4.086c-1-1.431-2.66-1.88-4.265-2.4A54.391,54.391,0,0,0,2.212.009C1.642-.1,1.534.788,2.1.894A53.238,53.238,0,0,1,7.739,2.256a13.879,13.879,0,0,1,3.708,1.423C7.207,3.636,3.46,5.465.17,8.03a.448.448,0,0,0,.554.7c3.178-2.478,6.8-4.3,10.94-4.168a.455.455,0,0,0,.457-.321,3.336,3.336,0,0,1,.323.389c.331.473,1.039-.078.71-.549" transform="translate(12465.462 16991.352)" fill="#b9bce9"/>
          <path id="Fill_189" data-name="Fill 189" d="M9.078,22.228c-2.9-3.383-3.845-7.062-4.177-11.384C4.6,6.962,2.58,3.683.876.252.621-.261-.208.087.049.6,1,2.523,2.028,4.423,2.9,6.381c.991,2.233,1.026,4.42,1.269,6.8a17.4,17.4,0,0,0,4.2,9.6c.375.438,1.086-.11.71-.549" transform="translate(12480.997 16950.162)" fill="#b9bce9"/>
          <path id="Fill_191" data-name="Fill 191" d="M10.936.363A40.626,40.626,0,0,1,8.448,7.878c-1.077,2.224-2.642,4.173-3.709,6.4C2.733,18.465,2.894,23.4.089,27.239c-.34.466.376,1.007.716.541,2.869-3.929,2.695-8.9,4.766-13.161,1.139-2.342,2.788-4.394,3.877-6.765A44.447,44.447,0,0,0,11.831.472c.145-.554-.751-.658-.894-.109" transform="translate(12577.096 16954.59)" fill="#b9bce9"/>
          <path id="Fill_197" data-name="Fill 197" d="M85.741,1.459a.442.442,0,0,0-.8.076q-15.8.383-31.609.762C42.578,2.556,32.636-.62,21.961.773c-2.343.3-5.519-1.116-7.839-.695C12.366.4,9.513.428,8.078,1.625c-1.14.959-.873,2.388-.778,3.709a18.968,18.968,0,0,1-.669,4.5c-.516,2.253-1.253,4.941-1.977,7.423s-1.438,4.775-1.882,6.208C1.162,28.673.917,39.939.221,45.337c-.679,5.268.466,34.9,0,40.626a.461.461,0,0,0,.452.448A366.56,366.56,0,0,0,54.9,88.293c.765-.023,1.52-.013,2.266.018.321.013.638.027.954.054,3.148.2,6.233.752,9.409.972A67.362,67.362,0,0,0,80.647,88.7c4.247-.538,8.472-1.241,12.733-1.639,3.759-.354,7.921.192,11.557-.91,3.022-.909,6.071,2.122,5.746-1.108-.213-2.114-1.883-9.593-2.3-11.672-.561-2.764-1.524-8.928-1.76-8.677Q103.1,47.066,99.442,29.465c-.923-4.43-1.525-9.219-3.393-13.417a20.446,20.446,0,0,0-1.144-2.208c-.57-.95-.2-2.285.006-3.689.623-4.21,1.757-8.954,1.3-8.954" transform="translate(12480.646 17059.479)" fill="#f1f2ff"/>
          <path id="Fill_199" data-name="Fill 199" d="M90.251,4c-.57-.95.7-2.448.006-3.689C84.232.539,76.315,2.334,70.244,1.738,62.753,1.008,59.6,1.193,48.224.547c-2.05-.117-3.949,1.025-6.021.869-1.968-.148-3.822-.748-5.817-.636-1.954.108-3.845.681-5.781.909a37.221,37.221,0,0,1-5.477.144C17.392,1.6,9.657.941,1.977,0,1.461,2.253.724,4.941,0,7.423c.525.053,1.095,0,1.506.018q3.094.094,6.183.121c8.251.09,16.506-.1,24.756-.1,8.083,0,16.176.179,24.223.981,4.062.407,8.585-1.286,12.657-1.008,3.373.234,6.636,2.191,10.051,1.523A104,104,0,0,0,91.4,6.213,20.485,20.485,0,0,0,90.251,4" transform="translate(12485.299 17069.313)" fill="#33261a"/>
          <path id="Fill_201" data-name="Fill 201" d="M3.3.641a113.349,113.349,0,0,1-3.27,16.82.679.679,0,0,0,1.309.357A115.705,115.705,0,0,0,4.654.641C4.754-.217,3.4-.21,3.3.641" transform="translate(12495.305 17067.156)" fill="#f1f2ff"/>
          <path id="Fill_203" data-name="Fill 203" d="M3.771,13.07Q3.243,9.237,2.612,5.42C2.364,3.939,2.468,1.141,1.2.155.515-.372-.451.572.236,1.1s.642,2.2.778,2.978q.258,1.482.5,2.967.515,3.183.951,6.377c.118.853,1.425.49,1.308-.357" transform="translate(12559.086 17068.633)" fill="#f1f2ff"/>
          <path id="Fill_205" data-name="Fill 205" d="M25.359.375,23.342.608a.722.722,0,0,0-1.02-.532c-.517.251-1.017.527-1.5.822l-2.853.329c-.857.1-.867,1.444,0,1.344L18.6,2.5A19.238,19.238,0,0,0,13.627,8.96a20.913,20.913,0,0,0-1.8,5.758c-.41,2.609-.122,5.305-.72,7.884-.63,2.716-2.555,4.5-4.2,6.629A20.986,20.986,0,0,0,3.75,35.307,105.022,105.022,0,0,0,.012,51.721a.682.682,0,0,0,.654.85L5.2,52.339a9.828,9.828,0,0,0,3.505-.371c1.3-.618,1.2-1.765,1.066-3-.719-6.483,2.4-11.869,5.161-17.5A36.494,36.494,0,0,0,17.7,24.437a63.155,63.155,0,0,0,.973-7.813,27.062,27.062,0,0,1,7.163-15.1C26.2,1.139,25.983.3,25.359.375" transform="translate(12494.984 17073.5)" fill="#33261a"/>
          <path id="Path" d="M1.059,0A1.055,1.055,0,0,0,0,1.049V4.729A1.056,1.056,0,0,0,1.059,5.779H13.378a1.056,1.056,0,0,0,1.059-1.049V1.049A1.055,1.055,0,0,0,13.378,0Z" transform="translate(12523.157 17070.973)" fill="#fad3b1"/>
          <path id="Path-2" data-name="Path" d="M14.735,8.466H2.416A2.407,2.407,0,0,1,0,6.073V2.393A2.407,2.407,0,0,1,2.416,0H14.735a2.407,2.407,0,0,1,2.416,2.393V6.073a2.407,2.407,0,0,1-2.416,2.393Z" transform="translate(12521.802 17069.629)" fill="#fad3b1"/>
          <path id="Fill_153-2" data-name="Fill 153" d="M.184,22.163A9.9,9.9,0,0,1,.6,17.04c.2-.672-.246-1.583.046-2.389A3.971,3.971,0,0,1,2.551,12.47c2.4-1.131,6-.14,8.414.606,2.1.65,4.374,2.245,6.5.872.739-.482.861-3.184.7-3.793-.721-2.771-1.481-5.111-.759-7.327.884-2.715,2.794-3.2,3.608-2.6.455.336.907,5.363,1.685,8.053,1.361,4.71,4.244,8.405,5.007,13.29.511,3.271.9,7.348-.712,10.429-2.314,4.418-7.234,2.882-7.234,2.882s-5.505-1.055-9.732-1.475a13.816,13.816,0,0,1-7-3.352A4.353,4.353,0,0,1,1.353,27.4,8.807,8.807,0,0,0,.974,24.16a16.189,16.189,0,0,1-.79-2" transform="translate(12539.038 16941.48)" fill="#fea689"/>
          <g id="id-card" transform="translate(12531.797 16941.66)">
            <path id="Path_1" data-name="Path 1" d="M27.936,135.15H1.217A1.172,1.172,0,0,0,0,136.27v17.462a1.172,1.172,0,0,0,1.217,1.12H27.942a1.172,1.172,0,0,0,1.217-1.12V136.27A1.181,1.181,0,0,0,27.936,135.15Z" transform="translate(0 -135.15)" fill="#f2f2f2"/>
            <rect id="Rectangle_1" data-name="Rectangle 1" width="26.8" height="17.465" transform="translate(1.172 1.122)" fill="#89d6f7"/>
            <rect id="Rectangle_3" data-name="Rectangle 3" width="12.379" height="1.733" transform="translate(14.067 10.95)" fill="#f2f2f2"/>
            <rect id="Rectangle_4" data-name="Rectangle 4" width="23.741" height="1.733" transform="translate(2.787 15.336)" fill="#55bfe9"/>
            <rect id="Rectangle_5" data-name="Rectangle 5" width="12.379" height="1.733" transform="translate(14.067 6.563)" fill="#fff"/>
            <rect id="Rectangle_3494" data-name="Rectangle 3494" width="9.923" height="10.247" transform="translate(2.787 2.436)" fill="#f2f2f2"/>
            <rect id="Rectangle_3495" data-name="Rectangle 3495" width="9.923" height="10.247" transform="translate(2.787 2.436)" fill="#f2f2f2"/>
          </g>
          <g id="Mask_Group_8" data-name="Mask Group 8" transform="translate(12534.583 16944.098)" clip-path="url(#clip-path-2)">
            <g id="People" transform="translate(0.33 0.306)">
              <path id="Fill_68-2" data-name="Fill 68" d="M1.144.609a3.213,3.213,0,0,1-.423.7l-.24.345a2.818,2.818,0,0,1-.218.314A14.284,14.284,0,0,0,.682.026c0-.035-.051-.035-.055,0C.52,1.027.141,1.973,0,2.968c0,.034.048.049.053.014a9.445,9.445,0,0,1,.188-.929.027.027,0,0,0,.016-.006A1.663,1.663,0,0,0,.5,1.721l.27-.388A3.26,3.26,0,0,0,1.2.623C1.209.59,1.156.576,1.144.609" transform="translate(2.348 5.277)" fill="#b9bce9"/>
              <path id="Fill_70-2" data-name="Fill 70" d="M1.451.408A2.147,2.147,0,0,0,.819.062,1.048,1.048,0,0,0,.479,0C.336,0,.171.094.035.05a.027.027,0,0,0-.03.04A.025.025,0,0,0,.02.13a1.542,1.542,0,0,1,.44.2L.9.579A.027.027,0,0,0,.927.532L.442.255A1.879,1.879,0,0,0,.151.112C.2.1.244.09.3.078A.861.861,0,0,1,.712.086a1.958,1.958,0,0,1,.7.361c.027.022.066-.016.039-.038" transform="translate(3.737 9.614)" fill="#b9bce9"/>
              <path id="Fill_76-2" data-name="Fill 76" d="M.829,1.183Q.607.907.4.617.316.492.233.364A.9.9,0,0,1,.055.026C.051-.008,0-.009,0,.026A1.521,1.521,0,0,0,.327.6c.146.212.3.418.463.618.022.027.061-.011.039-.038" transform="translate(2.567 11.311)" fill="#b9bce9"/>
              <path id="Fill_98-2" data-name="Fill 98" d="M3.753,5.691A.945.945,0,0,0,3.7,5.347a.879.879,0,0,0-.142-.264c-.084-.106-.213-.186-.263-.315-.042-.106.034-.21.023-.317-.015-.136-.189-.217-.281-.3-.135-.119-.017-.3-.064-.45a.612.612,0,0,0-.059-.128,1.324,1.324,0,0,0-.081-.12l-.009-.012a.547.547,0,0,0-.039-.078c.072-.038.124-.067.139-.078a1.569,1.569,0,0,0,.481-.926c.013-.066.026-.136.038-.209a2.055,2.055,0,0,0-.1-1.235A2.286,2.286,0,0,0,2.991.435a1.594,1.594,0,0,0-.5-.3A1.778,1.778,0,0,0,.149,1.14,2.679,2.679,0,0,0,0,2a2.121,2.121,0,0,0,.247.773,4.227,4.227,0,0,0,.491.816,2.318,2.318,0,0,0,.44.18,1.381,1.381,0,0,0,.538.046l.018,0-.026.135a1.288,1.288,0,0,0-.018.429,3.26,3.26,0,0,1,.045.449c0,.142-.01.283-.017.425a3.243,3.243,0,0,0,0,.412.88.88,0,0,0,.088.382.237.237,0,0,0,.233.082l.049,0c.137-.01.273-.025.41-.03a6.853,6.853,0,0,1,.984.048.165.165,0,0,0,.194-.116.883.883,0,0,0,.079-.334" transform="translate(3.305 0)" fill="#6b3939"/>
              <path id="Fill_100-2" data-name="Fill 100" d="M1.967,2.236a.945.945,0,0,0-.051-.344,1.766,1.766,0,0,0-.293-.155c-.083-.036-.167-.068-.249-.1-.067-.03-.2-.081-.209-.166-.006-.042.019-.082.014-.125a.363.363,0,0,0-.044-.12A1.728,1.728,0,0,1,1,.975C.909.687,1.1.409,1.13.12A1.324,1.324,0,0,0,1.049,0,1.228,1.228,0,0,0,.778.169.806.806,0,0,0,.579.5C.453.81.3,1.107.163,1.412a1.239,1.239,0,0,0-.133.838A1.033,1.033,0,0,0,.3,2.668c.137-.01.273-.025.41-.03a6.853,6.853,0,0,1,.984.048.165.165,0,0,0,.194-.116.883.883,0,0,0,.079-.334" transform="translate(5.091 3.455)" fill="#452222"/>
              <path id="Fill_102-2" data-name="Fill 102" d="M0,.787c0,.059.024.071.077.05A.559.559,0,0,0,.384.178C.372.125.364.014.293,0S.161.1.131.144C.121.16.144.179.154.163l0-.008A.989.989,0,0,1,.06.5.793.793,0,0,0,0,.787" transform="translate(6.164 2.317)" fill="#fea689"/>
              <path id="Fill_104-2" data-name="Fill 104" d="M.137.086C.235,0,.624,0,.744,0c.2,0,.4.014.6.026a6.593,6.593,0,0,1,1.347.2A.043.043,0,0,1,2.724.27a.032.032,0,0,1,.013.025,7.863,7.863,0,0,1-.251,2.182,1.859,1.859,0,0,1-.733.833.729.729,0,0,1-.9-.018A1.2,1.2,0,0,1,.393,2.9,1.97,1.97,0,0,1,.07,2.083,5.867,5.867,0,0,1,0,1.024C.011.847.025.669.044.493.057.378.044.171.137.086" transform="translate(3.707 0.988)" fill="#fea689"/>
              <path id="Fill_106-2" data-name="Fill 106" d="M0,.248A.511.511,0,0,1,.011.087.146.146,0,0,1,.049.02C.105-.031.164.027.175.082.189.154.176.308.107.339S.011.319,0,.248" transform="translate(5.651 2.238)" fill="#232c44"/>
              <path id="Fill_108-2" data-name="Fill 108" d="M0,.25A.514.514,0,0,1,.011.088.147.147,0,0,1,.05.02C.106-.031.166.027.176.083.19.155.177.31.108.342S.011.322,0,.25" transform="translate(4.226 2.209)" fill="#232c44"/>
              <path id="Fill_110-2" data-name="Fill 110" d="M3.323,1.69a1.81,1.81,0,0,1-.819-.4.387.387,0,0,1-.094-.217c-.018-.114,0-.621,0-.625a.944.944,0,0,1,.01-.245.031.031,0,0,0,0-.019s0-.006,0-.009c0-.034-.048-.042-.056-.013C1.965.126,1.427.059,1.032,0A.028.028,0,0,0,1,.025L.912.016A.029.029,0,0,0,.88.041,2.593,2.593,0,0,0,.863.372,3.56,3.56,0,0,1,.846.791.786.786,0,0,1,.8.979a.7.7,0,0,1-.4.395C.287,1.422.089,1.42,0,1.5c-.026.024.136.19.147.233s.1.079.14.1c.082.045.987,1.618,1.251,1.621A16.5,16.5,0,0,0,3.06,1.763c.01-.014.281-.067.263-.073" transform="translate(3.372 3.677)" fill="#fea689"/>
              <path id="Fill_112-2" data-name="Fill 112" d="M0,.12.328,0a1.165,1.165,0,0,0,.28.487A.609.609,0,0,1,.939.873c.1.256.259.347.312.541s.089.391.089.391a1.248,1.248,0,0,1,.206-.513A1.554,1.554,0,0,0,1.881.871c.076-.146.352-.249.435-.34A1.987,1.987,0,0,0,2.522.166l.23.1.024.246S1.433,2.1,1.4,2.111,0,.621,0,.575,0,.12,0,.12" transform="translate(3.578 4.979)" fill="#fff"/>
              <path id="Fill_114-2" data-name="Fill 114" d="M.02.043A.4.4,0,0,0,.236.209.577.577,0,0,0,.8.121C.811.115.855.054.855.054S.034,0,.008,0,0,.019.02.043" transform="translate(4.584 3.382)" fill="#fff"/>
              <path id="Fill_116-2" data-name="Fill 116" d="M1.224.451C1.135.581,1.1.605.906.634S.756.827.52.779.349.671.125.644A.532.532,0,0,1,0,.613.786.786,0,0,0,.046.425,3.554,3.554,0,0,0,.063.006S.063,0,.063,0,.58.412.81.4A2.485,2.485,0,0,0,1.395.166c.049,0-.082.156-.171.285" transform="translate(4.172 4.043)" fill="#f2815c"/>
              <path id="Fill_118-2" data-name="Fill 118" d="M.217.8C.147.749.061.7.06.6A.923.923,0,0,1,.112.409,1.936,1.936,0,0,0,.166.032C.168-.005.109-.013.107.025A1.949,1.949,0,0,1,.071.319,2.623,2.623,0,0,0,0,.592C-.011.717.087.78.181.846.212.868.249.82.217.8" transform="translate(4.859 2.352)" fill="#f2815c"/>
              <path id="Fill_4-3" data-name="Fill 4" d="M.424.048A.549.549,0,0,0,.3.052.453.453,0,0,0,.179.086a.328.328,0,0,0-.1.071A.362.362,0,0,0,0,.28.273.273,0,0,1,.162.024.282.282,0,0,1,.3,0,.23.23,0,0,1,.424.048" transform="translate(3.986 1.882)" fill="#2c2c2c"/>
              <path id="Fill_4-4" data-name="Fill 4" d="M0,.048a.549.549,0,0,1,.126,0A.453.453,0,0,1,.245.086a.328.328,0,0,1,.1.071A.361.361,0,0,1,.423.28.272.272,0,0,0,.377.12a.274.274,0,0,0-.115-.1A.282.282,0,0,0,.127,0,.231.231,0,0,0,0,.048" transform="translate(5.548 1.871) rotate(3)" fill="#2c2c2c"/>
              <path id="Fill_124-2" data-name="Fill 124" d="M.336.5A.988.988,0,0,1,.246.158l0,.008C.26.183.284.164.274.148.246.1.187-.01.116,0S.034.122.02.175A.564.564,0,0,0,.309.842C.361.864.382.852.387.794A.793.793,0,0,0,.336.5" transform="translate(3.506 2.143)" fill="#fea689"/>
              <path id="Fill_126-2" data-name="Fill 126" d="M3.392,1.643a.415.415,0,0,1-.047-.166.62.62,0,0,1,.043-.187.538.538,0,0,0,.042-.259A.492.492,0,0,0,3.123.694c0-.01,0-.021,0-.031A.015.015,0,0,0,3.119.649,3.11,3.11,0,0,0,2.331.241,1.7,1.7,0,0,0,1.9.179.674.674,0,0,1,1.674.141,1.978,1.978,0,0,1,1.5.04.47.47,0,0,0,1.14.032a1.156,1.156,0,0,1-.2.041C.869.079.794.072.719.082A.66.66,0,0,0,.4.236.532.532,0,0,0,.181.51C.087.858.128,1.228.005,1.571,0,1.587,0,1.711.008,1.7A.6.6,0,0,1,.2,1.589c.038-.012.058-.1.09-.122a.39.39,0,0,0,.122-.178.171.171,0,0,1,.125-.116.221.221,0,0,0,.078-.046A.648.648,0,0,0,.733.937a.435.435,0,0,1,.219-.2A1.391,1.391,0,0,0,1.175.621.414.414,0,0,0,1.234.57a.434.434,0,0,0,.058.089c.157.183.433.2.631.32.107.066.053.2.128.287a.445.445,0,0,0,.224.122c.133.039.262.08.3.228a.865.865,0,0,0,.089.286.5.5,0,0,0,.113.115.562.562,0,0,0,.063.035.681.681,0,0,0,.2.291c.108.087.317.063.287-.112A.623.623,0,0,1,3.3,2.045.481.481,0,0,1,3.38,1.86a.221.221,0,0,0,.013-.216" transform="translate(3.509 0.6)" fill="#6b3939"/>
              <path id="Fill_128-2" data-name="Fill 128" d="M.126.5C0,.474.14.341.141.292A.7.7,0,0,0,.116.173C.108.123.1.074.1.025S.035,0,.038.033s.01.1.019.148c0,.027.031.086.023.109C.067.332.017.349,0,.4A.132.132,0,0,0,.119.559C.156.566.164.508.126.5" transform="translate(3.626 2.235)" fill="#f2815c"/>
              <path id="Fill_130-2" data-name="Fill 130" d="M.065.01C.039-.018-.009.018.017.046a.118.118,0,0,1-.011.16C-.017.237.03.273.054.243A.176.176,0,0,0,.065.01" transform="translate(6.291 2.729)" fill="#f2815c"/>
              <path id="Fill_132-2" data-name="Fill 132" d="M.176.732A.333.333,0,0,1,.151.454.343.343,0,0,0,.187.341C.192.229.042.132.065.032.073-.006.014-.013.005.024A.156.156,0,0,0,.027.153C.086.256.148.281.1.417A.389.389,0,0,0,.06.562a.5.5,0,0,0,.06.194C.137.79.192.766.176.732" transform="translate(4.585 0.309)" fill="#452222"/>
              <path id="Fill_134-2" data-name="Fill 134" d="M1.454.53A.531.531,0,0,0,1.22.3C1.091.215.985.239.846.2S.607.049.456.017A.844.844,0,0,0,.018.046C-.018.057.005.112.042.1A.736.736,0,0,1,.5.09C.605.126.674.215.781.251s.205.008.3.042A.575.575,0,0,1,1.4.554c.014.036.069.012.055-.023" transform="translate(5.248 0.746)" fill="#452222"/>
              <path id="Fill_136-2" data-name="Fill 136" d="M.617.452A.855.855,0,0,0,.042,0C0-.009-.018.045.019.056a.8.8,0,0,1,.544.42A.03.03,0,0,0,.617.452" transform="translate(6.175 1.169)" fill="#452222"/>
              <path id="Fill_140-2" data-name="Fill 140" d="M.213,0A.023.023,0,0,0,.188.02.022.022,0,0,0,.207.044C.23.053.254.192.224.44S.129.818.1.82.023.676.053.436A1.292,1.292,0,0,1,.131.076L.1.043a1.2,1.2,0,0,0-.09.388C-.019.652.023.855.1.864.19.875.248.606.268.446.277.374.317.013.213,0" transform="translate(3.543 2.815)" fill="#fad3b1"/>
              <path id="Fill_142-2" data-name="Fill 142" d="M.176,0A.022.022,0,0,1,.2.025.022.022,0,0,1,.171.044C.147.047.089.176.058.425s0,.389.022.4S.194.7.224.462a1.166,1.166,0,0,0,0-.381L.266.039a1.291,1.291,0,0,1,0,.428C.241.689.151.875.075.866-.016.854-.007.58.013.419.022.347.073-.012.176,0" transform="translate(6.152 2.994)" fill="#fad3b1"/>
              <g id="Group_146" data-name="Group 146" transform="translate(0 5.139)">
                <path id="Clip_145-3" data-name="Clip 145" d="M0,0H8.855V9.443H0Z" transform="translate(0 0)" fill="none"/>
                <g id="Group_146-2" data-name="Group 146" transform="translate(0 0)" clip-path="url(#clip-path-3)">
                  <path id="Fill_144-2" data-name="Fill 144" d="M7.079,7.8c-.061.432-.132.922-.177,1.179-.019.113.588.058.582.057s-.758.095-2.01.2L4.59,9.3l-.327.026-.1.008H4.155l-.06,0-.038,0-.079.006-.33.027-.768.062a.345.345,0,0,1-.254-.083l-.406-.35A.339.339,0,0,1,2.1,8.78L2.059,8.2a.342.342,0,0,0-.342-.313A.69.69,0,0,1,1.03,7.1l.094-.667a.339.339,0,0,0-.24-.378A1.163,1.163,0,0,1,0,4.961,15.858,15.858,0,0,1,1.6.651,5.849,5.849,0,0,1,3.363.01a.345.345,0,0,1,.351.12l.951,1.2a.346.346,0,0,0,.523.019c.167-.18.387-.411.589-.6A4.177,4.177,0,0,0,6.192.291.345.345,0,0,1,6.559.175a7.982,7.982,0,0,1,1.86.707c.23.255.226.854.382,1.376a26,26,0,0,1-.078,3.525c0,.332-.9,1.539-.923,1.73C7.791,7.589,7.135,7.4,7.079,7.8Z" transform="translate(0 0)" fill="#c7caf0"/>
                </g>
              </g>
              <path id="Fill_147-2" data-name="Fill 147" d="M1.7,2c-.307-.17-.629-.39-.666-.761A.941.941,0,0,0,1,1C.957.895.89.793.841.689A3.979,3.979,0,0,1,.6.023.029.029,0,0,0,.547.032Q.579.31.61.589c.018.162.058.338.062.505A2.961,2.961,0,0,1,.5,2.626,3.956,3.956,0,0,1,0,3.878a2.364,2.364,0,0,1,.749-.354,1.205,1.205,0,0,1,.55-.013c.19.044.225.31.405.376.108.039-.141-.1-.041-.118.045-.257.116-.746.177-1.179-.018-.01.045-.032.1-.165C2.081,2.146,1.657,2.006,1.7,2Z" transform="translate(5.86 10.227)" fill="#b9bde9"/>
              <path id="Fill_151-2" data-name="Fill 151" d="M1.265,0,.226,1.545A1.327,1.327,0,0,0,.58,3.382l.074.051L2.008.579Z" transform="translate(1.524 6.788)" fill="#fea689"/>
              <path id="Fill_153-3" data-name="Fill 153" d="M1.79,1.418a.633.633,0,0,0-.026-.328c-.013-.043.016-.1,0-.153A.254.254,0,0,0,1.638.8.833.833,0,0,0,1.1.837C.965.879.82.981.684.893.637.862.629.689.639.65A.853.853,0,0,0,.688.181C.631.007.509-.024.457.015.428.036.4.358.349.53a6.943,6.943,0,0,0-.32.851,1.118,1.118,0,0,0,.046.667.4.4,0,0,0,.463.184s.352-.068.623-.094a.884.884,0,0,0,.448-.215.279.279,0,0,0,.107-.17.564.564,0,0,1,.024-.208,1.036,1.036,0,0,0,.051-.128" transform="translate(2.712 5.511)" fill="#fea689"/>
              <path id="Fill_155-2" data-name="Fill 155" d="M.231.006A.932.932,0,0,1,.017.125C-.017.139.005.191.04.177A.99.99,0,0,0,.266.051C.3.029.26-.016.231.006" transform="translate(4.152 6.613)" fill="#f2815c"/>
              <path id="Fill_157-2" data-name="Fill 157" d="M.207.006a.813.813,0,0,1-.19.112A.029.029,0,0,0,.04.171a.87.87,0,0,0,.2-.12A.029.029,0,0,0,.207.006" transform="translate(4.118 6.984)" fill="#f2815c"/>
              <path id="Fill_159-2" data-name="Fill 159" d="M.173,0,.017.059C-.017.072.005.124.04.112L.2.054C.231.042.208-.011.173,0" transform="translate(4.164 7.282)" fill="#f2815c"/>
              <path id="Fill_161-2" data-name="Fill 161" d="M1.534,3.166a.655.655,0,0,1-.9-.419L.2,1.176.107.836.091.776,0,.442.833,0l.03.068h0L.955.276l.164.371.74,1.672a.644.644,0,0,1-.325.847" transform="translate(6.102 6.801)" fill="#fea689"/>
              <path id="Fill_163" data-name="Fill 163" d="M1.663,1.443A6.923,6.923,0,0,0,1.5.551c-.019-.178.009-.5-.016-.526-.045-.047-.17-.037-.257.124a.853.853,0,0,0-.034.47c0,.04.036.229-.016.252a1.564,1.564,0,0,1-.366,0A1.035,1.035,0,0,0,.177.844.2.2,0,0,0,.023.956h0A.025.025,0,0,0,.015.976L.01.99a.989.989,0,0,0,.06.419,1.435,1.435,0,0,0,.118.425.472.472,0,0,0,.05.081A.677.677,0,0,0,.694,2.1a1.826,1.826,0,0,0,.238.012c.014,0,.089-.013.1,0s.274.241.469-.012a1.12,1.12,0,0,0,.162-.65" transform="translate(5.302 5.468)" fill="#fea689"/>
              <path id="Fill_165" data-name="Fill 165" d="M.461.036A1.6,1.6,0,0,1,.031,0C-.005-.007-.012.05.024.057A1.658,1.658,0,0,0,.47.093C.507.091.5.035.461.036" transform="translate(5.337 6.583)" fill="#f2815c"/>
              <path id="Fill_167" data-name="Fill 167" d="M.354.049A1.132,1.132,0,0,1,.04,0C0-.009-.018.043.018.054A1.184,1.184,0,0,0,.347.106C.384.106.391.049.354.049" transform="translate(5.435 6.885)" fill="#f2815c"/>
              <path id="Fill_169" data-name="Fill 169" d="M.269.006A.516.516,0,0,1,.031,0C-.005-.008-.012.049.023.058A.553.553,0,0,0,.278.063C.314.055.306,0,.269.006" transform="translate(5.525 7.235)" fill="#f2815c"/>
              <path id="Fill_171-2" data-name="Fill 171" d="M.16.012A.852.852,0,0,0,0,.459C0,.5.055.5.057.466A.794.794,0,0,1,.206.046C.227.016.182-.018.16.012" transform="translate(6.452 9.64)" fill="#b9bce9"/>
              <path id="Fill_173-3" data-name="Fill 173" d="M.465.009C.439-.017.394.018.419.044A1.242,1.242,0,0,1,.55,1.073a1.306,1.306,0,0,1-.538.838c-.031.021,0,.066.035.045a1.362,1.362,0,0,0,.56-.876A1.283,1.283,0,0,0,.465.009" transform="translate(7.648 9.188)" fill="#b9bce9"/>
              <path id="Fill_175-2" data-name="Fill 175" d="M.088,6.116a.028.028,0,0,0,.005-.028c0-.01-.006-.02-.009-.031s0-.014,0-.021A.024.024,0,0,0,.075,6.02a2.078,2.078,0,0,1,.051-.7c.033-.265.007-.533.028-.8a4.07,4.07,0,0,1,.212-.781A1.817,1.817,0,0,0,.406,3.1a2.659,2.659,0,0,1,0-.76,1.805,1.805,0,0,0,.109-.681C.476,1.411.368,1.176.342.924A2,2,0,0,1,.524.039C.537,0,.483-.017.471.017a2.3,2.3,0,0,0-.192.8,3.2,3.2,0,0,0,.147.7,1.073,1.073,0,0,1,.029.432c-.023.13-.081.251-.109.38a2.5,2.5,0,0,0,0,.725,1.912,1.912,0,0,1-.1.845,2.33,2.33,0,0,0-.159.737,5.887,5.887,0,0,1-.043.806,1.437,1.437,0,0,0-.02.618,3.413,3.413,0,0,1-.019.649.029.029,0,0,0,.057.007,3.489,3.489,0,0,0,.022-.608" transform="translate(4.429 6.876)" fill="#b9bce9"/>
              <path id="Fill_177-2" data-name="Fill 177" d="M.057,0A.029.029,0,0,0,.025.025L0,.118A.029.029,0,0,0,.026.15.03.03,0,0,0,.058.125L.082.032A.029.029,0,0,0,.057,0" transform="translate(4.977 6.944)" fill="#b9bce9"/>
              <path id="Fill_179-2" data-name="Fill 179" d="M.057.024C.055-.013,0,0,0,.032L.005.138C.007.175.064.166.062.13L.057.024" transform="translate(4.881 7.908)" fill="#b9bce9"/>
              <path id="Fill_173-4" data-name="Fill 173" d="M.3.007C.288-.013.259.014.275.035a1.177,1.177,0,0,1,.08.812,1.088,1.088,0,0,1-.348.664c-.02.016,0,.052.023.035A1.136,1.136,0,0,0,.392.853,1.215,1.215,0,0,0,.3.007" transform="translate(2.352 10.462) rotate(59)" fill="#b9bce9"/>
              <path id="Fill_181-2" data-name="Fill 181" d="M.059.156A.442.442,0,0,1,.067.031C.074-.005.017-.012.01.024A.5.5,0,0,0,0,.165C0,.2.062.193.059.156" transform="translate(4.928 10.015)" fill="#b9bce9"/>
              <path id="Fill_183-2" data-name="Fill 183" d="M.017.024,0,.156A.029.029,0,0,0,.058.163L.074.031A.029.029,0,0,0,.017.024" transform="translate(4.676 11.279)" fill="#b9bce9"/>
              <path id="Fill_185-2" data-name="Fill 185" d="M.073.159.057.024C.053-.013,0,0,0,.032L.016.167C.021.2.078.2.073.159" transform="translate(4.604 12.669)" fill="#b9bce9"/>
              <path id="Fill_187-2" data-name="Fill 187" d="M.842.262A.481.481,0,0,0,.569.108,3.481,3.481,0,0,0,.142,0C.105-.006.1.05.135.057A3.407,3.407,0,0,1,.5.144.888.888,0,0,1,.733.235,1.156,1.156,0,0,0,.011.514.029.029,0,0,0,.046.559a1.083,1.083,0,0,1,.7-.267A.029.029,0,0,0,.776.272.213.213,0,0,1,.8.3c.021.03.067,0,.045-.035" transform="translate(0.545 8.563)" fill="#b9bce9"/>
              <path id="Fill_189-2" data-name="Fill 189" d="M.581,1.423A1.181,1.181,0,0,1,.314.694,1.876,1.876,0,0,0,.056.016C.04-.017-.013.006,0,.039.064.162.13.283.185.408A1.347,1.347,0,0,1,.267.843a1.114,1.114,0,0,0,.269.614c.024.028.07-.007.045-.035" transform="translate(1.539 5.926)" fill="#b9bce9"/>
              <path id="Fill_191-2" data-name="Fill 191" d="M.7.023A2.6,2.6,0,0,1,.541.5C.472.647.372.771.3.914c-.128.268-.118.584-.3.829-.022.03.024.064.046.035.184-.251.172-.57.305-.842C.429.786.535.654.6.5A2.845,2.845,0,0,0,.757.03C.766-.005.709-.012.7.023" transform="translate(7.69 6.21)" fill="#b9bce9"/>
              <path id="Fill_193" data-name="Fill 193" d="M1.011.371A1.241,1.241,0,0,1,.093.9L0,.56A.72.72,0,0,0,.2.546.915.915,0,0,0,.719.193,1.527,1.527,0,0,0,.847,0Z" transform="translate(6.209 7.077)" fill="#3b2b2b"/>
              <path id="Fill_195" data-name="Fill 195" d="M.651.245a.327.327,0,0,1-.237.4A.331.331,0,0,1,.011.41a.327.327,0,0,1,.237-.4.331.331,0,0,1,.4.235" transform="translate(6.358 7.363)" fill="#fff"/>
              <path id="Fill_197-2" data-name="Fill 197" d="M5.488.093a.028.028,0,0,0-.051,0L3.413.147a18.66,18.66,0,0,0-2.008-.1C1.256.069,1.052-.022.9.005A.9.9,0,0,0,.517.1C.444.165.461.257.467.341A1.214,1.214,0,0,1,.424.629C.391.774.344.946.3,1.1s-.092.306-.12.4A11.128,11.128,0,0,0,.014,2.9c-.043.337.03,2.233,0,2.6a.029.029,0,0,0,.029.029,23.46,23.46,0,0,0,3.47.12c.049,0,.1,0,.145,0l.061,0c.2.013.4.048.6.062a4.311,4.311,0,0,0,.84-.04c.272-.034.542-.079.815-.1a3.8,3.8,0,0,0,.74-.058c.193-.058.389.136.368-.071-.014-.135-.12-.614-.147-.747a5.582,5.582,0,0,0-.113-.555Q6.6,3.012,6.364,1.886a4.208,4.208,0,0,0-.217-.859A1.309,1.309,0,0,0,6.074.886a.38.38,0,0,1,0-.236A3.338,3.338,0,0,0,6.158.077" transform="translate(1.517 12.923)" fill="#f1f2ff"/>
              <path id="Fill_199-2" data-name="Fill 199" d="M5.776.256C5.74.2,5.821.1,5.777.02A10.473,10.473,0,0,1,4.5.111C4.016.064,3.815.076,3.086.035,2.955.028,2.834.1,2.7.091A2.8,2.8,0,0,0,2.329.05c-.125.007-.246.044-.37.058a2.382,2.382,0,0,1-.351.009C1.113.1.618.06.127,0,.094.144.046.316,0,.475c.034,0,.07,0,.1,0q.2.006.4.008C1.02.49,1.549.478,2.077.478S3.112.489,3.627.54c.26.026.549-.082.81-.065.216.015.425.14.643.1A6.656,6.656,0,0,0,5.849.4,1.311,1.311,0,0,0,5.776.256" transform="translate(1.815 13.552)" fill="#33261a"/>
              <path id="Fill_201-2" data-name="Fill 201" d="M.211.041A7.255,7.255,0,0,1,0,1.118a.043.043,0,0,0,.084.023A7.405,7.405,0,0,0,.3.041C.3-.014.217-.013.211.041" transform="translate(2.455 13.414)" fill="#f1f2ff"/>
              <path id="Fill_203-2" data-name="Fill 203" d="M.241.836Q.208.591.167.347C.151.252.158.073.077.01.033-.024-.029.037.015.071s.041.14.05.191S.086.388.1.451q.033.2.061.408C.165.914.249.891.241.836" transform="translate(6.537 13.509)" fill="#f1f2ff"/>
              <path id="Fill_205-2" data-name="Fill 205" d="M1.623.024,1.494.039A.046.046,0,0,0,1.429,0c-.033.016-.065.034-.1.053L1.15.078c-.055.006-.056.092,0,.086l.04,0A1.231,1.231,0,0,0,.872.573,1.338,1.338,0,0,0,.757.942c-.026.167-.008.34-.046.5a1.136,1.136,0,0,1-.269.424,1.343,1.343,0,0,0-.2.389A6.722,6.722,0,0,0,0,3.31a.044.044,0,0,0,.042.054l.29-.015a.629.629,0,0,0,.224-.024c.083-.04.077-.113.068-.192a2.027,2.027,0,0,1,.33-1.12,2.336,2.336,0,0,0,.177-.45,4.042,4.042,0,0,0,.062-.5A1.732,1.732,0,0,1,1.654.1c.023-.025.009-.078-.031-.073" transform="translate(2.434 13.82)" fill="#33261a"/>
              <path id="Fill_207" data-name="Fill 207" d="M.943.542H.155A.154.154,0,0,1,0,.389V.153A.154.154,0,0,1,.155,0H.943A.154.154,0,0,1,1.1.153V.389A.154.154,0,0,1,.943.542ZM.155.086A.068.068,0,0,0,.087.153V.389A.068.068,0,0,0,.155.456H.943A.068.068,0,0,0,1.011.389V.153A.068.068,0,0,0,.943.086Z" transform="translate(4.151 13.572)" fill="#fad3b1"/>
              <path id="Fill_209" data-name="Fill 209" d="M.392,1.4l-.061,0Q.151.717,0,.036C-.007,0,.049-.015.057.021Q.209.712.392,1.4" transform="translate(4.845 17.183)" fill="#452222"/>
            </g>
          </g>
          <path id="Fill_163-2" data-name="Fill 163" d="M25.979,15.737c.1-4.942-6.832-9.3-7.644-8.953-.63.267-3.269.165-5.713.016-3.306-.851-6.967-1.645-9.858-.425A3.166,3.166,0,0,0,.353,8.123l-.021.022a.386.386,0,0,0-.1.295c-.024.071-.048.142-.068.217-.576,2.154.552,4.454.931,6.545A22.417,22.417,0,0,0,2.93,21.835a7.374,7.374,0,0,0,.786,1.259c1.637,2.032,4.667,2.557,7.124,2.851a28.528,28.528,0,0,0,3.723.192c.218,0,1.393-.207,1.555-.064,0,0,4.278,3.766,7.332-.187,2.13-2.757,2.459-6.839,2.529-10.149" transform="translate(12539.784 16949.814)" fill="#fea689"/>
          <path id="Fill_165-2" data-name="Fill 165" d="M7.209.57A25.017,25.017,0,0,1,.482.012C-.084-.112-.191.774.372.9a25.907,25.907,0,0,0,6.968.555c.578-.03.445-.913-.131-.883" transform="translate(12540.331 16960.416)" fill="#f2815c"/>
          <path id="Fill_167-2" data-name="Fill 167" d="M5.532.764A17.682,17.682,0,0,1,.625.022C.074-.144-.274.68.28.847a18.505,18.505,0,0,0,5.142.8c.573.007.69-.878.11-.885" transform="translate(12541.873 16965.133)" fill="#f2815c"/>
          <path id="Fill_169-2" data-name="Fill 169" d="M4.21.1A8.056,8.056,0,0,1,.477.016C-.083-.128-.188.759.366.9A8.633,8.633,0,0,0,4.342.985c.564-.119.438-1-.131-.883" transform="translate(12543.271 16970.607)" fill="#f2815c"/>
          <path id="Fill_193-2" data-name="Fill 193" d="M15.8,5.8c-3.551,4.641-8.449,8-14.347,8.273L0,8.75a11.252,11.252,0,0,0,3.1-.214A14.3,14.3,0,0,0,11.24,3.009,23.857,23.857,0,0,0,13.24,0Z" transform="translate(12553.964 16968.141)" fill="#3b2b2b"/>
          <path id="Fill_195-2" data-name="Fill 195" d="M10.168,3.832a5.112,5.112,0,0,1-3.7,6.237A5.17,5.17,0,0,1,.167,6.4,5.112,5.112,0,0,1,3.869.165a5.171,5.171,0,0,1,6.3,3.667" transform="translate(12556.29 16972.613)" fill="#fff"/>
        </g>
      </g>
    </g>
  </g>
</svg>
