<svg xmlns="http://www.w3.org/2000/svg" xmlns:xlink="http://www.w3.org/1999/xlink" width="120" height="120" viewBox="0 0 120 120">
  <defs>
    <clipPath id="clip-path">
      <path id="Mask" d="M53.313,107.25c29.444,0,53.937-33.1,53.937-62.719S82.757,0,53.313,0,0,19.3,0,48.921,23.869,107.25,53.313,107.25Z" fill="none"/>
    </clipPath>
    <clipPath id="clip-path-2">
      <path id="Clip_2" data-name="Clip 2" d="M0,0H11.191V5.169H0Z" fill="none"/>
    </clipPath>
    <clipPath id="clip-path-3">
      <path id="Clip_17" data-name="Clip 17" d="M0,0H55.281V119.535H0Z" fill="none"/>
    </clipPath>
  </defs>
  <g id="Group_8189" data-name="Group 8189" transform="translate(4010 -3970)">
    <rect id="Rectangle_4158" data-name="Rectangle 4158" width="120" height="120" transform="translate(-4010 3970)" fill="none"/>
    <g id="Group_8188" data-name="Group 8188" transform="translate(-4138.875 3892.625)">
      <g id="Ellipse_1553" data-name="Ellipse 1553" transform="translate(141 95)" fill="none" stroke="#e1f5cd" stroke-miterlimit="10" stroke-width="16" style="mix-blend-mode: multiply;isolation: isolate">
        <circle cx="47.5" cy="47.5" r="47.5" stroke="none"/>
        <circle cx="47.5" cy="47.5" r="39.5" fill="none"/>
      </g>
      <g id="Girl" transform="translate(134.875 83.375)">
        <path id="Mask-2" data-name="Mask" d="M53.313,107.25c29.444,0,53.937-33.1,53.937-62.719S82.757,0,53.313,0,0,19.3,0,48.921,23.869,107.25,53.313,107.25Z" fill="none"/>
        <g id="Girl-2" data-name="Girl" clip-path="url(#clip-path)">
          <g id="Girl-3" data-name="Girl" transform="translate(19.33 1.882)">
            <g id="Girl-4" data-name="Girl" transform="translate(0 0)">
              <g id="Group_3" data-name="Group 3" transform="translate(3.609 181.711)">
                <path id="Clip_2-2" data-name="Clip 2" d="M0,0H11.191V5.169H0Z" transform="translate(0 0)" fill="none"/>
                <g id="Group_3-2" data-name="Group 3" transform="translate(0 0)" clip-path="url(#clip-path-2)">
                  <path id="Fill_1" data-name="Fill 1" d="M11.125.592A7.316,7.316,0,0,0,7.425,0a19.09,19.09,0,0,0-4.2.456A.138.138,0,0,0,3.038.382C1.281,1.2.587,3.058.005,4.786A.133.133,0,0,0,.1,4.949a17.1,17.1,0,0,0,6.626-.256c.946-.2,1.357-.919,1.966-1.606A17.992,17.992,0,0,1,11.151.8a.133.133,0,0,0-.026-.207" transform="translate(0)" fill="#1f2033"/>
                </g>
              </g>
              <path id="Fill_4" data-name="Fill 4" d="M14.915,10.7c-.222-.469-.153-2.176-.483-3.634a12.79,12.79,0,0,0-1.39-3.316,6.2,6.2,0,0,0-1.4-1.833A4.907,4.907,0,0,0,9.32,1.037,5.519,5.519,0,0,1,7.506.389C4.932-.74,2.33.794.318,2.368a.13.13,0,0,0-.141.088c0,.01-.006.02-.009.03l-.122.1c-.086.069-.036.171.046.205A3.966,3.966,0,0,0,.6,4.995Q1.286,6.568,1.976,8.14A44.482,44.482,0,0,1,4.558,14.72c.469,1.81.848,3.75,2.117,5.2A6.169,6.169,0,0,0,8.951,21.41a9.935,9.935,0,0,1,2.22,1.653,2.633,2.633,0,0,0,2.3.513,6.963,6.963,0,0,1,4.046.621.133.133,0,0,0,.18-.047,4.313,4.313,0,0,0-.014-2.843,5.457,5.457,0,0,1-.206-1.845c.085-.713.549-1.292.671-1.992.2-1.127-.532-2.37-1.05-3.317-.652-1.192-1.6-2.22-2.179-3.448" transform="translate(29.057 0)" fill="#ab614f"/>
              <path id="Fill_6" data-name="Fill 6" d="M4.8,6.061a1.747,1.747,0,0,0-.038-1.076,2.636,2.636,0,0,1,.063-2.093,4.16,4.16,0,0,0,.48-1.132A3.368,3.368,0,0,0,5.038.09.132.132,0,0,0,4.78.124,6.328,6.328,0,0,0,2.751,2.23C2.08,3.193,1.479,4.212.857,5.208A4.4,4.4,0,0,0,0,7.363,10.479,10.479,0,0,1,2.147,8.98a2.531,2.531,0,0,0,.629.385c.04-.267.049-.54.067-.687A2.338,2.338,0,0,1,3.918,6.853c.3-.221.73-.435.886-.792" transform="translate(38.069 14.077)" fill="#1f2033"/>
              <path id="Fill_8" data-name="Fill 8" d="M7.726,0Q5.571.387,3.44.893c-.689.165-1.379.333-2.061.525A2.444,2.444,0,0,0,.2,2.024a.136.136,0,0,0-.186.18c.766,1.5,2.6,3.085,4.411,2.719a3.234,3.234,0,0,0,1.9-1.544A13,13,0,0,0,7.888.165c.035-.1-.07-.179-.161-.162" transform="translate(38.209 181.144)" fill="#1f2033"/>
              <path id="Fill_10" data-name="Fill 10" d="M21.942,8.25a1.6,1.6,0,0,0-.31-2.3,2.554,2.554,0,0,0,.4-.618c.311-.724.17-.485-.377-.735L17.847,2.979c-.885-.406-2.41-1.138-2.722-2.159,0-.023-.008-.046-.01-.07V.74a2.217,2.217,0,0,0,0-.48.338.338,0,0,0-.041-.08.105.105,0,0,0-.121-.107c-.287-.158-.834-.013-1.114,0q-2.3.063-4.6.255a13.965,13.965,0,0,0-1.423.1A.124.124,0,0,0,7.607.37L7.6.375A.12.12,0,0,0,7.457.4,10.025,10.025,0,0,1,5.289,2.3C4.364,2.833.955,4.025.476,4.26c-.248.122-.269.323-.275.592a2.639,2.639,0,0,0,.376.929c.011.022.024.044.035.066A3.334,3.334,0,0,0,.087,8.535C.5,10.325,1.939,11.961,3,13.409a66.206,66.206,0,0,1,6.049,8.9A1.385,1.385,0,0,0,9.881,23.9a1.5,1.5,0,0,0,2.4-1.436l1.171-1.871a1.447,1.447,0,0,0,.219-.6,15.769,15.769,0,0,0,2.413-4.93L21.942,8.25" transform="translate(22.918 26.422)" fill="#fea689"/>
              <path id="Fill_12" data-name="Fill 12" d="M50.385,19.973c-.194-.735-.378-1.472-.547-2.214q-.479-2.1-.812-4.23c-.227-1.453-.318-2.93-.576-4.377a8.489,8.489,0,0,0-1.421-3.334,17.585,17.585,0,0,0-2.451-2.944C42.746,1.175,40.228.753,37.833.46c-.18.334-.369.659-.555.971-.928,1.552-2.025,2.99-3.065,4.465-1.3,1.841-2.465,3.772-3.778,5.6A58.271,58.271,0,0,1,25.7,17.346a.133.133,0,0,1-.186,0c-2.413-2.382-3.59-5.732-5.5-8.489C18.181,6.206,16.425,3.275,16.22,0c-1.251.509-2.488,1.05-3.7,1.65A35.251,35.251,0,0,0,8.708,3.825,10.167,10.167,0,0,0,5.847,6.4a17.319,17.319,0,0,0-1.77,3.727L2.286,14.753.5,19.38c-.158.407-.642,1.141-.452,1.579.144.332.708.521,1.015.645a13.931,13.931,0,0,1,2.2.929c.653.4,1.26.869,1.937,1.233A11.223,11.223,0,0,0,9.154,25a29.162,29.162,0,0,1,0,5.186,8.984,8.984,0,0,0,.991,4.919c.571,1.122,1.192,2.708,2.633,2.8a16.487,16.487,0,0,0,2.667-.244q1.544-.158,3.091-.285,5.929-.487,11.883-.523c1.784-.01,3.573.08,5.356.041a4.787,4.787,0,0,0,3.547-1.2,4.916,4.916,0,0,0,1-2.129c.279-1.053.524-2.117.784-3.174.5-2.04,1.112-4.649,1.628-6.761.183-.051.357-.1.515-.142q2.168-.544,4.335-1.095c.688-.175,1.385-.331,2.067-.528a1.156,1.156,0,0,0,.853-.62,2.11,2.11,0,0,0-.117-1.282" transform="translate(7.215 30.594)" fill="#fafafa"/>
              <path id="Fill_14" data-name="Fill 14" d="M15.879,1.88A9.91,9.91,0,0,0,14.669.968a2.194,2.194,0,0,0-.561-.125A2.061,2.061,0,0,1,13.245.4,2.057,2.057,0,0,0,11.914,0a16.137,16.137,0,0,0-3.37.98,10.646,10.646,0,0,1-2.334.379c-.75.03-1.5-.025-2.246.074A14.331,14.331,0,0,0,.222,2.647a.1.1,0,0,0-.082.035l-.071.031c-.155.067-.021.295.132.228l.044-.019A19.924,19.924,0,0,0,4,3.389c1.337.178,2.649.5,3.98.707a23.359,23.359,0,0,0,3.973.257c.686-.01,1.371-.042,2.056-.084.286-.018.592-.017.895-.03a3.032,3.032,0,0,0,.627-.517A3.954,3.954,0,0,0,16.32,2.3a1.665,1.665,0,0,0-.441-.416" transform="translate(31.016 62.565)" fill="#1f2033"/>
              <g id="Group_18" data-name="Group 18" transform="translate(0 64.621)">
                <path id="Clip_17-2" data-name="Clip 17" d="M0,0H55.281V119.535H0Z" transform="translate(0 0)" fill="none"/>
                <g id="Group_18-2" data-name="Group 18" transform="translate(0 0)" clip-path="url(#clip-path-3)">
                  <path id="Fill_16" data-name="Fill 16" d="M55.177,57.428c-.319-4.791-1.116-9.541-1.319-14.342-.2-4.653.5-9.209.93-13.827.463-4.993.254-9.783-1.782-14.426-2.1-4.8-4.678-9.418-7.051-14.085a.276.276,0,0,0-.14-.494A88.835,88.835,0,0,0,19.647,2.222a.225.225,0,0,0-.184.245.214.214,0,0,0-.034.15c.568,4.525,1.017,9.015-.038,13.508-.9,3.85-2.514,7.481-3.609,11.274a34.333,34.333,0,0,0-.958,12.134,45.4,45.4,0,0,1,.133,6.461,24.855,24.855,0,0,1-1.428,6.3c-1.253,3.591-2.978,7.06-3.63,10.837-.713,4.13.777,8.035.571,12.144-.353,7.039-6.135,12.276-7.452,19.052-.889,4.574,1.005,9.22-.167,13.757C1.882,111.837-.672,115.3.166,119.341a.263.263,0,0,0,.253.194,149.239,149.239,0,0,1,18.848-.853.268.268,0,0,0,.263-.264,38.609,38.609,0,0,1,1.152-9.283c.737-2.507,1.975-4.829,2.744-7.325,1.668-5.417-.293-11.215,1.838-16.539.969-2.422,2.416-4.615,3.417-7.024a22.63,22.63,0,0,0,1.458-7.285A36.855,36.855,0,0,1,31.453,62.1c.443-1.393.974-2.754,1.5-4.119a25.766,25.766,0,0,1,.852,5.574,65.163,65.163,0,0,1-.66,7.837c-.518,5.206.244,10.411-.009,15.621a30.647,30.647,0,0,1-1.492,7.821,18.96,18.96,0,0,0-1.25,6.7c.154,2.836,1.243,5.522,1.581,8.334a25.03,25.03,0,0,1-.638,9.189.267.267,0,0,0,.253.334,127.145,127.145,0,0,0,14.716-.862c1.255-.148,3.772,0,4.589-1.209.909-1.346.3-3.845.142-5.328a21.538,21.538,0,0,1,.382-7.3c.506-2.193,1.2-4.345,1.506-6.581.615-4.453-.561-8.854-.8-13.285-.261-4.794,1.008-9.412,2.024-14.048a46.938,46.938,0,0,0,1.036-13.35" transform="translate(0 0)" fill="#f6ddc7"/>
                </g>
              </g>
              <path id="Fill_19" data-name="Fill 19" d="M20.3,12.973a44.63,44.63,0,0,1-1.415,6.736c-.634,2.183-1.395,4.333-1.872,6.559-.939,4.38-.144,8.718.2,13.113a25.531,25.531,0,0,1-.228,6.648,35.771,35.771,0,0,1-1.656,5.737c-1.378,3.779-3.086,7.494-3.715,11.5-.678,4.32.308,8.628.172,12.959s-2,8.014-3.836,11.819a34.937,34.937,0,0,0-2.175,5.342,34.215,34.215,0,0,0-1.053,6.357,51.62,51.62,0,0,1-.934,6.92,50.515,50.515,0,0,1-1.869,5.862c-.663,1.8-1.367,3.628-1.916,5.491q3.424-.351,6.858-.545c.008-.046.016-.093.023-.14a56.762,56.762,0,0,0,.556-6.85c.088-2.4.141-4.816.432-7.207A33.62,33.62,0,0,1,9.4,96.665c1.361-4.072,3.256-7.949,4.48-12.069a28.531,28.531,0,0,0,1.153-6.2c.161-2.387.042-4.78-.022-7.168a37.369,37.369,0,0,1,.342-7.346,34.47,34.47,0,0,1,1.876-6.352c.789-2.076,1.655-4.123,2.348-6.235a35.18,35.18,0,0,0,1.49-6.676,35.392,35.392,0,0,0,.142-7.12,47.841,47.841,0,0,1-.388-7.253,46.619,46.619,0,0,1,1.454-7.006,41.448,41.448,0,0,0,.955-6.869A82.719,82.719,0,0,0,22.55,2.114C22.469,1.409,22.382.7,22.3,0q-1.087.193-2.166.41A44.738,44.738,0,0,1,20.3,12.973" transform="translate(1.388 66.054)" fill="#38539a"/>
              <path id="Fill_21" data-name="Fill 21" d="M16.523.247c-.274,3.923.292,7.847.625,11.757a41.4,41.4,0,0,1,.138,6.509,29.46,29.46,0,0,1-1.445,6.674,22.211,22.211,0,0,0-1.282,6.306,37.184,37.184,0,0,0,.76,6.451,26.777,26.777,0,0,1,.346,6.572,36,36,0,0,1-1.122,6.145c-1.035,3.946-2.481,7.771-3.488,11.725a36.446,36.446,0,0,0-1.041,5.833,63.633,63.633,0,0,0,.027,6.766,21.943,21.943,0,0,1-.847,6.789c-.6,2.019-1.433,3.959-2.187,5.923A32.94,32.94,0,0,0,5.2,94c-.368,2.165-.536,4.358-.766,6.54a44.531,44.531,0,0,1-1.15,6.623c-.548,2.092-1.233,4.145-1.894,6.2-.5,1.546-.99,3.116-1.4,4.705,1.313-.06,2.627-.1,3.942-.124.9-3.557.747-7.293.911-10.938a33.089,33.089,0,0,1,.931-6.917,45.358,45.358,0,0,1,2.129-6.015c1.623-3.877,3.453-7.7,4.261-11.855.861-4.429.751-8.964,1.066-13.447a42.647,42.647,0,0,1,1-6.854c.509-2.149,1.174-4.257,1.837-6.362,1.276-4.052,2.569-8.167,2.715-12.449.16-4.679-.828-9.31-.39-13.993.427-4.564,1.7-9.036,1.684-13.644-.021-4.5-1.509-8.825-1.765-13.3a19.849,19.849,0,0,1,0-2.171q-.9.116-1.793.247" transform="translate(9.767 65.385)" fill="#3a3a3a"/>
              <path id="Fill_23" data-name="Fill 23" d="M15.215,39.517c-.285-4.335-1-8.707-.461-13.052.312-2.508,1.27-4.847,1.741-7.317a13.59,13.59,0,0,0-.366-6.295,41.452,41.452,0,0,1-1.8-7.6A21.947,21.947,0,0,1,14.536,0c-.268.024-.537.049-.8.076a22.933,22.933,0,0,0,.6,9.554c.631,2.242,1.552,4.461,1.62,6.82.066,2.293-.729,4.47-1.318,6.651-2.308,8.551,1.351,17.348-.866,25.9-1.063,4.1-3.022,7.891-4.226,11.946-1.263,4.254-.97,8.529-1.289,12.9C7.93,78.32,6.192,82.4,4.672,86.562A40.248,40.248,0,0,0,2.29,99.129a78.818,78.818,0,0,1-.6,8.032c-.345,2.434-.808,4.85-1.189,7.279-.2,1.28-.375,2.566-.5,3.853.247,0,.494.006.742.008.495-5.4,1.948-10.83,2.217-16.174.235-4.66.363-9.128,1.855-13.6,1.323-3.961,3.147-7.781,3.89-11.917.786-4.376.122-8.876,1.034-13.236.853-4.077,2.733-7.826,4.062-11.75a30.621,30.621,0,0,0,1.416-12.11" transform="translate(16.98 65.009)" fill="#e3a780"/>
              <path id="Fill_25" data-name="Fill 25" d="M1.768,11.119A53.386,53.386,0,0,1,2.738,17.6a23.053,23.053,0,0,1-.531,6.641A53.306,53.306,0,0,0,1,30.731a32.306,32.306,0,0,0,.075,6.8c.262,2.238.668,4.444.712,6.7a42.6,42.6,0,0,1-.523,7.087C.924,53.62.491,55.911,0,58.19l.1-.254A27.731,27.731,0,0,1,.92,62.808a18.585,18.585,0,0,0,1.6-5.458A41.693,41.693,0,0,1,4.1,50.709a20.516,20.516,0,0,0,.938-3.4,13.574,13.574,0,0,0,.05-3.425,56.805,56.805,0,0,1-.651-7.541,26.7,26.7,0,0,1,1.355-7.184,19.574,19.574,0,0,0,1.349-6.771,31.739,31.739,0,0,0-1.506-6.9C4.26,10.445,4.049,5.208,3.95,0Q2.273.052.595.168c-.274,3.685.471,7.34,1.173,10.951" transform="translate(32.857 64.638)" fill="#38539a"/>
              <path id="Fill_27" data-name="Fill 27" d="M15.294,30.256c.223-2.158.555-4.312.563-6.486.015-3.793-1.252-7.37-2.507-10.9C12.131,9.446,10.8,5.849,11.042,2.145A12,12,0,0,1,11.376.037C10.561.013,9.744,0,8.926,0c-1.17,7.372,3.391,14.314,3.6,21.636.124,4.382-.956,8.692-.9,13.071.027,2.21.432,4.383.65,6.577a20.836,20.836,0,0,1-.255,6.1c-.745,3.811-2.373,7.364-3.7,10.989a37.843,37.843,0,0,0-1.648,5.573,40.8,40.8,0,0,0-.622,5.929,58.961,58.961,0,0,1-.514,6.364,20.68,20.68,0,0,1-1.926,5.908c-.265.538-.535,1.071-.8,1.605.015,1.086.008,2.172-.045,3.258a30.638,30.638,0,0,1-1.492,7.821,18.965,18.965,0,0,0-1.25,6.7c.141,2.6,1.067,5.077,1.481,7.639A83.471,83.471,0,0,1,4.739,98.45a79.621,79.621,0,0,0,4-12.2c.849-4.209,1.035-8.511,1.573-12.763a44.655,44.655,0,0,1,1.283-6.6c.552-1.944,1.254-3.84,1.959-5.731,1.384-3.716,2.815-7.5,3.084-11.494.294-4.364-.9-8.626-1.369-12.932a30.482,30.482,0,0,1,.021-6.472" transform="translate(30.341 64.622)" fill="#e3a780"/>
              <path id="Fill_29" data-name="Fill 29" d="M15.611,33.479c.155-2.166.491-4.317.583-6.489.2-4.768-1.4-9.133-3.029-13.531C11.581,9.177,10.08,4.6,10.893.039,10.628.024,10.362.013,10.1,0c-1.352,7.718,3.6,14.79,4.99,22.218.849,4.539-.383,8.969-.344,13.513.038,4.409,1.4,8.656,1.783,13.028.729,8.257-2.536,16.074-4.846,23.823A60.287,60.287,0,0,0,9.35,84.191c-.422,4.468-.707,8.887-2.36,13.107-1.737,4.437-3.912,8.566-5.16,13.2A89.373,89.373,0,0,0,0,119.286c.266,0,.532-.01.8-.015.385-2.323.821-4.637,1.374-6.927a68.38,68.38,0,0,1,4.41-12.1A36.894,36.894,0,0,0,9.737,88.624a85.1,85.1,0,0,1,1.888-12.938c1.992-7.63,5.355-15.022,5.759-23,.209-4.13-.725-8.089-1.384-12.135a30.3,30.3,0,0,1-.388-7.075" transform="translate(33.208 64.729)" fill="#38539a"/>
              <path id="Fill_31" data-name="Fill 31" d="M15.133,50.657c-.474-3.586-1.034-7.165-1.288-10.776a59.6,59.6,0,0,1,.681-12.094c.606-4.648-.4-8.885-1.472-13.382L11.807,9.171C10.312,6.082,8.685,3.045,7.111,0a42.9,42.9,0,0,0,2.1,9.877c1.354,3.949,3.155,7.473,2.788,11.78-.173,2.025-.611,4.017-.817,6.038a41.689,41.689,0,0,0-.1,6.477c.227,4.182.9,8.321,1.295,12.487a47.45,47.45,0,0,1-.3,12.744c-.665,3.827-1.749,7.562-2.675,11.33A58.812,58.812,0,0,0,7.626,82.345,40.445,40.445,0,0,1,5.448,94.674C2.917,101.72-1.177,109.2.321,116.825q1.9-.126,3.8-.309c1.483-6.189,4.7-11.85,6.451-17.978a43.052,43.052,0,0,0,1.307-11.619A52.051,52.051,0,0,1,12.8,76.788c.408-2.787,1.1-5.54,1.7-8.3A46.93,46.93,0,0,0,15.541,55.14c-.1-1.5-.248-2.99-.408-4.482" transform="translate(39.636 66.866)" fill="#3a3a3a"/>
              <path id="Fill_33" data-name="Fill 33" d="M1.867.067A18.261,18.261,0,0,0,.062,9.613c.014.168.277.17.262,0A18,18,0,0,1,2.094.2c.074-.152-.152-.286-.227-.133" transform="translate(16.303 45.825)" fill="#1f2033"/>
              <path id="Fill_35" data-name="Fill 35" d="M.255.1C.232-.072-.021,0,0,.166A58.338,58.338,0,0,1,.51,6.115c.006.17.268.17.263,0A59.041,59.041,0,0,0,.255.1" transform="translate(49.441 47.674)" fill="#1f2033"/>
              <path id="Fill_39" data-name="Fill 39" d="M29.4,2.843A10.822,10.822,0,0,0,28.765,1.4,4.165,4.165,0,0,0,27.977.2,1.334,1.334,0,0,0,26.965.015C26.278.046,25.59.086,24.9.126q-4.125.238-8.24.606Q8.542,1.456.478,2.678a.108.108,0,0,0-.09.146.143.143,0,0,0-.2.113Q.01,4.677,0,6.424a.134.134,0,0,0,.131.132,32.648,32.648,0,0,0,7.256-1q3.779-.721,7.6-1.228,3.7-.49,7.43-.775,1.927-.148,3.857-.24a8.333,8.333,0,0,0,3.071-.326.133.133,0,0,0,.06-.149" transform="translate(18.977 66.849)" fill="#38539a"/>
              <path id="Fill_41" data-name="Fill 41" d="M9.824,0A17.2,17.2,0,0,0,7.7,2.078C6.63,3.352,6.078,4.917,5.11,6.252,3.482,8.5.883,10.033.007,12.791a.132.132,0,0,0,.24.1,10.729,10.729,0,0,1,1.436-1.965A5.5,5.5,0,0,1,3.972,9.7c1.377-.49,1.834-1.616,2.6-2.756A6.548,6.548,0,0,1,7.734,5.707a13.985,13.985,0,0,1,.807-2.979C8.915,1.793,9.36.892,9.824,0" transform="translate(16.71 147.183)" fill="#1f2033"/>
              <path id="Fill_45" data-name="Fill 45" d="M7.618.065A9.866,9.866,0,0,1,5.361,2.816c-.8.669-1.642,1.257-2.372,2A13,13,0,0,0,.008,9.7c-.055.161.2.23.253.07A12.67,12.67,0,0,1,3.628,4.566C4.4,3.851,5.3,3.281,6.053,2.548A10.125,10.125,0,0,0,7.845.2C7.928.05,7.7-.084,7.618.065" transform="translate(4.602 165.395)" fill="#1f2033"/>
              <path id="Fill_47" data-name="Fill 47" d="M4.641.058Q2.28,3.387.022,6.789c-.094.142.133.274.227.133Q2.506,3.52,4.868.191c.1-.138-.129-.271-.227-.133" transform="translate(47.072 141.3)" fill="#1f2033"/>
              <path id="Combined_Shape" data-name="Combined Shape" d="M26.887,29.839a.661.661,0,0,1,0,1.32A.661.661,0,0,1,26.887,29.839Zm-9.779-.924a.661.661,0,0,1,0,1.32A.661.661,0,0,1,17.108,28.915ZM7.46,27.529a.661.661,0,0,1,0,1.32A.661.661,0,0,1,7.46,27.529Zm25.4-1.717a.661.661,0,0,1,0,1.32A.661.661,0,0,1,32.859,25.812ZM22.883,24.69a.661.661,0,0,1,0,1.32A.661.661,0,0,1,22.883,24.69Zm-9.976-1.717a.661.661,0,0,1,0,1.32A.661.661,0,0,1,12.907,22.974Zm23.3-2.046a.661.661,0,0,1,0,1.32A.661.661,0,0,1,36.207,20.927ZM4.835,20.069a.661.661,0,0,1,0,1.32A.661.661,0,0,1,4.835,20.069Zm23.1-.462a.661.661,0,0,1,0,1.32A.661.661,0,0,1,27.937,19.607Zm-9.714-1.122a.66.66,0,0,1,0,1.32A.66.66,0,0,1,18.224,18.485Zm-8.4-1.32a.66.66,0,0,1,0,1.32A.66.66,0,0,1,9.822,17.165Zm31.635-.991a.661.661,0,0,1,0,1.32A.661.661,0,0,1,41.457,16.174Zm-40.3-.4a.661.661,0,0,1,0,1.321A.661.661,0,0,1,1.159,15.778Zm31.5-.726a.661.661,0,0,1,0,1.32A.661.661,0,0,1,32.662,15.052Zm-8.4-1.188a.661.661,0,0,1,0,1.32A.661.661,0,0,1,24.262,13.863Zm-8.6-1.584a.661.661,0,0,1,0,1.32A.661.661,0,0,1,15.664,12.279ZM7.526,10.628a.661.661,0,0,1,0,1.32A.661.661,0,0,1,7.526,10.628ZM38.241,10.5a.661.661,0,0,1,0,1.32A.661.661,0,0,1,38.241,10.5ZM28.462,8.384a.661.661,0,0,1,0,1.32A.661.661,0,0,1,28.462,8.384Zm-27.828,0a.661.661,0,0,1,0,1.32A.661.661,0,0,1,.634,8.384Zm12.6-2.31a.661.661,0,0,1,0,1.32A.661.661,0,0,1,13.235,6.074ZM34.106,4.423a.661.661,0,0,1,0,1.32A.661.661,0,0,1,34.106,4.423Zm6.3-.594a.661.661,0,0,1,0,1.32A.661.661,0,0,1,40.407,3.829ZM5.753,2.971a.661.661,0,0,1,0,1.32A.661.661,0,0,1,5.753,2.971ZM9.954,0a.661.661,0,0,1,0,1.32A.661.661,0,0,1,9.954,0Z" transform="translate(11.449 32.223)" fill="#3a3a3a"/>
              <path id="Fill_99" data-name="Fill 99" d="M3.088.517A9.557,9.557,0,0,0,.127,0a.132.132,0,0,0,0,.264A9.32,9.32,0,0,1,3.019.771c.16.055.229-.2.07-.255" transform="translate(19.996 64.207)" fill="#1f2033"/>
              <path id="Fill_101" data-name="Fill 101" d="M9.551.683c-.08-.046.792-.747.273-.649A6.374,6.374,0,0,0,5.048,1.8C3.7,3.134,4.066,5.2,3.438,6.858,2.7,8.788,1.154,10.268.4,12.189A5.184,5.184,0,0,0,.039,14.78c.072.554.222,1.092.317,1.642a6.6,6.6,0,0,1,0,2.107A11.359,11.359,0,0,0,.115,21.68c.06.456.14,1.5.652,1.7.267.1.494-.09.709-.231a3.528,3.528,0,0,1,1.656-.583c1.109-.1,2.211.174,3.321.128a6.873,6.873,0,0,0,2.69-.673c.829-.4.993-.966,1.118-1.852.309-2.175-.2-4.347-.424-6.5A31.05,31.05,0,0,1,10.5,5.846c.257-1.758.849-4.138-.946-5.163" transform="translate(20.406 1.69)" fill="#ab614f"/>
              <path id="Fill_103" data-name="Fill 103" d="M8.382.275c-.068-.941-.2.842-1.436.766a10.245,10.245,0,0,0-2.726.7l-3.1.814L1.134,2c.008-.509-.984-.855-.992-.344C.114,3.328-.014,8.61,0,12.534.008,14.341.1,15.845.15,16.6c.1,1.581,1.616,1.184,2.771,1.153.951-.026,1.9-.1,2.846-.212.621-.074,1.668-.015,2.132-.574.445-.536.3-1.543.317-2.178.04-1.207.34-12.109.165-14.515" transform="translate(29.769 14.614)" fill="#fea689"/>
              <path id="Fill_105" data-name="Fill 105" d="M3.761,5.537a10.311,10.311,0,0,0,.1-1.51A3.617,3.617,0,0,0,3.614,3.1,26.289,26.289,0,0,0,2.121.351c.044-.052.088-.1.128-.16.1-.138-.129-.27-.227-.133C1.345,1-1,2.16.486,3.508A1.744,1.744,0,0,1,1.118,4.94,2.362,2.362,0,0,0,1.166,6c.131.271.356.327.592.47a1.591,1.591,0,0,1,.7,1c.061-.027.123-.053.182-.082.829-.4.992-.966,1.118-1.852" transform="translate(26.919 16.323)" fill="#1f2033"/>
              <path id="Fill_107" data-name="Fill 107" d="M8.353,3.386c.019-.982.062-2.073.074-3.038a8.084,8.084,0,0,0-1.464.872C4.867,2.411,2.43.209,0,0,0,.368,0,3.1,0,3.477,1.645,4.369,3.276,5.454,5.234,4.9A17.518,17.518,0,0,0,8.161,3.484c.053-.027.13-.069.192-.1" transform="translate(29.782 20.208)" fill="#f2815c"/>
              <path id="Fill_109" data-name="Fill 109" d="M12.45,1.041A9.654,9.654,0,0,0,5.761.257,8.33,8.33,0,0,0,1.067,2.529C1,2.135.323,2.072.274,2.522c-.466,4.286-.5,9.107,1.237,13.123.693,1.6,3.808,3.283,5.289,4.34,1.42,1.014,2.348.731,3.652-.247,2.407-1.8,3.57-4.459,4.353-7.983.7-3.168.918-8.858-2.355-10.714" transform="translate(26.965 3.507)" fill="#fea689"/>
              <path id="Fill_4-2" data-name="Fill 4" d="M1.972.231a2.519,2.519,0,0,0-.589.018,2.081,2.081,0,0,0-.549.16A1.52,1.52,0,0,0,.352.743,1.706,1.706,0,0,0,0,1.321,1.294,1.294,0,0,1,.219.569,1.275,1.275,0,0,1,.753.115,1.292,1.292,0,0,1,1.379.006a1.066,1.066,0,0,1,.593.225" transform="translate(30.352 10.376) rotate(16)" fill="#2c2c2c"/>
              <path id="Fill_4-3" data-name="Fill 4" d="M0,.228A2.517,2.517,0,0,1,.588.246a2.082,2.082,0,0,1,.549.161,1.522,1.522,0,0,1,.482.334,1.71,1.71,0,0,1,.35.579A1.3,1.3,0,0,0,1.753.567,1.276,1.276,0,0,0,1.218.113,1.292,1.292,0,0,0,.593,0,1.064,1.064,0,0,0,0,.228" transform="matrix(0.985, -0.174, 0.174, 0.985, 37.918, 10.755)" fill="#2c2c2c"/>
              <path id="Fill_111" data-name="Fill 111" d="M2.525.685C2.222-.357,1.11-.045.68.534c-.764.569-.7,2.343-.661,3.2.016.395-.008.885.4,1.025.423.145.927-.233,1.208-.523a3.982,3.982,0,0,0,.9-3.551" transform="translate(40.352 13.014)" fill="#fea689"/>
              <path id="Fill_113" data-name="Fill 113" d="M1.025,4.533c.3.323.849.75,1.328.612.461-.133.454-.66.488-1.083C2.916,3.143,3,1.28,2.165.638,1.708,0,.549-.421.168.685a4.154,4.154,0,0,0,.857,3.848" transform="translate(25.774 12.748)" fill="#f88c76"/>
              <path id="Fill_115" data-name="Fill 115" d="M1.053.98c0,.543-.229.985-.52.987S0,1.531,0,.987.229,0,.52,0s.529.436.533.98" transform="translate(31.283 12.8)" fill="#1f2033"/>
              <path id="Fill_117" data-name="Fill 117" d="M1.053.994c-.01.543-.254.979-.545.973S-.01,1.517,0,.973.254-.005.545,0s.518.45.508.994" transform="translate(38.309 12.67)" fill="#1f2033"/>
              <path id="Fill_119" data-name="Fill 119" d="M1.286.462C1.171.027.885-.191.524.214a.79.79,0,0,0-.178.65,1.4,1.4,0,0,1-.31,1.207c-.113.125.068.316.182.19a1.573,1.573,0,0,0,.417-.854,1.71,1.71,0,0,0,0-.429A.774.774,0,0,1,.661.469C.827.189.972.3,1.032.527A.131.131,0,0,0,1.286.462" transform="translate(41.171 13.982)" fill="#f2815c"/>
              <path id="Fill_121" data-name="Fill 121" d="M1.154,1.974A.726.726,0,0,1,.8,1.5c-.04-.2.087-.38.11-.568A1.033,1.033,0,0,0,.789.3C.589-.053.2-.135.014.277-.057.43.166.568.238.414q.31-.137.36.1a.38.38,0,0,1,.05.19,1,1,0,0,1-.062.426.807.807,0,0,0-.036.427.978.978,0,0,0,.468.638c.15.078.287-.147.137-.225" transform="translate(26.26 13.668)" fill="#c76959"/>
              <path id="Fill_123" data-name="Fill 123" d="M1.968.033C1.84-.076,1.654.11,1.783.22A2.784,2.784,0,0,1,2.64,3.03a1.412,1.412,0,0,1-2.422.729c-.106-.132-.292.056-.186.187a1.6,1.6,0,0,0,2.6-.279A2.946,2.946,0,0,0,1.968.033" transform="translate(26.163 16.551)" fill="#f6ddc7"/>
              <path id="Fill_125" data-name="Fill 125" d="M.61,3.312a3.889,3.889,0,0,1-.487-.031A.145.145,0,0,1,0,3.125a.106.106,0,0,1,.107-.108H.126a3.9,3.9,0,0,0,.487.031H.65a.123.123,0,0,1,.126.129.128.128,0,0,1-.128.135ZM1.355,3.3a.108.108,0,0,1-.11-.112.141.141,0,0,1,.126-.153l.043,0c.438-.042.755-.072.931-.554a1.478,1.478,0,0,0-.085-.819c-.012-.043-.024-.084-.034-.122-.047-.174-.1-.348-.154-.517A8.188,8.188,0,0,1,1.838.164.13.13,0,0,1,1.865.054.151.151,0,0,1,1.979,0a.11.11,0,0,1,.113.1,7.28,7.28,0,0,0,.232.821,3.429,3.429,0,0,1,.253,1.777c-.116.524-.55.555-1.01.588-.066,0-.133.01-.2.016Z" transform="translate(34.367 14.276)" fill="#f2815c"/>
              <path id="Fill_131" data-name="Fill 131" d="M4.732.056C2.866.684,1.464.747.127.012.012-.052-.04.16.035.237A3.122,3.122,0,0,0,2.353,1.9c1.14.069,1.892-.77,2.553-1.681.065-.089.008-.22-.174-.159" transform="translate(32.743 18.494)" fill="#fff"/>
              <path id="Fill_133" data-name="Fill 133" d="M14.38,1.257C14.2.7,13.321.6,12.839.467A13.441,13.441,0,0,0,10.513.059a17.407,17.407,0,0,0-5.276.39c-1.337.3-2.721.791-3.313,2.14A13.823,13.823,0,0,0,1.2,5.071C1.006,5.916.921,7,.066,7.44c-.15.078-.017.306.132.228,1.059-.551,1.113-1.98,1.368-3.008a7.53,7.53,0,0,1,.86-2.45,3.646,3.646,0,0,1,2-1.281A16.225,16.225,0,0,1,8.994.266,14.675,14.675,0,0,1,11.518.45c.383.062.763.144,1.138.242.338.088,1.356.283,1.47.635.052.161.306.092.253-.07" transform="translate(26.686 5.092)" fill="#414f39"/>
              <path id="Fill_135" data-name="Fill 135" d="M8.938,6.075C8.874,4.331,8.529,2.482,7.1,1.332A7.706,7.706,0,0,0,1.939.016a2.146,2.146,0,0,0-1.719.994C-.2,1.645.1,2.605.18,3.3a.138.138,0,0,0,.111.12.117.117,0,0,0,.121.1c2.24-.022,4.92-.265,6.353,1.821A6.724,6.724,0,0,1,7.79,8.516c.078.792-.116,1.83.364,2.515a.133.133,0,0,0,.206.027,2.545,2.545,0,0,0,.621-1.819c.03-1.049,0-2.115-.043-3.164" transform="translate(33.952 1.891)" fill="#ab614f"/>
              <path id="Fill_137" data-name="Fill 137" d="M19.688,9.868a18.422,18.422,0,0,0-.118-2.032c-.126-1.153-.324-2.3-.542-3.439a2.409,2.409,0,0,0-1.368-1.931,6.633,6.633,0,0,0-5.125.018.1.1,0,0,0-.138-.05c-.034.014-.068.027-.1.039l-.054-.016c-.3-.192-.629-.341-.927-.54L11.291,1.9A2.252,2.252,0,0,0,10.957.567c-.484-.688-1.5-.6-2.235-.5C6.585.345,5.206,1.752,3.856,3.313A13.631,13.631,0,0,0,1.941,5.994,16.716,16.716,0,0,0,.866,9.11a14.816,14.816,0,0,0-.748,6.395,6.587,6.587,0,0,0,1.173,2.872,10.175,10.175,0,0,0,2.787,2.306.131.131,0,0,0,.159-.021c1.024-1.131.682-2.626.811-4.016a8.282,8.282,0,0,1,.884-2.474,6.51,6.51,0,0,0,.441-2.426,10.753,10.753,0,0,1,1.08-5.3,6.019,6.019,0,0,1,3.868-2.954.074.074,0,0,0,.014-.006l.07,0c.335,1.861,3.136,1.669,4.063,3.076.533.811.411,1.922,1.005,2.67a2.789,2.789,0,0,0,.852.642,3.945,3.945,0,0,1,1.22.947c.295.355.723.514.993.031a2.007,2.007,0,0,0,.149-.982" transform="translate(23.183 1.91)" fill="#ab614f"/>
              <path id="Fill_139" data-name="Fill 139" d="M1.968.033C1.84-.076,1.653.11,1.783.22a2.784,2.784,0,0,1,.857,2.81,1.412,1.412,0,0,1-2.422.729c-.106-.132-.291.056-.186.187a1.6,1.6,0,0,0,2.6-.279A2.947,2.947,0,0,0,1.968.033" transform="translate(39.595 16.727)" fill="#f6ddc7"/>
              <path id="Fill_141" data-name="Fill 141" d="M7.958,3.464A4.791,4.791,0,0,0,5.237,1.22,9.01,9.01,0,0,0,1.21.5C1.239.387,1.265.275,1.3.164a.131.131,0,0,0-.253-.07A29.233,29.233,0,0,0,.005,8.326q.019.986.106,1.969a7.527,7.527,0,0,0,.25,1.766c.282.792,1.111.547,1.632.164A5.615,5.615,0,0,1,3.58,11.3c.566-.188,1.166-.243,1.731-.434C6.39,10.5,6.7,9.667,7.379,8.853c.336-.4.864-.561,1.181-.97a1.781,1.781,0,0,0,.312-1.129,9.429,9.429,0,0,0-.915-3.29" transform="translate(31.339 74.401)" fill="#1f2033"/>
              <path id="Fill_143" data-name="Fill 143" d="M8.8,11.033A16.176,16.176,0,0,0,8.012,7.42c-.376-1.237-.752-2.475-1.2-3.689A9.461,9.461,0,0,0,5.3.612,1.813,1.813,0,0,0,3.145.168a.135.135,0,0,0-.2-.03C.376,2.4.439,6.579.23,9.722Q.122,11.348.07,12.977A11.244,11.244,0,0,0,.1,15.7c.289,1.3,1.87,1.353,2.816.655.667-.492.427-1.4.447-2.121a12.136,12.136,0,0,1,.564-3.284c.04.627.1,1.253.2,1.874.137.829.335,1.664,1.341,1.591a5.051,5.051,0,0,0,2.442-.926A2.633,2.633,0,0,0,8.8,11.033" transform="translate(31.343 68.129)" fill="#38539a"/>
              <path id="Fill_145" data-name="Fill 145" d="M.263.127C.254-.042-.008-.043,0,.127Q.214,4.316.183,8.512a.131.131,0,0,0,.263,0Q.477,4.317.263.127" transform="translate(34.737 67.579)" fill="#1f2033"/>
              <path id="Fill_147" data-name="Fill 147" d="M1.532,5.157C1.2,3.455.687,1.774.258.094A.131.131,0,0,0,0,.164q.5,1.96,1,3.92A11.625,11.625,0,0,1,1.39,5.991c.045.549.164,1.685-.4,2.014a.132.132,0,0,0,.132.228C2,7.72,1.692,5.97,1.532,5.157" transform="translate(35.352 73.133)" fill="#1f2033"/>
              <path id="Fill_149" data-name="Fill 149" d="M.418.094Q.181.979,0,1.879c-.033.166.22.237.253.07Q.435,1.05.671.164A.131.131,0,0,0,.418.094" transform="translate(32.233 68.433)" fill="#1f2033"/>
              <path id="Fill_151" data-name="Fill 151" d="M1.133,4.692C.811,3.148.937,1.518.241.068.168-.085-.059.048.014.2.7,1.623.564,3.246.88,4.762,1.2,6.313,2.066,7.725,2.238,9.3c.018.167.281.169.263,0C2.325,7.7,1.462,6.269,1.133,4.692" transform="translate(37.574 70.582)" fill="#1f2033"/>
              <path id="Fill_153" data-name="Fill 153" d="M3.3.157c-.354-.373-.814,0-1.038.311-.3.427-.394.906-.885,1.2a3.084,3.084,0,0,0-.786.628A2.269,2.269,0,0,0,.006,3.98,5.907,5.907,0,0,1,3.423,1.712l.014-.006.04,0C3.539,1.166,3.612.481,3.3.157" transform="translate(31.086 3.694)" fill="#1f2033"/>
              <path id="Fill_155" data-name="Fill 155" d="M1.752.562A1.781,1.781,0,0,0,.095.035C-.071.067,0,.322.164.29a1.509,1.509,0,0,1,1.4.459c.117.124.3-.063.186-.187" transform="translate(34.092 2.436)" fill="#1f2033"/>
              <path id="Fill_157" data-name="Fill 157" d="M1.411,9.7h0l-.068-.025h0c-.059-.021-.119-.043-.18-.062a4.211,4.211,0,0,0,.268-1.735,6.6,6.6,0,0,0-.272-1.348A6.95,6.95,0,0,1,.887,5.249a3.042,3.042,0,0,1,.388-1.6,6.611,6.611,0,0,0,.315-.781A2.583,2.583,0,0,0,.842.223.115.115,0,0,1,.81.092.147.147,0,0,1,.941,0a.128.128,0,0,1,.087.036,2.853,2.853,0,0,1,.937,2.047,3.47,3.47,0,0,1-.416,1.5,3.515,3.515,0,0,0-.413,1.45,6.118,6.118,0,0,0,.279,1.561,5.706,5.706,0,0,1,.278,1.7,4.519,4.519,0,0,1-.282,1.4ZM.277,9.4h0C.178,9.38.1,9.368.02,9.358A8.138,8.138,0,0,0,0,6.563a.109.109,0,0,1,.023-.088.121.121,0,0,1,.092-.037.144.144,0,0,1,.148.125A8.43,8.43,0,0,1,.277,9.4Z" transform="translate(44.462 14.206)" fill="#1f2033"/>
              <path id="Fill_159" data-name="Fill 159" d="M1.412.039A5.418,5.418,0,0,0,0,2.549a.131.131,0,0,0,.253.07A5.143,5.143,0,0,1,1.6.226c.119-.121-.066-.308-.185-.187" transform="translate(29.098 4.419)" fill="#1f2033"/>
              <path id="Fill_161" data-name="Fill 161" d="M1.857,1.743A5.377,5.377,0,0,1,.247.062.132.132,0,0,0,.02.2a5.694,5.694,0,0,0,1.7,1.775c.141.094.272-.134.132-.228" transform="translate(41.062 9.666)" fill="#1f2033"/>
              <path id="Fill_163" data-name="Fill 163" d="M1.7,7.15h0l-.262-.024a3.736,3.736,0,0,1,.026-.673,3.385,3.385,0,0,1,.426-1.119,4.313,4.313,0,0,0,.374-.858,3.478,3.478,0,0,0-.043-1.545A5.217,5.217,0,0,1,2.1,1.884,4.065,4.065,0,0,1,2.7.065.116.116,0,0,1,2.806,0a.148.148,0,0,1,.123.072.123.123,0,0,1,0,.126,3.7,3.7,0,0,0-.478,2.574c.012.077.025.154.038.231a3.966,3.966,0,0,1,.074,1.322,3.2,3.2,0,0,1-.4.987,4.074,4.074,0,0,0-.353.769A3.124,3.124,0,0,0,1.7,7.149Zm-1.325-.1h0c-.09,0-.18,0-.267,0A5.042,5.042,0,0,1,.026,5.535,4.189,4.189,0,0,1,.465,4.246,4.324,4.324,0,0,0,.893,3.028.1.1,0,0,1,1,2.932a.157.157,0,0,1,.115.054.138.138,0,0,1,.032.112A4.129,4.129,0,0,1,.725,4.28,4.239,4.239,0,0,0,.307,5.442,4.66,4.66,0,0,0,.373,7.048Z" transform="translate(23.947 17.194)" fill="#1f2033"/>
              <path id="Fill_167" data-name="Fill 167" d="M3.473,0C2.288.2,1.025.051.044.869c-.13.109.056.295.186.187.928-.774,2.2-.617,3.313-.8.167-.027.1-.282-.07-.255" transform="translate(35.385 31.257)" fill="#f2815c"/>
              <path id="Fill_169" data-name="Fill 169" d="M3.471.98C2.476.317,1.261.379.16.008,0-.047-.069.208.091.262c1.077.363,2.275.3,3.248.946.141.094.273-.134.132-.228" transform="translate(28.927 31.175)" fill="#f2815c"/>
              <path id="Fill_171" data-name="Fill 171" d="M6.4,8.161c-.546.069-1.91-.183-1.917-.135L4.248,7.71c-.1-.138-.227-.33-.354-.525A21.063,21.063,0,0,1,3.73,4.611a2.255,2.255,0,0,0-.264-1.2c-.147-.543-.918-1.363-.891-1.875.015-.278.088-.9.165-1.537L2.417.135a3.359,3.359,0,0,1-1.783,0L.52.087C.409,1.481.259,3.561.2,3.982.14,4.466-.02,6.485,0,6.972a1.819,1.819,0,0,0,.4.9c.308.484.631.958.963,1.425.666.935,1.371,1.841,2.075,2.747a.115.115,0,0,0,.2-.029.091.091,0,0,0,.022-.006A12.222,12.222,0,0,0,6.437,8.7a1.437,1.437,0,0,0,.093-.528c-.044,0-.087,0-.132-.011" transform="translate(3.24 91.883)" fill="#fea689"/>
              <path id="Fill_173" data-name="Fill 173" d="M12.614,2.946A11.227,11.227,0,0,1,8.66,1.707C7.983,1.342,7.376.876,6.723.474A6.016,6.016,0,0,0,5.737,0C5.28,5.916,5.056,13.186,4.511,15.875c-.822,4.057-1.872,5.624-2.66,10.092C1.128,30.071.9,34.6,0,39.318c-.069.361.669,1.816.885,1.652l-.081.223c-.173.481.587.689.759.213,1.638-4.548,3.628-9.387,5.685-13.76,2.451-5.211,2.81-4.821,3.493-9.407.394-2.648,1.26-9.255,1.907-14.874-.012-.14-.023-.279-.038-.42" transform="translate(3.739 52.658)" fill="#fea689"/>
              <path id="Fill_175" data-name="Fill 175" d="M.242.066C.165-.085-.061.049.016.2A5.75,5.75,0,0,1,.629,3.341c-.014.169.249.168.262,0A6.009,6.009,0,0,0,.242.066" transform="translate(11.025 69.769)" fill="#f2815c"/>
              <path id="Fill_177" data-name="Fill 177" d="M2.287,2.044c-.068-.155-.294-.021-.227.133a1.532,1.532,0,0,1,.173.773c-.085.292-.173.122-.346.04a3.52,3.52,0,0,1-.836-.735A3.944,3.944,0,0,1,.255.1C.229-.072-.024,0,0,.166A5.274,5.274,0,0,0,.486,1.917,4.879,4.879,0,0,0,1.96,3.393c.765.54.484-.991.327-1.349" transform="translate(5.696 98.027)" fill="#c76959"/>
              <path id="Fill_179" data-name="Fill 179" d="M1.686,1.976A5.134,5.134,0,0,1,.246.064.132.132,0,0,0,.019.2,5.369,5.369,0,0,0,1.554,2.2c.143.091.275-.138.132-.228" transform="translate(5.987 100.811)" fill="#c76959"/>
              <path id="Fill_183" data-name="Fill 183" d="M13.25,3.862c-.129.213-1.561,2.929-1.561,2.929l1.183-4.608c.37-1.452-.524-1.3-.786-.782-.27.536-1.887,4.912-1.887,4.912C11.717.595,11.242.091,10.816,0S9.05,5.14,9.05,5.14A4.88,4.88,0,0,0,7.678,3.63c-1.373-.95-3.661,0-3.771.649s.707.832.707.832A2.068,2.068,0,0,1,7.917,7,1.285,1.285,0,0,1,5.4,7.244C4.83,4.666,3.948,5.5,3.948,5.5l1.083,5.381,1.375,2.427a72.779,72.779,0,0,1-2.349,11.9c-.4,1.2-4.867,9.124-3.929,11.079,0,0,.636,5.747,5.674,2.772h0c.6-.277.916-1.065,1.218-1.762a30.222,30.222,0,0,0,1.916-7.659c.429-2.921.415-4.086.74-7.02.308-2.776.531-5.549.634-7.8l2.842-7.15s.653-2.667.808-3.291c.206-.824-.369-1.084-.708-.523" transform="translate(50.888 19.372)" fill="#fea689"/>
              <path id="Fill_181" data-name="Fill 181" d="M.14,2.435a.147.147,0,0,1-.125-.073A.118.118,0,0,1,.02,2.239,4.84,4.84,0,0,1,.572,1.5,2.511,2.511,0,0,1,.115.17.116.116,0,0,1,.144.081.129.129,0,0,1,.238.044H.25A.128.128,0,0,1,.31.023C.377.017.444.014.51.014A2.7,2.7,0,0,1,1.959.461,4.769,4.769,0,0,1,3.571,0h.016a.1.1,0,0,1,.106.089.149.149,0,0,1-.083.165,2.71,2.71,0,0,1-.553,1.24,5.242,5.242,0,0,1,.387.561.121.121,0,0,1,0,.125.147.147,0,0,1-.124.072.12.12,0,0,1-.106-.063,4.918,4.918,0,0,0-.342-.5,1.589,1.589,0,0,1-1.107.442H1.748a1.409,1.409,0,0,1-1-.424,4.467,4.467,0,0,0-.5.668A.123.123,0,0,1,.14,2.435ZM1.941.77a4.443,4.443,0,0,0-1,.739,1.164,1.164,0,0,0,.83.357,1.3,1.3,0,0,0,.285-.033,1.431,1.431,0,0,0,.659-.353A4.108,4.108,0,0,0,1.941.77ZM.492.281l-.1,0A2.18,2.18,0,0,0,.763,1.306a4.668,4.668,0,0,1,.92-.7A2.43,2.43,0,0,0,.492.281ZM3.331.3A4.439,4.439,0,0,0,2.209.636a4.448,4.448,0,0,1,.684.646A2.43,2.43,0,0,0,3.331.3Z" transform="translate(3.072 91.63)" fill="#f6ddc7"/>
            </g>
          </g>
        </g>
      </g>
    </g>
  </g>
</svg>
