<svg xmlns="http://www.w3.org/2000/svg" width="48" height="48" viewBox="0 0 48 48">
  <g id="Group_42" data-name="Group 42" transform="translate(-25.5 -884)">
    <circle id="Oval" cx="24" cy="24" r="24" transform="translate(25.5 884)" fill="#f1f2ff"/>
    <path id="Combined_Shape" data-name="Combined Shape" d="M21.744,20.819H14.225a3.557,3.557,0,0,1-7.075,0H5.064l-.047,0a.319.319,0,0,1-.042-.006H4.97l-.042-.01-.039-.014-.009,0a.156.156,0,0,1-.024-.013.448.448,0,0,1-.109-.076l-.007-.007-.009-.008a.508.508,0,0,1-.113-.191.013.013,0,0,1,0-.005.116.116,0,0,1,0-.019l0-.005L4.6,20.435a.034.034,0,0,0,0-.011c0-.012,0-.024,0-.038a.044.044,0,0,1,0-.011c0-.013,0-.024,0-.037v-.014s0-.009,0-.014a.146.146,0,0,0,0-.02l.484-5.132.313-3.318H3.812a.481.481,0,0,1,0-.962H5.486l.575-6.091H.469a.481.481,0,0,1,0-.962H6.152L6.472.435V.427a.018.018,0,0,1,0-.006l0-.012a.226.226,0,0,1,0-.024A.476.476,0,0,1,6.937,0h5.626a.476.476,0,0,1,.469.481.476.476,0,0,1-.469.482h-5.2L7.093,3.826h4.846a.481.481,0,0,1,0,.962H7l-.575,6.091h3.01a.481.481,0,0,1,0,.962h-3.1l-.272,2.885H22.352l.237-2.772L23.521.962H14.439A.476.476,0,0,1,13.97.481.476.476,0,0,1,14.439,0h9.634l.014,0,.013,0,.024,0,.015,0,.031.008.007,0,.037.014A.486.486,0,0,1,24.5.481V.5a.153.153,0,0,1,0,.021l-.607,7.151h2.014A6.181,6.181,0,0,1,32,13.925c0,.273-.026.72-.077,1.328v.005c-.146,1.733-.455,4.342-.546,5.1l0,.039,0,.011v.008a.1.1,0,0,1,0,.023l0,.012,0,.013-.005.02-.011.03,0,.007c-.008.02-.014.033-.021.047s-.016.027-.023.039l0,.005-.005.009c-.005.007-.01.014-.016.022l0,.006,0,.005-.01.011-.01.011-.013.012-.019.018-.007.006-.007.006-.01.007-.009.006a.065.065,0,0,1-.018.013l-.018.013a.093.093,0,0,0-.019.01l-.013.005-.008,0-.006,0-.013.005-.023.009-.018.006-.014,0-.014,0-.005,0-.009,0-.037.005h-.008l-.045,0H28.819a3.557,3.557,0,0,1-7.075,0Zm.906-.481a2.632,2.632,0,1,0,2.631-2.7A2.669,2.669,0,0,0,22.65,20.337Zm-14.594,0a2.632,2.632,0,1,0,2.631-2.7A2.669,2.669,0,0,0,8.057,20.337Zm20.762-.481h1.673c.049-.413.3-2.561.455-4.21a3.855,3.855,0,0,1-2.272-1.592,3.337,3.337,0,0,0-2.769-1.572H23.484l-.235,2.767,0,.014,0,.013a.2.2,0,0,0,0,.022l-.005.023-.005.023,0,.011,0,.01-.009.023-.008.019,0,.005a.112.112,0,0,1-.009.018.084.084,0,0,1-.01.017l-.013.023-.01.016-.005.007a.052.052,0,0,0-.01.013l-.011.013-.013.014-.005.006-.014.014-.017.016-.016.014-.009.007-.009.007-.006,0-.012.007-.018.012-.02.011-.01.005-.011.005-.02.008a.1.1,0,0,1-.023.01l-.007,0-.012,0-.028.006-.008,0-.006,0-.037.005h-.008l-.048,0H5.972l-.393,4.169H7.151a3.557,3.557,0,0,1,7.075,0h7.519a3.557,3.557,0,0,1,7.075,0Zm-2.4-8.308a4.4,4.4,0,0,1,2.96,1.873,3.093,3.093,0,0,0,1.645,1.261c.023-.326.035-.58.035-.758A5.365,5.365,0,0,0,29.8,10.455a5.124,5.124,0,0,0-3.131-1.763Zm-2.857-.029h1.917l.246-2.885H23.81Zm.176,8.828a1.549,1.549,0,1,1,1.549,1.564A1.56,1.56,0,0,1,23.742,20.348Zm.845,0a.7.7,0,1,0,.7-.712A.709.709,0,0,0,24.587,20.348Zm-15.487,0a1.549,1.549,0,1,1,1.549,1.565A1.559,1.559,0,0,1,9.1,20.347Zm.845,0a.7.7,0,1,0,.7-.711A.709.709,0,0,0,9.945,20.347Zm-7.431-12a.527.527,0,0,1,0-1.043h2.2a.527.527,0,0,1,0,1.043Z" transform="translate(33 895)" fill="#38539a" stroke="#38539a" stroke-width="0.3"/>
  </g>
</svg>
