<svg xmlns="http://www.w3.org/2000/svg" width="48" height="48" viewBox="0 0 48 48">
  <g id="Group_42" data-name="Group 42" transform="translate(-25.5 -884)">
    <path id="Oval" d="M24,0A24,24,0,1,1,0,24,24,24,0,0,1,24,0Z" transform="translate(25.5 884)" fill="#fff9f9"/>
    <path id="Combined_Shape" data-name="Combined Shape" d="M21.744,20.819H14.226a3.557,3.557,0,0,1-7.075,0H5.064l-.046,0a.312.312,0,0,1-.043-.007H4.969l-.042-.01a.362.362,0,0,1-.039-.014l-.008,0a.154.154,0,0,1-.025-.012.476.476,0,0,1-.109-.076l-.007-.007-.008-.008a.486.486,0,0,1-.113-.191.013.013,0,0,1,0-.006.111.111,0,0,1,0-.019l0-.006L4.6,20.435a.034.034,0,0,0,0-.01c0-.012,0-.024,0-.038a.046.046,0,0,1,0-.011c0-.012,0-.024,0-.037v-.014a.072.072,0,0,0,0-.014.14.14,0,0,0,0-.02l.485-5.132.313-3.318H3.813a.481.481,0,0,1,0-.962H5.485L6.06,4.788H.469a.481.481,0,0,1,0-.962H6.151L6.472.435V.426s0,0,0-.006l0-.012a.221.221,0,0,1,0-.024A.477.477,0,0,1,6.937,0h5.626a.475.475,0,0,1,.468.481.475.475,0,0,1-.468.481h-5.2l-.27,2.864h4.845a.481.481,0,0,1,0,.962H7L6.427,10.88h3.01a.481.481,0,0,1,0,.962h-3.1l-.272,2.885H22.352l.236-2.772L23.521.962H14.438A.475.475,0,0,1,13.97.481.475.475,0,0,1,14.438,0h9.634a.045.045,0,0,1,.014,0l.013,0,.024,0,.015,0,.031.008.007,0,.037.014A.485.485,0,0,1,24.5.481V.5a.147.147,0,0,1,0,.021l-.607,7.151h2.014A6.181,6.181,0,0,1,32,13.925c0,.272-.026.719-.077,1.328v.006c-.146,1.733-.455,4.342-.546,5.1l0,.039s0,.008,0,.01l0,.008a.189.189,0,0,1,0,.023l0,.012,0,.012-.006.02c0,.011-.007.021-.011.03l0,.008-.021.046c-.008.015-.016.027-.023.039l0,.007-.007.008-.016.022,0,.006,0,.006-.009.01-.01.011-.013.012-.019.018-.007.007-.007.006-.009.008-.009.007-.018.012-.019.012-.019.01-.012.006-.008,0-.007,0a.039.039,0,0,1-.013.006l-.023.009-.018.006-.014,0-.014,0-.007,0-.008,0-.036.006h-.008l-.046,0H28.819a3.557,3.557,0,0,1-7.075,0Zm.906-.482a2.632,2.632,0,1,0,2.631-2.7A2.669,2.669,0,0,0,22.65,20.337Zm-14.593,0a2.632,2.632,0,1,0,2.631-2.7A2.669,2.669,0,0,0,8.057,20.337Zm20.762-.481h1.673c.048-.413.3-2.561.455-4.21a3.852,3.852,0,0,1-2.272-1.593,3.34,3.34,0,0,0-2.769-1.572H23.483l-.235,2.768v.015l0,.012a.19.19,0,0,0,0,.023l-.006.023-.006.023,0,.01,0,.01-.008.023-.008.019,0,.006a.063.063,0,0,1-.008.018.152.152,0,0,1-.009.017c0,.008-.008.015-.013.023l-.01.016-.006.008-.009.013-.011.012a.075.075,0,0,1-.012.015l-.006.007-.015.014-.017.016-.016.014-.009.008-.009.007-.007,0-.011.008-.019.011-.02.011-.01,0-.01.006-.02.008-.023.009-.007,0-.012,0-.028.007-.008,0-.007,0-.036.006h-.008l-.047,0H5.973l-.394,4.169H7.151a3.557,3.557,0,0,1,7.075,0h7.519a3.557,3.557,0,0,1,7.075,0Zm-2.4-8.307a4.4,4.4,0,0,1,2.96,1.873,3.1,3.1,0,0,0,1.645,1.261c.023-.326.035-.581.035-.758a5.363,5.363,0,0,0-1.267-3.47,5.128,5.128,0,0,0-3.131-1.763Zm-2.857-.029h1.918l.245-2.885H23.81Zm.177,8.828a1.548,1.548,0,1,1,1.549,1.565A1.559,1.559,0,0,1,23.743,20.348Zm.845,0a.7.7,0,1,0,.7-.712A.709.709,0,0,0,24.587,20.348Zm-15.3,0a1.548,1.548,0,1,1,1.549,1.565A1.559,1.559,0,0,1,9.29,20.348Zm.845,0a.7.7,0,1,0,.7-.712A.709.709,0,0,0,10.135,20.348Zm-7.621-12a.527.527,0,0,1,0-1.043h2.2a.527.527,0,0,1,0,1.043Z" transform="translate(33.5 895)" fill="#2c2c2c"/>
  </g>
</svg>
