<svg xmlns="http://www.w3.org/2000/svg" width="48" height="48" viewBox="0 0 48 48">
  <g id="Group_37" data-name="Group 37" transform="translate(-25.5 -884)">
    <circle id="Oval" cx="24" cy="24" r="24" transform="translate(25.5 884)" fill="#f1f2ff"/>
    <g id="Group_41" data-name="Group 41" transform="translate(38.5 894)">
      <path id="Path_28" data-name="Path 28" d="M25.259,24.236l-3.135-4.995a11.063,11.063,0,1,0-15.856.134L3.2,24.283a.6.6,0,0,0-.106.684.913.913,0,0,0,.752.574h0l1.36.123a3.033,3.033,0,0,1,2.164,1.4l.615,1.107a.92.92,0,0,0,.8.508.666.666,0,0,0,.6-.34l3.7-5.723c.346.033.7.054,1.052.054s.706-.021,1.054-.054l3.755,5.8a.8.8,0,0,0,.563.214.918.918,0,0,0,.155-.013.822.822,0,0,0,.612-.424l.633-1.142a2.843,2.843,0,0,1,2.266-1.506l1.335-.123a.914.914,0,0,0,.794-.574A.568.568,0,0,0,25.259,24.236ZM8.743,27.7,8.15,26.626A3.9,3.9,0,0,0,5.3,24.778l-1.287-.143,2.918-4.647a11.011,11.011,0,0,0,5.178,2.486ZM3.958,11.6A10.177,10.177,0,1,1,14.135,21.777,10.189,10.189,0,0,1,3.958,11.6ZM23.084,24.655a3.729,3.729,0,0,0-2.967,1.976l-.592,1.055-3.366-5.212a11.023,11.023,0,0,0,5.307-2.6l2.939,4.665Z" transform="translate(-3.033 -0.534)" fill="#38539a" stroke="#38539a" stroke-width="0.3"/>
      <g id="Group_39" data-name="Group 39" transform="translate(3.283 3.248)">
        <path id="Path_29" data-name="Path 29" d="M13.06,18.356a7.819,7.819,0,1,1,7.819-7.818A7.826,7.826,0,0,1,13.06,18.356Zm0-14.745a6.927,6.927,0,1,0,6.927,6.927A6.935,6.935,0,0,0,13.06,3.611Z" transform="translate(-5.242 -2.719)" fill="#38539a" stroke="#38539a" stroke-width="0.3"/>
      </g>
      <g id="Group_40" data-name="Group 40" transform="translate(7.909 8.997)">
        <path id="Path_30" data-name="Path 30" d="M10.3,11.475a.444.444,0,0,1-.315-.129l-1.5-1.5a.446.446,0,1,1,.63-.63L10.3,10.4l3.684-3.682a.445.445,0,0,1,.629.63l-4,4A.449.449,0,0,1,10.3,11.475Z" transform="translate(-8.353 -6.586)" fill="#38539a" stroke="#38539a" stroke-width="0.3"/>
      </g>
    </g>
  </g>
</svg>
