<svg xmlns="http://www.w3.org/2000/svg" width="32" height="32" viewBox="0 0 32 32">
  <g id="Group_6452" data-name="Group 6452" transform="translate(-1184 -8)">
    <rect id="Rectangle_3517" data-name="Rectangle 3517" width="32" height="32" transform="translate(1184 8)" fill="none"/>
    <g id="shop" transform="translate(1190 14)">
      <path id="Path_16668" data-name="Path 16668" d="M19.219,0H.781A.781.781,0,0,0,0,.781V19.219A.781.781,0,0,0,.781,20H19.219A.781.781,0,0,0,20,19.219V.781A.781.781,0,0,0,19.219,0ZM13.008,18.438H6.992V12.422h6.016Zm5.43,0H14.57v-6.8a.781.781,0,0,0-.781-.781H6.211a.781.781,0,0,0-.781.781v6.8H1.563V8.151a3.079,3.079,0,0,0,3.828-.632,3.082,3.082,0,0,0,4.609,0,3.082,3.082,0,0,0,4.609,0,3.079,3.079,0,0,0,3.828.632Zm0-12.969a1.523,1.523,0,0,1-3.047,0,.781.781,0,0,0-1.562,0,1.523,1.523,0,0,1-3.047,0,.781.781,0,0,0-1.562,0,1.523,1.523,0,0,1-3.047,0,.781.781,0,0,0-1.562,0,1.523,1.523,0,0,1-3.047,0V1.563H18.438Z" fill="#2c2c2c"/>
    </g>
  </g>
</svg>
