<svg xmlns="http://www.w3.org/2000/svg" width="32" height="32" viewBox="0 0 32 32">
  <g id="Group_6037" data-name="Group 6037" transform="translate(-1193.969 -8.5)">
    <g id="Group_6016" data-name="Group 6016" transform="translate(1193.969 8)">
      <rect id="Icon_Header_User_background" data-name="Icon Header User background" width="32" height="32" transform="translate(0 0.5)" fill="none"/>
      <g id="Group_6128" data-name="Group 6128" transform="translate(-1056 -374)">
        <path id="Path_16646" data-name="Path 16646" d="M2706.933,1492.918l5.016-5.016,3.1,3.1,4.872-4.872" transform="translate(-1640 -1100)" fill="none" stroke="#2c2c2c" stroke-linecap="round" stroke-linejoin="round" stroke-width="1.6"/>
        <g id="Union_1" data-name="Union 1" transform="translate(2702 1480.5)" fill="#fff">
          <path d="M -1620.800170898438 -1080.5 L -1639.19970703125 -1080.5 C -1639.365234375 -1080.5 -1639.499877929688 -1080.634643554688 -1639.499877929688 -1080.800170898438 L -1639.499877929688 -1099.19970703125 C -1639.499877929688 -1099.365234375 -1639.365234375 -1099.499877929688 -1639.19970703125 -1099.499877929688 C -1639.034301757813 -1099.499877929688 -1638.899658203125 -1099.365234375 -1638.899658203125 -1099.19970703125 L -1638.899658203125 -1081.600219726563 L -1638.899658203125 -1081.100219726563 L -1638.399658203125 -1081.100219726563 L -1620.800170898438 -1081.100219726563 C -1620.634643554688 -1081.100219726563 -1620.5 -1080.965576171875 -1620.5 -1080.800170898438 C -1620.5 -1080.634643554688 -1620.634643554688 -1080.5 -1620.800170898438 -1080.5 Z" stroke="none"/>
          <path d="M -1620.800170898438 -1080 L -1639.19970703125 -1080 C -1639.6416015625 -1080 -1639.999877929688 -1080.358276367188 -1639.999877929688 -1080.800170898438 L -1639.999877929688 -1099.19970703125 C -1639.999877929688 -1099.6416015625 -1639.6416015625 -1099.999877929688 -1639.19970703125 -1099.999877929688 C -1638.7578125 -1099.999877929688 -1638.399658203125 -1099.6416015625 -1638.399658203125 -1099.19970703125 L -1638.399658203125 -1081.600219726563 L -1620.800170898438 -1081.600219726563 C -1620.358276367188 -1081.600219726563 -1620 -1081.242065429688 -1620 -1080.800170898438 C -1620 -1080.358276367188 -1620.358276367188 -1080 -1620.800170898438 -1080 Z" stroke="none" fill="#2c2c2c"/>
        </g>
      </g>
    </g>
  </g>
</svg>
