<svg id="Group_6016" data-name="Group 6016" xmlns="http://www.w3.org/2000/svg" width="32" height="32" viewBox="0 0 32 32">
  <rect id="Icon_Header_User_background" data-name="Icon Header User background" width="32" height="32" transform="translate(0 0)" fill="none"/>
  <g id="Group_6127" data-name="Group 6127" transform="translate(-1059 -421.5)">
    <g id="Path_16819" data-name="Path 16819" transform="translate(1065 427.5)" fill="none" stroke-linecap="round">
      <path d="M0,0H9V12H0Z" stroke="none"/>
      <path d="M 1.599999904632568 1.600000381469727 L 1.599999904632568 10.39999961853027 L 7.400000095367432 10.39999961853027 L 7.400000095367432 1.600000381469727 L 1.599999904632568 1.600000381469727 M 0 0 L 9 0 L 9 12 L 0 12 L 0 0 Z" stroke="none" fill="#2c2c2c"/>
    </g>
    <g id="Path_16818" data-name="Path 16818" transform="translate(1076 435.5)" fill="none" stroke-linecap="round">
      <path d="M0,0H9V12H0Z" stroke="none"/>
      <path d="M 1.599999904632568 1.600000381469727 L 1.599999904632568 10.39999961853027 L 7.400000095367432 10.39999961853027 L 7.400000095367432 1.600000381469727 L 1.599999904632568 1.600000381469727 M 0 0 L 9 0 L 9 12 L 0 12 L 0 0 Z" stroke="none" fill="#2c2c2c"/>
    </g>
    <g id="Path_16817" data-name="Path 16817" transform="translate(1065 441.5)" fill="none" stroke-linecap="round">
      <path d="M0,0H9V6H0Z" stroke="none"/>
      <path d="M 1.599999904632568 1.599999904632568 L 1.599999904632568 4.400000095367432 L 7.400000095367432 4.400000095367432 L 7.400000095367432 1.599999904632568 L 1.599999904632568 1.599999904632568 M 0 0 L 9 0 L 9 6 L 0 6 L 0 0 Z" stroke="none" fill="#2c2c2c"/>
    </g>
    <g id="Path_16816" data-name="Path 16816" transform="translate(1076 427.5)" fill="none" stroke-linecap="round">
      <path d="M0,0H9V6H0Z" stroke="none"/>
      <path d="M 1.599999904632568 1.599999904632568 L 1.599999904632568 4.400000095367432 L 7.400000095367432 4.400000095367432 L 7.400000095367432 1.599999904632568 L 1.599999904632568 1.599999904632568 M 0 0 L 9 0 L 9 6 L 0 6 L 0 0 Z" stroke="none" fill="#2c2c2c"/>
    </g>
  </g>
</svg>
