<svg xmlns="http://www.w3.org/2000/svg" width="100" height="100" viewBox="0 0 100 100">
  <g id="Group_7992" data-name="Group 7992" transform="translate(-1781 766)">
    <rect id="Rectangle_4144" data-name="Rectangle 4144" width="100" height="100" transform="translate(1781 -766)" fill="#fff" opacity="0"/>
    <g id="Group_7985" data-name="Group 7985" transform="translate(1792 -759.792)">
      <g id="Group_7982" data-name="Group 7982" transform="translate(30.851 39.498)">
        <path id="Path_87266" data-name="Path 87266" d="M854.633,547.678a2.26,2.26,0,0,0-1.044-.222,2.617,2.617,0,0,0-.7.093,2.506,2.506,0,0,0-.779.347h0l-.012.008a4.031,4.031,0,0,0-.729.728l-.008.012-11.272,11.276-4.592-4.561c-.019-.019-.043-.023-.062-.043l-.039-.039a2.142,2.142,0,0,0-.253-.164,2.6,2.6,0,0,0-.553-.354,2.567,2.567,0,0,0-.853-.179l-.074-.012a2.553,2.553,0,0,0-1.943.771,2.522,2.522,0,0,0-.779,1.869,2.656,2.656,0,0,0,.728,1.839l.128.128.051.031,6.356,6.356.031.031a2.474,2.474,0,0,0,1.741.728c.062,0,.094.031.125.031s.062-.031.093-.031a2.49,2.49,0,0,0,1.776-.728.029.029,0,0,1,.031-.031l13.4-13.433.222-.222a2.666,2.666,0,0,0-.113-3.646A2.469,2.469,0,0,0,854.633,547.678Z" transform="translate(-813.479 -518.268)" fill="#181818"/>
        <path id="Path_87267" data-name="Path 87267" d="M879.552,554.512c-.062-.635-.16-1.235-.284-1.87-.093-.316-.128-.635-.222-.95a13.5,13.5,0,0,0-.779-2.154c-.062-.191-.128-.39-.191-.538a14.931,14.931,0,0,0-1.523-2.5q-.21-.28-.444-.538a11.333,11.333,0,0,0-1.141-1.332c-.128-.129-.253-.222-.39-.347-.128-.062-.191-.191-.284-.284-.253-.222-.569-.39-.822-.6-.444-.351-.857-.666-1.3-.95s-.779-.444-1.2-.666c-.475-.222-.951-.506-1.457-.7-.413-.16-.822-.253-1.235-.39-.506-.16-1.013-.315-1.558-.444-.413-.062-.822-.094-1.266-.128a13.241,13.241,0,0,0-1.616-.16c-.413,0-.822.062-1.235.093a13.668,13.668,0,0,0-1.647.125c-.413.1-.779.222-1.168.316a13.3,13.3,0,0,0-1.647.444c-.413.16-.779.39-1.141.538-.506.253-1.044.444-1.519.728a15.115,15.115,0,0,0-1.457,1.075c-.315.253-.666.444-.982.728-.315-.284-.666-.475-.981-.728A16.958,16.958,0,0,0,850.6,542.2c-.475-.284-1.013-.475-1.519-.728-.39-.16-.779-.39-1.141-.538a13.508,13.508,0,0,0-1.648-.444c-.389-.094-.779-.222-1.168-.316a13.79,13.79,0,0,0-1.648-.125c-.413-.031-.826-.093-1.235-.093a13.165,13.165,0,0,0-1.616.16c-.444.031-.857.062-1.266.128-.537.128-1.044.284-1.558.444a11.715,11.715,0,0,0-1.235.39c-.506.191-.981.475-1.456.7-.413.222-.826.413-1.2.666-.444.284-.857.6-1.3.95-.253.222-.569.389-.826.6-.093.094-.16.222-.284.284-.128.129-.253.222-.39.347a10.641,10.641,0,0,0-1.141,1.332,5.826,5.826,0,0,0-.444.538,14.677,14.677,0,0,0-1.519,2.5c-.094.16-.128.347-.222.538a16.9,16.9,0,0,0-.779,2.154c-.094.316-.16.635-.222.95-.125.635-.222,1.235-.284,1.87-.031.351-.031.7-.031,1.044a11.6,11.6,0,0,0,.062,1.839l.1,1.044c.125.635.284,1.234.444,1.869.093.316.16.635.284.951a17.2,17.2,0,0,0,1.168,2.629,16.649,16.649,0,0,0,1.947,2.66l7.72,7.72.019.031a.756.756,0,0,0,.222.222,2.52,2.52,0,0,0,1.71.666h.039a2.662,2.662,0,0,0,2.652-2.66v-.051h0a2.636,2.636,0,0,0-.206-.985,2.685,2.685,0,0,0-.576-.853l-7.7-7.727a11.468,11.468,0,0,1-1.71-2.789l-.284-.666c-.129-.413-.222-.822-.316-1.235a3.994,3.994,0,0,1-.16-.7c-.062-.413-.062-.826-.093-1.2v-.779c0-.39.062-.779.093-1.141.062-.285.094-.538.16-.822l.284-1.044c.094-.284.222-.569.316-.822a8.271,8.271,0,0,1,.506-.982,5.337,5.337,0,0,1,.444-.728,9.35,9.35,0,0,1,.7-.919c.16-.222.39-.413.569-.635.284-.284.6-.569.919-.853l.857-.569c.316-.222.635-.413.951-.6.191-.094.413-.16.6-.253a8.665,8.665,0,0,1,1.234-.444,3.167,3.167,0,0,1,.569-.16,12.365,12.365,0,0,1,1.558-.253c.128,0,.222-.031.315-.031a11.6,11.6,0,0,1,1.838.062,3.115,3.115,0,0,0,.537.094c.444.093.857.191,1.3.315.222.062.444.16.635.222.413.16.779.347,1.168.537a4.273,4.273,0,0,1,.569.316,10.26,10.26,0,0,1,1.585,1.141l3.548,3.167,3.548-3.167a9.9,9.9,0,0,1,1.585-1.141,3.836,3.836,0,0,1,.568-.316c.39-.191.779-.389,1.141-.537.222-.062.444-.16.666-.222.413-.125.857-.222,1.3-.315a3.225,3.225,0,0,0,.506-.094,11.959,11.959,0,0,1,1.87-.062c.093,0,.191.031.284.031a12.212,12.212,0,0,1,1.585.253,3.367,3.367,0,0,1,.569.16,8.843,8.843,0,0,1,1.235.444c.191.094.39.16.6.253.316.191.635.389.95.6l.853.569c.315.284.635.569.919.853.191.222.413.413.568.635a9.966,9.966,0,0,1,.7.919,6.274,6.274,0,0,1,.444.728,9.7,9.7,0,0,1,.506.982,6.616,6.616,0,0,1,.284.822c.125.346.222.7.315,1.044a8.216,8.216,0,0,1,.125.822,7.4,7.4,0,0,1,.125,1.141v.779c-.031.413-.062.779-.125,1.2-.031.253-.093.475-.125.7-.093.413-.191.826-.315,1.235l-.284.666a11.707,11.707,0,0,1-1.71,2.789l-.253.284a4.032,4.032,0,0,0-.729.728,2.805,2.805,0,0,0-.444,1.457h0v.039a2.666,2.666,0,0,0,2.664,2.656H873a2.653,2.653,0,0,0,1.741-.666l.222-.222.008-.012.627-.627a17.138,17.138,0,0,0,1.947-2.66,18.018,18.018,0,0,0,1.168-2.629,9.8,9.8,0,0,0,.284-.951c.16-.631.315-1.235.413-1.869.062-.347.093-.7.125-1.044a12.1,12.1,0,0,0,.062-1.839C879.579,555.2,879.579,554.863,879.552,554.512Z" transform="translate(-826.457 -539.961)" fill="#181818"/>
      </g>
      <path id="Path_87268" data-name="Path 87268" d="M878.4,565.843V550.58a2.477,2.477,0,0,0-2.493-2.454H866.17v-.584a17.722,17.722,0,1,0-35.443,0v.584H820.99a2.291,2.291,0,0,0-1.714.7,2.478,2.478,0,0,0-.74,1.753v36.612a14.694,14.694,0,0,0,14.684,14.684h15.26l.031.008a2.475,2.475,0,0,0,.016-4.95v0H833.219a9.74,9.74,0,0,1-9.737-9.737V553.034h7.244v6.7a2.477,2.477,0,0,0,2.493,2.454,2.444,2.444,0,0,0,2.454-2.454v-6.7h25.589v6.7a2.454,2.454,0,1,0,4.908,0v-6.7h7.283v12.791l0,.015a2.473,2.473,0,0,0,4.947.008h0Zm-17.137-17.717H835.673v-.584a12.795,12.795,0,1,1,25.589,0Z" transform="translate(-818.536 -529.82)" fill="#181818"/>
    </g>
  </g>
</svg>
