<svg xmlns="http://www.w3.org/2000/svg" width="32" height="32" viewBox="0 0 32 32">
  <g id="Group_9106" data-name="Group 9106" transform="translate(-1071 -329)">
    <rect id="Rectangle_4220" data-name="Rectangle 4220" width="32" height="32" rx="10" transform="translate(1071 329)" fill="#f1f1d1" style="mix-blend-mode: multiply;isolation: isolate"/>
    <g id="Group_9105" data-name="Group 9105" transform="translate(43.751 -180.95)">
      <path id="Path_87505" data-name="Path 87505" d="M1042.981,542.84a5.9,5.9,0,0,0-3.769-4.985,3.435,3.435,0,0,0-.149-5.56,3.363,3.363,0,0,0-1.892-.581h-.108a3.367,3.367,0,0,0-1.9.582,3.435,3.435,0,0,0-.148,5.559,5.9,5.9,0,0,0-3.766,4.982.546.546,0,1,0,1.084.138.324.324,0,0,0,0-.049,4.79,4.79,0,0,1,9.55,0,.548.548,0,0,0,.546.532h.016a.548.548,0,0,0,.532-.559A.408.408,0,0,0,1042.981,542.84Zm-3.52-7.71a2.345,2.345,0,1,1-2.346-2.345A2.349,2.349,0,0,1,1039.461,535.13Z" transform="translate(0 -6.156)" fill="#62625a" stroke="#62625a" stroke-width="0.2"/>
      <g id="Group_9104" data-name="Group 9104" transform="translate(1036.594 514.55)">
        <path id="Path_87506" data-name="Path 87506" d="M1048.91,533.206a9.345,9.345,0,0,1-4.447-1.126.641.641,0,1,1,.613-1.127,8.047,8.047,0,1,0-4.21-7.075.641.641,0,0,1-1.283,0,9.327,9.327,0,1,1,9.327,9.328Z" transform="translate(-1039.583 -514.55)" fill="#62625a" stroke="#62625a" stroke-width="0.2"/>
      </g>
      <path id="Path_87507" data-name="Path 87507" d="M1057.275,528.439a.655.655,0,0,1-.564.738c-.026,0-.058.006-.083.006a.616.616,0,0,1-.391-.135l-2.8-2.1a.653.653,0,0,1-.263-.526v-4.194a.657.657,0,1,1,1.315,0V526.1l.475.391,2.059,1.5A.646.646,0,0,1,1057.275,528.439Z" transform="translate(-7.862 -2.518)" fill="#62625a" stroke="#62625a" stroke-width="0.2"/>
    </g>
  </g>
</svg>
