<svg xmlns="http://www.w3.org/2000/svg" width="250" height="140.625" viewBox="0 0 250 140.625">
  <g id="Group_8321" data-name="Group 8321" transform="translate(-10147 9749)">
    <rect id="Rectangle_4185" data-name="Rectangle 4185" width="250" height="140.625" transform="translate(10147 -9749)" fill="#fff" opacity="0"/>
    <g id="Group_8281" data-name="Group 8281" transform="translate(10166.535 -9752.136)">
      <g id="Group_8280" data-name="Group 8280">
        <g id="Group_8279" data-name="Group 8279">
          <path id="Path_87449" data-name="Path 87449" d="M43.6,64.953V84.477c-2.414,1.433-4.826,2.94-7.839,2.94-5.653,0-7.688-6.936-7.688-12.285,0-5.5,2.035-12.739,7.99-12.739A13.357,13.357,0,0,1,43.6,64.953Zm5.047,36.328c1.737-3.238,1.963-8.364,1.963-12.282V63.6a25.493,25.493,0,0,0-16.58-6.41c-9.347,0-13.57,10.552-13.57,18.018.078,7.911,4.146,17.482,13.719,17.559a17.812,17.812,0,0,0,9.72-2.714,2.955,2.955,0,0,0-.072.83c0,2.484-.078,6.333-1.057,8.217-2.185,4.069-8.517,4.519-12.586,5.123l1.206,4.9c6.179-.152,14.32-2.258,17.257-7.914Z" fill="#6dc069"/>
          <path id="Path_87450" data-name="Path 87450" d="M57.471,40.321l6.709-2.185V83.423c0,3.691,1.658,4.522,5.877,4.671v4.372c-7.987.751-12.586-2.716-12.586-8.971Z" fill="#6dc069"/>
          <path id="Path_87451" data-name="Path 87451" d="M75.559,58.924l7.086-2.334V92.013h-7.01ZM74.5,47.244a4.566,4.566,0,0,1,4.6-4.6,4.457,4.457,0,0,1,4.521,4.6,4.6,4.6,0,1,1-9.195,0Z" fill="#6dc069"/>
          <path id="Path_87452" data-name="Path 87452" d="M88.145,88.622l2.71-4.449a14.3,14.3,0,0,0,8.668,3.244c3.472,0,6.862-1.586,6.784-4.9-.072-2.715-2.787-3.542-4.895-4.3-.982-.377-2.039-.9-3.019-1.28-4.672-1.808-9.344-3.54-9.344-9.651,0-6.854,6.1-10.473,12.058-10.473,3.47,0,6.709,1.2,10.4,3.315l-2.638,4.6c-3.089-1.734-5.275-2.412-7.537-2.412-2.941,0-5.652,1.508-5.652,4.3,0,1.355.753,2.185,2.259,2.938,1.659.758,3.846,1.585,5.88,2.338a25.951,25.951,0,0,1,5.954,3.015,8.211,8.211,0,0,1,3.392,7.083c-.15,7.612-7.311,10.929-13.567,10.929A18.959,18.959,0,0,1,88.145,88.622Z" fill="#6dc069"/>
          <path id="Path_87453" data-name="Path 87453" d="M119.195,62.843h-3.616V57.72h3.616V48.9l6.936-2.485v11.3h5.952v5.123h-5.952v20.5c0,3.691,1.731,4.519,5.952,4.748v4.3c-8.064.751-12.888-2.711-12.888-8.895Z" fill="#6dc069"/>
          <path id="Path_87454" data-name="Path 87454" d="M150.55,62.242c3.844,0,5.8,3.769,5.953,8.138H144.067C144.6,66.011,146.4,62.242,150.55,62.242Zm7.236,29.468a21.636,21.636,0,0,0,6.4-3.088l-1.958-4c-3.618,1.73-6.031,2.864-9.5,2.938-5.2.153-9.271-4.6-8.966-12.357h19.821c-.151-11.008-3.544-17.864-13.267-17.864-10.174,0-13.641,9.571-13.717,18.162-.075,5.655,2.188,11.005,5.879,14.173C146.63,93.217,153.037,93.066,157.786,91.71Z" fill="#6dc069"/>
          <path id="Path_87455" data-name="Path 87455" d="M183.862,62.843a10.543,10.543,0,0,0-7.083,2.491V92.013h-6.936V63.9a19.343,19.343,0,0,1,8.14-5.5,20.083,20.083,0,0,1,12.208-.9c-1.053,2.261-1.957,3.922-2.787,5.8A16.559,16.559,0,0,0,183.862,62.843Z" fill="#6dc069"/>
        </g>
      </g>
      <path id="Path_87456" data-name="Path 87456" d="M185.369,87.834h-1.5v4.2h-.983v-4.2h-1.5V87.09h3.984ZM188.56,90.6,189.9,87.09H191.3v4.944h-.912V88.147h-.025l-1.475,3.887h-.672l-1.477-3.887h-.023v3.887H185.8V87.09h1.4Z" fill="#6dc069"/>
    </g>
  </g>
</svg>
