<svg xmlns="http://www.w3.org/2000/svg" width="250" height="140.625" viewBox="0 0 250 140.625">
  <g id="Group_8320" data-name="Group 8320" transform="translate(-9865 9749)">
    <rect id="Rectangle_4184" data-name="Rectangle 4184" width="250" height="140.625" transform="translate(9865 -9749)" fill="#fff" opacity="0"/>
    <path id="Path_87448" data-name="Path 87448" d="M3.212,27.923c0,13.752,11.461,24.94,25.549,24.94A26.259,26.259,0,0,0,44.04,47.919v-17.1H28.3a1.654,1.654,0,0,1-1.606-1.53A1.688,1.688,0,0,1,28.3,27.61H45.723a1.577,1.577,0,0,1,1.53,1.683V48.612a.961.961,0,0,1-.076.4v.078l-.032.1a1.83,1.83,0,0,1-.455.774l-.057.051a29.315,29.315,0,0,1-17.872,6.063h0C12.9,56,0,43.369,0,27.923,0,12.526,12.9,0,28.761,0A28.884,28.884,0,0,1,46.638,6.066a1.644,1.644,0,0,1,.684,1.1,1.745,1.745,0,0,1-.337,1.264,1.615,1.615,0,0,1-1.278.585,1.551,1.551,0,0,1-1.076-.4,25.662,25.662,0,0,0-15.87-5.476c-14.088,0-25.549,11.12-25.549,24.787M124.937,1.6a1.553,1.553,0,0,0-1.53,1.606V27.23H94.369V3.2A1.612,1.612,0,0,0,92.839,1.6,1.572,1.572,0,0,0,91.231,3.2V54.47a1.572,1.572,0,0,0,1.608,1.606,1.612,1.612,0,0,0,1.53-1.606v-24.1h29.038v24.1a1.553,1.553,0,0,0,1.53,1.606,1.628,1.628,0,0,0,1.606-1.606V3.2A1.628,1.628,0,0,0,124.937,1.6m-37.9,44.489-5.529-6.792a47.631,47.631,0,0,0,2.864-7.547,1.436,1.436,0,0,0-.965-1.784,1.38,1.38,0,0,0-.394-.057,1.452,1.452,0,0,0-1.388,1.021A47.767,47.767,0,0,1,79.479,36.8L67.566,22.168l5.815-4.895a8.045,8.045,0,0,0,2.546-9.224C74.281,3.9,70.952,1.517,66.793,1.517a9.478,9.478,0,0,0-9.468,9.468,8.882,8.882,0,0,0,2.058,5.669l4.181,5.137-5.789,4.873c-3.839,3.2-6.219,6.087-6.219,10.553a13.513,13.513,0,0,0,13.5,13.5c6.284,0,11.312-2.934,14.954-8.723l4.806,5.9a1.433,1.433,0,1,0,2.222-1.809M65.374,24.014,78.06,39.6c-3.2,5.55-7.457,8.249-13.006,8.249A10.643,10.643,0,0,1,54.422,37.217c0-3.363,1.9-5.611,5.2-8.356ZM61.651,14.9a6.107,6.107,0,0,1-1.461-3.917,6.61,6.61,0,0,1,6.6-6.6c2.964,0,5.262,1.677,6.47,4.723a5.228,5.228,0,0,1-1.723,5.969l-5.783,4.869Z" transform="translate(9927 -9707)" fill="#6d6e71"/>
  </g>
</svg>
