<svg xmlns="http://www.w3.org/2000/svg" width="250" height="140.625" viewBox="0 0 250 140.625">
  <g id="Group_8318" data-name="Group 8318" transform="translate(-9267 9749)">
    <rect id="Rectangle_4182" data-name="Rectangle 4182" width="250" height="140.625" transform="translate(9267 -9749)" fill="#fff" opacity="0"/>
    <g id="Group_8264" data-name="Group 8264" transform="translate(9149.291 -9848.068)">
      <g id="Group_8268" data-name="Group 8268" transform="translate(178.709 119.068)">
        <path id="Path_87386" data-name="Path 87386" d="M232.72,194.188" transform="translate(-199.871 -148.501)" fill="#002f5e"/>
        <path id="Path_87387" data-name="Path 87387" d="M206.526,207.032l-27.709,14.757V177.811l28.209-15.061Z" transform="translate(-178.751 -136.183)" fill="#597d98"/>
        <path id="Path_87388" data-name="Path 87388" d="M299.84,187.566c.016-.05.028-.1.044-.145a50,50,0,1,0-46.509,31.647h50S291.391,214.2,299.84,187.566Z" transform="translate(-188.373 -119.068)" fill="#ef4e79"/>
        <path id="Path_87389" data-name="Path 87389" d="M232.72,194.188" transform="translate(-199.871 -148.501)" fill="#002f5e"/>
        <g id="Group_8264-2" data-name="Group 8264" transform="translate(58.361 11.278)">
          <path id="Path_87390" data-name="Path 87390" d="M342.053,145.816a8.04,8.04,0,0,0-.064-1.106,8.173,8.173,0,0,0-3.577-5.744,1.911,1.911,0,0,1-.106.785c-.023.061-.048.12-.075.178a7.257,7.257,0,0,1,2.929,5.634l-13.318-3.77a7.11,7.11,0,0,1,.688-.892,7.223,7.223,0,0,1,3.54-2.16,6.668,6.668,0,0,1,1.042-.193,7.152,7.152,0,0,1,2.776.229,7.235,7.235,0,0,1,1.658.7,1.614,1.614,0,0,0-.053-1.034,7.922,7.922,0,0,0-1.362-.522,8.082,8.082,0,0,0-3.92-.128,7.4,7.4,0,0,0-.909.254,8.094,8.094,0,0,0-4.353,3.493l-8.293-2.348-1.326,6.2a4.174,4.174,0,0,1,1.787,4.56,4.165,4.165,0,0,1,.931,1.593,4.361,4.361,0,0,1,.19,1.78,4.2,4.2,0,0,1,1.17,1.84,4.441,4.441,0,0,1,.158,2.121,4.281,4.281,0,0,1,1.015,1.845,4.19,4.19,0,0,1-2.135,4.779l-8.057,4.574-.9,4.218,25.591,8.4,13.24-32.946ZM328.89,161.485s-.048.023-.071-.015c-.041.013-.063-.035-.063-.035-5.756-5.333-4.641-10.718-.8-10.989,3.262-.23,3.986,1.99,4.087,2.38.333-.229,2.332-1.434,4.648.875C339.414,156.417,336.732,161.219,328.89,161.485Z" transform="translate(-289.094 -137.612)" fill="#bbbdbf" stroke="#bbbdbf" stroke-miterlimit="10" stroke-width="1.04" style="mix-blend-mode: multiply;isolation: isolate"/>
          <path id="Path_87391" data-name="Path 87391" d="M340.666,146.163a7.945,7.945,0,0,0-.065-1.106,8.169,8.169,0,0,0-3.576-5.744,1.912,1.912,0,0,1-.106.785c-.023.061-.048.12-.075.178a7.257,7.257,0,0,1,2.929,5.634l-13.318-3.77a7.062,7.062,0,0,1,.688-.892,7.223,7.223,0,0,1,3.54-2.16,6.745,6.745,0,0,1,1.042-.193,7.154,7.154,0,0,1,2.776.23,7.26,7.26,0,0,1,1.658.7,1.614,1.614,0,0,0-.054-1.034,7.959,7.959,0,0,0-1.362-.522,8.087,8.087,0,0,0-3.92-.128,7.624,7.624,0,0,0-.909.254,8.134,8.134,0,0,0-3.717,2.586,8.054,8.054,0,0,0-.636.908l-8.293-2.348-1.326,6.2a4.175,4.175,0,0,1,1.787,4.56,4.167,4.167,0,0,1,.931,1.593,4.36,4.36,0,0,1,.19,1.779,4.21,4.21,0,0,1,1.17,1.841,4.437,4.437,0,0,1,.158,2.12,4.287,4.287,0,0,1,1.015,1.846,4.19,4.19,0,0,1-2.135,4.779L311,168.83l-.9,4.219,25.591,8.4L348.93,148.5ZM327.5,161.831s-.048.023-.071-.015c-.041.013-.063-.035-.063-.035-5.756-5.333-4.641-10.719-.8-10.989,3.262-.23,3.985,1.989,4.087,2.38.333-.229,2.332-1.434,4.648.875C338.027,156.764,335.345,161.565,327.5,161.831Z" transform="translate(-288.55 -137.748)" fill="#fff"/>
          <path id="Path_87392" data-name="Path 87392" d="M301.359,151.4l-8.831,5.008a18.362,18.362,0,0,0-1.593-4.979c-3.373-6.14-6.11-2.722-6.034-2.143s1.767,2.857,2.225,3.849c1.04,2.255-.488,7.725-.941,8.977a4.977,4.977,0,0,1-1.38,2.2l5.508,9.713,1.149-.652c.628-.356,1.959.18,2.81-.3l11.945-6.781c2.427-1.377.723-4.446-1.031-3.8l.444-.232c1.443-1.036.539-4.131-1.707-3.514l.362-.214a1.979,1.979,0,0,0-1.8-3.4l.457-.324C305.1,153.528,303.424,150.233,301.359,151.4Zm-24.612,16.992,5.417,9.552a1.161,1.161,0,0,0,1.584.437l6.08-3.448-5.99-10.562Z" transform="translate(-275.482 -141.609)" fill="#bbbdbf" stroke="#bbbdbf" stroke-miterlimit="10" stroke-width="1.04" style="mix-blend-mode: multiply;isolation: isolate"/>
          <path id="Path_87393" data-name="Path 87393" d="M299.279,151.4l-8.831,5.008a18.362,18.362,0,0,0-1.593-4.979c-3.372-6.14-6.11-2.722-6.034-2.143s1.767,2.857,2.225,3.849c1.04,2.255-.488,7.725-.941,8.977a4.971,4.971,0,0,1-1.38,2.2l5.508,9.713,1.149-.652c.628-.356,1.959.18,2.81-.3l11.945-6.781c2.427-1.377.723-4.446-1.031-3.8l.444-.232c1.443-1.036.539-4.131-1.707-3.514l.362-.214a1.979,1.979,0,0,0-1.8-3.4l.457-.324C303.023,153.528,301.344,150.233,299.279,151.4Zm-24.612,16.992,5.417,9.552a1.162,1.162,0,0,0,1.584.437l6.08-3.448-5.99-10.562Z" transform="translate(-274.667 -141.609)" fill="#fff"/>
          <path id="Path_87394" data-name="Path 87394" d="M299.279,151.4l-8.831,5.008a18.362,18.362,0,0,0-1.593-4.979c-3.372-6.14-6.11-2.722-6.034-2.143s1.767,2.857,2.225,3.849c1.04,2.255-.488,7.725-.941,8.977a4.971,4.971,0,0,1-1.38,2.2l5.508,9.713,1.149-.652c.628-.356,1.959.18,2.81-.3l11.945-6.781c2.427-1.377.723-4.446-1.031-3.8l.444-.232c1.443-1.036.539-4.131-1.707-3.514l.362-.214a1.979,1.979,0,0,0-1.8-3.4l.457-.324C303.023,153.528,301.344,150.233,299.279,151.4Zm-24.612,16.992,5.417,9.552a1.162,1.162,0,0,0,1.584.437l6.08-3.448-5.99-10.562Z" transform="translate(-274.667 -141.609)" fill="#fff"/>
        </g>
        <path id="Path_87395" data-name="Path 87395" d="M306.864,231.716H178.709V187.559H306.864l-4.011,22.078Z" transform="translate(-178.709 -145.904)" fill="#3b6686"/>
        <g id="Group_8265" data-name="Group 8265" transform="translate(37.769 64.61)">
          <path id="Path_87396" data-name="Path 87396" d="M240.809,241.437q.023-2.335.047-4.927.023-2.218.023-5.008t-.047-5.685a.469.469,0,0,1,.024-.257.425.425,0,0,1,.094-.175.259.259,0,0,1,.21-.082h1.587a1.514,1.514,0,0,1,.246.035c.117.023.175.183.175.479q-.07,2.8-.082,5.557t.012,5.02q.024,2.639.071,5.044a.264.264,0,0,1-.024.117.167.167,0,0,1-.163.093h-1.962a.189.189,0,0,1-.187-.093A.264.264,0,0,1,240.809,241.437Z" transform="translate(-240.809 -225.302)" fill="#fff" stroke="#fff" stroke-linecap="round" stroke-linejoin="round" stroke-width="0.206"/>
          <path id="Path_87397" data-name="Path 87397" d="M251.711,240.987q0-1.261.012-2.463t.012-2.16v-2.124a.861.861,0,0,0-.024-.21,1.745,1.745,0,0,0-.1-.14.215.215,0,0,0-.175-.07H250.4a.4.4,0,0,1-.221-.2.344.344,0,0,1-.012-.2.522.522,0,0,1,.117-.21,3.288,3.288,0,0,0,1.12-.491,3.855,3.855,0,0,0,.864-.852,3.318,3.318,0,0,0,.584-1.436.42.42,0,0,1,.268-.2.523.523,0,0,1,.245.035,2.177,2.177,0,0,1,.234.164v1.7a.456.456,0,0,0,.187.42.744.744,0,0,0,.21.046h2.312a.99.99,0,0,1,.187.432,1.075,1.075,0,0,1-.024.386,1.269,1.269,0,0,1-.163.4h-2.452a.18.18,0,0,0-.163.07.581.581,0,0,0-.071.14.892.892,0,0,0-.023.21q-.024.91-.023,1.961v2.078q0,1.191.046,2.522a3.076,3.076,0,0,0,.129.98,1.489,1.489,0,0,0,.339.584,1.045,1.045,0,0,0,.466.28,1.941,1.941,0,0,0,.514.07,2.1,2.1,0,0,0,.642-.164,4.9,4.9,0,0,0,.712-.373.521.521,0,0,1,.28-.047.213.213,0,0,1,.141.14.582.582,0,0,1-.047.374,1.208,1.208,0,0,1-.572.712,4.422,4.422,0,0,1-.782.338c-.156.032-.308.058-.456.082a3.1,3.1,0,0,1-.479.035,2.8,2.8,0,0,1-1.681-.432,2.419,2.419,0,0,1-.817-.969A3.628,3.628,0,0,1,251.711,240.987Z" transform="translate(-244.473 -227.234)" fill="#fff" stroke="#fff" stroke-linecap="round" stroke-linejoin="round" stroke-width="0.206"/>
          <path id="Path_87398" data-name="Path 87398" d="M266.119,238.849a5.614,5.614,0,0,0,.63,2.895,4.635,4.635,0,0,0,.712.934,3.907,3.907,0,0,0,1.063.759,4.745,4.745,0,0,0,1.483.432,6.612,6.612,0,0,0,1.973-.071,1.709,1.709,0,0,0,.3-.069l.28-.094a2.829,2.829,0,0,0,.6-.4,2.975,2.975,0,0,0,.6-.677.238.238,0,0,1,.315-.082.191.191,0,0,1,.1.292,3.227,3.227,0,0,1-1.062,1.564,5.064,5.064,0,0,1-1.366.747,5.793,5.793,0,0,1-1.7.257,5.876,5.876,0,0,1-2.568-.443,6.051,6.051,0,0,1-.993-.549,4.061,4.061,0,0,1-.922-.876,5.606,5.606,0,0,1-.735-1.284,7.018,7.018,0,0,1-.456-1.775,7.235,7.235,0,0,1,.4-3.082,6.161,6.161,0,0,1,.583-1.179,5.09,5.09,0,0,1,.958-1.109,5.613,5.613,0,0,1,1.412-.887,6.341,6.341,0,0,1,1.95-.49,4.806,4.806,0,0,1,2.148.327,4.089,4.089,0,0,1,.782.49,3.1,3.1,0,0,1,.689.782,4.305,4.305,0,0,1,.49,1.156,6.109,6.109,0,0,1,.187,1.611.206.206,0,0,1-.234.234h-7.074a.507.507,0,0,0-.339.093.562.562,0,0,0-.152.21A.417.417,0,0,0,266.119,238.849Zm.513-1.518h3.981q.268,0,.5-.023a5.73,5.73,0,0,0,.759-.14.44.44,0,0,0,.339-.514,1.8,1.8,0,0,0-.409-1.261,2.43,2.43,0,0,0-.876-.631,3.135,3.135,0,0,0-1.284-.21,4.028,4.028,0,0,0-1.191.28,3.776,3.776,0,0,0-1.016.759,4.467,4.467,0,0,0-.923,1.53.377.377,0,0,0-.023.116C266.492,237.3,266.539,237.331,266.632,237.331Z" transform="translate(-250.031 -228.575)" fill="#fff" stroke="#fff" stroke-linecap="round" stroke-linejoin="round" stroke-width="0.206"/>
          <path id="Path_87399" data-name="Path 87399" d="M285.469,233.744h1.541a.276.276,0,0,1,.257.117.4.4,0,0,1,.023.117l-.023.631c0,.171.046.226.14.164a.464.464,0,0,0,.164-.117q.186-.14.56-.362a5.766,5.766,0,0,1,.9-.42,9.164,9.164,0,0,1,1.191-.35,6.541,6.541,0,0,1,1.459-.152,3.555,3.555,0,0,1,.887.164,3.805,3.805,0,0,1,.864.4,3.634,3.634,0,0,1,.91.817.371.371,0,0,0,.245.093.343.343,0,0,0,.2-.093,4.777,4.777,0,0,1,.608-.42,6.95,6.95,0,0,1,.992-.49,7.613,7.613,0,0,1,1.284-.386,6.218,6.218,0,0,1,1.483-.128,3.165,3.165,0,0,1,1.517.467,3.319,3.319,0,0,1,1.063,1.109,3.956,3.956,0,0,1,.479,2.113q0,.981.023,2.171.024,1.028.024,2.405t.047,3.035v.07c0,.032-.032.047-.094.047h-1.821a.063.063,0,0,1-.071-.071v-.07q.024-1.751.012-3.117t-.012-2.323q-.023-1.12-.023-1.938a3.584,3.584,0,0,0-.28-1.471,2.459,2.459,0,0,0-.805-.969,2.391,2.391,0,0,0-1.669-.338,3.95,3.95,0,0,0-1.424.3,2.8,2.8,0,0,0-.969.794,2.492,2.492,0,0,0-.432,1.588q0,.888.023,2.008.023.981.035,2.358t.058,3.129v.093a.136.136,0,0,1-.116.07h-1.821c-.063,0-.093-.023-.093-.07v-5.557q0-1.12-.024-1.938a2.882,2.882,0,0,0-.432-1.74,2.525,2.525,0,0,0-.946-.805,2.966,2.966,0,0,0-1.354-.21,4.186,4.186,0,0,0-1.471.373,2.952,2.952,0,0,0-1.015.794,2.278,2.278,0,0,0-.456,1.517q0,.865.023,1.985.023.981.035,2.369t.058,3.141v.07c0,.047-.032.07-.094.07h-1.868a.062.062,0,0,1-.07-.07v-.093q.023-2.125.035-4.04t.012-3.386v-3.175a.431.431,0,0,1,.024-.14A.2.2,0,0,1,285.469,233.744Z" transform="translate(-258.198 -228.444)" fill="#fff" stroke="#fff" stroke-linecap="round" stroke-linejoin="round" stroke-width="0.206"/>
          <path id="Path_87400" data-name="Path 87400" d="M321.451,244.385a1.7,1.7,0,0,0,1.249-.409,2.294,2.294,0,0,0,.572-.9,3.961,3.961,0,0,0,.164-1.331,1.521,1.521,0,0,0-.21-.724,2.343,2.343,0,0,0-.42-.513,2.256,2.256,0,0,0-.584-.421l-1.915-1.027v-.023a3.636,3.636,0,0,1-.957-.759,3.528,3.528,0,0,1-.526-.782,2.285,2.285,0,0,1-.21-.631c-.023-.171-.035-.265-.035-.28a2.779,2.779,0,0,1,.771-2.241,2.423,2.423,0,0,1,.665-.514,3.954,3.954,0,0,1,.678-.28,3.076,3.076,0,0,1,.549-.117c.156-.016.249-.024.28-.024q.186-.023.35-.035c.109-.008.225-.012.35-.012a4.376,4.376,0,0,1,1.378.175,4.182,4.182,0,0,1,.747.315,1.641,1.641,0,0,1,.5.4.518.518,0,0,1,.081.187,3.472,3.472,0,0,1,.058.653c-.008.141-.012.218-.012.234v.046l-.024.047a.493.493,0,0,1-.42.234.559.559,0,0,1-.374-.14,1.273,1.273,0,0,1-.21-.21l-.024-.023-.023-.047a2.22,2.22,0,0,0-.572-.619,2.988,2.988,0,0,0-1.319-.525,2.124,2.124,0,0,0-.969.3,1.63,1.63,0,0,0-.491.49,1.422,1.422,0,0,0-.187.456c-.023.133-.035.206-.035.221a3.171,3.171,0,0,0,.093.771,3.033,3.033,0,0,0,.3.689,1.7,1.7,0,0,0,.677.619h.023l1.494.794q.093.047.467.245a4.176,4.176,0,0,1,.794.572,3.257,3.257,0,0,1,1.214,2.662c0,.046,0,.14-.012.28a2.832,2.832,0,0,1-.081.5,2.8,2.8,0,0,1-.245.631,3.038,3.038,0,0,1-.479.665,4.733,4.733,0,0,1-3.526,1.214h-.07a3.8,3.8,0,0,1-1.354-.187,6.978,6.978,0,0,1-.724-.327l-.164-.07h-.023V244.6c-.078-.062-.179-.152-.3-.269a.469.469,0,0,1-.164-.408,2.473,2.473,0,0,0,0-.678c-.016-.14-.031-.28-.047-.42v-.093l.024-.071a.359.359,0,0,1,.327-.21q.35,0,.607.537a1.743,1.743,0,0,0,.4.7,2.646,2.646,0,0,0,.7.479A2.685,2.685,0,0,0,321.451,244.385Z" transform="translate(-271.134 -228.461)" fill="#fff" stroke="#fff" stroke-linecap="round" stroke-linejoin="round" stroke-width="0.206"/>
        </g>
        <g id="Group_8267" data-name="Group 8267" transform="translate(11.705 45.635)">
          <g id="Group_8266" data-name="Group 8266">
            <path id="Path_87401" data-name="Path 87401" d="M215.852,210.423h-1.961c-.125,0-.2-.031-.234-.094a.2.2,0,0,1-.023-.093q-.047-2.452-.105-4.8t-.129-4.191q-.093-2.148-.163-4.11-.514.981-1.331,2.708-.7,1.472-1.845,3.9t-2.778,6.047a3.291,3.291,0,0,1-.21.467,2.238,2.238,0,0,1-.245.327.353.353,0,0,1-.245.14.363.363,0,0,1-.268-.105,2.557,2.557,0,0,1-.2-.222,2.37,2.37,0,0,1-.187-.35q-1.355-3.059-2.393-5.3t-1.763-3.783q-.84-1.773-1.471-3.035-.14,1.425-.28,3.269-.117,1.588-.292,3.853t-.362,5.16a.984.984,0,0,1-.047.117.149.149,0,0,1-.14.094h-1.1a.1.1,0,0,1-.117-.117.148.148,0,0,1,0-.117q.28-4.016.466-6.923t.3-4.822q.14-2.242.234-3.782a.691.691,0,0,1,.046-.257.675.675,0,0,1,.128-.175.335.335,0,0,1,.246-.081h1.541a.284.284,0,0,1,.187.058c.046.039.085.074.116.105a.615.615,0,0,1,.094.163q1.494,4.2,2.744,6.97t2.043,4.331l.49.98q.187.374.35.771l.467-.957.806-1.774q.455-1,1.074-2.417t1.459-3.362q.841-1.95,1.961-4.612a.2.2,0,0,1,.07-.14,1.021,1.021,0,0,1,.128-.105.381.381,0,0,1,.222-.058h1.378a.342.342,0,0,1,.21.07.467.467,0,0,1,.14.164.378.378,0,0,1,.07.234q.047.888.105,1.9t.152,2.183q.117,2.031.327,4.891t.467,6.643a.154.154,0,0,1,0,.117C215.961,210.384,215.914,210.423,215.852,210.423Z" transform="translate(-197.955 -194.102)" fill="#fff" stroke="#fff" stroke-linecap="round" stroke-linejoin="round" stroke-width="0.206"/>
            <path id="Path_87402" data-name="Path 87402" d="M236.359,213a2.8,2.8,0,0,0,1.658-.409,2.661,2.661,0,0,0,.817-.9,3.281,3.281,0,0,0,.3-1.331q0-.933.012-1.588t.012-1.167q0-.514-.012-.946t-.024-.946q-.012-.514-.023-1.156t-.035-1.553v-.047c0-.047.031-.07.094-.07h1.845c.015,0,.047.023.093.07a.068.068,0,0,1,.024.047q-.024,1.4-.024,3.059v3.35q0,1.927.024,4.168a.431.431,0,0,1-.024.14.183.183,0,0,1-.187.141h-1.587q-.187,0-.234-.117a.437.437,0,0,1-.024-.14v-.771c0-.108-.047-.147-.14-.117a.571.571,0,0,0-.14.071c-.125.093-.308.214-.549.362a5.434,5.434,0,0,1-.875.42,8.74,8.74,0,0,1-1.168.35,6.31,6.31,0,0,1-1.424.151,3.152,3.152,0,0,1-1.039-.151,2.455,2.455,0,0,1-.747-.409,2.6,2.6,0,0,1-.525-.572,3.6,3.6,0,0,1-.35-.665,5.071,5.071,0,0,1-.3-1.821q0-1.4-.012-2.72t-.035-2.37q-.024-1.237-.047-2.335c-.016-.015-.016-.038,0-.07,0-.047.031-.07.093-.07h1.752c.062,0,.093.023.093.07v2.265q0,1,.012,2.312t.035,2.755a3.745,3.745,0,0,0,.28,1.354,2.513,2.513,0,0,0,.771.934A2.585,2.585,0,0,0,236.359,213Z" transform="translate(-211.177 -197.547)" fill="#fff" stroke="#fff" stroke-linecap="round" stroke-linejoin="round" stroke-width="0.206"/>
            <path id="Path_87403" data-name="Path 87403" d="M254.775,213.147a1.7,1.7,0,0,0,1.249-.409,2.293,2.293,0,0,0,.572-.9,3.958,3.958,0,0,0,.164-1.331,1.522,1.522,0,0,0-.21-.724,2.362,2.362,0,0,0-.42-.513,2.23,2.23,0,0,0-.584-.42l-1.915-1.028V207.8a3.617,3.617,0,0,1-.957-.759,3.509,3.509,0,0,1-.525-.782,2.287,2.287,0,0,1-.21-.63c-.023-.172-.035-.265-.035-.28a2.776,2.776,0,0,1,.771-2.241,2.414,2.414,0,0,1,.665-.514,3.954,3.954,0,0,1,.677-.28,3.08,3.08,0,0,1,.549-.117c.155-.015.249-.023.28-.023.125-.015.241-.027.35-.035s.226-.012.35-.012a4.394,4.394,0,0,1,1.378.175,4.236,4.236,0,0,1,.747.315,1.632,1.632,0,0,1,.5.4.521.521,0,0,1,.082.187,3.424,3.424,0,0,1,.058.654c-.008.14-.012.218-.012.234v.047l-.024.046a.492.492,0,0,1-.42.234.557.557,0,0,1-.374-.14,1.3,1.3,0,0,1-.21-.21l-.024-.024-.023-.047a2.209,2.209,0,0,0-.572-.619,2.913,2.913,0,0,0-.619-.339,2.963,2.963,0,0,0-.7-.187,2.132,2.132,0,0,0-.969.3,1.627,1.627,0,0,0-.49.49,1.4,1.4,0,0,0-.187.456c-.024.133-.035.207-.035.222a3.146,3.146,0,0,0,.094.771,3.024,3.024,0,0,0,.3.688,1.7,1.7,0,0,0,.677.619h.024l1.494.794c.062.031.218.113.466.245a4.21,4.21,0,0,1,.794.572,3.255,3.255,0,0,1,1.214,2.661c0,.047,0,.141-.012.28a2.885,2.885,0,0,1-.082.5,2.785,2.785,0,0,1-.245.631,3.005,3.005,0,0,1-.479.665,4.729,4.729,0,0,1-3.526,1.214h-.07a3.8,3.8,0,0,1-1.354-.187,7.2,7.2,0,0,1-.724-.327l-.164-.07h-.023v-.024c-.078-.062-.179-.152-.3-.268a.474.474,0,0,1-.164-.409,2.469,2.469,0,0,0,0-.677c-.015-.141-.031-.28-.047-.421v-.093l.024-.07a.36.36,0,0,1,.327-.21q.35,0,.608.537a1.733,1.733,0,0,0,.4.7,2.5,2.5,0,0,0,1.891.7Z" transform="translate(-218.946 -197.246)" fill="#fff" stroke="#fff" stroke-linecap="round" stroke-linejoin="round" stroke-width="0.206"/>
            <path id="Path_87404" data-name="Path 87404" d="M267.768,209.748q0-1.262.012-2.464t.012-2.16V203a.882.882,0,0,0-.023-.21,1.752,1.752,0,0,0-.105-.141.216.216,0,0,0-.175-.07H266.46a.4.4,0,0,1-.222-.2.351.351,0,0,1-.012-.2.531.531,0,0,1,.117-.21,3.277,3.277,0,0,0,1.121-.49,3.845,3.845,0,0,0,.864-.853,3.309,3.309,0,0,0,.584-1.436.425.425,0,0,1,.268-.2.535.535,0,0,1,.246.035,2.233,2.233,0,0,1,.234.163v1.7a.454.454,0,0,0,.187.42.72.72,0,0,0,.21.047h2.312a.977.977,0,0,1,.187.432,1.058,1.058,0,0,1-.023.385,1.263,1.263,0,0,1-.164.4h-2.452a.183.183,0,0,0-.164.07.561.561,0,0,0-.07.141.851.851,0,0,0-.023.21q-.024.911-.024,1.961v2.078q0,1.191.047,2.522a3.085,3.085,0,0,0,.128.981,1.5,1.5,0,0,0,.339.583,1.042,1.042,0,0,0,.467.28,1.933,1.933,0,0,0,.513.07,2.091,2.091,0,0,0,.642-.164,4.845,4.845,0,0,0,.712-.373.52.52,0,0,1,.28-.047.21.21,0,0,1,.14.141.576.576,0,0,1-.047.373,1.207,1.207,0,0,1-.572.712,4.456,4.456,0,0,1-.783.339q-.234.047-.455.082a3.043,3.043,0,0,1-.479.035,2.794,2.794,0,0,1-1.681-.432,2.427,2.427,0,0,1-.817-.969A3.616,3.616,0,0,1,267.768,209.748Z" transform="translate(-224.701 -196.019)" fill="#fff" stroke="#fff" stroke-linecap="round" stroke-linejoin="round" stroke-width="0.206"/>
            <path id="Path_87405" data-name="Path 87405" d="M293.7,210.213a.264.264,0,0,1-.023.117.168.168,0,0,1-.164.094H291.62c-.109,0-.179-.031-.21-.094a.148.148,0,0,1,0-.117q.093-3.128.105-5.977t-.012-5.043q-.024-2.545-.07-4.763a.372.372,0,0,1,.047-.164l.1-.105a.241.241,0,0,1,.176-.058H293.3a.292.292,0,0,1,.234.082.844.844,0,0,1,.117.175.379.379,0,0,1,.024.233q-.024.841-.047,1.845-.024.865-.035,2.031t-.012,2.545a.187.187,0,0,0,.094.187.2.2,0,0,0,.093.024q1.307.023,2.779.046,1.261.024,2.883.012t3.374-.082a.22.22,0,0,0,.116-.047.534.534,0,0,0,.082-.1.35.35,0,0,0,.035-.175q0-1-.012-2.125t-.035-2.1q-.024-1.121-.024-2.218a1.2,1.2,0,0,1,.071-.164l.1-.105a.24.24,0,0,1,.175-.058h1.518a.261.261,0,0,1,.21.082.845.845,0,0,1,.117.175.375.375,0,0,1,.023.233q-.023,2.219-.046,4.74-.024,2.171-.012,4.985t.058,5.9a.264.264,0,0,1-.023.117.149.149,0,0,1-.14.094h-1.915a.189.189,0,0,1-.187-.094.264.264,0,0,1-.023-.117q.047-2.474.07-3.969t.047-2.312q.023-.933.024-1.308a.211.211,0,0,0-.024-.093c-.047-.078-.078-.117-.094-.117q-1.751-.024-3.4-.035t-2.954-.012h-2.849a.1.1,0,0,0-.07.023.158.158,0,0,0-.07.14q0,1.144.023,2.428.024,1.1.035,2.475T293.7,210.213Z" transform="translate(-234.567 -194.102)" fill="#fff" stroke="#fff" stroke-linecap="round" stroke-linejoin="round" stroke-width="0.206"/>
            <path id="Path_87406" data-name="Path 87406" d="M318.2,212.584a3.466,3.466,0,0,1-.316-1.167,2.957,2.957,0,0,1,.082-.969,2.455,2.455,0,0,1,.362-.782,3.2,3.2,0,0,1,.549-.608,5.079,5.079,0,0,1,1.775-.957l3.082-.794a1.155,1.155,0,0,0,.163-.14.761.761,0,0,0,.187-.561v-1.845a1.285,1.285,0,0,0-.164-.724,1.715,1.715,0,0,0-.525-.49,2.033,2.033,0,0,0-1.086-.234,3.818,3.818,0,0,0-.887.14,2.124,2.124,0,0,0-.6.327.724.724,0,0,0-.269.607,3.071,3.071,0,0,1-.023.373,3.869,3.869,0,0,1-.117.584,3.413,3.413,0,0,1-.257.4,1.722,1.722,0,0,1-.28.3.881.881,0,0,1-.327.187.723.723,0,0,1-.513,0,1.178,1.178,0,0,1-.187-.117.281.281,0,0,1-.105-.128c-.024-.054-.043-.105-.058-.151l-.047-.187a.789.789,0,0,1,.024-.42,3.707,3.707,0,0,1,.163-.443,2.289,2.289,0,0,1,.257-.467,3.617,3.617,0,0,1,.864-1.027,5.252,5.252,0,0,1,1.156-.724,4.062,4.062,0,0,1,1.74-.327,4.353,4.353,0,0,1,1.471.327,2.635,2.635,0,0,1,.537.3,2.34,2.34,0,0,1,.467.455,2.256,2.256,0,0,1,.339.619,2.306,2.306,0,0,1,.128.794v6.654a1.486,1.486,0,0,0,.07.608,1.154,1.154,0,0,0,.28.455,1.081,1.081,0,0,0,.63.292,1.1,1.1,0,0,0,.4.024,2.454,2.454,0,0,0,.385-.082.919.919,0,0,0,.386-.245.446.446,0,0,1,.14.023l.105.105a.361.361,0,0,1,.058.245,4.5,4.5,0,0,1-1.331.864,2.488,2.488,0,0,1-.6.163,1.708,1.708,0,0,1-.631-.023,1.571,1.571,0,0,1-.618-.3,2.693,2.693,0,0,1-.584-.654,1.693,1.693,0,0,0-.234-.234.469.469,0,0,0-.245-.07.51.51,0,0,0-.315.187,2.827,2.827,0,0,1-.678.467,8.1,8.1,0,0,1-1.039.385,8.347,8.347,0,0,1-1.669.292,3.211,3.211,0,0,1-.841-.163,2.573,2.573,0,0,1-.712-.386A1.637,1.637,0,0,1,318.2,212.584Zm5.3-4.342q-1.1.28-1.763.513a9.456,9.456,0,0,0-1.039.42,3.053,3.053,0,0,0-.606.373,1.176,1.176,0,0,0-.35.584,1.664,1.664,0,0,0-.024.747,3.017,3.017,0,0,0,.467,1.074,2.376,2.376,0,0,0,.724.49,2.42,2.42,0,0,0,.853.2,2.526,2.526,0,0,0,1.179-.269,1.877,1.877,0,0,0,.537-.35,2.254,2.254,0,0,0,.362-.5,1.594,1.594,0,0,0,.175-.783l-.023-2.1a.327.327,0,0,0-.082-.257.868.868,0,0,0-.175-.117A.377.377,0,0,0,323.5,208.242Z" transform="translate(-244.941 -197.291)" fill="#fff" stroke="#fff" stroke-linecap="round" stroke-linejoin="round" stroke-width="0.206"/>
            <path id="Path_87407" data-name="Path 87407" d="M339.389,210.793q.047-.141.467-.981l.42-.9q.257-.548.642-1.354t.887-1.88l1.156-2.475a.361.361,0,0,1,.187-.21.389.389,0,0,1,.117-.023h1.027q.093,0,.093.117a.266.266,0,0,1-.023.117q-1.261,2.731-2.137,4.623t-1.46,3.082q-.677,1.4-1.143,2.288a1.939,1.939,0,0,1-.222.443,2,2,0,0,1-.175.21c-.063.063-.117.085-.164.07a.224.224,0,0,1-.117-.047c-.032-.031-.074-.078-.128-.14a1.333,1.333,0,0,1-.175-.28q-.047-.07-.514-1.191-.21-.467-.525-1.2t-.794-1.821l-1.132-2.568q-.654-1.482-1.517-3.444c-.063-.125-.055-.2.023-.234a.264.264,0,0,1,.117-.023h1.681a.273.273,0,0,1,.234.14.229.229,0,0,1,.047.117q.3.91.747,2.078.4,1,.98,2.393T339.389,210.793Z" transform="translate(-251.305 -197.577)" fill="#fff" stroke="#fff" stroke-linecap="round" stroke-linejoin="round" stroke-width="0.206"/>
            <path id="Path_87408" data-name="Path 87408" d="M355.157,207.61a5.613,5.613,0,0,0,.631,2.895,4.618,4.618,0,0,0,.712.934,3.906,3.906,0,0,0,1.063.759,4.746,4.746,0,0,0,1.482.432,6.615,6.615,0,0,0,1.974-.07,1.732,1.732,0,0,0,.3-.07l.28-.094a2.775,2.775,0,0,0,.6-.4,2.958,2.958,0,0,0,.6-.677.239.239,0,0,1,.316-.081.191.191,0,0,1,.1.292,3.234,3.234,0,0,1-1.063,1.564,5.067,5.067,0,0,1-1.365.747,6.786,6.786,0,0,1-4.273-.187,6,6,0,0,1-.993-.549,4.037,4.037,0,0,1-.922-.876,5.606,5.606,0,0,1-.736-1.284,7.011,7.011,0,0,1-.455-1.775,7.233,7.233,0,0,1,.4-3.082,6.183,6.183,0,0,1,.584-1.179,5.072,5.072,0,0,1,.957-1.109,5.635,5.635,0,0,1,1.413-.887,6.337,6.337,0,0,1,1.95-.49,4.808,4.808,0,0,1,2.148.327,4.089,4.089,0,0,1,.782.49,3.089,3.089,0,0,1,.688.782,4.292,4.292,0,0,1,.491,1.156,6.133,6.133,0,0,1,.187,1.611.207.207,0,0,1-.234.234h-7.075a.5.5,0,0,0-.338.094.554.554,0,0,0-.152.21A.415.415,0,0,0,355.157,207.61Zm.514-1.517h3.981a4.985,4.985,0,0,0,.5-.024,5.73,5.73,0,0,0,.759-.14.439.439,0,0,0,.338-.514,1.8,1.8,0,0,0-.409-1.261,2.435,2.435,0,0,0-.875-.631,3.158,3.158,0,0,0-1.285-.21,4.039,4.039,0,0,0-1.191.28,3.785,3.785,0,0,0-1.016.759,4.464,4.464,0,0,0-.922,1.529.38.38,0,0,0-.024.117C355.53,206.061,355.577,206.092,355.671,206.092Z" transform="translate(-258.854 -197.359)" fill="#fff" stroke="#fff" stroke-linecap="round" stroke-linejoin="round" stroke-width="0.206"/>
          </g>
        </g>
      </g>
      <g id="Group_8269" data-name="Group 8269" transform="translate(207.095 140.044)" style="mix-blend-mode: multiply;isolation: isolate">
        <path id="Path_87409" data-name="Path 87409" d="M225.382,171.568s20.588-5.058,35.842-1.494l.047-.165s-13.31-3.93-35.634.858Z" transform="translate(-225.382 -159.369)" fill="#bbbdbf" stroke="#bbbdbf" stroke-miterlimit="10" stroke-width="1.04"/>
        <path id="Path_87410" data-name="Path 87410" d="M240.6,157.2v.839a1.511,1.511,0,0,1,.431-.611,1.71,1.71,0,0,1,1.088-.372,1.85,1.85,0,0,1,.614.108,1.463,1.463,0,0,1,.894.958,1.87,1.87,0,0,1,1.7-1.053,1.8,1.8,0,0,1,1.271.491c.539.527.561,1.1.561,2.538v3.3h-1.584v-2.933c0-.994-.021-1.2-.183-1.46a.7.7,0,0,0-.657-.347.824.824,0,0,0-.679.359,2.987,2.987,0,0,0-.172,1.316V163.4H242.3v-3.125a2.408,2.408,0,0,0-.162-1.245.754.754,0,0,0-.646-.371.842.842,0,0,0-.409.108c-.463.263-.474.718-.474,1.891V163.4h-1.584v-6.2Z" transform="translate(-230.726 -154.926)" fill="#bbbdbf" stroke="#bbbdbf" stroke-miterlimit="10" stroke-width="1.04"/>
        <path id="Path_87411" data-name="Path 87411" d="M258.6,157.288h1.617l-1.617,6.2h-1.477l-.937-4.19-.926,4.19h-1.5l-1.617-6.2h1.617l.851,3.879.873-3.879h1.4l.862,3.879Z" transform="translate(-235.867 -155.019)" fill="#bbbdbf" stroke="#bbbdbf" stroke-miterlimit="10" stroke-width="1.04"/>
        <path id="Path_87412" data-name="Path 87412" d="M268.5,160.217a2.311,2.311,0,0,1-.409,1.509.923.923,0,0,1-.69.347.984.984,0,0,1-.883-.731,2.805,2.805,0,0,1-.172-1.065,2.392,2.392,0,0,1,.333-1.365,1.011,1.011,0,0,1,.787-.455.853.853,0,0,1,.636.311A2.093,2.093,0,0,1,268.5,160.217Zm.082,3.173h1.552v-6.213H268.61v.8a1.492,1.492,0,0,0-1.379-.946c-1.056,0-2.435.91-2.435,3.352,0,1.939.991,3.136,2.317,3.136a1.619,1.619,0,0,0,1.465-.814Z" transform="translate(-240.825 -154.919)" fill="#bbbdbf" stroke="#bbbdbf" stroke-miterlimit="10" stroke-width="1.04"/>
        <path id="Path_87413" data-name="Path 87413" d="M277.218,157.288h1.61l-1.771,6.154a4.378,4.378,0,0,1-.647,1.485c-.291.311-.636.455-1.918.455-.183,0-.258-.012-.42-.024v-1.377h.42a1.078,1.078,0,0,0,.668-.156.886.886,0,0,0,.237-.623,2.078,2.078,0,0,0-.119-.527l-1.724-5.387h1.724l1.013,4.178Z" transform="translate(-244.257 -155.019)" fill="#bbbdbf" stroke="#bbbdbf" stroke-miterlimit="10" stroke-width="1.04"/>
        <path id="Path_87414" data-name="Path 87414" d="M230.846,155.417l.85,3.264H230.04Zm-1-1.86-2.66,8.471h1.954l.5-1.8h2.495l.508,1.8H234.6l-2.771-8.471Z" transform="translate(-226.087 -153.557)" fill="#bbbdbf" stroke="#bbbdbf" stroke-miterlimit="10" stroke-width="1.04"/>
      </g>
      <g id="Group_8275" data-name="Group 8275" transform="translate(199.56 130.682)">
        <g id="Group_8270" data-name="Group 8270" transform="translate(6.318 8.551)">
          <path id="Path_87415" data-name="Path 87415" d="M223.382,170.234s20.588-5.057,35.842-1.494l.047-.165s-13.31-3.93-35.634.858Z" transform="translate(-223.382 -158.035)" fill="#fff"/>
          <path id="Path_87416" data-name="Path 87416" d="M238.6,155.863v.838a1.511,1.511,0,0,1,.431-.611,1.713,1.713,0,0,1,1.088-.371,1.85,1.85,0,0,1,.614.108,1.462,1.462,0,0,1,.894.958,1.87,1.87,0,0,1,1.7-1.053,1.8,1.8,0,0,1,1.271.491c.539.527.561,1.1.561,2.537v3.3h-1.584v-2.933c0-.994-.021-1.2-.183-1.46a.7.7,0,0,0-.657-.348.824.824,0,0,0-.679.359,2.991,2.991,0,0,0-.172,1.317v3.065H240.3v-3.124a2.407,2.407,0,0,0-.162-1.245.753.753,0,0,0-.646-.372.843.843,0,0,0-.409.108c-.463.263-.474.718-.474,1.891v2.741h-1.584v-6.2Z" transform="translate(-228.726 -153.593)" fill="#fff"/>
          <path id="Path_87417" data-name="Path 87417" d="M256.6,155.955h1.617l-1.617,6.2h-1.477l-.937-4.19-.926,4.19h-1.5l-1.617-6.2h1.617l.851,3.879.873-3.879h1.4l.862,3.879Z" transform="translate(-233.867 -153.685)" fill="#fff"/>
          <path id="Path_87418" data-name="Path 87418" d="M266.5,158.883a2.309,2.309,0,0,1-.409,1.508.92.92,0,0,1-.69.347.984.984,0,0,1-.883-.73,2.811,2.811,0,0,1-.172-1.066,2.391,2.391,0,0,1,.333-1.364,1.011,1.011,0,0,1,.787-.455.853.853,0,0,1,.636.311A2.093,2.093,0,0,1,266.5,158.883Zm.082,3.172h1.552v-6.213H266.61v.8a1.492,1.492,0,0,0-1.379-.946c-1.056,0-2.435.91-2.435,3.352,0,1.939.991,3.136,2.317,3.136a1.619,1.619,0,0,0,1.465-.814Z" transform="translate(-238.825 -153.585)" fill="#fff"/>
          <path id="Path_87419" data-name="Path 87419" d="M275.218,155.955h1.61l-1.771,6.154a4.383,4.383,0,0,1-.646,1.485c-.291.311-.636.454-1.918.454-.183,0-.258-.012-.42-.024v-1.377h.42a1.082,1.082,0,0,0,.668-.155.887.887,0,0,0,.237-.623,2.072,2.072,0,0,0-.119-.527l-1.724-5.387h1.724l1.013,4.178Z" transform="translate(-242.257 -153.685)" fill="#fff"/>
          <path id="Path_87420" data-name="Path 87420" d="M228.846,154.083l.85,3.264H228.04Zm-1-1.86-2.66,8.471h1.954l.5-1.8h2.495l.508,1.8H232.6l-2.771-8.471Z" transform="translate(-224.087 -152.223)" fill="#fff"/>
        </g>
        <g id="Group_8271" data-name="Group 8271" transform="translate(7.413 0)">
          <path id="Path_87421" data-name="Path 87421" d="M228.846,140.024l.85,3.264H228.04Zm-1-1.86-2.66,8.471h1.954l.5-1.8h2.495l.508,1.8H232.6l-2.771-8.471Z" transform="translate(-225.181 -138.164)" fill="none"/>
        </g>
        <g id="Group_8272" data-name="Group 8272" transform="translate(0 8.689)">
          <path id="Path_87422" data-name="Path 87422" d="M216.658,154.311l.85,3.264h-1.656Zm-1-1.86-2.66,8.471h1.954l.5-1.8h2.495l.508,1.8h1.965l-2.771-8.471Z" transform="translate(-212.993 -152.451)" fill="none"/>
        </g>
        <g id="Group_8273" data-name="Group 8273" transform="translate(39.43 8.689)">
          <path id="Path_87423" data-name="Path 87423" d="M281.489,154.311l.85,3.264h-1.656Zm-1-1.86-2.66,8.471h1.953l.5-1.8h2.495l.508,1.8h1.964l-2.77-8.471Z" transform="translate(-277.825 -152.451)" fill="none"/>
        </g>
        <g id="Group_8274" data-name="Group 8274" transform="translate(7.096 17.24)">
          <path id="Path_87424" data-name="Path 87424" d="M228.325,168.37l.85,3.264h-1.655Zm-1-1.86-2.66,8.471h1.954l.5-1.8h2.495l.508,1.8h1.965l-2.771-8.471Z" transform="translate(-224.66 -166.51)" fill="none"/>
        </g>
      </g>
    </g>
  </g>
</svg>
