<svg xmlns="http://www.w3.org/2000/svg" width="250" height="140.625" viewBox="0 0 250 140.625">
  <g id="Group_8316" data-name="Group 8316" transform="translate(-8969 9583)">
    <rect id="Rectangle_4186" data-name="Rectangle 4186" width="250" height="140.625" transform="translate(8969 -9583)" fill="#fff" opacity="0"/>
    <g id="Group_8282" data-name="Group 8282" transform="translate(8973.354 -9582.335)">
      <path id="Path_87457" data-name="Path 87457" d="M51.344,73.965c0,2.386-2.25,1.964-2.25,2.9,0,.4.473.281.731.281.626,0,1.264-.1,2.011-.1.818,0,1.616.1,2.765.1.3,0,.89.023.89-.307,0-1.094-3,.494-3-3.994V64.891c0-.21.049-.373.189-.373.117,0,.259.111.422.305L64.368,76.98a.69.69,0,0,0,.606.325c.284,0,.284-.183.284-.7V63.488c0-2.452,1.991-1.889,1.991-2.593,0-.07,0-.3-.444-.3-.21,0-1.031.092-2.509.092-1.614,0-2.295-.092-2.67-.092a.358.358,0,0,0-.376.394c0,.773,2.856.356,2.856,2.482v7.783c0,.582-.043.864-.183.864s-.422-.282-.724-.608L53.777,61.2c-.415-.446-.136-.607-.883-.607-1.245,0-1.853.092-2.457.092-.45,0-.869-.092-1.313-.092a.366.366,0,0,0-.4.394c0,1.126,2.621-.394,2.621,4.091v8.889" transform="translate(-6.112 -0.056)" fill="#03571c"/>
      <path id="Path_87458" data-name="Path 87458" d="M51.306,73.927h-.133A1.886,1.886,0,0,1,50.115,75.8c-.271.149-.549.261-.781.394a.738.738,0,0,0-.414.627.392.392,0,0,0,.185.358l.338.07c.133,0,.262-.016.344-.016.642,0,1.277-.1,2.011-.1.811,0,1.608.1,2.765.1h.125a2.176,2.176,0,0,0,.535-.049.42.42,0,0,0,.364-.391.518.518,0,0,0-.174-.4,1.787,1.787,0,0,0-.751-.261,2.321,2.321,0,0,1-1.352-.654,3.837,3.837,0,0,1-.721-2.675V64.853l.027-.212.026-.028c.031-.008.166.07.32.258h0L64.233,77.035l.1-.092-.1.088a.818.818,0,0,0,.706.368.351.351,0,0,0,.376-.246,2.185,2.185,0,0,0,.043-.585V63.451c.005-1.19.456-1.587.922-1.834.232-.121.475-.189.677-.281a.538.538,0,0,0,.386-.479l-.084-.262a.593.593,0,0,0-.488-.175c-.23,0-1.033.095-2.509.095-1.611,0-2.277-.095-2.67-.095a.481.481,0,0,0-.409.192l-.1.336a.457.457,0,0,0,.168.344,9.88,9.88,0,0,0,1.61.619,1.546,1.546,0,0,1,1.081,1.519v7.783a3.718,3.718,0,0,1-.035.627l-.038.11,0,0v0h0l0,0v0l.018.033v-.039l-.018.006.018.033v-.039l-.01,0a2.727,2.727,0,0,1-.614-.559L53.84,61.07a2.76,2.76,0,0,1-.311-.461l-.243-.153a1.86,1.86,0,0,0-.43-.036c-1.252,0-1.867.095-2.457.095-.434,0-.852-.093-1.313-.095a.524.524,0,0,0-.406.163.541.541,0,0,0-.128.365.617.617,0,0,0,.5.609,3.022,3.022,0,0,1,1.335.609c.421.415.787,1.207.787,2.873v8.889h.268V65.039c.006-2.262-.677-3.082-1.386-3.425a6.519,6.519,0,0,0-.916-.307c-.232-.095-.311-.139-.319-.358l.059-.186a.257.257,0,0,1,.207-.074c.422,0,.844.091,1.313.091.619,0,1.217-.091,2.457-.091a1.663,1.663,0,0,1,.363.027l.138.124a1.818,1.818,0,0,0,.284.411l9.422,10.311c.151.164.3.318.432.437a.689.689,0,0,0,.39.212l.2-.112a1.844,1.844,0,0,0,.12-.886V63.43a1.928,1.928,0,0,0-1.519-1.874c-.366-.131-.724-.22-.981-.318a.967.967,0,0,1-.282-.149l-.077-.14.051-.178a.213.213,0,0,1,.192-.081c.358,0,1.051.091,2.67.091,1.478,0,2.319-.091,2.509-.091s.261.052.283.077l.023.092c0,.1-.05.149-.232.235a3.822,3.822,0,0,0-1.079.544,2.217,2.217,0,0,0-.677,1.814V76.567a2.1,2.1,0,0,1-.029.5c-.034.063,0,.052-.12.065-.286-.009-.33-.091-.5-.279l0,0L53.164,64.693l-.1.092.1-.089c-.177-.2-.32-.34-.524-.351a.29.29,0,0,0-.268.192.787.787,0,0,0-.054.317V72.8c-.01,2.269.782,3.082,1.583,3.394a7.537,7.537,0,0,0,1.049.277.747.747,0,0,1,.286.125l.078.2c0,.057-.027.091-.164.131a1.905,1.905,0,0,1-.465.045h-.125c-1.143,0-1.933-.1-2.765-.1-.76,0-1.4.1-2.011.1l-.344.015-.2-.035-.054-.128c0-.171.091-.271.289-.4a8.109,8.109,0,0,0,1.2-.677,2.2,2.2,0,0,0,.761-1.824h-.135" transform="translate(-6.075 -0.018)" fill="#03571c"/>
      <path id="Path_87459" data-name="Path 87459" d="M113.921,74.1c0,2.78-2.65,1.654-2.65,2.573,0,.509.4.491.821.491.933,0,1.7-.095,3.279-.095s2.342.095,3.279.095c.681,0,1.148.07,1.148-.491,0-.656-3,.023-3-2.854V63.244c0-1.123.232-1.237,1.195-1.237h1.992c2.691-.1,1.946,2.5,2.875,2.5.614,0,.352-.915.307-1.191l-.256-2.151c-.023-.236-.023-.563-.377-.563-2.178,0-3.747.092-7.165.092s-4.99-.092-7.17-.092c-.35,0-.35.327-.373.563l-.376,3.084c-.045.3-.189.815.305.815,1.056,0,.353-3.059,3-3.059h1.971c.958,0,1.2.114,1.2,1.237V74.1" transform="translate(-18.885 -0.059)" fill="#03571c"/>
      <path id="Path_87460" data-name="Path 87460" d="M113.884,74.057h-.135c-.013,1.342-.6,1.668-1.225,1.857-.318.086-.645.117-.911.188a.856.856,0,0,0-.35.167.453.453,0,0,0-.162.361.545.545,0,0,0,.3.544,1.353,1.353,0,0,0,.568.08h.09c.946,0,1.71-.095,3.279-.095s2.332.095,3.279.095l.373,0a1.381,1.381,0,0,0,.624-.092.545.545,0,0,0,.287-.534.359.359,0,0,0-.195-.307,2.813,2.813,0,0,0-.728-.228,3.329,3.329,0,0,1-1.369-.567,2.076,2.076,0,0,1-.708-1.752V63.206c0-.556.066-.829.194-.942s.386-.164.868-.16h2l.138,0a1.724,1.724,0,0,1,1.844,1.168c.126.3.2.615.31.864a.636.636,0,0,0,.578.471.478.478,0,0,0,.432-.22.8.8,0,0,0,.1-.435,3.865,3.865,0,0,0-.094-.692l-.256-2.145a1.512,1.512,0,0,0-.074-.405.449.449,0,0,0-.436-.278c-2.183,0-3.748.1-7.165.1s-4.985-.1-7.17-.1a.447.447,0,0,0-.432.278,1.523,1.523,0,0,0-.077.408l-.371,3.082a2.806,2.806,0,0,0-.056.453.55.55,0,0,0,.1.347.467.467,0,0,0,.394.164.741.741,0,0,0,.663-.558,11.811,11.811,0,0,1,.618-1.6,1.8,1.8,0,0,1,1.717-.9h1.971c.476,0,.742.038.865.16s.2.386.195.942V74.057h.268V63.206c0-.568-.051-.912-.281-1.138a1.508,1.508,0,0,0-1.047-.233h-1.971a2.178,2.178,0,0,0-2.221,1.617c-.146.39-.239.777-.358,1.044s-.235.4-.419.4c-.121,0-.156-.03-.182-.061l-.043-.184a3.057,3.057,0,0,1,.053-.417l.373-3.087a1.416,1.416,0,0,1,.057-.335c.041-.075.056-.1.186-.113,2.175,0,3.745.093,7.17.093s4.992-.093,7.165-.093c.134.009.147.038.187.113a1.118,1.118,0,0,1,.056.332L123,63.295a3.89,3.89,0,0,1,.092.654.6.6,0,0,1-.059.295.215.215,0,0,1-.207.09c-.153,0-.233-.084-.336-.308a6.755,6.755,0,0,0-.552-1.339,2.024,2.024,0,0,0-1.844-.854l-.147,0,0,.135v-.135h-1.992a1.518,1.518,0,0,0-1.051.233c-.231.226-.276.57-.279,1.138v10.57a2.272,2.272,0,0,0,1.587,2.385,9.923,9.923,0,0,0,1.044.278,1.379,1.379,0,0,1,.307.111l.061.079c0,.2-.045.246-.135.294a1.174,1.174,0,0,1-.5.064c-.113,0-.241,0-.373,0-.926,0-1.7-.094-3.279-.094s-2.356.1-3.279.094h-.09a1.123,1.123,0,0,1-.455-.054c-.084-.049-.135-.094-.143-.3l.069-.159a1.227,1.227,0,0,1,.545-.171,3.077,3.077,0,0,0,1.311-.451,2.05,2.05,0,0,0,.724-1.793h-.132" transform="translate(-18.848 -0.02)" fill="#03571c"/>
      <path id="Path_87461" data-name="Path 87461" d="M168.75,63.062c0-2.219,1.756-1.381,1.756-2.174,0-.282-.117-.332-.818-.332-1.338,0-2.176.1-3.023.1-.821,0-1.734-.1-2.645-.1-.217,0-.8-.066-.8.332,0,.815,2.647.164,2.647,2.29V74.4c0,2.219-1.688,1.615-1.688,2.429a.251.251,0,0,0,.257.284c.608,0,1.618-.1,2.623-.1,1.826,0,2.7.1,3.562.1.537,0,.745-.1.745-.356,0-.742-2.618.333-2.618-2.545V63.062" transform="translate(-31.037 -0.047)" fill="#03571c"/>
      <path id="Path_87462" data-name="Path 87462" d="M168.712,63.024h.132c.013-1.076.39-1.331.793-1.5.207-.079.422-.118.606-.192a.506.506,0,0,0,.361-.487l-.046-.23a.4.4,0,0,0-.318-.2,3.7,3.7,0,0,0-.591-.034c-1.344,0-2.189.1-3.023.1-.813,0-1.723-.1-2.645-.1l-.214,0a1.226,1.226,0,0,0-.44.064.425.425,0,0,0-.279.405.462.462,0,0,0,.16.347,6.9,6.9,0,0,0,1.5.516,1.381,1.381,0,0,1,.992,1.427V74.362c-.008,1.076-.383,1.4-.772,1.623-.2.108-.408.177-.587.279a.583.583,0,0,0-.329.527l.071.261a.378.378,0,0,0,.32.155c.62,0,1.622-.091,2.623-.091,1.82,0,2.684.091,3.562.091a1.516,1.516,0,0,0,.63-.091.418.418,0,0,0,.252-.4.38.38,0,0,0-.176-.315,1.772,1.772,0,0,0-.657-.174,2.406,2.406,0,0,1-1.179-.4,1.931,1.931,0,0,1-.611-1.655V63.024h-.27v11.15c-.012,1.48.717,2.02,1.407,2.2.346.095.681.12.914.169a.742.742,0,0,1,.25.082l.052.092-.095.153a1.3,1.3,0,0,1-.517.067c-.856,0-1.73-.093-3.562-.093-1.013,0-2.027.1-2.623.093l-.1-.036-.025-.113c.005-.154.056-.207.2-.3a4.227,4.227,0,0,0,.911-.5,2.028,2.028,0,0,0,.58-1.63V63.14a1.727,1.727,0,0,0-1.419-1.766c-.343-.1-.674-.165-.905-.25a.714.714,0,0,1-.256-.131l-.069-.143.112-.156a.922.922,0,0,1,.338-.045l.214,0c.9,0,1.814.1,2.645.1.857,0,1.691-.1,3.023-.1a2.111,2.111,0,0,1,.622.051l.049.035.015.112c-.007.14-.045.167-.194.238a3.784,3.784,0,0,0-.952.374,1.753,1.753,0,0,0-.614,1.562h.138" transform="translate(-30.999 -0.01)" fill="#03571c"/>
      <path id="Path_87463" data-name="Path 87463" d="M211.045,63.09c0-2.223,1.759-1.381,1.759-2.17,0-.284-.117-.329-.822-.329-1.337,0-2.176.092-3.019.092-.824,0-1.734-.092-2.646-.092-.211,0-.8-.074-.8.329,0,.814,2.649.16,2.649,2.284V74.426c0,2.224-1.687,1.619-1.687,2.435a.249.249,0,0,0,.259.281c.606,0,1.617-.1,2.624-.1,1.823,0,2.69.1,3.556.1.54,0,.755-.1.755-.353,0-.745-2.628.33-2.628-2.548V63.09" transform="translate(-40.244 -0.055)" fill="#03571c"/>
      <path id="Path_87464" data-name="Path 87464" d="M211.008,63.053h.135c.012-1.077.391-1.334.793-1.5.206-.078.421-.115.6-.192a.494.494,0,0,0,.361-.481l-.043-.232a.41.41,0,0,0-.319-.2,3.541,3.541,0,0,0-.595-.032c-1.342,0-2.189.095-3.019.095-.814,0-1.727-.095-2.646-.095l-.23,0a1.159,1.159,0,0,0-.431.065.418.418,0,0,0-.272.4.458.458,0,0,0,.156.344,6.835,6.835,0,0,0,1.5.516,1.371,1.371,0,0,1,.988,1.424V74.389c-.005,1.079-.383,1.408-.772,1.629-.2.108-.4.177-.585.28a.585.585,0,0,0-.329.526l.075.261a.375.375,0,0,0,.32.153c.617,0,1.626-.1,2.624-.1,1.821,0,2.68.1,3.556.1a1.554,1.554,0,0,0,.637-.092.413.413,0,0,0,.253-.394.369.369,0,0,0-.177-.318,1.741,1.741,0,0,0-.657-.174,2.459,2.459,0,0,1-1.182-.4,1.942,1.942,0,0,1-.612-1.656V63.053h-.268V74.2c-.012,1.479.719,2.021,1.411,2.2a9.263,9.263,0,0,0,.915.17.845.845,0,0,1,.249.081l.053.1-.1.148a1.349,1.349,0,0,1-.525.072c-.855,0-1.727-.1-3.556-.1-1.013,0-2.029.1-2.624.1l-.1-.041-.024-.106c0-.151.055-.208.2-.294a4.47,4.47,0,0,0,.914-.509,2.033,2.033,0,0,0,.58-1.632V63.167a1.725,1.725,0,0,0-1.421-1.761c-.34-.1-.674-.169-.906-.25a.721.721,0,0,1-.257-.131l-.066-.142.107-.155a.916.916,0,0,1,.327-.046l.23.005c.9,0,1.813.092,2.646.092.851,0,1.69-.092,3.019-.092a2.224,2.224,0,0,1,.627.049l.043.036.018.111c-.009.138-.045.165-.192.234a3.714,3.714,0,0,0-.954.371,1.753,1.753,0,0,0-.613,1.565h.134" transform="translate(-40.206 -0.017)" fill="#03571c"/>
      <path id="Path_87465" data-name="Path 87465" d="M228.516,74.049c0,2.78-2.642,1.66-2.642,2.571,0,.519.4.494.819.494.936,0,1.711-.095,3.279-.095s2.343.095,3.283.095c.677,0,1.145.066,1.145-.494,0-.65-3,.025-3-2.85V63.2c0-1.125.234-1.241,1.195-1.241h1.992c2.7-.093,1.946,2.5,2.882,2.5.609,0,.35-.913.3-1.194l-.255-2.148c-.022-.235-.022-.565-.378-.565-2.177,0-3.743.1-7.164.1s-4.99-.1-7.166-.1c-.353,0-.353.33-.379.565l-.368,3.086c-.049.3-.194.816.3.816,1.051,0,.353-3.061,3-3.061h1.962c.963,0,1.192.116,1.192,1.241V74.049" transform="translate(-43.832 -0.049)" fill="#03571c"/>
      <path id="Path_87466" data-name="Path 87466" d="M228.479,74.011h-.131c-.013,1.346-.6,1.67-1.223,1.859-.319.088-.645.118-.91.188a.966.966,0,0,0-.352.163.463.463,0,0,0-.16.361.548.548,0,0,0,.286.542,1.233,1.233,0,0,0,.554.084h.113c.946,0,1.716-.092,3.279-.092s2.333.092,3.283.092l.369,0a1.442,1.442,0,0,0,.625-.092.545.545,0,0,0,.286-.537.357.357,0,0,0-.193-.307c-.354-.2-1.043-.224-1.664-.522a1.979,1.979,0,0,1-1.145-2.021V63.167c0-.558.068-.831.2-.947s.386-.163.865-.161h2l.136,0a1.729,1.729,0,0,1,1.849,1.168c.124.3.2.613.3.864a.651.651,0,0,0,.587.472.488.488,0,0,0,.431-.217.819.819,0,0,0,.1-.436,3.979,3.979,0,0,0-.1-.7l-.135.022.135-.013-.253-2.151a1.521,1.521,0,0,0-.08-.407.439.439,0,0,0-.434-.279c-2.183,0-3.747.1-7.164.1s-4.983-.1-7.166-.1a.443.443,0,0,0-.436.279,1.6,1.6,0,0,0-.076.409l-.368,3.085.133.015-.133-.021a3.068,3.068,0,0,0-.059.458.545.545,0,0,0,.1.348.47.47,0,0,0,.394.164c.343,0,.54-.262.665-.56a11.2,11.2,0,0,1,.616-1.6,1.8,1.8,0,0,1,1.72-.9h1.962c.48,0,.745.04.866.161s.2.389.195.947V74.011h.268V63.167c0-.568-.048-.914-.279-1.141a1.51,1.51,0,0,0-1.05-.235h-1.962a2.184,2.184,0,0,0-2.226,1.619c-.146.392-.24.775-.358,1.047s-.233.4-.417.4c-.117,0-.155-.031-.181-.059l-.044-.185a2.7,2.7,0,0,1,.056-.415v0l.372-3.092a1.124,1.124,0,0,1,.053-.335c.044-.076.056-.1.189-.113,2.173,0,3.74.1,7.166.1s4.992-.1,7.164-.1c.133.008.15.037.189.113a1.372,1.372,0,0,1,.057.334l.253,2.155v0a3.423,3.423,0,0,1,.095.65.577.577,0,0,1-.058.29.207.207,0,0,1-.2.095c-.156,0-.235-.086-.337-.31a7.074,7.074,0,0,0-.554-1.342,2.041,2.041,0,0,0-1.849-.854l-.145,0,0,.135v-.135h-1.992a1.507,1.507,0,0,0-1.05.235c-.229.227-.276.573-.281,1.141V73.732a2.273,2.273,0,0,0,1.591,2.384,10.415,10.415,0,0,0,1.044.278,1.235,1.235,0,0,1,.3.11l.064.077c0,.2-.049.249-.136.3a1.246,1.246,0,0,1-.506.063l-.369,0c-.928,0-1.71-.093-3.283-.093s-2.352.1-3.279.093h-.113a1.068,1.068,0,0,1-.434-.055c-.082-.045-.132-.1-.138-.3l.067-.156a1.287,1.287,0,0,1,.547-.171,3.054,3.054,0,0,0,1.31-.448,2.066,2.066,0,0,0,.721-1.8h-.136" transform="translate(-43.795 -0.011)" fill="#03571c"/>
      <path id="Path_87467" data-name="Path 87467" d="M95.875,67.323v-4c0-2.641,1.645-1.8,1.645-2.431,0-.257-.144-.3-.424-.3-1.17.045-1.9.092-2.665.092-.659,0-1.289-.048-1.968-.092-.3,0-.709-.118-.709.257,0,.838,2.888.118,2.888,2.8v3.674l-.02,2.05c.229,5.7-2.838,6.665-5.251,6.571-4.545,0-5.134-2.994-5.134-6.571V64.3c0-3.833,1.969-2.6,1.969-3.387,0-.145-.046-.329-.258-.329-.444,0-2.107.092-3.3.092s-2.931-.092-3.24-.092c-.187,0-.489.063-.489.375,0,.882,2.439.138,2.439,2.151v7.621c0,4.532,3.344,6.564,7.726,6.564,4.326-.025,6.661-2.163,6.816-6.564V67.35l-.029-.027" transform="translate(-12.686 -0.051)" fill="#03571c"/>
      <path id="Path_87468" data-name="Path 87468" d="M95.838,67.285h.136v-4c.007-1.3.386-1.67.744-1.849a4.373,4.373,0,0,1,.55-.181l.235-.128.113-.272a.389.389,0,0,0-.169-.361.736.736,0,0,0-.388-.076h-.006c-1.168.045-1.9.095-2.659.095-.656,0-1.279-.049-1.959-.095h-.009c-.1,0-.238-.016-.365-.018l-.314.074a.374.374,0,0,0-.163.336.451.451,0,0,0,.173.355,12.725,12.725,0,0,0,1.618.585,1.815,1.815,0,0,1,1.1,1.864v3.674l-.02,2.05c.01.207.013.4.013.588,0,2.458-.665,3.911-1.587,4.758a4.7,4.7,0,0,1-3.24,1.1l-.3,0h-.006c-2.247-.006-3.463-.729-4.156-1.88a9.046,9.046,0,0,1-.844-4.559v-5.07c0-1.9.48-2.478.915-2.718a2.944,2.944,0,0,1,.652-.219l.273-.136a.405.405,0,0,0,.128-.314l-.065-.288a.369.369,0,0,0-.326-.176c-.455,0-2.112.095-3.3.095s-2.924-.095-3.24-.095A.771.771,0,0,0,79,60.5a.462.462,0,0,0-.244.421.6.6,0,0,0,.469.551,11.048,11.048,0,0,1,1.271.389,1.192,1.192,0,0,1,.7,1.211V70.7a6.11,6.11,0,0,0,2.272,5.089,9.041,9.041,0,0,0,5.589,1.608,7.133,7.133,0,0,0,5.065-1.677A6.965,6.965,0,0,0,96,70.7V67.261l-.063-.066-.1.09h0l-.1.091.026.025.1-.088H95.73V70.7a6.68,6.68,0,0,1-1.8,4.825,6.889,6.889,0,0,1-4.882,1.607,8.764,8.764,0,0,1-5.419-1.555A5.833,5.833,0,0,1,81.46,70.7V63.076a1.544,1.544,0,0,0-.422-1.157,2.735,2.735,0,0,0-1.348-.586,2.1,2.1,0,0,1-.511-.171c-.116-.072-.154-.124-.157-.237l.1-.189.25-.053c.3,0,2.061.092,3.24.092s2.859-.092,3.3-.092l.095.045.031.151-.044.115a1.1,1.1,0,0,1-.4.139,1.631,1.631,0,0,0-1.01.67,4.344,4.344,0,0,0-.523,2.463v5.07a9.286,9.286,0,0,0,.883,4.7c.739,1.242,2.087,2.013,4.386,2.008v-.133l0,.133.309.007a4.942,4.942,0,0,0,3.423-1.171c.989-.908,1.673-2.451,1.673-4.952,0-.191-.005-.389-.014-.594l.02-2.043V63.612a2.121,2.121,0,0,0-1.533-2.223c-.371-.133-.737-.207-.994-.294a.979.979,0,0,1-.285-.138l-.074-.149.039-.111.168-.031c.1,0,.235.018.365.018V60.55l-.008.133c.678.045,1.31.092,1.975.092.77,0,1.506-.047,2.669-.092l0-.133v.133a.542.542,0,0,1,.247.036l.041.133-.029.079c-.066.095-.493.106-.884.359s-.729.818-.729,1.993v4.052l.035.04.1-.091" transform="translate(-12.649 -0.013)" fill="#03571c"/>
      <path id="Path_87469" data-name="Path 87469" d="M146.05,75.191a5.745,5.745,0,0,0,4.719,2.833c.459.013,2.169-.087,2.115-.5-.056-.47-.43-.306-1.048-.455-1.769-.437-5.615-6.171-6.722-6.867a4.816,4.816,0,0,0,4.494-5.284c-.043-.885-.465-4.366-5.591-4.366-1.564,0-5.2.087-6.764.087-1.476,0-1.665-.087-2.74-.087-.282,0-.514.115-.514.35,0,.839,2.55-.025,2.55,2.589v10.28c0,2.943-1.9,2.18-1.9,2.924,0,.469.489.4.752.4,1.17,0,2.338-.09,3.6-.09.98,0,1.615.09,2.011.09.54,0,.727-.139.727-.347,0-.846-2.4-.1-2.341-2.528l.011-11.038c0-1.4.726-1.4,1.594-1.4,2.363,0,5.908-.17,6.072,3.815.041,1.051-.8,3.694-4.241,3.63-.455-.011-1.294.118-1.388.355-.121.3-.044.479.547.713s1.767,1.651,4.052,4.9" transform="translate(-24.675 -0.047)" fill="#03571c"/>
      <path id="Path_87470" data-name="Path 87470" d="M146.012,75.153l-.11.076a5.89,5.89,0,0,0,4.827,2.893h.076a8.783,8.783,0,0,0,1.243-.1,2.769,2.769,0,0,0,.609-.159c.16-.068.316-.161.325-.358l0-.038a.567.567,0,0,0-.137-.325.7.7,0,0,0-.444-.159,4.762,4.762,0,0,1-.57-.08h0c-.8-.184-2.23-1.723-3.54-3.294-.659-.785-1.3-1.583-1.846-2.226a8.007,8.007,0,0,0-1.3-1.334l-.069.116.016.134a4.923,4.923,0,0,0,4.62-5.112l-.007-.318a4.736,4.736,0,0,0-.918-2.586c-.778-1.018-2.216-1.908-4.809-1.9-1.57,0-5.2.091-6.764.091-1.468,0-1.652-.091-2.74-.091a.8.8,0,0,0-.433.11.431.431,0,0,0-.215.377.457.457,0,0,0,.153.345c.329.266.916.256,1.438.5a1.654,1.654,0,0,1,.959,1.746v10.28c0,1.447-.451,1.915-.879,2.171a6.442,6.442,0,0,1-.64.275.519.519,0,0,0-.379.479.481.481,0,0,0,.246.451.874.874,0,0,0,.425.082l.217,0c1.177,0,2.345-.091,3.6-.091.97,0,1.594.091,2.011.091a1.364,1.364,0,0,0,.627-.111.4.4,0,0,0,.235-.369.583.583,0,0,0-.452-.532,6.193,6.193,0,0,1-1.21-.451,1.531,1.531,0,0,1-.68-1.455l0-.088.009-11.039c0-.682.171-.966.405-1.109a2.159,2.159,0,0,1,1.054-.156h.567a8.614,8.614,0,0,1,3.513.517,3.271,3.271,0,0,1,1.856,3.172v.071a3.509,3.509,0,0,1-.8,2.1,3.9,3.9,0,0,1-3.18,1.324H142.8l0,.133.006-.133-.062,0a4.011,4.011,0,0,0-.836.1,1.973,1.973,0,0,0-.372.12.468.468,0,0,0-.25.224l-.056.258a.453.453,0,0,0,.178.358,1.779,1.779,0,0,0,.5.274,4.833,4.833,0,0,1,1.335,1.281c.65.783,1.517,1.943,2.658,3.565l.221-.153c-1.143-1.623-2.013-2.79-2.674-3.584a4.919,4.919,0,0,0-1.437-1.357,1.628,1.628,0,0,1-.426-.227l-.088-.156.041-.156.113-.082a3.193,3.193,0,0,1,1.1-.192l.054,0h.122a4.166,4.166,0,0,0,3.387-1.419,3.748,3.748,0,0,0,.868-2.269v-.083a3.542,3.542,0,0,0-2.014-3.4,8.825,8.825,0,0,0-3.624-.544h-.567a2.327,2.327,0,0,0-1.192.194c-.343.207-.537.621-.534,1.339l-.011,11.038v.09a1.786,1.786,0,0,0,1.259,1.9c.3.113.6.177.8.257s.28.149.282.282l-.089.134a1.192,1.192,0,0,1-.5.079c-.379,0-1.022-.091-2.011-.091-1.27,0-2.442.091-3.6.091l-.217,0a.7.7,0,0,1-.3-.049c-.06-.039-.1-.07-.1-.216,0-.117.046-.153.215-.233a2.269,2.269,0,0,0,1.68-2.691V63.453a1.93,1.93,0,0,0-1.368-2.09c-.33-.112-.654-.166-.875-.237l-.243-.12-.064-.143.087-.151a.568.568,0,0,1,.292-.067c1.064,0,1.253.09,2.74.09,1.57,0,5.2-.09,6.764-.09,2.535,0,3.868.854,4.6,1.8a4.446,4.446,0,0,1,.861,2.44l.01.3a4.654,4.654,0,0,1-4.389,4.845l-.371.042.317.2a7.869,7.869,0,0,1,1.238,1.28c.818.961,1.848,2.269,2.845,3.384a7.388,7.388,0,0,0,2.683,2.222c.325.081.586.074.739.108l.143.063.064.169h.005l-.005,0,.005,0-.005,0-.027.03a1.987,1.987,0,0,1-.85.246,8.432,8.432,0,0,1-1.035.074h-.071a5.617,5.617,0,0,1-4.611-2.778l-.11.077" transform="translate(-24.638 -0.009)" fill="#03571c"/>
      <path id="Path_87471" data-name="Path 87471" d="M187.592,62.695c0-1.774,1.669-.908,1.669-1.8,0-.282-.124-.3-.615-.3-.37,0-.651.093-2.649.093-.888,0-2.245-.093-3.185-.093-.488,0-.746.185-.746.393,0,.825,2.647.189,2.647,2.176V74.22c0,2.849-1.779,1.594-1.779,2.668,0,.138.138.256.443.256,1.29,0,2.273-.1,3-.1,1.174,0,3.814-.023,8.03.1,1.921.056,3.3-1.923,3.3-3.739,0-.447-.164-.514-.26-.514-.89,0-.576,2.607-6.365,2.992-3.853.255-3.4-.235-3.49-2.223V62.695" transform="translate(-35.139 -0.056)" fill="#03571c"/>
      <path id="Path_87472" data-name="Path 87472" d="M187.554,62.657h.136a1.2,1.2,0,0,1,.228-.818,1.41,1.41,0,0,1,.808-.359,1.171,1.171,0,0,0,.425-.171.538.538,0,0,0,.2-.451.37.37,0,0,0-.2-.379,1.437,1.437,0,0,0-.545-.059c-.4,0-.651.1-2.649.1-.883,0-2.241-.1-3.185-.1a1.237,1.237,0,0,0-.623.138.459.459,0,0,0-.26.39.475.475,0,0,0,.159.35,6.205,6.205,0,0,0,1.5.508,1.283,1.283,0,0,1,.987,1.318V74.182c-.01,1.406-.412,1.709-.806,1.875-.2.081-.422.112-.618.2a.589.589,0,0,0-.356.591.34.34,0,0,0,.171.291.733.733,0,0,0,.408.1c1.3,0,2.286-.1,3-.1l1.329,0c1.444,0,3.661.012,6.7.1h.083c1.979-.008,3.355-2.022,3.358-3.872a.886.886,0,0,0-.12-.5l-.275-.146c-.3.006-.48.221-.661.468-.567.748-1.395,2.226-5.713,2.525-.608.044-1.109.063-1.515.063a4.395,4.395,0,0,1-1.188-.117.7.7,0,0,1-.571-.6,11.626,11.626,0,0,1-.07-1.44V62.657h-.271V73.621a4.764,4.764,0,0,0,.2,1.835,1.011,1.011,0,0,0,.634.458,4.647,4.647,0,0,0,1.263.126c.417,0,.92-.021,1.533-.062,2.912-.195,4.321-.951,5.1-1.678a5.957,5.957,0,0,0,.808-.954c.187-.254.307-.363.447-.36l.057.032a.606.606,0,0,1,.066.348,4.02,4.02,0,0,1-.876,2.458,2.843,2.843,0,0,1-2.21,1.148h-.075c-3.043-.09-5.263-.1-6.707-.1-.559,0-1,0-1.329,0-.734,0-1.713.1-3,.1a.5.5,0,0,1-.264-.057l-.045-.066c.007-.233.063-.276.2-.348a3.3,3.3,0,0,0,.966-.4,2.3,2.3,0,0,0,.613-1.917V63.124a1.649,1.649,0,0,0-1.42-1.653c-.338-.1-.67-.158-.905-.241a.8.8,0,0,1-.254-.133l-.068-.149.124-.159a1.026,1.026,0,0,1,.49-.1c.933,0,2.289.092,3.185.092,2,0,2.3-.092,2.649-.092a1.316,1.316,0,0,1,.435.037c.034.019.034,0,.044.134a.267.267,0,0,1-.18.285,9.175,9.175,0,0,0-.886.282,1.245,1.245,0,0,0-.6,1.233h.135" transform="translate(-35.101 -0.019)" fill="#03571c"/>
      <path id="Path_87473" data-name="Path 87473" d="M253.071,63.265c0-1.612-.014-1.633,5.084-1.633,4.523,0,2.7,2.732,3.8,2.732.536,0,.419-.771.4-1.074l-.092-2.316a.448.448,0,0,0-.469-.441c-2.063,0-5.831.092-7.5.092-3.586,0-5.271-.092-6.23-.092-.331,0-.517.188-.517.4,0,.936,2.647.191,2.647,2.294V74.165c0,2.848-1.781,1.587-1.781,2.659,0,.143.136.261.443.261,1.288,0,2.274-.093,3-.093,1.174,0,4.976.138,8.541.138,1.914,0,3.345-1.964,3.345-3.782,0-.446-.16-.519-.255-.519-.891,0-.562,3.064-6.372,3.064-3.938,0-4.038-.845-4.038-2.295V70.606c0-1.356-.1-1.632.983-1.632h3.788c2.434,0,1.777,2.478,2.528,2.478.561,0,.425-.846.4-1.15l-.167-4.159c-.023-.63-.279-.585-.442-.585-.473,0-.544,2.155-2.555,2.155h-3.531c-1.005,0-1.005-.164-1.005-1.172V63.265" transform="translate(-49.392 -0.043)" fill="#03571c"/>
      <path id="Path_87474" data-name="Path 87474" d="M253.034,63.227h.134V63.2a2.862,2.862,0,0,1,.074-.872.543.543,0,0,1,.282-.322c.481-.262,1.747-.282,4.594-.278,2.244.011,2.824.657,3.055,1.277a5.992,5.992,0,0,1,.189.922.852.852,0,0,0,.156.369.54.54,0,0,0,.862-.119,1.173,1.173,0,0,0,.091-.5c0-.174-.022-.336-.026-.435l-.1-2.31a.584.584,0,0,0-.6-.572c-2.065,0-5.838.093-7.5.093-3.586,0-5.263-.093-6.23-.093a.71.71,0,0,0-.469.152.5.5,0,0,0-.184.379.638.638,0,0,0,.5.582c.4.153.949.216,1.386.429a1.273,1.273,0,0,1,.758,1.283V74.127c-.009,1.405-.411,1.709-.8,1.871-.2.082-.422.11-.618.2a.583.583,0,0,0-.356.588.35.35,0,0,0,.166.3.762.762,0,0,0,.411.1c1.3,0,2.287-.092,3-.092,1.168,0,4.976.138,8.541.138,2.01-.008,3.478-2.036,3.48-3.915a.841.841,0,0,0-.12-.5l-.271-.153a.543.543,0,0,0-.383.172A10.026,10.026,0,0,1,261.7,74.5c-.781.635-2.11,1.216-4.633,1.216-1.958,0-2.95-.219-3.416-.577s-.488-.851-.488-1.583V70.568c0-.2,0-.383,0-.543,0-.443.027-.693.118-.794s.279-.165.733-.163H257.8a1.645,1.645,0,0,1,1.77,1.155c.113.3.177.6.264.849a1.011,1.011,0,0,0,.168.322.418.418,0,0,0,.327.156.5.5,0,0,0,.469-.29,1.175,1.175,0,0,0,.095-.519c0-.2-.02-.384-.027-.487L260.7,66.1a.9.9,0,0,0-.174-.586.425.425,0,0,0-.336-.128h-.064a.347.347,0,0,0-.264.138c-.411.5-.635,2.014-2.291,2.018h-3.531c-.5,0-.709-.056-.771-.156a1.776,1.776,0,0,1-.1-.882V63.227H252.9V66.5a1.852,1.852,0,0,0,.153,1.043c.188.233.483.259.986.261h3.531a2.166,2.166,0,0,0,1.969-1.141c.168-.278.288-.551.389-.749l.136-.217.061-.046h.064l.142.044a.637.637,0,0,1,.1.412l.17,4.161c.009.118.029.293.029.469a.893.893,0,0,1-.066.4.223.223,0,0,1-.231.137l-.124-.062c-.156-.16-.222-.771-.485-1.33A1.913,1.913,0,0,0,257.8,68.8h-3.788c-.461,0-.752.042-.941.261a1.558,1.558,0,0,0-.176.964v3.535a2.007,2.007,0,0,0,.6,1.8c.571.426,1.6.627,3.578.628,2.927,0,4.343-.774,5.127-1.572a6.07,6.07,0,0,0,.8-1.073,1.76,1.76,0,0,1,.24-.322l.2-.1.053.036a.656.656,0,0,1,.07.351,3.982,3.982,0,0,1-.926,2.485,3,3,0,0,1-2.287,1.165c-3.563,0-7.359-.142-8.541-.142-.735,0-1.712.1-3,.1a.479.479,0,0,1-.262-.057l-.049-.07c.01-.229.066-.274.2-.345a3.229,3.229,0,0,0,.967-.4,2.29,2.29,0,0,0,.615-1.914V63.184a1.608,1.608,0,0,0-.454-1.21,3.129,3.129,0,0,0-1.457-.631,2.346,2.346,0,0,1-.557-.188.288.288,0,0,1-.177-.264c0-.118.1-.255.381-.261.951,0,2.643.09,6.23.09,1.668,0,5.436-.09,7.5-.09a.314.314,0,0,1,.334.307l.095,2.321c.008.113.025.263.025.419a.856.856,0,0,1-.063.382.218.218,0,0,1-.225.133l-.192-.068a1.26,1.26,0,0,1-.15-.561,2.115,2.115,0,0,0-.633-1.378,4.156,4.156,0,0,0-2.821-.723,20.269,20.269,0,0,0-4.481.214.908.908,0,0,0-.649.56,3.053,3.053,0,0,0-.089.965v.027h.135" transform="translate(-49.354 -0.005)" fill="#03571c"/>
      <path id="Path_87475" data-name="Path 87475" d="M37.3,77.236H20.646L37.3,60.615Z" transform="translate(0 -0.061)" fill="#03571c"/>
      <path id="Path_87476" data-name="Path 87476" d="M20.646,77.236V60.615H37.3Z" transform="translate(0 -0.061)" fill="#9aca3c"/>
      <path id="Path_87477" data-name="Path 87477" d="M20.646,77.212v-16.6h16.63Z" transform="translate(0 -0.061)" fill="#8dc63f"/>
      <path id="Path_87478" data-name="Path 87478" d="M31,68.662a4.549,4.549,0,0,0,2.963-.422,4.637,4.637,0,0,0,1.8-2.616c.071-.019.123-.034,0,0l0-.039a4.71,4.71,0,0,0-3.2.372,4.245,4.245,0,0,0-1.583,1.973c-.1.253-.169.465-.207.58-.731.6-1.42,1.228-2.067,1.835a4.472,4.472,0,0,0,.151-.486,4.571,4.571,0,0,0,1.6-2.611,4.7,4.7,0,0,0-.916-3.087,4.716,4.716,0,0,0-1.729,2.715,4.512,4.512,0,0,0,.76,2.864,1.569,1.569,0,0,0,.131.176,1.776,1.776,0,0,1-.433.83l-.055.051a26.2,26.2,0,0,1-2.487,2.125,2.182,2.182,0,0,0,.171-.4,4.723,4.723,0,0,0,1.559-2.844,4.847,4.847,0,0,0-1.141-3.131A4.869,4.869,0,0,0,24.7,69.452a4.784,4.784,0,0,0,1.066,3.039,1.245,1.245,0,0,1-.638.805l-.061.031.009.015a3.94,3.94,0,0,1-1.656.548l-.074,0,.014.138.066-.005a4.5,4.5,0,0,0,2.209-.868,2.615,2.615,0,0,1,.708-.189c.031.043.088.108.151.184a4.444,4.444,0,0,0,2.448,1.588,4.712,4.712,0,0,0,3.128-.789,4.7,4.7,0,0,0-2.646-1.835,4.326,4.326,0,0,0-2.63.5c-.138.07-.253.138-.336.185a3.622,3.622,0,0,0-.429.08,26.851,26.851,0,0,0,2.19-1.893l.007.009.052-.045a2.144,2.144,0,0,1,1.021-.394l.074.1a4.505,4.505,0,0,0,2.435,1.7,4.714,4.714,0,0,0,3.148-.7,4.716,4.716,0,0,0-2.589-1.915,4.621,4.621,0,0,0-3.043.634,2.659,2.659,0,0,0-.62.158c.631-.583,1.362-1.263,2.14-1.9l.153.027" transform="translate(-0.589 -0.833)" fill="#fff"/>
      <path id="Path_87479" data-name="Path 87479" d="M30.5,68.209a14.693,14.693,0,0,1,.5-3.762l-.027.065a11.965,11.965,0,0,0-.6,3.693,13.4,13.4,0,0,1-.122,1.532,1.068,1.068,0,0,0,.164-.261,11.083,11.083,0,0,0,.089-1.267" transform="translate(-2.09 -0.895)" fill="#8dc63f"/>
      <path id="Path_87480" data-name="Path 87480" d="M31.513,71.992l-.265.125-.016.027A13.679,13.679,0,0,1,36.363,73.2a17.544,17.544,0,0,0-3.009-1.006,7.988,7.988,0,0,0-1.842-.2" transform="translate(-2.305 -2.537)" fill="#03571c"/>
      <path id="Path_87481" data-name="Path 87481" d="M32.634,76.326a15.381,15.381,0,0,0-4.886-1.161,1.233,1.233,0,0,0-.222.069l-.031.041a16.7,16.7,0,0,1,5.2,1.076l-.062-.026" transform="translate(-1.491 -3.228)" fill="#03571c"/>
      <path id="Path_87482" data-name="Path 87482" d="M37.665,66.068l-.033.011A14.271,14.271,0,0,0,33.3,68.542l-.113.235c.144-.113.287-.228.43-.336a16.982,16.982,0,0,1,4.048-2.374" transform="translate(-2.73 -1.248)" fill="#03571c"/>
      <path id="Path_87483" data-name="Path 87483" d="M26.986,67.589l-.02.066a11.722,11.722,0,0,0-.419,3.6c0,.515-.005.994-.049,1.413a1.694,1.694,0,0,1,.059.246L26.6,72.9a9.8,9.8,0,0,0,.095-1.641,12.424,12.424,0,0,1,.3-3.667" transform="translate(-1.274 -1.579)" fill="#8dc63f"/>
      <path id="Path_87484" data-name="Path 87484" d="M268.951,60.793v-.458h2.327v.458h-.893v2.273h-.541V60.793Zm3.571-.458.7,1.954.7-1.954h.776v2.73h-.5v-2.2l-.758,2.2H273l-.763-2.2v2.2h-.5v-2.73Z" transform="translate(-54.052)" fill="#03571c"/>
    </g>
  </g>
</svg>
