<svg xmlns="http://www.w3.org/2000/svg" width="250" height="140.625" viewBox="0 0 250 140.625">
  <g id="Group_8315" data-name="Group 8315" transform="translate(-9267 9583)">
    <rect id="Rectangle_4187" data-name="Rectangle 4187" width="250" height="140.625" transform="translate(9267 -9583)" fill="#fff" opacity="0"/>
    <g id="Group_8284" data-name="Group 8284" transform="translate(9200.558 -9601.115)">
      <path id="Path_87485" data-name="Path 87485" d="M100.115,88.216q-.3-1.151-.618-2.713t-.616-3.673q-.128,1.8-.354,4.142t-.58,5.245l-1.488,8.116H91.442l4.286-23.218h5.118l2.825,9.892q.4,1.368.782,3.3t.78,4.526q.127-1.583.392-4.119t.693-6.062l1.387-7.539h5.018l-4.286,23.218h-5.169Z" fill="#385e2e"/>
      <path id="Path_87486" data-name="Path 87486" d="M140.452,95.671a7.2,7.2,0,0,1-1.954,2.39,7.9,7.9,0,0,1-2.887,1.382,15.564,15.564,0,0,1-3.933.446q-7.287,0-7.286-5.333a10.4,10.4,0,0,1,.063-1.092q.063-.59.188-1.26l2.951-16.09h5.017l-3,16.136a7.2,7.2,0,0,0-.15,1.367q0,2.766,2.874,2.763,3.429,0,4.186-4.131l3-16.136h5.017L141.586,92.2A12.417,12.417,0,0,1,140.452,95.671Z" transform="translate(-10.535)" fill="#385e2e"/>
      <path id="Path_87487" data-name="Path 87487" d="M163.881,99.333h-4.993l3.656-19.808h-5.722l.6-3.41h16.488l-.63,3.41h-5.724Z" transform="translate(-20.905)" fill="#385e2e"/>
      <path id="Path_87488" data-name="Path 87488" d="M189.466,89.586h-3.379l-1.79,9.747H179.28l4.287-23.218h8.926a11.417,11.417,0,0,1,2.924.337,6.613,6.613,0,0,1,2.143.96,4.251,4.251,0,0,1,2.018,3.818,7.026,7.026,0,0,1-.152,1.392,7.891,7.891,0,0,1-5.118,6.2l2.118,10.515h-5.017Zm4.79-6.82a2.959,2.959,0,0,0,.1-.793q0-2.449-3.756-2.449h-2.648L186.719,86.2h2.622Q193.575,86.2,194.257,82.767Z" transform="translate(-28.085)" fill="#385e2e"/>
      <path id="Path_87489" data-name="Path 87489" d="M213.921,76.115h5.068L214.7,99.333h-5.068Z" transform="translate(-37.791)" fill="#385e2e"/>
      <path id="Path_87490" data-name="Path 87490" d="M243.074,82.622q-1.287,6.963-8.875,6.964h-3.933l-1.79,9.747h-5.017l4.286-23.218h8.926q6.555,0,6.554,4.922A8.7,8.7,0,0,1,243.074,82.622Zm-5.143.144c.034-.176.059-.349.076-.516a4.685,4.685,0,0,0,.025-.469q0-2.257-3.252-2.256h-2.648L230.9,86.2h2.621Q237.2,86.2,237.931,82.767Z" transform="translate(-42.211)" fill="#385e2e"/>
      <path id="Path_87491" data-name="Path 87491" d="M256.209,76.115h5.017l-3.682,19.834h9.2l-.631,3.384H251.923Z" transform="translate(-51.312)" fill="#385e2e"/>
      <path id="Path_87492" data-name="Path 87492" d="M287.575,93.428h-5.7l-2.369,5.905h-5.422l10.439-23.218h6.807L293.2,99.333h-5.42Zm-.277-12.1c0-.321.012-.689.038-1.105s.07-.9.139-1.441l-.782,2.546-3.4,8.715H287.4Z" transform="translate(-58.398)" fill="#385e2e"/>
      <path id="Path_87493" data-name="Path 87493" d="M314.04,88.216q-.3-1.151-.619-2.713t-.615-3.673q-.13,1.8-.354,4.142t-.582,5.245l-1.487,8.116h-5.017l4.288-23.218h5.118l2.824,9.892q.4,1.368.78,3.3t.782,4.526q.125-1.583.393-4.119t.69-6.062l1.388-7.539h5.018l-4.284,23.218h-5.17Z" transform="translate(-68.4)" fill="#385e2e"/>
      <path id="Path_87494" data-name="Path 87494" d="M346.528,99.333h-5l3.656-19.808h-5.72l.6-3.41h16.49l-.629,3.41h-5.725Z" transform="translate(-79.304)" fill="#385e2e"/>
      <g id="Group_8283" data-name="Group 8283" transform="translate(280.481 76.293)">
        <path id="Path_87495" data-name="Path 87495" d="M372.123,82.709h-1.3v-5.4h-1.492v-.929h4.282v.929h-1.493Z" transform="translate(-369.334 -76.377)" fill="#385e2e"/>
        <path id="Path_87496" data-name="Path 87496" d="M381.3,78.5q0-.55.078-1.546l-1.392,5.756h-.819l-1.395-5.756c.028.331.052.625.065.882s.02.476.02.664v4.21h-1.3V76.377h2.09l.817,3.569c.021.1.046.224.068.369s.048.318.069.514l.093-.884.818-3.569h2.1v6.332h-1.3Z" transform="translate(-371.642 -76.377)" fill="#385e2e"/>
      </g>
    </g>
  </g>
</svg>
