<svg xmlns="http://www.w3.org/2000/svg" xmlns:xlink="http://www.w3.org/1999/xlink" width="250" height="140.625" viewBox="0 0 250 140.625">
  <defs>
    <clipPath id="clip-path">
      <path id="Path_87497" data-name="Path 87497" d="M198.344,394.8h1.883V378.946h6.395v-1.884h-14.7v1.884h6.426Z" transform="translate(-191.918 -377.062)" fill="none"/>
    </clipPath>
    <linearGradient id="linear-gradient" x1="-8.252" y1="13.28" x2="-8.189" y2="13.28" gradientUnits="objectBoundingBox">
      <stop offset="0" stop-color="#808184"/>
      <stop offset="0.062" stop-color="#949598"/>
      <stop offset="0.129" stop-color="#a3a5a8"/>
      <stop offset="0.182" stop-color="#a9abae"/>
      <stop offset="0.409" stop-color="#c0c1c3"/>
      <stop offset="0.486" stop-color="#a8aaac"/>
      <stop offset="1" stop-color="#808184"/>
    </linearGradient>
    <clipPath id="clip-path-2">
      <path id="Path_87498" data-name="Path 87498" d="M170.8,385.837h-6.382l3.192-6.369Zm-12.551,8.177h2.072l3.153-6.291h8.271l3.155,6.291h2.069L167.606,375.3Z" transform="translate(-158.249 -375.295)" fill="none"/>
    </clipPath>
    <linearGradient id="linear-gradient-2" x1="-5.483" y1="12.573" x2="-5.433" y2="12.573" xlink:href="#linear-gradient"/>
    <clipPath id="clip-path-3">
      <rect id="Rectangle_4192" data-name="Rectangle 4192" width="1.924" height="17.737" fill="none"/>
    </clipPath>
    <linearGradient id="linear-gradient-3" x1="-73.616" y1="13.335" x2="-73.134" y2="13.335" xlink:href="#linear-gradient"/>
    <linearGradient id="linear-gradient-4" x1="-91.629" y1="13.474" x2="-91.148" y2="13.474" xlink:href="#linear-gradient"/>
    <clipPath id="clip-path-5">
      <path id="Path_87499" data-name="Path 87499" d="M246.986,377.065V394.8h1.887v-14.51L262.28,394.8h1.213V377.065h-1.915V390.81l-12.891-13.748Z" transform="translate(-246.986 -377.062)" fill="none"/>
    </clipPath>
    <linearGradient id="linear-gradient-5" x1="-9.204" y1="13.405" x2="-9.148" y2="13.405" xlink:href="#linear-gradient"/>
    <clipPath id="clip-path-6">
      <path id="Path_87500" data-name="Path 87500" d="M363.312,377.043v10.418a5.547,5.547,0,0,1-11.092,0V377.043h-1.884v10.418a7.432,7.432,0,0,0,14.864,0V377.043Z" transform="translate(-350.336 -377.043)" fill="none"/>
    </clipPath>
    <linearGradient id="linear-gradient-6" x1="-14.084" y1="13.609" x2="-14.022" y2="13.609" xlink:href="#linear-gradient"/>
    <clipPath id="clip-path-7">
      <path id="Path_87501" data-name="Path 87501" d="M390.722,378.946h12.809v-1.884H388.84V394.8h14.691v-1.887H390.722v-6.184h10.813v-1.881H390.722Z" transform="translate(-388.84 -377.062)" fill="none"/>
    </clipPath>
    <linearGradient id="linear-gradient-7" x1="-15.706" y1="13.716" x2="-15.643" y2="13.716" xlink:href="#linear-gradient"/>
    <clipPath id="clip-path-8">
      <path id="Path_87502" data-name="Path 87502" d="M126.949,381.593c0,2.7,1.915,4.137,6.613,4.975,4.706.9,5.079,1.971,5.079,3.281,0,1.8-1.871,3.058-4.552,3.058a9.037,9.037,0,0,1-6.23-2.342l-.437-.38L126,391.6l.458.384a11.325,11.325,0,0,0,7.593,2.78c3.93,0,6.677-2.067,6.677-5.028,0-2.688-1.909-4.132-6.591-4.984-4.723-.889-5.1-1.966-5.1-3.279,0-1.647,1.853-2.888,4.309-2.888a8.782,8.782,0,0,1,5.273,1.718l.467.34,1.3-1.507-.486-.356a10.785,10.785,0,0,0-6.494-2.046c-3.68,0-6.454,2.091-6.454,4.863" transform="translate(-126 -376.73)" fill="none"/>
    </clipPath>
    <linearGradient id="linear-gradient-8" x1="-5.752" y1="12.931" x2="-5.689" y2="12.931" xlink:href="#linear-gradient"/>
    <clipPath id="clip-path-9">
      <path id="Path_87503" data-name="Path 87503" d="M308.362,391.042c-2.476-2.465-2.088-6.886.86-9.853a7.9,7.9,0,0,1,5.636-2.416,5.937,5.937,0,0,1,4.216,1.514,5.654,5.654,0,0,1,1.633,3.866l-.01,8.528-8.869.013a5.8,5.8,0,0,1-3.466-1.653m-.551-11.357c-3.786,3.8-4.252,9.5-1.036,12.706a7.59,7.59,0,0,0,4.492,2.2h14.307v-1.878h-2.931v-9.069a7.377,7.377,0,0,0-2.139-5.058,7.666,7.666,0,0,0-5.456-2.016,10.181,10.181,0,0,0-7.237,3.117" transform="translate(-304.637 -376.568)" fill="none"/>
    </clipPath>
    <linearGradient id="linear-gradient-9" x1="-8.307" y1="13.342" x2="-8.265" y2="13.342" xlink:href="#linear-gradient"/>
    <clipPath id="clip-path-10">
      <path id="Path_87504" data-name="Path 87504" d="M452.306,384.971a11.169,11.169,0,0,1-8.777.789c5.506,6.451,10.489,4,14.821,1.537a11.167,11.167,0,0,1,8.774-.786c-2.616-3.066-5.114-4.123-7.48-4.123-2.613,0-5.064,1.29-7.338,2.582" transform="translate(-443.529 -382.389)" fill="none"/>
    </clipPath>
    <linearGradient id="linear-gradient-10" x1="-10.187" y1="24.063" x2="-10.147" y2="24.063" gradientUnits="objectBoundingBox">
      <stop offset="0" stop-color="#77787b"/>
      <stop offset="0.004" stop-color="#77787b"/>
      <stop offset="0.166" stop-color="#919295"/>
      <stop offset="0.311" stop-color="#a0a2a5"/>
      <stop offset="0.425" stop-color="#a6a8ab"/>
      <stop offset="0.691" stop-color="#bbbdbf"/>
      <stop offset="1" stop-color="#6d6e70"/>
    </linearGradient>
    <clipPath id="clip-path-11">
      <path id="Path_87505" data-name="Path 87505" d="M443.724,397.636a11.683,11.683,0,0,1,5.574,7.334c2.657-8.458-2.281-11.512-6.867-13.978a11.684,11.684,0,0,1-5.574-7.336c-2.656,8.46,2.281,11.514,6.868,13.979" transform="translate(-436.109 -383.657)" fill="none"/>
    </clipPath>
    <linearGradient id="linear-gradient-11" x1="-12.989" y1="11.306" x2="-12.937" y2="11.306" xlink:href="#linear-gradient-10"/>
    <clipPath id="clip-path-12">
      <path id="Path_87506" data-name="Path 87506" d="M458.314,400.506a7.133,7.133,0,0,0,5.516.922c3.529-1.139,7.285,1.824,7.285,1.824-2.428-6.265-6.919-5.7-10.886-4.808a6.43,6.43,0,0,1-5.129-.9c.471,1.429,3.215,2.956,3.215,2.956" transform="translate(-455.099 -397.55)" fill="none"/>
    </clipPath>
    <linearGradient id="linear-gradient-12" x1="-15.237" y1="37.087" x2="-15.179" y2="37.087" xlink:href="#linear-gradient-10"/>
    <clipPath id="clip-path-13">
      <path id="Path_87507" data-name="Path 87507" d="M444.969,362l-4.684,4.685a4.627,4.627,0,0,0-1.3,3.159.226.226,0,0,0,0,.049c.036,2.839,2.713,5.032,5.924,5.051l.007,0h.066c3.214-.006,5.9-2.187,5.968-5.014l0,0v-.093a4.619,4.619,0,0,0-1.02-2.936l-.028-.032Z" transform="translate(-438.989 -361.998)" fill="none"/>
    </clipPath>
    <linearGradient id="linear-gradient-13" x1="-19.427" y1="19.768" x2="-19.35" y2="19.768" xlink:href="#linear-gradient-10"/>
  </defs>
  <g id="Group_8314" data-name="Group 8314" transform="translate(-9585 9583)">
    <rect id="Rectangle_4188" data-name="Rectangle 4188" width="250" height="140.625" transform="translate(9585 -9583)" fill="#fff" opacity="0"/>
    <g id="Group_8311" data-name="Group 8311" transform="translate(9484 -9890.998)">
      <g id="Group_8286" data-name="Group 8286" transform="translate(162.621 370.367)">
        <g id="Group_8285" data-name="Group 8285" transform="translate(0)" clip-path="url(#clip-path)">
          <rect id="Rectangle_4189" data-name="Rectangle 4189" width="14.705" height="17.737" fill="url(#linear-gradient)"/>
        </g>
      </g>
      <g id="Group_8288" data-name="Group 8288" transform="translate(143.916 369.385)">
        <g id="Group_8287" data-name="Group 8287" clip-path="url(#clip-path-2)">
          <rect id="Rectangle_4190" data-name="Rectangle 4190" width="18.719" height="18.718" transform="translate(0 0)" fill="url(#linear-gradient-2)"/>
        </g>
      </g>
      <g id="Group_8290" data-name="Group 8290" transform="translate(182.93 370.367)">
        <g id="Group_8289" data-name="Group 8289" clip-path="url(#clip-path-3)">
          <rect id="Rectangle_4191" data-name="Rectangle 4191" width="1.924" height="17.737" fill="url(#linear-gradient-3)"/>
        </g>
      </g>
      <g id="Group_8292" data-name="Group 8292" transform="translate(217.616 370.367)">
        <g id="Group_8291" data-name="Group 8291" clip-path="url(#clip-path-3)">
          <rect id="Rectangle_4193" data-name="Rectangle 4193" width="1.924" height="17.737" fill="url(#linear-gradient-4)"/>
        </g>
      </g>
      <g id="Group_8294" data-name="Group 8294" transform="translate(193.215 370.367)">
        <g id="Group_8293" data-name="Group 8293" clip-path="url(#clip-path-5)">
          <rect id="Rectangle_4195" data-name="Rectangle 4195" width="16.507" height="17.737" fill="url(#linear-gradient-5)"/>
        </g>
      </g>
      <g id="Group_8296" data-name="Group 8296" transform="translate(250.631 370.356)">
        <g id="Group_8295" data-name="Group 8295" transform="translate(0 0)" clip-path="url(#clip-path-6)">
          <rect id="Rectangle_4196" data-name="Rectangle 4196" width="14.864" height="17.767" transform="translate(0 0)" fill="url(#linear-gradient-6)"/>
        </g>
      </g>
      <g id="Group_8298" data-name="Group 8298" transform="translate(272.022 370.367)">
        <g id="Group_8297" data-name="Group 8297" transform="translate(0)" clip-path="url(#clip-path-7)">
          <rect id="Rectangle_4197" data-name="Rectangle 4197" width="14.691" height="17.737" fill="url(#linear-gradient-7)"/>
        </g>
      </g>
      <g id="Group_8300" data-name="Group 8300" transform="translate(126 370.182)">
        <g id="Group_8299" data-name="Group 8299" transform="translate(0 0)" clip-path="url(#clip-path-8)">
          <rect id="Rectangle_4198" data-name="Rectangle 4198" width="14.728" height="18.03" transform="translate(0 0)" fill="url(#linear-gradient-8)"/>
        </g>
      </g>
      <g id="Group_8302" data-name="Group 8302" transform="translate(225.243 370.092)">
        <g id="Group_8301" data-name="Group 8301" transform="translate(0 0)" clip-path="url(#clip-path-9)">
          <rect id="Rectangle_4199" data-name="Rectangle 4199" width="22.015" height="18.02" transform="translate(-1.078 0)" fill="url(#linear-gradient-9)"/>
        </g>
      </g>
      <g id="Group_8304" data-name="Group 8304" transform="translate(302.405 373.326)">
        <g id="Group_8303" data-name="Group 8303" transform="translate(0)" clip-path="url(#clip-path-10)">
          <rect id="Rectangle_4200" data-name="Rectangle 4200" width="23.595" height="9.823" transform="translate(0 0)" fill="url(#linear-gradient-10)"/>
        </g>
      </g>
      <g id="Group_8306" data-name="Group 8306" transform="translate(298.283 374.031)">
        <g id="Group_8305" data-name="Group 8305" transform="translate(0)" clip-path="url(#clip-path-11)">
          <rect id="Rectangle_4201" data-name="Rectangle 4201" width="17.754" height="21.314" transform="translate(-1.91 0)" fill="url(#linear-gradient-11)"/>
        </g>
      </g>
      <g id="Group_8308" data-name="Group 8308" transform="translate(308.833 381.749)">
        <g id="Group_8307" data-name="Group 8307" transform="translate(0)" clip-path="url(#clip-path-12)">
          <rect id="Rectangle_4202" data-name="Rectangle 4202" width="16.016" height="6.265" transform="translate(0 -0.562)" fill="url(#linear-gradient-12)"/>
        </g>
      </g>
      <g id="Group_8310" data-name="Group 8310" transform="translate(299.883 361.998)">
        <g id="Group_8309" data-name="Group 8309" transform="translate(0)" clip-path="url(#clip-path-13)">
          <rect id="Rectangle_4203" data-name="Rectangle 4203" width="11.971" height="12.947" transform="translate(-0.001)" fill="url(#linear-gradient-13)"/>
        </g>
      </g>
    </g>
  </g>
</svg>
