<svg xmlns="http://www.w3.org/2000/svg" width="24" height="24" viewBox="0 0 24 24">
  <g id="Group_5353" data-name="Group 5353" transform="translate(0 -0.25)">
    <path id="Path_16617" data-name="Path 16617" d="M12,0A12,12,0,1,1,0,12,12,12,0,0,1,12,0Z" transform="translate(0 0.25)" fill="none"/>
    <path id="Path_16591" data-name="Path 16591" d="M1067.422,564.4a2.178,2.178,0,0,0-1.55-.64,2.131,2.131,0,0,0-1.54.64l-4.39,4.37a.522.522,0,0,0-.14.25l-.96,3.14a.585.585,0,0,0,.14.58.617.617,0,0,0,.42.18h.01a.6.6,0,0,0,.15-.02l3.22-.89a.614.614,0,0,0,.26-.15l4.38-4.37a2.185,2.185,0,0,0,0-3.09Zm-2.04,3.46-3.04,3.03-.02.02-.02.01-1.71.48-.06.01-.04-.04-.1-.1-.04-.04.02-.06.54-1.69.02-.04,3.01-2.97.02-.01.02-.01.04-.01.06-.02.04.04,1.33,1.33Zm1.21-1.2-.19.18-.03.03h-.17l-.03-.03-1.2-1.19-.03-.03v-.18l.03-.03.19-.19a1.027,1.027,0,0,1,1.43.02,1.014,1.014,0,0,1,0,1.42Zm-3.66-10.88h-8.22a2.687,2.687,0,0,0-2.68,2.68v11.78a2.687,2.687,0,0,0,2.68,2.68h1.05a.691.691,0,0,0,.69-.65.677.677,0,0,0-.67-.7h-1.07a1.338,1.338,0,0,1-1.34-1.33v-11.78a1.338,1.338,0,0,1,1.34-1.33h8.22a1.339,1.339,0,0,1,.95.39,1.356,1.356,0,0,1,.39.95v1.85a.684.684,0,0,0,.65.69h.03a.642.642,0,0,0,.46-.19.674.674,0,0,0,.2-.48v-1.88A2.687,2.687,0,0,0,1062.932,555.777Zm-3.06,9.17a.544.544,0,0,0-.4-.17h-3.69a.6.6,0,0,0-.4.17.723.723,0,0,0-.19.53.648.648,0,0,0,.61.65h3.66a.648.648,0,0,0,.61-.65A.776.776,0,0,0,1059.872,564.947Zm1.97-2.85h-6.04a.648.648,0,0,0-.61.65.723.723,0,0,0,.19.53.56.56,0,0,0,.4.17h6.08a.522.522,0,0,0,.39-.17.692.692,0,0,0,.2-.53A.648.648,0,0,0,1061.842,562.1Zm.42-2.5a.566.566,0,0,0-.41-.17h-6.05a.639.639,0,0,0-.61.64.723.723,0,0,0,.19.53.616.616,0,0,0,.4.18h6.06a.655.655,0,0,0,.61-.65A.723.723,0,0,0,1062.262,559.6Z" transform="translate(-1047.032 -552.027)" fill="#2c2c2c"/>
  </g>
</svg>
