<svg xmlns="http://www.w3.org/2000/svg" width="56" height="56" viewBox="0 0 56 56">
  <g id="Group_5735" data-name="Group 5735" transform="translate(-130 -218)">
    <g id="Group_4993" data-name="Group 4993" transform="translate(130 218)">
      <circle id="Ellipse_365" data-name="Ellipse 365" cx="28" cy="28" r="28" fill="#38539a"/>
    </g>
    <path id="Path_16609" data-name="Path 16609" d="M649.948,249.721v2.8h2.8a1.4,1.4,0,0,1,1.4,1.4h0a1.4,1.4,0,0,1-1.4,1.4h-2.8v2.8a1.4,1.4,0,0,1-1.4,1.4h0a1.4,1.4,0,0,1-1.4-1.4l0-2.8h-2.8a1.4,1.4,0,0,1-1.4-1.4h0a1.4,1.4,0,0,1,1.4-1.4h2.8v-2.8a1.4,1.4,0,0,1,1.4-1.4h0A1.4,1.4,0,0,1,649.948,249.721Zm1.74-14.34a8.406,8.406,0,0,1,1.344,10.127,1.39,1.39,0,0,1-2.177.241h0a1.4,1.4,0,0,1-.216-1.681,5.6,5.6,0,0,0-8.619-6.923l-1.869,1.677-1.87-1.676a5.6,5.6,0,0,0-7.96,7.847l10.817,10.835a1.4,1.4,0,0,1,0,1.978h0a1.4,1.4,0,0,1-1.981,0l-10.88-10.9a8.4,8.4,0,0,1,11.871-11.849,8.4,8.4,0,0,1,11.538.319Z" transform="translate(-482.148 0.245)" fill="#f1f2ff"/>
  </g>
</svg>
