<svg xmlns="http://www.w3.org/2000/svg" width="24" height="24" viewBox="0 0 24 24">
  <g id="Group_8959" data-name="Group 8959" transform="translate(-24 -135.5)">
    <g id="Group_5920" data-name="Group 5920" transform="translate(-743 1.5)">
      <g id="Group_5438" data-name="Group 5438" transform="translate(767 134)">
        <g id="Group_4993" data-name="Group 4993">
          <circle id="Ellipse_365" data-name="Ellipse 365" cx="12" cy="12" r="12" fill="#f0bd1f"/>
        </g>
      </g>
      <g id="Icon_Status_Calendar" data-name="Icon / Status / Calendar" transform="translate(773 140)">
        <g id="calendar_2_" data-name="calendar (2)">
          <path id="Shape" d="M10.5,10.5h-9A1.5,1.5,0,0,1,0,9V1.5A1.5,1.5,0,0,1,1.5,0h9A1.5,1.5,0,0,1,12,1.5V9A1.5,1.5,0,0,1,10.5,10.5ZM1,3.52V9a.5.5,0,0,0,.5.5h9A.5.5,0,0,0,11,9V3.52Z" transform="translate(0 1.5)" fill="#fef4e0"/>
          <g id="Group" transform="translate(2)">
            <path id="Path" d="M1,0H.5A.5.5,0,0,0,0,.5v2A.5.5,0,0,0,.5,3H1a.5.5,0,0,0,.5-.5V.5A.5.5,0,0,0,1,0Z" transform="translate(0)" fill="#d99913"/>
            <path id="Path-2" data-name="Path" d="M1,0H.5A.5.5,0,0,0,0,.5v2A.5.5,0,0,0,.5,3H1a.5.5,0,0,0,.5-.5V.5A.5.5,0,0,0,1,0Z" transform="translate(6.5)" fill="#d99913"/>
          </g>
        </g>
      </g>
    </g>
  </g>
</svg>
