<svg xmlns="http://www.w3.org/2000/svg" width="36" height="24" viewBox="0 0 36 24">
  <g id="Group_9156" data-name="Group 9156" transform="translate(-412 -349)">
    <g id="Group_9174" data-name="Group 9174">
      <g id="Group_9171" data-name="Group 9171" transform="translate(-0.383)">
        <g id="money_1_" data-name="money (1)" transform="translate(413 349)">
          <g id="Group_9157" data-name="Group 9157" transform="translate(11.783 4.8)">
            <g id="Group_9156-2" data-name="Group 9156">
              <path id="Path_87511" data-name="Path 87511" d="M186.8,60a.8.8,0,1,0,.8.8A.8.8,0,0,0,186.8,60Z" transform="translate(-186 -60)" fill="#38539a"/>
            </g>
          </g>
          <g id="Group_9165" data-name="Group 9165" transform="translate(5.383)">
            <g id="Group_9164" data-name="Group 9164">
              <path id="Path_87515" data-name="Path 87515" d="M118,0a12,12,0,1,0,12,12A12.014,12.014,0,0,0,118,0Zm0,22.4A10.4,10.4,0,1,1,128.4,12,10.412,10.412,0,0,1,118,22.4Z" transform="translate(-106)" fill="#38539a"/>
            </g>
          </g>
          <g id="Group_9167" data-name="Group 9167" transform="translate(8.583 3.203)">
            <g id="Group_9166" data-name="Group 9166">
              <path id="Path_87516" data-name="Path 87516" d="M160.324,41.978a8.86,8.86,0,0,0-7.474-1.74.8.8,0,1,0,.337,1.564,7.268,7.268,0,0,1,6.131,1.42,7.2,7.2,0,1,1-10.868,2.206.8.8,0,0,0-1.41-.757,8.8,8.8,0,1,0,13.283-2.695Z" transform="translate(-146 -40.031)" fill="#38539a"/>
            </g>
          </g>
          <path id="Path_87518" data-name="Path 87518" d="M958.9,542.418a1.758,1.758,0,0,0-.464-1.267.719.719,0,1,1-.057-1.135,1.971,1.971,0,0,0-.275-2.689,2.973,2.973,0,0,0-1.547-.538v-.466a.852.852,0,1,0-1.7,0v.454h-1.09a.86.86,0,0,0-.861.859v6.075a.86.86,0,0,0,.861.859h1.1v.467a.852.852,0,1,0,1.7,0v-.474A2.826,2.826,0,0,0,958.21,544,1.951,1.951,0,0,0,958.9,542.418Zm-4.143-4.312h1.035a1.279,1.279,0,0,1,.837.247.92.92,0,0,1,0,1.364,1.286,1.286,0,0,1-.837.246h-1.033Zm1.976,4.789a1.183,1.183,0,0,1-.814.268l-1.162,0v-1.939h1.162a1.216,1.216,0,0,1,.8.261.843.843,0,0,1,.31.683A.926.926,0,0,1,956.73,542.9Z" transform="translate(-938.35 -528.67)" fill="#38539a"/>
        </g>
      </g>
      <g id="Group_9169" data-name="Group 9169" transform="translate(4 -17)">
        <g id="Group_9170" data-name="Group 9170">
          <path id="Path_87517" data-name="Path 87517" d="M965.125,544.8v1.5h1.5a.75.75,0,0,1,.75.75h0a.75.75,0,0,1-.75.75h-1.5v1.5a.75.75,0,0,1-.75.75h0a.748.748,0,0,1-.75-.748h0v-1.5h-1.5a.75.75,0,0,1-.75-.75h0a.75.75,0,0,1,.75-.75h1.5v-1.5a.751.751,0,0,1,.75-.75h0a.75.75,0,0,1,.75.75Z" transform="translate(-523.375 -178.053)" fill="#38539a"/>
        </g>
      </g>
      <g id="Group_9173" data-name="Group 9173" transform="translate(-26 -17)">
        <g id="Group_9170-2" data-name="Group 9170">
          <path id="Path_87517-2" data-name="Path 87517" d="M965.125,544.8v1.5h1.5a.75.75,0,0,1,.75.75h0a.75.75,0,0,1-.75.75h-1.5v1.5a.75.75,0,0,1-.75.75h0a.748.748,0,0,1-.75-.748h0v-1.5h-1.5a.75.75,0,0,1-.75-.75h0a.75.75,0,0,1,.75-.75h1.5v-1.5a.751.751,0,0,1,.75-.75h0a.75.75,0,0,1,.75.75Z" transform="translate(-523.375 -178.053)" fill="none"/>
        </g>
      </g>
    </g>
  </g>
</svg>
