<svg id="Group_6016" data-name="Group 6016" xmlns="http://www.w3.org/2000/svg" width="32" height="32" viewBox="0 0 32 32">
  <rect id="Icon_Header_User_background" data-name="Icon Header User background" width="32" height="32" transform="translate(0 0)" fill="none"/>
  <g id="Group_6129" data-name="Group 6129">
    <path id="Path_16657" data-name="Path 16657" d="M970.774,537.41l-1.708-.738L967.6,533.82a2.464,2.464,0,0,0-2.208-1.355h-2.444v-.585a2.506,2.506,0,0,0-2.494-2.521H948.206a2.492,2.492,0,0,0-2.479,2.517v11.088a1.582,1.582,0,0,0,1.56,1.6h.187a3.111,3.111,0,0,0,3.1,3.1h.012a3.111,3.111,0,0,0,3.11-3.107h9.623a3.112,3.112,0,0,0,3.1,3.1h.012a3.114,3.114,0,0,0,3.111-3.1l.606-.008a1.585,1.585,0,0,0,1.582-1.583v-4.1A1.575,1.575,0,0,0,970.774,537.41ZM950.6,546.252h0a1.691,1.691,0,1,1,1.691-1.691A1.694,1.694,0,0,1,950.591,546.252Zm10.929-6.1v3h-8.156a3.111,3.111,0,0,0-5.557,0h-.5a.156.156,0,0,1-.114-.047.172.172,0,0,1-.048-.133v-4.238h0v-6.857a1.074,1.074,0,0,1,1.06-1.091h12.247a1.083,1.083,0,0,1,1.071,1.088v6.859m1.424-4.846h2.444a1.074,1.074,0,0,1,.955.576l1.047,2.026h-4.446Zm3.487,12.362a1.691,1.691,0,1,1,1.693-1.691A1.693,1.693,0,0,1,966.435,546.252Zm3.719-3.1h-.946a3.112,3.112,0,0,0-5.558,0h-.7v-5.243h5.462l1.792.789a.2.2,0,0,1,.108.19l.007,4.084v.008A.165.165,0,0,1,970.154,543.154Z" transform="translate(-942.728 -522.859)" fill="#38539a"/>
    <path id="Path_16658" data-name="Path 16658" d="M2713.43,1489.548l1.824,1.748,4.176-4" transform="translate(-2704.43 -1476)" fill="none" stroke="#38539a" stroke-linecap="round" stroke-linejoin="round" stroke-width="1.6"/>
  </g>
</svg>
