<svg id="Icon_Heart" data-name="Icon/Heart" xmlns="http://www.w3.org/2000/svg" width="32" height="32" viewBox="0 0 32 32">
  <rect id="Icon_Heart_background" data-name="Icon/Heart background" width="32" height="32" fill="none"/>
  <path id="Path_87301" data-name="Path 87301" d="M998.04,545.79a3.963,3.963,0,0,0,.73-5.29,4.119,4.119,0,0,0-1.02-1.02,4.01,4.01,0,0,0-2.25-.67,3.712,3.712,0,0,0-.67.05,6.582,6.582,0,0,0-2.78-2.12,3.927,3.927,0,0,0,.73-5.26,3.809,3.809,0,0,0-1.03-1.01,3.9,3.9,0,0,0-2.24-.67,4.091,4.091,0,0,0-2.25.67,3.93,3.93,0,0,0-1.02,5.48,4.15,4.15,0,0,0,.72.79,6.622,6.622,0,0,0-2.78,2.11c-.2-.02-.4-.04-.6-.04h-.13a3.865,3.865,0,0,0-2.18.67,3.966,3.966,0,0,0-1.02,5.51,3.926,3.926,0,0,0,.72.8,6.741,6.741,0,0,0-4.15,5.63.721.721,0,0,0,.64.77.759.759,0,0,0,.52-.17.678.678,0,0,0,.23-.4l.02-.09a5.3,5.3,0,0,1,10.57,0,.707.707,0,0,0,.334.545l.006.005a.709.709,0,0,0,.18.08.3.3,0,0,0,.1.02.037.037,0,0,0,.03.01h.11a.037.037,0,0,0,.03-.01.425.425,0,0,0,.11-.02c.04-.01.06-.02.1-.03a.01.01,0,0,1,.01-.01.578.578,0,0,0,.23-.18.358.358,0,0,0,.07-.1.262.262,0,0,0,.05-.09.325.325,0,0,0,.04-.14c0-.03.01-.06.01-.08a5.3,5.3,0,0,1,5.65-4.92,5.325,5.325,0,0,1,4.93,4.92.718.718,0,0,0,.71.66h.04a.718.718,0,0,0,.66-.77A6.752,6.752,0,0,0,998.04,545.79Zm-11.98,0a3.976,3.976,0,0,0,.72-5.29,3.958,3.958,0,0,0-1.02-1.02c-.07-.05-.15-.1-.23-.15a5.323,5.323,0,0,1,7.95,0c-.08.05-.15.1-.23.15a3.961,3.961,0,0,0-.29,6.31,6.722,6.722,0,0,0-3.45,3.19A6.76,6.76,0,0,0,986.06,545.79Zm-1.3-5.31a2.685,2.685,0,0,1,.58.42,2.551,2.551,0,0,1-1.68,4.4h-.22a2.56,2.56,0,0,1-2.55-2.48,2.545,2.545,0,0,1,2.48-2.62h.22a1.847,1.847,0,0,1,.23.01,2.619,2.619,0,0,1,.57.12,1.061,1.061,0,0,1,.19.07C984.64,540.43,984.7,540.45,984.76,540.48Zm8.82.51a2.218,2.218,0,0,1,.68-.5.607.607,0,0,1,.18-.09,1.326,1.326,0,0,1,.18-.07,2.939,2.939,0,0,1,.59-.12.756.756,0,0,1,.15-.01h.29a2.545,2.545,0,0,1,2.47,2.48,2.544,2.544,0,0,1-2.47,2.62h-.22a2.553,2.553,0,0,1-1.85-4.31Zm-3.93-4.74h-.15a2.536,2.536,0,1,1-.14-5.07h.15a2.536,2.536,0,1,1,.14,5.07Z" transform="translate(-973.518 -524.995)" fill="#38539a"/>
</svg>
