<svg id="Icon_Heart" data-name="Icon/Heart" xmlns="http://www.w3.org/2000/svg" width="32" height="32" viewBox="0 0 32 32">
  <rect id="Icon_Heart_background" data-name="Icon/Heart background" width="32" height="32" fill="none"/>
  <g id="Group_8023" data-name="Group 8023" transform="translate(-966.582 -558.472)">
    <path id="Path_87302" data-name="Path 87302" d="M979.151,580.648h-4.373A2.782,2.782,0,0,1,972,577.866v-9.759h2.07v1.914a.706.706,0,0,0,1.412,0v-1.914h7.311v1.914a.7.7,0,0,0,1.4,0v-1.914h2.081v3.659a.707.707,0,0,0,1.413,0l0,0V567.4a.709.709,0,0,0-.712-.7h-2.782v-.167a5.064,5.064,0,0,0-10.127,0v.167h-2.782a.653.653,0,0,0-.49.2.707.707,0,0,0-.211.5v10.46a4.2,4.2,0,0,0,4.2,4.2h4.369a.707.707,0,0,0,0-1.414Zm-3.676-14.115a3.656,3.656,0,1,1,7.311-.122v.289h-7.311Z" fill="#38539a"/>
    <path id="Path_87303" data-name="Path 87303" d="M989.51,580.952l-1.725-1.293V576.99a.7.7,0,0,0-1.408,0v3.017a.7.7,0,0,0,.28.56l2.015,1.51a.694.694,0,0,0,.418.14.591.591,0,0,0,.1-.008.7.7,0,0,0,.318-1.258Z" fill="#38539a"/>
    <path id="Path_87304" data-name="Path 87304" d="M987.082,573.271a6.7,6.7,0,1,0,6.7,6.7A6.707,6.707,0,0,0,987.082,573.271Zm5.292,6.7a5.293,5.293,0,1,1-5.292-5.293A5.308,5.308,0,0,1,992.374,579.971Z" fill="#38539a"/>
  </g>
</svg>
