<svg xmlns="http://www.w3.org/2000/svg" width="32" height="32" viewBox="0 0 32 32">
  <g id="Group_6036" data-name="Group 6036" transform="translate(-1193.969 -8)">
    <g id="Group_6016" data-name="Group 6016" transform="translate(1193.969 8)">
      <rect id="Icon_Header_User_background" data-name="Icon Header User background" width="32" height="32" fill="none"/>
      <g id="book" transform="translate(4 -41.336)">
        <path id="Path_16661" data-name="Path 16661" d="M23.387,50.845c-.045,0-.975-.033-2.34,0v-2.8a.708.708,0,0,0-.767-.706,13.48,13.48,0,0,0-8.246,3.623A13.48,13.48,0,0,0,3.79,47.339a.708.708,0,0,0-.767.706v2.874c-.775-.029-1.509-.05-2.294-.073A.708.708,0,0,0,0,51.552V64.445a.708.708,0,0,0,.66.706c2.816.19,7.533.211,11.1,1.731a.709.709,0,0,0,.556,0c3.564-1.52,8.28-1.541,11.1-1.731a.708.708,0,0,0,.66-.706V51.552a.708.708,0,0,0-.689-.707Zm-3.755-2V60.974a15.021,15.021,0,0,0-6.889,3.5V52.3c1.549-1.93,4.483-3.095,6.889-3.46Zm-15.193,0c2.406.365,5.34,1.529,6.889,3.462V64.472a15.021,15.021,0,0,0-6.889-3.5ZM1.416,63.779v-11.5c.507.015,1.049.032,1.607.053v9.217a.708.708,0,0,0,.577.7,14.163,14.163,0,0,1,5.678,2.38,47.956,47.956,0,0,0-7.862-.848Zm21.239,0a47.958,47.958,0,0,0-7.862.848,14.163,14.163,0,0,1,5.678-2.38.708.708,0,0,0,.577-.7V52.259c.652-.015,1.207-.015,1.607-.011Z" fill="#38539a"/>
        <path id="Path_16662" data-name="Path 16662" d="M133.912,166.293a6.594,6.594,0,0,0-2.5-1.021.71.71,0,1,0-.236,1.4,5.162,5.162,0,0,1,1.929.787.708.708,0,1,0,.809-1.162Z" transform="translate(-124.42 -112.359)" fill="#38539a"/>
        <path id="Path_16663" data-name="Path 16663" d="M133.841,251.043a7.566,7.566,0,0,0-2.432-1.008.71.71,0,1,0-.236,1.4,6.323,6.323,0,0,1,1.929.82.708.708,0,0,0,.738-1.208Z" transform="translate(-124.42 -193.122)" fill="#38539a"/>
        <path id="Path_16664" data-name="Path 16664" d="M303.579,167.454a5.162,5.162,0,0,1,1.929-.787.71.71,0,0,0-.236-1.4,6.593,6.593,0,0,0-2.5,1.021.708.708,0,1,0,.809,1.162Z" transform="translate(-288.191 -112.359)" fill="#38539a"/>
        <path id="Path_16665" data-name="Path 16665" d="M305.982,250.035a7.562,7.562,0,0,0-2.432,1.008.708.708,0,1,0,.738,1.208,6.324,6.324,0,0,1,1.929-.82.71.71,0,1,0-.236-1.4Z" transform="translate(-288.9 -193.122)" fill="#38539a"/>
      </g>
    </g>
  </g>
</svg>
