<svg xmlns="http://www.w3.org/2000/svg" width="32" height="32" viewBox="0 0 32 32">
  <g id="Group_6036" data-name="Group 6036" transform="translate(-1193.969 -8)">
    <g id="Group_6016" data-name="Group 6016" transform="translate(1193.969 8)">
      <rect id="Icon_Header_User_background" data-name="Icon Header User background" width="32" height="32" transform="translate(0 0)" fill="none"/>
      <g id="clipboard" transform="translate(-43.037 4)">
        <g id="Group_8004" data-name="Group 8004" transform="translate(47.037 0)">
          <g id="Group_8003" data-name="Group 8003" transform="translate(0 0)">
            <path id="Path_87275" data-name="Path 87275" d="M67.982,4H65.219V2.766c0-.4-.436-.582-.836-.582H62.237A3.253,3.253,0,0,0,59,0a3.309,3.309,0,0,0-3.236,2.182H53.655c-.4,0-.8.182-.8.582V4H50.092a3.091,3.091,0,0,0-3.055,2.945v14.8a2.926,2.926,0,0,0,3.055,2.764H67.982a2.926,2.926,0,0,0,3.055-2.764V6.948A3.091,3.091,0,0,0,67.982,4ZM54.31,3.639h2A.8.8,0,0,0,57,2.984a2.109,2.109,0,0,1,2-1.636,2.073,2.073,0,0,1,1.964,1.636.8.8,0,0,0,.727.655h2.073V6.548H54.31ZM69.582,21.751a1.475,1.475,0,0,1-1.6,1.309H50.091a1.475,1.475,0,0,1-1.6-1.309V6.948a1.636,1.636,0,0,1,1.6-1.491h2.764V7.312a.764.764,0,0,0,.8.691H64.382a.8.8,0,0,0,.836-.691V5.457h2.764a1.636,1.636,0,0,1,1.6,1.491v14.8Z" transform="translate(-47.037 0)" fill="#38539a"/>
            <path id="Path_87276" data-name="Path 87276" d="M104.938,230.538a.727.727,0,0,0-1.018-.036l-2.327,2.218-.982-1.018a.727.727,0,0,0-1.018-.036.764.764,0,0,0,0,1.055l1.491,1.527a.654.654,0,0,0,.509.218.727.727,0,0,0,.509-.218l2.836-2.691a.691.691,0,0,0,.042-.976C104.966,230.566,104.952,230.552,104.938,230.538Z" transform="translate(-95.738 -214.281)" fill="#38539a"/>
            <path id="Path_87277" data-name="Path 87277" d="M207.639,256.034h-8.364a.727.727,0,0,0,0,1.455h8.364a.727.727,0,1,0,0-1.455Z" transform="translate(-188.003 -238.214)" fill="#38539a"/>
            <path id="Path_87278" data-name="Path 87278" d="M104.938,146.946a.727.727,0,0,0-1.018-.036l-2.327,2.218-.982-1.018a.727.727,0,0,0-1.018-.036.764.764,0,0,0,0,1.055l1.491,1.527a.654.654,0,0,0,.509.218.727.727,0,0,0,.509-.218l2.836-2.691a.691.691,0,0,0,.042-.976C104.966,146.974,104.952,146.96,104.938,146.946Z" transform="translate(-95.738 -136.507)" fill="#38539a"/>
            <path id="Path_87279" data-name="Path 87279" d="M207.639,172.442h-8.364a.727.727,0,0,0,0,1.455h8.364a.727.727,0,1,0,0-1.455Z" transform="translate(-188.003 -160.44)" fill="#38539a"/>
          </g>
        </g>
      </g>
    </g>
  </g>
</svg>
