<svg id="Group_6018" data-name="Group 6018" xmlns="http://www.w3.org/2000/svg" width="66.239" height="80" viewBox="0 0 66.239 80">
  <g id="Group_6011" data-name="Group 6011" transform="translate(15.167)">
    <path id="Path_16650" data-name="Path 16650" d="M218.042,66.126H204.647c-1.512,0-2.748.789-2.748,2.315v8.7h13.9V70.7h2.245Z" transform="translate(-194.095 -66.126)" fill="#c3c4c5"/>
    <path id="Path_16651" data-name="Path 16651" d="M206.236,74.412c-2.452-.161-2.452-2.245-1.952-4.6.3-1.4,2.616-2.553,3.381-3.688h-3.017c-1.512,0-2.748.789-2.748,2.315v8.7h13.9v-.052C213.756,77.005,208.528,74.561,206.236,74.412Z" transform="translate(-194.095 -66.126)" fill="#f8f8f8" style="mix-blend-mode: multiply;isolation: isolate"/>
    <path id="Path_16652" data-name="Path 16652" d="M215.449,88.907A2.291,2.291,0,0,0,213.2,86.4h-13.9c-1.416,0-2.245.855-2.245,2.51V90.3c0,2.615,1.637,4.756,3.637,4.756h11.114c2,0,3.637-2.14,3.637-4.756Z" transform="translate(-191.503 -76.989)" fill="#d2d1d1"/>
    <path id="Path_16653" data-name="Path 16653" d="M214.959,220.426c0,1.386-1.341,2.248-3,2.248h-18.6c-1.9,0-3-.765-3-2.248V219.18c0-2.341,2.19-4.258,4.866-4.258h14.872c2.676,0,4.866,1.916,4.866,4.258Z" transform="translate(-187.909 -145.865)" fill="#777776"/>
    <path id="Path_16654" data-name="Path 16654" d="M200.6,92.6a.518.518,0,0,1-.5.535h0a.518.518,0,0,1-.5-.535V89.235a.519.519,0,0,1,.5-.535h0a.518.518,0,0,1,.5.535Z" transform="translate(-192.861 -78.223)" fill="#b5b6b7"/>
    <path id="Path_16655" data-name="Path 16655" d="M205.881,92.6a.518.518,0,0,1-.5.535h0a.519.519,0,0,1-.5-.535V89.235a.519.519,0,0,1,.5-.535h0a.518.518,0,0,1,.5.535Z" transform="translate(-195.692 -78.223)" fill="#b5b6b7"/>
    <path id="Path_16656" data-name="Path 16656" d="M211.165,92.6a.518.518,0,0,1-.5.535h0a.518.518,0,0,1-.5-.535V89.235a.518.518,0,0,1,.5-.535h0a.519.519,0,0,1,.5.535Z" transform="translate(-198.525 -78.223)" fill="#b5b6b7"/>
    <path id="Path_16657" data-name="Path 16657" d="M216.449,92.6a.518.518,0,0,1-.5.535h0a.518.518,0,0,1-.5-.535V89.235a.519.519,0,0,1,.5-.535h0a.518.518,0,0,1,.5.535Z" transform="translate(-201.356 -78.223)" fill="#b5b6b7"/>
    <path id="Path_16658" data-name="Path 16658" d="M221.734,92.6a.518.518,0,0,1-.5.535h0a.518.518,0,0,1-.5-.535V89.235a.519.519,0,0,1,.5-.535h0a.519.519,0,0,1,.5.535Z" transform="translate(-204.188 -78.223)" fill="#b5b6b7"/>
    <path id="Path_16659" data-name="Path 16659" d="M227.074,92.6a.519.519,0,0,1-.5.535h0a.518.518,0,0,1-.5-.535V89.235a.518.518,0,0,1,.5-.535h0a.519.519,0,0,1,.5.535Z" transform="translate(-207.05 -78.223)" fill="#b5b6b7"/>
    <path id="Path_16660" data-name="Path 16660" d="M232.357,92.6a.518.518,0,0,1-.5.535h0a.519.519,0,0,1-.5-.535V89.235a.519.519,0,0,1,.5-.535h0a.518.518,0,0,1,.5.535Z" transform="translate(-209.881 -78.223)" fill="#b5b6b7"/>
    <rect id="Rectangle_3487" data-name="Rectangle 3487" width="29.505" height="61.576" rx="4" transform="translate(0 13.363)" fill="#fff"/>
    <path id="Path_16662" data-name="Path 16662" d="M188.571,152.859v-54.3a3.647,3.647,0,0,1,3.636-3.636h-3.485a3.647,3.647,0,0,0-3.637,3.636v54.3a3.648,3.648,0,0,0,3.637,3.637h3.485A3.648,3.648,0,0,1,188.571,152.859Z" transform="translate(-185.085 -81.557)" fill="#e6e6e6" opacity="0.401" style="mix-blend-mode: multiply;isolation: isolate"/>
  </g>
  <g id="Group_6014" data-name="Group 6014" transform="translate(0 28.572)">
    <g id="Group_6012" data-name="Group 6012" transform="translate(0 0)">
      <path id="Path_16663" data-name="Path 16663" d="M258.163,163.622H240.446L237.125,126.8h23.529Z" transform="translate(-237.125 -123.484)" fill="#fff"/>
      <rect id="Rectangle_3494" data-name="Rectangle 3494" width="23.529" height="3.321" fill="#c3c4c5"/>
    </g>
    <g id="Group_6013" data-name="Group 6013" transform="translate(0)" style="mix-blend-mode: multiply;isolation: isolate">
      <path id="Path_16664" data-name="Path 16664" d="M246.066,156.567c-4.733-5.352-5.277-14.4-4.84-21.176a24.075,24.075,0,0,1,2.121-8.586h-6.222l3.322,36.817h17.716l.316-4.676C254.065,160.141,249.438,160.381,246.066,156.567Z" transform="translate(-237.125 -123.484)" fill="#e6e6e6" opacity="0.464" style="mix-blend-mode: multiply;isolation: isolate"/>
      <path id="Path_16665" data-name="Path 16665" d="M245.126,119.206h-8v3.321h6.222A29.58,29.58,0,0,1,245.126,119.206Z" transform="translate(-237.125 -119.206)" fill="#f8f8f8"/>
    </g>
    <path id="Path_16666" data-name="Path 16666" d="M260.3,222.112H246.87c-1.523,0-2.145-.9-2.145-1.868v-9.2h17.439v9.273A1.652,1.652,0,0,1,260.3,222.112Z" transform="translate(-241.403 -170.902)" fill="#c3c4c5"/>
    <path id="Path_16667" data-name="Path 16667" d="M253.2,219.829c-1.523,0-2.146-.9-2.146-1.868V211.04h-6.332v9.2c0,.969.622,1.868,2.145,1.868H260.3a1.652,1.652,0,0,0,1.868-1.8v-.484Z" transform="translate(-241.403 -170.902)" fill="#f8f8f8" style="mix-blend-mode: multiply;isolation: isolate"/>
    <path id="Path_16668" data-name="Path 16668" d="M244.725,231.149v.415c0,.969.622,1.868,2.145,1.868H260.3a1.652,1.652,0,0,0,1.868-1.8v-.484Z" transform="translate(-241.403 -182.222)" fill="#777776"/>
    <path id="Path_16669" data-name="Path 16669" d="M263.214,228.141a2.335,2.335,0,1,1,4.67,0Z" transform="translate(-251.811 -179.214)" fill="#9ea0a3"/>
    <path id="Path_16670" data-name="Path 16670" d="M239.054,123.2h-.783l.392-2.8Z" transform="translate(-237.77 -119.875)" fill="#c3c4c5" style="mix-blend-mode: multiply;isolation: isolate"/>
    <path id="Path_16671" data-name="Path 16671" d="M243.941,123.2h-.784l.392-2.8Z" transform="translate(-240.521 -119.875)" fill="#c3c4c5" style="mix-blend-mode: multiply;isolation: isolate"/>
    <path id="Path_16672" data-name="Path 16672" d="M248.829,123.2h-.783l.392-2.8Z" transform="translate(-243.272 -119.875)" fill="#c3c4c5" style="mix-blend-mode: multiply;isolation: isolate"/>
    <path id="Path_16673" data-name="Path 16673" d="M253.716,123.2h-.783l.391-2.8Z" transform="translate(-246.024 -119.875)" fill="#c3c4c5" style="mix-blend-mode: multiply;isolation: isolate"/>
    <path id="Path_16674" data-name="Path 16674" d="M258.6,123.2h-.783l.391-2.8Z" transform="translate(-248.775 -119.875)" fill="#c3c4c5" style="mix-blend-mode: multiply;isolation: isolate"/>
    <path id="Path_16675" data-name="Path 16675" d="M263.491,123.2h-.784l.392-2.8Z" transform="translate(-251.526 -119.875)" fill="#c3c4c5" style="mix-blend-mode: multiply;isolation: isolate"/>
    <path id="Path_16676" data-name="Path 16676" d="M268.379,123.2H267.6l.392-2.8Z" transform="translate(-254.277 -119.875)" fill="#c3c4c5" style="mix-blend-mode: multiply;isolation: isolate"/>
    <path id="Path_16677" data-name="Path 16677" d="M273.267,123.2h-.783l.392-2.8Z" transform="translate(-257.029 -119.875)" fill="#c3c4c5" style="mix-blend-mode: multiply;isolation: isolate"/>
    <path id="Path_16678" data-name="Path 16678" d="M278.154,123.2h-.783l.392-2.8Z" transform="translate(-259.78 -119.875)" fill="#c3c4c5" style="mix-blend-mode: multiply;isolation: isolate"/>
    <path id="Path_16679" data-name="Path 16679" d="M283.042,123.2h-.783l.392-2.8Z" transform="translate(-262.532 -119.875)" fill="#c3c4c5" style="mix-blend-mode: multiply;isolation: isolate"/>
    <path id="Path_16680" data-name="Path 16680" d="M287.929,123.2h-.783l.392-2.8Z" transform="translate(-265.283 -119.875)" fill="#c3c4c5" style="mix-blend-mode: multiply;isolation: isolate"/>
  </g>
  <g id="Group_6017" data-name="Group 6017" transform="translate(35.466 43.92)">
    <g id="Group_6016" data-name="Group 6016">
      <path id="Path_16683" data-name="Path 16683" d="M116.959,217.411c0,1.5-1.33,2.429-2.982,2.429H95.52c-1.881,0-2.981-.827-2.981-2.429v-1.348a4.734,4.734,0,0,1,4.829-4.6H112.13a4.734,4.734,0,0,1,4.83,4.6Z" transform="translate(-89.42 -183.76)" fill="#777776"/>
      <g id="Group_6015" data-name="Group 6015" transform="translate(0.842)">
        <path id="Path_16684" data-name="Path 16684" d="M115.73,143.178c-.026-.3-.043-.609-.043-.927v-1.758c0-1.474-.285-1.958-1.05-1.958H88.132c-1.061,0-1.56.381-1.56,1.958v1.758c0,.318-.012.628-.029.927Z" transform="translate(-86.543 -138.536)" fill="#c3c4c5"/>
        <path id="Path_16685" data-name="Path 16685" d="M89.406,145.837v-2.5c0-.281-.166-.509-.372-.509s-.372.228-.372.509v2.5Z" transform="translate(-87.858 -141.195)" fill="#ededed" style="mix-blend-mode: multiply;isolation: isolate"/>
        <path id="Path_16686" data-name="Path 16686" d="M94.2,145.837v-2.5c0-.281-.166-.509-.372-.509s-.372.228-.372.509v2.5Z" transform="translate(-90.829 -141.195)" fill="#ededed" style="mix-blend-mode: multiply;isolation: isolate"/>
        <path id="Path_16687" data-name="Path 16687" d="M98.99,145.837v-2.5c0-.281-.166-.509-.371-.509s-.372.228-.372.509v2.5Z" transform="translate(-93.801 -141.195)" fill="#ededed" style="mix-blend-mode: multiply;isolation: isolate"/>
        <path id="Path_16688" data-name="Path 16688" d="M103.784,145.837v-2.5c0-.281-.166-.509-.372-.509s-.371.228-.371.509v2.5Z" transform="translate(-96.774 -141.195)" fill="#ededed" style="mix-blend-mode: multiply;isolation: isolate"/>
        <path id="Path_16689" data-name="Path 16689" d="M108.626,145.837v-2.5c0-.281-.166-.509-.372-.509s-.372.228-.372.509v2.5Z" transform="translate(-99.777 -141.195)" fill="#ededed" style="mix-blend-mode: multiply;isolation: isolate"/>
        <path id="Path_16690" data-name="Path 16690" d="M112.991,145.837v-2.5c0-.281-.166-.509-.372-.509s-.372.228-.372.509v2.5Z" transform="translate(-102.483 -141.195)" fill="#ededed" style="mix-blend-mode: multiply;isolation: isolate"/>
        <path id="Path_16691" data-name="Path 16691" d="M117.784,145.837v-2.5c0-.281-.167-.509-.372-.509s-.371.228-.371.509v2.5Z" transform="translate(-105.455 -141.195)" fill="#ededed" style="mix-blend-mode: multiply;isolation: isolate"/>
        <path id="Path_16692" data-name="Path 16692" d="M122.575,145.837v-2.5c0-.281-.167-.509-.371-.509s-.372.228-.372.509v2.5Z" transform="translate(-108.427 -141.195)" fill="#ededed" style="mix-blend-mode: multiply;isolation: isolate"/>
        <path id="Path_16693" data-name="Path 16693" d="M127.367,145.837v-2.5c0-.281-.167-.509-.372-.509s-.372.228-.372.509v2.5Z" transform="translate(-111.399 -141.195)" fill="#ededed" style="mix-blend-mode: multiply;isolation: isolate"/>
        <path id="Path_16694" data-name="Path 16694" d="M132.21,145.837v-2.5c0-.281-.167-.509-.372-.509s-.371.228-.371.509v2.5Z" transform="translate(-114.402 -141.195)" fill="#ededed" style="mix-blend-mode: multiply;isolation: isolate"/>
        <path id="Path_16695" data-name="Path 16695" d="M136.575,145.837v-2.5c0-.281-.166-.509-.371-.509s-.372.228-.372.509v2.5Z" transform="translate(-117.108 -141.195)" fill="#ededed" style="mix-blend-mode: multiply;isolation: isolate"/>
        <path id="Path_16696" data-name="Path 16696" d="M141.367,145.837v-2.5c0-.281-.166-.509-.372-.509s-.372.228-.372.509v2.5Z" transform="translate(-120.08 -141.195)" fill="#ededed" style="mix-blend-mode: multiply;isolation: isolate"/>
        <path id="Path_16697" data-name="Path 16697" d="M146.159,145.837v-2.5c0-.281-.167-.509-.372-.509s-.372.228-.372.509v2.5Z" transform="translate(-123.052 -141.195)" fill="#ededed" style="mix-blend-mode: multiply;isolation: isolate"/>
        <path id="Path_16698" data-name="Path 16698" d="M150.951,145.837v-2.5c0-.281-.166-.509-.371-.509s-.372.228-.372.509v2.5Z" transform="translate(-126.024 -141.195)" fill="#ededed" style="mix-blend-mode: multiply;isolation: isolate"/>
        <path id="Path_16699" data-name="Path 16699" d="M155.794,145.837v-2.5c0-.281-.166-.509-.371-.509s-.372.228-.372.509v2.5Z" transform="translate(-129.028 -141.195)" fill="#ededed" style="mix-blend-mode: multiply;isolation: isolate"/>
        <path id="Path_16700" data-name="Path 16700" d="M160.16,145.837v-2.5c0-.281-.166-.509-.372-.509s-.371.228-.371.509v2.5Z" transform="translate(-131.735 -141.195)" fill="#ededed" style="mix-blend-mode: multiply;isolation: isolate"/>
      </g>
      <path id="Path_16701" data-name="Path 16701" d="M86.148,154.947v23.894a3.792,3.792,0,0,0,3.609,3.93h22.066a3.792,3.792,0,0,0,3.609-3.93V154.947Z" transform="translate(-85.456 -148.713)" fill="#fff"/>
      <path id="Path_16703" data-name="Path 16703" d="M89.608,178.841V154.947h-3.46v23.894a3.792,3.792,0,0,0,3.609,3.93h3.46A3.791,3.791,0,0,1,89.608,178.841Z" transform="translate(-85.456 -148.713)" fill="#e6e6e6" opacity="0.402" style="mix-blend-mode: multiply;isolation: isolate"/>
      <path id="Path_16704" data-name="Path 16704" d="M115.1,151.752a.9.9,0,0,1-.762.994H85.089a.9.9,0,0,1-.762-.994h0a.9.9,0,0,1,.762-1h29.249a.9.9,0,0,1,.762,1Z" transform="translate(-84.327 -146.115)" fill="#c3c4c5"/>
      <path id="Path_16705" data-name="Path 16705" d="M84.4,154.05a.828.828,0,0,0,.734.739h29.249a.829.829,0,0,0,.734-.739Z" transform="translate(-84.373 -148.157)" fill="#9ea0a3" style="mix-blend-mode: multiply;isolation: isolate"/>
    </g>
  </g>
</svg>
