<svg id="Illustration_Verified-No" data-name="Illustration / Verified-No" xmlns="http://www.w3.org/2000/svg" xmlns:xlink="http://www.w3.org/1999/xlink" width="212.669" height="220" viewBox="0 0 212.669 220">
  <defs>
    <clipPath id="clip-path">
      <path id="Mask" d="M0,0H198.948L178.367,204.875,31.557,220Z" fill="none"/>
    </clipPath>
    <clipPath id="clip-path-2">
      <path id="Clip_2" data-name="Clip 2" d="M0,0H24.684V11.359H0Z" fill="none"/>
    </clipPath>
  </defs>
  <path id="Shape" d="M2.321,159.765a27.3,27.3,0,0,0,27.763,38.089c43.866-4.453,109.592-11.228,155.151-15.936,22.607-2.334,33.862-28.582,19.987-46.585L108.467,9.81a25.171,25.171,0,0,0-43.009,5.3Z" transform="translate(1.372 22)" fill="#ffe2e2"/>
  <g id="Girl">
    <path id="Mask-2" data-name="Mask" d="M0,0H198.948L178.367,204.875,31.557,220Z" fill="none"/>
    <g id="Girl-2" data-name="Girl" clip-path="url(#clip-path)">
      <g id="Girl-3" data-name="Girl" transform="translate(32.93 9.625)">
        <g id="Group_3" data-name="Group 3" transform="translate(7.96 399.337)">
          <path id="Clip_2-2" data-name="Clip 2" d="M0,0H24.684V11.359H0Z" transform="translate(0 0)" fill="none"/>
          <g id="Group_3-2" data-name="Group 3" transform="translate(0 0)" clip-path="url(#clip-path-2)">
            <path id="Fill_1" data-name="Fill 1" d="M24.54,1.3C22.307-.115,18.914.016,16.377,0A42.253,42.253,0,0,0,7.11,1,.3.3,0,0,0,6.7.839C2.826,2.645,1.295,6.72.012,10.518a.292.292,0,0,0,.2.358,37.872,37.872,0,0,0,14.615-.562c2.086-.439,2.992-2.019,4.337-3.529A39.684,39.684,0,0,1,24.6,1.757.293.293,0,0,0,24.54,1.3" transform="translate(0 0)" fill="#1f2033"/>
          </g>
        </g>
        <path id="Fill_4" data-name="Fill 4" d="M32.9,23.525c-.49-1.03-.338-4.781-1.065-7.986a28.054,28.054,0,0,0-3.067-7.288,13.636,13.636,0,0,0-3.081-4.029c-1.493-1.259-3.3-1.562-5.129-1.943a12.206,12.206,0,0,1-4-1.425C10.879-1.625,5.14,1.745.7,5.2A.287.287,0,0,0,.389,5.4c-.008.023-.013.045-.02.067L.1,5.677c-.19.153-.079.377.1.451C-.083,7.81.639,9.41,1.324,10.976q1.513,3.457,3.036,6.911c2.083,4.742,4.386,9.432,5.694,14.463,1.034,3.978,1.872,8.241,4.67,11.421a13.611,13.611,0,0,0,5.021,3.279c1.977.888,3.258,2.289,4.9,3.633,1.587,1.3,3.077,1.4,5.063,1.127a15.405,15.405,0,0,1,8.925,1.366.293.293,0,0,0,.4-.1c.938-2.05.45-4.141-.03-6.248a11.962,11.962,0,0,1-.454-4.054c.187-1.566,1.211-2.838,1.48-4.378.433-2.476-1.173-5.21-2.316-7.291-1.439-2.62-3.524-4.879-4.806-7.577" transform="translate(64.092 0)" fill="#ab614f"/>
        <path id="Fill_6" data-name="Fill 6" d="M10.6,13.32a3.827,3.827,0,0,0-.085-2.365c-.429-1.742-.705-2.922.14-4.6a9.132,9.132,0,0,0,1.06-2.487A7.388,7.388,0,0,0,11.112.2a.293.293,0,0,0-.569.074C8.661,1.242,7.255,3.2,6.068,4.9,4.589,7.017,3.261,9.258,1.889,11.446,1.058,12.771-.014,14.5,0,16.182a23.1,23.1,0,0,1,4.735,3.553,5.6,5.6,0,0,0,1.388.846c.089-.587.108-1.187.148-1.51a5.133,5.133,0,0,1,2.371-4.011c.653-.485,1.61-.955,1.953-1.741" transform="translate(83.972 30.937)" fill="#1f2033"/>
        <path id="Fill_8" data-name="Fill 8" d="M17.043,0Q12.288.85,7.587,1.962c-1.52.363-3.042.732-4.546,1.154a5.4,5.4,0,0,0-2.6,1.333.3.3,0,0,0-.41.395c1.689,3.293,5.734,6.781,9.731,5.976,1.879-.379,3.165-1.882,4.2-3.392A28.544,28.544,0,0,0,17.4.362c.076-.228-.155-.392-.356-.357" transform="translate(84.279 398.09)" fill="#1f2033"/>
        <path id="Fill_10" data-name="Fill 10" d="M48.4,18.131a3.5,3.5,0,0,0-.684-5.056,5.607,5.607,0,0,0,.879-1.358c.685-1.591.376-1.065-.832-1.616l-8.4-3.555c-1.953-.892-5.315-2.5-6-4.744-.007-.052-.018-.1-.022-.153V1.627a4.825,4.825,0,0,0,0-1.055A.733.733,0,0,0,33.247.4a.232.232,0,0,0-.266-.235C32.348-.186,31.141.133,30.525.15Q25.446.288,20.382.71a30.926,30.926,0,0,0-3.139.211.274.274,0,0,0-.463-.109l-.013.013a.264.264,0,0,0-.318.054,22.1,22.1,0,0,1-4.782,4.18C9.627,6.226,2.107,8.847,1.051,9.362c-.548.268-.594.71-.606,1.3a5.8,5.8,0,0,0,.829,2.042c.025.049.053.1.078.145A7.305,7.305,0,0,0,.191,18.757c.92,3.934,4.085,7.53,6.433,10.712,4.7,6.367,9.733,12.512,13.342,19.567a3.043,3.043,0,0,0,1.828,3.483c1.914,1.956,6.106-.158,5.3-3.157l2.583-4.112a3.168,3.168,0,0,0,.484-1.31c2.591-3,4.439-8.113,5.322-10.833L48.4,18.131" transform="translate(50.551 58.067)" fill="#fea689"/>
        <path id="Fill_12" data-name="Fill 12" d="M111.139,43.893c-.428-1.615-.835-3.235-1.208-4.864q-1.056-4.614-1.791-9.3c-.5-3.193-.7-6.439-1.27-9.619a18.615,18.615,0,0,0-3.135-7.327,38.693,38.693,0,0,0-5.406-6.47c-4.043-3.735-9.6-4.662-14.879-5.306-.4.735-.814,1.448-1.225,2.134-2.047,3.412-4.466,6.57-6.761,9.813C72.6,17,70.028,21.247,67.131,25.274A128.151,128.151,0,0,1,56.69,38.121a.294.294,0,0,1-.41,0c-5.323-5.235-7.918-12.6-12.13-18.656C40.1,13.639,36.229,7.2,35.778,0c-2.759,1.119-5.489,2.307-8.16,3.626a77.962,77.962,0,0,0-8.409,4.78A22.4,22.4,0,0,0,12.9,14.064a38.048,38.048,0,0,0-3.9,8.192L5.043,32.423,1.094,42.589c-.348.9-1.417,2.507-1,3.469.317.729,1.563,1.146,2.238,1.418A30.683,30.683,0,0,1,7.2,49.517c1.44.885,2.78,1.909,4.273,2.71a24.81,24.81,0,0,0,8.722,2.723,63.853,63.853,0,0,1,0,11.4,19.681,19.681,0,0,0,2.187,10.811c1.259,2.465,2.629,5.952,5.806,6.16a36.508,36.508,0,0,0,5.884-.536q3.405-.347,6.817-.626,13.077-1.071,26.211-1.148c3.936-.023,7.882.175,11.815.09,2.777-.059,5.838-.484,7.824-2.635a10.8,10.8,0,0,0,2.2-4.678c.616-2.314,1.155-4.652,1.73-6.976,1.108-4.482,2.452-10.216,3.59-14.858.4-.112.789-.225,1.136-.312q4.782-1.194,9.562-2.405c1.518-.384,3.055-.727,4.559-1.161A2.55,2.55,0,0,0,111.4,46.71a4.625,4.625,0,0,0-.259-2.817" transform="translate(15.915 67.235)" fill="#fafafa"/>
        <path id="Fill_14" data-name="Fill 14" d="M35.026,4.132a21.884,21.884,0,0,0-2.67-2,4.84,4.84,0,0,0-1.238-.276,4.552,4.552,0,0,1-1.9-.963A4.552,4.552,0,0,0,26.279,0c-2.543.1-5,1.5-7.432,2.154a23.567,23.567,0,0,1-5.147.834c-1.655.065-3.307-.056-4.955.162A31.7,31.7,0,0,0,.49,5.816a.229.229,0,0,0-.181.078l-.157.067c-.341.147-.047.647.292.5l.1-.042c2.664.885,5.529.662,8.284,1.026C11.773,7.838,14.668,8.542,17.6,9a51.712,51.712,0,0,0,8.763.564c1.512-.022,3.024-.092,4.534-.185.631-.039,1.305-.038,1.975-.066A6.692,6.692,0,0,0,34.259,8.18,8.681,8.681,0,0,0,36,5.046a3.659,3.659,0,0,0-.972-.914" transform="translate(68.414 137.495)" fill="#1f2033"/>
        <path id="Fill_16" data-name="Fill 16" d="M121.708,126.207c-.7-10.53-2.461-20.968-2.91-31.519-.434-10.227,1.105-20.237,2.051-30.386,1.022-10.973.562-21.5-3.93-31.7C112.281,22.061,106.6,11.9,101.366,1.645a.605.605,0,0,0-.309-1.086,196.632,196.632,0,0,0-57.72,4.324.494.494,0,0,0-.406.539.467.467,0,0,0-.075.329c1.253,9.945,2.245,19.811-.083,29.685-1.995,8.461-5.545,16.441-7.961,24.775C32.237,69.093,32.088,77.7,32.7,86.877a99.549,99.549,0,0,1,.293,14.2,54.465,54.465,0,0,1-3.15,13.846c-2.764,7.893-6.568,15.515-8.007,23.816-1.573,9.077,1.714,17.658,1.26,26.688C22.317,180.9,9.562,192.4,6.657,207.3c-1.961,10.051,2.217,20.261-.368,30.232C4.151,245.778-1.483,253.4.367,262.269a.579.579,0,0,0,.558.426A330.391,330.391,0,0,1,42.5,260.82a.589.589,0,0,0,.579-.58c.293-6.847.592-13.785,2.541-20.4,1.624-5.51,4.357-10.612,6.053-16.1,3.68-11.906-.645-24.648,4.053-36.348,2.138-5.323,5.33-10.143,7.537-15.435,2.138-5.126,2.844-10.507,3.217-16.009.45-6.638.861-13.094,2.9-19.478.977-3.061,2.148-6.053,3.3-9.052a56.461,56.461,0,0,1,1.881,12.25c.125,5.778-.884,11.495-1.456,17.224-1.143,11.44.537,22.879-.021,34.33a67.127,67.127,0,0,1-3.292,17.188c-1.517,4.792-3.035,9.646-2.758,14.734.34,6.232,2.741,12.136,3.487,18.316a54.81,54.81,0,0,1-1.408,20.194.587.587,0,0,0,.559.735,281.594,281.594,0,0,0,32.46-1.9c2.768-.326,8.32,0,10.122-2.658,2.006-2.959.658-8.45.313-11.709a47.161,47.161,0,0,1,.842-16.053c1.115-4.82,2.64-9.55,3.321-14.463,1.358-9.785-1.237-19.458-1.769-29.2-.575-10.535,2.224-20.684,4.465-30.873a102.785,102.785,0,0,0,2.285-29.338" transform="translate(0 142.015)" fill="#f6ddc7"/>
        <path id="Fill_18" data-name="Fill 18" d="M44.768,28.51a97.818,97.818,0,0,1-3.12,14.8c-1.4,4.8-3.076,9.522-4.129,14.415-2.071,9.626-.319,19.159.443,28.818a55.883,55.883,0,0,1-.5,14.609,78.293,78.293,0,0,1-3.652,12.607c-3.039,8.306-6.808,16.47-8.194,25.274-1.5,9.494.68,18.962.379,28.479-.3,9.487-4.415,17.612-8.461,25.974a76.62,76.62,0,0,0-4.8,11.74A74.978,74.978,0,0,0,10.409,219.2,113.041,113.041,0,0,1,8.35,234.411a110.786,110.786,0,0,1-4.124,12.884C2.765,251.253,1.211,255.267,0,259.362q7.553-.772,15.127-1.2c.017-.1.035-.2.051-.307A124.2,124.2,0,0,0,16.405,242.8c.194-5.284.312-10.584.952-15.838a73.685,73.685,0,0,1,3.37-14.53c3-8.95,7.181-17.468,9.881-26.524a62.493,62.493,0,0,0,2.543-13.63c.356-5.246.092-10.505-.047-15.753a81.788,81.788,0,0,1,.753-16.144A75.548,75.548,0,0,1,38,126.425c1.741-4.561,3.651-9.062,5.18-13.7a77.109,77.109,0,0,0,3.288-14.671,77.529,77.529,0,0,0,.313-15.647c-.421-5.3-1.245-10.611-.856-15.941.384-5.256,2.03-10.289,3.208-15.4a90.724,90.724,0,0,0,2.106-15.1c.614-10.461-.3-20.941-1.494-31.328-.179-1.549-.371-3.1-.56-4.644q-2.4.425-4.777.9a97.975,97.975,0,0,1,.364,27.61" transform="translate(3.061 145.165)" fill="#38539a"/>
        <path id="Fill_20" data-name="Fill 20" d="M36.447.544c-.6,8.621.644,17.245,1.378,25.838a90.658,90.658,0,0,1,.306,14.305,64.539,64.539,0,0,1-3.187,14.668c-1.416,4.519-2.766,9.085-2.827,13.859s.907,9.485,1.676,14.177a58.634,58.634,0,0,1,.764,14.442,78.846,78.846,0,0,1-2.476,13.5c-2.282,8.673-5.473,17.078-7.694,25.769a79.776,79.776,0,0,0-2.3,12.818c-.431,4.958-.038,9.909.061,14.87a48.056,48.056,0,0,1-1.869,14.921c-1.327,4.438-3.16,8.7-4.823,13.016A72.153,72.153,0,0,0,11.48,206.58c-.81,4.759-1.181,9.576-1.689,14.373a97.458,97.458,0,0,1-2.536,14.554c-1.208,4.6-2.719,9.109-4.177,13.631-1.1,3.4-2.183,6.847-3.078,10.34,2.9-.132,5.8-.217,8.7-.273,1.984-7.818,1.648-16.028,2.009-24.038a72.435,72.435,0,0,1,2.053-15.2,99.5,99.5,0,0,1,4.7-13.218c3.58-8.521,7.617-16.918,9.4-26.054,1.9-9.734,1.656-19.7,2.352-29.552a93.344,93.344,0,0,1,2.2-15.062c1.123-4.723,2.589-9.355,4.051-13.981,2.815-8.9,5.665-17.948,5.988-27.358.353-10.283-1.827-20.46-.86-30.751.942-10.03,3.761-19.859,3.714-29.984-.046-9.9-3.329-19.395-3.894-29.237A43.226,43.226,0,0,1,40.4,0Q38.42.254,36.447.544" transform="translate(21.544 143.693)" fill="#3a3a3a"/>
        <path id="Fill_22" data-name="Fill 22" d="M33.562,86.844c-.629-9.528-2.21-19.135-1.018-28.684.688-5.511,2.8-10.651,3.841-16.079a29.761,29.761,0,0,0-.807-13.834c-1.54-5.577-3.494-10.889-3.977-16.708A48.007,48.007,0,0,1,32.064,0c-.592.054-1.184.108-1.775.167a50.21,50.21,0,0,0,1.331,21c1.391,4.928,3.424,9.8,3.574,14.988.147,5.039-1.608,9.823-2.907,14.617-5.09,18.791,2.98,38.123-1.91,56.914-2.345,9.011-6.666,17.342-9.32,26.252-2.785,9.35-2.139,18.744-2.843,28.347-.722,9.841-4.554,18.8-7.908,27.953A88.176,88.176,0,0,0,5.051,217.85,172.434,172.434,0,0,1,3.72,235.5c-.761,5.35-1.782,10.659-2.623,16-.442,2.813-.826,5.639-1.1,8.468.545,0,1.091.012,1.636.017,1.091-11.864,4.3-23.8,4.89-35.544.517-10.242.8-20.06,4.093-29.881,2.917-8.7,6.941-17.1,8.58-26.19,1.735-9.618.269-19.506,2.281-29.087,1.881-8.96,6.028-17.2,8.959-25.822a67.079,67.079,0,0,0,3.123-26.614" transform="translate(37.453 142.867)" fill="#e3a780"/>
        <path id="Fill_24" data-name="Fill 24" d="M3.9,24.436A116.848,116.848,0,0,1,6.04,38.672,50.483,50.483,0,0,1,4.868,53.266,116.958,116.958,0,0,0,2.211,67.536a70.7,70.7,0,0,0,.166,14.941c.577,4.918,1.473,9.767,1.57,14.733a93.233,93.233,0,0,1-1.154,15.574c-.756,5.054-1.71,10.089-2.793,15.1l.214-.558a60.739,60.739,0,0,1,1.815,10.707A40.759,40.759,0,0,0,5.55,126.036a91.305,91.305,0,0,1,3.5-14.6,44.957,44.957,0,0,0,2.068-7.463,29.723,29.723,0,0,0,.11-7.526C10.69,90.9,9.585,85.489,9.789,79.878a58.471,58.471,0,0,1,2.989-15.787c1.552-4.844,3.2-9.722,2.976-14.88-.226-5.205-1.961-10.176-3.323-15.158C9.4,22.955,8.931,11.446,8.713,0q-3.7.113-7.4.369C.709,8.466,2.351,16.5,3.9,24.436" transform="translate(72.474 142.052)" fill="#38539a"/>
        <path id="Fill_26" data-name="Fill 26" d="M33.736,66.491c.492-4.743,1.223-9.477,1.242-14.255.032-8.335-2.761-16.2-5.529-23.944-2.692-7.533-5.636-15.439-5.094-23.578A26.3,26.3,0,0,1,25.093.081C23.295.03,21.494,0,19.688,0c-2.581,16.2,7.479,31.456,7.936,47.549.274,9.63-2.109,19.1-1.989,28.725.06,4.857.953,9.632,1.434,14.453a45.642,45.642,0,0,1-.563,13.41c-1.643,8.374-5.235,16.184-8.163,24.15a82.878,82.878,0,0,0-3.634,12.247,89.274,89.274,0,0,0-1.372,13.03A129.231,129.231,0,0,1,12.2,167.551a45.315,45.315,0,0,1-4.249,12.984c-.584,1.182-1.18,2.353-1.77,3.528.033,2.387.017,4.773-.1,7.161A67.128,67.128,0,0,1,2.79,208.412C1.274,213.2-.244,218.059.033,223.146.344,228.863,2.387,234.3,3.3,239.933a183.009,183.009,0,0,1,7.154-23.576c3.329-8.807,6.958-17.541,8.834-26.807,1.872-9.249,2.281-18.7,3.469-28.049a97.82,97.82,0,0,1,2.83-14.512c1.217-4.271,2.766-8.438,4.32-12.6,3.053-8.167,6.208-16.475,6.8-25.26.649-9.592-1.986-18.956-3.02-28.419a66.744,66.744,0,0,1,.046-14.224" transform="translate(66.926 142.015)" fill="#e3a780"/>
        <path id="Fill_28" data-name="Fill 28" d="M34.434,73.576c.34-4.761,1.083-9.488,1.287-14.261.446-10.478-3.093-20.07-6.682-29.736C25.545,20.167,22.234,10.115,24.027.086,23.443.051,22.856.028,22.27,0c-2.983,16.962,7.941,32.5,11.006,48.827,1.873,9.974-.844,19.711-.758,29.7.084,9.689,3.082,19.024,3.933,28.63,1.607,18.146-5.594,35.325-10.69,52.354a132.061,132.061,0,0,0-5.137,25.515c-.931,9.819-1.559,19.529-5.2,28.8-3.832,9.75-8.63,18.824-11.382,29A195.775,195.775,0,0,0,0,262.148c.587-.008,1.174-.021,1.761-.033.849-5.106,1.81-10.191,3.031-15.223,2.259-9.305,5.79-17.89,9.727-26.585a80.858,80.858,0,0,0,6.958-25.544c1-9.606,1.705-19.053,4.164-28.433,4.394-16.768,11.812-33.014,12.7-50.539.461-9.077-1.6-17.778-3.053-26.669a66.379,66.379,0,0,1-.856-15.548" transform="translate(73.248 142.252)" fill="#38539a"/>
        <path id="Fill_30" data-name="Fill 30" d="M33.381,111.327c-1.044-7.881-2.281-15.746-2.842-23.681-.64-9.053.331-17.618,1.5-26.578,1.336-10.216-.885-19.527-3.247-29.409q-1.374-5.753-2.75-11.506C22.746,13.367,19.158,6.693,15.684,0a94.015,94.015,0,0,0,4.639,21.706c2.986,8.679,6.96,16.423,6.151,25.888-.381,4.45-1.347,8.827-1.8,13.269A91.279,91.279,0,0,0,24.446,75.1c.5,9.19,1.975,18.288,2.856,27.442a103.918,103.918,0,0,1-.664,28.008c-1.466,8.411-3.858,16.618-5.9,24.9a128.843,128.843,0,0,0-3.918,25.518c-.4,9.445-1.583,18.167-4.8,27.1C6.433,223.545-2.6,239.986.707,256.74q4.191-.276,8.374-.679c3.272-13.6,10.373-26.043,14.229-39.51,2.4-8.387,2.808-16.856,2.883-25.535a113.944,113.944,0,0,1,2.042-22.264c.9-6.125,2.426-12.175,3.76-18.237a102.768,102.768,0,0,0,2.285-29.338c-.22-3.291-.546-6.572-.9-9.85" transform="translate(87.427 146.948)" fill="#3a3a3a"/>
        <path id="Fill_32" data-name="Fill 32" d="M4.119.148A40,40,0,0,0,.137,21.125c.03.37.61.373.579,0A39.44,39.44,0,0,1,4.619.441c.164-.334-.335-.628-.5-.293" transform="translate(35.959 100.707)" fill="#1f2033"/>
        <path id="Fill_34" data-name="Fill 34" d="M.562.21C.511-.158-.047,0,0,.364A127.766,127.766,0,0,1,1.125,13.439c.013.373.592.374.58,0A129.555,129.555,0,0,0,.562.21" transform="translate(109.056 104.771)" fill="#1f2033"/>
        <path id="Fill_38" data-name="Fill 38" d="M64.853,6.248a23.856,23.856,0,0,0-1.4-3.168A9.141,9.141,0,0,0,61.711.441,2.95,2.95,0,0,0,59.48.032C57.962.1,56.446.19,54.93.277Q45.832.8,36.753,1.608,18.843,3.2,1.054,5.885a.237.237,0,0,0-.2.32.314.314,0,0,0-.444.248Q.022,10.277,0,14.118a.3.3,0,0,0,.289.29c5.424.194,10.715-1.181,16-2.187q8.336-1.586,16.754-2.7,8.17-1.077,16.39-1.7,4.25-.325,8.508-.527c2.176-.1,4.759.221,6.775-.716a.291.291,0,0,0,.133-.328" transform="translate(41.859 146.911)" fill="#f6ddc7"/>
        <path id="Fill_40" data-name="Fill 40" d="M21.669,0A37.906,37.906,0,0,0,16.98,4.568c-2.357,2.8-3.574,6.24-5.708,9.173C7.68,18.677,1.947,22.049.015,28.11a.291.291,0,0,0,.529.224,23.61,23.61,0,0,1,3.167-4.318,12.137,12.137,0,0,1,5.049-2.7c3.037-1.077,4.047-3.552,5.74-6.058a14.414,14.414,0,0,1,2.558-2.72,30.62,30.62,0,0,1,1.78-6.547c.825-2.054,1.808-4.034,2.83-5.995" transform="translate(36.857 323.456)" fill="#1f2033"/>
        <path id="Fill_42" data-name="Fill 42" d="M.762,33.65c4.3-3.4,4.829-9.324,7.221-13.965,1.655-3.21,3.865-6.086,5.473-9.335a54.866,54.866,0,0,0,3.762-10A.291.291,0,0,0,16.69.13C9.934,9.442,3.063,19.067,0,30.3q.41,1.67.762,3.352" transform="translate(72.689 239.208)" fill="#1f2033"/>
        <path id="Fill_44" data-name="Fill 44" d="M16.8.142a21.7,21.7,0,0,1-4.979,6.047C10.07,7.66,8.2,8.952,6.593,10.592A28.54,28.54,0,0,0,.017,21.319c-.122.354.437.505.558.154A27.835,27.835,0,0,1,8,10.034C9.71,8.463,11.68,7.21,13.352,5.6A22.248,22.248,0,0,0,17.3.435a.29.29,0,0,0-.5-.293" transform="translate(10.152 363.481)" fill="#1f2033"/>
        <path id="Fill_46" data-name="Fill 46" d="M10.238.127Q5.028,7.443.049,14.92c-.207.311.294.6.5.293Q5.529,7.737,10.738.42c.217-.3-.286-.595-.5-.293" transform="translate(103.83 310.527)" fill="#1f2033"/>
        <path id="Fill_48" data-name="Fill 48" d="M1.4,0a1.452,1.452,0,0,0,0,2.9A1.452,1.452,0,0,0,1.4,0" transform="translate(64.053 111.438)" fill="#3a3a3a"/>
        <path id="Fill_50" data-name="Fill 50" d="M1.4,0a1.452,1.452,0,0,0,0,2.9A1.452,1.452,0,0,0,1.4,0" transform="translate(26.412 105.489)" fill="#3a3a3a"/>
        <path id="Fill_52" data-name="Fill 52" d="M1.4,0a1.452,1.452,0,0,0,0,2.9A1.452,1.452,0,0,0,1.4,0" transform="translate(45.522 108.536)" fill="#3a3a3a"/>
        <path id="Fill_54" data-name="Fill 54" d="M1.4,0a1.452,1.452,0,0,0,0,2.9A1.452,1.452,0,0,0,1.4,0" transform="translate(85.479 113.904)" fill="#3a3a3a"/>
        <path id="Fill_56" data-name="Fill 56" d="M1.4,0a1.452,1.452,0,0,0,0,2.9A1.452,1.452,0,0,0,1.4,0" transform="translate(103.72 116.806)" fill="#3a3a3a"/>
        <path id="Fill_58" data-name="Fill 58" d="M1.4,0a1.452,1.452,0,0,0,0,2.9A1.452,1.452,0,0,0,1.4,0" transform="translate(77.371 101.282)" fill="#3a3a3a"/>
        <path id="Fill_60" data-name="Fill 60" d="M1.4,0a1.452,1.452,0,0,0,0,2.9A1.452,1.452,0,0,0,1.4,0" transform="translate(95.902 103.894)" fill="#3a3a3a"/>
        <path id="Fill_62" data-name="Fill 62" d="M1.4,0a1.452,1.452,0,0,0,0,2.9A1.452,1.452,0,0,0,1.4,0" transform="translate(115.301 106.36)" fill="#3a3a3a"/>
        <path id="Fill_64" data-name="Fill 64" d="M1.4,0a1.452,1.452,0,0,0,0,2.9A1.452,1.452,0,0,0,1.4,0" transform="translate(58.406 97.8)" fill="#3a3a3a"/>
        <path id="Fill_66" data-name="Fill 66" d="M1.4,0a1.452,1.452,0,0,0,0,2.9A1.452,1.452,0,0,0,1.4,0" transform="translate(40.455 94.173)" fill="#3a3a3a"/>
        <path id="Fill_68" data-name="Fill 68" d="M1.4,0a1.452,1.452,0,0,0,0,2.9A1.452,1.452,0,0,0,1.4,0" transform="translate(25.254 89.24)" fill="#3a3a3a"/>
        <path id="Fill_70" data-name="Fill 70" d="M1.4,0a1.452,1.452,0,0,0,0,2.9A1.452,1.452,0,0,0,1.4,0" transform="translate(53.05 84.162)" fill="#3a3a3a"/>
        <path id="Fill_72" data-name="Fill 72" d="M1.4,0a1.452,1.452,0,0,0,0,2.9A1.452,1.452,0,0,0,1.4,0" transform="translate(86.637 89.24)" fill="#3a3a3a"/>
        <path id="Fill_74" data-name="Fill 74" d="M1.4,0a1.452,1.452,0,0,0,0,2.9A1.452,1.452,0,0,0,1.4,0" transform="translate(108.207 93.883)" fill="#3a3a3a"/>
        <path id="Fill_76" data-name="Fill 76" d="M1.4,0a1.452,1.452,0,0,0,0,2.9A1.452,1.452,0,0,0,1.4,0" transform="translate(36.546 77.344)" fill="#3a3a3a"/>
        <path id="Fill_78" data-name="Fill 78" d="M1.4,0a1.452,1.452,0,0,0,0,2.9A1.452,1.452,0,0,0,1.4,0" transform="translate(52.326 121.303)" fill="#3a3a3a"/>
        <path id="Fill_80" data-name="Fill 80" d="M1.4,0a1.452,1.452,0,0,0,0,2.9A1.452,1.452,0,0,0,1.4,0" transform="translate(34.519 114.919)" fill="#3a3a3a"/>
        <path id="Fill_82" data-name="Fill 82" d="M1.4,0a1.452,1.452,0,0,0,0,2.9A1.452,1.452,0,0,0,1.4,0" transform="translate(74.331 125.075)" fill="#3a3a3a"/>
        <path id="Fill_84" data-name="Fill 84" d="M1.4,0a1.452,1.452,0,0,0,0,2.9A1.452,1.452,0,0,0,1.4,0" transform="translate(96.336 127.541)" fill="#3a3a3a"/>
        <path id="Fill_86" data-name="Fill 86" d="M1.4,0a1.452,1.452,0,0,0,0,2.9A1.452,1.452,0,0,0,1.4,0" transform="translate(61.591 134.36)" fill="#3a3a3a"/>
        <path id="Fill_88" data-name="Fill 88" d="M1.4,0a1.452,1.452,0,0,0,0,2.9A1.452,1.452,0,0,0,1.4,0" transform="translate(40.31 131.314)" fill="#3a3a3a"/>
        <path id="Fill_90" data-name="Fill 90" d="M1.4,0a1.452,1.452,0,0,0,0,2.9A1.452,1.452,0,0,0,1.4,0" transform="translate(83.162 136.391)" fill="#3a3a3a"/>
        <path id="Fill_92" data-name="Fill 92" d="M1.4,0a1.452,1.452,0,0,0,0,2.9A1.452,1.452,0,0,0,1.4,0" transform="translate(99.087 80.535)" fill="#3a3a3a"/>
        <path id="Fill_94" data-name="Fill 94" d="M1.4,0a1.452,1.452,0,0,0,0,2.9A1.452,1.452,0,0,0,1.4,0" transform="translate(112.985 79.229)" fill="#3a3a3a"/>
        <path id="Fill_96" data-name="Fill 96" d="M1.4,0a1.452,1.452,0,0,0,0,2.9A1.452,1.452,0,0,0,1.4,0" transform="translate(45.811 70.815)" fill="#3a3a3a"/>
        <path id="Fill_98" data-name="Fill 98" d="M6.812,1.135A21.149,21.149,0,0,0,.28,0a.291.291,0,0,0,0,.581A20.611,20.611,0,0,1,6.658,1.7c.354.121.505-.44.154-.56" transform="translate(44.107 141.105)" fill="#1f2033"/>
        <path id="Fill_100" data-name="Fill 100" d="M21.067,1.5c-.177-.1,1.746-1.641.6-1.426-3.836-.508-8.3,1.664-10.535,3.876C8.171,6.887,8.969,11.437,7.583,15.071,5.964,19.312,2.546,22.564.878,26.787a11.347,11.347,0,0,0-.791,5.694c.16,1.218.488,2.4.7,3.609a14.425,14.425,0,0,1,0,4.63,24.857,24.857,0,0,0-.527,6.926c.133,1,.309,3.3,1.439,3.726.59.22,1.09-.2,1.565-.507A7.8,7.8,0,0,1,6.91,49.583c2.446-.227,4.878.383,7.326.281a15.213,15.213,0,0,0,5.934-1.479c1.83-.879,2.19-2.123,2.467-4.071.682-4.78-.437-9.553-.935-14.292-.617-5.859.608-11.413,1.452-17.177.566-3.863,1.872-9.094-2.086-11.346" transform="translate(45.011 3.713)" fill="#ab614f"/>
        <path id="Fill_102" data-name="Fill 102" d="M18.488.6c-.15-2.069-.434,1.85-3.168,1.683C13.5,2.176,11.078,3.351,9.308,3.815L2.48,5.6q.01-.6.02-1.2C2.518,3.282.331,2.522.312,3.645.252,7.314-.032,18.923,0,27.545c.016,3.972.223,7.277.329,8.939.224,3.474,3.565,2.6,6.113,2.533,2.1-.057,4.192-.217,6.277-.466,1.369-.164,3.679-.033,4.7-1.261.982-1.177.653-3.391.7-4.786.089-2.652.749-26.61.364-31.9" transform="translate(65.663 32.116)" fill="#fea689"/>
        <path id="Fill_104" data-name="Fill 104" d="M8.3,12.168A22.708,22.708,0,0,0,8.507,8.85a7.936,7.936,0,0,0-.535-2.028A57.886,57.886,0,0,0,4.679.771c.1-.113.193-.228.282-.352.219-.3-.284-.593-.5-.293C2.967,2.2-2.214,4.748,1.071,7.708a3.826,3.826,0,0,1,1.394,3.148,5.179,5.179,0,0,0,.107,2.331c.29.6.786.718,1.306,1.033a3.5,3.5,0,0,1,1.548,2.2c.134-.06.27-.117.4-.181,1.829-.879,2.19-2.123,2.468-4.071" transform="translate(59.376 35.872)" fill="#1f2033"/>
        <path id="Fill_106" data-name="Fill 106" d="M18.424,7.441c.042-2.159.137-4.556.164-6.676a17.8,17.8,0,0,0-3.23,1.917C10.736,5.3,5.36.46,0,0,0,.808.006,6.818,0,7.64,3.629,9.6,7.226,11.985,11.545,10.766,13.819,10.123,15.9,8.709,18,7.657c.117-.059.288-.152.423-.216" transform="translate(65.691 44.41)" fill="#f2815c"/>
        <path id="Fill_108" data-name="Fill 108" d="M27.461,2.287C23.074-.191,17.668-.468,12.709.564,8.929,1.351,4.823,2.677,2.353,5.557c-.14-.865-1.64-1-1.748-.015C-.424,14.96-.507,25.555,3.335,34.382,4.862,37.892,11.734,41.6,15,43.919c3.132,2.229,5.178,1.606,8.055-.542,5.308-3.966,7.874-9.8,9.6-17.545,1.553-6.962,2.025-19.466-5.2-23.545" transform="translate(59.479 7.707)" fill="#fea689"/>
        <path id="Fill_4-2" data-name="Fill 4" d="M4.338.5A5.557,5.557,0,0,0,3.043.541,4.6,4.6,0,0,0,1.835.894a3.36,3.36,0,0,0-1.062.734A3.758,3.758,0,0,0,0,2.9,2.83,2.83,0,0,1,1.657.25,2.855,2.855,0,0,1,3.033.009a2.341,2.341,0,0,1,1.3.49" transform="matrix(0.995, -0.105, 0.105, 0.995, 66.165, 24.901)" fill="#2c2c2c"/>
        <path id="Fill_4-3" data-name="Fill 4" d="M0,.5A5.557,5.557,0,0,1,1.295.541,4.6,4.6,0,0,1,2.5.894a3.354,3.354,0,0,1,1.061.733A3.752,3.752,0,0,1,4.335,2.9a2.836,2.836,0,0,0-.478-1.649,2.811,2.811,0,0,0-1.176-1A2.854,2.854,0,0,0,1.3.009,2.343,2.343,0,0,0,0,.5" transform="matrix(0.985, -0.174, 0.174, 0.985, 84.849, 25.149)" fill="#2c2c2c"/>
        <path id="Fill_110" data-name="Fill 110" d="M5.569,1.5C4.9-.785,2.448-.1,1.5,1.173-.186,2.423-.036,6.322.042,8.206c.036.868-.018,1.946.88,2.253.934.319,2.045-.513,2.665-1.15A8.729,8.729,0,0,0,5.569,1.5" transform="translate(89.007 28.599)" fill="#fea689"/>
        <path id="Fill_112" data-name="Fill 112" d="M2.26,9.961c.667.71,1.873,1.649,2.93,1.345,1.016-.292,1-1.451,1.077-2.381.165-2.018.34-6.113-1.492-7.524C3.767,0,1.212-.924.37,1.505A9.1,9.1,0,0,0,2.26,9.961" transform="translate(56.851 28.015)" fill="#f88c76"/>
        <path id="Fill_114" data-name="Fill 114" d="M2.323,2.153c.009,1.194-.5,2.165-1.146,2.17S.008,3.363,0,2.17.5,0,1.147,0,2.314.959,2.323,2.153" transform="translate(69.004 28.13)" fill="#1f2033"/>
        <path id="Fill_116" data-name="Fill 116" d="M2.323,2.184c-.023,1.194-.561,2.151-1.2,2.139S-.022,3.333,0,2.139.561-.012,1.2,0s1.143.99,1.12,2.183" transform="translate(84.501 27.844)" fill="#1f2033"/>
        <path id="Fill_118" data-name="Fill 118" d="M2.837,1.015C2.582.06,1.951-.419,1.156.47A1.732,1.732,0,0,0,.762,1.9,3.069,3.069,0,0,1,.079,4.551c-.25.276.15.7.4.418A3.449,3.449,0,0,0,1.4,3.093a3.767,3.767,0,0,0-.01-.943,1.7,1.7,0,0,1,.069-1.12c.365-.615.686-.362.816.129a.29.29,0,0,0,.562-.144" transform="translate(90.814 30.728)" fill="#f2815c"/>
        <path id="Fill_120" data-name="Fill 120" d="M2.546,4.338a1.594,1.594,0,0,1-.773-1.05c-.089-.43.193-.836.242-1.249A2.259,2.259,0,0,0,1.741.652C1.3-.116.451-.3.03.609c-.157.335.336.64.494.3q.685-.3.794.227a.841.841,0,0,1,.111.419,2.193,2.193,0,0,1-.138.936,1.767,1.767,0,0,0-.079.939,2.151,2.151,0,0,0,1.032,1.4c.33.171.633-.323.3-.5" transform="translate(57.923 30.037)" fill="#c76959"/>
        <path id="Fill_122" data-name="Fill 122" d="M4.342.073c-.283-.24-.695.168-.41.41a6.105,6.105,0,0,1,1.89,6.176c-.672,2.319-3.6,3.757-5.343,1.6-.235-.29-.643.123-.409.41,1.6,1.978,4.448,1.4,5.745-.613C7.422,5.565,6.508,1.914,4.342.073" transform="translate(57.708 36.373)" fill="#f6ddc7"/>
        <path id="Fill_124" data-name="Fill 124" d="M1.347,7.278A8.671,8.671,0,0,1,.273,7.211.318.318,0,0,1,0,6.867a.234.234,0,0,1,.237-.239l.04,0A8.645,8.645,0,0,0,1.352,6.7h.083a.27.27,0,0,1,.277.283.279.279,0,0,1-.282.3ZM2.989,7.25A.241.241,0,0,1,2.746,7a.309.309,0,0,1,.279-.335l.1-.009c.966-.092,1.664-.158,2.053-1.217a3.25,3.25,0,0,0-.188-1.8c-.027-.094-.053-.184-.076-.268-.1-.381-.222-.762-.338-1.129A17.7,17.7,0,0,1,4.056.36.282.282,0,0,1,4.113.118.333.333,0,0,1,4.365,0a.244.244,0,0,1,.25.211,15.972,15.972,0,0,0,.512,1.8,7.5,7.5,0,0,1,.558,3.908C5.43,7.073,4.472,7.141,3.458,7.214c-.144.01-.293.021-.438.035Z" transform="translate(75.805 31.373)" fill="#f2815c"/>
        <path id="Fill_130" data-name="Fill 130" d="M31.717,2.762c-.394-1.217-2.335-1.45-3.4-1.737a29.7,29.7,0,0,0-5.131-.9A38.536,38.536,0,0,0,11.55.987c-2.949.649-6,1.737-7.307,4.7a30.347,30.347,0,0,0-1.6,5.456C2.218,13,2.031,15.373.146,16.351c-.331.171-.039.672.292.5C2.773,15.64,2.892,12.5,3.454,10.24a16.5,16.5,0,0,1,1.9-5.384A8.045,8.045,0,0,1,9.768,2.041,35.9,35.9,0,0,1,19.839.585a32.487,32.487,0,0,1,5.567.4c.844.137,1.683.316,2.511.531.745.194,2.992.622,3.242,1.4.115.354.674.2.558-.154" transform="translate(58.862 11.191)" fill="#414f39"/>
        <path id="Fill_132" data-name="Fill 132" d="M19.715,13.351c-.141-3.832-.9-7.9-4.054-10.423C12.573.45,8.123-.166,4.276.036A4.737,4.737,0,0,0,.484,2.221C-.447,3.615.221,5.725.4,7.258a.3.3,0,0,0,.244.264.259.259,0,0,0,.267.212c4.941-.047,10.852-.583,14.012,4a14.733,14.733,0,0,1,2.261,6.981c.173,1.741-.255,4.022.8,5.527a.293.293,0,0,0,.455.059,5.579,5.579,0,0,0,1.37-4c.067-2.306-.01-4.647-.1-6.953" transform="translate(74.891 4.156)" fill="#ab614f"/>
        <path id="Fill_134" data-name="Fill 134" d="M43.427,21.686a40.33,40.33,0,0,0-.259-4.466c-.277-2.534-.714-5.055-1.2-7.558a5.294,5.294,0,0,0-3.016-4.244c-3.455-1.641-7.7-1.337-11.3.04a.222.222,0,0,0-.3-.109c-.075.032-.151.059-.228.086L27,5.4c-.668-.421-1.387-.749-2.045-1.186l-.048-.036a4.935,4.935,0,0,0-.737-2.932C23.1-.267,20.852-.066,19.24.144,14.524.758,11.484,3.851,8.506,7.282a29.972,29.972,0,0,0-4.224,5.892A36.593,36.593,0,0,0,1.91,20.022C.631,24.578-.535,29.324.26,34.075a14.446,14.446,0,0,0,2.587,6.311,22.431,22.431,0,0,0,6.147,5.067.29.29,0,0,0,.351-.046c2.259-2.485,1.5-5.771,1.789-8.825.186-2.009,1.181-3.625,1.951-5.436a14.255,14.255,0,0,0,.973-5.332c.1-4.092.3-8,2.383-11.647a13.271,13.271,0,0,1,8.532-6.491A.206.206,0,0,0,25,7.663l.153-.007c.739,4.09,6.918,3.668,8.962,6.761,1.177,1.781.907,4.225,2.217,5.867a6.152,6.152,0,0,0,1.881,1.411,8.694,8.694,0,0,1,2.691,2.082c.65.78,1.595,1.129,2.19.067a4.4,4.4,0,0,0,.329-2.158" transform="translate(51.137 4.197)" fill="#ab614f"/>
        <path id="Fill_136" data-name="Fill 136" d="M4.342.073c-.283-.24-.694.168-.41.41a6.106,6.106,0,0,1,1.89,6.176c-.673,2.319-3.6,3.757-5.343,1.6-.235-.289-.643.123-.409.41,1.6,1.978,4.448,1.4,5.745-.613C7.422,5.565,6.508,1.914,4.342.073" transform="translate(87.338 36.76)" fill="#f6ddc7"/>
        <path id="Fill_138" data-name="Fill 138" d="M17.553,7.612c-1.039-2.486-3.631-3.9-6-4.931A19.943,19.943,0,0,0,2.669,1.1C2.733.85,2.79.6,2.858.36A.29.29,0,0,0,2.3.206,64.021,64.021,0,0,0,.011,18.3q.041,2.167.233,4.327A16.509,16.509,0,0,0,.8,26.505c.621,1.74,2.451,1.2,3.6.36a12.411,12.411,0,0,1,3.5-2.023c1.248-.412,2.573-.534,3.819-.954,2.38-.8,3.06-2.644,4.562-4.433.741-.882,1.905-1.232,2.606-2.133a3.907,3.907,0,0,0,.688-2.481,20.663,20.663,0,0,0-2.018-7.23" transform="translate(69.127 163.508)" fill="#1f2033"/>
        <path id="Fill_140" data-name="Fill 140" d="M19.422,24.246a35.464,35.464,0,0,0-1.75-7.94c-.828-2.718-1.658-5.438-2.636-8.107C14.2,5.906,13.37,3.19,11.7,1.345,10.3-.21,8.688-.241,6.937.37A.3.3,0,0,0,6.489.3C.828,5.283.968,14.459.507,21.365Q.268,24.938.154,28.518a24.621,24.621,0,0,0,.072,5.975c.636,2.862,4.124,2.974,6.212,1.439,1.472-1.081.942-3.084.987-4.662a26.619,26.619,0,0,1,1.243-7.218c.088,1.379.223,2.754.448,4.119.3,1.823.739,3.657,2.958,3.5a11.166,11.166,0,0,0,5.387-2.035c1.745-1.322,2.1-3.3,1.961-5.386" transform="translate(69.135 149.724)" fill="#38539a"/>
        <path id="Fill_142" data-name="Fill 142" d="M.58.28C.561-.092-.018-.094,0,.28Q.472,9.486.4,18.706a.29.29,0,0,0,.579,0Q1.051,9.488.58.28" transform="translate(76.622 148.515)" fill="#1f2033"/>
        <path id="Fill_144" data-name="Fill 144" d="M3.38,11.333C2.642,7.592,1.516,3.9.569.206A.29.29,0,0,0,.01.361Q1.116,4.668,2.222,8.976a25.416,25.416,0,0,1,.845,4.191c.1,1.206.362,3.7-.892,4.426a.29.29,0,0,0,.292.5c1.954-1.128,1.265-4.974.913-6.761" transform="translate(77.977 160.72)" fill="#1f2033"/>
        <path id="Fill_146" data-name="Fill 146" d="M.923.206Q.4,2.153.006,4.13c-.072.364.486.521.559.154Q.959,2.306,1.482.36A.29.29,0,0,0,.923.206" transform="translate(71.097 150.391)" fill="#1f2033"/>
        <path id="Fill_148" data-name="Fill 148" d="M2.5,10.311C1.789,6.917,2.066,3.337.532.148.37-.188-.13.106.032.441c1.5,3.125,1.213,6.694,1.909,10.024.714,3.409,2.616,6.511,3,9.984.04.367.62.372.579,0C5.129,16.916,3.225,13.778,2.5,10.311" transform="translate(82.879 155.114)" fill="#1f2033"/>
        <path id="Fill_150" data-name="Fill 150" d="M7.285.344C6.5-.475,5.49.338,5,1.029c-.671.939-.869,1.992-1.953,2.631a6.814,6.814,0,0,0-1.733,1.38,4.976,4.976,0,0,0-1.3,3.707A13.035,13.035,0,0,1,7.55,3.763a.253.253,0,0,0,.03-.013l.088,0c.138-1.183.3-2.688-.383-3.4" transform="translate(68.568 8.118)" fill="#1f2033"/>
        <path id="Fill_152" data-name="Fill 152" d="M3.865,1.234A3.937,3.937,0,0,0,.209.077C-.157.147,0,.707.362.636A3.338,3.338,0,0,1,3.456,1.644c.257.272.666-.14.409-.41" transform="translate(75.2 5.353)" fill="#1f2033"/>
        <path id="Fill_154" data-name="Fill 154" d="M3.112,21.31h0l-.181-.065c-.122-.044-.248-.09-.375-.13A9.2,9.2,0,0,0,3.147,17.3a14.476,14.476,0,0,0-.6-2.963,15.254,15.254,0,0,1-.59-2.805,6.674,6.674,0,0,1,.858-3.523A14.544,14.544,0,0,0,3.508,6.3,5.662,5.662,0,0,0,1.859.49.252.252,0,0,1,1.786.2a.324.324,0,0,1,.29-.2.281.281,0,0,1,.192.079,6.262,6.262,0,0,1,2.067,4.5,7.594,7.594,0,0,1-.916,3.29,7.689,7.689,0,0,0-.911,3.185,13.406,13.406,0,0,0,.615,3.431,12.522,12.522,0,0,1,.614,3.744,9.887,9.887,0,0,1-.623,3.08Zm-2.5-.657h0c-.18-.031-.373-.062-.567-.088A17.842,17.842,0,0,0,0,14.423a.239.239,0,0,1,.051-.194.267.267,0,0,1,.2-.082.316.316,0,0,1,.325.276,18.43,18.43,0,0,1,.03,6.228Z" transform="translate(98.073 31.219)" fill="#1f2033"/>
        <path id="Fill_156" data-name="Fill 156" d="M3.115.086A11.906,11.906,0,0,0,.01,5.6a.29.29,0,0,0,.559.154A11.284,11.284,0,0,1,3.524.5c.262-.266-.147-.677-.41-.41" transform="translate(64.182 9.711)" fill="#1f2033"/>
        <path id="Fill_158" data-name="Fill 158" d="M4.1,3.83A11.835,11.835,0,0,1,.545.137C.35-.181-.151.111.045.43a12.532,12.532,0,0,0,3.76,3.9c.311.207.6-.3.292-.5" transform="translate(90.573 21.242)" fill="#1f2033"/>
        <path id="Fill_160" data-name="Fill 160" d="M3.746,15.714h0l-.288-.026-.29-.026a8.1,8.1,0,0,1,.058-1.479,7.4,7.4,0,0,1,.939-2.461A9.429,9.429,0,0,0,4.988,9.84a7.612,7.612,0,0,0-.094-3.4,11.436,11.436,0,0,1-.253-2.3,8.915,8.915,0,0,1,1.319-4A.256.256,0,0,1,6.189,0a.327.327,0,0,1,.272.158.271.271,0,0,1,0,.278A8.108,8.108,0,0,0,5.407,6.092c.027.167.055.335.084.5A8.666,8.666,0,0,1,5.654,9.5a7.029,7.029,0,0,1-.89,2.17,8.922,8.922,0,0,0-.778,1.691,6.839,6.839,0,0,0-.24,2.348ZM.823,15.491h0c-.2-.007-.4-.007-.59-.007a10.979,10.979,0,0,1-.173-3.319A9.183,9.183,0,0,1,1.027,9.33a9.493,9.493,0,0,0,.942-2.676A.225.225,0,0,1,2.2,6.443a.346.346,0,0,1,.254.118.3.3,0,0,1,.071.246,9.046,9.046,0,0,1-.927,2.6,9.283,9.283,0,0,0-.922,2.552,10.2,10.2,0,0,0,.145,3.53Z" transform="translate(52.822 37.785)" fill="#1f2033"/>
        <path id="Fill_164" data-name="Fill 164" d="M7.662,0C5.047.43,2.262.112.1,1.911c-.287.239.125.647.41.41C2.554.62,5.349.964,7.816.564,8.183.5,8.027-.055,7.662,0" transform="translate(78.05 68.693)" fill="#f2815c"/>
        <path id="Fill_166" data-name="Fill 166" d="M7.656,2.153C5.462.7,2.781.832.354.017,0-.1-.152.458.2.576c2.375.8,5.017.653,7.164,2.079.312.207.6-.3.292-.5" transform="translate(63.806 68.512)" fill="#f2815c"/>
        <path id="Fill_168" data-name="Fill 168" d="M3.49.021A4.546,4.546,0,0,1,.365.116.291.291,0,0,0,.2.671,5.049,5.049,0,0,0,3.629.584c.342-.133.208-.7-.139-.563" transform="translate(76.441 45.259)" fill="#f2815c"/>
        <path id="Fill_170" data-name="Fill 170" d="M8.069.006c-1.452.286-3.19.9-4.663.76A20.955,20.955,0,0,0,.279.244c-.371.014-.373.6,0,.58,1.36-.055,2.491.67,3.834.523C5.49,1.2,6.865.833,8.223.566c.366-.072.211-.631-.154-.559" transform="translate(74.334 42.632)" fill="#f2815c"/>
        <path id="Fill_172" data-name="Fill 172" d="M10.892,9.421c-.164-.356-.313-.677-.69-.775a.8.8,0,0,0-.527.037c-.032.012-.344.168-.344.168s-.36-5.629-.884-6.533C8,1.547,7.122,1.232,6.668,1.654c-.188-.63-.242-1.2-.862-1.509C4.769-.376,4.135.612,4.074,1.479a.675.675,0,0,0-.793-.1c-.432.21-.472.721-.5,1.139-.051.66-2,22.165-2.431,25.628-.076.6-.535,1.072-.258,1.677A2.6,2.6,0,0,0,1.333,30.87a10.253,10.253,0,0,0,3.252.991c2.934.394,5.879-2.432,6.683-5.062.521-1.7.066-3.01.029-4.769-.079-1.282-.1-3.336-.129-4.62-.026-1.233.233-6.884-.276-7.989" transform="translate(81.033 84.199)" fill="#fea689"/>
        <path id="Fill_174" data-name="Fill 174" d="M.5.142C.368,4.255.2,9.25,0,13.361c-.009.19.285.189.294,0C.494,9.25.662,4.255.8.142.8-.048.509-.047.5.142" transform="translate(84.521 86.042)" fill="#c76959"/>
        <path id="Fill_176" data-name="Fill 176" d="M.27.142c0,4.2-.092,9.279-.27,13.474-.009.189.286.189.294,0C.472,9.421.562,4.34.564.142a.147.147,0,0,0-.294,0" transform="translate(87.261 86.374)" fill="#c76959"/>
        <path id="Fill_178" data-name="Fill 178" d="M.2.142C.134,2.216.067,5.174,0,7.247c-.006.189.288.189.294,0C.361,5.174.428,2.216.495.142.5-.047.207-.047.2.142" transform="translate(89.95 93.405)" fill="#c76959"/>
        <path id="Fill_180" data-name="Fill 180" d="M39.583,24.837a14.441,14.441,0,0,0,.782-5.819,13.82,13.82,0,0,0-.5-2.958c-5.093-2.048-12.257-4.84-14.551-5.992Q16.486,5.635,7.763,1C7.145.668,6.524.343,5.913,0,5.85-.035,1.91,3.317,0,4.964c-.11.095,6.378,5.539,7.818,6.582,2.956,2.14,17.321,11.928,21.568,14.646a80.069,80.069,0,0,0,7.232,4.1,19.4,19.4,0,0,0,2.964-5.458" transform="translate(60.872 108.488)" fill="#fea689"/>
        <path id="Fill_182" data-name="Fill 182" d="M17.556,25.085c-.081-.588-2.323-1.628-2.323-1.628a57.048,57.048,0,0,1-4.371-6.847C8.57,12.442,4.587,1.754,4.587,1.754S4.067.089,3.209.005a1.469,1.469,0,0,0-1.24.718c-.038-.068-.414-.075-.5-.056-1.889.418-.411,5.949-.242,7.285a.848.848,0,0,0-.59-.08c-.7.231-.7,1.013-.58,1.618.146.722.233,1.457.389,2.182.417,1.937,1.123,3.8,1.645,5.707.348,1.27,1.962,6.808,3.348,8.4s3.787,3.073,5.885,2.64c.412.224.622-.289,1.1-.353a12.576,12.576,0,0,0,3.634-1.1c.794-.373,1.63-.886,1.494-1.885" transform="translate(54.757 87.701)" fill="#fea689"/>
        <path id="Fill_184" data-name="Fill 184" d="M4.458,12.7C3.031,8.756,1.3,4.179.285.1.24-.083-.04.006,0,.19c1.01,4.077,2.746,8.654,4.173,12.6.064.178.345.09.28-.089" transform="translate(56.796 88.694)" fill="#c76959"/>
        <path id="Fill_186" data-name="Fill 186" d="M2.584,6.672C1.834,4.72.9,2.1.29.1.235-.078-.049,0,.007.181.619,2.181,1.55,4.8,2.3,6.75c.067.175.352.1.284-.078" transform="translate(56.132 96.021)" fill="#c76959"/>
        <path id="Fill_188" data-name="Fill 188" d="M8.418.017.078,4.06c-.177.086-.022.35.154.264L8.572.282c.177-.086.023-.35-.154-.265" transform="translate(66.517 113.447)" fill="#c76959"/>
        <path id="Fill_190" data-name="Fill 190" d="M8.131.03.064,6.259c-.154.119,0,.385.154.265L8.285.3c.153-.119,0-.385-.154-.265" transform="translate(76.543 118.371)" fill="#c76959"/>
        <path id="Fill_192" data-name="Fill 192" d="M67.184,0Q65.845.657,64.5,1.317c-.04.019-.08.04-.123.058l-.2.1L64.1,1.51l-1.886.929-.3.147q-2.2,1.081-4.4,2.163c-4.972,2.445-25.992,12.6-28.674,13.892l-12.33,6.677,1.868-12.1L2.816,6.459c-.451,4.167-1.376,8.332-1.827,12.5-.766,7.07-1.9,14.209.259,21.19,3.059,9.91,15.682,4.577,21.873,1.3a103.44,103.44,0,0,0,13.5-8.768c1.566-1.137,3.039-2.322,4.378-3.349,6.21-4.749,12.465-9.474,18.844-13.994,2.339-1.658,5.883-4.44,8.319-6.383.086-.067.171-.135.254-.2.233-.184.449-.359.654-.524.085-.065.168-.132.248-.2.214-.175.412-.331.59-.475l.245-.2.731-.591C69.474,4.3,68.5,2.521,67.184,0" transform="translate(17.164 108.896)" fill="#fea689"/>
        <path id="Fill_194" data-name="Fill 194" d="M33.766,0c.41,3.786.949,5.225,1.359,9.011.7,6.426,1.723,12.915-.236,19.26-2.78,9.008-14.254,4.161-19.881,1.184A93.976,93.976,0,0,1,2.74,21.486L0,12.157,7.981,8.968l13.031,5.827L19.26,3.677Z" transform="translate(91.897 115.237)" fill="#fea689"/>
      </g>
    </g>
  </g>
</svg>
