<svg id="Group_6018" data-name="Group 6018" xmlns="http://www.w3.org/2000/svg" width="86.111" height="104" viewBox="0 0 86.111 104">
  <g id="Group_6011" data-name="Group 6011" transform="translate(19.717)">
    <path id="Path_16650" data-name="Path 16650" d="M222.884,66.126H205.472c-1.965,0-3.573,1.026-3.573,3.009V80.441h18.067V72.068h2.918Z" transform="translate(-191.754 -66.126)" fill="#c3c4c5"/>
    <path id="Path_16651" data-name="Path 16651" d="M207.537,76.9c-3.187-.209-3.187-2.918-2.538-5.977.387-1.818,3.4-3.319,4.395-4.795h-3.922c-1.965,0-3.573,1.026-3.573,3.009V80.441h18.067v-.067C217.313,80.269,210.517,77.091,207.537,76.9Z" transform="translate(-191.754 -66.126)" fill="#f8f8f8" style="mix-blend-mode: multiply;isolation: isolate"/>
    <path id="Path_16652" data-name="Path 16652" d="M220.966,89.66a2.978,2.978,0,0,0-2.918-3.263H199.98c-1.841,0-2.918,1.112-2.918,3.263v1.811c0,3.4,2.128,6.182,4.728,6.182h14.448c2.6,0,4.728-2.783,4.728-6.182Z" transform="translate(-189.836 -74.167)" fill="#d2d1d1"/>
    <path id="Path_16653" data-name="Path 16653" d="M222.34,222.078c0,1.8-1.743,2.922-3.9,2.922H194.26c-2.464,0-3.9-.995-3.9-2.922v-1.621c0-3.044,2.847-5.535,6.326-5.535h19.334c3.479,0,6.325,2.491,6.325,5.535Z" transform="translate(-187.175 -125.148)" fill="#777776"/>
    <path id="Path_16654" data-name="Path 16654" d="M200.9,93.773a.673.673,0,0,1-.651.7h0a.674.674,0,0,1-.65-.7V89.4a.674.674,0,0,1,.65-.7h0a.674.674,0,0,1,.651.7Z" transform="translate(-190.841 -75.08)" fill="#b5b6b7"/>
    <path id="Path_16655" data-name="Path 16655" d="M206.181,93.773a.673.673,0,0,1-.65.7h0a.674.674,0,0,1-.652-.7V89.4a.675.675,0,0,1,.652-.7h0a.674.674,0,0,1,.65.7Z" transform="translate(-192.937 -75.08)" fill="#b5b6b7"/>
    <path id="Path_16656" data-name="Path 16656" d="M211.465,93.773a.674.674,0,0,1-.65.7h0a.673.673,0,0,1-.651-.7V89.4a.674.674,0,0,1,.651-.7h0a.674.674,0,0,1,.65.7Z" transform="translate(-195.033 -75.08)" fill="#b5b6b7"/>
    <path id="Path_16657" data-name="Path 16657" d="M216.749,93.773a.673.673,0,0,1-.651.7h0a.674.674,0,0,1-.65-.7V89.4a.674.674,0,0,1,.65-.7h0a.674.674,0,0,1,.651.7Z" transform="translate(-197.129 -75.08)" fill="#b5b6b7"/>
    <path id="Path_16658" data-name="Path 16658" d="M222.034,93.773a.674.674,0,0,1-.651.7h0a.674.674,0,0,1-.651-.7V89.4a.674.674,0,0,1,.651-.7h0a.674.674,0,0,1,.651.7Z" transform="translate(-199.225 -75.08)" fill="#b5b6b7"/>
    <path id="Path_16659" data-name="Path 16659" d="M227.374,93.773a.674.674,0,0,1-.651.7h0a.673.673,0,0,1-.65-.7V89.4a.674.674,0,0,1,.65-.7h0a.675.675,0,0,1,.651.7Z" transform="translate(-201.343 -75.08)" fill="#b5b6b7"/>
    <path id="Path_16660" data-name="Path 16660" d="M232.657,93.773a.673.673,0,0,1-.65.7h0a.674.674,0,0,1-.652-.7V89.4a.675.675,0,0,1,.652-.7h0a.674.674,0,0,1,.65.7Z" transform="translate(-203.439 -75.08)" fill="#b5b6b7"/>
    <path id="Rectangle_3487" data-name="Rectangle 3487" d="M7.836,0H30.521a7.836,7.836,0,0,1,7.836,7.836V72.214a7.834,7.834,0,0,1-7.834,7.834H7.834A7.834,7.834,0,0,1,0,72.214V7.836A7.836,7.836,0,0,1,7.836,0Z" transform="translate(0 17.372)" fill="#ededed"/>
    <path id="Path_16662" data-name="Path 16662" d="M189.617,170.241V99.647a4.741,4.741,0,0,1,4.727-4.727h-4.531a4.741,4.741,0,0,0-4.728,4.727v70.594a4.742,4.742,0,0,0,4.728,4.728h4.531A4.742,4.742,0,0,1,189.617,170.241Z" transform="translate(-185.085 -77.548)" fill="#e6e6e6" opacity="0.401" style="mix-blend-mode: multiply;isolation: isolate"/>
  </g>
  <g id="Group_6014" data-name="Group 6014" transform="translate(0 37.143)">
    <g id="Group_6012" data-name="Group 6012" transform="translate(0 0)">
      <path id="Path_16663" data-name="Path 16663" d="M264.474,174.667H241.443L237.125,126.8h30.588Z" transform="translate(-237.125 -122.487)" fill="#e3e3e3"/>
      <rect id="Rectangle_3494" data-name="Rectangle 3494" width="30.588" height="4.317" fill="#c3c4c5"/>
    </g>
    <g id="Group_6013" data-name="Group 6013" transform="translate(0)" style="mix-blend-mode: multiply;isolation: isolate">
      <path id="Path_16664" data-name="Path 16664" d="M248.748,165.5c-6.152-6.957-6.86-18.719-6.292-27.529a31.3,31.3,0,0,1,2.757-11.162h-8.088l4.318,47.862h23.031l.411-6.079C259.147,170.141,253.132,170.454,248.748,165.5Z" transform="translate(-237.125 -122.487)" fill="#e6e6e6" opacity="0.464" style="mix-blend-mode: multiply;isolation: isolate"/>
      <path id="Path_16665" data-name="Path 16665" d="M247.526,119.206h-10.4v4.318h8.088A38.452,38.452,0,0,1,247.526,119.206Z" transform="translate(-237.125 -119.206)" fill="#f8f8f8"/>
    </g>
    <path id="Path_16666" data-name="Path 16666" d="M264.967,225.434H247.514c-1.98,0-2.789-1.169-2.789-2.428V211.04H267.4V223.1A2.148,2.148,0,0,1,264.967,225.434Z" transform="translate(-240.406 -158.86)" fill="#c3c4c5"/>
    <path id="Path_16667" data-name="Path 16667" d="M255.746,222.466c-1.98,0-2.789-1.169-2.789-2.429v-9h-8.231v11.966c0,1.259.809,2.428,2.789,2.428h17.453A2.148,2.148,0,0,0,267.4,223.1v-.63Z" transform="translate(-240.406 -158.86)" fill="#f8f8f8" style="mix-blend-mode: multiply;isolation: isolate"/>
    <path id="Path_16668" data-name="Path 16668" d="M244.725,231.149v.54c0,1.259.809,2.428,2.789,2.428h17.453a2.148,2.148,0,0,0,2.429-2.339v-.63Z" transform="translate(-240.406 -167.544)" fill="#777776"/>
    <path id="Path_16669" data-name="Path 16669" d="M263.214,228.842a3.036,3.036,0,1,1,6.071,0Z" transform="translate(-248.39 -165.236)" fill="#9ea0a3"/>
    <path id="Path_16670" data-name="Path 16670" d="M239.288,124.036h-1.018l.509-3.643Z" transform="translate(-237.619 -119.719)" fill="#c3c4c5" style="mix-blend-mode: multiply;isolation: isolate"/>
    <path id="Path_16671" data-name="Path 16671" d="M244.176,124.036h-1.019l.509-3.643Z" transform="translate(-239.73 -119.719)" fill="#c3c4c5" style="mix-blend-mode: multiply;isolation: isolate"/>
    <path id="Path_16672" data-name="Path 16672" d="M249.064,124.036h-1.018l.509-3.643Z" transform="translate(-241.84 -119.719)" fill="#c3c4c5" style="mix-blend-mode: multiply;isolation: isolate"/>
    <path id="Path_16673" data-name="Path 16673" d="M253.951,124.036h-1.018l.509-3.643Z" transform="translate(-243.951 -119.719)" fill="#c3c4c5" style="mix-blend-mode: multiply;isolation: isolate"/>
    <path id="Path_16674" data-name="Path 16674" d="M258.839,124.036h-1.018l.509-3.643Z" transform="translate(-246.061 -119.719)" fill="#c3c4c5" style="mix-blend-mode: multiply;isolation: isolate"/>
    <path id="Path_16675" data-name="Path 16675" d="M263.726,124.036h-1.019l.509-3.643Z" transform="translate(-248.171 -119.719)" fill="#c3c4c5" style="mix-blend-mode: multiply;isolation: isolate"/>
    <path id="Path_16676" data-name="Path 16676" d="M268.614,124.036H267.6l.509-3.643Z" transform="translate(-250.282 -119.719)" fill="#c3c4c5" style="mix-blend-mode: multiply;isolation: isolate"/>
    <path id="Path_16677" data-name="Path 16677" d="M273.5,124.036h-1.018l.509-3.643Z" transform="translate(-252.393 -119.719)" fill="#c3c4c5" style="mix-blend-mode: multiply;isolation: isolate"/>
    <path id="Path_16678" data-name="Path 16678" d="M278.389,124.036h-1.018l.509-3.643Z" transform="translate(-254.503 -119.719)" fill="#c3c4c5" style="mix-blend-mode: multiply;isolation: isolate"/>
    <path id="Path_16679" data-name="Path 16679" d="M283.277,124.036h-1.018l.509-3.643Z" transform="translate(-256.613 -119.719)" fill="#c3c4c5" style="mix-blend-mode: multiply;isolation: isolate"/>
    <path id="Path_16680" data-name="Path 16680" d="M288.164,124.036h-1.018l.509-3.643Z" transform="translate(-258.724 -119.719)" fill="#c3c4c5" style="mix-blend-mode: multiply;isolation: isolate"/>
  </g>
  <g id="Group_6017" data-name="Group 6017" transform="translate(46.106 57.096)">
    <g id="Group_6016" data-name="Group 6016">
      <path id="Path_16683" data-name="Path 16683" d="M124.286,219.2c0,1.948-1.729,3.158-3.876,3.158H96.414c-2.445,0-3.875-1.075-3.875-3.158v-1.752a6.154,6.154,0,0,1,6.278-5.983h19.19a6.154,6.154,0,0,1,6.279,5.983Z" transform="translate(-88.484 -175.449)" fill="#777776"/>
      <g id="Group_6015" data-name="Group 6015" transform="translate(1.094)">
        <path id="Path_16684" data-name="Path 16684" d="M124.487,144.571c-.034-.389-.056-.792-.056-1.2v-2.285c0-1.917-.37-2.545-1.365-2.545H88.609c-1.379,0-2.028.5-2.028,2.545v2.285c0,.413-.015.816-.038,1.2Z" transform="translate(-86.543 -138.536)" fill="#c3c4c5"/>
        <path id="Path_16685" data-name="Path 16685" d="M89.629,146.741v-3.256c0-.366-.216-.662-.483-.662s-.483.3-.483.662v3.256Z" transform="translate(-87.616 -140.706)" fill="#ededed" style="mix-blend-mode: multiply;isolation: isolate"/>
        <path id="Path_16686" data-name="Path 16686" d="M94.421,146.741v-3.256c0-.366-.216-.662-.483-.662s-.483.3-.483.662v3.256Z" transform="translate(-90.042 -140.706)" fill="#ededed" style="mix-blend-mode: multiply;isolation: isolate"/>
        <path id="Path_16687" data-name="Path 16687" d="M99.213,146.741v-3.256c0-.366-.216-.662-.482-.662s-.484.3-.484.662v3.256Z" transform="translate(-92.467 -140.706)" fill="#ededed" style="mix-blend-mode: multiply;isolation: isolate"/>
        <path id="Path_16688" data-name="Path 16688" d="M104.006,146.741v-3.256c0-.366-.216-.662-.483-.662s-.482.3-.482.662v3.256Z" transform="translate(-94.894 -140.706)" fill="#ededed" style="mix-blend-mode: multiply;isolation: isolate"/>
        <path id="Path_16689" data-name="Path 16689" d="M108.849,146.741v-3.256c0-.366-.216-.662-.483-.662s-.483.3-.483.662v3.256Z" transform="translate(-97.345 -140.706)" fill="#ededed" style="mix-blend-mode: multiply;isolation: isolate"/>
        <path id="Path_16690" data-name="Path 16690" d="M113.214,146.741v-3.256c0-.366-.216-.662-.483-.662s-.483.3-.483.662v3.256Z" transform="translate(-99.554 -140.706)" fill="#ededed" style="mix-blend-mode: multiply;isolation: isolate"/>
        <path id="Path_16691" data-name="Path 16691" d="M118.007,146.741v-3.256c0-.366-.217-.662-.484-.662s-.483.3-.483.662v3.256Z" transform="translate(-101.98 -140.706)" fill="#ededed" style="mix-blend-mode: multiply;isolation: isolate"/>
        <path id="Path_16692" data-name="Path 16692" d="M122.8,146.741v-3.256c0-.366-.217-.662-.483-.662s-.483.3-.483.662v3.256Z" transform="translate(-104.406 -140.706)" fill="#ededed" style="mix-blend-mode: multiply;isolation: isolate"/>
        <path id="Path_16693" data-name="Path 16693" d="M127.59,146.741v-3.256c0-.366-.217-.662-.483-.662s-.483.3-.483.662v3.256Z" transform="translate(-106.831 -140.706)" fill="#ededed" style="mix-blend-mode: multiply;isolation: isolate"/>
        <path id="Path_16694" data-name="Path 16694" d="M132.433,146.741v-3.256c0-.366-.217-.662-.484-.662s-.482.3-.482.662v3.256Z" transform="translate(-109.283 -140.706)" fill="#ededed" style="mix-blend-mode: multiply;isolation: isolate"/>
        <path id="Path_16695" data-name="Path 16695" d="M136.8,146.741v-3.256c0-.366-.216-.662-.483-.662s-.484.3-.484.662v3.256Z" transform="translate(-111.492 -140.706)" fill="#ededed" style="mix-blend-mode: multiply;isolation: isolate"/>
        <path id="Path_16696" data-name="Path 16696" d="M141.59,146.741v-3.256c0-.366-.216-.662-.483-.662s-.483.3-.483.662v3.256Z" transform="translate(-113.917 -140.706)" fill="#ededed" style="mix-blend-mode: multiply;isolation: isolate"/>
        <path id="Path_16697" data-name="Path 16697" d="M146.382,146.741v-3.256c0-.366-.217-.662-.483-.662s-.483.3-.483.662v3.256Z" transform="translate(-116.343 -140.706)" fill="#ededed" style="mix-blend-mode: multiply;isolation: isolate"/>
        <path id="Path_16698" data-name="Path 16698" d="M151.174,146.741v-3.256c0-.366-.216-.662-.482-.662s-.484.3-.484.662v3.256Z" transform="translate(-118.769 -140.706)" fill="#ededed" style="mix-blend-mode: multiply;isolation: isolate"/>
        <path id="Path_16699" data-name="Path 16699" d="M156.017,146.741v-3.256c0-.366-.216-.662-.482-.662s-.483.3-.483.662v3.256Z" transform="translate(-121.22 -140.706)" fill="#ededed" style="mix-blend-mode: multiply;isolation: isolate"/>
        <path id="Path_16700" data-name="Path 16700" d="M160.383,146.741v-3.256c0-.366-.216-.662-.484-.662s-.482.3-.482.662v3.256Z" transform="translate(-123.43 -140.706)" fill="#ededed" style="mix-blend-mode: multiply;isolation: isolate"/>
      </g>
      <path id="Path_16701" data-name="Path 16701" d="M86.148,154.947V186.01a4.929,4.929,0,0,0,4.692,5.11h28.686a4.929,4.929,0,0,0,4.692-5.11V154.947Z" transform="translate(-85.249 -146.843)" fill="#ededed"/>
      <path id="Path_16703" data-name="Path 16703" d="M90.646,186.01V154.947h-4.5V186.01a4.929,4.929,0,0,0,4.692,5.11h4.5A4.929,4.929,0,0,1,90.646,186.01Z" transform="translate(-85.249 -146.843)" fill="#e6e6e6" opacity="0.402" style="mix-blend-mode: multiply;isolation: isolate"/>
      <path id="Path_16704" data-name="Path 16704" d="M124.332,152.051a1.173,1.173,0,0,1-.991,1.293H85.317a1.172,1.172,0,0,1-.99-1.293h0a1.173,1.173,0,0,1,.99-1.294h38.024a1.173,1.173,0,0,1,.991,1.294Z" transform="translate(-84.327 -144.722)" fill="#c3c4c5"/>
      <path id="Path_16705" data-name="Path 16705" d="M84.4,154.05a1.077,1.077,0,0,0,.954.96h38.024a1.078,1.078,0,0,0,.954-.96Z" transform="translate(-84.364 -146.389)" fill="#9ea0a3" style="mix-blend-mode: multiply;isolation: isolate"/>
    </g>
  </g>
</svg>
