<svg xmlns="http://www.w3.org/2000/svg" width="40" height="40" viewBox="0 0 40 40">
  <g id="Group_5883" data-name="Group 5883" transform="translate(-130 -218)">
    <g id="Group_4993" data-name="Group 4993" transform="translate(130 218)">
      <circle id="Ellipse_365" data-name="Ellipse 365" cx="20" cy="20" r="20" fill="rgba(127,62,62,0)"/>
    </g>
    <path id="Path_16616" data-name="Path 16616" d="M16,3.143c-5.269,0-10.273-.469-12.184,4.435C3.024,9.6,3.139,12.234,3.139,16c0,3.305-.106,6.411.675,8.421C5.721,29.328,10.765,28.858,16,28.858c5.046,0,10.249.525,12.183-4.437.791-2.046.675-4.637.675-8.421,0-5.023.277-8.266-2.159-10.7-2.467-2.466-5.8-2.157-10.7-2.157ZM14.846,5.46c10.992-.017,12.391-1.239,11.618,15.732-.274,6-4.846,5.344-10.465,5.344-10.246,0-10.54-.293-10.54-10.541,0-10.366.813-10.529,9.387-10.538Zm8.017,2.134a1.542,1.542,0,1,0,1.543,1.542A1.543,1.543,0,0,0,22.862,7.594ZM16,9.4A6.6,6.6,0,1,0,22.6,16,6.6,6.6,0,0,0,16,9.4Zm0,2.317c5.667,0,5.674,8.572,0,8.572S10.324,11.715,16,11.715Z" transform="translate(133.867 221.87)" fill="#fff"/>
  </g>
</svg>
