<svg xmlns="http://www.w3.org/2000/svg" width="32" height="32" viewBox="0 0 32 32">
  <g id="Group_4525" data-name="Group 4525" transform="translate(8642 -11346)">
    <g id="Path_9798" data-name="Path 9798" transform="translate(-8642 11346)" fill="#38539a">
      <path d="M 16 30.5 C 12.12691020965576 30.5 8.485639572143555 28.99173927307129 5.746950149536133 26.25304985046387 C 3.008260011672974 23.51436042785645 1.5 19.87309074401855 1.5 16 C 1.5 12.12691020965576 3.008260011672974 8.485639572143555 5.746950149536133 5.746950149536133 C 8.485639572143555 3.008260011672974 12.12691020965576 1.5 16 1.5 C 19.87309074401855 1.5 23.51436042785645 3.008260011672974 26.25304985046387 5.746950149536133 C 28.99173927307129 8.485639572143555 30.5 12.12691020965576 30.5 16 C 30.5 19.87309074401855 28.99173927307129 23.51436042785645 26.25304985046387 26.25304985046387 C 23.51436042785645 28.99173927307129 19.87309074401855 30.5 16 30.5 Z" stroke="none"/>
      <path d="M 16 3 C 12.5275707244873 3 9.262990951538086 4.352239608764648 6.807609558105469 6.807609558105469 C 4.352239608764648 9.262990951538086 3 12.5275707244873 3 16 C 3 19.47243118286133 4.352239608764648 22.73701095581055 6.807609558105469 25.19239044189453 C 9.262990951538086 27.64776039123535 12.5275707244873 29 16 29 C 19.47243118286133 29 22.73701095581055 27.64776039123535 25.19239044189453 25.19239044189453 C 27.64776039123535 22.73701095581055 29 19.47243118286133 29 16 C 29 12.5275707244873 27.64776039123535 9.262990951538086 25.19239044189453 6.807609558105469 C 22.73701095581055 4.352239608764648 19.47243118286133 3 16 3 M 16 0 C 24.8365592956543 0 32 7.163440704345703 32 16 C 32 24.8365592956543 24.8365592956543 32 16 32 C 7.163440704345703 32 0 24.8365592956543 0 16 C 0 7.163440704345703 7.163440704345703 0 16 0 Z" stroke="none" fill="#f1f2ff"/>
    </g>
    <g id="Group_4517" data-name="Group 4517" transform="translate(-9638 10108)">
      <g id="Path_9799" data-name="Path 9799" transform="translate(999 1241)" fill="#fafafa">
        <path d="M 13 25 C 9.794679641723633 25 6.781219959259033 23.75177955627441 4.51471996307373 21.48527908325195 C 2.248219966888428 19.21878051757813 1 16.20532035827637 1 13 C 1 9.794679641723633 2.248219966888428 6.781219959259033 4.51471996307373 4.51471996307373 C 6.781219959259033 2.248219966888428 9.794679641723633 1 13 1 C 16.20532035827637 1 19.21878051757813 2.248219966888428 21.48527908325195 4.51471996307373 C 23.75177955627441 6.781219959259033 25 9.794679641723633 25 13 C 25 16.20532035827637 23.75177955627441 19.21878051757813 21.48527908325195 21.48527908325195 C 19.21878051757813 23.75177955627441 16.20532035827637 25 13 25 Z" stroke="none"/>
        <path d="M 13 2 C 10.06179046630859 2 7.299449920654297 3.144199371337891 5.221830368041992 5.221830368041992 C 3.144199371337891 7.299449920654297 2 10.06179046630859 2 13 C 2 15.93820953369141 3.144199371337891 18.7005500793457 5.221830368041992 20.77816963195801 C 7.299449920654297 22.85580062866211 10.06179046630859 24 13 24 C 15.93820953369141 24 18.7005500793457 22.85580062866211 20.77816963195801 20.77816963195801 C 22.85580062866211 18.7005500793457 24 15.93820953369141 24 13 C 24 10.06179046630859 22.85580062866211 7.299449920654297 20.77816963195801 5.221830368041992 C 18.7005500793457 3.144199371337891 15.93820953369141 2 13 2 M 13 0 C 20.1796989440918 0 26 5.82029914855957 26 13 C 26 20.1796989440918 20.1796989440918 26 13 26 C 5.82029914855957 26 0 20.1796989440918 0 13 C 0 5.82029914855957 5.82029914855957 0 13 0 Z" stroke="none" fill="#38539a"/>
      </g>
      <path id="เดือน_6" data-name="เดือน 6" d="M-7.25.12c1.6,0,2.59-.87,2.59-2.21,0-1.37-.88-2.17-2.55-2.17h-.56l.09-1.12h2.64V-6.5H-8.76l-.26,2.59v.77h1.8c.89,0,1.26.38,1.26,1.06A1.151,1.151,0,0,1-7.26-.94a3.637,3.637,0,0,1-1.77-.44L-9.36-.37A3.913,3.913,0,0,0-7.25.12Zm6.24,0C.56.12,1.56-1.14,1.56-3.25s-1-3.37-2.57-3.37S-3.58-5.36-3.58-3.25-2.58.12-1.01.12Zm0-1.06c-.76,0-1.27-.75-1.27-2.31s.51-2.31,1.27-2.31S.26-4.81.26-3.25-.25-.94-1.01-.94ZM3.74-3.08a1.6,1.6,0,0,0,1.5-1.77,1.6,1.6,0,0,0-1.5-1.77,1.6,1.6,0,0,0-1.5,1.77A1.6,1.6,0,0,0,3.74-3.08ZM3.47,0H4.66L8.33-6.6H7.14Zm.27-3.86c-.31,0-.48-.43-.48-.99s.17-.99.48-.99.48.43.48.99S4.05-3.86,3.74-3.86ZM8.06.12a1.6,1.6,0,0,0,1.5-1.77,1.6,1.6,0,0,0-1.5-1.77,1.6,1.6,0,0,0-1.5,1.77A1.6,1.6,0,0,0,8.06.12Zm0-.78c-.31,0-.48-.43-.48-.99s.17-.99.48-.99.48.43.48.99S8.37-.66,8.06-.66Z" transform="translate(1012 1257)" fill="#38539a"/>
    </g>
  </g>
</svg>
