<svg xmlns="http://www.w3.org/2000/svg" width="94" height="32" viewBox="0 0 94 32">
  <g id="Group_4553" data-name="Group 4553" transform="translate(11623 12706)">
    <path id="Path_9801" data-name="Path 9801" d="M16,0H78a16,16,0,0,1,0,32H16A16,16,0,0,1,16,0Z" transform="translate(-11623 -12706)" fill="#f1f2ff"/>
    <g id="Path_9800" data-name="Path 9800" transform="translate(-11620 -12703)" fill="#fff">
      <path d="M 75 25 L 13 25 C 9.794682502746582 25 6.781211853027344 23.75178909301758 4.514717578887939 21.48528289794922 C 2.248211860656738 19.21878814697266 1 16.20531845092773 1 13 C 1 9.794682502746582 2.248211860656738 6.781211853027344 4.514717578887939 4.514717578887939 C 6.781211853027344 2.248211860656738 9.794682502746582 1 13 1 L 75 1 C 78.20531463623047 1 81.21878814697266 2.248211860656738 83.48528289794922 4.514717578887939 C 85.75178527832031 6.781211853027344 87 9.794682502746582 87 13 C 87 16.20531845092773 85.75178527832031 19.21878814697266 83.48528289794922 21.48528289794922 C 81.21878814697266 23.75178909301758 78.20531463623047 25 75 25 Z" stroke="none"/>
      <path d="M 13 2 C 10.06179046630859 2 7.299453735351563 3.144199371337891 5.221824645996094 5.221826553344727 C 3.144203186035156 7.299453735351563 2 10.06178665161133 2 13 C 2 15.93821334838867 3.144203186035156 18.70054626464844 5.221824645996094 20.77817344665527 C 7.299453735351563 22.85580062866211 10.06179046630859 24 13 24 L 75 24 C 77.93821716308594 24 80.70054626464844 22.85580062866211 82.77817535400391 20.77817344665527 C 84.85579681396484 18.70054626464844 86 15.93821334838867 86 13 C 86 10.06178665161133 84.85579681396484 7.299453735351563 82.77817535400391 5.221826553344727 C 80.70054626464844 3.144199371337891 77.93821716308594 2 75 2 L 13 2 M 13 0 L 75 0 C 82.17970275878906 0 88 5.820293426513672 88 13 C 88 20.17970657348633 82.17970275878906 26 75 26 L 13 26 C 5.820289611816406 26 0 20.17970657348633 0 13 C 0 5.820293426513672 5.820289611816406 0 13 0 Z" stroke="none" fill="#38539a"/>
    </g>
    <path id="เดือน_6" data-name="เดือน 6" d="M-25.04,0h1.43l.79-2.56a10.353,10.353,0,0,0,.32-1.78h.03a10.437,10.437,0,0,0,.39,1.78L-21.29,0h1.39l.9-7.5h-1.21l-.47,4.65A15.96,15.96,0,0,0-20.77-1h-.03a12,12,0,0,0-.34-1.85l-.74-2.47h-1.21l-.67,2.47A9.354,9.354,0,0,0-24.1-1h-.03a12.235,12.235,0,0,0-.15-1.85l-.44-2.75h-1.27Zm8.68.12c1.51,0,2.25-.68,2.25-1.63,0-1.08-.73-1.51-1.85-1.88-.71-.24-1.19-.41-1.19-.8,0-.35.39-.49.9-.49a3.265,3.265,0,0,1,1.63.38l.34-.92a4.194,4.194,0,0,0-2.03-.5c-1.23,0-2.1.66-2.1,1.54,0,1.15,1.1,1.55,1.94,1.83.54.18,1.1.37,1.1.82,0,.41-.4.61-1.09.61a3.379,3.379,0,0,1-1.62-.43l-.31.99A4.037,4.037,0,0,0-16.36.12ZM-18.91-6.3h4.55V-8.23h-1.16v.95h-3.39Zm6.12,4.36h.88l.22-3.15V-6.74h-1.32v1.65Zm.44,2.07a.764.764,0,0,0,.81-.78.764.764,0,0,0-.81-.78.764.764,0,0,0-.81.78A.764.764,0,0,0-12.35.13ZM-5.76.12c1.68,0,2.73-.97,2.73-2.94a2.653,2.653,0,0,0-2.82-2.9,4.146,4.146,0,0,0-2.48.79l.42.97a3.2,3.2,0,0,1,1.97-.72c.96,0,1.61.65,1.61,1.82,0,1.33-.58,1.94-1.53,1.94-.79,0-1.19-.35-1.19-1.06v-.04c0-.13.06-.19.18-.19h.86V-3.25H-7.29c-.72,0-1.02.36-1.02,1.09v.17C-8.31-.73-7.47.12-5.76.12ZM-7.83-6.3h4.55V-8.23H-4.44v.95H-7.83ZM-1.97,0h1.3V-2.35A.84.84,0,0,1-.18-3.2v-.23L-.88-4A1.6,1.6,0,0,1,.43-4.68a1.089,1.089,0,0,1,1.21,1.2V0h1.3V-3.48A2.2,2.2,0,0,0,.46-5.72,2.821,2.821,0,0,0-2.25-3.96l.81.66a1.106,1.106,0,0,0-.53.96ZM6.77,0h4.24V-1.1l-1.44.02V-6.5H8.6l-1.63.58v.96l1.3-.32v4.2L6.77-1.1ZM16.86.12c1.56,0,2.27-.76,2.27-2.07v-1a1.186,1.186,0,0,0-.8-1.2L19.46-5.6H18.1L17.04-4.06l.2.48h.15c.31,0,.44.17.44.6v1.04c0,.72-.33,1.04-.97,1.04a.844.844,0,0,1-.97-.96v-.53c0-.7.84-1.05.84-1.82v-.25c0-.75-.28-1.14-1.31-1.14h-.77v1.02h.61a.206.206,0,0,1,.23.23v.14c0,.57-.9.97-.9,1.82v.52C14.59-.59,15.29.12,16.86.12Zm1.09,2.69h1.18V1.56c0-.65-.31-.91-.96-.91h-.84v.96h.38a.212.212,0,0,1,.24.24ZM22.52.12a1.969,1.969,0,0,0,1.1-.25l-.23-.94a1.678,1.678,0,0,1-.75.15c-.53,0-1.16-.47-1.16-1.79,0-1.2.55-1.97,1.52-1.97a1.2,1.2,0,0,1,1.29,1.29V0h1.3V-3.38a2.326,2.326,0,0,0-2.62-2.34,2.742,2.742,0,0,0-2.79,3.01C20.18-.76,21.32.12,22.52.12Z" transform="translate(-11576 -12686)" fill="#38539a"/>
  </g>
</svg>
