<svg xmlns="http://www.w3.org/2000/svg" width="32" height="32" viewBox="0 0 32 32">
  <g id="Group_4520" data-name="Group 4520" transform="translate(8642 -11346)">
    <g id="Path_9796" data-name="Path 9796" transform="translate(-8642 11346)" fill="#38539a">
      <path d="M 16 30.5 C 12.12691020965576 30.5 8.485639572143555 28.99173927307129 5.746950149536133 26.25304985046387 C 3.008260011672974 23.51436042785645 1.5 19.87309074401855 1.5 16 C 1.5 12.12691020965576 3.008260011672974 8.485639572143555 5.746950149536133 5.746950149536133 C 8.485639572143555 3.008260011672974 12.12691020965576 1.5 16 1.5 C 19.87309074401855 1.5 23.51436042785645 3.008260011672974 26.25304985046387 5.746950149536133 C 28.99173927307129 8.485639572143555 30.5 12.12691020965576 30.5 16 C 30.5 19.87309074401855 28.99173927307129 23.51436042785645 26.25304985046387 26.25304985046387 C 23.51436042785645 28.99173927307129 19.87309074401855 30.5 16 30.5 Z" stroke="none"/>
      <path d="M 16 3 C 12.5275707244873 3 9.262990951538086 4.352239608764648 6.807609558105469 6.807609558105469 C 4.352239608764648 9.262990951538086 3 12.5275707244873 3 16 C 3 19.47243118286133 4.352239608764648 22.73701095581055 6.807609558105469 25.19239044189453 C 9.262990951538086 27.64776039123535 12.5275707244873 29 16 29 C 19.47243118286133 29 22.73701095581055 27.64776039123535 25.19239044189453 25.19239044189453 C 27.64776039123535 22.73701095581055 29 19.47243118286133 29 16 C 29 12.5275707244873 27.64776039123535 9.262990951538086 25.19239044189453 6.807609558105469 C 22.73701095581055 4.352239608764648 19.47243118286133 3 16 3 M 16 0 C 24.8365592956543 0 32 7.163440704345703 32 16 C 32 24.8365592956543 24.8365592956543 32 16 32 C 7.163440704345703 32 0 24.8365592956543 0 16 C 0 7.163440704345703 7.163440704345703 0 16 0 Z" stroke="none" fill="#f1f2ff"/>
    </g>
    <g id="Group_4517" data-name="Group 4517" transform="translate(-9638 10108)">
      <g id="Path_9797" data-name="Path 9797" transform="translate(999 1241)" fill="#fafafa">
        <path d="M 13 25 C 9.794679641723633 25 6.781219959259033 23.75177955627441 4.51471996307373 21.48527908325195 C 2.248219966888428 19.21878051757813 1 16.20532035827637 1 13 C 1 9.794679641723633 2.248219966888428 6.781219959259033 4.51471996307373 4.51471996307373 C 6.781219959259033 2.248219966888428 9.794679641723633 1 13 1 C 16.20532035827637 1 19.21878051757813 2.248219966888428 21.48527908325195 4.51471996307373 C 23.75177955627441 6.781219959259033 25 9.794679641723633 25 13 C 25 16.20532035827637 23.75177955627441 19.21878051757813 21.48527908325195 21.48527908325195 C 19.21878051757813 23.75177955627441 16.20532035827637 25 13 25 Z" stroke="none"/>
        <path d="M 13 2 C 10.06179046630859 2 7.299449920654297 3.144199371337891 5.221830368041992 5.221830368041992 C 3.144199371337891 7.299449920654297 2 10.06179046630859 2 13 C 2 15.93820953369141 3.144199371337891 18.7005500793457 5.221830368041992 20.77816963195801 C 7.299449920654297 22.85580062866211 10.06179046630859 24 13 24 C 15.93820953369141 24 18.7005500793457 22.85580062866211 20.77816963195801 20.77816963195801 C 22.85580062866211 18.7005500793457 24 15.93820953369141 24 13 C 24 10.06179046630859 22.85580062866211 7.299449920654297 20.77816963195801 5.221830368041992 C 18.7005500793457 3.144199371337891 15.93820953369141 2 13 2 M 13 0 C 20.1796989440918 0 26 5.82029914855957 26 13 C 26 20.1796989440918 20.1796989440918 26 13 26 C 5.82029914855957 26 0 20.1796989440918 0 13 C 0 5.82029914855957 5.82029914855957 0 13 0 Z" stroke="none" fill="#38539a"/>
      </g>
      <path id="Path_9795" data-name="Path 9795" d="M-2.611-2.617,4.9,4.9.817,8.992" transform="translate(1015.492 1253.111) rotate(90)" fill="none" stroke="#38539a" stroke-linecap="round" stroke-linejoin="round" stroke-width="2"/>
    </g>
  </g>
</svg>
