<svg xmlns="http://www.w3.org/2000/svg" width="104" height="104" viewBox="0 0 104 104">
  <g id="Group_8840" data-name="Group 8840" transform="translate(-1389 16775)">
    <rect id="Rectangle_4308" data-name="Rectangle 4308" width="104" height="104" transform="translate(1389 -16775)" fill="#fff"/>
    <g id="Group_8839" data-name="Group 8839" transform="translate(-7568 -7162)">
      <rect id="Rectangle_4186" data-name="Rectangle 4186" width="80" height="45" transform="translate(8969 -9583)" fill="#fff" opacity="0"/>
      <g id="Group_8282" data-name="Group 8282" transform="translate(8969 -9564.191)">
        <path id="Path_87457" data-name="Path 87457" d="M49.771,65.941c0,.954-.9.785-.9,1.159,0,.16.189.112.292.112.25,0,.506-.039.8-.039.327,0,.646.039,1.106.039.122,0,.356.009.356-.123,0-.438-1.2.2-1.2-1.6v-3.18c0-.084.02-.149.076-.149s.1.044.169.122l4.507,4.863a.276.276,0,0,0,.242.13c.114,0,.114-.073.114-.28V61.75c0-.981.8-.756.8-1.037,0-.028,0-.121-.177-.121-.084,0-.412.037-1,.037-.646,0-.918-.037-1.068-.037a.143.143,0,0,0-.151.157c0,.309,1.142.142,1.142.993v3.113c0,.233-.017.345-.073.345s-.169-.113-.289-.243l-3.769-4.123c-.166-.178-.054-.243-.353-.243-.5,0-.741.037-.983.037-.18,0-.348-.037-.525-.037a.146.146,0,0,0-.16.157c0,.45,1.048-.157,1.048,1.636v3.555" transform="translate(-39.937 -60.512)" fill="#03571c"/>
        <path id="Path_87458" data-name="Path 87458" d="M49.654,65.823H49.6a.754.754,0,0,1-.423.75c-.109.059-.22.1-.312.158a.3.3,0,0,0-.166.251.157.157,0,0,0,.074.143l.135.028c.053,0,.1-.006.138-.006.257,0,.511-.039.8-.039.325,0,.643.039,1.106.039h.05a.87.87,0,0,0,.214-.019.168.168,0,0,0,.146-.156.207.207,0,0,0-.069-.162.715.715,0,0,0-.3-.1.929.929,0,0,1-.541-.262,1.535,1.535,0,0,1-.289-1.07v-3.18l.011-.085.01-.011c.013,0,.066.028.128.1h0l4.508,4.865.039-.037-.04.035a.327.327,0,0,0,.282.147.14.14,0,0,0,.151-.1.874.874,0,0,0,.017-.234V61.632c0-.476.182-.635.369-.733.093-.049.19-.076.271-.112a.215.215,0,0,0,.154-.192l-.034-.1a.237.237,0,0,0-.2-.07c-.092,0-.413.038-1,.038-.644,0-.911-.038-1.068-.038a.193.193,0,0,0-.164.077l-.041.135a.183.183,0,0,0,.067.138,3.953,3.953,0,0,0,.644.248.618.618,0,0,1,.432.608v3.113a1.486,1.486,0,0,1-.014.251l-.015.044h0l.007.013V65.03l-.007,0,.007.013V65.03l0,0a1.09,1.09,0,0,1-.246-.224L50.667,60.68a1.1,1.1,0,0,1-.124-.184l-.1-.061a.744.744,0,0,0-.172-.014c-.5,0-.747.038-.983.038-.174,0-.341-.037-.525-.038a.209.209,0,0,0-.162.065.216.216,0,0,0-.051.146.247.247,0,0,0,.2.244,1.209,1.209,0,0,1,.534.243,1.548,1.548,0,0,1,.315,1.149v3.555h.107V62.267c0-.9-.271-1.233-.555-1.37a2.609,2.609,0,0,0-.366-.123c-.093-.038-.124-.056-.128-.143l.023-.074a.1.1,0,0,1,.083-.029c.169,0,.338.036.525.036.248,0,.487-.036.983-.036a.666.666,0,0,1,.145.011l.055.05a.727.727,0,0,0,.114.165l3.769,4.124c.06.065.12.127.173.175a.276.276,0,0,0,.156.085l.08-.045a.738.738,0,0,0,.048-.354V61.624a.771.771,0,0,0-.608-.75c-.146-.052-.29-.088-.392-.127a.387.387,0,0,1-.113-.06l-.031-.056.02-.071a.085.085,0,0,1,.077-.033c.143,0,.42.036,1.068.036.591,0,.928-.036,1-.036s.1.021.113.031l.009.037c0,.04-.02.059-.093.094a1.529,1.529,0,0,0-.432.218.887.887,0,0,0-.271.726v5.247a.839.839,0,0,1-.012.2c-.013.025,0,.021-.048.026-.114,0-.132-.036-.2-.112v0L50.4,62.129l-.04.037.041-.036c-.071-.078-.128-.136-.21-.141a.116.116,0,0,0-.107.077.315.315,0,0,0-.022.127v3.18c0,.907.313,1.233.633,1.357a3.013,3.013,0,0,0,.42.111.3.3,0,0,1,.115.05l.031.079c0,.023-.011.036-.065.052a.762.762,0,0,1-.186.018h-.05c-.457,0-.773-.039-1.106-.039-.3,0-.559.039-.8.039l-.138.006-.08-.014-.022-.051c0-.068.036-.109.115-.159a3.243,3.243,0,0,0,.481-.271.879.879,0,0,0,.3-.729h-.054" transform="translate(-39.819 -60.393)" fill="#03571c"/>
        <path id="Path_87459" data-name="Path 87459" d="M110.007,66c0,1.112-1.06.662-1.06,1.029,0,.2.16.2.329.2.373,0,.682-.038,1.311-.038s.937.038,1.311.038c.272,0,.459.028.459-.2,0-.263-1.2.009-1.2-1.142V61.66c0-.449.093-.495.478-.495h.8c1.076-.038.779,1,1.15,1,.246,0,.141-.366.123-.476l-.1-.86c-.009-.095-.009-.225-.151-.225-.871,0-1.5.037-2.866.037s-2-.037-2.868-.037c-.14,0-.14.131-.149.225l-.151,1.234c-.018.122-.075.326.122.326.422,0,.141-1.224,1.2-1.224h.788c.383,0,.478.046.478.495V66" transform="translate(-80.25 -60.52)" fill="#03571c"/>
        <path id="Path_87460" data-name="Path 87460" d="M109.891,65.88h-.054c-.005.537-.238.667-.49.743-.127.034-.258.047-.365.075a.342.342,0,0,0-.14.067.181.181,0,0,0-.065.144.218.218,0,0,0,.119.217.541.541,0,0,0,.227.032h.036c.378,0,.684-.038,1.311-.038s.933.038,1.311.038h.149a.552.552,0,0,0,.249-.037.218.218,0,0,0,.115-.214.144.144,0,0,0-.078-.123,1.126,1.126,0,0,0-.291-.091,1.331,1.331,0,0,1-.548-.227.83.83,0,0,1-.283-.7V61.54c0-.222.027-.332.078-.377s.155-.066.347-.064h.8l.055,0a.689.689,0,0,1,.738.467c.05.121.08.246.124.346a.254.254,0,0,0,.231.188.191.191,0,0,0,.173-.088.322.322,0,0,0,.041-.174,1.546,1.546,0,0,0-.038-.277l-.1-.858a.605.605,0,0,0-.03-.162.179.179,0,0,0-.174-.111c-.873,0-1.5.038-2.866.038s-1.994-.038-2.868-.038a.179.179,0,0,0-.173.111.609.609,0,0,0-.031.163l-.148,1.233a1.123,1.123,0,0,0-.023.181.22.22,0,0,0,.039.139.187.187,0,0,0,.157.066.3.3,0,0,0,.265-.223,4.722,4.722,0,0,1,.247-.638.719.719,0,0,1,.687-.361h.788c.191,0,.3.015.346.064s.079.154.078.377v4.34h.107V61.54c0-.227-.02-.365-.112-.455a.6.6,0,0,0-.419-.093h-.788a.871.871,0,0,0-.888.647c-.058.156-.1.311-.143.418s-.094.158-.167.159c-.049,0-.063-.012-.073-.024l-.017-.074a1.223,1.223,0,0,1,.021-.167l.149-1.235a.567.567,0,0,1,.023-.134c.016-.03.023-.042.074-.045.87,0,1.5.037,2.868.037s2-.037,2.866-.037c.054,0,.059.015.075.045a.447.447,0,0,1,.023.133l.1.861a1.555,1.555,0,0,1,.037.262.242.242,0,0,1-.023.118.086.086,0,0,1-.083.036c-.061,0-.093-.033-.134-.123a2.7,2.7,0,0,0-.221-.536.81.81,0,0,0-.738-.341h-.059l0,.054v-.054h-.8a.607.607,0,0,0-.421.093c-.092.09-.11.228-.112.455v4.228a.909.909,0,0,0,.635.954,3.969,3.969,0,0,0,.417.111.552.552,0,0,1,.123.044l.024.032c0,.079-.018.1-.054.118a.469.469,0,0,1-.2.026h-.149c-.37,0-.681-.038-1.311-.038s-.942.039-1.311.038h-.036a.449.449,0,0,1-.182-.022c-.034-.02-.054-.038-.057-.12l.028-.064a.491.491,0,0,1,.218-.068,1.231,1.231,0,0,0,.524-.18.82.82,0,0,0,.289-.717h-.053" transform="translate(-80.135 -60.399)" fill="#03571c"/>
        <path id="Path_87461" data-name="Path 87461" d="M165.433,61.556c0-.888.7-.552.7-.87,0-.113-.047-.133-.327-.133-.535,0-.87.039-1.209.039s-.694-.039-1.058-.039c-.087,0-.319-.027-.319.133,0,.326,1.059.065,1.059.916v4.489c0,.887-.675.646-.675.972a.1.1,0,0,0,.1.114c.243,0,.647-.038,1.049-.038.73,0,1.078.038,1.425.038.215,0,.3-.038.3-.142,0-.3-1.047.133-1.047-1.018v-4.46" transform="translate(-118.606 -60.484)" fill="#03571c"/>
        <path id="Path_87462" data-name="Path 87462" d="M165.313,61.438h.053c.005-.431.156-.532.317-.6.083-.032.169-.047.242-.077a.2.2,0,0,0,.144-.195l-.018-.092a.159.159,0,0,0-.127-.081,1.48,1.48,0,0,0-.236-.014c-.538,0-.876.04-1.209.039s-.689-.038-1.058-.039h-.085a.49.49,0,0,0-.176.026.17.17,0,0,0-.112.162.185.185,0,0,0,.064.139,2.76,2.76,0,0,0,.6.207.552.552,0,0,1,.4.571v4.489c0,.431-.153.561-.309.649-.081.043-.163.071-.235.112a.233.233,0,0,0-.132.211l.028.1a.151.151,0,0,0,.128.062c.248,0,.649-.036,1.049-.036.728,0,1.074.036,1.425.036a.606.606,0,0,0,.252-.036.167.167,0,0,0,.1-.159.152.152,0,0,0-.07-.126.709.709,0,0,0-.263-.069.963.963,0,0,1-.472-.161.773.773,0,0,1-.244-.662v-4.46h-.108V65.9c0,.592.287.808.563.881.138.038.272.048.366.068a.3.3,0,0,1,.1.033l.021.037-.038.061a.521.521,0,0,1-.207.027c-.342,0-.692-.037-1.425-.037-.405,0-.811.038-1.049.037l-.039-.014-.01-.045c0-.062.023-.083.079-.119a1.691,1.691,0,0,0,.364-.2.811.811,0,0,0,.232-.652V61.485a.691.691,0,0,0-.568-.706c-.137-.042-.269-.066-.362-.1a.286.286,0,0,1-.1-.053l-.028-.057.045-.063a.369.369,0,0,1,.135-.018l.085,0c.361,0,.726.039,1.058.039s.676-.039,1.209-.039a.844.844,0,0,1,.249.02l.019.014.006.045c0,.056-.018.067-.078.1a1.513,1.513,0,0,0-.381.15.7.7,0,0,0-.246.625h.055" transform="translate(-118.486 -60.367)" fill="#03571c"/>
        <path id="Path_87463" data-name="Path 87463" d="M207.728,61.588c0-.889.7-.552.7-.868,0-.114-.047-.131-.329-.131-.535,0-.871.037-1.208.037s-.694-.037-1.058-.037c-.085,0-.32-.03-.32.131,0,.326,1.06.064,1.06.914v4.489c0,.89-.675.647-.675.974a.1.1,0,0,0,.1.112c.243,0,.647-.039,1.05-.039.729,0,1.076.039,1.423.039.216,0,.3-.039.3-.141,0-.3-1.051.132-1.051-1.019v-4.46" transform="translate(-147.666 -60.508)" fill="#03571c"/>
        <path id="Path_87464" data-name="Path 87464" d="M207.61,61.47h.054c0-.431.156-.534.317-.6.082-.031.168-.046.242-.077a.2.2,0,0,0,.144-.192l-.017-.093a.164.164,0,0,0-.128-.08,1.417,1.417,0,0,0-.238-.013c-.537,0-.876.038-1.208.038s-.691-.038-1.058-.038l-.092,0a.464.464,0,0,0-.172.026.167.167,0,0,0-.109.161.183.183,0,0,0,.063.138,2.734,2.734,0,0,0,.6.207.548.548,0,0,1,.4.57V66c0,.432-.153.563-.309.652-.079.043-.162.071-.234.112a.234.234,0,0,0-.132.211l.03.1a.15.15,0,0,0,.128.061c.247,0,.65-.039,1.05-.039.728,0,1.072.039,1.423.039a.621.621,0,0,0,.255-.037.165.165,0,0,0,.1-.157.148.148,0,0,0-.071-.127.7.7,0,0,0-.263-.069.984.984,0,0,1-.473-.16.777.777,0,0,1-.245-.662V61.47h-.107v4.46c0,.592.288.809.565.881a3.706,3.706,0,0,0,.366.068.338.338,0,0,1,.1.032l.021.038-.039.059a.54.54,0,0,1-.21.029c-.342,0-.691-.039-1.423-.039-.405,0-.812.039-1.05.039l-.04-.017-.01-.043c0-.06.022-.083.078-.118a1.788,1.788,0,0,0,.365-.2.813.813,0,0,0,.232-.653V61.516a.69.69,0,0,0-.569-.7c-.136-.042-.269-.068-.362-.1a.288.288,0,0,1-.1-.053l-.026-.057.043-.062a.366.366,0,0,1,.131-.018l.092,0c.361,0,.725.037,1.058.037s.676-.037,1.208-.037a.89.89,0,0,1,.251.019l.017.014.007.044c0,.055-.018.066-.077.094a1.485,1.485,0,0,0-.381.148.7.7,0,0,0-.245.626h.054" transform="translate(-147.548 -60.39)" fill="#03571c"/>
        <path id="Path_87465" data-name="Path 87465" d="M224.607,65.954c0,1.112-1.057.664-1.057,1.028,0,.207.16.2.328.2.375,0,.684-.038,1.311-.038s.937.038,1.313.038c.271,0,.458.027.458-.2,0-.26-1.2.01-1.2-1.14V61.617c0-.45.094-.5.478-.5h.8c1.079-.037.778,1,1.153,1,.244,0,.14-.365.121-.478l-.1-.859c-.009-.094-.009-.226-.151-.226-.871,0-1.5.038-2.866.038s-2-.038-2.866-.038c-.141,0-.141.132-.151.226l-.147,1.234c-.019.121-.078.326.121.326.421,0,.141-1.224,1.2-1.224h.785c.385,0,.477.046.477.5v4.338" transform="translate(-158.992 -60.488)" fill="#03571c"/>
        <path id="Path_87466" data-name="Path 87466" d="M224.49,65.835h-.053c-.005.538-.239.668-.489.744-.128.035-.258.047-.364.075a.386.386,0,0,0-.141.065.185.185,0,0,0-.064.144.219.219,0,0,0,.115.217.493.493,0,0,0,.222.034h.045c.378,0,.687-.037,1.311-.037s.933.037,1.313.037h.148a.577.577,0,0,0,.25-.037.218.218,0,0,0,.114-.215.143.143,0,0,0-.077-.123c-.141-.08-.417-.089-.666-.209a.792.792,0,0,1-.458-.809V61.5c0-.223.027-.332.079-.379s.155-.065.346-.064h.853a.692.692,0,0,1,.74.467c.05.121.079.245.122.345a.26.26,0,0,0,.235.189.2.2,0,0,0,.172-.087.328.328,0,0,0,.041-.174,1.59,1.59,0,0,0-.039-.279l-.054.009.054-.005-.1-.86a.608.608,0,0,0-.032-.163.176.176,0,0,0-.174-.111c-.873,0-1.5.039-2.866.039s-1.993-.039-2.866-.039a.177.177,0,0,0-.174.111.64.64,0,0,0-.03.164l-.147,1.234.053.006-.053-.008a1.23,1.23,0,0,0-.023.183.218.218,0,0,0,.04.139.188.188,0,0,0,.157.066c.137,0,.216-.1.266-.224a4.482,4.482,0,0,1,.247-.639.72.72,0,0,1,.688-.362h.785c.192,0,.3.016.346.064s.079.156.078.379v4.338h.107V61.5c0-.227-.019-.365-.111-.456a.6.6,0,0,0-.42-.094h-.785a.874.874,0,0,0-.891.647c-.058.157-.1.31-.143.419s-.093.158-.167.158c-.047,0-.062-.013-.073-.024l-.017-.074a1.078,1.078,0,0,1,.023-.166h0l.149-1.237a.448.448,0,0,1,.021-.134c.018-.03.023-.042.076-.045.869,0,1.5.039,2.866.039s2-.039,2.866-.039c.053,0,.06.015.076.045a.547.547,0,0,1,.023.134l.1.862h0a1.371,1.371,0,0,1,.038.26.231.231,0,0,1-.023.116.083.083,0,0,1-.082.038c-.062,0-.094-.034-.135-.124a2.833,2.833,0,0,0-.222-.537.816.816,0,0,0-.74-.341h-.058v0h-.8a.6.6,0,0,0-.42.094c-.092.091-.11.229-.112.456v4.226a.909.909,0,0,0,.636.954,4.165,4.165,0,0,0,.417.111.5.5,0,0,1,.121.044l.026.031c0,.08-.02.1-.054.119a.5.5,0,0,1-.2.025h-.148c-.371,0-.684-.037-1.313-.037s-.941.038-1.311.037h-.045a.428.428,0,0,1-.174-.022c-.033-.018-.053-.038-.055-.121l.027-.062a.515.515,0,0,1,.219-.069,1.221,1.221,0,0,0,.524-.179.827.827,0,0,0,.288-.718h-.054" transform="translate(-158.874 -60.368)" fill="#03571c"/>
        <path id="Path_87467" data-name="Path 87467" d="M85.7,63.271v-1.6c0-1.056.658-.72.658-.973,0-.1-.058-.121-.17-.121-.468.018-.76.037-1.066.037-.264,0-.516-.019-.787-.037-.122,0-.284-.047-.284.1,0,.335,1.155.047,1.155,1.122v1.469l-.008.82c.092,2.282-1.135,2.666-2.1,2.629-1.818,0-2.053-1.2-2.053-2.629V62.064c0-1.533.788-1.039.788-1.355,0-.058-.018-.131-.1-.131-.178,0-.843.037-1.319.037s-1.172-.037-1.3-.037c-.075,0-.2.025-.2.15,0,.353.976.055.976.86v3.049c0,1.813,1.338,2.626,3.09,2.626a2.428,2.428,0,0,0,2.726-2.626V63.282l-.012-.011" transform="translate(-60.686 -60.497)" fill="#03571c"/>
        <path id="Path_87468" data-name="Path 87468" d="M85.587,63.152h.054v-1.6c0-.52.155-.668.3-.74a1.748,1.748,0,0,1,.22-.073l.094-.051.045-.109a.156.156,0,0,0-.068-.145.294.294,0,0,0-.155-.03h0c-.467.018-.76.038-1.064.038-.262,0-.512-.02-.784-.038h0c-.042,0-.1-.007-.146-.007l-.125.03a.149.149,0,0,0-.065.134.181.181,0,0,0,.069.142,5.091,5.091,0,0,0,.647.234.726.726,0,0,1,.439.746v1.469l-.008.82c0,.083.005.161.005.235a2.457,2.457,0,0,1-.635,1.9,1.878,1.878,0,0,1-1.3.438l-.119,0h0a1.74,1.74,0,0,1-1.662-.752,3.619,3.619,0,0,1-.338-1.823V61.944c0-.761.192-.991.366-1.087a1.177,1.177,0,0,1,.261-.088l.109-.054a.162.162,0,0,0,.051-.125l-.026-.115a.147.147,0,0,0-.13-.07c-.182,0-.845.038-1.319.038S79.129,60.4,79,60.4a.309.309,0,0,0-.151.036.185.185,0,0,0-.1.168.241.241,0,0,0,.187.22,4.421,4.421,0,0,1,.509.156.477.477,0,0,1,.279.484v3.049a2.444,2.444,0,0,0,.909,2.036,3.616,3.616,0,0,0,2.236.643,2.853,2.853,0,0,0,2.026-.671,2.786,2.786,0,0,0,.754-2.006V63.143l-.025-.026-.04.036h0l-.039.036.01.01.04-.035h-.055v1.354a2.672,2.672,0,0,1-.72,1.93,2.755,2.755,0,0,1-1.953.643,3.506,3.506,0,0,1-2.168-.622,2.333,2.333,0,0,1-.867-1.951V61.468a.618.618,0,0,0-.169-.463,1.094,1.094,0,0,0-.539-.234.84.84,0,0,1-.2-.068c-.046-.029-.062-.049-.063-.095l.042-.075.1-.021c.119,0,.825.037,1.3.037s1.144-.037,1.319-.037l.038.018.013.06-.018.046a.441.441,0,0,1-.159.056.652.652,0,0,0-.4.268,1.738,1.738,0,0,0-.209.985v2.028a3.715,3.715,0,0,0,.353,1.879,1.845,1.845,0,0,0,1.755.8V66.6l0,.053.124,0a1.977,1.977,0,0,0,1.369-.468,2.559,2.559,0,0,0,.669-1.981c0-.076,0-.156-.006-.238l.008-.817v-1.47a.848.848,0,0,0-.613-.889c-.148-.053-.295-.083-.4-.118a.392.392,0,0,1-.114-.055l-.03-.06.016-.044.067-.012c.042,0,.094.007.146.007v-.053l0,.053c.271.018.524.037.79.037.308,0,.6-.019,1.068-.037l0-.053v.053a.217.217,0,0,1,.1.014l.017.053-.012.032c-.026.038-.2.043-.354.144s-.292.327-.292.8v1.621l.014.016.039-.036" transform="translate(-60.57 -60.378)" fill="#03571c"/>
        <path id="Path_87469" data-name="Path 87469" d="M138.819,66.407a2.3,2.3,0,0,0,1.888,1.133c.184.005.867-.035.846-.2-.022-.188-.172-.122-.419-.182-.708-.175-2.246-2.468-2.689-2.747a1.927,1.927,0,0,0,1.8-2.113c-.017-.354-.186-1.746-2.236-1.746-.626,0-2.079.035-2.706.035-.59,0-.666-.035-1.1-.035-.113,0-.206.046-.206.14,0,.335,1.02-.01,1.02,1.036v4.112c0,1.177-.758.872-.758,1.17,0,.188.2.158.3.158.468,0,.935-.036,1.441-.036.392,0,.646.036.8.036.216,0,.291-.056.291-.139,0-.338-.961-.041-.937-1.011l0-4.415c0-.559.29-.559.637-.559.945,0,2.363-.068,2.429,1.526a1.508,1.508,0,0,1-1.7,1.452c-.182,0-.518.047-.555.142-.049.12-.018.191.219.285a7.556,7.556,0,0,1,1.621,1.959" transform="translate(-98.527 -60.483)" fill="#03571c"/>
        <path id="Path_87470" data-name="Path 87470" d="M138.7,66.288l-.044.03a2.356,2.356,0,0,0,1.931,1.157h.03a3.514,3.514,0,0,0,.5-.041,1.108,1.108,0,0,0,.244-.064c.064-.027.126-.064.13-.143v-.015a.227.227,0,0,0-.055-.13.281.281,0,0,0-.177-.064,1.905,1.905,0,0,1-.228-.032h0a4.541,4.541,0,0,1-1.416-1.318c-.263-.314-.52-.633-.739-.891a3.2,3.2,0,0,0-.521-.534l-.028.046.006.054a1.969,1.969,0,0,0,1.848-2.045l0-.127a1.894,1.894,0,0,0-.367-1.034,2.255,2.255,0,0,0-1.924-.762c-.628,0-2.081.036-2.706.036-.587,0-.661-.036-1.1-.036a.32.32,0,0,0-.173.044.173.173,0,0,0-.086.151.183.183,0,0,0,.061.138c.131.106.366.1.575.2a.662.662,0,0,1,.384.7V65.72c0,.579-.18.766-.352.868a2.577,2.577,0,0,1-.256.11.208.208,0,0,0-.151.192.192.192,0,0,0,.1.181.35.35,0,0,0,.17.033l.087,0c.471,0,.938-.036,1.441-.036.388,0,.638.036.8.036a.546.546,0,0,0,.251-.044.162.162,0,0,0,.094-.148.233.233,0,0,0-.181-.213,2.478,2.478,0,0,1-.484-.181.612.612,0,0,1-.272-.582V65.9l0-4.416c0-.273.068-.386.162-.444a.864.864,0,0,1,.422-.063h.227a3.445,3.445,0,0,1,1.405.207,1.308,1.308,0,0,1,.743,1.269v.028a1.4,1.4,0,0,1-.322.839,1.56,1.56,0,0,1-1.272.529h-.047V63.9l0-.053h-.025a1.6,1.6,0,0,0-.335.038.789.789,0,0,0-.149.048.187.187,0,0,0-.1.089l-.022.1a.181.181,0,0,0,.071.143.712.712,0,0,0,.2.11,1.933,1.933,0,0,1,.534.513c.26.313.607.777,1.063,1.426l.088-.061c-.457-.649-.805-1.116-1.07-1.434a1.967,1.967,0,0,0-.575-.543.651.651,0,0,1-.171-.091l-.035-.063.016-.063.045-.033a1.277,1.277,0,0,1,.438-.077h.07a1.666,1.666,0,0,0,1.355-.568,1.5,1.5,0,0,0,.347-.907v-.033a1.417,1.417,0,0,0-.805-1.361,3.53,3.53,0,0,0-1.45-.217h-.227a.931.931,0,0,0-.477.078c-.137.083-.215.248-.213.536l0,4.415v.036a.714.714,0,0,0,.5.76c.12.045.239.071.32.1s.112.06.113.113l-.036.054a.477.477,0,0,1-.2.032c-.152,0-.409-.036-.8-.036-.508,0-.977.036-1.441.036h-.087a.281.281,0,0,1-.12-.019c-.024-.016-.039-.028-.04-.086s.018-.061.086-.093a.908.908,0,0,0,.672-1.076V61.607a.772.772,0,0,0-.547-.836c-.132-.045-.262-.066-.35-.095l-.1-.048-.026-.057.035-.06a.227.227,0,0,1,.117-.027c.426,0,.5.036,1.1.036.628,0,2.081-.036,2.706-.036a2.153,2.153,0,0,1,1.839.719,1.779,1.779,0,0,1,.345.976l0,.121a1.861,1.861,0,0,1-1.756,1.938l-.148.017.127.081a3.148,3.148,0,0,1,.5.512c.327.385.739.908,1.138,1.353A2.955,2.955,0,0,0,141,67.09c.13.032.234.03.3.043l.057.025.026.068h0l-.011.012a.8.8,0,0,1-.34.1,3.372,3.372,0,0,1-.414.03h-.028a2.247,2.247,0,0,1-1.844-1.111l-.044.031" transform="translate(-98.41 -60.364)" fill="#03571c"/>
        <path id="Path_87471" data-name="Path 87471" d="M184.277,61.433c0-.709.667-.363.667-.72,0-.113-.049-.121-.246-.121-.148,0-.26.037-1.06.037-.355,0-.9-.037-1.274-.037-.2,0-.3.074-.3.157,0,.33,1.059.075,1.059.871v4.424c0,1.14-.712.637-.712,1.067,0,.055.055.1.177.1.516,0,.909-.039,1.2-.039.47,0,1.526-.009,3.212.039a1.44,1.44,0,0,0,1.321-1.5c0-.179-.066-.206-.1-.206-.356,0-.23,1.043-2.546,1.2-1.541.1-1.36-.094-1.4-.889V61.433" transform="translate(-131.553 -60.512)" fill="#03571c"/>
        <path id="Path_87472" data-name="Path 87472" d="M184.157,61.315h.054a.482.482,0,0,1,.091-.327.564.564,0,0,1,.323-.144.469.469,0,0,0,.17-.069.215.215,0,0,0,.082-.181.148.148,0,0,0-.081-.152.575.575,0,0,0-.218-.023c-.158,0-.26.038-1.06.038-.353,0-.9-.038-1.274-.038a.5.5,0,0,0-.249.055.183.183,0,0,0-.1.156.19.19,0,0,0,.064.14,2.483,2.483,0,0,0,.6.2.513.513,0,0,1,.395.527v4.424c0,.562-.165.683-.322.75-.08.033-.169.045-.247.081a.236.236,0,0,0-.142.236.136.136,0,0,0,.069.116.293.293,0,0,0,.163.039c.518,0,.914-.039,1.2-.039h.532c.578,0,1.464,0,2.68.04h.033a1.5,1.5,0,0,0,1.343-1.549.354.354,0,0,0-.048-.2l-.11-.059c-.12,0-.192.088-.264.187-.227.3-.558.89-2.285,1.01-.243.018-.444.025-.606.025a1.758,1.758,0,0,1-.475-.047.28.28,0,0,1-.228-.241,4.656,4.656,0,0,1-.028-.576V61.315H184.1V65.7a1.906,1.906,0,0,0,.081.734.4.4,0,0,0,.254.183,1.859,1.859,0,0,0,.505.05c.167,0,.368-.008.613-.025a3.162,3.162,0,0,0,2.041-.671,2.384,2.384,0,0,0,.323-.381c.075-.1.123-.145.179-.144l.023.013a.242.242,0,0,1,.026.139,1.608,1.608,0,0,1-.35.983,1.137,1.137,0,0,1-.884.459h-.03c-1.217-.036-2.105-.04-2.683-.04h-.532c-.294,0-.685.039-1.2.039a.2.2,0,0,1-.106-.023l-.018-.026c0-.093.025-.11.08-.139a1.322,1.322,0,0,0,.386-.161.92.92,0,0,0,.245-.767V61.5a.66.66,0,0,0-.568-.661c-.135-.039-.268-.063-.362-.1a.321.321,0,0,1-.1-.053l-.027-.06.049-.064a.41.41,0,0,1,.2-.04c.373,0,.916.037,1.274.037.8,0,.921-.037,1.06-.037a.526.526,0,0,1,.174.015c.013.008.013,0,.018.054a.107.107,0,0,1-.072.114,3.672,3.672,0,0,0-.354.113.5.5,0,0,0-.241.493h.054" transform="translate(-131.434 -60.393)" fill="#03571c"/>
        <path id="Path_87473" data-name="Path 87473" d="M249.754,61.626c0-.645-.006-.653,2.034-.653,1.809,0,1.079,1.093,1.519,1.093.214,0,.167-.309.159-.43l-.037-.926a.179.179,0,0,0-.188-.176c-.825,0-2.333.037-3,.037-1.434,0-2.109-.037-2.492-.037-.132,0-.207.075-.207.158,0,.375,1.059.076,1.059.918v4.377c0,1.139-.712.635-.712,1.064,0,.057.054.1.177.1.515,0,.91-.037,1.2-.037.47,0,1.991.055,3.417.055a1.486,1.486,0,0,0,1.338-1.513c0-.178-.064-.208-.1-.208-.356,0-.225,1.225-2.549,1.225-1.575,0-1.615-.338-1.615-.918v-1.2c0-.542-.038-.653.393-.653h1.515c.974,0,.711.991,1.011.991.224,0,.17-.338.16-.46l-.067-1.664c-.009-.252-.112-.234-.177-.234-.189,0-.217.862-1.022.862h-1.412c-.4,0-.4-.066-.4-.469V61.626" transform="translate(-176.54 -60.471)" fill="#03571c"/>
        <path id="Path_87474" data-name="Path 87474" d="M249.635,61.507h.054V61.5a1.144,1.144,0,0,1,.03-.349.217.217,0,0,1,.113-.129,5.948,5.948,0,0,1,1.837-.111c.9,0,1.13.263,1.222.511a2.4,2.4,0,0,1,.076.369.341.341,0,0,0,.063.148.216.216,0,0,0,.345-.048.469.469,0,0,0,.037-.2c0-.069-.009-.134-.01-.174l-.038-.924a.234.234,0,0,0-.241-.229c-.826,0-2.335.037-3,.037-1.434,0-2.105-.037-2.492-.037a.284.284,0,0,0-.187.061.2.2,0,0,0-.074.151.255.255,0,0,0,.2.233c.16.061.38.086.555.171a.509.509,0,0,1,.3.513v4.377c0,.562-.164.683-.322.749-.082.033-.169.044-.247.08a.233.233,0,0,0-.142.235.14.14,0,0,0,.066.118.3.3,0,0,0,.165.039c.519,0,.915-.037,1.2-.037.467,0,1.991.055,3.417.055a1.539,1.539,0,0,0,1.392-1.566.337.337,0,0,0-.048-.2l-.108-.061a.217.217,0,0,0-.153.069,4.008,4.008,0,0,1-.542.671,2.818,2.818,0,0,1-1.853.487,2.46,2.46,0,0,1-1.367-.231c-.184-.138-.2-.34-.2-.633v-1.2c0-.082,0-.153,0-.217,0-.177.011-.277.047-.318s.111-.066.293-.065h1.515a.658.658,0,0,1,.708.462c.045.118.071.241.105.34a.4.4,0,0,0,.067.129.167.167,0,0,0,.131.062.2.2,0,0,0,.188-.116.47.47,0,0,0,.038-.208c0-.079-.008-.154-.011-.195l-.068-1.661a.361.361,0,0,0-.07-.234.17.17,0,0,0-.135-.051h-.026a.139.139,0,0,0-.105.055c-.164.2-.254.805-.917.807h-1.412c-.2,0-.284-.023-.309-.062a.71.71,0,0,1-.04-.353V61.507h-.107v1.311a.741.741,0,0,0,.061.417c.075.093.193.1.395.1h1.412a.866.866,0,0,0,.788-.457c.067-.111.115-.22.156-.3l.054-.087.024-.018h.026l.057.018a.255.255,0,0,1,.04.165l.068,1.664c0,.047.012.117.012.187a.357.357,0,0,1-.026.161.089.089,0,0,1-.092.055l-.05-.025c-.062-.064-.089-.309-.194-.532a.765.765,0,0,0-.768-.435h-1.515c-.184,0-.3.017-.376.1a.624.624,0,0,0-.07.386V65.64a.8.8,0,0,0,.238.719,2.52,2.52,0,0,0,1.431.251,2.693,2.693,0,0,0,2.051-.629,2.427,2.427,0,0,0,.322-.429.706.706,0,0,1,.1-.129l.08-.038.021.014a.262.262,0,0,1,.028.14,1.593,1.593,0,0,1-.37.994,1.2,1.2,0,0,1-.915.466c-1.425,0-2.944-.057-3.417-.057-.294,0-.685.038-1.2.038a.191.191,0,0,1-.1-.023l-.02-.028c0-.092.027-.11.08-.138a1.291,1.291,0,0,0,.387-.16.916.916,0,0,0,.246-.766V61.49a.643.643,0,0,0-.181-.484,1.252,1.252,0,0,0-.583-.253.938.938,0,0,1-.223-.075.115.115,0,0,1-.071-.106c0-.047.04-.1.152-.1.38,0,1.057.036,2.492.036.667,0,2.175-.036,3-.036a.125.125,0,0,1,.134.123l.038.928c0,.045.01.105.01.168a.342.342,0,0,1-.025.153.087.087,0,0,1-.09.053l-.077-.027a.5.5,0,0,1-.06-.224.846.846,0,0,0-.253-.551,1.663,1.663,0,0,0-1.128-.289,8.107,8.107,0,0,0-1.792.086.363.363,0,0,0-.259.224,1.223,1.223,0,0,0-.036.386v.011h.054" transform="translate(-176.421 -60.352)" fill="#03571c"/>
        <path id="Path_87475" data-name="Path 87475" d="M27.308,67.263H20.646l6.662-6.648Z" transform="translate(-20.646 -60.527)" fill="#03571c"/>
        <path id="Path_87476" data-name="Path 87476" d="M20.646,67.263V60.615h6.662Z" transform="translate(-20.646 -60.527)" fill="#9aca3c"/>
        <path id="Path_87477" data-name="Path 87477" d="M20.646,67.254V60.616H27.3Z" transform="translate(-20.646 -60.528)" fill="#8dc63f"/>
        <path id="Path_87478" data-name="Path 87478" d="M26.409,65.962a1.819,1.819,0,0,0,1.185-.169,1.855,1.855,0,0,0,.721-1.046c.028-.008.049-.014,0,0l0-.016a1.884,1.884,0,0,0-1.28.149,1.7,1.7,0,0,0-.633.789c-.041.1-.068.186-.083.232-.293.24-.568.491-.827.734a1.789,1.789,0,0,0,.06-.194A1.828,1.828,0,0,0,26.2,65.4a1.88,1.88,0,0,0-.366-1.235,1.886,1.886,0,0,0-.692,1.086,1.8,1.8,0,0,0,.3,1.146.628.628,0,0,0,.052.07.71.71,0,0,1-.173.332l-.022.02a10.481,10.481,0,0,1-.995.85.873.873,0,0,0,.069-.161A1.889,1.889,0,0,0,25,66.367a1.939,1.939,0,0,0-.456-1.252,1.948,1.948,0,0,0-.65,1.163,1.914,1.914,0,0,0,.427,1.216.5.5,0,0,1-.255.322l-.024.013,0,.006a1.576,1.576,0,0,1-.662.219h-.03l.006.055.027,0a1.8,1.8,0,0,0,.884-.347,1.046,1.046,0,0,1,.283-.075c.013.017.035.043.06.074a1.778,1.778,0,0,0,.979.635,1.885,1.885,0,0,0,1.251-.316,1.879,1.879,0,0,0-1.058-.734,1.73,1.73,0,0,0-1.052.2c-.055.028-.1.055-.134.074a1.449,1.449,0,0,0-.172.032,10.737,10.737,0,0,0,.876-.757l0,0,.021-.018a.857.857,0,0,1,.408-.157l.03.041a1.8,1.8,0,0,0,.974.68,1.886,1.886,0,0,0,1.259-.279,1.886,1.886,0,0,0-1.035-.766,1.848,1.848,0,0,0-1.217.253,1.064,1.064,0,0,0-.248.063c.253-.233.545-.505.856-.762l.061.011" transform="translate(-22.503 -62.964)" fill="#fff"/>
        <path id="Path_87479" data-name="Path 87479" d="M30.346,65.952a5.877,5.877,0,0,1,.2-1.5l-.011.026a4.786,4.786,0,0,0-.241,1.477,5.362,5.362,0,0,1-.049.613.427.427,0,0,0,.065-.1,4.434,4.434,0,0,0,.036-.507" transform="translate(-27.241 -63.16)" fill="#8dc63f"/>
        <path id="Path_87480" data-name="Path 87480" d="M31.344,71.991l-.106.05-.006.011a5.471,5.471,0,0,1,2.052.421,7.018,7.018,0,0,0-1.2-.4,3.2,3.2,0,0,0-.737-.079" transform="translate(-27.919 -68.343)" fill="#03571c"/>
        <path id="Path_87481" data-name="Path 87481" d="M29.551,75.629a6.153,6.153,0,0,0-1.954-.464.492.492,0,0,0-.089.028l-.012.017a6.68,6.68,0,0,1,2.08.431l-.025-.01" transform="translate(-25.352 -70.524)" fill="#03571c"/>
        <path id="Path_87482" data-name="Path 87482" d="M34.978,66.068l-.013,0a5.708,5.708,0,0,0-1.733.985l-.045.094c.058-.045.115-.091.172-.134a6.793,6.793,0,0,1,1.619-.949" transform="translate(-29.262 -64.274)" fill="#03571c"/>
        <path id="Path_87483" data-name="Path 87483" d="M26.693,67.589l-.008.026a4.689,4.689,0,0,0-.168,1.441c0,.206,0,.4-.019.565a.677.677,0,0,1,.024.1l.015-.007a3.921,3.921,0,0,0,.038-.656,4.97,4.97,0,0,1,.119-1.467" transform="translate(-24.667 -65.319)" fill="#8dc63f"/>
        <path id="Path_87484" data-name="Path 87484" d="M268.951,60.518v-.183h.931v.183h-.357v.909h-.217v-.909Zm1.429-.183.279.782.281-.782h.31v1.092h-.2v-.881l-.3.881h-.173l-.305-.881v.881h-.2V60.335Z" transform="translate(-191.25 -60.335)" fill="#03571c"/>
      </g>
    </g>
  </g>
</svg>
