<svg xmlns="http://www.w3.org/2000/svg" width="24" height="24" viewBox="0 0 24 24">
  <g id="Group_6284" data-name="Group 6284" transform="translate(-1184 -8)">
    <rect id="Rectangle_3517" data-name="Rectangle 3517" width="24" height="24" transform="translate(1184 8)" fill="none"/>
    <g id="Icon_Map_Pin" data-name="Icon / Map Pin" transform="translate(1190 12.3)">
      <path id="Combined_Shape" data-name="Combined Shape" d="M5.608,14.281l-.015-.01-.018-.012L5.213,14l-.108-.081-.046-.035-.327-.255a18.37,18.37,0,0,1-1.892-1.737C.956,9.9,0,7.919,0,6.019A5.838,5.838,0,0,1,1.758,1.763,5.792,5.792,0,0,1,6,0a5.8,5.8,0,0,1,4.242,1.763A5.838,5.838,0,0,1,12,6.019c0,1.9-.956,3.877-2.841,5.873a18.37,18.37,0,0,1-1.892,1.737c-.222.177-.433.338-.626.478l-.249.175a.7.7,0,0,1-.784,0ZM2.756,2.765A4.4,4.4,0,0,0,1.412,6.019c0,1.527.826,3.175,2.454,4.9a17.037,17.037,0,0,0,1.747,1.6c.1.077.187.149.276.218l.023.017L6,12.819l.088-.065.3-.235a17.037,17.037,0,0,0,1.747-1.6c1.628-1.724,2.454-3.372,2.454-4.9A4.407,4.407,0,0,0,9.244,2.765,4.374,4.374,0,0,0,6,1.417,4.373,4.373,0,0,0,2.756,2.765Zm.773,3.254A2.252,2.252,0,0,1,6,3.54,2.252,2.252,0,0,1,8.471,6.019,2.253,2.253,0,0,1,6,8.5,2.253,2.253,0,0,1,3.529,6.019Zm1.412,0c0,.785.277,1.063,1.058,1.063S7.059,6.8,7.059,6.019,6.781,4.957,6,4.957,4.941,5.234,4.941,6.019Z" transform="translate(0 0.5)" fill="#2c2c2c"/>
    </g>
  </g>
</svg>
