<svg xmlns="http://www.w3.org/2000/svg" width="32" height="32" viewBox="0 0 32 32">
  <g id="Group_6366" data-name="Group 6366" transform="translate(-110.404 -68.616)">
    <rect id="Rectangle_3530" data-name="Rectangle 3530" width="32" height="32" transform="translate(110.404 68.616)" fill="none"/>
    <path id="Path_16692" data-name="Path 16692" d="M953.26,534.436a2.336,2.336,0,0,0-2.56-1.48l-2.97.51-.03-.15a6.523,6.523,0,0,0-4.93-5.44l-.26-.06,1.99-2,.08.02a8.72,8.72,0,0,0,1.62.15,5.2,5.2,0,0,0,3.52-1.16c1.33-1.18,1.79-3.18,1.37-5.93a.573.573,0,0,0-.48-.48c-2.75-.42-4.74.04-5.93,1.38-1.48,1.66-1.2,4.14-1,5.13l.01.08-1.88,1.88v-3.58a.575.575,0,0,0-1.15,0v3.58l-1.88-1.88.02-.08c.19-.99.47-3.47-1.01-5.13-1.18-1.34-3.18-1.8-5.92-1.38a.562.562,0,0,0-.48.48c-.43,2.75.04,4.75,1.37,5.93a5.173,5.173,0,0,0,3.51,1.16,8.909,8.909,0,0,0,1.63-.15l.07-.02,2,2-.26.06a6.609,6.609,0,0,0-4.15,3.13l-.04.08h-.09a6.8,6.8,0,0,0-2,.32h-3.14a1.226,1.226,0,0,0-.87.36,1.2,1.2,0,0,0-.37.87v5.49a1.236,1.236,0,0,0,1.23,1.23h3.92l.04.03a12,12,0,0,0,5.99,1.66,11.317,11.317,0,0,0,3.6-.59l8.07-3.01a2.328,2.328,0,0,0,1.36-3.01Zm-7.81-13.77v-.01l.09-.11c.84-.94,2.31-1.3,4.36-1.07l.12.02.01.12c.23,2.05-.13,3.51-1.07,4.35a4.315,4.315,0,0,1-2.63.9,4.188,4.188,0,0,1-.5-.03l-.31-.04,2.21-2.21a.579.579,0,0,0,0-.81.6.6,0,0,0-.81,0l-2.21,2.21-.03-.31A4.3,4.3,0,0,1,945.45,520.666Zm-7.65,3.01-.01.05-.14.15-.11-.11-1.98-1.99a.6.6,0,0,0-.81,0,.562.562,0,0,0,0,.81l2.2,2.21-.3.04a4.261,4.261,0,0,1-.5.02,4.308,4.308,0,0,1-2.62-.88c-.95-.85-1.31-2.32-1.08-4.36l.01-.12.12-.02c2.05-.23,3.52.13,4.36,1.07A4.367,4.367,0,0,1,937.8,523.676Zm-.88,7.34a5.445,5.445,0,0,1,3.4-2.09l.18-.03a5.377,5.377,0,0,1,6.07,4.6l.02.14-.14.05-3.1.53-.04-.02c-1.02-.52-1.84-.93-2.51-1.27-2.64-1.33-2.92-1.47-3.79-1.67l-.23-.05Zm14.73,5.29.01.01-.16.06-8.06,3.01a10.4,10.4,0,0,1-3.21.51,10.132,10.132,0,0,1-4.01-.82l-1.64-.8a.514.514,0,0,0-.25-.06H930.2v-5.66h3.3a.566.566,0,0,0,.18-.03,5.584,5.584,0,0,1,2.66-.23c.94.14,1.19.26,4.14,1.75.56.28,1.21.61,1.97,1h.01l.04.02a.9.9,0,0,1,.34,1.23.874.874,0,0,1-.85.45c-.18-.01-.18-.01-1.35-.59l-1.3-.64a.58.58,0,0,0-.77.26.607.607,0,0,0-.02.44.587.587,0,0,0,.29.33l2.31,1.14a2.038,2.038,0,0,0,2.74-.93,2,2,0,0,0,.17-1.34l-.04-.16,6.87-1.17a1.2,1.2,0,0,1,.88.2,1.148,1.148,0,0,1,.49.77A1.182,1.182,0,0,1,951.65,536.306Z" transform="translate(-814.846 -445.049)" fill="#464646"/>
  </g>
</svg>
