<svg xmlns="http://www.w3.org/2000/svg" width="32" height="32" viewBox="0 0 32 32">
  <g id="Group_6348" data-name="Group 6348" transform="translate(-1050.554 -50.293)">
    <rect id="Rectangle_3529" data-name="Rectangle 3529" width="32" height="32" transform="translate(1050.554 50.293)" fill="none"/>
    <g id="Group_6348-2" data-name="Group 6348" transform="translate(1054.318 52.083)">
      <path id="Path_16680" data-name="Path 16680" d="M1108.028,85.78h-.9v-3.9a.545.545,0,0,0-.544-.544h-.587V73.977a.518.518,0,0,0-.009-.1,1.316,1.316,0,0,0-1.306-1.216,4.508,4.508,0,0,0-4.5,4.5v4.176h-.587a.545.545,0,0,0-.544.544v3.9h-.9a.545.545,0,0,0-.544.544V98.783a2.307,2.307,0,0,0,2.3,2.3h6.367a2.307,2.307,0,0,0,2.3-2.3V86.324A.545.545,0,0,0,1108.028,85.78Zm-6.757-8.4v-.226a3.417,3.417,0,0,1,3.407-3.408.227.227,0,0,1,.226.226,3.417,3.417,0,0,1-3.408,3.408Zm3.634-.476v4.426h-3.634V78.473h.226A4.5,4.5,0,0,0,1104.9,76.908Zm-4.765,8.872V82.422h5.9V85.78Zm7.345,1.088V98.782a1.215,1.215,0,0,1-1.212,1.212h-6.367a1.216,1.216,0,0,1-1.212-1.212V86.867Z" transform="translate(-1097.604 -72.662)" fill="#464646"/>
      <path id="Path_16681" data-name="Path 16681" d="M1276.83,236.634h-9.88a.545.545,0,0,0-.544.544v12.459a2.307,2.307,0,0,0,2.3,2.3h6.367a2.307,2.307,0,0,0,2.3-2.3V237.178A.545.545,0,0,0,1276.83,236.634Zm-.544,6.028v6.975a1.216,1.216,0,0,1-1.173,1.212h-6.406a1.216,1.216,0,0,1-1.212-1.212v-6.974Zm0-2.525v1.436h-8.791v-1.436Zm0-2.415v1.327h-8.791v-1.327Z" transform="translate(-1252.902 -223.516)" fill="#464646"/>
    </g>
  </g>
</svg>
