<svg id="Group_6246" data-name="Group 6246" xmlns="http://www.w3.org/2000/svg" width="24" height="24" viewBox="0 0 24 24">
  <g id="Icon_Check_Active" data-name="Icon/Check/Active">
    <path id="Shape" d="M4,0H20a4,4,0,0,1,4,4V20a4,4,0,0,1-4,4H4a4,4,0,0,1-4-4V4A4,4,0,0,1,4,0Z" fill="#9ea0a3" opacity="0"/>
  </g>
  <path id="Path" d="M8.8.332,3.9,5.246,2.011,3.361A1.143,1.143,0,1,0,.4,4.972l2.685,2.7a1.145,1.145,0,0,0,1.611,0L10.41,1.955A1.143,1.143,0,0,0,8.8.332Z" transform="translate(6.266 8.5)" fill="#2c2c2c"/>
</svg>
