<svg xmlns="http://www.w3.org/2000/svg" width="32" height="32" viewBox="0 0 32 32">
  <g id="Group_6347" data-name="Group 6347" transform="translate(-569.247 -37.682)">
    <g id="Group_6346" data-name="Group 6346" transform="translate(574.787 39.401)">
      <path id="Path_16678" data-name="Path 16678" d="M659.423,61.964a2.792,2.792,0,0,0-2.789-2.789H643.525a2.792,2.792,0,0,0-2.789,2.789s0,3.071,0,3.073a.556.556,0,0,0,.084.291l1.21,1.936-.871,1.393a2.788,2.788,0,0,0-.424,1.478v1.536c0,.307.25-.231.558-.231a.558.558,0,0,0,.558-.558h0v-.746a1.674,1.674,0,0,1,.254-.887L643,67.821h14.164l.891,1.426a1.675,1.675,0,0,1,.254.887v.95h-9.455a.558.558,0,0,0-.558.558V83.636a.558.558,0,0,0,.558.558h9.455v.753a1.68,1.68,0,0,1-1.674,1.673H643.523a2.774,2.774,0,0,0,.559-1.673V81.321a2.794,2.794,0,0,0-2.231-2.733V70.549a.558.558,0,1,0-1.116,0v8.038a2.794,2.794,0,0,0-2.231,2.733v3.626a2.788,2.788,0,0,0,3.9,2.556l.031.014a2.768,2.768,0,0,0,1.086.219h13.109a2.787,2.787,0,0,0,2.789-2.789V70.135A2.786,2.786,0,0,0,659,68.657l-.871-1.393,1.21-1.936a.557.557,0,0,0,.084-.291S659.423,61.964,659.423,61.964Zm-19.8,19.357a1.674,1.674,0,0,1,3.347,0v1.255H639.62Zm0,3.626V83.692h3.347v1.255a1.674,1.674,0,0,1-3.347,0Zm9.79-1.869V72.2h8.9V83.078Zm-7.559-21.114a1.675,1.675,0,0,1,1.673-1.674h13.109a1.675,1.675,0,0,1,1.674,1.674v2.51H641.851ZM643,66.706l-.7-1.116h15.559l-.7,1.116Z" transform="translate(-638.504 -59.175)" fill="#464646"/>
      <path id="Path_16679" data-name="Path 16679" d="M794.553,256.06a.558.558,0,0,0,0-1.116,4.159,4.159,0,0,1-1.034-.125,2.966,2.966,0,0,0-.513-3.5,3.947,3.947,0,0,0-2.713-.8,12.677,12.677,0,0,0-1.714.073.558.558,0,0,0-.485.485c0,.023-.052.429-.07.99,0,.13-.006.618,0,.723a3.948,3.948,0,0,0,.8,2.713,2.965,2.965,0,0,0,3.919.237,5.079,5.079,0,0,0,1.815.314Zm-4.945-1.34c-.451-.451-.531-1.93-.449-3.059,1.129-.082,2.608,0,3.059.449a1.849,1.849,0,0,1,.274,2.26,2.943,2.943,0,0,1-1.034-1.144.558.558,0,0,0-1.025.44,4.017,4.017,0,0,0,1.187,1.454A1.848,1.848,0,0,1,789.608,254.72Z" transform="translate(-776.058 -235.211)" fill="#464646"/>
    </g>
    <rect id="Rectangle_3528" data-name="Rectangle 3528" width="32" height="32" transform="translate(569.247 37.682)" fill="none"/>
  </g>
</svg>
