<svg xmlns="http://www.w3.org/2000/svg" width="32" height="32" viewBox="0 0 32 32">
  <g id="Group_6349" data-name="Group 6349" transform="translate(-110.404 -68.616)">
    <rect id="Rectangle_3530" data-name="Rectangle 3530" width="32" height="32" transform="translate(110.404 68.616)" fill="none"/>
    <g id="Group_6349-2" data-name="Group 6349" transform="translate(114.072 73.368)">
      <path id="Path_16682" data-name="Path 16682" d="M178.937,137.649h-.188v-.921a1.981,1.981,0,0,0-1.979-1.979h-.953l.3-.316a4.369,4.369,0,0,0,1.191-3v-2.889a.535.535,0,0,0-.913-.378,9.268,9.268,0,0,1-6.6,2.732H164.25a4.4,4.4,0,0,0-4.348,3.8l-.016.116-.111.037a1.978,1.978,0,0,0-1.357,1.879v.921h-.188a1.982,1.982,0,0,0-1.979,1.979v8.9a1.981,1.981,0,0,0,1.979,1.979h20.706a1.981,1.981,0,0,0,1.979-1.979v-8.9A1.982,1.982,0,0,0,178.937,137.649Zm-17.916-3.131a3.306,3.306,0,0,1,3.229-2.552H169.8a10.417,10.417,0,0,0,6.142-2.006l.3-.219v1.691a3.321,3.321,0,0,1-3.318,3.318H160.967Zm-1.534,2.21a.911.911,0,0,1,.91-.91H176.77a.911.911,0,0,1,.91.91v.921H159.488Zm20.359,11.8a.911.911,0,0,1-.91.91H158.231a.911.911,0,0,1-.91-.91v-8.9a.911.911,0,0,1,.91-.91h20.706a.911.911,0,0,1,.91.91Z" transform="translate(-156.252 -128.006)" fill="#464646"/>
      <path id="Path_16683" data-name="Path 16683" d="M243.589,290.7h-9.228a1.6,1.6,0,0,0-1.6,1.6v2.839a1.6,1.6,0,0,0,1.6,1.6h9.228a1.6,1.6,0,0,0,1.6-1.6V292.3A1.6,1.6,0,0,0,243.589,290.7Zm.532,4.437a.533.533,0,0,1-.532.532h-9.228a.533.533,0,0,1-.532-.532V292.3a.533.533,0,0,1,.532-.532h9.228a.533.533,0,0,1,.532.532Z" transform="translate(-226.643 -277.685)" fill="#464646"/>
    </g>
  </g>
</svg>
