<svg xmlns="http://www.w3.org/2000/svg" width="32" height="32" viewBox="0 0 32 32">
  <g id="Group_6353" data-name="Group 6353" transform="translate(-1046.286 -495.011)">
    <g id="Ellipse_375" data-name="Ellipse 375" transform="translate(1050.286 499.011)" fill="none" stroke="#464646" stroke-width="1">
      <circle cx="12" cy="12" r="12" stroke="none"/>
      <circle cx="12" cy="12" r="11.5" fill="none"/>
    </g>
    <rect id="Rectangle_3533" data-name="Rectangle 3533" width="32" height="32" transform="translate(1046.286 495.011)" fill="none"/>
    <g id="Group_6367" data-name="Group 6367" transform="translate(147.092 -17.684)">
      <path id="Path_16693" data-name="Path 16693" d="M915.483,528.054a2.8,2.8,0,0,0,.261-.217,6.381,6.381,0,0,1,1.1-.89,5.913,5.913,0,0,1,.586-.381,2.392,2.392,0,0,1,1.365-.422,2.1,2.1,0,0,0,.439,0,.894.894,0,0,1,.644.233,1.944,1.944,0,0,0,.394.22.429.429,0,0,1,.133.751,6.625,6.625,0,0,1-.854.5c-.116.062-.268.092-.342-.042-.046-.083-.008-.212-.008-.32l.056-.007a2.209,2.209,0,0,0-.143-.174,2.513,2.513,0,0,0-.269-.24c-.145-.1-.212.06-.31.108-.23.112-.456.233-.68.353a.257.257,0,0,0-.1.087,1,1,0,0,1-.365.3,2.368,2.368,0,0,0-.471.445,3.7,3.7,0,0,0-.405.6.39.39,0,0,0,.294.562c.387.06.773.133,1.162.166a7.473,7.473,0,0,1,.889.009,2.566,2.566,0,0,1,1.3.409,1.022,1.022,0,0,1,.25.851.608.608,0,0,0-.028.4c.027.088-.048.227-.111.319a3.163,3.163,0,0,1-.384.458,3.083,3.083,0,0,1-.43.341,5.562,5.562,0,0,1-1.138.65,2.689,2.689,0,0,0-.52.361.292.292,0,0,1-.078.047c-.272.077-.547.142-.816.228-.16.051-.306.144-.465.2a3.181,3.181,0,0,1-1.924.115c-.081-.022-.2-.085-.21-.146a.341.341,0,0,1,.078-.291,1.491,1.491,0,0,1,.9-.433,1.119,1.119,0,0,0,.434-.162c.225-.1.45-.2.666-.318a1.5,1.5,0,0,0,.254-.23c-.106-.025-.2-.021-.254-.066a1.227,1.227,0,0,1-.25-.3c-.117-.192-.217-.394-.32-.584-.064.042-.138.125-.2.117s-.122-.1-.161-.171c-.235-.409-.467-.818-.69-1.234-.065-.121-.079-.273-.153-.387a1.9,1.9,0,0,0-.292-.3c-.213.341-.422.678-.633,1.013-.057.089-.121.175-.179.263-.222.336-.451.668-.662,1.011s-.383.673-.579,1.007c-.229.391-.468.776-.7,1.169-.155.267-.291.545-.446.812a4.943,4.943,0,0,1-.81,1.156,1.791,1.791,0,0,0-.265.521c-.023.045-.043.1-.082.125a.279.279,0,0,1-.192.033c-.041-.014-.078-.1-.078-.152,0-.08.042-.162.044-.243a1.894,1.894,0,0,0-.033-.233.437.437,0,0,1,0-.2c.143-.33.3-.657.448-.984.14-.3.276-.6.429-.888s.322-.575.486-.86c.288-.5.575-1,.865-1.5.211-.36.43-.716.64-1.076.166-.283.328-.568.485-.856a.558.558,0,0,0,.025-.178,1.2,1.2,0,0,1,.061-.332,5.407,5.407,0,0,1,.333-.554c.043-.067.1-.154.164-.171.228-.059.221-.235.163-.374-.143-.341-.319-.667-.486-1-.056-.113-.125-.219-.18-.332-.127-.258-.251-.519-.375-.779-.152-.314-.3-.629-.455-.942-.194-.393-.392-.784-.588-1.176a.164.164,0,0,1,.149-.242c.209,0,.346-.137.516-.206a.622.622,0,0,1,.57,0,1.775,1.775,0,0,1,.519.4.673.673,0,0,1,.093.14c.092.167.184.333.271.5.153.3.305.591.449.89.126.263.245.529.36.8.032.073.032.16.064.231s.084.159.125.157c.12-.005.034-.093.04-.151a.759.759,0,0,1,.085-.284c.246-.444.5-.883.752-1.326.186-.328.378-.652.552-.986.139-.267.255-.546.382-.819a.5.5,0,0,1,.056-.12,5.035,5.035,0,0,0,.669-1.178,3.87,3.87,0,0,1,.39-.625.674.674,0,0,1,.27-.144,2.024,2.024,0,0,1,.481-.188,2.8,2.8,0,0,1,.65.009c.029,0,.082.136.065.193a1.825,1.825,0,0,1-.357.774,1.478,1.478,0,0,0-.216.351c-.14.28-.259.57-.408.846-.229.422-.474.837-.718,1.252-.06.1-.155.184-.215.287-.155.266-.292.543-.449.807s-.336.494-.485.751c-.133.228-.236.474-.355.71-.063.125-.129.249-.2.372-.089.162-.186.321-.272.486A.521.521,0,0,0,915.483,528.054Zm1.584,4.291c.261-.145.54-.279.793-.45.284-.193.549-.416.813-.637a.96.96,0,0,0,.212-.264.283.283,0,0,0-.227-.44,2.021,2.021,0,0,1-.212-.062,4.674,4.674,0,0,0-.512-.13c-.258-.038-.519-.053-.779-.076a.515.515,0,0,0-.144.005c-.1.022-.2.06-.308.071a3.454,3.454,0,0,1-.368,0Z" transform="translate(0 0)" fill="#464646"/>
    </g>
  </g>
</svg>
