<svg xmlns="http://www.w3.org/2000/svg" width="100" height="100" viewBox="0 0 100 100">
  <g id="Group_7989" data-name="Group 7989" transform="translate(-1813 766)">
    <g id="Group_7988" data-name="Group 7988" transform="translate(1813 -766)">
      <rect id="Rectangle_4145" data-name="Rectangle 4145" width="100" height="100" fill="#fff" opacity="0"/>
      <g id="Group_7986" data-name="Group 7986" transform="translate(5 2.083)">
        <path id="Path_16670" data-name="Path 16670" d="M841.555,574.171v5.7h5.7a2.848,2.848,0,0,1,2.85,2.85h0a2.846,2.846,0,0,1-2.846,2.854h-5.713v5.7a2.845,2.845,0,0,1-2.846,2.85h0a2.846,2.846,0,0,1-2.854-2.842v-5.713h-5.687a2.851,2.851,0,0,1-2.854-2.846v-.009h0a2.852,2.852,0,0,1,2.854-2.85h5.7v-5.7a2.856,2.856,0,0,1,2.854-2.854h0A2.856,2.856,0,0,1,841.555,574.171Zm3.546-29.208a17.121,17.121,0,0,1,2.738,20.629,2.832,2.832,0,0,1-3.9.921,2.994,2.994,0,0,1-.542-.429h0a2.849,2.849,0,0,1-.437-3.425,11.416,11.416,0,0,0-17.558-14.1l-3.8,3.412-3.808-3.412a11.409,11.409,0,0,0-16.217,15.983l22.038,22.071a2.849,2.849,0,0,1,0,4.029h0a2.85,2.85,0,0,1-4.029.012l-.008-.012-22.163-22.2a17.109,17.109,0,0,1,24.179-24.133,17.108,17.108,0,0,1,23.508.65Z" transform="translate(-760.188 -497.737)" fill="#181818"/>
        <path id="Path_87265" data-name="Path 87265" d="M849.231,568.357V552.028a2.65,2.65,0,0,0-2.667-2.625H836.148v-.625a18.958,18.958,0,1,0-37.917,0v.625H787.815a2.451,2.451,0,0,0-1.833.75,2.65,2.65,0,0,0-.792,1.875v39.167A15.719,15.719,0,0,0,800.9,606.9h16.329l.029.009a2.648,2.648,0,0,0,.017-5.3v0H800.9a10.42,10.42,0,0,1-10.417-10.417V554.653h7.75v7.167a2.65,2.65,0,0,0,2.667,2.625,2.614,2.614,0,0,0,2.625-2.625v-7.167H830.9v7.167a2.625,2.625,0,0,0,5.25,0v-7.167h7.792v13.683l0,.016a2.648,2.648,0,0,0,5.3.009h0ZM830.9,549.4H803.523v-.625a13.687,13.687,0,1,1,27.375,0Z" transform="translate(-785.19 -529.82)" fill="#181818"/>
      </g>
    </g>
  </g>
</svg>
