<svg xmlns="http://www.w3.org/2000/svg" width="100" height="100" viewBox="0 0 100 100">
  <g id="Group_7987" data-name="Group 7987" transform="translate(-1781 766)">
    <rect id="Rectangle_4144" data-name="Rectangle 4144" width="100" height="100" transform="translate(1781 -766)" fill="#fff" opacity="0"/>
    <g id="Group_7985" data-name="Group 7985" transform="translate(1786 -763.917)">
      <g id="Group_7982" data-name="Group 7982" transform="translate(33.004 42.254)">
        <path id="Path_87266" data-name="Path 87266" d="M856.286,547.693a2.418,2.418,0,0,0-1.117-.238,2.8,2.8,0,0,0-.746.1,2.682,2.682,0,0,0-.833.371h0l-.012.008a4.313,4.313,0,0,0-.779.779l-.008.012-12.058,12.063-4.913-4.879c-.021-.021-.046-.025-.067-.046l-.042-.042a2.287,2.287,0,0,0-.271-.175,2.785,2.785,0,0,0-.592-.379,2.747,2.747,0,0,0-.912-.192l-.079-.013a2.731,2.731,0,0,0-2.079.825,2.7,2.7,0,0,0-.833,2,2.842,2.842,0,0,0,.779,1.967l.137.137.054.033,6.8,6.8.033.033a2.646,2.646,0,0,0,1.863.779c.067,0,.1.033.133.033s.067-.033.1-.033a2.663,2.663,0,0,0,1.9-.779.031.031,0,0,1,.033-.033l14.337-14.371.238-.238a2.852,2.852,0,0,0-.121-3.9A2.641,2.641,0,0,0,856.286,547.693Z" transform="translate(-812.261 -516.231)" fill="#181818"/>
        <path id="Path_87267" data-name="Path 87267" d="M883.257,555.528c-.067-.679-.171-1.321-.3-2-.1-.338-.137-.679-.238-1.017a14.439,14.439,0,0,0-.833-2.3c-.067-.2-.137-.417-.2-.575a15.975,15.975,0,0,0-1.629-2.679q-.225-.3-.475-.575a12.121,12.121,0,0,0-1.221-1.425c-.137-.138-.271-.238-.417-.371-.137-.067-.2-.2-.3-.3-.271-.238-.608-.417-.879-.642-.475-.375-.917-.713-1.392-1.017s-.833-.475-1.287-.713c-.509-.238-1.017-.542-1.559-.746-.441-.171-.879-.271-1.321-.417-.542-.171-1.083-.337-1.667-.475-.442-.067-.879-.1-1.354-.137a14.164,14.164,0,0,0-1.729-.171c-.442,0-.879.067-1.321.1a14.63,14.63,0,0,0-1.762.134c-.442.1-.833.237-1.25.338a14.239,14.239,0,0,0-1.762.475c-.442.171-.833.417-1.221.575-.542.271-1.116.475-1.625.779a16.174,16.174,0,0,0-1.559,1.15c-.337.271-.712.475-1.05.779-.337-.3-.712-.508-1.05-.779a18.139,18.139,0,0,0-1.558-1.15c-.508-.3-1.083-.508-1.625-.779-.417-.171-.833-.417-1.221-.575a14.454,14.454,0,0,0-1.763-.475c-.417-.1-.833-.238-1.25-.338a14.76,14.76,0,0,0-1.762-.134c-.442-.033-.883-.1-1.321-.1a14.082,14.082,0,0,0-1.729.171c-.475.033-.917.067-1.354.137-.575.137-1.117.3-1.667.475a12.537,12.537,0,0,0-1.321.417c-.542.2-1.05.508-1.558.746-.442.238-.884.442-1.288.713-.475.3-.917.646-1.387,1.017-.271.238-.608.417-.883.642-.1.1-.171.238-.3.3-.137.138-.271.238-.417.371a11.381,11.381,0,0,0-1.221,1.425,6.237,6.237,0,0,0-.475.575,15.7,15.7,0,0,0-1.625,2.679c-.1.171-.137.371-.238.575a18.079,18.079,0,0,0-.833,2.3c-.1.338-.171.679-.238,1.017-.133.679-.237,1.321-.3,2-.033.375-.033.746-.033,1.117a12.41,12.41,0,0,0,.067,1.967l.1,1.117c.134.679.3,1.321.475,2,.1.338.171.679.3,1.017a18.405,18.405,0,0,0,1.25,2.813,17.809,17.809,0,0,0,2.083,2.846l8.258,8.258.021.033a.81.81,0,0,0,.238.238,2.7,2.7,0,0,0,1.829.713h.042a2.848,2.848,0,0,0,2.837-2.846v-.054h0a2.82,2.82,0,0,0-.221-1.054,2.872,2.872,0,0,0-.616-.913l-8.238-8.267a12.268,12.268,0,0,1-1.829-2.983l-.3-.713c-.138-.442-.238-.879-.338-1.321a4.272,4.272,0,0,1-.171-.746c-.067-.441-.067-.883-.1-1.287v-.833c0-.417.067-.833.1-1.221.067-.3.1-.575.171-.879l.3-1.116c.1-.3.238-.608.338-.879a8.847,8.847,0,0,1,.542-1.05,5.707,5.707,0,0,1,.475-.779,10.008,10.008,0,0,1,.746-.983c.171-.238.417-.442.608-.679.3-.3.646-.608.983-.913l.917-.608c.338-.238.679-.442,1.017-.646.2-.1.442-.171.646-.271a9.271,9.271,0,0,1,1.321-.475,3.388,3.388,0,0,1,.609-.171,13.225,13.225,0,0,1,1.667-.271c.137,0,.238-.033.337-.033a12.406,12.406,0,0,1,1.967.066,3.336,3.336,0,0,0,.575.1c.475.1.917.2,1.392.337.237.067.475.171.679.238.442.171.833.371,1.25.575a4.565,4.565,0,0,1,.608.338,10.976,10.976,0,0,1,1.7,1.221l3.8,3.387,3.8-3.387a10.594,10.594,0,0,1,1.7-1.221,4.1,4.1,0,0,1,.608-.338c.417-.2.833-.417,1.221-.575.238-.067.475-.171.713-.238.442-.133.917-.238,1.387-.337a3.45,3.45,0,0,0,.542-.1,12.8,12.8,0,0,1,2-.066c.1,0,.2.033.3.033a13.065,13.065,0,0,1,1.7.271,3.6,3.6,0,0,1,.608.171,9.461,9.461,0,0,1,1.321.475c.2.1.417.171.646.271.338.2.679.417,1.017.646l.913.608c.337.3.679.608.983.913.2.237.442.441.608.679a10.666,10.666,0,0,1,.746.983,6.707,6.707,0,0,1,.475.779,10.387,10.387,0,0,1,.542,1.05,7.077,7.077,0,0,1,.3.879c.133.371.238.746.337,1.116a8.794,8.794,0,0,1,.133.879,7.923,7.923,0,0,1,.133,1.221v.833c-.033.442-.067.833-.133,1.287-.033.271-.1.508-.133.746-.1.442-.2.884-.337,1.321l-.3.713a12.525,12.525,0,0,1-1.829,2.983l-.271.3a4.312,4.312,0,0,0-.779.779,3,3,0,0,0-.475,1.558h0v.042a2.852,2.852,0,0,0,2.85,2.842h.033a2.838,2.838,0,0,0,1.863-.713l.237-.238.009-.012.671-.671a18.332,18.332,0,0,0,2.083-2.846,19.278,19.278,0,0,0,1.25-2.812,10.479,10.479,0,0,0,.3-1.017c.171-.675.337-1.321.442-2,.067-.371.1-.746.133-1.117a12.954,12.954,0,0,0,.067-1.967C883.286,556.265,883.286,555.9,883.257,555.528Z" transform="translate(-826.457 -539.961)" fill="#181818"/>
      </g>
      <path id="Path_87268" data-name="Path 87268" d="M882.577,568.357V552.028a2.65,2.65,0,0,0-2.667-2.625H869.494v-.625a18.958,18.958,0,1,0-37.917,0v.625H821.161a2.451,2.451,0,0,0-1.833.75,2.651,2.651,0,0,0-.792,1.875v39.167A15.719,15.719,0,0,0,834.244,606.9h16.325l.033.009a2.648,2.648,0,0,0,.017-5.3v0H834.244a10.42,10.42,0,0,1-10.417-10.417V554.653h7.75v7.167a2.65,2.65,0,0,0,2.667,2.625,2.614,2.614,0,0,0,2.625-2.625v-7.167h27.375v7.167a2.625,2.625,0,0,0,5.25,0v-7.167h7.792v13.683l0,.016a2.646,2.646,0,0,0,5.292.009h0ZM864.244,549.4H836.869v-.625a13.688,13.688,0,1,1,27.375,0Z" transform="translate(-818.536 -529.82)" fill="#181818"/>
    </g>
  </g>
</svg>
