<svg xmlns="http://www.w3.org/2000/svg" width="600" height="600" viewBox="0 0 600 600">
  <g id="Group_8205" data-name="Group 8205" transform="translate(2419 -5933)">
    <rect id="Rectangle_4157" data-name="Rectangle 4157" width="600" height="600" transform="translate(-2419 5933)" fill="none"/>
    <g id="copy" transform="translate(-2374.968 5977)">
      <g id="Group_8197" data-name="Group 8197">
        <g id="Group_8196" data-name="Group 8196">
          <path id="Path_87301" data-name="Path 87301" d="M366.9,108.016h-141.9a20,20,0,1,0,0,40.006H366.9a20,20,0,0,0,0-40.006Z" fill="#2c2c2c"/>
        </g>
      </g>
      <g id="Group_8199" data-name="Group 8199">
        <g id="Group_8198" data-name="Group 8198">
          <path id="Path_87302" data-name="Path 87302" d="M366.9,188.027h-141.9a20,20,0,0,0,0,40.006H366.9a20,20,0,0,0,0-40.006Z" fill="#2c2c2c"/>
        </g>
      </g>
      <g id="Group_8201" data-name="Group 8201">
        <g id="Group_8200" data-name="Group 8200">
          <path id="Path_87303" data-name="Path 87303" d="M286,268.039H224.995a20,20,0,0,0,0,40.006H286a20,20,0,0,0,0-40.006Z" fill="#2c2c2c"/>
        </g>
      </g>
      <g id="Group_8203" data-name="Group 8203">
        <g id="Group_8202" data-name="Group 8202">
          <path id="Path_87304" data-name="Path 87304" d="M448.03,368.8c11.046,0,20-5.715,20-16.761l0-272.027A80.1,80.1,0,0,0,388.019,0H203.992A80.1,80.1,0,0,0,123.98,79.938,80.1,80.1,0,0,0,43.968,159.95V431.989A80.1,80.1,0,0,0,123.98,512H318.008a80.1,80.1,0,0,0,80.012-80.012v-.608a80.137,80.137,0,0,0,70.01-79.389,20,20,0,1,0-40.006,0,40.053,40.053,0,0,1-40,40.006L204,392.043h-.009a40.008,40.008,0,0,1-40.006-40V80.012a40.052,40.052,0,0,1,40.006-40.006H388.02a40.052,40.052,0,0,1,40.006,40.006l0,268.786a20,20,0,0,0,20,20ZM203.992,432.047h.02l154-.038a40.052,40.052,0,0,1-40.006,39.984H123.981a40.052,40.052,0,0,1-40.006-40.006V159.948a40.052,40.052,0,0,1,40.006-40.006V352.036a80.01,80.01,0,0,0,80.012,80.011Z" fill="#2c2c2c"/>
        </g>
      </g>
    </g>
  </g>
</svg>
