<svg xmlns="http://www.w3.org/2000/svg" viewBox="0 0 64 64" width="512px" height="512px"><linearGradient id="81TjYGJw1IWErc3jeHS0Oa" x1="32" x2="32" y1="15.108" y2="48.58" gradientUnits="userSpaceOnUse"><stop offset="0" stop-color="#6dc7ff"/><stop offset="1" stop-color="#e6abff"/></linearGradient><path fill="url(#81TjYGJw1IWErc3jeHS0Oa)" d="M31.062,48.999c-0.35,0-0.714-0.085-1.028-0.337c-0.744-0.598-0.57-1.576-0.504-1.944	l0.249-1.467c0.096-0.72,0.014-0.951,0.004-0.976c0.007,0.038-0.233-0.109-0.785-0.226c-8.696-1.128-15.065-7.199-15.065-14.423	C13.933,21.562,22.038,15,32,15s18.067,6.562,18.067,14.627c0,3.25-1.284,6.215-3.925,9.064c-3.621,4.102-11.757,9.164-13.759,9.993	C32.15,48.781,31.624,48.999,31.062,48.999z"/><linearGradient id="81TjYGJw1IWErc3jeHS0Ob" x1="32" x2="32" y1="7.766" y2="56.935" gradientUnits="userSpaceOnUse"><stop offset="0" stop-color="#1a6dff"/><stop offset="1" stop-color="#c822ff"/></linearGradient><path fill="url(#81TjYGJw1IWErc3jeHS0Ob)" d="M51,8H13c-2.757,0-5,2.243-5,5v38c0,2.757,2.243,5,5,5h38c2.757,0,5-2.243,5-5V13	C56,10.243,53.757,8,51,8z M54,51c0,1.654-1.346,3-3,3H13c-1.654,0-3-1.346-3-3V13c0-1.654,1.346-3,3-3h38c1.654,0,3,1.346,3,3V51z"/><path fill="#fff" d="M27.697,26h-1.39C26.137,26,26,26.137,26,26.307v7.387c0,0.169,0.137,0.306,0.306,0.306h1.387	c0.169,0,0.307-0.137,0.307-0.307v-7.386C28,26.137,27.864,26,27.697,26z"/><path fill="#fff" d="M23.694,32H21v-5.694C21,26.137,20.863,26,20.694,26h-1.387C19.137,26,19,26.137,19,26.307v7.383v0	c0,0.083,0.033,0.158,0.085,0.214c0.001,0.001,0.003,0.003,0.004,0.005c0.001,0.001,0.003,0.003,0.004,0.004	c0.055,0.053,0.129,0.086,0.211,0.086h0h4.388c0.169,0,0.307-0.137,0.307-0.307v-1.386C24,32.137,23.863,32,23.694,32z"/><path fill="#fff" d="M43.672,28C43.853,28,44,27.853,44,27.672v-1.344C44,26.147,43.853,26,43.671,26h-4.342h-0.001	c-0.089,0-0.169,0.035-0.228,0.093c-0.001,0.001-0.003,0.002-0.004,0.003c-0.002,0.002-0.004,0.004-0.005,0.006	C39.035,26.161,39,26.24,39,26.328v0.001v7.342v0c0,0.088,0.035,0.168,0.092,0.227c0.001,0.002,0.003,0.003,0.005,0.005	c0.001,0.001,0.003,0.003,0.005,0.004c0.059,0.057,0.139,0.092,0.227,0.092h0.001h4.343c0.181,0,0.328-0.147,0.328-0.328v-1.343	C44,32.147,43.853,32,43.672,32H41v-1h2.672C43.853,31,44,30.853,44,30.672v-1.344C44,29.147,43.853,29,43.671,29H41v-1H43.672z"/><path fill="#fff" d="M36.672,26h-1.343C35.147,26,35,26.147,35,26.328v4.363l-3.268-4.545	c-0.008-0.012-0.016-0.023-0.025-0.033c-0.001-0.001-0.002-0.002-0.002-0.002c-0.006-0.007-0.013-0.014-0.019-0.02	c-0.002-0.002-0.004-0.004-0.006-0.006c-0.005-0.005-0.011-0.01-0.017-0.015c-0.003-0.002-0.005-0.005-0.008-0.007	c-0.005-0.004-0.011-0.008-0.017-0.012c-0.003-0.002-0.006-0.004-0.01-0.006c-0.006-0.003-0.011-0.007-0.017-0.01	c-0.003-0.002-0.007-0.003-0.01-0.005c-0.006-0.003-0.012-0.006-0.018-0.008c-0.004-0.001-0.007-0.003-0.01-0.004	c-0.006-0.002-0.012-0.005-0.019-0.006c-0.004-0.001-0.007-0.002-0.011-0.003c-0.006-0.002-0.012-0.003-0.018-0.004	c-0.004-0.001-0.009-0.001-0.013-0.002c-0.005-0.001-0.011-0.002-0.017-0.002c-0.005-0.001-0.011-0.001-0.017-0.001	c-0.004,0-0.007-0.001-0.011-0.001h-1.138C30.147,26,30,26.147,30,26.328v7.343c0,0.181,0.147,0.328,0.328,0.328h1.344	c0.181,0,0.329-0.147,0.329-0.329V29.31l3.272,4.551c0.022,0.033,0.05,0.06,0.081,0.081c0.001,0.001,0.002,0.002,0.003,0.003	c0.006,0.004,0.013,0.008,0.02,0.012c0.003,0.002,0.006,0.003,0.009,0.005c0.005,0.003,0.01,0.005,0.015,0.008	c0.005,0.002,0.01,0.005,0.016,0.007c0.003,0.001,0.006,0.003,0.01,0.004c0.008,0.003,0.014,0.005,0.022,0.007	c0.002,0,0.003,0.001,0.005,0.001c0.026,0.007,0.053,0.011,0.082,0.011h1.138c0.181,0,0.328-0.147,0.328-0.328v-7.343	C37,26.147,36.853,26,36.672,26z"/></svg>