<svg xmlns="http://www.w3.org/2000/svg" width="88" height="88" viewBox="0 0 88 88">
  <g id="Group_6810" data-name="Group 6810" transform="translate(-144 -304)">
    <g id="Group_6212" data-name="Group 6212" transform="translate(-16 51.296)">
      <circle id="Ellipse_366" data-name="Ellipse 366" cx="44" cy="44" r="44" transform="translate(160 252.704)" fill="#fff"/>
      <g id="Group_5905" data-name="Group 5905" transform="translate(163.045 254.915)">
        <circle id="beautiful-girl-pink-background" cx="40" cy="40" r="40" transform="translate(0.955 1.789)" fill="#38539a"/>
      </g>
    </g>
    <path id="Path_73362" data-name="Path 73362" d="M977.742,551.6a11.608,11.608,0,0,0,2.995-2.989,11.828,11.828,0,0,0,1.184-10.92,11.047,11.047,0,0,0-4.177-5.183,11.387,11.387,0,0,0-6.567-1.953h0a11.386,11.386,0,0,0-6.567,1.953,11.572,11.572,0,0,0,0,19.092,20.087,20.087,0,0,0-13.428,17.21,1.561,1.561,0,1,0,3.11.24,16.936,16.936,0,0,1,33.766,0,1.561,1.561,0,1,0,3.111-.24A20.088,20.088,0,0,0,977.742,551.6Zm-6.565-1.078h0a8.464,8.464,0,1,1,0-16.927h0a8.464,8.464,0,1,1,0,16.927Z" transform="translate(-783.176 -202.553)" fill="#f1f2ff" stroke="rgba(0,0,0,0)" stroke-width="1"/>
  </g>
</svg>
