<svg id="mastercard" xmlns="http://www.w3.org/2000/svg" width="32" height="22" viewBox="0 0 32 22">
  <rect id="mastercard-bg" width="32" height="22" rx="3" fill="#353a48"/>
  <g id="Group" transform="translate(6 4.5)">
    <path id="Combined_Shape" data-name="Combined Shape" d="M9.953,10.7a5.99,5.99,0,0,1-3.915,1.451A6.075,6.075,0,0,1,6.037,0,5.99,5.99,0,0,1,9.953,1.451,5.99,5.99,0,0,1,13.868,0a6.075,6.075,0,0,1,0,12.149A5.99,5.99,0,0,1,9.953,10.7Z" transform="translate(0 0.5)" fill="#ff5e00"/>
    <path id="Combined_Shape-2" data-name="Combined Shape" d="M6.037,12.149A6.075,6.075,0,0,1,6.037,0,6.015,6.015,0,0,1,9.953,1.451a6.1,6.1,0,0,0,0,9.247A6.015,6.015,0,0,1,6.037,12.149Z" transform="translate(0 0.5)" fill="#ed0006"/>
    <path id="Combined_Shape-3" data-name="Combined Shape" d="M3.916,12.149A6.017,6.017,0,0,1,0,10.7,6.083,6.083,0,0,0,2.121,6.075,6.085,6.085,0,0,0,0,1.451,6.029,6.029,0,0,1,9.952,6.075,6.062,6.062,0,0,1,3.916,12.149Z" transform="translate(9.953 0.5)" fill="#f9a000"/>
  </g>
</svg>
