<svg id="visa" xmlns="http://www.w3.org/2000/svg" width="34.909" height="24" viewBox="0 0 34.909 24">
  <rect id="visa-bg" width="34.909" height="24" rx="3" fill="#224dba"/>
  <path id="visa-logo" d="M13.839,7.637l-.165,0a5.672,5.672,0,0,1-2.135-.4l.347-1.6A4.973,4.973,0,0,0,13.9,6.1c.574,0,1.154-.229,1.154-.74.054-.323-.194-.554-.981-.912C13.3,4.058,12.4,3.483,12.4,2.45,12.4,1.03,13.787,0,15.692,0a4.993,4.993,0,0,1,1.789.343l-.347,1.594a3.642,3.642,0,0,0-1.582-.356c-.108,0-.216,0-.321.014a.761.761,0,0,0-.808.627c0,.341.441.568.951.831.785.4,1.761.909,1.761,2.073C17.135,6.652,15.841,7.637,13.839,7.637ZM19.1,7.577H17.077L19.961.74a.87.87,0,0,1,.808-.569h1.673L24,7.575H22.212l-.231-1.082H19.5l-.4,1.082Zm1.962-5.412L20.019,4.956h1.615ZM10.27,7.577H8.308L9.923.171h1.962l-1.615,7.4ZM6,7.577H3.923L2.365,1.652A.954.954,0,0,0,1.9,1.026,6.8,6.8,0,0,0,0,.4V.171H3.346a.876.876,0,0,1,.866.74L5.02,5.185,7.1.171h2.02L6,7.576Z" transform="translate(5.455 8.182)" fill="#fff"/>
</svg>
