<svg xmlns="http://www.w3.org/2000/svg" xmlns:xlink="http://www.w3.org/1999/xlink" width="152" height="89" viewBox="0 0 152 89">
  <defs>
    <clipPath id="clip-path">
      <rect id="Rectangle_4151" data-name="Rectangle 4151" width="152" height="89" fill="#fff" stroke="#707070" stroke-width="1"/>
    </clipPath>
  </defs>
  <g id="Mask_Group_121" data-name="Mask Group 121" clip-path="url(#clip-path)">
    <g id="Group_8025" data-name="Group 8025" transform="translate(177.383 252.427) rotate(173)">
      <g id="Group_8020" data-name="Group 8020" transform="translate(59.941 0.604)">
        <path id="Path_87223" data-name="Path 87223" d="M5.968,8.333,4.755,2.606,2.287,0,0,2.762l.285,6Z" transform="translate(0.238 3.986)" fill="#ffa880"/>
        <path id="Path_87224" data-name="Path 87224" d="M12.147,0,.249.444l-.013.875,0,.1A18.615,18.615,0,0,0,.022,3.374,17.067,17.067,0,0,0,.238,6.747l4.753-.156s.494-.258,1.222-.648c.095-.045.188-.1.289-.154.078-.042.155-.085.238-.133.1-.051.211-.111.316-.17.182-.107.365-.208.559-.316.094-.05.189-.1.288-.159l.006,0,.233-.126c.1-.064.21-.123.314-.188.314-.181.634-.364.937-.544a10.688,10.688,0,0,0,2.4-1.669,2.69,2.69,0,0,0,.332-1.069A3.778,3.778,0,0,0,12.173.82,7.005,7.005,0,0,0,12.147,0Z" transform="translate(0 0)" fill="#342e38"/>
        <path id="Path_87225" data-name="Path 87225" d="M11.912,0,.014.444,0,1.319,8.516.948l.246,1.574A13.933,13.933,0,0,0,9.157,4.15a10.671,10.671,0,0,0,2.4-1.669,2.687,2.687,0,0,0,.332-1.069A3.816,3.816,0,0,0,11.938.82,6.97,6.97,0,0,0,11.912,0Z" transform="translate(0.236 0)" fill="#f5e3dc"/>
      </g>
      <g id="Group_8021" data-name="Group 8021" transform="translate(28.319 0)">
        <path id="Path_87226" data-name="Path 87226" d="M5.968,8.333,4.756,2.606,2.288,0,0,2.762l.286,6Z" transform="translate(0.238 3.985)" fill="#ffa880"/>
        <path id="Path_87227" data-name="Path 87227" d="M12.148,0,.249.444l-.013.875,0,.1a18.508,18.508,0,0,0-.21,1.959A16.994,16.994,0,0,0,.238,6.747l4.753-.157s.5-.258,1.222-.649c.1-.045.189-.1.289-.154.077-.042.155-.085.238-.133.1-.052.211-.112.317-.17.181-.107.364-.208.557-.316.1-.051.189-.1.288-.159h.006l.233-.126c.1-.064.209-.123.313-.188.315-.181.635-.364.938-.544a10.685,10.685,0,0,0,2.4-1.67,2.691,2.691,0,0,0,.332-1.068A3.971,3.971,0,0,0,12.174.82,6.964,6.964,0,0,0,12.148,0Z" transform="translate(0 0)" fill="#342e38"/>
        <path id="Path_87228" data-name="Path 87228" d="M11.912,0,.013.444,0,1.319,8.516.947s.1.664.247,1.573a13.6,13.6,0,0,0,.394,1.63,10.679,10.679,0,0,0,2.4-1.67,2.7,2.7,0,0,0,.332-1.068,3.965,3.965,0,0,0,.052-.592A6.971,6.971,0,0,0,11.912,0Z" transform="translate(0.236 0)" fill="#f5e3dc"/>
      </g>
      <path id="Path_87229" data-name="Path 87229" d="M11.354,14.175l2.8-1.564C17.25,10.885,19.226,6,17.838,2.74A4.492,4.492,0,0,0,12.6.1,52.978,52.978,0,0,0,5.058,2.22q-1.807.623-3.592,1.307A7.919,7.919,0,0,1,0,4.1Z" transform="translate(72.612 165.801)" fill="#f28057"/>
      <path id="Path_87230" data-name="Path 87230" d="M11.543,29.62C17.776,28.352,37.164,17.273,37.511,16.7s-6-15.58-7.963-16.157-1.962,1.038-6.579.692S18.929-.752,15.7.413,12.12,3.193,9,2.384,5.542-.385,4.388,2.154.117,9.656,0,12.079,5.311,30.888,11.543,29.62Z" transform="translate(47.086 162.967)" fill="#576899"/>
      <path id="Path_87231" data-name="Path 87231" d="M2.285,84.558c2.97-5.948,4.861-9.224,9.348-14.022C14.1,67.9,16.661,63.624,19.161,60.9l.3-.319c2.583-2.694,5.249-4.418,4.189-8.579-.464-1.815-1.017-3.636-1.371-5.485a14.845,14.845,0,0,1-.083-6.1c1.039-4.674-2.769-12.118-2.6-16.446.125-3.165,1.642-6.35.527-9.48-.395-1.108-1.087-2.091-1.537-3.179C17.872,9.584,17.132.361,20.289.077c1.9-.173,15.449,0,15.449,0S47.579,49.934,46.568,58.59,36.216,95.81,35.523,96.156c-.284.145-1.731,3.933-3.489,8.3-.617,1.53-1.267,3.13-1.926,4.674-2.007,4.688-4.03,8.815-5.062,8.663-2.334-.346-24.32-8.31-24.32-8.31L.651,108.9c-.159-1.26-.513-4.474-.616-8.3C-.125,95.249.214,88.691,2.285,84.558Z" transform="translate(3.601 11.028)" fill="#71433d"/>
      <path id="Path_87232" data-name="Path 87232" d="M0,109.37S9.68,93.8,18.025,79.234l.062-.1c1.378-2.4,2.714-4.764,3.961-7.035l.014-.028A148.309,148.309,0,0,0,28.952,58.4a9.2,9.2,0,0,0,.942-3.518c-.693-5.284-.436-18.572-1.129-23.592s2.05-7.271-.692-12.291a6.559,6.559,0,0,1-.983-4.709c.374-1.683,1.53-2.722,1.613-3.947.076-1.121-.824-2.541-1.51-4.1a5.839,5.839,0,0,1-.533-4.21C27.7-1.078,42.648.307,42.648.307s14.182,52.108,14.078,60.4c-.111,8.9-28.259,49.754-28.259,49.754Z" transform="translate(24.929 11.144)" fill="#71433d"/>
      <path id="Path_87233" data-name="Path 87233" d="M.617,8.3a3.982,3.982,0,0,0,.672.159,56.282,56.282,0,0,0,7.949.159c2.625.021,5.256.028,7.88.028q6.481-.011,12.956-.118c.935-.013,1.87-.027,2.8-.048,2.383-.049,8.8.429,8.677-3.366,3.4.159,6.806.256,10.214.249a.346.346,0,0,0,0-.692c-6.6.006-13.192-.353-19.77-.817-2.8-.2-5.6-.415-8.386-.623A136.424,136.424,0,0,1,9.882,1.676C6.593,1.08,3.31.422,0,0,.1,3.822.458,7.036.617,8.3Z" transform="translate(3.636 111.637)" fill="#5c2f29"/>
      <path id="Path_87234" data-name="Path 87234" d="M21.619,6.593a30.625,30.625,0,0,0-5.866,1.54,11.2,11.2,0,0,0-2.468,1.721L8.733,9.068A13.088,13.088,0,0,0,4.988,7.61C2.291,6.94.412,6.7.076,6.55S.461,3.592,3.3,2.193,5.293-.786,9.63.441s10.231,2.524,10.8,3.651S21.619,6.593,21.619,6.593Z" transform="translate(21.823 187.972)" fill="#ffa880"/>
      <g id="Group_8022" data-name="Group 8022" transform="translate(29.526 190.699)">
        <path id="Path_87235" data-name="Path 87235" d="M14.334,13.263c.754-2.761,1.915-8.418.253-11.048C12.5-1.086,6.936.019,3.7.989A15,15,0,0,0,1.016,5.975a70.216,70.216,0,0,0-.969,7.041.211.211,0,0,0,0,.27c2.047,2.743,4.5,5.339,8.144,5.569C11.739,19.08,13.488,16.354,14.334,13.263Z" transform="translate(0.481 7.476)" fill="#ffa880"/>
        <path id="Path_87236" data-name="Path 87236" d="M10.963,8.695,10.79,7.514,10.4,4.883,9.688.039,9.45.01a.331.331,0,0,0-.229.026c-1.508.171-3.064.026-4.578.1C3.395.2,1.578.226.6,1.159S.064,3.1.4,4.121c.9,2.778,2.425,9.719,2.425,9.719Z" transform="translate(0 0)" fill="#ffa880"/>
        <path id="Path_87237" data-name="Path 87237" d="M3.589,2.631,3.2,0c-.067.019-.139.037-.211.061-.456.132-.213.42-.87.969s-.461.39-.7.952S.395,2.711.107,3.4s.083.679.21.652a14.488,14.488,0,0,1,1.554-.885A11,11,0,0,1,3.589,2.631Z" transform="translate(7.201 4.883)" fill="#f28057"/>
      </g>
      <path id="Path_87238" data-name="Path 87238" d="M1.132,8.638a5,5,0,0,1,.447-2.613C2.37,4.326,4.747,0,4.747,0a31.734,31.734,0,0,1,1.48,3.412C5.681,4.7,5.2,6.226,5.717,7.361A1.551,1.551,0,0,0,7.885,8.1a.6.6,0,0,1-.012.159A8.5,8.5,0,0,0,7.622,9.9a2.526,2.526,0,0,0,.761,1.847,5.633,5.633,0,0,0,3.265,1.6,7.524,7.524,0,0,0,5.106-.892c.1.6.617,3.919-.465,4.944a3.21,3.21,0,0,1-2.789.734c-2.5,1.478-5.819,2.3-7.908.181a3.8,3.8,0,0,1-2.82-.351,2.372,2.372,0,0,1-.238-.163A3.1,3.1,0,0,1,1.4,14.545,5.1,5.1,0,0,1,.03,10.8,3.548,3.548,0,0,1,1.132,8.638Z" transform="translate(26.812 201.088)" fill="#342e38"/>
      <path id="Path_87239" data-name="Path 87239" d="M0,1.387c0-.125.7-.2,1.884-.236,3.822-.1,12.72.229,19.438.651,2.583.166,4.846.339,6.377.513C34.423,3.063,55.626.078,58.4,0s1.939,1.794,1.9,5.09-1.9,72.162-1.9,72.162S43.432,80.1,42.365,79.629,39.2,76.506,34.7,76.6s-7.146,4.827-10.754,3.607c-3.1-1.052-9.522-1.842-14.251-6.114C6.33,71.063,5.457,61.368,5.249,50.552A201.986,201.986,0,0,0,2.424,23.2C1.33,16.254,0,3.561,0,1.387Z" transform="translate(0 115.374)" fill="#6e7ca6"/>
      <path id="Path_87240" data-name="Path 87240" d="M15.013,2.076,0,12.348s4.076.086,5.2-1.212,2.083-.861,5.2-2.118,3.28-2.037,4.279-3.6,5.931-1.785,5.931-1.785L19.147,0Z" transform="translate(27.786 177.24)" fill="#576899"/>
      <path id="Path_87241" data-name="Path 87241" d="M.979,6.554a3.208,3.208,0,0,0,.088-1,2.66,2.66,0,0,1,.209-1.089,3.655,3.655,0,0,1,.243.738c.082.371.156.745.228,1.118.14.72.267,1.445.414,2.162.059.286.4,2.072.774,1.927.265-.1.179-1.375.139-1.722a20.864,20.864,0,0,1-.143-2.627s.42,1.895.635,2.8c.124.527.368,1.586.689,1.414.285-.153.091-1.419.022-1.813-.149-.859-.421-2.73-.421-2.73l.568,1.83c.11.352.221.7.358,1.041.089.222.252.749.52.5.161-.148.124-.426.106-.631a6.5,6.5,0,0,0-.1-.68c-.079-.415-.182-.82-.3-1.22-.028-.1-.057-.2-.087-.3a4.584,4.584,0,0,0,.619,1.144c.118.1.328-.006.328-.255,0-.307-1.35-5.112-1.5-5.7A2.865,2.865,0,0,0,3.909.232.141.141,0,0,0,3.853.188.909.909,0,0,0,3.265,0,14.5,14.5,0,0,0,.64.66,9.027,9.027,0,0,0,0,3.184c-.015.695.263,1.392.266,2.082,0,.369,0,1.55.49,1.472A.294.294,0,0,0,.979,6.554Z" transform="translate(87.453 207.128)" fill="#ffa880"/>
      <path id="Path_87242" data-name="Path 87242" d="M10.872,9.446C10.478,17.3,9.012,42.059,9.012,42.059l-3.719.411S.009,14.4,0,7.632C-.015-3.908,11.423-1.6,10.872,9.446Z" transform="translate(82.618 165.802)" fill="#ffa880"/>
      <path id="Path_87243" data-name="Path 87243" d="M0,5.1c.048.042,3.116-1.094,6.475-2.3,3.3-1.178,6.883-2.424,8.143-2.68a4.493,4.493,0,0,1,5.29,2.534c1.455,3.234-.429,8.158-3.49,9.944l-6.212,3.124a.023.023,0,0,0-.007-.014Z" transform="translate(32.595 163.596)" fill="#ffa880"/>
      <path id="Path_87244" data-name="Path 87244" d="M.03,10.8A5.1,5.1,0,0,0,1.4,14.545,3.1,3.1,0,0,0,2.533,17.8a2.3,2.3,0,0,0,.239.163,2.37,2.37,0,0,1,.262-2.084c.189-.3.642-.613.773-.978.3-.818-.23-1.031-.341-1.8-.238-1.684,2.97-2.353,3.988-3.078.058-.037.11-.082.168-.119A8.457,8.457,0,0,1,7.873,8.26.617.617,0,0,0,7.884,8.1a1.551,1.551,0,0,1-2.168-.741C5.2,6.226,5.681,4.7,6.226,3.412A31.714,31.714,0,0,0,4.746,0S2.369,4.326,1.578,6.025a5.008,5.008,0,0,0-.447,2.613A3.544,3.544,0,0,0,.03,10.8Z" transform="translate(26.812 201.088)" fill="#1e1721"/>
      <g id="Group_8024" data-name="Group 8024" transform="translate(48.247 180.444)">
        <path id="Rectangle_4149" data-name="Rectangle 4149" d="M2.919,0h.048A2.919,2.919,0,0,1,5.886,2.919V4.076a0,0,0,0,1,0,0H0a0,0,0,0,1,0,0V2.919A2.919,2.919,0,0,1,2.919,0Z" transform="translate(18.157 57.66) rotate(-146.593)" fill="#df6062"/>
        <path id="Rectangle_4150" data-name="Rectangle 4150" d="M0,0H20.658a0,0,0,0,1,0,0V1.75a8.406,8.406,0,0,1-8.406,8.406H8.406A8.406,8.406,0,0,1,0,1.75V0A0,0,0,0,1,0,0Z" transform="translate(37.468 30.974) rotate(-165.265)" fill="#342e38"/>
        <path id="Path_87245" data-name="Path 87245" d="M13.368.253h0a3.13,3.13,0,0,1,1.646,4.11L5.755,25.995,0,23.531,9.258,1.9A3.131,3.131,0,0,1,13.368.253Z" transform="translate(24.006 0)" fill="#342e38"/>
        <path id="Path_87246" data-name="Path 87246" d="M8.767.509l3.5,1.5L7.318,13.573l-3.5-1.5A6.29,6.29,0,0,1,.509,3.817h0A6.29,6.29,0,0,1,8.767.509Z" transform="translate(0 23.467)" fill="#342e38"/>
        <path id="Path_87247" data-name="Path 87247" d="M.471,19.733,3.7,12.171l3.83-8.933A5.335,5.335,0,0,1,13.752.164L25.143,3.052l-2.1,4.923L12.429,32.758,8.113,29.964C4.681,27.743-1.8,25.037.471,19.733Z" transform="translate(2.594 18.439)" fill="#6e7ca6"/>
        <path id="Path_87248" data-name="Path 87248" d="M5.911,9.425a31.815,31.815,0,0,1,6.337-1.173c1.164-.124,2.334-.341,3.5-.364.36-.007,3.494.292,3.582.087l2.1-4.923L10.048.164A5.335,5.335,0,0,0,3.83,3.238L0,12.171c.128-.3,1.62-.831,1.964-1.017A27.88,27.88,0,0,1,4.632,9.892C5.053,9.718,5.479,9.563,5.911,9.425Z" transform="translate(6.299 18.439)" fill="#576899"/>
        <path id="Path_87249" data-name="Path 87249" d="M0,29.706A97.215,97.215,0,0,1,4.716,14.6a93.939,93.939,0,0,1,4.965-9.64C11.378,2.049,12.714,0,12.714,0l34.1,9.542,4.175,1.17.693.194.256.069,1.9.541,4.653,1.295-17.887,41.8L36.479,52.08l-1.641-1-.056-.027-.561-.346Z" transform="translate(15.024 21.491)" fill="#342e38"/>
        <path id="Path_87250" data-name="Path 87250" d="M0,4.967Q1.457,2.449,3.03,0c0,.288,6.15,1.722,6.77,1.9l6.908,1.933,13.224,3.7c2.4.671,4.791,1.362,7.195,2.014C33.7,9.12,24.279,7.213,20.554,6.744c-8.49-1.068-10.48-1.55-13.528-1.55C4.68,5.194,2.337,5.07,0,4.967Z" transform="translate(24.708 21.49)" fill="#1e1721"/>
        <path id="Path_87251" data-name="Path 87251" d="M.008,44.221S.521,37.746,7.5,21.446c1.648-3.843,3.1-6.938,4.349-9.424,3.331-6.606,5.3-8.905,5.9-9.521a1.325,1.325,0,0,1,.146-.146.435.435,0,0,1,.055-.049S22.035-.208,24.328.014a12.41,12.41,0,0,1,3.94,1.164c.221.11.346.18.346.18l-5.2,12.153L18.726,24.458l-.782,1.828Q14.962,33.245,11.988,40.2,10.243,44.266,8.5,48.341a34.142,34.142,0,0,1-1.863,4.252,9.163,9.163,0,0,1-4.529-3.207C1.213,48.182-.116,45.779.008,44.221Z" transform="translate(55.573 31.987)" fill="#6e7ca6"/>
        <path id="Path_87252" data-name="Path 87252" d="M0,51.27,16.723,12.194,21.944,0l.339.145a.145.145,0,0,1,.055.027c3.2,1.42,1.773,5.519,1.191,8a80.729,80.729,0,0,1-2.41,8.109c-.332.949-.679,1.9-1.025,2.846-1.108,3-2.306,5.955-3.559,8.891C13.43,35.3,11.2,43.34,5.251,48.913c-1.042.976-3.267,3.222-4.918,2.516A2.9,2.9,0,0,1,0,51.27Z" transform="translate(61.849 33.172)" fill="#6e7ca6"/>
        <path id="Path_87253" data-name="Path 87253" d="M6.606,12.374c1.475.194,2.638.561,3.864.831.229.049.451.1.679.173.139.042.277.083.415.132A6.085,6.085,0,0,1,14.992,16.1a5.441,5.441,0,0,1,.554,1.371,80.507,80.507,0,0,0,2.41-8.109c.582-2.486,2.008-6.585-1.191-8V1.351s-.125-.07-.347-.173A12.408,12.408,0,0,0,12.479.014C10.187-.208,6.1,2.306,6.1,2.306a.452.452,0,0,0-.055.049q.01.073-.146.146c-.6.616-2.569,2.915-5.9,9.521A54.221,54.221,0,0,1,6.606,12.374Z" transform="translate(67.422 31.987)" fill="#576899"/>
        <path id="Path_87254" data-name="Path 87254" d="M5.151,25.937c.568-1.461,1.191-2.964,1.842-4.487.484-1.136.976-2.25,1.468-3.323,1.586-3.5,3.179-6.682,4.661-9.369,3.158-5.713,5.844-9.2,6.987-8.711,1.115.477.5,4.653-1.365,10.671A141.039,141.039,0,0,1,13.675,24.31C8.282,36.92,2.4,46.511.56,45.721-1.067,45.029.969,36.546,5.151,25.937Z" transform="translate(62.036 35.661)" fill="#342e38"/>
        <path id="Path_87255" data-name="Path 87255" d="M1.844,3.326C2.329,2.193,2.821,1.078,3.313,0A4.242,4.242,0,0,1,0,7.809C.571,6.352,1.192,4.847,1.844,3.326Z" transform="translate(67.994 54.131)" fill="#6e7ca6"/>
        <g id="Group_8023" data-name="Group 8023" transform="translate(49.243 32.206)">
          <path id="Path_87256" data-name="Path 87256" d="M16.767,0l.693.192A153.174,153.174,0,0,0,7.452,19.7a147.754,147.754,0,0,0-6.83,20.66l-.055-.031L0,39.984A150.422,150.422,0,0,1,6.813,19.437,153.511,153.511,0,0,1,16.767,0Z" transform="translate(0 0)" fill="#6e7ca6"/>
        </g>
      </g>
      <path id="Path_87257" data-name="Path 87257" d="M1.887,6.951a3.209,3.209,0,0,0-.162-.994A2.651,2.651,0,0,1,1.657,4.85c.024-.056.4.618.418.656.171.338.335.683.5,1.027.314.663.616,1.334.936,1.993.127.262.9,1.907,1.226,1.675.231-.164-.167-1.376-.292-1.7a20.877,20.877,0,0,1-.788-2.51s.876,1.732,1.308,2.559c.251.479.75,1.445,1.018,1.2.238-.219-.263-1.4-.428-1.762-.357-.8-1.083-2.541-1.083-2.541l1,1.632c.194.314.389.627.6.92.142.193.431.663.629.36.119-.183.015-.443-.053-.638a6.544,6.544,0,0,0-.265-.634c-.179-.382-.379-.75-.588-1.109-.052-.089-.1-.178-.158-.265a4.593,4.593,0,0,0,.883.956c.139.066.317-.087.255-.328C6.7,6.04,4.209,1.719,3.918,1.189A2.869,2.869,0,0,0,3.162.1.14.14,0,0,0,3.1.072.911.911,0,0,0,2.481.035,14.511,14.511,0,0,0,.1,1.324a9.012,9.012,0,0,0,.006,2.6C.262,4.6.7,5.211.878,5.878c.093.357.384,1.5.839,1.305A.293.293,0,0,0,1.887,6.951Z" transform="translate(58.941 202.92)" fill="#ffa880"/>
      <path id="Path_87258" data-name="Path 87258" d="M11.434,7.8C13,15.509,17.7,39.857,17.7,39.857l-3.5,1.318S2.135,15.284.452,8.732C-2.418-2.446,9.235-3.038,11.434,7.8Z" transform="translate(44.782 163.582)" fill="#ffa880"/>
      <path id="Path_87259" data-name="Path 87259" d="M21.283,6.834a45.248,45.248,0,0,0-4.2-3.578C16.732,3.257.689,9.546.055,9.893S4.469,5.034,6.086,3.938s3.174-.565,5.885-1.489S13.616-.494,18.213.111c2.222.293,2.9,4.7,6.31,3.549s10.05-1.45,10.05-1.45Z" transform="translate(11.313 161.864)" fill="#576899"/>
      <path id="Path_87260" data-name="Path 87260" d="M.907.732A6.155,6.155,0,0,1,2.874,3.017a8.138,8.138,0,0,0,.859,1.967A18.219,18.219,0,0,0,6.405,7.2a16.587,16.587,0,0,1,3.324,3.9c1.5,2.437,1.869,5.532,3.656,7.79.823,1.038,2.783,2.389,3.711.706,1.136-2.077-1.011-4.716-1.855-6.447-1.025-2.091-.672-3.649.055-5.733a3.738,3.738,0,0,0,.236-1.51A2.876,2.876,0,0,1,16.951,3,7.079,7.079,0,0,0,19.438.67C12.721.248,3.822-.084,0,.019.305.255.609.49.907.732Z" transform="translate(1.884 116.506)" fill="#ebccbe"/>
      <path id="Path_87261" data-name="Path 87261" d="M0,2.3C.048,2.34,3.116,1.2,6.475,0c.013.221.1,1.136.519,4.439A26,26,0,0,0,10.2,12.907Z" transform="translate(32.595 166.397)" fill="#f28057"/>
      <path id="Path_87262" data-name="Path 87262" d="M0,20.829l.062-.1L4.023,13.69l.014-.027A148.356,148.356,0,0,0,10.927,0c1.233,1.26,2.548,3.345,1.053,5.553-2.424,3.573-.229,3.345-1.3,7.5s-4,4.155-4.238,7.153,2.77,9.813,1.385,10.387S0,20.829,0,20.829Z" transform="translate(42.954 69.549)" fill="#5c2f29"/>
      <path id="Path_87263" data-name="Path 87263" d="M4.113,14.286C5.408,15.019,6.578,16,7.839,16.8a2.812,2.812,0,0,0,2.527.644c1.336-.547.969-2.078.284-3.005a12.594,12.594,0,0,1-1.426-1.814,1.821,1.821,0,0,1,.028-2.1,4.074,4.074,0,0,0,.45-.236c.346-.484.685-.734.762-1.4.256-2.347-2.791-3.836-4.079-5.311C5.436,2.493,4.619.478,3.116,0c.353,1.848.907,3.67,1.371,5.485C5.546,9.646,2.881,11.37.3,14.064l-.3.319C1.364,13.932,2.7,13.5,4.113,14.286Z" transform="translate(22.762 57.541)" fill="#5c2f29"/>
      <path id="Path_87264" data-name="Path 87264" d="M2.735,9.533c.228.049.45.1.679.173.138.042.277.083.415.132a7.412,7.412,0,0,1,1.793.879C7.485,4.7,8.1.523,6.987.046,5.844-.446,3.158,3.044,0,8.757A7.738,7.738,0,0,0,2.735,9.533Z" transform="translate(123.404 216.105)" fill="#1e1721"/>
      <path id="Path_87265" data-name="Path 87265" d="M.4,2.273a.656.656,0,0,0,.329.111c.542.038.87-.629.954-1.075C1.761.916,1.7.281,1.3.067.766-.222.18.492.05.947A1.282,1.282,0,0,0,.4,2.273Z" transform="translate(41.827 202.654)" fill="#df6062"/>
    </g>
  </g>
</svg>
