<svg xmlns="http://www.w3.org/2000/svg" width="311.871" height="108.784" viewBox="0 0 311.871 108.784">
  <path id="Path_87707" data-name="Path 87707" d="M-677.274,277.169a36.471,36.471,0,0,1-4.7,16.679,19.063,19.063,0,0,1-13.543,9.716,2.25,2.25,0,0,0-1.795,1.333,36.891,36.891,0,0,1-8.718,11.752,24.253,24.253,0,0,1-14.1,6.264,1.719,1.719,0,0,1-.355,0c-.339-.047-.808.174-.978-.217s.269-.61.5-.861a31.813,31.813,0,0,0,4.691-5.823,20.013,20.013,0,0,0,2.542-10.984c-.041-.861-.4-1.187-1.252-1.181-2.94.028-5.881.012-8.821.012-8.818-.047-17.638-.189-26.454-.329-8.931-.139-142.615-.294-151.548-.465-7.423-.145-14.849-.283-22.271-.472q-9.7-.241-19.41-.472c-5.039-.127-10.079-.315-15.113-.479-5.75-.189-11.5-.472-17.23-.966a11.3,11.3,0,0,1-7.745-4.439c-2.626-3.186-3.525-7.054-4.131-10.994a134.229,134.229,0,0,1-1.171-24.234,120.29,120.29,0,0,1,.9-13.534c1.026-7.243,2.185-14.458,5.512-21.082a16.747,16.747,0,0,1,10.154-8.437,74.124,74.124,0,0,1,16.09-3.091,119.392,119.392,0,0,1,12.339-.682c10.133.012,20.269-.108,30.4.041,10.044.148,144.845.25,154.888.5,6.835.172,13.665.253,20.49.076,7.429-.189,14.86-.283,22.281-.112a128.892,128.892,0,0,1,27.373,3.291,8.386,8.386,0,0,1,5.838,5.325c2.24,5.282,3.06,10.889,3.758,16.53.708,5.717,1.095,11.461,1.307,17.2C-677.3,263.743-676.907,270.465-677.274,277.169Z" transform="translate(988.997 -214.15)" fill="#fdfdfd"/>
</svg>
