<svg xmlns="http://www.w3.org/2000/svg" width="100" height="100" viewBox="0 0 100 100">
  <g id="Group_12626" data-name="Group 12626" transform="translate(-155.998 -75.998)">
    <circle id="Ellipse_1616" data-name="Ellipse 1616" cx="50" cy="50" r="50" transform="translate(155.998 75.998)" fill="#e1f5cd" style="mix-blend-mode: multiply;isolation: isolate"/>
    <g id="completed-task" transform="translate(179.426 94.736)">
      <path id="Path_89126" data-name="Path 89126" d="M3.908,16H46.893A3.908,3.908,0,0,1,50.8,19.908V72.662a3.908,3.908,0,0,1-3.908,3.908H3.908A3.908,3.908,0,0,1,0,72.662V19.908A3.908,3.908,0,0,1,3.908,16Zm0,0" transform="translate(0 -14.046)" fill="#e3a780"/>
      <path id="Path_89127" data-name="Path 89127" d="M32,87.886V48H74.985v52.755H44.868Zm0,0" transform="translate(-28.092 -42.138)" fill="#f8f8e7"/>
      <path id="Path_89128" data-name="Path 89128" d="M44.868,374.625v12.868L32,374.625Zm0,0" transform="translate(-28.092 -328.877)" fill="#a76c47"/>
      <path id="Path_89129" data-name="Path 89129" d="M128,7.815V0h19.539V7.815a3.908,3.908,0,0,1-3.908,3.908H131.908A3.908,3.908,0,0,1,128,7.815Zm0,0" transform="translate(-112.369)" fill="#a76c47"/>
      <g id="Group_12577" data-name="Group 12577" transform="translate(11.723 15.631)">
        <path id="Path_89132" data-name="Path 89132" d="M161.954,128h15.631a1.954,1.954,0,0,1,0,3.908H161.954a1.954,1.954,0,1,1,0-3.908Zm0,0" transform="translate(-152.185 -128)" fill="#62625a"/>
        <path id="Path_89133" data-name="Path 89133" d="M96,128h3.908v3.908H96Zm0,0" transform="translate(-96 -128)" fill="#62625a"/>
        <path id="Path_89134" data-name="Path 89134" d="M96,192h3.908v3.908H96Zm0,0" transform="translate(-96 -184.185)" fill="#62625a"/>
        <path id="Path_89135" data-name="Path 89135" d="M96,256h3.908v3.908H96Zm0,0" transform="translate(-96 -240.369)" fill="#62625a"/>
        <path id="Path_89136" data-name="Path 89136" d="M96,320h3.908v3.908H96Zm0,0" transform="translate(-96 -296.554)" fill="#62625a"/>
        <path id="Path_89137" data-name="Path 89137" d="M161.954,192h11.723a1.954,1.954,0,0,1,0,3.908H161.954a1.954,1.954,0,1,1,0-3.908Zm0,0" transform="translate(-152.185 -184.185)" fill="#62625a"/>
        <path id="Path_89138" data-name="Path 89138" d="M161.954,256h3.908a1.954,1.954,0,1,1,0,3.908h-3.908a1.954,1.954,0,1,1,0-3.908Zm0,0" transform="translate(-152.185 -240.369)" fill="#62625a"/>
      </g>
      <g id="Group_12578" data-name="Group 12578" transform="translate(32.825 37.514)">
        <g id="Icon_Check_Active" data-name="Icon/Check/Active" transform="translate(0 0)">
          <g id="Shape" transform="translate(0 0)" fill="#107f47">
            <path d="M 13.00956439971924 24.00957489013672 L 12.00000476837158 24.00957489013672 C 9.061794281005859 24.00957489013672 6.299454689025879 22.86537551879883 4.221824645996094 20.78774452209473 C 2.144204616546631 18.71011543273926 1.000004529953003 15.94777488708496 1.000004529953003 13.00956439971924 L 1.000004529953003 12.00000476837158 C 1.000004529953003 9.061794281005859 2.144204616546631 6.299454689025879 4.221824645996094 4.221824645996094 C 6.299454689025879 2.144204616546631 9.061794281005859 1.000004529953003 12.00000476837158 1.000004529953003 L 13.00956439971924 1.000004529953003 C 15.94777488708496 1.000004529953003 18.71011543273926 2.144204616546631 20.78774452209473 4.221824645996094 C 22.86537551879883 6.299454689025879 24.00957489013672 9.061794281005859 24.00957489013672 12.00000476837158 L 24.00957489013672 13.00956439971924 C 24.00957489013672 15.94777488708496 22.86537551879883 18.71011543273926 20.78774452209473 20.78774452209473 C 18.71011543273926 22.86537551879883 15.94777488708496 24.00957489013672 13.00956439971924 24.00957489013672 Z" stroke="none"/>
            <path d="M 12.00000476837158 1.999994277954102 C 6.485984802246094 1.999994277954102 1.999994277954102 6.485984802246094 1.999994277954102 12.00000476837158 L 1.999994277954102 13.00956439971924 C 1.999994277954102 18.52358436584473 6.485984802246094 23.00956535339355 12.00000476837158 23.00956535339355 L 13.00956439971924 23.00956535339355 C 18.52358436584473 23.00956535339355 23.00956535339355 18.52358436584473 23.00956535339355 13.00956439971924 L 23.00956535339355 12.00000476837158 C 23.00956535339355 6.485984802246094 18.52358436584473 1.999994277954102 13.00956439971924 1.999994277954102 L 12.00000476837158 1.999994277954102 M 12.00000476837158 -5.7220458984375e-06 L 13.00956439971924 -5.7220458984375e-06 C 19.63698387145996 -5.7220458984375e-06 25.00956535339355 5.372585296630859 25.00956535339355 12.00000476837158 L 25.00956535339355 13.00956439971924 C 25.00956535339355 19.63698387145996 19.63698387145996 25.00956535339355 13.00956439971924 25.00956535339355 L 12.00000476837158 25.00956535339355 C 5.372585296630859 25.00956535339355 -5.7220458984375e-06 19.63698387145996 -5.7220458984375e-06 13.00956439971924 L -5.7220458984375e-06 12.00000476837158 C -5.7220458984375e-06 5.372585296630859 5.372585296630859 -5.7220458984375e-06 12.00000476837158 -5.7220458984375e-06 Z" stroke="none" fill="#107f47"/>
          </g>
        </g>
        <path id="Path" d="M9.169.346,4.06,5.467,2.1,3.5A1.191,1.191,0,1,0,.416,5.181l2.8,2.81a1.193,1.193,0,0,0,1.679,0l5.954-5.954A1.191,1.191,0,1,0,9.169.346Z" transform="translate(6.773 8.858)" fill="#f0fae5"/>
      </g>
    </g>
  </g>
</svg>
