<svg xmlns="http://www.w3.org/2000/svg" width="44" height="44" viewBox="0 0 44 44">
  <g id="Group_12411" data-name="Group 12411" transform="translate(-592 -609)">
    <rect id="Rectangle_4316" data-name="Rectangle 4316" width="44" height="44" transform="translate(592 609)" fill="#fff" opacity="0"/>
    <g id="coupon" transform="translate(592 511.074)">
      <path id="Path_88382" data-name="Path 88382" d="M42.581,107.355H9.935v.7a.71.71,0,0,1-1.419,0v-.7h-7.1A1.408,1.408,0,0,0,0,108.752V114.9a1.017,1.017,0,0,0,.48.872,4.862,4.862,0,0,1,2.359,4.155A4.862,4.862,0,0,1,.48,124.081a1.017,1.017,0,0,0-.48.872V131.1a1.408,1.408,0,0,0,1.419,1.4h7.1v-.7a.71.71,0,0,1,1.419,0v.7H42.581A1.408,1.408,0,0,0,44,131.1V108.752A1.408,1.408,0,0,0,42.581,107.355ZM9.935,129.006a.71.71,0,0,1-1.419,0v-1.4a.71.71,0,0,1,1.419,0Zm0-4.191a.71.71,0,0,1-1.419,0v-1.4a.71.71,0,0,1,1.419,0Zm0-4.19a.71.71,0,0,1-1.419,0v-1.4a.71.71,0,0,1,1.419,0Zm0-4.19a.71.71,0,0,1-1.419,0v-1.4a.71.71,0,0,1,1.419,0Zm0-4.191a.71.71,0,0,1-1.419,0v-1.4a.71.71,0,0,1,1.419,0Z" transform="translate(0)" fill="#ffc350"/>
      <path id="Path_88383" data-name="Path 88383" d="M162.161,146.22H132.827a.7.7,0,0,1-.7-.7V124.569a.7.7,0,0,1,.7-.7h29.333a.7.7,0,0,1,.7.7v20.952A.7.7,0,0,1,162.161,146.22Z" transform="translate(-120.169 -15.119)" fill="#ffd164"/>
      <path id="Path_88384" data-name="Path 88384" d="M222.513,177.669l-3.62,2.273a1.045,1.045,0,0,1-1.569-1.14l1.043-4.145-3.28-2.741a1.045,1.045,0,0,1,.6-1.845l4.265-.289,1.593-3.966a1.045,1.045,0,0,1,1.94,0l1.593,3.966,4.265.289a1.045,1.045,0,0,1,.6,1.845l-3.28,2.741L227.7,178.8a1.045,1.045,0,0,1-1.569,1.14Z" transform="translate(-195.765 -52.916)" fill="#fff"/>
      <path id="Path_88385" data-name="Path 88385" d="M227.248,229.095a11.863,11.863,0,0,1-10.116-7.023l-1.446.1a1.045,1.045,0,0,0-.6,1.845l3.28,2.741-1.043,4.145a1.045,1.045,0,0,0,1.569,1.14l3.62-2.273,3.62,2.273a1.045,1.045,0,0,0,1.569-1.14Z" transform="translate(-196.551 -105.015)" fill="#fff6d8"/>
    </g>
  </g>
</svg>
