<svg xmlns="http://www.w3.org/2000/svg" width="32" height="29.879" viewBox="0 0 32 29.879">
  <g id="coupon" transform="translate(0 -16.97)">
    <path id="Path_87267" data-name="Path 87267" d="M184.795,98.145a.937.937,0,1,0,.647-1.08A.937.937,0,0,0,184.795,98.145Z" transform="translate(-173.227 -75.052)" fill="#73793b"/>
    <path id="Path_87268" data-name="Path 87268" d="M31.765,36.188c-5.1-14.85-4.75-13.832-4.772-13.883a4.789,4.789,0,0,0-2.828-2.621c-.181-.063-10.449-2.465-10.746-2.567a3.155,3.155,0,0,0-3.062.678l-8.8,8.1A4.839,4.839,0,0,0,0,29.446V43.784a3.06,3.06,0,0,0,3.048,3.064H21.874a3.06,3.06,0,0,0,3.048-3.064V42.4l5.247-2.246a3.045,3.045,0,0,0,1.6-3.964Zm-9.891,8.785H3.048a1.183,1.183,0,0,1-1.173-1.189V29.446a2.96,2.96,0,0,1,.951-2.174c7.539-6.937,2.879-2.61,8.83-8.1a1.189,1.189,0,0,1,1.164-.273c.38.113-.29-.432,9.277,8.371a2.96,2.96,0,0,1,.951,2.174V43.784a1.183,1.183,0,0,1-1.173,1.189Zm7.554-6.543-4.506,1.928V29.446a4.839,4.839,0,0,0-1.557-3.554l-6.553-6.03,6.782,1.609a2.911,2.911,0,0,1,1.664,1.547C30.35,37.84,30.006,36.845,30.028,36.9a1.167,1.167,0,0,1-.6,1.534Z" transform="translate(0 0)" fill="#73793b"/>
    <path id="Path_87269" data-name="Path 87269" d="M153.982,201.2a.938.938,0,0,0-1.227.5l-4.564,10.878a.938.938,0,1,0,1.729.726l4.564-10.878A.938.938,0,0,0,153.982,201.2Z" transform="translate(-138.859 -172.645)" fill="#73793b"/>
    <path id="Path_87270" data-name="Path 87270" d="M83.036,196.3a2.971,2.971,0,1,0-2.954,3.282A3.134,3.134,0,0,0,83.036,196.3Zm-2.954,1.406a1.456,1.456,0,1,1,1.079-1.406A1.294,1.294,0,0,1,80.082,197.705Z" transform="translate(-72.307 -165.044)" fill="#73793b"/>
    <path id="Path_87271" data-name="Path 87271" d="M231.439,312.011a3.3,3.3,0,1,0,2.954,3.282A3.134,3.134,0,0,0,231.439,312.011Zm0,4.688a1.456,1.456,0,1,1,1.079-1.406A1.294,1.294,0,0,1,231.439,316.7Z" transform="translate(-214.204 -276.6)" fill="#73793b"/>
  </g>
</svg>
