<svg xmlns="http://www.w3.org/2000/svg" xmlns:xlink="http://www.w3.org/1999/xlink" width="48" height="48" viewBox="0 0 48 48">
  <defs>
    <clipPath id="clip-path">
      <rect id="Rectangle_4116" data-name="Rectangle 4116" width="48" height="48" transform="translate(0 -4.001)" fill="#fff" stroke="#707070" stroke-width="1"/>
    </clipPath>
  </defs>
  <g id="Mask_Group_111" data-name="Mask Group 111" transform="translate(0 4.001)" clip-path="url(#clip-path)">
    <g id="Group_7873" data-name="Group 7873" transform="translate(9.891 -2)">
      <path id="Path_87094" data-name="Path 87094" d="M2796.565,705.41c.279,2.287.5,4.491.137,4.665a1.959,1.959,0,0,1-.99-.2,7.452,7.452,0,0,1-2.218-.942l-.051-.031c-2.42-1.138-5.39-2.735-6.052-3.144a7.173,7.173,0,0,0-1.167.658q-.98.531-1.97,1.041c-.964.5-1.915,1.018-2.888,1.494-.164.08-.327.158-.492.233-.448.208-.9.4-1.367.583-.362.137-1.034.5-1.424.313-.685-.335.731-8.154.672-9.693-.118-.223-.309-.53-.548-.891-1.445-1.623-5.324-5.351-4.89-6.429a.5.5,0,0,1,.134-.176.951.951,0,0,1,.1-.075c.007-.015.037-.031.088-.049a.725.725,0,0,1,.112-.051,10.563,10.563,0,0,1,3.109-.4c2.432-.258,5.359-.505,5.644-.544s1.609-2.678,2.86-4.84c.734-1.543,1.453-2.831,1.913-2.8a.209.209,0,0,0,.225,0c.462-.032,1.181,1.255,1.915,2.8,1.249,2.163,2.567,4.8,2.859,4.84s3.213.286,5.643.544a9.518,9.518,0,0,1,3.224.452.178.178,0,0,1,.086.049.578.578,0,0,1,.237.251c.419,1.039-3.173,4.542-4.725,6.247l-.163.182c-.241.362-.432.668-.55.891a16.091,16.091,0,0,0,.156,1.932C2796.287,703.229,2796.434,704.329,2796.565,705.41Z" transform="translate(-2773.28 -684.126)" fill="#ffcb87"/>
      <path id="Path_87095" data-name="Path 87095" d="M2797.458,699.308c1.024-1.637,2.2-4.737,1.267-5.078-1.125-.409-4.494-.486-6.507-.647s-2.839-4.429-3.849-4.463c-1.228-.041-2.489,3.373-3.908,4.328s-10.3-.562-10.3-.562a1.039,1.039,0,0,1,.1-.075c.005-.015.037-.031.088-.049a.718.718,0,0,1,.113-.051,10.554,10.554,0,0,1,3.108-.4c2.432-.258,5.36-.505,5.645-.544s1.608-2.678,2.859-4.84c.734-1.543,1.453-2.831,1.913-2.8a.21.21,0,0,0,.225,0c.461-.032,1.181,1.255,1.915,2.8,1.249,2.163,2.567,4.8,2.858,4.84s3.213.286,5.643.544a9.514,9.514,0,0,1,3.224.452.174.174,0,0,1,.085.049.573.573,0,0,1,.238.251C2802.6,694.1,2799.01,697.6,2797.458,699.308Z" transform="translate(-2773.997 -684.126)" fill="#ffe0a1"/>
      <path id="Path_87096" data-name="Path 87096" d="M2826.145,791.7l-.051-.031c-2.42-1.138-5.39-2.735-6.052-3.144a7.107,7.107,0,0,0-1.167.658q-.982.531-1.971,1.041c-.965.5-1.915,1.018-2.888,1.494-.164.08-.327.158-.492.233,0,0,5.454-6.057,6.6-5.8S2826.145,791.7,2826.145,791.7Z" transform="translate(-2805.932 -766.903)" fill="#faaf6e"/>
      <path id="Path_87097" data-name="Path 87097" d="M2777.791,859.953s-.542-.541-1.049-1.072c-.334-.352-.646-.7-.781-.875-1.312-1.706-1.117-2.537-1.117-2.537a7.2,7.2,0,0,1,1.443-.225c.091.083,1.143-.786,1.143-.786l2.849,2.515Z" transform="translate(-2774.541 -822.329)" fill="#f28057"/>
      <path id="Path_87098" data-name="Path 87098" d="M2788.886,865.854c0,.04-.069.366-.171.826-.044.207-.1.44-.153.685-.143.651-.312,1.392-.442,1.965l-.151.657c-.044.191-.071.3-.071.3s-.03-.014-.082-.044a3.865,3.865,0,0,1-1.258-1.127c-.517-.77-.536-.8-1.217-.989s-.625-.769-.825-1.557-.971-1.256-1.323-1.708,1.958-5.875,1.958-5.875l.554.452.289.239,2.02,1.651S2788.886,865.7,2788.886,865.854Z" transform="translate(-2781.294 -826.007)" fill="#f5e3dc"/>
      <path id="Path_87099" data-name="Path 87099" d="M2894.9,859.953s.542-.541,1.048-1.072c.334-.352.647-.7.781-.875,1.313-1.706,1.117-2.537,1.117-2.537a7.2,7.2,0,0,0-1.444-.225c-.09.083-1.143-.786-1.143-.786l-2.848,2.515Z" transform="translate(-2869.944 -822.329)" fill="#f28057"/>
      <path id="Path_87100" data-name="Path 87100" d="M2884.779,864.834c-.046.086-.095.173-.14.257l-.243.432v0a5.391,5.391,0,0,0-.756,1.686c-.065.6-1.271.569-1.639,1.372a4.494,4.494,0,0,1-.957,1.155,4.624,4.624,0,0,1-1.555,1.089c-.224,0-.175-2.6-.1-4.623.006-.185.014-.364.02-.536v0c.042-1.031.082-1.8.082-1.8l.768-1.939,0,0,2.233-1.915.3-.259.882-.756S2885.282,863.9,2884.779,864.834Z" transform="translate(-2859.322 -826.007)" fill="#f5e3dc"/>
      <path id="Path_87101" data-name="Path 87101" d="M2888.329,827.271c-.857-2.116-3.432-6.655-3.432-6.655l.867-.508s4.819,4.533,5.648,6.313C2892.824,829.456,2889.532,830.245,2888.329,827.271Z" transform="translate(-2863.843 -794.458)" fill="#ffa880"/>
      <path id="Path_87102" data-name="Path 87102" d="M2881.667,807.981a2.456,2.456,0,0,0,.2.453c.034.069.069.136.1.2.059.114.111.2.124.231l-.17-.228c-.045-.063-.092-.125-.125-.171,0-.008-.011-.015-.017-.024a4.194,4.194,0,0,0-.33-.394c-.053-.057-.1-.1-.123-.095-.13,0-.03.205-.005.268l.012.025c.024.059.057.142.083.2.017.045.032.079.034.088-.008-.01-.035-.045-.073-.086s-.066-.068-.105-.1a.538.538,0,0,0-.164-.109.064.064,0,0,0-.081.059.387.387,0,0,0,.031.163c.02.049.043.1.063.143.011.019.022.037.03.054l.036.066a.275.275,0,0,0-.094-.066h0a.072.072,0,0,0-.021,0,.1.1,0,0,0-.024.005s0,0,0,0a.073.073,0,0,0-.048.064.507.507,0,0,0,.015.069c.048.158.188.5.267.734.008.029.019.057.025.082.1.3.315.86.428,1.108.009.018.016.034.024.048a.234.234,0,0,0,.045.078l.136-.024c.37-.065.933-.147.933-.147s0-.015-.009-.045c0,0,0-.006,0-.009-.018-.08-.052-.244-.092-.431-.084-.376-.194-.858-.249-1a4.725,4.725,0,0,0-.261-.556l-.108-.2-.044-.08a1.521,1.521,0,0,0-.339-.435A.064.064,0,0,0,2881.667,807.981Z" transform="translate(-2860.678 -784.555)" fill="#ffa880"/>
      <g id="Group_7864" data-name="Group 7864" transform="translate(1.627 92.304)">
        <path id="Path_87103" data-name="Path 87103" d="M2793.026,1173.59l-.072,1.662.716.756.664-.8.342-1.74Z" transform="translate(-2790.87 -1173.466)" fill="#ffa880"/>
        <path id="Path_87104" data-name="Path 87104" d="M2781.915,1184.651l3.452-.128,0-.254v-.028a5.411,5.411,0,0,0,.061-.568,4.922,4.922,0,0,0-.062-.979l-1.379.046s-.144.075-.354.188c-.028.013-.055.029-.085.044l-.069.039c-.029.015-.062.032-.092.049-.053.031-.106.06-.162.092l-.084.046h0l-.067.037-.091.054c-.091.052-.184.106-.272.158a3.1,3.1,0,0,0-.7.484.788.788,0,0,0-.1.31,1.182,1.182,0,0,0-.015.172A2.041,2.041,0,0,0,2781.915,1184.651Z" transform="translate(-2781.906 -1180.952)" fill="#342e38"/>
        <path id="Path_87105" data-name="Path 87105" d="M2781.915,1187.892l3.452-.129,0-.253-2.472.108s-.029-.193-.072-.457a3.743,3.743,0,0,0-.114-.473,3.113,3.113,0,0,0-.7.484.79.79,0,0,0-.1.31,1.179,1.179,0,0,0-.015.172A2.036,2.036,0,0,0,2781.915,1187.892Z" transform="translate(-2781.906 -1184.194)" fill="#f5e3dc"/>
      </g>
      <g id="Group_7865" data-name="Group 7865" transform="translate(21.851 92.304)">
        <path id="Path_87106" data-name="Path 87106" d="M2890.771,1173.59l.073,1.662-.717.756-.663-.8-.341-1.74Z" transform="translate(-2889.123 -1173.466)" fill="#ffa880"/>
        <path id="Path_87107" data-name="Path 87107" d="M2894.092,1184.651l-3.452-.128,0-.254v-.028a5.125,5.125,0,0,1-.062-.568,4.891,4.891,0,0,1,.063-.979l1.378.046s.144.075.355.188c.027.013.054.029.084.044l.069.039.092.049c.052.031.105.06.162.092l.083.046h0l.067.037.092.054c.09.052.184.106.271.158a3.083,3.083,0,0,1,.7.484.777.777,0,0,1,.1.31,1.3,1.3,0,0,1,.016.172A2.162,2.162,0,0,1,2894.092,1184.651Z" transform="translate(-2890.295 -1180.952)" fill="#342e38"/>
        <path id="Path_87108" data-name="Path 87108" d="M2894.385,1187.892l-3.453-.129,0-.253,2.471.108s.031-.193.072-.457a4.164,4.164,0,0,1,.114-.473,3.063,3.063,0,0,1,.7.484.766.766,0,0,1,.1.31,1.114,1.114,0,0,1,.015.172A2.3,2.3,0,0,1,2894.385,1187.892Z" transform="translate(-2890.589 -1184.194)" fill="#f5e3dc"/>
      </g>
      <g id="Group_7866" data-name="Group 7866" transform="translate(11.258 28.981)">
        <path id="Path_87109" data-name="Path 87109" d="M2834.269,838.212c-.152-.162-.347-.459-.605-.446a.963.963,0,0,0-.58.406,1.161,1.161,0,0,0-.111.763,1.117,1.117,0,0,0,.275.644c.266.261.6.1.959-.11-.017.121.169.171.194.047.052-.259.353-.381.32-.672C2834.692,838.592,2834.427,838.382,2834.269,838.212Z" transform="translate(-2832.959 -837.765)" fill="#71433d"/>
        <path id="Path_87110" data-name="Path 87110" d="M2859.489,839.146a.357.357,0,0,0-.132-.261c0-.011-.008-.023-.014-.034a.053.053,0,0,1,0-.008c-.247-.413-.912.1-1.131.275a.626.626,0,0,0-.116.955s0,.007,0,.011a.766.766,0,0,0,.729.368.787.787,0,0,0,.689-.564A1.936,1.936,0,0,0,2859.489,839.146Z" transform="translate(-2853.213 -838.513)" fill="#71433d"/>
        <path id="Path_87111" data-name="Path 87111" d="M2839.7,846.083v0a2.492,2.492,0,0,0-.024-.261,3.009,3.009,0,0,0-.05-.305,2.138,2.138,0,0,0-.78-1.316,1.879,1.879,0,0,0-1.087-.346,6.855,6.855,0,0,0-.823.064s-.663-.016-.978-.03a1.935,1.935,0,0,0-1.462.715,2.138,2.138,0,0,0-.41.657,1.941,1.941,0,0,0-.13.808,4.354,4.354,0,0,0,.53,1.9c.122.223.256.438.4.65a.093.093,0,0,1,.056.013.462.462,0,0,1,.271.391.1.1,0,0,1-.019.058c.054.081.109.163.162.245.087.131.168.263.249.4a.1.1,0,0,0,.185-.046,5.3,5.3,0,0,0,.611.044c.282.02.555-.062.837-.07a.079.079,0,0,0,.088.02,3.869,3.869,0,0,0,1.772-1.38,2.948,2.948,0,0,0,.193-.281A3.352,3.352,0,0,0,2839.7,846.083Z" transform="translate(-2833.771 -842.704)" fill="#71433d"/>
        <path id="Path_87112" data-name="Path 87112" d="M2839.7,852.136v0a2.49,2.49,0,0,0-.024-.261,3.016,3.016,0,0,0-.05-.305,1.833,1.833,0,0,1-.938.822,3.458,3.458,0,0,1-.727-.039,3.149,3.149,0,0,0-.959-.056,5.171,5.171,0,0,1-1.384.193,1.6,1.6,0,0,1-1.318-.836c-.076-.125-.145-.239-.213-.339a1.942,1.942,0,0,0-.13.808,4.354,4.354,0,0,0,.53,1.9c.122.224.256.438.4.65a.093.093,0,0,1,.056.013.462.462,0,0,1,.271.391.1.1,0,0,1-.019.057c.054.081.109.163.162.244.063,0,.127.008.189.01a5.641,5.641,0,0,0,1.744-.092,4.643,4.643,0,0,0,1.521-.8,4.1,4.1,0,0,0,.48-.434A3.352,3.352,0,0,0,2839.7,852.136Z" transform="translate(-2833.771 -848.757)" fill="#5c2f29"/>
        <path id="Path_87113" data-name="Path 87113" d="M2842.311,848.665a8.181,8.181,0,0,0-.122-1.259s-2.385-.931-2.885-.656c-.248.137-.578.75-.8.929-.168.136-.355.055-.436.272a1.7,1.7,0,0,0,.011.617c.031.352.094.891.125,1.241.108,1.2.114,2.232,1.4,3.122a1.416,1.416,0,0,0,1.767-.3C2842.359,851.66,2842.308,849.008,2842.311,848.665Z" transform="translate(-2837.084 -845.014)" fill="#ffa880"/>
        <path id="Path_87114" data-name="Path 87114" d="M2844.869,873.239q-.032-.545-.061-1.093l-.021-.529-2.672-1.137s0,.473,0,1.086c0,0,0,.013,0,.037,0,.106,0,.217,0,.33,0,.269-.005.55-.012.82,0,.082-.006.163-.008.241-.009.356-.022.678-.046.9-.031.343-.1.687.239.919a1.732,1.732,0,0,0,1.211.052c.438-.073.867-.224,1.308-.269a.09.09,0,0,0,.068-.007l.067-.024Q2844.907,873.9,2844.869,873.239Z" transform="translate(-2840.315 -864.309)" fill="#ffa880"/>
        <path id="Path_87115" data-name="Path 87115" d="M2844.292,877.329c-.4.177-.609.021-.971.115a.853.853,0,0,1-.568.007,2.8,2.8,0,0,0-.293-.03c.006-.27.009-.552.012-.82,0-.113,0-.224,0-.33,0-.024,0-.037,0-.037a2.85,2.85,0,0,0,.718.51,1.866,1.866,0,0,0,1.175.075C2844.64,876.749,2844.692,877.152,2844.292,877.329Z" transform="translate(-2840.667 -868.978)" fill="#f28057"/>
        <path id="Path_87116" data-name="Path 87116" d="M2847.666,871.773c-.023-.057-.265.025-.518.038a4.422,4.422,0,0,1-.531-.019c-.042,0-.205-.013-.217.045s.1.127.136.152a.917.917,0,0,0,.76.128.634.634,0,0,0,.3-.184C2847.656,871.861,2847.678,871.806,2847.666,871.773Z" transform="translate(-2843.865 -865.342)" fill="#fff"/>
        <path id="Path_87117" data-name="Path 87117" d="M2858.046,862.3a.326.326,0,0,1,.482-.007c.231.231.074,1.043-.232,1.266s-.513.158-.521.1S2858.046,862.3,2858.046,862.3Z" transform="translate(-2853.094 -857.58)" fill="#ffa880"/>
        <path id="Path_87118" data-name="Path 87118" d="M2837.476,862.571a.327.327,0,0,0-.483.006c-.224.236-.046,1.044.265,1.26s.519.144.524.082S2837.476,862.571,2837.476,862.571Z" transform="translate(-2836.15 -857.806)" fill="#ffa880"/>
        <path id="Path_87119" data-name="Path 87119" d="M2841.17,845.513a1.427,1.427,0,0,0-.462-.977,2.809,2.809,0,0,0-1.261-.454,2.035,2.035,0,0,0-.955.026,2.178,2.178,0,0,0-1.943.649,1.921,1.921,0,0,0-.429,1.1,1.757,1.757,0,0,0,.01.374,4.261,4.261,0,0,0,.239.846,2.6,2.6,0,0,0,.259.444,2.848,2.848,0,0,1,.154-.657,1.368,1.368,0,0,1,.208-.346,3,3,0,0,1,.864-.637,1.61,1.61,0,0,0,.862-.982,1.833,1.833,0,0,0,.426.838,2.567,2.567,0,0,0,.512.337,3.385,3.385,0,0,1,.565.424,1.239,1.239,0,0,1,.3.408c.068.167.207.56.207.56a4.788,4.788,0,0,0,.241-.573,5.585,5.585,0,0,0,.21-.92A2.009,2.009,0,0,0,2841.17,845.513Z" transform="translate(-2835.519 -842.855)" fill="#71433d"/>
        <path id="Path_87120" data-name="Path 87120" d="M2840.44,854.29q-.112.006-.223.006a1.233,1.233,0,0,1,.3.408c.068.167.207.561.207.561a4.8,4.8,0,0,0,.241-.573,5.58,5.58,0,0,0,.21-.92A2,2,0,0,1,2840.44,854.29Zm-4.321-.635a1.757,1.757,0,0,0,.01.374,4.27,4.27,0,0,0,.239.846,2.605,2.605,0,0,0,.259.444,2.848,2.848,0,0,1,.154-.657,1.355,1.355,0,0,1,.208-.345A1.541,1.541,0,0,1,2836.119,853.655Z" transform="translate(-2835.519 -850.658)" fill="#5c2f29"/>
      </g>
      <path id="Path_87121" data-name="Path 87121" d="M2822.069,886.64a9.138,9.138,0,0,0-.167,2.953l-13.144-.048a24.536,24.536,0,0,0-.452-3.164c-.184-.916-.318-1.909-.418-2.934-.011-.116-.022-.233-.033-.35-.08-.914-.134-1.85-.166-2.775-.008-.273-.017-.546-.022-.816-.005-.237-.01-.472-.011-.705v0c-.049-3.988.232-7.39.232-7.39s1.507.7,2.512,1.163c.163.074.372.153.608.233.263.09.561.183.865.272,1.111.323,2.315.6,2.315.6a3.508,3.508,0,0,0,2.8,0,12.114,12.114,0,0,0,1.881-.2,6.257,6.257,0,0,0,.875-.235c.084-.03.167-.062.245-.1.109-.048.213-.1.317-.149s.231-.113.341-.169c.794-.406,1.4-.8,1.45-.832v0s.014.169.041.452c0,.04.008.082.011.126.127,1.412.457,4.959.575,5.338a10.483,10.483,0,0,1,.158,1.9A23.785,23.785,0,0,1,2822.069,886.64Z" transform="translate(-2801.168 -836.083)" fill="#f5e3dc"/>
      <g id="Group_7867" data-name="Group 7867" transform="translate(2.427 33.436)">
        <path id="Path_87122" data-name="Path 87122" d="M2796.861,872.564a.954.954,0,0,0-.482.225,2.155,2.155,0,0,0-.2.3,1.01,1.01,0,0,0-.372.3.1.1,0,0,0,0,.1.174.174,0,0,0,.217.073.687.687,0,0,0,.157-.1,1,1,0,0,1,.2-.082.241.241,0,0,0,.16-.22c.014-.119.029-.143.146-.19a1.449,1.449,0,0,0,.26-.1C2797.121,872.753,2797.084,872.529,2796.861,872.564Z" transform="translate(-2793.971 -870.453)" fill="#fff"/>
        <path id="Path_87123" data-name="Path 87123" d="M2819.392,888.676a.96.96,0,0,0-.53-.059,2.024,2.024,0,0,0-.328.154,1.016,1.016,0,0,0-.473.057.1.1,0,0,0-.052.086.173.173,0,0,0,.146.175.64.64,0,0,0,.188-.006,1.043,1.043,0,0,1,.218.037.241.241,0,0,0,.25-.1c.074-.094.1-.107.224-.085a1.539,1.539,0,0,0,.275.047C2819.515,888.972,2819.6,888.762,2819.392,888.676Z" transform="translate(-2811.999 -883.467)" fill="#fff"/>
        <path id="Path_87124" data-name="Path 87124" d="M2795.593,861.626l-.016.006a1.161,1.161,0,0,0-.2.082.609.609,0,0,1-.157.1.177.177,0,0,1-.217-.074.1.1,0,0,1,0-.1.87.87,0,0,1,.305-.257Z" transform="translate(-2793.318 -861.387)" fill="#fff"/>
        <path id="Path_87125" data-name="Path 87125" d="M2812.271,876.9a.959.959,0,0,0-.483.225,2.137,2.137,0,0,0-.2.3,1.02,1.02,0,0,0-.373.3.1.1,0,0,0,0,.1.173.173,0,0,0,.215.073.644.644,0,0,0,.158-.1,1.014,1.014,0,0,1,.2-.082.241.241,0,0,0,.159-.22c.014-.119.029-.143.147-.19a1.432,1.432,0,0,0,.26-.1C2812.531,877.087,2812.5,876.862,2812.271,876.9Z" transform="translate(-2806.475 -873.969)" fill="#fff"/>
        <path id="Path_87126" data-name="Path 87126" d="M2810.063,898.949a.953.953,0,0,0-.482.226,1.939,1.939,0,0,0-.2.3,1,1,0,0,0-.373.295.1.1,0,0,0,0,.1.173.173,0,0,0,.216.073.663.663,0,0,0,.158-.1,1.042,1.042,0,0,1,.2-.082.239.239,0,0,0,.16-.22c.013-.119.029-.143.147-.19a1.48,1.48,0,0,0,.26-.1C2810.323,899.138,2810.288,898.914,2810.063,898.949Z" transform="translate(-2804.684 -891.861)" fill="#fff"/>
        <path id="Path_87127" data-name="Path 87127" d="M2827.55,914.24a.957.957,0,0,0-.483.226,2.1,2.1,0,0,0-.2.3,1.012,1.012,0,0,0-.373.3.1.1,0,0,0,0,.1.173.173,0,0,0,.215.073.65.65,0,0,0,.158-.1,1,1,0,0,1,.2-.082.241.241,0,0,0,.159-.22c.014-.119.029-.143.146-.19a1.5,1.5,0,0,0,.259-.1C2827.808,914.429,2827.774,914.2,2827.55,914.24Z" transform="translate(-2818.871 -904.267)" fill="#fff"/>
        <path id="Path_87128" data-name="Path 87128" d="M2809.538,930.787a1.4,1.4,0,0,1-.26.1c-.116.047-.132.072-.146.191a.24.24,0,0,1-.159.219,1.175,1.175,0,0,0-.2.078c-.01-.117-.022-.233-.032-.35l.024-.012a1.866,1.866,0,0,1,.2-.3.947.947,0,0,1,.483-.225C2809.674,930.452,2809.71,930.676,2809.538,930.787Z" transform="translate(-2804.481 -917.45)" fill="#fff"/>
        <path id="Path_87129" data-name="Path 87129" d="M2851.42,901.635a.964.964,0,0,0-.483.226,2.127,2.127,0,0,0-.2.3,1.008,1.008,0,0,0-.373.3.1.1,0,0,0,0,.1.172.172,0,0,0,.215.073.616.616,0,0,0,.158-.1,1.082,1.082,0,0,1,.2-.082.241.241,0,0,0,.16-.22c.014-.119.029-.143.146-.189a1.493,1.493,0,0,0,.26-.1C2851.68,901.824,2851.644,901.6,2851.42,901.635Z" transform="translate(-2838.24 -894.04)" fill="#fff"/>
        <path id="Path_87130" data-name="Path 87130" d="M2878.048,892.739a.967.967,0,0,0-.482.226,2.134,2.134,0,0,0-.2.3,1.015,1.015,0,0,0-.373.3.1.1,0,0,0,0,.1.174.174,0,0,0,.216.074.644.644,0,0,0,.158-.1,1,1,0,0,1,.2-.082.242.242,0,0,0,.16-.22c.014-.119.029-.143.147-.19a1.477,1.477,0,0,0,.259-.1C2878.308,892.928,2878.272,892.7,2878.048,892.739Z" transform="translate(-2859.844 -886.822)" fill="#fff"/>
        <path id="Path_87131" data-name="Path 87131" d="M2899.174,876.9a.947.947,0,0,0-.482.225,2.042,2.042,0,0,0-.2.3,1.019,1.019,0,0,0-.374.3.106.106,0,0,0,0,.1.175.175,0,0,0,.217.073.653.653,0,0,0,.158-.1,1.008,1.008,0,0,1,.2-.082.241.241,0,0,0,.159-.22c.014-.119.03-.143.147-.19a1.468,1.468,0,0,0,.26-.1C2899.433,877.087,2899.4,876.862,2899.174,876.9Z" transform="translate(-2876.985 -873.969)" fill="#fff"/>
        <path id="Path_87132" data-name="Path 87132" d="M2881.4,926.646a.959.959,0,0,0-.482.226,1.95,1.95,0,0,0-.2.3,1.008,1.008,0,0,0-.374.295.1.1,0,0,0,0,.1.174.174,0,0,0,.216.073.632.632,0,0,0,.158-.1,1.046,1.046,0,0,1,.205-.082.24.24,0,0,0,.159-.22c.013-.119.029-.143.147-.19a1.528,1.528,0,0,0,.259-.1C2881.665,926.835,2881.629,926.611,2881.4,926.646Z" transform="translate(-2862.568 -914.333)" fill="#fff"/>
        <path id="Path_87133" data-name="Path 87133" d="M2893.4,898.949a.95.95,0,0,0-.483.226,2.115,2.115,0,0,0-.2.3,1,1,0,0,0-.373.295.1.1,0,0,0,0,.1.173.173,0,0,0,.216.073.646.646,0,0,0,.158-.1,1.059,1.059,0,0,1,.205-.082.24.24,0,0,0,.159-.22c.014-.119.03-.143.147-.19a1.5,1.5,0,0,0,.259-.1C2893.656,899.138,2893.62,898.914,2893.4,898.949Z" transform="translate(-2872.297 -891.861)" fill="#fff"/>
        <path id="Path_87134" data-name="Path 87134" d="M2871.958,913.123a.962.962,0,0,0-.483.226,2.113,2.113,0,0,0-.2.3,1.008,1.008,0,0,0-.373.3.1.1,0,0,0,0,.1.175.175,0,0,0,.217.073.657.657,0,0,0,.157-.1,1.036,1.036,0,0,1,.2-.082.242.242,0,0,0,.16-.22c.013-.119.028-.143.146-.19a1.5,1.5,0,0,0,.259-.1C2872.219,913.312,2872.182,913.088,2871.958,913.123Z" transform="translate(-2854.903 -903.361)" fill="#fff"/>
        <path id="Path_87135" data-name="Path 87135" d="M2838.716,895.584a.956.956,0,0,0-.483.226,1.972,1.972,0,0,0-.2.3,1,1,0,0,0-.374.295.1.1,0,0,0,0,.1.173.173,0,0,0,.216.073.638.638,0,0,0,.158-.1,1.033,1.033,0,0,1,.2-.082.241.241,0,0,0,.16-.22c.013-.119.029-.143.146-.19a1.478,1.478,0,0,0,.26-.1C2838.976,895.773,2838.939,895.548,2838.716,895.584Z" transform="translate(-2827.931 -889.131)" fill="#fff"/>
        <path id="Path_87136" data-name="Path 87136" d="M2860.708,885.816a.955.955,0,0,0-.483.226,2.013,2.013,0,0,0-.2.3,1,1,0,0,0-.373.3.1.1,0,0,0,0,.1.173.173,0,0,0,.215.073.647.647,0,0,0,.158-.1,1.02,1.02,0,0,1,.2-.082.242.242,0,0,0,.16-.22c.014-.119.03-.143.147-.19a1.442,1.442,0,0,0,.259-.1C2860.968,886.005,2860.932,885.781,2860.708,885.816Z" transform="translate(-2845.775 -881.205)" fill="#fff"/>
        <path id="Path_87137" data-name="Path 87137" d="M2885.463,872.564a.953.953,0,0,0-.483.225,2.006,2.006,0,0,0-.2.3.992.992,0,0,0-.373.3.1.1,0,0,0,0,.1.173.173,0,0,0,.216.073.667.667,0,0,0,.157-.1,1.045,1.045,0,0,1,.2-.082.241.241,0,0,0,.16-.22c.014-.119.03-.143.147-.19a1.459,1.459,0,0,0,.259-.1C2885.722,872.753,2885.688,872.529,2885.463,872.564Z" transform="translate(-2865.861 -870.453)" fill="#fff"/>
        <path id="Path_87138" data-name="Path 87138" d="M2844.709,919.855a.957.957,0,0,0-.483.226,2.054,2.054,0,0,0-.2.3,1.008,1.008,0,0,0-.374.295.1.1,0,0,0,0,.1.174.174,0,0,0,.216.073.656.656,0,0,0,.158-.1,1,1,0,0,1,.2-.082.241.241,0,0,0,.16-.22c.013-.119.029-.143.146-.19a1.453,1.453,0,0,0,.26-.1C2844.968,920.044,2844.933,919.819,2844.709,919.855Z" transform="translate(-2832.794 -908.823)" fill="#fff"/>
        <path id="Path_87139" data-name="Path 87139" d="M2794.1,896.887a.956.956,0,0,0-.483.226,2.028,2.028,0,0,0-.2.3,1.009,1.009,0,0,0-.374.295.1.1,0,0,0,0,.1.173.173,0,0,0,.216.073.621.621,0,0,0,.159-.1,1,1,0,0,1,.2-.082.242.242,0,0,0,.16-.22c.013-.119.03-.143.146-.19a1.483,1.483,0,0,0,.259-.1C2794.356,897.076,2794.321,896.852,2794.1,896.887Z" transform="translate(-2791.729 -890.188)" fill="#fff"/>
        <path id="Path_87140" data-name="Path 87140" d="M2786.87,884.855a.958.958,0,0,0-.082-.526,2.065,2.065,0,0,0-.235-.277,1,1,0,0,0-.178-.441.1.1,0,0,0-.1-.029.172.172,0,0,0-.13.187.645.645,0,0,0,.055.181,1.072,1.072,0,0,1,.021.219.242.242,0,0,0,.167.215c.11.046.13.068.141.194a1.547,1.547,0,0,0,.026.278C2786.616,885.052,2786.841,885.081,2786.87,884.855Z" transform="translate(-2786.148 -879.393)" fill="#fff"/>
        <path id="Path_87141" data-name="Path 87141" d="M2803.469,886.425a.959.959,0,0,0-.082-.526,2.07,2.07,0,0,0-.234-.278,1.011,1.011,0,0,0-.179-.44.1.1,0,0,0-.1-.029.171.171,0,0,0-.13.187.659.659,0,0,0,.054.181,1,1,0,0,1,.022.219.24.24,0,0,0,.167.215c.11.047.129.068.141.194a1.513,1.513,0,0,0,.026.278C2803.214,886.621,2803.44,886.649,2803.469,886.425Z" transform="translate(-2799.616 -880.666)" fill="#fff"/>
        <path id="Path_87142" data-name="Path 87142" d="M2841.725,908.767a.955.955,0,0,0-.083-.526,1.949,1.949,0,0,0-.234-.277,1,1,0,0,0-.179-.441.1.1,0,0,0-.1-.028.171.171,0,0,0-.13.186.612.612,0,0,0,.055.181,1,1,0,0,1,.021.219.243.243,0,0,0,.167.215c.11.046.129.068.141.194a1.471,1.471,0,0,0,.026.278C2841.471,908.964,2841.7,908.992,2841.725,908.767Z" transform="translate(-2830.656 -898.794)" fill="#fff"/>
        <path id="Path_87143" data-name="Path 87143" d="M2866.134,900.221a.964.964,0,0,0-.082-.527,2.054,2.054,0,0,0-.234-.277,1,1,0,0,0-.18-.441.1.1,0,0,0-.1-.029.173.173,0,0,0-.13.187.635.635,0,0,0,.055.18,1.041,1.041,0,0,1,.022.219.24.24,0,0,0,.167.215c.109.046.129.068.141.193a1.468,1.468,0,0,0,.026.278C2865.88,900.418,2866.105,900.446,2866.134,900.221Z" transform="translate(-2850.46 -891.861)" fill="#fff"/>
        <path id="Path_87144" data-name="Path 87144" d="M2889.181,885.972a.955.955,0,0,0-.081-.526,2.123,2.123,0,0,0-.234-.278,1.031,1.031,0,0,0-.178-.441.1.1,0,0,0-.1-.028.172.172,0,0,0-.132.186.669.669,0,0,0,.055.181,1.023,1.023,0,0,1,.022.219.242.242,0,0,0,.166.215c.11.046.13.068.142.194a1.47,1.47,0,0,0,.027.278C2888.927,886.169,2889.152,886.2,2889.181,885.972Z" transform="translate(-2869.159 -880.299)" fill="#fff"/>
        <path id="Path_87145" data-name="Path 87145" d="M2896.759,863.9c-.027.227-.255.2-.311,0a1.429,1.429,0,0,1-.029-.279c-.011-.124-.03-.147-.141-.193a.243.243,0,0,1-.16-.179l.3-.259c.011.034.017.07.026.1a2.2,2.2,0,0,1,.233.277A.943.943,0,0,1,2896.759,863.9Z" transform="translate(-2875.374 -862.693)" fill="#fff"/>
        <path id="Path_87146" data-name="Path 87146" d="M2904.754,888.124c-.083.147-.165.291-.243.432-.007-.06,0-.121-.01-.179-.011-.124-.03-.146-.14-.193a.241.241,0,0,1-.167-.215,1.034,1.034,0,0,0-.022-.219.622.622,0,0,1-.054-.18.172.172,0,0,1,.13-.187.1.1,0,0,1,.1.028,1.011,1.011,0,0,1,.179.442A2.055,2.055,0,0,1,2904.754,888.124Z" transform="translate(-2881.864 -882.476)" fill="#fff"/>
        <path id="Path_87147" data-name="Path 87147" d="M2883.684,908.279a.956.956,0,0,0-.081-.527,2.118,2.118,0,0,0-.235-.277,1.011,1.011,0,0,0-.179-.441.1.1,0,0,0-.1-.028.173.173,0,0,0-.131.186.64.64,0,0,0,.055.181,1,1,0,0,1,.022.219.241.241,0,0,0,.166.215c.111.046.13.068.141.194a1.556,1.556,0,0,0,.027.278C2883.43,908.476,2883.656,908.5,2883.684,908.279Z" transform="translate(-2864.699 -898.398)" fill="#fff"/>
        <path id="Path_87148" data-name="Path 87148" d="M2875.4,879.707c-.028.225-.253.2-.312,0a1.427,1.427,0,0,1-.026-.277c-.012-.127-.032-.149-.143-.2a.246.246,0,0,1-.143-.124c.117-.054.231-.113.342-.169a1.488,1.488,0,0,1,.2.239A.955.955,0,0,1,2875.4,879.707Z" transform="translate(-2858.055 -875.63)" fill="#fff"/>
        <path id="Path_87149" data-name="Path 87149" d="M2859.456,913.279a.954.954,0,0,0-.081-.526,2.119,2.119,0,0,0-.234-.278,1.019,1.019,0,0,0-.179-.441.1.1,0,0,0-.1-.028.174.174,0,0,0-.132.186.709.709,0,0,0,.055.181.976.976,0,0,1,.022.219.241.241,0,0,0,.166.215c.11.046.13.068.142.194a1.509,1.509,0,0,0,.026.278C2859.2,913.476,2859.428,913.5,2859.456,913.279Z" transform="translate(-2845.041 -902.455)" fill="#fff"/>
        <path id="Path_87150" data-name="Path 87150" d="M2833.19,885.116a.964.964,0,0,0-.081-.526,2,2,0,0,0-.235-.277,1.007,1.007,0,0,0-.178-.441.1.1,0,0,0-.1-.029.173.173,0,0,0-.131.187.64.64,0,0,0,.055.181,1.036,1.036,0,0,1,.022.219.24.24,0,0,0,.166.215c.11.046.129.068.141.194a1.412,1.412,0,0,0,.027.278C2832.937,885.312,2833.162,885.341,2833.19,885.116Z" transform="translate(-2823.731 -879.604)" fill="#fff"/>
        <path id="Path_87151" data-name="Path 87151" d="M2829.476,902.415a.962.962,0,0,0-.081-.527,2.1,2.1,0,0,0-.235-.277,1.012,1.012,0,0,0-.178-.441.1.1,0,0,0-.1-.029.174.174,0,0,0-.13.187.659.659,0,0,0,.055.181,1.059,1.059,0,0,1,.022.219.241.241,0,0,0,.166.215c.11.046.13.068.142.194a1.491,1.491,0,0,0,.027.278C2829.222,902.611,2829.447,902.64,2829.476,902.415Z" transform="translate(-2820.716 -893.64)" fill="#fff"/>
        <path id="Path_87152" data-name="Path 87152" d="M2848.552,888.658a.961.961,0,0,0-.081-.526,2.031,2.031,0,0,0-.236-.277.99.99,0,0,0-.178-.441.1.1,0,0,0-.1-.028.172.172,0,0,0-.13.186.635.635,0,0,0,.055.181,1,1,0,0,1,.022.219.241.241,0,0,0,.166.215c.111.046.13.068.141.194a1.538,1.538,0,0,0,.027.278C2848.3,888.855,2848.524,888.883,2848.552,888.658Z" transform="translate(-2836.194 -882.479)" fill="#fff"/>
        <path id="Path_87153" data-name="Path 87153" d="M2816.7,916.372a.968.968,0,0,0-.081-.526,2.155,2.155,0,0,0-.235-.278,1.024,1.024,0,0,0-.178-.44.1.1,0,0,0-.1-.029.173.173,0,0,0-.13.187.648.648,0,0,0,.055.181,1.008,1.008,0,0,1,.022.219.241.241,0,0,0,.166.215c.11.047.13.068.141.194a1.472,1.472,0,0,0,.027.278C2816.449,916.568,2816.675,916.6,2816.7,916.372Z" transform="translate(-2810.353 -904.964)" fill="#fff"/>
        <path id="Path_87154" data-name="Path 87154" d="M2806.842,911.184a.968.968,0,0,0-.082-.526,2.091,2.091,0,0,0-.235-.277,1.011,1.011,0,0,0-.179-.441.1.1,0,0,0-.1-.028.174.174,0,0,0-.13.187.613.613,0,0,0,.055.181,1.036,1.036,0,0,1,.021.219.242.242,0,0,0,.166.215c.11.046.13.068.141.194a1.6,1.6,0,0,0,.027.278C2806.588,911.38,2806.813,911.409,2806.842,911.184Z" transform="translate(-2802.351 -900.755)" fill="#fff"/>
      </g>
      <path id="Path_87155" data-name="Path 87155" d="M2809.563,966.767a14.683,14.683,0,0,1-3.5-.358c-1.553-.408-2.758.247-2.758-1.352s-.471-2.069-.738-4.348-.786-2.355-1.173-4.635c-.47-2.746-1.608-6.516-2.21-9.353a29.161,29.161,0,0,0-1.121-3.92c-.065.585-.137,1.151-.219,1.686-.389,2.513-.741,4.748-1.167,6.829a44.4,44.4,0,0,1-1.379,5.294c-1.044,3.136-.823,3.619-1.557,5.352-.11.265-.244.561-.409.9a8.722,8.722,0,0,0-.5,1.24c-.432,1.386-.229,2.091-.693,2.283a49.917,49.917,0,0,1-5.1.549s.962-12.13,1.431-16.484c.528-4.9.609-9.783,1.205-14.667.3-2.429.7-4.506.988-6.937,0-.01,1.523-9.271,1.859-9.236a53.347,53.347,0,0,0,6.655.679c1.436-.036,5.324-.753,5.625-.454.377.378.341,1.748.409,2.232.209,1.5.776,3.506.959,5,.438,3.58.684,5.979,1.052,9.566.492,4.782.723,9.843,1.338,14.617.37,2.867.613,6.379.765,9.339.1,1.909.163,3.586.2,4.71C2809.551,966.219,2809.563,966.767,2809.563,966.767Z" transform="translate(-2784.441 -875.189)" fill="#df6062"/>
      <path id="Path_87156" data-name="Path 87156" d="M2820.46,879.084,2819.1,887.4l-.87-.486s.921-4.973,1.055-6.112c.1-.882.25-1.674.307-1.985C2819.859,878.9,2820.157,879,2820.46,879.084Z" transform="translate(-2809.754 -842.09)" fill="#df6062"/>
      <path id="Path_87157" data-name="Path 87157" d="M2869.348,889l-.87.486-1.322-8.109a6.3,6.3,0,0,0,.875-.235c.072.39.181,1.039.262,1.746C2868.428,884.031,2869.348,889,2869.348,889Z" transform="translate(-2849.448 -843.983)" fill="#df6062"/>
      <path id="Path_87158" data-name="Path 87158" d="M2786.465,1166.373c.026-.334,2.612-.033,3.7-.184s1.692-.569,1.808-.4-.117,1.072-.083,1.339-3.014.5-3.968.569-1.428.12-1.431-.126C2786.485,1167.178,2786.439,1166.709,2786.465,1166.373Z" transform="translate(-2783.971 -1074.901)" fill="#f5e3dc"/>
      <path id="Path_87159" data-name="Path 87159" d="M2879.428,1164.9c-.21-.138-2.094-.038-3.01-.239s-2.905-.63-3.135-.6-.118.371-.055.609,0,.6.063.792a13.267,13.267,0,0,0,3.264.64c1.281.163,2.9.4,3.026.2s-.025-.264,0-.729S2879.638,1165.042,2879.428,1164.9Z" transform="translate(-2854.307 -1073.536)" fill="#f5e3dc"/>
      <path id="Path_87160" data-name="Path 87160" d="M2778.277,827.271c.856-2.116,3.429-6.676,3.429-6.676l-.864-.487s-4.819,4.533-5.647,6.313C2773.781,829.456,2777.074,830.245,2778.277,827.271Z" transform="translate(-2774.553 -794.458)" fill="#ffa880"/>
      <path id="Path_87161" data-name="Path 87161" d="M2805.259,807.41a1.5,1.5,0,0,0-.193.518c-.006.029-.012.06-.018.089-.014.073-.029.147-.044.219a4.939,4.939,0,0,0-.082.609c-.009.154.032.646.064,1.03l.043.439s0,.006,0,.009l.005.045s.561-.091.933-.14l.137-.019a.234.234,0,0,0,.02-.087c0-.016.005-.033.008-.053.032-.271.075-.867.073-1.186,0-.025,0-.056,0-.085.006-.244.035-.615.033-.78a.58.58,0,0,0-.007-.071.074.074,0,0,0-.065-.046,0,0,0,0,1,0,0,.108.108,0,0,0-.024,0,.113.113,0,0,0-.02.009l0,0a.283.283,0,0,0-.07.091c0-.011.009-.037.015-.074,0-.018.008-.039.012-.06.006-.047.013-.1.017-.156a.391.391,0,0,0-.02-.164.064.064,0,0,0-.095-.032.565.565,0,0,0-.122.154,1.4,1.4,0,0,0-.069.13c-.024.051-.04.092-.044.1,0-.009,0-.046.006-.094.006-.066.012-.155.018-.219a.241.241,0,0,1,0-.027c.005-.068.037-.294-.086-.254-.024.007-.055.057-.09.127a4.8,4.8,0,0,0-.2.475c0,.011-.007.02-.009.028-.017.054-.043.127-.068.2-.041.121-.083.24-.094.269.007-.031.027-.131.05-.257.013-.067.025-.142.037-.218a2.472,2.472,0,0,0,.056-.493A.063.063,0,0,0,2805.259,807.41Z" transform="translate(-2798.952 -784.073)" fill="#ffa880"/>
      <circle id="Ellipse_1569" data-name="Ellipse 1569" cx="0.452" cy="0.452" r="0.452" transform="translate(8.362 44.971)" fill="#ffcb87"/>
      <circle id="Ellipse_1570" data-name="Ellipse 1570" cx="0.452" cy="0.452" r="0.452" transform="translate(19.045 44.971)" fill="#ffcb87"/>
      <path id="Path_87162" data-name="Path 87162" d="M2834.654,1021.369c-.065.585-.138,1.151-.219,1.685-.389,2.513-.741,4.748-1.167,6.829a8.823,8.823,0,0,1-.706-3.484,5.65,5.65,0,0,0-.229-3.462c-.594-1.306.344-2.21.229-4.024s.014-2.606.366-2.455S2834.654,1021.369,2834.654,1021.369Z" transform="translate(-2821.033 -953.756)" fill="#cc4e50"/>
      <path id="Path_87163" data-name="Path 87163" d="M2889.441,1121.93c-.293-.138-.609-.225-.888-.392a2.352,2.352,0,0,1-.834-.962,5.958,5.958,0,0,0-1.388-2.021c-.384-.285-.589.1-.546.49.084.773.962,1.181,1.225,1.891.283.767.074,1.7.568,2.377a10.949,10.949,0,0,1,1.406,2.184,3.475,3.475,0,0,0,.653,1.143C2889.6,1125.516,2889.541,1123.839,2889.441,1121.93Z" transform="translate(-2864.56 -1036.529)" fill="#cc4e50"/>
      <path id="Path_87164" data-name="Path 87164" d="M2802.034,1145.491a5.793,5.793,0,0,1-1.148.663,3.694,3.694,0,0,0-.843.3c-.243.16-.538.55-.254.807.305.281,1.016.078,1.333-.048.686-.27,1.259-.693,1.966-.92a8.694,8.694,0,0,1,.5-1.24c.165-.338.3-.633.409-.9A18.557,18.557,0,0,1,2802.034,1145.491Z" transform="translate(-2794.694 -1057.377)" fill="#cc4e50"/>
      <path id="Path_87165" data-name="Path 87165" d="M2832.326,933.012s-.244,2.6,0,2.75a24.871,24.871,0,0,0,4.74,0,15.314,15.314,0,0,0,.257-2.909,2.4,2.4,0,0,1,.535,1.863c-.068.836-.063,1.222-.339,1.574a2.358,2.358,0,0,1-2.06.427,8.766,8.766,0,0,0-2.1.038c-.842.038-1.377-.113-1.587-.415s0-.728-.043-1.783A1.633,1.633,0,0,1,2832.326,933.012Z" transform="translate(-2820.664 -885.936)" fill="#cc4e50"/>
      <g id="Group_7868" data-name="Group 7868" transform="translate(12.53 33.016)">
        <path id="Path_87166" data-name="Path 87166" d="M2840.536,860.756a.8.8,0,1,1,.825-.8A.813.813,0,0,1,2840.536,860.756Zm0-1.454a.656.656,0,1,0,.682.655A.67.67,0,0,0,2840.536,859.3Z" transform="translate(-2839.71 -859.159)" fill="#fff"/>
      </g>
      <g id="Group_7869" data-name="Group 7869" transform="translate(14.603 33.016)">
        <path id="Path_87167" data-name="Path 87167" d="M2851.525,860.756a.8.8,0,1,1,.825-.8A.814.814,0,0,1,2851.525,860.756Zm0-1.454a.656.656,0,1,0,.682.655A.67.67,0,0,0,2851.525,859.3Z" transform="translate(-2850.699 -859.159)" fill="#fff"/>
      </g>
      <g id="Group_7870" data-name="Group 7870" transform="translate(14.11 33.743)">
        <rect id="Rectangle_4115" data-name="Rectangle 4115" width="0.565" height="0.143" transform="translate(0 0)" fill="#fff"/>
      </g>
      <g id="Group_7871" data-name="Group 7871" transform="translate(16.138 33.393)">
        <path id="Path_87168" data-name="Path 87168" d="M2858.9,861.535a.071.071,0,0,1-.046-.126l.274-.235a.072.072,0,1,1,.093.109l-.274.235A.073.073,0,0,1,2858.9,861.535Z" transform="translate(-2858.832 -861.157)" fill="#fff"/>
      </g>
      <g id="Group_7872" data-name="Group 7872" transform="translate(12.202 33.435)">
        <path id="Path_87169" data-name="Path 87169" d="M2838.371,861.716a.075.075,0,0,1-.036-.01l-.327-.193a.071.071,0,0,1-.025-.1.072.072,0,0,1,.1-.026l.327.193a.071.071,0,0,1-.036.133Z" transform="translate(-2837.972 -861.381)" fill="#fff"/>
      </g>
    </g>
  </g>
</svg>
