<svg xmlns="http://www.w3.org/2000/svg" xmlns:xlink="http://www.w3.org/1999/xlink" width="114" height="64" viewBox="0 0 114 64">
  <defs>
    <clipPath id="clip-path">
      <rect id="Rectangle_4328" data-name="Rectangle 4328" width="114" height="64" transform="translate(883 416)" fill="#fff" stroke="#707070" stroke-width="1" opacity="0.26"/>
    </clipPath>
  </defs>
  <g id="Mask_Group_154" data-name="Mask Group 154" transform="translate(-883 -416)" clip-path="url(#clip-path)">
    <g id="Group_12570" data-name="Group 12570" transform="translate(888.203 405.879)">
      <g id="Group_12505" data-name="Group 12505" transform="translate(80.354 31.712)">
        <path id="Path_89066" data-name="Path 89066" d="M1002.33,329.739c.448-1.318.681-2.973,2.29-3.23a8.965,8.965,0,0,1,2.775-.109,3.033,3.033,0,0,1,1.566.789,3.647,3.647,0,0,1,.709.017,2.282,2.282,0,0,1,.907.367,2.416,2.416,0,0,1,.553.551,4.727,4.727,0,0,0,.443.671,3.749,3.749,0,0,0,.642.339,3.8,3.8,0,0,1,1.448,1.744,1.9,1.9,0,0,1-.287,1.724,5.093,5.093,0,0,1-.743,1.918c-.412.662-.82,1.322-1.237,1.982a9.285,9.285,0,0,1-.859,1.461c-.157.168-.408-.084-.252-.252a5.267,5.267,0,0,0,.693-1.174,9.682,9.682,0,0,1-6.806-1.739,27.571,27.571,0,0,1-2.416-2.5A11.63,11.63,0,0,1,1002.33,329.739Z" transform="translate(-1001.755 -326.331)" fill="#d67545"/>
      </g>
      <g id="Group_12506" data-name="Group 12506" transform="translate(52.884 47.593)">
        <path id="Path_89067" data-name="Path 89067" d="M1165.629,403.049a12.914,12.914,0,0,0-1.239-2.1c-.586-.714-.785-1.063-1.125-1.221-.28-.13-.71-.337-.969-.116a3.593,3.593,0,0,0-.8,1.129c-.169.4-.69.754-.8,1.172a1.263,1.263,0,0,0,.23,1.258,5.98,5.98,0,0,0,2.1,1.678l1.3-.39Z" transform="translate(-1160.622 -399.518)" fill="#ffa38a"/>
      </g>
      <g id="Group_12507" data-name="Group 12507" transform="translate(53.907 38.948)">
        <path id="Path_89068" data-name="Path 89068" d="M1168.548,379.48a.186.186,0,0,0,.179-.132,2.3,2.3,0,0,0-.25-1.787c-.385-.6-.3-.891-.08-1.589.032-.1.066-.215.1-.336a2.74,2.74,0,0,0,.047-1.334,3.617,3.617,0,0,1-.04-1.082,15.8,15.8,0,0,1,1.719-3.582l.033-.053-.878-9.737a.189.189,0,0,0-.2-.169.187.187,0,0,0-.169.2l.866,9.613a14.988,14.988,0,0,0-1.739,3.68,3.983,3.983,0,0,0,.041,1.183,2.4,2.4,0,0,1-.036,1.173c-.035.119-.069.228-.1.331a1.865,1.865,0,0,0,.122,1.9,1.939,1.939,0,0,1,.208,1.477.186.186,0,0,0,.124.233A.177.177,0,0,0,1168.548,379.48Z" transform="translate(-1167.838 -359.679)" fill="#2c2f33"/>
      </g>
      <g id="Group_12508" data-name="Group 12508" transform="translate(53.008 47.753)">
        <path id="Path_89069" data-name="Path 89069" d="M1166.491,400.291s.185-.147.606.16,1.18.991,1.162,1.421c-.025.6-.709.56-.709.56l-.558.865a1,1,0,0,1-.793.593,7.27,7.27,0,0,1-2.06-.828,13.975,13.975,0,0,1,.814-1.371C1165.024,401.692,1166.491,400.291,1166.491,400.291Z" transform="translate(-1164.139 -400.256)" fill="#ffa38a"/>
      </g>
      <g id="Group_12509" data-name="Group 12509" transform="translate(54.82 46.95)">
        <path id="Path_89070" data-name="Path 89070" d="M1163.292,400.853a6.792,6.792,0,0,0-.219-1.739,5.417,5.417,0,0,0-1.754-1.988c-.69-.491-.779-.636-1.08-.548s-.022.777.275,1.165,1.162,1.3,1.162,1.3Z" transform="translate(-1160.109 -396.554)" fill="#ffa38a"/>
      </g>
      <g id="Group_12510" data-name="Group 12510" transform="translate(53.449 48.076)">
        <path id="Path_89071" data-name="Path 89071" d="M1166.714,405.32c.284,0,.648-.351.982-.951a3.488,3.488,0,0,1,.4-.561,1.033,1.033,0,0,0,.295-.534c.042-.34-.962-1.089-1.563-1.505a.131.131,0,0,0-.149.215,5.545,5.545,0,0,1,1.453,1.264.845.845,0,0,1-.236.393,3.743,3.743,0,0,0-.424.6c-.345.618-.648.83-.762.817-.151-.017-1.1-.345-1.663-.548a.131.131,0,1,0-.089.246c.152.055,1.491.536,1.723.562Z" transform="translate(-1164.869 -401.745)" fill="#f27957"/>
      </g>
      <g id="Group_12511" data-name="Group 12511" transform="translate(53.554 49.78)">
        <path id="Path_89072" data-name="Path 89072" d="M1172.8,410.84a.13.13,0,0,0,.061-.246l-1.868-.981a.13.13,0,1,0-.121.231l1.868.981A.13.13,0,0,0,1172.8,410.84Z" transform="translate(-1170.797 -409.598)" fill="#f27957"/>
      </g>
      <g id="Group_12512" data-name="Group 12512" transform="translate(54.258 49.162)">
        <path id="Path_89073" data-name="Path 89073" d="M1170.648,407.917a.13.13,0,0,0,.066-.243l-1.563-.906a.131.131,0,1,0-.131.226l1.563.906A.127.127,0,0,0,1170.648,407.917Z" transform="translate(-1168.955 -406.75)" fill="#f27957"/>
      </g>
      <g id="Group_12513" data-name="Group 12513" transform="translate(54.76 48.494)">
        <path id="Path_89074" data-name="Path 89074" d="M1168.857,404.953a.13.13,0,0,0,.072-.239c-.053-.036-1.471-1.042-1.471-1.042l-.151.213c.34.241,1.45,1.029,1.479,1.048A.129.129,0,0,0,1168.857,404.953Z" transform="translate(-1167.307 -403.672)" fill="#f27957"/>
      </g>
      <g id="Group_12514" data-name="Group 12514" transform="translate(49.874 28.576)">
        <path id="Path_89075" data-name="Path 89075" d="M1169.677,313.278l2.678,7.273a2.066,2.066,0,0,1-1.187,2.639h0a2.066,2.066,0,0,1-2.677-1.175l-2.814-7.222a2.138,2.138,0,0,1,1.246-2.78h0A2.139,2.139,0,0,1,1169.677,313.278Z" transform="translate(-1165.531 -311.878)" fill="#e04c4c"/>
      </g>
      <g id="Group_12515" data-name="Group 12515" transform="translate(78.85 34.759)">
        <path id="Path_89076" data-name="Path 89076" d="M1015.247,344.392c.054-.164.1-.317.15-.456.021-.075.05-.157.075-.232,0,0,0,0,0-.007q.053-.16.118-.32c.029-.075.061-.15.093-.224.043-.1.086-.2.132-.292.734-1.535,1.923-2.674,3.85-2.46,2.422.271,3.981,2.081,5.256,3.976a.139.139,0,0,1-.007.182,45.725,45.725,0,0,1-.87,4.666,20.982,20.982,0,0,0-.424,3.188c-2.191.544-7.077.9-8.847-1.309C1013.352,349.325,1014.613,346.333,1015.247,344.392Z" transform="translate(-1014.124 -340.375)" fill="#ffa38a"/>
      </g>
      <g id="Group_12516" data-name="Group 12516" transform="translate(82.621 43.494)">
        <path id="Path_89077" data-name="Path 89077" d="M1020.254,380.629s.412,5.154.8,7.063c.139.705.36,1.4-.367,1.952a4.363,4.363,0,0,1-2.76.363c-1.011-.061-2.027-.282-3.042-.282a.224.224,0,0,1-.153,0l-.413-.068c-.018-.527-.071-2.333-.113-3.8-.025-.7-.043-1.322-.053-1.688-.007-.217-.01-.346-.01-.346Z" transform="translate(-1014.138 -380.629)" fill="#ffa38a"/>
      </g>
      <g id="Group_12517" data-name="Group 12517" transform="translate(84.408 39.563)">
        <path id="Path_89078" data-name="Path 89078" d="M1035.229,363.13a1,1,0,0,1,.126-.425c.157-.274.443-.257.542.043a.793.793,0,0,1-.066.541.311.311,0,0,1-.459.171A.352.352,0,0,1,1035.229,363.13Z" transform="translate(-1035.228 -362.51)" fill="#2c2f33"/>
      </g>
      <g id="Group_12518" data-name="Group 12518" transform="translate(80.591 38.652)">
        <path id="Path_89079" data-name="Path 89079" d="M1052.908,358.918a.97.97,0,0,1,.123-.414c.152-.267.431-.25.527.042a.774.774,0,0,1-.064.527.3.3,0,0,1-.446.167A.344.344,0,0,1,1052.908,358.918Z" transform="translate(-1052.907 -358.315)" fill="#2c2f33"/>
      </g>
      <g id="Group_12519" data-name="Group 12519" transform="translate(80.893 40.17)">
        <path id="Path_89080" data-name="Path 89080" d="M1049.763,366.95a.13.13,0,0,0,.091-.224,1.273,1.273,0,0,1-.339-.457,8.954,8.954,0,0,1,.853-.728.131.131,0,0,0-.161-.206c-.936.729-.947.857-.952.912-.019.218.285.539.417.666A.129.129,0,0,0,1049.763,366.95Z" transform="translate(-1049.254 -365.307)" fill="#f27957"/>
      </g>
      <g id="Group_12520" data-name="Group 12520" transform="translate(82.632 46.446)">
        <path id="Path_89081" data-name="Path 89081" d="M1032.508,394.82c.01.367.028.986.053,1.688a1.117,1.117,0,0,1,.157-.007,2.113,2.113,0,0,0,1.514-.623,3.952,3.952,0,0,0,1.314-1.335c.1-.3-.115-.469-1.144-.092A5.683,5.683,0,0,1,1032.508,394.82Z" transform="translate(-1032.508 -394.233)" fill="#f27957"/>
      </g>
      <g id="Group_12523" data-name="Group 12523" transform="translate(80.656 42.269)">
        <g id="Group_12521" data-name="Group 12521">
          <path id="Path_89082" data-name="Path 89082" d="M1048.556,376.963c.52.014.99-.723,1.168-1.186a.639.639,0,0,0,.068-.339,2.476,2.476,0,0,0-1.418-.435,1.533,1.533,0,0,0-.107.338C1048.14,375.9,1048.026,376.945,1048.556,376.963Z" transform="translate(-1048.161 -374.98)" fill="#e04c4c"/>
        </g>
        <g id="Group_12522" data-name="Group 12522" transform="translate(0.108)">
          <path id="Path_89083" data-name="Path 89083" d="M1048.161,375.343a3.247,3.247,0,0,0,1.118.378c.075.014.2.039.338.057a.637.637,0,0,0,.068-.339,2.475,2.475,0,0,0-1.418-.435A1.543,1.543,0,0,0,1048.161,375.343Z" transform="translate(-1048.161 -374.98)" fill="#fff"/>
        </g>
      </g>
      <g id="Group_12524" data-name="Group 12524" transform="translate(84.001 38.239)">
        <path id="Path_89084" data-name="Path 89084" d="M1030.555,356.413a2.1,2.1,0,0,1,.509.046,2.074,2.074,0,0,1,1.259.77c.1.166-.037.27-.224.2a6.4,6.4,0,0,0-1.309-.322c-.236-.031-.652-.077-.632-.4C1030.171,356.5,1030.35,356.427,1030.555,356.413Z" transform="translate(-1030.158 -356.41)" fill="#d67545"/>
      </g>
      <g id="Group_12525" data-name="Group 12525" transform="translate(80.319 37.244)">
        <path id="Path_89085" data-name="Path 89085" d="M1049.369,352.343a5.7,5.7,0,0,1,.933.3c.221.089.605.257.748-.035.093-.185-.025-.338-.2-.452a2.163,2.163,0,0,0-.463-.214,2.253,2.253,0,0,0-.8-.114c-.046.1-.089.192-.132.292C1049.429,352.193,1049.4,352.268,1049.369,352.343Z" transform="translate(-1049.369 -351.825)" fill="#d67545"/>
      </g>
      <g id="Group_12526" data-name="Group 12526" transform="translate(57.97 37.431)">
        <path id="Path_89086" data-name="Path 89086" d="M1079.131,352.687l.356.216c.212.129.516.31.887.537,2.756,1.671,9.36,5.682,11.978,7.357,4.207,2.694,2.832,8-2.237,5.1-2.179-1.241-8.761-6.974-11.657-9.532-.3-.265-.565-.5-.777-.687-.393-.35-.968-.824-.968-.824Z" transform="translate(-1076.713 -352.687)" fill="#ffa38a"/>
      </g>
      <g id="Group_12527" data-name="Group 12527" transform="translate(54.772 51.035)">
        <path id="Path_89087" data-name="Path 89087" d="M1121.636,415.381l.223.352c.133.21.324.507.557.875,1.728,2.721,5.866,9.246,7.469,11.909,2.575,4.281-1.012,8.423-4.27,3.581-1.4-2.079-4.756-10.138-6.216-13.715-.154-.372-.286-.7-.392-.961-.2-.488-.5-1.168-.5-1.168Z" transform="translate(-1118.506 -415.381)" fill="#ffa38a"/>
      </g>
      <g id="Group_12528" data-name="Group 12528" transform="translate(52.898 33.052)">
        <path id="Path_89088" data-name="Path 89088" d="M1146.758,334.267a3.16,3.16,0,0,1,1.277.2s-.539-.385-.793-.564c-.16-.113-.71-.454-.4-.649a6.007,6.007,0,0,1,1.912.516c.439.179,1.338.516,1.338.516a20.2,20.2,0,0,1-2.388-1.471.179.179,0,0,1,.126-.3,4.218,4.218,0,0,1,1.472.527,18.519,18.519,0,0,1,2.255,1.364c.6.448,3.1,3.027,3.1,3.027s-1.573,1.358-2.3,2.037a26.171,26.171,0,0,1-3.065-2.208c-.59-.5-1.925-1.445-2.079-1.652a.227.227,0,0,1,.07-.282c.112-.073.279-.025.406-.011,0,0-.878-.44-1.043-.781A.18.18,0,0,1,1146.758,334.267Z" transform="translate(-1146.631 -332.508)" fill="#ffa38a"/>
      </g>
      <g id="Group_12529" data-name="Group 12529" transform="translate(50.13 28.842)">
        <path id="Path_89089" data-name="Path 89089" d="M1181.976,315.247a1.49,1.49,0,0,0,2.029.241c.813-.438,1.221-1.256.913-1.828a1.525,1.525,0,0,0-2.053-.312A1.553,1.553,0,0,0,1181.976,315.247Z" transform="translate(-1181.87 -313.103)" fill="#2c2f33"/>
      </g>
      <g id="Group_12530" data-name="Group 12530" transform="translate(54.339 34.866)">
        <path id="Path_89090" data-name="Path 89090" d="M1171.1,341.736a.13.13,0,0,0,.054-.249l-1.336-.609a.131.131,0,0,0-.108.238l1.336.609A.131.131,0,0,0,1171.1,341.736Z" transform="translate(-1169.631 -340.867)" fill="#f27957"/>
      </g>
      <g id="Group_12531" data-name="Group 12531" transform="translate(54.042 35.786)">
        <path id="Path_89091" data-name="Path 89091" d="M1172.9,345.842a.131.131,0,0,0,.048-.252l-1.217-.475a.131.131,0,0,0-.095.243l1.217.475A.126.126,0,0,0,1172.9,345.842Z" transform="translate(-1171.548 -345.105)" fill="#f27957"/>
      </g>
      <g id="Group_12536" data-name="Group 12536" transform="translate(72.678 149.399)">
        <g id="Group_12532" data-name="Group 12532" transform="translate(3.42)">
          <path id="Path_89092" data-name="Path 89092" d="M1060.652,869.961l.65,3.174,2.036,1.4.8-2.208-.126-3.64Z" transform="translate(-1060.652 -868.685)" fill="#ffa38a"/>
        </g>
        <g id="Group_12533" data-name="Group 12533" transform="translate(0 3.639)">
          <path id="Path_89093" data-name="Path 89093" d="M1059.54,889.835a4.4,4.4,0,0,0,.039.491l7.105-.654-.241-4.217-2.8.694s-.366.217-.876.527c-.046.032-.093.061-.142.089s-.118.075-.178.114l-.114.071c-.121.078-.249.157-.377.242h0l-.068.043c-.082.05-.164.1-.249.16-.014.011-.028.018-.043.029a9.337,9.337,0,0,0-1.884,1.407,1.684,1.684,0,0,0-.164.648A2.367,2.367,0,0,0,1059.54,889.835Z" transform="translate(-1059.536 -885.455)" fill="#6b4b3a"/>
        </g>
        <g id="Group_12534" data-name="Group 12534" transform="translate(2.8 4.949)">
          <path id="Path_89094" data-name="Path 89094" d="M1076.236,891.677a6.363,6.363,0,0,0,.427.609c.149.178.4-.075.253-.249a6.023,6.023,0,0,1-.388-.545c-.057.039-.118.075-.178.114Z" transform="translate(-1076.236 -891.492)" fill="#f2e1cb"/>
        </g>
        <g id="Group_12535" data-name="Group 12535" transform="translate(2.059 5.419)">
          <path id="Path_89095" data-name="Path 89095" d="M1079.669,893.847a5.911,5.911,0,0,0,.424.6c.146.178.4-.075.253-.249a5.739,5.739,0,0,1-.384-.541c-.082.05-.164.1-.249.16C1079.7,893.829,1079.683,893.836,1079.669,893.847Z" transform="translate(-1079.669 -893.658)" fill="#f2e1cb"/>
        </g>
      </g>
      <g id="Group_12541" data-name="Group 12541" transform="translate(86.212 149.283)">
        <g id="Group_12537" data-name="Group 12537" transform="translate(3.42)">
          <path id="Path_89096" data-name="Path 89096" d="M998.28,869.426l.65,3.174,2.035,1.4.8-2.208-.126-3.64Z" transform="translate(-998.28 -868.15)" fill="#ffa38a"/>
        </g>
        <g id="Group_12538" data-name="Group 12538" transform="translate(0 3.639)">
          <path id="Path_89097" data-name="Path 89097" d="M997.168,889.3a4.44,4.44,0,0,0,.039.492l7.106-.654-.241-4.217-2.8.694s-.367.217-.876.527c-.046.032-.093.06-.142.089s-.118.075-.178.114l-.114.071c-.121.078-.249.157-.377.242h0l-.068.043c-.082.05-.164.1-.249.16-.014.011-.028.018-.043.028a9.336,9.336,0,0,0-1.884,1.406,1.694,1.694,0,0,0-.164.648A2.431,2.431,0,0,0,997.168,889.3Z" transform="translate(-997.164 -884.92)" fill="#6b4b3a"/>
        </g>
        <g id="Group_12539" data-name="Group 12539" transform="translate(2.8 4.949)">
          <path id="Path_89098" data-name="Path 89098" d="M1013.864,891.142a6.479,6.479,0,0,0,.427.609c.15.178.4-.075.253-.249a6.006,6.006,0,0,1-.388-.545c-.057.039-.118.075-.178.114Z" transform="translate(-1013.864 -890.957)" fill="#f2e1cb"/>
        </g>
        <g id="Group_12540" data-name="Group 12540" transform="translate(2.059 5.419)">
          <path id="Path_89099" data-name="Path 89099" d="M1017.3,893.312a5.909,5.909,0,0,0,.424.6c.146.178.4-.075.253-.249a5.772,5.772,0,0,1-.385-.541c-.082.05-.164.1-.249.16C1017.325,893.294,1017.311,893.3,1017.3,893.312Z" transform="translate(-1017.297 -893.123)" fill="#f2e1cb"/>
        </g>
      </g>
      <g id="Group_12542" data-name="Group 12542" transform="translate(80.291 90.138)">
        <path id="Path_89100" data-name="Path 89100" d="M968.9,611.318c-1.184,2.646-1.365,13.87-.742,18.468s5.674,27,5.674,27l9.547-.379s.239-6.091-.473-8.062-.118-4.226-.592-8.263-2.61-9.454-2.135-11.435,1.783-10.766,2.377-14.327,1.9-6.312,2.02-10.16,0-6.549,0-6.623-10.922-2.149-11.634-1.944-4.208-.3-5.131.782a28.134,28.134,0,0,0-3.332,7.781C964.153,606.009,968.9,611.318,968.9,611.318Z" transform="translate(-964.461 -595.581)" fill="#d38f4e"/>
      </g>
      <g id="Group_12543" data-name="Group 12543" transform="translate(70.272 92.375)">
        <path id="Path_89101" data-name="Path 89101" d="M1027.075,606.544s-3.255,17.312-3.257,27.84c0,6.067,5.784,30.479,5.784,30.479l8.332-.522s-1.141-9.535-.94-11.672a24.137,24.137,0,0,0-1.113-7.48c-.585-2.019.131-7.949-.424-9.811s1.37-7.759,2.238-10.846,1.308-6.529,2.2-10.328a63.894,63.894,0,0,0,1.23-8.31Z" transform="translate(-1023.818 -605.894)" fill="#d38f4e"/>
      </g>
      <g id="Group_12544" data-name="Group 12544" transform="translate(81.229 34.052)">
        <path id="Path_89102" data-name="Path 89102" d="M1010.245,337.828a2.225,2.225,0,0,1,1.021-.423,2.052,2.052,0,0,1,1.39-.262,10.757,10.757,0,0,1,2.045.682,5.324,5.324,0,0,1,1.8.755,12.237,12.237,0,0,1,1.4,1.589c.864.969,1.419,1.763.984,3.123-.445,1.389-1.663,4.539-1.663,4.539a6.449,6.449,0,0,1-1.281-1.5,1.864,1.864,0,0,0,.5-.867,1.417,1.417,0,0,0-.047-.876c-.222-.48-.839-.638-1.075-1.131-.224-.468-.022-.9-.29-1.4a3.6,3.6,0,0,1-.4-.7c-.023-.078-.039-.159-.057-.239a3.266,3.266,0,0,1-.381-.256c-.426-.34-.354-.826-.732-1.177s-.91-.384-1.31-.737a4.274,4.274,0,0,1-.722-.915,8.675,8.675,0,0,0-1.553.824.18.18,0,0,1-.268-.154C1009.616,338.325,1009.963,338.043,1010.245,337.828Z" transform="translate(-1009.601 -337.115)" fill="#d67545"/>
      </g>
      <g id="Group_12549" data-name="Group 12549" transform="translate(85.399 26.371)">
        <g id="Group_12545" data-name="Group 12545" transform="translate(0 0)">
          <path id="Path_89103" data-name="Path 89103" d="M1001.742,307.872a4.241,4.241,0,0,0,2.407,2.7,3.661,3.661,0,0,0,3.6.239l.107-1,.043-.385.157-1.453,0-.028.028-.274.018-.2.264-2.436.043-.4.007-.053.075-.709.211-1.959a.179.179,0,0,0-.3-.149l-.392.356-.306.281-1.222,1.118-.346.313-.15.139-.278.257-1.428,1.307-.278.257-.032.028-.278.256-1.058.969-.3.274Z" transform="translate(-1001.742 -301.72)" fill="#ffd769"/>
        </g>
        <g id="Group_12546" data-name="Group 12546" transform="translate(4.403 1.804)">
          <path id="Path_89104" data-name="Path 89104" d="M1003.094,310.348a1.367,1.367,0,0,1,.688.31c.409.378.47.8,1.058.88a2.455,2.455,0,0,0,.484.007l.043-.4a1.616,1.616,0,0,1-1.175-.559,2.467,2.467,0,0,0-.552-.485.9.9,0,0,0-.2-.071Z" transform="translate(-1003.094 -310.035)" fill="#fff"/>
        </g>
        <g id="Group_12547" data-name="Group 12547" transform="translate(2.269 3.82)">
          <path id="Path_89105" data-name="Path 89105" d="M1004.59,319.579a1.391,1.391,0,0,0,.766.374c.755.164,1.236.146,1.717.884.4.6.5.862,1.31.9.089,0,.171.011.256.011l0-.028.028-.274a1.333,1.333,0,0,1-.413-.068,2.254,2.254,0,0,1-.933-.9c-.178-.246-.039-.2-.271-.413a1.992,1.992,0,0,0-1.054-.378c-.435-.075-.808-.05-1.133-.367Z" transform="translate(-1004.59 -319.323)" fill="#fff"/>
        </g>
        <g id="Group_12548" data-name="Group 12548" transform="translate(0.598 5.33)">
          <path id="Path_89106" data-name="Path 89106" d="M1005.461,326.555a1.7,1.7,0,0,0,.52.751,3.03,3.03,0,0,0,1.186.335,2.865,2.865,0,0,1,1.492,1c.481.5,1.022.424,1.681.4a6.376,6.376,0,0,1,.641,0l.043-.385c-.335,0-.677.028-1.015.039a2.02,2.02,0,0,1-1.482-.727,2.727,2.727,0,0,0-1.022-.609c-.7-.214-1.361-.16-1.7-.973a.964.964,0,0,0-.046-.1Z" transform="translate(-1005.461 -326.281)" fill="#fff"/>
        </g>
      </g>
      <g id="Group_12550" data-name="Group 12550" transform="translate(71.759 48.434)">
        <path id="Path_89107" data-name="Path 89107" d="M971.64,403.433c-2.062-.258-5.489.914-8.666.693s-10.479,2.471-11.37,2.905c-.622.3-.5,2.868-.535,3.4-.145,2.319-.2,4.645-.255,6.967-.058,2.268,0,4.585-.156,6.841-.243,3.459.013,7.887-.033,11.35-.034,2.562-.352,5.105-.311,7.669.03,1.874-.572,4.839-.188,5.115s7.346-.841,11.442.317,8.281-.622,12.911.092,7.354-.208,7.354-.921-.814-10.659-1.919-17.846c-.739-4.81-3.023-21.355-3.913-23.51S973.659,403.685,971.64,403.433Z" transform="translate(-949.999 -403.395)" fill="#2c2f33"/>
      </g>
      <g id="Group_12551" data-name="Group 12551" transform="translate(76.918 60.246)">
        <path id="Path_89108" data-name="Path 89108" d="M1030.957,457.829a75.393,75.393,0,0,1-7.761.666,17.992,17.992,0,0,0-2.983.015l.4,6.975a16.383,16.383,0,0,1,4.6-.4c1.629.268,2.534-.178,4.018-.177h2.419Z" transform="translate(-1020.213 -457.829)" fill="#f2e1cb"/>
      </g>
      <g id="Group_12552" data-name="Group 12552" transform="translate(71.055 45.915)">
        <path id="Path_89109" data-name="Path 89109" d="M1067.976,392.412l-4.43-.625s-3.024,2.95-1.9,4.443c.82,1.086,6.633,2.678,6.633,2.678l1.483-2.763Z" transform="translate(-1061.397 -391.787)" fill="#ffa38a"/>
      </g>
      <g id="Group_12553" data-name="Group 12553" transform="translate(63.06 62.076)">
        <path id="Path_89110" data-name="Path 89110" d="M1100.209,466.261l-2.7,3.568s.47,4.479,2.323,4.219c1.347-.189,6.2-4.9,6.2-4.9l-1.694-2.638Z" transform="translate(-1097.51 -466.261)" fill="#ffa38a"/>
      </g>
      <g id="Group_12554" data-name="Group 12554" transform="translate(76.074 46.445)">
        <path id="Path_89111" data-name="Path 89111" d="M1014.306,396.253l-16.435-2.027-.892,7.533s9.883.509,10.685.606S1014.306,396.253,1014.306,396.253Z" transform="translate(-996.979 -394.226)" fill="#2c2f33"/>
      </g>
      <g id="Group_12555" data-name="Group 12555" transform="translate(65.328 52.07)">
        <path id="Path_89112" data-name="Path 89112" d="M1090.052,436.007c-.5.392-1.017.774-1.529,1.156a26.712,26.712,0,0,0-2.194,2.034c-.807-1.764-5.647-8.487-5.647-8.487s3.606-4.845,5.726-8.05a9.665,9.665,0,0,1,2.312-2.512s1.935,10.089,1.871,10.563C1090.559,430.935,1090.309,433.428,1090.052,436.007Z" transform="translate(-1080.682 -420.148)" fill="#2c2f33"/>
      </g>
      <g id="Group_12556" data-name="Group 12556" transform="translate(82.796 32.26)">
        <path id="Path_89113" data-name="Path 89113" d="M1038.611,331.205h.015a.131.131,0,0,0,.115-.145,2.119,2.119,0,0,1,.363-1.329c.424-.6.825-.612.842-.613a.131.131,0,0,0,.128-.132.13.13,0,0,0-.13-.129h0a1.435,1.435,0,0,0-1.053.722,2.346,2.346,0,0,0-.41,1.511A.131.131,0,0,0,1038.611,331.205Z" transform="translate(-1038.474 -328.857)" fill="#c25e2d"/>
      </g>
      <g id="Group_12557" data-name="Group 12557" transform="translate(83.526 33.195)">
        <path id="Path_89114" data-name="Path 89114" d="M1039.566,335.044l.025,0a.131.131,0,0,0,.1-.153,1.968,1.968,0,0,1,.072-.83,2.237,2.237,0,0,1,.289-.682.131.131,0,0,0-.206-.161,2.4,2.4,0,0,0-.335.771,2.193,2.193,0,0,0-.077.953A.131.131,0,0,0,1039.566,335.044Z" transform="translate(-1039.417 -333.166)" fill="#c25e2d"/>
      </g>
      <g id="Group_12558" data-name="Group 12558" transform="translate(87.403 37.101)">
        <path id="Path_89115" data-name="Path 89115" d="M1005.7,352.759a.129.129,0,0,0,.089-.035c.008-.008.8-.739,1.375-.707a2.631,2.631,0,0,0,1.39-.392l.158-.081a1.681,1.681,0,0,1,.843-.1.133.133,0,0,0,.148-.111.131.131,0,0,0-.111-.148,1.941,1.941,0,0,0-1,.129l-.163.084a2.334,2.334,0,0,1-1.257.363,2.787,2.787,0,0,0-1.564.776.13.13,0,0,0,.089.226Z" transform="translate(-1005.565 -351.164)" fill="#c25e2d"/>
      </g>
      <g id="Group_12559" data-name="Group 12559" transform="translate(76.009 52.906)">
        <path id="Path_89116" data-name="Path 89116" d="M1011.876,432.631a.131.131,0,0,0,.053-.25,16.352,16.352,0,0,0-4.169-1.169,8.885,8.885,0,0,1-4.071-1.391l-.513-.273a8.642,8.642,0,0,0-2.812-.89,4.922,4.922,0,0,1-1.927-.62,17.377,17.377,0,0,0-4.214-1.507l.042-2.4a.13.13,0,0,0-.128-.133h0a.131.131,0,0,0-.131.128l-.046,2.609.1.024a18.226,18.226,0,0,1,4.236,1.5,5.119,5.119,0,0,0,2.022.656,8.433,8.433,0,0,1,2.734.864l.512.272a9.071,9.071,0,0,0,4.166,1.42,16.05,16.05,0,0,1,4.09,1.148A.133.133,0,0,0,1011.876,432.631Z" transform="translate(-993.959 -424.001)" fill="#4e4654"/>
      </g>
      <g id="Group_12560" data-name="Group 12560" transform="translate(72.29 52.791)">
        <path id="Path_89117" data-name="Path 89117" d="M1082.922,439.471a.131.131,0,0,0,.13-.116c.01-.09.983-9.021,1.071-11.448a10.109,10.109,0,0,1,1.141-4.236.131.131,0,0,0-.226-.131,10.2,10.2,0,0,0-1.176,4.357c-.089,2.418-1.06,11.34-1.07,11.43a.131.131,0,0,0,.116.144Z" transform="translate(-1082.791 -423.475)" fill="#4e4654"/>
      </g>
      <g id="Group_12561" data-name="Group 12561" transform="translate(81.763 102.154)">
        <path id="Path_89118" data-name="Path 89118" d="M1042.589,660.44h.013a.131.131,0,0,0,.118-.142c-.014-.149-.339-3.656-.575-4.779s-1.312-4.334-1.357-4.47a.133.133,0,0,0-.166-.082.131.131,0,0,0-.082.166c.011.033,1.116,3.334,1.349,4.441s.567,4.713.57,4.749A.13.13,0,0,0,1042.589,660.44Z" transform="translate(-1040.533 -650.959)" fill="#b36a47"/>
      </g>
      <g id="Group_12569" data-name="Group 12569" transform="translate(0)">
        <g id="Group_12562" data-name="Group 12562" transform="translate(29.888 2.974)">
          <path id="Path_89119" data-name="Path 89119" d="M1191.639,193.926c2.54-.222,5.868.789,7.466,2.877a11.961,11.961,0,0,1,1.332,3.341,3.136,3.136,0,0,0,2.027,2.255,5.9,5.9,0,0,1,1.808.495,3.934,3.934,0,0,1,1.465,2.934c.224,2.048.223,3.853,2.356,4.813,1.308.588,2.706.76,3.676,1.908a3.611,3.611,0,0,1,.9,3.008c-.058.31-.531.183-.473-.125.346-1.85-1.166-3.195-2.726-3.76a7.846,7.846,0,0,1-2.934-1.444c-2.051-1.985-.149-6.576-3.509-7.248a3.273,3.273,0,0,1-2.508-1.489,19.7,19.7,0,0,1-1.272-3.416c-1.064-2.7-4.947-3.892-7.613-3.659C1191.324,194.443,1191.327,193.953,1191.639,193.926Z" transform="translate(-1191.404 -193.896)" fill="#ffd769"/>
        </g>
        <g id="Group_12563" data-name="Group 12563" transform="translate(8.314 9.422)">
          <path id="Path_89120" data-name="Path 89120" d="M1250.2,227.187c2.468-1.834,4.924-3.027,8.033-2.488a9.4,9.4,0,0,0,2.247.3,6,6,0,0,0,2.346-1,3.671,3.671,0,0,1,3.308.022c1.405.581,2.17,1.707,3.377,2.544,1.478,1.024,3.362.815,5.064,1.04a7.464,7.464,0,0,1,5.658,3.838c.131.283-.291.532-.423.246-1.249-2.7-4.2-3.539-6.9-3.737a7.772,7.772,0,0,1-3.349-.752c-1.173-.676-1.894-1.881-3.124-2.5a4.256,4.256,0,0,0-2.5-.583,8.53,8.53,0,0,0-2.138,1.029,4.13,4.13,0,0,1-2.453.263,10.942,10.942,0,0,0-4.411-.222,13.128,13.128,0,0,0-4.494,2.428C1250.193,227.8,1249.949,227.374,1250.2,227.187Z" transform="translate(-1250.095 -223.609)" fill="#ffd769"/>
        </g>
        <g id="Group_12564" data-name="Group 12564" transform="translate(18.233 24.245)">
          <path id="Path_89121" data-name="Path 89121" d="M1222.758,299.486c1.342-.935,3.374-1.171,4.4-2.461.767-.965,1.084-1.827,2.283-2.373a9.5,9.5,0,0,1,3.555-.567,14.557,14.557,0,0,0,5.155-1.567c2.73-1.151,5.729-.428,8.459.391.3.091.177.564-.125.473a23.716,23.716,0,0,0-4.272-.922,8.156,8.156,0,0,0-4.576.829,11.577,11.577,0,0,1-3.336,1.181c-1.121.151-2.264.064-3.38.254a4.333,4.333,0,0,0-3.15,2.287,4.081,4.081,0,0,1-2.041,1.568,8.495,8.495,0,0,0-4.112,2.741c-.586.834-1.394,2.061-1,3.1.112.294-.362.417-.474.125C1219.475,302.79,1221.436,300.407,1222.758,299.486Z" transform="translate(-1220.011 -291.921)" fill="#ffd769"/>
        </g>
        <g id="Group_12565" data-name="Group 12565" transform="translate(6.693 5.917)">
          <path id="Path_89122" data-name="Path 89122" d="M1381.63,207.61l3.051-.15.19,1.35-3.056.235Z" transform="translate(-1381.63 -207.46)" fill="#e04c4c"/>
        </g>
        <g id="Group_12566" data-name="Group 12566" transform="translate(21.829)">
          <path id="Path_89123" data-name="Path 89123" d="M1310.232,180.189l2.843,2.266-.893,1.355-2.913-2.195Z" transform="translate(-1309.269 -180.189)" fill="#73bf98"/>
        </g>
        <g id="Group_12567" data-name="Group 12567" transform="translate(26.154 20.674)">
          <path id="Path_89124" data-name="Path 89124" d="M1289.977,275.552l3.487-.09.18,1.547-3.5.186Z" transform="translate(-1289.977 -275.462)" fill="#e04c4c"/>
        </g>
        <g id="Group_12568" data-name="Group 12568" transform="translate(0 24.912)">
          <path id="Path_89125" data-name="Path 89125" d="M1408.194,294.992l3.755,1.419-.479,1.727-3.8-1.32Z" transform="translate(-1407.664 -294.992)" fill="#438acc"/>
        </g>
      </g>
    </g>
  </g>
</svg>
