<svg xmlns="http://www.w3.org/2000/svg" xmlns:xlink="http://www.w3.org/1999/xlink" width="102" height="117" viewBox="0 0 102 117">
  <defs>
    <clipPath id="clip-path">
      <circle id="Ellipse_1596" data-name="Ellipse 1596" cx="51" cy="51" r="51" fill="#fff9f0" stroke="#707070" stroke-width="1"/>
    </clipPath>
    <clipPath id="clip-path-2">
      <rect id="Rectangle_4211" data-name="Rectangle 4211" width="161" height="184" fill="#fff" stroke="#707070" stroke-width="1"/>
    </clipPath>
    <clipPath id="clip-path-3">
      <circle id="Ellipse_1597" data-name="Ellipse 1597" cx="29.5" cy="29.5" r="29.5" transform="translate(2.5 13)" fill="#fff" stroke="#707070" stroke-width="1"/>
    </clipPath>
  </defs>
  <g id="Group_8404" data-name="Group 8404" transform="translate(0 -13)">
    <circle id="Ellipse_1595" data-name="Ellipse 1595" cx="51" cy="51" r="51" transform="translate(0 28)" fill="#c7caf0"/>
    <g id="Mask_Group_130" data-name="Mask Group 130" transform="translate(0 28)" clip-path="url(#clip-path)">
      <g id="Mask_Group_129" data-name="Mask Group 129" transform="translate(3 -17)" clip-path="url(#clip-path-2)">
        <g id="Group_8410" data-name="Group 8410" transform="translate(0.941 7.033)">
          <path id="Path_87539" data-name="Path 87539" d="M2098.081,286.078a51.98,51.98,0,0,1,9.2,5.475c3.655,2.942,19.436,14.354,19.436,14.354l-1.07,13.017-23-6.6Z" transform="translate(-2036.908 -262.748)" fill="#5c2f29"/>
          <path id="Path_87540" data-name="Path 87540" d="M2069.5,245.569a9.933,9.933,0,0,0-2.6,1.947,27.139,27.139,0,0,1-2.862,2.733c-.106.107-.214.214-.31.326a34.409,34.409,0,0,1-2.653,2.787c-.422.358-.717.567-1.193.171a2.583,2.583,0,0,1-.331-.348,4.671,4.671,0,0,1-.466-.717,26.515,26.515,0,0,1-1.07-2.653,8.75,8.75,0,0,0-1.246-2.4,6.653,6.653,0,0,1-.814-1.113,3.575,3.575,0,0,1,.358-3.793,1.9,1.9,0,0,1,.61-1.813,2.505,2.505,0,0,1,.749-.466,17.319,17.319,0,0,1,2.311-.465c1.214-.3,2-.925,3.317-.786a4.485,4.485,0,0,1,1.108.273c.171.07.6-.241.781-.305a2.217,2.217,0,0,1,2.263.45,5.97,5.97,0,0,1,1.717,2.8A21.559,21.559,0,0,1,2069.5,245.569Z" transform="translate(-2015.384 -238.816)" fill="#342e38"/>
          <path id="Path_87541" data-name="Path 87541" d="M2064.516,247.115c-.38-.941-1.145-.883-1.937-.749l-.39.064a3.748,3.748,0,0,1-2.338-.508c-.112-.048-.3.021-.412-.005a2.48,2.48,0,0,1-1.316-.861,5.341,5.341,0,0,1-.417-2c-.032-.4-.011-.893-.032-1.364a2.509,2.509,0,0,0-.749.466,1.9,1.9,0,0,0-.61,1.813,3.575,3.575,0,0,0-.358,3.793,6.626,6.626,0,0,0,.814,1.113,8.756,8.756,0,0,1,1.246,2.4,26.632,26.632,0,0,0,1.07,2.653.02.02,0,0,1,.005.016c.123.61.225,1.059.225,1.059s0-.005,0-.005c.022-.037.113-.166.231-.353a2.581,2.581,0,0,0,.331.348c.477.4.771.187,1.193-.171a34.4,34.4,0,0,0,2.653-2.787c.048-.128.1-.257.139-.391C2064.292,250.373,2065.056,248.458,2064.516,247.115Z" transform="translate(-2015.384 -240.272)" fill="#1e1721"/>
          <g id="Group_8405" data-name="Group 8405" transform="translate(40.188 1.419)">
            <g id="Group_8404-2" data-name="Group 8404">
              <path id="Path_87542" data-name="Path 87542" d="M2062.114,249.708c.053,1.824.118,3.664.353,5.478a5.288,5.288,0,0,0,.294,1.128c.032.1.075.2.113.305.134.326.283.647.438.947a12.066,12.066,0,0,0,.941,1.61,19.492,19.492,0,0,0,2.483.776,11.266,11.266,0,0,0,2.407.337h.037a4.087,4.087,0,0,0,3.531-1.444c1.428-1.931.851-6.355.428-8.527a9.113,9.113,0,0,0-.625-2.022l-.006,0a4.02,4.02,0,0,0-3.787-2.627,7.53,7.53,0,0,0-5.387,2.546v.005c-.417.406-.818.84-1.2,1.284A.164.164,0,0,0,2062.114,249.708Z" transform="translate(-2058.87 -243.703)" fill="#ffa880"/>
              <path id="Path_87543" data-name="Path 87543" d="M2060.273,275.559c.771.7,2.177.68,3.14.706,1.172.032,2.37-.113,3.536-.011a.258.258,0,0,0,.177.016l.187-.027.455-3.756.246-2.038v-.005l.112-.909-5.023-3-.936-.562-.428-.257s-.054.284-.144.749c-.043.2-.091.433-.14.69,0,0,0,.005,0,.005-.059.3-.129.631-.2.984-.358,1.717-.839,3.921-1.2,5.125C2059.818,274.073,2059.492,274.848,2060.273,275.559Z" transform="translate(-2057.703 -253.859)" fill="#ffa880"/>
              <path id="Path_87544" data-name="Path 87544" d="M2073.667,274l-.25,2.039c-.052-.013-.108-.026-.165-.042-.355-.094-.172-.32-.69-.731s-.363-.292-.556-.722-.748-.672-.984-1.2.117-.625.215-.606.658.511,1.18.8A5.179,5.179,0,0,0,2073.667,274Z" transform="translate(-2063.355 -257.413)" fill="#f28057"/>
              <path id="Path_87545" data-name="Path 87545" d="M2072.034,247.75l-.005-.005a4.908,4.908,0,0,0-.877-1.027c-.449-.272-.941-.027-1.4.043-.535.085-1.086.038-1.616.15a18.875,18.875,0,0,0-2.471.771.931.931,0,0,0-.262.15,2.545,2.545,0,0,0-.807,1.2,2.133,2.133,0,0,0-.043.369c-.006.2.016.412.011.626-.005.348-.027.845-.391.958-.561-.545-1.439.117-1.46.909a5.991,5.991,0,0,0,.6,2.081,3.546,3.546,0,0,1-.455,1.306c-.145.283-.305.551-.434.759-.011.011-.016.027-.027.038s-.016.022-.021.032c-.118.187-.209.316-.231.353,0,0,0,.005,0,.005s-.1-.449-.225-1.059a.02.02,0,0,0-.006-.016c-.208-.99-.5-2.4-.588-3.055a9.681,9.681,0,0,1-.064-3.215,3.032,3.032,0,0,1,.481-1.118,3.841,3.841,0,0,1,.524-.621,6.313,6.313,0,0,1,.652-.535,10.631,10.631,0,0,1,1.835-1.022c1.669-.738,4.445-1.653,6.253-1.043C2071.745,245.032,2072.034,247.75,2072.034,247.75Z" transform="translate(-2058.393 -243.154)" fill="#342e38"/>
              <path id="Path_87546" data-name="Path 87546" d="M2062.189,246.43a3.748,3.748,0,0,1-2.338-.508c-.112-.048-.3.021-.412-.005a2.48,2.48,0,0,1-1.316-.861,5.341,5.341,0,0,1-.417-2c-.032-.4-.011-.893-.032-1.364a2.509,2.509,0,0,0-.749.466,1.9,1.9,0,0,0-.61,1.813,3.576,3.576,0,0,0-.358,3.793,6.64,6.64,0,0,0,.814,1.113,8.756,8.756,0,0,1,1.246,2.4,26.632,26.632,0,0,0,1.07,2.653.02.02,0,0,1,.005.016c.123.61.225,1.059.225,1.059s0-.005,0-.005c.022-.037.113-.166.231-.353,0-.01.015-.021.021-.032s.016-.027.027-.038c.128-.208.289-.476.433-.759a3.541,3.541,0,0,0,.455-1.306,5.99,5.99,0,0,1-.6-2.081c.021-.792.9-1.455,1.46-.909.364-.113.386-.61.391-.958,0-.214-.016-.423-.011-.626a2.133,2.133,0,0,1,.043-.369,2.544,2.544,0,0,1,.808-1.2Z" transform="translate(-2055.572 -241.691)" fill="#1e1721"/>
            </g>
            <path id="Path_87547" data-name="Path 87547" d="M2079.745,266.129c-.047-.152-.688.013-1.345-.005a11.862,11.862,0,0,1-1.364-.154c-.109-.015-.53-.076-.57.073s.232.347.321.418a2.375,2.375,0,0,0,1.939.481,1.627,1.627,0,0,0,.8-.416C2079.7,266.355,2079.772,266.218,2079.745,266.129Z" transform="translate(-2066.149 -253.972)" fill="#fff"/>
          </g>
          <path id="Path_87548" data-name="Path 87548" d="M2086.226,282.515a32.35,32.35,0,0,1,6.943,2.268c2.675,1.4,3.587,13.337,4.512,17.934s5.384,49.531,5.206,50.244-8.737,0-8.737,0Z" transform="translate(-2030.906 -260.944)" fill="#71433d"/>
          <path id="Path_87549" data-name="Path 87549" d="M2098.761,580.2l-.192,4.2-1.655,1.813-1.667-2.154-.377-4.078Z" transform="translate(-2035.283 -411.565)" fill="#ffa880"/>
          <g id="Group_8406" data-name="Group 8406" transform="translate(59.965 172.489)">
            <path id="Path_87550" data-name="Path 87550" d="M2103.933,593l-8.144-.154-.022-.666-.013-.4-.117-3.526v-.017l3.323.343s.435.213,1.037.528c.12.066.253.13.384.2.188.1.381.209.585.315h.005c.125.068.251.135.375.208a10.835,10.835,0,0,1,2.314,1.476,1.921,1.921,0,0,1,.241.72c0,.017,0,.029,0,.045a2.487,2.487,0,0,1,.034.364A5.513,5.513,0,0,1,2103.933,593Z" transform="translate(-2095.634 -588.237)" fill="#71433d"/>
          </g>
          <path id="Path_87551" data-name="Path 87551" d="M2103.936,592.455a2.452,2.452,0,0,0-.033-.364,6.08,6.08,0,0,0-1.369-.491c-.867-.176-1.766-.195-2.624-.4-1.3-.318-1.713-1.079-2.639-1.909a4.736,4.736,0,0,0-1.635-1.018l.117,3.526.013.4.023.666,8.144.154A5.514,5.514,0,0,0,2103.936,592.455Z" transform="translate(-2035.67 -415.765)" fill="#5c2f29"/>
          <path id="Path_87552" data-name="Path 87552" d="M2022.262,580.8l-.054,4.286,1.51,1.83,1.8-2.042.639-4.045Z" transform="translate(-1998.489 -411.98)" fill="#ffa880"/>
          <g id="Group_8407" data-name="Group 8407" transform="translate(18.675 172.806)">
            <path id="Path_87553" data-name="Path 87553" d="M2012,593.52l8.145-.037.033-.666.019-.4.167-3.524v-.017l-3.327.3s-.438.207-1.044.513c-.121.065-.254.126-.386.193-.19.1-.384.2-.589.307h-.005c-.127.066-.253.131-.378.2a10.849,10.849,0,0,0-2.335,1.443,1.92,1.92,0,0,0-.251.717c0,.017,0,.029,0,.045a2.407,2.407,0,0,0-.039.364A5.406,5.406,0,0,0,2012,593.52Z" transform="translate(-2011.992 -588.879)" fill="#71433d"/>
          </g>
          <path id="Path_87554" data-name="Path 87554" d="M2012,593.537l8.145-.037.033-.666.019-.4.167-3.524a4.727,4.727,0,0,0-1.649,1c-.938.817-1.356,1.571-2.666,1.871-.861.194-1.76.2-2.629.364a6.061,6.061,0,0,0-1.375.471,2.407,2.407,0,0,0-.039.364A5.408,5.408,0,0,0,2012,593.537Z" transform="translate(-1993.317 -416.09)" fill="#5c2f29"/>
          <path id="Path_87555" data-name="Path 87555" d="M2063.721,322.579a.762.762,0,0,1-.621.284h-33.626a3.846,3.846,0,0,1-.877-.562,5.494,5.494,0,0,1-1.883-4.82c.209-3.595-1.717-22.826-1.69-27.185.021-4.3.8-6.617,4.146-8.757s13.684-3.611,13.684-3.611a12.373,12.373,0,0,0,3.033,1.134,7.484,7.484,0,0,0,4.21,0l5.141,1.128S2065.3,320.707,2063.721,322.579Z" transform="translate(-1999.915 -258.621)" fill="#fff"/>
          <path id="Path_87556" data-name="Path 87556" d="M2076.971,342.471a15.8,15.8,0,0,1-.471-6.66c.4-2.2.707-5.788-.957-7.634-.642-.706-1.327-.749-1.867.144-.508.846-.348,2.242-.364,3.173-.038,2.1.171,4.274-.818,6.211-.626,1.219-1.722,2.134-2.423,3.306-.963,1.61-1.113,3.4-2.728,4.621a14.294,14.294,0,0,0-2.851,2.407h11.282a4.535,4.535,0,0,0,1.5-2.359A7.45,7.45,0,0,0,2076.971,342.471Z" transform="translate(-2019.9 -283.797)" fill="#faf1ee"/>
          <path id="Path_87557" data-name="Path 87557" d="M2085.1,392.974c0,6.6-2.578,80.24-2.6,80.6s-9.677,2.14-10.966,0a5.82,5.82,0,0,1-.353-.679,11.4,11.4,0,0,1-.8-4.2c-.053-1.038-.074-2.193-.128-3.5a7.334,7.334,0,0,0-1.075-3.52,7.906,7.906,0,0,1-.6-1.6,14.681,14.681,0,0,1-.23-4.328c.412-6.462.578-7.666-1.016-12.3s-1.765-5.349-1-11.945c.038-.3.059-.62.075-.952a63.015,63.015,0,0,0-1.171-11.715c-.6-3.728-1.311-7.7-1.787-11.469-.267-2.108-.46-4.151-.524-6.061-.241-7.157-.936-20.819-1.305-27.876-.038-.765-.074-1.449-.106-2.043-.006-.139-.017-.268-.022-.4-.07-1.279-.107-2.022-.107-2.022h20.13s.118.31.311.9c.123.386.278.9.46,1.52.1.358.208.754.326,1.188A81.889,81.889,0,0,1,2085.1,392.974Z" transform="translate(-2018.325 -304.713)" fill="#c68a50"/>
          <path id="Path_87558" data-name="Path 87558" d="M2024.078,368.951s-.219.529-.577,1.5c-.1.268-.2.577-.321.915-.2.572-.417,1.241-.658,1.99a82.587,82.587,0,0,0-3.536,17.829c-.963,12.3-4.623,82.578-4.623,82.583-.037.815,9.229,1.192,10.313.941,1.809-.419,2.452-1.225,3.222-2.836a9.816,9.816,0,0,0,.816-4.882,9.375,9.375,0,0,1,1.166-4.7c1.773-3.457.667-7.094,1.381-10.741.4-2.043,1.907-3.533,2.131-5.682.2-1.922.764-6.206.921-8.128a115.185,115.185,0,0,1,2.461-16.163q1.3-6.572,2.639-13.135.112-.547.226-1.094c1.305-6.163,2.247-13.432,2.3-14.556.043-1.027.658-12.919,1-19.509.042-.706.074-1.353.1-1.915.01-.171.021-.337.027-.492.064-1.2.1-1.926.1-1.926Z" transform="translate(-1994.517 -304.711)" fill="#c68a50"/>
          <path id="Path_87559" data-name="Path 87559" d="M2032.223,371.369h35.294c-.182-.62-.337-1.134-.46-1.519-.192-.588-.311-.9-.311-.9h-33.626s-.219.529-.577,1.5C2032.448,370.722,2032.341,371.032,2032.223,371.369Z" transform="translate(-2003.561 -304.711)" fill="#342e38"/>
          <g id="Group_8408" data-name="Group 8408" transform="translate(45.267 64.03)">
            <path id="Path_87560" data-name="Path 87560" d="M2072.434,371.34h-6.386a.187.187,0,0,1-.187-.187v-2.441a.187.187,0,0,1,.187-.187h6.386a.187.187,0,0,1,.187.187v2.441A.187.187,0,0,1,2072.434,371.34Zm-6.2-.375h6.012V368.9h-6.012Z" transform="translate(-2065.861 -368.525)" fill="#fff"/>
          </g>
          <path id="Path_87561" data-name="Path 87561" d="M2010.465,282.706,2009,303.815s-4.589,1.958-9.613,4.012c-.9.369-1.818.744-2.728,1.108-.744.3-1.482.6-2.2.888-.31.123-.626.246-.931.369-.674.268-1.326.519-1.941.754-2.75,1.043-4.761,1.723-4.943,1.546-.621-.588-9.228-8.217-8.736-9.527a.02.02,0,0,1,.005-.016c0-.01.01-.016.016-.027.952-2.241,14.748-13.341,21.173-17.407C2005.57,281.422,2010.465,282.706,2010.465,282.706Z" transform="translate(-1976.048 -260.944)" fill="#71433d"/>
          <path id="Path_87562" data-name="Path 87562" d="M2032.969,278.828s-4.446,35.268-4.9,40.436-2.226,16.583-2.584,20.419-1.161,10.254-1.7,10.607-12.576-3.027-12.929-4.1,5.264-28.266,5.44-33.348c0-.059.005-.117.005-.182.043-1.353.075-3.851.118-6.847.134-9.03.38-22.617,1.417-23.238C2022.458,279.812,2032.969,278.828,2032.969,278.828Z" transform="translate(-1992.738 -259.077)" fill="#71433d"/>
          <g id="Group_8409" data-name="Group 8409" transform="translate(5.196 39.072)">
            <path id="Path_87563" data-name="Path 87563" d="M2005.931,344.752l-2.263,1.423c0-.011-.016-.016-.021-.027l-.931-1.049c-.048-.048-.091-.1-.139-.155-.182-.2-.374-.423-.588-.658-.043-.054-.091-.1-.139-.156-.862-.968-1.963-2.214-3.188-3.595-1.2-1.353-2.52-2.84-3.846-4.338-3.124-3.525-6.264-7.088-7.9-9-5.553-6.489.348-13.3,5.793-6.243,1.7,2.2,5.333,8.8,8.361,14.5.257.487.519.968.77,1.444l.744,1.418c.107.2.214.4.315.594.711,1.343,1.332,2.552,1.83,3.509.027.053.053.1.075.15.155.3.294.562.412.8.027.053.053.1.081.155.042.075.074.144.112.214Z" transform="translate(-1984.687 -317.966)" fill="#ffa880"/>
            <path id="Path_87564" data-name="Path 87564" d="M2022.711,372.1a.674.674,0,0,0,.127.2c.017.026.04.052.063.082.005.011.016.015.022.026.45.573,1.492,1.778,2.093,2.37.05.046.107.108.163.164.45.466,1.1,1.218,1.41,1.53.067.061.118.1.145.122a.215.215,0,0,0,.207-.036.005.005,0,0,1,.005-.006.394.394,0,0,0,.046-.05c0-.016.014-.033.019-.054v-.011a.832.832,0,0,0-.036-.3,1.8,1.8,0,0,0,.11.166c.029.041.058.088.092.135.074.1.165.217.256.325a1.058,1.058,0,0,0,.35.273.167.167,0,0,0,.236-.118,1.506,1.506,0,0,0-.056-.522,3.852,3.852,0,0,0-.114-.375c-.049-.137-.1-.247-.115-.278.017.015.079.093.164.191.114.134.272.314.38.443.017.02.034.046.045.057.119.139.484.625.642.318a.737.737,0,0,0-.072-.4,11.532,11.532,0,0,0-.531-1.266.388.388,0,0,0-.036-.068c-.065-.136-.154-.319-.248-.507-.148-.309-.3-.608-.332-.681.046.068.2.3.391.576.1.151.218.316.344.482a6.39,6.39,0,0,0,.819,1.033.171.171,0,0,0,.277-.141,3.884,3.884,0,0,0-.614-1.337c-.041-.068-.086-.135-.133-.2-.11-.166-.219-.333-.328-.494a11.927,11.927,0,0,0-1-1.3c-.271-.309-1.275-1.156-2.061-1.815-.312-.259-.59-.486-.774-.644a1.375,1.375,0,0,1-.128-.1c-.006-.01-.016-.01-.022-.02-.062-.051-.095-.076-.095-.076s-.88,1.23-1.49,2.024C2022.852,371.914,2022.777,372.014,2022.711,372.1Z" transform="translate(-2003.941 -344.204)" fill="#ffa880"/>
          </g>
          <path id="Path_87565" data-name="Path 87565" d="M1999.884,338.008s-8.147,6.013-9.49,5.841c-2.632-.348-5.494-5.018-8.307-7.853a39.388,39.388,0,0,1-7.173-9.629c-1.969-3.482.47-6.178,1.112-7.174.005-.01.01-.016.016-.027a3.13,3.13,0,0,1,.326-.455l6.537-4.113,5.729,5.039,1.182,1.926,1.305,2.129,1.45,2.375.8,1.3,1.193,1.952Z" transform="translate(-1974.161 -277.19)" fill="#71433d"/>
          <path id="Path_87566" data-name="Path 87566" d="M2061.145,275.837l.465-2.034,4.192,3.449a5.831,5.831,0,0,1-.869.852C2064.688,278.228,2061.145,275.837,2061.145,275.837Z" transform="translate(-2018.205 -256.532)" fill="#fff"/>
          <path id="Path_87567" data-name="Path 87567" d="M2070.58,278.918l2.795-1.824v1.59s-1.613,1.634-1.68,1.612S2070.58,278.918,2070.58,278.918Z" transform="translate(-2022.983 -258.199)" fill="#fff"/>
          <path id="Path_87568" data-name="Path 87568" d="M2067.94,281.494a7.448,7.448,0,0,1,2.6.083,8.782,8.782,0,0,1-.682,2.3,2.518,2.518,0,0,1-1.271,0A5.05,5.05,0,0,1,2067.94,281.494Z" transform="translate(-2021.628 -260.383)" fill="#b0633f"/>
          <path id="Path_87569" data-name="Path 87569" d="M2070.53,310.4c0,1.268-1.873,4.478-2.477,4.462-.454-.01-1.134-1.509-1.749-2.991-.085-.2-.166-.412-.251-.615-.113-.272-.22-.545-.326-.792-.236-.561-.145-3.386.085-6.959q.031-.489.064-.995c.171-2.413.39-5.082.61-7.6.027-.273.053-.546.074-.818.235-2.632.465-5.028.626-6.671v-.005c.027-.251.049-.487.07-.7.1-.968.155-1.541.155-1.541l.642-1.193.631,1.193s.017.214.049.6c.011.166.027.358.043.588.091,1.2.246,3.21.428,5.58.017.2.032.406.048.615.139,1.894.3,3.985.455,6.045l.049.653c.171,2.316.337,4.563.47,6.43.022.257.038.5.054.738C2070.428,308.588,2070.53,310.107,2070.53,310.4Z" transform="translate(-2020.456 -261.688)" fill="#b0633f"/>
          <path id="Path_87570" data-name="Path 87570" d="M2072.544,442.91c-1.161,4.815.177,5.173-.717,10.078a13.171,13.171,0,0,1-3.306,6.344,63.017,63.017,0,0,0-1.171-11.715c-.6-3.728-1.311-7.7-1.787-11.469,0,0,3.547-10.88,4.954-10.3s-1.584,7.189,0,10.3S2073.7,438.1,2072.544,442.91Z" transform="translate(-2020.443 -333.509)" fill="#b87739"/>
          <path id="Path_87571" data-name="Path 87571" d="M2082.737,538.146c-.465.15-.952,1.562-1.15,1.937a19.55,19.55,0,0,0-1.22,2.4c-.444,1.219-.262,2.455-1.262,3.45a18.484,18.484,0,0,1-1.936,1.386,7.337,7.337,0,0,1,1.075,3.52c.054,1.3.075,2.461.128,3.5a11.4,11.4,0,0,0,.8,4.2,7.372,7.372,0,0,0,.385-.728,14.867,14.867,0,0,0,.942-5.387,12.129,12.129,0,0,1,.958-3.466,8.151,8.151,0,0,0,.358-2.83,8.918,8.918,0,0,1,1.069-3.734,7.529,7.529,0,0,0,.626-2.209C2083.572,539.719,2083.807,537.8,2082.737,538.146Z" transform="translate(-2026.32 -390.364)" fill="#b87739"/>
          <path id="Path_87572" data-name="Path 87572" d="M2219.041,402.1c0,14.812-.439,34.466-.514,37.862a.541.541,0,0,1-.524.53c-1.225.027-3.905.086-7.5.15-7.58.15-19.209.342-29.775.348-15.566.005-33.454-.476-37.263-.551a.531.531,0,0,1-.524-.519c-.08-3.44-.529-23.607-.535-37.873,0-8.677.016-41.757.048-67.108.027-16.326.054-29.443.086-30.78a.528.528,0,0,1,.507-.519c2.579-.069,8.271-.369,22.168-.535,4.926-.059,10.078-.1,15.112-.1,2.99,0,6.029.016,9.035.032,16.3.128,25.292.572,28.239.653a.531.531,0,0,1,.519.524C2218.2,307.588,2219.035,387.278,2219.041,402.1Z" transform="translate(-2059.353 -271.318)" fill="#f5e3dc"/>
          <path id="Path_87573" data-name="Path 87573" d="M2195.62,468.159c-8.5-.45-20.355-1.1-20.868-1.274-.564-.188-14.03-47.994-21.956-76.292q-1.148-2.5-2.285-5.012c-2.23-4.944-4.326-9.944-6.512-14.907-.417-.948-.852-1.888-1.281-2.832l-.266-.145c-.031,25.351-.048,58.431-.048,67.108.006,14.266.455,34.434.535,37.873a.531.531,0,0,0,.524.519c3.809.075,21.7.556,37.263.551,6.581,0,13.572-.079,19.742-.172C2198.769,471.849,2197.147,470.048,2195.62,468.159Z" transform="translate(-2059.352 -304.077)" fill="#ebccbe"/>
          <path id="Path_87574" data-name="Path 87574" d="M2191.819,440.623c-2.124.016-4.248.021-6.317.021-1.948,0-3.937-.005-5.933-.021-14.753-.075-23.864-.476-26.731-.545a.539.539,0,0,1-.492-.541c-.027-.92-.075-2.985-.139-5.761-.155-6.676-.358-17.455-.364-26.174,0-7.623.016-40.666.043-65.594.021-15.47.043-27.811.075-29a.534.534,0,0,1,.492-.535c2.594-.1,9.682-.508,32.663-.513s30.08.476,32.669.567a.53.53,0,0,1,.492.535c.085,3.087.866,81.963.871,94.6,0,4.884-.058,10.287-.134,15.272-.128,7.922-.3,14.764-.353,16.663a.535.535,0,0,1-.492.541c-1.471.037-4.558.139-9.228.246Z" transform="translate(-2064.131 -275.851)" fill="#faf1ee"/>
          <path id="Path_87575" data-name="Path 87575" d="M2199.716,477.686c-3.307-4.241-6.169-8.81-9.507-13.027-2.786-3.52-5.744-8.7-8.121-12.532-2.618-4.219-4.638-7.1-6.922-11.519-2.381-4.61-4.314-9.4-6.267-14.2-4.2-10.33-9.027-20.294-13.608-30.449-1.163-2.579-2.29-5.173-3.412-7.769-.022,23.619-.036,51.144-.036,58.015.005,8.72.208,19.5.364,26.174.064,2.776.112,4.841.139,5.761a.539.539,0,0,0,.492.541c2.867.07,11.977.47,26.731.545,2,.016,3.985.021,5.933.021,2.069,0,4.193-.005,6.317-.021q4.978-.034,9.059-.1C2200.484,478.651,2200.1,478.173,2199.716,477.686Z" transform="translate(-2064.131 -314.451)" fill="#f5e8e4"/>
          <path id="Path_87576" data-name="Path 87576" d="M2190.877,302.075c.18.64-.631.3-.878.176a2.753,2.753,0,0,1,.3.4.267.267,0,0,1-.083.316c-.26.2-.656.02-1.05-.169a.7.7,0,0,1,.025.11c.018.664-1.049.074-1.26-.054a1.1,1.1,0,0,1-.264-.167s.173.21.145.316c-.036.14-.055.352-.519.162a21.413,21.413,0,0,1-1.985-1.091,1.188,1.188,0,0,1,.546-.7,4.482,4.482,0,0,1,2.675-.4,5.53,5.53,0,0,1,1.317.349c.349.141.888.348,1.028.734Z" transform="translate(-2081.075 -270.265)" fill="#ffa880"/>
          <path id="Path_87577" data-name="Path 87577" d="M2023.048,368.764q-1.276.81-2.584,1.573c-.048-.048-.091-.1-.139-.155-.182-.2-.375-.423-.588-.658.952-.556,1.888-1.129,2.819-1.717.155.3.294.562.412.8C2022.994,368.662,2023.021,368.71,2023.048,368.764Z" transform="translate(-1997.238 -304.131)" fill="#342e38"/>
          <path id="Path_87578" data-name="Path 87578" d="M2023.329,369.19a.878.878,0,1,0-.878.878A.878.878,0,0,0,2023.329,369.19Z" transform="translate(-1998.168 -304.387)" fill="#fff"/>
          <path id="Path_87579" data-name="Path 87579" d="M2004.508,334.2c.717-.289,1.455-.583,2.2-.888a3.765,3.765,0,0,0-1.942-1.439,4.668,4.668,0,0,0-1.391-.027,2.078,2.078,0,0,1-.315-.021,8.892,8.892,0,0,1-1.926-.728c-.84-.3-2.461-.834-3.135.059a2.013,2.013,0,0,0,.256,2.3c.862,1.1,2.407.658,3.237,1.68.048.064.1.123.145.187.674.883,1.017,1.7,2.156,2.242.6.283,1.728.7,2.37.257a1.189,1.189,0,0,0,.342-.369l-1.193-1.952Z" transform="translate(-1986.097 -285.324)" fill="#5c2f29"/>
          <path id="Path_87580" data-name="Path 87580" d="M2029.89,325.831c-.535,1.937-2.386,1.284-3.633,3.985s-2.305,4.307-3.948,4.574a1.072,1.072,0,0,1-.4-.005c.043-1.353.075-3.851.118-6.847,0,0,6.858-3.311,7.858-5.248S2030.425,323.894,2029.89,325.831Z" transform="translate(-1998.341 -280.798)" fill="#5c2f29"/>
          <path id="Path_87581" data-name="Path 87581" d="M2214.156,343.5c-.075,0-.152.007-.232.007l-48.6,0a2.374,2.374,0,0,1-1.084-.156c-.315-.207-.361-4.7-.134-4.982a8.528,8.528,0,0,1,2.759-.3l44.005.01h2.867a1.583,1.583,0,0,1,1.338.433,1.565,1.565,0,0,1,.193.943,19.065,19.065,0,0,1-.019,3.107A1.024,1.024,0,0,1,2214.156,343.5Z" transform="translate(-2070.268 -289.076)" fill="#95a0bf"/>
          <path id="Path_87582" data-name="Path 87582" d="M2185.408,363.732c-.17.078-17.574.258-21.353.259a.384.384,0,0,1-.357-.146,1.889,1.889,0,0,1-.227-.719,11.228,11.228,0,0,1-.07-3.542c.231-1.2.894-1.042,1.418-1.041l11.516.015c2.542,0,5.076-.019,7.619-.078a2.483,2.483,0,0,1,1.7.378c.858.731.635,2.074.529,3.051C2186.05,363.141,2186.034,363.449,2185.408,363.732Z" transform="translate(-2069.927 -299.407)" fill="#f8888a"/>
          <path id="Path_87583" data-name="Path 87583" d="M2173.487,404.075a.741.741,0,0,1-.319.106,39.489,39.489,0,0,1-4.605,0c-1.151,0-2.3.012-3.453.007-.368,0-1.229.148-1.482-.128-.207-.226-.111-.744-.122-1.023-.026-.7-.044-1.4-.044-2.094,0-.568-.092-1.746.19-2.044.214-.227,1.4-.148,1.963-.147l2.422,0,4.844.005c.824,0,.881.548.882,1.234q0,1.6.007,3.2C2173.77,403.569,2173.746,403.906,2173.487,404.075Z" transform="translate(-2070.007 -319.792)" fill="#95a0bf"/>
          <path id="Path_87584" data-name="Path 87584" d="M2196.407,424.375l-.042,0q-.709.07-1.421.11c-1.132.062-2.276.067-3.406.067-2.7.066-5.4.169-8.1.125-6.256-.1-12.5-.092-18.76-.063-.69,0-.943-.2-1.116-.869a7.56,7.56,0,0,1-.105-3.541c.347-1.2,1.338-1.042,2.123-1.042l17.238.016c3.806,0,7.6-.019,11.406-.079.72-.011,3.174-.216,3.441.169a5.542,5.542,0,0,1,.268,1.989,10.029,10.029,0,0,1-.029,1.386,4.11,4.11,0,0,1-.229,1.325C2197.444,424.457,2196.844,424.338,2196.407,424.375Z" transform="translate(-2069.927 -330.073)" fill="#f8888a"/>
          <path id="Path_87585" data-name="Path 87585" d="M2207.314,464.832a4.8,4.8,0,0,1-.624.03q-20.912-.018-41.823,0a1.209,1.209,0,0,1-.759-.171,1.516,1.516,0,0,1-.44-.977c-.153-.91-.394-2.934.125-3.746.45-.706,1.718-.541,2.413-.541l38.252.01h2.492c1.049,0,1.365.582,1.361,1.6a18.613,18.613,0,0,1-.046,2.879A.975.975,0,0,1,2207.314,464.832Z" transform="translate(-2070.021 -350.515)" fill="#95a0bf"/>
          <path id="Path_87586" data-name="Path 87586" d="M2211.746,485.168c-.374-.015-15.536.007-22.019-.123-2.056-.042-9.191.1-14.679.044-2.933-.027-10.386-.048-11.084-.268-.4-.124-.366-1.515-.393-1.841a6.434,6.434,0,0,1,.259-2.839c.257-.391,1.835-.206,2.964-.205l24.781.015c5.471,0,19.655-.143,20.521.107.43.124.428,1.519.334,3.059C2212.355,484.379,2212.549,485.2,2211.746,485.168Z" transform="translate(-2070.051 -360.886)" fill="#f8888a"/>
          <path id="Path_87587" data-name="Path 87587" d="M2187.422,525.535a.79.79,0,0,1-.11.007l-23.077,0a.442.442,0,0,1-.414-.171,2.24,2.24,0,0,1-.241-.977,12.8,12.8,0,0,1,.068-3.746c.247-.706.939-.541,1.318-.541l20.895.01h1.361a.581.581,0,0,1,.635.433,3.067,3.067,0,0,1,.092.942c0,.973.074,2.155-.009,3.107C2187.88,525.289,2187.693,525.5,2187.422,525.535Z" transform="translate(-2070.022 -381.243)" fill="#95a0bf"/>
          <path id="Path_87588" data-name="Path 87588" d="M2175.518,545.951c-.164.134-.836.035-1.031.039-.821.014-1.643.02-2.464.026q-3.056.022-6.112.025l-1.31,0c-.278,0-.961.116-1.1-.163a2.195,2.195,0,0,1-.112-.7c-.065-.684-.1-1.372-.1-2.059a7.591,7.591,0,0,1,.159-2.058.6.6,0,0,1,.684-.466c2.115.005,9.145,0,10.546-.063a.924.924,0,0,1,.937.378,5.771,5.771,0,0,1,.292,3.051C2175.832,545.194,2175.863,545.668,2175.518,545.951Z" transform="translate(-2069.925 -391.591)" fill="#f8888a"/>
          <path id="Path_87589" data-name="Path 87589" d="M2070.754,328.688a35.6,35.6,0,0,0-3.975,5.445c-.086-.2-.166-.412-.251-.615a35.744,35.744,0,0,1,4.172-5.568C2070.722,328.207,2070.738,328.453,2070.754,328.688Z" transform="translate(-2020.932 -283.95)" fill="#71433d"/>
          <path id="Path_87590" data-name="Path 87590" d="M2069.983,314.255a22,22,0,0,0-3.943,4.247q.032-.489.064-.995a22.814,22.814,0,0,1,3.83-3.905C2069.951,313.821,2069.967,314.035,2069.983,314.255Z" transform="translate(-2020.685 -276.685)" fill="#71433d"/>
          <path id="Path_87591" data-name="Path 87591" d="M2070.171,300.726a20.706,20.706,0,0,0-2.765,2.354c.027-.273.053-.546.074-.818a21.761,21.761,0,0,1,2.643-2.15C2070.14,300.309,2070.155,300.517,2070.171,300.726Z" transform="translate(-2021.376 -269.853)" fill="#71433d"/>
          <path id="Path_87592" data-name="Path 87592" d="M2070.414,288.2c-.541.332-1.076.679-1.589,1.054.026-.251.048-.487.07-.7.481-.332.973-.647,1.476-.941C2070.382,287.782,2070.4,287.974,2070.414,288.2Z" transform="translate(-2022.094 -263.526)" fill="#71433d"/>
        </g>
      </g>
    </g>
    <g id="Mask_Group_131" data-name="Mask Group 131" transform="translate(19)" clip-path="url(#clip-path-3)">
      <g id="Group_8411" data-name="Group 8411" transform="translate(-15.059 18.033)">
        <path id="Path_87539-2" data-name="Path 87539" d="M2098.081,286.078a51.98,51.98,0,0,1,9.2,5.475c3.655,2.942,19.436,14.354,19.436,14.354l-1.07,13.017-23-6.6Z" transform="translate(-2036.908 -262.748)" fill="#5c2f29"/>
        <path id="Path_87540-2" data-name="Path 87540" d="M2069.5,245.569a9.933,9.933,0,0,0-2.6,1.947,27.139,27.139,0,0,1-2.862,2.733c-.106.107-.214.214-.31.326a34.409,34.409,0,0,1-2.653,2.787c-.422.358-.717.567-1.193.171a2.583,2.583,0,0,1-.331-.348,4.671,4.671,0,0,1-.466-.717,26.515,26.515,0,0,1-1.07-2.653,8.75,8.75,0,0,0-1.246-2.4,6.653,6.653,0,0,1-.814-1.113,3.575,3.575,0,0,1,.358-3.793,1.9,1.9,0,0,1,.61-1.813,2.505,2.505,0,0,1,.749-.466,17.319,17.319,0,0,1,2.311-.465c1.214-.3,2-.925,3.317-.786a4.485,4.485,0,0,1,1.108.273c.171.07.6-.241.781-.305a2.217,2.217,0,0,1,2.263.45,5.97,5.97,0,0,1,1.717,2.8A21.559,21.559,0,0,1,2069.5,245.569Z" transform="translate(-2015.384 -238.816)" fill="#342e38"/>
        <path id="Path_87541-2" data-name="Path 87541" d="M2064.516,247.115c-.38-.941-1.145-.883-1.937-.749l-.39.064a3.748,3.748,0,0,1-2.338-.508c-.112-.048-.3.021-.412-.005a2.48,2.48,0,0,1-1.316-.861,5.341,5.341,0,0,1-.417-2c-.032-.4-.011-.893-.032-1.364a2.509,2.509,0,0,0-.749.466,1.9,1.9,0,0,0-.61,1.813,3.575,3.575,0,0,0-.358,3.793,6.626,6.626,0,0,0,.814,1.113,8.756,8.756,0,0,1,1.246,2.4,26.632,26.632,0,0,0,1.07,2.653.02.02,0,0,1,.005.016c.123.61.225,1.059.225,1.059s0-.005,0-.005c.022-.037.113-.166.231-.353a2.581,2.581,0,0,0,.331.348c.477.4.771.187,1.193-.171a34.4,34.4,0,0,0,2.653-2.787c.048-.128.1-.257.139-.391C2064.292,250.373,2065.056,248.458,2064.516,247.115Z" transform="translate(-2015.384 -240.272)" fill="#1e1721"/>
        <g id="Group_8405-2" data-name="Group 8405" transform="translate(40.188 1.419)">
          <g id="Group_8404-3" data-name="Group 8404">
            <path id="Path_87542-2" data-name="Path 87542" d="M2062.114,249.708c.053,1.824.118,3.664.353,5.478a5.288,5.288,0,0,0,.294,1.128c.032.1.075.2.113.305.134.326.283.647.438.947a12.066,12.066,0,0,0,.941,1.61,19.492,19.492,0,0,0,2.483.776,11.266,11.266,0,0,0,2.407.337h.037a4.087,4.087,0,0,0,3.531-1.444c1.428-1.931.851-6.355.428-8.527a9.113,9.113,0,0,0-.625-2.022l-.006,0a4.02,4.02,0,0,0-3.787-2.627,7.53,7.53,0,0,0-5.387,2.546v.005c-.417.406-.818.84-1.2,1.284A.164.164,0,0,0,2062.114,249.708Z" transform="translate(-2058.87 -243.703)" fill="#ffa880"/>
            <path id="Path_87543-2" data-name="Path 87543" d="M2060.273,275.559c.771.7,2.177.68,3.14.706,1.172.032,2.37-.113,3.536-.011a.258.258,0,0,0,.177.016l.187-.027.455-3.756.246-2.038v-.005l.112-.909-5.023-3-.936-.562-.428-.257s-.054.284-.144.749c-.043.2-.091.433-.14.69,0,0,0,.005,0,.005-.059.3-.129.631-.2.984-.358,1.717-.839,3.921-1.2,5.125C2059.818,274.073,2059.492,274.848,2060.273,275.559Z" transform="translate(-2057.703 -253.859)" fill="#ffa880"/>
            <path id="Path_87544-2" data-name="Path 87544" d="M2073.667,274l-.25,2.039c-.052-.013-.108-.026-.165-.042-.355-.094-.172-.32-.69-.731s-.363-.292-.556-.722-.748-.672-.984-1.2.117-.625.215-.606.658.511,1.18.8A5.179,5.179,0,0,0,2073.667,274Z" transform="translate(-2063.355 -257.413)" fill="#f28057"/>
            <path id="Path_87545-2" data-name="Path 87545" d="M2072.034,247.75l-.005-.005a4.908,4.908,0,0,0-.877-1.027c-.449-.272-.941-.027-1.4.043-.535.085-1.086.038-1.616.15a18.875,18.875,0,0,0-2.471.771.931.931,0,0,0-.262.15,2.545,2.545,0,0,0-.807,1.2,2.133,2.133,0,0,0-.043.369c-.006.2.016.412.011.626-.005.348-.027.845-.391.958-.561-.545-1.439.117-1.46.909a5.991,5.991,0,0,0,.6,2.081,3.546,3.546,0,0,1-.455,1.306c-.145.283-.305.551-.434.759-.011.011-.016.027-.027.038s-.016.022-.021.032c-.118.187-.209.316-.231.353,0,0,0,.005,0,.005s-.1-.449-.225-1.059a.02.02,0,0,0-.006-.016c-.208-.99-.5-2.4-.588-3.055a9.681,9.681,0,0,1-.064-3.215,3.032,3.032,0,0,1,.481-1.118,3.841,3.841,0,0,1,.524-.621,6.313,6.313,0,0,1,.652-.535,10.631,10.631,0,0,1,1.835-1.022c1.669-.738,4.445-1.653,6.253-1.043C2071.745,245.032,2072.034,247.75,2072.034,247.75Z" transform="translate(-2058.393 -243.154)" fill="#342e38"/>
            <path id="Path_87546-2" data-name="Path 87546" d="M2062.189,246.43a3.748,3.748,0,0,1-2.338-.508c-.112-.048-.3.021-.412-.005a2.48,2.48,0,0,1-1.316-.861,5.341,5.341,0,0,1-.417-2c-.032-.4-.011-.893-.032-1.364a2.509,2.509,0,0,0-.749.466,1.9,1.9,0,0,0-.61,1.813,3.576,3.576,0,0,0-.358,3.793,6.64,6.64,0,0,0,.814,1.113,8.756,8.756,0,0,1,1.246,2.4,26.632,26.632,0,0,0,1.07,2.653.02.02,0,0,1,.005.016c.123.61.225,1.059.225,1.059s0-.005,0-.005c.022-.037.113-.166.231-.353,0-.01.015-.021.021-.032s.016-.027.027-.038c.128-.208.289-.476.433-.759a3.541,3.541,0,0,0,.455-1.306,5.99,5.99,0,0,1-.6-2.081c.021-.792.9-1.455,1.46-.909.364-.113.386-.61.391-.958,0-.214-.016-.423-.011-.626a2.133,2.133,0,0,1,.043-.369,2.544,2.544,0,0,1,.808-1.2Z" transform="translate(-2055.572 -241.691)" fill="#1e1721"/>
          </g>
          <path id="Path_87547-2" data-name="Path 87547" d="M2079.745,266.129c-.047-.152-.688.013-1.345-.005a11.862,11.862,0,0,1-1.364-.154c-.109-.015-.53-.076-.57.073s.232.347.321.418a2.375,2.375,0,0,0,1.939.481,1.627,1.627,0,0,0,.8-.416C2079.7,266.355,2079.772,266.218,2079.745,266.129Z" transform="translate(-2066.149 -253.972)" fill="#fff"/>
        </g>
        <path id="Path_87548-2" data-name="Path 87548" d="M2086.226,282.515a32.35,32.35,0,0,1,6.943,2.268c2.675,1.4,3.587,13.337,4.512,17.934s5.384,49.531,5.206,50.244-8.737,0-8.737,0Z" transform="translate(-2030.906 -260.944)" fill="#71433d"/>
        <path id="Path_87549-2" data-name="Path 87549" d="M2098.761,580.2l-.192,4.2-1.655,1.813-1.667-2.154-.377-4.078Z" transform="translate(-2035.283 -411.565)" fill="#ffa880"/>
        <g id="Group_8406-2" data-name="Group 8406" transform="translate(59.965 172.489)">
          <path id="Path_87550-2" data-name="Path 87550" d="M2103.933,593l-8.144-.154-.022-.666-.013-.4-.117-3.526v-.017l3.323.343s.435.213,1.037.528c.12.066.253.13.384.2.188.1.381.209.585.315h.005c.125.068.251.135.375.208a10.835,10.835,0,0,1,2.314,1.476,1.921,1.921,0,0,1,.241.72c0,.017,0,.029,0,.045a2.487,2.487,0,0,1,.034.364A5.513,5.513,0,0,1,2103.933,593Z" transform="translate(-2095.634 -588.237)" fill="#71433d"/>
        </g>
        <path id="Path_87551-2" data-name="Path 87551" d="M2103.936,592.455a2.452,2.452,0,0,0-.033-.364,6.08,6.08,0,0,0-1.369-.491c-.867-.176-1.766-.195-2.624-.4-1.3-.318-1.713-1.079-2.639-1.909a4.736,4.736,0,0,0-1.635-1.018l.117,3.526.013.4.023.666,8.144.154A5.514,5.514,0,0,0,2103.936,592.455Z" transform="translate(-2035.67 -415.765)" fill="#5c2f29"/>
        <path id="Path_87552-2" data-name="Path 87552" d="M2022.262,580.8l-.054,4.286,1.51,1.83,1.8-2.042.639-4.045Z" transform="translate(-1998.489 -411.98)" fill="#ffa880"/>
        <g id="Group_8407-2" data-name="Group 8407" transform="translate(18.675 172.806)">
          <path id="Path_87553-2" data-name="Path 87553" d="M2012,593.52l8.145-.037.033-.666.019-.4.167-3.524v-.017l-3.327.3s-.438.207-1.044.513c-.121.065-.254.126-.386.193-.19.1-.384.2-.589.307h-.005c-.127.066-.253.131-.378.2a10.849,10.849,0,0,0-2.335,1.443,1.92,1.92,0,0,0-.251.717c0,.017,0,.029,0,.045a2.407,2.407,0,0,0-.039.364A5.406,5.406,0,0,0,2012,593.52Z" transform="translate(-2011.992 -588.879)" fill="#71433d"/>
        </g>
        <path id="Path_87554-2" data-name="Path 87554" d="M2012,593.537l8.145-.037.033-.666.019-.4.167-3.524a4.727,4.727,0,0,0-1.649,1c-.938.817-1.356,1.571-2.666,1.871-.861.194-1.76.2-2.629.364a6.061,6.061,0,0,0-1.375.471,2.407,2.407,0,0,0-.039.364A5.408,5.408,0,0,0,2012,593.537Z" transform="translate(-1993.317 -416.09)" fill="#5c2f29"/>
        <path id="Path_87555-2" data-name="Path 87555" d="M2063.721,322.579a.762.762,0,0,1-.621.284h-33.626a3.846,3.846,0,0,1-.877-.562,5.494,5.494,0,0,1-1.883-4.82c.209-3.595-1.717-22.826-1.69-27.185.021-4.3.8-6.617,4.146-8.757s13.684-3.611,13.684-3.611a12.373,12.373,0,0,0,3.033,1.134,7.484,7.484,0,0,0,4.21,0l5.141,1.128S2065.3,320.707,2063.721,322.579Z" transform="translate(-1999.915 -258.621)" fill="#fff"/>
        <path id="Path_87556-2" data-name="Path 87556" d="M2076.971,342.471a15.8,15.8,0,0,1-.471-6.66c.4-2.2.707-5.788-.957-7.634-.642-.706-1.327-.749-1.867.144-.508.846-.348,2.242-.364,3.173-.038,2.1.171,4.274-.818,6.211-.626,1.219-1.722,2.134-2.423,3.306-.963,1.61-1.113,3.4-2.728,4.621a14.294,14.294,0,0,0-2.851,2.407h11.282a4.535,4.535,0,0,0,1.5-2.359A7.45,7.45,0,0,0,2076.971,342.471Z" transform="translate(-2019.9 -283.797)" fill="#faf1ee"/>
        <path id="Path_87557-2" data-name="Path 87557" d="M2085.1,392.974c0,6.6-2.578,80.24-2.6,80.6s-9.677,2.14-10.966,0a5.82,5.82,0,0,1-.353-.679,11.4,11.4,0,0,1-.8-4.2c-.053-1.038-.074-2.193-.128-3.5a7.334,7.334,0,0,0-1.075-3.52,7.906,7.906,0,0,1-.6-1.6,14.681,14.681,0,0,1-.23-4.328c.412-6.462.578-7.666-1.016-12.3s-1.765-5.349-1-11.945c.038-.3.059-.62.075-.952a63.015,63.015,0,0,0-1.171-11.715c-.6-3.728-1.311-7.7-1.787-11.469-.267-2.108-.46-4.151-.524-6.061-.241-7.157-.936-20.819-1.305-27.876-.038-.765-.074-1.449-.106-2.043-.006-.139-.017-.268-.022-.4-.07-1.279-.107-2.022-.107-2.022h20.13s.118.31.311.9c.123.386.278.9.46,1.52.1.358.208.754.326,1.188A81.889,81.889,0,0,1,2085.1,392.974Z" transform="translate(-2018.325 -304.713)" fill="#c68a50"/>
        <path id="Path_87558-2" data-name="Path 87558" d="M2024.078,368.951s-.219.529-.577,1.5c-.1.268-.2.577-.321.915-.2.572-.417,1.241-.658,1.99a82.587,82.587,0,0,0-3.536,17.829c-.963,12.3-4.623,82.578-4.623,82.583-.037.815,9.229,1.192,10.313.941,1.809-.419,2.452-1.225,3.222-2.836a9.816,9.816,0,0,0,.816-4.882,9.375,9.375,0,0,1,1.166-4.7c1.773-3.457.667-7.094,1.381-10.741.4-2.043,1.907-3.533,2.131-5.682.2-1.922.764-6.206.921-8.128a115.185,115.185,0,0,1,2.461-16.163q1.3-6.572,2.639-13.135.112-.547.226-1.094c1.305-6.163,2.247-13.432,2.3-14.556.043-1.027.658-12.919,1-19.509.042-.706.074-1.353.1-1.915.01-.171.021-.337.027-.492.064-1.2.1-1.926.1-1.926Z" transform="translate(-1994.517 -304.711)" fill="#c68a50"/>
        <path id="Path_87559-2" data-name="Path 87559" d="M2032.223,371.369h35.294c-.182-.62-.337-1.134-.46-1.519-.192-.588-.311-.9-.311-.9h-33.626s-.219.529-.577,1.5C2032.448,370.722,2032.341,371.032,2032.223,371.369Z" transform="translate(-2003.561 -304.711)" fill="#342e38"/>
        <g id="Group_8408-2" data-name="Group 8408" transform="translate(45.267 64.03)">
          <path id="Path_87560-2" data-name="Path 87560" d="M2072.434,371.34h-6.386a.187.187,0,0,1-.187-.187v-2.441a.187.187,0,0,1,.187-.187h6.386a.187.187,0,0,1,.187.187v2.441A.187.187,0,0,1,2072.434,371.34Zm-6.2-.375h6.012V368.9h-6.012Z" transform="translate(-2065.861 -368.525)" fill="#fff"/>
        </g>
        <path id="Path_87561-2" data-name="Path 87561" d="M2010.465,282.706,2009,303.815s-4.589,1.958-9.613,4.012c-.9.369-1.818.744-2.728,1.108-.744.3-1.482.6-2.2.888-.31.123-.626.246-.931.369-.674.268-1.326.519-1.941.754-2.75,1.043-4.761,1.723-4.943,1.546-.621-.588-9.228-8.217-8.736-9.527a.02.02,0,0,1,.005-.016c0-.01.01-.016.016-.027.952-2.241,14.748-13.341,21.173-17.407C2005.57,281.422,2010.465,282.706,2010.465,282.706Z" transform="translate(-1976.048 -260.944)" fill="#71433d"/>
        <path id="Path_87562-2" data-name="Path 87562" d="M2032.969,278.828s-4.446,35.268-4.9,40.436-2.226,16.583-2.584,20.419-1.161,10.254-1.7,10.607-12.576-3.027-12.929-4.1,5.264-28.266,5.44-33.348c0-.059.005-.117.005-.182.043-1.353.075-3.851.118-6.847.134-9.03.38-22.617,1.417-23.238C2022.458,279.812,2032.969,278.828,2032.969,278.828Z" transform="translate(-1992.738 -259.077)" fill="#71433d"/>
        <g id="Group_8409-2" data-name="Group 8409" transform="translate(5.196 39.072)">
          <path id="Path_87563-2" data-name="Path 87563" d="M2005.931,344.752l-2.263,1.423c0-.011-.016-.016-.021-.027l-.931-1.049c-.048-.048-.091-.1-.139-.155-.182-.2-.374-.423-.588-.658-.043-.054-.091-.1-.139-.156-.862-.968-1.963-2.214-3.188-3.595-1.2-1.353-2.52-2.84-3.846-4.338-3.124-3.525-6.264-7.088-7.9-9-5.553-6.489.348-13.3,5.793-6.243,1.7,2.2,5.333,8.8,8.361,14.5.257.487.519.968.77,1.444l.744,1.418c.107.2.214.4.315.594.711,1.343,1.332,2.552,1.83,3.509.027.053.053.1.075.15.155.3.294.562.412.8.027.053.053.1.081.155.042.075.074.144.112.214Z" transform="translate(-1984.687 -317.966)" fill="#ffa880"/>
          <path id="Path_87564-2" data-name="Path 87564" d="M2022.711,372.1a.674.674,0,0,0,.127.2c.017.026.04.052.063.082.005.011.016.015.022.026.45.573,1.492,1.778,2.093,2.37.05.046.107.108.163.164.45.466,1.1,1.218,1.41,1.53.067.061.118.1.145.122a.215.215,0,0,0,.207-.036.005.005,0,0,1,.005-.006.394.394,0,0,0,.046-.05c0-.016.014-.033.019-.054v-.011a.832.832,0,0,0-.036-.3,1.8,1.8,0,0,0,.11.166c.029.041.058.088.092.135.074.1.165.217.256.325a1.058,1.058,0,0,0,.35.273.167.167,0,0,0,.236-.118,1.506,1.506,0,0,0-.056-.522,3.852,3.852,0,0,0-.114-.375c-.049-.137-.1-.247-.115-.278.017.015.079.093.164.191.114.134.272.314.38.443.017.02.034.046.045.057.119.139.484.625.642.318a.737.737,0,0,0-.072-.4,11.532,11.532,0,0,0-.531-1.266.388.388,0,0,0-.036-.068c-.065-.136-.154-.319-.248-.507-.148-.309-.3-.608-.332-.681.046.068.2.3.391.576.1.151.218.316.344.482a6.39,6.39,0,0,0,.819,1.033.171.171,0,0,0,.277-.141,3.884,3.884,0,0,0-.614-1.337c-.041-.068-.086-.135-.133-.2-.11-.166-.219-.333-.328-.494a11.927,11.927,0,0,0-1-1.3c-.271-.309-1.275-1.156-2.061-1.815-.312-.259-.59-.486-.774-.644a1.375,1.375,0,0,1-.128-.1c-.006-.01-.016-.01-.022-.02-.062-.051-.095-.076-.095-.076s-.88,1.23-1.49,2.024C2022.852,371.914,2022.777,372.014,2022.711,372.1Z" transform="translate(-2003.941 -344.204)" fill="#ffa880"/>
        </g>
        <path id="Path_87565-2" data-name="Path 87565" d="M1999.884,338.008s-8.147,6.013-9.49,5.841c-2.632-.348-5.494-5.018-8.307-7.853a39.388,39.388,0,0,1-7.173-9.629c-1.969-3.482.47-6.178,1.112-7.174.005-.01.01-.016.016-.027a3.13,3.13,0,0,1,.326-.455l6.537-4.113,5.729,5.039,1.182,1.926,1.305,2.129,1.45,2.375.8,1.3,1.193,1.952Z" transform="translate(-1974.161 -277.19)" fill="#71433d"/>
        <path id="Path_87566-2" data-name="Path 87566" d="M2061.145,275.837l.465-2.034,4.192,3.449a5.831,5.831,0,0,1-.869.852C2064.688,278.228,2061.145,275.837,2061.145,275.837Z" transform="translate(-2018.205 -256.532)" fill="#fff"/>
        <path id="Path_87567-2" data-name="Path 87567" d="M2070.58,278.918l2.795-1.824v1.59s-1.613,1.634-1.68,1.612S2070.58,278.918,2070.58,278.918Z" transform="translate(-2022.983 -258.199)" fill="#fff"/>
        <path id="Path_87568-2" data-name="Path 87568" d="M2067.94,281.494a7.448,7.448,0,0,1,2.6.083,8.782,8.782,0,0,1-.682,2.3,2.518,2.518,0,0,1-1.271,0A5.05,5.05,0,0,1,2067.94,281.494Z" transform="translate(-2021.628 -260.383)" fill="#b0633f"/>
        <path id="Path_87569-2" data-name="Path 87569" d="M2070.53,310.4c0,1.268-1.873,4.478-2.477,4.462-.454-.01-1.134-1.509-1.749-2.991-.085-.2-.166-.412-.251-.615-.113-.272-.22-.545-.326-.792-.236-.561-.145-3.386.085-6.959q.031-.489.064-.995c.171-2.413.39-5.082.61-7.6.027-.273.053-.546.074-.818.235-2.632.465-5.028.626-6.671v-.005c.027-.251.049-.487.07-.7.1-.968.155-1.541.155-1.541l.642-1.193.631,1.193s.017.214.049.6c.011.166.027.358.043.588.091,1.2.246,3.21.428,5.58.017.2.032.406.048.615.139,1.894.3,3.985.455,6.045l.049.653c.171,2.316.337,4.563.47,6.43.022.257.038.5.054.738C2070.428,308.588,2070.53,310.107,2070.53,310.4Z" transform="translate(-2020.456 -261.688)" fill="#b0633f"/>
        <path id="Path_87570-2" data-name="Path 87570" d="M2072.544,442.91c-1.161,4.815.177,5.173-.717,10.078a13.171,13.171,0,0,1-3.306,6.344,63.017,63.017,0,0,0-1.171-11.715c-.6-3.728-1.311-7.7-1.787-11.469,0,0,3.547-10.88,4.954-10.3s-1.584,7.189,0,10.3S2073.7,438.1,2072.544,442.91Z" transform="translate(-2020.443 -333.509)" fill="#b87739"/>
        <path id="Path_87571-2" data-name="Path 87571" d="M2082.737,538.146c-.465.15-.952,1.562-1.15,1.937a19.55,19.55,0,0,0-1.22,2.4c-.444,1.219-.262,2.455-1.262,3.45a18.484,18.484,0,0,1-1.936,1.386,7.337,7.337,0,0,1,1.075,3.52c.054,1.3.075,2.461.128,3.5a11.4,11.4,0,0,0,.8,4.2,7.372,7.372,0,0,0,.385-.728,14.867,14.867,0,0,0,.942-5.387,12.129,12.129,0,0,1,.958-3.466,8.151,8.151,0,0,0,.358-2.83,8.918,8.918,0,0,1,1.069-3.734,7.529,7.529,0,0,0,.626-2.209C2083.572,539.719,2083.807,537.8,2082.737,538.146Z" transform="translate(-2026.32 -390.364)" fill="#b87739"/>
        <path id="Path_87572-2" data-name="Path 87572" d="M2219.041,402.1c0,14.812-.439,34.466-.514,37.862a.541.541,0,0,1-.524.53c-1.225.027-3.905.086-7.5.15-7.58.15-19.209.342-29.775.348-15.566.005-33.454-.476-37.263-.551a.531.531,0,0,1-.524-.519c-.08-3.44-.529-23.607-.535-37.873,0-8.677.016-41.757.048-67.108.027-16.326.054-29.443.086-30.78a.528.528,0,0,1,.507-.519c2.579-.069,8.271-.369,22.168-.535,4.926-.059,10.078-.1,15.112-.1,2.99,0,6.029.016,9.035.032,16.3.128,25.292.572,28.239.653a.531.531,0,0,1,.519.524C2218.2,307.588,2219.035,387.278,2219.041,402.1Z" transform="translate(-2059.353 -271.318)" fill="#f5e3dc"/>
        <path id="Path_87573-2" data-name="Path 87573" d="M2195.62,468.159c-8.5-.45-20.355-1.1-20.868-1.274-.564-.188-14.03-47.994-21.956-76.292q-1.148-2.5-2.285-5.012c-2.23-4.944-4.326-9.944-6.512-14.907-.417-.948-.852-1.888-1.281-2.832l-.266-.145c-.031,25.351-.048,58.431-.048,67.108.006,14.266.455,34.434.535,37.873a.531.531,0,0,0,.524.519c3.809.075,21.7.556,37.263.551,6.581,0,13.572-.079,19.742-.172C2198.769,471.849,2197.147,470.048,2195.62,468.159Z" transform="translate(-2059.352 -304.077)" fill="#ebccbe"/>
        <path id="Path_87574-2" data-name="Path 87574" d="M2191.819,440.623c-2.124.016-4.248.021-6.317.021-1.948,0-3.937-.005-5.933-.021-14.753-.075-23.864-.476-26.731-.545a.539.539,0,0,1-.492-.541c-.027-.92-.075-2.985-.139-5.761-.155-6.676-.358-17.455-.364-26.174,0-7.623.016-40.666.043-65.594.021-15.47.043-27.811.075-29a.534.534,0,0,1,.492-.535c2.594-.1,9.682-.508,32.663-.513s30.08.476,32.669.567a.53.53,0,0,1,.492.535c.085,3.087.866,81.963.871,94.6,0,4.884-.058,10.287-.134,15.272-.128,7.922-.3,14.764-.353,16.663a.535.535,0,0,1-.492.541c-1.471.037-4.558.139-9.228.246Z" transform="translate(-2064.131 -275.851)" fill="#faf1ee"/>
        <path id="Path_87575-2" data-name="Path 87575" d="M2199.716,477.686c-3.307-4.241-6.169-8.81-9.507-13.027-2.786-3.52-5.744-8.7-8.121-12.532-2.618-4.219-4.638-7.1-6.922-11.519-2.381-4.61-4.314-9.4-6.267-14.2-4.2-10.33-9.027-20.294-13.608-30.449-1.163-2.579-2.29-5.173-3.412-7.769-.022,23.619-.036,51.144-.036,58.015.005,8.72.208,19.5.364,26.174.064,2.776.112,4.841.139,5.761a.539.539,0,0,0,.492.541c2.867.07,11.977.47,26.731.545,2,.016,3.985.021,5.933.021,2.069,0,4.193-.005,6.317-.021q4.978-.034,9.059-.1C2200.484,478.651,2200.1,478.173,2199.716,477.686Z" transform="translate(-2064.131 -314.451)" fill="#f5e8e4"/>
        <path id="Path_87576-2" data-name="Path 87576" d="M2190.877,302.075c.18.64-.631.3-.878.176a2.753,2.753,0,0,1,.3.4.267.267,0,0,1-.083.316c-.26.2-.656.02-1.05-.169a.7.7,0,0,1,.025.11c.018.664-1.049.074-1.26-.054a1.1,1.1,0,0,1-.264-.167s.173.21.145.316c-.036.14-.055.352-.519.162a21.413,21.413,0,0,1-1.985-1.091,1.188,1.188,0,0,1,.546-.7,4.482,4.482,0,0,1,2.675-.4,5.53,5.53,0,0,1,1.317.349c.349.141.888.348,1.028.734Z" transform="translate(-2081.075 -270.265)" fill="#ffa880"/>
        <path id="Path_87577-2" data-name="Path 87577" d="M2023.048,368.764q-1.276.81-2.584,1.573c-.048-.048-.091-.1-.139-.155-.182-.2-.375-.423-.588-.658.952-.556,1.888-1.129,2.819-1.717.155.3.294.562.412.8C2022.994,368.662,2023.021,368.71,2023.048,368.764Z" transform="translate(-1997.238 -304.131)" fill="#342e38"/>
        <path id="Path_87578-2" data-name="Path 87578" d="M2023.329,369.19a.878.878,0,1,0-.878.878A.878.878,0,0,0,2023.329,369.19Z" transform="translate(-1998.168 -304.387)" fill="#fff"/>
        <path id="Path_87579-2" data-name="Path 87579" d="M2004.508,334.2c.717-.289,1.455-.583,2.2-.888a3.765,3.765,0,0,0-1.942-1.439,4.668,4.668,0,0,0-1.391-.027,2.078,2.078,0,0,1-.315-.021,8.892,8.892,0,0,1-1.926-.728c-.84-.3-2.461-.834-3.135.059a2.013,2.013,0,0,0,.256,2.3c.862,1.1,2.407.658,3.237,1.68.048.064.1.123.145.187.674.883,1.017,1.7,2.156,2.242.6.283,1.728.7,2.37.257a1.189,1.189,0,0,0,.342-.369l-1.193-1.952Z" transform="translate(-1986.097 -285.324)" fill="#5c2f29"/>
        <path id="Path_87580-2" data-name="Path 87580" d="M2029.89,325.831c-.535,1.937-2.386,1.284-3.633,3.985s-2.305,4.307-3.948,4.574a1.072,1.072,0,0,1-.4-.005c.043-1.353.075-3.851.118-6.847,0,0,6.858-3.311,7.858-5.248S2030.425,323.894,2029.89,325.831Z" transform="translate(-1998.341 -280.798)" fill="#5c2f29"/>
        <path id="Path_87581-2" data-name="Path 87581" d="M2214.156,343.5c-.075,0-.152.007-.232.007l-48.6,0a2.374,2.374,0,0,1-1.084-.156c-.315-.207-.361-4.7-.134-4.982a8.528,8.528,0,0,1,2.759-.3l44.005.01h2.867a1.583,1.583,0,0,1,1.338.433,1.565,1.565,0,0,1,.193.943,19.065,19.065,0,0,1-.019,3.107A1.024,1.024,0,0,1,2214.156,343.5Z" transform="translate(-2070.268 -289.076)" fill="#95a0bf"/>
        <path id="Path_87582-2" data-name="Path 87582" d="M2185.408,363.732c-.17.078-17.574.258-21.353.259a.384.384,0,0,1-.357-.146,1.889,1.889,0,0,1-.227-.719,11.228,11.228,0,0,1-.07-3.542c.231-1.2.894-1.042,1.418-1.041l11.516.015c2.542,0,5.076-.019,7.619-.078a2.483,2.483,0,0,1,1.7.378c.858.731.635,2.074.529,3.051C2186.05,363.141,2186.034,363.449,2185.408,363.732Z" transform="translate(-2069.927 -299.407)" fill="#f8888a"/>
        <path id="Path_87583-2" data-name="Path 87583" d="M2173.487,404.075a.741.741,0,0,1-.319.106,39.489,39.489,0,0,1-4.605,0c-1.151,0-2.3.012-3.453.007-.368,0-1.229.148-1.482-.128-.207-.226-.111-.744-.122-1.023-.026-.7-.044-1.4-.044-2.094,0-.568-.092-1.746.19-2.044.214-.227,1.4-.148,1.963-.147l2.422,0,4.844.005c.824,0,.881.548.882,1.234q0,1.6.007,3.2C2173.77,403.569,2173.746,403.906,2173.487,404.075Z" transform="translate(-2070.007 -319.792)" fill="#95a0bf"/>
        <path id="Path_87584-2" data-name="Path 87584" d="M2196.407,424.375l-.042,0q-.709.07-1.421.11c-1.132.062-2.276.067-3.406.067-2.7.066-5.4.169-8.1.125-6.256-.1-12.5-.092-18.76-.063-.69,0-.943-.2-1.116-.869a7.56,7.56,0,0,1-.105-3.541c.347-1.2,1.338-1.042,2.123-1.042l17.238.016c3.806,0,7.6-.019,11.406-.079.72-.011,3.174-.216,3.441.169a5.542,5.542,0,0,1,.268,1.989,10.029,10.029,0,0,1-.029,1.386,4.11,4.11,0,0,1-.229,1.325C2197.444,424.457,2196.844,424.338,2196.407,424.375Z" transform="translate(-2069.927 -330.073)" fill="#f8888a"/>
        <path id="Path_87585-2" data-name="Path 87585" d="M2207.314,464.832a4.8,4.8,0,0,1-.624.03q-20.912-.018-41.823,0a1.209,1.209,0,0,1-.759-.171,1.516,1.516,0,0,1-.44-.977c-.153-.91-.394-2.934.125-3.746.45-.706,1.718-.541,2.413-.541l38.252.01h2.492c1.049,0,1.365.582,1.361,1.6a18.613,18.613,0,0,1-.046,2.879A.975.975,0,0,1,2207.314,464.832Z" transform="translate(-2070.021 -350.515)" fill="#95a0bf"/>
        <path id="Path_87586-2" data-name="Path 87586" d="M2211.746,485.168c-.374-.015-15.536.007-22.019-.123-2.056-.042-9.191.1-14.679.044-2.933-.027-10.386-.048-11.084-.268-.4-.124-.366-1.515-.393-1.841a6.434,6.434,0,0,1,.259-2.839c.257-.391,1.835-.206,2.964-.205l24.781.015c5.471,0,19.655-.143,20.521.107.43.124.428,1.519.334,3.059C2212.355,484.379,2212.549,485.2,2211.746,485.168Z" transform="translate(-2070.051 -360.886)" fill="#f8888a"/>
        <path id="Path_87587-2" data-name="Path 87587" d="M2187.422,525.535a.79.79,0,0,1-.11.007l-23.077,0a.442.442,0,0,1-.414-.171,2.24,2.24,0,0,1-.241-.977,12.8,12.8,0,0,1,.068-3.746c.247-.706.939-.541,1.318-.541l20.895.01h1.361a.581.581,0,0,1,.635.433,3.067,3.067,0,0,1,.092.942c0,.973.074,2.155-.009,3.107C2187.88,525.289,2187.693,525.5,2187.422,525.535Z" transform="translate(-2070.022 -381.243)" fill="#95a0bf"/>
        <path id="Path_87588-2" data-name="Path 87588" d="M2175.518,545.951c-.164.134-.836.035-1.031.039-.821.014-1.643.02-2.464.026q-3.056.022-6.112.025l-1.31,0c-.278,0-.961.116-1.1-.163a2.195,2.195,0,0,1-.112-.7c-.065-.684-.1-1.372-.1-2.059a7.591,7.591,0,0,1,.159-2.058.6.6,0,0,1,.684-.466c2.115.005,9.145,0,10.546-.063a.924.924,0,0,1,.937.378,5.771,5.771,0,0,1,.292,3.051C2175.832,545.194,2175.863,545.668,2175.518,545.951Z" transform="translate(-2069.925 -391.591)" fill="#f8888a"/>
        <path id="Path_87589-2" data-name="Path 87589" d="M2070.754,328.688a35.6,35.6,0,0,0-3.975,5.445c-.086-.2-.166-.412-.251-.615a35.744,35.744,0,0,1,4.172-5.568C2070.722,328.207,2070.738,328.453,2070.754,328.688Z" transform="translate(-2020.932 -283.95)" fill="#71433d"/>
        <path id="Path_87590-2" data-name="Path 87590" d="M2069.983,314.255a22,22,0,0,0-3.943,4.247q.032-.489.064-.995a22.814,22.814,0,0,1,3.83-3.905C2069.951,313.821,2069.967,314.035,2069.983,314.255Z" transform="translate(-2020.685 -276.685)" fill="#71433d"/>
        <path id="Path_87591-2" data-name="Path 87591" d="M2070.171,300.726a20.706,20.706,0,0,0-2.765,2.354c.027-.273.053-.546.074-.818a21.761,21.761,0,0,1,2.643-2.15C2070.14,300.309,2070.155,300.517,2070.171,300.726Z" transform="translate(-2021.376 -269.853)" fill="#71433d"/>
        <path id="Path_87592-2" data-name="Path 87592" d="M2070.414,288.2c-.541.332-1.076.679-1.589,1.054.026-.251.048-.487.07-.7.481-.332.973-.647,1.476-.941C2070.382,287.782,2070.4,287.974,2070.414,288.2Z" transform="translate(-2022.094 -263.526)" fill="#71433d"/>
      </g>
    </g>
  </g>
</svg>
