<svg xmlns="http://www.w3.org/2000/svg" xmlns:xlink="http://www.w3.org/1999/xlink" width="64" height="64" viewBox="0 0 64 64">
  <defs>
    <clipPath id="clip-path">
      <rect id="Rectangle_4327" data-name="Rectangle 4327" width="64" height="64" transform="translate(474 416)" fill="#fff" stroke="#707070" stroke-width="1" opacity="0.43"/>
    </clipPath>
  </defs>
  <g id="Mask_Group_153" data-name="Mask Group 153" transform="translate(-474 -416)" clip-path="url(#clip-path)">
    <g id="Group_12504" data-name="Group 12504" transform="translate(466.122 424.513)">
      <g id="Group_12411" data-name="Group 12411" transform="translate(36.046 15.413)">
        <path id="Path_88979" data-name="Path 88979" d="M544.738,353.355a4.364,4.364,0,0,0-2.57-1.555,7.183,7.183,0,0,0-5.846,1.555,5.891,5.891,0,0,0-2.006,5.677,6.984,6.984,0,0,0,1.291,2.943c.6.751,2.235,1.9,2.846,2.977.079.14.811-.2.5-.633-.017-.025-.042-.043-.06-.066a10.594,10.594,0,0,0,1.514-1.344c.88-.784,1.7-1.6,2.5-2.462a11.556,11.556,0,0,0,1.9-2.05,11.3,11.3,0,0,0,.887-2.083c0,.028,0,.055,0,.082-.008.242.368.242.376,0A4.471,4.471,0,0,0,544.738,353.355Z" transform="translate(-534.208 -351.705)" fill="#f2e1cb"/>
      </g>
      <g id="Group_12412" data-name="Group 12412" transform="translate(34.668 13.99)">
        <path id="Path_88980" data-name="Path 88980" d="M532.283,348.432c.424-.874.779-2.138-.233-2.648a7.3,7.3,0,0,0-2.221-.569,1.681,1.681,0,0,0-1.62.562,3.609,3.609,0,0,0-.3,1.9,2.37,2.37,0,0,0,.576,1.817,1.719,1.719,0,0,0,1.991.35c.475-.083.826-.486,1.3-.805a1.477,1.477,0,0,0,.209-.172.17.17,0,0,0,.118-.089c.033-.059.067-.122.1-.187A1.278,1.278,0,0,0,532.283,348.432Z" transform="translate(-527.905 -345.199)" fill="#f2e1cb"/>
      </g>
      <g id="Group_12425" data-name="Group 12425" transform="translate(37.659 0.6)">
        <g id="Group_12413" data-name="Group 12413">
          <path id="Path_88981" data-name="Path 88981" d="M559.377,288.2a31.277,31.277,0,0,0-4.3,2.422,10.3,10.3,0,0,1-2.716,1.275c-.124.041-.248.079-.376.117a17.642,17.642,0,0,1-5.732.688,6.694,6.694,0,0,1-4.668-1.854,11.477,11.477,0,0,0,1.832-.192q.192-.034.4-.079c.218-.041.448-.1.681-.162,1.591-.432,3.863-2.388,5.262-4.269a5.788,5.788,0,0,1,3.543-2.17l4.784,3.325.316.218Z" transform="translate(-541.583 -283.976)" fill="#73bf98"/>
        </g>
        <g id="Group_12414" data-name="Group 12414" transform="translate(10.688 0.798)">
          <path id="Path_88982" data-name="Path 88982" d="M590.451,287.8v1.066a.188.188,0,0,0,.376,0V287.8A.188.188,0,0,0,590.451,287.8Z" transform="translate(-590.451 -287.623)" fill="#ffd769"/>
        </g>
        <g id="Group_12415" data-name="Group 12415" transform="translate(10.4 7.233)">
          <path id="Path_88983" data-name="Path 88983" d="M589.509,317.226v.508c-.124.041-.248.079-.376.117v-.624A.188.188,0,0,1,589.509,317.226Z" transform="translate(-589.133 -317.046)" fill="#ffd769"/>
        </g>
        <g id="Group_12416" data-name="Group 12416" transform="translate(13.847 4.615)">
          <path id="Path_88984" data-name="Path 88984" d="M604.894,305.256v1.066a.188.188,0,0,0,.376,0v-1.066A.188.188,0,0,0,604.894,305.256Z" transform="translate(-604.894 -305.075)" fill="#ffd769"/>
        </g>
        <g id="Group_12417" data-name="Group 12417" transform="translate(5.259 5.066)">
          <path id="Path_88985" data-name="Path 88985" d="M565.63,307.322v1.066a.188.188,0,0,0,.376,0v-1.066A.188.188,0,0,0,565.63,307.322Z" transform="translate(-565.63 -307.141)" fill="#ffd769"/>
        </g>
        <g id="Group_12418" data-name="Group 12418" transform="translate(10.59 4.263)">
          <path id="Path_88986" data-name="Path 88986" d="M590.031,303.756l.57.9a.188.188,0,0,0,.318-.2l-.57-.9A.188.188,0,0,0,590.031,303.756Z" transform="translate(-590.001 -303.469)" fill="#ffd769"/>
        </g>
        <g id="Group_12419" data-name="Group 12419" transform="translate(1.832 6.601)">
          <path id="Path_88987" data-name="Path 88987" d="M550.537,315.15l-.572-.9a.028.028,0,0,1-.007-.015q.192-.034.395-.079l.5.793A.187.187,0,0,1,550.537,315.15Z" transform="translate(-549.958 -314.157)" fill="#ffd769"/>
        </g>
        <g id="Group_12420" data-name="Group 12420" transform="translate(8.107 5.329)">
          <path id="Path_88988" data-name="Path 88988" d="M578.928,309.219l.927-.525a.188.188,0,0,0-.185-.327l-.928.525A.188.188,0,0,0,578.928,309.219Z" transform="translate(-578.65 -308.341)" fill="#ffd769"/>
        </g>
        <g id="Group_12421" data-name="Group 12421" transform="translate(12.419 2.729)">
          <path id="Path_88989" data-name="Path 88989" d="M599.619,296.5l-1.065-.048a.188.188,0,0,0-.017.376l1.065.048A.188.188,0,0,0,599.619,296.5Z" transform="translate(-598.365 -296.453)" fill="#ffd769"/>
        </g>
        <g id="Group_12422" data-name="Group 12422" transform="translate(5.83 7.735)">
          <path id="Path_88990" data-name="Path 88990" d="M569.494,319.388l-1.064-.048a.188.188,0,0,0-.017.376l1.065.048A.188.188,0,0,0,569.494,319.388Z" transform="translate(-568.239 -319.34)" fill="#ffd769"/>
        </g>
        <g id="Group_12423" data-name="Group 12423" transform="translate(7.611 2.596)">
          <path id="Path_88991" data-name="Path 88991" d="M576.7,296.906l.769-.738a.188.188,0,0,0-.26-.271l-.769.738A.188.188,0,0,0,576.7,296.906Z" transform="translate(-576.384 -295.844)" fill="#ffd769"/>
        </g>
        <g id="Group_12424" data-name="Group 12424" transform="translate(16.015 3.325)">
          <path id="Path_88992" data-name="Path 88992" d="M615.6,299.4l-.481.459c-.173.169-.433-.1-.26-.271l.425-.406Z" transform="translate(-614.804 -299.178)" fill="#ffd769"/>
        </g>
      </g>
      <g id="Group_12426" data-name="Group 12426" transform="translate(14.131 6.658)">
        <path id="Path_88993" data-name="Path 88993" d="M437.156,311.674l.222.379c.132.226.323.547.555.944,1.722,2.936,5.846,9.976,7.438,12.846,2.558,4.614-1.382,8.852-4.64,3.62-1.4-2.247-4.641-10.876-6.049-14.707-.149-.4-.276-.745-.377-1.028l-.3-.82Z" transform="translate(-434.008 -311.674)" fill="#ffa38a"/>
      </g>
      <g id="Group_12427" data-name="Group 12427" transform="translate(58.375 9.609)">
        <path id="Path_88994" data-name="Path 88994" d="M636.3,326.712l.138.417c.082.249.2.6.341,1.041,1.064,3.233,3.62,10.982,4.721,14.074,1.771,4.969,7.555,4.815,5.784-1.088-.759-2.537-5.092-10.673-7.035-14.261-.2-.375-.377-.7-.522-.963l-.419-.766Z" transform="translate(-636.302 -325.166)" fill="#ffa38a"/>
      </g>
      <g id="Group_12428" data-name="Group 12428" transform="translate(38.337 17.064)">
        <path id="Path_88995" data-name="Path 88995" d="M554.7,362.7l-.1-.237q-.124-.288-.271-.564c-.9-1.708-2.279-2.979-4.419-2.569-2.528.481-4.017,2.516-5.206,4.615a.15.15,0,0,0,.019.192,49.964,49.964,0,0,0,1.3,4.841,10.617,10.617,0,0,0,2.321,3.254c2.351.391,6.341.673,7.511-1.821C556.788,368.422,555.475,364.567,554.7,362.7Z" transform="translate(-544.681 -359.254)" fill="#ffa38a"/>
      </g>
      <g id="Group_12429" data-name="Group 12429" transform="translate(39.939 27.052)">
        <path id="Path_88996" data-name="Path 88996" d="M558.824,409.894l-.037-.5-.105-1.365-.068-.839-6.405-2.264s.038,5.014-.147,7.064c-.068.756-.218,1.512.606,2a4.6,4.6,0,0,0,2.941.068c1.053-.18,2.1-.526,3.163-.643a.238.238,0,0,0,.162-.019s.162-.056.162-.056Z" transform="translate(-552.005 -404.922)" fill="#ffa38a"/>
      </g>
      <g id="Group_12430" data-name="Group 12430" transform="translate(43.394 22.74)">
        <path id="Path_88997" data-name="Path 88997" d="M568.557,385.815a1.055,1.055,0,0,0-.177-.434c-.193-.272-.492-.225-.565.1a.838.838,0,0,0,.126.562.328.328,0,0,0,.5.133A.372.372,0,0,0,568.557,385.815Z" transform="translate(-567.803 -385.204)" fill="#2c2f33"/>
      </g>
      <g id="Group_12431" data-name="Group 12431" transform="translate(47.225 21.564)">
        <path id="Path_88998" data-name="Path 88998" d="M586.076,380.441a1.057,1.057,0,0,0-.177-.434c-.193-.272-.492-.225-.565.1a.838.838,0,0,0,.126.562.328.328,0,0,0,.5.133A.372.372,0,0,0,586.076,380.441Z" transform="translate(-585.322 -379.83)" fill="#2c2f33"/>
      </g>
      <g id="Group_12432" data-name="Group 12432" transform="translate(46.603 23.366)">
        <path id="Path_88999" data-name="Path 88999" d="M583.212,389.695a.131.131,0,0,1-.095-.222,1.325,1.325,0,0,0,.342-.5,8.389,8.389,0,0,0-.921-.664.132.132,0,0,1,.143-.221c1.015.659,1.032.8,1.039.853.028.227-.28.575-.414.714A.131.131,0,0,1,583.212,389.695Z" transform="translate(-582.478 -388.067)" fill="#f27957"/>
      </g>
      <g id="Group_12433" data-name="Group 12433" transform="translate(45.827 25.523)">
        <path id="Path_89000" data-name="Path 89000" d="M581.7,397.954c-.081-.114-.573.2-1.129.364a10.406,10.406,0,0,1-1.185.245c-.1.018-.465.082-.458.217s.29.227.385.262a2.093,2.093,0,0,0,1.757-.128,1.436,1.436,0,0,0,.558-.569C581.726,398.155,581.75,398.02,581.7,397.954Z" transform="translate(-578.93 -397.929)" fill="#fff"/>
      </g>
      <g id="Group_12434" data-name="Group 12434" transform="translate(43.325 29.546)">
        <path id="Path_89001" data-name="Path 89001" d="M570.884,418.3a2.371,2.371,0,0,1-1.963-.433,4.36,4.36,0,0,0-.879-.555c-.25-.157-.66-.527-.526-.872.1-.248.481-.027.634.035a6.537,6.537,0,0,0,1.117.358,5.437,5.437,0,0,0,1.512.1Z" transform="translate(-567.49 -416.322)" fill="#f27957"/>
      </g>
      <g id="Group_12435" data-name="Group 12435" transform="translate(42.01 21.074)">
        <path id="Path_89002" data-name="Path 89002" d="M563.231,377.593a2.211,2.211,0,0,0-1.162.447,1.311,1.311,0,0,0-.591.806.58.58,0,0,0,0,.065c0,.1.121.078.184.061a4.426,4.426,0,0,0,.943-.485,5.956,5.956,0,0,1,.653-.255c.195-.079.437-.194.41-.443-.021-.2-.22-.206-.375-.2Z" transform="translate(-561.476 -377.589)" fill="#f2e1cb"/>
      </g>
      <g id="Group_12436" data-name="Group 12436" transform="translate(46.257 19.704)">
        <path id="Path_89003" data-name="Path 89003" d="M582.894,371.9c-.229.056-.47.075-.7.12a5.282,5.282,0,0,0-.666.218c-.2.064-.459.128-.6-.079-.109-.166.038-.3.162-.4.015-.011.034-.023.049-.034a2.245,2.245,0,0,1,1.181-.4,2.688,2.688,0,0,1,.3,0Q582.77,371.608,582.894,371.9Z" transform="translate(-580.893 -371.325)" fill="#f2e1cb"/>
      </g>
      <g id="Group_12437" data-name="Group 12437" transform="translate(21.217 21.799)">
        <path id="Path_89004" data-name="Path 89004" d="M474.133,384.374l-3.209-3.469s-4.444.4-4.518,2.37c-.054,1.436,3.641,6.619,3.641,6.619l3.057-1.271Z" transform="translate(-466.406 -380.905)" fill="#ffa38a"/>
      </g>
      <g id="Group_12438" data-name="Group 12438" transform="translate(60.48 25.528)">
        <path id="Path_89005" data-name="Path 89005" d="M646.625,399.9l4.3-1.954s4.483,1.936,3.785,3.785c-.507,1.344-6.461,4.842-6.461,4.842l-2.326-2.357Z" transform="translate(-645.926 -397.951)" fill="#ffa38a"/>
      </g>
      <g id="Group_12439" data-name="Group 12439" transform="translate(9.752)">
        <path id="Path_89006" data-name="Path 89006" d="M419.116,283.4c-.024.256.215.61.28.788.083.226.278.668.2.9-.018.051-.479-.432-.5-.46-.214-.246-.421-.5-.627-.75-.4-.486-.783-.98-1.186-1.461-.161-.192-1.139-1.4-1.447-1.143-.217.18.329,1.1.494,1.347a14.188,14.188,0,0,1,1.095,1.916s-1.095-1.258-1.633-1.856c-.311-.346-.932-1.047-1.179-.791-.218.226.43,1.1.64,1.369.457.587,1.4,1.884,1.4,1.884l-1.214-1.151c-.234-.222-.47-.442-.723-.641-.167-.132-.516-.464-.685-.176-.1.174.036.367.127.515a4.612,4.612,0,0,0,.343.471,10.528,10.528,0,0,0,.73.8c.063.063.127.126.192.187a4,4,0,0,0-1.013-.617.218.218,0,0,0-.223.32c.113.23,3.162,3.309,3.521,3.689s.575.662.9.751a.154.154,0,0,0,.07.01,1.16,1.16,0,0,0,.634-.088c.6-.229,2.234-1.185,2.234-1.185a9.253,9.253,0,0,0-.447-2.421c-.238-.527-.564-1-.819-1.518-.137-.276-.565-1.163-1.008-.914A.274.274,0,0,0,419.116,283.4Z" transform="translate(-413.987 -281.234)" fill="#ffa38a"/>
      </g>
      <g id="Group_12440" data-name="Group 12440" transform="translate(14.871 4.092)">
        <path id="Path_89007" data-name="Path 89007" d="M437.715,302.631a.132.132,0,0,1-.121-.079,3.143,3.143,0,0,1-.2-1.143,4.885,4.885,0,0,1,.237-1.376.132.132,0,0,1,.249.084,4.711,4.711,0,0,0-.223,1.291,2.938,2.938,0,0,0,.179,1.04.132.132,0,0,1-.069.173A.127.127,0,0,1,437.715,302.631Z" transform="translate(-437.393 -299.943)" fill="#f27957"/>
      </g>
      <g id="Group_12441" data-name="Group 12441" transform="translate(57.985 6.381)">
        <path id="Path_89008" data-name="Path 89008" d="M635.043,315.166a13.642,13.642,0,0,1-.475-2.529,4.65,4.65,0,0,1,.044-1.752c.133-.3.632-.158.992-.163s.7-.465,1.118-.263a14.716,14.716,0,0,0,1.488.267c.429.152.7.236.864.813.309,1.09-.714,3.251-.714,3.251l-1.3.591Z" transform="translate(-634.518 -310.407)" fill="#ffa38a"/>
      </g>
      <g id="Group_12442" data-name="Group 12442" transform="translate(48.988 0.274)">
        <path id="Path_89009" data-name="Path 89009" d="M608.066,292.937a.187.187,0,0,1-.107-.034l-14.5-10.075a.188.188,0,1,1,.215-.309l14.5,10.075a.188.188,0,0,1-.108.342Z" transform="translate(-593.38 -282.487)" fill="#2c2f33"/>
      </g>
      <g id="Group_12443" data-name="Group 12443" transform="translate(57.7 6.728)">
        <path id="Path_89010" data-name="Path 89010" d="M633.713,311.994s-.249.012-.37.548-.248,1.608.066,1.937c.436.459.953-.048.953-.048l1.046.3a1.918,1.918,0,0,0,1.11-.35,6.39,6.39,0,0,0,.993-1.821,14.765,14.765,0,0,0-1.6-.523C635.853,312.086,633.713,311.994,633.713,311.994Z" transform="translate(-633.213 -311.994)" fill="#ffa38a"/>
      </g>
      <g id="Group_12444" data-name="Group 12444" transform="translate(57.304 5.778)">
        <path id="Path_89011" data-name="Path 89011" d="M632.607,313.188a7.167,7.167,0,0,1-1.036-1.534,5.717,5.717,0,0,1,.011-2.8c.207-.87.176-1.047.477-1.187s.558.6.592,1.117-.019,1.841-.019,1.841Z" transform="translate(-631.401 -307.65)" fill="#ffa38a"/>
      </g>
      <g id="Group_12445" data-name="Group 12445" transform="translate(58.08 6.908)">
        <path id="Path_89012" data-name="Path 89012" d="M637.34,315.787a3.025,3.025,0,0,1-.97-.2,3.732,3.732,0,0,0-.707-.17,1.085,1.085,0,0,1-.6-.217c-.268-.239.008-1.53.2-2.278a.132.132,0,1,1,.255.065,5.79,5.79,0,0,0-.273,2.02.889.889,0,0,0,.466.151,3.991,3.991,0,0,1,.753.182c.707.252,1.1.205,1.18.117.109-.119.635-1.04.941-1.593a.132.132,0,1,1,.23.128c-.083.149-.812,1.463-.977,1.643A.654.654,0,0,1,637.34,315.787Z" transform="translate(-634.95 -312.819)" fill="#f27957"/>
      </g>
      <g id="Group_12446" data-name="Group 12446" transform="translate(60.075 7.117)">
        <path id="Path_89013" data-name="Path 89013" d="M644.2,316.115a.129.129,0,0,1-.047-.009.132.132,0,0,1-.076-.17l.8-2.079a.132.132,0,0,1,.246.095l-.8,2.079A.132.132,0,0,1,644.2,316.115Z" transform="translate(-644.073 -313.773)" fill="#f27957"/>
      </g>
      <g id="Group_12447" data-name="Group 12447" transform="translate(59.275 7.115)">
        <path id="Path_89014" data-name="Path 89014" d="M640.548,315.837a.128.128,0,0,1-.042-.007.131.131,0,0,1-.082-.167l.612-1.807a.132.132,0,0,1,.249.084l-.612,1.808A.132.132,0,0,1,640.548,315.837Z" transform="translate(-640.416 -313.766)" fill="#f27957"/>
      </g>
      <g id="Group_12448" data-name="Group 12448" transform="translate(58.606 6.877)">
        <path id="Path_89015" data-name="Path 89015" d="M637.488,314.795a.125.125,0,0,1-.036-.005.131.131,0,0,1-.091-.161c.014-.054.325-1.354.444-1.851a.135.135,0,0,1,.158-.1.132.132,0,0,1,.1.159c-.1.428-.436,1.827-.446,1.861A.132.132,0,0,1,637.488,314.795Z" transform="translate(-637.356 -312.677)" fill="#f27957"/>
      </g>
      <g id="Group_12456" data-name="Group 12456" transform="translate(56.195 129.015)">
        <g id="Group_12449" data-name="Group 12449">
          <path id="Path_89016" data-name="Path 89016" d="M629.895,871.665l-.084,3.791-1.686,1.522-1.306-1.855-.487-4.008Z" transform="translate(-626.331 -871.114)" fill="#ffa38a"/>
        </g>
        <g id="Group_12450" data-name="Group 12450" transform="translate(0.487 3.869)">
          <path id="Path_89017" data-name="Path 89017" d="M628.559,888.943s.065,3.927.23,4.374c.075.2,1.867-.347,3.338.4.62.314,1.06,1.06,1.622,1.144a11.021,11.021,0,0,0,2.781-.068c.022-.065.416-.59-1.418-1.851a48.9,48.9,0,0,1-3.562-3.665s-1.714-.473-1.7-.473S628.559,888.943,628.559,888.943Z" transform="translate(-628.559 -888.804)" fill="#ffa38a"/>
        </g>
        <g id="Group_12451" data-name="Group 12451" transform="translate(0.717 8.382)">
          <path id="Path_89018" data-name="Path 89018" d="M629.61,909.44s2.26.311,2.279.312,0,1.53,0,1.53H629.61Z" transform="translate(-629.61 -909.44)" fill="#2c2f33"/>
        </g>
        <g id="Group_12452" data-name="Group 12452" transform="translate(0.659 8.06)">
          <path id="Path_89019" data-name="Path 89019" d="M630.979,908.5a8.9,8.9,0,0,1,1.511.348c.39.178,1.34,1.2,1.842,1.277a5.778,5.778,0,0,0,.873.035c.394,0,.787-.005,1.181-.014a2.794,2.794,0,0,0,.786-.048c.072-.072.061-.354-.067-.365a18.317,18.317,0,0,1-2.773-.125,8.941,8.941,0,0,0-1.661-1.207c-.439-.133-3.326-.44-3.326-.44l.058,2.023,1.685-.924Z" transform="translate(-629.345 -907.965)" fill="#2c2f33"/>
        </g>
        <g id="Group_12453" data-name="Group 12453" transform="translate(0.516 5.749)">
          <path id="Path_89020" data-name="Path 89020" d="M631.18,900.1a6.33,6.33,0,0,0-.889-1.662,3.811,3.811,0,0,0-1.585-1.035s-.033,1.235,0,1.764a6.545,6.545,0,0,0,.21,1.152Z" transform="translate(-628.691 -897.4)" fill="#2c2f33"/>
        </g>
        <g id="Group_12454" data-name="Group 12454" transform="translate(0.531 4.342)">
          <path id="Path_89021" data-name="Path 89021" d="M628.759,892.373l2.948-1.407.458.507-2.785,1.407Z" transform="translate(-628.759 -890.966)" fill="#2c2f33"/>
        </g>
        <g id="Group_12455" data-name="Group 12455" transform="translate(5.877 8.175)">
          <path id="Path_89022" data-name="Path 89022" d="M653.2,910.24l1.4-1.747.455.358L654,910.24Z" transform="translate(-653.202 -908.493)" fill="#2c2f33"/>
        </g>
      </g>
      <g id="Group_12464" data-name="Group 12464" transform="translate(0 89.22)">
        <g id="Group_12457" data-name="Group 12457" transform="translate(6.607 2.216)">
          <path id="Path_89023" data-name="Path 89023" d="M403.806,703.474l-3.457-1.558-.743-2.146,2.218-.478,3.88,1.117Z" transform="translate(-399.606 -699.292)" fill="#ffa38a"/>
        </g>
        <g id="Group_12458" data-name="Group 12458" transform="translate(0.322 0.719)">
          <path id="Path_89024" data-name="Path 89024" d="M379.374,693.946s-3.641-1.473-4.117-1.5c-.216-.01-.41,1.854-1.671,2.917-.532.448-1.389.562-1.686,1.047A11.021,11.021,0,0,0,370.876,699c.051.046.381.613,2.258-.582a48.888,48.888,0,0,1,4.764-1.848s1.1-1.393,1.1-1.378S379.374,693.946,379.374,693.946Z" transform="translate(-370.871 -692.45)" fill="#ffa38a"/>
        </g>
        <g id="Group_12459" data-name="Group 12459" transform="translate(2.123)">
          <path id="Path_89025" data-name="Path 89025" d="M381.69,689.881s-1.169,1.959-1.177,1.977-1.408-.6-1.408-.6l.89-2.1Z" transform="translate(-379.105 -689.162)" fill="#2c2f33"/>
        </g>
        <g id="Group_12460" data-name="Group 12460" transform="translate(0 0.055)">
          <path id="Path_89026" data-name="Path 89026" d="M373.293,691.445a8.932,8.932,0,0,1-.91,1.255c-.316.289-1.627.765-1.895,1.2a5.811,5.811,0,0,0-.373.79c-.155.362-.3.727-.448,1.092a2.8,2.8,0,0,0-.263.743c.038.1.3.194.362.081a18.373,18.373,0,0,1,1.2-2.5,8.932,8.932,0,0,0,1.76-1.058c.294-.352,1.7-2.889,1.7-2.889l-1.885-.737.192,1.912Z" transform="translate(-369.399 -689.414)" fill="#2c2f33"/>
        </g>
        <g id="Group_12461" data-name="Group 12461" transform="translate(3.756 0.631)">
          <path id="Path_89027" data-name="Path 89027" d="M386.571,694.215a6.324,6.324,0,0,0,1.878-.169,3.81,3.81,0,0,0,1.571-1.055s-1.124-.513-1.624-.689a6.557,6.557,0,0,0-1.142-.257Z" transform="translate(-386.571 -692.045)" fill="#2c2f33"/>
        </g>
        <g id="Group_12462" data-name="Group 12462" transform="translate(6.497 1.576)">
          <path id="Path_89028" data-name="Path 89028" d="M399.812,696.368l.144,3.264-.645.223-.207-3.113Z" transform="translate(-399.103 -696.368)" fill="#2c2f33"/>
        </g>
        <g id="Group_12463" data-name="Group 12463" transform="translate(0.963 4.868)">
          <path id="Path_89029" data-name="Path 89029" d="M374.116,711.42l1.061,1.973-.508.279-.865-1.516Z" transform="translate(-373.804 -711.42)" fill="#2c2f33"/>
        </g>
      </g>
      <g id="Group_12465" data-name="Group 12465" transform="translate(37.929 16.549)">
        <path id="Path_89030" data-name="Path 89030" d="M551.481,357.749c-.076-.024-.151-.041-.227-.062a.143.143,0,0,0-.134-.157c-.145-.02-.469-.339-.6-.407a2.036,2.036,0,0,0-.6-.2,5.32,5.32,0,0,0-1.987.252,7.92,7.92,0,0,0-4.152,2.254,5.521,5.521,0,0,0-.877,4.192,9.331,9.331,0,0,0,.7,2.277c.329.756,1.439,2.878,1.439,2.878a13,13,0,0,0,.274-2.029,2.939,2.939,0,0,1-1.21-2.288,1.548,1.548,0,0,1,.552-1.176c.155-.112.485-.1.552-.223a1.281,1.281,0,0,0,0-.526c-.012-.176-.033-.351-.048-.526a4.211,4.211,0,0,1,2.407-3.638,5.4,5.4,0,0,1,3.822-.26C551.613,358.185,551.712,357.823,551.481,357.749Z" transform="translate(-542.815 -356.9)" fill="#f2e1cb"/>
      </g>
      <g id="Group_12466" data-name="Group 12466" transform="translate(40.091 25.666)">
        <path id="Path_89031" data-name="Path 89031" d="M553.421,398.656a.471.471,0,1,0-.406.848A.471.471,0,0,0,553.421,398.656Z" transform="translate(-552.703 -398.585)" fill="#fff"/>
      </g>
      <g id="Group_12467" data-name="Group 12467" transform="translate(39.645 26.558)">
        <path id="Path_89032" data-name="Path 89032" d="M552.385,402.814c-.154-.143-1.471-.252-1.6,0a11.253,11.253,0,0,0,0,3.276,1.8,1.8,0,0,0,1.6,0A11.109,11.109,0,0,0,552.385,402.814Zm-.455,2.716c-.068.154-.617.173-.692,0a11.04,11.04,0,0,1,0-2.144c.056-.162.628-.09.692,0A11.006,11.006,0,0,1,551.93,405.53Z" transform="translate(-550.662 -402.664)" fill="#e04c4c"/>
      </g>
      <g id="Group_12468" data-name="Group 12468" transform="translate(31.399 31.552)">
        <path id="Path_89033" data-name="Path 89033" d="M537.629,449.417a3.318,3.318,0,0,1,.072.989,1.171,1.171,0,0,1-1.369,1.083l-15.523.933h0l0,0-.978.056-2.234.135s-1.738-.937-1.14-3.81a9.995,9.995,0,0,0-.64-3.453c-.158-.538-.331-1.106-.519-1.7-.222-.7-.459-1.437-.7-2.166-.918-2.855-1.79-5.683-1.61-6.819.2-1.294,1.55-3.46,2.738-5.164.241-.342.47-.67.688-.963.685-.94,1.2-1.583,1.2-1.583s1.858-.162,4.047-.323c.91-.071,1.881-.139,2.8-.2.162-.007.32-.019.478-.026.594-.034,1.155-.064,1.655-.083s1.113-.049,1.756-.083c1.275-.072,2.731-.169,4.051-.271.369-.026.726-.056,1.068-.083v0a17.136,17.136,0,0,0,3.031-.387c.248-.237.688,3.968,1.377,8.85a40.5,40.5,0,0,1,.429,5.8,16.406,16.406,0,0,1-.929,6.082,4.186,4.186,0,0,0,.056,2.133C537.5,448.732,537.573,449.09,537.629,449.417Z" transform="translate(-512.962 -425.497)" fill="#6b4b3a"/>
      </g>
      <g id="Group_12469" data-name="Group 12469" transform="translate(46.78 26.56)">
        <path id="Path_89034" data-name="Path 89034" d="M603.267,412.092s-4.5,1.3-4.812,3.241-2,2.129-3.2,4.261c-.049.087-.094.169-.139.248-.327.583-.579,1.023-.809,1.365v0a3.32,3.32,0,0,1-1.068,1.106,5.881,5.881,0,0,1-.677.35,10.12,10.12,0,0,1-2.885.688l-3.754-8.771-.6-1.4v0l-2.042-4.766v0s1.993-.515,4.194-1.136l1.189-.338c.609-.177,1.207-.357,1.764-.53,1.147-.357,2.806-1,4.408-1.655q.48-.2.948-.395c.651-.271,1.271-.538,1.817-.767.207-.09.4-.177.587-.256.918-.4,1.52-.666,1.52-.666Z" transform="translate(-583.286 -402.669)" fill="#6b4b3a"/>
      </g>
      <g id="Group_12470" data-name="Group 12470" transform="translate(21.91 23.261)">
        <path id="Path_89035" data-name="Path 89035" d="M489.642,403.675l-6.981,9.467a16.17,16.17,0,0,1-1.963-1.267,8.727,8.727,0,0,1-1.362-1.241c-1.185-1.38-.5-3.009-1.753-4.325-.357-.376-.816-.9-1.305-1.512-.105-.128-.207-.256-.309-.387-1.162-1.486-2.972-2.543-3.51-3.942a13.049,13.049,0,0,0-1.482-2.652c-.353-.5-.692-.94-.944-1.256-.278-.338-.459-.542-.459-.542l5.188-8.428q1.247,1.241,2.58,2.388a18.2,18.2,0,0,0,2.02,1.58.6.6,0,0,0,.068.041c.474.3.929.489,1.35.779a2.931,2.931,0,0,1,.591.527c.587.688,3.005,1.4,3.7,1.978a31.843,31.843,0,0,0,2.685,2.14l1.08,3.818.519,1.824Z" transform="translate(-469.575 -387.588)" fill="#6b4b3a"/>
      </g>
      <g id="Group_12471" data-name="Group 12471" transform="translate(28.305 33.914)">
        <path id="Path_89036" data-name="Path 89036" d="M505.359,436.982a.62.62,0,0,0-.045-.173.823.823,0,0,0-1.335-.3c-.388.271-.673.666-1.061.948a10.516,10.516,0,0,0-1.256.929,4.535,4.535,0,0,0-.978,2.039c-.151.5-.237,1.064-.715,1.365-.414.26-.782.421-1.155.669.1.132.2.26.309.387,1-.82,2.4-1.091,3.25-2.151a9.891,9.891,0,0,0,.82-1.52,3.065,3.065,0,0,1,1.4-1.192.732.732,0,0,1,.075-.041C505.039,437.727,505.426,437.422,505.359,436.982Z" transform="translate(-498.814 -436.295)" fill="#d38f4e"/>
      </g>
      <g id="Group_12472" data-name="Group 12472" transform="translate(27.915 27.27)">
        <path id="Path_89037" data-name="Path 89037" d="M500.884,405.919a2.653,2.653,0,0,1-1,1.14c-.73.564-1.313,1.305-1.99,1.93-.35.323-1.034.88-.813,1.448.15.376.515.387.854.274a2.09,2.09,0,0,0,1.159-1.267,2.207,2.207,0,0,1,1.452-1.256,2.653,2.653,0,0,0,.85-.47,3.563,3.563,0,0,0,.842-1.019C501.813,406.408,501.357,406.216,500.884,405.919Z" transform="translate(-497.034 -405.919)" fill="#d38f4e"/>
      </g>
      <g id="Group_12473" data-name="Group 12473" transform="translate(22.369 28.026)">
        <path id="Path_89038" data-name="Path 89038" d="M475.924,409.695c-.493-1.049-1.561.79-1.786,1.121a26.011,26.011,0,0,1-2.326,2.6,1.884,1.884,0,0,0-.139.162c.252.316.591.752.944,1.256a16.074,16.074,0,0,0,1.3-1.545,15.056,15.056,0,0,0,1.553-2.2C475.68,410.737,476.135,410.146,475.924,409.695Z" transform="translate(-471.673 -409.375)" fill="#d38f4e"/>
      </g>
      <g id="Group_12474" data-name="Group 12474" transform="translate(36.554 35.129)">
        <path id="Path_89039" data-name="Path 89039" d="M542.659,442.173a3.011,3.011,0,0,1-.538-.321c-.048.1-.093.2-.147.3a5.572,5.572,0,0,1-.827,1.087c-.229.252-.474.489-.715.733a10.942,10.942,0,0,1-1.621,1.5,5.342,5.342,0,0,0-2.189,2.016c-.169.4-.143.884.361.948.553.068,1.207-.587,1.583-.929.447-.41.775-.94,1.237-1.332.534-.459,1.237-.669,1.809-1.076a.305.305,0,0,0,.052-.041,3.149,3.149,0,0,0,.955-1.1,8.174,8.174,0,0,1-2.565,5.375c-.274.259-1.7,1.832-.425,1.817.5,0,1-.6,1.3-.929a4.305,4.305,0,0,0,.436-.542c.357-.542.824-.925,1.211-1.433a3.578,3.578,0,0,0,.624-2.11c.059-1.054.044-2.112.031-3.169A3.353,3.353,0,0,1,542.659,442.173Z" transform="translate(-536.528 -441.852)" fill="#d38f4e"/>
      </g>
      <g id="Group_12475" data-name="Group 12475" transform="translate(33.729 47.106)">
        <path id="Path_89040" data-name="Path 89040" d="M529.927,496.744c-.308-.3-.7-.019-.967.2a7.984,7.984,0,0,1-2.806,1.768c-.82.252-1.711.286-2.543.5.188.591.361,1.159.519,1.7,1.057-.056,1.963-.831,2.9-1.249C527.573,499.422,531.116,497.914,529.927,496.744Z" transform="translate(-523.612 -496.612)" fill="#d38f4e"/>
      </g>
      <g id="Group_12476" data-name="Group 12476" transform="translate(38.261 48.558)">
        <path id="Path_89041" data-name="Path 89041" d="M553.621,503.4c-.312-.361-.888.007-1.162.222-.478.361-.831.858-1.305,1.226a8.409,8.409,0,0,0-1.358,1.147,29.552,29.552,0,0,0-1.648,2.591c-.752,1.1-1.986,1.651-2.791,2.723a6.733,6.733,0,0,0-1.023,1.918l.978-.056,0,0s0,0,0,0c.339-.353.572-.793.9-1.166.948-1.083,2.054-2.024,2.983-3.137.451-.538.876-1.113,1.373-1.61a6.78,6.78,0,0,1,1.568-1.012,3.024,3.024,0,0,0,1.3-1.512C553.584,504.408,553.915,503.738,553.621,503.4Z" transform="translate(-544.335 -503.248)" fill="#d38f4e"/>
      </g>
      <g id="Group_12477" data-name="Group 12477" transform="translate(48.255 30.829)">
        <path id="Path_89042" data-name="Path 89042" d="M592.748,422.526a3.457,3.457,0,0,1-.056.519,3.364,3.364,0,0,1-.086.35,15.33,15.33,0,0,1-.993,2.065,17.3,17.3,0,0,0-.752,2.287c-.075.233-.165.459-.263.685v0a6.784,6.784,0,0,0-.564,1.617.188.188,0,0,0,.132.229,1.07,1.07,0,0,0,1.031-.448,4.889,4.889,0,0,0,.481-.685,15.785,15.785,0,0,0,1.17-3.3,19.942,19.942,0,0,0,.816-2.482c0-.019.007-.034.011-.057v0c.075-.338.2-.737.263-1.121Z" transform="translate(-590.029 -422.188)" fill="#d38f4e"/>
      </g>
      <g id="Group_12478" data-name="Group 12478" transform="translate(59.576 27.225)">
        <path id="Path_89043" data-name="Path 89043" d="M643.968,406.443a5.032,5.032,0,0,1-.068-.73c-.184.079-.38.166-.587.256-.165.3-.35.587-.519.888a3.2,3.2,0,0,0-.4,1.016c-.053.3.019.587-.007.88a4.383,4.383,0,0,1-.312,1.076c-.214.681-.594,3.122.2,3.656.993.673,1.019-1.79,1.023-2.23a5.293,5.293,0,0,1,.391-2.178,4.7,4.7,0,0,0,.38-1.2A5.1,5.1,0,0,0,643.968,406.443Z" transform="translate(-641.791 -405.713)" fill="#d38f4e"/>
      </g>
      <g id="Group_12479" data-name="Group 12479" transform="translate(56.744 28.248)">
        <path id="Path_89044" data-name="Path 89044" d="M630.434,410.786c-.056.135-.117.271-.184.4-.335.658-.8,1.234-1.091,1.918-.166.391-.669,1.553.1,1.64.918.1,1.14-1.369,1.211-1.96.109-.876.763-1.4.895-2.264.008-.045.011-.086.015-.131Q630.914,410.588,630.434,410.786Z" transform="translate(-628.844 -410.391)" fill="#d38f4e"/>
      </g>
      <g id="Group_12480" data-name="Group 12480" transform="translate(56.023 35.983)">
        <path id="Path_89045" data-name="Path 89045" d="M627.629,451.709a20.263,20.263,0,0,1-.184-2.524c-.045-.466-.489-4.111-1.6-3.321-.463.331-.267,1.35-.2,1.805s.188.918.267,1.38c.139.786-.011,1.591.131,2.362a5.015,5.015,0,0,0,.719,1.32,11.385,11.385,0,0,1,.568,2.136c.229-.342.481-.782.809-1.365C627.975,452.9,627.76,452.319,627.629,451.709Z" transform="translate(-625.547 -445.753)" fill="#d38f4e"/>
      </g>
      <g id="Group_12481" data-name="Group 12481" transform="translate(45.695 40.72)">
        <path id="Path_89046" data-name="Path 89046" d="M583.664,470.662a11.246,11.246,0,0,1-1.234-.636c-.44-.3-.839-.669-1.279-.978a9.007,9.007,0,0,0-1.215-.722c-.158-.079-.512-.192-.8-.338a2.282,2.282,0,0,1-.056-.3.193.193,0,0,0-.365-.075l-.011-.023c-.026-.237-.406-.237-.376,0a.962.962,0,0,0,.512.707,2.112,2.112,0,0,0,.715.933c.274.214.587.361.88.557.421.278.7.7,1.087,1.008a5.413,5.413,0,0,0,.835.447,3.074,3.074,0,0,1,.914.888,1.133,1.133,0,0,0,1.207.478C585.417,472.268,584.149,470.91,583.664,470.662Z" transform="translate(-578.325 -467.411)" fill="#d38f4e"/>
      </g>
      <g id="Group_12482" data-name="Group 12482" transform="translate(48.968 52.808)">
        <path id="Path_89047" data-name="Path 89047" d="M600.185,524.3a6.917,6.917,0,0,0-1.734-.3,9.351,9.351,0,0,1-3.471-.824c-.365-.207-.974-.711-1.437-.38-1.053.756,1.5,1.29,1.805,1.328,1.136.143,2.163.658,3.276.91.519.117,1.155.184,1.764.316C600.332,525.02,600.257,524.663,600.185,524.3Z" transform="translate(-593.29 -522.684)" fill="#d38f4e"/>
      </g>
      <g id="Group_12483" data-name="Group 12483" transform="translate(40.089 31.728)">
        <path id="Path_89048" data-name="Path 89048" d="M559.958,430.386c0,.685-.045,1.5-.094,2.309-.087,1.456-1,7.383-1,7.383a19.947,19.947,0,0,1-2.174-4.75,20.07,20.07,0,0,0-1.7-3.889c-.177-.342-.357-.685-.534-1.019-.914-1.7-1.76-3.156-1.76-3.156l2.5-.967,4.186.575a20.667,20.667,0,0,0,.444,2.2,2.115,2.115,0,0,1,.075.369A6.9,6.9,0,0,1,559.958,430.386Z" transform="translate(-552.695 -426.298)" fill="#ffa38a"/>
      </g>
      <g id="Group_12484" data-name="Group 12484" transform="translate(34.68 57.544)">
        <path id="Path_89049" data-name="Path 89049" d="M553.163,617.726h-11.4s-.3-12.664-1.1-17.177-.3-10.75-1.557-16.422c-.515-2.324-1.17-5.443-1.843-8.677-1.452-6.988-2.994-14.548-3.419-15.963-.621-2.065-5.886-9.839-5.886-9.839l.384-1.2.6-1.862.361-1.125,18.742-1.128s.2.451.5,1.264c.181.478.4,1.076.647,1.787a62.4,62.4,0,0,1,3.46,18.057c.177,7.786.252,23.068.5,27.581S553.163,617.726,553.163,617.726Z" transform="translate(-527.963 -544.337)" fill="#f2e1cb"/>
      </g>
      <g id="Group_12485" data-name="Group 12485" transform="translate(24.777 58.673)">
        <path id="Path_89050" data-name="Path 89050" d="M504.627,561.013l-.891,14.951s-.734,1.429-1.843,3.517c-2.983,5.6-8.692,15.921-10.249,15.854-2.133-.094-8.959-5.454-8.959-5.454A21.8,21.8,0,0,1,484,585.589a9.229,9.229,0,0,0,.88-2.543c.489-1.647.929-3.31,1.343-4.98,1.207-4.852.8-9.858,2.148-14.68a78.424,78.424,0,0,1,4.228-10.911c.282-.624.56-1.241.835-1.858.169-.376.335-.748.5-1.121l1.076,1.159,1.749,1.884Z" transform="translate(-482.684 -549.496)" fill="#f2e1cb"/>
      </g>
      <g id="Group_12486" data-name="Group 12486" transform="translate(8.353 88.557)">
        <path id="Path_89051" data-name="Path 89051" d="M433.851,701.546a7.89,7.89,0,0,1-5.134,2.137c-3.134.063-21.125-6.77-21.125-6.77l3.322-10.782a26.716,26.716,0,0,0,5.516,2.006c1.881.251,2.131-.251,4.639,1.066s5.642.878,7.083,1.191a5.174,5.174,0,0,1,2.821,2.257C431.224,693.089,433.851,701.546,433.851,701.546Z" transform="translate(-407.591 -686.131)" fill="#f2e1cb"/>
      </g>
      <g id="Group_12487" data-name="Group 12487" transform="translate(34.692 58.808)">
        <path id="Path_89052" data-name="Path 89052" d="M549.243,551.9c-.888.128-1.775.26-2.667.357-2.167.244-4.344.229-6.522.267-2.087.034-4.137.256-6.213.421-.557.045-1.109.068-1.666.075-1.26.026-2.524-.023-3.788-.056-.124,0-.248,0-.372-.008.282-.624.56-1.241.835-1.858.049,0,.094,0,.139,0,.478.011.959.026,1.437.034,1.14.019,2.279.019,3.415-.072,2.076-.166,4.126-.387,6.213-.421,2.178-.038,4.355-.023,6.522-.267.677-.075,1.35-.169,2.02-.263C548.777,550.593,549,551.191,549.243,551.9Z" transform="translate(-528.015 -550.115)" fill="#b46f4d"/>
      </g>
      <g id="Group_12488" data-name="Group 12488" transform="translate(45.319 59.039)">
        <path id="Path_89053" data-name="Path 89053" d="M578.214,553.623a2.07,2.07,0,0,1-1-.243,1.078,1.078,0,0,1-.6-.829c-.061-.671.661-1.286,1.609-1.372a2.149,2.149,0,0,1,1.228.233,1.077,1.077,0,0,1,.6.829h0a1.077,1.077,0,0,1-.443.923,2.142,2.142,0,0,1-1.166.449C578.362,553.619,578.287,553.623,578.214,553.623Zm.228-2.192c-.066,0-.133,0-.2.009-.8.073-1.418.56-1.371,1.087a.824.824,0,0,0,.467.623,2.021,2.021,0,0,0,2.1-.189.824.824,0,0,0,.348-.7h0a.824.824,0,0,0-.467-.623A1.809,1.809,0,0,0,578.442,551.431Z" transform="translate(-576.605 -551.168)" fill="#fff"/>
      </g>
      <g id="Group_12489" data-name="Group 12489" transform="translate(53.116 58.497)">
        <rect id="Rectangle_4325" data-name="Rectangle 4325" width="0.376" height="3.392" transform="matrix(0.977, -0.212, 0.212, 0.977, 0, 0.08)" fill="#f5e4df"/>
      </g>
      <g id="Group_12490" data-name="Group 12490" transform="translate(38.073 59.193)">
        <rect id="Rectangle_4326" data-name="Rectangle 4326" width="3.231" height="0.376" transform="translate(0 3.197) rotate(-81.689)" fill="#f5e4df"/>
      </g>
      <g id="Group_12491" data-name="Group 12491" transform="translate(44.116 61.591)">
        <path id="Path_89054" data-name="Path 89054" d="M571.236,589.543a.129.129,0,0,1-.037-.005.131.131,0,0,1-.09-.163c.019-.066,1.917-6.65,2.472-8.694.11-.4.212-.766.306-1.1a19.27,19.27,0,0,0,.785-3.736c.281-2.81-.146-12.767-.15-12.867a.132.132,0,1,1,.263-.011c0,.1.432,10.076.149,12.905a19.471,19.471,0,0,1-.794,3.781c-.094.334-.2.7-.3,1.1-.556,2.046-2.454,8.631-2.473,8.7A.132.132,0,0,1,571.236,589.543Z" transform="translate(-571.104 -562.839)" fill="#fff"/>
      </g>
      <g id="Group_12492" data-name="Group 12492" transform="translate(47.779 61.408)">
        <path id="Path_89055" data-name="Path 89055" d="M587.987,575.082a.132.132,0,0,1-.046-.255c.015-.005,1.525-.585,1.7-1.776.184-1.258-.341-10.816-.346-10.912a.131.131,0,0,1,.124-.139.137.137,0,0,1,.139.124c.022.4.531,9.682.343,10.965-.2,1.347-1.8,1.96-1.868,1.985A.137.137,0,0,1,587.987,575.082Z" transform="translate(-587.855 -562)" fill="#fff"/>
      </g>
      <g id="Group_12493" data-name="Group 12493" transform="translate(25.746 92.763)">
        <path id="Path_89056" data-name="Path 89056" d="M487.274,712.647a.131.131,0,0,1-.131-.126c0-.015-.062-1.479,0-2.971a20.387,20.387,0,0,1,.9-4.1.132.132,0,0,1,.25.081,20.587,20.587,0,0,0-.883,4.028c-.062,1.482,0,2.934,0,2.949a.132.132,0,0,1-.126.137Z" transform="translate(-487.114 -705.361)" fill="#fff"/>
      </g>
      <g id="Group_12494" data-name="Group 12494" transform="translate(36.811 16.203)">
        <path id="Path_89057" data-name="Path 89057" d="M537.835,357.729a.131.131,0,0,1-.12-.185,4.7,4.7,0,0,1,.961-1.372,6.783,6.783,0,0,1,1.2-.841.132.132,0,0,1,.123.233,6.629,6.629,0,0,0-1.149.8,4.512,4.512,0,0,0-.9,1.284A.131.131,0,0,1,537.835,357.729Z" transform="translate(-537.703 -355.315)" fill="#fff"/>
      </g>
      <g id="Group_12495" data-name="Group 12495" transform="translate(36.458 19.728)">
        <path id="Path_89058" data-name="Path 89058" d="M538.679,374.66h-.01a2.5,2.5,0,0,1-1.657-.932,5.911,5.911,0,0,1-.919-2.135.132.132,0,1,1,.258-.053,5.757,5.757,0,0,0,.868,2.026,2.268,2.268,0,0,0,1.47.832.132.132,0,0,1-.01.263Z" transform="translate(-536.091 -371.435)" fill="#fff"/>
      </g>
      <g id="Group_12496" data-name="Group 12496" transform="translate(37.633 21.033)">
        <path id="Path_89059" data-name="Path 89059" d="M543.56,378.805a.138.138,0,0,1-.03,0,6.107,6.107,0,0,1-.928-.336,3.391,3.391,0,0,1-1.107-.848.132.132,0,1,1,.2-.168,3.169,3.169,0,0,0,1.009.774,6.032,6.032,0,0,0,.883.322.132.132,0,0,1-.03.26Z" transform="translate(-541.465 -377.402)" fill="#fff"/>
      </g>
      <g id="Group_12497" data-name="Group 12497" transform="translate(40.572 15.654)">
        <path id="Path_89060" data-name="Path 89060" d="M558.1,354.489a.131.131,0,0,1-.109-.057,3.633,3.633,0,0,0-1.111-1.059,3.149,3.149,0,0,0-1.821-.263.132.132,0,0,1-.06-.256,3.36,3.36,0,0,1,1.988.278,3.827,3.827,0,0,1,1.221,1.151.132.132,0,0,1-.034.183A.13.13,0,0,1,558.1,354.489Z" transform="translate(-554.901 -352.808)" fill="#fff"/>
      </g>
      <g id="Group_12498" data-name="Group 12498" transform="translate(34.939 14.78)">
        <path id="Path_89061" data-name="Path 89061" d="M530.538,351.958a1.3,1.3,0,0,1-1.2-.894,3.357,3.357,0,0,1,0-2.165.132.132,0,0,1,.248.087,3.145,3.145,0,0,0,0,1.973,1.009,1.009,0,0,0,1.012.733.132.132,0,0,1,.04.26A.646.646,0,0,1,530.538,351.958Z" transform="translate(-529.148 -348.811)" fill="#fff"/>
      </g>
      <g id="Group_12499" data-name="Group 12499" transform="translate(35.589 14.545)">
        <path id="Path_89062" data-name="Path 89062" d="M532.574,349.914a.129.129,0,0,1-.1-.043,1.791,1.791,0,0,1-.273-.69,4.907,4.907,0,0,1-.069-1.324.132.132,0,1,1,.262.021,4.762,4.762,0,0,0,.062,1.238,1.813,1.813,0,0,0,.217.583.132.132,0,0,1-.1.215Z" transform="translate(-532.118 -347.735)" fill="#fff"/>
      </g>
      <g id="Group_12500" data-name="Group 12500" transform="translate(63.444 26.554)">
        <path id="Path_89063" data-name="Path 89063" d="M661.2,405.909a.133.133,0,0,1-.117-.07l-1.587-3a.132.132,0,1,1,.233-.123l1.587,3a.131.131,0,0,1-.116.193Z" transform="translate(-659.477 -402.645)" fill="#f27957"/>
      </g>
      <g id="Group_12502" data-name="Group 12502" transform="translate(41.85 34.872)">
        <g id="Group_12501" data-name="Group 12501">
          <path id="Path_89064" data-name="Path 89064" d="M566.246,441.618c-.478,1.17-1.264,2.527-2.328,2.527a5.025,5.025,0,0,1-2.641-1.474c-.177-.342-.357-.685-.534-1.019,1.091,1.072,2.374,2.117,3.175,2.117,1.031,0,1.854-1.82,2.276-3.1A6.9,6.9,0,0,1,566.246,441.618Z" transform="translate(-560.743 -440.674)" fill="#fff"/>
        </g>
      </g>
      <g id="Group_12503" data-name="Group 12503" transform="translate(44.907 38.251)">
        <path id="Path_89065" data-name="Path 89065" d="M575.454,456.73c0,.335-.164.607-.367.607s-.367-.272-.367-.607.164-.607.367-.607S575.454,456.395,575.454,456.73Z" transform="translate(-574.72 -456.123)" fill="#fff"/>
      </g>
    </g>
  </g>
</svg>
