<svg id="gift" xmlns="http://www.w3.org/2000/svg" width="32" height="31.998" viewBox="0 0 32 31.998">
  <path id="Path_87266" data-name="Path 87266" d="M29.125,5.511H21.871a3.5,3.5,0,0,0-5.346-4.475,2.794,2.794,0,0,0-.525.75,2.8,2.8,0,0,0-.525-.75,3.5,3.5,0,0,0-5.346,4.475H2.875A2.878,2.878,0,0,0,0,8.386v2.25a2.88,2.88,0,0,0,2,2.738V29.136a2.878,2.878,0,0,0,2.875,2.875h22.25A2.878,2.878,0,0,0,30,29.136V13.375a2.88,2.88,0,0,0,2-2.738V8.386A2.878,2.878,0,0,0,29.125,5.511ZM17,11.511H15v-4h2Zm.235-6.846c.309-1.777.665-2.175.7-2.214a1.5,1.5,0,1,1,2.121,2.121c-.039.039-.435.393-2.2.7-.257.045-.507.082-.738.114C17.155,5.161,17.192,4.916,17.235,4.665Zm-5.3-2.214a1.5,1.5,0,0,1,2.121,0c.039.039.393.435.7,2.2.045.257.082.507.114.738-.226-.03-.47-.067-.722-.111-1.777-.309-2.175-.665-2.214-.7a1.5,1.5,0,0,1,0-2.121ZM2,8.386a.876.876,0,0,1,.875-.875H13v4H2.875A.876.876,0,0,1,2,10.636Zm2,20.75V13.511h9v16.5H4.875A.876.876,0,0,1,4,29.136Zm11,.875v-16.5h2v16.5Zm13-.875a.876.876,0,0,1-.875.875H19v-16.5h9Zm2-18.5a.876.876,0,0,1-.875.875H19v-4H29.125A.876.876,0,0,1,30,8.386Z" transform="translate(0 -0.013)" fill="#396e75"/>
</svg>
