<svg xmlns="http://www.w3.org/2000/svg" width="32" height="32" viewBox="0 0 32 32">
  <g id="Group_8153" data-name="Group 8153" transform="translate(-32 -726)">
    <g id="Group_8029" data-name="Group 8029" transform="translate(-12 264)">
      <rect id="Rectangle_4145" data-name="Rectangle 4145" width="32" height="32" rx="10" transform="translate(44 462)" fill="none"/>
      <g id="gift" transform="translate(48 465.987)">
        <path id="Path_87266" data-name="Path 87266" d="M21.844,4.137H16.4A2.625,2.625,0,0,0,12.394.78,2.1,2.1,0,0,0,12,1.343,2.1,2.1,0,0,0,11.606.78,2.625,2.625,0,0,0,7.6,4.137H2.156A2.159,2.159,0,0,0,0,6.293V7.98a2.16,2.16,0,0,0,1.5,2.054V21.855a2.159,2.159,0,0,0,2.156,2.156H20.344A2.159,2.159,0,0,0,22.5,21.855V10.034A2.16,2.16,0,0,0,24,7.98V6.293A2.159,2.159,0,0,0,21.844,4.137Zm-9.094,4.5h-1.5v-3h1.5ZM12.926,3.5c.232-1.332.5-1.631.528-1.661a1.125,1.125,0,0,1,1.591,1.591c-.029.029-.326.295-1.649.526-.192.034-.38.062-.554.085C12.866,3.874,12.894,3.69,12.926,3.5ZM8.954,1.841a1.126,1.126,0,0,1,1.591,0c.029.029.295.326.526,1.649.034.192.062.38.085.554-.169-.023-.353-.05-.541-.083-1.332-.232-1.631-.5-1.661-.528a1.126,1.126,0,0,1,0-1.591ZM1.5,6.293a.657.657,0,0,1,.656-.656H9.75v3H2.156A.657.657,0,0,1,1.5,7.98ZM3,21.855V10.137H9.75V22.512H3.656A.657.657,0,0,1,3,21.855Zm8.25.656V10.137h1.5V22.512ZM21,21.855a.657.657,0,0,1-.656.656H14.25V10.137H21ZM22.5,7.98a.657.657,0,0,1-.656.656H14.25v-3h7.594a.657.657,0,0,1,.656.656Z" fill="#38539a"/>
      </g>
    </g>
  </g>
</svg>
