<svg xmlns="http://www.w3.org/2000/svg" xmlns:xlink="http://www.w3.org/1999/xlink" width="152" height="115" viewBox="0 0 152 115">
  <defs>
    <clipPath id="clip-path">
      <rect id="Rectangle_4124" data-name="Rectangle 4124" width="152" height="115" rx="8" transform="translate(12181 17207)" fill="#fff"/>
    </clipPath>
    <clipPath id="clip-path-2">
      <rect id="Rectangle_4172" data-name="Rectangle 4172" width="42.198" height="43.575" transform="translate(0 0)" fill="#f2f2f2"/>
    </clipPath>
    <clipPath id="clip-path-3">
      <path id="Clip_145" data-name="Clip 145" d="M0,0H37.656V40.158H0Z" fill="none"/>
    </clipPath>
  </defs>
  <g id="Group_7958" data-name="Group 7958" transform="translate(-24 -397)">
    <rect id="Rectangle_3498" data-name="Rectangle 3498" width="152" height="115" rx="8" transform="translate(24 397)" fill="#fff"/>
    <g id="Group_7957" data-name="Group 7957" transform="translate(-12157 -16810)">
      <rect id="Rectangle_4123" data-name="Rectangle 4123" width="152" height="115" transform="translate(12181 17207)" fill="#f1f2ff"/>
      <g id="Group_8231" data-name="Group 8231" transform="translate(-2)">
        <g id="id-card" transform="translate(12197 17222.607)">
          <path id="Path_1" data-name="Path 1" d="M118.8,135.15H5.174A4.984,4.984,0,0,0,0,139.913v74.26a4.984,4.984,0,0,0,5.174,4.763H118.826A4.984,4.984,0,0,0,124,214.173v-74.26A5.022,5.022,0,0,0,118.8,135.15Z" transform="translate(0 -135.15)" fill="#fafafa"/>
          <rect id="Rectangle_1" data-name="Rectangle 1" width="113.97" height="74.272" transform="translate(4.986 4.771)" fill="#89d6f7"/>
          <rect id="Rectangle_3" data-name="Rectangle 3" width="52.644" height="7.37" transform="translate(59.822 46.563)" fill="#f2f2f2"/>
          <rect id="Rectangle_4" data-name="Rectangle 4" width="100.961" height="7.37" transform="translate(11.852 65.217)" fill="#55bfe9"/>
          <rect id="Rectangle_5" data-name="Rectangle 5" width="52.644" height="7.37" transform="translate(59.822 27.909)" fill="#fff"/>
          <rect id="Rectangle_3494" data-name="Rectangle 3494" width="42.198" height="43.575" transform="translate(11.851 10.359)" fill="#f2f2f2"/>
          <rect id="Rectangle_3495" data-name="Rectangle 3495" width="42.198" height="43.575" transform="translate(11.851 10.359)" fill="#f2f2f2"/>
        </g>
        <g id="Mask_Group_125" data-name="Mask Group 125" transform="translate(12208.849 17232.973)" clip-path="url(#clip-path-2)">
          <g id="People" transform="translate(1.404 1.3)">
            <path id="Fill_68" data-name="Fill 68" d="M4.866,2.588a13.663,13.663,0,0,1-1.8,2.964L2.047,7.018a11.984,11.984,0,0,1-.929,1.335A60.744,60.744,0,0,0,2.9.111c.016-.148-.218-.147-.234,0C2.211,4.366.6,8.39,0,12.62c-.021.146.2.209.225.062a40.166,40.166,0,0,1,.8-3.952A.114.114,0,0,0,1.093,8.7,7.072,7.072,0,0,0,2.122,7.318l1.147-1.65A13.861,13.861,0,0,0,5.091,2.649c.051-.14-.174-.2-.225-.061" transform="translate(9.987 22.44)" fill="#b9bce9"/>
            <path id="Fill_70" data-name="Fill 70" d="M6.17,1.735A9.128,9.128,0,0,0,3.485.262,4.456,4.456,0,0,0,2.037,0C1.428,0,.728.4.149.213a.114.114,0,0,0-.128.17A.107.107,0,0,0,.084.554,6.56,6.56,0,0,1,1.957,1.4L3.823,2.464a.116.116,0,0,0,.118-.2L1.878,1.084A7.992,7.992,0,0,0,.642.475c.2-.029.394-.093.615-.144A3.663,3.663,0,0,1,3.027.365,8.326,8.326,0,0,1,6,1.9c.115.094.282-.069.165-.164" transform="translate(15.894 40.882)" fill="#b9bce9"/>
            <path id="Fill_76" data-name="Fill 76" d="M3.525,5.031Q2.581,3.859,1.717,2.626,1.345,2.092.989,1.546A3.822,3.822,0,0,1,.235.11C.217-.036-.017-.038,0,.11a6.469,6.469,0,0,0,1.39,2.454c.622.9,1.281,1.777,1.969,2.63.094.116.258-.048.165-.164" transform="translate(10.916 48.099)" fill="#b9bce9"/>
            <path id="Fill_98" data-name="Fill 98" d="M15.961,24.2a4.018,4.018,0,0,0-.217-1.464,3.737,3.737,0,0,0-.606-1.121c-.358-.453-.9-.789-1.12-1.34-.177-.452.146-.891.1-1.347-.062-.579-.8-.923-1.2-1.268-.576-.505-.072-1.277-.272-1.914A2.6,2.6,0,0,0,12.4,15.2a5.631,5.631,0,0,0-.344-.512c-.012-.018-.025-.035-.038-.053a2.327,2.327,0,0,0-.165-.333c.305-.162.527-.284.592-.333a6.674,6.674,0,0,0,2.045-3.939c.055-.279.111-.577.16-.889.271-1.729.368-3.837-.422-5.251A9.72,9.72,0,0,0,12.72,1.85,6.781,6.781,0,0,0,10.578.573C7.011-1.011,1.966.777.636,4.85A11.394,11.394,0,0,0,0,8.51,9.018,9.018,0,0,0,1.053,11.8a17.978,17.978,0,0,0,2.087,3.47,9.857,9.857,0,0,0,1.87.765,5.875,5.875,0,0,0,2.286.2l.078-.015c-.037.191-.075.382-.111.573a5.478,5.478,0,0,0-.075,1.824,13.861,13.861,0,0,1,.189,1.909c0,.6-.043,1.206-.074,1.808a13.793,13.793,0,0,0,0,1.752A3.742,3.742,0,0,0,7.677,25.7a1.006,1.006,0,0,0,.992.35l.207-.015c.581-.043,1.159-.107,1.743-.127a29.145,29.145,0,0,1,4.184.205.7.7,0,0,0,.824-.5,3.754,3.754,0,0,0,.335-1.42" transform="translate(14.055)" fill="#6b3939"/>
            <path id="Fill_100" data-name="Fill 100" d="M8.367,9.508A4.018,4.018,0,0,0,8.15,8.044,7.512,7.512,0,0,0,6.9,7.383c-.352-.151-.709-.289-1.06-.443C5.557,6.814,5,6.6,4.954,6.234c-.025-.18.079-.348.059-.531a1.543,1.543,0,0,0-.186-.512,7.348,7.348,0,0,1-.571-1.044c-.39-1.226.4-2.407.548-3.634A5.632,5.632,0,0,0,4.46,0,5.222,5.222,0,0,0,3.307.718a3.427,3.427,0,0,0-.846,1.41C1.928,3.442,1.272,4.708.694,6A5.268,5.268,0,0,0,.129,9.565a4.394,4.394,0,0,0,1.152,1.78c.581-.043,1.159-.107,1.743-.127a29.145,29.145,0,0,1,4.184.205.7.7,0,0,0,.824-.5,3.754,3.754,0,0,0,.335-1.42" transform="translate(21.65 14.693)" fill="#452222"/>
            <path id="Fill_102" data-name="Fill 102" d="M0,3.346c.016.249.1.3.328.212a2.379,2.379,0,0,0,1.3-2.8C1.581.53,1.547.06,1.245,0S.684.416.558.613c-.043.068.055.149.1.08L.677.659a4.2,4.2,0,0,1-.422,1.45A3.371,3.371,0,0,0,0,3.346" transform="translate(26.211 9.852)" fill="#fea689"/>
            <path id="Fill_104" data-name="Fill 104" d="M.584.364C1-.015,2.654,0,3.163,0c.854,0,1.71.059,2.563.11a28.039,28.039,0,0,1,5.73.83.181.181,0,0,1,.13.208.135.135,0,0,1,.057.1,33.437,33.437,0,0,1-1.065,9.278,7.906,7.906,0,0,1-3.118,3.541c-1.439.968-2.446.712-3.821-.077a5.088,5.088,0,0,1-1.965-1.673A8.379,8.379,0,0,1,.3,8.858a24.951,24.951,0,0,1-.281-4.5C.046,3.6.105,2.846.187,2.1.24,1.606.185.727.584.364" transform="translate(15.766 4.203)" fill="#fea689"/>
            <path id="Fill_106" data-name="Fill 106" d="M.012,1.056A2.173,2.173,0,0,1,.048.37.62.62,0,0,1,.209.083C.448-.133.7.113.743.349c.059.305,0,.96-.289,1.094S.045,1.357.012,1.056" transform="translate(24.032 9.517)" fill="#232c44"/>
            <path id="Fill_108" data-name="Fill 108" d="M.012,1.065A2.188,2.188,0,0,1,.049.373.626.626,0,0,1,.211.084C.452-.134.7.114.749.351c.059.308,0,.968-.292,1.1s-.412-.086-.446-.39" transform="translate(17.97 9.392)" fill="#232c44"/>
            <path id="Fill_110" data-name="Fill 110" d="M14.13,7.187c-1-.307-2.734-.771-3.484-1.691a1.646,1.646,0,0,1-.4-.922c-.075-.485-.015-2.643-.015-2.656A4.013,4.013,0,0,1,10.278.875a.132.132,0,0,0,0-.081c0-.012,0-.026,0-.039.007-.146-.2-.179-.237-.055C8.359.534,6.068.253,4.39,0a.118.118,0,0,0-.133.1L3.879.068a.125.125,0,0,0-.137.106,11.027,11.027,0,0,0-.074,1.409A15.138,15.138,0,0,1,3.6,3.365a3.342,3.342,0,0,1-.2.8,2.958,2.958,0,0,1-1.71,1.68c-.47.2-1.31.194-1.677.535-.11.1.579.807.624.99.055.224.418.336.595.432.35.192,4.2,6.881,5.318,6.891.437,0,5.892-6.386,6.463-7.2.041-.059,1.2-.286,1.118-.31" transform="translate(14.341 15.636)" fill="#fea689"/>
            <path id="Fill_112" data-name="Fill 112" d="M0,.509,1.393,0a4.954,4.954,0,0,0,1.19,2.073,2.589,2.589,0,0,1,1.41,1.64c.412,1.09,1.1,1.475,1.325,2.3S5.7,7.678,5.7,7.678A5.307,5.307,0,0,1,6.57,5.5,6.61,6.61,0,0,0,8,3.7c.324-.621,1.5-1.059,1.85-1.444A8.45,8.45,0,0,0,10.725.7l.976.44.1,1.047S6.094,8.916,5.942,8.978.01,2.643,0,2.445,0,.509,0,.509" transform="translate(15.216 21.174)" fill="#fff"/>
            <path id="Fill_114" data-name="Fill 114" d="M.085.184A1.722,1.722,0,0,0,1,.888,2.452,2.452,0,0,0,3.418.514c.03-.026.219-.285.219-.285S.143,0,.036,0C-.036,0,.011.079.085.184" transform="translate(19.493 14.382)" fill="#fff"/>
            <path id="Fill_116" data-name="Fill 116" d="M5.206,1.919c-.377.55-.514.655-1.353.777s-.637.819-1.641.615S1.486,2.856.533,2.739A2.262,2.262,0,0,1,0,2.608a3.342,3.342,0,0,0,.2-.8A15.115,15.115,0,0,0,.269.027C.273.02.269,0,.269,0s2.2,1.752,3.175,1.688A10.569,10.569,0,0,0,5.931.708c.207,0-.348.662-.725,1.212" transform="translate(17.741 17.193)" fill="#f2815c"/>
            <path id="Fill_118" data-name="Fill 118" d="M.923,3.4c-.3-.208-.663-.416-.666-.848a3.925,3.925,0,0,1,.22-.809,8.234,8.234,0,0,0,.23-1.6C.716-.023.463-.055.454.107A8.29,8.29,0,0,1,.3,1.356,11.152,11.152,0,0,0,0,2.516c-.049.532.365.8.764,1.079.134.094.289-.107.155-.2" transform="translate(20.663 10.002)" fill="#f2815c"/>
            <path id="Fill_4" data-name="Fill 4" d="M1.8.205a2.336,2.336,0,0,0-.538.017,1.928,1.928,0,0,0-.5.145,1.4,1.4,0,0,0-.441.3A1.539,1.539,0,0,0,0,1.19,1.161,1.161,0,0,1,.688.1,1.2,1.2,0,0,1,1.26,0a.98.98,0,0,1,.542.2" transform="translate(16.953 8.004)" fill="#2c2c2c"/>
            <path id="Fill_4-2" data-name="Fill 4" d="M0,.206A2.336,2.336,0,0,1,.538.222a1.927,1.927,0,0,1,.5.145,1.394,1.394,0,0,1,.441.3,1.537,1.537,0,0,1,.32.521A1.155,1.155,0,0,0,1.6.512,1.164,1.164,0,0,0,1.114.1,1.2,1.2,0,0,0,.542,0,.981.981,0,0,0,0,.206" transform="translate(23.593 7.957) rotate(3)" fill="#2c2c2c"/>
            <path id="Fill_124" data-name="Fill 124" d="M1.428,2.133A4.2,4.2,0,0,1,1.044.672l.02.035c.042.07.142-.009.1-.078C1.044.429.794-.044.495,0S.144.52.086.744A2.4,2.4,0,0,0,1.314,3.58c.223.095.311.045.334-.2a3.37,3.37,0,0,0-.219-1.244" transform="translate(14.909 9.111)" fill="#fea689"/>
            <path id="Fill_126" data-name="Fill 126" d="M14.427,6.987a1.766,1.766,0,0,1-.2-.706,2.635,2.635,0,0,1,.181-.8,2.29,2.29,0,0,0,.177-1.1,2.091,2.091,0,0,0-1.306-1.432c0-.044,0-.087.008-.132a.063.063,0,0,0-.025-.058A13.224,13.224,0,0,0,9.914,1.027,7.241,7.241,0,0,0,8.093.761,2.864,2.864,0,0,1,7.118.6a8.41,8.41,0,0,1-.744-.43A2,2,0,0,0,4.847.135,4.914,4.914,0,0,1,4.012.31c-.317.028-.636,0-.952.039A2.807,2.807,0,0,0,1.717,1,2.262,2.262,0,0,0,.771,2.17C.369,3.65.543,5.22.022,6.679c-.025.07-.038.6.011.548A2.529,2.529,0,0,1,.86,6.756c.163-.053.248-.412.383-.517a1.657,1.657,0,0,0,.519-.758.727.727,0,0,1,.532-.494.939.939,0,0,0,.33-.194,2.757,2.757,0,0,0,.492-.809,1.849,1.849,0,0,1,.932-.862A5.914,5.914,0,0,0,5,2.642a1.761,1.761,0,0,0,.247-.216,1.845,1.845,0,0,0,.248.378c.666.779,1.842.84,2.682,1.359.455.282.227.839.543,1.219a1.892,1.892,0,0,0,.953.521c.566.166,1.115.339,1.285.967a3.68,3.68,0,0,0,.376,1.214,2.113,2.113,0,0,0,.479.491,2.389,2.389,0,0,0,.266.148,2.894,2.894,0,0,0,.839,1.237c.459.371,1.348.266,1.222-.476a2.65,2.65,0,0,1-.117-.787,2.046,2.046,0,0,1,.35-.789.94.94,0,0,0,.055-.921" transform="translate(14.923 2.552)" fill="#6b3939"/>
            <path id="Fill_128" data-name="Fill 128" d="M.536,2.127C-.021,2.016.6,1.45.6,1.24a2.969,2.969,0,0,0-.1-.506C.458.525.434.315.415.1.4-.057.148-.02.163.141c.019.211.043.421.08.63.021.117.132.367.1.466-.056.174-.269.249-.322.447A.56.56,0,0,0,.5,2.377c.161.032.191-.218.031-.25" transform="translate(15.421 9.503)" fill="#f2815c"/>
            <path id="Fill_130" data-name="Fill 130" d="M.274.043C.164-.076-.038.078.074.2A.5.5,0,0,1,.027.878c-.1.129.1.281.2.153A.748.748,0,0,0,.274.043" transform="translate(26.755 11.604)" fill="#f2815c"/>
            <path id="Fill_132" data-name="Fill 132" d="M.746,3.112A1.414,1.414,0,0,1,.641,1.929,1.458,1.458,0,0,0,.8,1.452C.816.975.179.559.276.135.312-.023.059-.053.023.1A.664.664,0,0,0,.114.649c.252.438.514.546.326,1.123a1.655,1.655,0,0,0-.183.616,2.114,2.114,0,0,0,.256.823c.069.147.3.048.234-.1" transform="translate(19.497 1.314)" fill="#452222"/>
            <path id="Fill_134" data-name="Fill 134" d="M6.181,2.256a2.26,2.26,0,0,0-.993-.994C4.641.913,4.19,1.017,3.6.871,2.98.719,2.579.208,1.938.071A3.59,3.59,0,0,0,.078.195c-.156.05-.054.281.1.232A3.131,3.131,0,0,1,2.108.384c.466.152.76.532,1.212.685.415.141.874.035,1.292.177a2.443,2.443,0,0,1,1.336,1.11c.058.152.292.052.234-.1" transform="translate(22.317 3.172)" fill="#452222"/>
            <path id="Fill_136" data-name="Fill 136" d="M2.625,1.924A3.634,3.634,0,0,0,.177.006C.021-.04-.077.193.079.239A3.406,3.406,0,0,1,2.391,2.023a.127.127,0,0,0,.234-.1" transform="translate(26.259 4.972)" fill="#452222"/>
            <path id="Fill_140" data-name="Fill 140" d="M.906,0A.1.1,0,0,0,.8.083.094.094,0,0,0,.882.188c.1.036.2.628.069,1.684C.822,2.9.549,3.478.445,3.486.341,3.473.1,2.875.226,1.855A5.494,5.494,0,0,1,.556.325L.419.182a5.082,5.082,0,0,0-.383,1.65c-.117.942.063,1.8.385,1.842.387.047.634-1.1.719-1.778C1.178,1.589,1.347.055.906,0" transform="translate(15.068 11.973)" fill="#fad3b1"/>
            <path id="Fill_142" data-name="Fill 142" d="M.749,0A.1.1,0,0,1,.833.107.1.1,0,0,1,.727.189C.625.2.378.751.246,1.806c-.128,1.029,0,1.655.095,1.687.1.013.486-.509.613-1.529A4.957,4.957,0,0,0,.946.342L1.132.165a5.492,5.492,0,0,1,.012,1.822C1.026,2.929.64,3.72.317,3.681c-.387-.047-.346-1.215-.261-1.9C.1,1.476.308-.053.749,0" transform="translate(26.161 12.734)" fill="#fad3b1"/>
            <g id="Group_146" data-name="Group 146" transform="translate(0 21.855)">
              <path id="Clip_145-2" data-name="Clip 145" d="M0,0H37.656V40.158H0Z" transform="translate(0 0)" fill="none"/>
              <g id="Group_146-2" data-name="Group 146" transform="translate(0 0)" clip-path="url(#clip-path-3)">
                <path id="Fill_144" data-name="Fill 144" d="M30.1,33.177c-.258,1.839-.56,3.919-.751,5.012-.082.479,2.5.245,2.473.242-.069-.008-3.222.4-8.55.833l-3.756.3-1.39.113c-.138.01-.276.021-.411.033l-.049,0-.253.02-.162.013-.334.026-1.4.114-3.265.265a1.469,1.469,0,0,1-1.079-.351l-1.725-1.49a1.441,1.441,0,0,1-.5-.977l-.2-2.463A1.455,1.455,0,0,0,7.3,33.54,2.934,2.934,0,0,1,4.38,30.212l.4-2.835A1.44,1.44,0,0,0,3.76,25.769,4.944,4.944,0,0,1,.005,21.1C-.206,18.068,5.775,3.712,6.808,2.77,8.04,1.645,12.385.5,14.3.041a1.468,1.468,0,0,1,1.493.511l4.043,5.09a1.47,1.47,0,0,0,2.225.083c.709-.767,1.646-1.746,2.506-2.537A17.764,17.764,0,0,0,26.33,1.237,1.466,1.466,0,0,1,27.891.744c2.145.628,7.147,2.159,7.91,3.008.976,1.086.962,3.631,1.626,5.85s-.335,13.582-.331,14.992-3.822,6.545-3.926,7.358C33.131,32.271,30.342,31.477,30.1,33.177Z" transform="translate(0 0)" fill="#c7caf0"/>
              </g>
            </g>
            <path id="Fill_147" data-name="Fill 147" d="M7.227,8.5c-1.3-.721-2.675-1.658-2.832-3.237a4,4,0,0,0-.159-1c-.167-.461-.451-.892-.657-1.338A16.92,16.92,0,0,1,2.57.1a.123.123,0,0,0-.243.035q.134,1.185.267,2.372c.077.688.245,1.439.264,2.149.531,2.131-.1,4.442-.731,6.513A16.822,16.822,0,0,1,0,16.492a10.053,10.053,0,0,1,3.186-1.506,5.127,5.127,0,0,1,2.338-.057c.807.185.956,1.319,1.724,1.6.457.167-.6-.444-.174-.5.19-1.092.493-3.173.751-5.012-.075-.043.191-.138.425-.7C8.85,9.125,7.048,8.53,7.227,8.5Z" transform="translate(24.922 43.493)" fill="#b9bde9"/>
            <path id="Fill_171" data-name="Fill 171" d="M.681.049A3.623,3.623,0,0,0,0,1.954c-.01.155.234.186.243.03A3.378,3.378,0,0,1,.876.2C.967.069.773-.079.681.049" transform="translate(27.436 40.994)" fill="#b9bce9"/>
            <path id="Fill_173" data-name="Fill 173" d="M1.977.039c-.109-.111-.3.037-.193.149,1,1.023.818,3.1.554,4.376A5.555,5.555,0,0,1,.05,8.13c-.131.088.021.279.151.191a5.79,5.79,0,0,0,2.38-3.727c.273-1.348.451-3.476-.6-4.555" transform="translate(32.526 39.07)" fill="#b9bce9"/>
            <path id="Fill_175" data-name="Fill 175" d="M.373,26.01A.119.119,0,0,0,.4,25.893c-.014-.043-.026-.087-.038-.13s0-.059-.005-.089A.1.1,0,0,0,.318,25.6a8.836,8.836,0,0,1,.217-3c.14-1.128.031-2.266.12-3.4a17.307,17.307,0,0,1,.9-3.322,7.725,7.725,0,0,0,.17-2.693,11.309,11.309,0,0,1-.011-3.233,7.676,7.676,0,0,0,.462-2.9C2.024,6,1.563,5,1.455,3.929A8.491,8.491,0,0,1,2.228.167C2.283.02,2.056-.073,2,.074a9.764,9.764,0,0,0-.816,3.41,13.619,13.619,0,0,0,.626,3,4.562,4.562,0,0,1,.123,1.837c-.1.553-.346,1.067-.463,1.616a10.633,10.633,0,0,0-.005,3.085,8.132,8.132,0,0,1-.407,3.592,9.908,9.908,0,0,0-.676,3.135A25.034,25.034,0,0,1,.2,23.174,6.111,6.111,0,0,0,.116,25.8a14.513,14.513,0,0,1-.08,2.761.123.123,0,0,0,.243.03A14.838,14.838,0,0,0,.373,26.01" transform="translate(18.835 29.239)" fill="#b9bce9"/>
            <path id="Fill_177" data-name="Fill 177" d="M.241,0A.125.125,0,0,0,.1.107L0,.5A.123.123,0,0,0,.109.636.126.126,0,0,0,.246.53l.1-.394A.122.122,0,0,0,.241,0" transform="translate(21.166 29.53)" fill="#b9bce9"/>
            <path id="Fill_179" data-name="Fill 179" d="M.243.1C.235-.055-.008-.019,0,.136s.015.3.023.452.25.12.243-.035L.243.1" transform="translate(20.758 33.628)" fill="#b9bce9"/>
            <path id="Fill_173-2" data-name="Fill 173" d="M1.3.031c-.069-.088-.195.03-.124.119.638.805.514,2.443.34,3.455A4.629,4.629,0,0,1,.032,6.427c-.084.07.012.22.1.151A4.83,4.83,0,0,0,1.667,3.627c.18-1.066.3-2.747-.372-3.6" transform="translate(10 44.49) rotate(59)" fill="#b9bce9"/>
            <path id="Fill_181" data-name="Fill 181" d="M.251.665A1.878,1.878,0,0,1,.284.131C.315-.023.072-.052.041.1A2.106,2.106,0,0,0,.008.7C.021.856.264.821.251.665" transform="translate(20.956 42.591)" fill="#b9bce9"/>
            <path id="Fill_183" data-name="Fill 183" d="M.071.1,0,.665a.123.123,0,0,0,.243.03L.315.132A.123.123,0,0,0,.071.1" transform="translate(19.884 47.966)" fill="#b9bce9"/>
            <path id="Fill_185" data-name="Fill 185" d="M.312.676.244.1C.225-.055-.017-.02,0,.136L.069.711C.087.866.33.831.312.676" transform="translate(19.58 53.875)" fill="#b9bce9"/>
            <path id="Fill_187" data-name="Fill 187" d="M3.58,1.112A2.047,2.047,0,0,0,2.42.459,14.8,14.8,0,0,0,.6,0C.447-.027.417.214.572.243A14.49,14.49,0,0,1,2.106.614,3.778,3.778,0,0,1,3.115,1,4.917,4.917,0,0,0,.046,2.186.122.122,0,0,0,.2,2.377,4.607,4.607,0,0,1,3.175,1.243.124.124,0,0,0,3.3,1.156a.908.908,0,0,1,.088.106c.09.129.283-.021.193-.149" transform="translate(2.318 36.413)" fill="#b9bce9"/>
            <path id="Fill_189" data-name="Fill 189" d="M2.471,6.05a5.024,5.024,0,0,1-1.137-3.1A7.977,7.977,0,0,0,.239.069c-.069-.14-.3-.045-.225.1C.273.687.552,1.2.789,1.737a5.73,5.73,0,0,1,.345,1.849A4.737,4.737,0,0,0,2.277,6.2c.1.119.3-.03.193-.149" transform="translate(6.546 25.202)" fill="#b9bce9"/>
            <path id="Fill_191" data-name="Fill 191" d="M2.977.1A11.057,11.057,0,0,1,2.3,2.144c-.293.605-.719,1.136-1.01,1.742C.744,5.026.788,6.368.024,7.414c-.093.127.1.274.195.147C1,6.492.953,5.139,1.516,3.979c.31-.637.759-1.2,1.055-1.841A12.1,12.1,0,0,0,3.22.129c.039-.151-.2-.179-.243-.03" transform="translate(32.702 26.407)" fill="#b9bce9"/>
            <path id="Fill_197" data-name="Fill 197" d="M23.337.4a.12.12,0,0,0-.218.021l-8.6.207C11.589.7,8.883-.169,5.977.21c-.638.083-1.5-.3-2.134-.189A3.84,3.84,0,0,0,2.2.442c-.31.261-.238.65-.212,1.009A5.162,5.162,0,0,1,1.8,2.677c-.14.613-.341,1.345-.538,2.02S.875,6,.755,6.387A47.323,47.323,0,0,0,.06,12.339c-.185,1.434.127,9.5,0,11.057a.125.125,0,0,0,.123.122,99.771,99.771,0,0,0,14.758.512c.208-.006.414,0,.617,0,.087,0,.174.007.26.015.857.055,1.7.2,2.561.265a18.335,18.335,0,0,0,3.572-.172c1.156-.146,2.306-.338,3.466-.446a16.174,16.174,0,0,0,3.146-.248c.822-.247,1.653.577,1.564-.3-.058-.575-.512-2.611-.627-3.177a23.739,23.739,0,0,0-.479-2.362q-.958-4.8-1.954-9.589a17.9,17.9,0,0,0-.923-3.652,5.565,5.565,0,0,0-.311-.6,1.616,1.616,0,0,1,0-1A14.2,14.2,0,0,0,26.188.326" transform="translate(6.45 54.955)" fill="#f1f2ff"/>
            <path id="Fill_199" data-name="Fill 199" d="M24.564,1.09c-.155-.259.191-.666,0-1-1.64.061-3.795.549-5.447.387-2.039-.2-2.9-.148-5.993-.324-.558-.032-1.075.279-1.639.236A11.911,11.911,0,0,0,9.9.212C9.372.241,8.857.4,8.33.46A10.131,10.131,0,0,1,6.839.5C4.734.437,2.629.256.538,0,.4.613.2,1.345,0,2.02c.143.015.3,0,.41,0q.842.026,1.683.033c2.246.025,4.493-.027,6.738-.027,2.2,0,4.4.049,6.593.267,1.106.111,2.337-.35,3.445-.274.918.064,1.806.6,2.736.415a28.306,28.306,0,0,0,3.271-.747,5.575,5.575,0,0,0-.311-.6" transform="translate(7.717 57.632)" fill="#33261a"/>
            <path id="Fill_201" data-name="Fill 201" d="M.9.174a30.85,30.85,0,0,1-.89,4.578.185.185,0,0,0,.356.1,31.491,31.491,0,0,0,.9-4.675C1.294-.059.924-.057.9.174" transform="translate(10.44 57.045)" fill="#f1f2ff"/>
            <path id="Fill_203" data-name="Fill 203" d="M1.026,3.557Q.883,2.514.711,1.475C.643,1.072.672.31.325.042.14-.1-.123.156.064.3s.175.6.212.81q.07.4.136.808.14.866.259,1.736c.032.232.388.133.356-.1" transform="translate(27.8 57.447)" fill="#f1f2ff"/>
            <path id="Fill_205" data-name="Fill 205" d="M6.9.1,6.353.165A.2.2,0,0,0,6.076.021C5.935.089,5.8.164,5.667.244L4.89.334c-.233.027-.236.393,0,.366L5.062.68A5.236,5.236,0,0,0,3.709,2.439a5.692,5.692,0,0,0-.489,1.567c-.112.71-.033,1.444-.2,2.146a4.833,4.833,0,0,1-1.144,1.8,5.712,5.712,0,0,0-.86,1.654A28.583,28.583,0,0,0,0,14.077a.186.186,0,0,0,.178.231l1.234-.063a2.675,2.675,0,0,0,.954-.1c.354-.168.327-.48.29-.816-.2-1.764.652-3.23,1.4-4.764a9.933,9.933,0,0,0,.754-1.913,17.189,17.189,0,0,0,.265-2.127A7.365,7.365,0,0,1,7.033.414C7.13.31,7.072.083,6.9.1" transform="translate(10.353 58.771)" fill="#33261a"/>
            <path id="Fill_207" data-name="Fill 207" d="M4.01,2.3H.657A.655.655,0,0,1,0,1.653v-1A.655.655,0,0,1,.657,0H4.01a.655.655,0,0,1,.658.651v1A.656.656,0,0,1,4.01,2.3ZM.657.366A.287.287,0,0,0,.369.651v1a.287.287,0,0,0,.288.286H4.01A.287.287,0,0,0,4.3,1.653v-1A.287.287,0,0,0,4.01.366Z" transform="translate(17.652 57.717)" fill="#fad3b1"/>
            <path id="Fill_209" data-name="Fill 209" d="M1.666,5.933c-.086-.007-.172-.011-.26-.015Q.643,3.051,0,.153C-.031,0,.207-.066.241.088Q.889,3.027,1.666,5.933" transform="translate(20.603 73.072)" fill="#452222"/>
          </g>
        </g>
      </g>
    </g>
  </g>
</svg>
