<svg xmlns="http://www.w3.org/2000/svg" xmlns:xlink="http://www.w3.org/1999/xlink" width="111.793" height="116.461" viewBox="0 0 111.793 116.461">
  <defs>
    <clipPath id="clip-path">
      <path id="Path_87295" data-name="Path 87295" d="M240.22,50.031H336.1L325.136,165.553l-70.544-15.545Z" transform="translate(-240.22 -50.031)" fill="none"/>
    </clipPath>
    <clipPath id="clip-path-2">
      <rect id="Rectangle_4152" data-name="Rectangle 4152" width="11.896" height="5.463" fill="none"/>
    </clipPath>
  </defs>
  <g id="Group_8163" data-name="Group 8163" transform="translate(-236.202 -50.031)">
    <rect id="Rectangle_4151" data-name="Rectangle 4151" width="93.755" height="93.755" rx="19.244" transform="translate(256.453 54.699) rotate(12.474)" fill="#fbe6cc"/>
    <g id="Illustration_Verified-No" data-name="Illustration Verified-No" transform="translate(238.859 50.031)">
      <g id="Girl-5">
        <path id="Mask-4" d="M240.22,50.031H336.1l-9.919,98.525-70.753,7.274Z" transform="translate(-240.22 -50.031)" fill="none"/>
        <g id="Group_8170" data-name="Group 8170" transform="translate(0 0)">
          <g id="Group_8169" data-name="Group 8169" clip-path="url(#clip-path)">
            <g id="Girl-6" transform="translate(15.867 4.629)">
              <g id="Girl-7">
                <g id="Group_3-3" data-name="Group 3-3" transform="translate(3.839 192.043)">
                  <path id="Clip_2-4" data-name="Clip 2-4" d="M270.022,347.458h11.9v5.462h-11.9Z" transform="translate(-270.022 -347.458)" fill="none"/>
                  <g id="Group_8164" data-name="Group 8164" transform="translate(0 0)">
                    <g id="Group_8163-2" data-name="Group 8163" clip-path="url(#clip-path-2)">
                      <g id="Group_3-4" data-name="Group 3-4" transform="translate(0.001 0)">
                        <path id="Fill_1-2" data-name="Fill 1-2" d="M281.849,348.083c-1.077-.68-2.712-.618-3.934-.626a20.409,20.409,0,0,0-4.466.482.147.147,0,0,0-.19-.082l-.008,0c-1.866.869-2.6,2.828-3.222,4.655a.14.14,0,0,0,.1.173,18.281,18.281,0,0,0,7.044-.272c1.005-.212,1.442-.971,2.09-1.7a19.127,19.127,0,0,1,2.618-2.418.14.14,0,0,0,0-.2.128.128,0,0,0-.026-.021" transform="translate(-270.023 -347.458)" fill="#1f2033"/>
                      </g>
                    </g>
                  </g>
                </g>
                <path id="Fill_4-5" data-name="Fill 4-5" d="M326.786,68.344c-.236-.5-.163-2.3-.514-3.84A13.488,13.488,0,0,0,324.795,61a6.563,6.563,0,0,0-1.485-1.937,5.246,5.246,0,0,0-2.472-.934,5.879,5.879,0,0,1-1.928-.685c-2.736-1.192-5.5.428-7.641,2.092a.138.138,0,0,0-.15.093c0,.011-.007.022-.01.032l-.132.1c-.092.073-.038.181.049.217a4.173,4.173,0,0,0,.544,2.332q.727,1.662,1.463,3.323a46.88,46.88,0,0,1,2.744,6.955c.5,1.913.9,3.963,2.248,5.493a6.561,6.561,0,0,0,2.42,1.577,10.568,10.568,0,0,1,2.36,1.747,2.811,2.811,0,0,0,2.44.542,7.437,7.437,0,0,1,4.3.657.141.141,0,0,0,.191-.05,4.53,4.53,0,0,0-.015-3A5.726,5.726,0,0,1,329.5,77.6c.09-.753.584-1.365.713-2.105.209-1.19-.565-2.505-1.116-3.5-.694-1.26-1.7-2.346-2.314-3.644" transform="translate(-280.04 -57.031)" fill="#ab614f"/>
                <path id="Fill_6-3" data-name="Fill 6-3" d="M330.529,85.935a1.838,1.838,0,0,0-.041-1.137,2.772,2.772,0,0,1,.066-2.211,4.38,4.38,0,0,0,.51-1.2,3.549,3.549,0,0,0-.286-1.766.141.141,0,0,0-.275.037,6.72,6.72,0,0,0-2.156,2.224c-.714,1.016-1.353,2.1-2.014,3.148a4.635,4.635,0,0,0-.911,2.278A11.159,11.159,0,0,1,327.7,89.02a2.7,2.7,0,0,0,.669.407c.043-.282.052-.571.071-.727a2.467,2.467,0,0,1,1.143-1.928c.315-.233.776-.46.942-.837" transform="translate(-284.95 -64.651)" fill="#1f2033"/>
                <path id="Fill_8-2" data-name="Fill 8-2" d="M333.859,346.552q-2.291.409-4.557.944c-.733.175-1.466.352-2.191.555a2.608,2.608,0,0,0-1.251.641.144.144,0,0,0-.2.055.142.142,0,0,0,0,.135c.815,1.584,2.761,3.262,4.69,2.874a3.432,3.432,0,0,0,2.022-1.633,13.707,13.707,0,0,0,1.657-3.4c.036-.11-.075-.188-.172-.172" transform="translate(-285.026 -155.108)" fill="#1f2033"/>
                <path id="Fill_10-2" data-name="Fill 10-2" d="M324.386,107.981a1.681,1.681,0,0,0-.243-2.365c-.028-.023-.058-.046-.088-.067a2.7,2.7,0,0,0,.424-.653c.331-.765.181-.512-.4-.778l-4.045-1.71c-.941-.428-2.562-1.2-2.894-2.281,0-.025-.009-.049-.011-.073v-.011a2.331,2.331,0,0,0,0-.508.359.359,0,0,0-.043-.084.112.112,0,0,0-.109-.114h-.019c-.307-.167-.887-.011-1.186-.005q-2.447.066-4.888.27a14.849,14.849,0,0,0-1.514.1.133.133,0,0,0-.223-.052l-.006.006a.128.128,0,0,0-.153.026,10.659,10.659,0,0,1-2.307,2.01c-.981.561-4.6,1.822-5.114,2.07-.265.129-.286.342-.292.626a2.783,2.783,0,0,0,.4.982c.012.024.026.046.038.07a3.5,3.5,0,0,0-.559,2.843c.443,1.892,1.969,3.621,3.1,5.152a69.944,69.944,0,0,1,6.43,9.41,1.462,1.462,0,0,0,.883,1.675A1.592,1.592,0,0,0,314.118,123l1.245-1.978a1.52,1.52,0,0,0,.233-.63,16.633,16.633,0,0,0,2.565-5.21l6.224-7.2" transform="translate(-276.696 -71.337)" fill="#f8a58a"/>
                <path id="Fill_12-2" data-name="Fill 12-2" d="M329.38,127.037c-.206-.776-.4-1.556-.582-2.339q-.509-2.219-.863-4.47c-.241-1.535-.339-3.1-.612-4.629a8.943,8.943,0,0,0-1.51-3.52,18.645,18.645,0,0,0-2.605-3.112c-1.949-1.8-4.625-2.244-7.171-2.552-.192.354-.392.7-.591,1.026-.987,1.641-2.152,3.159-3.259,4.719-1.38,1.945-2.62,3.986-4.016,5.923a61.5,61.5,0,0,1-5.032,6.179.141.141,0,0,1-.2,0c-2.566-2.517-3.816-6.058-5.845-8.972-1.949-2.8-3.816-5.9-4.034-9.361-1.33.538-2.645,1.11-3.933,1.744a37.619,37.619,0,0,0-4.052,2.3,10.8,10.8,0,0,0-3.042,2.721,18.289,18.289,0,0,0-1.882,3.94l-1.9,4.889-1.9,4.889c-.169.43-.685,1.207-.483,1.67.153.35.753.551,1.078.682a14.814,14.814,0,0,1,2.343.981c.694.425,1.34.918,2.059,1.3a11.972,11.972,0,0,0,4.2,1.31,30.6,30.6,0,0,1,0,5.481,9.451,9.451,0,0,0,1.054,5.2c.607,1.186,1.267,2.863,2.8,2.962a17.563,17.563,0,0,0,2.835-.258q1.642-.167,3.285-.3,6.3-.515,12.63-.552c1.9-.011,3.8.084,5.694.044a5.1,5.1,0,0,0,3.769-1.267,5.187,5.187,0,0,0,1.062-2.248c.3-1.113.557-2.237.834-3.355.534-2.156,1.182-4.913,1.73-7.145.194-.054.38-.108.547-.15q2.305-.574,4.608-1.156c.731-.185,1.472-.35,2.2-.559a1.229,1.229,0,0,0,.907-.655,2.223,2.223,0,0,0-.122-1.358" transform="translate(-268.147 -73.596)" fill="#fafbfb"/>
                <path id="Fill_14-2" data-name="Fill 14-2" d="M330.963,159.009a10.618,10.618,0,0,0-1.287-.963,2.357,2.357,0,0,0-.6-.132,2.194,2.194,0,0,1-.917-.463,2.2,2.2,0,0,0-1.416-.425,17.517,17.517,0,0,0-3.581,1.038,11.378,11.378,0,0,1-2.481.4c-.8.032-1.594-.026-2.388.078a15.31,15.31,0,0,0-3.979,1.279.11.11,0,0,0-.087.038l-.076.032c-.165.071-.023.311.141.241l.047-.02a21.332,21.332,0,0,0,3.993.494c1.42.188,2.816.529,4.232.748a24.936,24.936,0,0,0,4.223.271c.727-.011,1.455-.044,2.182-.089.3-.019.629-.019.952-.032a3.226,3.226,0,0,0,.667-.546,4.166,4.166,0,0,0,.84-1.508,1.76,1.76,0,0,0-.469-.443" transform="translate(-281.109 -90.904)" fill="#1f2033"/>
                <path id="Fill_16-2" data-name="Fill 16-2" d="M322.871,221.017c-.34-5.064-1.186-10.084-1.4-15.158-.209-4.918.533-9.732.989-14.613.493-5.277.27-10.339-1.894-15.246-2.232-5.067-4.969-9.952-7.493-14.883a.291.291,0,0,0-.149-.522,94.974,94.974,0,0,0-27.817,2.077.238.238,0,0,0-.2.259.225.225,0,0,0-.036.159c.6,4.782,1.082,9.527-.04,14.276-.961,4.069-2.672,7.906-3.835,11.914a36.07,36.07,0,0,0-1.018,12.824,47.753,47.753,0,0,1,.142,6.829,26.132,26.132,0,0,1-1.521,6.659c-1.332,3.8-3.165,7.461-3.858,11.453-.758,4.364.826,8.492.607,12.834-.375,7.439-6.522,12.974-7.922,20.136-.945,4.834,1.069,9.744-.177,14.539-1.031,3.967-3.746,7.631-2.854,11.9a.279.279,0,0,0,.269.2,159.664,159.664,0,0,1,20.036-.9.283.283,0,0,0,.279-.279,40.59,40.59,0,0,1,1.225-9.811c.783-2.65,2.1-5.1,2.917-7.741,1.773-5.726-.311-11.853,1.953-17.48,1.03-2.56,2.568-4.878,3.632-7.423a23.807,23.807,0,0,0,1.551-7.7,38.7,38.7,0,0,1,1.4-9.367c.471-1.472,1.035-2.909,1.587-4.353a27.1,27.1,0,0,1,.907,5.891,68.5,68.5,0,0,1-.7,8.283c-.551,5.5.259,11-.01,16.51a32.22,32.22,0,0,1-1.587,8.266,19.949,19.949,0,0,0-1.329,7.086c.163,3,1.323,5.836,1.68,8.808a26.3,26.3,0,0,1-.673,9.714.281.281,0,0,0,.269.353,135.908,135.908,0,0,0,15.644-.911c1.334-.157,4.01,0,4.878-1.278.967-1.423.317-4.063.151-5.631a22.636,22.636,0,0,1,.406-7.72c.538-2.318,1.272-4.592,1.6-6.955.654-4.706-.6-9.357-.852-14.041-.277-5.066,1.072-9.947,2.152-14.847a49.342,49.342,0,0,0,1.1-14.111" transform="translate(-264.216 -92.029)" fill="#f6ddc7"/>
                <path id="Fill_18" data-name="Fill 18" d="M288.026,176.316a46.93,46.93,0,0,1-1.5,7.118c-.674,2.308-1.483,4.579-1.99,6.932-1,4.629-.153,9.213.214,13.859a26.833,26.833,0,0,1-.243,7.026,37.593,37.593,0,0,1-1.76,6.063c-1.465,3.994-3.281,7.92-3.949,12.154-.721,4.563.331,9.119.182,13.7s-2.128,8.47-4.077,12.491a36.775,36.775,0,0,0-2.314,5.646,36.015,36.015,0,0,0-1.12,6.719,54.135,54.135,0,0,1-.992,7.313,53.1,53.1,0,0,1-1.987,6.2c-.7,1.9-1.455,3.835-2.037,5.8q3.637-.371,7.29-.575c.008-.049.017-.1.024-.148a59.624,59.624,0,0,0,.591-7.239c.094-2.541.15-5.092.459-7.617a35.37,35.37,0,0,1,1.627-6.986c1.447-4.3,3.461-8.4,4.761-12.755a29.992,29.992,0,0,0,1.226-6.555c.172-2.523.044-5.052-.023-7.576a39.244,39.244,0,0,1,.363-7.764,36.33,36.33,0,0,1,1.994-6.714c.839-2.193,1.76-4.358,2.5-6.589a36.734,36.734,0,0,0,1.738-14.58,50.317,50.317,0,0,1-.413-7.666,49.129,49.129,0,0,1,1.546-7.406,43.547,43.547,0,0,0,1.015-7.26,86.857,86.857,0,0,0-.721-15.064c-.086-.745-.179-1.489-.27-2.234q-1.154.2-2.3.433a47.013,47.013,0,0,1,.175,13.278" transform="translate(-264.972 -92.795)" fill="#38539a"/>
                <path id="Fill_20" data-name="Fill 20" d="M297.487,161.8c-.292,4.146.31,8.293.661,12.425a43.5,43.5,0,0,1,.147,6.877,30.991,30.991,0,0,1-1.536,7.054,23.351,23.351,0,0,0-1.363,6.665,39.141,39.141,0,0,0,.807,6.818,28.146,28.146,0,0,1,.368,6.943,37.854,37.854,0,0,1-1.19,6.494c-1.1,4.171-2.638,8.213-3.708,12.392a38.3,38.3,0,0,0-1.107,6.164,66.827,66.827,0,0,0,.029,7.151,23.049,23.049,0,0,1-.9,7.176c-.639,2.134-1.521,4.184-2.324,6.259a34.659,34.659,0,0,0-1.918,6.66c-.391,2.289-.569,4.606-.814,6.912a46.754,46.754,0,0,1-1.222,7c-.582,2.211-1.311,4.38-2.013,6.556-.529,1.634-1.052,3.293-1.483,4.973,1.4-.066,2.793-.1,4.191-.132.956-3.76.793-7.708.968-11.56a34.778,34.778,0,0,1,.992-7.31,47.8,47.8,0,0,1,2.263-6.357c1.725-4.1,3.671-8.133,4.53-12.53.915-4.681.8-9.474,1.133-14.211a44.78,44.78,0,0,1,1.063-7.243c.541-2.271,1.248-4.5,1.953-6.724,1.356-4.282,2.73-8.631,2.886-13.159.17-4.945-.881-9.839-.415-14.789.454-4.824,1.812-9.55,1.79-14.42-.022-4.761-1.6-9.327-1.877-14.06a20.746,20.746,0,0,1,0-2.295q-.962.128-1.912.27" transform="translate(-269.537 -92.43)" fill="#3a3a3a"/>
                <path id="Fill_22" data-name="Fill 22" d="M307.69,202.7c-.3-4.582-1.065-9.2-.491-13.793.331-2.65,1.35-5.122,1.852-7.733a14.281,14.281,0,0,0-.389-6.653,43.7,43.7,0,0,1-1.918-8.035,23.037,23.037,0,0,1,.223-5.55c-.286.026-.571.052-.856.08a24.1,24.1,0,0,0,.641,10.1c.671,2.37,1.653,4.715,1.719,7.208.071,2.423-.775,4.724-1.4,7.029-2.453,9.037,1.436,18.334-.92,27.37-1.13,4.333-3.213,8.34-4.492,12.624-1.342,4.5-1.031,9.014-1.37,13.632-.348,4.732-2.195,9.041-3.811,13.442a42.333,42.333,0,0,0-2.532,13.281,82.834,82.834,0,0,1-.641,8.488c-.367,2.573-.86,5.126-1.264,7.693-.213,1.353-.4,2.711-.529,4.072.264,0,.526.006.788.008.529-5.705,2.071-11.445,2.357-17.093.249-4.926.386-9.647,1.973-14.37,1.406-4.186,3.345-8.223,4.135-12.6.836-4.625.132-9.38,1.1-13.988.907-4.309,2.9-8.271,4.317-12.418a32.192,32.192,0,0,0,1.505-12.8" transform="translate(-273.463 -92.229)" fill="#e3a780"/>
                <path id="Fill_24" data-name="Fill 24" d="M318.921,172.094a56.135,56.135,0,0,1,1.03,6.846,24.22,24.22,0,0,1-.565,7.018,56.216,56.216,0,0,0-1.279,6.862,33.94,33.94,0,0,0,.08,7.185c.278,2.365.71,4.695.756,7.085a44.729,44.729,0,0,1-.556,7.489c-.364,2.431-.824,4.852-1.346,7.258l.1-.264a29.153,29.153,0,0,1,.875,5.149,19.558,19.558,0,0,0,1.7-5.768,43.9,43.9,0,0,1,1.686-7.02,21.56,21.56,0,0,0,1-3.589,14.261,14.261,0,0,0,.053-3.62,59.206,59.206,0,0,1-.692-7.97,28.059,28.059,0,0,1,1.442-7.592,20.6,20.6,0,0,0,1.434-7.156,33.394,33.394,0,0,0-1.6-7.29c-1.463-5.338-1.687-10.872-1.793-16.376q-1.782.055-3.566.177c-.291,3.894.5,7.758,1.246,11.574" transform="translate(-282.111 -92.028)" fill="#38539a"/>
                <path id="Fill_26" data-name="Fill 26" d="M329.258,192.291a68.239,68.239,0,0,0,.6-6.855c.015-4.008-1.33-7.789-2.665-11.515-1.295-3.621-2.713-7.424-2.452-11.339a12.633,12.633,0,0,1,.356-2.228c-.867-.024-1.735-.039-2.605-.039-1.244,7.791,3.6,15.128,3.825,22.866.132,4.629-1.016,9.186-.959,13.814.029,2.336.46,4.632.691,6.951a21.889,21.889,0,0,1-.271,6.449c-.794,4.027-2.523,7.783-3.934,11.614a39.815,39.815,0,0,0-1.752,5.89,42.852,42.852,0,0,0-.661,6.266,62.058,62.058,0,0,1-.547,6.726,21.756,21.756,0,0,1-2.045,6.245c-.282.568-.569,1.131-.853,1.7.016,1.148.008,2.3-.048,3.444a32.224,32.224,0,0,1-1.587,8.266,19.947,19.947,0,0,0-1.329,7.085c.147,2.749,1.132,5.363,1.568,8.074a87.857,87.857,0,0,1,3.448-11.338,83.708,83.708,0,0,0,4.258-12.894c.9-4.459,1.1-8.993,1.672-13.489A46.928,46.928,0,0,1,325.33,231c.587-2.054,1.333-4.058,2.082-6.057,1.471-3.928,2.992-7.923,3.278-12.148.313-4.613-.957-9.116-1.455-13.667a32.012,32.012,0,0,1,.022-6.841" transform="translate(-280.743 -92.019)" fill="#e3a780"/>
                <path id="Fill_28" data-name="Fill 28" d="M334.2,195.87c.164-2.29.522-4.563.62-6.858.215-5.039-1.49-9.654-3.22-14.3-1.686-4.527-3.285-9.361-2.417-14.184-.282-.017-.565-.027-.847-.041-1.438,8.157,3.827,15.631,5.3,23.481.9,4.8-.407,9.479-.366,14.283.04,4.66,1.485,9.148,1.9,13.768.774,8.728-2.7,16.988-5.152,25.178a63.422,63.422,0,0,0-2.476,12.27c-.449,4.722-.751,9.39-2.508,13.852-1.845,4.686-4.158,9.05-5.484,13.944a94.082,94.082,0,0,0-1.946,9.292c.283,0,.566-.011.849-.016.409-2.455.872-4.9,1.461-7.321a72.031,72.031,0,0,1,4.688-12.784,38.82,38.82,0,0,0,3.353-12.284,89.384,89.384,0,0,1,2.007-13.673c2.116-8.067,5.693-15.876,6.122-24.3.222-4.364-.772-8.549-1.471-12.828a31.836,31.836,0,0,1-.411-7.475" transform="translate(-282.302 -92.077)" fill="#38539a"/>
                <path id="Fill_30" data-name="Fill 30" d="M344.028,217.44c-.5-3.79-1.1-7.572-1.369-11.389a62.666,62.666,0,0,1,.724-12.781c.644-4.913-.427-9.39-1.565-14.143l-1.322-5.533c-1.592-3.264-3.321-6.474-5-9.692a45.128,45.128,0,0,0,2.236,10.438c1.439,4.174,3.354,7.9,2.964,12.449-.183,2.14-.649,4.245-.868,6.381a43.817,43.817,0,0,0-.109,6.845c.241,4.42.952,8.795,1.377,13.2a49.861,49.861,0,0,1-.32,13.469c-.707,4.045-1.859,7.992-2.843,11.974a61.858,61.858,0,0,0-1.889,12.272,42.518,42.518,0,0,1-2.314,13.03c-2.691,7.446-7.043,15.353-5.451,23.408q2.02-.132,4.034-.327c1.576-6.541,5-12.525,6.858-19a45.208,45.208,0,0,0,1.389-12.28,54.677,54.677,0,0,1,.985-10.707c.434-2.945,1.169-5.855,1.812-8.771a49.3,49.3,0,0,0,1.1-14.108c-.106-1.582-.264-3.16-.434-4.737" transform="translate(-285.803 -93.234)" fill="#3a3a3a"/>
                <path id="Fill_38" data-name="Fill 38" d="M325.984,166.872a11.526,11.526,0,0,0-.676-1.521,4.4,4.4,0,0,0-.838-1.272,1.426,1.426,0,0,0-1.075-.2c-.731.034-1.462.077-2.193.118q-4.387.253-8.76.641-8.632.766-17.2,2.057a.114.114,0,0,0-.1.124.115.115,0,0,0,.007.03.152.152,0,0,0-.2.073.158.158,0,0,0-.013.046q-.187,1.839-.2,3.686a.141.141,0,0,0,.14.14,34.935,34.935,0,0,0,7.713-1.051q4.018-.762,8.074-1.3,3.937-.518,7.9-.819,2.05-.156,4.1-.253a8.913,8.913,0,0,0,3.265-.344.139.139,0,0,0,.066-.157" transform="translate(-274.553 -93.216)" fill="#f6ddc7"/>
                <path id="Fill_40" data-name="Fill 40" d="M301.526,292.272a18.229,18.229,0,0,0-2.259,2.2c-1.136,1.346-1.723,3-2.751,4.411-1.73,2.375-4.495,4-5.426,6.911-.05.154.173.239.255.108a11.377,11.377,0,0,1,1.523-2.077,5.863,5.863,0,0,1,2.433-1.3c1.464-.518,1.95-1.708,2.767-2.913A6.961,6.961,0,0,1,299.3,298.3a14.687,14.687,0,0,1,.86-3.149c.4-.988.871-1.94,1.364-2.883" transform="translate(-273.318 -136.72)" fill="#1f2033"/>
                <path id="Fill_42" data-name="Fill 42" d="M317.566,247.182c2.073-1.635,2.327-4.484,3.48-6.716.8-1.543,1.863-2.927,2.638-4.489a26.331,26.331,0,0,0,1.813-4.808.14.14,0,0,0-.255-.108c-3.256,4.479-6.567,9.107-8.043,14.508q.2.8.368,1.612" transform="translate(-282.164 -115.962)" fill="#1f2033"/>
                <path id="Fill_44" data-name="Fill 44" d="M279.717,321.446a10.429,10.429,0,0,1-2.4,2.909c-.845.708-1.745,1.329-2.521,2.116a13.726,13.726,0,0,0-3.169,5.158c-.059.17.211.243.269.074a13.382,13.382,0,0,1,3.579-5.5c.823-.755,1.772-1.358,2.579-2.132a10.7,10.7,0,0,0,1.9-2.486.14.14,0,0,0-.241-.143h0" transform="translate(-266.724 -146.58)" fill="#1f2033"/>
                <path id="Fill_46" data-name="Fill 46" d="M344.829,282.931q-2.51,3.518-4.91,7.114c-.1.149.142.29.241.141q2.4-3.595,4.91-7.114c.1-.146-.138-.286-.241-.141" transform="translate(-289.853 -133.535)" fill="#1f2033"/>
                <path id="Fill_88" data-name="Fill 88" d="M294.277,152.532a.7.7,0,1,0,.667.667.7.7,0,0,0-.667-.667" transform="translate(-274.173 -89.383)" fill="#3a3a3a"/>
                <path id="Fill_90" data-name="Fill 90" d="M325.509,156.225a.7.7,0,1,0,.667.667.7.7,0,0,0-.667-.667" transform="translate(-284.753 -90.634)" fill="#3a3a3a"/>
                <g id="Group_8165" data-name="Group 8165" transform="translate(12.179 34.055)">
                  <path id="Fill_32" data-name="Fill 32" d="M292.413,130.345a19.2,19.2,0,0,0-1.918,10.088c.015.178.294.179.279,0a18.932,18.932,0,0,1,1.881-9.947c.079-.161-.161-.3-.242-.141" transform="translate(-285.275 -115.898)" fill="#1f2033"/>
                  <path id="Fill_34" data-name="Fill 34" d="M343.974,133.329c-.025-.177-.294-.1-.271.074a61.418,61.418,0,0,1,.542,6.288c.007.179.286.18.279,0a62.109,62.109,0,0,0-.55-6.362" transform="translate(-303.322 -116.899)" fill="#1f2033"/>
                  <path id="Fill_48" data-name="Fill 48" d="M311.581,138.077a.7.7,0,1,0,.667.667.7.7,0,0,0-.667-.667" transform="translate(-292.214 -118.541)" fill="#3a3a3a"/>
                  <path id="Fill_50" data-name="Fill 50" d="M284.147,133.751a.7.7,0,1,0,.667.667.7.7,0,0,0-.667-.667" transform="translate(-282.921 -117.076)" fill="#3a3a3a"/>
                  <path id="Fill_52" data-name="Fill 52" d="M298.075,135.967a.7.7,0,1,0,.667.667.7.7,0,0,0-.667-.667" transform="translate(-287.639 -117.826)" fill="#3a3a3a"/>
                  <path id="Fill_54" data-name="Fill 54" d="M327.2,139.87a.7.7,0,1,0,.667.667.7.7,0,0,0-.667-.667" transform="translate(-297.504 -119.149)" fill="#3a3a3a"/>
                  <path id="Fill_56" data-name="Fill 56" d="M340.491,141.981a.7.7,0,1,0,.667.667.7.7,0,0,0-.667-.667" transform="translate(-302.008 -119.864)" fill="#3a3a3a"/>
                  <path id="Fill_58" data-name="Fill 58" d="M321.288,130.691a.7.7,0,1,0,.667.667.7.7,0,0,0-.667-.667" transform="translate(-295.503 -116.039)" fill="#3a3a3a"/>
                  <path id="Fill_60" data-name="Fill 60" d="M334.794,132.59a.7.7,0,1,0,.667.667.7.7,0,0,0-.667-.667" transform="translate(-300.078 -116.682)" fill="#3a3a3a"/>
                  <path id="Fill_62" data-name="Fill 62" d="M348.932,134.384a.7.7,0,1,0,.667.667.7.7,0,0,0-.667-.667" transform="translate(-304.867 -117.29)" fill="#3a3a3a"/>
                  <path id="Fill_64" data-name="Fill 64" d="M307.466,128.158a.7.7,0,1,0,.667.667.7.7,0,0,0-.667-.667" transform="translate(-290.82 -115.181)" fill="#3a3a3a"/>
                  <path id="Fill_66" data-name="Fill 66" d="M294.382,125.521a.7.7,0,1,0,.667.667.7.7,0,0,0-.667-.667" transform="translate(-286.388 -114.288)" fill="#3a3a3a"/>
                  <path id="Fill_68" data-name="Fill 68" d="M283.3,121.933a.7.7,0,1,0,.667.667.7.7,0,0,0-.667-.667" transform="translate(-282.635 -113.072)" fill="#3a3a3a"/>
                  <path id="Fill_70" data-name="Fill 70" d="M303.562,118.24a.7.7,0,1,0,.667.667.7.7,0,0,0-.667-.667" transform="translate(-289.498 -111.821)" fill="#3a3a3a"/>
                  <path id="Fill_72" data-name="Fill 72" d="M328.041,121.933a.7.7,0,1,0,.667.667.7.7,0,0,0-.667-.667" transform="translate(-297.79 -113.072)" fill="#3a3a3a"/>
                  <path id="Fill_74" data-name="Fill 74" d="M343.762,125.309a.7.7,0,1,0,.667.667.7.7,0,0,0-.667-.667" transform="translate(-303.116 -114.216)" fill="#3a3a3a"/>
                  <path id="Fill_76" data-name="Fill 76" d="M291.533,113.281a.7.7,0,1,0,.667.667.7.7,0,0,0-.667-.667" transform="translate(-285.423 -110.141)" fill="#3a3a3a"/>
                  <path id="Fill_78" data-name="Fill 78" d="M303.034,145.252a.7.7,0,1,0,.667.667.7.7,0,0,0-.667-.667" transform="translate(-289.319 -120.972)" fill="#3a3a3a"/>
                  <path id="Fill_80" data-name="Fill 80" d="M290.056,140.609a.7.7,0,1,0,.667.667.7.7,0,0,0-.667-.667" transform="translate(-284.923 -119.399)" fill="#3a3a3a"/>
                  <path id="Fill_82" data-name="Fill 82" d="M319.072,147.995a.7.7,0,1,0,.667.667.7.7,0,0,0-.667-.667" transform="translate(-294.752 -121.901)" fill="#3a3a3a"/>
                  <path id="Fill_84" data-name="Fill 84" d="M335.11,149.788a.7.7,0,1,0,.667.667.7.7,0,0,0-.667-.667" transform="translate(-300.185 -122.508)" fill="#3a3a3a"/>
                  <path id="Fill_86" data-name="Fill 86" d="M309.787,154.748a.7.7,0,1,0,.667.667.7.7,0,0,0-.667-.667" transform="translate(-291.607 -124.189)" fill="#3a3a3a"/>
                  <path id="Fill_92" data-name="Fill 92" d="M337.115,115.6a.7.7,0,1,0,.667.667.7.7,0,0,0-.667-.667" transform="translate(-300.864 -110.928)" fill="#3a3a3a"/>
                  <path id="Fill_94" data-name="Fill 94" d="M347.244,114.653a.7.7,0,1,0,.667.667.7.7,0,0,0-.667-.667" transform="translate(-304.295 -110.606)" fill="#3a3a3a"/>
                  <path id="Fill_96" data-name="Fill 96" d="M298.286,108.533a.7.7,0,1,0,.667.667.7.7,0,0,0-.667-.667" transform="translate(-287.711 -108.533)" fill="#3a3a3a"/>
                </g>
                <path id="Fill_98" data-name="Fill 98" d="M299.646,160.2a10.22,10.22,0,0,0-3.151-.546.14.14,0,0,0,0,.279,9.948,9.948,0,0,1,3.074.536c.171.058.243-.212.074-.269" transform="translate(-275.104 -91.795)" fill="#1f2033"/>
                <path id="Fill_100" data-name="Fill 100" d="M307.181,60.467c-.085-.048.841-.79.29-.686a6.8,6.8,0,0,0-5.077,1.863c-1.428,1.412-1.043,3.6-1.711,5.348-.78,2.039-2.427,3.6-3.232,5.634a5.449,5.449,0,0,0-.381,2.738c.077.586.235,1.155.337,1.736a6.911,6.911,0,0,1,0,2.226,11.915,11.915,0,0,0-.254,3.331c.066.481.149,1.587.693,1.792.284.106.525-.1.754-.244a3.769,3.769,0,0,1,1.76-.616c1.179-.109,2.351.184,3.53.132a7.34,7.34,0,0,0,2.858-.708c.882-.423,1.058-1.021,1.19-1.957.331-2.3-.21-4.594-.451-6.873-.3-2.818.293-5.488.7-8.261.272-1.857.9-4.373-1.006-5.456" transform="translate(-275.333 -57.959)" fill="#ab614f"/>
                <path id="Fill_102" data-name="Fill 102" d="M320.987,80.68c-.072-.992-.209.889-1.527.809a10.949,10.949,0,0,0-2.9.735l-3.291.86.009-.579c.009-.537-1.045-.9-1.054-.362-.029,1.764-.165,7.347-.15,11.494.007,1.91.107,3.5.159,4.3.106,1.671,1.719,1.252,2.949,1.218,1.011-.027,2.02-.1,3.025-.224.661-.079,1.773-.016,2.267-.606.473-.566.315-1.631.337-2.3.043-1.276.361-12.8.175-15.341" transform="translate(-280.429 -64.944)" fill="#f8a58a"/>
                <path id="Fill_104" data-name="Fill 104" d="M311.495,88.97a10.926,10.926,0,0,0,.1-1.6,3.8,3.8,0,0,0-.258-.975,27.834,27.834,0,0,0-1.587-2.909,2.149,2.149,0,0,0,.136-.173c.105-.145-.137-.285-.241-.141-.719,1-3.217,2.226-1.633,3.649a1.838,1.838,0,0,1,.674,1.517,2.485,2.485,0,0,0,.052,1.124c.14.286.379.345.629.5a1.684,1.684,0,0,1,.747,1.058c.066-.028.132-.056.194-.087.881-.423,1.058-1.021,1.19-1.957" transform="translate(-278.878 -65.867)" fill="#1f2033"/>
                <path id="Fill_106" data-name="Fill 106" d="M320.977,92.908c.02-1.038.066-2.191.079-3.211a8.6,8.6,0,0,0-1.557.922c-2.228,1.259-4.818-1.068-7.4-1.289V93c1.749.943,3.483,2.09,5.564,1.5a18.588,18.588,0,0,0,3.111-1.5c.057-.028.139-.073.2-.1" transform="translate(-280.436 -67.972)" fill="#f1805b"/>
                <path id="Fill_108" data-name="Fill 108" d="M320.8,63.726a10.316,10.316,0,0,0-7.11-.829,8.876,8.876,0,0,0-4.99,2.4c-.066-.416-.794-.482-.842-.007-.5,4.529-.536,9.624,1.315,13.866.736,1.688,4.048,3.47,5.621,4.586,1.51,1.072,2.5.772,3.882-.261,2.558-1.907,3.795-4.712,4.629-8.437.748-3.348.976-9.361-2.5-11.322" transform="translate(-278.903 -58.919)" fill="#f8a58a"/>
                <path id="Fill_4-6" data-name="Fill 4-6" d="M314.618,75.084a2.678,2.678,0,0,0-.618.085,2.246,2.246,0,0,0-.561.23,1.614,1.614,0,0,0-.472.4,1.811,1.811,0,0,0-.307.647,1.361,1.361,0,0,1,.661-1.351,1.38,1.38,0,0,1,.646-.185,1.131,1.131,0,0,1,.65.169" transform="translate(-280.623 -63.089)" fill="#2c2c2c"/>
                <path id="Fill_4-7" data-name="Fill 4-7" d="M326.124,75.485a2.7,2.7,0,0,1,.618-.089,2.232,2.232,0,0,1,.6.065,1.63,1.63,0,0,1,.566.259,1.8,1.8,0,0,1,.473.537,1.361,1.361,0,0,0-.366-.741,1.347,1.347,0,0,0-.641-.375,1.375,1.375,0,0,0-.672,0,1.13,1.13,0,0,0-.578.342" transform="translate(-285.188 -63.152)" fill="#2c2c2c"/>
                <path id="Fill_110" data-name="Fill 110" d="M331.775,78.554c-.323-1.1-1.5-.771-1.961-.159-.813.6-.74,2.478-.7,3.382.017.418-.009.936.424,1.084.45.153.985-.247,1.284-.553a4.191,4.191,0,0,0,.955-3.753" transform="translate(-286.193 -64.077)" fill="#f8a58a"/>
                <path id="Fill_112" data-name="Fill 112" d="M306.75,82.2c.321.341.9.793,1.412.647.49-.141.482-.7.519-1.145.079-.971.163-2.94-.719-3.618-.485-.674-1.717-1.118-2.123.05a4.37,4.37,0,0,0,.911,4.067" transform="translate(-278.26 -63.933)" fill="#f58c77"/>
                <path id="Fill_114" data-name="Fill 114" d="M315.631,78.525c0,.574-.243,1.041-.553,1.043s-.563-.462-.567-1.035.243-1.043.553-1.043.563.463.567,1.036" transform="translate(-281.254 -63.961)" fill="#1f2033"/>
                <path id="Fill_116" data-name="Fill 116" d="M326.926,78.332c-.011.574-.27,1.034-.579,1.029s-.551-.476-.54-1.05.27-1.035.58-1.029.551.476.54,1.05" transform="translate(-285.08 -63.891)" fill="#1f2033"/>
                <path id="Fill_118" data-name="Fill 118" d="M331.774,79.868c-.122-.459-.427-.686-.81-.262a.834.834,0,0,0-.189.687,1.473,1.473,0,0,1-.331,1.276c-.12.132.072.335.193.2a1.657,1.657,0,0,0,.444-.9,1.8,1.8,0,0,0,0-.454.814.814,0,0,1,.033-.538c.176-.3.331-.174.393.062a.139.139,0,0,0,.27-.066" transform="translate(-286.639 -64.602)" fill="#f1805b"/>
                <path id="Fill_120" data-name="Fill 120" d="M307.663,80.962a.765.765,0,0,1-.372-.505c-.043-.207.093-.4.117-.6a1.086,1.086,0,0,0-.132-.667c-.214-.37-.622-.456-.825-.02-.075.161.162.307.238.145q.33-.145.383.109a.411.411,0,0,1,.054.2,1.045,1.045,0,0,1-.066.45.855.855,0,0,0-.038.457,1.035,1.035,0,0,0,.5.674c.159.083.3-.155.145-.238" transform="translate(-278.518 -64.431)" fill="#c86959"/>
                <path id="Fill_122" data-name="Fill 122" d="M308.372,83.519c-.136-.116-.335.081-.2.2a2.932,2.932,0,0,1,.912,2.969,1.5,1.5,0,0,1-2.575.77c-.113-.14-.309.059-.2.2a1.7,1.7,0,0,0,2.769-.295,3.1,3.1,0,0,0-.709-3.841" transform="translate(-278.465 -65.992)" fill="#f6ddc7"/>
                <path id="Fill_124" data-name="Fill 124" d="M320.118,83.348a4.1,4.1,0,0,1-.517-.032.153.153,0,0,1-.132-.165.112.112,0,0,1,.11-.115h.024a4.108,4.108,0,0,0,.518.032h.04a.132.132,0,0,1,.132.132v0a.133.133,0,0,1-.121.143h-.054Zm.793-.014a.116.116,0,0,1-.12-.111v-.007a.149.149,0,0,1,.132-.161l.046,0c.463-.044.8-.076.992-.585a1.564,1.564,0,0,0-.09-.864c-.013-.046-.026-.089-.036-.129-.05-.183-.107-.366-.163-.543a8.441,8.441,0,0,1-.249-.907.131.131,0,0,1,.028-.116.162.162,0,0,1,.12-.057.118.118,0,0,1,.121.1,7.682,7.682,0,0,0,.247.868,3.6,3.6,0,0,1,.268,1.879c-.123.553-.585.587-1.073.622-.069,0-.141.01-.211.017Z" transform="translate(-282.933 -64.76)" fill="#f1805b"/>
                <path id="Fill_130" data-name="Fill 130" d="M322.407,66.5c-.19-.585-1.125-.7-1.638-.835a14.383,14.383,0,0,0-2.473-.431,18.616,18.616,0,0,0-5.609.413c-1.421.312-2.892.836-3.522,2.261a14.6,14.6,0,0,0-.771,2.623c-.2.893-.295,2.033-1.2,2.5-.159.083-.019.323.141.241,1.124-.583,1.183-2.093,1.455-3.179a7.918,7.918,0,0,1,.913-2.589,3.88,3.88,0,0,1,2.129-1.354,17.352,17.352,0,0,1,4.854-.7,15.706,15.706,0,0,1,2.683.2c.407.066.811.152,1.21.255.359.093,1.442.3,1.563.671.056.17.325.1.269-.074" transform="translate(-278.75 -59.791)" fill="#414f39"/>
                <path id="Fill_132" data-name="Fill 132" d="M328.3,66.475c-.066-1.843-.435-3.8-1.954-5.013a8.225,8.225,0,0,0-5.486-1.391,2.283,2.283,0,0,0-1.828,1.051c-.448.671-.126,1.686-.042,2.422a.146.146,0,0,0,.118.127.125.125,0,0,0,.129.1c2.381-.023,5.23-.28,6.753,1.924a7.081,7.081,0,0,1,1.09,3.357c.083.837-.123,1.934.387,2.658a.142.142,0,0,0,.194.048.181.181,0,0,0,.025-.02,2.678,2.678,0,0,0,.661-1.922c.032-1.109-.005-2.235-.046-3.343" transform="translate(-282.708 -58.055)" fill="#ab614f"/>
                <path id="Fill_134" data-name="Fill 134" d="M322.42,70.512a19.435,19.435,0,0,0-.125-2.148c-.132-1.219-.344-2.431-.577-3.637a2.546,2.546,0,0,0-1.455-2.041,7.092,7.092,0,0,0-5.448.019.107.107,0,0,0-.141-.055l-.006,0c-.036.015-.073.028-.11.042l-.058-.017c-.322-.2-.669-.36-.986-.571l-.023-.017a2.37,2.37,0,0,0-.353-1.408c-.514-.727-1.6-.631-2.376-.529-2.272.294-3.737,1.781-5.172,3.434a14.4,14.4,0,0,0-2.036,2.83,17.592,17.592,0,0,0-1.143,3.294,15.576,15.576,0,0,0-.8,6.759,6.942,6.942,0,0,0,1.247,3.034,10.8,10.8,0,0,0,2.962,2.437.14.14,0,0,0,.169-.022c1.088-1.195.727-2.777.86-4.244a8.738,8.738,0,0,1,.94-2.615,6.843,6.843,0,0,0,.469-2.564,11.306,11.306,0,0,1,1.149-5.6,6.394,6.394,0,0,1,4.114-3.121l.015-.007.074,0c.356,1.967,3.334,1.764,4.319,3.251.567.86.437,2.032,1.069,2.822a2.955,2.955,0,0,0,.907.678,4.193,4.193,0,0,1,1.3,1c.313.375.768.543,1.058.032a2.111,2.111,0,0,0,.159-1.037" transform="translate(-276.843 -58.065)" fill="#ab614f"/>
                <path id="Fill_136" data-name="Fill 136" d="M329.967,83.8c-.136-.116-.335.081-.2.2a2.932,2.932,0,0,1,.912,2.969,1.5,1.5,0,0,1-2.575.77c-.113-.14-.309.059-.2.2a1.7,1.7,0,0,0,2.769-.295,3.1,3.1,0,0,0-.709-3.841" transform="translate(-285.781 -66.088)" fill="#f6ddc7"/>
                <path id="Fill_138" data-name="Fill 138" d="M323.062,179.605a5.1,5.1,0,0,0-2.892-2.371,9.631,9.631,0,0,0-4.281-.76c.031-.118.059-.237.091-.354a.14.14,0,0,0-.269-.077h0a30.736,30.736,0,0,0-1.1,8.7q.02,1.042.112,2.081a7.941,7.941,0,0,0,.265,1.866c.3.837,1.181.578,1.735.173a6,6,0,0,1,1.688-.973c.6-.2,1.24-.257,1.84-.459,1.147-.386,1.475-1.272,2.2-2.132.357-.424.918-.6,1.256-1.026a1.878,1.878,0,0,0,.331-1.19,9.909,9.909,0,0,0-.973-3.477" transform="translate(-281.285 -97.313)" fill="#1f2033"/>
                <path id="Fill_140" data-name="Fill 140" d="M323.97,177.574a17.052,17.052,0,0,0-.843-3.818c-.4-1.307-.8-2.615-1.27-3.9a9.98,9.98,0,0,0-1.607-3.294,1.935,1.935,0,0,0-2.3-.469.144.144,0,0,0-.2-.046l-.018.014c-2.73,2.394-2.66,6.808-2.883,10.128q-.115,1.72-.17,3.438a11.835,11.835,0,0,0,.035,2.873c.307,1.377,1.987,1.43,2.993.692.71-.52.454-1.483.475-2.242a12.77,12.77,0,0,1,.6-3.471,19.772,19.772,0,0,0,.216,1.984c.145.877.356,1.759,1.426,1.682a5.385,5.385,0,0,0,2.6-.979,2.776,2.776,0,0,0,.945-2.59" transform="translate(-281.288 -93.911)" fill="#38539a"/>
                <path id="Fill_142" data-name="Fill 142" d="M320.344,165.174c-.009-.177-.288-.178-.279,0q.227,4.431.194,8.861a.139.139,0,1,0,.279,0q.034-4.43-.194-8.861" transform="translate(-283.135 -93.62)" fill="#1f2033"/>
                <path id="Fill_144" data-name="Fill 144" d="M322.682,179.366c-.355-1.8-.9-3.575-1.354-5.351a.14.14,0,0,0-.269.074h0l1.065,4.143a12.181,12.181,0,0,1,.407,2.015c.048.58.175,1.78-.43,2.129a.14.14,0,0,0,.141.241c.942-.543.61-2.392.44-3.251" transform="translate(-283.47 -96.626)" fill="#1f2033"/>
                <path id="Fill_146" data-name="Fill 146" d="M316.481,166.5q-.252.936-.445,1.885c-.035.175.234.251.269.074q.193-.948.445-1.885a.14.14,0,0,0-.269-.074h0" transform="translate(-281.77 -94.081)" fill="#1f2033"/>
                <path id="Fill_148" data-name="Fill 148" d="M325.83,174.8c-.345-1.633-.209-3.354-.948-4.888-.078-.161-.319-.02-.241.141.727,1.5.585,3.219.92,4.82.344,1.639,1.26,3.131,1.444,4.8.019.177.3.179.279,0-.186-1.7-1.1-3.208-1.453-4.875" transform="translate(-284.68 -95.246)" fill="#1f2033"/>
                <path id="Fill_150" data-name="Fill 150" d="M317.707,63.1c-.377-.4-.865,0-1.1.331-.323.452-.419.958-.941,1.265a3.29,3.29,0,0,0-.835.661,2.39,2.39,0,0,0-.626,1.783,6.283,6.283,0,0,1,3.63-2.4l.015-.006h.042c.066-.569.143-1.293-.184-1.636" transform="translate(-281.147 -59.031)" fill="#1f2033"/>
                <path id="Fill_152" data-name="Fill 152" d="M320.891,61.518a1.9,1.9,0,0,0-1.762-.558c-.176.034-.1.3.074.269a1.611,1.611,0,0,1,1.491.487c.124.132.321-.066.2-.2" transform="translate(-282.784 -58.349)" fill="#1f2033"/>
                <path id="Fill_154" data-name="Fill 154" d="M337.2,89.985h0l-.087-.031c-.059-.021-.12-.043-.181-.063a4.422,4.422,0,0,0,.285-1.833,6.944,6.944,0,0,0-.29-1.425,7.338,7.338,0,0,1-.284-1.349,3.209,3.209,0,0,1,.413-1.694,6.945,6.945,0,0,0,.335-.824,2.719,2.719,0,0,0-.795-2.8.121.121,0,0,1-.036-.138.156.156,0,0,1,.14-.1.131.131,0,0,1,.093.038,3.01,3.01,0,0,1,1,2.164,3.647,3.647,0,0,1-.442,1.582,3.694,3.694,0,0,0-.439,1.531,6.443,6.443,0,0,0,.3,1.653,6.016,6.016,0,0,1,.3,1.8,4.748,4.748,0,0,1-.3,1.481Zm-1.205-.317h0c-.087-.013-.18-.03-.273-.042a8.57,8.57,0,0,0-.021-2.954.116.116,0,0,1,.024-.093.136.136,0,0,1,.1-.04.153.153,0,0,1,.157.132,8.847,8.847,0,0,1,.015,3Z" transform="translate(-288.431 -64.722)" fill="#1f2033"/>
                <path id="Fill_156" data-name="Fill 156" d="M312.5,64.135a5.719,5.719,0,0,0-1.5,2.652.14.14,0,1,0,.269.074,5.421,5.421,0,0,1,1.425-2.529.14.14,0,0,0-.2-.2" transform="translate(-280.064 -59.423)" fill="#1f2033"/>
                <path id="Fill_158" data-name="Fill 158" d="M332.208,74.322a5.692,5.692,0,0,1-1.71-1.775c-.1-.153-.337-.013-.243.141a6.035,6.035,0,0,0,1.812,1.876c.15.1.29-.142.141-.241" transform="translate(-286.58 -62.265)" fill="#1f2033"/>
                <path id="Fill_160" data-name="Fill 160" d="M304.525,92.068h0l-.139-.013-.14-.013a3.874,3.874,0,0,1,.028-.712,3.545,3.545,0,0,1,.453-1.184,4.522,4.522,0,0,0,.4-.905,3.655,3.655,0,0,0-.045-1.634,5.464,5.464,0,0,1-.123-1.107,4.279,4.279,0,0,1,.635-1.924.123.123,0,0,1,.11-.066.158.158,0,0,1,.132.076.132.132,0,0,1,0,.132,3.9,3.9,0,0,0-.509,2.722c.013.081.026.161.04.242a4.159,4.159,0,0,1,.079,1.4,3.378,3.378,0,0,1-.428,1.044,4.3,4.3,0,0,0-.378.813,3.289,3.289,0,0,0-.116,1.129Zm-1.408-.107h0c-.095,0-.191,0-.284,0a5.28,5.28,0,0,1-.085-1.6A4.415,4.415,0,0,1,303.215,89a4.556,4.556,0,0,0,.454-1.287.109.109,0,0,1,.112-.1.17.17,0,0,1,.122.057.146.146,0,0,1,.034.118,4.343,4.343,0,0,1-.447,1.25,4.469,4.469,0,0,0-.445,1.229,4.89,4.89,0,0,0,.071,1.7Z" transform="translate(-277.26 -66.34)" fill="#1f2033"/>
                <path id="Fill_164" data-name="Fill 164" d="M324.8,106.989c-1.26.206-2.6.054-3.645.919-.138.115.06.311.2.2.985-.819,2.334-.655,3.524-.846.175-.028.1-.3-.077-.271" transform="translate(-283.488 -73.954)" fill="#f1805b"/>
                <path id="Fill_166" data-name="Fill 166" d="M314.414,107.893c-1.057-.7-2.349-.639-3.519-1.028-.171-.058-.244.212-.074.269,1.145.384,2.416.314,3.452,1,.15.1.29-.142.141-.241" transform="translate(-279.971 -73.91)" fill="#f1805b"/>
                <path id="Fill_168" data-name="Fill 168" d="M321.621,89.955a2.2,2.2,0,0,1-1.506.046.14.14,0,0,0-.081.264,2.436,2.436,0,0,0,1.653-.042c.165-.066.1-.336-.066-.271" transform="translate(-283.097 -68.18)" fill="#f1805b"/>
                <path id="Fill_170" data-name="Fill 170" d="M322.286,88.035a8.447,8.447,0,0,1-2.248.366,10.208,10.208,0,0,0-1.508-.249c-.177.007-.178.286,0,.28.657-.026,1.2.321,1.852.251s1.322-.247,1.979-.376c.177-.035.1-.3-.074-.272" transform="translate(-282.57 -67.533)" fill="#f1805b"/>
                <g id="Group_8166" data-name="Group 8166" transform="translate(8.043 55.38)">
                  <path id="Path_87290" data-name="Path 87290" d="M283.337,147.061s15.33.182,18.553.44c.5.04,2.3-1.4,3.07-1.807a7.961,7.961,0,0,1,3.661-.507c.963.166,2.632,2.525,2.632,3.025a1.538,1.538,0,0,1-.715,1.234c-.061.028.226.562.147.719s-.351.721-.751.777c-.193.026-.01.67-.59.887-.464.173-.283.408-.833.659a17.321,17.321,0,0,0-1.659,1,7.087,7.087,0,0,1-1.129.249,4.365,4.365,0,0,1-1.168-.379.407.407,0,0,1,.222-.706c.534-.153,1.311-.175,1.44-.356s-.222-.684-.222-.684a9.411,9.411,0,0,1-2.282.412c-.7-.079-1.7-.493-2.123-.505-.87-.024-22.814,3.224-24.614.142-1.695-2.9.774-10.879.774-10.879a8.545,8.545,0,0,1,3.326,1.805,21.486,21.486,0,0,0,3.151,1.347C284.042,144.655,283.337,147.061,283.337,147.061Z" transform="translate(-276.379 -140.782)" fill="#f8a58a" stroke="#f8a58a" stroke-miterlimit="10" stroke-width="0.25"/>
                  <path id="Path_87291" data-name="Path 87291" d="M326.022,150.78a7.924,7.924,0,0,1,1.331,2.053" transform="translate(-293.196 -144.169)" fill="none" stroke="#c86959" stroke-linecap="round" stroke-miterlimit="10" stroke-width="0.25"/>
                  <path id="Path_87292" data-name="Path 87292" d="M324.77,152.244a15.062,15.062,0,0,1,1.555,2.581" transform="translate(-292.772 -144.665)" fill="none" stroke="#c86959" stroke-linecap="round" stroke-miterlimit="10" stroke-width="0.25"/>
                  <path id="Path_87293" data-name="Path 87293" d="M323.138,153.926a10.683,10.683,0,0,1,1.759,2.487" transform="translate(-292.219 -145.235)" fill="none" stroke="#c86959" stroke-linecap="round" stroke-miterlimit="10" stroke-width="0.25"/>
                </g>
                <g id="Group_8167" data-name="Group 8167" transform="translate(53.507 55.277)">
                  <path id="Fill_171" data-name="Fill 171" d="M352.869,209.526c.575.1,2.031-.106,2.037-.056l.261-.323c.114-.14.256-.337.4-.538a22.025,22.025,0,0,0,.288-2.7,2.367,2.367,0,0,1,.334-1.252c.181-.567,1.035-1.4,1.028-1.936,0-.294-.052-.952-.106-1.626l.337.157a3.59,3.59,0,0,0,1.89.08l.122-.046c.054,1.475.12,3.672.16,4.118.044.512.124,2.646.079,3.158a1.907,1.907,0,0,1-.462.93c-.348.5-.711.981-1.085,1.458-.747.955-1.536,1.877-2.322,2.8a.122.122,0,0,1-.173.011.124.124,0,0,1-.034-.05.1.1,0,0,1-.023-.007,12.9,12.9,0,0,1-2.8-3.61,1.513,1.513,0,0,1-.075-.559c.046,0,.093,0,.14-.006" transform="translate(-347.707 -161.111)" fill="#f8a58a"/>
                  <path id="Fill_173" data-name="Fill 173" d="M345.135,142.555c1.852-.465,2.51-.63,4.329-1.088l2-.5a6.865,6.865,0,0,0,1.079-.343c.218,6.253.178,12.428.635,15.285.69,4.311,1.73,6.009,2.365,10.75.583,4.356.618,9.132,1.358,14.146.057.383-.79,1.886-1.011,1.7l.075.239c.162.514-.653.7-.813.19-1.531-4.865-3.422-10.052-5.4-14.751-2.363-5.6-2.761-5.2-3.277-10.067-.3-2.807-.906-9.616-1.338-15.564" transform="translate(-345.135 -140.627)" fill="#f8a58a"/>
                  <path id="Fill_175" data-name="Fill 175" d="M351.95,165.578c.089-.155.324,0,.235.151a6.034,6.034,0,0,0-.792,3.281c.008.179-.272.167-.278-.012a6.305,6.305,0,0,1,.834-3.42" transform="translate(-347.159 -149.057)" fill="#f1805b"/>
                  <path id="Fill_177" data-name="Fill 177" d="M355.468,212.947c.078-.161.312-.009.234.15a1.609,1.609,0,0,0-.218.8c.077.311.177.14.365.058a3.741,3.741,0,0,0,.919-.735,4.146,4.146,0,0,0,.94-2.238c.035-.175.3-.088.267.085a5.532,5.532,0,0,1-.593,1.823,5.161,5.161,0,0,1-1.628,1.488c-.835.535-.468-1.065-.286-1.436" transform="translate(-348.554 -164.429)" fill="#c86959"/>
                  <path id="Fill_179" data-name="Fill 179" d="M355.87,217.315a5.419,5.419,0,0,0,1.609-1.95.14.14,0,0,1,.234.152A5.665,5.665,0,0,1,356,217.562c-.156.089-.285-.157-.13-.247" transform="translate(-348.747 -165.924)" fill="#c86959"/>
                  <path id="Fill_181" data-name="Fill 181" d="M361.654,203.294a4.666,4.666,0,0,0-.5-.728,1.5,1.5,0,0,1-1.076.4h-.022a1.693,1.693,0,0,1-1.153-.512,5.2,5.2,0,0,0-.384.513.13.13,0,0,1-.114.061.158.158,0,0,1-.129-.082.127.127,0,0,1,.009-.132,5.408,5.408,0,0,1,.435-.574,2.852,2.852,0,0,1-.533-1.333.157.157,0,0,1-.08-.175.109.109,0,0,1,.116-.088h.017a5.075,5.075,0,0,1,1.688.558,2.877,2.877,0,0,1,1.556-.4c.07,0,.143.009.21.017a.132.132,0,0,1,.065.026h.012a.139.139,0,0,1,.1.044.121.121,0,0,1,.027.095,2.637,2.637,0,0,1-.546,1.386,5.09,5.09,0,0,1,.551.795.124.124,0,0,1,0,.132.158.158,0,0,1-.136.071A.134.134,0,0,1,361.654,203.294Zm-2.568-1.051a1.524,1.524,0,0,0,.684.4,1.4,1.4,0,0,0,.3.047,1.239,1.239,0,0,0,.9-.339,4.7,4.7,0,0,0-1.032-.824A4.371,4.371,0,0,0,359.087,202.243Zm1.127-.871a4.912,4.912,0,0,1,.944.774,2.287,2.287,0,0,0,.442-1.061l-.109,0A2.584,2.584,0,0,0,360.214,201.372Zm-1.313.655a4.692,4.692,0,0,1,.756-.65,4.722,4.722,0,0,0-1.174-.4A2.56,2.56,0,0,0,358.9,202.027Z" transform="translate(-349.528 -160.958)" fill="#f6ddc7"/>
                </g>
                <g id="Group_8168" data-name="Group 8168" transform="translate(30.933 61.157)">
                  <path id="Path_87294" data-name="Path 87294" d="M312.705,154.981a3.935,3.935,0,0,1,.371-4.342l-1.261-.025a4.758,4.758,0,0,0-.186,4.492Z" transform="translate(-311.05 -149.889)" fill="#3a3a3a"/>
                  <ellipse id="Ellipse_1590" data-name="Ellipse 1590" cx="0.924" cy="1.268" rx="0.924" ry="1.268" transform="matrix(0.072, -0.997, 0.997, 0.072, 0, 1.844)" fill="#3a3a3a"/>
                  <line id="Line_92" data-name="Line 92" x2="0.692" y2="0.075" transform="translate(1.201 1.055)" fill="none" stroke="#fff" stroke-linecap="round" stroke-miterlimit="10" stroke-width="0.25"/>
                  <line id="Line_93" data-name="Line 93" x1="0.389" y2="0.318" transform="translate(1.201 0.737)" fill="none" stroke="#fff" stroke-linecap="round" stroke-miterlimit="10" stroke-width="0.25"/>
                </g>
                <ellipse id="Ellipse_1591" data-name="Ellipse 1591" cx="0.256" cy="0.445" rx="0.256" ry="0.445" transform="translate(33.483 14.568)" fill="#fff"/>
                <ellipse id="Ellipse_1592" data-name="Ellipse 1592" cx="0.256" cy="0.445" rx="0.256" ry="0.445" transform="translate(40.936 14.429)" fill="#fff"/>
              </g>
            </g>
          </g>
        </g>
      </g>
    </g>
  </g>
</svg>
