<svg xmlns="http://www.w3.org/2000/svg" xmlns:xlink="http://www.w3.org/1999/xlink" width="109.465" height="113.02" viewBox="0 0 109.465 113.02">
  <defs>
    <clipPath id="clip-path">
      <path id="Path_87296" data-name="Path 87296" d="M450.262,53.088H552.686l-10.6,105.249-75.582,7.77Z" transform="translate(-450.262 -53.088)" fill="none"/>
    </clipPath>
    <clipPath id="clip-path-2">
      <rect id="Rectangle_4153" data-name="Rectangle 4153" width="12.708" height="5.835" fill="none"/>
    </clipPath>
  </defs>
  <g id="Group_8171" data-name="Group 8171" transform="translate(-450.262 -53.088)">
    <path id="Shape" d="M452.466,151.164a14.03,14.03,0,0,0,14.293,19.566c22.583-2.287,56.421-5.768,79.876-8.187a14.9,14.9,0,0,0,10.29-23.932L507.113,74.128a12.972,12.972,0,0,0-22.142,2.723Z" transform="translate(-0.302 -4.699)" fill="#f7d5d5"/>
    <g id="Group" transform="translate(524.086 55.247)">
      <path id="Fill_4" data-name="Fill 4" d="M556.539,59.808,557.8,87.347a4.415,4.415,0,0,0,8.8.357l3.494-27.6a3.489,3.489,0,0,0-3.006-3.915,3.554,3.554,0,0,0-.425-.03l-6.641-.02a3.49,3.49,0,0,0-3.479,3.5c0,.054,0,.109,0,.164" transform="translate(-555.291 -56.144)" fill="#2c2c2c"/>
      <path id="Fill_6" data-name="Fill 6" d="M567.967,125.283a6.787,6.787,0,1,1-4.156-8.652h0a6.782,6.782,0,0,1,4.158,8.642l0,.009" transform="translate(-554.774 -73.792)" fill="#2c2c2c"/>
    </g>
    <g id="Girl" transform="translate(450.262 53.088)">
      <path id="Mask-2" d="M450.262,53.088H552.686l-10.6,105.249-75.582,7.77Z" transform="translate(-450.262 -53.088)" fill="none"/>
      <g id="Group_8174" data-name="Group 8174">
        <g id="Group_8173" data-name="Group 8173" clip-path="url(#clip-path)">
          <g id="Girl-2" transform="translate(16.95 4.945)">
            <g id="Girl-3">
              <g id="Group_3" data-name="Group 3" transform="translate(4.101 205.149)">
                <path id="Clip_2-2" data-name="Clip 2-2" d="M480.064,350.515h12.708v5.835H480.064Z" transform="translate(-480.064 -350.515)" fill="none"/>
                <g id="Group_8172" data-name="Group 8172">
                  <g id="Group_8171-2" data-name="Group 8171" clip-path="url(#clip-path-2)">
                    <g id="Group_3-2" data-name="Group 3-2" transform="translate(0.001 0)">
                      <path id="Fill_1" data-name="Fill 1" d="M492.7,351.183c-1.15-.727-2.9-.66-4.2-.668a21.761,21.761,0,0,0-4.771.515.156.156,0,0,0-.2-.088l-.008,0c-1.993.928-2.782,3.021-3.442,4.973a.151.151,0,0,0,.1.184,19.543,19.543,0,0,0,7.524-.29c1.074-.226,1.541-1.038,2.233-1.813a20.394,20.394,0,0,1,2.8-2.583.15.15,0,0,0,0-.213.119.119,0,0,0-.028-.022" transform="translate(-480.065 -350.515)" fill="#1f2033"/>
                    </g>
                  </g>
                </g>
              </g>
              <path id="Fill_4-2" data-name="Fill 4-2" d="M537.91,72.173c-.252-.529-.174-2.456-.549-4.1a14.4,14.4,0,0,0-1.579-3.744,6.993,6.993,0,0,0-1.586-2.07,5.6,5.6,0,0,0-2.64-1,6.3,6.3,0,0,1-2.06-.732c-2.923-1.274-5.878.458-8.163,2.234a.147.147,0,0,0-.16.1c0,.012-.007.023-.011.035l-.141.109c-.1.078-.04.194.052.232a4.459,4.459,0,0,0,.581,2.491q.777,1.776,1.563,3.55a50.082,50.082,0,0,1,2.931,7.43c.532,2.044.964,4.233,2.4,5.868a7.008,7.008,0,0,0,2.585,1.685,11.269,11.269,0,0,1,2.521,1.866,3.007,3.007,0,0,0,2.607.579,7.944,7.944,0,0,1,4.591.7.152.152,0,0,0,.2-.054,4.839,4.839,0,0,0-.016-3.21,6.122,6.122,0,0,1-.234-2.082c.1-.8.624-1.458.762-2.249.223-1.271-.6-2.676-1.192-3.744-.741-1.346-1.814-2.506-2.472-3.893" transform="translate(-487.974 -60.088)" fill="#ab614f"/>
              <path id="Fill_6-2" data-name="Fill 6-2" d="M540.919,89.429a1.963,1.963,0,0,0-.044-1.215,2.961,2.961,0,0,1,.071-2.362,4.688,4.688,0,0,0,.545-1.278,3.789,3.789,0,0,0-.306-1.886.151.151,0,0,0-.294.04,7.158,7.158,0,0,0-2.3,2.376c-.762,1.085-1.445,2.238-2.152,3.362a4.939,4.939,0,0,0-.973,2.433,11.894,11.894,0,0,1,2.438,1.825,2.9,2.9,0,0,0,.715.434c.046-.3.056-.61.076-.777a2.635,2.635,0,0,1,1.221-2.059c.336-.249.829-.491,1.006-.894" transform="translate(-492.23 -66.693)" fill="#1f2033"/>
              <path id="Fill_8" data-name="Fill 8" d="M544.462,349.609q-2.448.437-4.868,1.008c-.783.186-1.566.376-2.341.593a2.774,2.774,0,0,0-1.336.684.153.153,0,0,0-.212.2c.87,1.692,2.95,3.485,5.01,3.071a3.671,3.671,0,0,0,2.16-1.744,14.655,14.655,0,0,0,1.77-3.629c.039-.117-.08-.2-.184-.184" transform="translate(-492.296 -145.1)" fill="#1f2033"/>
              <path id="Fill_10" data-name="Fill 10" d="M536.02,111.633a1.8,1.8,0,0,0-.259-2.526c-.03-.025-.062-.049-.094-.071a2.9,2.9,0,0,0,.453-.7c.353-.817.194-.547-.428-.831l-4.322-1.827c-1.005-.458-2.736-1.284-3.091-2.437,0-.027-.009-.052-.011-.078v-.011a2.5,2.5,0,0,0,0-.542.385.385,0,0,0-.046-.09.119.119,0,0,0-.117-.122h-.02c-.328-.178-.947-.012-1.267-.006q-2.614.07-5.221.288a15.865,15.865,0,0,0-1.617.108.142.142,0,0,0-.177-.095.145.145,0,0,0-.061.039l-.006.006a.137.137,0,0,0-.164.028,11.387,11.387,0,0,1-2.465,2.147c-1.048.6-4.919,1.946-5.463,2.211-.283.138-.306.365-.312.668a2.973,2.973,0,0,0,.424,1.049c.013.025.027.049.04.075a3.743,3.743,0,0,0-.6,3.037c.473,2.021,2.1,3.868,3.312,5.5,2.419,3.271,5.011,6.428,6.869,10.052a1.563,1.563,0,0,0,.944,1.789,1.7,1.7,0,0,0,2.728-1.625l1.33-2.113a1.627,1.627,0,0,0,.249-.673,17.768,17.768,0,0,0,2.74-5.565l6.649-7.694" transform="translate(-485.076 -72.488)" fill="#f8a58a"/>
              <path id="Fill_12" data-name="Fill 12" d="M543.077,131.535c-.22-.829-.43-1.662-.622-2.5q-.544-2.371-.922-4.775c-.258-1.64-.362-3.308-.653-4.945a9.554,9.554,0,0,0-1.613-3.761,19.865,19.865,0,0,0-2.783-3.324c-2.082-1.919-4.941-2.4-7.66-2.726-.2.378-.419.744-.631,1.1-1.054,1.753-2.3,3.375-3.482,5.041-1.474,2.078-2.8,4.258-4.291,6.327a66.048,66.048,0,0,1-5.375,6.6.152.152,0,0,1-.212,0c-2.741-2.689-4.076-6.471-6.244-9.584-2.082-2.994-4.076-6.3-4.309-10-1.421.575-2.826,1.185-4.2,1.863a40.062,40.062,0,0,0-4.329,2.455,11.523,11.523,0,0,0-3.249,2.907,19.519,19.519,0,0,0-2.01,4.209l-2.033,5.223-2.031,5.223c-.181.46-.732,1.29-.516,1.784.163.374.8.588,1.152.728a15.756,15.756,0,0,1,2.5,1.048c.742.454,1.431.98,2.2,1.392a12.8,12.8,0,0,0,4.49,1.4,32.684,32.684,0,0,1,0,5.855,10.1,10.1,0,0,0,1.126,5.553c.648,1.267,1.353,3.058,2.989,3.165a18.859,18.859,0,0,0,3.029-.275q1.754-.178,3.509-.322,6.732-.551,13.492-.59c2.027-.012,4.058.09,6.083.047a5.451,5.451,0,0,0,4.026-1.353,5.549,5.549,0,0,0,1.134-2.4c.317-1.189.595-2.39.891-3.584.57-2.3,1.262-5.248,1.849-7.633.208-.057.406-.116.585-.16q2.462-.615,4.923-1.235c.781-.2,1.572-.374,2.347-.6a1.314,1.314,0,0,0,.969-.7,2.375,2.375,0,0,0-.131-1.45" transform="translate(-477.665 -74.446)" fill="#fafbfb"/>
              <path id="Fill_14" data-name="Fill 14" d="M542.157,162.2a11.194,11.194,0,0,0-1.375-1.029,2.487,2.487,0,0,0-.636-.141,2.355,2.355,0,0,1-.98-.494,2.343,2.343,0,0,0-1.513-.454c-1.309.054-2.575.777-3.826,1.109a12.158,12.158,0,0,1-2.65.429c-.852.034-1.7-.028-2.551.083a16.33,16.33,0,0,0-4.25,1.367.118.118,0,0,0-.093.04l-.081.035c-.176.076-.024.333.15.257l.05-.021a22.786,22.786,0,0,0,4.265.528c1.517.2,3.008.565,4.521.8a26.71,26.71,0,0,0,4.512.29c.777-.011,1.554-.047,2.331-.095.325-.02.672-.02,1.016-.034a3.468,3.468,0,0,0,.712-.583,4.457,4.457,0,0,0,.9-1.611,1.879,1.879,0,0,0-.5-.473" transform="translate(-488.9 -89.448)" fill="#1f2033"/>
              <path id="Fill_16" data-name="Fill 16" d="M536.916,228.215c-.363-5.409-1.267-10.772-1.5-16.192-.223-5.254.569-10.4,1.056-15.611.526-5.638.289-11.044-2.023-16.287-2.385-5.413-5.308-10.632-8-15.9a.311.311,0,0,0-.159-.558,101.432,101.432,0,0,0-29.716,2.219.253.253,0,0,0-.212.277.24.24,0,0,0-.039.17c.646,5.108,1.156,10.177-.042,15.25-1.027,4.347-2.854,8.446-4.1,12.727a38.533,38.533,0,0,0-1.088,13.7,51.012,51.012,0,0,1,.151,7.295,27.921,27.921,0,0,1-1.625,7.113c-1.423,4.055-3.381,7.971-4.122,12.235-.81,4.662.882,9.071.648,13.71-.4,7.947-6.967,13.859-8.462,21.51-1.009,5.164,1.142,10.409-.189,15.531-1.1,4.238-4,8.152-3.049,12.709a.3.3,0,0,0,.288.219,170.421,170.421,0,0,1,21.4-.963.3.3,0,0,0,.3-.3,43.361,43.361,0,0,1,1.308-10.48c.836-2.83,2.243-5.452,3.116-8.269,1.894-6.116-.332-12.662,2.087-18.673,1.1-2.734,2.744-5.211,3.88-7.93a25.435,25.435,0,0,0,1.656-8.224,41.346,41.346,0,0,1,1.493-10.006c.5-1.572,1.105-3.108,1.7-4.65a28.952,28.952,0,0,1,.968,6.293,73.167,73.167,0,0,1-.749,8.849c-.588,5.877.276,11.753-.011,17.637a34.427,34.427,0,0,1-1.7,8.83,21.311,21.311,0,0,0-1.42,7.569c.174,3.2,1.413,6.234,1.795,9.41a28.094,28.094,0,0,1-.719,10.377.3.3,0,0,0,.288.377,145.5,145.5,0,0,0,16.711-.973c1.425-.167,4.284,0,5.211-1.365,1.033-1.52.338-4.341.161-6.015a24.181,24.181,0,0,1,.434-8.247c.574-2.476,1.359-4.906,1.71-7.43.7-5.027-.636-10-.911-15-.3-5.412,1.145-10.626,2.3-15.86a52.708,52.708,0,0,0,1.173-15.074" transform="translate(-474.258 -90.423)" fill="#f6ddc7"/>
              <path id="Fill_18" data-name="Fill 18" d="M499.54,180.309a50.158,50.158,0,0,1-1.606,7.6c-.72,2.465-1.584,4.892-2.126,7.406-1.067,4.945-.164,9.842.228,14.8a28.667,28.667,0,0,1-.26,7.506,40.2,40.2,0,0,1-1.88,6.477c-1.565,4.266-3.505,8.461-4.218,12.984-.77,4.874.353,9.741.195,14.63-.155,4.874-2.273,9.048-4.355,13.343a39.282,39.282,0,0,0-2.472,6.031,38.474,38.474,0,0,0-1.2,7.177,57.986,57.986,0,0,1-1.06,7.812,56.911,56.911,0,0,1-2.123,6.619c-.752,2.034-1.554,4.1-2.176,6.2q3.885-.4,7.788-.615c.008-.052.018-.105.026-.158a63.694,63.694,0,0,0,.632-7.733c.1-2.715.16-5.439.49-8.137a37.782,37.782,0,0,1,1.738-7.463c1.546-4.6,3.7-8.971,5.086-13.626a32.077,32.077,0,0,0,1.31-7c.184-2.695.047-5.4-.025-8.093a41.922,41.922,0,0,1,.388-8.294,38.685,38.685,0,0,1,2.13-7.172c.9-2.343,1.88-4.656,2.667-7.039A39.242,39.242,0,0,0,500.575,208a53.746,53.746,0,0,1-.441-8.189,52.472,52.472,0,0,1,1.652-7.911,46.536,46.536,0,0,0,1.084-7.755,92.852,92.852,0,0,0-.77-16.092c-.092-.8-.191-1.591-.288-2.386q-1.232.218-2.46.463a50.222,50.222,0,0,1,.187,14.184" transform="translate(-474.913 -91.088)" fill="#38539a"/>
              <path id="Fill_20" data-name="Fill 20" d="M508.728,164.872c-.312,4.429.331,8.859.706,13.273a46.469,46.469,0,0,1,.157,7.346,33.12,33.12,0,0,1-1.641,7.536,24.942,24.942,0,0,0-1.456,7.12,41.756,41.756,0,0,0,.862,7.283,30.064,30.064,0,0,1,.393,7.417,40.439,40.439,0,0,1-1.272,6.937c-1.175,4.456-2.818,8.773-3.961,13.238a40.827,40.827,0,0,0-1.182,6.585,71.4,71.4,0,0,0,.031,7.639,24.646,24.646,0,0,1-.962,7.666c-.683,2.279-1.625,4.469-2.483,6.686a37.023,37.023,0,0,0-2.049,7.115c-.417,2.445-.608,4.92-.87,7.384a50.039,50.039,0,0,1-1.305,7.477c-.622,2.362-1.4,4.679-2.15,7-.565,1.745-1.124,3.518-1.584,5.312,1.491-.071,2.984-.112,4.477-.141,1.021-4.016.848-8.234,1.034-12.349a37.1,37.1,0,0,1,1.06-7.809,51.023,51.023,0,0,1,2.418-6.79c1.843-4.379,3.921-8.688,4.839-13.385.978-5,.853-10.12,1.211-15.181a47.832,47.832,0,0,1,1.135-7.738c.578-2.426,1.333-4.8,2.086-7.182,1.449-4.574,2.917-9.22,3.083-14.057.182-5.283-.941-10.511-.443-15.8.485-5.153,1.936-10.2,1.912-15.4-.024-5.086-1.714-9.963-2-15.02a22.157,22.157,0,0,1,0-2.451q-1.028.136-2.042.288" transform="translate(-478.87 -90.771)" fill="#3a3a3a"/>
              <path id="Fill_22" data-name="Fill 22" d="M518.836,208.6c-.326-4.894-1.137-9.83-.524-14.734.353-2.831,1.442-5.472,1.978-8.26a15.253,15.253,0,0,0-.415-7.107c-.792-2.865-1.8-5.594-2.048-8.584a24.606,24.606,0,0,1,.239-5.929c-.305.028-.61.055-.914.085a25.742,25.742,0,0,0,.685,10.786c.716,2.532,1.766,5.036,1.837,7.7.076,2.589-.828,5.046-1.5,7.509-2.621,9.653,1.534,19.585-.983,29.238-1.207,4.629-3.432,8.909-4.8,13.486-1.434,4.8-1.1,9.629-1.464,14.563-.372,5.056-2.344,9.658-4.072,14.36a45.22,45.22,0,0,0-2.7,14.187,88.5,88.5,0,0,1-.685,9.068c-.392,2.749-.918,5.476-1.351,8.218-.227,1.445-.424,2.9-.565,4.35.283,0,.562.006.842.009.565-6.095,2.212-12.227,2.518-18.26.266-5.262.413-10.305,2.107-15.351,1.5-4.471,3.574-8.784,4.418-13.455.894-4.941.141-10.021,1.174-14.943.969-4.6,3.1-8.836,4.612-13.265a34.389,34.389,0,0,0,1.608-13.672" transform="translate(-482.273 -90.597)" fill="#e3a780"/>
              <path id="Fill_24" data-name="Fill 24" d="M529.092,175.953a59.962,59.962,0,0,1,1.1,7.313,25.876,25.876,0,0,1-.6,7.5,60.057,60.057,0,0,0-1.366,7.331,36.255,36.255,0,0,0,.085,7.675c.3,2.527.758,5.015.808,7.569a47.782,47.782,0,0,1-.594,8c-.389,2.6-.88,5.183-1.438,7.753l.11-.283a31.137,31.137,0,0,1,.934,5.5,20.921,20.921,0,0,0,1.813-6.162,46.816,46.816,0,0,1,1.8-7.5,23.052,23.052,0,0,0,1.063-3.833,15.238,15.238,0,0,0,.056-3.867,63.248,63.248,0,0,1-.74-8.514,29.97,29.97,0,0,1,1.541-8.11,22.011,22.011,0,0,0,1.532-7.644,35.676,35.676,0,0,0-1.711-7.787c-1.563-5.7-1.8-11.614-1.915-17.494q-1.9.057-3.809.189c-.311,4.16.535,8.287,1.332,12.364" transform="translate(-489.769 -90.423)" fill="#38539a"/>
              <path id="Fill_26" data-name="Fill 26" d="M540.409,197.53a72.924,72.924,0,0,0,.636-7.323c.016-4.282-1.421-8.321-2.847-12.3-1.383-3.868-2.9-7.931-2.619-12.113a13.49,13.49,0,0,1,.381-2.38c-.926-.026-1.853-.042-2.783-.042-1.329,8.323,3.85,16.16,4.086,24.427.141,4.945-1.086,9.813-1.024,14.757.031,2.495.491,4.948.738,7.425a23.379,23.379,0,0,1-.29,6.889c-.848,4.3-2.7,8.314-4.2,12.407a42.511,42.511,0,0,0-1.871,6.292,45.788,45.788,0,0,0-.706,6.694,66.282,66.282,0,0,1-.584,7.185,23.253,23.253,0,0,1-2.184,6.671c-.3.607-.607,1.209-.911,1.813.017,1.226.008,2.452-.051,3.679a34.426,34.426,0,0,1-1.7,8.83,21.309,21.309,0,0,0-1.42,7.569c.158,2.936,1.209,5.729,1.676,8.626a93.81,93.81,0,0,1,3.683-12.111c1.714-4.521,3.582-9.011,4.548-13.774s1.175-9.607,1.786-14.41a50.112,50.112,0,0,1,1.46-7.455c.627-2.194,1.424-4.335,2.224-6.47,1.572-4.2,3.2-8.464,3.5-12.977.334-4.928-1.022-9.738-1.554-14.6a34.194,34.194,0,0,1,.024-7.307" transform="translate(-488.583 -90.415)" fill="#e3a780"/>
              <path id="Fill_28" data-name="Fill 28" d="M545.378,201.342c.175-2.446.557-4.874.663-7.326.23-5.383-1.592-10.313-3.44-15.276-1.8-4.836-3.509-10-2.583-15.152-.3-.018-.6-.029-.9-.044-1.536,8.714,4.088,16.7,5.666,25.083.964,5.124-.434,10.126-.391,15.258.043,4.978,1.587,9.773,2.025,14.708.827,9.324-2.88,18.147-5.5,26.9a67.724,67.724,0,0,0-2.645,13.107c-.48,5.044-.8,10.03-2.679,14.8-1.971,5.006-4.442,9.668-5.859,14.9a100.467,100.467,0,0,0-2.079,9.927c.3,0,.6-.011.907-.017.437-2.623.932-5.236,1.56-7.82a76.884,76.884,0,0,1,5.007-13.657A41.469,41.469,0,0,0,538.7,263.6c.513-4.935.878-9.788,2.144-14.606,2.26-8.618,6.081-16.96,6.54-25.963.237-4.662-.824-9.133-1.572-13.7a34.016,34.016,0,0,1-.439-7.985" transform="translate(-489.935 -90.466)" fill="#38539a"/>
              <path id="Fill_30" data-name="Fill 30" d="M555.167,224.15c-.538-4.049-1.174-8.089-1.463-12.166a66.943,66.943,0,0,1,.773-13.653c.688-5.248-.456-10.03-1.672-15.108l-1.413-5.911c-1.7-3.487-3.548-6.915-5.337-10.353a48.181,48.181,0,0,0,2.388,11.151c1.537,4.459,3.583,8.437,3.167,13.3-.2,2.287-.694,4.535-.927,6.816a46.793,46.793,0,0,0-.117,7.312c.257,4.721,1.016,9.395,1.471,14.1a53.264,53.264,0,0,1-.342,14.388c-.755,4.321-1.986,8.537-3.037,12.791a66.069,66.069,0,0,0-2.017,13.11,45.426,45.426,0,0,1-2.472,13.92c-2.875,7.954-7.524,16.4-5.823,25.006q2.158-.142,4.309-.349c1.684-6.987,5.34-13.379,7.326-20.3a48.293,48.293,0,0,0,1.483-13.118,58.4,58.4,0,0,1,1.052-11.438c.463-3.146,1.249-6.254,1.935-9.369a52.691,52.691,0,0,0,1.176-15.071c-.113-1.69-.283-3.376-.463-5.06" transform="translate(-492.969 -91.468)" fill="#3a3a3a"/>
              <path id="Fill_32" data-name="Fill 32" d="M502.59,133.406a20.511,20.511,0,0,0-2.049,10.776c.016.19.314.191.3,0a20.223,20.223,0,0,1,2.009-10.626c.085-.172-.172-.323-.258-.15" transform="translate(-481.955 -81.594)" fill="#1f2033"/>
              <path id="Fill_34" data-name="Fill 34" d="M554.035,136.393c-.026-.189-.314-.108-.29.079a65.558,65.558,0,0,1,.579,6.717c.007.191.305.192.3,0a66.33,66.33,0,0,0-.588-6.8" transform="translate(-497.597 -82.462)" fill="#1f2033"/>
              <path id="Fill_38" data-name="Fill 38" d="M538.159,170.135a12.26,12.26,0,0,0-.723-1.625,4.686,4.686,0,0,0-.895-1.358,1.518,1.518,0,0,0-1.148-.212c-.781.037-1.562.083-2.342.126q-4.686.269-9.358.684-9.221.818-18.379,2.2a.121.121,0,0,0-.109.132.128.128,0,0,0,.008.033.161.161,0,0,0-.215.078.167.167,0,0,0-.014.049q-.2,1.964-.212,3.937a.151.151,0,0,0,.149.149,37.317,37.317,0,0,0,8.24-1.123q4.292-.815,8.625-1.386,4.205-.553,8.438-.875,2.19-.167,4.38-.271a9.521,9.521,0,0,0,3.488-.368.149.149,0,0,0,.071-.168" transform="translate(-483.218 -91.453)" fill="#f6ddc7"/>
              <path id="Fill_40" data-name="Fill 40" d="M512.281,295.329a19.422,19.422,0,0,0-2.414,2.347c-1.214,1.437-1.84,3.206-2.938,4.712-1.848,2.537-4.8,4.269-5.8,7.382-.053.165.185.255.273.115a12.132,12.132,0,0,1,1.627-2.219,6.246,6.246,0,0,1,2.6-1.385c1.564-.553,2.083-1.825,2.955-3.112a7.394,7.394,0,0,1,1.317-1.4,15.679,15.679,0,0,1,.918-3.364c.424-1.055.931-2.073,1.457-3.08" transform="translate(-482.147 -129.161)" fill="#1f2033"/>
              <path id="Fill_42" data-name="Fill 42" d="M527.633,251.343c2.214-1.747,2.486-4.79,3.718-7.174.852-1.649,1.99-3.126,2.818-4.8a28.142,28.142,0,0,0,1.937-5.136.15.15,0,0,0-.273-.115c-3.478,4.784-7.015,9.729-8.592,15.5q.212.858.393,1.722" transform="translate(-489.815 -111.169)" fill="#1f2033"/>
              <path id="Fill_44" data-name="Fill 44" d="M490.312,324.507a11.15,11.15,0,0,1-2.563,3.108c-.9.757-1.864,1.42-2.693,2.26a14.658,14.658,0,0,0-3.385,5.51c-.063.182.225.26.287.079a14.3,14.3,0,0,1,3.824-5.871c.879-.807,1.893-1.451,2.755-2.278a11.444,11.444,0,0,0,2.033-2.655.15.15,0,0,0-.257-.153h0" transform="translate(-476.432 -137.708)" fill="#1f2033"/>
              <path id="Fill_46" data-name="Fill 46" d="M555.208,285.992q-2.682,3.757-5.245,7.6c-.107.16.151.309.257.15q2.563-3.841,5.246-7.6c.112-.156-.147-.305-.257-.15" transform="translate(-496.48 -126.401)" fill="#1f2033"/>
              <path id="Fill_48" data-name="Fill 48" d="M521.668,141.134a.746.746,0,1,0,.713.713.746.746,0,0,0-.713-.713" transform="translate(-487.97 -83.885)" fill="#3a3a3a"/>
              <path id="Fill_50" data-name="Fill 50" d="M494.234,136.808a.746.746,0,1,0,.713.713.746.746,0,0,0-.713-.713" transform="translate(-479.914 -82.615)" fill="#3a3a3a"/>
              <path id="Fill_52" data-name="Fill 52" d="M508.162,139.024a.746.746,0,1,0,.713.713.746.746,0,0,0-.713-.713" transform="translate(-484.004 -83.266)" fill="#3a3a3a"/>
              <path id="Fill_54" data-name="Fill 54" d="M537.284,142.927a.746.746,0,1,0,.713.713.746.746,0,0,0-.713-.713" transform="translate(-492.555 -84.412)" fill="#3a3a3a"/>
              <path id="Fill_56" data-name="Fill 56" d="M550.578,145.038a.746.746,0,1,0,.713.713.746.746,0,0,0-.713-.713" transform="translate(-496.458 -85.032)" fill="#3a3a3a"/>
              <path id="Fill_58" data-name="Fill 58" d="M531.375,133.748a.746.746,0,1,0,.713.713.746.746,0,0,0-.713-.713" transform="translate(-490.82 -81.717)" fill="#3a3a3a"/>
              <path id="Fill_60" data-name="Fill 60" d="M544.881,135.647a.746.746,0,1,0,.713.713.746.746,0,0,0-.713-.713" transform="translate(-494.786 -82.274)" fill="#3a3a3a"/>
              <path id="Fill_62" data-name="Fill 62" d="M559.019,137.441a.746.746,0,1,0,.713.713.746.746,0,0,0-.713-.713" transform="translate(-498.937 -82.801)" fill="#3a3a3a"/>
              <path id="Fill_64" data-name="Fill 64" d="M517.553,131.215a.746.746,0,1,0,.713.713.746.746,0,0,0-.713-.713" transform="translate(-486.761 -80.973)" fill="#3a3a3a"/>
              <path id="Fill_66" data-name="Fill 66" d="M504.469,128.578a.746.746,0,1,0,.713.713.746.746,0,0,0-.713-.713" transform="translate(-482.92 -80.199)" fill="#3a3a3a"/>
              <path id="Fill_68" data-name="Fill 68" d="M493.39,124.99a.746.746,0,1,0,.713.713.746.746,0,0,0-.713-.713" transform="translate(-479.666 -79.145)" fill="#3a3a3a"/>
              <path id="Fill_70" data-name="Fill 70" d="M513.649,121.3a.746.746,0,1,0,.713.713.746.746,0,0,0-.713-.713" transform="translate(-485.615 -78.061)" fill="#3a3a3a"/>
              <path id="Fill_72" data-name="Fill 72" d="M538.128,124.99a.746.746,0,1,0,.713.713.746.746,0,0,0-.713-.713" transform="translate(-492.803 -79.145)" fill="#3a3a3a"/>
              <path id="Fill_74" data-name="Fill 74" d="M553.849,128.366a.746.746,0,1,0,.713.713.746.746,0,0,0-.713-.713" transform="translate(-497.419 -80.136)" fill="#3a3a3a"/>
              <path id="Fill_76" data-name="Fill 76" d="M501.62,116.338a.746.746,0,1,0,.713.713.746.746,0,0,0-.713-.713" transform="translate(-482.083 -76.605)" fill="#3a3a3a"/>
              <path id="Fill_78" data-name="Fill 78" d="M513.121,148.309a.746.746,0,1,0,.713.713.746.746,0,0,0-.713-.713" transform="translate(-485.46 -85.992)" fill="#3a3a3a"/>
              <path id="Fill_80" data-name="Fill 80" d="M500.143,143.666a.746.746,0,1,0,.713.713.746.746,0,0,0-.713-.713" transform="translate(-481.649 -84.629)" fill="#3a3a3a"/>
              <path id="Fill_82" data-name="Fill 82" d="M529.159,151.052a.746.746,0,1,0,.713.713.746.746,0,0,0-.713-.713" transform="translate(-490.169 -86.798)" fill="#3a3a3a"/>
              <path id="Fill_84" data-name="Fill 84" d="M545.2,152.845a.746.746,0,1,0,.713.713.746.746,0,0,0-.713-.713" transform="translate(-494.878 -87.324)" fill="#3a3a3a"/>
              <path id="Fill_86" data-name="Fill 86" d="M519.874,157.8a.746.746,0,1,0,.713.713.746.746,0,0,0-.713-.713" transform="translate(-487.443 -88.78)" fill="#3a3a3a"/>
              <path id="Fill_88" data-name="Fill 88" d="M504.364,155.589a.746.746,0,1,0,.713.713.746.746,0,0,0-.713-.713" transform="translate(-482.889 -88.13)" fill="#3a3a3a"/>
              <path id="Fill_90" data-name="Fill 90" d="M535.6,159.282a.746.746,0,1,0,.713.713.746.746,0,0,0-.713-.713" transform="translate(-492.059 -89.214)" fill="#3a3a3a"/>
              <path id="Fill_92" data-name="Fill 92" d="M547.2,118.659a.746.746,0,1,0,.713.713.746.746,0,0,0-.713-.713" transform="translate(-495.467 -77.286)" fill="#3a3a3a"/>
              <path id="Fill_94" data-name="Fill 94" d="M557.331,117.71a.746.746,0,1,0,.713.713.746.746,0,0,0-.713-.713" transform="translate(-498.441 -77.007)" fill="#3a3a3a"/>
              <path id="Fill_96" data-name="Fill 96" d="M508.373,111.59a.746.746,0,1,0,.713.713.746.746,0,0,0-.713-.713" transform="translate(-484.066 -75.21)" fill="#3a3a3a"/>
              <path id="Fill_98" data-name="Fill 98" d="M509.913,163.293a10.9,10.9,0,0,0-3.366-.583.149.149,0,0,0,0,.3,10.626,10.626,0,0,1,3.284.572c.182.062.26-.226.079-.287" transform="translate(-483.695 -90.221)" fill="#1f2033"/>
              <path id="Fill_100" data-name="Fill 100" d="M517.916,63.572c-.091-.052.9-.843.31-.733A7.26,7.26,0,0,0,512.8,64.83c-1.526,1.509-1.115,3.846-1.828,5.713-.833,2.178-2.593,3.85-3.452,6.019a5.821,5.821,0,0,0-.407,2.925c.082.626.251,1.233.36,1.854a7.381,7.381,0,0,1,0,2.378,12.729,12.729,0,0,0-.271,3.558c.071.514.159,1.7.74,1.914.3.113.561-.1.805-.261a4.016,4.016,0,0,1,1.88-.658c1.259-.117,2.511.2,3.771.141a7.853,7.853,0,0,0,3.053-.757c.942-.452,1.13-1.091,1.271-2.091.353-2.455-.225-4.908-.482-7.342-.317-3.01.313-5.863.747-8.825.291-1.984.964-4.672-1.074-5.828" transform="translate(-483.894 -60.892)" fill="#ab614f"/>
              <path id="Fill_102" data-name="Fill 102" d="M531.637,83.756c-.077-1.06-.223.95-1.631.865a11.7,11.7,0,0,0-3.1.785l-3.516.918.01-.619c.01-.574-1.116-.964-1.126-.387-.031,1.885-.177,7.848-.16,12.278.008,2.041.114,3.738.169,4.591.113,1.785,1.837,1.337,3.15,1.3,1.08-.029,2.158-.112,3.232-.239.706-.084,1.895-.017,2.422-.648.505-.6.336-1.742.359-2.459.046-1.363.386-13.67.187-16.388" transform="translate(-488.311 -66.947)" fill="#f8a58a"/>
              <path id="Fill_104" data-name="Fill 104" d="M521.809,92.427a11.667,11.667,0,0,0,.108-1.705,4.058,4.058,0,0,0-.275-1.042,29.652,29.652,0,0,0-1.7-3.108,2.29,2.29,0,0,0,.146-.184c.112-.155-.146-.3-.258-.15-.769,1.069-3.436,2.378-1.745,3.9a1.963,1.963,0,0,1,.72,1.62,2.656,2.656,0,0,0,.055,1.2c.149.306.4.369.672.53a1.8,1.8,0,0,1,.8,1.13c.071-.03.141-.06.207-.093.942-.451,1.13-1.091,1.271-2.091" transform="translate(-486.966 -67.747)" fill="#1f2033"/>
              <path id="Fill_106" data-name="Fill 106" d="M531.625,96.209c.021-1.109.071-2.34.084-3.43a9.1,9.1,0,0,0-1.663.985c-2.38,1.345-5.147-1.141-7.906-1.377v3.925c1.868,1.007,3.72,2.232,5.944,1.606a19.968,19.968,0,0,0,3.323-1.6c.061-.03.148-.078.218-.111" transform="translate(-488.318 -69.572)" fill="#f1805b"/>
              <path id="Fill_108" data-name="Fill 108" d="M531.75,66.859a11.02,11.02,0,0,0-7.6-.886c-1.945.4-4.06,1.086-5.331,2.566-.071-.444-.848-.515-.9-.008-.53,4.838-.572,10.281,1.4,14.812.786,1.8,4.324,3.706,6,4.9,1.613,1.145,2.666.825,4.147-.278,2.733-2.037,4.054-5.034,4.945-9.013.8-3.576,1.043-10-2.675-12.1" transform="translate(-486.988 -61.725)" fill="#f8a58a"/>
              <path id="Fill_4-3" data-name="Fill 4-3" d="M524.794,78.152a2.862,2.862,0,0,0-.66.091,2.36,2.36,0,0,0-.6.245,1.728,1.728,0,0,0-.505.433,1.931,1.931,0,0,0-.327.69,1.454,1.454,0,0,1,.706-1.443,1.472,1.472,0,0,1,.69-.2,1.2,1.2,0,0,1,.694.18" transform="translate(-488.479 -65.339)" fill="#2c2c2c"/>
              <path id="Fill_4-4" data-name="Fill 4-4" d="M536.166,78.567a2.849,2.849,0,0,1,.66-.095,2.357,2.357,0,0,1,.644.07,1.72,1.72,0,0,1,.6.276,1.935,1.935,0,0,1,.506.573,1.461,1.461,0,0,0-.391-.791,1.445,1.445,0,0,0-.685-.4,1.469,1.469,0,0,0-.718,0,1.2,1.2,0,0,0-.617.365" transform="translate(-492.436 -65.393)" fill="#2c2c2c"/>
              <path id="Fill_110" data-name="Fill 110" d="M542,81.661c-.345-1.176-1.607-.824-2.1-.17-.868.642-.79,2.647-.75,3.613.018.446-.01,1,.453,1.158.481.164,1.052-.263,1.372-.591A4.478,4.478,0,0,0,542,81.661" transform="translate(-493.307 -66.195)" fill="#f8a58a"/>
              <path id="Fill_112" data-name="Fill 112" d="M516.866,85.581c.343.364.964.848,1.508.691.523-.15.515-.745.554-1.223.085-1.037.174-3.141-.768-3.865-.518-.72-1.834-1.194-2.268.054a4.668,4.668,0,0,0,.973,4.344" transform="translate(-486.431 -66.071)" fill="#f58c77"/>
              <path id="Fill_114" data-name="Fill 114" d="M525.75,81.652c0,.613-.26,1.112-.591,1.115s-.6-.493-.605-1.106.26-1.115.591-1.115.6.494.605,1.106" transform="translate(-489.026 -66.095)" fill="#1f2033"/>
              <path id="Fill_116" data-name="Fill 116" d="M537.045,81.461c-.012.613-.289,1.1-.619,1.1s-.588-.509-.577-1.122.289-1.105.62-1.1.588.509.576,1.122" transform="translate(-492.343 -66.034)" fill="#1f2033"/>
              <path id="Fill_118" data-name="Fill 118" d="M541.91,82.958c-.131-.49-.456-.733-.865-.28a.89.89,0,0,0-.2.734,1.574,1.574,0,0,1-.353,1.363c-.129.141.077.357.206.212a1.769,1.769,0,0,0,.475-.961,1.948,1.948,0,0,0,0-.485.87.87,0,0,1,.035-.575c.188-.316.353-.186.42.066a.149.149,0,0,0,.289-.071" transform="translate(-493.693 -66.651)" fill="#f1805b"/>
              <path id="Fill_120" data-name="Fill 120" d="M517.789,84.162a.82.82,0,0,1-.4-.54c-.046-.221.1-.429.125-.641a1.16,1.16,0,0,0-.141-.713c-.228-.395-.665-.487-.881-.022-.081.172.173.328.254.155q.353-.156.409.117a.436.436,0,0,1,.057.212,1.118,1.118,0,0,1-.071.481.911.911,0,0,0-.041.488,1.1,1.1,0,0,0,.531.72c.17.088.326-.166.155-.254" transform="translate(-486.655 -66.502)" fill="#c86959"/>
              <path id="Fill_122" data-name="Fill 122" d="M518.557,86.578c-.146-.124-.357.087-.212.212a3.131,3.131,0,0,1,.974,3.172c-.346,1.192-1.851,1.93-2.751.823-.121-.149-.331.063-.212.212a1.82,1.82,0,0,0,2.958-.315,3.313,3.313,0,0,0-.757-4.1" transform="translate(-486.609 -67.855)" fill="#f6ddc7"/>
              <path id="Fill_124" data-name="Fill 124" d="M530.2,86.644a4.514,4.514,0,0,1-.552-.035.164.164,0,0,1-.141-.177.12.12,0,0,1,.117-.123h.025a4.524,4.524,0,0,0,.553.035h.043a.141.141,0,0,1,.141.141v0a.141.141,0,0,1-.129.152H530.2Zm.848-.015a.124.124,0,0,1-.129-.119V86.5a.159.159,0,0,1,.141-.172l.049,0c.494-.047.857-.081,1.06-.625a1.67,1.67,0,0,0-.1-.923c-.014-.049-.028-.095-.039-.138-.053-.2-.114-.391-.174-.58a9.006,9.006,0,0,1-.266-.969.139.139,0,0,1,.03-.124.171.171,0,0,1,.129-.061.125.125,0,0,1,.129.108,8.14,8.14,0,0,0,.263.927,3.849,3.849,0,0,1,.287,2.007c-.131.591-.624.627-1.146.664-.074,0-.15.011-.225.018Z" transform="translate(-490.482 -66.788)" fill="#f1805b"/>
              <path id="Fill_130" data-name="Fill 130" d="M533.492,69.648c-.2-.625-1.2-.745-1.75-.892A15.3,15.3,0,0,0,529.1,68.3a19.864,19.864,0,0,0-5.991.441c-1.518.333-3.09.893-3.762,2.416a15.547,15.547,0,0,0-.824,2.8c-.219.954-.315,2.172-1.286,2.674-.17.088-.02.345.15.257,1.2-.622,1.264-2.236,1.554-3.4a8.458,8.458,0,0,1,.975-2.766,4.141,4.141,0,0,1,2.274-1.446,18.511,18.511,0,0,1,5.185-.748,16.708,16.708,0,0,1,2.866.208c.434.071.867.162,1.293.273.384.1,1.541.319,1.669.717.059.182.347.1.287-.079" transform="translate(-486.856 -62.48)" fill="#414f39"/>
              <path id="Fill_132" data-name="Fill 132" d="M538.995,69.97c-.071-1.969-.465-4.057-2.087-5.355a8.786,8.786,0,0,0-5.861-1.485,2.439,2.439,0,0,0-1.953,1.122c-.479.716-.135,1.8-.045,2.587a.156.156,0,0,0,.126.136.133.133,0,0,0,.138.109c2.543-.025,5.587-.3,7.214,2.056a7.563,7.563,0,0,1,1.164,3.586c.089.894-.131,2.066.413,2.839a.152.152,0,0,0,.234.03,2.865,2.865,0,0,0,.706-2.053c.035-1.185-.006-2.388-.049-3.571" transform="translate(-490.286 -60.976)" fill="#ab614f"/>
              <path id="Fill_134" data-name="Fill 134" d="M533.89,74.281a20.737,20.737,0,0,0-.134-2.294c-.141-1.3-.367-2.6-.616-3.885a2.718,2.718,0,0,0-1.554-2.18,7.572,7.572,0,0,0-5.82.02.115.115,0,0,0-.151-.059l-.006,0c-.039.016-.078.03-.117.045l-.062-.018c-.344-.216-.714-.385-1.053-.61l-.025-.018a2.528,2.528,0,0,0-.377-1.5c-.55-.777-1.707-.674-2.538-.565-2.427.314-3.992,1.9-5.525,3.669a15.384,15.384,0,0,0-2.175,3.023,18.782,18.782,0,0,0-1.221,3.518,16.639,16.639,0,0,0-.85,7.22A7.42,7.42,0,0,0,513,83.887a11.565,11.565,0,0,0,3.165,2.6.151.151,0,0,0,.181-.023c1.163-1.276.777-2.967.918-4.533a9.321,9.321,0,0,1,1-2.793,7.312,7.312,0,0,0,.5-2.739,12.078,12.078,0,0,1,1.227-5.983,6.831,6.831,0,0,1,4.394-3.334l.016-.007.079,0c.38,2.1,3.562,1.885,4.614,3.473.606.918.467,2.171,1.141,3.014a3.168,3.168,0,0,0,.969.725,4.469,4.469,0,0,1,1.385,1.069c.335.4.821.58,1.13.035a2.257,2.257,0,0,0,.17-1.108" transform="translate(-485.203 -60.984)" fill="#ab614f"/>
              <path id="Fill_136" data-name="Fill 136" d="M540.152,86.86c-.146-.124-.357.086-.212.212a3.133,3.133,0,0,1,.974,3.172c-.346,1.192-1.851,1.931-2.751.823-.121-.149-.331.063-.212.212a1.82,1.82,0,0,0,2.958-.315,3.313,3.313,0,0,0-.757-4.1" transform="translate(-492.95 -67.938)" fill="#f6ddc7"/>
              <path id="Fill_138" data-name="Fill 138" d="M533.681,182.912a5.443,5.443,0,0,0-3.09-2.533,10.279,10.279,0,0,0-4.573-.812c.033-.126.063-.253.1-.378a.149.149,0,1,0-.287-.082h0a32.829,32.829,0,0,0-1.178,9.294q.021,1.113.119,2.223a8.49,8.49,0,0,0,.283,1.993c.32.894,1.262.617,1.853.185a6.378,6.378,0,0,1,1.8-1.039c.642-.212,1.324-.275,1.966-.49,1.226-.413,1.576-1.358,2.349-2.277.381-.453.98-.636,1.342-1.1a2.007,2.007,0,0,0,.353-1.271,10.6,10.6,0,0,0-1.039-3.714" transform="translate(-489.053 -95.003)" fill="#1f2033"/>
              <path id="Fill_140" data-name="Fill 140" d="M534.65,181.427a18.2,18.2,0,0,0-.9-4.079c-.424-1.4-.854-2.794-1.357-4.168a10.655,10.655,0,0,0-1.717-3.518,2.065,2.065,0,0,0-2.453-.5.153.153,0,0,0-.211-.049.131.131,0,0,0-.02.015c-2.917,2.558-2.842,7.272-3.08,10.819q-.123,1.836-.181,3.673a12.636,12.636,0,0,0,.037,3.069c.328,1.471,2.123,1.528,3.2.74.758-.556.485-1.584.508-2.4a13.64,13.64,0,0,1,.64-3.708,21.1,21.1,0,0,0,.23,2.119c.155.937.38,1.879,1.523,1.8a5.759,5.759,0,0,0,2.773-1.045,2.967,2.967,0,0,0,1.009-2.767" transform="translate(-489.056 -92.055)" fill="#38539a"/>
              <path id="Fill_142" data-name="Fill 142" d="M530.4,168.24c-.009-.189-.307-.19-.3,0q.243,4.732.207,9.465a.149.149,0,1,0,.3,0q.036-4.733-.207-9.465" transform="translate(-490.657 -91.803)" fill="#1f2033"/>
              <path id="Fill_144" data-name="Fill 144" d="M532.835,182.8c-.379-1.921-.959-3.819-1.447-5.716a.149.149,0,1,0-.287.079h0l1.138,4.426a12.992,12.992,0,0,1,.435,2.153c.052.619.187,1.9-.459,2.274a.149.149,0,0,0,.15.257c1.006-.58.651-2.555.47-3.473" transform="translate(-490.947 -94.408)" fill="#1f2033"/>
              <path id="Fill_146" data-name="Fill 146" d="M526.554,169.568q-.269,1-.475,2.013c-.037.187.25.268.287.079q.207-1.014.475-2.013a.149.149,0,1,0-.288-.079h0" transform="translate(-489.473 -92.202)" fill="#1f2033"/>
              <path id="Fill_148" data-name="Fill 148" d="M535.954,178.2c-.369-1.744-.223-3.583-1.013-5.221-.083-.172-.341-.022-.258.15.777,1.606.624,3.439.983,5.149.367,1.751,1.346,3.345,1.542,5.129.02.189.319.191.3,0-.2-1.817-1.18-3.427-1.553-5.207" transform="translate(-491.996 -93.212)" fill="#1f2033"/>
              <path id="Fill_150" data-name="Fill 150" d="M527.988,66.169c-.4-.424-.924,0-1.178.353-.345.482-.448,1.024-1.005,1.351a3.5,3.5,0,0,0-.892.706,2.55,2.55,0,0,0-.668,1.905,6.708,6.708,0,0,1,3.878-2.559l.016-.006h.045c.071-.607.153-1.381-.2-1.748" transform="translate(-488.934 -61.822)" fill="#1f2033"/>
              <path id="Fill_152" data-name="Fill 152" d="M531.06,64.616a2.028,2.028,0,0,0-1.883-.6c-.188.036-.107.324.079.287a1.72,1.72,0,0,1,1.593.521c.132.141.343-.071.212-.212" transform="translate(-490.353 -61.23)" fill="#1f2033"/>
              <path id="Fill_154" data-name="Fill 154" d="M547.342,93.742h0l-.093-.033c-.063-.023-.128-.046-.193-.067a4.723,4.723,0,0,0,.3-1.958,7.405,7.405,0,0,0-.309-1.522,7.847,7.847,0,0,1-.3-1.441,3.42,3.42,0,0,1,.442-1.81,7.493,7.493,0,0,0,.357-.88,2.9,2.9,0,0,0-.849-2.986.129.129,0,0,1-.039-.147.167.167,0,0,1,.15-.1.141.141,0,0,1,.1.041,3.215,3.215,0,0,1,1.065,2.311,3.9,3.9,0,0,1-.472,1.69,3.943,3.943,0,0,0-.469,1.636,6.856,6.856,0,0,0,.316,1.766,6.422,6.422,0,0,1,.316,1.923,5.078,5.078,0,0,1-.321,1.582Zm-1.288-.339h0c-.093-.014-.192-.032-.292-.045a9.158,9.158,0,0,0-.023-3.155.121.121,0,0,1,.026-.1.138.138,0,0,1,.1-.042.163.163,0,0,1,.167.141,9.451,9.451,0,0,1,.016,3.2Z" transform="translate(-495.247 -66.755)" fill="#1f2033"/>
              <path id="Fill_156" data-name="Fill 156" d="M522.643,67.2a6.109,6.109,0,0,0-1.6,2.833.149.149,0,0,0,.287.079,5.788,5.788,0,0,1,1.522-2.7.15.15,0,0,0-.212-.212" transform="translate(-487.994 -62.162)" fill="#1f2033"/>
              <path id="Fill_158" data-name="Fill 158" d="M542.384,77.5a6.088,6.088,0,0,1-1.827-1.9c-.1-.163-.36-.013-.259.15a6.455,6.455,0,0,0,1.935,2c.16.106.309-.152.151-.258" transform="translate(-493.643 -64.624)" fill="#1f2033"/>
              <path id="Fill_160" data-name="Fill 160" d="M514.69,95.64h0l-.148-.013-.149-.013a4.14,4.14,0,0,1,.03-.76,3.789,3.789,0,0,1,.484-1.264,4.827,4.827,0,0,0,.424-.967,3.9,3.9,0,0,0-.048-1.745,5.839,5.839,0,0,1-.131-1.182,4.571,4.571,0,0,1,.679-2.056.131.131,0,0,1,.118-.071.166.166,0,0,1,.141.081.14.14,0,0,1,0,.141,4.154,4.154,0,0,0-.544,2.907c.013.086.028.172.043.259a4.441,4.441,0,0,1,.084,1.493,3.614,3.614,0,0,1-.458,1.115,4.555,4.555,0,0,0-.4.868,3.515,3.515,0,0,0-.124,1.206Zm-1.5-.114h0c-.1,0-.2,0-.3,0a5.641,5.641,0,0,1-.09-1.705,4.712,4.712,0,0,1,.5-1.457,4.881,4.881,0,0,0,.485-1.375.115.115,0,0,1,.12-.108.176.176,0,0,1,.131.061.155.155,0,0,1,.037.126,4.639,4.639,0,0,1-.478,1.336,4.774,4.774,0,0,0-.475,1.312,5.225,5.225,0,0,0,.076,1.812Z" transform="translate(-485.565 -68.157)" fill="#1f2033"/>
              <path id="Fill_164" data-name="Fill 164" d="M535.092,110.046c-1.346.22-2.78.058-3.894.982-.148.123.064.333.212.212,1.052-.875,2.493-.7,3.764-.9.186-.03.106-.318-.082-.29" transform="translate(-490.963 -74.757)" fill="#f1805b"/>
              <path id="Fill_166" data-name="Fill 166" d="M524.708,111.021c-1.13-.748-2.51-.682-3.759-1.1-.182-.061-.261.227-.079.287,1.223.41,2.581.336,3.688,1.068.16.106.31-.152.15-.257" transform="translate(-487.914 -74.719)" fill="#f1805b"/>
              <path id="Fill_168" data-name="Fill 168" d="M531.777,93.013a2.346,2.346,0,0,1-1.608.049.149.149,0,0,0-.087.283,2.607,2.607,0,0,0,1.766-.045c.177-.071.107-.359-.071-.29" transform="translate(-490.624 -69.752)" fill="#f1805b"/>
              <path id="Fill_170" data-name="Fill 170" d="M532.594,91.791c.188.034.268-.254.079-.291-.7-.137-1.408-.325-2.114-.4s-1.276.3-1.978.268c-.19-.007-.189.291,0,.3a10.812,10.812,0,0,0,1.611-.266,9.024,9.024,0,0,1,2.4.391" transform="translate(-490.167 -69.191)" fill="#f1805b"/>
              <path id="Fill_172" data-name="Fill 172" d="M538.93,126.164c-.084-.183-.161-.348-.353-.4a.407.407,0,0,0-.271.019c-.016.006-.177.086-.177.086a18.524,18.524,0,0,0-.455-3.356c-.23-.4-.682-.558-.918-.341-.1-.324-.125-.615-.444-.776-.534-.268-.86.24-.891.685a.348.348,0,0,0-.408-.049c-.223.108-.243.37-.26.585-.026.34-1.029,11.387-1.252,13.167-.039.311-.275.551-.133.861a1.344,1.344,0,0,0,.641.536,5.286,5.286,0,0,0,1.674.509c1.51.2,3.027-1.249,3.441-2.6a7.008,7.008,0,0,0,.015-2.45c-.041-.659-.052-1.714-.066-2.373a22.518,22.518,0,0,0-.141-4.1" transform="translate(-491.601 -78.069)" fill="#f8a58a"/>
              <path id="Fill_174" data-name="Fill 174" d="M536.123,122.734c-.07,2.116-.156,4.682-.259,6.793,0,.1.146.1.151,0,.1-2.111.19-4.678.259-6.793a.076.076,0,0,0-.151,0" transform="translate(-492.347 -78.461)" fill="#c86959"/>
              <path id="Fill_176" data-name="Fill 176" d="M538,122.975c0,2.159-.049,4.769-.141,6.922,0,.1.147.1.151,0,.092-2.155.141-4.765.141-6.922a.076.076,0,0,0-.151,0" transform="translate(-492.934 -78.531)" fill="#c86959"/>
              <path id="Fill_178" data-name="Fill 178" d="M539.925,128.089c-.033,1.067-.069,2.587-.1,3.653a.076.076,0,0,0,.151,0c.035-1.065.069-2.585.1-3.653a.076.076,0,0,0-.151,0" transform="translate(-493.509 -80.033)" fill="#c86959"/>
              <path id="Fill_180" data-name="Fill 180" d="M539,151.748a7.414,7.414,0,0,0,.4-2.989,7.11,7.11,0,0,0-.259-1.52c-2.622-1.052-6.311-2.486-7.491-3.078q-4.543-2.276-9.034-4.659c-.319-.169-.638-.336-.952-.512-.032-.018-2.061,1.7-3.044,2.55-.057.049,3.283,2.845,4.026,3.381,1.522,1.1,8.917,6.128,11.1,7.524a41.351,41.351,0,0,0,3.723,2.109,9.963,9.963,0,0,0,1.526-2.8" transform="translate(-487.286 -83.256)" fill="#f8a58a"/>
              <path id="Fill_182" data-name="Fill 182" d="M523.213,136.758c-.042-.3-1.2-.836-1.2-.836a29.311,29.311,0,0,1-2.25-3.517c-1.183-2.142-3.234-7.633-3.234-7.633s-.268-.855-.709-.9a.757.757,0,0,0-.636.369c-.02-.035-.212-.038-.255-.029-.973.217-.215,3.059-.126,3.744a.436.436,0,0,0-.3-.041c-.362.119-.361.521-.3.831.076.371.12.749.2,1.121.212.995.578,1.952.848,2.931.179.653,1.01,3.5,1.724,4.317a3.54,3.54,0,0,0,3.03,1.356c.212.115.32-.148.565-.181a6.5,6.5,0,0,0,1.871-.565c.409-.191.839-.455.769-.968" transform="translate(-485.979 -78.817)" fill="#f8a58a"/>
              <path id="Fill_184" data-name="Fill 184" d="M517.951,131.117c-.735-2.026-1.628-4.377-2.148-6.472-.023-.095-.168-.052-.147.045.523,2.092,1.416,4.446,2.151,6.472.033.091.178.047.141-.046" transform="translate(-486.413 -79.028)" fill="#c86959"/>
              <path id="Fill_186" data-name="Fill 186" d="M516.5,133.348c-.386-1-.865-2.347-1.18-3.374-.029-.093-.174-.053-.146.04.315,1.027.795,2.372,1.18,3.374.035.09.181.051.146-.04" transform="translate(-486.272 -80.593)" fill="#c86959"/>
              <path id="Fill_188" data-name="Fill 188" d="M527.076,142.6l-4.293,2.077c-.091.044-.011.18.079.136l4.294-2.08c.091-.044.012-.18-.079-.136" transform="translate(-488.494 -84.313)" fill="#c86959"/>
              <path id="Fill_190" data-name="Fill 190" d="M534.235,146.192l-4.153,3.2c-.079.061,0,.2.079.136l4.153-3.2c.079-.061,0-.2-.08-.136" transform="translate(-490.64 -85.366)" fill="#c86959"/>
              <path id="Fill_192" data-name="Fill 192" d="M521.36,139.285l-1.38.677c-.021.009-.041.02-.063.03l-.1.05-.04.019-.971.477-.154.076-2.265,1.112c-2.559,1.256-13.381,6.472-14.763,7.134l-6.347,3.43.961-6.216-8.014-3.468c-.232,2.14-.706,4.281-.941,6.421-.394,3.629-.976,7.3.133,10.885,1.574,5.091,8.074,2.352,11.261.669a53.349,53.349,0,0,0,6.949-4.5c.806-.584,1.565-1.193,2.254-1.721,3.2-2.44,6.417-4.867,9.7-7.189,1.2-.852,3.029-2.281,4.283-3.279l.131-.1.337-.269c.044-.033.087-.071.128-.1.11-.09.212-.17.3-.244l.126-.1.376-.3c-.725-1.273-1.223-2.184-1.9-3.48" transform="translate(-477.932 -83.342)" fill="#f8a58a"/>
              <path id="Fill_194" data-name="Fill 194" d="M558.624,143.9c.212,1.945.489,2.684.7,4.63.358,3.3.887,6.635-.121,9.894-1.431,4.628-7.339,2.137-10.235.608a48.393,48.393,0,0,1-6.314-4.094l-1.413-4.793,4.109-1.639,6.711,2.994-.9-5.711Z" transform="translate(-493.926 -84.697)" fill="#f8a58a"/>
            </g>
          </g>
        </g>
      </g>
    </g>
  </g>
</svg>
