<svg xmlns="http://www.w3.org/2000/svg" xmlns:xlink="http://www.w3.org/1999/xlink" width="107.25" height="107.25" viewBox="0 0 107.25 107.25">
  <defs>
    <clipPath id="clip-path">
      <path id="Mask" d="M53.313,96.361c29.444,0,53.937-29.742,53.937-56.352S82.757,0,53.313,0,0,17.345,0,43.954,23.869,96.361,53.313,96.361Z" transform="translate(0 10.889)" fill="none"/>
    </clipPath>
    <clipPath id="clip-path-2">
      <path id="Clip_2" data-name="Clip 2" d="M0,0H33.041V30.551H0Z" fill="none"/>
    </clipPath>
    <clipPath id="clip-path-3">
      <path id="Clip_145" data-name="Clip 145" d="M0,0H45.384V48.873H0Z" fill="none"/>
    </clipPath>
  </defs>
  <g id="Group_7972" data-name="Group 7972" transform="translate(-134.875 -83.375)">
    <g id="Ellipse_1553" data-name="Ellipse 1553" transform="translate(141 95)" fill="none" stroke="#c7caf0" stroke-miterlimit="10" stroke-width="16" style="mix-blend-mode: multiply;isolation: isolate">
      <circle cx="47.5" cy="47.5" r="47.5" stroke="none"/>
      <circle cx="47.5" cy="47.5" r="39.5" fill="none"/>
    </g>
    <g id="Girl" transform="translate(134.875 83.375)">
      <path id="Mask-2" data-name="Mask" d="M53.313,107.25c29.444,0,53.937-33.1,53.937-62.719S82.757,0,53.313,0,0,19.3,0,48.921,23.869,107.25,53.313,107.25Z" fill="none"/>
      <g id="Girl-2" data-name="Girl" clip-path="url(#clip-path)">
        <g id="Group_8358" data-name="Group 8358" transform="translate(-25.073 -42.968)">
          <g id="Group_8356" data-name="Group 8356" transform="translate(27.488 54.593)">
            <g id="Group_3" data-name="Group 3" transform="translate(31.399 70.352)">
              <path id="Clip_2-2" data-name="Clip 2" d="M0,0H33.041V30.551H0Z" transform="translate(0 0)" fill="none"/>
              <g id="Group_3-2" data-name="Group 3" transform="translate(0 0)" clip-path="url(#clip-path-2)">
                <path id="Fill_1" data-name="Fill 1" d="M31.9,11.022c-.106-1.352-.207-2.659-.3-3.855-.01-.127-.02-.252-.03-.376l-.016-.2c-.01-.134-.021-.267-.03-.4s-.02-.261-.03-.39c-.005-.063-.009-.127-.014-.189s-.011-.142-.016-.213c-.013-.177-.026-.35-.039-.52s-.026-.347-.038-.513c-.115-1.546-.19-2.646-.2-3.01C31.143-.271,28.414.017,27.441.023c-.549,0-1.1,0-1.647.008-1.072,0-2.144.006-3.216.036a18.878,18.878,0,0,0-4.934.8,11.363,11.363,0,0,1-2.382.4l-.268.018c-.885.056-1.774.065-2.679.142-1.609.137-3.169.717-4.764.994a7.887,7.887,0,0,1-3.407-.747h0c-.1-.039-.2-.08-.3-.121C2.519,1.02,1.418.448,1.418.448S1.092,1.972.772,4.989c-.012.112-.023.227-.035.343C.719,5.518.7,5.708.681,5.9.567,7.093.458,8.475.37,10.05.014,16.412-.007,25.917,0,26.57.013,27.8.064,29.247,1.133,29.8a3.921,3.921,0,0,0,1.412.308q1.318.14,2.639.234,2.342.17,4.688.2,2.772.038,5.542-.113l.262-.015q1.846-.106,3.689-.3a51.109,51.109,0,0,0,8.9-1.53A17.571,17.571,0,0,0,32.2,26.952c.342-.2.758-.356.839-.861.038-.232-.6-8.211-1.142-15.069" transform="translate(0 0)" fill="#7f3e3e"/>
              </g>
            </g>
            <path id="Fill_4" data-name="Fill 4" d="M18.336,5.53a13.545,13.545,0,0,0-.993-2.1,2.649,2.649,0,0,0-.164-1.1c-.339-.816-1.666-1.186-2.444-1.32a5.154,5.154,0,0,0-1.46-.041,5.639,5.639,0,0,1-.947.115c-.469-.026-.562-.316-.9-.524A1.487,1.487,0,0,0,10.232.542.668.668,0,0,0,10.04.076C9.785-.115,9.1.1,8.852.2A3.2,3.2,0,0,0,7.669,1.227,5.278,5.278,0,0,1,5.978,2.532a14.4,14.4,0,0,0-1.845.706A4.814,4.814,0,0,0,2.888,4.426a5.019,5.019,0,0,0-1.1,3.058,2.409,2.409,0,0,0-.672.406A2.548,2.548,0,0,0,.019,9.4a4.189,4.189,0,0,0,.406,2.085,10.941,10.941,0,0,1,.943,2.491A4.682,4.682,0,0,0,2.285,15.9a1.616,1.616,0,0,1,.236.588,4.3,4.3,0,0,0,.336,1.515,9.916,9.916,0,0,0,1.616,1.725l.179.177a.09.09,0,0,0,.017.016A15.487,15.487,0,0,1,6.514,22c.1.138.322.007.225-.132a14.427,14.427,0,0,0-1.71-1.951c-.185-.183-.371-.364-.557-.546-.305-.3-.609-.6-.9-.9-.084-.088-.168-.178-.247-.272l.008,0a.211.211,0,0,0,.139-.046.013.013,0,0,1,.005-.007.5.5,0,0,1,.079-.007.433.433,0,0,0,.034.037,1.558,1.558,0,0,0,.631.389l.08.026a3.354,3.354,0,0,0,.436.1q.084.016.169.027c1.037.154,1.987.547,3.007.758a9.224,9.224,0,0,0,5.6-1.118A8.107,8.107,0,0,0,16.63,16.4a3.936,3.936,0,0,0,.533-.9q.035-.084.071-.173c.012-.03.024-.06.034-.09.034-.088.067-.178.1-.27A13.882,13.882,0,0,0,17.8,13.32c.334-1.621.5-3.431.685-4.848a5.178,5.178,0,0,0-.151-2.942" transform="translate(34.819 0)" fill="#6b3939"/>
            <path id="Fill_6" data-name="Fill 6" d="M14.646,11.359c0-.077-.005-.153-.008-.23-.009-.232-.02-.466-.031-.7-.007-.132-.014-.265-.022-.4h0c-.018-.331-.039-.664-.061-1h0q-.035-.5-.075-1a.025.025,0,0,1,0-.01,39.536,39.536,0,0,0-.72-5.674A4.517,4.517,0,0,0,11.559.778q-.222-.1-.456-.216c-.123-.061-.25-.127-.377-.2A4.513,4.513,0,0,0,7.759.142,12.135,12.135,0,0,0,1.6,2.64a6.784,6.784,0,0,0-.684.687c-.06.069-.118.14-.173.213A4.019,4.019,0,0,0,.161,4.56,2.551,2.551,0,0,0,.009,5.693h0c.038.532.185,1.055.206,1.664,0,.018,0,.038,0,.06a26.367,26.367,0,0,0,.626,3.052l.051.208h0c.062.25.127.507.2.765.092.347.186.7.284,1.044.088.314.178.627.27.932.005.02.012.039.017.059l.059.194c.064.212.13.419.2.619s.119.367.179.539c0,.005,0,.011.005.016a11.464,11.464,0,0,0,.684,1.661A9.091,9.091,0,0,0,4.69,18.918a5.892,5.892,0,0,0,3.715,1.587,5.191,5.191,0,0,0,1.668-.225,7.474,7.474,0,0,0,.97-.368c.207-.1.408-.2.6-.313a7.545,7.545,0,0,0,1.672-1.4c.74-.787,1.045-2.628,1.193-3.673a31.031,31.031,0,0,0,.136-3.164" transform="translate(37.375 5.078)" fill="#fea689"/>
            <path id="Fill_8" data-name="Fill 8" d="M22.032,12.487a1.117,1.117,0,0,0-.7-.343,14.8,14.8,0,0,1-1.605-.4,11.4,11.4,0,0,1-3.08-1.626,11.669,11.669,0,0,1-.919-.753c-.067-.06-.132-.122-.2-.186A4.146,4.146,0,0,1,14.4,7.513c-.037-.123-.071-.25-.1-.377a28.787,28.787,0,0,1-.458-3.464c-.017-.144-.034-.287-.054-.427C13.66,2.359,13.49,1.463,13.42.57c0,0-.022-.284-.034-.426-.016-.193-.318-.194-.3,0,.008.106.017.211.025.315a4.271,4.271,0,0,0-1.89.223c-.275.08-.53.16-.744.22a28.406,28.406,0,0,0-2.941.93A7.652,7.652,0,0,0,5.256,3.165q-.069-.407-.139-.813c-.033-.191-.325-.11-.292.081.058.329.113.657.169.987-.021.021-.042.039-.061.061a.156.156,0,0,0,.115.259,1.975,1.975,0,0,1,.16.638c0,.005,0,.01,0,.017.012.069.025.143.037.22.005.029.009.058.014.086l.02.121q.02.12.039.247a.045.045,0,0,0,0,.014c.02.122.038.247.058.377a.037.037,0,0,0,0,.012c.033.207.064.423.094.643l.008.051c.029.2.056.4.084.593,0,.012,0,.023,0,.035q.03.2.055.4c.02.139.038.275.055.4.007.045.012.089.018.132.043.32.081.614.114.862.047.355.08.611.094.708a1.313,1.313,0,0,1,.02.329,2.781,2.781,0,0,1-.5,1.147q-.077.112-.157.224c-.342.467-.743.9-1.019,1.235A9.035,9.035,0,0,1,.1,15.21a.153.153,0,0,0,.039.3.129.129,0,0,0,.135.088,4.864,4.864,0,0,0,.5.661,5.735,5.735,0,0,0,1.523.616,13.2,13.2,0,0,0,3.58.609,14.805,14.805,0,0,0,3.661-.4l.272-.062c1.18-.276,2.347-.634,3.511-.96a58.618,58.618,0,0,0,7.493-2.377c.369-.159,1.668-.529,1.211-1.194" transform="translate(36.856 19.601)" fill="#fea689"/>
            <path id="Fill_10" data-name="Fill 10" d="M.908,1.174A2.518,2.518,0,0,0,.8.391.714.714,0,0,0,.586.077C.293-.147.033.161.006.435-.03.791.1,1.537.444,1.661S.9,1.522.908,1.174" transform="translate(47.76 13.572)" fill="#232c44"/>
            <path id="Fill_12" data-name="Fill 12" d="M.9,1.135A2.462,2.462,0,0,0,.776.372a.7.7,0,0,0-.214-.3C.271-.141.024.165,0,.433-.024.782.116,1.507.459,1.621S.9,1.476.9,1.135" transform="translate(41.251 14.716)" fill="#232c44"/>
            <path id="Fill_14" data-name="Fill 14" d="M1.51,3.646C.881,3.6.373,3.531.272,2.744a4.36,4.36,0,0,1,.053-.81L.452.126C.463-.042.2-.042.19.126L.071,1.813a4.355,4.355,0,0,0-.03,1.272c.159.664.879.783,1.468.823.168.012.167-.25,0-.262" transform="translate(44.335 15.244)" fill="#f2815c"/>
            <path id="Fill_16" data-name="Fill 16" d="M0,.807a3.9,3.9,0,0,1,.288.35,1.555,1.555,0,0,0,.371.234,3.073,3.073,0,0,0,1.829.224A2.3,2.3,0,0,0,4.344.241,1.006,1.006,0,0,0,4.4,0L0,.807" transform="translate(43.73 20.043)" fill="#fff"/>
            <path id="Fill_18" data-name="Fill 18" d="M6.957.7A.436.436,0,0,0,6.8.7a1.226,1.226,0,0,0-.441.312,1.913,1.913,0,0,1-.169.145,5.392,5.392,0,0,1-.9.426A2.648,2.648,0,0,1,3.718,1.6c-.212-.05-.422-.115-.627-.183A21.545,21.545,0,0,1,0,0C0,.005,0,.01,0,.017.014.086.027.16.039.237.044.266.048.295.054.323l.02.12q.02.12.039.247a.044.044,0,0,0,0,.014c.02.122.038.247.058.377a.037.037,0,0,0,0,.012c.03.208.063.424.094.643l.008.051c.029.2.056.4.084.593a.329.329,0,0,0,0,.035q.029.2.055.4c.02.139.038.275.055.4.007.045.012.089.018.132a3.252,3.252,0,0,0,.877-.115,4.111,4.111,0,0,1,1.922-.035c.27.063.511.182.784.046.144-.071.168-.177.285-.274.454-.373.384-.3.792-.392A2.827,2.827,0,0,0,6.908,1.34c.12-.192.306-.588.05-.642" transform="translate(42.063 23.979)" fill="#f2815c"/>
            <path id="Fill_20" data-name="Fill 20" d="M2.287,1.461A2.118,2.118,0,0,0,1.621.241,1.123,1.123,0,0,0,1.327.066.876.876,0,0,0,.972,0,.8.8,0,0,0,.823.019l-.012,0A1.582,1.582,0,0,0,.032.616C-.074.746.11.931.216.8.371.615.43.543.552.513A7.057,7.057,0,0,0,.5,2.02c-.03.439-.062.871-.055,1.3A5.2,5.2,0,0,0,.561,4.351a.057.057,0,0,0,.007.016C.524,4.378.481,4.39.436,4.4c-.165.037-.1.289.069.253A4.118,4.118,0,0,0,1.049,4.5a1.276,1.276,0,0,0,.828-.817,4.967,4.967,0,0,0,.41-2.22" transform="translate(51 13.079)" fill="#fea689"/>
            <path id="Fill_22" data-name="Fill 22" d="M2.586,4.114l-.135.005c0-.007,0-.011,0-.017A5.154,5.154,0,0,0,2.3,3.145c-.111-.44-.266-.867-.422-1.3A7.014,7.014,0,0,0,1.426.4c.124,0,.2.05.4.188.139.1.266-.132.128-.228a2.412,2.412,0,0,0-.535-.3A.937.937,0,0,0,.964.007.736.736,0,0,0,.8.051.881.881,0,0,0,.559.183,1.435,1.435,0,0,0,.084.952a2.3,2.3,0,0,0-.073.834A4.964,4.964,0,0,0,1,3.81a1.35,1.35,0,0,0,1.217.573.017.017,0,0,0,.012,0c.114,0,.232,0,.354-.008a.01.01,0,0,0,.007,0c.162-.014.159-.27-.007-.261" transform="translate(37.256 15.541)" fill="#fea689"/>
            <path id="Fill_24" data-name="Fill 24" d="M3.832.6A.5.5,0,0,0,3.774.473,1.579,1.579,0,0,0,2.635,0,3.5,3.5,0,0,0,.041,1.323a.132.132,0,0,0,.079.228,5.642,5.642,0,0,0,1.9-.342c.374-.076.759-.084,1.134-.153.227-.041.766-.122.674-.457" transform="translate(39.357 12.384)" fill="#6b3939"/>
            <path id="Fill_26" data-name="Fill 26" d="M3.831.611A3.5,3.5,0,0,0,.958.145C.651.257.115.568.016.942A.431.431,0,0,0,0,1.078c.014.348.553.261.781.231.378-.048.748-.158,1.126-.2A5.685,5.685,0,0,0,3.827.853a.133.133,0,0,0,0-.242" transform="translate(46.261 11.351)" fill="#6b3939"/>
            <path id="Fill_28" data-name="Fill 28" d="M.656,1.484C.625,1.237.423,1.086.279.9Q.27.515.262.126A.131.131,0,0,0,0,.126L.017.917a.105.105,0,0,0,.02.1,2.612,2.612,0,0,1,.327.4c.118.254-.156.6-.27.806-.08.148.146.281.226.132a1.62,1.62,0,0,0,.335-.87" transform="translate(51.886 14.045)" fill="#f2815c"/>
            <path id="Fill_30" data-name="Fill 30" d="M.907,2.134C.7,1.986.471,1.821.468,1.542A1.354,1.354,0,0,1,.678.967.13.13,0,0,0,.69.9.118.118,0,0,0,.682.837,3.408,3.408,0,0,0,.251.056c-.1-.134-.327,0-.226.132a3.162,3.162,0,0,1,.4.7,1.266,1.266,0,0,0-.215.769,1.18,1.18,0,0,0,.566.7c.137.1.268-.129.132-.226" transform="translate(38.173 16.406)" fill="#f2815c"/>
            <path id="Fill_32" data-name="Fill 32" d="M32.092,9.477a7.714,7.714,0,0,0-.812-.119,12.476,12.476,0,0,0-2.47.172A4.792,4.792,0,0,1,25.339,8.9c-1.141-.777-2.13-1.931-3.562-1.461-1.035.341-1.925.914-2.969.275-1.1-.675-1.776-1.965-3.124-2.056a4.031,4.031,0,0,0-.938.059c-.385,2.018.11,4.049.289,6.076a20.605,20.605,0,0,1-.075,3.353,9.1,9.1,0,0,0,.025,1.5,1.669,1.669,0,0,0,1.958-1.222,6.054,6.054,0,0,0,.241-2.568c-.1-1.755-.246-3.508-.369-5.261-.014-.2.247-.195.262,0q.132,1.863.263,3.727a16.57,16.57,0,0,1,.088,3.231c-.174,1.358-1.129,2.774-2.408,2.421.066.547.165,1.09.275,1.651.42,2.126.065,4.224.161,6.379a38.907,38.907,0,0,0,.413,4l-.262.015c-.183-1.233-.33-2.473-.4-3.722a34.244,34.244,0,0,1,.054-3.7,13.48,13.48,0,0,0-.325-3.4A11.228,11.228,0,0,1,14.713,15a18.99,18.99,0,0,0,.037-3.473,21.144,21.144,0,0,1-.277-5.76c-.407.084-.812.192-1.217.263a9.766,9.766,0,0,1-1.907.138A44.161,44.161,0,0,1,6.793,5.7c-1.871-.228-3.909-.445-5.48-1.639a.064.064,0,0,1-.016.006c-.1.037-.157-.052-.158-.143C1.068,3.871,1,3.812.932,3.748A5.432,5.432,0,0,1,.026,2.68a.136.136,0,1,1,.225-.154A5.327,5.327,0,0,0,.967,3.4c.119.119.244.229.372.334A58.812,58.812,0,0,1,10.1,1.181,57.354,57.354,0,0,1,18,.11a32.262,32.262,0,0,1,7.454.224A15.446,15.446,0,0,1,31.58,2.773c.131,1.788.316,4.17.512,6.7" transform="translate(31.204 71.748)" fill="#452222"/>
            <path id="Fill_34" data-name="Fill 34" d="M8.421,9.169c-.109-.2-.215-.4-.322-.6a.13.13,0,0,0-.116-.22c-.538-1.023-1.05-2.06-1.55-3.1-.264-.549-.524-1.1-.783-1.651-.223-.473-.443-.947-.664-1.421-.094-.2-.188-.4-.281-.6q-.353-.75-.71-1.5c-.073-.15-.317-.055-.244.1,0,.007.007.013.009.021C2.764.869,1.012,2.23,0,2.883a4.821,4.821,0,0,0,.148.571c.077.272.181.63.3,1.045.134.456.288.981.451,1.537.211.714.435,1.48.65,2.221.154.532.3,1.051.437,1.528h0c.026.093.052.182.076.271.223.794.4,1.446.471,1.8a.133.133,0,0,0,.179.107c.925-.384,2.591-1.481,3.5-1.9.152-.071.056-.314-.1-.244l-.084.038-.063-.378a16.611,16.611,0,0,1,1.891-.808c.1.2.208.394.316.589.079.147.323.051.242-.1" transform="translate(7.382 36.448)" fill="#fea689"/>
            <path id="Fill_36" data-name="Fill 36" d="M15.225,2.447A3.8,3.8,0,0,0,14.062.957,2.376,2.376,0,0,0,13.816.8a2.7,2.7,0,0,0-.28-.147,6.6,6.6,0,0,0-.888-.33h0c-.181-.055-.364-.1-.549-.142a8.092,8.092,0,0,0-1.25-.168A7.988,7.988,0,0,0,7.906.417c-1,.329-2.013.633-3.021.953A14.275,14.275,0,0,0,2.148,2.688a7.537,7.537,0,0,0-1.6,1.073,2.531,2.531,0,0,0-.178.2,1.791,1.791,0,0,0-.255.418A2.26,2.26,0,0,0,.06,5.612c.089.644.224,1.279.334,1.921.173,1.007.01,2.28.53,3.2-.143-.046-.259.161-.114.23a2.417,2.417,0,0,1,.477.4,1.234,1.234,0,0,0,.219.165h0a.421.421,0,0,0,.258.056.135.135,0,0,0,.127-.1.653.653,0,0,0,.017-.11,1.559,1.559,0,0,0-.153-.707,1.647,1.647,0,0,1-.109-1.235c.251-.9-.473-2.065.131-2.87.178-.238.439-.385.605-.644.19-.295.3-.626.473-.93A5.706,5.706,0,0,1,4.009,3.647l.03-.007a12.245,12.245,0,0,1,1.71.027,5.28,5.28,0,0,0,1.375-.249c.659-.213,1.188-.66,1.908-.44a3.2,3.2,0,0,0,1.24.289c.263-.018.526-.131.787-.13.291,0,.5.161.779.181a1.391,1.391,0,0,0,.681-.151,2.623,2.623,0,0,1,.974.724c.4.516.183,1.08.411,1.632a4.667,4.667,0,0,1,.45.927c.041.208.022.436.06.648a7.812,7.812,0,0,0,.594,1.722.1.1,0,0,0,.035.046.035.035,0,0,0,.013.008.13.13,0,0,0,.148-.029.129.129,0,0,0,.047-.09q.1-1.807.2-3.613a5.208,5.208,0,0,0-.224-2.7" transform="translate(36.766 4.232)" fill="#6b3939"/>
            <path id="Fill_38" data-name="Fill 38" d="M1.877.936A1.9,1.9,0,0,0,1.155.623,1.753,1.753,0,0,1,.218.044C.109-.086-.075.1.033.229a1.873,1.873,0,0,0,.7.533,3.921,3.921,0,0,1,.956.36c.131.1.318-.082.185-.185" transform="translate(36.817 7.685)" fill="#452222"/>
            <path id="Fill_40" data-name="Fill 40" d="M5.429.037A5.167,5.167,0,0,1,2.172,1.189a3.849,3.849,0,0,0-2.129.82c-.128.11.058.295.185.185.887-.766,2.049-.714,3.14-.887A4.056,4.056,0,0,0,5.614.222c.122-.117-.063-.3-.185-.185" transform="translate(45.774 4.519)" fill="#452222"/>
            <path id="Fill_42" data-name="Fill 42" d="M2.6.036A4.1,4.1,0,0,1,.126,1.113c-.167.013-.168.275,0,.262A4.4,4.4,0,0,0,2.79.221c.125-.114-.061-.3-.185-.185" transform="translate(48.841 3.236)" fill="#452222"/>
            <path id="Fill_44" data-name="Fill 44" d="M3.171,0C1.531.135.6,1.518.012,2.909c-.065.153.16.287.226.132C.787,1.752,1.631.388,3.171.262c.167-.014.168-.276,0-.262" transform="translate(37.291 3.267)" fill="#452222"/>
            <path id="Fill_46" data-name="Fill 46" d="M1.062.224A.131.131,0,0,0,.877.039,2.57,2.57,0,0,0,.054,1.305,4.587,4.587,0,0,0,.1,2.918c.026.166.278.1.253-.07A4.448,4.448,0,0,1,.3,1.446,2.251,2.251,0,0,1,1.062.224" transform="translate(37.322 9.499)" fill="#452222"/>
            <path id="Fill_48" data-name="Fill 48" d="M38.177,6.264a2.93,2.93,0,0,0-1.308-.883c-.813-.343-1.645-.645-2.475-.945A75.036,75.036,0,0,0,23.822,1.485C23.641.735,23.4-.2,22.544.037A29.317,29.317,0,0,1,17.9,1.063a.137.137,0,0,0-.126.1l-.33,1.067a6.283,6.283,0,0,0-.18-.721c-.083-.258-.172-.422-.461-.45a6.827,6.827,0,0,0-1.792.372c-.608.13-2.5.156-2.6.889-.03.209,0,.425-.052.632C12.11,4.009,8.614,4.806,7.682,5.214Q4.854,6.453,2.115,7.884A4.413,4.413,0,0,0,.249,9.153a3,3,0,0,0-.142,2.038c.331,2.174.724,4.345.966,6.531a31.454,31.454,0,0,1-.052,6.218,13.059,13.059,0,0,1-.316,1.8A14.417,14.417,0,0,1,1.96,31.173c-.007,1.411-.522,2.747-.6,4.153a12.174,12.174,0,0,0,.491,3.982A9.389,9.389,0,0,1,2.27,41.17a3.616,3.616,0,0,1-.345,1.694A6.944,6.944,0,0,0,1.2,44.993c-.079.99.007,2.631.772,3.37a2.679,2.679,0,0,0,1.079.557,14.206,14.206,0,0,0,4.913.633,23.667,23.667,0,0,0,4.024-.678,28.446,28.446,0,0,1,4.061-.625,60.016,60.016,0,0,1,8.841.31c1.461.112,4.1.209,5.57.217,1.205.007,4.235.112,4.595-1.459a51.8,51.8,0,0,0,.747-6.1c.359-3.46-.606-6.932-.4-10.4s1.43-10.609,1.43-10.609a14.705,14.705,0,0,1-.029-4.83c.455-1.536,1.06-3.027,1.4-4.6a15.069,15.069,0,0,0,.327-2.607,3,3,0,0,0-.347-1.913" transform="translate(29.085 26.567)" fill="#f1f2ff"/>
            <path id="Fill_50" data-name="Fill 50" d="M32.161,15.237a15.516,15.516,0,0,0-.976-3.7,33.7,33.7,0,0,0-3.75-7.685A13.7,13.7,0,0,0,24.891.592a2.081,2.081,0,0,0-1.1-.447.132.132,0,0,0-.194-.127c-.081.047-.159.1-.233.152a1.287,1.287,0,0,0-.433.177,1.328,1.328,0,0,0-.325.3,22.244,22.244,0,0,0-3.661,6.3,19.256,19.256,0,0,1-1.049,2.984c-.982,1.863-3.2,3.122-4.671,4.748a5.409,5.409,0,0,0-.389-.592,14.3,14.3,0,0,0-2.167-1.937A6.38,6.38,0,0,1,9.122,9.145,10.442,10.442,0,0,0,7.65,6.376a.134.134,0,0,0-.179-.047L7.349,6.4,3.534,8.792c-.339.213-.7.418-1.066.628a10.5,10.5,0,0,0-2.1,1.452c-.322.312-.467.428-.295.829q.436,1.008.892,2,.886,1.941,1.844,3.846,1.915,3.811,4.109,7.472c1.024,1.708,2.212,4.37,4.482,4.592a7.392,7.392,0,0,0,3.58-.947c1.252-.563,2.451-1.234,3.653-1.892,1.994-1.093,3.985-2.2,5.885-3.456q.363-.237.72-.483a28.141,28.141,0,0,0,5.5-4.8c.685-.8,1.506-1.672,1.426-2.8" transform="translate(6.465 35.285)" fill="#f1f2ff"/>
            <path id="Fill_52" data-name="Fill 52" d="M13.678,3.6a.374.374,0,0,0-.373-.136,1.844,1.844,0,0,0-1.388,1.225,9.1,9.1,0,0,1-.481,1.522,1.17,1.17,0,0,1-.881-.02,2.9,2.9,0,0,1-.549-.446,7.119,7.119,0,0,1-.636-.667A17.318,17.318,0,0,1,8.089,3.268c-.4-.622-.737-1.284-1.166-1.887C6.7,1.061,5.655-.466,5.165.141c-.313.388-.016,1.082.171,1.387.408.664.79,1.345,1.152,2.035q.272.517.528,1.042.128.262.252.527c.078.167.133.379-.091.46a.41.41,0,0,1-.315-.031A18.718,18.718,0,0,1,4.518,3.088q-.619-.833-1.3-1.615c-.262-.3-.576-.741-1.033-.549-1.209.511.126,1.746.524,2.307.669.943,1.3,1.914,1.887,2.906-.4-.3-.759-.676-1.113-1-.549-.5-1.088-1.008-1.59-1.556C1.594,3.261.406,1.933.03,3.008c-.144.413.263.914.467,1.231A14.078,14.078,0,0,0,1.625,5.733c.7.832,1.459,1.616,2.145,2.459-.47-.342-.99-.609-1.467-.96C1.88,6.922,1.281,6.142.676,6.575c-.525.376-.026.859.253,1.2.71.881,1.559,1.7,2.354,2.508.754.763,1.434,1.519,2.228,2.239.4.36.782.731,1.143,1.126a4.1,4.1,0,0,0,.877.825l.037.022c.733.41,1.443-.061,2.092-.419a7.6,7.6,0,0,0,1.693-1.062c.014.021.03.041.046.06-.083.118.075.271.186.176a.126.126,0,0,0,.149-.021.134.134,0,0,0,.017-.162,3.385,3.385,0,0,0,.334-.477,6.544,6.544,0,0,0,.615-3.35,12.546,12.546,0,0,1,.231-2.92A11.77,11.77,0,0,1,13.412,5a5.912,5.912,0,0,0,.313-1.087.452.452,0,0,0-.047-.32" transform="translate(0 25.424)" fill="#fea689"/>
            <path id="Fill_54" data-name="Fill 54" d="M1.377.045A6.187,6.187,0,0,0,.159,5.333c.037.164.29.095.253-.07A5.911,5.911,0,0,1,1.562.23c.1-.13-.08-.317-.185-.185" transform="translate(9.013 32.221)" fill="#f2815c"/>
            <path id="Fill_56" data-name="Fill 56" d="M3.475.024A28.193,28.193,0,0,0,.038,2.951a.131.131,0,0,0,.185.185A27.775,27.775,0,0,1,3.607.251c.135-.1,0-.325-.132-.226" transform="translate(4.938 32.049)" fill="#f2815c"/>
            <path id="Fill_58" data-name="Fill 58" d="M21.708,18.737c-.487-.983-2.785-2.789-3.3-3.795-.473-.927-.855-1.9-1.346-2.813a11.119,11.119,0,0,0-1.81-2.414,15.928,15.928,0,0,1-2.218-2.789,26.5,26.5,0,0,0-1.79-2.713A14.833,14.833,0,0,0,6.967.747h0C6.547.5,6.124.251,5.7,0,5.552-.085,1.041,10.357,0,15.594a.131.131,0,0,0,.09.161,4.1,4.1,0,0,1,2.527,1.691,14.4,14.4,0,0,0,1.3,1.844,3.933,3.933,0,0,0,.922.689,27.384,27.384,0,0,1,3.156,1.5A13.731,13.731,0,0,1,10.97,24.76s-1.586.965-1.89,2.062c-.162.588-.123,1.477-.526,1.958a8.471,8.471,0,0,1-1.327,1.063L4.6,31.89l-.6.465a.13.13,0,0,0-.02.159c.215.4.454.815.715,1.247.14.232.287.467.437.706A27.383,27.383,0,0,0,8.556,38.88c.3.3.592.575.887.82.034.029,9.094-5.929,10.76-7.345,1.519-1.291,3.887-4.569,4.169-6.6.3-2.162-2.353-6.4-2.663-7.023" transform="translate(60.258 32.034)" fill="#f1f2ff"/>
            <path id="Fill_60" data-name="Fill 60" d="M4.268.126A10.6,10.6,0,0,1,4.03,2.36c-.042.176-.058.408-.263.469a.868.868,0,0,1-.541-.107,1.862,1.862,0,0,0-.548-.1C1.726,2.566,1.069,1.8.126,1.745c-.168-.01-.168.252,0,.262a5.762,5.762,0,0,1,1.737.737,2.409,2.409,0,0,0,.723.143c.378.033.737.228,1.1.251.4.025.429-.288.516-.62A10.5,10.5,0,0,0,4.53.126a.131.131,0,0,0-.262,0" transform="translate(41.576 28.515)" fill="#b9bce9"/>
            <path id="Fill_62" data-name="Fill 62" d="M5.461.462A31.917,31.917,0,0,0,2.384,2.513c-.112.093-.216.194-.328.286-.29.238-.437.441-.748.392-.277-.044-.345-.218-.43-.563L.76,2.145.257.093C.217-.07-.036,0,0,.163L.656,2.818c.132.538.266.8.9.6a1.843,1.843,0,0,0,.6-.366A15.153,15.153,0,0,1,3.37,2.126C4.107,1.64,4.852,1.167,5.593.688,5.735.6,5.6.37,5.461.462" transform="translate(47.045 28.24)" fill="#b9bce9"/>
            <path id="Fill_64" data-name="Fill 64" d="M1.806,36.445a17.4,17.4,0,0,0,.384-4.017c-.031-1.515-.257-3.02-.265-4.536-.008-1.493.2-2.98.154-4.473a14.351,14.351,0,0,0-.9-4.064A10.936,10.936,0,0,1,.906,14.8a15.04,15.04,0,0,0-.1-4.22A26.8,26.8,0,0,1,.25,5.4,51.82,51.82,0,0,1,.682.125C.7-.042.439-.041.42.125A31.039,31.039,0,0,0,.3,9.3a17.743,17.743,0,0,1,.415,4.755,15.337,15.337,0,0,0-.066,4.32c.312,1.556,1.038,2.942,1.147,4.55.107,1.573-.118,3.144-.131,4.717-.013,1.516.207,3.019.257,4.532a17.19,17.19,0,0,1-.474,4.659,16.479,16.479,0,0,1-.725,2.24,7.971,7.971,0,0,0-.681,2.157A4.589,4.589,0,0,0,1.157,44.67c.11.128.294-.058.185-.185A4.3,4.3,0,0,1,.466,40.45c.408-1.359,1.038-2.6,1.34-4" transform="translate(46.339 29.261)" fill="#b9bce9"/>
            <path id="Fill_66" data-name="Fill 66" d="M4.632,14.307a7.731,7.731,0,0,0-.578-2.056q-.465-1.227-.9-2.463Q1.466,5.015.257.093C.217-.07-.036,0,0,.163Q1.128,4.713,2.651,9.15c.492,1.426,1.127,2.828,1.542,4.277.485,1.69-.173,3.193-.919,4.689-.075.15.151.283.226.132a7.6,7.6,0,0,0,1.133-3.942" transform="translate(28.108 39.817)" fill="#b9bce9"/>
            <path id="Fill_72" data-name="Fill 72" d="M1.683,3.2c-.007-.168-.269-.169-.262,0a7.227,7.227,0,0,1-.41,2.809A4.644,4.644,0,0,1,.668,6.8l-.187.271Q.147,7.207.29,6.88A3.633,3.633,0,0,1,.671,5.455,16.639,16.639,0,0,0,1.356.126a.131.131,0,0,0-.262,0,19.931,19.931,0,0,1-.288,3.9A17.292,17.292,0,0,0,0,7.317a.134.134,0,0,0,.131.131c.683.052.945-.851,1.133-1.367A7.427,7.427,0,0,0,1.683,3.2" transform="translate(18.39 50.384)" fill="#b9bce9"/>
            <path id="Fill_74" data-name="Fill 74" d="M5.028.031Q2.562,2.006.055,3.928c-.132.1,0,.329.132.226Q2.721,2.212,5.213.216c.132-.105-.055-.29-.185-.185" transform="translate(7.693 43.561)" fill="#b9bce9"/>
            <path id="Fill_78" data-name="Fill 78" d="M3.013,3.889C1.412,3.694.486,1.464.255.095.227-.071-.026,0,0,.164c.255,1.512,1.27,3.775,3.011,3.987.167.02.165-.242,0-.262" transform="translate(35.089 70.883)" fill="#b9bce9"/>
            <path id="Fill_80" data-name="Fill 80" d="M.027.126Q.014.454,0,.781c-.007.169.255.168.262,0Q.275.454.289.126C.3-.042.034-.042.027.126" transform="translate(47.214 32.334)" fill="#b9bce9"/>
            <path id="Fill_82" data-name="Fill 82" d="M.358.743a4.535,4.535,0,0,1-.1-.618C.248-.041-.014-.043,0,.126A5.066,5.066,0,0,0,.106.813C.143.977.4.908.358.743" transform="translate(47.738 39.886)" fill="#b9bce9"/>
            <path id="Fill_84" data-name="Fill 84" d="M.45.7.259.091c-.05-.16-.3-.092-.253.07L.2.774C.248.934.5.865.45.7" transform="translate(48.053 47.872)" fill="#b9bce9"/>
            <path id="Fill_86" data-name="Fill 86" d="M.267.126C.273-.042.011-.042.005.126Q-.008.509.014.891c.01.168.272.169.262,0Q.253.509.267.126" transform="translate(48.986 56.428)" fill="#b9bce9"/>
            <path id="Fill_88" data-name="Fill 88" d="M.138.095,0,.836c-.03.165.222.235.253.07L.39.164C.42,0,.168-.071.138.095" transform="translate(48.43 65.725)" fill="#b9bce9"/>
            <path id="Fill_90" data-name="Fill 90" d="M.442.609A2.745,2.745,0,0,1,.257.093.131.131,0,0,0,0,.163,3.069,3.069,0,0,0,.216.741C.288.893.514.76.442.609" transform="translate(48.129 73.081)" fill="#b9bce9"/>
            <path id="Fill_92" data-name="Fill 92" d="M.167,1.558a.134.134,0,0,1-.121-.131L.036,1.239C.027,1.052.018.864.008.677A.156.156,0,0,1,.023.544a.131.131,0,0,1,.1-.062C.562.442,1.007.4,1.437.355h0C2.553.244,3.7.129,4.837.056,5.242.029,5.61.012,5.963,0c.156,0,.339,0,.515,0,.137,0,.267,0,.377,0a.082.082,0,0,1,.059.035,1.4,1.4,0,0,1,.137.741c-.033.224-1.112.3-1.825.346-.147.01-.273.019-.374.027L.176,1.558ZM6.213.263c-.242,0-.494.009-.75.019C4.847.308,4.232.36,3.712.407,2.893.48,2.062.56,1.258.637L.271.732C.27.756.269.78.269.8c-.006.2-.012.383.167.47a.272.272,0,0,0,.1.014,4,4,0,0,0,.51-.059c.075-.012.133-.021.165-.024l1.819-.158L4.852.89l.4-.035h.019l.346-.03C5.806.807,6.4.748,6.654.721A.129.129,0,0,0,6.771.585,1.487,1.487,0,0,0,6.739.37a.133.133,0,0,0-.127-.1C6.48.263,6.344.263,6.213.263Z" transform="translate(53.445 41.631)" fill="#b9bce9"/>
          </g>
          <g id="Group_8357" data-name="Group 8357" transform="translate(69.814 61.572)">
            <path id="Fill_68" data-name="Fill 68" d="M5.865,3.15A16.659,16.659,0,0,1,3.7,6.756L2.468,8.541a14.589,14.589,0,0,1-1.119,1.625A74.551,74.551,0,0,0,3.5.135c.019-.18-.263-.179-.282,0C2.665,5.314.724,10.211,0,15.359c-.025.177.247.254.272.075.228-1.622.575-3.22.962-4.809a.137.137,0,0,0,.082-.033,8.6,8.6,0,0,0,1.24-1.686L3.939,6.9a16.9,16.9,0,0,0,2.2-3.674c.062-.171-.21-.244-.272-.075" transform="translate(12.037 27.31)" fill="#b9bce9"/>
            <path id="Fill_70" data-name="Fill 70" d="M7.436,2.111A10.97,10.97,0,0,0,4.2.319,5.324,5.324,0,0,0,2.455,0C1.721,0,.878.484.18.259.046.215-.027.368.026.465A.131.131,0,0,0,.1.675,7.869,7.869,0,0,1,2.358,1.7L4.607,3a.141.141,0,0,0,.142-.243L2.264,1.32A9.6,9.6,0,0,0,.774.578C1.013.542,1.249.465,1.514.4A4.374,4.374,0,0,1,3.648.444,10,10,0,0,1,7.237,2.31c.139.115.339-.084.2-.2" transform="translate(19.156 49.754)" fill="#b9bce9"/>
            <path id="Fill_76" data-name="Fill 76" d="M4.249,6.123Q3.11,4.7,2.069,3.2q-.449-.65-.877-1.314A4.667,4.667,0,0,1,.283.134c-.022-.178-.3-.18-.282,0C.135,1.208,1.084,2.253,1.677,3.121c.749,1.1,1.544,2.162,2.372,3.2.113.142.311-.059.2-.2" transform="translate(13.156 58.537)" fill="#b9bce9"/>
            <path id="Fill_98" data-name="Fill 98" d="M19.237,29.452a4.934,4.934,0,0,0-.261-1.781,4.563,4.563,0,0,0-.73-1.364c-.431-.551-1.091-.96-1.35-1.631-.213-.551.176-1.085.117-1.639-.075-.7-.967-1.124-1.441-1.543-.694-.615-.087-1.554-.328-2.329a3.18,3.18,0,0,0-.3-.661,6.856,6.856,0,0,0-.415-.623c-.014-.022-.03-.042-.046-.064a2.844,2.844,0,0,0-.2-.405c.368-.2.635-.345.713-.405,1.375-1.032,2.132-3.117,2.464-4.794.067-.34.133-.7.192-1.082.326-2.1.444-4.669-.508-6.39A11.824,11.824,0,0,0,15.33,2.251,8.157,8.157,0,0,0,12.749.7C8.45-1.23,2.369.945.766,5.9A13.989,13.989,0,0,0,0,10.356a11.052,11.052,0,0,0,1.264,4,21.923,21.923,0,0,0,2.516,4.223,11.817,11.817,0,0,0,2.254.931,7.015,7.015,0,0,0,2.756.238l.093-.018c-.044.233-.09.465-.134.7a6.731,6.731,0,0,0-.09,2.22,17.029,17.029,0,0,1,.228,2.323c0,.734-.051,1.467-.089,2.2a16.95,16.95,0,0,0,0,2.132,4.591,4.591,0,0,0,.453,1.978,1.206,1.206,0,0,0,1.2.426c.084-.005.167-.012.25-.019.7-.053,1.4-.131,2.1-.155a34.788,34.788,0,0,1,5.043.25.845.845,0,0,0,.993-.6,4.605,4.605,0,0,0,.4-1.728" transform="translate(16.94 0)" fill="#6b3939"/>
            <path id="Fill_100" data-name="Fill 100" d="M10.084,11.571A4.934,4.934,0,0,0,9.823,9.79a9.023,9.023,0,0,0-1.5-.8c-.424-.184-.855-.351-1.277-.54C6.7,8.292,6.03,8.026,5.971,7.587c-.03-.218.1-.423.071-.647a1.89,1.89,0,0,0-.224-.624,8.969,8.969,0,0,1-.689-1.271c-.47-1.491.484-2.929.66-4.423A6.858,6.858,0,0,0,5.375,0a6.284,6.284,0,0,0-1.39.874A4.179,4.179,0,0,0,2.966,2.59c-.643,1.6-1.433,3.14-2.13,4.716a6.466,6.466,0,0,0-.68,4.335,5.354,5.354,0,0,0,1.389,2.166c.7-.053,1.4-.131,2.1-.155a34.789,34.789,0,0,1,5.043.25.845.845,0,0,0,.993-.6,4.605,4.605,0,0,0,.4-1.728" transform="translate(26.093 17.881)" fill="#452222"/>
            <path id="Fill_102" data-name="Fill 102" d="M0,4.073c.019.3.124.366.4.258A2.9,2.9,0,0,0,1.97.92C1.906.645,1.864.073,1.5.005s-.676.5-.828.74C.62.828.738.927.791.844L.816.8A5.154,5.154,0,0,1,.307,2.567,4.137,4.137,0,0,0,0,4.073" transform="translate(31.59 11.99)" fill="#fea689"/>
            <path id="Fill_104" data-name="Fill 104" d="M.7.443C1.206-.018,3.2,0,3.812,0,4.841,0,5.873.072,6.9.134a33.487,33.487,0,0,1,6.906,1.01.221.221,0,0,1,.157.254.165.165,0,0,1,.068.127c.045,2.924-.242,8.123-1.284,11.292a9.593,9.593,0,0,1-3.758,4.309c-1.734,1.178-2.948.867-4.606-.094A6.149,6.149,0,0,1,2.015,15,10.255,10.255,0,0,1,.358,10.78,30.658,30.658,0,0,1,.019,5.3c.037-.919.108-1.836.207-2.75C.29,1.954.223.885.7.443" transform="translate(19.002 5.115)" fill="#fea689"/>
            <path id="Fill_106" data-name="Fill 106" d="M.014,1.285A2.67,2.67,0,0,1,.058.451.756.756,0,0,1,.252.1C.54-.162.841.138.9.424.966.8.9,1.592.547,1.755s-.493-.1-.533-.47" transform="translate(28.964 11.582)" fill="#232c44"/>
            <path id="Fill_108" data-name="Fill 108" d="M.014,1.3A2.688,2.688,0,0,1,.059.454.764.764,0,0,1,.254.1C.545-.163.848.139.9.428.974.8.909,1.606.552,1.77S.055,1.665.014,1.3" transform="translate(21.658 11.43)" fill="#232c44"/>
            <path id="Fill_110" data-name="Fill 110" d="M17.03,8.747c-1.2-.373-3.295-.938-4.2-2.058a2.013,2.013,0,0,1-.479-1.122c-.091-.59-.018-3.216-.018-3.233a4.931,4.931,0,0,1,.053-1.269.162.162,0,0,0,0-.1c0-.015,0-.031,0-.048C12.4.741,12.147.7,12.108.852,10.074.65,7.313.308,5.291,0a.143.143,0,0,0-.16.126L4.675.083a.15.15,0,0,0-.165.129,13.55,13.55,0,0,0-.09,1.714A18.6,18.6,0,0,1,4.334,4.1a4.1,4.1,0,0,1-.236.973A3.582,3.582,0,0,1,2.036,7.112c-.566.247-1.579.237-2.022.651-.133.125.7.982.752,1.2.066.273.5.409.717.526.422.234,5.056,8.375,6.41,8.387.526.005,7.1-7.772,7.79-8.757.049-.071,1.442-.348,1.348-.377" transform="translate(17.284 19.03)" fill="#fea689"/>
            <path id="Fill_112" data-name="Fill 112" d="M0,.619,1.679,0A6.047,6.047,0,0,0,3.113,2.523a3.141,3.141,0,0,1,1.7,2c.5,1.327,1.329,1.795,1.6,2.8s.456,2.026.456,2.026A6.5,6.5,0,0,1,7.919,6.689,8.032,8.032,0,0,0,9.642,4.506c.391-.756,1.8-1.289,2.23-1.758A10.313,10.313,0,0,0,12.925.857l1.176.536.122,1.274s-6.879,8.184-7.062,8.26S.012,3.216,0,2.975,0,.619,0,.619" transform="translate(18.339 25.77)" fill="#fff"/>
            <path id="Fill_114" data-name="Fill 114" d="M.1.224A2.078,2.078,0,0,0,1.21,1.08,2.932,2.932,0,0,0,4.12.625c.036-.032.264-.347.264-.347S.172-.005.043,0C-.044,0,.014.1.1.224" transform="translate(23.493 17.503)" fill="#fff"/>
            <path id="Fill_116" data-name="Fill 116" d="M6.274,2.336c-.455.669-.619.8-1.631.945s-.768,1-1.977.749-.875-.555-2.024-.7A2.7,2.7,0,0,1,0,3.174,4.1,4.1,0,0,0,.236,2.2,18.574,18.574,0,0,0,.324.032C.329.024.324,0,.324,0S2.975,2.133,4.151,2.054,6.9.854,7.149.861s-.42.806-.874,1.475" transform="translate(21.381 20.923)" fill="#f2815c"/>
            <path id="Fill_118" data-name="Fill 118" d="M1.112,4.132c-.36-.254-.8-.506-.8-1.032a4.814,4.814,0,0,1,.265-.985A10.113,10.113,0,0,0,.852.168c.01-.2-.295-.235-.3-.038A10.183,10.183,0,0,1,.366,1.65,13.68,13.68,0,0,0,0,3.062c-.059.647.44.974.921,1.314.161.114.348-.13.186-.244" transform="translate(24.904 12.172)" fill="#f2815c"/>
            <path id="Fill_4-2" data-name="Fill 4" d="M2.172.25A2.789,2.789,0,0,0,1.524.27,2.307,2.307,0,0,0,.918.447,1.682,1.682,0,0,0,.387.813,1.876,1.876,0,0,0,0,1.448,1.413,1.413,0,0,1,.829.125,1.432,1.432,0,0,1,1.519,0,1.174,1.174,0,0,1,2.172.25" transform="translate(20.432 9.74)" fill="#2c2c2c"/>
            <path id="Fill_4-3" data-name="Fill 4" d="M0,.25A2.789,2.789,0,0,1,.648.27a2.307,2.307,0,0,1,.605.176,1.682,1.682,0,0,1,.532.367,1.876,1.876,0,0,1,.386.634A1.413,1.413,0,0,0,1.343.125,1.432,1.432,0,0,0,.653,0,1.174,1.174,0,0,0,0,.25" transform="translate(28.435 9.684) rotate(3)" fill="#2c2c2c"/>
            <path id="Fill_124" data-name="Fill 124" d="M1.722,2.6A5.151,5.151,0,0,1,1.259.818l.025.043C1.334.945,1.454.85,1.4.766,1.259.522.958-.053.6,0S.174.633.1.906a2.932,2.932,0,0,0,1.48,3.451c.269.115.375.055.4-.248A4.138,4.138,0,0,0,1.722,2.6" transform="translate(17.969 11.089)" fill="#fea689"/>
            <path id="Fill_126" data-name="Fill 126" d="M17.387,8.5a2.165,2.165,0,0,1-.239-.859,3.233,3.233,0,0,1,.218-.97,2.811,2.811,0,0,0,.214-1.341,2.536,2.536,0,0,0-1.573-1.743c0-.054.006-.106.01-.16a.077.077,0,0,0-.03-.07,15.883,15.883,0,0,0-4.038-2.111,8.648,8.648,0,0,0-2.2-.324,3.422,3.422,0,0,1-1.175-.2,10.113,10.113,0,0,1-.9-.523A2.386,2.386,0,0,0,5.841.165,5.873,5.873,0,0,1,4.835.378c-.382.034-.767,0-1.148.048a3.37,3.37,0,0,0-1.619.8A2.747,2.747,0,0,0,.929,2.642c-.484,1.8-.275,3.711-.9,5.487C0,8.215-.019,8.857.04,8.8a3.041,3.041,0,0,1,1-.573c.2-.064.3-.5.462-.629a2.017,2.017,0,0,0,.625-.923.879.879,0,0,1,.641-.6,1.129,1.129,0,0,0,.4-.236,3.361,3.361,0,0,0,.593-.985A2.237,2.237,0,0,1,4.877,3.8a7.1,7.1,0,0,0,1.147-.585,2.129,2.129,0,0,0,.3-.262,2.248,2.248,0,0,0,.3.459c.8.948,2.221,1.023,3.232,1.654.549.343.274,1.021.655,1.483a2.274,2.274,0,0,0,1.149.634c.682.2,1.344.413,1.548,1.177a4.511,4.511,0,0,0,.454,1.478,2.56,2.56,0,0,0,.578.6,2.872,2.872,0,0,0,.321.18,3.524,3.524,0,0,0,1.011,1.506c.553.451,1.624.324,1.473-.58a3.254,3.254,0,0,1-.142-.958,2.5,2.5,0,0,1,.422-.961,1.153,1.153,0,0,0,.066-1.12" transform="translate(17.986 3.105)" fill="#6b3939"/>
            <path id="Fill_128" data-name="Fill 128" d="M.646,2.588c-.671-.135.072-.823.077-1.079A3.644,3.644,0,0,0,.6.893C.552.639.523.384.5.127.482-.07.179-.025.2.172c.023.257.052.512.1.766.025.142.159.446.12.567-.068.212-.324.3-.388.544a.681.681,0,0,0,.584.844c.194.039.23-.266.038-.3" transform="translate(18.586 11.566)" fill="#f2815c"/>
            <path id="Fill_130" data-name="Fill 130" d="M.331.052C.2-.092-.045.1.089.241a.616.616,0,0,1-.056.828.154.154,0,0,0,.244.186A.917.917,0,0,0,.331.052" transform="translate(32.246 14.122)" fill="#f2815c"/>
            <path id="Fill_132" data-name="Fill 132" d="M.9,3.787A1.736,1.736,0,0,1,.772,2.348,1.786,1.786,0,0,0,.96,1.767C.984,1.186.216.681.332.164.376-.028.071-.065.027.126A.815.815,0,0,0,.137.79c.3.533.62.664.393,1.366a2.029,2.029,0,0,0-.221.75,2.591,2.591,0,0,0,.308,1c.083.179.366.058.282-.121" transform="translate(23.498 1.599)" fill="#452222"/>
            <path id="Fill_134" data-name="Fill 134" d="M7.45,2.745a2.737,2.737,0,0,0-1.2-1.209c-.66-.425-1.2-.3-1.92-.476-.743-.185-1.225-.807-2-.974A4.287,4.287,0,0,0,.094.237C-.094.3.028.579.215.519A3.738,3.738,0,0,1,2.54.467C3.1.653,3.456,1.114,4,1.3c.5.171,1.053.043,1.557.215a2.952,2.952,0,0,1,1.61,1.351c.07.185.352.064.282-.121" transform="translate(26.897 3.86)" fill="#452222"/>
            <path id="Fill_136" data-name="Fill 136" d="M3.163,2.341A4.387,4.387,0,0,0,.213.007C.025-.049-.093.234.1.291A4.111,4.111,0,0,1,2.881,2.463a.154.154,0,0,0,.282-.121" transform="translate(31.648 6.051)" fill="#452222"/>
            <path id="Fill_140" data-name="Fill 140" d="M1.092,0a.115.115,0,1,0-.029.228c.115.043.242.765.083,2.05C.991,3.531.661,4.233.536,4.243.411,4.227.119,3.5.272,2.258A6.742,6.742,0,0,1,.67.4L.5.221A6.234,6.234,0,0,0,.043,2.23C-.1,3.376.119,4.423.508,4.471c.466.057.764-1.333.866-2.164C1.42,1.933,1.623.067,1.092,0" transform="translate(18.161 14.571)" fill="#fad3b1"/>
            <path id="Fill_142" data-name="Fill 142" d="M.9,0A.115.115,0,1,1,.876.23C.754.244.456.913.3,2.2.142,3.451.292,4.212.411,4.251c.125.015.585-.62.739-1.861A6.091,6.091,0,0,0,1.14.416L1.364.2a6.748,6.748,0,0,1,.014,2.218C1.237,3.564.771,4.528.383,4.48-.083,4.422-.034,3,.069,2.17.115,1.8.372-.064.9,0" transform="translate(31.529 15.497)" fill="#fad3b1"/>
            <g id="Group_146" data-name="Group 146" transform="translate(0 26.598)">
              <path id="Clip_145-2" data-name="Clip 145" d="M0,0H45.384V48.873H0Z" transform="translate(0 0)" fill="none"/>
              <g id="Group_146-2" data-name="Group 146" transform="translate(0 0)" clip-path="url(#clip-path-3)">
                <path id="Fill_144" data-name="Fill 144" d="M36.281,40.377c-.31,2.238-.675,4.77-.9,6.1-.1.583,3.013.3,2.981.295-.084-.01-3.883.492-10.3,1.014l-4.527.367-1.675.137c-.167.012-.332.026-.495.04l-.059,0-.305.025-.2.016-.4.032-1.69.138-3.935.322a1.76,1.76,0,0,1-1.3-.427l-2.08-1.813a1.76,1.76,0,0,1-.6-1.189l-.237-3A1.761,1.761,0,0,0,8.8,40.819a3.559,3.559,0,0,1-3.52-4.05l.481-3.451a1.754,1.754,0,0,0-1.228-1.956A6,6,0,0,1,.007,25.674C-.249,21.989,6.96,4.518,8.2,3.371,9.69,2,14.927.612,17.234.05a1.759,1.759,0,0,1,1.8.622l4.872,6.194a1.76,1.76,0,0,0,2.682.1c.855-.934,1.983-2.125,3.021-3.088a21.548,21.548,0,0,0,2.126-2.374,1.757,1.757,0,0,1,1.881-.6c2.585.764,8.614,2.628,9.534,3.661,1.177,1.321,1.159,4.419,1.96,7.12s-.4,16.529-.4,18.245S40.1,37.9,39.979,38.887C39.93,39.274,36.569,38.307,36.281,40.377Z" transform="translate(0 0)" fill="#c7caf0"/>
              </g>
            </g>
            <path id="Fill_147" data-name="Fill 147" d="M8.71,10.35C7.139,9.473,5.485,8.332,5.3,6.411A4.914,4.914,0,0,0,5.1,5.192c-.2-.561-.543-1.085-.792-1.628A20.725,20.725,0,0,1,3.1.12.148.148,0,0,0,2.8.163q.161,1.442.321,2.886c.093.837.3,1.752.318,2.616.639,2.594-.126,5.405-.881,7.926-.647,2.16-1.185,4.623-2.563,6.48a12.065,12.065,0,0,1,3.84-1.833,6.121,6.121,0,0,1,2.818-.069c.973.226,1.153,1.6,2.078,1.947.551.2-.721-.541-.21-.61.23-1.33.594-3.861.9-6.1-.09-.053.231-.167.512-.852C10.666,11.106,8.494,10.382,8.71,10.35Z" transform="translate(30.037 52.931)" fill="#b9bde9"/>
            <path id="Fill_151" data-name="Fill 151" d="M6.484,0,1.159,8A6.908,6.908,0,0,0,2.974,17.5l.381.264L10.289,2.994Z" transform="translate(7.811 35.132)" fill="#fea689"/>
            <path id="Fill_153" data-name="Fill 153" d="M9.173,7.341a3.308,3.308,0,0,0-.136-1.7c-.066-.223.081-.524-.015-.791A1.311,1.311,0,0,0,8.4,4.13a4.233,4.233,0,0,0-2.76.2c-.689.215-1.435.744-2.131.289-.242-.16-.282-1.055-.231-1.256A4.454,4.454,0,0,0,3.525.937c-.29-.9-.917-1.06-1.184-.861-.149.111-.3,1.776-.553,2.667C1.342,4.3.4,5.527.146,7.145A5.841,5.841,0,0,0,.38,10.6a2.013,2.013,0,0,0,2.373.955s1.806-.349,3.192-.489a4.513,4.513,0,0,0,2.3-1.11,1.444,1.444,0,0,0,.548-.879A2.944,2.944,0,0,1,8.914,8a5.393,5.393,0,0,0,.259-.662" transform="translate(13.898 28.52)" fill="#fea689"/>
            <path id="Fill_155" data-name="Fill 155" d="M1.183.031a4.764,4.764,0,0,1-1.1.616C-.089.718.028.989.2.918A5.059,5.059,0,0,0,1.365.264c.152-.114-.03-.347-.182-.233" transform="translate(21.282 34.223)" fill="#f2815c"/>
            <path id="Fill_157" data-name="Fill 157" d="M1.062.033A4.156,4.156,0,0,1,.087.615.148.148,0,0,0,.2.886,4.451,4.451,0,0,0,1.243.266.148.148,0,0,0,1.062.033" transform="translate(21.109 36.144)" fill="#f2815c"/>
            <path id="Fill_159" data-name="Fill 159" d="M.887.01l-.8.3C-.09.372.027.643.206.577l.8-.3C1.182.216,1.065-.056.887.01" transform="translate(21.342 37.689)" fill="#f2815c"/>
            <path id="Fill_161" data-name="Fill 161" d="M7.861,16.385A3.344,3.344,0,0,1,3.23,14.219l-2.2-8.131L.551,4.326.467,4.014,0,2.288,4.268,0l.153.35v0l.472,1.077.841,1.92L9.526,12a3.346,3.346,0,0,1-1.665,4.384" transform="translate(31.274 35.199)" fill="#fea689"/>
            <path id="Fill_163" data-name="Fill 163" d="M8.522,7.47c.034-1.637-.685-3.006-.853-4.62-.1-.922.047-2.587-.081-2.723-.229-.242-.873-.193-1.315.642A4.454,4.454,0,0,0,6.1,3.2c.016.208.185,1.187-.082,1.3A7.941,7.941,0,0,1,4.14,4.51,5.258,5.258,0,0,0,.907,4.369a1.039,1.039,0,0,0-.791.579l-.007.007a.129.129,0,0,0-.034.1c-.008.024-.016.047-.022.072A5.164,5.164,0,0,0,.358,7.293a7.481,7.481,0,0,0,.6,2.2,2.446,2.446,0,0,0,.258.417,3.455,3.455,0,0,0,2.337.944,9.269,9.269,0,0,0,1.221.064c.071,0,.457-.069.51-.021,0,0,1.4,1.247,2.405-.062a5.841,5.841,0,0,0,.83-3.362" transform="translate(27.174 28.298)" fill="#fea689"/>
            <path id="Fill_165" data-name="Fill 165" d="M2.365.189A8.13,8.13,0,0,1,.158,0C-.027-.037-.062.256.122.3A8.419,8.419,0,0,0,2.408.481c.19-.01.146-.3-.043-.292" transform="translate(27.353 34.068)" fill="#f2815c"/>
            <path id="Fill_167" data-name="Fill 167" d="M1.815.253A5.749,5.749,0,0,1,.2.007C.024-.048-.09.225.092.28A6.016,6.016,0,0,0,1.779.546c.188,0,.226-.291.036-.293" transform="translate(27.859 35.63)" fill="#f2815c"/>
            <path id="Fill_169" data-name="Fill 169" d="M1.381.034A2.618,2.618,0,0,1,.156.005C-.027-.042-.062.251.12.3a2.805,2.805,0,0,0,1.3.028c.185-.04.144-.332-.043-.293" transform="translate(28.317 37.444)" fill="#f2815c"/>
            <path id="Fill_171" data-name="Fill 171" d="M.821.06A4.437,4.437,0,0,0,0,2.377c-.012.189.281.226.293.036A4.137,4.137,0,0,1,1.056.239C1.166.084.931-.1.821.06" transform="translate(33.067 49.89)" fill="#b9bce9"/>
            <path id="Fill_173" data-name="Fill 173" d="M2.383.048C2.251-.087,2.017.093,2.15.23,3.355,1.474,3.135,4,2.817,5.555A6.767,6.767,0,0,1,.061,9.895c-.158.107.025.339.182.233A7.054,7.054,0,0,0,3.111,5.592c.329-1.641.544-4.23-.728-5.544" transform="translate(39.201 47.549)" fill="#b9bce9"/>
            <path id="Fill_175" data-name="Fill 175" d="M.449,31.654a.146.146,0,0,0,.027-.142c-.017-.053-.031-.105-.046-.158,0-.036,0-.072-.006-.108a.125.125,0,0,0-.042-.087,10.855,10.855,0,0,1,.261-3.646c.169-1.373.037-2.757.145-4.133a21.225,21.225,0,0,1,1.086-4.043,9.491,9.491,0,0,0,.205-3.277,13.9,13.9,0,0,1-.013-3.934A9.425,9.425,0,0,0,2.624,8.6c-.184-1.3-.74-2.512-.87-3.818A10.42,10.42,0,0,1,2.686.2C2.751.025,2.478-.089,2.412.09a11.979,11.979,0,0,0-.983,4.15,16.715,16.715,0,0,0,.755,3.646,5.6,5.6,0,0,1,.148,2.236c-.118.673-.417,1.3-.558,1.967a13.066,13.066,0,0,0-.007,3.754,9.987,9.987,0,0,1-.491,4.371,12.159,12.159,0,0,0-.815,3.815A30.762,30.762,0,0,1,.24,28.2a7.508,7.508,0,0,0-.1,3.2,17.834,17.834,0,0,1-.1,3.36.148.148,0,0,0,.293.036,18.233,18.233,0,0,0,.113-3.146" transform="translate(22.7 35.585)" fill="#b9bce9"/>
            <path id="Fill_177" data-name="Fill 177" d="M.291,0A.151.151,0,0,0,.126.13L0,.609A.149.149,0,0,0,.132.774.152.152,0,0,0,.3.645L.419.166A.149.149,0,0,0,.291,0" transform="translate(25.509 35.938)" fill="#b9bce9"/>
            <path id="Fill_179" data-name="Fill 179" d="M.293.122C.283-.067-.009-.024,0,.165s.018.367.027.55S.329.861.32.672L.293.122" transform="translate(25.018 40.926)" fill="#b9bce9"/>
            <path id="Fill_173-2" data-name="Fill 173" d="M1.539.038C1.454-.069,1.3.073,1.388.18c.779.976.636,2.955.431,4.176a5.528,5.528,0,0,1-1.78,3.4c-.1.084.016.266.117.183A5.768,5.768,0,0,0,2.009,4.385C2.221,3.1,2.36,1.068,1.539.038" transform="translate(12.065 54.178) rotate(59)" fill="#b9bce9"/>
            <path id="Fill_181" data-name="Fill 181" d="M.3.809A2.308,2.308,0,0,1,.343.159C.38-.028.087-.063.049.123a2.588,2.588,0,0,0-.04.73C.025,1.042.318,1,.3.809" transform="translate(25.257 51.833)" fill="#b9bce9"/>
            <path id="Fill_183" data-name="Fill 183" d="M.086.125,0,.809A.148.148,0,0,0,.295.845L.379.161A.148.148,0,0,0,.086.125" transform="translate(23.964 58.375)" fill="#b9bce9"/>
            <path id="Fill_185" data-name="Fill 185" d="M.376.822.294.122C.272-.067-.021-.024,0,.165l.082.7c.022.189.315.146.292-.043" transform="translate(23.599 65.567)" fill="#b9bce9"/>
            <path id="Fill_187" data-name="Fill 187" d="M4.315,1.353a2.462,2.462,0,0,0-1.4-.8A17.7,17.7,0,0,0,.726,0C.539-.033.5.261.689.3A17.323,17.323,0,0,1,2.539.747a4.526,4.526,0,0,1,1.216.471A5.893,5.893,0,0,0,.056,2.66a.148.148,0,0,0,.182.233,5.521,5.521,0,0,1,3.589-1.38.15.15,0,0,0,.15-.106,1.1,1.1,0,0,1,.106.129c.108.157.341-.026.233-.182" transform="translate(2.793 44.314)" fill="#b9bce9"/>
            <path id="Fill_189" data-name="Fill 189" d="M2.978,7.363a6.15,6.15,0,0,1-1.37-3.771A9.766,9.766,0,0,0,.287.083C.2-.087-.068.029.016.2.329.836.665,1.465.951,2.114a7.033,7.033,0,0,1,.416,2.251,5.793,5.793,0,0,0,1.378,3.18c.123.145.356-.036.233-.182" transform="translate(7.889 30.671)" fill="#b9bce9"/>
            <path id="Fill_191" data-name="Fill 191" d="M3.588.12a13.549,13.549,0,0,1-.816,2.489c-.353.737-.867,1.382-1.217,2.12C.9,6.116.949,7.75.029,9.022c-.112.154.123.334.235.179.941-1.3.884-2.948,1.563-4.359C2.2,4.067,2.742,3.387,3.1,2.6A14.825,14.825,0,0,0,3.881.156c.047-.184-.246-.218-.293-.036" transform="translate(39.413 32.138)" fill="#b9bce9"/>
            <path id="Fill_193" data-name="Fill 193" d="M5.184,1.92A6.348,6.348,0,0,1,.478,4.66L0,2.9a3.656,3.656,0,0,0,1.017-.071A4.69,4.69,0,0,0,3.687,1a7.909,7.909,0,0,0,.656-1Z" transform="translate(31.825 36.627)" fill="#3b2b2b"/>
            <path id="Fill_195" data-name="Fill 195" d="M3.335,1.269A1.695,1.695,0,1,1,1.269.055,1.695,1.695,0,0,1,3.335,1.269" transform="translate(32.588 38.108)" fill="#fff"/>
            <path id="Fill_197" data-name="Fill 197" d="M28.126.483a.144.144,0,0,0-.263.025L17.494.761C13.967.847,10.706-.205,7.2.256c-.769.1-1.81-.37-2.572-.23A4.593,4.593,0,0,0,2.65.538c-.374.317-.286.791-.255,1.228a6.34,6.34,0,0,1-.22,1.491C2.006,4,1.764,4.894,1.527,5.717S1.055,7.3.909,7.773C.381,9.5.3,13.229.073,15.017c-.223,1.745.153,11.559,0,13.457a.152.152,0,0,0,.148.148,119.089,119.089,0,0,0,17.787.623c.251-.008.5,0,.743.006.105,0,.209.009.313.018,1.033.067,2.045.249,3.086.322a21.886,21.886,0,0,0,4.3-.209c1.393-.178,2.779-.411,4.177-.543a19.308,19.308,0,0,0,3.791-.3c.991-.3,1.992.7,1.885-.367-.07-.7-.618-3.178-.756-3.866a29.143,29.143,0,0,0-.577-2.874Q33.82,15.59,32.62,9.76a21.954,21.954,0,0,0-1.113-4.444,6.8,6.8,0,0,0-.375-.731,1.985,1.985,0,0,1,0-1.222A17.437,17.437,0,0,0,31.562.4" transform="translate(7.774 66.88)" fill="#f1f2ff"/>
            <path id="Fill_199" data-name="Fill 199" d="M29.605,1.327c-.187-.315.23-.811,0-1.222-1.976.074-4.574.669-6.565.471C20.585.334,19.551.4,15.819.181c-.673-.039-1.3.34-1.975.288A14.222,14.222,0,0,0,11.936.258c-.641.036-1.261.226-1.9.3a12.092,12.092,0,0,1-1.8.048C5.705.531,3.168.312.649,0,.479.746.237,1.637,0,2.459c.172.018.359,0,.494.006q1.015.031,2.028.04c2.707.03,5.415-.033,8.121-.033a79.338,79.338,0,0,1,7.946.325c1.332.135,2.816-.426,4.152-.334,1.107.077,2.177.726,3.3.5a33.835,33.835,0,0,0,3.942-.91,6.81,6.81,0,0,0-.375-.731" transform="translate(9.301 70.138)" fill="#33261a"/>
            <path id="Fill_201" data-name="Fill 201" d="M1.082.212A37.871,37.871,0,0,1,.009,5.784.223.223,0,0,0,.438,5.9,38.658,38.658,0,0,0,1.527.212c.033-.284-.413-.282-.445,0" transform="translate(12.583 69.424)" fill="#f1f2ff"/>
            <path id="Fill_203" data-name="Fill 203" d="M1.237,4.329Q1.064,3.06.857,1.8C.775,1.3.81.378.392.051.169-.123-.148.19.077.366s.211.727.255.986q.085.491.164.983Q.665,3.389.808,4.447c.039.283.468.162.429-.118" transform="translate(33.505 69.913)" fill="#f1f2ff"/>
            <path id="Fill_205" data-name="Fill 205" d="M8.319.124,7.657.2A.237.237,0,0,0,7.322.025C7.153.108,6.989.2,6.83.3L5.894.406c-.281.033-.284.478,0,.445L6.1.827A6.365,6.365,0,0,0,4.47,2.968a6.976,6.976,0,0,0-.589,1.907c-.135.864-.04,1.757-.236,2.611a5.889,5.889,0,0,1-1.378,2.2A6.975,6.975,0,0,0,1.23,11.7,35.075,35.075,0,0,0,0,17.132a.226.226,0,0,0,.215.282l1.488-.077a3.194,3.194,0,0,0,1.15-.123c.427-.2.394-.585.35-.993-.236-2.147.786-3.932,1.693-5.8a12.158,12.158,0,0,0,.908-2.328,21.114,21.114,0,0,0,.319-2.588,9,9,0,0,1,2.35-5c.117-.127.047-.4-.157-.38" transform="translate(12.478 71.525)" fill="#33261a"/>
            <path id="Fill_207" data-name="Fill 207" d="M4.833,2.8H.792A.794.794,0,0,1,0,2.011V.792A.793.793,0,0,1,.792,0H4.833a.794.794,0,0,1,.793.792V2.011A.794.794,0,0,1,4.833,2.8ZM.792.445A.348.348,0,0,0,.445.792V2.011a.348.348,0,0,0,.347.348H4.833a.348.348,0,0,0,.347-.348V.792A.348.348,0,0,0,4.833.445Z" transform="translate(21.274 70.243)" fill="#fad3b1"/>
            <path id="Fill_209" data-name="Fill 209" d="M2.007,7.22c-.1-.009-.208-.013-.313-.018Q.775,3.713,0,.186C-.037,0,.249-.08.291.107Q1.072,3.684,2.007,7.22" transform="translate(24.831 88.929)" fill="#452222"/>
          </g>
        </g>
      </g>
    </g>
  </g>
</svg>
