<svg xmlns="http://www.w3.org/2000/svg" width="44" height="44" viewBox="0 0 44 44">
  <g id="Group_8857" data-name="Group 8857" transform="translate(-35 -195)">
    <rect id="Rectangle_4233" data-name="Rectangle 4233" width="44" height="44" rx="10" transform="translate(35 195)" fill="#e3e5ff"/>
    <path id="books" d="M63.842,0h-24.6A1.242,1.242,0,0,0,38,1.242V28.079a1.242,1.242,0,0,0,1.242,1.242h6.212v1.242a1.242,1.242,0,0,0,1.833,1.093L49.8,30.3l2.516,1.358a1.242,1.242,0,0,0,1.833-1.093V29.321h9.691a1.242,1.242,0,0,0,1.242-1.242V1.242A1.242,1.242,0,0,0,63.842,0ZM62.6,21.867H45.455V2.485H62.6ZM42.97,2.485V21.867H40.485V2.485ZM40.485,26.836V24.352h4.97v2.485Zm9.909.957a1.243,1.243,0,0,0-1.181,0l-1.273.688V24.352h3.727v4.129Zm3.758-.957V24.352H62.6v2.485ZM47.939,8.7a1.242,1.242,0,0,1,1.242-1.242h9.691a1.242,1.242,0,0,1,0,2.485H49.182A1.242,1.242,0,0,1,47.939,8.7Z" transform="translate(5.251 201)" fill="#38539a"/>
  </g>
</svg>
