<svg xmlns="http://www.w3.org/2000/svg" xmlns:xlink="http://www.w3.org/1999/xlink" width="1180" height="395" viewBox="0 0 1180 395"><defs><style>.a{fill:#f0fae5;}.b{clip-path:url(#a);}.c,.k{fill:none;}.c{stroke:#e3f3fc;stroke-width:40px;mix-blend-mode:multiply;isolation:isolate;}.d{fill:#6f88c2;}.e{fill:#7aa679;}.f{fill:#e67545;}.g{fill:#ffdd80;}.h{fill:#c4e5f7;opacity:0.7;}.i{fill:#f3fafd;opacity:0.8;}.j{stroke:none;}</style><clipPath id="a"><rect class="a" width="1180" height="395" transform="translate(130 488)"/></clipPath></defs><g class="b" transform="translate(-130 -488)"><g class="c" transform="translate(1179 368.999)"><circle class="j" cx="119" cy="119" r="119"/><circle class="k" cx="119" cy="119" r="99"/></g><g transform="translate(-836.311 363.177)"><path class="d" d="M988.192,198.456,1000.6,190.4l4.082,5.192-12.223,8.419Z" transform="translate(208.162 87.482)"/><path class="e" d="M950.63,289.33l3.517,16.343,7.409-.9-3.08-16.489Z" transform="translate(12.728 -32.426)"/><path class="f" d="M1057.9,143.61l16.826,2.181,1.649-7.394-16.818-2.65Z" transform="translate(111.939 3.679)"/><path class="g" d="M943.419,124.635l8.8,10.618,4.638-3.588-8.561-10.9Z" transform="translate(44.147 22.891)"/></g><circle class="h" cx="123" cy="123" r="123" transform="translate(254 787)"/><circle class="i" cx="97.5" cy="97.5" r="97.5" transform="translate(377 405)"/></g></svg>