<svg xmlns="http://www.w3.org/2000/svg" width="32" height="32" viewBox="0 0 32 32">
  <g id="Group_5440" data-name="Group 5440" transform="translate(-767 -134)">
    <g id="Group_5438" data-name="Group 5438" transform="translate(766.5 138)">
      <g id="Group_4993" data-name="Group 4993">
        <path id="Path_16636" data-name="Path 16636" d="M16,0A16,16,0,1,1,0,16,16,16,0,0,1,16,0Z" transform="translate(0.5 -4)" fill="#c84249"/>
      </g>
    </g>
    <path id="Path" d="M7.716.3A1,1,0,0,0,6.3.3L4.006,2.6,1.716.3A1,1,0,0,0,.3,1.716l2.3,2.29L.3,6.3a1,1,0,1,0,1.42,1.42l2.29-2.3,2.29,2.3A1,1,0,1,0,7.716,6.3l-2.3-2.29,2.3-2.29a1,1,0,0,0,0-1.42Z" transform="translate(779 146)" fill="#f9e9ea"/>
  </g>
</svg>
