<svg xmlns="http://www.w3.org/2000/svg" width="24" height="24" viewBox="0 0 24 24">
  <g id="Group_5918" data-name="Group 5918" transform="translate(-767 -134)">
    <g id="Group_5438" data-name="Group 5438" transform="translate(767 134)">
      <g id="Group_4993" data-name="Group 4993">
        <circle id="Ellipse_365" data-name="Ellipse 365" cx="12" cy="12" r="12" fill="#e38a62"/>
      </g>
    </g>
    <g id="wall-clock" transform="translate(771 138)">
      <g id="Group_6015" data-name="Group 6015" transform="translate(1 1)">
        <g id="Group_6014" data-name="Group 6014">
          <path id="Path_16636" data-name="Path 16636" d="M415.091,376.835a.547.547,0,0,0-.765.112c-.1.133-.205.264-.315.389a.547.547,0,1,0,.819.724c.13-.147.256-.3.373-.46A.547.547,0,0,0,415.091,376.835Z" transform="translate(-402.556 -366.426)" fill="#fff9f5"/>
          <path id="Path_16637" data-name="Path 16637" d="M463.317,286.437a.547.547,0,0,0-.651.418c-.035.162-.078.325-.127.483a.547.547,0,1,0,1.045.323c.058-.188.109-.381.151-.574A.547.547,0,0,0,463.317,286.437Z" transform="translate(-449.868 -278.592)" fill="#fff9f5"/>
          <path id="Path_16638" data-name="Path 16638" d="M334.794,442.263c-.145.081-.3.157-.447.225a.547.547,0,1,0,.45,1c.179-.081.358-.171.53-.267a.547.547,0,1,0-.533-.955Z" transform="translate(-324.892 -430.102)" fill="#fff9f5"/>
          <path id="Path_16639" data-name="Path 16639" d="M158.969,76.547V80.7L156.964,82.7a.547.547,0,0,0,.773.773l2.166-2.166a.547.547,0,0,0,.16-.387V76.547a.547.547,0,0,0-1.094,0Z" transform="translate(-152.516 -73.922)" fill="#fff9f5"/>
          <path id="Path_16640" data-name="Path 16640" d="M13.453,1.176a.547.547,0,0,0-.547.547V3.241A7,7,0,1,0,7,14h.027c.2,0,.4-.008.592-.025a.547.547,0,1,0-.091-1.09c-.165.014-.334.021-.5.021H7a5.906,5.906,0,1,1,5.084-8.914h-1.5a.547.547,0,0,0,0,1.094h1.67a1.739,1.739,0,0,0,.91-.256.546.546,0,0,0,.049-.031A1.75,1.75,0,0,0,14,3.336V1.723A.547.547,0,0,0,13.453,1.176Z" fill="#fff9f5"/>
        </g>
      </g>
    </g>
  </g>
</svg>
