<svg xmlns="http://www.w3.org/2000/svg" width="48" height="48" viewBox="0 0 48 48">
  <g id="Group_9045" data-name="Group 9045" transform="translate(-642 -509)">
    <path id="Rectangle_3483" data-name="Rectangle 3483" d="M4,0H38A10,10,0,0,1,48,10V44a4,4,0,0,1-4,4H10A10,10,0,0,1,0,38V4A4,4,0,0,1,4,0Z" transform="translate(642 509)" fill="#5fd04c"/>
    <path id="Path_16633" data-name="Path 16633" d="M-13.835.13c1.57,0,2.56-.74,2.56-2.31V-7.5h-1.55v5.32a.933.933,0,0,1-1.01,1.05.926.926,0,0,1-1-1.05V-5.6h-1.55v3.42C-16.385-.61-15.415.13-13.835.13Zm5.71,0c1.53,0,2.33-.8,2.33-1.76,0-1.03-.69-1.43-1.87-1.83-.68-.24-1.15-.36-1.15-.67,0-.27.31-.38.75-.38a2.889,2.889,0,0,1,1.68.49l.44-1.06a3.915,3.915,0,0,0-2.15-.65c-1.49,0-2.23.82-2.23,1.65,0,1.11.83,1.45,1.92,1.79.52.16,1.11.28,1.11.7,0,.28-.36.5-.96.5a3.317,3.317,0,0,1-1.63-.49l-.41,1.15A4.029,4.029,0,0,0-8.125.13Zm4.29-3.29h1.39V-4.33h-1.01c-.11,0-.17-.07-.17-.2v-.43h-1.44v.52A1.125,1.125,0,0,0-3.835-3.16Zm0,2.62h1.39V-1.71h-1.01c-.11,0-.17-.06-.17-.19v-.43h-1.44v.51A1.125,1.125,0,0,0-3.835-.54Zm2.41.54H.115V-2.29l.86-.72a.878.878,0,0,1,.86.72L2.525,0h1.59l-.86-2.75a1.555,1.555,0,0,0-1.25-1.13L4.065-5.6H2.135L.115-3.88V-5.6h-1.54Zm8.47.13C9.025.13,9.8-.86,9.8-2.22V-5.6H8.245v3.36a1.045,1.045,0,0,1-1.19,1.13c-.52,0-.9-.27-.9-.71,0-.36.24-.6.69-.6h.68l-.12-1.1h-.69a.532.532,0,0,1-.59-.5c0-.29.2-.43.6-.43a1.3,1.3,0,0,1,.58.12l.15-1.14a2.6,2.6,0,0,0-1.14-.23c-1.09,0-1.69.61-1.69,1.45a1.379,1.379,0,0,0,.9,1.28,1.186,1.186,0,0,0-.9,1.2C4.625-.5,5.655.13,7.045.13Zm.88-6.42h2.95V-7.46H8.3c-.17,0-.25-.08-.25-.23v-.46H6.615v.56A1.149,1.149,0,0,0,7.925-6.29Zm5.3,6.36a2.015,2.015,0,0,0,1.1-.25l-.27-1.09a1.639,1.639,0,0,1-.67.12c-.58,0-1.09-.42-1.09-1.59,0-1.12.54-1.73,1.38-1.73a1.042,1.042,0,0,1,1.16,1.12V0h1.55V-3.34a2.406,2.406,0,0,0-2.72-2.39,2.79,2.79,0,0,0-2.9,2.99C10.765-.74,11.965.07,13.225.07Z" transform="translate(666 527)" fill="#fff"/>
    <path id="Path_16632" data-name="Path 16632" d="M-16.533,0h8.1V-2.394l-2.628.036V-11.7h-2.088l-3.024,1.062v2.07l2.322-.486v6.7l-2.682-.036ZM-2.475.234C.549.234,2.439-1.4,2.439-3.834,2.439-6.372.8-7.74-2.349-7.74h-.756l.126-1.6H1.7V-11.7h-7.02l-.468,4.626v1.62h3.42c1.3,0,2,.576,2,1.656,0,.954-.648,1.746-2.142,1.746A6.269,6.269,0,0,1-5.7-2.844l-.72,2.2A7.439,7.439,0,0,0-2.475.234Zm9.342-5.76a2.909,2.909,0,0,0,2.808-3.2c0-1.854-1.116-3.222-2.808-3.222-1.728,0-2.826,1.368-2.826,3.222A2.9,2.9,0,0,0,6.867-5.526ZM6.4,0H8.811L15.2-11.88H12.807Zm.468-7.11c-.486,0-.7-.684-.7-1.62,0-.954.216-1.638.7-1.638.45,0,.684.684.684,1.638C7.551-7.794,7.317-7.11,6.867-7.11ZM14.751.234a2.909,2.909,0,0,0,2.808-3.2c0-1.854-1.116-3.222-2.808-3.222S11.943-4.824,11.943-2.97A2.909,2.909,0,0,0,14.751.234Zm0-1.584c-.45,0-.7-.684-.7-1.62,0-.954.252-1.638.7-1.638s.7.684.7,1.638C15.453-2.034,15.2-1.35,14.751-1.35Z" transform="translate(666 544)" fill="#fff"/>
  </g>
</svg>
