<svg xmlns="http://www.w3.org/2000/svg" xmlns:xlink="http://www.w3.org/1999/xlink" width="330" height="91" viewBox="0 0 330 91">
  <defs>
    <filter id="Rectangle_4237" x="-27" y="-11" width="388" height="125" filterUnits="userSpaceOnUse">
      <feOffset dy="2" input="SourceAlpha"/>
      <feGaussianBlur stdDeviation="2" result="blur"/>
      <feFlood flood-color="#2c2c2c" flood-opacity="0.161"/>
      <feComposite operator="in" in2="blur"/>
      <feComposite in="SourceGraphic"/>
    </filter>
    <clipPath id="clip-path">
      <rect id="Rectangle_4224" data-name="Rectangle 4224" width="330" height="91" transform="translate(23 185)" fill="#e3e5ff"/>
    </clipPath>
    <clipPath id="clip-path-2">
      <rect id="Rectangle_4238" data-name="Rectangle 4238" width="330" height="91" transform="translate(23 336)" fill="#d6d9ff"/>
    </clipPath>
    <clipPath id="clip-path-3">
      <g transform="matrix(1, 0, 0, 1, 0, 0)" filter="url(#Rectangle_4237)">
        <path id="Rectangle_4237-2" data-name="Rectangle 4237" d="M10,0H366a10,10,0,0,1,10,10V113a0,0,0,0,1,0,0H0a0,0,0,0,1,0,0V10A10,10,0,0,1,10,0Z" transform="translate(0 555)" fill="#d6d9ff"/>
      </g>
    </clipPath>
  </defs>
  <g id="Group_8863" data-name="Group 8863" transform="translate(499 -5627)">
    <g id="Group_8862" data-name="Group 8862">
      <g id="Group_8861" data-name="Group 8861" transform="translate(-7 11)">
        <g id="Group_8860" data-name="Group 8860">
          <g id="Group_8859" data-name="Group 8859" transform="translate(-26 -43)">
            <g id="Group_8453" data-name="Group 8453" transform="translate(-489 5508)">
              <rect id="Rectangle_4223" data-name="Rectangle 4223" width="330" height="91" transform="translate(23 151)" fill="#f1f2ff"/>
              <g id="Mask_Group_134" data-name="Mask Group 134" transform="translate(0 -34)" clip-path="url(#clip-path)">
                <circle id="Ellipse_1603" data-name="Ellipse 1603" cx="54" cy="54" r="54" transform="translate(-47 233)" fill="#e3e5ff" style="mix-blend-mode: multiply;isolation: isolate"/>
                <circle id="Ellipse_1604" data-name="Ellipse 1604" cx="39" cy="39" r="39" transform="translate(289 125)" fill="#e3e5ff" style="mix-blend-mode: multiply;isolation: isolate"/>
              </g>
            </g>
            <g id="Mask_Group_140" data-name="Mask Group 140" transform="translate(-489 5323)" clip-path="url(#clip-path-2)" style="isolation: isolate">
              <g id="Mask_Group_139" data-name="Mask Group 139" transform="translate(2 -226)" clip-path="url(#clip-path-3)" style="isolation: isolate">
                <g id="Group_8457" data-name="Group 8457" transform="translate(-87.658 485.878)" style="mix-blend-mode: multiply;isolation: isolate">
                  <path id="Path_87633" data-name="Path 87633" d="M553.364,148.995l-1.878,2.056s3.9,1.7,5,3.544c0,0,2.3-2.161,2.269-2.268A13.19,13.19,0,0,0,553.364,148.995Z" transform="translate(-169.163 -27.065)" fill="#d6d9ff"/>
                  <path id="Path_87634" data-name="Path 87634" d="M371.954,160.137l-1.879,2.055s3.9,1.7,5,3.544c0,0,2.3-2.162,2.268-2.268A13.168,13.168,0,0,0,371.954,160.137Z" transform="translate(-104.381 -31.044)" fill="#d6d9ff"/>
                  <path id="Path_87635" data-name="Path 87635" d="M491.967,156.56l-3.09-1.043s.018,4.982-1.439,7.029c0,0,3.4,1.448,3.5,1.36A15.436,15.436,0,0,0,491.967,156.56Z" transform="translate(-146.291 -29.394)" fill="#d6d9ff"/>
                  <path id="Path_87636" data-name="Path 87636" d="M457.767,90.526,455.15,93.39s5.432,2.371,6.964,4.939c0,0,3.21-3.013,3.161-3.161S461.571,91.464,457.767,90.526Z" transform="translate(-134.761 -6.186)" fill="#d6d9ff"/>
                  <path id="Path_87637" data-name="Path 87637" d="M112.136,135.568l-2.331,2.551s4.838,2.111,6.2,4.4c0,0,2.859-2.683,2.815-2.815A16.359,16.359,0,0,0,112.136,135.568Z" transform="translate(-11.439 -22.271)" fill="#d6d9ff"/>
                  <path id="Path_87638" data-name="Path 87638" d="M487.384,76.332l.4,2.03s2.737-1.582,4.324-1.427c0,0-.278-2.332-.357-2.358A9.8,9.8,0,0,0,487.384,76.332Z" transform="translate(-146.272 -0.491)" fill="#d6d9ff"/>
                  <path id="Path_87639" data-name="Path 87639" d="M236.722,407.909l.4,2.03s2.737-1.582,4.324-1.427c0,0-.278-2.332-.357-2.357A9.789,9.789,0,0,0,236.722,407.909Z" transform="translate(-56.761 -118.897)" fill="#d6d9ff"/>
                  <path id="Path_87640" data-name="Path 87640" d="M337.462,392.989l.4,2.03s2.737-1.582,4.324-1.427c0,0-.278-2.332-.357-2.358A9.79,9.79,0,0,0,337.462,392.989Z" transform="translate(-92.735 -113.569)" fill="#d6d9ff"/>
                  <path id="Path_87641" data-name="Path 87641" d="M120.155,197.463l.4,2.03s2.737-1.583,4.324-1.427c0,0-.278-2.332-.357-2.358A9.785,9.785,0,0,0,120.155,197.463Z" transform="translate(-15.135 -43.746)" fill="#d6d9ff"/>
                  <path id="Path_87642" data-name="Path 87642" d="M289.986,381.745l.4,2.03s2.737-1.582,4.324-1.427c0,0-.278-2.331-.357-2.357A9.79,9.79,0,0,0,289.986,381.745Z" transform="translate(-75.781 -109.554)" fill="#d6d9ff"/>
                  <path id="Path_87643" data-name="Path 87643" d="M366.4,98.35l.4,2.03s2.737-1.583,4.324-1.427c0,0-.278-2.332-.357-2.358A9.792,9.792,0,0,0,366.4,98.35Z" transform="translate(-103.069 -8.353)" fill="#d6d9ff"/>
                  <path id="Path_87644" data-name="Path 87644" d="M455.674,387.1l.4,2.03s2.737-1.583,4.324-1.427c0,0-.278-2.332-.357-2.358A9.793,9.793,0,0,0,455.674,387.1Z" transform="translate(-134.948 -111.466)" fill="#d6d9ff"/>
                  <path id="Path_87645" data-name="Path 87645" d="M323.61,102.8l1.761,1.087s.7-3.083,1.9-4.14c0,0-1.9-1.384-1.97-1.343A9.8,9.8,0,0,0,323.61,102.8Z" transform="translate(-87.788 -8.998)" fill="#d6d9ff"/>
                  <path id="Path_87646" data-name="Path 87646" d="M431.408,244.514l2.109-2.042s1.912,4.057,3.888,5.158c0,0-2.208,2.494-2.321,2.46A13.891,13.891,0,0,1,431.408,244.514Z" transform="translate(-126.283 -60.446)" fill="#d6d9ff"/>
                  <path id="Path_87647" data-name="Path 87647" d="M612.428,157.665l2.109-2.042s1.912,4.056,3.888,5.158c0,0-2.208,2.494-2.321,2.46A13.9,13.9,0,0,1,612.428,157.665Z" transform="translate(-190.925 -29.432)" fill="#d6d9ff"/>
                  <path id="Path_87648" data-name="Path 87648" d="M382.515,319.352l2.109-2.043s1.912,4.056,3.888,5.157c0,0-2.208,2.494-2.32,2.46A13.884,13.884,0,0,1,382.515,319.352Z" transform="translate(-108.823 -87.171)" fill="#d6d9ff"/>
                  <path id="Path_87649" data-name="Path 87649" d="M151.149,219.962l2.777-.192s-1.648-3.922-1.171-6.014c0,0-3.159-.024-3.207.077A13.169,13.169,0,0,0,151.149,219.962Z" transform="translate(-25.628 -50.191)" fill="#d6d9ff"/>
                  <path id="Path_87650" data-name="Path 87650" d="M185.989,380.565l2.485-.171s-1.475-3.508-1.049-5.379c0,0-2.826-.022-2.868.069A11.778,11.778,0,0,0,185.989,380.565Z" transform="translate(-38.13 -107.776)" fill="#d6d9ff"/>
                  <path id="Path_87651" data-name="Path 87651" d="M295.707,78.756l2.485-.172s-1.474-3.508-1.049-5.379c0,0-2.826-.022-2.868.069A11.781,11.781,0,0,0,295.707,78.756Z" transform="translate(-77.31)" fill="#d6d9ff"/>
                  <path id="Path_87652" data-name="Path 87652" d="M140.036,299.26l1.11-1.747s-3.073-.743-4.115-1.951c0,0-1.408,1.879-1.368,1.953A9.791,9.791,0,0,0,140.036,299.26Z" transform="translate(-20.672 -79.405)" fill="#d6d9ff"/>
                  <path id="Path_87653" data-name="Path 87653" d="M82.147,213.15l1.11-1.746s-3.073-.743-4.115-1.951c0,0-1.408,1.879-1.369,1.952A9.793,9.793,0,0,0,82.147,213.15Z" transform="translate(0 -48.655)" fill="#d6d9ff"/>
                  <path id="Path_87654" data-name="Path 87654" d="M176.925,325.953l.057-2.719s3.9,1.425,5.92.862c0,0,.172,3.08.075,3.132A12.879,12.879,0,0,1,176.925,325.953Z" transform="translate(-35.407 -89.286)" fill="#d6d9ff"/>
                  <path id="Path_87655" data-name="Path 87655" d="M552.406,105.007l.058-2.719s3.9,1.424,5.92.862c0,0,.172,3.08.075,3.132A12.881,12.881,0,0,1,552.406,105.007Z" transform="translate(-169.491 -10.386)" fill="#d6d9ff"/>
                  <path id="Path_87656" data-name="Path 87656" d="M269.257,176.574l-2.308,1.814s-1.483-4.232-3.335-5.532c0,0,2.454-2.253,2.563-2.207A13.886,13.886,0,0,1,269.257,176.574Z" transform="translate(-66.364 -34.798)" fill="#d6d9ff"/>
                  <path id="Path_87657" data-name="Path 87657" d="M546.6,351.069l-2.309,1.814s-1.483-4.232-3.334-5.531c0,0,2.453-2.253,2.563-2.207A13.886,13.886,0,0,1,546.6,351.069Z" transform="translate(-165.403 -97.11)" fill="#d6d9ff"/>
                  <path id="Path_87658" data-name="Path 87658" d="M685.6,256.985l1.839.948s.464-3.127,1.572-4.273c0,0-2-1.233-2.068-1.187A9.8,9.8,0,0,0,685.6,256.985Z" transform="translate(-217.055 -64.017)" fill="#d6d9ff"/>
                  <path id="Path_87659" data-name="Path 87659" d="M624.563,226.537l1.578-2.295s-4.1-1.148-5.438-2.822c0,0-1.984,2.458-1.934,2.559A13.176,13.176,0,0,0,624.563,226.537Z" transform="translate(-193.189 -52.928)" fill="#d6d9ff"/>
                  <path id="Path_87660" data-name="Path 87660" d="M621.315,365.781l-.678-1.956s-2.492,1.945-4.086,2.009c0,0,.6,2.271.678,2.286A9.8,9.8,0,0,0,621.315,365.781Z" transform="translate(-192.397 -103.781)" fill="#d6d9ff"/>
                  <path id="Path_87661" data-name="Path 87661" d="M537.475,292.806l-.678-1.956s-2.493,1.944-4.086,2.009c0,0,.6,2.271.678,2.286A9.8,9.8,0,0,0,537.475,292.806Z" transform="translate(-162.458 -77.722)" fill="#d6d9ff"/>
                  <path id="Path_87662" data-name="Path 87662" d="M689.718,138.979l-.016,2.936s-4.237-1.471-6.406-.829c0,0-.238-3.323-.134-3.379A13.892,13.892,0,0,1,689.718,138.979Z" transform="translate(-216.175 -23.024)" fill="#d6d9ff"/>
                </g>
                <g id="Group_8458" data-name="Group 8458" transform="translate(-23.885 639.08)" style="mix-blend-mode: multiply;isolation: isolate">
                  <path id="Path_87663" data-name="Path 87663" d="M556.874,148.995l1.878,2.056s-3.9,1.7-5,3.544c0,0-2.3-2.161-2.269-2.268A13.19,13.19,0,0,1,556.874,148.995Z" transform="translate(-467.532 -100.268)" fill="#d6d9ff"/>
                  <path id="Path_87664" data-name="Path 87664" d="M375.462,160.137l1.879,2.055s-3.9,1.7-5,3.544c0,0-2.3-2.162-2.268-2.268A13.168,13.168,0,0,1,375.462,160.137Z" transform="translate(-169.492 -104.247)" fill="#d6d9ff"/>
                  <path id="Path_87665" data-name="Path 87665" d="M487.566,156.56l3.09-1.043s-.018,4.982,1.439,7.029c0,0-3.4,1.448-3.5,1.36A15.436,15.436,0,0,1,487.566,156.56Z" transform="translate(-359.698 -102.597)" fill="#d6d9ff"/>
                  <path id="Path_87666" data-name="Path 87666" d="M462.658,90.526l2.617,2.864s-5.432,2.371-6.964,4.939c0,0-3.21-3.013-3.161-3.161S458.855,91.464,462.658,90.526Z" transform="translate(-312.121 -79.389)" fill="#d6d9ff"/>
                  <path id="Path_87667" data-name="Path 87667" d="M116.491,135.568l2.331,2.551s-4.838,2.111-6.2,4.4c0,0-2.859-2.683-2.815-2.815A16.359,16.359,0,0,1,116.491,135.568Z" transform="translate(256.355 -95.473)" fill="#d6d9ff"/>
                  <path id="Path_87668" data-name="Path 87668" d="M492.11,76.332l-.4,2.03s-2.737-1.582-4.324-1.427c0,0,.278-2.332.357-2.358A9.8,9.8,0,0,1,492.11,76.332Z" transform="translate(-359.679 -73.693)" fill="#d6d9ff"/>
                  <path id="Path_87669" data-name="Path 87669" d="M241.448,407.909l-.4,2.03s-2.737-1.582-4.324-1.427c0,0,.278-2.332.357-2.357A9.789,9.789,0,0,1,241.448,407.909Z" transform="translate(52.134 -192.099)" fill="#d6d9ff"/>
                  <path id="Path_87670" data-name="Path 87670" d="M342.188,392.989l-.4,2.03s-2.737-1.582-4.324-1.427c0,0,.278-2.332.357-2.358A9.79,9.79,0,0,1,342.188,392.989Z" transform="translate(-113.372 -186.771)" fill="#d6d9ff"/>
                  <path id="Path_87671" data-name="Path 87671" d="M124.881,197.463l-.4,2.03s-2.737-1.583-4.324-1.427c0,0,.278-2.332.357-2.358A9.785,9.785,0,0,1,124.881,197.463Z" transform="translate(243.642 -116.949)" fill="#d6d9ff"/>
                  <path id="Path_87672" data-name="Path 87672" d="M294.711,381.745l-.4,2.03s-2.737-1.582-4.324-1.427c0,0,.278-2.331.357-2.357A9.79,9.79,0,0,1,294.711,381.745Z" transform="translate(-35.373 -182.756)" fill="#d6d9ff"/>
                  <path id="Path_87673" data-name="Path 87673" d="M371.126,98.35l-.4,2.03s-2.737-1.583-4.324-1.427c0,0,.278-2.332.357-2.358A9.792,9.792,0,0,1,371.126,98.35Z" transform="translate(-160.914 -81.556)" fill="#d6d9ff"/>
                  <path id="Path_87674" data-name="Path 87674" d="M460.4,387.1l-.4,2.03s-2.737-1.583-4.324-1.427c0,0,.278-2.332.357-2.358A9.793,9.793,0,0,1,460.4,387.1Z" transform="translate(-307.582 -184.668)" fill="#d6d9ff"/>
                  <path id="Path_87675" data-name="Path 87675" d="M327.267,102.8l-1.761,1.087s-.7-3.083-1.9-4.14c0,0,1.9-1.384,1.97-1.343A9.8,9.8,0,0,1,327.267,102.8Z" transform="translate(-89.546 -82.2)" fill="#d6d9ff"/>
                  <path id="Path_87676" data-name="Path 87676" d="M437.4,244.514l-2.109-2.042s-1.912,4.057-3.888,5.158c0,0,2.208,2.494,2.321,2.46A13.891,13.891,0,0,0,437.4,244.514Z" transform="translate(-268.987 -133.648)" fill="#d6d9ff"/>
                  <path id="Path_87677" data-name="Path 87677" d="M618.425,157.665l-2.109-2.042s-1.912,4.056-3.888,5.158c0,0,2.208,2.494,2.321,2.46A13.9,13.9,0,0,0,618.425,157.665Z" transform="translate(-566.385 -102.635)" fill="#d6d9ff"/>
                  <path id="Path_87678" data-name="Path 87678" d="M388.511,319.352,386.4,317.31s-1.912,4.056-3.888,5.157c0,0,2.208,2.494,2.32,2.46A13.884,13.884,0,0,0,388.511,319.352Z" transform="translate(-188.66 -160.373)" fill="#d6d9ff"/>
                  <path id="Path_87679" data-name="Path 87679" d="M152.317,219.962l-2.777-.192s1.648-3.922,1.171-6.014c0,0,3.159-.024,3.207.077A13.169,13.169,0,0,1,152.317,219.962Z" transform="translate(195.705 -123.393)" fill="#d6d9ff"/>
                  <path id="Path_87680" data-name="Path 87680" d="M187.035,380.565l-2.485-.171s1.475-3.508,1.049-5.379c0,0,2.826-.022,2.868.069A11.778,11.778,0,0,1,187.035,380.565Z" transform="translate(138.649 -180.978)" fill="#d6d9ff"/>
                  <path id="Path_87681" data-name="Path 87681" d="M296.753,78.756l-2.485-.172s1.474-3.508,1.049-5.379c0,0,2.826-.022,2.868.069A11.781,11.781,0,0,1,296.753,78.756Z" transform="translate(-41.606 -73.202)" fill="#d6d9ff"/>
                  <path id="Path_87682" data-name="Path 87682" d="M136.773,299.26l-1.11-1.747s3.073-.743,4.115-1.951c0,0,1.408,1.879,1.368,1.953A9.791,9.791,0,0,1,136.773,299.26Z" transform="translate(217.407 -152.607)" fill="#d6d9ff"/>
                  <path id="Path_87683" data-name="Path 87683" d="M78.883,213.15l-1.11-1.746s3.073-.743,4.115-1.951c0,0,1.408,1.879,1.369,1.952A9.793,9.793,0,0,1,78.883,213.15Z" transform="translate(312.514 -121.857)" fill="#d6d9ff"/>
                  <path id="Path_87684" data-name="Path 87684" d="M183.007,325.953l-.057-2.719s-3.9,1.425-5.92.862c0,0-.172,3.08-.075,3.132A12.879,12.879,0,0,0,183.007,325.953Z" transform="translate(149.019 -162.488)" fill="#d6d9ff"/>
                  <path id="Path_87685" data-name="Path 87685" d="M558.488,105.007l-.058-2.719s-3.9,1.424-5.92.862c0,0-.172,3.08-.075,3.132A12.881,12.881,0,0,0,558.488,105.007Z" transform="translate(-467.86 -83.589)" fill="#d6d9ff"/>
                  <path id="Path_87686" data-name="Path 87686" d="M263.614,176.574l2.308,1.814s1.483-4.232,3.335-5.532c0,0-2.454-2.253-2.563-2.207A13.886,13.886,0,0,0,263.614,176.574Z" transform="translate(7.036 -108)" fill="#d6d9ff"/>
                  <path id="Path_87687" data-name="Path 87687" d="M540.958,351.069l2.309,1.814s1.483-4.232,3.334-5.531c0,0-2.453-2.253-2.563-2.207A13.886,13.886,0,0,0,540.958,351.069Z" transform="translate(-448.612 -170.312)" fill="#d6d9ff"/>
                  <path id="Path_87688" data-name="Path 87688" d="M689.012,256.985l-1.839.948s-.464-3.127-1.572-4.273c0,0,2-1.233,2.068-1.187A9.8,9.8,0,0,1,689.012,256.985Z" transform="translate(-684.016 -137.219)" fill="#d6d9ff"/>
                  <path id="Path_87689" data-name="Path 87689" d="M620.345,226.537l-1.578-2.295s4.1-1.148,5.438-2.822c0,0,1.984,2.458,1.934,2.559A13.176,13.176,0,0,1,620.345,226.537Z" transform="translate(-578.176 -126.131)" fill="#d6d9ff"/>
                  <path id="Path_87690" data-name="Path 87690" d="M616.551,365.781l.678-1.956s2.492,1.945,4.086,2.009c0,0-.6,2.271-.678,2.286A9.8,9.8,0,0,1,616.551,365.781Z" transform="translate(-571.925 -176.983)" fill="#d6d9ff"/>
                  <path id="Path_87691" data-name="Path 87691" d="M532.711,292.806l.678-1.956s2.493,1.944,4.086,2.009c0,0-.6,2.271-.678,2.286A9.8,9.8,0,0,1,532.711,292.806Z" transform="translate(-434.184 -150.924)" fill="#d6d9ff"/>
                  <path id="Path_87692" data-name="Path 87692" d="M683.136,138.979l.016,2.936s4.237-1.471,6.406-.829c0,0,.238-3.323.134-3.379A13.892,13.892,0,0,0,683.136,138.979Z" transform="translate(-683.136 -96.227)" fill="#d6d9ff"/>
                </g>
              </g>
            </g>
          </g>
        </g>
      </g>
    </g>
  </g>
</svg>
