<svg xmlns="http://www.w3.org/2000/svg" xmlns:xlink="http://www.w3.org/1999/xlink" width="376" height="113" viewBox="0 0 376 113">
  <defs>
    <filter id="Rectangle_4202" x="-6" y="-4" width="388" height="125" filterUnits="userSpaceOnUse">
      <feOffset dy="2" input="SourceAlpha"/>
      <feGaussianBlur stdDeviation="2" result="blur"/>
      <feFlood flood-color="#2c2c2c" flood-opacity="0.161"/>
      <feComposite operator="in" in2="blur"/>
      <feComposite in="SourceGraphic"/>
    </filter>
    <clipPath id="clip-path">
      <g transform="matrix(1, 0, 0, 1, 0, 0)" filter="url(#Rectangle_4202)">
        <rect id="Rectangle_4202-2" data-name="Rectangle 4202" width="376" height="113" transform="translate(0 555)" fill="#fff9f0"/>
      </g>
    </clipPath>
  </defs>
  <g id="Group_8462" data-name="Group 8462" transform="translate(0 -555)">
    <g id="Group_8359" data-name="Group 8359">
      <rect id="Rectangle_4199" data-name="Rectangle 4199" width="376" height="113" transform="translate(0 555)" fill="#f1f2ff"/>
    </g>
    <g id="Mask_Group_128" data-name="Mask Group 128" clip-path="url(#clip-path)">
      <g id="Group_8182" data-name="Group 8182" transform="translate(-87.658 485.878)" style="mix-blend-mode: multiply;isolation: isolate">
        <path id="Path_87310" data-name="Path 87310" d="M553.364,148.995l-1.878,2.056s3.9,1.7,5,3.544c0,0,2.3-2.161,2.269-2.268A13.19,13.19,0,0,0,553.364,148.995Z" transform="translate(-169.163 -27.065)" fill="#f1f2ff"/>
        <path id="Path_87311" data-name="Path 87311" d="M371.954,160.137l-1.879,2.055s3.9,1.7,5,3.544c0,0,2.3-2.162,2.268-2.268A13.168,13.168,0,0,0,371.954,160.137Z" transform="translate(-104.381 -31.044)" fill="#f1f2ff"/>
        <path id="Path_87312" data-name="Path 87312" d="M491.967,156.56l-3.09-1.043s.018,4.982-1.439,7.029c0,0,3.4,1.448,3.5,1.36A15.436,15.436,0,0,0,491.967,156.56Z" transform="translate(-146.291 -29.394)" fill="#f1f2ff"/>
        <path id="Path_87313" data-name="Path 87313" d="M457.767,90.526,455.15,93.39s5.432,2.371,6.964,4.939c0,0,3.21-3.013,3.161-3.161S461.571,91.464,457.767,90.526Z" transform="translate(-134.761 -6.186)" fill="#f1f2ff"/>
        <path id="Path_87314" data-name="Path 87314" d="M112.136,135.568l-2.331,2.551s4.838,2.111,6.2,4.4c0,0,2.859-2.683,2.815-2.815A16.359,16.359,0,0,0,112.136,135.568Z" transform="translate(-11.439 -22.271)" fill="#f1f2ff"/>
        <path id="Path_87315" data-name="Path 87315" d="M487.384,76.332l.4,2.03s2.737-1.582,4.324-1.427c0,0-.278-2.332-.357-2.358A9.8,9.8,0,0,0,487.384,76.332Z" transform="translate(-146.272 -0.491)" fill="#f1f2ff"/>
        <path id="Path_87316" data-name="Path 87316" d="M236.722,407.909l.4,2.03s2.737-1.582,4.324-1.427c0,0-.278-2.332-.357-2.357A9.789,9.789,0,0,0,236.722,407.909Z" transform="translate(-56.761 -118.897)" fill="#f1f2ff"/>
        <path id="Path_87317" data-name="Path 87317" d="M337.462,392.989l.4,2.03s2.737-1.582,4.324-1.427c0,0-.278-2.332-.357-2.358A9.79,9.79,0,0,0,337.462,392.989Z" transform="translate(-92.735 -113.569)" fill="#f1f2ff"/>
        <path id="Path_87318" data-name="Path 87318" d="M120.155,197.463l.4,2.03s2.737-1.583,4.324-1.427c0,0-.278-2.332-.357-2.358A9.785,9.785,0,0,0,120.155,197.463Z" transform="translate(-15.135 -43.746)" fill="#f1f2ff"/>
        <path id="Path_87319" data-name="Path 87319" d="M289.986,381.745l.4,2.03s2.737-1.582,4.324-1.427c0,0-.278-2.331-.357-2.357A9.79,9.79,0,0,0,289.986,381.745Z" transform="translate(-75.781 -109.554)" fill="#f1f2ff"/>
        <path id="Path_87320" data-name="Path 87320" d="M366.4,98.35l.4,2.03s2.737-1.583,4.324-1.427c0,0-.278-2.332-.357-2.358A9.792,9.792,0,0,0,366.4,98.35Z" transform="translate(-103.069 -8.353)" fill="#f1f2ff"/>
        <path id="Path_87321" data-name="Path 87321" d="M455.674,387.1l.4,2.03s2.737-1.583,4.324-1.427c0,0-.278-2.332-.357-2.358A9.793,9.793,0,0,0,455.674,387.1Z" transform="translate(-134.948 -111.466)" fill="#f1f2ff"/>
        <path id="Path_87322" data-name="Path 87322" d="M323.61,102.8l1.761,1.087s.7-3.083,1.9-4.14c0,0-1.9-1.384-1.97-1.343A9.8,9.8,0,0,0,323.61,102.8Z" transform="translate(-87.788 -8.998)" fill="#f1f2ff"/>
        <path id="Path_87323" data-name="Path 87323" d="M431.408,244.514l2.109-2.042s1.912,4.057,3.888,5.158c0,0-2.208,2.494-2.321,2.46A13.891,13.891,0,0,1,431.408,244.514Z" transform="translate(-126.283 -60.446)" fill="#f1f2ff"/>
        <path id="Path_87324" data-name="Path 87324" d="M612.428,157.665l2.109-2.042s1.912,4.056,3.888,5.158c0,0-2.208,2.494-2.321,2.46A13.9,13.9,0,0,1,612.428,157.665Z" transform="translate(-190.925 -29.432)" fill="#f1f2ff"/>
        <path id="Path_87325" data-name="Path 87325" d="M382.515,319.352l2.109-2.043s1.912,4.056,3.888,5.157c0,0-2.208,2.494-2.32,2.46A13.884,13.884,0,0,1,382.515,319.352Z" transform="translate(-108.823 -87.171)" fill="#f1f2ff"/>
        <path id="Path_87326" data-name="Path 87326" d="M151.149,219.962l2.777-.192s-1.648-3.922-1.171-6.014c0,0-3.159-.024-3.207.077A13.169,13.169,0,0,0,151.149,219.962Z" transform="translate(-25.628 -50.191)" fill="#f1f2ff"/>
        <path id="Path_87327" data-name="Path 87327" d="M185.989,380.565l2.485-.171s-1.475-3.508-1.049-5.379c0,0-2.826-.022-2.868.069A11.778,11.778,0,0,0,185.989,380.565Z" transform="translate(-38.13 -107.776)" fill="#f1f2ff"/>
        <path id="Path_87328" data-name="Path 87328" d="M295.707,78.756l2.485-.172s-1.474-3.508-1.049-5.379c0,0-2.826-.022-2.868.069A11.781,11.781,0,0,0,295.707,78.756Z" transform="translate(-77.31)" fill="#f1f2ff"/>
        <path id="Path_87329" data-name="Path 87329" d="M140.036,299.26l1.11-1.747s-3.073-.743-4.115-1.951c0,0-1.408,1.879-1.368,1.953A9.791,9.791,0,0,0,140.036,299.26Z" transform="translate(-20.672 -79.405)" fill="#f1f2ff"/>
        <path id="Path_87330" data-name="Path 87330" d="M82.147,213.15l1.11-1.746s-3.073-.743-4.115-1.951c0,0-1.408,1.879-1.369,1.952A9.793,9.793,0,0,0,82.147,213.15Z" transform="translate(0 -48.655)" fill="#f1f2ff"/>
        <path id="Path_87331" data-name="Path 87331" d="M176.925,325.953l.057-2.719s3.9,1.425,5.92.862c0,0,.172,3.08.075,3.132A12.879,12.879,0,0,1,176.925,325.953Z" transform="translate(-35.407 -89.286)" fill="#f1f2ff"/>
        <path id="Path_87332" data-name="Path 87332" d="M552.406,105.007l.058-2.719s3.9,1.424,5.92.862c0,0,.172,3.08.075,3.132A12.881,12.881,0,0,1,552.406,105.007Z" transform="translate(-169.491 -10.386)" fill="#f1f2ff"/>
        <path id="Path_87333" data-name="Path 87333" d="M269.257,176.574l-2.308,1.814s-1.483-4.232-3.335-5.532c0,0,2.454-2.253,2.563-2.207A13.886,13.886,0,0,1,269.257,176.574Z" transform="translate(-66.364 -34.798)" fill="#f1f2ff"/>
        <path id="Path_87334" data-name="Path 87334" d="M546.6,351.069l-2.309,1.814s-1.483-4.232-3.334-5.531c0,0,2.453-2.253,2.563-2.207A13.886,13.886,0,0,1,546.6,351.069Z" transform="translate(-165.403 -97.11)" fill="#f1f2ff"/>
        <path id="Path_87335" data-name="Path 87335" d="M685.6,256.985l1.839.948s.464-3.127,1.572-4.273c0,0-2-1.233-2.068-1.187A9.8,9.8,0,0,0,685.6,256.985Z" transform="translate(-217.055 -64.017)" fill="#f1f2ff"/>
        <path id="Path_87336" data-name="Path 87336" d="M624.563,226.537l1.578-2.295s-4.1-1.148-5.438-2.822c0,0-1.984,2.458-1.934,2.559A13.176,13.176,0,0,0,624.563,226.537Z" transform="translate(-193.189 -52.928)" fill="#f1f2ff"/>
        <path id="Path_87337" data-name="Path 87337" d="M621.315,365.781l-.678-1.956s-2.492,1.945-4.086,2.009c0,0,.6,2.271.678,2.286A9.8,9.8,0,0,0,621.315,365.781Z" transform="translate(-192.397 -103.781)" fill="#f1f2ff"/>
        <path id="Path_87338" data-name="Path 87338" d="M537.475,292.806l-.678-1.956s-2.493,1.944-4.086,2.009c0,0,.6,2.271.678,2.286A9.8,9.8,0,0,0,537.475,292.806Z" transform="translate(-162.458 -77.722)" fill="#f1f2ff"/>
        <path id="Path_87339" data-name="Path 87339" d="M689.718,138.979l-.016,2.936s-4.237-1.471-6.406-.829c0,0-.238-3.323-.134-3.379A13.892,13.892,0,0,1,689.718,138.979Z" transform="translate(-216.175 -23.024)" fill="#f1f2ff"/>
      </g>
      <g id="Group_8361" data-name="Group 8361" transform="translate(-23.885 639.08)" style="mix-blend-mode: multiply;isolation: isolate">
        <path id="Path_87310-2" data-name="Path 87310" d="M556.874,148.995l1.878,2.056s-3.9,1.7-5,3.544c0,0-2.3-2.161-2.269-2.268A13.19,13.19,0,0,1,556.874,148.995Z" transform="translate(-467.532 -100.268)" fill="#f1f2ff"/>
        <path id="Path_87311-2" data-name="Path 87311" d="M375.462,160.137l1.879,2.055s-3.9,1.7-5,3.544c0,0-2.3-2.162-2.268-2.268A13.168,13.168,0,0,1,375.462,160.137Z" transform="translate(-169.492 -104.247)" fill="#f1f2ff"/>
        <path id="Path_87312-2" data-name="Path 87312" d="M487.566,156.56l3.09-1.043s-.018,4.982,1.439,7.029c0,0-3.4,1.448-3.5,1.36A15.436,15.436,0,0,1,487.566,156.56Z" transform="translate(-359.698 -102.597)" fill="#f1f2ff"/>
        <path id="Path_87313-2" data-name="Path 87313" d="M462.658,90.526l2.617,2.864s-5.432,2.371-6.964,4.939c0,0-3.21-3.013-3.161-3.161S458.855,91.464,462.658,90.526Z" transform="translate(-312.121 -79.389)" fill="#f1f2ff"/>
        <path id="Path_87314-2" data-name="Path 87314" d="M116.491,135.568l2.331,2.551s-4.838,2.111-6.2,4.4c0,0-2.859-2.683-2.815-2.815A16.359,16.359,0,0,1,116.491,135.568Z" transform="translate(256.355 -95.473)" fill="#f1f2ff"/>
        <path id="Path_87315-2" data-name="Path 87315" d="M492.11,76.332l-.4,2.03s-2.737-1.582-4.324-1.427c0,0,.278-2.332.357-2.358A9.8,9.8,0,0,1,492.11,76.332Z" transform="translate(-359.679 -73.693)" fill="#f1f2ff"/>
        <path id="Path_87316-2" data-name="Path 87316" d="M241.448,407.909l-.4,2.03s-2.737-1.582-4.324-1.427c0,0,.278-2.332.357-2.357A9.789,9.789,0,0,1,241.448,407.909Z" transform="translate(52.134 -192.099)" fill="#f1f2ff"/>
        <path id="Path_87317-2" data-name="Path 87317" d="M342.188,392.989l-.4,2.03s-2.737-1.582-4.324-1.427c0,0,.278-2.332.357-2.358A9.79,9.79,0,0,1,342.188,392.989Z" transform="translate(-113.372 -186.771)" fill="#f1f2ff"/>
        <path id="Path_87318-2" data-name="Path 87318" d="M124.881,197.463l-.4,2.03s-2.737-1.583-4.324-1.427c0,0,.278-2.332.357-2.358A9.785,9.785,0,0,1,124.881,197.463Z" transform="translate(243.642 -116.949)" fill="#f1f2ff"/>
        <path id="Path_87319-2" data-name="Path 87319" d="M294.711,381.745l-.4,2.03s-2.737-1.582-4.324-1.427c0,0,.278-2.331.357-2.357A9.79,9.79,0,0,1,294.711,381.745Z" transform="translate(-35.373 -182.756)" fill="#f1f2ff"/>
        <path id="Path_87320-2" data-name="Path 87320" d="M371.126,98.35l-.4,2.03s-2.737-1.583-4.324-1.427c0,0,.278-2.332.357-2.358A9.792,9.792,0,0,1,371.126,98.35Z" transform="translate(-160.914 -81.556)" fill="#f1f2ff"/>
        <path id="Path_87321-2" data-name="Path 87321" d="M460.4,387.1l-.4,2.03s-2.737-1.583-4.324-1.427c0,0,.278-2.332.357-2.358A9.793,9.793,0,0,1,460.4,387.1Z" transform="translate(-307.582 -184.668)" fill="#f1f2ff"/>
        <path id="Path_87322-2" data-name="Path 87322" d="M327.267,102.8l-1.761,1.087s-.7-3.083-1.9-4.14c0,0,1.9-1.384,1.97-1.343A9.8,9.8,0,0,1,327.267,102.8Z" transform="translate(-89.546 -82.2)" fill="#f1f2ff"/>
        <path id="Path_87323-2" data-name="Path 87323" d="M437.4,244.514l-2.109-2.042s-1.912,4.057-3.888,5.158c0,0,2.208,2.494,2.321,2.46A13.891,13.891,0,0,0,437.4,244.514Z" transform="translate(-268.987 -133.648)" fill="#f1f2ff"/>
        <path id="Path_87324-2" data-name="Path 87324" d="M618.425,157.665l-2.109-2.042s-1.912,4.056-3.888,5.158c0,0,2.208,2.494,2.321,2.46A13.9,13.9,0,0,0,618.425,157.665Z" transform="translate(-566.385 -102.635)" fill="#f1f2ff"/>
        <path id="Path_87325-2" data-name="Path 87325" d="M388.511,319.352,386.4,317.31s-1.912,4.056-3.888,5.157c0,0,2.208,2.494,2.32,2.46A13.884,13.884,0,0,0,388.511,319.352Z" transform="translate(-188.66 -160.373)" fill="#f1f2ff"/>
        <path id="Path_87326-2" data-name="Path 87326" d="M152.317,219.962l-2.777-.192s1.648-3.922,1.171-6.014c0,0,3.159-.024,3.207.077A13.169,13.169,0,0,1,152.317,219.962Z" transform="translate(195.705 -123.393)" fill="#f1f2ff"/>
        <path id="Path_87327-2" data-name="Path 87327" d="M187.035,380.565l-2.485-.171s1.475-3.508,1.049-5.379c0,0,2.826-.022,2.868.069A11.778,11.778,0,0,1,187.035,380.565Z" transform="translate(138.649 -180.978)" fill="#f1f2ff"/>
        <path id="Path_87328-2" data-name="Path 87328" d="M296.753,78.756l-2.485-.172s1.474-3.508,1.049-5.379c0,0,2.826-.022,2.868.069A11.781,11.781,0,0,1,296.753,78.756Z" transform="translate(-41.606 -73.202)" fill="#f1f2ff"/>
        <path id="Path_87329-2" data-name="Path 87329" d="M136.773,299.26l-1.11-1.747s3.073-.743,4.115-1.951c0,0,1.408,1.879,1.368,1.953A9.791,9.791,0,0,1,136.773,299.26Z" transform="translate(217.407 -152.607)" fill="#f1f2ff"/>
        <path id="Path_87330-2" data-name="Path 87330" d="M78.883,213.15l-1.11-1.746s3.073-.743,4.115-1.951c0,0,1.408,1.879,1.369,1.952A9.793,9.793,0,0,1,78.883,213.15Z" transform="translate(312.514 -121.857)" fill="#f1f2ff"/>
        <path id="Path_87331-2" data-name="Path 87331" d="M183.007,325.953l-.057-2.719s-3.9,1.425-5.92.862c0,0-.172,3.08-.075,3.132A12.879,12.879,0,0,0,183.007,325.953Z" transform="translate(149.019 -162.488)" fill="#f1f2ff"/>
        <path id="Path_87332-2" data-name="Path 87332" d="M558.488,105.007l-.058-2.719s-3.9,1.424-5.92.862c0,0-.172,3.08-.075,3.132A12.881,12.881,0,0,0,558.488,105.007Z" transform="translate(-467.86 -83.589)" fill="#f1f2ff"/>
        <path id="Path_87333-2" data-name="Path 87333" d="M263.614,176.574l2.308,1.814s1.483-4.232,3.335-5.532c0,0-2.454-2.253-2.563-2.207A13.886,13.886,0,0,0,263.614,176.574Z" transform="translate(7.036 -108)" fill="#f1f2ff"/>
        <path id="Path_87334-2" data-name="Path 87334" d="M540.958,351.069l2.309,1.814s1.483-4.232,3.334-5.531c0,0-2.453-2.253-2.563-2.207A13.886,13.886,0,0,0,540.958,351.069Z" transform="translate(-448.612 -170.312)" fill="#f1f2ff"/>
        <path id="Path_87335-2" data-name="Path 87335" d="M689.012,256.985l-1.839.948s-.464-3.127-1.572-4.273c0,0,2-1.233,2.068-1.187A9.8,9.8,0,0,1,689.012,256.985Z" transform="translate(-684.016 -137.219)" fill="#f1f2ff"/>
        <path id="Path_87336-2" data-name="Path 87336" d="M620.345,226.537l-1.578-2.295s4.1-1.148,5.438-2.822c0,0,1.984,2.458,1.934,2.559A13.176,13.176,0,0,1,620.345,226.537Z" transform="translate(-578.176 -126.131)" fill="#f1f2ff"/>
        <path id="Path_87337-2" data-name="Path 87337" d="M616.551,365.781l.678-1.956s2.492,1.945,4.086,2.009c0,0-.6,2.271-.678,2.286A9.8,9.8,0,0,1,616.551,365.781Z" transform="translate(-571.925 -176.983)" fill="#f1f2ff"/>
        <path id="Path_87338-2" data-name="Path 87338" d="M532.711,292.806l.678-1.956s2.493,1.944,4.086,2.009c0,0-.6,2.271-.678,2.286A9.8,9.8,0,0,1,532.711,292.806Z" transform="translate(-434.184 -150.924)" fill="#f1f2ff"/>
        <path id="Path_87339-2" data-name="Path 87339" d="M683.136,138.979l.016,2.936s4.237-1.471,6.406-.829c0,0,.238-3.323.134-3.379A13.892,13.892,0,0,0,683.136,138.979Z" transform="translate(-683.136 -96.227)" fill="#f1f2ff"/>
      </g>
    </g>
  </g>
</svg>
