<svg xmlns="http://www.w3.org/2000/svg" xmlns:xlink="http://www.w3.org/1999/xlink" width="328" height="68" viewBox="0 0 328 68">
  <defs>
    <filter id="Rectangle" x="-6" y="-4" width="340" height="80" filterUnits="userSpaceOnUse">
      <feOffset dy="2" input="SourceAlpha"/>
      <feGaussianBlur stdDeviation="2" result="blur"/>
      <feFlood flood-color="#38539a" flood-opacity="0.149"/>
      <feComposite operator="in" in2="blur"/>
      <feComposite in="SourceGraphic"/>
    </filter>
    <clipPath id="clip-path">
      <g transform="matrix(1, 0, 0, 1, 0, 0)" filter="url(#Rectangle)">
        <path id="Rectangle-2" data-name="Rectangle" d="M0,0H328a0,0,0,0,1,0,0V58a10,10,0,0,1-10,10H10A10,10,0,0,1,0,58V0A0,0,0,0,1,0,0Z" transform="translate(24 444)" fill="#f1f2ff"/>
      </g>
    </clipPath>
  </defs>
  <g id="Group_8462" data-name="Group 8462" transform="translate(-24 -444)">
    <rect id="Rectangle-3" data-name="Rectangle" width="328" height="68" transform="translate(24 444)" fill="#f1f2ff"/>
    <g id="Mask_Group_124" data-name="Mask Group 124" clip-path="url(#clip-path)">
      <g id="Group_8182" data-name="Group 8182" transform="translate(-67.107 369.19)" style="mix-blend-mode: multiply;isolation: isolate">
        <path id="Path_87310" data-name="Path 87310" d="M553.169,148.995l-1.683,1.842s3.494,1.524,4.478,3.176c0,0,2.065-1.937,2.033-2.033A11.821,11.821,0,0,0,553.169,148.995Z" transform="translate(-200.792 -32.126)" fill="#f1f2ff"/>
        <path id="Path_87311" data-name="Path 87311" d="M371.758,160.137l-1.683,1.842s3.494,1.524,4.478,3.176c0,0,2.065-1.938,2.033-2.033A11.8,11.8,0,0,0,371.758,160.137Z" transform="translate(-123.898 -36.849)" fill="#f1f2ff"/>
        <path id="Path_87312" data-name="Path 87312" d="M491.5,156.451l-2.769-.934s.016,4.464-1.289,6.3c0,0,3.051,1.3,3.138,1.219A13.833,13.833,0,0,0,491.5,156.451Z" transform="translate(-173.644 -34.891)" fill="#f1f2ff"/>
        <path id="Path_87313" data-name="Path 87313" d="M457.5,90.526l-2.345,2.567s4.868,2.125,6.241,4.426c0,0,2.877-2.7,2.833-2.833A16.451,16.451,0,0,0,457.5,90.526Z" transform="translate(-62.39 -9.143)" fill="#f1f2ff"/>
        <path id="Path_87314" data-name="Path 87314" d="M111.894,135.568l-2.089,2.286s4.336,1.892,5.557,3.941c0,0,2.562-2.4,2.523-2.522A14.66,14.66,0,0,0,111.894,135.568Z" transform="translate(193.705 281.323) rotate(-172)" fill="#f1f2ff"/>
        <path id="Path_87315" data-name="Path 87315" d="M487.384,76.15l.36,1.819s2.453-1.418,3.875-1.279c0,0-.249-2.09-.32-2.113A8.778,8.778,0,0,0,487.384,76.15Z" transform="translate(-173.621 -0.582)" fill="#f1f2ff"/>
        <path id="Path_87316" data-name="Path 87316" d="M236.722,407.727l.36,1.819s2.453-1.418,3.875-1.278c0,0-.249-2.09-.32-2.113A8.773,8.773,0,0,0,236.722,407.727Z" transform="translate(-67.374 -141.128)" fill="#f1f2ff"/>
        <path id="Path_87317" data-name="Path 87317" d="M337.462,392.807l.36,1.819s2.453-1.418,3.875-1.278c0,0-.249-2.09-.32-2.113A8.773,8.773,0,0,0,337.462,392.807Z" transform="translate(-110.074 -134.804)" fill="#f1f2ff"/>
        <path id="Path_87318" data-name="Path 87318" d="M120.155,197.281l.36,1.819s2.453-1.418,3.875-1.279c0,0-.249-2.09-.32-2.113A8.769,8.769,0,0,0,120.155,197.281Z" transform="translate(-17.964 -51.926)" fill="#f1f2ff"/>
        <path id="Path_87319" data-name="Path 87319" d="M289.986,381.563l.36,1.819s2.453-1.418,3.875-1.279c0,0-.249-2.089-.32-2.112A8.773,8.773,0,0,0,289.986,381.563Z" transform="translate(-89.951 -130.038)" fill="#f1f2ff"/>
        <path id="Path_87320" data-name="Path 87320" d="M366.4,98.168l.36,1.819s2.453-1.418,3.875-1.279c0,0-.249-2.09-.32-2.113A8.776,8.776,0,0,0,366.4,98.168Z" transform="translate(-122.34 -9.915)" fill="#f1f2ff"/>
        <path id="Path_87321" data-name="Path 87321" d="M455.674,386.919l.36,1.819s2.453-1.418,3.875-1.279c0,0-.249-2.09-.32-2.113A8.776,8.776,0,0,0,455.674,386.919Z" transform="translate(-160.181 -132.308)" fill="#f1f2ff"/>
        <path id="Path_87322" data-name="Path 87322" d="M323.61,102.338l1.578.974s.63-2.763,1.7-3.71c0,0-1.7-1.24-1.766-1.2A8.78,8.78,0,0,0,323.61,102.338Z" transform="translate(-104.203 -10.68)" fill="#f1f2ff"/>
        <path id="Path_87323" data-name="Path 87323" d="M431.408,244.3l1.89-1.83s1.713,3.635,3.484,4.622c0,0-1.978,2.235-2.08,2.2A12.448,12.448,0,0,1,431.408,244.3Z" transform="translate(-149.895 -71.748)" fill="#f1f2ff"/>
        <path id="Path_87324" data-name="Path 87324" d="M612.428,157.453l1.89-1.83s1.713,3.635,3.484,4.622c0,0-1.978,2.235-2.08,2.2A12.453,12.453,0,0,1,612.428,157.453Z" transform="translate(-220.505 -40.263)" fill="#f1f2ff"/>
        <path id="Path_87325" data-name="Path 87325" d="M382.515,319.14l1.89-1.83s1.713,3.635,3.484,4.622c0,0-1.978,2.235-2.079,2.2A12.442,12.442,0,0,1,382.515,319.14Z" transform="translate(-129.171 -103.47)" fill="#f1f2ff"/>
        <path id="Path_87326" data-name="Path 87326" d="M150.981,219.317l2.489-.172s-1.477-3.514-1.05-5.389c0,0-2.831-.022-2.874.069A11.8,11.8,0,0,0,150.981,219.317Z" transform="translate(-30.42 -59.575)" fill="#f1f2ff"/>
        <path id="Path_87327" data-name="Path 87327" d="M185.84,379.988l2.227-.153s-1.322-3.143-.94-4.82c0,0-2.532-.02-2.57.062A10.555,10.555,0,0,0,185.84,379.988Z" transform="translate(-45.26 -127.928)" fill="#f1f2ff"/>
        <path id="Path_87328" data-name="Path 87328" d="M295.557,78.179l2.227-.154s-1.321-3.143-.94-4.82c0,0-2.532-.02-2.57.062A10.558,10.558,0,0,0,295.557,78.179Z" transform="translate(-91.766)" fill="#f1f2ff"/>
        <path id="Path_87329" data-name="Path 87329" d="M139.582,298.876l.995-1.565s-2.754-.666-3.687-1.748c0,0-1.262,1.684-1.226,1.75A8.774,8.774,0,0,0,139.582,298.876Z" transform="translate(-24.538 -94.252)" fill="#f1f2ff"/>
        <path id="Path_87330" data-name="Path 87330" d="M81.692,212.766l.995-1.565s-2.754-.666-3.687-1.748c0,0-1.262,1.684-1.227,1.75A8.777,8.777,0,0,0,81.692,212.766Z" transform="translate(0 -57.752)" fill="#f1f2ff"/>
        <path id="Path_87331" data-name="Path 87331" d="M176.925,325.67l.051-2.436s3.5,1.277,5.305.773c0,0,.154,2.76.067,2.806A11.541,11.541,0,0,1,176.925,325.67Z" transform="translate(-42.028 -105.981)" fill="#f1f2ff"/>
        <path id="Path_87332" data-name="Path 87332" d="M552.406,104.724l.052-2.436s3.5,1.276,5.305.773c0,0,.154,2.76.067,2.806A11.544,11.544,0,0,1,552.406,104.724Z" transform="matrix(0.438, -0.899, 0.899, 0.438, 44.044, 555.077)" fill="#f1f2ff"/>
        <path id="Path_87333" data-name="Path 87333" d="M268.671,175.958l-2.068,1.625s-1.329-3.793-2.988-4.957c0,0,2.2-2.019,2.3-1.978A12.444,12.444,0,0,1,268.671,175.958Z" transform="translate(-78.772 -41.304)" fill="#f1f2ff"/>
        <path id="Path_87334" data-name="Path 87334" d="M546.015,350.453l-2.069,1.625s-1.329-3.793-2.988-4.957c0,0,2.2-2.019,2.3-1.978A12.444,12.444,0,0,1,546.015,350.453Z" transform="translate(-196.33 -115.267)" fill="#f1f2ff"/>
        <path id="Path_87335" data-name="Path 87335" d="M685.6,256.516l1.648.85s.415-2.8,1.409-3.83c0,0-1.791-1.1-1.853-1.064A8.779,8.779,0,0,0,685.6,256.516Z" transform="translate(-257.639 -75.987)" fill="#f1f2ff"/>
        <path id="Path_87336" data-name="Path 87336" d="M623.961,226.005l1.414-2.056s-3.671-1.029-4.873-2.529c0,0-1.778,2.2-1.734,2.293A11.808,11.808,0,0,0,623.961,226.005Z" transform="translate(-229.311 -62.825)" fill="#f1f2ff"/>
        <path id="Path_87337" data-name="Path 87337" d="M620.82,365.578l-.607-1.753s-2.234,1.743-3.662,1.8c0,0,.534,2.035.608,2.049A8.785,8.785,0,0,0,620.82,365.578Z" transform="translate(-228.371 -123.186)" fill="#f1f2ff"/>
        <path id="Path_87338" data-name="Path 87338" d="M536.98,292.6l-.607-1.753s-2.234,1.742-3.662,1.8c0,0,.534,2.035.607,2.049A8.778,8.778,0,0,0,536.98,292.6Z" transform="translate(-192.834 -92.254)" fill="#f1f2ff"/>
        <path id="Path_87339" data-name="Path 87339" d="M689.035,138.844l-.014,2.631s-3.8-1.318-5.741-.743c0,0-.213-2.977-.12-3.028A12.449,12.449,0,0,1,689.035,138.844Z" transform="translate(-256.595 -27.329)" fill="#f1f2ff"/>
      </g>
    </g>
    <g id="Group_8012" data-name="Group 8012" transform="translate(28 448)">
      <path id="Path_87222" data-name="Path 87222" d="M419.926,247.49l1.414,2.585,2.586,1.414L421.34,252.9l-1.414,2.585-1.414-2.585-2.586-1.414,2.586-1.414Z" transform="translate(-415.926 -247.49)" fill="#c7caf0"/>
      <rect id="Rectangle_4146" data-name="Rectangle 4146" width="1.4" height="1.4" transform="matrix(0.707, -0.707, 0.707, 0.707, 0, 13.51)" fill="#c7caf0"/>
      <rect id="Rectangle_4147" data-name="Rectangle 4147" width="1.4" height="1.38" transform="matrix(0.707, -0.707, 0.707, 0.707, 12.096, 0.99)" fill="#c7caf0"/>
    </g>
    <g id="Group_8013" data-name="Group 8013" transform="translate(333.938 493.5)">
      <path id="Path_87222-2" data-name="Path 87222" d="M419.926,255.489l-1.414-2.586-2.586-1.414,2.586-1.414,1.414-2.586,1.414,2.586,2.586,1.414L421.34,252.9Z" transform="translate(-409.864 -240.988)" fill="#c7caf0"/>
      <rect id="Rectangle_4146-2" data-name="Rectangle 4146" width="1.4" height="1.4" transform="matrix(-0.707, 0.707, -0.707, -0.707, 14.061, 0.99)" fill="#c7caf0"/>
      <rect id="Rectangle_4147-2" data-name="Rectangle 4147" width="1.4" height="1.38" transform="matrix(-0.707, 0.707, -0.707, -0.707, 1.966, 13.51)" fill="#c7caf0"/>
    </g>
  </g>
</svg>
