<svg xmlns="http://www.w3.org/2000/svg" xmlns:xlink="http://www.w3.org/1999/xlink" width="296" height="197" viewBox="0 0 296 197">
  <defs>
    <clipPath id="clip-path">
      <rect id="Rectangle_4252" data-name="Rectangle 4252" width="296" height="197" transform="translate(40 302)" fill="#dcdef7"/>
    </clipPath>
  </defs>
  <g id="Mask_Group_142" data-name="Mask Group 142" transform="translate(-40 -302)" clip-path="url(#clip-path)">
    <g id="Group_8871" data-name="Group 8871" transform="translate(-26.79 429.54)" opacity="0.5" style="isolation: isolate">
      <path id="Path_87310" data-name="Path 87310" d="M556.861,148.995l1.873,2.051s-3.889,1.7-4.984,3.535c0,0-2.3-2.156-2.263-2.263A13.157,13.157,0,0,1,556.861,148.995Z" transform="translate(-467.74 -100.388)" fill="#c7caf0"/>
      <path id="Path_87311" data-name="Path 87311" d="M375.449,160.137l1.874,2.05s-3.889,1.7-4.985,3.536c0,0-2.3-2.157-2.263-2.263A13.135,13.135,0,0,1,375.449,160.137Z" transform="translate(-169.989 -104.385)" fill="#c7caf0"/>
      <path id="Path_87312" data-name="Path 87312" d="M487.565,156.557l3.083-1.04s-.018,4.97,1.435,7.012c0,0-3.4,1.444-3.493,1.356A15.4,15.4,0,0,1,487.565,156.557Z" transform="translate(-360.015 -102.728)" fill="#c7caf0"/>
      <path id="Path_87313" data-name="Path 87313" d="M462.64,90.526l2.611,2.857s-5.419,2.365-6.947,4.927c0,0-3.2-3.006-3.153-3.153S458.846,91.462,462.64,90.526Z" transform="translate(-312.475 -79.416)" fill="#c7caf0"/>
      <path id="Path_87314" data-name="Path 87314" d="M116.474,135.568l2.325,2.545s-4.826,2.106-6.186,4.387c0,0-2.852-2.676-2.808-2.808A16.318,16.318,0,0,1,116.474,135.568Z" transform="translate(255.448 -95.572)" fill="#c7caf0"/>
      <path id="Path_87315" data-name="Path 87315" d="M492.1,76.328l-.4,2.025s-2.73-1.578-4.313-1.424c0,0,.277-2.326.356-2.352A9.771,9.771,0,0,1,492.1,76.328Z" transform="translate(-359.995 -73.695)" fill="#c7caf0"/>
      <path id="Path_87316" data-name="Path 87316" d="M241.436,407.9l-.4,2.025s-2.73-1.578-4.313-1.423c0,0,.277-2.326.357-2.352A9.765,9.765,0,0,1,241.436,407.9Z" transform="translate(51.418 -192.63)" fill="#c7caf0"/>
      <path id="Path_87317" data-name="Path 87317" d="M342.176,392.985l-.4,2.025s-2.73-1.578-4.313-1.423c0,0,.277-2.326.357-2.352A9.766,9.766,0,0,1,342.176,392.985Z" transform="translate(-113.927 -187.278)" fill="#c7caf0"/>
      <path id="Path_87318" data-name="Path 87318" d="M124.869,197.459l-.4,2.025s-2.73-1.579-4.313-1.424c0,0,.277-2.326.357-2.352A9.761,9.761,0,0,1,124.869,197.459Z" transform="translate(242.741 -117.144)" fill="#c7caf0"/>
      <path id="Path_87319" data-name="Path 87319" d="M294.7,381.741l-.4,2.025s-2.731-1.578-4.313-1.424c0,0,.277-2.325.356-2.351A9.766,9.766,0,0,1,294.7,381.741Z" transform="translate(-36.004 -183.245)" fill="#c7caf0"/>
      <path id="Path_87320" data-name="Path 87320" d="M371.114,98.346l-.4,2.025s-2.73-1.579-4.313-1.424c0,0,.277-2.326.356-2.352A9.768,9.768,0,0,1,371.114,98.346Z" transform="translate(-161.423 -81.593)" fill="#c7caf0"/>
      <path id="Path_87321" data-name="Path 87321" d="M460.388,387.1l-.4,2.025s-2.73-1.579-4.313-1.424c0,0,.277-2.326.357-2.352A9.769,9.769,0,0,1,460.388,387.1Z" transform="translate(-307.949 -185.166)" fill="#c7caf0"/>
      <path id="Path_87322" data-name="Path 87322" d="M327.258,102.784l-1.757,1.084s-.7-3.075-1.892-4.129c0,0,1.893-1.38,1.966-1.34A9.774,9.774,0,0,1,327.258,102.784Z" transform="translate(-90.126 -82.24)" fill="#c7caf0"/>
      <path id="Path_87323" data-name="Path 87323" d="M437.39,244.509l-2.1-2.037s-1.907,4.047-3.879,5.145c0,0,2.2,2.488,2.315,2.454A13.856,13.856,0,0,0,437.39,244.509Z" transform="translate(-269.389 -133.918)" fill="#c7caf0"/>
      <path id="Path_87324" data-name="Path 87324" d="M618.41,157.66l-2.1-2.037s-1.907,4.046-3.879,5.145c0,0,2.2,2.488,2.315,2.454A13.861,13.861,0,0,0,618.41,157.66Z" transform="translate(-566.499 -102.766)" fill="#c7caf0"/>
      <path id="Path_87325" data-name="Path 87325" d="M388.5,319.347l-2.1-2.037s-1.907,4.046-3.878,5.145c0,0,2.2,2.488,2.314,2.454A13.85,13.85,0,0,0,388.5,319.347Z" transform="translate(-189.14 -160.762)" fill="#c7caf0"/>
      <path id="Path_87326" data-name="Path 87326" d="M152.311,219.946l-2.77-.191s1.644-3.912,1.168-6c0,0,3.151-.024,3.2.077A13.136,13.136,0,0,1,152.311,219.946Z" transform="translate(194.85 -123.617)" fill="#c7caf0"/>
      <path id="Path_87327" data-name="Path 87327" d="M187.029,380.551l-2.479-.171s1.471-3.5,1.046-5.366c0,0,2.819-.022,2.861.069A11.749,11.749,0,0,1,187.029,380.551Z" transform="translate(137.849 -181.459)" fill="#c7caf0"/>
      <path id="Path_87328" data-name="Path 87328" d="M296.747,78.742l-2.479-.171s1.471-3.5,1.046-5.366c0,0,2.819-.022,2.861.069A11.752,11.752,0,0,1,296.747,78.742Z" transform="translate(-42.232 -73.202)" fill="#c7caf0"/>
      <path id="Path_87329" data-name="Path 87329" d="M136.77,299.251l-1.108-1.742s3.065-.741,4.1-1.946c0,0,1.4,1.875,1.365,1.948A9.767,9.767,0,0,1,136.77,299.251Z" transform="translate(216.532 -152.961)" fill="#c7caf0"/>
      <path id="Path_87330" data-name="Path 87330" d="M78.88,213.141,77.773,211.4s3.065-.741,4.1-1.946c0,0,1.4,1.875,1.365,1.948A9.769,9.769,0,0,1,78.88,213.141Z" transform="translate(311.547 -122.074)" fill="#c7caf0"/>
      <path id="Path_87331" data-name="Path 87331" d="M182.992,325.946l-.057-2.712s-3.892,1.421-5.905.86c0,0-.171,3.072-.075,3.124A12.847,12.847,0,0,0,182.992,325.946Z" transform="translate(148.211 -162.887)" fill="#c7caf0"/>
      <path id="Path_87332" data-name="Path 87332" d="M558.473,105l-.058-2.712s-3.892,1.421-5.905.86c0,0-.171,3.073-.075,3.124A12.849,12.849,0,0,0,558.473,105Z" transform="translate(-468.069 -83.635)" fill="#c7caf0"/>
      <path id="Path_87333" data-name="Path 87333" d="M263.614,176.559l2.3,1.809s1.479-4.222,3.326-5.518c0,0-2.448-2.247-2.556-2.2A13.852,13.852,0,0,0,263.614,176.559Z" transform="translate(6.366 -108.155)" fill="#c7caf0"/>
      <path id="Path_87334" data-name="Path 87334" d="M540.958,351.054l2.3,1.809s1.479-4.222,3.326-5.518c0,0-2.447-2.247-2.556-2.2A13.852,13.852,0,0,0,540.958,351.054Z" transform="translate(-448.841 -170.745)" fill="#c7caf0"/>
      <path id="Path_87335" data-name="Path 87335" d="M689,256.974l-1.835.946s-.462-3.119-1.568-4.263c0,0,1.993-1.23,2.062-1.184A9.77,9.77,0,0,1,689,256.974Z" transform="translate(-684.02 -137.505)" fill="#c7caf0"/>
      <path id="Path_87336" data-name="Path 87336" d="M620.341,226.524l-1.574-2.289s4.086-1.145,5.424-2.815c0,0,1.979,2.452,1.93,2.552A13.143,13.143,0,0,1,620.341,226.524Z" transform="translate(-578.277 -126.367)" fill="#c7caf0"/>
      <path id="Path_87337" data-name="Path 87337" d="M616.551,365.776l.676-1.952s2.486,1.94,4.076,2c0,0-.595,2.266-.677,2.28A9.779,9.779,0,0,1,616.551,365.776Z" transform="translate(-572.036 -177.446)" fill="#c7caf0"/>
      <path id="Path_87338" data-name="Path 87338" d="M532.711,292.8l.676-1.951s2.487,1.939,4.076,2c0,0-.595,2.266-.676,2.281A9.771,9.771,0,0,1,532.711,292.8Z" transform="translate(-434.429 -151.271)" fill="#c7caf0"/>
      <path id="Path_87339" data-name="Path 87339" d="M683.137,138.976l.016,2.928s4.226-1.467,6.39-.827c0,0,.237-3.314.134-3.371A13.857,13.857,0,0,0,683.137,138.976Z" transform="translate(-683.137 -96.329)" fill="#c7caf0"/>
    </g>
    <g id="Group_9161" data-name="Group 9161" transform="translate(-69.79 310.54)" opacity="0.5" style="isolation: isolate">
      <path id="Path_87310-2" data-name="Path 87310" d="M556.861,148.995l1.873,2.051s-3.889,1.7-4.984,3.535c0,0-2.3-2.156-2.263-2.263A13.157,13.157,0,0,1,556.861,148.995Z" transform="translate(-467.74 -100.388)" fill="#c7caf0"/>
      <path id="Path_87311-2" data-name="Path 87311" d="M375.449,160.137l1.874,2.05s-3.889,1.7-4.985,3.536c0,0-2.3-2.157-2.263-2.263A13.135,13.135,0,0,1,375.449,160.137Z" transform="translate(-169.989 -104.385)" fill="#c7caf0"/>
      <path id="Path_87312-2" data-name="Path 87312" d="M487.565,156.557l3.083-1.04s-.018,4.97,1.435,7.012c0,0-3.4,1.444-3.493,1.356A15.4,15.4,0,0,1,487.565,156.557Z" transform="translate(-360.015 -102.728)" fill="#c7caf0"/>
      <path id="Path_87313-2" data-name="Path 87313" d="M462.64,90.526l2.611,2.857s-5.419,2.365-6.947,4.927c0,0-3.2-3.006-3.153-3.153S458.846,91.462,462.64,90.526Z" transform="translate(-312.475 -79.416)" fill="#c7caf0"/>
      <path id="Path_87314-2" data-name="Path 87314" d="M116.474,135.568l2.325,2.545s-4.826,2.106-6.186,4.387c0,0-2.852-2.676-2.808-2.808A16.318,16.318,0,0,1,116.474,135.568Z" transform="translate(255.448 -95.572)" fill="#c7caf0"/>
      <path id="Path_87315-2" data-name="Path 87315" d="M492.1,76.328l-.4,2.025s-2.73-1.578-4.313-1.424c0,0,.277-2.326.356-2.352A9.771,9.771,0,0,1,492.1,76.328Z" transform="translate(-359.995 -73.695)" fill="#c7caf0"/>
      <path id="Path_87316-2" data-name="Path 87316" d="M241.436,407.9l-.4,2.025s-2.73-1.578-4.313-1.423c0,0,.277-2.326.357-2.352A9.765,9.765,0,0,1,241.436,407.9Z" transform="translate(51.418 -192.63)" fill="#c7caf0"/>
      <path id="Path_87317-2" data-name="Path 87317" d="M342.176,392.985l-.4,2.025s-2.73-1.578-4.313-1.423c0,0,.277-2.326.357-2.352A9.766,9.766,0,0,1,342.176,392.985Z" transform="translate(-113.927 -187.278)" fill="#c7caf0"/>
      <path id="Path_87318-2" data-name="Path 87318" d="M124.869,197.459l-.4,2.025s-2.73-1.579-4.313-1.424c0,0,.277-2.326.357-2.352A9.761,9.761,0,0,1,124.869,197.459Z" transform="translate(242.741 -117.144)" fill="#c7caf0"/>
      <path id="Path_87319-2" data-name="Path 87319" d="M294.7,381.741l-.4,2.025s-2.731-1.578-4.313-1.424c0,0,.277-2.325.356-2.351A9.766,9.766,0,0,1,294.7,381.741Z" transform="translate(-36.004 -183.245)" fill="#c7caf0"/>
      <path id="Path_87320-2" data-name="Path 87320" d="M371.114,98.346l-.4,2.025s-2.73-1.579-4.313-1.424c0,0,.277-2.326.356-2.352A9.768,9.768,0,0,1,371.114,98.346Z" transform="translate(-161.423 -81.593)" fill="#c7caf0"/>
      <path id="Path_87321-2" data-name="Path 87321" d="M460.388,387.1l-.4,2.025s-2.73-1.579-4.313-1.424c0,0,.277-2.326.357-2.352A9.769,9.769,0,0,1,460.388,387.1Z" transform="translate(-307.949 -185.166)" fill="#c7caf0"/>
      <path id="Path_87322-2" data-name="Path 87322" d="M327.258,102.784l-1.757,1.084s-.7-3.075-1.892-4.129c0,0,1.893-1.38,1.966-1.34A9.774,9.774,0,0,1,327.258,102.784Z" transform="translate(-90.126 -82.24)" fill="#c7caf0"/>
      <path id="Path_87323-2" data-name="Path 87323" d="M437.39,244.509l-2.1-2.037s-1.907,4.047-3.879,5.145c0,0,2.2,2.488,2.315,2.454A13.856,13.856,0,0,0,437.39,244.509Z" transform="translate(-269.389 -133.918)" fill="#c7caf0"/>
      <path id="Path_87324-2" data-name="Path 87324" d="M618.41,157.66l-2.1-2.037s-1.907,4.046-3.879,5.145c0,0,2.2,2.488,2.315,2.454A13.861,13.861,0,0,0,618.41,157.66Z" transform="translate(-566.499 -102.766)" fill="#c7caf0"/>
      <path id="Path_87325-2" data-name="Path 87325" d="M388.5,319.347l-2.1-2.037s-1.907,4.046-3.878,5.145c0,0,2.2,2.488,2.314,2.454A13.85,13.85,0,0,0,388.5,319.347Z" transform="translate(-189.14 -160.762)" fill="#c7caf0"/>
      <path id="Path_87326-2" data-name="Path 87326" d="M152.311,219.946l-2.77-.191s1.644-3.912,1.168-6c0,0,3.151-.024,3.2.077A13.136,13.136,0,0,1,152.311,219.946Z" transform="translate(194.85 -123.617)" fill="#c7caf0"/>
      <path id="Path_87327-2" data-name="Path 87327" d="M187.029,380.551l-2.479-.171s1.471-3.5,1.046-5.366c0,0,2.819-.022,2.861.069A11.749,11.749,0,0,1,187.029,380.551Z" transform="translate(137.849 -181.459)" fill="#c7caf0"/>
      <path id="Path_87328-2" data-name="Path 87328" d="M296.747,78.742l-2.479-.171s1.471-3.5,1.046-5.366c0,0,2.819-.022,2.861.069A11.752,11.752,0,0,1,296.747,78.742Z" transform="translate(-42.232 -73.202)" fill="#c7caf0"/>
      <path id="Path_87329-2" data-name="Path 87329" d="M136.77,299.251l-1.108-1.742s3.065-.741,4.1-1.946c0,0,1.4,1.875,1.365,1.948A9.767,9.767,0,0,1,136.77,299.251Z" transform="translate(216.532 -152.961)" fill="#c7caf0"/>
      <path id="Path_87330-2" data-name="Path 87330" d="M78.88,213.141,77.773,211.4s3.065-.741,4.1-1.946c0,0,1.4,1.875,1.365,1.948A9.769,9.769,0,0,1,78.88,213.141Z" transform="translate(311.547 -122.074)" fill="#c7caf0"/>
      <path id="Path_87331-2" data-name="Path 87331" d="M182.992,325.946l-.057-2.712s-3.892,1.421-5.905.86c0,0-.171,3.072-.075,3.124A12.847,12.847,0,0,0,182.992,325.946Z" transform="translate(148.211 -162.887)" fill="#c7caf0"/>
      <path id="Path_87332-2" data-name="Path 87332" d="M558.473,105l-.058-2.712s-3.892,1.421-5.905.86c0,0-.171,3.073-.075,3.124A12.849,12.849,0,0,0,558.473,105Z" transform="translate(-468.069 -83.635)" fill="#c7caf0"/>
      <path id="Path_87333-2" data-name="Path 87333" d="M263.614,176.559l2.3,1.809s1.479-4.222,3.326-5.518c0,0-2.448-2.247-2.556-2.2A13.852,13.852,0,0,0,263.614,176.559Z" transform="translate(6.366 -108.155)" fill="#c7caf0"/>
      <path id="Path_87334-2" data-name="Path 87334" d="M540.958,351.054l2.3,1.809s1.479-4.222,3.326-5.518c0,0-2.447-2.247-2.556-2.2A13.852,13.852,0,0,0,540.958,351.054Z" transform="translate(-448.841 -170.745)" fill="#c7caf0"/>
      <path id="Path_87335-2" data-name="Path 87335" d="M689,256.974l-1.835.946s-.462-3.119-1.568-4.263c0,0,1.993-1.23,2.062-1.184A9.77,9.77,0,0,1,689,256.974Z" transform="translate(-684.02 -137.505)" fill="#c7caf0"/>
      <path id="Path_87336-2" data-name="Path 87336" d="M620.341,226.524l-1.574-2.289s4.086-1.145,5.424-2.815c0,0,1.979,2.452,1.93,2.552A13.143,13.143,0,0,1,620.341,226.524Z" transform="translate(-578.277 -126.367)" fill="#c7caf0"/>
      <path id="Path_87337-2" data-name="Path 87337" d="M616.551,365.776l.676-1.952s2.486,1.94,4.076,2c0,0-.595,2.266-.677,2.28A9.779,9.779,0,0,1,616.551,365.776Z" transform="translate(-572.036 -177.446)" fill="#c7caf0"/>
      <path id="Path_87338-2" data-name="Path 87338" d="M532.711,292.8l.676-1.951s2.487,1.939,4.076,2c0,0-.595,2.266-.676,2.281A9.771,9.771,0,0,1,532.711,292.8Z" transform="translate(-434.429 -151.271)" fill="#c7caf0"/>
      <path id="Path_87339-2" data-name="Path 87339" d="M683.137,138.976l.016,2.928s4.226-1.467,6.39-.827c0,0,.237-3.314.134-3.371A13.857,13.857,0,0,0,683.137,138.976Z" transform="translate(-683.137 -96.329)" fill="#c7caf0"/>
    </g>
  </g>
</svg>
