<svg id="Icon_Header_Close" data-name="Icon/Header/Close" xmlns="http://www.w3.org/2000/svg" width="24" height="24" viewBox="0 0 24 24">
  <rect id="Icon_Header_Close_background" data-name="Icon/Header/Close background" width="24" height="24" fill="none"/>
  <path id="Close" d="M10.275,8.972,17.647,1.64a.887.887,0,0,0,0-1.265.909.909,0,0,0-1.278,0L9,7.7,1.569.265A.9.9,0,0,0,.291,1.546L7.72,8.976.264,16.391a.889.889,0,0,0,0,1.265.909.909,0,0,0,1.278,0l7.449-7.408,7.4,7.406a.9.9,0,1,0,1.278-1.281Z" transform="translate(3 3.01)" fill="#c3c4c5"/>
</svg>
