<svg xmlns="http://www.w3.org/2000/svg" width="16" height="16" viewBox="0 0 16 16">
  <g id="Group_8025" data-name="Group 8025" transform="translate(-1349 -358)">
    <path id="Path_87305" data-name="Path 87305" d="M958.234,541.651a1.565,1.565,0,0,0-.413-1.127.639.639,0,1,1-.051-1.01,1.754,1.754,0,0,0-.245-2.392,2.644,2.644,0,0,0-1.376-.478v-.415a.758.758,0,1,0-1.516,0v.4h-.97a.765.765,0,0,0-.766.765v5.4a.765.765,0,0,0,.766.765h.977v.416a.758.758,0,1,0,1.515,0v-.422a2.514,2.514,0,0,0,1.466-.5A1.737,1.737,0,0,0,958.234,541.651Zm-3.685-3.835h.921a1.138,1.138,0,0,1,.744.22.818.818,0,0,1,0,1.213,1.144,1.144,0,0,1-.744.219h-.918Zm1.757,4.26a1.052,1.052,0,0,1-.724.238l-1.033,0v-1.725h1.033a1.082,1.082,0,0,1,.711.232.75.75,0,0,1,.275.607A.824.824,0,0,1,956.307,542.076Z" transform="translate(401.601 -174.228)" fill="#fff"/>
    <g id="Ellipse_381" data-name="Ellipse 381" transform="translate(1349 358)" fill="none" stroke="#fff" stroke-width="1.4">
      <circle cx="8" cy="8" r="8" stroke="none"/>
      <circle cx="8" cy="8" r="7.3" fill="none"/>
    </g>
  </g>
</svg>
