<svg id="Icon_User" data-name="Icon / User" xmlns="http://www.w3.org/2000/svg" width="24" height="24" viewBox="0 0 24 24">
  <g id="Group_6016" data-name="Group 6016" transform="translate(-948.146 -527.512)">
    <rect id="Icon_Header_User_background" data-name="Icon Header User background" width="24" height="24" transform="translate(948.146 527.512)" fill="none"/>
    <path id="Path_16641" data-name="Path 16641" d="M961.8,538.971a4.629,4.629,0,0,0,0-7.637,4.554,4.554,0,0,0-2.627-.781h0a4.554,4.554,0,0,0-2.627.781,4.629,4.629,0,0,0,0,7.637,8.035,8.035,0,0,0-5.371,6.884.624.624,0,1,0,1.244.1,6.775,6.775,0,0,1,13.506,0,.624.624,0,1,0,1.244-.1A8.035,8.035,0,0,0,961.8,538.971Zm-2.626-.431h0a3.385,3.385,0,1,1,0-6.771h0a3.385,3.385,0,1,1,0,6.771Z" transform="translate(0.97 0.959)" fill="#2c2c2c"/>
  </g>
</svg>
