<svg xmlns="http://www.w3.org/2000/svg" width="120" height="40" viewBox="0 0 120 40">
  <g id="Group_1" data-name="Group 1" transform="translate(-100 -59.5)">
    <g id="logo" transform="translate(100 59.5)">
      <rect id="Brand_Logo_On_Light_background" data-name="Brand / Logo / On Light background" width="120" height="40" transform="translate(0 0)" fill="none"/>
      <path id="Amway_Logo_-_Blue" data-name="Amway Logo - Blue" d="M0,40H0l.854-2.648A344.128,344.128,0,0,1,71.883,29.5a251.581,251.581,0,0,1,27.809,1.472V29.3h1.4a3.634,3.634,0,0,0,2.234-.514,2.907,2.907,0,0,0,.793-2.057,6.686,6.686,0,0,0-.4-1.742L97.982,7.241V27.677H92.794V25.423l0,.008a6.558,6.558,0,0,1-1.553,1.693,5.572,5.572,0,0,1-3.341.989,6.771,6.771,0,0,1-3.08-.719,7.2,7.2,0,0,1-2.455-2.061,12.3,12.3,0,0,1-2.211-7.587,15.822,15.822,0,0,1,.776-5.136A9.821,9.821,0,0,1,82.9,9.179a7.362,7.362,0,0,1,5.4-2.513A4.984,4.984,0,0,1,92.9,9.793V7.142h5.08v.039h5.745l3.386,13.809,3.1-13.809h5.382L109.671,27.52l-.047.155a16.436,16.436,0,0,1-1.812,4.375A108.163,108.163,0,0,1,120,34.516l-.158.544c-3.986-.92-8.245-1.7-12.66-2.319-.887.77-2.12,1.188-6.086,1.188-.451,0-.7-.021-1.025-.048-.116-.01-.236-.02-.379-.03V31.857c-6.815-.662-14.152-1-21.807-1A357.194,357.194,0,0,0,23.853,35.43C9.645,37.678.1,39.977,0,40ZM89.3,11.333a3.52,3.52,0,0,0-2.722,1.51,7.54,7.54,0,0,0-1.156,4.529,8.9,8.9,0,0,0,.6,3.536,3.424,3.424,0,0,0,3.058,2.425,3.248,3.248,0,0,0,2.388-1.152,7.546,7.546,0,0,0,1.416-5.008c0-2.213-.464-3.831-1.379-4.808A3,3,0,0,0,89.3,11.333ZM64.7,28H59.668L54.237,7.333h5.431l2.86,12.926L65.46,7.333h4.707l2.9,12.926,2.86-12.926h5.432L75.925,28H70.964l-3.15-13.964L64.7,28ZM9.953,28H3.39L12.327,0H19l8.584,25.817V7.5H32.87v2.771l.025-.055a4.961,4.961,0,0,1,1.424-1.963,5.816,5.816,0,0,1,3.656-1.227,6.326,6.326,0,0,1,2.064.356,4.878,4.878,0,0,1,3,3.166,6.316,6.316,0,0,1,5.72-3.481A6.126,6.126,0,0,1,53.033,8.69a5.325,5.325,0,0,1,1.619,3.066,31.115,31.115,0,0,1,.262,5.322V28H49.594V18.3c0-3.338-.081-3.97-.615-4.826a2.376,2.376,0,0,0-2.209-1.148,2.781,2.781,0,0,0-2.281,1.187c-.579.989-.579,2.7-.579,4.352V28H38.59V17.671c0-2.2,0-3.2-.542-4.115a2.532,2.532,0,0,0-2.172-1.227,2.873,2.873,0,0,0-1.376.357,2.66,2.66,0,0,0-1.38,2,23.23,23.23,0,0,0-.213,4.253V28H21.71L20,22.051H11.623L9.954,28ZM16.2,6h0l-2.64,10.667h5.424L16.2,6Z" transform="translate(0 0)" fill="#2c2c2c"/>
    </g>
  </g>
</svg>
