<svg xmlns="http://www.w3.org/2000/svg" xmlns:xlink="http://www.w3.org/1999/xlink" width="122" height="120" viewBox="0 0 122 120">
  <defs>
    <clipPath id="clip-path">
      <rect id="Rectangle_4203" data-name="Rectangle 4203" width="122" height="120" transform="translate(1286 568.5)" fill="#f1f2ff"/>
    </clipPath>
  </defs>
  <g id="Group_9091" data-name="Group 9091" transform="translate(-1285 -642.5)">
    <g id="Mask_Group_129" data-name="Mask Group 129" transform="translate(-1 74)" clip-path="url(#clip-path)">
      <g id="Group_9061" data-name="Group 9061" transform="translate(-1517.099 424.251)">
        <g id="Group_9053" data-name="Group 9053" transform="translate(2802.956 167.22)">
          <g id="Group_8760" data-name="Group 8760" transform="translate(33.166 23.885)">
            <g id="Group_8759" data-name="Group 8759">
              <path id="Path_87376" data-name="Path 87376" d="M2980.721,288.522l-2.715,9.259s-12.22,1.349-22.377-1.357c-9.25-2.464-11.246-3.774-11.246-3.774l-7.808-25.555-1.425-4.672s3.246,1.527,6.438,3.336a28.309,28.309,0,0,1,5.344,3.634c2.71,2.693,11.238,13.718,15.309,15.147S2980.721,288.522,2980.721,288.522Z" transform="translate(-2935.151 -262.422)" fill="#f0ded8"/>
            </g>
          </g>
          <g id="Group_8762" data-name="Group 8762" transform="translate(53.906 57.017)">
            <g id="Group_8761" data-name="Group 8761">
              <path id="Path_87377" data-name="Path 87377" d="M3025.476,402.837l-2.136-.455-2.587-.548-1.465-.309-1.468-6.368,2.24-.222,2.536-.25,2.048-.2Z" transform="translate(-3017.82 -394.483)" fill="#ff9169"/>
            </g>
          </g>
          <g id="Group_8764" data-name="Group 8764" transform="translate(58.682 32.129)">
            <g id="Group_8763" data-name="Group 8763">
              <path id="Path_87378" data-name="Path 87378" d="M3064.056,295.284s-4.007,1.791-7.8,9.219c-2.049,4.011-6.312,10.637-6.453,11.063s-3.333.142-4.539,1.7-2.127,1.135-3.971,1.489a22.831,22.831,0,0,0-4.437,1.617s2.1,8.761,2.88,9.387,4.465-.792,6.592-.3,6.028-1.285,9.573-2.238a9.7,9.7,0,0,0,5.248-3.482Z" transform="translate(-3036.855 -295.284)" fill="#292a38"/>
            </g>
          </g>
          <g id="Group_8766" data-name="Group 8766" transform="translate(77.302 32.129)">
            <g id="Group_8765" data-name="Group 8765">
              <path id="Path_87379" data-name="Path 87379" d="M3119.654,295.284a24.479,24.479,0,0,0-4.057,3.886c-1.42,1.757-1.191,30.437-1.758,37.954s-3.829,49.357-2.411,49.782,5.318,0,5.318,0l9.646-71.117Z" transform="translate(-3111.074 -295.284)" fill="#292a38"/>
            </g>
          </g>
          <g id="Group_8768" data-name="Group 8768" transform="translate(94.672 95.102)">
            <g id="Group_8767" data-name="Group 8767">
              <path id="Path_87380" data-name="Path 87380" d="M3187.728,575.644h-7.419l3.065-29.359s9.136,14.64,9.419,16.326S3187.728,575.644,3187.728,575.644Z" transform="translate(-3180.309 -546.285)" fill="#292a38"/>
            </g>
          </g>
          <g id="Group_8770" data-name="Group 8770" transform="translate(31.085 23.884)">
            <g id="Group_8769" data-name="Group 8769">
              <path id="Path_87381" data-name="Path 87381" d="M2928.938,262.421s7.515,4.2,8.986,6.295,3.846,14.275,3.28,23.535,2.33,39.793,2.33,40.289-6.788.5-7.9.6-8.636-35.086-8.775-35.36S2928.938,262.421,2928.938,262.421Z" transform="translate(-2926.856 -262.421)" fill="#f0ded8"/>
            </g>
          </g>
          <g id="Group_8772" data-name="Group 8772" transform="translate(33.166 23.885)">
            <g id="Group_8771" data-name="Group 8771">
              <path id="Path_87382" data-name="Path 87382" d="M2944.078,271.821c0,.213-3.8,0-3.8,0s-1.842-2.349-3.7-4.727l-1.425-4.672s3.246,1.527,6.438,3.336A43.4,43.4,0,0,1,2944.078,271.821Z" transform="translate(-2935.151 -262.422)" fill="#d4b9b0"/>
            </g>
          </g>
          <g id="Group_8774" data-name="Group 8774" transform="translate(9.838 68.74)">
            <g id="Group_8773" data-name="Group 8773">
              <path id="Path_87383" data-name="Path 87383" d="M2855.9,512.423q.048-.388.1-.821c.017-.136.034-.281.051-.426.234-1.936.54-4.459.885-7.31.017-.136.034-.277.051-.417.311-2.591.656-5.438,1.008-8.353.013-.145.034-.289.051-.43.23-1.945.468-3.915.7-5.855.017-.162.038-.323.055-.481.3-2.536.6-5.016.872-7.318q.026-.211.051-.421c.085-.715.166-1.4.247-2.081V478.5c.3-2.587.566-4.842.758-6.553.017-.149.034-.293.047-.43.077-.647.136-1.2.183-1.651a41.41,41.41,0,0,0-.06-6.774c-.008-.136-.017-.276-.025-.417-.208-2.685-.541-5.633-.915-8.459-.017-.141-.039-.281-.056-.417-.425-3.174-.889-6.17-1.264-8.442-.128-.779-.243-1.472-.34-2.059-.225-1.315-.37-2.093-.37-2.093l-.294.06-12.186,2.54s-1.111,5.353-1.97,10.646c-.025.141-.047.281-.068.421-.344,2.162-.647,4.289-.8,6.012q-.019.224-.038.434c-.03.366-.051.71-.064,1.03-.046,1.085-.085,3.8-.123,7.442,0,.14,0,.285,0,.426-.026,2.612-.051,5.672-.073,8.948,0,.141,0,.281,0,.421-.008,1.932-.021,3.932-.034,5.957v.43c-.017,2.766-.03,5.57-.043,8.284v.426c-.009,2.259-.017,4.451-.025,6.51,0,.14,0,.281,0,.421-.008,3.5-.017,6.582-.03,8.9,0,.145,0,.29,0,.43q0,.817,0,1.481Z" transform="translate(-2842.168 -441.209)" fill="#292a38"/>
            </g>
          </g>
          <g id="Group_8776" data-name="Group 8776" transform="translate(25.259 65.693)">
            <g id="Group_8775" data-name="Group 8775">
              <path id="Path_87384" data-name="Path 87384" d="M2903.666,448.043v.026c0,.23,0,.459,0,.681-.013,1.426.081,3.153.247,5.042q.019.211.038.421c.234,2.536.583,5.348.975,8.1.021.145.042.285.064.43.336,2.345.7,4.634,1.034,6.663v.009q.178,1.085.344,2.055c.021.145.047.285.068.421.289,1.668.528,3.029.685,3.915.119.681.345,1.919.634,3.519.026.149.055.3.081.455.294,1.625.651,3.574,1.03,5.672q.045.217.077.434h0c.443,2.434.919,5.042,1.375,7.557h0c.025.145.051.285.076.43.472,2.587.923,5.051,1.294,7.093.03.149.055.294.085.438l.35,1.923h14.2c-.049-.6-.1-1.271-.163-1.991-.013-.149-.026-.3-.034-.447-.2-2.446-.447-5.412-.689-8.361-.013-.145-.026-.285-.034-.43-.243-2.94-.481-5.833-.668-8.148-.017-.14-.026-.281-.039-.417-.136-1.659-.247-2.978-.315-3.748-.013-.17-.026-.315-.038-.43v-.021c-.17-1.949-.566-5.68-1.051-9.935-.017-.149-.034-.3-.051-.447-.251-2.225-.524-4.578-.8-6.884-.017-.145-.034-.285-.051-.43-.366-3.064-.732-6.025-1.051-8.463-.017-.149-.038-.3-.055-.443-.289-2.187-.532-3.914-.7-4.859-.208-1.2-.451-2.834-.685-4.574h0c-.017-.136-.038-.276-.055-.417-.613-4.506-1.192-9.544-1.192-9.544s-1.629-.5-3.8-1.153c-.111-.03-.221-.064-.336-.1-4.174-1.259-10.063-3.013-10.471-3.021-.2,0-.306,1.213-.362,3.106-.089,3.144-.03,8.178-.017,12.624C2903.67,445.933,2903.67,447.026,2903.666,448.043Z" transform="translate(-2903.634 -429.066)" fill="#292a38"/>
            </g>
          </g>
          <g id="Group_8778" data-name="Group 8778" transform="translate(8.317 68.663)">
            <g id="Group_8777" data-name="Group 8777">
              <path id="Path_87385" data-name="Path 87385" d="M2836.252,460.522c.592.2,1.187.391,1.783.57a48.376,48.376,0,0,0,5.523,1.294c-.391,3-.608,6.008-.728,9.025a6.423,6.423,0,0,1-.945-.4,16.4,16.4,0,0,0-2.051-.97,11.362,11.362,0,0,0-1.987-.481c0,.14,0,.285,0,.426a10.272,10.272,0,0,1,2.54.728c.877.391,1.625.834,2.426,1.11-.094,2.562-.124,5.127-.128,7.693a.074.074,0,0,0-.03,0q-2.438-.287-4.88-.579c0,.141,0,.281,0,.421,1.489.179,2.979.353,4.468.532.149.017.3.038.447.055,0,1.447,0,2.9,0,4.349,0,.506,0,1.013.009,1.519-1.66-.157-3.311-.268-4.961-.5v.43c.876.132,1.757.238,2.638.328.779.077,1.557.106,2.323.174.017,2.723.047,5.446.025,8.165a26.662,26.662,0,0,1-5.029-.383v.425a29.181,29.181,0,0,0,5.025.383c0,.46,0,.915-.012,1.374a20.116,20.116,0,0,1-.983,5.268,13.476,13.476,0,0,0-3.251-.506c-.264-.009-.536-.009-.8-.009,0,.141,0,.281,0,.421a15.047,15.047,0,0,1,3.238.289c.238.051.477.119.71.187-.025.081-.047.166-.072.251a28.786,28.786,0,0,0-.855,5.459c-.1,1.174-.192,2.349-.285,3.523-.383-.094-.757-.213-1.128-.328-.549-.175-1.094-.353-1.638-.485,0,.145,0,.29,0,.43.911.238,1.808.6,2.728.817-.018.221-.035.442-.052.664h.431c.016-.194.031-.389.047-.583a11.513,11.513,0,0,0,4.034-.345c.255-.042.515-.077.774-.1l-.084,1.025h.424c.029-.35.058-.7.086-1.051,1.566-.072,3.132.162,4.7.217.251.009.5.013.745.013.017-.136.034-.281.051-.426-.268,0-.528,0-.8-.013-1.553-.055-3.106-.285-4.659-.217q.23-2.847.464-5.7c.038-.451.077-.9.111-1.357a9.587,9.587,0,0,0,2.792.438,13.05,13.05,0,0,0,2.974-.464c.017-.136.034-.277.051-.417a13.6,13.6,0,0,1-3.025.455,9.319,9.319,0,0,1-2.757-.451c.217-2.765.417-5.536.676-8.3q3.057.013,6.114-.059c.013-.145.034-.289.052-.43-2.042.047-4.085.072-6.127.064.166-1.736.357-3.464.6-5.187.055-.425.127-.842.2-1.264a11.354,11.354,0,0,0,1.553.264c1.481.149,2.983.221,4.485.268.017-.162.038-.323.055-.481a37.046,37.046,0,0,1-5.378-.323c-.221-.038-.434-.089-.647-.145.34-2,.779-3.983,1.208-5.974.077-.341.141-.677.2-1.013,1.3.094,2.6.153,3.9.162q.8.006,1.6-.026c.017-.141.034-.281.052-.421-.268.009-.536.013-.809.017-1.562.017-3.115-.043-4.668-.153a35.291,35.291,0,0,0,.353-5.974c-.012-.945,0-1.876.043-2.8.191,0,.383-.008.574-.008,1.247.017,2.485.089,3.719.166.6.038,1.2.076,1.791.111a45.707,45.707,0,0,0,4.834.089c.051.34.1.681.154,1.025a44.248,44.248,0,0,1,.48,6.872,53.378,53.378,0,0,1-5.88.63c.021.145.047.285.068.421a56.408,56.408,0,0,0,5.8-.617c-.009.217-.013.434-.026.651a25.253,25.253,0,0,0-.064,3.719,21.893,21.893,0,0,0,.719,3.378c.038.153.076.306.11.455-1.74-.038-3.48-.094-5.221-.153.026.149.055.3.081.455.838.017,1.677.034,2.51.06.911.025,1.821.051,2.732.072a35.638,35.638,0,0,1,.694,5.37c-1.634.1-3.276.136-4.906.17q.045.217.077.434h0c1.617-.034,3.238-.068,4.855-.166.021.379.047.753.064,1.136.115,2.136.268,4.268.443,6.4-.655.038-1.311.085-1.966.115-.672.03-1.344.051-2.017.068.025.145.051.285.077.43,1.315-.051,2.625-.115,3.94-.2.03.37.056.736.09,1.106.17,1.923.375,3.842.6,5.761-1.11.115-2.225.259-3.331.421.03.149.055.294.085.438,1.1-.158,2.2-.3,3.3-.417.09.78.187,1.56.285,2.34h.423q-.151-1.191-.292-2.383a43.446,43.446,0,0,1,5.557-.23q.094,1.306.192,2.612h.425q-.1-1.3-.191-2.6a26.248,26.248,0,0,1,4.693.6c-.012-.149-.025-.3-.034-.447a26.984,26.984,0,0,0-4.693-.6q-.262-3.587-.528-7.174,2.273-.255,4.531-.591c-.013-.145-.025-.285-.034-.43-1.506.221-3.017.421-4.527.591l-.583-7.884a37.7,37.7,0,0,1,4.442-.855c-.017-.14-.025-.281-.038-.417a40.723,40.723,0,0,0-4.433.847c-.06-.8-.115-1.587-.175-2.378-.051-.689-.1-1.374-.153-2.064.341,0,.681,0,1.021-.013,1.141-.03,2.285-.073,3.426-.141-.013-.17-.025-.315-.038-.43-1.481.081-2.957.132-4.438.158q-.351-4.761-.7-9.523c.247-.047.489-.1.736-.145a18.248,18.248,0,0,1,3.353-.447q-.026-.223-.051-.447a17.435,17.435,0,0,0-4.076.54c-.1-1.34-.2-2.685-.294-4.025q-.121-1.653-.234-3.306a24.146,24.146,0,0,1,3.8-.094c-.017-.145-.034-.285-.051-.43a26.109,26.109,0,0,0-3.783.106c-.208-2.979-.412-5.957-.694-8.927,1.145.06,2.285.192,3.425.357-.017-.149-.038-.3-.055-.443-1.136-.17-2.272-.306-3.417-.366-.081-.868-.17-1.732-.268-2.6-.23-2.017-.519-4.034-.9-6.029,1.068-.145,2.132-.294,3.2-.438-.017-.136-.038-.276-.055-.417-1.076.149-2.149.293-3.225.443q-.2-1.009-.434-2c-.71-3-1.715-5.961-1.332-9.08a.082.082,0,0,0,0-.055c-.017-.158-.217-.192-.336-.1a.23.23,0,0,0-.085.153,19.992,19.992,0,0,0,.9,7.421q.479,1.851.855,3.723-3.089.422-6.187.821c-.047-.978-.106-1.961-.2-2.936-.285-2.94-.783-5.855-1.276-8.765-.043-.268-.455-.158-.408.111.476,2.808.953,5.612,1.238,8.446.111,1.064.175,2.132.226,3.2q-1.813.23-3.625.447c-.1.013-.2.021-.3.034-.528.06-1.051.119-1.579.175.319-2.872.489-5.761.613-8.65.043-.962.077-1.923.115-2.885.009-.272-.417-.272-.426,0s-.021.549-.03.825c-.14,3.532-.289,7.076-.681,10.591,0,.055-.013.111-.017.166a78.29,78.29,0,0,1-14.122.4c-.1,0-.2-.013-.3-.021-.272-.021-.272.4,0,.425.076,0,.153.013.23.017a78.115,78.115,0,0,0,14.139-.387c-.14,1.2-.306,2.391-.515,3.583-.285,1.634-.7,3.238-1.127,4.838a47.675,47.675,0,0,1-7.339-.647c.059-.443.123-.889.191-1.332.042-.268-.366-.383-.409-.111-.072.455-.136.915-.2,1.374a48.668,48.668,0,0,1-5.54-1.306c-.575-.17-1.141-.353-1.707-.545C2836.107,460.023,2836,460.436,2836.252,460.522Zm9.374,50.22c-.175.013-.353.03-.528.051-.974.132-1.911.485-2.894.528a5.61,5.61,0,0,1-1.387-.128c.042-.583.089-1.17.136-1.753a43.713,43.713,0,0,1,.744-6.237c.094-.408.2-.813.323-1.217,1.413.451,2.787,1.094,4.2,1.549Zm.63-7.646c-.86-.285-1.7-.63-2.54-.949-.528-.2-1.051-.387-1.574-.545a20.739,20.739,0,0,0,.868-3.429,27.064,27.064,0,0,0,.149-3.323c1.251.043,2.506.064,3.761.072C2846.668,497.646,2846.477,500.373,2846.255,503.1Zm1.485-15.118c-.332,2.162-.575,4.34-.783,6.518-1.268-.008-2.536-.03-3.8-.072-.008-.7-.025-1.387-.025-2.076l-.012-5.991v-.068a6.972,6.972,0,0,1,2.782.846,8.041,8.041,0,0,0,1.851.8C2847.745,487.953,2847.745,487.966,2847.74,487.978Zm.076-.468a9.878,9.878,0,0,1-1.859-.834,5.378,5.378,0,0,0-2.187-.762c-.222-.026-.439-.043-.655-.064,0-1.953-.017-3.906-.013-5.859,2.038.243,4.076.472,6.123.63C2848.791,482.923,2848.2,485.2,2847.817,487.51Zm1.808-15.322a49.308,49.308,0,0,1-.323,8.008c-2.068-.153-4.136-.383-6.2-.63,0-1.68.017-3.361.047-5.046q.026-1.283.073-2.57a4.444,4.444,0,0,0,1.685.123c1.612-.187,3.14-.506,4.74-.6C2849.638,471.712,2849.625,471.95,2849.625,472.188Zm20.487,32.665c.106,1.43.209,2.864.315,4.293a43.8,43.8,0,0,0-5.578.225q-.255-2.234-.472-4.476c-.072-.792-.136-1.583-.2-2.379,1.91-.119,3.821-.276,5.727-.485C2869.972,502.973,2870.044,503.913,2870.112,504.853Zm-.238-3.255c-.532.059-1.06.123-1.587.174-1.379.136-2.761.238-4.148.328-.145-1.779-.277-3.557-.379-5.336-.042-.736-.077-1.472-.115-2.208,1.226-.085,2.447-.2,3.651-.4.659-.106,1.327-.247,2-.4Q2869.583,497.684,2869.874,501.6Zm-.608-8.259c-.208.047-.413.09-.617.132a36.634,36.634,0,0,1-5.025.651,33.15,33.15,0,0,0-.494-4.493c-.055-.285-.119-.566-.187-.847q2.993.064,5.987.03Q2869.1,491.071,2869.266,493.339Zm-.366-4.957c-2.021.03-4.046.013-6.068-.03-.174-.681-.366-1.357-.527-2.042a14.9,14.9,0,0,1-.332-4.28c.034-.651.059-1.306.073-1.953.706-.115,1.417-.234,2.123-.366,1.349-.247,2.689-.511,4.033-.775Q2868.553,483.66,2868.9,488.383Zm-1.191-16.169q.23,3.121.459,6.238c-.732.17-1.443.34-2.115.472-1.332.255-2.668.5-4,.719a41.405,41.405,0,0,0-.251-5.272c-.1-.864-.221-1.728-.353-2.587.4-.025.792-.055,1.187-.1,1.659-.183,3.327-.447,4.995-.617C2867.653,471.452,2867.678,471.831,2867.708,472.214Zm-.11-1.562c-1.523.153-3.047.383-4.57.562-.549.064-1.1.106-1.646.136-.464-3-1.047-5.982-1.417-8.995,1-.166,2.008-.336,3.026-.489a20.966,20.966,0,0,1,3.923-.2C2867.189,464.653,2867.385,467.657,2867.6,470.652Zm-1.915-17.99c.235,1.2.443,2.4.613,3.613.23,1.642.413,3.289.574,4.94a20.187,20.187,0,0,0-2.732.077c-1.421.145-2.825.383-4.225.621-.115-.974-.208-1.953-.264-2.936-.1-1.825-.132-3.659-.213-5.485Q2862.564,453.09,2865.683,452.663Zm-12.956,6.28c.132-.664.247-1.345.353-2.008v-.026c.141-.9.26-1.791.362-2.693.66-.073,1.323-.149,1.979-.226.021,0,.038,0,.06-.009,1.178-.141,2.357-.29,3.531-.438.06,1.4.1,2.8.157,4.2.055,1.421.187,2.829.353,4.229-1.06.179-2.119.353-3.187.472-.477.055-.949.1-1.43.132q-.791.051-1.583.077c-.5.013-1,.021-1.493.021C2852.165,461.445,2852.485,460.207,2852.727,458.943Zm-1.012,4.161q.823.006,1.646-.026c.255,0,.51-.017.766-.03.749-.038,1.494-.1,2.234-.183,1.076-.119,2.148-.281,3.217-.451.375,3,.919,5.966,1.379,8.957-1.579.064-3.149,0-4.719-.081-.63-.034-1.268-.076-1.9-.111-1.081-.068-2.161-.128-3.255-.153-.323-.009-.638,0-.953,0a24.732,24.732,0,0,1,.74-4.842C2851.14,465.159,2851.429,464.134,2851.714,463.1Zm-7.74-.643a48.537,48.537,0,0,0,7.284.638,41.515,41.515,0,0,0-1.587,7.944,31.357,31.357,0,0,0-4.089.494,5.637,5.637,0,0,1-2.345-.013C2843.358,468.5,2843.579,465.466,2843.974,462.462Z" transform="translate(-2836.107 -440.901)" fill="#41414f"/>
            </g>
          </g>
          <g id="Group_8849" data-name="Group 8849" transform="translate(13.951 0)">
            <g id="Group_8780" data-name="Group 8780" transform="translate(8.412)">
              <g id="Group_8779" data-name="Group 8779">
                <path id="Path_87386" data-name="Path 87386" d="M2907.438,168.618a1.2,1.2,0,0,0-.6-.149,3.4,3.4,0,0,1-1.75-.479,3.745,3.745,0,0,0-2.154-.766,3.568,3.568,0,0,0-1.01.253,3.429,3.429,0,0,1-1.6.161,4.2,4.2,0,0,0-2.56.791,7.356,7.356,0,0,0-.8.577,3.9,3.9,0,0,0-2.708.49,1.844,1.844,0,0,0-.647.905,6.353,6.353,0,0,1-.462,1.337c-.154.257-.36.48-.522.732a4.088,4.088,0,0,0,.765,4.99c.008.066.012.129.021.2.322,2.551,4.306,2.064,6.508,1.689a13.412,13.412,0,0,0,4.639-2.107c1.159-.7,2.748-1.354,3.118-2.765.1,0,.341-.8.344-.931.005-.2.007-.381,0-.548C2908.361,171.666,2908.743,169.446,2907.438,168.618Z" transform="translate(-2892.091 -167.22)" fill="#f2cea2"/>
              </g>
            </g>
            <g id="Group_8783" data-name="Group 8783" transform="translate(10.591 15.052)">
              <g id="Group_8782" data-name="Group 8782">
                <g id="Group_8781" data-name="Group 8781">
                  <path id="Path_87387" data-name="Path 87387" d="M2910.422,231.448l-.229,1.611-.327,2.3-.033.245v.005l-.462,3.281-.066.45s-1.025,2.408-3.378,2.381-5.152-3.251-5.152-3.251l.431-2.946v-.005l.2-1.381,1.012-6.923Z" transform="translate(-2900.775 -227.215)" fill="#ff9169"/>
                </g>
              </g>
            </g>
            <g id="Group_8785" data-name="Group 8785" transform="translate(0 21.974)">
              <g id="Group_8784" data-name="Group 8784">
                <path id="Path_87388" data-name="Path 87388" d="M2884.891,302.8a32.938,32.938,0,0,1-9.8,1.689c-10.961.515-16.531.387-16.531.387s6.357-13.437,6.438-16.973-.221-29.248-.26-29.759,3.872-1.957,3.872-1.957l1.175-1.379a62.038,62.038,0,0,0,5.587,2.71,11.862,11.862,0,0,0,2.774-.8l1.362,1.608s2.893,2.629,3.578,4.225a20.9,20.9,0,0,1,1.021,4.859c.017.14.033.281.051.425.042.358.081.723.124,1.1.013.14.025.285.038.426.174,1.8.3,3.74.379,5.591.008.179.017.362.025.54.106,2.664.115,5.106.03,6.659C2884.389,288.833,2884.891,302.8,2884.891,302.8Z" transform="translate(-2858.562 -254.807)" fill="#7a3f3a"/>
              </g>
            </g>
            <g id="Group_8792" data-name="Group 8792" transform="translate(21.759 34.577)">
              <g id="Group_8788" data-name="Group 8788">
                <g id="Group_8787" data-name="Group 8787">
                  <g id="Group_8786" data-name="Group 8786">
                    <path id="Path_87389" data-name="Path 87389" d="M2949.7,313.121l-.4.34a.211.211,0,0,1-.141.051.225.225,0,0,1-.1-.026c-.511-.285-3.068-1.753-3.26-2.553-.115-.489-.285-2.612-.391-4.115a.133.133,0,0,1,0-.042c-.06-.817-.1-1.443-.106-1.511a.215.215,0,0,1,.06-.162.2.2,0,0,1,.153-.064h3.574c.017.141.034.281.051.426h-3.4c.017.234.042.625.077,1.1.013.136.021.281.034.426.106,1.472.264,3.408.366,3.846s1.732,1.528,2.923,2.208l.54-.464C2949.678,312.759,2949.687,312.942,2949.7,313.121Z" transform="translate(-2945.291 -305.041)" fill="#4d221e"/>
                  </g>
                </g>
              </g>
              <g id="Group_8791" data-name="Group 8791" transform="translate(0.107 1.523)">
                <g id="Group_8790" data-name="Group 8790">
                  <g id="Group_8789" data-name="Group 8789">
                    <path id="Path_87390" data-name="Path 87390" d="M2949.61,311.538h-3.681a.214.214,0,0,1-.208-.17.126.126,0,0,1,0-.042.211.211,0,0,1,.213-.213h3.642Z" transform="translate(-2945.717 -311.113)" fill="#4d221e"/>
                  </g>
                </g>
              </g>
            </g>
            <g id="Group_8794" data-name="Group 8794" transform="translate(16.652 25.002)">
              <g id="Group_8793" data-name="Group 8793">
                <path id="Path_87391" data-name="Path 87391" d="M2925.257,313.23a.213.213,0,0,1-.151-.364,2.434,2.434,0,0,0,.6-1.671c-.065-2.67-.26-9.379-.663-14.055a107.742,107.742,0,0,1,.318-13.063c.173-2.838.335-5.519.345-7.451a68.134,68.134,0,0,0-.661-9.5.213.213,0,0,1,.421-.065,68.556,68.556,0,0,1,.666,9.572c-.01,1.944-.172,4.63-.345,7.474a107.637,107.637,0,0,0-.319,13c.4,4.688.6,11.407.665,14.078a2.825,2.825,0,0,1-.727,1.987A.211.211,0,0,1,2925.257,313.23Z" transform="translate(-2924.936 -266.877)" fill="#4d221e"/>
              </g>
            </g>
            <g id="Group_8797" data-name="Group 8797" transform="translate(11.542 4.333)">
              <g id="Group_8796" data-name="Group 8796">
                <g id="Group_8795" data-name="Group 8795">
                  <path id="Path_87392" data-name="Path 87392" d="M2917.382,190.565c0,.132-.01.255-.013.387l-.007.323a44.475,44.475,0,0,1-.5,6.077,13.035,13.035,0,0,1-.317,1.4,5.24,5.24,0,0,1-.451,1.142,4.117,4.117,0,0,1-3.21,2.24h0a7.527,7.527,0,0,1-3.724-.748,6.761,6.761,0,0,1-2.537-1.9,8.243,8.243,0,0,1-1.54-2.96.054.054,0,0,1-.008-.026,12.423,12.423,0,0,1-.491-3.094c-.008-.217-.015-.438-.015-.668a7.206,7.206,0,0,1,.248-1.916,8,8,0,0,1,3.139-4.363.146.146,0,0,1,.031-.025.193.193,0,0,1,.03-.016,10.816,10.816,0,0,1,2.959-1.51,8.622,8.622,0,0,1,1.151-.31,5.725,5.725,0,0,1,5.233,1.884l0,0s.051,1.319.03,3.151c0,.119,0,.242,0,.366v.051c0,.072,0,.149,0,.221C2917.387,190.365,2917.384,190.463,2917.382,190.565Z" transform="translate(-2904.566 -184.49)" fill="#ff9169"/>
                </g>
              </g>
            </g>
            <g id="Group_8799" data-name="Group 8799" transform="translate(15.524 15.972)">
              <g id="Group_8798" data-name="Group 8798">
                <path id="Path_87393" data-name="Path 87393" d="M2925.177,231.245a.678.678,0,0,0-.454-.293,4.1,4.1,0,0,0-1.641.031,9.179,9.179,0,0,0-2.18.584.822.822,0,0,0-.289,1.236c.38.54.66.3,1.042-.022a11.374,11.374,0,0,1,1.364-.983s2.075.629,2.268.352A3.58,3.58,0,0,0,2925.177,231.245Z" transform="translate(-2920.44 -230.881)" fill="#f2cea2"/>
              </g>
            </g>
            <g id="Group_8801" data-name="Group 8801" transform="translate(19.511 16.003)">
              <g id="Group_8800" data-name="Group 8800">
                <path id="Path_87394" data-name="Path 87394" d="M2940.08,231.793a4.781,4.781,0,0,0-1.7-.681,17.615,17.615,0,0,0-1.953-.1c-.29.006.224.043.056.316a3.7,3.7,0,0,0-.148.9c.181.289,2.133-.138,2.133-.138a8.923,8.923,0,0,1,1.5,1.288c.124.164.245.235.373.221a13.1,13.1,0,0,0,.317-1.4A5.8,5.8,0,0,0,2940.08,231.793Z" transform="translate(-2936.33 -231.008)" fill="#f2cea2"/>
              </g>
            </g>
            <g id="Group_8804" data-name="Group 8804" transform="translate(22.077 12.144)">
              <g id="Group_8803" data-name="Group 8803">
                <g id="Group_8802" data-name="Group 8802">
                  <path id="Path_87395" data-name="Path 87395" d="M2947.4,215.964a.484.484,0,0,0-.374-.335.379.379,0,0,0-.4.322c-.092.338-.125.908.171,1.155C2947.306,217.533,2947.618,216.523,2947.4,215.964Z" transform="translate(-2946.559 -215.625)" fill="#292a38"/>
                </g>
              </g>
            </g>
            <g id="Group_8807" data-name="Group 8807" transform="translate(17.705 12.044)">
              <g id="Group_8806" data-name="Group 8806">
                <g id="Group_8805" data-name="Group 8805">
                  <path id="Path_87396" data-name="Path 87396" d="M2930.041,215.564a.5.5,0,0,0-.4-.333.411.411,0,0,0-.435.326c-.1.339-.141.91.175,1.155C2929.927,217.136,2930.27,216.123,2930.041,215.564Z" transform="translate(-2929.133 -215.228)" fill="#292a38"/>
                </g>
              </g>
            </g>
            <g id="Group_8810" data-name="Group 8810" transform="translate(10.934 3.159)">
              <g id="Group_8809" data-name="Group 8809">
                <g id="Group_8808" data-name="Group 8808">
                  <path id="Path_87397" data-name="Path 87397" d="M2915.546,182.976s-7.432-.3-8.3-.036-1.3,1.6-1.649,3.216-.125,1.305-.809,1.983-1.564,5.081-1.564,5.081a10.227,10.227,0,0,1-1.078-2.128,34.1,34.1,0,0,1,.73-5.44,5.232,5.232,0,0,1,2.794-3.825c1.284-.519,5.6-1.965,5.735-2.013a12.176,12.176,0,0,1,2.82,1.146C2914.477,181.235,2915.546,182.976,2915.546,182.976Z" transform="translate(-2902.143 -179.813)" fill="#f2cea2"/>
                </g>
              </g>
            </g>
            <g id="Group_8813" data-name="Group 8813" transform="translate(9.735 3.051)">
              <g id="Group_8812" data-name="Group 8812">
                <g id="Group_8811" data-name="Group 8811">
                  <path id="Path_87398" data-name="Path 87398" d="M2898.684,191.149a9.431,9.431,0,0,1-1.316-4.89c.089-2.708.4-4.3,3.557-5.826a13.217,13.217,0,0,1,6.9-.942s-1.505,1.419-1.8,1.422a31.443,31.443,0,0,0-3.429,1.686c-.237.145-2.321,3.558-2.321,3.558Z" transform="translate(-2897.364 -179.381)" fill="#f2cea2"/>
                </g>
              </g>
            </g>
            <g id="Group_8815" data-name="Group 8815" transform="translate(20.147 12.147)">
              <g id="Group_8814" data-name="Group 8814">
                <path id="Path_87399" data-name="Path 87399" d="M2939.956,217.088c-.161-.43-.3-.867-.435-1.306-.075-.25-.472-.153-.4.1.165.55.349,1.093.559,1.628.115.294.333.957.045,1.283a2.873,2.873,0,0,1-.756.365c-.236.114-.038.471.2.357.44-.212,1.25-.408,1.2-1.022A7.738,7.738,0,0,0,2939.956,217.088Z" transform="translate(-2938.865 -215.635)" fill="#e06234"/>
              </g>
            </g>
            <g id="Group_8817" data-name="Group 8817" transform="translate(15.929 9.92)">
              <g id="Group_8816" data-name="Group 8816">
                <path id="Path_87400" data-name="Path 87400" d="M2922.734,207.793c.8-.05,1.612.162,2.4.033a.878.878,0,0,0,.42-.16.377.377,0,0,0,.138-.4c-.2-.546-1.448-.5-1.907-.5a2.818,2.818,0,0,0-1.432.327.7.7,0,0,0-.251.24C2921.866,207.758,2922.5,207.808,2922.734,207.793Z" transform="translate(-2922.053 -206.761)" fill="#f2cea2"/>
              </g>
            </g>
            <g id="Group_8819" data-name="Group 8819" transform="translate(21.975 10.043)">
              <g id="Group_8818" data-name="Group 8818">
                <path id="Path_87401" data-name="Path 87401" d="M2948.535,207.615c0,.132-.01.255-.013.387l-.007.323a8.6,8.6,0,0,1-1.81-.05.906.906,0,0,1-.413-.179.381.381,0,0,1-.118-.411c.225-.535,1.468-.434,1.927-.411a3.828,3.828,0,0,1,.437.044C2948.54,207.415,2948.538,207.513,2948.535,207.615Z" transform="translate(-2946.152 -207.251)" fill="#f2cea2"/>
              </g>
            </g>
            <g id="Group_8821" data-name="Group 8821" transform="translate(13.613 9.145)">
              <g id="Group_8820" data-name="Group 8820">
                <path id="Path_87402" data-name="Path 87402" d="M2913.593,204.027s.843,5.277,1.182,6.631A4.211,4.211,0,0,0,2917,213.1c1.05.648,2.3.451,3.216.578s2.687-1.225,2.687-1.225a18.965,18.965,0,0,1-.849,3.977,4.439,4.439,0,0,1-3.338,1.306c-2.545-.049-3.857-.952-4.318-1.746a15.186,15.186,0,0,1-1.143-4.644c-.011-1.077-.131-5.852-.131-5.852l-.3-1.825Z" transform="translate(-2912.821 -203.67)" fill="#f2cea2"/>
              </g>
            </g>
            <g id="Group_8825" data-name="Group 8825" transform="translate(18.103 16.887)">
              <g id="Group_8824" data-name="Group 8824">
                <g id="Group_8823" data-name="Group 8823">
                  <g id="Group_8822" data-name="Group 8822">
                    <path id="Path_87403" data-name="Path 87403" d="M2934.267,234.721a1.425,1.425,0,0,1-1.531.991,2.041,2.041,0,0,1-2.019-1.182l.412.032c.335.025.876.068,1.639.125.634.046,1.115.046,1.345.039C2934.215,234.726,2934.267,234.721,2934.267,234.721Z" transform="translate(-2930.718 -234.53)" fill="#fff"/>
                  </g>
                </g>
              </g>
            </g>
            <g id="Group_8827" data-name="Group 8827" transform="translate(16.932 11.128)">
              <g id="Group_8826" data-name="Group 8826">
                <path id="Path_87404" data-name="Path 87404" d="M2927.591,214.91h-.032a1.554,1.554,0,1,1,.032,0Zm.011-3.035a1.258,1.258,0,1,0,.026,0Z" transform="translate(-2926.053 -211.577)" fill="#fff"/>
              </g>
            </g>
            <g id="Group_8829" data-name="Group 8829" transform="translate(21.303 11.228)">
              <g id="Group_8828" data-name="Group 8828">
                <path id="Path_87405" data-name="Path 87405" d="M2945.013,215.307h-.033a1.611,1.611,0,0,1-1.5-1.7,1.727,1.727,0,0,1,.474-1.163,1.464,1.464,0,0,1,2.19.05,1.729,1.729,0,0,1,.421,1.184A1.613,1.613,0,0,1,2945.013,215.307Zm.01-3.035a1.184,1.184,0,0,0-.858.377,1.426,1.426,0,0,0-.391.964,1.25,1.25,0,1,0,2.489.057,1.431,1.431,0,0,0-.346-.981,1.184,1.184,0,0,0-.867-.416Z" transform="translate(-2943.475 -211.974)" fill="#fff"/>
              </g>
            </g>
            <g id="Group_8831" data-name="Group 8831" transform="translate(19.865 12.678)">
              <g id="Group_8830" data-name="Group 8830" transform="translate(0 0)">
                <rect id="Rectangle_4204" data-name="Rectangle 4204" width="0.298" height="1.585" transform="translate(0 0.298) rotate(-88.692)" fill="#fff"/>
              </g>
            </g>
            <g id="Group_8833" data-name="Group 8833" transform="translate(13.532 10.918)">
              <g id="Group_8832" data-name="Group 8832">
                <path id="Path_87406" data-name="Path 87406" d="M2916.053,212.559a.146.146,0,0,1-.061-.013l-3.4-1.524a.149.149,0,1,1,.122-.272l3.4,1.524a.149.149,0,0,1-.061.285Z" transform="translate(-2912.499 -210.737)" fill="#fff"/>
              </g>
            </g>
            <g id="Group_8835" data-name="Group 8835" transform="translate(11.533 10.513)">
              <g id="Group_8834" data-name="Group 8834">
                <path id="Path_87407" data-name="Path 87407" d="M2905.479,209.3c-1.236.6-1.126,3.184-.459,4.477a5.921,5.921,0,0,0,1.42,1.674l.644-5.45A1.033,1.033,0,0,0,2905.479,209.3Z" transform="translate(-2904.529 -209.126)" fill="#ff9169"/>
              </g>
            </g>
            <g id="Group_8838" data-name="Group 8838" transform="translate(12.835 12.35)">
              <g id="Group_8837" data-name="Group 8837">
                <g id="Group_8836" data-name="Group 8836">
                  <path id="Path_87408" data-name="Path 87408" d="M2910.038,216.525a1.617,1.617,0,0,0,.024,1.95c.157.165.4-.088.248-.253a1.283,1.283,0,0,1,.035-1.522C2910.472,216.511,2910.164,216.337,2910.038,216.525Z" transform="translate(-2909.723 -216.444)" fill="#e06234"/>
                </g>
              </g>
            </g>
            <g id="Group_8840" data-name="Group 8840" transform="translate(11.982 6.031)">
              <g id="Group_8839" data-name="Group 8839">
                <path id="Path_87409" data-name="Path 87409" d="M2909.077,191.4a7.9,7.9,0,0,1-.777,1.932,3.79,3.79,0,0,1-1.87,1.446c-.24.1-.041.461.2.357a4.14,4.14,0,0,0,1.906-1.413,7.755,7.755,0,0,0,.935-2.2A.2.2,0,0,0,2909.077,191.4Z" transform="translate(-2906.321 -191.261)" fill="#e0b682"/>
              </g>
            </g>
            <g id="Group_8842" data-name="Group 8842" transform="translate(10.673 7.962)">
              <g id="Group_8841" data-name="Group 8841">
                <path id="Path_87410" data-name="Path 87410" d="M2903.223,199.041a3.673,3.673,0,0,1-1.975,1.364c-.252.071-.154.468.1.4a4.121,4.121,0,0,0,2.223-1.546C2903.727,199.043,2903.378,198.831,2903.223,199.041Z" transform="translate(-2901.102 -198.955)" fill="#e0b682"/>
              </g>
            </g>
            <g id="Group_8844" data-name="Group 8844" transform="translate(12.549 2.803)">
              <g id="Group_8843" data-name="Group 8843">
                <path id="Path_87411" data-name="Path 87411" d="M2911.888,180.806a3,3,0,0,1-.887-.779c-.247-.342-.241-.775-.518-1.094a2.172,2.172,0,0,0-1.7-.54.2.2,0,0,0-.01.408,2.4,2.4,0,0,1,1.147.2c.408.23.41.677.6,1.048a3.063,3.063,0,0,0,1.147,1.109C2911.9,181.284,2912.115,180.937,2911.888,180.806Z" transform="translate(-2908.582 -178.393)" fill="#e0b682"/>
              </g>
            </g>
            <g id="Group_8846" data-name="Group 8846" transform="translate(21.402 2.38)">
              <g id="Group_8845" data-name="Group 8845">
                <path id="Path_87412" data-name="Path 87412" d="M2946.078,176.848c-.286,1.154-.778,2.422-2.06,2.726a.2.2,0,0,0,.1.4c1.427-.338,2.03-1.7,2.352-3C2946.532,176.711,2946.142,176.592,2946.078,176.848Z" transform="translate(-2943.87 -176.705)" fill="#e0b682"/>
              </g>
            </g>
            <g id="Group_8848" data-name="Group 8848" transform="translate(19.026 4.198)">
              <g id="Group_8847" data-name="Group 8847">
                <path id="Path_87413" data-name="Path 87413" d="M2936.806,184a4.876,4.876,0,0,1-2.257,1.217c-.259.04-.159.436.1.4a5.292,5.292,0,0,0,2.439-1.318C2937.293,184.13,2937.009,183.836,2936.806,184Z" transform="translate(-2934.398 -183.952)" fill="#e0b682"/>
              </g>
            </g>
          </g>
          <g id="Group_8851" data-name="Group 8851" transform="translate(4.716 23.616)">
            <g id="Group_8850" data-name="Group 8850">
              <path id="Path_87414" data-name="Path 87414" d="M2840.36,261.353s-.14,3.655-.336,8.893c-.366,10.135-.924,26.189-.991,33.133,0,.255,0,.511-.009.774-.009.74-.021,1.506-.034,2.294-.183,10.518-.783,24.831-1.132,25.21-.387.417-1.915-.894-5.217-.642s-10.518-.668-10.85-1.025c-.183-.2.289-10.331.762-19.943.2-3.931.387-7.778.541-10.82.145-2.987.251-5.2.268-5.953.081-3.421,2.187-24.9,2.677-26.312.357-1.038,7.991-3.6,11.965-4.872C2839.411,261.643,2840.36,261.353,2840.36,261.353Z" transform="translate(-2821.751 -261.353)" fill="#f0ded8"/>
            </g>
          </g>
          <g id="Group_8853" data-name="Group 8853" transform="translate(5.518 61.48)">
            <g id="Group_8852" data-name="Group 8852">
              <path id="Path_87415" data-name="Path 87415" d="M2843.048,418.95s-.646.23-1.664.553c-2.511.8-7.259,2.208-10.038,2.259-3.885.068-2.676.362-6.4,1.34.2-3.931.387-7.778.541-10.82a19.329,19.329,0,0,1,6.071.647c2.532.877,8.212,3.51,9.858,4.28.293.14.46.217.46.217Z" transform="translate(-2824.948 -412.273)" fill="#d4b9b0"/>
            </g>
          </g>
          <g id="Group_8855" data-name="Group 8855" transform="translate(19.214 23.616)">
            <g id="Group_8854" data-name="Group 8854">
              <path id="Path_87416" data-name="Path 87416" d="M2883.65,261.353s-.141,3.655-.336,8.893c-1.532-.166-3.663-.391-3.765-.379-.128.013,1.162-5.369,1.745-7.778C2882.7,261.643,2883.65,261.353,2883.65,261.353Z" transform="translate(-2879.54 -261.353)" fill="#d4b9b0"/>
            </g>
          </g>
          <g id="Group_8890" data-name="Group 8890" transform="translate(22.903 56.608)">
            <g id="Group_8857" data-name="Group 8857" transform="translate(25.026 0.058)">
              <g id="Group_8856" data-name="Group 8856">
                <path id="Path_87417" data-name="Path 87417" d="M2998.183,393.084a6.872,6.872,0,0,1,2.86.8c.839.655,1.486,6.751,1.486,6.751l-2.915,2.394s-5.6-3.331-5.618-3.593,2.78-5.005,2.78-5.005Z" transform="translate(-2993.997 -393.084)" fill="#ff9169"/>
              </g>
            </g>
            <g id="Group_8859" data-name="Group 8859" transform="translate(0 1.278)">
              <g id="Group_8858" data-name="Group 8858">
                <path id="Path_87418" data-name="Path 87418" d="M2914.825,401.386l-1.267-.247c-.648-.125-1.51-.294-2.5-.489-4.054-.8-10.237-2.057-12.574-2.705q-2.109,4.07-4.238,8.131c4.04.653,10.961,1.281,15.542,1.657.972.081,1.839.151,2.549.2l2.041.154Z" transform="translate(-2894.245 -397.945)" fill="#ff9169"/>
              </g>
            </g>
            <g id="Group_8861" data-name="Group 8861" transform="translate(19.888 0.182)">
              <g id="Group_8860" data-name="Group 8860">
                <path id="Path_87419" data-name="Path 87419" d="M2973.517,398.017s2.916-4.013,3.9-4.345a3.188,3.188,0,0,1,2.169.3s.112,1.877.969,2.478a60.562,60.562,0,0,1,5.666,5.888,1.266,1.266,0,0,1-.349,1.645,2.008,2.008,0,0,1-.375.159s.182.378-.366,1.266a4.313,4.313,0,0,0-2.306,1.675,6.834,6.834,0,0,1-3.43-.2,58.015,58.015,0,0,1-5.637-2.071Z" transform="translate(-2973.517 -393.576)" fill="#ff9169"/>
              </g>
            </g>
            <g id="Group_8863" data-name="Group 8863" transform="translate(15.542 3.983)">
              <g id="Group_8862" data-name="Group 8862">
                <path id="Path_87420" data-name="Path 87420" d="M2959.963,409.217c-.329,2.283-.742,4.549-1.222,6.8-.71-.053-1.577-.123-2.549-.2q.765-3.515,1.271-7.083C2958.453,408.923,2959.315,409.091,2959.963,409.217Z" transform="translate(-2956.192 -408.728)" fill="#151521"/>
              </g>
            </g>
            <g id="Group_8865" data-name="Group 8865" transform="translate(15.294 5.559)">
              <g id="Group_8864" data-name="Group 8864">
                <path id="Path_87421" data-name="Path 87421" d="M2959.137,415.974a2.142,2.142,0,1,1-2.967-.61A2.142,2.142,0,0,1,2959.137,415.974Z" transform="translate(-2955.206 -415.01)" fill="#fff"/>
              </g>
            </g>
            <g id="Group_8867" data-name="Group 8867" transform="translate(19.962 9.177)">
              <g id="Group_8866" data-name="Group 8866">
                <path id="Path_87422" data-name="Path 87422" d="M2974.544,430.034s-1.234,1.593-.5,2.478a2.32,2.32,0,0,0,2.141.545s.031.542.839.906a2.94,2.94,0,0,0,1.688.157,1.748,1.748,0,0,0,1.3.664c.888.053,1.567-.6,1.729-2.01s-3.627-3.021-5.022-3.291A2.442,2.442,0,0,0,2974.544,430.034Z" transform="translate(-2973.811 -429.429)" fill="#ff9169"/>
              </g>
            </g>
            <g id="Group_8869" data-name="Group 8869" transform="translate(23.296)">
              <g id="Group_8868" data-name="Group 8868">
                <path id="Path_87423" data-name="Path 87423" d="M2993.016,392.91s-2.194-.316-3.252.524-2.618,4.559-2.663,4.875.744.928,1.354.87,2.313-2.5,3.381-2.712a17.649,17.649,0,0,0,2.707-.658C2994.592,395.71,2993.016,392.91,2993.016,392.91Z" transform="translate(-2987.1 -392.852)" fill="#ff9169"/>
              </g>
            </g>
            <g id="Group_8872" data-name="Group 8872" transform="translate(19.959 9.032)">
              <g id="Group_8871" data-name="Group 8871">
                <g id="Group_8870" data-name="Group 8870">
                  <path id="Path_87424" data-name="Path 87424" d="M2978.875,433.4l.9-1.908c.025-.056.227-.583-.563-1.082a1.573,1.573,0,0,0-1.708.115l-.365.284.022-.463a1.3,1.3,0,0,0-.107-.534.952.952,0,0,0-1.227-.482c-.674.171-1.4,1.307-1.626,1.73a.213.213,0,1,1-.376-.2c.037-.069.9-1.692,1.9-1.944a1.366,1.366,0,0,1,1.719.718,1.615,1.615,0,0,1,.114.364,1.868,1.868,0,0,1,1.883.05,1.544,1.544,0,0,1,.79,1.068,1.272,1.272,0,0,1,1.187.118,1.122,1.122,0,0,1,.514,1.262,2.535,2.535,0,0,1-.265.734.213.213,0,0,1-.369-.212c.024-.042.579-1.029-.092-1.415a.762.762,0,0,0-1.064.1Z" transform="translate(-2973.799 -428.852)" fill="#e06234"/>
                </g>
              </g>
            </g>
            <g id="Group_8875" data-name="Group 8875" transform="translate(22.239 10.324)">
              <g id="Group_8874" data-name="Group 8874">
                <g id="Group_8873" data-name="Group 8873">
                  <path id="Path_87425" data-name="Path 87425" d="M2983.07,436.385a.21.21,0,0,1-.073-.024.213.213,0,0,1-.083-.289l1.081-1.958a.213.213,0,0,1,.373.205l-1.081,1.958A.212.212,0,0,1,2983.07,436.385Z" transform="translate(-2982.887 -434.004)" fill="#e06234"/>
                </g>
              </g>
            </g>
            <g id="Group_8878" data-name="Group 8878" transform="translate(24.871 11.55)">
              <g id="Group_8877" data-name="Group 8877">
                <g id="Group_8876" data-name="Group 8876">
                  <path id="Path_87426" data-name="Path 87426" d="M2993.56,441.287a.2.2,0,0,1-.07-.023.213.213,0,0,1-.089-.287l1.043-1.975a.213.213,0,0,1,.376.2l-1.043,1.975A.213.213,0,0,1,2993.56,441.287Z" transform="translate(-2993.377 -438.889)" fill="#e06234"/>
                </g>
              </g>
            </g>
            <g id="Group_8881" data-name="Group 8881" transform="translate(21.711 0.596)">
              <g id="Group_8880" data-name="Group 8880">
                <g id="Group_8879" data-name="Group 8879">
                  <path id="Path_87427" data-name="Path 87427" d="M2981.7,401.614a1.132,1.132,0,0,1-.725-.413c-.786-.931,1.05-3.495,1.069-3.519.267-.345,2.369-2.191,2.608-2.4a.213.213,0,0,1,.281.32c-.926.811-2.369,2.1-2.552,2.341-.4.518-1.521,2.461-1.08,2.985.4.47,1.089.329,2.248-.455.9-.607,3.151-2.65,3.174-2.67a.213.213,0,0,1,.286.315c-.094.085-2.3,2.084-3.221,2.708A3.392,3.392,0,0,1,2981.7,401.614Z" transform="translate(-2980.781 -395.228)" fill="#e06234"/>
                </g>
              </g>
            </g>
            <g id="Group_8883" data-name="Group 8883" transform="translate(27.23 3.431)">
              <g id="Group_8882" data-name="Group 8882">
                <path id="Path_87428" data-name="Path 87428" d="M3007.745,411.218l0,0s-3.365-3.386-3.911-3.929-.686-.692-.688-.694a.213.213,0,1,0-.309.292s.148.157.7.7,3.909,3.928,3.909,3.928l0,0a.192.192,0,0,0,.116.06A.214.214,0,0,0,3007.745,411.218Z" transform="translate(-3002.781 -406.526)" fill="#e06234"/>
              </g>
            </g>
            <g id="Group_8886" data-name="Group 8886" transform="translate(30.143 9.351)">
              <g id="Group_8885" data-name="Group 8885">
                <g id="Group_8884" data-name="Group 8884">
                  <path id="Path_87429" data-name="Path 87429" d="M3015.935,431.6a.206.206,0,0,1-.087-.033c-.078-.052-1.071-.824-1.374-1.06a.213.213,0,0,1,.262-.336c.486.379,1.281,1,1.348,1.042a.213.213,0,0,1-.149.387Z" transform="translate(-3014.393 -430.125)" fill="#e06234"/>
                </g>
              </g>
            </g>
            <g id="Group_8889" data-name="Group 8889" transform="translate(28.429 11.42)">
              <g id="Group_8888" data-name="Group 8888">
                <g id="Group_8887" data-name="Group 8887">
                  <path id="Path_87430" data-name="Path 87430" d="M3009.019,439.8c-.074-.01-.216-.075-1.384-1.056a.213.213,0,0,1,.274-.326c.508.428,1.093.9,1.214.971a.213.213,0,0,1-.091.413Z" transform="translate(-3007.559 -438.371)" fill="#e06234"/>
                </g>
              </g>
            </g>
          </g>
          <g id="Group_8892" data-name="Group 8892" transform="translate(0 28.998)">
            <g id="Group_8891" data-name="Group 8891">
              <path id="Path_87431" data-name="Path 87431" d="M2812.123,282.8s-3.145,2.139-5.483,9.159-4.027,21.423-3.625,23.037,2.213,3.935,5.937,5.412,17.019,2.237,18.366,1.857,7.964-9.291,7.964-9.291-6.842-1.905-8.728-2.383-4.714-1.542-4.714-1.542Z" transform="translate(-2802.956 -282.803)" fill="#f0ded8"/>
            </g>
          </g>
          <g id="Group_8894" data-name="Group 8894" transform="translate(8.267 29.931)">
            <g id="Group_8893" data-name="Group 8893">
              <path id="Path_87432" data-name="Path 87432" d="M2840.869,301.272a.212.212,0,0,1-.208-.169c-.008-.038-.827-3.879-1.878-8.364-1.03-4.393-2.78-5.825-2.8-5.838a.213.213,0,0,1,.263-.334c.077.06,1.879,1.517,2.948,6.076,1.053,4.489,1.872,8.334,1.881,8.372a.214.214,0,0,1-.164.253A.229.229,0,0,1,2840.869,301.272Z" transform="translate(-2835.906 -286.521)" fill="#d4b9b0"/>
            </g>
          </g>
          <g id="Group_8896" data-name="Group 8896" transform="translate(23.9 23.672)">
            <g id="Group_8895" data-name="Group 8895">
              <path id="Path_87433" data-name="Path 87433" d="M2903.793,266.2a.213.213,0,0,1-.131-.045l-5.362-4.2a.213.213,0,0,1,.263-.335l5.157,4.043,1.332-2.64a.213.213,0,0,1,.183-.117.2.2,0,0,1,.19.106l1.4,2.417,1.654-2.19a.213.213,0,0,1,.34.256l-1.847,2.446a.218.218,0,0,1-.183.084.213.213,0,0,1-.171-.106l-1.363-2.354-1.271,2.521a.214.214,0,0,1-.143.112A.219.219,0,0,1,2903.793,266.2Z" transform="translate(-2898.219 -261.572)" fill="#4d221e"/>
            </g>
          </g>
          <g id="Group_8941" data-name="Group 8941" transform="translate(87.8 3.163)">
            <g id="Group_8898" data-name="Group 8898">
              <g id="Group_8897" data-name="Group 8897">
                <path id="Path_87434" data-name="Path 87434" d="M3170.916,187.179a6.761,6.761,0,0,0-1.8-3.1,5.135,5.135,0,0,0-.668-.442,2.876,2.876,0,0,0-1.513-1.556,8.825,8.825,0,0,0-2.047-.432,5.262,5.262,0,0,1-2.421-1.137,4.134,4.134,0,0,0-3.491-.507,1.48,1.48,0,0,0-.788.584,1.845,1.845,0,0,1-1.147.757,5.625,5.625,0,0,0-.907.287,3.029,3.029,0,0,0-2.016,2.435,8.752,8.752,0,0,1-.351,2.737c-.288.638-.791,1.1-.841,1.837a3.659,3.659,0,0,0,1.8,2.975c1.108.842,2.11,1.431,3.489.9a18.188,18.188,0,0,0,2.334-1.108c.563.431,1.091.855,1.534,1.243a8.821,8.821,0,0,1,1.5,1.484,15.9,15.9,0,0,1,.856,1.721,8.46,8.46,0,0,0,2.348,2.53l-.06.062a.213.213,0,0,0,.3.3,15.3,15.3,0,0,0,4.065-7.156A7.443,7.443,0,0,0,3170.916,187.179Z" transform="translate(-3152.917 -179.826)" fill="#292a38"/>
              </g>
            </g>
            <g id="Group_8914" data-name="Group 8914" transform="translate(2.407 5.27)">
              <g id="Group_8903" data-name="Group 8903" transform="translate(4.361 11.252)">
                <g id="Group_8900" data-name="Group 8900">
                  <g id="Group_8899" data-name="Group 8899">
                    <path id="Path_87435" data-name="Path 87435" d="M3179.893,249.351l.1,1.673.168,2.641v0l.241,3.869s.516,2.578,2.93,2.737,5.546-2.917,5.546-2.917l-.777-11.678Z" transform="translate(-3179.893 -245.68)" fill="#ff9169"/>
                  </g>
                </g>
                <g id="Group_8902" data-name="Group 8902" transform="translate(0.104 1.744)">
                  <g id="Group_8901" data-name="Group 8901">
                    <path id="Path_87436" data-name="Path 87436" d="M3180.309,256.23l.167,2.641v0s.927.352,3.513-.874,3.74-5.371,3.74-5.371-5.883,2.659-6.467,3.057C3180.993,255.87,3180.638,256.053,3180.309,256.23Z" transform="translate(-3180.309 -252.63)" fill="#e06234"/>
                  </g>
                </g>
              </g>
              <g id="Group_8905" data-name="Group 8905">
                <g id="Group_8904" data-name="Group 8904">
                  <path id="Path_87437" data-name="Path 87437" d="M3175.752,209.214c.046,4.927-2.031,6.974-4.686,8.153s-5.479,1.842-7.177-1.047c-.915-1.561-1.2-5.089-1.311-8.3,0-.162-.013-.323-.017-.481a.61.61,0,0,0,0-.089v-.009c0-.106,0-.217-.009-.315-.009-.179-.013-.349-.013-.523v-.064c0-.132-.009-.255-.009-.375-.038-1.889,0-3.242,0-3.242a5.9,5.9,0,0,1,5.365-2C3171.165,201.543,3175.709,204.287,3175.752,209.214Z" transform="translate(-3162.511 -200.832)" fill="#ff9169"/>
                </g>
              </g>
              <g id="Group_8907" data-name="Group 8907" transform="translate(9.61 6.353)">
                <g id="Group_8906" data-name="Group 8906">
                  <path id="Path_87438" data-name="Path 87438" d="M3200.817,226.154s1.709,4.88,1.958,6.175a1.566,1.566,0,0,0,1.182,1.416s.672-3.189.672-3.242.585-3.136.585-3.261S3200.817,226.154,3200.817,226.154Z" transform="translate(-3200.817 -226.154)" fill="#292a38"/>
                </g>
              </g>
              <g id="Group_8909" data-name="Group 8909" transform="translate(1.364 7.611)">
                <g id="Group_8908" data-name="Group 8908">
                  <path id="Path_87439" data-name="Path 87439" d="M3168.019,231.532a.534.534,0,0,1,.424-.36.439.439,0,0,1,.469.344c.113.362.162.973-.174,1.238C3168.157,233.213,3167.779,232.132,3168.019,231.532Z" transform="translate(-3167.946 -231.167)" fill="#292a38"/>
                </g>
              </g>
              <g id="Group_8911" data-name="Group 8911" transform="translate(5.729 7.44)">
                <g id="Group_8910" data-name="Group 8910">
                  <path id="Path_87440" data-name="Path 87440" d="M3185.42,230.854a.534.534,0,0,1,.424-.361.439.439,0,0,1,.469.344c.112.362.162.973-.175,1.238C3185.558,232.535,3185.18,231.454,3185.42,230.854Z" transform="translate(-3185.347 -230.489)" fill="#292a38"/>
                </g>
              </g>
              <g id="Group_8913" data-name="Group 8913" transform="translate(2.695 12.671)">
                <g id="Group_8912" data-name="Group 8912">
                  <path id="Path_87441" data-name="Path 87441" d="M3177.055,251.338a19.773,19.773,0,0,1-2.254.165,8.954,8.954,0,0,1-1.548-.072,1.588,1.588,0,0,0,1.676,1.044A2.526,2.526,0,0,0,3177.055,251.338Z" transform="translate(-3173.254 -251.338)" fill="#fff"/>
                </g>
              </g>
            </g>
            <g id="Group_8919" data-name="Group 8919" transform="translate(12.017 10.718)">
              <g id="Group_8916" data-name="Group 8916">
                <g id="Group_8915" data-name="Group 8915">
                  <path id="Path_87442" data-name="Path 87442" d="M3200.817,223.77a2.282,2.282,0,0,1,2.716-1.073c2.247.851.987,4.326.323,5.2a4.463,4.463,0,0,1-1.862,1.278Z" transform="translate(-3200.817 -222.547)" fill="#ff9169"/>
                </g>
              </g>
              <g id="Group_8918" data-name="Group 8918" transform="translate(1.556 1.982)">
                <g id="Group_8917" data-name="Group 8917">
                  <path id="Path_87443" data-name="Path 87443" d="M3207.735,230.557c-.121-.246-.492-.037-.371.208.245.5.3,1.414-.244,1.759-.231.145-.025.518.208.372A1.862,1.862,0,0,0,3207.735,230.557Z" transform="translate(-3207.018 -230.446)" fill="#e06234"/>
                </g>
              </g>
            </g>
            <g id="Group_8921" data-name="Group 8921" transform="translate(7.18 11.122)">
              <g id="Group_8920" data-name="Group 8920">
                <path id="Path_87444" data-name="Path 87444" d="M3184.7,224.742a2.453,2.453,0,0,0-1.133-.525,3.739,3.739,0,0,0-1.382.005,1.126,1.126,0,0,0-.44.152.444.444,0,0,0-.209.395.459.459,0,0,0,.343.356,1.445,1.445,0,0,0,.521.019,12.52,12.52,0,0,1,1.981,0,.458.458,0,0,0,.328-.054C3184.851,224.979,3184.82,224.858,3184.7,224.742Z" transform="translate(-3181.535 -224.155)" fill="#292a38"/>
              </g>
            </g>
            <g id="Group_8923" data-name="Group 8923" transform="translate(2.454 11.295)">
              <g id="Group_8922" data-name="Group 8922">
                <path id="Path_87445" data-name="Path 87445" d="M3165.65,225.343a.465.465,0,0,1-.306.387,1.527,1.527,0,0,1-.519.068,12.761,12.761,0,0,0-1.97.191.747.747,0,0,1-.136.017c0-.162-.013-.323-.017-.481a.61.61,0,0,0,0-.089v-.009a2.885,2.885,0,0,1,.877-.442,3.857,3.857,0,0,1,1.379-.128,1.1,1.1,0,0,1,.451.111A.453.453,0,0,1,3165.65,225.343Z" transform="translate(-3162.697 -224.845)" fill="#292a38"/>
              </g>
            </g>
            <g id="Group_8925" data-name="Group 8925" transform="translate(2.39 4.401)">
              <g id="Group_8924" data-name="Group 8924">
                <path id="Path_87446" data-name="Path 87446" d="M3170.522,198.452c-2.52-.629-7.623-2.618-8.063,1.169-.039.335,0,1.268,0,1.268s1.792-.813,2.677-1.148a3.812,3.812,0,0,0,.911,1.207c.841.735,2.3.746,2.906,1.634.876,1.277,1.915,2.344,3.4,2.338a2.823,2.823,0,0,0,1.279,1.091c.6.224,1.675.532,2.227.055a.235.235,0,0,0,.241-.2C3176.548,202.478,3173.709,199.247,3170.522,198.452Z" transform="translate(-3162.442 -197.367)" fill="#292a38"/>
              </g>
            </g>
            <g id="Group_8927" data-name="Group 8927" transform="translate(2.34 3.268)">
              <g id="Group_8926" data-name="Group 8926">
                <path id="Path_87447" data-name="Path 87447" d="M3162.51,192.86a.213.213,0,0,0-.113.41,3.16,3.16,0,0,1,2.075,2.622.213.213,0,0,0,.426,0A3.561,3.561,0,0,0,3162.51,192.86Z" transform="translate(-3162.246 -192.852)" fill="#41414f"/>
              </g>
            </g>
            <g id="Group_8929" data-name="Group 8929" transform="translate(3.084 4.821)">
              <g id="Group_8928" data-name="Group 8928">
                <path id="Path_87448" data-name="Path 87448" d="M3165.613,199.143c-.147-.23-.516-.017-.368.215a2.207,2.207,0,0,1,.355,1.068c.017.272.443.274.426,0A2.658,2.658,0,0,0,3165.613,199.143Z" transform="translate(-3165.211 -199.044)" fill="#41414f"/>
              </g>
            </g>
            <g id="Group_8931" data-name="Group 8931" transform="translate(6.305 6.142)">
              <g id="Group_8930" data-name="Group 8930">
                <path id="Path_87449" data-name="Path 87449" d="M3184.716,208.616a2.472,2.472,0,0,1-1.2-.073c-.929-.356-.832-.758-1.2-1.372a2.846,2.846,0,0,0-.835-.878c-.983-.689-2.278-.886-3.026-1.9-.161-.218-.531-.006-.368.215.827,1.115,2.2,1.3,3.252,2.11.666.51.743,1.4,1.4,1.894a2.674,2.674,0,0,0,1.98.424C3184.983,209.007,3184.987,208.581,3184.716,208.616Z" transform="translate(-3178.046 -204.308)" fill="#41414f"/>
              </g>
            </g>
            <g id="Group_8933" data-name="Group 8933" transform="translate(12.364 8.91)">
              <g id="Group_8932" data-name="Group 8932">
                <path id="Path_87450" data-name="Path 87450" d="M3206.1,215.363a4.081,4.081,0,0,1-3.574.275c-.245-.119-.461.247-.215.367a4.53,4.53,0,0,0,4-.275C3206.558,215.615,3206.343,215.248,3206.1,215.363Z" transform="translate(-3202.197 -215.341)" fill="#41414f"/>
              </g>
            </g>
            <g id="Group_8935" data-name="Group 8935" transform="translate(5.718 3.972)">
              <g id="Group_8934" data-name="Group 8934">
                <path id="Path_87451" data-name="Path 87451" d="M3184.668,195.837a8.748,8.748,0,0,0-4.516.279,16.639,16.639,0,0,1-2.29.2,4.528,4.528,0,0,0-2.065.915c-.216.163,0,.533.215.368a4.2,4.2,0,0,1,2.419-.914,6.384,6.384,0,0,0,1.571-.071,9,9,0,0,1,4.553-.369C3184.823,196.3,3184.937,195.894,3184.668,195.837Z" transform="translate(-3175.708 -195.658)" fill="#41414f"/>
              </g>
            </g>
            <g id="Group_8938" data-name="Group 8938" transform="translate(13.216 15.953)">
              <g id="Group_8937" data-name="Group 8937">
                <g id="Group_8936" data-name="Group 8936">
                  <path id="Path_87452" data-name="Path 87452" d="M3207.359,243.617a3.343,3.343,0,0,1-.234.248,1.8,1.8,0,0,1,.183.995c-.071.641-.351,1.055-.713,1.055-.381,0-.7-.51-.7-1.114a1.26,1.26,0,0,1,.538-1.1.149.149,0,0,0-.074-.288,1.481,1.481,0,0,0-.761,1.383c0,.792.439,1.412,1,1.412.533,0,.92-.506,1.009-1.32A2.075,2.075,0,0,0,3207.359,243.617Z" transform="translate(-3205.594 -243.412)" fill="#fff"/>
                </g>
              </g>
            </g>
            <g id="Group_8940" data-name="Group 8940" transform="translate(5.248 14.194)">
              <g id="Group_8939" data-name="Group 8939">
                <path id="Path_87453" data-name="Path 87453" d="M3175.25,239.047a1.852,1.852,0,0,1-.786-.11c-.312-.223-.1-.641-.019-.9l.41-1.373a.213.213,0,0,0-.41-.113l-.382,1.282a2.547,2.547,0,0,0-.22.992c.085.616.943.613,1.407.646C3175.523,239.491,3175.522,239.066,3175.25,239.047Z" transform="translate(-3173.835 -236.402)" fill="#e06234"/>
              </g>
            </g>
          </g>
          <g id="Group_8943" data-name="Group 8943" transform="translate(84.925 28.016)">
            <g id="Group_8942" data-name="Group 8942">
              <path id="Path_87454" data-name="Path 87454" d="M3152.994,278.89s-8.735,3.475-10.012,4.184-1.524,15.8-1.524,18.492,1.844,10.67,1.844,10.67l23.367.208s3.963-28.936,3.892-29.432-12-4.122-12-4.122Z" transform="translate(-3141.458 -278.89)" fill="#ff9169"/>
            </g>
          </g>
          <g id="Group_8945" data-name="Group 8945" transform="translate(82.976 28.888)">
            <g id="Group_8944" data-name="Group 8944">
              <path id="Path_87455" data-name="Path 87455" d="M3161.313,317.55c-4.829,1.442-3.081,6.48-4.651,6.633-3.242.319-6.68.408-11.263.574-3.872.14-8.663-5.859-8.663-5.859s-1.706.038-1.562-4.57c.213-6.808-1.893-9.037-1.417-13.837a16.872,16.872,0,0,1,.463-2.421c.068-.264.14-.536.217-.813v0c.443-1.553,1.038-3.276,1.66-4.936,0,0,0,0,0-.009,1.489-3.974,3.127-7.569,3.127-7.569l2.093-.877s.153,5.272,6.434,5.608c5.995.319,8.4-7.106,8.4-7.106l1.813.477s-.17,11.041.945,15.509,4.153,4.791,4.153,4.791S3163.968,316.758,3161.313,317.55Z" transform="translate(-3133.688 -282.366)" fill="#fff"/>
            </g>
          </g>
          <g id="Group_9003" data-name="Group 9003" transform="translate(83.174 36.553)">
            <g id="Group_8948" data-name="Group 8948" transform="translate(5.58)">
              <g id="Group_8947" data-name="Group 8947">
                <g id="Group_8946" data-name="Group 8946">
                  <path id="Path_87456" data-name="Path 87456" d="M3156.934,314.582a.213.213,0,0,1-.15-.363l1.24-1.241a.213.213,0,1,1,.3.3l-1.24,1.241A.213.213,0,0,1,3156.934,314.582Z" transform="translate(-3156.722 -312.916)" fill="#faefeb"/>
                </g>
              </g>
            </g>
            <g id="Group_8951" data-name="Group 8951" transform="translate(12.53 5.744)">
              <g id="Group_8950" data-name="Group 8950">
                <g id="Group_8949" data-name="Group 8949">
                  <path id="Path_87457" data-name="Path 87457" d="M3184.635,337.477a.213.213,0,0,1-.15-.363l1.24-1.241a.213.213,0,0,1,.3.3l-1.24,1.241A.211.211,0,0,1,3184.635,337.477Z" transform="translate(-3184.422 -335.811)" fill="#faefeb"/>
                </g>
              </g>
            </g>
            <g id="Group_8954" data-name="Group 8954" transform="translate(19.266 5.452)">
              <g id="Group_8953" data-name="Group 8953">
                <g id="Group_8952" data-name="Group 8952">
                  <path id="Path_87458" data-name="Path 87458" d="M3211.483,336.315a.213.213,0,0,1-.15-.363l1.24-1.241a.213.213,0,0,1,.3.3l-1.24,1.241A.211.211,0,0,1,3211.483,336.315Z" transform="translate(-3211.271 -334.649)" fill="#faefeb"/>
                </g>
              </g>
            </g>
            <g id="Group_8957" data-name="Group 8957" transform="translate(14.978 18.824)">
              <g id="Group_8956" data-name="Group 8956">
                <g id="Group_8955" data-name="Group 8955">
                  <path id="Path_87459" data-name="Path 87459" d="M3194.392,389.612a.213.213,0,0,1-.15-.363l1.24-1.241a.213.213,0,1,1,.3.3l-1.24,1.241A.212.212,0,0,1,3194.392,389.612Z" transform="translate(-3194.18 -387.946)" fill="#faefeb"/>
                </g>
              </g>
            </g>
            <g id="Group_8960" data-name="Group 8960" transform="translate(17.798 0.369)">
              <g id="Group_8959" data-name="Group 8959">
                <g id="Group_8958" data-name="Group 8958">
                  <path id="Path_87460" data-name="Path 87460" d="M3205.631,316.051a.213.213,0,0,1-.15-.363l1.24-1.241a.213.213,0,0,1,.3.3l-1.24,1.241A.211.211,0,0,1,3205.631,316.051Z" transform="translate(-3205.419 -314.385)" fill="#faefeb"/>
                </g>
              </g>
            </g>
            <g id="Group_8963" data-name="Group 8963" transform="translate(13.94 12.063)">
              <g id="Group_8962" data-name="Group 8962">
                <g id="Group_8961" data-name="Group 8961">
                  <path id="Path_87461" data-name="Path 87461" d="M3190.255,362.664a.213.213,0,0,1-.15-.363l1.24-1.241a.213.213,0,0,1,.3.3l-1.24,1.241A.212.212,0,0,1,3190.255,362.664Z" transform="translate(-3190.043 -360.997)" fill="#faefeb"/>
                </g>
              </g>
            </g>
            <g id="Group_8966" data-name="Group 8966" transform="translate(0 12.316)">
              <g id="Group_8965" data-name="Group 8965">
                <g id="Group_8964" data-name="Group 8964">
                  <path id="Path_87462" data-name="Path 87462" d="M3134.692,363.671a.213.213,0,0,1-.15-.363l1.24-1.241a.213.213,0,0,1,.3.3l-1.24,1.241A.213.213,0,0,1,3134.692,363.671Z" transform="translate(-3134.479 -362.005)" fill="#faefeb"/>
                </g>
              </g>
            </g>
            <g id="Group_8969" data-name="Group 8969" transform="translate(20.931 18.824)">
              <g id="Group_8968" data-name="Group 8968">
                <g id="Group_8967" data-name="Group 8967">
                  <path id="Path_87463" data-name="Path 87463" d="M3218.121,389.612a.213.213,0,0,1-.151-.363l1.24-1.241a.213.213,0,1,1,.3.3l-1.24,1.241A.212.212,0,0,1,3218.121,389.612Z" transform="translate(-3217.908 -387.946)" fill="#faefeb"/>
                </g>
              </g>
            </g>
            <g id="Group_8972" data-name="Group 8972" transform="translate(10.893)">
              <g id="Group_8971" data-name="Group 8971">
                <g id="Group_8970" data-name="Group 8970">
                  <path id="Path_87464" data-name="Path 87464" d="M3178.109,314.582a.213.213,0,0,1-.15-.363l1.24-1.241a.213.213,0,1,1,.3.3l-1.24,1.241A.211.211,0,0,1,3178.109,314.582Z" transform="translate(-3177.896 -312.916)" fill="#faefeb"/>
                </g>
              </g>
            </g>
            <g id="Group_8975" data-name="Group 8975" transform="translate(6.177 5.739)">
              <g id="Group_8974" data-name="Group 8974">
                <g id="Group_8973" data-name="Group 8973">
                  <path id="Path_87465" data-name="Path 87465" d="M3159.312,337.459a.213.213,0,0,1-.15-.363l1.24-1.241a.213.213,0,0,1,.3.3l-1.24,1.241A.213.213,0,0,1,3159.312,337.459Z" transform="translate(-3159.099 -335.793)" fill="#faefeb"/>
                </g>
              </g>
            </g>
            <g id="Group_8978" data-name="Group 8978" transform="translate(0.335 6.414)">
              <g id="Group_8977" data-name="Group 8977">
                <g id="Group_8976" data-name="Group 8976">
                  <path id="Path_87466" data-name="Path 87466" d="M3137.084,338.844l-1.238,1.242a.138.138,0,0,1-.03.021c.068-.264.14-.536.217-.813v0l.749-.749a.213.213,0,1,1,.3.3Z" transform="translate(-3135.816 -338.482)" fill="#faefeb"/>
                </g>
              </g>
            </g>
            <g id="Group_8981" data-name="Group 8981" transform="translate(8.893 2.924)">
              <g id="Group_8980" data-name="Group 8980">
                <g id="Group_8979" data-name="Group 8979">
                  <path id="Path_87467" data-name="Path 87467" d="M3169.927,324.8a.216.216,0,0,1,.05-.155.213.213,0,0,1,.3-.024l1.337,1.136a.213.213,0,1,1-.276.324L3170,324.947A.214.214,0,0,1,3169.927,324.8Z" transform="translate(-3169.926 -324.572)" fill="#faefeb"/>
                </g>
              </g>
            </g>
            <g id="Group_8984" data-name="Group 8984" transform="translate(2.197 2.144)">
              <g id="Group_8983" data-name="Group 8983">
                <g id="Group_8982" data-name="Group 8982">
                  <path id="Path_87468" data-name="Path 87468" d="M3143.238,321.691a.212.212,0,0,1,.35-.179l1.337,1.136a.213.213,0,1,1-.276.324l-1.337-1.136A.213.213,0,0,1,3143.238,321.691Z" transform="translate(-3143.237 -321.461)" fill="#faefeb"/>
                </g>
              </g>
            </g>
            <g id="Group_8987" data-name="Group 8987" transform="translate(3.078 9.059)">
              <g id="Group_8986" data-name="Group 8986">
                <g id="Group_8985" data-name="Group 8985">
                  <path id="Path_87469" data-name="Path 87469" d="M3146.749,349.253a.213.213,0,0,1,.35-.179l1.337,1.136a.213.213,0,1,1-.275.324l-1.337-1.136A.213.213,0,0,1,3146.749,349.253Z" transform="translate(-3146.748 -349.023)" fill="#faefeb"/>
                </g>
              </g>
            </g>
            <g id="Group_8990" data-name="Group 8990" transform="translate(16.341 8.821)">
              <g id="Group_8989" data-name="Group 8989">
                <g id="Group_8988" data-name="Group 8988">
                  <path id="Path_87470" data-name="Path 87470" d="M3199.613,348.305a.213.213,0,0,1,.35-.179l1.337,1.136a.213.213,0,1,1-.275.324l-1.337-1.136A.212.212,0,0,1,3199.613,348.305Z" transform="translate(-3199.612 -348.075)" fill="#faefeb"/>
                </g>
              </g>
            </g>
            <g id="Group_8993" data-name="Group 8993" transform="translate(15.325 2.924)">
              <g id="Group_8992" data-name="Group 8992">
                <g id="Group_8991" data-name="Group 8991">
                  <path id="Path_87471" data-name="Path 87471" d="M3195.562,324.8a.213.213,0,0,1,.35-.179l1.337,1.136a.213.213,0,0,1-.276.324l-1.337-1.136A.213.213,0,0,1,3195.562,324.8Z" transform="translate(-3195.561 -324.572)" fill="#faefeb"/>
                </g>
              </g>
            </g>
            <g id="Group_8996" data-name="Group 8996" transform="translate(11.07 15.335)">
              <g id="Group_8995" data-name="Group 8995">
                <g id="Group_8994" data-name="Group 8994">
                  <path id="Path_87472" data-name="Path 87472" d="M3178.6,374.268a.213.213,0,0,1,.35-.179l1.337,1.136a.213.213,0,0,1-.276.324l-1.337-1.136A.214.214,0,0,1,3178.6,374.268Z" transform="translate(-3178.601 -374.038)" fill="#faefeb"/>
                </g>
              </g>
            </g>
            <g id="Group_8999" data-name="Group 8999" transform="translate(9.556 8.821)">
              <g id="Group_8998" data-name="Group 8998">
                <g id="Group_8997" data-name="Group 8997">
                  <path id="Path_87473" data-name="Path 87473" d="M3172.568,348.305a.213.213,0,0,1,.35-.179l1.336,1.136a.213.213,0,1,1-.276.324l-1.336-1.136A.213.213,0,0,1,3172.568,348.305Z" transform="translate(-3172.567 -348.075)" fill="#faefeb"/>
                </g>
              </g>
            </g>
            <g id="Group_9002" data-name="Group 9002" transform="translate(17.536 15.6)">
              <g id="Group_9001" data-name="Group 9001">
                <g id="Group_9000" data-name="Group 9000">
                  <path id="Path_87474" data-name="Path 87474" d="M3204.377,375.325a.213.213,0,0,1,.35-.179l1.337,1.136a.213.213,0,0,1-.276.324l-1.336-1.136A.21.21,0,0,1,3204.377,375.325Z" transform="translate(-3204.376 -375.095)" fill="#faefeb"/>
                </g>
              </g>
            </g>
          </g>
          <g id="Group_9005" data-name="Group 9005" transform="translate(90.386 31.925)">
            <g id="Group_9004" data-name="Group 9004">
              <path id="Path_87475" data-name="Path 87475" d="M3167.081,308.132c-1.853,0-3.538-11.178-3.856-13.419a.213.213,0,0,1,.422-.06c.913,6.416,2.447,13.053,3.435,13.053,1.2,0,6.838-8.059,10.11-13.138a.213.213,0,0,1,.358.231C3176.67,296.163,3168.906,308.132,3167.081,308.132Z" transform="translate(-3163.223 -294.47)" fill="#e8c4ba"/>
            </g>
          </g>
          <g id="Group_9007" data-name="Group 9007" transform="translate(92.395 44.502)">
            <g id="Group_9006" data-name="Group 9006">
              <path id="Path_87476" data-name="Path 87476" d="M3174.308,345.673c-.033-.08-.068-.161-.106-.24a1.669,1.669,0,0,0-.47-.631c-1.284-.973-2.155,1.821-2.4,2.611a1.72,1.72,0,0,0,.641,2.094c1.106.558,2.894.14,2.883-1.421A6.488,6.488,0,0,0,3174.308,345.673Zm-.673,2.887q-.027.021-.056.04a1.024,1.024,0,0,1-1.073-.075c-1.056-.671.322-2.657,1.315-1.627a1.14,1.14,0,0,1,.133,1.218A1.1,1.1,0,0,1,3173.635,348.56Z" transform="translate(-3171.23 -344.599)" fill="#f0ded8"/>
            </g>
          </g>
          <g id="Group_9009" data-name="Group 9009" transform="translate(81.56 64.072)">
            <g id="Group_9008" data-name="Group 9008">
              <path id="Path_87477" data-name="Path 87477" d="M3145.042,498.487c.4-9.46.457-41.166.457-41.166l2.611,41.166h16c-.109-5.481-.6-30.087-.829-42.157-.213-11.259-1.251-19.3-2.268-23.687-1.6-6.9-3.931-10.037-3.931-10.037s-4.314,1.549-12.22,1.672c-3.672.055-12.356-.323-12.356-.323s-3.51,7.991-4.327,20.994c-.525,8.376.611,46.552.825,53.539Z" transform="translate(-3128.044 -422.605)" fill="#d4492f"/>
            </g>
          </g>
          <g id="Group_9011" data-name="Group 9011" transform="translate(84.475 66.013)">
            <g id="Group_9010" data-name="Group 9010">
              <path id="Path_87478" data-name="Path 87478" d="M3169.783,430.343a116.318,116.318,0,0,1-15.06.832c-2.433.055-4.865.1-7.3.119a47.562,47.562,0,0,1-7.494-.22c-.268-.041-.383.369-.113.41a44.7,44.7,0,0,0,6.982.239c2.642-.015,5.284-.063,7.925-.123a117.175,117.175,0,0,0,15.173-.847C3170.166,430.712,3170.052,430.3,3169.783,430.343Z" transform="translate(-3139.663 -430.34)" fill="#b02d15"/>
            </g>
          </g>
          <g id="Group_9013" data-name="Group 9013" transform="translate(103.312 28.453)">
            <g id="Group_9012" data-name="Group 9012">
              <path id="Path_87479" data-name="Path 87479" d="M3214.881,280.631a163.024,163.024,0,0,0,.765,23.922c1.383,10.637,2.659,29.678,4.361,39.571s1.168,32.436,1.649,32.869c1.064.957,2.074-.532,4.946,0s5.851.532,5.957-.319-3.311-47.028-3.191-55.751.145-32.5-.877-34.224c-1.415-2.392-6.22-4.492-8.616-5.122C3218.154,281.124,3214.881,280.631,3214.881,280.631Z" transform="translate(-3214.744 -280.631)" fill="#292a38"/>
            </g>
          </g>
          <g id="Group_9015" data-name="Group 9015" transform="translate(84.007 28.641)">
            <g id="Group_9014" data-name="Group 9014">
              <path id="Path_87480" data-name="Path 87480" d="M3148.691,281.382a108.473,108.473,0,0,0-8.024,9.587c-2.2,3.333-2.868,4.611-2.868,4.611s.954-10.142,1.875-10.709S3148.691,281.382,3148.691,281.382Z" transform="translate(-3137.798 -281.382)" fill="#292a38"/>
            </g>
          </g>
          <g id="Group_9017" data-name="Group 9017" transform="translate(98.431 58.932)">
            <g id="Group_9016" data-name="Group 9016">
              <path id="Path_87481" data-name="Path 87481" d="M3202.946,410.469l-2.136-.455-2.587-.548-1.465-.309-1.468-6.368,2.24-.222,2.536-.249,2.047-.2Z" transform="translate(-3195.29 -402.115)" fill="#ff9169"/>
            </g>
          </g>
          <g id="Group_9019" data-name="Group 9019" transform="translate(103.273 34.521)">
            <g id="Group_9018" data-name="Group 9018">
              <path id="Path_87482" data-name="Path 87482" d="M3228.375,304.817s2.189,2.135,3.749,9.438,1.531,17.664,1.028,20.113c-.707,3.444-7.517,6-10.708,5.145a49.048,49.048,0,0,0-7.817-1.135s-.087-8.51,0-9.006,3.314-1.892,3.881-2.034S3228.375,304.817,3228.375,304.817Z" transform="translate(-3214.589 -304.817)" fill="#292a38"/>
            </g>
          </g>
          <g id="Group_9021" data-name="Group 9021" transform="translate(76.444 48.032)">
            <g id="Group_9020" data-name="Group 9020">
              <path id="Path_87483" data-name="Path 87483" d="M3107.653,365.478a44.733,44.733,0,0,1,8.641-4.918,55.033,55.033,0,0,1,6.942-1.889s.427,7.924.958,10.9,1.914,10.9,1.915,10.9-3.592.983-3.937,1.1a19.962,19.962,0,0,0-3.918,1.747,30.612,30.612,0,0,0-5.388,4.44s-1.565-4.353-3.563-12.625A73.72,73.72,0,0,1,3107.653,365.478Z" transform="translate(-3107.653 -358.67)" fill="#f0ded8"/>
            </g>
          </g>
          <g id="Group_9023" data-name="Group 9023" transform="translate(94.49 87.691)">
            <g id="Group_9022" data-name="Group 9022">
              <path id="Path_87484" data-name="Path 87484" d="M3180.219,542.6a21.275,21.275,0,0,0,.881,9.042c.86,2.537-.2,13.124-.675,17.373h3.226c.4-9.46.457-41.166.457-41.166l-3.889-11.1s-1.429,11.386,0,15.424S3180.491,539.83,3180.219,542.6Z" transform="translate(-3179.583 -516.747)" fill="#b02d15"/>
            </g>
          </g>
          <g id="Group_9025" data-name="Group 9025" transform="translate(93.976 83.835)">
            <g id="Group_9024" data-name="Group 9024">
              <path id="Path_87485" data-name="Path 87485" d="M3178.8,506.4a.212.212,0,0,1-.207-.165l-1.055-4.6a.213.213,0,0,1,.415-.095l1.055,4.6a.212.212,0,0,1-.16.255A.206.206,0,0,1,3178.8,506.4Z" transform="translate(-3177.532 -501.375)" fill="#b02d15"/>
            </g>
          </g>
          <g id="Group_9032" data-name="Group 9032" transform="translate(84.925 56.434)">
            <g id="Group_9027" data-name="Group 9027">
              <g id="Group_9026" data-name="Group 9026">
                <path id="Path_87486" data-name="Path 87486" d="M3156.7,395.389s-5.3-3.289-7.562-3.227a16.861,16.861,0,0,0-5.534.989c-1.09.479-1.384,1.569-.629,1.821a13.372,13.372,0,0,0,3.3-.061,22.966,22.966,0,0,0-4.175.771c-.878.479-.849,1.848-.01,2.1a5.63,5.63,0,0,0,1.352.262,1.244,1.244,0,0,0,.629,1.635,28.826,28.826,0,0,0,5.754,1.038c1.415.157,6.719.985,6.719.985s.985-3.972.953-4.1S3156.7,395.389,3156.7,395.389Z" transform="translate(-3141.458 -392.161)" fill="#ff9169"/>
              </g>
            </g>
            <g id="Group_9029" data-name="Group 9029" transform="translate(4.403 2.415)">
              <g id="Group_9028" data-name="Group 9028">
                <path id="Path_87487" data-name="Path 87487" d="M3159.221,402.357a.213.213,0,0,1-.017-.425c.1-.008,2.5-.2,3.275-.13a.213.213,0,0,1-.039.424c-.734-.069-3.177.128-3.2.13Z" transform="translate(-3159.008 -401.787)" fill="#e06234"/>
              </g>
            </g>
            <g id="Group_9031" data-name="Group 9031" transform="translate(1.986 5.355)">
              <g id="Group_9030" data-name="Group 9030">
                <path id="Path_87488" data-name="Path 87488" d="M3149.585,414.18a.213.213,0,0,1-.013-.425l.108-.016a18.665,18.665,0,0,1,2.688-.233c1.358,0,3.041.123,3.057.125a.213.213,0,1,1-.031.424c-.016,0-1.684-.123-3.026-.123a18.227,18.227,0,0,0-2.624.228C3149.653,414.173,3149.6,414.18,3149.585,414.18Z" transform="translate(-3149.373 -413.506)" fill="#e06234"/>
              </g>
            </g>
          </g>
          <g id="Group_9034" data-name="Group 9034" transform="translate(91.915 42.425)">
            <g id="Group_9033" data-name="Group 9033">
              <path id="Path_87489" data-name="Path 87489" d="M3170.331,336.349a.826.826,0,0,0-.939.4.665.665,0,0,0,.083.742.65.65,0,0,0,.608.435.8.8,0,0,0,.248-1.576Z" transform="translate(-3169.316 -336.321)" fill="#f0ded8"/>
            </g>
          </g>
          <g id="Group_9036" data-name="Group 9036" transform="translate(95.095 43.373)">
            <g id="Group_9035" data-name="Group 9035">
              <path id="Path_87490" data-name="Path 87490" d="M3183.517,340.488a.837.837,0,0,0-1.436.039.643.643,0,0,0,.193.847.584.584,0,0,0,.352.257A.785.785,0,0,0,3183.517,340.488Z" transform="translate(-3181.995 -340.098)" fill="#f0ded8"/>
            </g>
          </g>
          <g id="Group_9038" data-name="Group 9038" transform="translate(96.586 41.75)">
            <g id="Group_9037" data-name="Group 9037">
              <path id="Path_87491" data-name="Path 87491" d="M3189.248,333.906a.732.732,0,0,0-1.307.468s0,.005,0,.008a.464.464,0,0,0-.006.078.655.655,0,0,0,.638.638A.755.755,0,0,0,3189.248,333.906Z" transform="translate(-3187.936 -333.629)" fill="#f0ded8"/>
            </g>
          </g>
          <g id="Group_9040" data-name="Group 9040" transform="translate(82.337 34.895)">
            <g id="Group_9039" data-name="Group 9039">
              <path id="Path_87492" data-name="Path 87492" d="M3131.354,316.218l-.029,0a.213.213,0,0,1-.183-.239c.006-.04.538-4.021.963-6.022a23.149,23.149,0,0,1,1.037-3.516.213.213,0,0,1,.394.161,22.706,22.706,0,0,0-1.014,3.444c-.422,1.985-.952,5.949-.957,5.989A.213.213,0,0,1,3131.354,316.218Z" transform="translate(-3131.141 -306.306)" fill="#41414f"/>
            </g>
          </g>
          <g id="Group_9042" data-name="Group 9042" transform="translate(106.841 68.263)">
            <g id="Group_9041" data-name="Group 9041">
              <path id="Path_87493" data-name="Path 87493" d="M3239.471,439.317a10.481,10.481,0,0,1-3.01.51c-.76-.022-1.5-.2-2.263-.239-1.735-.087-3.444.381-5.127-.238-.257-.095-.368.317-.113.41,1.716.631,3.468.165,5.24.253.889.044,1.759.268,2.653.236a12.225,12.225,0,0,0,2.735-.523A.213.213,0,0,0,3239.471,439.317Z" transform="translate(-3228.813 -439.309)" fill="#41414f"/>
            </g>
          </g>
          <g id="Group_9044" data-name="Group 9044" transform="translate(105.482 52.456)">
            <g id="Group_9043" data-name="Group 9043">
              <path id="Path_87494" data-name="Path 87494" d="M3234.465,379.276a6.679,6.679,0,0,0-2.594-.19,12.26,12.26,0,0,0-2.237.689c.266-.761,1.447-1.474,2.006-1.847.667-.446,1.369-.838,2.069-1.228.239-.133.025-.5-.215-.368a21.74,21.74,0,0,0-2.869,1.805c-.592.464-1.329,1-1.453,1.776l-.075.021c-.91.221-1.86.094-2.776.324a14.837,14.837,0,0,0-2.818,1.139c-.246.119-.031.486.215.367a14.337,14.337,0,0,1,2.716-1.1c.813-.2,1.614-.117,2.427-.251.832-.138,1.572-.568,2.384-.777a6.111,6.111,0,0,1,3.105.047A.213.213,0,0,0,3234.465,379.276Z" transform="translate(-3223.396 -376.303)" fill="#41414f"/>
            </g>
          </g>
          <g id="Group_9046" data-name="Group 9046" transform="translate(110.367 35.18)">
            <g id="Group_9045" data-name="Group 9045">
              <path id="Path_87495" data-name="Path 87495" d="M3247.727,307.6a26.8,26.8,0,0,1-1.9,5.534,10.23,10.23,0,0,0-1.214,4.222,10.1,10.1,0,0,1-.338,2.907c-.261.825-.606,1.618-.819,2.459a26.192,26.192,0,0,0-.595,5.146c-.013.274.412.273.426,0a22.492,22.492,0,0,1,.8-5.789,14.151,14.151,0,0,0,.952-4.338,12.262,12.262,0,0,1,1.474-5.074,26.35,26.35,0,0,0,1.624-4.954C3248.2,307.443,3247.786,307.329,3247.727,307.6Z" transform="translate(-3242.865 -307.444)" fill="#41414f"/>
            </g>
          </g>
          <g id="Group_9048" data-name="Group 9048" transform="translate(44.324 32.623)">
            <g id="Group_9047" data-name="Group 9047">
              <path id="Path_87496" data-name="Path 87496" d="M2980.6,319.566a.213.213,0,0,1-.212-.2c-.025-.483-.6-11.853-.366-14.576a43.123,43.123,0,0,0-.4-7.293.213.213,0,1,1,.421-.059,42.559,42.559,0,0,1,.4,7.389c-.236,2.694.361,14.4.367,14.517a.213.213,0,0,1-.2.224Z" transform="translate(-2979.625 -297.253)" fill="#d4b9b0"/>
            </g>
          </g>
          <g id="Group_9050" data-name="Group 9050" transform="translate(44.776 38.342)">
            <g id="Group_9049" data-name="Group 9049">
              <path id="Path_87497" data-name="Path 87497" d="M2981.642,329.261a.218.218,0,0,1-.053-.007.213.213,0,0,1-.153-.259l2.265-8.787a.213.213,0,1,1,.412.106l-2.265,8.787A.213.213,0,0,1,2981.642,329.261Z" transform="translate(-2981.429 -320.049)" fill="#d4b9b0"/>
            </g>
          </g>
          <g id="Group_9052" data-name="Group 9052" transform="translate(16.847 54.645)">
            <g id="Group_9051" data-name="Group 9051">
              <path id="Path_87498" data-name="Path 87498" d="M2875.082,386.866a.212.212,0,0,1-.061-.009l-4.765-1.413a.213.213,0,1,1,.121-.408l4.765,1.412a.213.213,0,0,1-.061.417Z" transform="translate(-2870.104 -385.028)" fill="#d4b9b0"/>
            </g>
          </g>
        </g>
      </g>
    </g>
  </g>
</svg>
