<svg xmlns="http://www.w3.org/2000/svg" width="372.614" height="217.84" viewBox="0 0 372.614 217.84">
  <g id="Group_9180" data-name="Group 9180" style="isolation: isolate">
    <path id="Path_87310" data-name="Path 87310" d="M553.254,148.995l-1.768,2.056s3.67,1.7,4.7,3.544c0,0,2.169-2.161,2.136-2.268A12.377,12.377,0,0,0,553.254,148.995Z" transform="translate(-264.755 -100.268)" fill="#fae1d3"/>
    <path id="Path_87311" data-name="Path 87311" d="M371.844,160.137l-1.769,2.055s3.67,1.7,4.7,3.544c0,0,2.169-2.162,2.135-2.268A12.356,12.356,0,0,0,371.844,160.137Z" transform="translate(-193.149 -104.247)" fill="#fae1d3"/>
    <path id="Path_87312" data-name="Path 87312" d="M491.7,156.56l-2.91-1.043s.017,4.982-1.355,7.029c0,0,3.206,1.448,3.3,1.36A16.3,16.3,0,0,0,491.7,156.56Z" transform="translate(-239.474 -102.597)" fill="#fae1d3"/>
    <path id="Path_87313" data-name="Path 87313" d="M457.614,90.526,455.15,93.39s5.115,2.371,6.556,4.939c0,0,3.022-3.013,2.976-3.161S461.195,91.464,457.614,90.526Z" transform="translate(-226.73 -79.389)" fill="#fae1d3"/>
    <path id="Path_87314" data-name="Path 87314" d="M112,135.568l-2.195,2.551s4.555,2.111,5.839,4.4c0,0,2.692-2.683,2.651-2.815A15.351,15.351,0,0,0,112,135.568Z" transform="translate(-90.416 -95.473)" fill="#fae1d3"/>
    <path id="Path_87315" data-name="Path 87315" d="M487.384,76.332l.378,2.03s2.577-1.582,4.071-1.427c0,0-.261-2.332-.336-2.358A8.9,8.9,0,0,0,487.384,76.332Z" transform="translate(-239.453 -73.693)" fill="#fae1d3"/>
    <path id="Path_87316" data-name="Path 87316" d="M236.722,407.909l.378,2.03s2.577-1.582,4.071-1.427c0,0-.261-2.332-.337-2.357A8.894,8.894,0,0,0,236.722,407.909Z" transform="translate(-140.513 -192.099)" fill="#fae1d3"/>
    <path id="Path_87317" data-name="Path 87317" d="M337.462,392.989l.378,2.03s2.577-1.582,4.071-1.427c0,0-.262-2.332-.337-2.358A8.9,8.9,0,0,0,337.462,392.989Z" transform="translate(-180.276 -186.771)" fill="#fae1d3"/>
    <path id="Path_87318" data-name="Path 87318" d="M120.155,197.463l.378,2.03s2.577-1.583,4.071-1.427c0,0-.261-2.332-.337-2.358A8.891,8.891,0,0,0,120.155,197.463Z" transform="translate(-94.502 -116.949)" fill="#fae1d3"/>
    <path id="Path_87319" data-name="Path 87319" d="M289.986,381.745l.378,2.03s2.577-1.582,4.071-1.427c0,0-.262-2.331-.336-2.357A8.9,8.9,0,0,0,289.986,381.745Z" transform="translate(-161.537 -182.756)" fill="#fae1d3"/>
    <path id="Path_87320" data-name="Path 87320" d="M366.4,98.35l.378,2.03s2.577-1.583,4.071-1.427c0,0-.261-2.332-.336-2.358A8.9,8.9,0,0,0,366.4,98.35Z" transform="translate(-191.698 -81.556)" fill="#fae1d3"/>
    <path id="Path_87321" data-name="Path 87321" d="M455.674,387.1l.378,2.03s2.577-1.583,4.071-1.427c0,0-.261-2.332-.337-2.358A8.9,8.9,0,0,0,455.674,387.1Z" transform="translate(-226.936 -184.668)" fill="#fae1d3"/>
    <path id="Path_87322" data-name="Path 87322" d="M323.61,102.8l1.658,1.087s.662-3.083,1.786-4.14c0,0-1.787-1.384-1.855-1.343A10.138,10.138,0,0,0,323.61,102.8Z" transform="translate(-174.809 -82.2)" fill="#fae1d3"/>
    <path id="Path_87323" data-name="Path 87323" d="M431.408,244.514l1.985-2.042s1.8,4.057,3.661,5.158c0,0-2.078,2.494-2.185,2.46A13.933,13.933,0,0,1,431.408,244.514Z" transform="translate(-217.358 -133.648)" fill="#fae1d3"/>
    <path id="Path_87324" data-name="Path 87324" d="M612.428,157.665l1.985-2.042s1.8,4.056,3.661,5.158c0,0-2.079,2.494-2.185,2.46A13.937,13.937,0,0,1,612.428,157.665Z" transform="translate(-288.81 -102.635)" fill="#fae1d3"/>
    <path id="Path_87325" data-name="Path 87325" d="M382.515,319.352l1.985-2.043s1.8,4.056,3.66,5.157c0,0-2.079,2.494-2.184,2.46A13.927,13.927,0,0,1,382.515,319.352Z" transform="translate(-198.059 -160.373)" fill="#fae1d3"/>
    <path id="Path_87326" data-name="Path 87326" d="M151.054,219.962l2.615-.192s-1.551-3.922-1.1-6.014c0,0-2.974-.024-3.019.077A13.841,13.841,0,0,0,151.054,219.962Z" transform="translate(-106.1 -123.393)" fill="#fae1d3"/>
    <path id="Path_87327" data-name="Path 87327" d="M185.9,380.565l2.339-.171s-1.389-3.508-.987-5.379c0,0-2.66-.022-2.7.069A12.379,12.379,0,0,0,185.9,380.565Z" transform="translate(-119.92 -180.979)" fill="#fae1d3"/>
    <path id="Path_87328" data-name="Path 87328" d="M295.623,78.756l2.339-.172s-1.388-3.508-.987-5.379c0,0-2.66-.022-2.7.069A12.382,12.382,0,0,0,295.623,78.756Z" transform="translate(-163.227 -73.202)" fill="#fae1d3"/>
    <path id="Path_87329" data-name="Path 87329" d="M139.78,299.26l1.045-1.747s-2.893-.743-3.874-1.951c0,0-1.326,1.879-1.288,1.953A8.949,8.949,0,0,0,139.78,299.26Z" transform="translate(-100.623 -152.607)" fill="#fae1d3"/>
    <path id="Path_87330" data-name="Path 87330" d="M81.891,213.15l1.045-1.746s-2.893-.743-3.874-1.951c0,0-1.326,1.879-1.289,1.952A8.951,8.951,0,0,0,81.891,213.15Z" transform="translate(-77.773 -121.857)" fill="#fae1d3"/>
    <path id="Path_87331" data-name="Path 87331" d="M176.925,325.953l.054-2.719s3.673,1.425,5.573.862c0,0,.162,3.08.071,3.132A11.509,11.509,0,0,1,176.925,325.953Z" transform="translate(-116.91 -162.488)" fill="#fae1d3"/>
    <path id="Path_87332" data-name="Path 87332" d="M552.406,105.007l.055-2.719s3.673,1.424,5.573.862c0,0,.161,3.08.071,3.132A11.512,11.512,0,0,1,552.406,105.007Z" transform="translate(-265.118 -83.589)" fill="#fae1d3"/>
    <path id="Path_87333" data-name="Path 87333" d="M268.927,176.574l-2.173,1.814s-1.4-4.232-3.14-5.532c0,0,2.31-2.253,2.413-2.207A14.153,14.153,0,0,1,268.927,176.574Z" transform="translate(-151.127 -108)" fill="#fae1d3"/>
    <path id="Path_87334" data-name="Path 87334" d="M546.271,351.069l-2.174,1.814s-1.4-4.232-3.139-5.531c0,0,2.31-2.253,2.413-2.207A14.152,14.152,0,0,1,546.271,351.069Z" transform="translate(-260.599 -170.312)" fill="#fae1d3"/>
    <path id="Path_87335" data-name="Path 87335" d="M685.6,256.985l1.732.948s.437-3.127,1.48-4.273c0,0-1.881-1.233-1.947-1.187A10.221,10.221,0,0,0,685.6,256.985Z" transform="translate(-317.692 -137.219)" fill="#fae1d3"/>
    <path id="Path_87336" data-name="Path 87336" d="M624.224,226.537l1.485-2.295s-3.856-1.148-5.119-2.822c0,0-1.868,2.458-1.821,2.559A12.1,12.1,0,0,0,624.224,226.537Z" transform="translate(-291.312 -126.131)" fill="#fae1d3"/>
    <path id="Path_87337" data-name="Path 87337" d="M621.036,365.781l-.638-1.956s-2.347,1.945-3.847,2.009c0,0,.561,2.271.639,2.286A9.079,9.079,0,0,0,621.036,365.781Z" transform="translate(-290.437 -176.984)" fill="#fae1d3"/>
    <path id="Path_87338" data-name="Path 87338" d="M537.2,292.806l-.638-1.956s-2.347,1.944-3.847,2.009c0,0,.561,2.271.638,2.286A9.071,9.071,0,0,0,537.2,292.806Z" transform="translate(-257.344 -150.924)" fill="#fae1d3"/>
    <path id="Path_87339" data-name="Path 87339" d="M689.333,138.979l-.015,2.936s-3.989-1.471-6.031-.829c0,0-.224-3.323-.126-3.379A12.4,12.4,0,0,1,689.333,138.979Z" transform="translate(-316.719 -96.227)" fill="#fae1d3"/>
  </g>
</svg>
