<svg xmlns="http://www.w3.org/2000/svg" width="18.383" height="12.859" viewBox="0 0 18.383 12.859"><defs><style>.a{fill:#f4f4f4;stroke:#f4f4f4;}.b{fill:#2c2c2c;stroke:#2c2c2c;stroke-width:0.6px;}</style></defs><g transform="translate(-294.793 -18.814)"><path class="a" d="M17.206,36.769a.61.61,0,0,0,0-.732A11.451,11.451,0,0,0,14.938,33.9a10.657,10.657,0,0,0-6.273-2.13A10.658,10.658,0,0,0,2.391,33.9,11.455,11.455,0,0,0,.122,36.037a.61.61,0,0,0,0,.732s.59.331,1.287-.366a11.3,11.3,0,0,1,1.732-1.544,9.313,9.313,0,0,1,5.523-1.873,9.313,9.313,0,0,1,5.523,1.873A15.037,15.037,0,0,1,15.919,36.4,1.543,1.543,0,0,0,17.206,36.769Z" transform="translate(295.321 -12.452)"/><path class="b" d="M16.126-192.078a8.207,8.207,0,0,1-1.754,1.564,9.433,9.433,0,0,1-5.595,1.9,9.435,9.435,0,0,1-5.595-1.9,10.345,10.345,0,0,1-1.754-1.564c-.9-.9-1.3-.371-1.3-.371a.618.618,0,0,0,0,.742,11.117,11.117,0,0,0,1.788,1.778l-.827,1.654a.618.618,0,0,0,.276.829.615.615,0,0,0,.276.065.618.618,0,0,0,.553-.342l.735-1.469a11.561,11.561,0,0,0,1.951,1.029L4.145-186.7a.618.618,0,0,0,.276.829.616.616,0,0,0,.276.065.618.618,0,0,0,.553-.342l.806-1.611a10.175,10.175,0,0,0,2.1.357v1.441a.618.618,0,0,0,.618.618.618.618,0,0,0,.618-.618V-187.4a10.174,10.174,0,0,0,2.1-.357l.806,1.611a.618.618,0,0,0,.553.342.616.616,0,0,0,.276-.065.618.618,0,0,0,.276-.829l-.732-1.463a11.565,11.565,0,0,0,1.951-1.029l.734,1.469a.618.618,0,0,0,.553.342.615.615,0,0,0,.276-.065.618.618,0,0,0,.276-.829l-.827-1.654a11.109,11.109,0,0,0,1.788-1.778.618.618,0,0,0,0-.742S16.918-192.946,16.126-192.078Z" transform="translate(295.208 216.715)"/></g></svg>