<svg xmlns="http://www.w3.org/2000/svg" width="18.602" height="10.371" viewBox="0 0 18.602 10.371"><defs><style>.a{fill:#2c2c2c;stroke:#2c2c2c;}</style></defs><path class="a" d="M15.635,58.609a11.1,11.1,0,0,0,1.788-1.777.618.618,0,0,0,0-.741,11.6,11.6,0,0,0-2.3-2.168,10.792,10.792,0,0,0-6.352-2.157,10.792,10.792,0,0,0-6.352,2.157,11.6,11.6,0,0,0-2.3,2.168.618.618,0,0,0,0,.741,11.112,11.112,0,0,0,1.788,1.777l1.013.737a11.557,11.557,0,0,0,1.95,1.029l1.179.4a10.172,10.172,0,0,0,2.1.357H9.391a10.171,10.171,0,0,0,2.1-.357l1.179-.4a11.558,11.558,0,0,0,1.95-1.029Zm-1.269-.585a9.43,9.43,0,0,1-5.593,1.9,9.431,9.431,0,0,1-5.593-1.9,11.4,11.4,0,0,1-1.753-1.563A11.4,11.4,0,0,1,3.181,54.9,9.431,9.431,0,0,1,8.773,53a9.43,9.43,0,0,1,5.593,1.9,11.4,11.4,0,0,1,1.753,1.563A11.4,11.4,0,0,1,14.366,58.024ZM8.743,53.9a2.544,2.544,0,1,0,2.544,2.544A2.547,2.547,0,0,0,8.743,53.9Zm0,4.053a1.508,1.508,0,1,1,1.508-1.508,1.51,1.51,0,0,1-1.508,1.508Z" transform="translate(0.528 -51.266)"/></svg>