<svg xmlns="http://www.w3.org/2000/svg" viewBox="0 0 500 500"><defs><style>.cls-1{fill:#3c5a96;}</style></defs><g id="LINE_LOGO" data-name="LINE LOGO"><g id="Group_18" data-name="Group 18"><path id="Path_2" data-name="Path 2" class="cls-1" d="M306.49,203.1h32.57V146.48A421,421,0,0,0,291.7,144c-46.88,0-79,29.48-79,83.67v49.85H160.94v63.26h51.72V500h63.4V340.75h49.63l7.87-63.3H276.05v-43.6c0-18.29,4.94-30.82,30.42-30.82Z"/><path id="Path_87215" data-name="Path 87215" class="cls-1" d="M306.49,203.1h32.57V146.48A421,421,0,0,0,291.7,144c-46.88,0-79,29.48-79,83.67v49.85H160.94v63.26h51.72V500h63.4V340.75h49.63l7.87-63.3H276.05v-43.6c0-18.29,4.94-30.82,30.42-30.82Z"/></g></g></svg>