<svg xmlns="http://www.w3.org/2000/svg" width="28.132" height="18" viewBox="0 0 28.132 18"><defs><style>.a{fill:#d44638;}</style></defs><path class="a" d="M0,8.936A9.069,9.069,0,0,1,9.179,0a8.961,8.961,0,0,1,6.008,2.464.6.6,0,0,1,0,.877l-1.614,1.52a.606.606,0,0,1-.824,0,5.582,5.582,0,1,0,1.517,5.991H9.871a.6.6,0,0,1-.6-.6V8.043a.6.6,0,0,1,.6-.6H18s0,2.006-.012,2.066A9,9,0,0,1,0,8.936ZM23.1,13.2a.528.528,0,0,1-.528-.528V10.516H20.41a.529.529,0,0,1-.528-.528V8.17a.529.529,0,0,1,.528-.529H22.57V5.482a.529.529,0,0,1,.528-.528h1.818a.529.529,0,0,1,.528.528V7.641H27.6a.528.528,0,0,1,.528.529V9.987a.528.528,0,0,1-.528.528H25.444v2.159a.528.528,0,0,1-.528.528Z"/></svg>