<svg xmlns="http://www.w3.org/2000/svg" xmlns:xlink="http://www.w3.org/1999/xlink" width="106.247" height="153" viewBox="0 0 106.247 153"><defs><style>.a{fill:none;}.b{fill:#f5c0a2;}.c{fill:#db9f7c;}.d{fill:#2e2c2b;}.e{fill:#ebeff5;}.f{fill:#6d6461;}.g{clip-path:url(#a);}.h{fill:#f1f2ff;}.i{fill:#b1bad4;}.j{fill:#9ba9c4;}.k{fill:#d7dfed;}.l{fill:#bcc8e0;}.m{fill:#fff1e8;}.n{fill:#fff;}.o{fill:#ab584f;}.p{clip-path:url(#b);}.q{fill:#2c2c2c;}.r{clip-path:url(#c);}.s{fill:rgba(0,0,0,0.25);}.t{clip-path:url(#d);}</style><clipPath id="a"><path class="a" d="M0,0H43.94V41.679H0Z"/></clipPath><clipPath id="b"><path class="a" d="M0,0H50.349V34.709H0Z"/></clipPath><clipPath id="c"><path class="a" d="M-.067,0H-.393V13.2h.327Z" transform="translate(0.393 0)"/></clipPath><clipPath id="d"><path class="a" d="M-.474,0H-12.257V5.641H-.474Z" transform="translate(12.257)"/></clipPath></defs><g transform="translate(0 0)"><g transform="translate(0 25.938)"><path class="b" d="M42.692,11.534s-4.063,4.435-6.4,6.589-4.878,2.566-5.319,3.264c-.133.211-.876,2.074-1.849,4.574-.627,1.6-1.345,3.47-2.06,5.329-1.864,4.859-3.69,9.679-3.69,9.679S10.926,38.307,7.7,36.882A80.35,80.35,0,0,1,0,32.7a107.988,107.988,0,0,0,4.663-11A45.843,45.843,0,0,0,6.081,16.92c.046-.2.091-.4.135-.595A46.485,46.485,0,0,0,7.6,7.969L10.831,0Z" transform="translate(15.817 58.978)"/><path class="b" d="M1.593,0S6.556,2.675,8.168,3.231s2.667,1.379,2.889,2.69S9.39,9.287,5.89,9.122,0,5.921,0,5.921Z" transform="translate(66.332 31.755)"/><path class="c" d="M.106,9.075a.1.1,0,0,1-.042-.009.106.106,0,0,1-.056-.139L3.815.064A.106.106,0,1,1,4.01.148L.2,9.01a.106.106,0,0,1-.1.064" transform="translate(29.956 77.38)"/><path class="c" d="M.106,2.937a.1.1,0,0,1-.041-.008A.106.106,0,0,1,.008,2.79L1.148.065a.106.106,0,1,1,.2.082L.2,2.872a.106.106,0,0,1-.1.065" transform="translate(33.763 78.329)"/><path class="d" d="M24.46,9.637c-.627,1.6-1.345,3.47-2.06,5.329l-10.318-4.3L0,5.376A45.852,45.852,0,0,0,1.417.6c.046-.2.091-.4.135-.6a.089.089,0,0,1,.021.008L7.1,2.646Z" transform="translate(20.48 75.303)"/><path class="e" d="M2.365.3l0-.01a.5.5,0,0,1,.6-.271A25,25,0,0,1,7.1,1.46c.166.431-2.242,6.278-2.721,6.215C4,7.624,1.359,6.432.293,5.945a.5.5,0,0,1-.252-.654S3.49,6.613,3.775,6.613,6.024,2.066,5.961,1.876A34.577,34.577,0,0,0,2.365.3" transform="translate(30.062 79.599)"/><path class="d" d="M2.3.006C2.177.126-.044,5.374,0,5.543a2.266,2.266,0,0,0,.966.4c.1-.063,2.3-5.34,2.3-5.513,0-.119-.918-.476-.974-.42" transform="translate(27.281 78.435)"/><path class="d" d="M2.3.006C2.177.126-.044,5.374,0,5.543a2.264,2.264,0,0,0,.966.4c.1-.063,2.3-5.34,2.3-5.513,0-.119-.919-.475-.974-.42" transform="translate(24.368 77.168)"/><path class="e" d="M1.762.849,1.7,1.01a.267.267,0,0,1-.348.147L.167.676A.267.267,0,0,1,.02.327L.085.167A.267.267,0,0,1,.433.02L1.615.5a.267.267,0,0,1,.147.348" transform="translate(34.724 83.567)"/><path class="f" d="M.106,4.807A.1.1,0,0,1,.065,4.8.106.106,0,0,1,.008,4.66L1.924.065a.106.106,0,0,1,.2.082L.2,4.742a.106.106,0,0,1-.1.065" transform="translate(28.377 79.19)"/><path class="f" d="M.106,4.764a.1.1,0,0,1-.041-.008.106.106,0,0,1-.057-.139L1.911.065a.106.106,0,1,1,.2.082L.2,4.7a.106.106,0,0,1-.1.065" transform="translate(27.353 78.778)"/><path class="f" d="M.106,4.712A.1.1,0,0,1,.065,4.7a.106.106,0,0,1-.057-.139L1.886.065a.106.106,0,1,1,.2.081L.2,4.647a.106.106,0,0,1-.1.065" transform="translate(25.475 77.992)"/><path class="f" d="M.106,4.7A.1.1,0,0,1,.065,4.7a.106.106,0,0,1-.057-.139L1.887.065a.106.106,0,1,1,.2.082L.2,4.639a.106.106,0,0,1-.1.065" transform="translate(24.451 77.54)"/><path class="f" d="M2.172,4.613A.105.105,0,0,1,2.115,4.6,5.106,5.106,0,0,1,.874,3.237,5.211,5.211,0,0,1,0,.895C0,.69.374.532,1.229.221L1.376.167A12.562,12.562,0,0,1,3.976,0a.106.106,0,0,1,.1.108.112.112,0,0,1-.108.1A12.838,12.838,0,0,0,1.449.366L1.3.42A4.321,4.321,0,0,0,.209.911a5.17,5.17,0,0,0,.839,2.2,5.026,5.026,0,0,0,1.182,1.3.106.106,0,0,1-.057.2" transform="translate(22.03 77.38)"/><path class="f" d="M.3.6A.3.3,0,1,1,.6.3.3.3,0,0,1,.3.6Z" transform="translate(27.249 80.397)"/><path class="f" d="M.3.6A.3.3,0,1,1,.6.3.3.3,0,0,1,.3.6Z" transform="translate(32.34 82.564)"/><path class="f" d="M.3.6A.3.3,0,1,1,.6.3.3.3,0,0,1,.3.6Z" transform="translate(37.634 84.798)"/><path class="f" d="M.3.6A.3.3,0,1,1,.6.3.3.3,0,0,1,.3.6Z" transform="translate(30.004 81.585)"/><path class="c" d="M.106,6.144a.1.1,0,0,1-.041-.008A.106.106,0,0,1,.008,6,21.488,21.488,0,0,0,.914,3.122a5.756,5.756,0,0,0,0-2.981.106.106,0,0,1,.2-.069,5.858,5.858,0,0,1,0,3.1A21.69,21.69,0,0,1,.2,6.079a.106.106,0,0,1-.1.065" transform="translate(35.183 69.74)"/><path class="c" d="M3.012.928C2.735.928,2.4.918,2,.888A2.928,2.928,0,0,1,.026.176.106.106,0,1,1,.186.036a2.806,2.806,0,0,0,1.828.64,10.09,10.09,0,0,0,1.831,0,.106.106,0,0,1,.027.21,7.305,7.305,0,0,1-.86.041" transform="translate(42.552 79.357)"/><path class="c" d="M.106,1.068A.106.106,0,0,1,.052.87L1.5.015A.106.106,0,1,1,1.6.2L.16,1.053a.1.1,0,0,1-.054.015" transform="translate(37.504 70.089)"/><g transform="translate(0 85.384)"><path class="a" d="M0,0H43.94V41.679H0Z" transform="translate(0 0)"/><g class="g" transform="translate(0 0)"><path class="h" d="M6.744,21.864a35.425,35.425,0,0,0,3.56-9.227,12.261,12.261,0,0,1,1.545-4.46,42.139,42.139,0,0,0,3.017-4.229C16.577.591,16.431-.74,18.5.4S43.18,11.407,43.75,11.512s-.467,9.611-.467,9.611.429-.38.639,4.565c.195,4.626-1.129,12.968-4.863,15.99,0,0-21.721-2.685-26.282-4.967S-.715,35.761.046,32.148c.784-3.719,3.9-6.178,6-9.182C6.292,22.607,6.528,22.241,6.744,21.864Z" transform="translate(0 0)"/></g></g><path class="i" d="M22.982-.408Q11.711-4.5.251-8.478c-.6-.21-.008-.681.6-.468Q12.437-4.924,23.828-.791c.6.218-.25.6-.846.383" transform="translate(14.42 100.403)"/><path class="i" d="M20.224-.453Q10.305-5,.221-9.42c-.531-.233-.007-.756.531-.52Q10.945-5.471,20.969-.879c.529.242-.22.666-.745.426" transform="translate(21.15 106.212)"/><path class="j" d="M.607.8,0,0V.6Z" transform="translate(74.913 5.939)"/><path class="j" d="M0,.07.695,1V0Z" transform="translate(27.447 66.704)"/><path class="j" d="M36.694,72.727,1.818,67.693a2.122,2.122,0,0,1-1.8-2.4L9.175,1.819a2.121,2.121,0,0,1,2.4-1.8L46.453,5.056a2.121,2.121,0,0,1,1.8,2.4L39.1,70.93a2.121,2.121,0,0,1-2.4,1.8" transform="translate(27.655 0.798)"/><path class="k" d="M36.694,72.727,1.818,67.693a2.122,2.122,0,0,1-1.8-2.4L9.175,1.819a2.121,2.121,0,0,1,2.4-1.8L46.453,5.056a2.122,2.122,0,0,1,1.8,2.4L39.1,70.93a2.121,2.121,0,0,1-2.4,1.8" transform="translate(27.063 0)"/><path class="e" d="M43.934,6.9,36.506,58.4a1.9,1.9,0,0,1-2.151,1.61L1.629,55.289A1.9,1.9,0,0,1,.02,53.135L7.448,1.63A1.9,1.9,0,0,1,9.6.02L42.324,4.744A1.9,1.9,0,0,1,43.934,6.9" transform="translate(29.221 6.358)"/><path class="l" d="M8.17,4.634,1.548,3.678A1.806,1.806,0,0,1,.019,1.633l.012-.084A1.806,1.806,0,0,1,2.076.019L8.7.975A1.806,1.806,0,0,1,10.227,3.02l-.012.084A1.806,1.806,0,0,1,8.17,4.634" transform="translate(41.666 64.622)"/><path class="m" d="M7.737,3.959,1.273,3.026A1.486,1.486,0,0,1,.015,1.343l.01-.069A1.485,1.485,0,0,1,1.707.015L8.171.948A1.486,1.486,0,0,1,9.429,2.631l-.01.069A1.486,1.486,0,0,1,7.737,3.959" transform="translate(42.067 64.961)"/><path class="l" d="M8.633,2.044a.434.434,0,0,1-.062,0L.363.844A.424.424,0,1,1,.485,0L8.694,1.2a.424.424,0,0,1-.06.844" transform="translate(51.105 4.591)"/><path class="l" d="M.887.443A.443.443,0,1,0,.443.887.443.443,0,0,0,.887.443" transform="translate(48.945 4.274)"/><path class="n" d="M36.486,6.9,0,1.63A1.9,1.9,0,0,1,2.151.02L34.877,4.744A1.9,1.9,0,0,1,36.486,6.9" transform="translate(36.668 6.358)"/><path class="k" d="M2.813,1.47,0,1.064.154,0,2.966.406Z" transform="translate(67.714 11.01)"/><path class="n" d="M.889.843,0,.715.1,0,.992.128Z" transform="translate(69.488 11.437)"/><path class="k" d="M1.668.738a.106.106,0,0,1-.1-.076A.718.718,0,0,0,.96.229.888.888,0,0,0,.182.42.106.106,0,0,1,.029.274,1.1,1.1,0,0,1,1,.019.919.919,0,0,1,1.77.6a.106.106,0,0,1-.1.136" transform="translate(39.417 6.821)"/><path class="k" d="M1.187.537a.106.106,0,0,1-.1-.066A.477.477,0,0,0,.718.224a.713.713,0,0,0-.545.1A.106.106,0,0,1,.038.164.921.921,0,0,1,.752.015a.685.685,0,0,1,.532.375.106.106,0,0,1-.058.138.105.105,0,0,1-.04.008" transform="translate(39.607 7.208)"/><path class="k" d="M.85.41A.106.106,0,0,1,.762.363.4.4,0,0,0,.482.215.558.558,0,0,0,.163.28.106.106,0,0,1,.049.1.757.757,0,0,1,.5,0,.614.614,0,0,1,.938.245.106.106,0,0,1,.909.392.1.1,0,0,1,.85.41" transform="translate(39.743 7.61)"/><path class="k" d="M.183.367A.184.184,0,1,1,.366.184.184.184,0,0,1,.183.367Z" transform="translate(39.993 7.94)"/><path class="k" d="M.106.711H.089A.106.106,0,0,1,0,.588l.083-.5A.106.106,0,0,1,.294.124l-.083.5a.106.106,0,0,1-.1.089" transform="translate(66.276 11.234)"/><path class="k" d="M.106.484H.089A.106.106,0,0,1,0,.361L.047.089A.106.106,0,1,1,.256.124L.211.4a.106.106,0,0,1-.1.089" transform="translate(65.939 11.402)"/><path class="k" d="M.106.954H.089A.106.106,0,0,1,0,.831L.125.089A.106.106,0,1,1,.334.124L.211.865a.106.106,0,0,1-.1.089" transform="translate(66.596 11.063)"/><path class="k" d="M.106,1.2H.089A.106.106,0,0,1,0,1.074L.165.089A.106.106,0,0,1,.375.124l-.164.985a.106.106,0,0,1-.1.089" transform="translate(66.945 10.887)"/><path class="b" d="M11.608,11.36c-.561,1.5-1.963,4.452-2.172,5.243S7.12,32.67,7.12,32.67L4.731,42.586S.134,36.788.009,32.51A46.323,46.323,0,0,1,1.627,20.777c.634-2.225,1.456-6.9,2.534-8.752S7.2,7.573,7.648,6.37c.061-.165.139-.4.23-.69C8.444,3.893,9.5.2,9.991.064a1.739,1.739,0,0,1,.3-.055c.7-.067,2.194.186,2.867,3.131.836,3.658-.99,6.724-1.551,8.22" transform="translate(20.207 30.936)"/><path class="b" d="M6.97.04c-.992.362-1.7.534-2.6.9a9.49,9.49,0,0,0-3.853,3.2A2.67,2.67,0,0,0,.388,7.1c.642,1.091,2.534,1.148,5.17.18s3.731-2.263,3.66-4.286C9.16,1.37,7.84-.278,6.97.04" transform="translate(64.483 48.071)"/><path class="b" d="M3.683,1.613A7.587,7.587,0,0,0,.359,4.605,3.284,3.284,0,0,0,.534,7.9c.713,1.046,2.262.96,4.827-.181S9.179,6.507,9.536,4.155C9.714,2.983,8.976.7,7.806.026c-.4-.23-3.255,1.159-4.124,1.588" transform="translate(63.643 41.449)"/><path class="b" d="M5.4,0A6.65,6.65,0,0,0,2.679.763C1.121,1.494-.318,2.82.062,4.59.5,6.648,2.559,6.276,4.385,5.5c1.1-.464,2.506-.6,2.958-1.842C7.761,2.514,7.609.9,6.547.28A2.285,2.285,0,0,0,5.4,0" transform="translate(64.065 56.503)"/><path class="o" d="M2.869,2.705A9.531,9.531,0,0,0,2.518.336C2.484.213,2.449.1,2.413,0a1.735,1.735,0,0,0-.3.055C1.685.175.83,2.983.243,4.888c-.087.285-.169.551-.243.783a2.093,2.093,0,0,0,1.832-.04,1.648,1.648,0,0,0,.686-.683,4.679,4.679,0,0,0,.352-2.243" transform="translate(28.085 30.944)"/><path class="o" d="M4.31,3.444a.954.954,0,0,1-.237.283A.8.8,0,0,1,4,3.781a9.816,9.816,0,0,1-.884.442,7.227,7.227,0,0,1-1.491.422C.486,4.9.086,3.956.013,3.321-.13,2.08.931,1.271,1.854.7A4.807,4.807,0,0,1,3.277,0a.239.239,0,0,1,.139.027,2.367,2.367,0,0,1,.823,1.263A2.811,2.811,0,0,1,4.31,3.444" transform="translate(65.6 50.401)"/><path class="o" d="M3.493,2.965a2.252,2.252,0,0,1-1.053.583,3.15,3.15,0,0,1-1.285.258A1.2,1.2,0,0,1,.043,2.237a2.873,2.873,0,0,1,.733-1.12A3.528,3.528,0,0,1,1.611.5,4.062,4.062,0,0,1,2.856,0a.2.2,0,0,1,.116.032,2,2,0,0,1,.611,1.119,3.116,3.116,0,0,1,.091,1.413,1.012,1.012,0,0,1-.18.4" transform="translate(64.737 58.073)"/><path class="o" d="M4.365,3.771a.99.99,0,0,1-.259.283.819.819,0,0,1-.08.051,9.53,9.53,0,0,1-.917.4,7.624,7.624,0,0,1-1.52.325C.2,5.081-.1,3.767.029,2.946a3.106,3.106,0,0,1,1.554-2A4.6,4.6,0,0,1,3.609,0a.227.227,0,0,1,.137.041,2.6,2.6,0,0,1,.72,1.421,3.215,3.215,0,0,1-.1,2.308" transform="translate(64.386 44.511)"/><path class="c" d="M2.719,1.29a.106.106,0,0,1-.083-.041A3.357,3.357,0,0,0,1.444.332a1.853,1.853,0,0,0-1.3,0,.106.106,0,0,1-.084-.2,2.049,2.049,0,0,1,1.459,0,3.518,3.518,0,0,1,1.28.984.106.106,0,0,1-.084.172" transform="translate(24.88 42.443)"/><path class="c" d="M1.642.558S1.019.416.7.353.082.209.079.209A.106.106,0,1,1,.133,0s.3.079.611.141.945.206.945.206Z" transform="translate(24.626 42.982)"/><path class="c" d="M2.687.957A.1.1,0,0,1,2.634.943,3.235,3.235,0,0,0,1.506.7,3.014,3.014,0,0,1,.041.19.106.106,0,0,1,.17.022a2.852,2.852,0,0,0,1.355.47A3.277,3.277,0,0,1,2.74.759a.106.106,0,0,1-.053.2" transform="translate(24.246 43.521)"/><path class="c" d="M.106,1.693a.106.106,0,0,1-.044-.2L3.329.01A.106.106,0,0,1,3.416.2L.15,1.684a.106.106,0,0,1-.044.009" transform="translate(67.834 48.123)"/></g><g transform="translate(55.898 19.986)"><path class="a" d="M0,0H50.349V34.709H0Z" transform="translate(0 0)"/><g class="p" transform="translate(0 0)"><path class="q" d="M2.109,2.691A8.409,8.409,0,0,0,.017,8.175C-.33,15.169,4.63,18.251,8.955,20.107c2.943,1.263,6.27,1.587,8.956,3.848,2.5,2.1,4.145,10.754,4.145,10.754a32.781,32.781,0,0,1,3.179-5.5,8.875,8.875,0,0,1,2.972-2.577,12.362,12.362,0,0,1,4.415-1.053c1.638-.2,3.284-.324,4.925-.5,4-.437,9.533-1.19,11.551-5.227a9.721,9.721,0,0,0,1.029-6.832c-1.146-5.258-5.553-7.165-9.18-8.283C34.712,2.811,15.781.811,12.75.233,9.745-.34,4.576.024,2.109,2.691" transform="translate(0 0)"/><path class="n" d="M28.717,6.879a.319.319,0,0,1-.367-.353A3.377,3.377,0,0,1,28.834,5.3,9,9,0,0,1,29.49,4.21h-.035c-.158,0-.471.008-.958.025-.532.019-.792.028-.828.028-.586,0-.883-.161-.883-.479s.1-.532.3-.621a3.121,3.121,0,0,1,1.082-.118c.552,0,1.059-.01,1.5-.031-.209-.28-.487-.685-.829-1.2A4.565,4.565,0,0,1,28.217.692a.661.661,0,0,1,.149-.416.466.466,0,0,1,.382-.188c.161,0,.49.378.977,1.123.184.3.465.742.836,1.311.093-.175.231-.426.421-.769.091-.164.246-.441.469-.833.342-.609.613-.918.8-.918a.368.368,0,0,1,.254.13.422.422,0,0,1,.129.31,8.578,8.578,0,0,1-1.249,2.591c.849-.053,1.619-.081,2.289-.086h.016c.451,0,.68.219.68.652,0,.245-.071.4-.211.471a1.9,1.9,0,0,1-.719.087c-.927,0-1.547.008-1.843.023a5.308,5.308,0,0,1,1.038,2,.646.646,0,0,1-.14.412.381.381,0,0,1-.281.177c-.182,0-.489-.354-.914-1.052a14.907,14.907,0,0,0-.8-1.264c-.182.284-.435.72-.75,1.295-.082.122-.187.285-.312.487C29.2,6.662,28.961,6.879,28.717,6.879Zm-8.929,0a.319.319,0,0,1-.367-.353A3.377,3.377,0,0,1,19.9,5.3a9,9,0,0,1,.657-1.091h-.035c-.158,0-.471.008-.958.025-.532.019-.792.028-.828.028-.586,0-.883-.161-.883-.479s.1-.532.3-.621a3.124,3.124,0,0,1,1.082-.118c.552,0,1.058-.01,1.5-.031-.211-.283-.489-.688-.828-1.2A4.632,4.632,0,0,1,19.287.692a.661.661,0,0,1,.149-.416.466.466,0,0,1,.382-.188c.161,0,.49.378.977,1.123.184.3.465.742.836,1.311.093-.175.231-.426.421-.769.091-.164.246-.441.469-.833.342-.609.613-.918.8-.918a.372.372,0,0,1,.254.13.425.425,0,0,1,.129.31,8.6,8.6,0,0,1-1.25,2.591c.849-.053,1.619-.081,2.289-.086h.016c.451,0,.68.219.68.652,0,.245-.071.4-.211.471a1.9,1.9,0,0,1-.719.087c-.927,0-1.547.008-1.843.023a5.318,5.318,0,0,1,1.039,2,.646.646,0,0,1-.141.412.381.381,0,0,1-.281.177c-.182,0-.489-.354-.914-1.052a14.906,14.906,0,0,0-.8-1.264c-.182.284-.435.72-.75,1.295-.082.122-.187.285-.312.487C20.273,6.662,20.032,6.878,19.788,6.878Zm-8.929,0a.319.319,0,0,1-.367-.353A3.366,3.366,0,0,1,10.976,5.3a8.9,8.9,0,0,1,.656-1.091H11.6c-.158,0-.471.008-.958.025-.532.019-.792.028-.828.028-.586,0-.883-.161-.883-.479s.1-.532.3-.621a3.124,3.124,0,0,1,1.082-.118c.552,0,1.058-.01,1.5-.031-.211-.283-.489-.688-.828-1.2A4.632,4.632,0,0,1,10.358.691a.661.661,0,0,1,.149-.416A.466.466,0,0,1,10.89.087c.161,0,.49.378.977,1.123.173.284.447.712.836,1.311.093-.175.231-.426.421-.769.091-.164.246-.441.469-.833C13.935.31,14.205,0,14.4,0a.372.372,0,0,1,.254.13.425.425,0,0,1,.129.31,8.6,8.6,0,0,1-1.25,2.591c.849-.053,1.619-.081,2.289-.086h.016c.451,0,.68.219.68.652,0,.245-.071.4-.211.471a1.9,1.9,0,0,1-.718.087c-.928,0-1.548.008-1.844.023a5.318,5.318,0,0,1,1.039,2,.646.646,0,0,1-.141.412.381.381,0,0,1-.281.177c-.182,0-.489-.354-.914-1.052a14.907,14.907,0,0,0-.8-1.264c-.182.284-.435.72-.75,1.295-.082.122-.187.285-.312.487C11.344,6.661,11.1,6.878,10.859,6.878Zm-8.929,0a.319.319,0,0,1-.367-.353A3.366,3.366,0,0,1,2.047,5.3,8.9,8.9,0,0,1,2.7,4.208H2.668c-.158,0-.471.008-.958.025-.532.019-.792.028-.828.028C.3,4.263,0,4.1,0,3.784s.1-.532.3-.621a3.124,3.124,0,0,1,1.082-.118c.552,0,1.058-.01,1.5-.031-.211-.283-.489-.688-.828-1.2A4.632,4.632,0,0,1,1.429.691.661.661,0,0,1,1.578.274.466.466,0,0,1,1.96.086c.161,0,.49.378.977,1.123.185.3.466.742.836,1.311.093-.175.231-.426.421-.769.091-.164.246-.441.469-.833C5.005.309,5.276,0,5.468,0a.372.372,0,0,1,.254.13.425.425,0,0,1,.129.31A8.6,8.6,0,0,1,4.6,3.03c.849-.053,1.619-.081,2.289-.086h.016c.451,0,.68.219.68.652,0,.245-.071.4-.211.471a1.9,1.9,0,0,1-.718.087c-.928,0-1.548.008-1.844.023a5.318,5.318,0,0,1,1.039,2,.646.646,0,0,1-.141.412.381.381,0,0,1-.281.177c-.182,0-.489-.354-.914-1.052a14.907,14.907,0,0,0-.8-1.264c-.182.284-.435.72-.75,1.295-.082.122-.187.285-.312.487C2.415,6.661,2.173,6.877,1.93,6.877Z" transform="translate(9.159 6.509) rotate(8)"/></g></g><g transform="translate(20.817)"><g transform="translate(23.111 8.082)"><path class="a" d="M-.067,0H-.393V13.2h.327Z" transform="translate(0.393 0)"/><g class="r" transform="translate(0 0)"><path class="s" d="M-.228,0C-.29,0-.34,2.956-.34,6.6s.05,6.6.112,6.6.112-2.956.112-6.6S-.166,0-.228,0" transform="translate(0.443 0)"/></g></g><g transform="translate(0 22.729)"><path class="a" d="M-.474,0H-12.257V5.641H-.474Z" transform="translate(12.257 0)"/><g class="t" transform="translate(0 0)"><path class="s" d="M-12.257,0c-.027.066,2.589,1.381,5.843,2.937S-.5,5.7-.474,5.639-3.063,4.258-6.317,2.7-12.23-.063-12.257,0" transform="translate(12.257 0)"/></g></g><path class="s" d="M-16.089,0a1.19,1.19,0,0,0,.13.253l.413.7c.361.607.9,1.473,1.577,2.539,1.354,2.131,3.3,5.026,5.509,8.185s4.177,6.035,5.568,8.14l1.644,2.5.453.675a1.208,1.208,0,0,0,.173.226,1.213,1.213,0,0,0-.13-.252l-.413-.7c-.361-.606-.9-1.472-1.577-2.539-1.353-2.13-3.3-5.026-5.51-8.186S-12.428,5.5-13.819,3.4L-15.462.9l-.453-.674A1.179,1.179,0,0,0-16.089,0" transform="translate(16.755 0)"/></g></g></svg>