<svg xmlns="http://www.w3.org/2000/svg" xmlns:xlink="http://www.w3.org/1999/xlink" width="153.783" height="158.622" viewBox="0 0 153.783 158.622"><defs><style>.a{fill:#fcf5f3;}.b{fill:#f7ebea;}.c{fill:none;}.d{clip-path:url(#a);}.e{clip-path:url(#b);}.f{fill:#232c44;}.g{clip-path:url(#c);}.h{fill:#f1f2ff;}.i{clip-path:url(#d);}.j{fill:#b06d51;}.k{fill:#e8674a;}.l{fill:#f5c0a2;}.m{fill:#db9f7c;}.n{fill:#fff;}.o{fill:#8f5238;}.p{clip-path:url(#e);}.q{fill:#b9bce9;}.r{fill:#f2d8cb;}.s{fill:#b1bad4;}.t{fill:#823a33;}.u{fill:#2e3054;}.v{fill:#d0dcf1;}.w{fill:#e4edf1;}.x{fill:#0b1238;}.y{fill:#a4767f;}.z{fill:#ebcbd1;}.aa{fill:#7a535b;}.ab{fill:#c3cfce;}.ac{fill:#3d3942;}</style><clipPath id="a"><path class="a" d="M81.84,109.284c23.518-7.621,33.126-43.358,25.589-74.765a64.2,64.2,0,0,0-9.106-21.483C91.784,3.628,82.152.2,73.14.006,65.945-.152,59,2.952,52.4,6.874c-10.685,6.349-22.139,8.26-32.818,14.3C8.753,27.295,1.8,40.689.284,57.4A63.063,63.063,0,0,0,2.9,82.626a37.684,37.684,0,0,0,20.664,23.129,81.928,81.928,0,0,0,58.273,3.529" transform="matrix(-0.407, 0.914, -0.914, -0.407, 147.996, 45.981)"/></clipPath><clipPath id="b"><path class="b" d="M86.305,95.749c24.809-6.7,34.957-38.02,27.019-65.533a51.68,51.68,0,0,0-9.6-18.816C96.834,3.162,86.676.171,77.17,0,69.582-.128,62.255,2.6,55.291,6.041,44.018,11.613,31.936,13.3,20.67,18.6,9.246,23.971,1.908,35.714.3,50.358a46.423,46.423,0,0,0,2.754,22.1C7.293,83.027,15.771,89.3,24.842,92.708a102.779,102.779,0,0,0,61.463,3.042" transform="translate(152.522 75.892) rotate(140)"/></clipPath><clipPath id="c"><path class="c" d="M0,0H21.412V46.476H0Z"/></clipPath><clipPath id="d"><path class="c" d="M0,0H33.167V33.829H0Z"/></clipPath><clipPath id="e"><path class="c" d="M0,0H22.393V44.015H0Z"/></clipPath></defs><g transform="translate(-8.1 -4.611)"><g transform="translate(1.105 147.52) rotate(-81)"><path class="a" d="M81.84,109.284c23.518-7.621,33.126-43.358,25.589-74.765a64.2,64.2,0,0,0-9.106-21.483C91.784,3.628,82.152.2,73.14.006,65.945-.152,59,2.952,52.4,6.874c-10.685,6.349-22.139,8.26-32.818,14.3C8.753,27.295,1.8,40.689.284,57.4A63.063,63.063,0,0,0,2.9,82.626a37.684,37.684,0,0,0,20.664,23.129,81.928,81.928,0,0,0,58.273,3.529" transform="matrix(-0.407, 0.914, -0.914, -0.407, 147.996, 45.981)"/><g class="d" transform="translate(0 0)"><g transform="translate(-17.298 2.67)"><path class="b" d="M86.305,95.749c24.809-6.7,34.957-38.02,27.019-65.533a51.68,51.68,0,0,0-9.6-18.816C96.834,3.162,86.676.171,77.17,0,69.582-.128,62.255,2.6,55.291,6.041,44.018,11.613,31.936,13.3,20.67,18.6,9.246,23.971,1.908,35.714.3,50.358a46.423,46.423,0,0,0,2.754,22.1C7.293,83.027,15.771,89.3,24.842,92.708a102.779,102.779,0,0,0,61.463,3.042" transform="translate(152.522 75.892) rotate(140)"/><g class="e" transform="translate(0 0)"><path class="f" d="M34.011,64.285C22.4,66.061,11.5,54.212,0,52.005c0,0,2.115-23.025,3.158-27.7.643-2.885,1.594-5.6,2.448-8.376A63.392,63.392,0,0,0,7.492,7.331c.235-1.463.454-2.932.724-4.384A2.641,2.641,0,0,1,9,1.112,6.736,6.736,0,0,1,11.8.387,24.774,24.774,0,0,1,15.274.113C20.13.039,25.013.43,29.862.728q4.106.253,8.21.576a29.146,29.146,0,0,1,6.622,1.087q-.158-1.024-.312-2.053c-.05-.339.348-.485.4-.143q.176,1.182.36,2.353c.158.055.316.106.473.167.255.1.147.62-.109.521-.09-.035-.181-.065-.271-.1a134.424,134.424,0,0,0,3.933,18.016,67.882,67.882,0,0,1,2.34,10.075c.28,1.944,1.537,25.922,1.706,27.886A16.886,16.886,0,0,1,48.681,61.3,95.044,95.044,0,0,1,34.011,64.285Z" transform="translate(86.383 45.419) rotate(81)"/></g></g></g></g><g transform="translate(52.909 4.611)"><g transform="translate(47.597 42.949)"><path class="c" d="M0,0H21.412V46.476H0Z" transform="translate(0 0)"/><g class="g" transform="translate(0 0)"><path class="h" d="M0,28.094S3.849,41.608,6.679,44.9a3.975,3.975,0,0,0,.333.35,1.856,1.856,0,0,0,.445.3,12.068,12.068,0,0,0,3.633.86,14.894,14.894,0,0,0,2.843,0c.158-.016.312-.033.466-.057a7.8,7.8,0,0,0,2.693-.8c2.219-1.235,3.741-7.819,4.3-10.152.291-1.234-2.128-8.259-4.576-15.139-.075-.218-.154-.436-.233-.654-2.1-5.9-4.16-11.551-4.476-13.189A7.043,7.043,0,0,0,10.1,3c-.137-.14-.274-.28-.416-.407A18.325,18.325,0,0,0,6.127.02L6.106.008A.022.022,0,0,1,6.089,0Z"/></g></g><g transform="translate(28.562 0)"><path class="c" d="M0,0H33.167V33.829H0Z" transform="translate(0)"/><g class="i" transform="translate(0)"><path class="j" d="M0,23.018c.019-4.237.354-8.465.385-12.7A11.016,11.016,0,0,1,2.2,4.83,12.107,12.107,0,0,1,9.883.3a22.238,22.238,0,0,1,15.3,3.051c4.335,2.765,5.071,7.309,5.532,12.037.257,2.637.51,5.28,1.026,7.882.649,3.274,2.557,7.133.478,10.261a.216.216,0,0,1-.4-.1,11.711,11.711,0,0,0-.989-3.92,26.534,26.534,0,0,1,.138,3.845c-.168-.01-.337-.024-.507-.048a.185.185,0,0,1-.1-.043c-.207.379-.653.264-1.473.279-.626.012-2.021.4-2.342-.276a6.72,6.72,0,0,1-.151-2.192c-.017-.524-.012-1.043-.053-1.554-.088.386-.235.754-.317,1.143a10.685,10.685,0,0,1-.586,2.978.217.217,0,0,1-.24.105,4.5,4.5,0,0,0-1.943-.115A4.576,4.576,0,0,1,22,33.82a5.219,5.219,0,0,1-2.229-.44.21.21,0,0,1-.079-.1c-1.367.112-2.981.418-4.21-.269a.209.209,0,0,1-.059.032c-.843.253-1.4-.25-2.133-.607a6.651,6.651,0,0,0-2.546-.546,7.965,7.965,0,0,0-3.227-1.066A34.851,34.851,0,0,0,.475,30.1,38.324,38.324,0,0,1,0,23.018" transform="translate(0 0)"/></g></g><path class="k" d="M.082,4.991A.7.7,0,0,0,1,5.475a.672.672,0,0,0,.249-.19,2.13,2.13,0,0,0,.142,1.433c.359.445.846.179,1.061-.266.153-.317.068-.66.184-.977.029-.08.054-.146.08-.214.171.315.411.668.782.639.964-.077.62-1.515.465-2.121-.236-.922-.554-1.824-.832-2.733C3.074.865,2.644-.461,2.407.169A6.748,6.748,0,0,1,1.262,2.161a9.27,9.27,0,0,0-.931,1A2.522,2.522,0,0,0,.082,4.991" transform="translate(47.722 26.938)"/><path class="l" d="M.289,31.14c-.008,3.537,4.249,6.188,7.271,6.9,1.744.411,5.467,1.2,6.571-.706.576-.995.137-2.369.6-3.471a.474.474,0,0,0,.075-.079,8.62,8.62,0,0,1,.873-2.574c.4.071,4.547-.189,8.94-6.3a55.121,55.121,0,0,0,6.157-11.52s-.058-5.6-.15-5.617c-.406-1.758-2.388-3.039-3.663-4.118A16.181,16.181,0,0,0,21.953.413C18.79-.669,14.926.478,12.308,2.654A10.95,10.95,0,0,0,8.945,8.5a1.493,1.493,0,0,0-.969-.469C6.644,7.881,5.833,9.488,5.7,10.6c-.255,2.182,1.649,5.907,1.649,5.907S2.1,28.328.055,30.771a.231.231,0,0,0,.234.369" transform="translate(25.244 4.707)"/><path class="j" d="M2.387,1.485s.533,2.373.7,3.362.524,3.306.29,3.448-.772-.111-1.652-.146A2.462,2.462,0,0,1,.022,7.187C-.062,7.012.12,0,.12,0Z" transform="translate(28.357 22.075)"/><path class="f" d="M.046,1.119C.184.643.7-.374,1.228.142,1.5.4,1.358,1,1.252,1.3c-.122.352-.476.811-.885.778-.384-.031-.4-.6-.338-.893,0-.02.01-.044.018-.07" transform="translate(49.451 22.422)"/><path class="f" d="M.046,1.119C.184.643.7-.374,1.228.142,1.5.4,1.358,1,1.252,1.3c-.122.352-.476.811-.885.778-.384-.031-.4-.6-.338-.893,0-.02.011-.044.018-.07" transform="translate(40.46 18.949)"/><path class="m" d="M1.529,5.21a1.463,1.463,0,0,0,1.093-.4C3.4,4,3.787.28,3.8.122A.115.115,0,0,0,3.693,0,.12.12,0,0,0,3.56.1c0,.038-.4,3.806-1.123,4.561-.688.716-2.246.022-2.261.015a.128.128,0,0,0-.164.05.107.107,0,0,0,.055.149,4,4,0,0,0,1.461.334" transform="translate(42.535 22.422)"/><path class="n" d="M4.5,3.07A10.01,10.01,0,0,1,2.1,2.06,7.675,7.675,0,0,1,.047,0a4.286,4.286,0,0,0,.29,2.338c.509.769,2.093,1.741,3.025,1.42A6.511,6.511,0,0,0,4.5,3.07" transform="translate(39.423 27.285)"/><path class="m" d="M6.806,7.989a.112.112,0,0,0,0-.225A6,6,0,0,1,2.685,5.006,18.9,18.9,0,0,1,.217.08.111.111,0,0,0,.079,0,.113.113,0,0,0,0,.145a19.151,19.151,0,0,0,2.5,4.993C4.46,7.859,6.706,7.985,6.8,7.989h0" transform="translate(33.544 27.98)"/><path class="j" d="M4.28,1.8a2.026,2.026,0,0,0,.595.274.509.509,0,0,0,.551-.8A2.627,2.627,0,0,0,4.411.577,5.826,5.826,0,0,0,2.12.01C1.7-.007.294-.047.029.353-.08.517.144.712.294.78a3.119,3.119,0,0,0,.733.187c.44.078.884.135,1.321.21A5.783,5.783,0,0,1,4.28,1.8" transform="translate(38.385 16.17)"/><path class="j" d="M2.845,2.044c.385.233.763.486,1.153.719a2.986,2.986,0,0,0,.689.341c.162.046.466.036.5-.171C5.257,2.424,4.151,1.5,3.822,1.238A5.606,5.606,0,0,0,1.682.158,2.579,2.579,0,0,0,.431.042.552.552,0,0,0,.3,1.072a1.954,1.954,0,0,0,.643.176,5.561,5.561,0,0,1,1.9.8" transform="translate(49.106 19.643)"/><path class="n" d="M.4.026A.824.824,0,0,1,1.18.244.656.656,0,0,1,.767,1.375a.539.539,0,0,1-.312-.019A.77.77,0,0,1,0,.628a.542.542,0,0,1,.4-.6" transform="translate(30.777 18.949)"/><path class="k" d="M.082,4.991A.7.7,0,0,0,1,5.476a.675.675,0,0,0,.249-.19,2.128,2.128,0,0,0,.142,1.433c.359.445.846.179,1.061-.266.153-.317.068-.66.184-.977.029-.08.054-.146.08-.213.171.315.411.668.782.639.964-.077.62-1.515.464-2.121-.236-.922-.554-1.824-.832-2.733C3.074.865,2.644-.461,2.407.169A6.748,6.748,0,0,1,1.262,2.161a9.292,9.292,0,0,0-.931,1A2.522,2.522,0,0,0,.082,4.991" transform="translate(28.703 20.685)"/><path class="m" d="M.522,4.863a.116.116,0,0,0,.033-.228A.534.534,0,0,1,.24,3.992c.084-.643.247-.882.671-.984a.557.557,0,0,0,.368-.268A1.677,1.677,0,0,0,1.251,1.5,11.888,11.888,0,0,0,.661.065a.116.116,0,1,0-.208.1,11.914,11.914,0,0,1,.575,1.4c.184.63.129.923.051,1.059a.329.329,0,0,1-.221.158c-.6.142-.767.557-.848,1.18a.773.773,0,0,0,.479.9.112.112,0,0,0,.033,0" transform="translate(32.507 14.086)"/><path class="j" d="M.266,6.322c.6-1.674,2.053-2.764,3.323-3.91A12.051,12.051,0,0,1,5.519.737,6.7,6.7,0,0,1,8.2.086a18.273,18.273,0,0,1,6.1.438A34.9,34.9,0,0,1,20.113,2.51a8.517,8.517,0,0,1,3.712,3.128A9.539,9.539,0,0,1,25.207,11.6c-.113,1.356-.134,5.649-.953,6.462-1.7-1.142-4.65-3.947-6.26-4.944-.011-.007-.063-.826-.074-.832a4.5,4.5,0,0,1-.152-1.868,6.636,6.636,0,0,0-.276-2.051c-.141-.414-.52-.843-.5-1.3-.027.575-.071,1.15-.137,1.724a11.524,11.524,0,0,0-.2,3.637,13.894,13.894,0,0,0-3.032-.841,2.114,2.114,0,0,1-.294-.506c-.162-.39-.372-.884-.562-1.413.007.657.024,1.314.061,1.972.012.2-.3.315-.4.119A14.053,14.053,0,0,1,11.33,8.972c-.207-.868-.013-1.883-.189-2.76-.6,1.861-1.627,3.913-3.632,3.958a.2.2,0,0,1-.023,0A10.234,10.234,0,0,1,7.93,8.682c.061-.141.112-.287.169-.43-1.844,1.971-4.681,3.867-7.049,1.918A3.392,3.392,0,0,1,.266,6.322" transform="translate(32.161 3.318)"/><path class="o" d="M1.866,11.463a.107.107,0,0,0,.1-.09,7.276,7.276,0,0,0-.062-2.79c-.062-.263-.121-.483-.172-.677a5.558,5.558,0,0,1-.15-2.657C1.794,3.4.264.2.2.061A.1.1,0,0,0,.057.013.118.118,0,0,0,.012.166C.028.2,1.577,3.446,1.376,5.221a5.745,5.745,0,0,0,.156,2.747c.051.193.109.41.17.672a7.176,7.176,0,0,1,.061,2.686.114.114,0,0,0,.081.135l.022,0" transform="translate(54.984 7.138)"/><path class="o" d="M1.2,6.252a.122.122,0,0,0,.118-.085A5.153,5.153,0,0,0,1.274,4.2C1.066,2.837.25.112.241.085A.123.123,0,0,0,.089,0,.115.115,0,0,0,0,.148c.008.027.82,2.737,1.026,4.083a5.133,5.133,0,0,1,.052,1.875.116.116,0,0,0,.087.142.129.129,0,0,0,.032,0" transform="translate(53.947 8.875)"/><path class="o" d="M1.128,4.516A5.62,5.62,0,0,0,4.388,3.34,20.218,20.218,0,0,0,7.583.182.111.111,0,0,0,7.565.025a.113.113,0,0,0-.158.018A19.991,19.991,0,0,1,4.256,3.158c-2.338,1.666-4.083.994-4.1.987a.113.113,0,0,0-.147.061.111.111,0,0,0,.061.146,2.992,2.992,0,0,0,1.058.164" transform="translate(33.544 8.528)"/><path class="o" d="M.912,8.337H.917a.119.119,0,0,0,.121-.118A19.458,19.458,0,0,0,.445,4.443,10.345,10.345,0,0,1,.573.139.114.114,0,0,0,.478,0a.127.127,0,0,0-.15.086A10.354,10.354,0,0,0,.2,4.5,19.23,19.23,0,0,1,.786,8.227a.121.121,0,0,0,.126.109" transform="translate(57.059 24.159)"/><path class="o" d="M.153,4.168a.144.144,0,0,0,.151-.1L1.036.125C1.047.065.989.009.905,0A.151.151,0,0,0,.734.1L0,4.043c-.011.06.047.116.131.124h.02" transform="translate(52.564 28.327)"/><path class="l" d="M5.545,12.178c3.1,5.676,10.486,16.306,10.486,16.306s5.038-12.178,5.5-14.242S24.9,4.025,24.9,4.025L22.762,3.013l-.372-.177-1.416-.669S8.961,0,8.34,0A9.581,9.581,0,0,0,6.692.5C6.564.545,6.436.59,6.3.644A61.454,61.454,0,0,0,.06,3.2c-.518.413,2.38,3.3,5.485,8.978" transform="translate(18.674 34.58)"/><path class="o" d="M.113,10.421a.114.114,0,0,0,.112-.105A16.32,16.32,0,0,1,1.894,4.387C3.24,2.206,7.5.239,7.541.219A.116.116,0,0,0,7.6.068.112.112,0,0,0,7.449.01C7.272.091,3.086,2.026,1.7,4.265A16.571,16.571,0,0,0,0,10.3a.114.114,0,0,0,.1.124H.113" transform="translate(29.74 1.233)"/><path class="o" d="M.112,3.126a.111.111,0,0,0,.079-.033L3.08.191A.112.112,0,0,0,2.922.033L.033,2.936a.112.112,0,0,0,.079.191" transform="translate(38.385 6.791)"/><path class="h" d="M.018,45.318c.016.589.05,1.174.1,1.759a33.751,33.751,0,0,0,1.071,4.684s1.83-1.6,1.825-1.593c-.07.787-2.1,8.469-1.892,9.5a.888.888,0,0,0,.815.807,11.615,11.615,0,0,0,2.866.623,11.033,11.033,0,0,0,2.675-.672c.141-.041.277-.086.413-.128.07-.025.141-.045.211-.066a6.262,6.262,0,0,0,2.514-1.24,12,12,0,0,1,1.484-.985,7.378,7.378,0,0,0,3.73,1.586c.145.029.294.049.438.07.12.016.236.029.352.041a26.66,26.66,0,0,1,4.685.626q.217.062.434.136c.219.074.434.157.653.251a19.017,19.017,0,0,0,4.462,1.615,14.859,14.859,0,0,0,6.306-.346c.145-.037.289-.078.434-.12a26.48,26.48,0,0,0,5.222-2.2c.141-.078.281-.157.422-.231,1.191-.663,2.353-1.384,3.49-2.109a.217.217,0,0,0,.087.144c1.187.849,2.4,1.664,3.651,2.422.12.078.24.148.36.223q1.464.884,2.99,1.66c.546.28,1.274.717,1.885.346.757-.457.757-1.85.881-2.6.318-1.916-.9-9.9-.9-9.9s.914-2.67.719-3.683c-.451-2.319,1.145-4.334,1.191-6.625.045-2.249-.868-4.371-1.249-6.559a38.806,38.806,0,0,1-.231-7.622c0-.169.008-.342.012-.511v-.013a48.846,48.846,0,0,0-.265-6.27c-.021-.2-.045-.387-.07-.581a43.981,43.981,0,0,0-1.46-6.917A6.291,6.291,0,0,0,48.3,7.3l-.021-.012a.021.021,0,0,1-.016-.008,3.174,3.174,0,0,0-.538-.293c-.033-.012-2.564-1.038-5.243-2.122L42.092,4.7c-2.907-1.178-5.855-2.369-5.855-2.369s-.922,3.547-1.629,5.71a25.321,25.321,0,0,0-.856,3.2,26.568,26.568,0,0,1-.5,2.875C32.681,15.939,30.9,16.961,30.2,18.7a4.808,4.808,0,0,0-.281,1.1c-.074.441-.12.882-.223,1.314-.012.066-.029.132-.045.2a11.8,11.8,0,0,1-.807,2.081,23.4,23.4,0,0,0-2.576-5.043c-.608-.894-1.29-1.738-1.828-2.678a9.105,9.105,0,0,1-1.013-3.37A7.992,7.992,0,0,0,22.509,9.3,14.133,14.133,0,0,0,20.54,7.057a7.886,7.886,0,0,1-1.5-3.378C18.688,2.41,18.332,0,18.332,0L17.15.276q-.192.049-.409.1c-1.89.449-5,1.22-6.7,1.763C8.016,2.789,5.994,3.4,4.464,4.952A11.654,11.654,0,0,0,1.9,9.208c-.128.358-.248.725-.356,1.092-.037.119-.07.243-.1.367a.242.242,0,0,0-.008.041,30.365,30.365,0,0,0-.794,4.149c-.008.074-.021.153-.029.227,0,0,0,.008,0,.012A33.4,33.4,0,0,0,.478,21.93c.19,2.241.645,4.462.674,6.715A48.833,48.833,0,0,1,.444,35.4c-.017.128-.033.255-.046.383-.066.556-.12,1.117-.161,1.677C.114,39.047.068,40.646.027,42.24,0,43.258-.015,44.288.018,45.318" transform="translate(5.533 35.622)"/><path class="l" d="M23.515,4.6s-4.8,5.287-8.153,9.475-7.605,9.613-9.8,9.544S-.26,14.969.015,14.11,9.2,8.514,12.073,6.729,21.117,0,21.117,0Z" transform="translate(12.449 59.59)"/><path class="n" d="M.015.242c.469,1.188.969,2.368,1.4,3.569a15.523,15.523,0,0,1,.4,3.438A11.21,11.21,0,0,0,3.762,11.81c.132-.041.26-.086.387-.127A10.165,10.165,0,0,1,2.135,6.241,7.53,7.53,0,0,0,1.67,3.386C1.251,2.3.817,1.218.391.136.294-.1-.078,0,.015.242" transform="translate(9.337 84.252)"/><g transform="translate(0 46.403)"><path class="c" d="M0,0H22.393V44.015H0Z" transform="translate(0 0)"/><g class="p" transform="translate(0 0)"><path class="h" d="M.394,37.693a13.6,13.6,0,0,0,5.3,5.4v0c.159.082.318.156.485.226.147.062.3.124.448.177a8.351,8.351,0,0,0,3.141.507c3.027-.083,6.991-2.708,9.663-4.781.11-.086.216-.173.318-.255,1.589-1.253,2.648-2.246,2.648-2.246a41.561,41.561,0,0,1-4.777-7.162A20.663,20.663,0,0,1,16.148,23.2L10.408,8.585s0,0,0,0L9.552,6.409,7.968,2.378v0L7.222.478,7.035,0a.253.253,0,0,0-.008.041c-.053.293-.375,2.04-.811,4.377,0,0,0,.008,0,.013-.864,4.649-2.167,11.618-2.7,14.07v.008c-.045.214-.094.429-.138.639-.795,3.565-1.764,6.866-1.764,6.866S-.962,35.357.394,37.693" transform="translate(0)"/></g></g><path class="n" d="M1.693,20.192a16.343,16.343,0,0,0,.587,4.585v0c.157.083.314.158.479.228-.024-.091-.052-.187-.077-.278a15.948,15.948,0,0,1-.358-6.678c.02-.137.044-.278.068-.42a33.919,33.919,0,0,0,.72-6.109,24.036,24.036,0,0,0-.519-4.859c-.093-.445-.2-.885-.318-1.325A34.5,34.5,0,0,0,.137,0C.093.216.044.432,0,.644A29.043,29.043,0,0,1,2.437,8.356a21.461,21.461,0,0,1,.193,5.175c-.076.926-.241,1.836-.406,2.749a25.205,25.205,0,0,0-.531,3.912" transform="translate(3.458 64.453)"/><path class="n" d="M.3,0A25.155,25.155,0,0,1,1.976,7.481c.08.863.1,1.729.1,2.593-.133-.021-.27-.042-.4-.07A27.754,27.754,0,0,0,.061.422C.038.368,0,.256,0,.256Z" transform="translate(19.711 85.294)"/><path class="n" d="M.348,0A19.469,19.469,0,0,0,.825,3.841v0c.093.4.2.8.331,1.2A15.785,15.785,0,0,0,2.4,7.884,39.02,39.02,0,0,0,4.77,11.572a32.89,32.89,0,0,1,3.7,6.133,22.663,22.663,0,0,1,1.459,6.567c.04.43.1,1.217.1,1.217l-.363.215a42.821,42.821,0,0,0-1.2-6.855A25.6,25.6,0,0,0,4.9,12.468c-.558-.793-1.12-1.59-1.653-2.4a0,0,0,0,0,0,0A22.733,22.733,0,0,1,1.265,6.5,16.787,16.787,0,0,1,.085,1.941C.053,1.66.024,1.38,0,1.094.105.727.222.359.348,0" transform="translate(7.262 44.653)"/><path class="n" d="M3.378,10.115A74.4,74.4,0,0,0,0,.381L.333,0S3.4,7.162,3.987,11.012c.507,3.321-.123,7.022-2.54,9.482q-.232-.074-.463-.135c2.7-2.595,3.135-6.715,2.394-10.244" transform="translate(25.936 75.568)"/><path class="n" d="M.2,10.724Q.1,5.41,0,.1.222.05.417,0,.512,4.748.6,9.5c.021,1.228.046,2.46.067,3.688a27.535,27.535,0,0,0,.2,4.335c.4,2.174,1.932,4.028,2.585,6.144a29.792,29.792,0,0,1,.7,5.567l-.429.3a29.9,29.9,0,0,0-.789-6.09c-.662-1.991-2.088-3.73-2.472-5.8A42.882,42.882,0,0,1,.2,10.724" transform="translate(22.132 35.622)"/><path class="n" d="M.55,15.507c.624,3.535,2.481,6.7,3.1,10.225A37.248,37.248,0,0,1,4,31.726c.025,1.768.037,3.531-.029,5.294a42.2,42.2,0,0,1-.5,5.357c.145-.037.289-.079.434-.12a45.387,45.387,0,0,0,.513-6.18c.078-3.61.281-7.484-.475-11.032-.8-3.755-2.749-7.1-3.171-10.962C.339,10.2.926,6.284.542,2.4.463,1.594.355.795.223,0,.149.439.1.882,0,1.316.141,2.393.236,3.477.269,4.57.38,8.213-.091,11.893.55,15.507" transform="translate(35.273 55.421)"/><path class="n" d="M0,54.883c.133-.078.265-.156.4-.23A33.349,33.349,0,0,1,1.476,47.26c.558-1.822,1.495-3.5,1.581-5.451a20.955,20.955,0,0,0-.929-5.677c-1.05-4.48-.2-8.746.874-13.123A27.116,27.116,0,0,0,4.15,16.8c.012-1.983-.785-3.814-1.132-5.731A30.725,30.725,0,0,1,3.455.16L3.088,0a31.217,31.217,0,0,0-.414,11.367c.429,2.242,1.273,4.245,1.007,6.586A56.382,56.382,0,0,1,2.26,24.416c-.933,3.953-1.452,7.816-.507,11.827.519,2.217,1.23,4.476.761,6.78-.4,1.97-1.409,3.739-1.819,5.718A49.742,49.742,0,0,0,0,54.883" transform="translate(44.61 40.485)"/><path class="n" d="M0,50.144c.121.079.241.149.362.223q.905-2.6,1.7-5.233c.229-.768.454-1.541.666-2.317q.562-2.014,1.058-4.044a27.774,27.774,0,0,0,1.041-6.03,25.961,25.961,0,0,0-.891-5.667,13.083,13.083,0,0,1,.216-6.658A37.426,37.426,0,0,0,5.7,14.791v-.012c0-.008,0-.021,0-.029a50.774,50.774,0,0,0,.141-6.514Q5.832,4.32,5.816.409C5.678.268,5.541.128,5.4,0q.019,4.238.033,8.484v.008c0,.388,0,.777,0,1.165a27,27,0,0,1-.45,6.654C4.5,18.248,3.68,20.09,3.314,22.057c-.729,3.911,1.357,7.567,1.057,11.47a39.431,39.431,0,0,1-1.366,6.642q-.293,1.152-.612,2.3-.506,1.846-1.074,3.672Q.7,48.151,0,50.144" transform="translate(51.872 45.348)"/><path class="q" d="M35.743,59.736a.112.112,0,0,1-.061-.15,13.787,13.787,0,0,0,1.063-4.5,36.961,36.961,0,0,0-.375-5.5c-.153-1.336-.3-2.6-.314-3.508-.04-2.172-1.46-17.661-1.474-17.818a.115.115,0,0,1,.108-.124.118.118,0,0,1,.129.1c.015.156,1.436,15.654,1.475,17.834.017.9.161,2.156.313,3.487a37.134,37.134,0,0,1,.377,5.535A14.014,14.014,0,0,1,35.9,59.678a.12.12,0,0,1-.109.068A.122.122,0,0,1,35.743,59.736Zm-28.365-5.9a.113.113,0,1,1,0-.227,21.01,21.01,0,0,0,3.447-.416A10.827,10.827,0,0,0,15.5,50.473c.831-.959,3.881-2.369,4.147-2.491.146-.121,1.6-1.321,1.9-1.588a.033.033,0,0,0,.012-.033c-.013-.214-.6-.713-1.014-1a.111.111,0,0,1-.027-.158.118.118,0,0,1,.161-.027c.182.126,1.088.772,1.112,1.17a.256.256,0,0,1-.088.214c-.321.282-1.852,1.548-1.918,1.6l-.026.016c-.032.015-3.264,1.494-4.082,2.438a11.127,11.127,0,0,1-4.8,2.8,21.313,21.313,0,0,1-3.493.422Zm48.1-2.112a10.768,10.768,0,0,1-2.533-2.835,8.809,8.809,0,0,1-.672-4.093c.089-.438.2-.86.292-1.231a8.149,8.149,0,0,0,.281-1.371,1.854,1.854,0,0,1,.808-1.189.122.122,0,0,1,.165.028.111.111,0,0,1-.029.159c-.007,0-.674.459-.706,1.015a8.323,8.323,0,0,1-.287,1.413c-.095.369-.2.788-.289,1.22a8.571,8.571,0,0,0,.66,3.968,10.828,10.828,0,0,0,2.465,2.744.111.111,0,0,1,.013.161.122.122,0,0,1-.167.013ZM.047,42.621a7.93,7.93,0,0,1,0-1.674c.1-.666.653-1.2,1.988-2.481l.411-.4c.433-.418.809-.832,1.172-1.233A7.365,7.365,0,0,1,6.91,34.361c1.509-.483,3.437.1,4.59.454a4.577,4.577,0,0,0,.785.2,9.485,9.485,0,0,0,2.409-1.306.112.112,0,0,1,.157.034.119.119,0,0,1-.033.162,10.03,10.03,0,0,1-2.533,1.344,4.151,4.151,0,0,1-.849-.213c-1.128-.343-3.016-.917-4.459-.455A7.188,7.188,0,0,0,3.784,37c-.365.4-.743.821-1.182,1.244l-.412.4C.933,39.845.359,40.4.272,40.983a7.813,7.813,0,0,0,0,1.612.117.117,0,0,1-.1.129H.159A.115.115,0,0,1,.047,42.621Zm66.146-3.08a4.389,4.389,0,0,0-1.569-1.611,7.024,7.024,0,0,0-2.045-.555l-.029,0-.948-.687a.122.122,0,0,1-.029-.162.1.1,0,0,1,.152-.031l.9.653a7.063,7.063,0,0,1,2.087.571,4.535,4.535,0,0,1,1.667,1.705.122.122,0,0,1-.039.16.1.1,0,0,1-.056.016A.107.107,0,0,1,66.193,39.541Zm-.277-2.725L61.644,35.71a.143.143,0,0,1-.087-.166c.013-.077.072-.126.132-.11l4.272,1.107a.144.144,0,0,1,.087.166.122.122,0,0,1-.109.113A.071.071,0,0,1,65.916,36.817ZM11.591,34.723a18.03,18.03,0,0,0-4.013-1.506,7.5,7.5,0,0,0-2.24.334.116.116,0,0,1-.145-.066.105.105,0,0,1,.07-.136A7.531,7.531,0,0,1,7.588,33,17.661,17.661,0,0,1,11.7,34.535a.1.1,0,0,1,.048.144.116.116,0,0,1-.1.057A.118.118,0,0,1,11.591,34.723ZM31.627,21.857A21.686,21.686,0,0,0,29.3,20.21a12.156,12.156,0,0,0-2.444-.951c-.62-.194-1.26-.4-1.88-.648l-.111-.045a7.15,7.15,0,0,0-4.5-.7c-1.292.209-1.877.2-2.158-.039a.849.849,0,0,1-.217-.693,9.119,9.119,0,0,1,.1-1.008,10.12,10.12,0,0,0,.113-2.425,4.431,4.431,0,0,1,.2-1.714,13.088,13.088,0,0,0,.428-2.865c.1-2.561.431-8.951.434-9.015A.114.114,0,0,1,19.371,0a.115.115,0,0,1,.109.12c0,.064-.331,6.453-.434,9.013a13.241,13.241,0,0,1-.434,2.909,4.2,4.2,0,0,0-.192,1.63,10.242,10.242,0,0,1-.113,2.484,9.085,9.085,0,0,0-.1.979c0,.256.023.423.136.518.213.18.8.176,1.972-.013a7.344,7.344,0,0,1,4.628.713l.111.045c.61.249,1.247.449,1.862.642a12.344,12.344,0,0,1,2.491.972,21.983,21.983,0,0,1,2.36,1.668.114.114,0,0,1,.016.161.116.116,0,0,1-.162.016Zm13.8-9.783c-.009-.036-.963-3.576-1.387-5.434a21.031,21.031,0,0,1-.467-3.745.112.112,0,0,1,.11-.115h0a.113.113,0,0,1,.112.111,20.781,20.781,0,0,0,.461,3.7c.424,1.854,1.376,5.39,1.385,5.426a.114.114,0,0,1-.079.14.124.124,0,0,1-.03,0A.113.113,0,0,1,45.426,12.074Z" transform="translate(1.383 36.664)"/><path class="n" d="M0,27.094c.15-.017.3-.033.442-.058.6-1.248,1.454-2.346,2.105-3.569a13.474,13.474,0,0,0,1.347-8.936C3.547,12.846,2.86,11.261,2.5,9.576a18.9,18.9,0,0,1-.367-5.254,19.258,19.258,0,0,1,.6-3.661C2.666.441,2.591.22,2.516,0a19.6,19.6,0,0,0-.723,3.657,19.827,19.827,0,0,0,.091,4.717,40.121,40.121,0,0,0,1.355,5.171A13.42,13.42,0,0,1,1.5,24.448,23.34,23.34,0,0,0,0,27.094" transform="translate(61.555 62.368)"/><path class="n" d="M4.583.351A.465.465,0,0,1,5.043,0l10.6.236a.464.464,0,0,1,.372.2l.153.225a.475.475,0,0,1,.062.4L13.75,9.39l-3.02,9.071-.284-.085-.025.085-.211-.007c-.1.345-.2.651-.2.651L.593,18.761a.464.464,0,0,1-.386-.235l-.145-.254a.476.476,0,0,1-.047-.355Z" transform="translate(40.46 44.306)"/><path class="r" d="M.114,17.715a.114.114,0,0,0,.11-.084L4.863.227,15.446.382a.113.113,0,1,0,0-.226L4.777,0a.115.115,0,0,0-.112.084L0,17.573a.113.113,0,0,0,.081.138.109.109,0,0,0,.029,0" transform="translate(40.806 45.348)"/><path class="l" d="M0,13.292a5.1,5.1,0,0,0,1.1,1.876,2.519,2.519,0,0,0,2.076.412,7.765,7.765,0,0,0,3.173-.9,17.849,17.849,0,0,0,3.768-3.989,11.158,11.158,0,0,1,3.1-1.594c.671-.2,1.5-.659,1.4-1.278-.174-1.052-1.4-.579-2.187-.384a17.719,17.719,0,0,0-3.3,1.181,10.274,10.274,0,0,1,4.722-2.463,5.515,5.515,0,0,0,2.379-.791,1.293,1.293,0,0,0,.345-1.2c.605-.217,1.123-.563,1.054-1.2-.109-1-1.588-.836-2.26-.807a13.27,13.27,0,0,0-6.1,1.78,7.134,7.134,0,0,1,2.467-1.9c.821-.311,4.067-.175,4.474-.743A.735.735,0,0,0,15.828.134,7.456,7.456,0,0,0,13.656.029,13.1,13.1,0,0,0,9,.882c-1.227.526-2.049,1.986-2.761,3.06-.077.116-.148.237-.223.355C4.4,6.318,3.575,7.736,2.119,9.879,1.582,10.668,0,13.292,0,13.292" transform="translate(31.469 49.169)"/><path class="m" d="M.111,2.779A.11.11,0,0,0,.2,2.739,6.782,6.782,0,0,1,2.884.919,17.755,17.755,0,0,1,7.155.229.113.113,0,0,0,7.262.111.113.113,0,0,0,7.147,0,17.991,17.991,0,0,0,2.813.7,6.878,6.878,0,0,0,.027,2.589a.118.118,0,0,0,.012.162.109.109,0,0,0,.072.028" transform="translate(40.46 52.99)"/><path class="l" d="M.168,11.032a.867.867,0,0,0-.138.673.723.723,0,0,0,.935.53c.966-.248.866-.749,1.8-1.085l.01.038c-.892,2.293-1.763,5.57.931,6.579.955.357,2.592.625,2.965-.648q1.01-3.45,1.957-6.919c.517-1.9,1.237-3.655.1-5.492A11.227,11.227,0,0,0,5.136,1.189,10.3,10.3,0,0,0,3.555.474C3.055.283,2-.307,1.5.2a.767.767,0,0,0,.134,1.072,5.131,5.131,0,0,0,1.088.68A11.119,11.119,0,0,1,5.5,3.949c.149.167.284.345.422.521a3.231,3.231,0,0,0-2.69-.722A5.8,5.8,0,0,0,1.643,5.006,3.1,3.1,0,0,0,.336,7.235,1.211,1.211,0,0,0,.5,7.878c.032.058.225.283.2.336L.7,8.236c-.306.735-1.019,2.029-.528,2.8" transform="translate(48.068 48.474)"/><path class="m" d="M.116,2.779a.116.116,0,0,0,.1-.061C.23,2.7,1.386.585,2.478.288A3.863,3.863,0,0,1,5.006.925.118.118,0,0,0,5.168.893.114.114,0,0,0,5.135.734,4.026,4.026,0,0,0,2.415.067C1.228.39.063,2.52.014,2.611a.113.113,0,0,0,.048.155.118.118,0,0,0,.055.014" transform="translate(48.76 53.684)"/><path class="m" d="M.113,3.126a.112.112,0,0,0,.095-.053C.225,3.047,1.866.474,2.814.262c.927-.206,1.819.871,1.828.882a.111.111,0,0,0,.16.014A.122.122,0,0,0,4.815.991C4.774.943,3.825-.2,2.767.032,1.729.263.088,2.834.019,2.943a.121.121,0,0,0,.032.164.11.11,0,0,0,.062.019" transform="translate(48.414 56.116)"/><path class="l" d="M0,2.147S.968,4.726,2.136,7.765c.147.375.294.758.441,1.141,1.519,3.935,3.206,8.189,3.508,8.482.572.558,2.667.46,3.741-.742,1.756-1.972,2.977-5.5,2.532-6.07-.278-.354-3.2-4.433-5.341-7.419-.461-.648-.89-1.239-1.242-1.736L4.753,0Z" transform="translate(50.143 62.716)"/><path class="f" d="M0,6.477c.146.383.292.774.438,1.165a7.5,7.5,0,0,0,3.675-3.4,7.869,7.869,0,0,0,.729-2.471C4.384,1.111,3.958.507,3.61,0a6.205,6.205,0,0,1-.591,3.69A6.283,6.283,0,0,1,0,6.477" transform="translate(52.218 63.758)"/><path class="n" d="M.494,3.894C1.3,5.3,2.822,5.939,3.886,5.323s1.271-2.255.462-3.66S2.02-.382.956.235-.315,2.489.494,3.894" transform="translate(54.293 63.758)"/><path class="r" d="M.918,3.126H.6A.607.607,0,0,1,.124,2.9a.568.568,0,0,1-.1-.509L.574.431A.6.6,0,0,1,1.157,0H1.47a.607.607,0,0,1,.48.23.565.565,0,0,1,.1.509L1.5,2.7A.6.6,0,0,1,.918,3.126ZM1.157.23A.366.366,0,0,0,.8.491L.251,2.449a.344.344,0,0,0,.062.309A.371.371,0,0,0,.6,2.9H.918a.366.366,0,0,0,.354-.262L1.824.678A.342.342,0,0,0,1.762.369.367.367,0,0,0,1.47.23Z" transform="translate(45.648 46.043)"/><path class="n" d="M0,.14A39.823,39.823,0,0,0,2.225,6.062c.129.235.313.565.53.962,2.53,4.61,5.03,8.922,6.181,9.261a.992.992,0,0,0,.288.041c1.373,0,2.713-2.781,3.623-4.663l.213-.433c.756-1.539,2.934-7.156,3.54-8.72l-.376-.177c-.58,1.5-2.8,7.2-3.539,8.716l-.213.437c-.8,1.655-2.287,4.742-3.414,4.407-1.148-.338-4.629-6.677-5.935-9.067-.221-.4-.4-.73-.534-.966A40.4,40.4,0,0,1,.4,0C.267.041.138.087,0,.14" transform="translate(24.899 35.274)"/><path class="n" d="M.01,1.6c.063.863.42,1.546.8,1.525s.631-.737.568-1.6S.954-.02.578,0-.054.737.01,1.6" transform="translate(33.198 51.253)"/><path class="r" d="M.569,1.042a.107.107,0,0,0,.072-.029A.17.17,0,0,0,.668.806L.222.061A.109.109,0,0,0,.051.029.17.17,0,0,0,.023.236L.47.981a.117.117,0,0,0,.1.061" transform="translate(44.956 44.306)"/><path class="s" d="M.117,10.073a.117.117,0,0,0,.115-.09,43.244,43.244,0,0,0,.773-4.938A13.92,13.92,0,0,1,2.751.171.112.112,0,0,0,2.708.016a.119.119,0,0,0-.16.042A14.152,14.152,0,0,0,.771,5.028,43.016,43.016,0,0,1,0,9.936a.114.114,0,0,0,.09.135l.025,0" transform="translate(35.965 112.735)"/><path class="s" d="M.114,9.031A.11.11,0,0,0,.18,9.009a36.126,36.126,0,0,0,3.162-2.9A22.917,22.917,0,0,0,7.252.164.117.117,0,0,0,7.2.011a.112.112,0,0,0-.15.058A22.668,22.668,0,0,1,3.185,5.94,36.914,36.914,0,0,1,.047,8.822a.117.117,0,0,0-.025.162.113.113,0,0,0,.092.048" transform="translate(10.374 95.367)"/><path class="t" d="M5.071,5.905a.117.117,0,0,0,.077-.029.119.119,0,0,0,.01-.166L.2.04A.116.116,0,0,0,.039.029.119.119,0,0,0,.029.2l4.955,5.67a.116.116,0,0,0,.087.04" transform="translate(50.489 95.02)"/></g><g transform="translate(93.083 83.402)"><path class="u" d="M1.463,0,5.258,43.377,0,46.755Z" transform="translate(35.754 10.044)"/><path class="v" d="M.485.581,0,46.755H35.7L37.156,0Z" transform="translate(0 10.044)"/><g transform="translate(8.156 0)"><path class="w" d="M1.788.889A.894.894,0,1,1,.894,0a.89.89,0,0,1,.893.889" transform="translate(17.326 15.083)"/><path class="w" d="M1.788.889A.894.894,0,1,1,.894,0a.891.891,0,0,1,.893.889" transform="translate(0 14.833)"/><path class="x" d="M0,4.208,2.342,0,5.2.829Z" transform="translate(27.513 52.495)"/><path class="x" d="M17.761,15.942c0-.041,0-.1,0-.166C17.768,13.76,17.491.282,9.133,0A6.221,6.221,0,0,0,4.648,1.622C.53,5.284.077,13.913.029,15.587c0,.058-.029.207-.029.241a.217.217,0,0,0,.223.208.219.219,0,0,0,.22-.175H.465c0-.007,0-.067,0-.172C.51,14.343.929,5.5,4.954,1.919A5.821,5.821,0,0,1,9.117.415c7.923.263,8.2,13.73,8.2,15.413,0,.039,0,.144,0,.152V16a.228.228,0,0,0,.221.162.219.219,0,0,0,.214-.154s.008-.062.007-.066" transform="translate(0.648)"/><path class="y" d="M1.339,0,4.813,40.137,0,43.263Z" transform="translate(36.425 16.998)"/><path class="z" d="M32.9,43.263H0L.447.537,34.239,0Z" transform="translate(3.526 16.998)"/><path class="w" d="M1.654.823A.827.827,0,1,1,.827,0a.824.824,0,0,1,.827.823" transform="translate(27 21.753)"/><path class="w" d="M1.654.822A.827.827,0,1,1,.827,0a.825.825,0,0,1,.827.822" transform="translate(10.969 21.522)"/><path class="aa" d="M0,3.893,2.166,0,4.813.767Z" transform="translate(36.425 56.369)"/><path class="x" d="M16.433,15.773c0-.041,0-.1,0-.164,0-1.995-.252-15.33-7.985-15.6A5.538,5.538,0,0,0,4.3,1.6C.491,5.227.072,13.765.027,15.422c0,.057-.027.2-.027.238a.207.207,0,0,0,.41.033c.02-.007.021-.065.024-.17C.472,14.191.86,5.44,4.584,1.9A5.181,5.181,0,0,1,8.436.41c7.331.26,7.586,13.584,7.588,15.249,0,.039,0,.142,0,.15v.021a.213.213,0,0,0,.2.16.2.2,0,0,0,.2-.153s.007-.061.006-.065" transform="translate(11.569 6.761)"/><g transform="translate(13.164 19.728)"><path class="ab" d="M.4.806A.4.4,0,0,1,.084.649.392.392,0,0,1,0,.355.4.4,0,0,1,.16.086.379.379,0,0,1,.4,0,.412.412,0,0,1,.726.156.4.4,0,0,1,.653.721.406.406,0,0,1,.4.806ZM.389.246A.288.288,0,0,0,.219.3.282.282,0,0,0,.17.694.277.277,0,0,0,.561.742a.271.271,0,0,0,.1-.183A.278.278,0,0,0,.389.246Z" transform="translate(1.706 1.348)"/><path class="ab" d="M4.885,10.426h0L0,4.13.273,1.879,2.718,0l2.26.309L9.865,6.6,4.886,10.426ZM2.123,1.474a.278.278,0,0,0-.275.242.271.271,0,0,0,.054.2.286.286,0,0,0,.393.053.281.281,0,0,0,.048-.39A.273.273,0,0,0,2.123,1.474Z" transform="translate(0 0)"/><path class="ab" d="M.574,1.142A.581.581,0,0,1,.116.919a.573.573,0,0,1,.109-.8A.565.565,0,0,1,.574,0a.569.569,0,0,1,.454.221.561.561,0,0,1,.117.419.576.576,0,0,1-.571.5Zm0-.848A.273.273,0,0,0,.407.351.278.278,0,0,0,.3.536a.271.271,0,0,0,.054.2A.285.285,0,0,0,.745.792.279.279,0,0,0,.793.4.273.273,0,0,0,.574.294Z" transform="translate(1.549 1.179)"/></g><path class="ab" d="M.4.805A.4.4,0,0,1,.084.649.392.392,0,0,1,0,.355.4.4,0,0,1,.16.086.379.379,0,0,1,.4,0,.412.412,0,0,1,.726.156.4.4,0,0,1,.653.721.407.407,0,0,1,.4.805ZM.39.246A.288.288,0,0,0,.219.3.283.283,0,0,0,.17.694.276.276,0,0,0,.561.742a.271.271,0,0,0,.1-.183A.279.279,0,0,0,.39.246Z" transform="translate(14.871 20.391)"/><path class="n" d="M4.885,10.426h0L0,4.13.273,1.879,2.718,0l2.26.309L9.865,6.6,4.886,10.426ZM2.123,1.474a.279.279,0,0,0-.276.242.271.271,0,0,0,.054.2.286.286,0,0,0,.393.053.281.281,0,0,0,.048-.39A.272.272,0,0,0,2.123,1.474Z" transform="translate(13.165 19.042)"/><path class="ac" d="M.574,1.142A.58.58,0,0,1,.116.919a.574.574,0,0,1,.109-.8A.566.566,0,0,1,.574,0a.569.569,0,0,1,.454.221.562.562,0,0,1,.117.42.576.576,0,0,1-.571.5Zm0-.847A.273.273,0,0,0,.406.351.277.277,0,0,0,.3.537a.27.27,0,0,0,.054.2A.285.285,0,0,0,.745.792.28.28,0,0,0,.793.4.274.274,0,0,0,.574.295Z" transform="translate(14.714 20.221)"/><path class="u" d="M.259.068.159,0,.093.1c-.31.463.236,1.581.483,2.044A8.441,8.441,0,0,0,2,4.095l.2-.155A7.8,7.8,0,0,1,.79,2.026,3.33,3.33,0,0,1,.252.357C.9.782,3.777,2.8,3.243,4.129a.386.386,0,0,1-.163.216.224.224,0,0,0,.034.121c0,.03,0,.06,0,.088s0,.028,0,.042a.59.59,0,0,0,.358-.378C4.146,2.551.418.167.259.068" transform="translate(11.931 16.444)"/><path class="u" d="M2.235,5.219a.8.8,0,0,1-.583-.326A.821.821,0,0,1,1.4,4.308.593.593,0,0,1,1.624,3.9l.987-.871a.613.613,0,0,1,.407-.171.819.819,0,0,1,.589.325.825.825,0,0,1,.253.583.6.6,0,0,1-.224.415l-.989.869A.626.626,0,0,1,2.235,5.219Zm.908-1.907a.265.265,0,0,0-.171.077L1.936,4.3a.224.224,0,0,0-.011.363.267.267,0,0,0,.193.105.261.261,0,0,0,.169-.074l1.031-.908a.246.246,0,0,0,.1-.169.268.268,0,0,0-.083-.194A.259.259,0,0,0,3.143,3.312ZM.312,3.341h0L0,2.989,4.346,1.847l.313.353L.312,3.341Zm1.352-.976A.807.807,0,0,1,1.08,2.04a.823.823,0,0,1-.255-.581.6.6,0,0,1,.225-.418L2.039.173A.622.622,0,0,1,2.45,0a.8.8,0,0,1,.583.326.819.819,0,0,1,.255.58.6.6,0,0,1-.227.417l-.989.869A.612.612,0,0,1,1.664,2.365ZM2.569.458h0A.262.262,0,0,0,2.4.535l-1.034.906a.253.253,0,0,0-.1.17.265.265,0,0,0,.083.187.265.265,0,0,0,.195.108.252.252,0,0,0,.166-.074l1.036-.9A.233.233,0,0,0,2.763.566.264.264,0,0,0,2.569.458Z" transform="translate(15.831 21.622)"/></g></g></g></svg>