<svg xmlns="http://www.w3.org/2000/svg" xmlns:xlink="http://www.w3.org/1999/xlink" width="143" height="161" viewBox="0 0 143 161"><defs><style>.a{fill:none;}.b{fill:#fcf5f3;}.c{clip-path:url(#a);}.d{clip-path:url(#b);}.e{fill:#f7ebea;}.f{fill:#f5c0a2;}.g{clip-path:url(#c);}.h{fill:#7f3e3e;}.i{fill:#6b3939;}.j{fill:#232c44;}.k{fill:#db9f7c;}.l{fill:#fff;}.m{fill:#452222;}.n{fill:#f1f2ff;}.o{fill:#b9bce9;}</style><clipPath id="a"><rect class="a" width="143" height="161" transform="translate(-0.313 0.041)"/></clipPath><clipPath id="b"><path class="b" d="M104.346,115.549c29.938-8,42.094-45.759,32.421-78.978a62.72,62.72,0,0,0-11.648-22.732C116.769,3.879,104.493.238,93.014.007c-9.165-.184-18,3.083-26.4,7.214-13.6,6.687-28.18,8.681-41.768,15.04C11.066,28.708,2.24,42.852.347,60.515a56.067,56.067,0,0,0,3.4,26.672c5.151,12.763,15.408,20.36,26.372,24.5a124.317,124.317,0,0,0,74.231,3.863" transform="matrix(-0.407, 0.914, -0.914, -0.407, 166.099, 48.594)"/></clipPath><clipPath id="c"><path class="a" d="M0,0H44.937V41.551H0Z"/></clipPath></defs><g transform="translate(0.746 0.409)"><rect class="a" width="143" height="161" transform="translate(-0.746 -0.409)"/><g class="c" transform="translate(-0.434 -0.449)"><g transform="translate(-44.591 -35.924)"><g transform="matrix(-0.875, -0.485, 0.485, -0.875, 145.274, 234.911)"><path class="b" d="M104.346,115.549c29.938-8,42.094-45.759,32.421-78.978a62.72,62.72,0,0,0-11.648-22.732C116.769,3.879,104.493.238,93.014.007c-9.165-.184-18,3.083-26.4,7.214-13.6,6.687-28.18,8.681-41.768,15.04C11.066,28.708,2.24,42.852.347,60.515a56.067,56.067,0,0,0,3.4,26.672c5.151,12.763,15.408,20.36,26.372,24.5a124.317,124.317,0,0,0,74.231,3.863" transform="matrix(-0.407, 0.914, -0.914, -0.407, 166.099, 48.594)"/><g class="d" transform="translate(0 0)"><path class="e" d="M110.307,122.15c31.648-8.46,44.5-48.373,34.273-83.49a66.3,66.3,0,0,0-12.313-24.03C123.44,4.1,110.462.251,98.327.008c-9.688-.194-19.032,3.259-27.91,7.626-14.372,7.069-29.79,9.177-44.154,15.9C11.7,30.348,2.368,45.3.367,63.972a59.27,59.27,0,0,0,3.589,28.2c5.445,13.492,16.288,21.524,27.879,25.9,24.592,9.28,53.266,10.821,78.472,4.084" transform="translate(149.679 89.921) rotate(140)"/></g></g><g transform="translate(47.595 58.348)"><path class="f" d="M12.4,13.474c-.16-.294-.316-.591-.475-.887a.192.192,0,0,0-.172-.323c-.793-1.5-1.547-3.027-2.284-4.561C9.079,6.9,8.7,6.088,8.315,5.276c-.328-.695-.652-1.391-.978-2.088C7.2,2.9,7.06,2.6,6.923,2.309Q6.4,1.206,5.877.111C5.769-.11,5.411.03,5.519.254c0,.009.01.019.013.031C4.068,1.277,1.489,3.275,0,4.234a7.129,7.129,0,0,0,.218.839c.114.4.266.925.446,1.536.2.67.424,1.441.664,2.259.311,1.049.641,2.174.957,3.263.228.781.446,1.545.645,2.246v0c.039.137.077.268.112.4.328,1.166.583,2.124.695,2.651A.2.2,0,0,0,4,17.586c1.361-.563,3.814-2.175,5.151-2.792.224-.1.083-.462-.143-.358l-.123.056c-.031-.185-.062-.371-.093-.556a24.443,24.443,0,0,1,2.783-1.186c.154.289.307.579.465.866.116.216.476.075.357-.142" transform="matrix(-0.174, -0.985, 0.985, -0.174, 90.378, 99.511)"/><g transform="translate(49.704 95.683)"><path class="a" d="M0,0H44.937V41.551H0Z" transform="translate(0 0)"/><g class="g" transform="translate(0 0)"><path class="h" d="M43.382,14.991c-.144-1.838-.281-3.617-.406-5.244-.014-.173-.027-.343-.041-.511l-.021-.277c-.014-.183-.029-.364-.041-.542s-.027-.355-.041-.53c-.007-.086-.013-.172-.02-.257s-.014-.193-.021-.29c-.018-.24-.036-.476-.053-.707s-.036-.472-.052-.7c-.157-2.1-.258-3.6-.271-4.093C42.356-.369,38.645.024,37.322.032c-.746.006-1.494.006-2.241.01-1.458,0-2.915.008-4.374.049A25.675,25.675,0,0,0,24,1.176a15.455,15.455,0,0,1-3.24.548l-.365.025c-1.2.076-2.413.088-3.644.193-2.189.187-4.31.975-6.479,1.351A10.727,10.727,0,0,1,5.635,2.277h0c-.141-.053-.276-.109-.413-.165C3.426,1.388,1.929.609,1.929.609S1.485,2.681,1.05,6.785c-.016.152-.032.308-.048.466-.025.253-.052.511-.077.776-.155,1.619-.3,3.5-.422,5.64C.019,22.321-.009,35.249,0,36.136c.016,1.68.085,3.642,1.539,4.391a5.333,5.333,0,0,0,1.92.419q1.792.191,3.589.318,3.185.231,6.376.275,3.769.052,7.537-.154l.356-.02q2.511-.145,5.017-.407a69.508,69.508,0,0,0,12.107-2.081,23.9,23.9,0,0,0,5.352-2.222c.465-.267,1.031-.485,1.142-1.171.052-.316-.819-11.167-1.553-20.494" transform="translate(0 0)"/></g></g><path class="i" d="M24.938,7.521a18.422,18.422,0,0,0-1.35-2.85,3.6,3.6,0,0,0-.223-1.492c-.461-1.11-2.265-1.614-3.323-1.8a7.01,7.01,0,0,0-1.986-.055,7.669,7.669,0,0,1-1.288.157c-.638-.036-.764-.429-1.231-.713A2.022,2.022,0,0,0,13.916.737.909.909,0,0,0,13.654.1c-.346-.26-1.277.037-1.615.171a4.357,4.357,0,0,0-1.608,1.395,7.178,7.178,0,0,1-2.3,1.776,19.591,19.591,0,0,0-2.51.96A6.547,6.547,0,0,0,3.928,6.02a6.826,6.826,0,0,0-1.5,4.158,3.277,3.277,0,0,0-.914.552A3.466,3.466,0,0,0,.026,12.787a5.7,5.7,0,0,0,.552,2.835A14.88,14.88,0,0,1,1.861,19.01a6.368,6.368,0,0,0,1.247,2.621,2.2,2.2,0,0,1,.321.8,5.852,5.852,0,0,0,.458,2.061,13.487,13.487,0,0,0,2.2,2.346l.244.24a.122.122,0,0,0,.023.021A21.063,21.063,0,0,1,8.86,29.92c.13.187.438.009.306-.18A19.621,19.621,0,0,0,6.84,27.086c-.251-.249-.5-.5-.757-.743-.415-.4-.828-.81-1.227-1.229-.114-.119-.228-.242-.337-.37l.011-.005a.287.287,0,0,0,.189-.062.017.017,0,0,1,.007-.009.683.683,0,0,1,.107-.009.589.589,0,0,0,.046.05,2.12,2.12,0,0,0,.858.529c.036.011.071.023.109.036a4.562,4.562,0,0,0,.593.141q.115.022.23.037c1.411.21,2.7.744,4.089,1.031,2.552.525,5.334-.427,7.612-1.521,1.783-.855,3.236-1.38,4.248-2.655a5.354,5.354,0,0,0,.725-1.218q.048-.115.1-.235c.016-.041.032-.082.046-.123.047-.119.091-.242.134-.367a18.88,18.88,0,0,0,.593-2.247c.454-2.2.679-4.666.931-6.593a7.042,7.042,0,0,0-.2-4" transform="translate(54.356 0)"/><path class="f" d="M19.92,15.448c0-.1-.007-.208-.011-.313-.013-.315-.027-.634-.043-.953-.009-.18-.02-.36-.03-.542v0c-.025-.451-.053-.9-.084-1.354v0q-.048-.686-.1-1.363a.034.034,0,0,1,0-.014A53.771,53.771,0,0,0,18.67,3.19a6.143,6.143,0,0,0-2.949-2.132q-.3-.139-.62-.294C14.933.681,14.76.592,14.588.5a6.138,6.138,0,0,0-4.036-.3C7.5.75,4.564,1.487,2.176,3.591a9.227,9.227,0,0,0-.93.935c-.082.094-.16.191-.235.29A5.466,5.466,0,0,0,.219,6.2,3.469,3.469,0,0,0,.012,7.742v0c.052.723.251,1.435.28,2.264,0,.025,0,.052.005.082a35.861,35.861,0,0,0,.851,4.151l.069.283h0c.084.34.173.689.266,1.04.125.472.253.947.386,1.419.119.427.242.853.367,1.268.007.027.016.053.023.08.027.089.053.176.08.263.087.288.176.57.265.842.08.253.162.5.244.734,0,.007.005.014.007.021a15.592,15.592,0,0,0,.93,2.258A12.364,12.364,0,0,0,6.379,25.73a8.013,8.013,0,0,0,5.053,2.158,7.061,7.061,0,0,0,2.269-.306,10.165,10.165,0,0,0,1.32-.5c.281-.13.556-.272.817-.426a10.262,10.262,0,0,0,2.274-1.909c1.007-1.07,1.421-3.574,1.623-4.995a42.2,42.2,0,0,0,.185-4.3" transform="translate(57.832 6.906)"/><path class="f" d="M29.965,16.983a1.519,1.519,0,0,0-.956-.467,20.126,20.126,0,0,1-2.183-.542,15.506,15.506,0,0,1-4.189-2.212,15.87,15.87,0,0,1-1.25-1.024c-.091-.082-.18-.166-.267-.253a5.639,5.639,0,0,1-1.539-2.267c-.05-.168-.1-.34-.137-.513a39.153,39.153,0,0,1-.623-4.711c-.023-.2-.046-.39-.073-.581-.167-1.206-.4-2.424-.495-3.638,0,0-.03-.386-.046-.579-.021-.262-.433-.264-.411,0,.011.144.023.287.034.429a5.808,5.808,0,0,0-2.57.3c-.374.109-.721.217-1.012.3a38.634,38.634,0,0,0-4,1.264A10.406,10.406,0,0,0,7.149,4.3Q7.055,3.751,6.96,3.2c-.045-.26-.442-.15-.4.111.078.447.153.894.23,1.343-.028.029-.057.053-.084.084a.212.212,0,0,0,.157.353,2.687,2.687,0,0,1,.217.867c0,.007,0,.014,0,.023.016.094.034.194.05.3.007.039.012.078.02.117l.027.164q.027.163.053.337a.061.061,0,0,0,0,.019c.027.166.052.336.078.513a.05.05,0,0,0,0,.016c.044.281.087.575.128.874l.011.069c.039.267.077.538.114.807,0,.016,0,.032.005.048q.04.278.075.55c.027.189.052.374.075.55.009.061.016.121.025.18.059.435.111.835.155,1.172.064.483.109.832.128.963a1.786,1.786,0,0,1,.027.447,3.783,3.783,0,0,1-.677,1.56q-.1.152-.214.3c-.465.636-1.01,1.231-1.386,1.679A12.288,12.288,0,0,1,.142,20.687a.208.208,0,0,0,.053.4.176.176,0,0,0,.184.119,6.614,6.614,0,0,0,.682.9,7.8,7.8,0,0,0,2.071.837A17.946,17.946,0,0,0,8,23.775a20.136,20.136,0,0,0,4.98-.547c.123-.027.246-.055.37-.084,1.6-.376,3.191-.862,4.775-1.305a79.722,79.722,0,0,0,10.191-3.233c.5-.216,2.269-.72,1.647-1.624" transform="translate(57.125 26.658)"/><path class="j" d="M1.235,1.6A3.425,3.425,0,0,0,1.085.531.971.971,0,0,0,.8.1C.4-.2.045.218.008.591c-.049.485.123,1.5.6,1.667.49.175.62-.189.631-.663" transform="translate(71.956 18.459)"/><path class="j" d="M1.225,1.544A3.348,3.348,0,0,0,1.055.506.95.95,0,0,0,.764.1C.368-.192.033.224,0,.589-.033,1.064.158,2.05.624,2.2c.482.16.6-.2.6-.661" transform="translate(63.103 20.015)"/><path class="k" d="M2.053,4.959C1.2,4.9.507,4.8.37,3.731a5.93,5.93,0,0,1,.072-1.1L.614.171C.63-.058.274-.056.258.171L.1,2.466A5.923,5.923,0,0,0,.056,4.2c.216.9,1.2,1.064,2,1.119.229.016.228-.34,0-.356" transform="translate(67.298 20.732)"/><path class="l" d="M0,1.1a5.306,5.306,0,0,1,.392.475,2.114,2.114,0,0,0,.5.319,4.179,4.179,0,0,0,2.488.3A3.126,3.126,0,0,0,5.907.328,1.368,1.368,0,0,0,5.982,0L0,1.1" transform="translate(66.475 27.259)"/><path class="k" d="M9.462.949a.593.593,0,0,0-.217,0,1.667,1.667,0,0,0-.6.424,2.6,2.6,0,0,1-.23.2,7.334,7.334,0,0,1-1.231.579,3.6,3.6,0,0,1-2.128.03c-.288-.068-.573-.157-.853-.249A29.3,29.3,0,0,1,0,0C0,.007,0,.014,0,.023c.016.094.034.194.05.3C.06.362.066.4.073.44L.1.6Q.126.767.153.94a.059.059,0,0,0,0,.019c.027.166.052.337.078.513a.051.051,0,0,0,0,.016c.041.283.085.577.128.874l.011.069c.039.267.077.538.114.807A.447.447,0,0,0,.5,3.288q.04.278.075.55c.027.189.052.374.075.55.009.061.016.121.025.18a4.423,4.423,0,0,0,1.193-.157,5.592,5.592,0,0,1,2.614-.048c.367.086.694.248,1.067.063.2-.1.228-.24.388-.372.618-.508.522-.408,1.077-.533a3.845,3.845,0,0,0,2.385-1.7c.164-.262.417-.8.068-.873" transform="translate(64.208 32.613)"/><path class="f" d="M3.11,1.986a2.881,2.881,0,0,0-.9-1.658A1.527,1.527,0,0,0,1.8.09,1.191,1.191,0,0,0,1.322,0a1.083,1.083,0,0,0-.2.025L1.1.029A2.152,2.152,0,0,0,.043.838c-.144.176.107.429.251.253C.5.836.585.738.75.7a9.6,9.6,0,0,0-.064,2.05C.645,3.344.6,3.931.611,4.519a7.07,7.07,0,0,0,.151,1.4.078.078,0,0,0,.009.021c-.059.016-.117.032-.178.045-.224.05-.13.394.094.344a5.6,5.6,0,0,0,.739-.21A1.736,1.736,0,0,0,2.553,5.005,6.755,6.755,0,0,0,3.11,1.986" transform="translate(76.363 17.787)"/><path class="f" d="M3.518,5.6,3.334,5.6c0-.009,0-.014,0-.023a7.009,7.009,0,0,0-.21-1.3c-.151-.6-.362-1.179-.573-1.772A9.539,9.539,0,0,0,1.94.548c.169-.005.272.068.543.256.189.132.361-.18.175-.31a3.28,3.28,0,0,0-.728-.4A1.274,1.274,0,0,0,1.311.01a1,1,0,0,0-.228.059,1.2,1.2,0,0,0-.322.18A1.952,1.952,0,0,0,.114,1.294a3.131,3.131,0,0,0-.1,1.135A6.751,6.751,0,0,0,1.366,5.182a1.836,1.836,0,0,0,1.655.78.023.023,0,0,0,.016,0c.155,0,.315,0,.481-.011a.013.013,0,0,0,.009,0c.221-.02.216-.367-.009-.354" transform="translate(57.67 21.137)"/><path class="i" d="M5.211.815A.677.677,0,0,0,5.133.644,2.147,2.147,0,0,0,3.583,0,4.762,4.762,0,0,0,.055,1.8a.179.179,0,0,0,.107.31,7.674,7.674,0,0,0,2.589-.465c.509-.1,1.033-.114,1.542-.208.308-.055,1.042-.166.917-.621" transform="translate(60.527 16.843)"/><path class="i" d="M5.21.831A4.764,4.764,0,0,0,1.3.2C.886.35.156.772.022,1.282A.586.586,0,0,0,0,1.467c.02.474.752.355,1.062.314.515-.066,1.017-.215,1.532-.272A7.731,7.731,0,0,0,5.2,1.161.181.181,0,0,0,5.21.831" transform="translate(69.917 15.438)"/><path class="k" d="M.892,2.018c-.041-.335-.317-.54-.513-.789Q.368.7.356.172A.178.178,0,0,0,0,.172L.024,1.247a.143.143,0,0,0,.027.135A3.552,3.552,0,0,1,.5,1.926c.16.346-.212.81-.367,1.1-.109.2.2.382.308.18A2.2,2.2,0,0,0,.892,2.018" transform="translate(77.567 19.102)"/><path class="k" d="M1.233,2.9c-.281-.2-.592-.426-.6-.8a1.842,1.842,0,0,1,.285-.783.176.176,0,0,0,.016-.1.16.16,0,0,0-.011-.08A4.635,4.635,0,0,0,.342.076C.207-.106-.1.072.034.256a4.3,4.3,0,0,1,.541.957A1.722,1.722,0,0,0,.283,2.259a1.6,1.6,0,0,0,.77.951c.186.134.364-.175.18-.308" transform="translate(58.917 22.313)"/><path class="m" d="M43.647,12.89a10.493,10.493,0,0,0-1.1-.161,16.968,16.968,0,0,0-3.359.234,6.518,6.518,0,0,1-4.721-.858c-1.551-1.057-2.9-2.627-4.844-1.988-1.407.463-2.618,1.243-4.038.374-1.5-.918-2.415-2.672-4.249-2.8a5.482,5.482,0,0,0-1.275.081c-.524,2.744.15,5.507.393,8.264a28.025,28.025,0,0,1-.1,4.56,12.381,12.381,0,0,0,.034,2.043c1.129.383,2.2-.486,2.663-1.663a8.234,8.234,0,0,0,.328-3.493c-.142-2.386-.335-4.771-.5-7.156-.02-.267.337-.265.356,0q.179,2.534.358,5.069a22.537,22.537,0,0,1,.12,4.395c-.237,1.847-1.535,3.772-3.275,3.293.089.745.224,1.483.374,2.246.572,2.891.089,5.745.219,8.676a52.916,52.916,0,0,0,.561,5.437l-.356.021c-.249-1.677-.449-3.363-.542-5.063a46.574,46.574,0,0,1,.073-5.036,18.334,18.334,0,0,0-.442-4.631A15.271,15.271,0,0,1,20.01,20.4a25.828,25.828,0,0,0,.05-4.723c-.265-2.614-.83-5.23-.377-7.834-.554.114-1.1.261-1.655.358a13.283,13.283,0,0,1-2.593.188,60.061,60.061,0,0,1-6.2-.631c-2.545-.31-5.316-.606-7.453-2.229a.088.088,0,0,1-.021.008c-.13.05-.214-.07-.215-.194-.1-.079-.189-.159-.281-.246A7.388,7.388,0,0,1,.035,3.645a.185.185,0,1,1,.306-.209,7.245,7.245,0,0,0,.974,1.191c.162.161.331.312.506.455a79.987,79.987,0,0,1,11.92-3.477A78,78,0,0,1,24.484.15a43.877,43.877,0,0,1,10.137.3,21.007,21.007,0,0,1,8.33,3.317c.178,2.432.429,5.671.7,9.118" transform="translate(49.439 97.581)"/><path class="f" d="M11.453,12.47c-.148-.272-.292-.547-.438-.821a.177.177,0,0,0-.158-.3c-.732-1.391-1.428-2.8-2.109-4.221-.36-.746-.712-1.494-1.065-2.246-.3-.643-.6-1.288-.9-1.932-.128-.271-.256-.543-.383-.814Q5.916,1.116,5.431.1C5.332-.1,5,.028,5.1.235c0,.009.009.018.012.029C3.759,1.182,1.376,3.033,0,3.921A6.557,6.557,0,0,0,.2,4.7c.105.37.246.857.411,1.421.182.62.392,1.334.613,2.091.287.97.591,2.012.883,3.021.21.723.411,1.43.595,2.078v0c.036.126.071.248.1.369.3,1.079.538,1.966.641,2.454a.181.181,0,0,0,.244.146c1.257-.522,3.525-2.014,4.761-2.586.206-.1.076-.428-.132-.331l-.114.052L8.122,12.9a22.591,22.591,0,0,1,2.572-1.1c.143.267.283.536.429.8.107.2.44.069.33-.132" transform="translate(17.04 49.571)"/><path class="i" d="M20.707,3.328A5.169,5.169,0,0,0,19.125,1.3a3.231,3.231,0,0,0-.335-.217,3.669,3.669,0,0,0-.381-.2A8.977,8.977,0,0,0,17.2.436h0C16.954.361,16.7.3,16.454.244a11.006,11.006,0,0,0-1.7-.228,10.865,10.865,0,0,0-4,.552c-1.366.447-2.738.86-4.109,1.3A19.415,19.415,0,0,0,2.922,3.656,10.251,10.251,0,0,0,.742,5.115,3.442,3.442,0,0,0,.5,5.385a2.435,2.435,0,0,0-.347.568A3.073,3.073,0,0,0,.081,7.633c.121.876.3,1.74.454,2.613.235,1.37.014,3.1.721,4.351-.194-.063-.353.219-.155.313a3.287,3.287,0,0,1,.648.54,1.678,1.678,0,0,0,.3.224h0a.572.572,0,0,0,.351.077.184.184,0,0,0,.173-.13.889.889,0,0,0,.023-.15,2.12,2.12,0,0,0-.208-.962A2.24,2.24,0,0,1,2.24,12.83c.342-1.224-.643-2.809.178-3.9.242-.324.6-.524.823-.876.258-.4.411-.851.643-1.265A7.76,7.76,0,0,1,5.453,4.96a.374.374,0,0,1,.041-.009,16.653,16.653,0,0,1,2.326.037A7.181,7.181,0,0,0,9.69,4.65c.9-.29,1.615-.9,2.595-.6a4.349,4.349,0,0,0,1.687.394c.358-.025.716-.178,1.07-.176.4,0,.682.219,1.06.246a1.892,1.892,0,0,0,.926-.2,3.567,3.567,0,0,1,1.325.985c.538.7.249,1.469.559,2.219a6.348,6.348,0,0,1,.613,1.261c.055.283.03.593.082.882A10.625,10.625,0,0,0,20.414,12a.137.137,0,0,0,.048.062.047.047,0,0,0,.018.011.177.177,0,0,0,.2-.039.175.175,0,0,0,.064-.123q.134-2.458.265-4.914a7.083,7.083,0,0,0-.3-3.667" transform="translate(57.003 5.756)"/><path class="m" d="M2.553,1.273A2.589,2.589,0,0,0,1.571.848,2.384,2.384,0,0,1,.3.059C.149-.116-.1.137.044.311A2.547,2.547,0,0,0,1,1.036a5.333,5.333,0,0,1,1.3.489c.179.14.432-.111.252-.252" transform="translate(57.073 10.452)"/><path class="m" d="M7.383.05C6.107,1.267,4.626,1.4,2.954,1.617a5.235,5.235,0,0,0-2.9,1.116c-.174.15.079.4.252.252C1.517,1.943,3.1,2.014,4.581,1.778A5.516,5.516,0,0,0,7.635.3C7.8.144,7.549-.108,7.383.05" transform="translate(69.254 6.146)"/><path class="m" d="M3.543.048A5.578,5.578,0,0,1,.171,1.514c-.227.018-.229.374,0,.356A5.984,5.984,0,0,0,3.794.3c.17-.155-.083-.406-.252-.252" transform="translate(73.426 4.401)"/><path class="m" d="M4.312,0C2.082.183.821,2.064.016,3.957c-.089.209.218.39.307.18C1.07,2.383,2.218.528,4.312.357c.227-.019.229-.375,0-.356" transform="translate(57.718 4.444)"/><path class="m" d="M1.444.3A.178.178,0,0,0,1.192.052,3.5,3.5,0,0,0,.074,1.775,6.238,6.238,0,0,0,.139,3.968c.035.226.378.13.344-.095A6.05,6.05,0,0,1,.408,1.967,3.061,3.061,0,0,1,1.444.3" transform="translate(57.76 12.919)"/><path class="n" d="M51.923,8.52a3.985,3.985,0,0,0-1.779-1.2c-1.105-.466-2.238-.878-3.366-1.285A102.052,102.052,0,0,0,32.4,2.02C32.153,1,31.827-.271,30.661.051a39.872,39.872,0,0,1-6.319,1.395.186.186,0,0,0-.172.131l-.449,1.451a8.545,8.545,0,0,0-.245-.98c-.113-.351-.233-.574-.627-.612a9.286,9.286,0,0,0-2.438.506c-.826.177-3.4.212-3.538,1.209-.041.285-.006.579-.071.859-.333,1.443-5.088,2.526-6.355,3.081Q6.6,8.777,2.877,10.723A6,6,0,0,0,.338,12.449a4.086,4.086,0,0,0-.193,2.772C.6,18.177,1.13,21.13,1.459,24.1a42.779,42.779,0,0,1-.07,8.457A17.761,17.761,0,0,1,.96,35.011,19.608,19.608,0,0,1,2.665,42.4c-.01,1.919-.711,3.735-.819,5.649a16.558,16.558,0,0,0,.667,5.415,12.769,12.769,0,0,1,.573,2.533,4.918,4.918,0,0,1-.469,2.3,9.444,9.444,0,0,0-.991,2.895c-.108,1.347.01,3.578,1.05,4.583a3.644,3.644,0,0,0,1.467.758,19.321,19.321,0,0,0,6.682.861,32.187,32.187,0,0,0,5.473-.923,38.686,38.686,0,0,1,5.523-.849,81.624,81.624,0,0,1,12.024.422c1.988.152,5.581.284,7.575.3,1.639.009,5.76.153,6.249-1.984a70.445,70.445,0,0,0,1.016-8.29c.488-4.705-.824-9.428-.545-14.149s1.945-14.429,1.945-14.429-.7-4.328-.039-6.569c.619-2.089,1.441-4.117,1.9-6.251a20.493,20.493,0,0,0,.444-3.545,4.077,4.077,0,0,0-.472-2.6" transform="translate(46.557 36.132)"/><path class="n" d="M43.741,20.723A21.1,21.1,0,0,0,42.414,15.7a45.832,45.832,0,0,0-5.1-10.452A18.637,18.637,0,0,0,33.853.805,2.83,2.83,0,0,0,32.351.2a.179.179,0,0,0-.263-.173c-.111.064-.216.136-.317.207a1.75,1.75,0,0,0-.59.24,1.806,1.806,0,0,0-.442.41A30.253,30.253,0,0,0,25.76,9.45a26.188,26.188,0,0,1-1.426,4.059c-1.336,2.534-4.347,4.246-6.353,6.458a7.356,7.356,0,0,0-.529-.8A19.455,19.455,0,0,0,14.5,16.527c-1.248-1.11-1.571-2.575-2.1-4.089a14.2,14.2,0,0,0-2-3.767.183.183,0,0,0-.244-.064l-.166.1L4.807,11.957c-.461.29-.955.568-1.45.855A14.286,14.286,0,0,0,.5,14.787c-.438.424-.636.582-.4,1.127q.593,1.37,1.213,2.725,1.2,2.64,2.508,5.231,2.6,5.183,5.589,10.162c1.393,2.322,3.008,5.943,6.1,6.246a10.054,10.054,0,0,0,4.869-1.288c1.7-.766,3.334-1.678,4.969-2.574,2.712-1.487,5.42-3,8-4.7q.494-.323.98-.657A38.274,38.274,0,0,0,41.8,24.529c.931-1.088,2.048-2.274,1.939-3.806" transform="translate(15.792 47.99)"/><path class="f" d="M18.6,4.893a.509.509,0,0,0-.508-.184,2.508,2.508,0,0,0-1.888,1.666,12.376,12.376,0,0,1-.654,2.07,1.591,1.591,0,0,1-1.2-.027,3.937,3.937,0,0,1-.746-.607,9.683,9.683,0,0,1-.866-.907A23.554,23.554,0,0,1,11,4.444C10.457,3.6,10,2.7,9.416,1.877,9.108,1.444,7.691-.633,7.025.192,6.6.719,7,1.664,7.257,2.079c.554.9,1.074,1.829,1.567,2.767q.37.7.718,1.418.174.357.342.717c.107.227.181.515-.123.626a.558.558,0,0,1-.428-.042A25.457,25.457,0,0,1,6.144,4.2Q5.3,3.067,4.376,2C4.02,1.594,3.592,1,2.971,1.258c-1.644.695.171,2.374.713,3.138C4.593,5.678,5.446,7,6.249,8.348c-.541-.406-1.033-.919-1.514-1.353-.746-.677-1.48-1.371-2.162-2.116C2.167,4.435.552,2.629.041,4.091c-.2.561.358,1.243.636,1.674A19.147,19.147,0,0,0,2.21,7.8c.958,1.131,1.984,2.2,2.917,3.345-.639-.465-1.346-.828-1.995-1.305C2.557,9.415,1.742,8.353.919,8.943c-.714.511-.036,1.168.344,1.639.965,1.2,2.12,2.313,3.2,3.411,1.026,1.038,1.951,2.066,3.03,3.045.539.49,1.063.994,1.555,1.532a5.572,5.572,0,0,0,1.193,1.122l.05.03c1,.557,1.963-.084,2.846-.57a10.333,10.333,0,0,0,2.3-1.444c.02.029.041.055.062.082-.112.16.1.369.253.239a.171.171,0,0,0,.2-.029.182.182,0,0,0,.023-.221,4.6,4.6,0,0,0,.454-.648,8.9,8.9,0,0,0,.837-4.556A17.063,17.063,0,0,1,17.587,8.6a16.008,16.008,0,0,1,.654-1.8,8.041,8.041,0,0,0,.425-1.478.615.615,0,0,0-.064-.435" transform="translate(7 34.579)"/><path class="k" d="M1.873.061A8.415,8.415,0,0,0,.216,7.253c.051.223.394.129.344-.095A8.04,8.04,0,0,1,2.124.313c.142-.177-.108-.431-.252-.252" transform="translate(19.259 43.822)"/><path class="k" d="M4.726.033A38.344,38.344,0,0,0,.052,4.013.178.178,0,0,0,.3,4.265,37.775,37.775,0,0,1,4.905.341c.184-.133.006-.442-.18-.307" transform="translate(13.716 43.589)"/><path class="n" d="M29.524,25.483c-.663-1.338-3.788-3.793-4.486-5.161-.643-1.261-1.163-2.579-1.831-3.826a15.122,15.122,0,0,0-2.461-3.283A21.664,21.664,0,0,1,17.729,9.42a36.035,36.035,0,0,0-2.434-3.69A20.173,20.173,0,0,0,9.476,1.016h0C8.9.676,8.329.341,7.748,0,7.551-.115,1.415,14.086,0,21.208a.178.178,0,0,0,.123.219,5.57,5.57,0,0,1,3.437,2.3,19.578,19.578,0,0,0,1.761,2.507,5.349,5.349,0,0,0,1.254.937c1.375.762,3.013,1.1,4.292,2.035a18.674,18.674,0,0,1,4.048,4.469s-2.157,1.313-2.57,2.8c-.221.8-.167,2.009-.716,2.662a11.52,11.52,0,0,1-1.8,1.446L6.261,43.372c-.271.21-.54.422-.81.632a.177.177,0,0,0-.027.216c.292.538.618,1.108.972,1.7.19.315.39.636.595.96a37.243,37.243,0,0,0,4.645,6c.4.406.8.782,1.206,1.115.046.039,12.369-8.064,14.634-9.989,2.066-1.756,5.286-6.214,5.67-8.971.412-2.94-3.2-8.7-3.622-9.551" transform="translate(88.953 43.568)"/><path class="o" d="M5.805.172A14.422,14.422,0,0,1,5.481,3.21c-.057.239-.079.555-.358.638A1.18,1.18,0,0,1,4.388,3.7a2.533,2.533,0,0,0-.746-.131C2.347,3.49,1.454,2.452.171,2.374c-.229-.014-.228.342,0,.356a7.837,7.837,0,0,1,2.362,1,3.276,3.276,0,0,0,.984.195c.514.045,1,.31,1.5.341.548.034.584-.391.7-.843A14.287,14.287,0,0,0,6.161.172a.178.178,0,0,0-.356,0" transform="translate(63.546 38.782)"/><path class="o" d="M7.428.629A43.408,43.408,0,0,0,3.243,3.418c-.152.126-.294.263-.446.389-.395.324-.594.6-1.017.533-.377-.059-.469-.3-.585-.766l-.161-.657L.349.127C.295-.1-.049,0,.006.222L.892,3.833c.179.731.362,1.085,1.225.82a2.506,2.506,0,0,0,.822-.5A20.609,20.609,0,0,1,4.584,2.891c1-.66,2.016-1.3,3.024-1.955C7.8.812,7.621.5,7.428.629" transform="translate(70.983 38.408)"/><path class="o" d="M2.456,49.567A23.666,23.666,0,0,0,2.979,44.1c-.042-2.061-.349-4.107-.36-6.17-.011-2.03.265-4.053.209-6.083A19.518,19.518,0,0,0,1.61,26.324a14.873,14.873,0,0,1-.378-6.2,20.455,20.455,0,0,0-.135-5.74A36.447,36.447,0,0,1,.34,7.345,70.479,70.479,0,0,1,.928.17C.954-.057.6-.056.572.17.088,4.324-.347,8.5.407,12.651a24.132,24.132,0,0,1,.564,6.467,20.86,20.86,0,0,0-.09,5.876c.424,2.116,1.412,4,1.56,6.188.145,2.14-.16,4.276-.178,6.415-.017,2.062.282,4.106.35,6.164A23.38,23.38,0,0,1,1.969,50.1a22.412,22.412,0,0,1-.987,3.047,10.841,10.841,0,0,0-.926,2.933,6.241,6.241,0,0,0,1.517,4.675c.149.175.4-.078.252-.252A5.848,5.848,0,0,1,.634,55.014c.554-1.848,1.411-3.542,1.822-5.446" transform="translate(70.023 39.796)"/><path class="o" d="M6.3,19.458a10.514,10.514,0,0,0-.786-2.8q-.633-1.668-1.23-3.35Q1.994,6.82.349.127C.295-.1-.049,0,.006.222Q1.534,6.41,3.6,12.444c.669,1.94,1.532,3.847,2.1,5.817.659,2.3-.235,4.343-1.25,6.378-.1.2.205.385.308.18.829-1.661,1.7-3.451,1.541-5.361" transform="translate(45.228 54.153)"/><path class="o" d="M7.414,3.982a21.061,21.061,0,0,1-2.741,4.56L3.119,10.8A18.443,18.443,0,0,1,1.7,12.852,94.247,94.247,0,0,0,4.419.17c.024-.228-.332-.226-.356,0C3.369,6.717.915,12.909,0,19.417c-.031.224.312.321.344.095.288-2.051.727-4.071,1.216-6.08a.173.173,0,0,0,.1-.042,10.875,10.875,0,0,0,1.567-2.131L4.98,8.721A21.368,21.368,0,0,0,7.757,4.076c.078-.216-.266-.309-.344-.095" transform="translate(95.229 47.837)"/><path class="o" d="M9.4,2.669A13.869,13.869,0,0,0,5.309.4,6.731,6.731,0,0,0,3.1,0C2.176,0,1.11.612.228.327.058.272-.034.465.033.588A.165.165,0,0,0,.128.853a9.948,9.948,0,0,1,2.853,1.3L5.824,3.79A.178.178,0,0,0,6,3.483L2.862,1.668A12.129,12.129,0,0,0,.978.73c.3-.045.6-.143.937-.222a5.529,5.529,0,0,1,2.7.053A12.641,12.641,0,0,1,9.149,2.921c.175.145.429-.106.252-.252" transform="translate(104.229 76.211)"/><path class="o" d="M2.289,4.356c-.01-.228-.366-.23-.356,0a9.829,9.829,0,0,1-.558,3.821A6.317,6.317,0,0,1,.909,9.243l-.254.369Q.2,9.8.394,9.357A4.942,4.942,0,0,1,.913,7.419,22.63,22.63,0,0,0,1.845.172a.178.178,0,0,0-.356,0,27.107,27.107,0,0,1-.392,5.3C.782,6.985.017,8.39,0,9.952a.182.182,0,0,0,.178.178c.928.07,1.286-1.157,1.541-1.859a10.1,10.1,0,0,0,.571-3.915" transform="translate(32.012 68.525)"/><path class="o" d="M6.838.042Q3.484,2.728.075,5.342c-.179.138,0,.447.18.308Q3.7,3.008,7.09.294C7.269.151,7.015-.1,6.838.042" transform="translate(17.463 59.246)"/><path class="o" d="M5.371,7.74q-1.439-1.8-2.755-3.7-.567-.822-1.109-1.661A5.9,5.9,0,0,1,.358.17C.33-.055-.027-.058,0,.17.171,1.528,1.371,2.848,2.12,3.945c.947,1.387,1.951,2.734,3,4.047.143.179.393-.074.252-.252" transform="translate(96.644 87.314)"/><path class="o" d="M4.1,5.29C1.921,5.024.661,1.991.346.129.308-.1-.035,0,0,.224.35,2.279,1.731,5.357,4.1,5.646c.227.028.225-.329,0-.356" transform="translate(54.722 96.404)"/><path class="o" d="M.036.172Q.018.617,0,1.062c-.009.229.347.229.356,0Q.375.617.393.172C.4-.058.046-.057.036.172" transform="translate(71.213 43.976)"/><path class="o" d="M.487,1.011A6.168,6.168,0,0,1,.357.171C.338-.056-.019-.058,0,.171a6.889,6.889,0,0,0,.143.935c.05.223.394.129.344-.095" transform="translate(71.925 54.248)"/><path class="o" d="M.613.957.353.124C.284-.094-.06,0,.009.219l.26.833c.068.218.412.125.343-.095" transform="translate(72.354 65.108)"/><path class="o" d="M.363.172C.371-.057.015-.057.007.172q-.018.52.012,1.04c.013.228.37.229.356,0Q.345.692.363.172" transform="translate(73.623 76.745)"/><path class="o" d="M.187.129,0,1.137c-.041.224.3.32.344.095L.531.223C.572,0,.229-.1.187.129" transform="translate(72.868 89.389)"/><path class="o" d="M.6.828A3.734,3.734,0,0,1,.35.127.178.178,0,0,0,.006.221a4.174,4.174,0,0,0,.287.786c.1.207.406.026.307-.18" transform="translate(72.458 99.394)"/><path class="o" d="M.227,2.119a.183.183,0,0,1-.165-.178L.049,1.685C.037,1.43.025,1.175.011.92A.212.212,0,0,1,.032.74.178.178,0,0,1,.17.656C.765.6,1.369.54,1.954.482h0C3.472.332,5.036.176,6.578.076,7.129.039,7.63.017,8.11.007,8.323,0,8.571,0,8.811,0,9,0,9.175,0,9.324,0A.112.112,0,0,1,9.4.051a1.908,1.908,0,0,1,.186,1.008c-.045.3-1.512.4-2.483.47-.2.014-.372.025-.509.037-2.324.2-4.4.381-6.36.552ZM8.449.357c-.329,0-.672.012-1.02.026C6.592.419,5.756.49,5.048.554,3.935.652,2.8.761,1.71.866L.368,1c0,.033,0,.065,0,.1-.009.268-.017.52.227.64a.37.37,0,0,0,.142.019,5.436,5.436,0,0,0,.694-.08c.1-.016.181-.028.224-.032l2.474-.215L6.6,1.21l.538-.047h.026l.47-.041C7.9,1.1,8.707,1.017,9.05.981A.176.176,0,0,0,9.209.8,2.023,2.023,0,0,0,9.166.5.18.18,0,0,0,8.993.361C8.813.357,8.628.357,8.449.357Z" transform="translate(79.687 56.621)"/><path class="o" d="M3.765,9.308A7.775,7.775,0,0,1,2.032,4.541,12.346,12.346,0,0,0,.363.106C.258-.109-.086.037.02.253c.4.8.821,1.6,1.182,2.419a8.892,8.892,0,0,1,.526,2.845A7.323,7.323,0,0,0,3.47,9.538c.155.183.451-.046.295-.23" transform="translate(89.986 52.086)"/></g></g></g></g></svg>