<svg xmlns="http://www.w3.org/2000/svg" width="48" height="48" viewBox="0 0 48 48">
  <g id="Group_6017" data-name="Group 6017" transform="translate(11279 14694)">
    <rect id="Rectangle_3484" data-name="Rectangle 3484" width="48" height="48" rx="24" transform="translate(-11279 -14694)" fill="#eda70b"/>
    <path id="Path_16625" data-name="Path 16625" d="M-10.888,0h2.944L-7-3.856a23.082,23.082,0,0,0,.4-2.992h.064a23.082,23.082,0,0,0,.4,2.992L-5.192,0h2.944l1.52-12H-3.064l-.688,7.152c-.112.752-.176,1.824-.256,3.216h-.048A21.469,21.469,0,0,0-4.52-4.848L-5.4-8.512H-7.736l-.88,3.664A21.469,21.469,0,0,0-9.08-1.632h-.048c-.08-1.392-.144-2.464-.256-3.216L-9.976-8.96h-2.368ZM3.784.208c2.448,0,3.728-1.28,3.728-2.816,0-1.648-1.1-2.288-2.992-2.928C3.432-5.92,2.68-6.112,2.68-6.608c0-.432.5-.608,1.2-.608a4.623,4.623,0,0,1,2.688.784l.7-1.7a6.264,6.264,0,0,0-3.44-1.04C1.448-9.168.264-7.856.264-6.528c0,1.776,1.328,2.32,3.072,2.864.832.256,1.776.448,1.776,1.12,0,.448-.576.8-1.536.8A5.307,5.307,0,0,1,.968-2.528L.312-.688A6.447,6.447,0,0,0,3.784.208ZM-.3-10.064H7.272v-3.392H5.016v1.52H-.3Zm9.9,6.608h1.648L11.7-8.08v-2.7H9.176v2.7ZM10.44.208a1.4,1.4,0,0,0,1.488-1.424,1.407,1.407,0,0,0-1.488-1.44,1.407,1.407,0,0,0-1.488,1.44A1.4,1.4,0,0,0,10.44.208Z" transform="translate(-11255 -14655)" fill="#fff"/>
    <g id="Group_5921" data-name="Group 5921" transform="translate(3.217 1)">
      <path id="Path_16628" data-name="Path 16628" d="M-2.795.117c1.512,0,2.205-.738,2.205-1.926v-.855a1.11,1.11,0,0,0-.8-1.071l1.1-1.305H-1.7L-2.759-3.663l.2.477h.171c.243,0,.4.144.4.459v.936A.714.714,0,0,1-2.795-1c-.5,0-.819-.216-.819-.72V-2.2c0-.7.8-1.062.8-1.8v-.144a.849.849,0,0,0-.936-.963,1.084,1.084,0,0,0-.828.351l-.747-.4v1.035c.243.135.486.252.729.387.072-.243.18-.4.324-.4a.138.138,0,0,1,.153.153V-3.9c0,.432-.891.909-.891,1.7v.459C-5.009-.594-4.316.117-2.795.117ZM-4.549-5.661H-.293V-7.569H-1.319v.918h-.45v-.918H-2.795v.855H-4.549Zm3.078-2.376h1.9V-9.045H-.842A.138.138,0,0,1-.995-9.2v-.171c0-.4-.252-.522-.684-.522h-.99v1.008h.54a.138.138,0,0,1,.153.153v.207A.455.455,0,0,0-1.472-8.037ZM2.632.117A2.347,2.347,0,0,0,5.161-2.556a2.409,2.409,0,0,0-2.61-2.6,3.905,3.905,0,0,0-2.322.72L.661-3.411a2.87,2.87,0,0,1,1.755-.612,1.279,1.279,0,0,1,1.35,1.449c0,1.089-.486,1.557-1.233,1.557-.585,0-.918-.216-.918-.72v-.036c0-.1.045-.144.135-.144h.72V-2.961h-1.2C.6-2.961.265-2.61.265-1.908v.117C.265-.63,1.057.117,2.632.117Z" transform="translate(-11263.218 -14680)" fill="#fff"/>
      <path id="Path_16627" data-name="Path 16627" d="M-7.488,0H-6.1V-5.04H-7.488Zm2.232,0H-3.87V-5.04H-5.256Zm3.591,0h.972V-1.062h-.531A.119.119,0,0,1-1.359-1.2v-.855a.71.71,0,0,1,.423-.729v-.27l-.639-.477A1.313,1.313,0,0,1-.522-4.023a.843.843,0,0,1,.945.936V0h1.4V-3.1A2.033,2.033,0,0,0-.468-5.157,2.569,2.569,0,0,0-3.006-3.51l.738.576a1,1,0,0,0-.486.873V-.99C-2.754-.387-2.385,0-1.665,0Zm7.5.1C6.876.1,7.506-.549,7.506-1.818V-5.04H6.111v3.15c0,.585-.243.882-.738.882a1.146,1.146,0,0,1-1.053-.72V-5.04H2.925V0H4.2L4.32-.585A1.911,1.911,0,0,0,5.832.1Z" transform="translate(-11266.218 -14672)" fill="#fff"/>
      <path id="Path_16626" data-name="Path 16626" d="M-5.184,0h10.8V-3.192l-3.5.048V-15.6H-.672L-4.7-14.184v2.76l3.1-.648v8.928l-3.576-.048Z" transform="translate(-11251.218 -14672)" fill="#fff"/>
    </g>
  </g>
</svg>
