<svg id="Group_5467" data-name="Group 5467" xmlns="http://www.w3.org/2000/svg" width="56" height="56" viewBox="0 0 56 56">
  <path id="Path_16636" data-name="Path 16636" d="M28,0A28,28,0,1,1,0,28,28,28,0,0,1,28,0Z" transform="translate(0 0)" fill="#3c5a96"/>
  <g id="Group_18" data-name="Group 18" transform="translate(21.875 14.503)">
    <path id="Path_2" data-name="Path 2" d="M289.427-53.764h2.329V-57.82a30.078,30.078,0,0,0-3.393-.18c-3.358,0-5.658,2.112-5.658,5.993v3.572H279V-43.9h3.705v11.409h4.543V-43.9H290.8l.564-4.534h-4.121v-3.124c0-1.31.354-2.207,2.18-2.207Zm0,0" transform="translate(-279 58)" fill="#fff"/>
  </g>
</svg>
