<svg xmlns="http://www.w3.org/2000/svg" width="40" height="40" viewBox="0 0 40 40">
  <g id="Group_1" data-name="Group 1" transform="translate(-332 -314)">
    <circle id="Ellipse_1" data-name="Ellipse 1" cx="20" cy="20" r="20" transform="translate(332 314)" fill="#00b900"/>
    <g id="Group_5908" data-name="Group 5908" transform="translate(332 314)">
      <circle id="Ellipse_5" data-name="Ellipse 5" cx="20" cy="20" r="20" fill="rgba(127,62,62,0)"/>
      <path id="line" d="M12,.5C5.385.5,0,4.9,0,10.3c0,4.841,4.27,8.9,10.035,9.668.391.083.923.26,1.058.594a2.474,2.474,0,0,1,.038,1.087l-.164,1.026c-.045.3-.24,1.193,1.049.649A38.692,38.692,0,0,0,21.452,16.3,8.7,8.7,0,0,0,24,10.3C24,4.9,18.615.5,12,.5ZM7.3,13.517H4.917a.636.636,0,0,1-.63-.633v-4.8a.63.63,0,0,1,1.26,0V12.25H7.3a.634.634,0,0,1,0,1.267Zm2.466-.633a.629.629,0,1,1-1.258,0v-4.8a.629.629,0,1,1,1.258,0Zm5.741,0a.633.633,0,0,1-.432.6.646.646,0,0,1-.2.031.617.617,0,0,1-.51-.252L11.926,9.925v2.958a.629.629,0,1,1-1.257,0v-4.8a.631.631,0,0,1,.43-.6.582.582,0,0,1,.194-.033.646.646,0,0,1,.5.256l2.462,3.351V8.083a.63.63,0,0,1,1.26,0Zm3.855-3.035a.635.635,0,0,1,0,1.269H17.61V12.25h1.755a.634.634,0,0,1,0,1.267H16.979a.633.633,0,0,1-.627-.633v-4.8a.634.634,0,0,1,.63-.634h2.386a.634.634,0,1,1,0,1.268H17.61V9.849Z" transform="translate(8 8.5)" fill="#fff"/>
    </g>
  </g>
</svg>
