<svg xmlns="http://www.w3.org/2000/svg" width="56" height="56" viewBox="0 0 56 56">
  <g id="Group_5475" data-name="Group 5475" transform="translate(0.5 0.5)">
    <path id="Path_16642" data-name="Path 16642" d="M28,0A28,28,0,1,1,0,28,28,28,0,0,1,28,0Z" transform="translate(-0.5 -0.5)" fill="#2c2c2c"/>
    <g id="Group_5738" data-name="Group 5738" transform="translate(17.423 17.423)">
      <path id="Path_4" data-name="Path 4" d="M167.262-118.051a1,1,0,0,0,.062.11c.073.113.245.372.438.638l-3.18,3.18a.969.969,0,0,0,0,1.37.966.966,0,0,0,.685.284.966.966,0,0,0,.685-.284l1.754-1.754c.042.076.082.153.119.227a2.56,2.56,0,0,1,.262,1.1,4.763,4.763,0,0,1-1.639,3.168l-.089.077a.975.975,0,0,0-.1.1l-.077.089a4.766,4.766,0,0,1-3.168,1.639,2.613,2.613,0,0,1-1.543-.514l-.054-.045-.094-.072a4.2,4.2,0,0,1-.412-.362,2.9,2.9,0,0,1-.975-2.084,4.764,4.764,0,0,1,1.639-3.168l.09-.077a.981.981,0,0,0,.1-.1l.077-.089a5.518,5.518,0,0,1,2.445-1.553.969.969,0,0,0,.711-1.172.969.969,0,0,0-1.171-.711,7.411,7.411,0,0,0-3.377,2.088c-.017.017-.033.034-.048.051l-.055.064-.064.055c-.018.015-.035.031-.051.048a6.63,6.63,0,0,0-2.23,4.562,4.8,4.8,0,0,0,1.543,3.455,6.156,6.156,0,0,0,.6.529l.031.024a.936.936,0,0,0,.087.072,4.567,4.567,0,0,0,2.752.935,6.633,6.633,0,0,0,4.562-2.23c.017-.017.033-.034.048-.052l.055-.063.064-.055c.018-.016.035-.032.052-.048a6.63,6.63,0,0,0,2.23-4.562,4.482,4.482,0,0,0-.455-1.942l-.008-.016c-.068-.137-.235-.459-.439-.786l3.127-3.127a.969.969,0,0,0,0-1.37.969.969,0,0,0-1.37,0l-1.728,1.728c-.058-.083-.115-.168-.168-.248a2.539,2.539,0,0,1-.24-1.052,4.764,4.764,0,0,1,1.639-3.168l.089-.077a.955.955,0,0,0,.1-.1l.077-.089a4.768,4.768,0,0,1,3.168-1.639,2.612,2.612,0,0,1,1.543.515c.018.016.036.03.054.045l.094.072a4.258,4.258,0,0,1,.412.362,2.9,2.9,0,0,1,.975,2.084,4.764,4.764,0,0,1-1.639,3.168l-.09.078a.962.962,0,0,0-.1.1l-.077.089a5.268,5.268,0,0,1-2.516,1.515.969.969,0,0,0-.742,1.152.969.969,0,0,0,.946.764.958.958,0,0,0,.206-.022,7.17,7.17,0,0,0,3.5-2.061c.017-.016.033-.034.048-.051l.055-.064.064-.055c.018-.015.035-.031.051-.048a6.629,6.629,0,0,0,2.23-4.562,4.8,4.8,0,0,0-1.543-3.455,6.159,6.159,0,0,0-.6-.529l-.031-.024a.994.994,0,0,0-.087-.072,4.567,4.567,0,0,0-2.752-.936,6.634,6.634,0,0,0-4.562,2.23c-.017.017-.033.034-.048.052l-.055.064-.064.055q-.027.023-.052.048a6.63,6.63,0,0,0-2.23,4.562,4.483,4.483,0,0,0,.455,1.942Zm0,0" transform="translate(-158 127.004)" fill="#fff"/>
    </g>
  </g>
</svg>
