<svg id="Group_5475" data-name="Group 5475" xmlns="http://www.w3.org/2000/svg" width="56" height="56" viewBox="0 0 56 56">
  <path id="Path_16640" data-name="Path 16640" d="M28,0A28,28,0,1,1,0,28,28,28,0,0,1,28,0Z" fill="#396e75"/>
  <g id="sms_1_" data-name="sms (1)" transform="translate(12.444 12.153)">
    <g id="Group_5586" data-name="Group 5586">
      <path id="Path_16592" data-name="Path 16592" d="M34.947,0H12.132A4.152,4.152,0,0,0,7.984,4.148V22.815a4.152,4.152,0,0,0,4.148,4.148v4.146a1.038,1.038,0,0,0,.6.94,1.052,1.052,0,0,0,.44.1,1.025,1.025,0,0,0,.664-.241l5.934-4.943h15.18A4.152,4.152,0,0,0,39.1,22.815V4.148A4.152,4.152,0,0,0,34.947,0Zm-19.7,12.444a3.111,3.111,0,0,1,0,6.222H13.169a1.037,1.037,0,1,1,0-2.074h2.074a1.037,1.037,0,0,0,0-2.074,3.111,3.111,0,1,1,0-6.222h2.074a1.037,1.037,0,1,1,0,2.074H15.243a1.037,1.037,0,1,0,0,2.074ZM26.651,17.63a1.037,1.037,0,0,1-2.074,0v-3.9l-.11.22a1.08,1.08,0,0,1-1.856,0l-.108-.22v3.9a1.037,1.037,0,0,1-2.074,0v-8.3a1.037,1.037,0,0,1,1.964-.465l1.147,2.294,1.147-2.292a1.036,1.036,0,0,1,1.964.463Zm5.185-5.185a3.111,3.111,0,0,1,0,6.222H29.762a1.037,1.037,0,0,1,0-2.074h2.074a1.037,1.037,0,1,0,0-2.074,3.111,3.111,0,1,1,0-6.222H33.91a1.037,1.037,0,0,1,0,2.074H31.836a1.037,1.037,0,1,0,0,2.074Z" transform="translate(-7.984)" fill="#fff"/>
    </g>
  </g>
</svg>
