<svg xmlns="http://www.w3.org/2000/svg" width="24.624" height="17.928" viewBox="0 0 24.624 17.928">
  <g id="Group_7220" data-name="Group 7220" transform="translate(-1054.224 -643.855)">
    <path id="Path_16762" data-name="Path 16762" d="M1059.48,661.783c2.664-2.88,5.832-8.136,5.832-12.168,0-3.672-2.088-5.76-5.832-5.76-3.384,0-5.256,1.944-5.256,5.112,0,2.592,1.3,4.68,3.528,4.68.936,0,1.08.5,1.08,1.08,0,1.368-1.224,3.888-2.736,5.688Z" fill="#6faf82"/>
    <path id="Path_16763" data-name="Path 16763" d="M1073.016,661.783c2.664-2.88,5.832-8.136,5.832-12.168,0-3.672-2.088-5.76-5.9-5.76-3.384,0-5.184,1.944-5.184,5.112,0,2.592,1.3,4.68,3.528,4.68.936,0,1.08.5,1.08,1.08,0,1.368-1.224,3.888-2.736,5.688Z" fill="#6faf82"/>
  </g>
</svg>
