<svg xmlns="http://www.w3.org/2000/svg" width="220.363" height="20" viewBox="0 0 220.363 20">
  <g id="Group_7152" data-name="Group 7152" transform="translate(-31.114 -26.107)">
    <g id="Group_7150" data-name="Group 7150" transform="translate(55.357 26.107)">
      <path id="Path_16680" data-name="Path 16680" d="M262.667,28.21c.092,0,.18,0,.262-.009a.653.653,0,0,0,.219-.051.349.349,0,0,0,.154-.129.451.451,0,0,0,.056-.245.384.384,0,0,0-.05-.211.34.34,0,0,0-.134-.12.529.529,0,0,0-.185-.057,1.3,1.3,0,0,0-.208-.015h-.541v.837Zm.18-1.171a1.078,1.078,0,0,1,.7.187.693.693,0,0,1,.226.566.64.64,0,0,1-.2.521.881.881,0,0,1-.492.2l.75,1.166h-.439l-.716-1.131h-.434v1.131h-.411V27.039ZM261,29.114a1.888,1.888,0,0,0,.391.611,1.823,1.823,0,0,0,1.324.553,1.788,1.788,0,0,0,.729-.148,1.815,1.815,0,0,0,.584-.406,1.873,1.873,0,0,0,.392-.611,2.055,2.055,0,0,0,.141-.766,2.011,2.011,0,0,0-.141-.753,1.834,1.834,0,0,0-.976-1.007,1.8,1.8,0,0,0-.729-.148,1.836,1.836,0,0,0-1.324.551,1.858,1.858,0,0,0-.391.6,1.991,1.991,0,0,0-.141.753,2.035,2.035,0,0,0,.141.766m-.371-1.653a2.225,2.225,0,0,1,.49-.711,2.292,2.292,0,0,1,1.6-.644,2.22,2.22,0,0,1,.872.172,2.256,2.256,0,0,1,.716.472,2.292,2.292,0,0,1,.486.711,2.167,2.167,0,0,1,.182.885,2.224,2.224,0,0,1-.182.9,2.313,2.313,0,0,1-.486.715,2.2,2.2,0,0,1-.716.472,2.251,2.251,0,0,1-.872.168,2.278,2.278,0,0,1-.874-.168,2.208,2.208,0,0,1-.721-.472,2.246,2.246,0,0,1-.49-.715,2.221,2.221,0,0,1-.181-.9,2.164,2.164,0,0,1,.181-.885" transform="translate(-68.847 -26.107)" fill="#4f6d5a"/>
      <path id="Path_16681" data-name="Path 16681" d="M59.941,41.469c0,2.651-2.5,2.181-2.5,3.218,0,.443.525.312.812.312.7,0,1.4-.108,2.233-.108.906,0,1.792.108,3.068.108.337,0,.99.024.99-.341,0-1.217-3.332.548-3.332-4.437V31.393c0-.232.055-.413.21-.413.13,0,.287.122.467.338L74.4,44.818a.77.77,0,0,0,.674.36c.314,0,.314-.2.314-.776V29.836c0-2.725,2.212-2.1,2.212-2.881,0-.078,0-.336-.492-.336-.233,0-1.146.1-2.787.1-1.794,0-2.549-.1-2.965-.1a.4.4,0,0,0-.419.436c0,.858,3.174.4,3.174,2.757v8.645c0,.647-.049.961-.205.961s-.469-.314-.8-.677L62.644,27.292c-.461-.494-.152-.673-.981-.673-1.384,0-2.059.1-2.729.1-.5,0-.967-.1-1.459-.1a.405.405,0,0,0-.445.436c0,1.251,2.911-.436,2.911,4.544Z" transform="translate(-56.882 -26.137)" fill="#03571c"/>
      <path id="Path_16682" data-name="Path 16682" d="M59.932,41.46h-.149a2.092,2.092,0,0,1-1.175,2.084c-.3.166-.61.289-.868.439a.819.819,0,0,0-.458.7.434.434,0,0,0,.2.4l.376.079c.15,0,.293-.017.384-.017.712,0,1.416-.107,2.233-.107.9,0,1.784.107,3.068.107h.139a2.486,2.486,0,0,0,.595-.053.467.467,0,0,0,.4-.435.562.562,0,0,0-.192-.448,1.979,1.979,0,0,0-.833-.292,2.585,2.585,0,0,1-1.5-.726,4.273,4.273,0,0,1-.8-2.971V31.383l.028-.235.03-.031c.033-.009.184.076.356.287h0L74.285,44.912l.109-.1-.11.1a.913.913,0,0,0,.784.408.391.391,0,0,0,.417-.273,2.47,2.47,0,0,0,.049-.651V29.827c.007-1.322.5-1.765,1.021-2.038.259-.135.53-.21.753-.312a.6.6,0,0,0,.429-.532l-.1-.292a.657.657,0,0,0-.54-.193c-.257,0-1.148.1-2.787.1-1.789,0-2.527-.1-2.965-.1a.531.531,0,0,0-.456.213l-.115.372a.507.507,0,0,0,.189.384,10.917,10.917,0,0,0,1.786.686,1.713,1.713,0,0,1,1.2,1.687v8.645a4.345,4.345,0,0,1-.037.695l-.043.123h.006l.019.036v-.043l-.019.008.019.036v-.043l-.009-.006a2.928,2.928,0,0,1-.684-.619L62.744,27.182a3.076,3.076,0,0,1-.344-.511l-.269-.17a2.044,2.044,0,0,0-.477-.04c-1.392,0-2.074.1-2.729.1-.483,0-.947-.1-1.459-.1a.583.583,0,0,0-.452.18.606.606,0,0,0-.141.4.686.686,0,0,0,.553.679,3.346,3.346,0,0,1,1.484.676c.468.459.872,1.34.872,3.19v9.87h.3v-9.87c.006-2.512-.755-3.423-1.54-3.8a6.9,6.9,0,0,0-1.019-.343c-.256-.106-.344-.154-.353-.4l.064-.205a.29.29,0,0,1,.231-.082c.469,0,.936.1,1.459.1.688,0,1.35-.1,2.729-.1a1.866,1.866,0,0,1,.4.03l.152.137a2.038,2.038,0,0,0,.316.457l10.463,11.45c.168.181.333.353.48.484a.742.742,0,0,0,.432.235l.222-.123a2.041,2.041,0,0,0,.134-.983V29.8a2.141,2.141,0,0,0-1.688-2.082c-.407-.144-.8-.243-1.088-.352a1.043,1.043,0,0,1-.313-.167l-.088-.156.057-.2a.235.235,0,0,1,.214-.089c.4,0,1.167.1,2.965.1,1.64,0,2.575-.1,2.787-.1s.288.056.313.085l.026.1c0,.111-.056.165-.258.261a4.254,4.254,0,0,0-1.2.6,2.464,2.464,0,0,0-.753,2.016V44.391a2.265,2.265,0,0,1-.032.557c-.038.07,0,.059-.133.073-.317-.008-.367-.1-.56-.31l0,0-12.511-13.5-.112.1.116-.1c-.2-.216-.356-.376-.583-.389a.32.32,0,0,0-.3.213.871.871,0,0,0-.061.352v8.829c-.009,2.52.87,3.423,1.759,3.769a8.555,8.555,0,0,0,1.165.308.8.8,0,0,1,.319.138l.087.221c0,.063-.032.1-.182.145a2.143,2.143,0,0,1-.518.048h-.139c-1.268,0-2.146-.107-3.068-.107-.844,0-1.551.107-2.233.107l-.384.017-.221-.04-.06-.142c0-.189.1-.3.32-.44a9.168,9.168,0,0,0,1.338-.753,2.448,2.448,0,0,0,.845-2.025Z" transform="translate(-56.873 -26.128)" fill="#03571c"/>
      <path id="Path_16683" data-name="Path 16683" d="M118.434,41.612c0,3.087-2.943,1.838-2.943,2.858,0,.565.445.545.912.545,1.037,0,1.895-.105,3.642-.105s2.6.105,3.64.105c.756,0,1.275.076,1.275-.545,0-.73-3.329.024-3.329-3.17V29.563c0-1.248.26-1.375,1.328-1.375h2.211c2.988-.1,2.162,2.778,3.193,2.778.682,0,.392-1.015.342-1.322l-.284-2.39c-.026-.261-.026-.625-.42-.625-2.418,0-4.16.1-7.956.1s-5.544-.1-7.963-.1c-.389,0-.389.364-.413.625l-.418,3.426c-.051.337-.211.905.338.905,1.174,0,.393-3.4,3.33-3.4h2.188c1.063,0,1.327.127,1.327,1.375Z" transform="translate(-60.068 -26.138)" fill="#03571c"/>
      <path id="Path_16684" data-name="Path 16684" d="M118.425,41.6h-.15c-.015,1.492-.663,1.851-1.362,2.061-.352.1-.716.131-1.011.211a.928.928,0,0,0-.388.184.507.507,0,0,0-.181.4.607.607,0,0,0,.33.6,1.521,1.521,0,0,0,.63.088h.1c1.05,0,1.9-.105,3.642-.105s2.59.105,3.64.105l.417,0a1.567,1.567,0,0,0,.692-.1.611.611,0,0,0,.318-.593.4.4,0,0,0-.216-.343,3.286,3.286,0,0,0-.808-.253,3.657,3.657,0,0,1-1.52-.63,2.3,2.3,0,0,1-.787-1.944V29.553c0-.619.072-.92.216-1.046s.428-.184.964-.181h2.216l.153,0a1.912,1.912,0,0,1,2.048,1.3c.141.336.223.681.344.959a.71.71,0,0,0,.642.524.534.534,0,0,0,.478-.243.891.891,0,0,0,.115-.485,4.162,4.162,0,0,0-.1-.767l-.284-2.383a1.7,1.7,0,0,0-.081-.451.5.5,0,0,0-.486-.307c-2.424,0-4.164.106-7.956.106s-5.537-.106-7.963-.106a.49.49,0,0,0-.478.307,1.725,1.725,0,0,0-.086.456l-.411,3.421a3.123,3.123,0,0,0-.063.5.6.6,0,0,0,.109.386.521.521,0,0,0,.436.184.822.822,0,0,0,.735-.62A13.245,13.245,0,0,1,113,29.332a2,2,0,0,1,1.908-1.005H117.1c.53,0,.824.043.961.181s.218.426.216,1.046V41.6h.3V29.553c0-.63-.056-1.015-.312-1.264a1.669,1.669,0,0,0-1.162-.26H114.91a2.42,2.42,0,0,0-2.467,1.8c-.161.434-.266.862-.4,1.161s-.262.438-.466.44c-.135,0-.171-.033-.2-.068l-.047-.2a3.571,3.571,0,0,1,.059-.462l.414-3.428a1.55,1.55,0,0,1,.063-.374c.045-.083.062-.116.206-.122,2.416,0,4.16.1,7.963.1s5.543-.1,7.956-.1c.149.007.165.04.209.122a1.251,1.251,0,0,1,.061.369l.286,2.39a4.62,4.62,0,0,1,.1.727.677.677,0,0,1-.065.328.244.244,0,0,1-.231.1c-.17,0-.258-.1-.374-.344a7.427,7.427,0,0,0-.613-1.489,2.254,2.254,0,0,0-2.048-.948l-.163,0,0,.149v-.149H122.95a1.68,1.68,0,0,0-1.168.26c-.256.249-.307.634-.31,1.264V41.291a2.523,2.523,0,0,0,1.762,2.648,11.732,11.732,0,0,0,1.159.31,1.468,1.468,0,0,1,.34.122l.069.089c0,.216-.051.272-.152.326a1.294,1.294,0,0,1-.556.071l-.417,0c-1.028,0-1.891-.1-3.64-.1s-2.617.106-3.642.1h-.1a1.314,1.314,0,0,1-.5-.06c-.094-.056-.151-.105-.16-.334l.078-.177a1.355,1.355,0,0,1,.6-.19,3.421,3.421,0,0,0,1.456-.5,2.275,2.275,0,0,0,.8-1.992Z" transform="translate(-60.059 -26.128)" fill="#03571c"/>
      <path id="Path_16685" data-name="Path 16685" d="M168.857,29.37c0-2.464,1.951-1.532,1.951-2.416,0-.312-.132-.366-.908-.366-1.487,0-2.417.107-3.358.107-.911,0-1.926-.107-2.937-.107-.24,0-.886-.074-.886.366,0,.907,2.939.184,2.939,2.544V41.959c0,2.465-1.874,1.795-1.874,2.7a.279.279,0,0,0,.286.316c.674,0,1.8-.106,2.913-.106,2.027,0,2.992.106,3.955.106.6,0,.826-.106.826-.4,0-.824-2.907.37-2.907-2.827Z" transform="translate(-63.099 -26.135)" fill="#03571c"/>
      <path id="Path_16686" data-name="Path 16686" d="M168.848,29.361h.147c.015-1.2.434-1.478.881-1.661.231-.088.469-.132.672-.214a.562.562,0,0,0,.4-.541l-.052-.255a.448.448,0,0,0-.354-.224,4.036,4.036,0,0,0-.654-.039c-1.495,0-2.43.112-3.358.11-.9,0-1.915-.106-2.937-.11l-.238,0a1.362,1.362,0,0,0-.488.07.474.474,0,0,0-.312.45.518.518,0,0,0,.177.387,7.693,7.693,0,0,0,1.664.571,1.537,1.537,0,0,1,1.1,1.586V41.95c-.01,1.2-.426,1.559-.857,1.8-.225.119-.455.2-.653.31a.645.645,0,0,0-.365.584l.078.291a.42.42,0,0,0,.357.171c.689,0,1.8-.1,2.913-.1,2.021,0,2.98.1,3.955.1a1.69,1.69,0,0,0,.7-.1.46.46,0,0,0,.277-.44.409.409,0,0,0-.193-.349,1.957,1.957,0,0,0-.73-.195,2.644,2.644,0,0,1-1.309-.446,2.143,2.143,0,0,1-.679-1.837V29.361h-.3v12.38c-.015,1.645.8,2.245,1.561,2.446.384.1.756.135,1.015.188a.762.762,0,0,1,.279.092l.057.1-.106.168a1.394,1.394,0,0,1-.573.076c-.951,0-1.92-.1-3.955-.1-1.124,0-2.251.105-2.913.1l-.109-.04-.026-.125c.006-.171.062-.231.218-.33a4.627,4.627,0,0,0,1.012-.557,2.25,2.25,0,0,0,.645-1.81V29.489a1.916,1.916,0,0,0-1.576-1.96c-.38-.118-.747-.184-1.005-.279a.751.751,0,0,1-.283-.147l-.079-.159.127-.172a1,1,0,0,1,.374-.05l.238,0c1,0,2.015.109,2.937.109.952,0,1.877-.109,3.358-.109a2.343,2.343,0,0,1,.69.056l.054.04.016.122c-.008.158-.05.186-.216.265a4.178,4.178,0,0,0-1.056.416,1.95,1.95,0,0,0-.681,1.735Z" transform="translate(-63.089 -26.126)" fill="#03571c"/>
      <path id="Path_16687" data-name="Path 16687" d="M207.9,29.394c0-2.47,1.953-1.532,1.953-2.409,0-.316-.131-.366-.913-.366-1.484,0-2.418.1-3.353.1-.913,0-1.925-.1-2.936-.1-.235,0-.889-.082-.889.366,0,.9,2.943.176,2.943,2.536V41.982c0,2.471-1.874,1.8-1.874,2.7a.275.275,0,0,0,.286.312c.675,0,1.8-.108,2.915-.108,2.024,0,2.987.108,3.949.108.6,0,.838-.108.838-.392,0-.826-2.918.367-2.918-2.827Z" transform="translate(-65.395 -26.137)" fill="#03571c"/>
      <path id="Path_16688" data-name="Path 16688" d="M207.889,29.385h.149c.015-1.2.433-1.481.882-1.663.229-.088.467-.127.671-.213a.55.55,0,0,0,.4-.534l-.047-.258a.459.459,0,0,0-.356-.222,3.974,3.974,0,0,0-.66-.035c-1.49,0-2.43.1-3.353.1-.9,0-1.917-.1-2.936-.1l-.256,0a1.264,1.264,0,0,0-.478.072.463.463,0,0,0-.3.448.512.512,0,0,0,.174.382,7.6,7.6,0,0,0,1.667.573,1.521,1.521,0,0,1,1.1,1.581V41.973c-.006,1.2-.426,1.564-.857,1.809-.22.12-.449.2-.65.311a.659.659,0,0,0-.367.584l.085.29a.416.416,0,0,0,.354.17c.687,0,1.808-.108,2.916-.108,2.021,0,2.977.108,3.949.108a1.7,1.7,0,0,0,.707-.1.456.456,0,0,0,.281-.437.412.412,0,0,0-.2-.352,1.94,1.94,0,0,0-.732-.193,2.742,2.742,0,0,1-1.31-.444,2.151,2.151,0,0,1-.681-1.838V29.385h-.3V41.77c-.013,1.641.8,2.243,1.568,2.444a9.925,9.925,0,0,0,1.016.188,1.02,1.02,0,0,1,.276.088l.06.106-.109.165a1.506,1.506,0,0,1-.583.08c-.951,0-1.916-.107-3.949-.107-1.125,0-2.254.107-2.916.107l-.11-.045-.026-.12c0-.167.057-.231.215-.326a4.921,4.921,0,0,0,1.016-.567,2.256,2.256,0,0,0,.646-1.812V29.512a1.919,1.919,0,0,0-1.58-1.957c-.376-.115-.748-.187-1.005-.278a.788.788,0,0,1-.284-.145l-.074-.157.119-.172a1,1,0,0,1,.364-.052l.256.006c1,0,2.013.1,2.936.1.945,0,1.877-.1,3.353-.1a2.411,2.411,0,0,1,.7.055l.046.04.021.123c-.009.153-.05.183-.212.26a4.094,4.094,0,0,0-1.06.411,1.944,1.944,0,0,0-.681,1.738Z" transform="translate(-65.386 -26.128)" fill="#03571c"/>
      <path id="Path_16689" data-name="Path 16689" d="M224.21,41.569c0,3.088-2.932,1.843-2.932,2.856,0,.575.442.548.908.548,1.039,0,1.9-.105,3.642-.105s2.6.105,3.644.105c.751,0,1.271.073,1.271-.548,0-.723-3.331.028-3.331-3.165V29.526c0-1.249.261-1.378,1.327-1.378h2.21c3-.1,2.161,2.777,3.2,2.777.675,0,.389-1.014.334-1.326l-.284-2.386c-.023-.26-.023-.626-.419-.626-2.419,0-4.156.106-7.955.106s-5.544-.106-7.958-.106c-.392,0-.392.366-.423.626l-.408,3.429c-.055.335-.216.905.335.905,1.168,0,.392-3.4,3.331-3.4h2.181c1.07,0,1.323.129,1.323,1.378Z" transform="translate(-66.291 -26.135)" fill="#03571c"/>
      <path id="Path_16690" data-name="Path 16690" d="M224.2,41.559h-.146c-.016,1.495-.662,1.855-1.358,2.066-.354.1-.714.13-1.011.206a1.138,1.138,0,0,0-.391.182.519.519,0,0,0-.177.4.606.606,0,0,0,.319.6,1.372,1.372,0,0,0,.615.093h.125c1.051,0,1.9-.1,3.642-.1s2.589.1,3.644.1c.145,0,.285,0,.41,0a1.646,1.646,0,0,0,.695-.1.613.613,0,0,0,.317-.6.4.4,0,0,0-.216-.342c-.393-.222-1.157-.248-1.847-.58a2.2,2.2,0,0,1-1.272-2.244V29.517c0-.619.074-.922.217-1.051s.428-.182.962-.18h2.217l.151,0a1.919,1.919,0,0,1,2.054,1.3c.139.336.219.681.339.959a.719.719,0,0,0,.652.524.542.542,0,0,0,.478-.241.917.917,0,0,0,.112-.484,4.18,4.18,0,0,0-.108-.774l-.148.024.148-.014-.281-2.389a1.648,1.648,0,0,0-.086-.451.491.491,0,0,0-.484-.31c-2.424,0-4.163.109-7.955.109s-5.534-.109-7.958-.109a.491.491,0,0,0-.486.31,1.937,1.937,0,0,0-.085.455l-.408,3.425.148.017-.148-.024a3.229,3.229,0,0,0-.066.508.612.612,0,0,0,.112.388.526.526,0,0,0,.437.182c.381,0,.6-.292.739-.622a12.6,12.6,0,0,1,.683-1.773,2,2,0,0,1,1.909-1.005h2.181c.533,0,.827.045.962.18s.217.432.216,1.051V41.559h.3V29.517c0-.632-.05-1.015-.308-1.267a1.681,1.681,0,0,0-1.166-.262H220.7a2.43,2.43,0,0,0-2.472,1.8c-.161.435-.265.862-.4,1.162s-.259.439-.463.439a.243.243,0,0,1-.2-.065l-.048-.205a3.1,3.1,0,0,1,.061-.46v0l.414-3.432a1.261,1.261,0,0,1,.058-.372c.05-.085.064-.118.213-.125,2.411,0,4.152.109,7.958.109s5.541-.109,7.955-.109c.147.008.167.04.211.125a1.555,1.555,0,0,1,.064.371l.28,2.392v0a3.841,3.841,0,0,1,.1.722.637.637,0,0,1-.063.323.228.228,0,0,1-.227.1c-.172,0-.262-.1-.376-.344a7.741,7.741,0,0,0-.615-1.491,2.267,2.267,0,0,0-2.054-.947l-.161,0,0,.151v-.151h-2.21a1.675,1.675,0,0,0-1.166.262c-.253.252-.308.635-.313,1.267V41.25a2.523,2.523,0,0,0,1.767,2.648c.434.156.856.229,1.16.311a1.449,1.449,0,0,1,.338.12l.07.087c0,.222-.053.276-.15.33a1.423,1.423,0,0,1-.562.071c-.124,0-.264,0-.41,0-1.032,0-1.9-.1-3.644-.1s-2.615.106-3.642.1h-.125a1.185,1.185,0,0,1-.484-.06c-.09-.051-.146-.107-.153-.337l.073-.174a1.5,1.5,0,0,1,.61-.19,3.419,3.419,0,0,0,1.456-.5,2.3,2.3,0,0,0,.8-2Z" transform="translate(-66.281 -26.126)" fill="#03571c"/>
      <path id="Path_16691" data-name="Path 16691" d="M103.732,34.1V29.653c0-2.932,1.827-2,1.827-2.7,0-.286-.16-.336-.472-.336-1.3.05-2.108.1-2.959.1-.732,0-1.432-.054-2.184-.1-.338,0-.786-.13-.786.285,0,.931,3.206.132,3.206,3.115V34.1l-.022,2.278c.254,6.334-3.152,7.4-5.831,7.3-5.049,0-5.7-3.324-5.7-7.3v-5.63c0-4.257,2.186-2.885,2.186-3.761,0-.162-.05-.366-.286-.366-.494,0-2.341.1-3.661.1s-3.254-.1-3.6-.1c-.205,0-.541.072-.541.417,0,.98,2.706.152,2.706,2.389v8.463c0,5.033,3.715,7.289,8.582,7.289,4.8-.026,7.4-2.4,7.567-7.289V34.127Z" transform="translate(-58.522 -26.136)" fill="#03571c"/>
      <path id="Path_16692" data-name="Path 16692" d="M103.723,34.088h.152V29.644c.008-1.443.428-1.854.825-2.054a5.228,5.228,0,0,1,.611-.2l.261-.142.126-.3a.428.428,0,0,0-.188-.4.805.805,0,0,0-.432-.085h-.006c-1.3.05-2.11.1-2.953.1-.728,0-1.42-.055-2.175-.1h-.009c-.115,0-.264-.018-.406-.021l-.348.082a.414.414,0,0,0-.18.373.5.5,0,0,0,.191.4,14.2,14.2,0,0,0,1.8.649,2.018,2.018,0,0,1,1.22,2.071v4.079l-.024,2.278c.012.228.015.446.015.653,0,2.729-.739,4.343-1.76,5.284a5.213,5.213,0,0,1-3.6,1.218l-.331,0H96.5c-2.5-.008-3.847-.809-4.616-2.088a10.036,10.036,0,0,1-.937-5.062v-5.63c0-2.113.534-2.753,1.016-3.019a3.29,3.29,0,0,1,.724-.243l.3-.151a.459.459,0,0,0,.144-.348l-.073-.32a.41.41,0,0,0-.362-.195c-.505,0-2.344.1-3.661.1-1.3,0-3.244-.1-3.6-.1a.867.867,0,0,0-.42.1.511.511,0,0,0-.27.468.669.669,0,0,0,.52.612,12.327,12.327,0,0,1,1.412.432,1.319,1.319,0,0,1,.775,1.345v8.463a6.781,6.781,0,0,0,2.523,5.65,10.022,10.022,0,0,0,6.206,1.787,7.928,7.928,0,0,0,5.626-1.862,7.728,7.728,0,0,0,2.089-5.57V34.062l-.067-.073-.112.1h0l-.107.1.027.028.11-.1h-.15v3.759a7.413,7.413,0,0,1-2,5.358,7.647,7.647,0,0,1-5.421,1.786,9.732,9.732,0,0,1-6.016-1.728,6.475,6.475,0,0,1-2.409-5.416V29.414a1.716,1.716,0,0,0-.47-1.286,3.036,3.036,0,0,0-1.5-.65,2.373,2.373,0,0,1-.568-.189c-.13-.081-.171-.138-.175-.264l.115-.209.277-.059c.331,0,2.291.1,3.6.1,1.324,0,3.176-.1,3.661-.1l.105.05.035.168-.049.128a1.239,1.239,0,0,1-.44.153A1.8,1.8,0,0,0,91.23,28a4.825,4.825,0,0,0-.581,2.736v5.63a10.305,10.305,0,0,0,.98,5.213c.822,1.381,2.318,2.236,4.872,2.232v-.149l-.008.149.344.008a5.5,5.5,0,0,0,3.8-1.3c1.1-1.01,1.858-2.722,1.858-5.5,0-.213-.007-.432-.015-.659l.022-2.27V30.009a2.355,2.355,0,0,0-1.7-2.469c-.411-.147-.818-.231-1.1-.326a1.148,1.148,0,0,1-.315-.154l-.083-.167.044-.123.186-.033c.116,0,.263.02.406.02v-.149l-.008.149c.754.05,1.455.1,2.193.1.855,0,1.672-.051,2.964-.1l0-.149v.149a.582.582,0,0,1,.277.04l.044.148-.031.088c-.072.1-.548.118-.982.4s-.809.906-.809,2.213v4.5l.04.044Z" transform="translate(-58.513 -26.127)" fill="#03571c"/>
      <path id="Path_16693" data-name="Path 16693" d="M149.128,42.839c1.493,2.111,3.184,3.11,5.24,3.145.511.015,2.408-.1,2.349-.557-.061-.52-.478-.339-1.163-.505-1.965-.485-6.235-6.851-7.467-7.623a5.353,5.353,0,0,0,4.993-5.87c-.049-.982-.518-4.847-6.212-4.847-1.736,0-5.769.1-7.509.1-1.639,0-1.848-.1-3.042-.1-.314,0-.572.127-.572.389,0,.931,2.831-.028,2.831,2.876V41.262c0,3.268-2.1,2.421-2.1,3.248,0,.521.543.44.836.44,1.3,0,2.6-.1,4-.1,1.089,0,1.793.1,2.232.1.6,0,.808-.154.808-.385,0-.94-2.668-.114-2.6-2.808l.011-12.258c0-1.553.808-1.553,1.769-1.553,2.624,0,6.56-.188,6.743,4.238.045,1.165-.891,4.1-4.709,4.03-.506-.012-1.437.132-1.542.394-.135.335-.048.532.608.792s1.962,1.832,4.5,5.437" transform="translate(-61.512 -26.135)" fill="#03571c"/>
      <path id="Path_16694" data-name="Path 16694" d="M149.118,42.829l-.122.084c1.507,2.137,3.256,3.178,5.359,3.212h.086a9.616,9.616,0,0,0,1.381-.114,3.12,3.12,0,0,0,.677-.174c.177-.078.35-.181.36-.4V45.4a.626.626,0,0,0-.154-.361.772.772,0,0,0-.489-.175,5.447,5.447,0,0,1-.634-.088h0c-.887-.205-2.477-1.914-3.93-3.659-.732-.872-1.444-1.757-2.052-2.472a8.769,8.769,0,0,0-1.447-1.481l-.077.131.019.145a5.468,5.468,0,0,0,5.132-5.674l-.008-.352a5.267,5.267,0,0,0-1.02-2.872c-.863-1.13-2.46-2.119-5.342-2.116-1.741,0-5.776.1-7.509.1-1.631,0-1.836-.1-3.042-.1a.888.888,0,0,0-.483.123.481.481,0,0,0-.238.418.506.506,0,0,0,.171.382c.363.3,1.016.286,1.6.555a1.833,1.833,0,0,1,1.064,1.939V41.253c0,1.608-.5,2.127-.975,2.41a6.743,6.743,0,0,1-.711.3.575.575,0,0,0-.42.533.541.541,0,0,0,.272.5.988.988,0,0,0,.472.09l.242,0c1.307,0,2.6-.1,4-.1,1.078,0,1.771.1,2.232.1a1.513,1.513,0,0,0,.7-.123.447.447,0,0,0,.259-.409.649.649,0,0,0-.5-.592,6.916,6.916,0,0,1-1.345-.5,1.7,1.7,0,0,1-.755-1.617l0-.1.01-12.259c0-.758.189-1.073.45-1.232a2.379,2.379,0,0,1,1.17-.173h.631a9.5,9.5,0,0,1,3.9.575,3.627,3.627,0,0,1,2.06,3.52v.079a3.911,3.911,0,0,1-.892,2.329,4.332,4.332,0,0,1-3.532,1.469h-.132l0,.148.007-.148h-.068a4.366,4.366,0,0,0-.929.105,2.046,2.046,0,0,0-.413.135.512.512,0,0,0-.279.248l-.062.285a.51.51,0,0,0,.2.4,1.957,1.957,0,0,0,.554.3,5.411,5.411,0,0,1,1.482,1.423c.721.87,1.684,2.158,2.951,3.959l.244-.169c-1.268-1.8-2.234-3.1-2.969-3.98a5.446,5.446,0,0,0-1.593-1.506A1.8,1.8,0,0,1,144.2,37l-.1-.174.044-.175.123-.088a3.478,3.478,0,0,1,1.219-.215l.059,0h.136a4.618,4.618,0,0,0,3.76-1.576,4.158,4.158,0,0,0,.963-2.52v-.093a3.93,3.93,0,0,0-2.234-3.776,9.8,9.8,0,0,0-4.025-.6h-.631A2.567,2.567,0,0,0,142.2,28c-.381.229-.6.688-.593,1.487l-.011,12.258v.1a1.983,1.983,0,0,0,1.4,2.11c.333.125.664.2.887.284s.312.167.313.315l-.1.149a1.336,1.336,0,0,1-.561.088c-.42,0-1.135-.1-2.232-.1-1.412,0-2.711.1-4,.1l-.242,0a.778.778,0,0,1-.331-.054c-.069-.043-.109-.078-.111-.239,0-.13.051-.171.238-.261a2.519,2.519,0,0,0,1.866-2.987V29.837a2.144,2.144,0,0,0-1.521-2.322c-.365-.122-.727-.184-.972-.263l-.269-.133-.071-.159.1-.168a.637.637,0,0,1,.325-.073c1.179,0,1.39.1,3.042.1,1.743,0,5.774-.1,7.509-.1,2.818,0,4.3.948,5.108,1.994a4.958,4.958,0,0,1,.956,2.711l.009.336a5.165,5.165,0,0,1-4.872,5.38l-.413.048.352.225a8.686,8.686,0,0,1,1.376,1.419c.907,1.067,2.05,2.522,3.16,3.758a8.189,8.189,0,0,0,2.979,2.468c.36.088.649.082.821.12l.16.071.071.186h.006l-.006,0,.006,0-.006,0-.029.033a2.2,2.2,0,0,1-.943.273,9.387,9.387,0,0,1-1.15.084h-.079c-2.006-.04-3.64-1-5.122-3.085Z" transform="translate(-61.503 -26.125)" fill="#03571c"/>
      <path id="Path_16695" data-name="Path 16695" d="M186.25,28.955c0-1.97,1.853-1.009,1.853-2,0-.312-.136-.337-.682-.337-.411,0-.724.105-2.941.105-.986,0-2.494-.105-3.536-.105-.543,0-.828.205-.828.438,0,.917,2.937.208,2.937,2.416v12.28c0,3.164-1.974,1.769-1.974,2.965,0,.152.152.282.489.282,1.434,0,2.524-.108,3.327-.108,1.3,0,4.235-.025,8.919.108,2.134.063,3.669-2.135,3.669-4.152,0-.5-.182-.571-.288-.571-.988,0-.64,2.9-7.069,3.322-4.279.283-3.775-.261-3.876-2.471Z" transform="translate(-64.122 -26.137)" fill="#03571c"/>
      <path id="Path_16696" data-name="Path 16696" d="M186.24,28.946h.152a1.344,1.344,0,0,1,.252-.908,1.571,1.571,0,0,1,.9-.4,1.275,1.275,0,0,0,.472-.19.594.594,0,0,0,.226-.5.406.406,0,0,0-.226-.42,1.551,1.551,0,0,0-.6-.066c-.44,0-.724.105-2.941.105-.982,0-2.489-.105-3.536-.105a1.376,1.376,0,0,0-.693.153.511.511,0,0,0-.29.433.526.526,0,0,0,.178.388A6.825,6.825,0,0,0,181.8,28a1.424,1.424,0,0,1,1.1,1.464v12.28c-.012,1.562-.458,1.9-.9,2.083-.222.091-.469.124-.685.223a.655.655,0,0,0-.4.659.378.378,0,0,0,.188.322.822.822,0,0,0,.454.108c1.44,0,2.539-.108,3.327-.108l1.476,0c1.606,0,4.067.014,7.441.11h.091c2.2-.008,3.726-2.247,3.729-4.3a.987.987,0,0,0-.133-.559l-.3-.163c-.334.007-.533.245-.734.52-.63.829-1.551,2.471-6.344,2.8-.676.049-1.232.071-1.683.071a4.841,4.841,0,0,1-1.319-.131.78.78,0,0,1-.635-.669,12.867,12.867,0,0,1-.078-1.6V28.946h-.3V41.118a5.276,5.276,0,0,0,.225,2.039,1.115,1.115,0,0,0,.7.509,5.146,5.146,0,0,0,1.4.141c.461,0,1.02-.024,1.7-.07,3.234-.215,4.8-1.057,5.665-1.863a6.656,6.656,0,0,0,.9-1.059c.207-.283.34-.4.5-.4l.062.036a.67.67,0,0,1,.073.387,4.469,4.469,0,0,1-.974,2.73,3.159,3.159,0,0,1-2.453,1.274h-.085c-3.377-.1-5.842-.111-7.448-.111-.619,0-1.109,0-1.476,0-.814,0-1.9.107-3.327.107a.55.55,0,0,1-.291-.063l-.054-.072c.008-.261.07-.308.221-.389a3.668,3.668,0,0,0,1.075-.447,2.558,2.558,0,0,0,.681-2.129V29.462a1.831,1.831,0,0,0-1.576-1.835c-.376-.109-.745-.177-1.006-.266a.875.875,0,0,1-.28-.149l-.076-.166.136-.177a1.156,1.156,0,0,1,.546-.112c1.034,0,2.541.1,3.536.1,2.217,0,2.554-.1,2.941-.1a1.507,1.507,0,0,1,.484.04c.038.02.038,0,.047.148a.3.3,0,0,1-.2.319,9.426,9.426,0,0,0-.982.311,1.382,1.382,0,0,0-.668,1.37Z" transform="translate(-64.113 -26.128)" fill="#03571c"/>
      <path id="Path_16697" data-name="Path 16697" d="M246.692,29.6c0-1.79-.017-1.816,5.647-1.816,5.021,0,2.993,3.035,4.214,3.035.595,0,.466-.856.44-1.194l-.1-2.57a.5.5,0,0,0-.521-.489c-2.291,0-6.477.1-8.326.1-3.982,0-5.855-.1-6.919-.1-.369,0-.576.209-.576.438,0,1.041,2.941.213,2.941,2.547V41.7c0,3.164-1.977,1.765-1.977,2.954,0,.158.15.291.491.291,1.431,0,2.525-.1,3.33-.1,1.3,0,5.526.154,9.485.154,2.124,0,3.714-2.182,3.714-4.2,0-.494-.177-.578-.282-.578-.99,0-.625,3.4-7.077,3.4-4.374,0-4.484-.938-4.484-2.548V37.751c0-1.5-.108-1.814,1.091-1.814h4.206c2.7,0,1.974,2.753,2.807,2.753.625,0,.471-.939.446-1.278l-.185-4.618c-.026-.7-.311-.65-.492-.65-.524,0-.6,2.393-2.837,2.393h-3.92c-1.116,0-1.116-.183-1.116-1.3Z" transform="translate(-67.677 -26.134)" fill="#03571c"/>
      <path id="Path_16698" data-name="Path 16698" d="M246.683,29.59h.147v-.032a3.142,3.142,0,0,1,.085-.968.59.59,0,0,1,.312-.356c.535-.291,1.94-.315,5.1-.31,2.49.011,3.134.73,3.391,1.418a6.562,6.562,0,0,1,.208,1.023.9.9,0,0,0,.176.408.6.6,0,0,0,.956-.128,1.317,1.317,0,0,0,.1-.559c0-.192-.025-.373-.028-.483l-.106-2.565a.649.649,0,0,0-.668-.635c-2.293,0-6.482.1-8.326.1-3.982,0-5.846-.1-6.919-.1a.783.783,0,0,0-.52.168.548.548,0,0,0-.205.42.712.712,0,0,0,.555.648c.447.168,1.056.239,1.542.474a1.412,1.412,0,0,1,.841,1.425V41.692c-.009,1.563-.456,1.9-.9,2.079-.225.09-.471.122-.685.223a.646.646,0,0,0-.394.652.386.386,0,0,0,.184.329.836.836,0,0,0,.457.108c1.44,0,2.539-.1,3.33-.1,1.3,0,5.526.153,9.485.153,2.231-.008,3.864-2.261,3.865-4.348a.943.943,0,0,0-.132-.56l-.3-.168a.6.6,0,0,0-.425.19,11.212,11.212,0,0,1-1.506,1.864c-.866.7-2.343,1.349-5.145,1.349-2.173,0-3.276-.241-3.793-.639s-.544-.946-.544-1.758V37.741c0-.227,0-.425,0-.6,0-.492.033-.771.133-.882s.31-.184.814-.18h4.206a1.822,1.822,0,0,1,1.964,1.281c.126.328.2.671.293.943a1.2,1.2,0,0,0,.187.357.472.472,0,0,0,.363.172.559.559,0,0,0,.523-.323,1.316,1.316,0,0,0,.1-.576c0-.218-.023-.426-.03-.54l-.189-4.613a1,1,0,0,0-.193-.65.478.478,0,0,0-.376-.142h-.071a.387.387,0,0,0-.292.153c-.457.561-.706,2.236-2.545,2.239H247.8c-.56,0-.787-.06-.857-.171a2,2,0,0,1-.112-.981V29.59h-.3v3.637a2.059,2.059,0,0,0,.169,1.16c.209.258.536.287,1.1.29h3.92a2.4,2.4,0,0,0,2.185-1.268c.188-.309.321-.612.433-.831l.152-.244.067-.052h.071l.159.051a.7.7,0,0,1,.11.457l.189,4.622c.009.131.033.324.033.52a1.011,1.011,0,0,1-.072.445.256.256,0,0,1-.258.154l-.138-.07c-.173-.177-.246-.856-.537-1.477a2.12,2.12,0,0,0-2.132-1.207h-4.206c-.514,0-.835.047-1.046.289a1.736,1.736,0,0,0-.195,1.072v3.926a2.22,2.22,0,0,0,.662,2c.634.473,1.775.7,3.972.7,3.251,0,4.823-.859,5.693-1.747a6.56,6.56,0,0,0,.893-1.192,1.907,1.907,0,0,1,.268-.357l.222-.106.059.04a.715.715,0,0,1,.078.389,4.429,4.429,0,0,1-1.03,2.76,3.331,3.331,0,0,1-2.539,1.292c-3.957,0-8.173-.157-9.485-.157-.815,0-1.9.1-3.33.1a.54.54,0,0,1-.293-.062l-.055-.078c.013-.254.075-.3.225-.382a3.682,3.682,0,0,0,1.075-.444,2.558,2.558,0,0,0,.682-2.128V29.54a1.778,1.778,0,0,0-.506-1.342,3.458,3.458,0,0,0-1.615-.7,2.513,2.513,0,0,1-.619-.209c-.144-.088-.195-.158-.2-.294s.11-.282.424-.291c1.056,0,2.935.1,6.919.1,1.85,0,6.036-.1,8.326-.1a.35.35,0,0,1,.371.343l.105,2.577c.009.126.028.294.028.466a.961.961,0,0,1-.071.425.243.243,0,0,1-.251.147l-.213-.076a1.425,1.425,0,0,1-.168-.623,2.338,2.338,0,0,0-.7-1.529,4.6,4.6,0,0,0-3.13-.8,22.741,22.741,0,0,0-4.98.236,1.019,1.019,0,0,0-.72.626,3.4,3.4,0,0,0-.1,1.067v.032Z" transform="translate(-67.668 -26.125)" fill="#03571c"/>
    </g>
    <path id="Path_16699" data-name="Path 16699" d="M49.61,45.1h-18.5l18.5-18.458Z" transform="translate(0 -0.031)" fill="#03571c"/>
    <path id="Path_16700" data-name="Path 16700" d="M31.114,45.1V26.639h18.5Z" transform="translate(0 -0.031)" fill="#96c93e"/>
    <path id="Path_16701" data-name="Path 16701" d="M31.114,45.071V26.64H49.58Z" transform="translate(0 -0.031)" fill="#8bc542"/>
    <g id="Group_7151" data-name="Group 7151" transform="translate(33.462 29.69)">
      <path id="Path_16702" data-name="Path 16702" d="M42.1,34.912a5.041,5.041,0,0,0,3.288-.47,5.137,5.137,0,0,0,2-2.905c.081-.021.138-.038,0,0l0-.041a5.218,5.218,0,0,0-3.553.412A4.706,4.706,0,0,0,42.093,34.1c-.112.282-.187.517-.23.645-.812.666-1.576,1.364-2.3,2.039a4.893,4.893,0,0,0,.168-.54,5.065,5.065,0,0,0,1.779-2.9A5.22,5.22,0,0,0,40.5,29.914a5.236,5.236,0,0,0-1.921,3.015,5.035,5.035,0,0,0,.843,3.182,1.608,1.608,0,0,0,.147.194,1.966,1.966,0,0,1-.482.92l-.062.058a29.033,29.033,0,0,1-2.761,2.359,2.332,2.332,0,0,0,.191-.447,5.235,5.235,0,0,0,1.731-3.16,5.375,5.375,0,0,0-1.266-3.475,5.4,5.4,0,0,0-1.8,3.23A5.311,5.311,0,0,0,36.3,39.162a1.376,1.376,0,0,1-.707.9l-.067.035.008.017a4.364,4.364,0,0,1-1.838.609h-.083l.017.154.073,0a5.012,5.012,0,0,0,2.453-.964,2.873,2.873,0,0,1,.786-.209c.035.047.1.119.168.2a4.932,4.932,0,0,0,2.718,1.764,5.247,5.247,0,0,0,3.474-.876,5.217,5.217,0,0,0-2.939-2.037,4.787,4.787,0,0,0-2.92.552c-.152.077-.281.153-.372.205a4.566,4.566,0,0,0-.478.087,29.953,29.953,0,0,0,2.433-2.1l.008.008.056-.05a2.363,2.363,0,0,1,1.134-.436l.082.113A5.008,5.008,0,0,0,43,39.019a5.239,5.239,0,0,0,3.495-.775,5.234,5.234,0,0,0-2.873-2.128,5.133,5.133,0,0,0-3.38.7,2.922,2.922,0,0,0-.689.175c.7-.647,1.512-1.4,2.376-2.115Z" transform="translate(-33.609 -29.914)" fill="#fff"/>
      <path id="Path_16703" data-name="Path 16703" d="M40.255,34.356a16.36,16.36,0,0,1,.553-4.178l-.029.071a13.312,13.312,0,0,0-.669,4.1,15,15,0,0,1-.137,1.7,1.123,1.123,0,0,0,.182-.288,11.976,11.976,0,0,0,.1-1.406" transform="translate(-33.983 -29.93)" fill="#8bc542"/>
      <path id="Path_16704" data-name="Path 16704" d="M41.2,37.143l-.3.139-.015.027c2.067-.206,5.087.936,5.7,1.171a19.429,19.429,0,0,0-3.34-1.117,8.925,8.925,0,0,0-2.045-.22" transform="translate(-34.037 -30.339)" fill="#03571c"/>
      <path id="Path_16705" data-name="Path 16705" d="M43.141,41.36a17.022,17.022,0,0,0-5.423-1.29,1.432,1.432,0,0,0-.248.078l-.035.044a18.563,18.563,0,0,1,5.778,1.2Z" transform="translate(-33.834 -30.511)" fill="#03571c"/>
      <path id="Path_16706" data-name="Path 16706" d="M47.664,31.673l-.039.012a15.9,15.9,0,0,0-4.811,2.734l-.124.263c.158-.125.316-.253.476-.373a18.809,18.809,0,0,1,4.5-2.636" transform="translate(-34.143 -30.017)" fill="#03571c"/>
      <path id="Path_16707" data-name="Path 16707" d="M37.057,33.077l-.023.073a13.024,13.024,0,0,0-.464,4c0,.571-.007,1.1-.054,1.569a1.753,1.753,0,0,1,.064.271l.041-.017a11.172,11.172,0,0,0,.107-1.823,13.823,13.823,0,0,1,.328-4.073" transform="translate(-33.78 -30.1)" fill="#8bc542"/>
    </g>
  </g>
</svg>
