<svg xmlns="http://www.w3.org/2000/svg" width="131.15" height="20" viewBox="0 0 131.15 20">
  <g id="Group_7149" data-name="Group 7149" transform="translate(-1027 -718)">
    <g id="Group_7143" data-name="Group 7143" transform="translate(1027 718)">
      <rect id="Rectangle_3715" data-name="Rectangle 3715" width="5.074" height="1.538" transform="translate(36.153 0.001)" fill="#1a1818"/>
      <path id="Path_16674" data-name="Path 16674" d="M163.4,78.5h2.419V60.035h7.565V58.5H163.4Z" transform="translate(-119.714 -58.497)" fill="#1a1818"/>
      <path id="Path_16675" data-name="Path 16675" d="M67.8,58.5H66.98L58.4,78.5h1.5l6.957-16.254L70.5,70.349H65.56l-.574,1.379h6.129L74.124,78.5h2.547Z" transform="translate(-58.402 -58.495)" fill="#1a1818"/>
      <path id="Path_16676" data-name="Path 16676" d="M117.53,68.436h-2.3v1.391h.53l6.575,8.67h2.93l-6.708-8.848a6.48,6.48,0,0,0,2.357-1.008,5.217,5.217,0,0,0,2.125-4.52c0-3.888-1.927-5.623-6.251-5.623h-6.3v20h2.445V59.89h4.04c2.757,0,3.513.909,3.513,4.232C120.485,65.975,120.179,68.436,117.53,68.436Z" transform="translate(-88.814 -58.497)" fill="#1a1818"/>
      <rect id="Rectangle_3716" data-name="Rectangle 3716" width="2.274" height="19.998" transform="translate(57.299 0.001)" fill="#1a1818"/>
      <path id="Path_16677" data-name="Path 16677" d="M224.025,77.038a5.34,5.34,0,0,0,2.227-4.443c0-2.673-1.753-4.3-5.684-5.28l-2.374-.6c-2.177-.538-3.982-1.161-3.982-3.364,0-2.064,1.835-3.506,4.464-3.506a6.1,6.1,0,0,1,5.744,3.137l.293.6,1.122-.861-.2-.4c-1.2-2.392-3.8-3.821-6.96-3.821-3.772,0-6.617,2.288-6.617,5.323a4.229,4.229,0,0,0,1.57,3.506,9.847,9.847,0,0,0,3.962,1.669l2.533.606c1.965.464,3.976,1.263,3.976,3.678,0,2.677-2.442,3.874-4.865,3.874-3.158,0-5.781-1.533-6.684-3.909l-.223-.58-1.194.654.159.436c1.041,2.837,4.234,4.743,7.942,4.743A8.068,8.068,0,0,0,224.025,77.038Z" transform="translate(-147.584 -58.496)" fill="#1a1818"/>
      <path id="Path_16678" data-name="Path 16678" d="M299.5,69.827h3.076l6.317,8.67H311.8l-6.483-8.9a5.308,5.308,0,0,0,4.282-5.479c0-3.888-1.929-5.623-6.251-5.623h-1.388V59.89h1.574c2.757,0,3.511.909,3.511,4.232,0,1.853-.305,4.314-2.953,4.314h-4.6V58.5h-2.447v20H299.5Z" transform="translate(-197.751 -58.497)" fill="#1a1818"/>
      <path id="Path_16679" data-name="Path 16679" d="M342.375,78.5V70.3l7.279-11.8h-1.571l-6.357,10.236-6.172-9.979-.16-.256h-2.8l7.336,11.8v8.2Z" transform="translate(-218.505 -58.496)" fill="#1a1818"/>
      <rect id="Rectangle_3717" data-name="Rectangle 3717" width="2.419" height="16.12" transform="translate(86.752 3.879)" fill="#1a1818"/>
      <rect id="Rectangle_3718" data-name="Rectangle 3718" width="17.521" height="1.51" transform="translate(79.214 0.001)" fill="#1a1818"/>
    </g>
  </g>
</svg>
