<svg xmlns="http://www.w3.org/2000/svg" width="24.62" height="18" viewBox="0 0 24.62 18">
  <g id="Group_7222" data-name="Group 7222" transform="translate(-948.52 -418.711)">
    <path id="Path_16760" data-name="Path 16760" d="M954.42,436.711c3.384,0,5.256-2.016,5.256-5.184,0-2.52-1.368-4.608-3.6-4.608a.95.95,0,0,1-1.08-1.08c0-1.368,1.224-3.96,2.736-5.76l-3.38-1.368c-2.732,2.88-5.832,8.064-5.832,12.24C948.52,434.623,950.608,436.711,954.42,436.711Z" fill="#3b719b"/>
    <path id="Path_16761" data-name="Path 16761" d="M967.956,436.711c3.384,0,5.184-2.016,5.184-5.184,0-2.52-1.3-4.608-3.528-4.608-.936,0-1.08-.5-1.08-1.08,0-1.368,1.224-3.96,2.736-5.76l-3.384-1.368c-2.736,2.88-5.832,8.064-5.832,12.24,0,3.672,2.092,5.76,5.908,5.76Z" fill="#3b719b"/>
  </g>
</svg>
