<svg id="Group_7205" data-name="Group 7205" xmlns="http://www.w3.org/2000/svg" width="69.337" height="56" viewBox="0 0 69.337 56">
  <g id="Group_7211" data-name="Group 7211" transform="translate(0 0)">
    <g id="Group_7205-2" data-name="Group 7205" transform="translate(0 0)">
      <path id="Path_16751" data-name="Path 16751" d="M143.6,120.507c-12.354-2.373-20.029-11.169-20.029-22.956a23.265,23.265,0,0,1,23.244-23.159,23.265,23.265,0,0,1,23.2,23.158c0,5.2-1.334,8.549-3.795,12.915l-.457-.258c2.417-4.289,3.727-7.576,3.727-12.657a22.7,22.7,0,0,0-45.391,0c0,11.519,7.511,20.118,19.6,22.44Z" transform="translate(-123.568 -74.392)" fill="#008375"/>
    </g>
    <g id="Group_7210" data-name="Group 7210" transform="translate(9.618 4.393)">
      <path id="Path_16752" data-name="Path 16752" d="M254.488,137.152a2.6,2.6,0,0,0-1.407-.85l-1.424-.175-.114-.014h-.006a12.517,12.517,0,0,0-3.457.741,19.478,19.478,0,0,0-3.915,1.839,13.6,13.6,0,0,0-4.231,3.918c-.514.655-1.6,2.3-.6,3.475a3.1,3.1,0,0,0,2.524,1.007,11.075,11.075,0,0,0,2.552-.39,14.858,14.858,0,0,0,4.435-1.949c.291-.177.59-.36.9-.534a6.413,6.413,0,0,0,1.67-1.561c.075-.034.148-.068.223-.1a4.134,4.134,0,0,0,1.231-.724,13.464,13.464,0,0,0,1.072-1.44C254.82,139.188,255,138.1,254.488,137.152Zm-.5,1.958a1.752,1.752,0,0,0-.053.222,10.214,10.214,0,0,1-1.618,2.016h0c-.27.293-.516.6-.752.907-.077.1-.155.2-.235.3a6.568,6.568,0,0,0-1.081.6,18.711,18.711,0,0,1-4.165,2.327,15.984,15.984,0,0,1-3.962,1.054,4.179,4.179,0,0,1-1.356-.223,2.016,2.016,0,0,1-.976-.66,2.717,2.717,0,0,1-.173-.714c-.126-.9.545-1.765,1.255-2.681.066-.085.133-.171.2-.256a13.49,13.49,0,0,1,3.609-3.054l.041-.022a17.717,17.717,0,0,1,4.073-1.8c.154-.037.306-.075.462-.114a12.507,12.507,0,0,1,1.4-.3l.275.049.011,0a8.6,8.6,0,0,1,2.025.119,1.614,1.614,0,0,1,1.159,1.564A2.849,2.849,0,0,1,253.989,139.111Z" transform="translate(-233.267 -132.333)" fill="#008375"/>
      <g id="Group_7209" data-name="Group 7209">
        <g id="Group_7206" data-name="Group 7206" transform="translate(37.673 34.021)">
          <path id="Path_16753" data-name="Path 16753" d="M483.147,370.287A13.075,13.075,0,0,0,486.3,368.6a1.545,1.545,0,0,0-1.7-2.57c-1.559.879.18,2.116-.189,2.759-.085.085-.132.407-.321.5a2.1,2.1,0,0,1-1.049.321c-1.427-.047-2.117-2.939.227-4.309a6.288,6.288,0,0,1,4.082-.416,3.139,3.139,0,0,1,2.343,1.975,3.071,3.071,0,0,1,0,1.143c0,1.153-.142,2.665-.189,3.95-.038,1.691.236,2.8,2.069,2.06a1.854,1.854,0,0,0,.18-.6,53.4,53.4,0,0,0,.142-5.821c-.18-.416-1.512-.463-1.285-1.379.18-.6.869-.964,1.928-1.333a2.484,2.484,0,0,1,1.465-.368.858.858,0,0,1,.643.227,2.034,2.034,0,0,1,.189,1.058c.689-.416.87-.964,1.739-1.19a3.384,3.384,0,0,1,2.154.274,3.111,3.111,0,0,1,1.238,1.238,6.2,6.2,0,0,1,.189,1.748c.047,1.285-.047,2.656-.095,4.214a7.313,7.313,0,0,0,0,1.7c.142.548,1.106.368,1.285.869a3.8,3.8,0,0,1,.095.879H496.48a5.206,5.206,0,0,1,0-.784c.095-.321.558-.416.832-.643a.65.65,0,0,0,.094-.321v-.274a4.736,4.736,0,0,1,0-.822c.038-1.059.038-1.332.085-2.759.094-1.417.047-2.429-.5-2.844a.844.844,0,0,0-.917-.227c-1.559.321-1.559,1.739-1.559,3.26,0,1.786-.189,2.977.084,3.666.143.274.69.368,1.059.548a1.287,1.287,0,0,1,.416.321,2,2,0,0,1,0,.917c-2.344,0-4.4-.038-5.557,0a13.879,13.879,0,0,1-2.428-.085c-.548-.189-.6-.416-.917-.51-.643-.18-2.759,1.105-4.224.595a3,3,0,0,1-2.155-2.154C480.425,371.732,481.588,371.014,483.147,370.287Zm.6,3.052a1.036,1.036,0,0,0,.851.463,1.558,1.558,0,0,0,1.616-.7,5.155,5.155,0,0,0,.643-2.845,1.61,1.61,0,0,1-.841.51,14.15,14.15,0,0,0-1.522.8,2.494,2.494,0,0,0-.924,1.1A1.45,1.45,0,0,0,483.742,373.339Z" transform="translate(-480.725 -364.506)" fill="#008375" fill-rule="evenodd"/>
        </g>
        <g id="Group_7207" data-name="Group 7207" transform="translate(27.059 32.383)">
          <path id="Path_16754" data-name="Path 16754" d="M401.579,361.124h-.009a6.005,6.005,0,0,1-.917-1.834,4.634,4.634,0,0,1,.595-3.26,5.414,5.414,0,0,1,2.892-2.155,7.3,7.3,0,0,1,2.069-.321c.775.047,1.19.227,2.154.321.18-.453.917-1.417,1.417-1.512,1.285-.321,2.759,1.143,4.318-.227a2.106,2.106,0,0,1-.51,1.512,1.64,1.64,0,0,1-1.238.917c-.963.18-2.343-1.465-2.977-.5-.236.359,0,.6.321.822a5.019,5.019,0,0,1,1.739,1.739,3.428,3.428,0,0,1,.321,2.438,4.708,4.708,0,0,1-.643,1.37,6.027,6.027,0,0,1-.784.879,7.264,7.264,0,0,0-.955.643.745.745,0,0,0-.321.69c0,.227.359.359.728.407a2.838,2.838,0,0,1,1.475.964,3.338,3.338,0,0,1,.68,1.833,2.806,2.806,0,0,1-.321,1.654,5.111,5.111,0,0,1-1.19,1.833,5.958,5.958,0,0,1-6.01,1.843,6.561,6.561,0,0,1-2.7-1.522,4.313,4.313,0,0,1-1.058-2.154,4.66,4.66,0,0,1,.416-2.57,4.2,4.2,0,0,1,1.739-1.739c1.285-.643,3.761.047,4.129,1.559a1.478,1.478,0,0,1-.728,1.38,1.082,1.082,0,0,1-1.058,0c-.369-.236-.6-.831-1.191-.784a1.377,1.377,0,0,0-1.153.784c-.5,1.049.643,2.75,2.249,3.024a3.652,3.652,0,0,0,2.986-1.011,2.472,2.472,0,0,0,.727-3.213,5.983,5.983,0,0,0-2.976-1.881c-1.512-.407-3.034-.548-4.224-1.928Zm2.466-2.656c0,1.285-.18,2.7,1.011,3.213a2.6,2.6,0,0,0,.832.179,2.005,2.005,0,0,0,.728-.179c1.19-.51,1.011-1.928,1.011-3.213,0-1.153.274-2.438-.69-2.986a2.078,2.078,0,0,0-1.049-.321,2.122,2.122,0,0,0-.926.321C403.96,356.077,404.045,357.278,404.045,358.468Z" transform="translate(-400.563 -352.137)" fill="#008375" fill-rule="evenodd"/>
        </g>
        <g id="Group_7208" data-name="Group 7208" transform="translate(17.415 33.716)">
          <path id="Path_16755" data-name="Path 16755" d="M332.087,368.248h-1.361c0,1.928.189,3.213,2.07,3.676a1.46,1.46,0,0,0,1.1-.142c.879-.274,1.654-1.606,2.561-1.512.227.047.463.274.416.416-1.323,3.487-5.131,4.262-7.8,1.1a6.65,6.65,0,0,1-1.191-2.7,6.449,6.449,0,0,1,.274-3.723,5.268,5.268,0,0,1,2.665-2.75,4.711,4.711,0,0,1,1.833-.406,6.817,6.817,0,0,1,2.391.68,4.715,4.715,0,0,1,1.824,5.367Zm1.994-1.559c.406-1.238-.321-2.977-1.606-2.977s-1.748,1.881-1.654,2.977h3.26Z" transform="translate(-327.73 -362.2)" fill="#008375" fill-rule="evenodd"/>
        </g>
        <path id="Path_16756" data-name="Path 16756" d="M220.841,131.237c-.869.226-3.666-.094-5.272,1.058a4.014,4.014,0,0,0-1.8,3.656,11.216,11.216,0,0,0,.509,2.438c.643-2.986,1.692-4.64,4.9-4.9-.274,1-1.1,1.1-2.154,2.466a35.55,35.55,0,0,0-3.26,4.319,19.1,19.1,0,0,0-1.975,3.666s-.133.322-.322.738c-.133.274-.274.727-.6.774,0-6.057-2.154-7.938.511-13.8a28.793,28.793,0,0,0,1.417-3.391,10.008,10.008,0,0,0,.218-1.036,32.3,32.3,0,0,0,.2-5.9c.463.094,1.19.963,1.559,1.521-.227-.916-.047-1.427.416-2.806,1.01.142.594,1.152,1.1,2.485l.416-3.4a8.428,8.428,0,0,1,3.393-.085c-.87-.689-1.606-.916-1.834-1.843a8.863,8.863,0,0,0,3.666-.406c-1.643-1.012-2.239-1.379-2.381-1.654a6.84,6.84,0,0,0,3.34-2.606,3.417,3.417,0,0,1-2.055.773c.142-.963,1.55-1.8,2.419-2.155-2.419-.047-2.239.274-3.7.5.322-1.833.822-2.749,1.7-3.355-1.058.416-1.843,1.521-3.08,1.607a4.061,4.061,0,0,1,1.105-2.155.331.331,0,0,0-.095-.178,45.4,45.4,0,0,0-4.064,3.033s0,0,0,0h-.007l0,0a1.982,1.982,0,0,1-.244-.558c0-.916-.142-1.427.407-2.2a6.994,6.994,0,0,0-2.155,2.477,8.764,8.764,0,0,0-1.739-2.023c-.275-.227-.558-.18-.916-.227a3.8,3.8,0,0,1-.189,2.891,3.826,3.826,0,0,1-2.2-1.417,4.518,4.518,0,0,1,.227,2.609,1.412,1.412,0,0,1-1-1.692c-.737.642-.511,1.37-.832,2.428a2.86,2.86,0,0,1-2.381-1.739,7.177,7.177,0,0,0,.227,3.809c-1.512.038-2.94,0-3.487-1.247-.274,1.247.416,1.843.822,3.08a13.724,13.724,0,0,0-1.559.5c-.248.084-.488.177-.722.277a25.082,25.082,0,0,1-2.85,1.235,7.771,7.771,0,0,0,2.655.236l-2.977,2.977c1.813-.549.625-.865,3.171-.911.214,0,.453-.005.722-.005l-.722.8-2.529,2.786a9.179,9.179,0,0,1,2.529-1.114,8.639,8.639,0,0,1,1.554-.218c-.047.595-1.474,2.39-1.154,3.58.643-1.285,2.76-2.343,4.045-2.57-.189,1.654-.558,2.25-.832,2.381,2.07-.453,2.25-2.012,3.4-2.248.18.736.454,1.105.6,1.928.68-2.2,1.417-3.213,1.739-3.393a7.609,7.609,0,0,1-.094,2.891c1.379-1.238,1.606-1.19,2.343-3.071a5.8,5.8,0,0,1,.7.189,2.743,2.743,0,0,1,.634.312,15.274,15.274,0,0,1-.35,3.878c-.046.178-.1.353-.16.525-.36,1.152-.965,2.154-1.323,3.071a19.713,19.713,0,0,0-1.427,4.9c-.416,2.021.689,8.485.189,8.305-.094,0-.142.18-.321-.189-.236-.642-.284-.916-.511-1.643a13.3,13.3,0,0,0-1.417-3.213c-3.95-6.691-8.4-7.8-9.09-7.881a18.737,18.737,0,0,0,1.879,1.786,20.991,20.991,0,0,1,3.4,4.167,26.089,26.089,0,0,1,4.31,9.724c.273,1.38.642,2.891.784,4.271.038.454.132,1.011.132,1.37h3.714a23.8,23.8,0,0,1,1.332-8.259,26.265,26.265,0,0,1,1.512-3.2c.284-.462.689-1.2,1.105-1.748.227-.273.549-.415.643-.642a3.133,3.133,0,0,0,2.248-.094,2.675,2.675,0,0,0,1.417-.69,3.248,3.248,0,0,0,1.059-1.238c.822-1.739.369-2.891,1-4.479.549-1.379,1.285-1.8,1.654-2.986A9.4,9.4,0,0,1,220.841,131.237Zm-9.175-9.053a2.915,2.915,0,0,0-1.011-.349,3.8,3.8,0,0,1-1.286,2.334,15.092,15.092,0,0,0,0-2.561,2.748,2.748,0,0,0-1.654,1.834c-.406.727-.453.5-.642.822a16.9,16.9,0,0,1-.407-1.654c-.689.274-.51,1.654-2.248,2.486.179-.322.084-.832.084-2.07l-3.25,1.559c.406-1.012,1.049-1.739,1.143-2.155l-2.986.5a5.827,5.827,0,0,0,1.2-1.417c.549-.6.69-.738.727-1.012h-2.844l.885-.558,2.6-1.643a13.775,13.775,0,0,1-2.6.227h-.1c.034-.016.067-.032.1-.049a20.083,20.083,0,0,1,2.1-1.049c.549-.236.823-.236,1.512-.509a2.2,2.2,0,0,1-1.332-1.559,5.248,5.248,0,0,0,3.4-.227c-.142-.87-.595-1.332-.322-2.108,1.145.085,1.239.643,2.335.87a8.78,8.78,0,0,1,.236-1.606,3.725,3.725,0,0,0,1.512.5,4.36,4.36,0,0,0,.227-1.644,2.917,2.917,0,0,0,1.606.823,12.061,12.061,0,0,1,.642-2.666,3.692,3.692,0,0,1,1.332,2.155,3.647,3.647,0,0,0,1.5-.86l.366.69v.02l-.016.037a.232.232,0,0,0-.02.113l.134-.1,3.061-2.246c.085,0-.076.011.019.1a5.479,5.479,0,0,0-.642,2.334,20.829,20.829,0,0,0,2.248-1.512,10.6,10.6,0,0,1-1.011,2.664l2.664-.831a4.941,4.941,0,0,1-2.759,1.928c.236.509,1.058.32,2.022.32-1.286.51-1.606.548-2.524.917a14.564,14.564,0,0,1,2.429,1.427,7.18,7.18,0,0,1-3.071-.189,2.875,2.875,0,0,0,1.238,2.022c-1.1.18-1.465-.227-2.477-.369.133.738.416.869,0,1.512a3.115,3.115,0,0,0-1.927,0c.094.463.547.738.415,1.474-.642-.274-.916-.642-1.559-.736a7.783,7.783,0,0,0-.415,2.343C212.109,122.411,211.892,122.288,211.665,122.184Z" transform="translate(-196.206 -107.566)" fill="#008375" fill-rule="evenodd"/>
      </g>
    </g>
  </g>
  <g id="Group_7212" data-name="Group 7212" transform="translate(66.387 37.305)">
    <path id="Path_16757" data-name="Path 16757" d="M624.942,356.377h.506v1.354h.27v-1.354h.508v-.248h-1.283Z" transform="translate(-624.942 -356.13)" fill="#008375"/>
    <path id="Path_16758" data-name="Path 16758" d="M636.86,356.13l-.375,1.091c-.019.056-.036.106-.05.148-.013-.037-.026-.08-.042-.129l-.371-1.11h-.362v1.6h.262v-1.14l.388,1.14h.23l.39-1.122v1.122h.262v-1.6Z" transform="translate(-634.24 -356.13)" fill="#008375"/>
  </g>
</svg>
