<svg xmlns="http://www.w3.org/2000/svg" width="164" height="164" viewBox="0 0 164 164"><defs><style>.a{fill:#fff;}.b{fill:#2c2c2c;}</style></defs><g transform="translate(-4110 116)"><rect class="a" width="164" height="164" transform="translate(4110 -116)"/><g transform="translate(4115.849 -110.533)"><rect class="b" width="15.238" height="15.238" transform="translate(15.238 15.238)"/><path class="b" d="M340.419,0V7.619H332.8v7.619h7.619V45.714h7.619v7.619h-7.619v7.619h15.238V45.714h22.857v7.619h7.619V0Zm7.619,38.095V7.619h30.476V38.095Z" transform="translate(-233.754)"/><rect class="b" width="15.238" height="15.238" transform="translate(121.903 15.238)"/><rect class="b" width="15.238" height="15.238" transform="translate(15.238 121.903)"/><rect class="b" width="7.619" height="7.619" transform="translate(106.665 106.665)"/><rect class="b" width="7.619" height="7.619" transform="translate(68.571 144.76)"/><rect class="b" width="7.619" height="7.619" transform="translate(76.19 114.284)"/><rect class="b" width="7.619" height="7.619" transform="translate(76.19 129.522)"/><rect class="b" width="7.619" height="7.619" transform="translate(144.76 91.427)"/><rect class="b" width="7.619" height="7.619" transform="translate(0 91.427)"/><rect class="b" width="7.619" height="7.619" transform="translate(0 53.333)"/><path class="b" d="M253.257,40.838V25.6h-7.619v7.619H230.4v7.619Z" transform="translate(-161.829 -17.981)"/><path class="b" d="M232.533,220.038v-7.619h-7.619v7.619H209.676v7.619h22.857v7.619H209.676v-7.619h-7.619v7.619h-7.619v-7.619h-7.619v7.619H179.2v7.619h15.238v7.619h7.619v-7.619h15.238v7.619h-7.619v7.619h7.619v15.238h7.619v7.619h7.619v-7.619H255.39V258.133h7.619v-7.619H255.39V235.276H240.152v-7.619H255.39v7.619h7.619v-7.619h7.619v-7.619h7.619V204.8h-7.619v7.619H255.39v7.619Zm15.238,22.857v22.857H224.914V242.895Z" transform="translate(-125.867 -143.848)"/><path class="b" d="M281.6,161.219v15.238h7.619v-7.619h7.619v-7.619h7.619V153.6H289.219v7.619Z" transform="translate(-197.792 -107.886)"/><rect class="b" width="15.238" height="7.619" transform="translate(83.809 144.76)"/><rect class="b" width="7.619" height="7.619" transform="translate(60.952 7.619)"/><rect class="b" width="7.619" height="7.619" transform="translate(121.903 60.952)"/><rect class="b" width="7.619" height="7.619" transform="translate(129.522 53.333)"/><rect class="b" width="7.619" height="7.619" transform="translate(30.476 91.427)"/><path class="b" d="M53.333,332.8H45.714v7.619H22.857V332.8H7.619v7.619H0v45.714H60.952v-7.619H45.714V348.038h7.619V332.8ZM38.095,378.514H7.619V348.038H38.095Z" transform="translate(0 -233.754)"/><rect class="b" width="7.619" height="7.619" transform="translate(45.714 45.714)"/><path class="b" d="M15.238,45.714h7.619v7.619h7.619V45.714H45.714V30.476h7.619V22.857H45.714V7.619H60.952V0H0V45.714H7.619v7.619h7.619ZM7.619,7.619H38.095V38.095H7.619Z"/><rect class="b" width="7.619" height="7.619" transform="translate(91.427 22.857)"/><rect class="b" width="7.619" height="7.619" transform="translate(76.19)"/><path class="b" d="M53.333,148.114v-7.619H68.571v7.619H83.809v-7.619H76.19v-7.619H68.571V117.638H91.427v-7.619H83.809V102.4H76.19v7.619H60.952V102.4H53.333v15.238h7.619v15.238H38.095v-7.619H30.476v7.619H7.619v7.619H22.857v7.619H0v7.619H22.857v7.619h7.619v-7.619h7.619v7.619h7.619v-7.619H60.952v-7.619Zm-22.857,0v-7.619H45.714v7.619Z" transform="translate(0 -71.924)"/><path class="b" d="M194.438,366.019V358.4h-7.619v7.619H179.2v7.619h7.619v7.619H179.2v7.619h15.238v-7.619h7.619v-7.619h-7.619Z" transform="translate(-125.867 -251.735)"/><path class="b" d="M358.4,442.819v7.619h15.238v7.619h7.619v-7.619h15.238v7.619h7.619V442.819H388.876V435.2h-7.619v7.619Z" transform="translate(-251.735 -305.678)"/><path class="b" d="M476.038,373.638V358.4h-7.619v7.619H460.8v7.619Z" transform="translate(-323.659 -251.735)"/></g></g></svg>